g f_glasses_frillishglasses_a
v 0.89607525 91.08251 6.5893817
v 0.9163497 91.56057 6.6155176
v 1.3934653 91.48432 6.6102138
v 1.0465281 92.02161 6.62469
v 1.2812532 90.79804 6.5697246
v 0.98657995 90.62255 6.5482874
v 1.1795576 90.21365 6.4954495
v 1.7985765 90.7164 6.536593
v 1.5014238 92.17236 6.621392
v 1.2764753 92.4321 6.6163235
v 1.5879846 92.763084 6.5912857
v 2.018749 92.09073 6.5882583
v 1.6978209 90.13162 6.4688053
v 1.458998 89.8834 6.43486
v 1.8038851 89.65197 6.370767
v 1.9119385 91.40221 6.5850105
v 2.2830048 90.04071 6.393451
v 2.1911445 89.53189 6.3073163
v 2.597262 89.52949 6.2483087
v 2.3849103 90.62501 6.469172
v 2.8639414 89.95159 6.2887926
v 2.9978616 89.64581 6.197312
v 3.3670716 89.875916 6.157769
v 2.964696 90.536354 6.3565807
v 3.4687655 90.46028 6.23204
v 3.5809758 91.146545 6.2725353
v 3.6785822 90.206894 6.1327205
v 3.9085307 90.61738 6.124351
v 4.0387077 91.07843 6.1335287
v 4.0589833 91.55649 6.159669
v 3.078056 91.22214 6.405001
v 3.688937 91.8346 6.283711
v 3.9684782 92.016426 6.2007647
v 3.775498 92.42532 6.253605
v 3.1848686 91.910675 6.408248
v 2.4977698 91.31101 6.51412
v 2.6050854 91.99933 6.5208373
v 2.6914392 92.59014 6.4892893
v 3.2723703 92.50101 6.384631
v 3.4960573 92.75558 6.3142056
v 3.151176 92.987015 6.3782754
v 2.7639103 93.10708 6.4417086
v 2.3578012 93.10951 6.5007515
v 2.1062515 92.68106 6.564643
v 1.9571953 92.993164 6.551758
v -0.89607525 91.08251 6.5893817
v -1.3934653 91.48432 6.6102138
v -0.9163497 91.56057 6.6155176
v -1.0465281 92.02161 6.62469
v -1.2812532 90.79804 6.5697246
v -0.98657995 90.62255 6.5482874
v -1.1795576 90.21365 6.4954495
v -1.7985765 90.7164 6.536593
v -1.5014238 92.17236 6.621392
v -1.2764753 92.4321 6.6163235
v -1.5879846 92.763084 6.5912857
v -2.018749 92.09073 6.5882583
v -1.6978209 90.13162 6.4688053
v -1.458998 89.8834 6.43486
v -1.8038851 89.65197 6.370767
v -1.9119385 91.40221 6.5850105
v -2.2830048 90.04071 6.393451
v -2.1911445 89.53189 6.3073163
v -2.597262 89.52949 6.2483087
v -2.3849103 90.62501 6.469172
v -2.8639414 89.95159 6.2887926
v -2.9978616 89.64581 6.197312
v -3.3670716 89.875916 6.157769
v -2.964696 90.536354 6.3565807
v -3.4687655 90.46028 6.23204
v -3.5809758 91.146545 6.2725353
v -3.6785822 90.206894 6.1327205
v -3.9085307 90.61738 6.124351
v -4.0387077 91.07843 6.1335287
v -4.0589833 91.55649 6.159669
v -3.078056 91.22214 6.405001
v -3.688937 91.8346 6.283711
v -3.9684782 92.016426 6.2007647
v -3.775498 92.42532 6.253605
v -3.1848686 91.910675 6.408248
v -2.4977698 91.31101 6.51412
v -2.6050854 91.99933 6.5208373
v -2.6914392 92.59014 6.4892893
v -3.2723703 92.50101 6.384631
v -3.4960573 92.75558 6.3142056
v -3.151176 92.987015 6.3782754
v -2.7639103 93.10708 6.4417086
v -2.3578012 93.10951 6.5007515
v -2.1062515 92.68106 6.564643
v -1.9571953 92.993164 6.551758
vt 1.2193031 0.8125037
vt 1.2147908 0.8489608
vt 1.2518916 0.84896386
vt 1.2193012 0.88541317
vt 1.2518437 0.79573715
vt 1.2317581 0.77886355
vt 1.2514048 0.7498876
vt 1.2920158 0.7957401
vt 1.2518361 0.9021784
vt 1.2317514 0.91904974
vt 1.2513866 0.9480227
vt 1.2920043 0.9021918
vt 1.2918353 0.74991906
vt 1.2768459 0.7278141
vt 1.3064277 0.7141988
vt 1.292079 0.848962
vt 1.3378272 0.7499088
vt 1.3378346 0.709666
vt 1.369239 0.71421134
vt 1.3378226 0.7957679
vt 1.3838198 0.74993515
vt 1.3988138 0.7278364
vt 1.4242451 0.74991477
vt 1.3836235 0.7957524
vt 1.4237971 0.79575825
vt 1.4237356 0.848982
vt 1.4438827 0.7788898
vt 1.4563315 0.81252956
vt 1.4608382 0.84898406
vt 1.4563222 0.88544023
vt 1.383553 0.8489717
vt 1.4237835 0.9022001
vt 1.4438653 0.9190762
vt 1.4242198 0.94804895
vt 1.3836093 0.9022041
vt 1.3378127 0.8489744
vt 1.3378093 0.9021644
vt 1.3378005 0.9480313
vt 1.3837931 0.94801533
vt 1.3987811 0.97012126
vt 1.369201 0.9837378
vt 1.3377942 0.9882698
vt 1.3063898 0.9837264
vt 1.291811 0.94800043
vt 1.2768157 0.97009873
vt 1.0162263 0.62259185
vt 1.0488199 0.6590445
vt 1.0117188 0.65904856
vt 1.0162339 0.6955013
vt 1.048762 0.6058223
vt 1.0286758 0.5889527
vt 1.0483127 0.5599767
vt 1.0889318 0.60581285
vt 1.0487735 0.71226436
vt 1.0286899 0.72913975
vt 1.0483353 0.75811243
vt 1.0889454 0.71226496
vt 1.0887389 0.55999815
vt 1.0737438 0.53789926
vt 1.1033185 0.5242746
vt 1.0890067 0.65903896
vt 1.1347282 0.5599715
vt 1.1347222 0.51973087
vt 1.166128 0.5242652
vt 1.1347367 0.6058339
vt 1.1807203 0.55998564
vt 1.195708 0.53788036
vt 1.2211475 0.5599524
vt 1.1805377 0.60580003
vt 1.2207116 0.60579896
vt 1.2206639 0.6590205
vt 1.2407941 0.5889234
vt 1.2532508 0.6225617
vt 1.2577662 0.6590153
vt 1.2532592 0.69547194
vt 1.180481 0.659025
vt 1.2207249 0.71224093
vt 1.2408104 0.7291095
vt 1.2211742 0.75808644
vt 1.1805518 0.7122521
vt 1.1347413 0.6590334
vt 1.1347511 0.71222955
vt 1.1347563 0.75809443
vt 1.1807487 0.75806564
vt 1.1957431 0.7801652
vt 1.1661682 0.7937916
vt 1.1347632 0.7983343
vt 1.1033561 0.7938023
vt 1.0887644 0.75808
vt 1.0737748 0.78018427
vn 0.0015718222 -0.06372854 0.99796605
vn 0.0049778163 -0.038366932 0.9992513
vn 0.038168296 -0.043645993 0.9983177
vn 0.009676774 -0.013184819 0.99986625
vn 0.031590268 -0.09413577 0.99505806
vn -0.005363406 -0.11237777 0.9936511
vn 0.03339173 -0.12982477 0.9909745
vn 0.07333588 -0.10373257 0.9918978
vn 0.047713924 0.0064780507 0.99884003
vn 0.018341357 0.03538143 0.99920565
vn 0.060605686 0.040030822 0.99735874
vn 0.09039914 0.0027785557 0.99590176
vn 0.070176505 -0.14266132 0.98728067
vn 0.04021521 -0.1732675 0.9840534
vn 0.09269343 -0.18199122 0.9789215
vn 0.080800235 -0.050367385 0.99545693
vn 0.1275652 -0.1534851 0.9798823
vn 0.121595666 -0.1869701 0.9748112
vn 0.15058084 -0.19090801 0.9699894
vn 0.1342847 -0.1143911 0.98431826
vn 0.18510425 -0.16040185 0.96953994
vn 0.20236906 -0.19828364 0.95902574
vn 0.22341105 -0.1591655 0.96164125
vn 0.19506314 -0.12253182 0.9731066
vn 0.23677294 -0.12582247 0.9633833
vn 0.24663226 -0.07583631 0.9661374
vn 0.2645787 -0.15405793 0.95197904
vn 0.2738766 -0.10578538 0.95592946
vn 0.27863103 -0.080630295 0.9570076
vn 0.2819622 -0.055223044 0.9578349
vn 0.2050548 -0.06955431 0.9762759
vn 0.25288156 -0.02519802 0.96716905
vn 0.28821567 -0.006283251 0.957545
vn 0.2506193 0.010694458 0.96802664
vn 0.21212518 -0.01601493 0.9771113
vn 0.14321685 -0.06008172 0.987866
vn 0.1517152 -0.0055854195 0.9884085
vn 0.15757935 0.03387009 0.98692536
vn 0.21452367 0.023235576 0.9764423
vn 0.24287716 0.05452239 0.9685236
vn 0.19124216 0.062879644 0.9795267
vn 0.16243961 0.06783468 0.98438394
vn 0.1333586 0.07180975 0.98846287
vn 0.099591754 0.04097819 0.9941843
vn 0.0807023 0.079560615 0.9935579
vn -0.0015717762 -0.06372874 0.99796605
vn -0.038168386 -0.043646008 0.9983177
vn -0.004978088 -0.03836735 0.9992513
vn -0.009677109 -0.013184819 0.99986625
vn -0.031590313 -0.09413545 0.99505806
vn 0.0053617675 -0.11237735 0.9936512
vn -0.03339177 -0.12982467 0.9909745
vn -0.0733357 -0.103732385 0.9918978
vn -0.047713883 0.006477948 0.99884003
vn -0.018340712 0.035381418 0.99920565
vn -0.060605664 0.04003065 0.99735874
vn -0.09039913 0.0027785113 0.99590176
vn -0.07017653 -0.14266166 0.98728055
vn -0.040215094 -0.17327072 0.9840529
vn -0.092693895 -0.18199274 0.9789211
vn -0.080800116 -0.05036733 0.99545693
vn -0.12756534 -0.15348503 0.9798823
vn -0.12159634 -0.18697084 0.97481084
vn -0.15058053 -0.19090769 0.96998954
vn -0.13428403 -0.11439067 0.9843183
vn -0.18510394 -0.16040158 0.96954006
vn -0.20237109 -0.19828603 0.9590248
vn -0.22341053 -0.15916535 0.96164143
vn -0.19506203 -0.12253115 0.9731068
vn -0.23677203 -0.12582229 0.9633835
vn -0.24663217 -0.075836286 0.9661374
vn -0.2645818 -0.15406017 0.95197797
vn -0.2738763 -0.1057853 0.9559296
vn -0.27863127 -0.08063031 0.95700747
vn -0.2819614 -0.055222884 0.95783514
vn -0.20505418 -0.06955381 0.97627616
vn -0.25288197 -0.025198106 0.96716905
vn -0.2882141 -0.006283248 0.9575454
vn -0.25061932 0.010694504 0.96802664
vn -0.21212532 -0.01601496 0.9771113
vn -0.14321606 -0.06008117 0.98786604
vn -0.15171501 -0.005585372 0.9884085
vn -0.15757912 0.033870116 0.98692536
vn -0.21452372 0.023235666 0.9764423
vn -0.24287856 0.05452286 0.9685232
vn -0.19124329 0.062880084 0.97952646
vn -0.16243842 0.06783424 0.9843842
vn -0.13335808 0.07180981 0.98846287
vn -0.09959181 0.040978253 0.9941843
vn -0.08070192 0.079560645 0.9935579
g f_glasses_frillishglasses_a_0
f 3/3/3 2/2/2 1/1/1
f 4/4/4 2/2/2 3/3/3
f 1/1/1 5/5/5 3/3/3
f 6/6/6 5/5/5 1/1/1
f 5/5/5 6/6/6 7/7/7
f 5/5/5 7/7/7 8/8/8
f 5/5/5 8/8/8 3/3/3
f 3/3/3 9/9/9 4/4/4
f 9/9/9 10/10/10 4/4/4
f 9/9/9 11/11/11 10/10/10
f 9/9/9 3/3/3 12/12/12
f 9/9/9 12/12/12 11/11/11
f 7/7/7 13/13/13 8/8/8
f 7/7/7 14/14/14 13/13/13
f 13/13/13 14/14/14 15/15/15
f 8/8/8 16/16/16 3/3/3
f 3/3/3 16/16/16 12/12/12
f 17/17/17 13/13/13 15/15/15
f 15/15/15 18/18/18 17/17/17
f 17/17/17 18/18/18 19/19/19
f 8/8/8 13/13/13 20/20/20
f 8/8/8 20/20/20 16/16/16
f 13/13/13 17/17/17 20/20/20
f 19/19/19 21/21/21 17/17/17
f 21/21/21 19/19/19 22/22/22
f 21/21/21 22/22/22 23/23/23
f 21/21/21 24/24/24 17/17/17
f 24/24/24 21/21/21 23/23/23
f 24/24/24 20/20/20 17/17/17
f 25/25/25 24/24/24 23/23/23
f 25/25/25 26/26/26 24/24/24
f 25/25/25 23/23/23 27/27/27
f 25/25/25 27/27/27 28/28/28
f 26/26/26 25/25/25 28/28/28
f 28/28/28 29/29/29 26/26/26
f 26/26/26 29/29/29 30/30/30
f 24/24/24 31/31/31 20/20/20
f 26/26/26 31/31/31 24/24/24
f 30/30/30 32/32/32 26/26/26
f 32/32/32 30/30/30 33/33/33
f 32/32/32 33/33/33 34/34/34
f 32/32/32 35/35/35 26/26/26
f 35/35/35 32/32/32 34/34/34
f 35/35/35 31/31/31 26/26/26
f 31/31/31 36/36/36 20/20/20
f 20/20/20 36/36/36 16/16/16
f 37/37/37 36/36/36 31/31/31
f 16/16/16 36/36/36 37/37/37
f 35/35/35 37/37/37 31/31/31
f 38/38/38 37/37/37 35/35/35
f 12/12/12 16/16/16 37/37/37
f 12/12/12 37/37/37 38/38/38
f 39/39/39 35/35/35 34/34/34
f 39/39/39 38/38/38 35/35/35
f 39/39/39 34/34/34 40/40/40
f 39/39/39 40/40/40 41/41/41
f 38/38/38 39/39/39 41/41/41
f 41/41/41 42/42/42 38/38/38
f 38/38/38 42/42/42 43/43/43
f 44/44/44 12/12/12 38/38/38
f 43/43/43 44/44/44 38/38/38
f 12/12/12 44/44/44 11/11/11
f 44/44/44 43/43/43 45/45/45
f 44/44/44 45/45/45 11/11/11
f 48/48/48 47/47/47 46/46/46
f 48/48/48 49/49/49 47/47/47
f 50/50/50 46/46/46 47/47/47
f 50/50/50 51/51/51 46/46/46
f 51/51/51 50/50/50 52/52/52
f 52/52/52 50/50/50 53/53/53
f 53/53/53 50/50/50 47/47/47
f 54/54/54 47/47/47 49/49/49
f 55/55/55 54/54/54 49/49/49
f 56/56/56 54/54/54 55/55/55
f 47/47/47 54/54/54 57/57/57
f 57/57/57 54/54/54 56/56/56
f 58/58/58 52/52/52 53/53/53
f 59/59/59 52/52/52 58/58/58
f 59/59/59 58/58/58 60/60/60
f 61/61/61 53/53/53 47/47/47
f 61/61/61 47/47/47 57/57/57
f 58/58/58 62/62/62 60/60/60
f 63/63/63 60/60/60 62/62/62
f 63/63/63 62/62/62 64/64/64
f 58/58/58 53/53/53 65/65/65
f 65/65/65 53/53/53 61/61/61
f 62/62/62 58/58/58 65/65/65
f 66/66/66 64/64/64 62/62/62
f 64/64/64 66/66/66 67/67/67
f 67/67/67 66/66/66 68/68/68
f 69/69/69 66/66/66 62/62/62
f 66/66/66 69/69/69 68/68/68
f 65/65/65 69/69/69 62/62/62
f 69/69/69 70/70/70 68/68/68
f 71/71/71 70/70/70 69/69/69
f 68/68/68 70/70/70 72/72/72
f 72/72/72 70/70/70 73/73/73
f 70/70/70 71/71/71 73/73/73
f 74/74/74 73/73/73 71/71/71
f 74/74/74 71/71/71 75/75/75
f 76/76/76 69/69/69 65/65/65
f 76/76/76 71/71/71 69/69/69
f 77/77/77 75/75/75 71/71/71
f 75/75/75 77/77/77 78/78/78
f 78/78/78 77/77/77 79/79/79
f 80/80/80 77/77/77 71/71/71
f 77/77/77 80/80/80 79/79/79
f 76/76/76 80/80/80 71/71/71
f 81/81/81 76/76/76 65/65/65
f 81/81/81 65/65/65 61/61/61
f 81/81/81 82/82/82 76/76/76
f 81/81/81 61/61/61 82/82/82
f 82/82/82 80/80/80 76/76/76
f 82/82/82 83/83/83 80/80/80
f 61/61/61 57/57/57 82/82/82
f 82/82/82 57/57/57 83/83/83
f 80/80/80 84/84/84 79/79/79
f 83/83/83 84/84/84 80/80/80
f 79/79/79 84/84/84 85/85/85
f 85/85/85 84/84/84 86/86/86
f 84/84/84 83/83/83 86/86/86
f 87/87/87 86/86/86 83/83/83
f 87/87/87 83/83/83 88/88/88
f 57/57/57 89/89/89 83/83/83
f 89/89/89 88/88/88 83/83/83
f 89/89/89 57/57/57 56/56/56
f 88/88/88 89/89/89 90/90/90
f 90/90/90 89/89/89 56/56/56
