g mesh_slash
v -0.219293 0.10801 0.010664425
v -0.27671704 0.09680309 0
v -0.22401723 0.17950375 0
v -0.19226582 0.15809841 0.010664425
v -0.1405716 0.09816408 0
v -0.12643422 0.12210662 0
v -0.15743835 0.19350123 0.010664405
v -0.17705156 0.22514877 0
v -0.10791343 0.14171006 0
v -0.11637334 0.22142929 0.010664358
v -0.13041808 0.25351626 0
v -0.07829173 0.16601998 0
v -0.07064887 0.24080932 0.010664358
v -0.07914656 0.27224103 0
v -0.044496424 0.18408383 0
v -0.02520701 0.28060347 0
v -0.022022119 0.25089657 0.010664362
v -0.007826498 0.19520757 0
v 0.029327411 0.27828205 0
v 0.027638199 0.2513034 0.010664374
v 0.030308997 0.19896372 0
v 0.082361065 0.26536614 -4.7683715E-09
v 0.07642369 0.24201417 0.010664362
v 0.06844449 0.19520757 -2.3841857E-09
v 0.13185598 0.24235205 0
v 0.12245952 0.22338584 0.010664358
v 0.1051145 0.1840839 0
v 0.13890971 0.16602008 9.536743E-09
v 0.17591 0.21012409 0
v 0.16397661 0.1961343 0.010664377
v 0.16853155 0.14171024 -9.536743E-09
v 0.19937941 0.16130681 0.010664425
v 0.21283025 0.16992098 0
v 0.19284146 0.11208849 9.536743E-09
v 0.22730748 0.12024176 0.010664425
v 0.24119781 0.12328759 0
v 0.21090528 0.07829317 9.536743E-09
v 0.24668752 0.07451727 0.010664425
v 0.25992274 0.07201593 0
v 0.222029 0.041623216 0
v 0.25677478 0.025890507 0.010664425
v 0.2682848 0.018076507 0
v 0.22578514 0.0034877227 0
v 0.25718158 -0.023769826 0.010664425
v 0.22202905 -0.034647767 0
v 0.26596367 -0.036457967 0
v 0.24789234 -0.07255533 0.010664425
v 0.2530475 -0.089491636 0
v -0.22401723 0.17950375 0
v -0.27671704 0.09680309 0
v -0.21906228 0.108065695 -0.010664425
v -0.19226582 0.15809841 -0.010664425
v -0.1405716 0.09816408 0
v -0.12643422 0.12210662 0
v -0.15743837 0.19350123 -0.010664405
v -0.17705156 0.22514877 0
v -0.10791343 0.14171006 0
v -0.11637334 0.22142929 -0.010664358
v -0.13041808 0.25351626 0
v -0.07829173 0.16601998 0
v -0.070648864 0.24080932 -0.010664358
v -0.07914656 0.27224103 0
v -0.044496424 0.18408383 0
v -0.02520701 0.28060347 0
v -0.022022119 0.25089657 -0.010664358
v -0.007826498 0.19520757 0
v 0.029327411 0.27828205 0
v 0.027638197 0.2513034 -0.010664377
v 0.030308997 0.19896372 0
v 0.082361065 0.26536614 -4.7683715E-09
v 0.07642369 0.24201417 -0.010664362
v 0.06844449 0.19520757 -2.3841857E-09
v 0.13185598 0.24235205 0
v 0.12245952 0.22338584 -0.010664358
v 0.1051145 0.1840839 0
v 0.13890971 0.16602008 9.536743E-09
v 0.17591 0.21012409 0
v 0.16397661 0.1961343 -0.0106643485
v 0.16853155 0.14171024 -9.536743E-09
v 0.19937941 0.16130681 -0.010664425
v 0.21283025 0.16992098 0
v 0.19284146 0.11208849 9.536743E-09
v 0.22730748 0.12024176 -0.010664425
v 0.24119781 0.12328759 0
v 0.21090528 0.07829317 9.536743E-09
v 0.24668752 0.07451727 -0.010664425
v 0.25992274 0.07201593 0
v 0.222029 0.041623216 0
v 0.25677478 0.025890507 -0.010664425
v 0.2682848 0.018076507 0
v 0.22578514 0.0034877227 0
v 0.25718158 -0.023769826 -0.010664425
v 0.22202905 -0.034647767 0
v 0.26596367 -0.036457967 0
v 0.24789234 -0.07255533 -0.010664425
v 0.2530475 -0.089491636 0
vt 0.06848639 0.7348839
vt 0.026302576 0.9447453
vt 0.14465815 0.9447453
vt 0.14999664 0.7348839
vt 0.075068176 0.011863798
vt 0.15533516 0.011863798
vt 0.20833093 0.7348839
vt 0.20388216 0.9447453
vt 0.21277967 0.011863798
vt 0.26666528 0.7348839
vt 0.2631063 0.9447453
vt 0.2702243 0.011863798
vt 0.32499963 0.7348839
vt 0.3223304 0.9447453
vt 0.3276689 0.011863798
vt 0.38155445 0.9447453
vt 0.38333392 0.7348839
vt 0.38511345 0.011863798
vt 0.44077855 0.9447453
vt 0.4416683 0.7348839
vt 0.44255805 0.011863798
vt 0.5000027 0.9447453
vt 0.5000027 0.7348839
vt 0.5000027 0.011863798
vt 0.55922675 0.9447453
vt 0.558337 0.7348839
vt 0.55744725 0.011863798
vt 0.6148919 0.011863798
vt 0.6184509 0.9447453
vt 0.6166714 0.7348839
vt 0.6723364 0.011863798
vt 0.6750057 0.7348839
vt 0.67767495 0.9447453
vt 0.729781 0.011863798
vt 0.73334 0.7348839
vt 0.736899 0.9447453
vt 0.78722554 0.011863798
vt 0.79167426 0.7348839
vt 0.796123 0.9447453
vt 0.8446702 0.011863798
vt 0.8500087 0.7348839
vt 0.8553472 0.9447453
vt 0.9021145 0.011863798
vt 0.9083428 0.7348839
vt 0.9595595 0.011863798
vt 0.91457105 0.9447453
vt 0.96667755 0.7348839
vt 0.97379553 0.9447453
vt 0.14465815 0.9447453
vt 0.026302576 0.9447453
vt 0.06848639 0.7348839
vt 0.14999664 0.7348839
vt 0.075068176 0.011863798
vt 0.15533516 0.011863798
vt 0.20833093 0.7348839
vt 0.20388216 0.9447453
vt 0.21277967 0.011863798
vt 0.26666528 0.7348839
vt 0.2631063 0.9447453
vt 0.2702243 0.011863798
vt 0.32499963 0.7348839
vt 0.3223304 0.9447453
vt 0.3276689 0.011863798
vt 0.38155445 0.9447453
vt 0.38333392 0.7348839
vt 0.38511345 0.011863798
vt 0.44077855 0.9447453
vt 0.4416683 0.7348839
vt 0.44255805 0.011863798
vt 0.5000027 0.9447453
vt 0.5000027 0.7348839
vt 0.5000027 0.011863798
vt 0.55922675 0.9447453
vt 0.558337 0.7348839
vt 0.55744725 0.011863798
vt 0.6148919 0.011863798
vt 0.6184509 0.9447453
vt 0.6166714 0.7348839
vt 0.6723364 0.011863798
vt 0.6750057 0.7348839
vt 0.67767495 0.9447453
vt 0.729781 0.011863798
vt 0.73334 0.7348839
vt 0.736899 0.9447453
vt 0.78722554 0.011863798
vt 0.79167426 0.7348839
vt 0.796123 0.9447453
vt 0.8446702 0.011863798
vt 0.8500087 0.7348839
vt 0.8553472 0.9447453
vt 0.9021145 0.011863798
vt 0.9083428 0.7348839
vt 0.9595595 0.011863798
vt 0.91457105 0.9447453
vt 0.96667755 0.7348839
vt 0.97379553 0.9447453
vn -0.04712533 0.031103423 0.9984047
vn -0.2165534 0.13001937 0.96757406
vn -0.20607011 0.16367486 0.9647516
vn -0.046615984 0.0398612 0.9981172
vn 0.12416142 -0.06903927 0.9898573
vn 0.114717744 -0.08556528 0.9897063
vn -0.03924857 0.054294325 0.9977533
vn -0.17463839 0.21845117 0.960094
vn 0.09792397 -0.11233702 0.9888333
vn -0.026685938 0.06420293 0.99757993
vn -0.13214266 0.26038632 0.95641893
vn 0.08010565 -0.13521025 0.98757344
vn -0.0143115865 0.072349556 0.9972766
vn -0.083927065 0.3001646 0.95018804
vn 0.05612096 -0.15964292 0.9855783
vn -0.025475811 0.33589983 0.94155306
vn 0.00021633804 0.07969311 0.9968194
vn 0.025881544 -0.18191774 0.982973
vn 0.04451695 0.36557066 0.9297184
vn 0.017426897 0.08602679 0.9961404
vn -0.011097325 -0.20051055 0.97962874
vn 0.12707447 0.3861191 0.91365427
vn 0.03800125 0.090904176 0.9951343
vn -0.054864515 -0.2133198 0.9754406
vn 0.22229595 0.39321485 0.89216965
vn 0.062693074 0.09347278 0.993646
vn -0.10461136 -0.21768948 0.9703957
vn -0.15815485 -0.21068443 0.9646756
vn 0.32831076 0.38128245 0.86419654
vn 0.09206817 0.09227018 0.9914684
vn -0.21152827 -0.1897618 0.9587733
vn 0.12595628 0.08511125 0.988378
vn 0.4399631 0.34419718 0.829434
vn -0.25906405 -0.15383503 0.95353055
vn 0.16263196 0.069336385 0.98424757
vn 0.54785913 0.27704388 0.78936493
vn -0.29434413 -0.104367256 0.9499837
vn 0.19810784 0.042721108 0.97924876
vn 0.6389242 0.17876063 0.7482116
vn -0.31197026 -0.0457977 0.9489875
vn 0.22628884 0.0049803113 0.9740475
vn 0.6991842 0.054402724 0.71286875
vn -0.3094159 0.015250559 0.95080453
vn 0.24055153 -0.040927544 0.9697731
vn -0.30286416 0.04545449 0.9519491
vn 0.7178205 -0.08465847 0.691062
vn 0.24333064 -0.06526019 0.9677454
vn 0.71388966 -0.15568967 0.68273157
vn -0.20588261 0.16340184 -0.96483797
vn -0.21617545 0.12947115 -0.967732
vn -0.046810303 0.030926894 -0.9984249
vn -0.04645828 0.03977261 -0.9981281
vn 0.124396294 -0.06883397 -0.9898421
vn 0.11483551 -0.08546283 -0.9897014
vn -0.03924859 0.05429433 -0.9977533
vn -0.17463839 0.21845116 -0.960094
vn 0.097923964 -0.11233702 -0.9888333
vn -0.026685918 0.064202905 -0.99757993
vn -0.13214262 0.26038632 -0.95641905
vn 0.08010565 -0.13521025 -0.98757344
vn -0.014311555 0.072349556 -0.9972766
vn -0.08392702 0.30016458 -0.95018816
vn 0.056120973 -0.15964289 -0.9855783
vn -0.025475841 0.33589968 -0.9415532
vn 0.0002163144 0.079693004 -0.9968194
vn 0.025881523 -0.18191774 -0.982973
vn 0.044516895 0.36557055 -0.9297185
vn 0.017426843 0.086026706 -0.9961404
vn -0.011097366 -0.20051055 -0.9796286
vn 0.1270745 0.38611916 -0.91365427
vn 0.03800129 0.090904266 -0.9951343
vn -0.054864474 -0.21331972 -0.97544074
vn 0.22229591 0.39321458 -0.8921697
vn 0.06269322 0.09347259 -0.993646
vn -0.10461108 -0.21768957 -0.9703957
vn -0.15815471 -0.21068412 -0.9646757
vn 0.32831052 0.381282 -0.8641968
vn 0.09206809 0.09227013 -0.99146855
vn -0.21152832 -0.18976147 -0.9587733
vn 0.12595612 0.085111275 -0.988378
vn 0.4399629 0.34419692 -0.8294342
vn -0.25906426 -0.15383533 -0.95353055
vn 0.16263184 0.06933621 -0.98424757
vn 0.54785913 0.27704385 -0.789365
vn -0.29434448 -0.10436731 -0.9499836
vn 0.19810767 0.042721085 -0.9792489
vn 0.6389242 0.17876063 -0.7482116
vn -0.3119703 -0.04579763 -0.94898736
vn 0.22628881 0.0049803522 -0.9740476
vn 0.6991842 0.054402724 -0.71286875
vn -0.30941594 0.015250562 -0.95080453
vn 0.24055153 -0.040927544 -0.9697731
vn -0.30286416 0.04545449 -0.9519491
vn 0.7178205 -0.08465847 -0.691062
vn 0.24333064 -0.06526019 -0.9677454
vn 0.71388966 -0.15568967 -0.68273157
g mesh_slash_0
f 3/3/3 2/2/2 1/1/1
f 1/1/1 4/4/4 3/3/3
f 4/4/4 1/1/1 5/5/5
f 5/5/5 6/6/6 4/4/4
f 3/3/3 4/4/4 7/7/7
f 7/7/7 4/4/4 6/6/6
f 7/7/7 8/8/8 3/3/3
f 6/6/6 9/9/9 7/7/7
f 8/8/8 7/7/7 10/10/10
f 10/10/10 7/7/7 9/9/9
f 10/10/10 11/11/11 8/8/8
f 9/9/9 12/12/12 10/10/10
f 13/13/13 11/11/11 10/10/10
f 13/13/13 10/10/10 12/12/12
f 13/13/13 14/14/14 11/11/11
f 12/12/12 15/15/15 13/13/13
f 16/16/16 14/14/14 13/13/13
f 17/17/17 13/13/13 15/15/15
f 13/13/13 17/17/17 16/16/16
f 15/15/15 18/18/18 17/17/17
f 19/19/19 16/16/16 17/17/17
f 20/20/20 17/17/17 18/18/18
f 17/17/17 20/20/20 19/19/19
f 18/18/18 21/21/21 20/20/20
f 22/22/22 19/19/19 20/20/20
f 23/23/23 20/20/20 21/21/21
f 20/20/20 23/23/23 22/22/22
f 21/21/21 24/24/24 23/23/23
f 25/25/25 22/22/22 23/23/23
f 26/26/26 23/23/23 24/24/24
f 23/23/23 26/26/26 25/25/25
f 24/24/24 27/27/27 26/26/26
f 26/26/26 27/27/27 28/28/28
f 29/29/29 25/25/25 26/26/26
f 30/30/30 26/26/26 28/28/28
f 26/26/26 30/30/30 29/29/29
f 30/30/30 28/28/28 31/31/31
f 29/29/29 30/30/30 32/32/32
f 31/31/31 32/32/32 30/30/30
f 32/32/32 33/33/33 29/29/29
f 32/32/32 31/31/31 34/34/34
f 33/33/33 32/32/32 35/35/35
f 34/34/34 35/35/35 32/32/32
f 35/35/35 36/36/36 33/33/33
f 35/35/35 34/34/34 37/37/37
f 36/36/36 35/35/35 38/38/38
f 37/37/37 38/38/38 35/35/35
f 38/38/38 39/39/39 36/36/36
f 40/40/40 38/38/38 37/37/37
f 41/41/41 39/39/39 38/38/38
f 38/38/38 40/40/40 41/41/41
f 39/39/39 41/41/41 42/42/42
f 43/43/43 41/41/41 40/40/40
f 44/44/44 42/42/42 41/41/41
f 41/41/41 43/43/43 44/44/44
f 43/43/43 45/45/45 44/44/44
f 44/44/44 46/46/46 42/42/42
f 44/44/44 45/45/45 47/47/47
f 47/47/47 46/46/46 44/44/44
f 46/46/46 47/47/47 48/48/48
f 51/51/51 50/50/50 49/49/49
f 49/49/49 52/52/52 51/51/51
f 53/53/53 51/51/51 52/52/52
f 52/52/52 54/54/54 53/53/53
f 55/55/55 52/52/52 49/49/49
f 54/54/54 52/52/52 55/55/55
f 49/49/49 56/56/56 55/55/55
f 55/55/55 57/57/57 54/54/54
f 58/58/58 55/55/55 56/56/56
f 57/57/57 55/55/55 58/58/58
f 56/56/56 59/59/59 58/58/58
f 58/58/58 60/60/60 57/57/57
f 61/61/61 58/58/58 59/59/59
f 60/60/60 58/58/58 61/61/61
f 59/59/59 62/62/62 61/61/61
f 61/61/61 63/63/63 60/60/60
f 61/61/61 62/62/62 64/64/64
f 63/63/63 61/61/61 65/65/65
f 64/64/64 65/65/65 61/61/61
f 65/65/65 66/66/66 63/63/63
f 65/65/65 64/64/64 67/67/67
f 66/66/66 65/65/65 68/68/68
f 67/67/67 68/68/68 65/65/65
f 68/68/68 69/69/69 66/66/66
f 68/68/68 67/67/67 70/70/70
f 69/69/69 68/68/68 71/71/71
f 70/70/70 71/71/71 68/68/68
f 71/71/71 72/72/72 69/69/69
f 71/71/71 70/70/70 73/73/73
f 72/72/72 71/71/71 74/74/74
f 73/73/73 74/74/74 71/71/71
f 74/74/74 75/75/75 72/72/72
f 74/74/74 76/76/76 75/75/75
f 74/74/74 73/73/73 77/77/77
f 78/78/78 76/76/76 74/74/74
f 77/77/77 78/78/78 74/74/74
f 79/79/79 76/76/76 78/78/78
f 80/80/80 78/78/78 77/77/77
f 80/80/80 79/79/79 78/78/78
f 81/81/81 80/80/80 77/77/77
f 82/82/82 79/79/79 80/80/80
f 83/83/83 80/80/80 81/81/81
f 82/82/82 80/80/80 83/83/83
f 84/84/84 83/83/83 81/81/81
f 85/85/85 82/82/82 83/83/83
f 86/86/86 83/83/83 84/84/84
f 83/83/83 86/86/86 85/85/85
f 84/84/84 87/87/87 86/86/86
f 88/88/88 85/85/85 86/86/86
f 89/89/89 86/86/86 87/87/87
f 86/86/86 89/89/89 88/88/88
f 87/87/87 90/90/90 89/89/89
f 88/88/88 89/89/89 91/91/91
f 92/92/92 89/89/89 90/90/90
f 92/92/92 91/91/91 89/89/89
f 91/91/91 92/92/92 93/93/93
f 94/94/94 92/92/92 90/90/90
f 95/95/95 93/93/93 92/92/92
f 95/95/95 92/92/92 94/94/94
f 96/96/96 95/95/95 94/94/94
