g petalMesh
v -0.0005362811 -0.0003965316 -0.0009950566
v -0.0016129824 -8.807146E-05 -0.00059736695
v -0.0010190486 -0.00027092174 -0.0011738696
v -2.383197E-05 -0.00048747836 -0.00062216405
v -0.0017870491 3.7034402E-05 0.00032834415
v -0.0015854848 -0.000119934644 0.001439089
v -0.0009824383 -0.00023889182 0.0022762609
v 0.00017521378 -0.00022501466 0.0023970346
v 0.001198384 0.00016509132 0.0015777787
v 0.0018052157 6.351734E-05 0.00068815134
v 0.0018560525 -9.378516E-05 -1.03415405E-05
v 0.0005529641 -0.00052256486 -0.0008011775
v 0.0013463106 -0.00035965623 -0.0006368825
v 0.0016181374 -0.00024961928 -0.00049468735
vn 0.27954763 0.9556585 -0.09257405
vn 0.26529127 0.9549604 -0.13293259
vn 0.26233843 0.96430826 -0.035890702
vn 0.08737504 0.97976774 -0.18005742
vn 0.3234189 0.9419154 -0.090529725
vn 0.45212 0.8862337 0.10088233
vn 0.21283406 0.9769965 -0.013401792
vn -0.22038016 0.9720523 -0.08091353
vn -0.36394864 0.9271727 -0.08883839
vn -0.118510745 0.94779027 -0.29605544
vn -0.044706907 0.95431477 -0.29543966
vn -0.11525378 0.9459451 -0.30315745
vn -0.1585018 0.94899255 -0.27256265
vn -0.11498543 0.95241076 -0.28229806
g petalMesh_0
f 3/3/3 2/2/2 1/1/1
f 1/1/1 2/2/2 4/4/4
f 2/2/2 5/5/5 4/4/4
f 5/5/5 6/6/6 4/4/4
f 6/6/6 7/7/7 4/4/4
f 7/7/7 8/8/8 4/4/4
f 8/8/8 9/9/9 4/4/4
f 9/9/9 10/10/10 4/4/4
f 4/4/4 10/10/10 11/11/11
f 12/12/12 4/4/4 11/11/11
f 13/13/13 12/12/12 11/11/11
f 14/14/14 13/13/13 11/11/11
