g pm0025_00_SippoSkin
v -2.7204227E-17 0.105215214 -0.07175182
v -1.3917987E-17 0.1272067 -0.124170914
v 0.0014676788 0.1272067 -0.1241709
v -3.6508738E-17 0.09254675 -0.07542519
v 0.0014676788 0.11770659 -0.1549573
v -2.2221044E-17 0.11770659 -0.1549573
v -2.7204227E-17 0.105215214 -0.07175182
v -0.0014676788 0.1272067 -0.1241709
v -1.3917987E-17 0.1272067 -0.124170914
v -3.6508738E-17 0.09254675 -0.07542519
v -2.2221044E-17 0.11770659 -0.1549573
v -0.0014676788 0.11770659 -0.1549573
v 0.002743288 0.3262572 -0.23401114
v 0.0027432877 0.41629425 -0.29026678
v 0.0027432877 0.3578775 -0.30285826
v 0.002743288 0.36164695 -0.20981172
v 0.0027432877 0.47238022 -0.2773622
v 0.0027432882 0.39937675 -0.18487364
v 0.0018087727 0.29229763 -0.16292807
v 0.0018087727 0.29898927 -0.117888294
v 0.0018087727 0.30568084 -0.072848506
v 0.0027432882 0.24025129 -0.19284493
v 0.0027432882 0.23844142 -0.22739433
v 0.0027432882 0.24206108 -0.1582955
v 0.0014676758 0.11770659 -0.1549573
v -2.980232E-09 0.09254675 -0.07542519
v 0.004999997 0.09838531 -0.073471464
v 0.0014676758 0.12245666 -0.13956413
v 0.0023852093 0.1353586 -0.14597449
v 0.0014676758 0.1272067 -0.1241709
v -2.980232E-09 0.105215214 -0.07175182
v 0.0023852093 0.14069864 -0.12749824
v 0.002391896 0.15325457 -0.20355253
v 0.002385209 0.14603865 -0.10902201
v 0.002391896 0.15731221 -0.17853986
v 0.0024104686 0.18750703 -0.16256519
v 0.002391896 0.16136983 -0.15352719
v 0.0024104686 0.18927059 -0.13602543
v 0.0027432882 0.23844142 -0.22739433
v 0.0024104686 0.19103408 -0.10948563
v 0.0027432882 0.24025129 -0.19284493
v 0.0027432882 0.24206108 -0.1582955
v 1.663927E-16 0.41629425 -0.29026675
v 0.0027432877 0.47238022 -0.2773622
v 2.1093092E-16 0.47238022 -0.27736217
v 0.0027432877 0.41629425 -0.29026678
v 1.2002614E-16 0.3578775 -0.30285826
v 0.0027432877 0.3578775 -0.30285826
v 0.0027432882 0.39937675 -0.18487364
v 0.0018087727 0.30568084 -0.072848506
v 8.4998817E-17 0.3056808 -0.07284845
v 1.5585848E-16 0.39937675 -0.18487361
v 2.1093092E-16 0.47238022 -0.27736217
v 0.0027432877 0.47238022 -0.2773622
v 0.0027432882 0.24206108 -0.1582955
v 4.8349627E-17 0.24206102 -0.15829547
v 8.4998817E-17 0.3056808 -0.07284845
v 0.0018087727 0.30568084 -0.072848506
v 9.6936303E-17 0.3262572 -0.23401114
v 0.0027432877 0.3578775 -0.30285826
v 1.2002614E-16 0.3578775 -0.30285826
v 0.002743288 0.3262572 -0.23401114
v 0.0018087727 0.29229763 -0.16292807
v 7.2062374E-17 0.29229754 -0.16292797
v 2.9802324E-10 0.2384414 -0.22739428
v 0.0027432884 0.23844142 -0.22739433
v 0.0018087729 0.29229763 -0.16292807
v 2.980233E-10 0.29229754 -0.16292797
v 1.921489E-17 0.18750697 -0.16256513
v 0.0024104686 0.18750703 -0.16256519
v 0.0027432882 0.23844142 -0.22739433
v 4.3663695E-17 0.2384414 -0.22739428
v 0.0024104686 0.19103408 -0.10948563
v 2.3402637E-17 0.19103387 -0.10948551
v 4.8349627E-17 0.24206102 -0.15829547
v 0.0027432882 0.24206108 -0.1582955
v -3.3123776E-18 0.15325452 -0.20355248
v 0.002391896 0.15325457 -0.20355253
v 0.0024104686 0.18750703 -0.16256519
v 1.921489E-17 0.18750697 -0.16256513
v 0.002391896 0.16136983 -0.15352719
v 4.4098822E-18 0.16136968 -0.15352705
v 2.3402637E-17 0.19103387 -0.10948551
v 0.0024104686 0.19103408 -0.10948563
v 0.002385209 0.14603865 -0.10902201
v -3.1776795E-18 0.14603867 -0.10902201
v 4.4098822E-18 0.16136968 -0.15352705
v 0.002391896 0.16136983 -0.15352719
v -1.25741785E-17 0.13535859 -0.14597449
v 0.0023852093 0.1353586 -0.14597449
v 0.002391896 0.15325457 -0.20355253
v -3.3123776E-18 0.15325452 -0.20355248
v -2.2221044E-17 0.11770659 -0.1549573
v 0.0014676788 0.11770659 -0.1549573
v 0.0023852093 0.1353586 -0.14597449
v -1.25741785E-17 0.13535859 -0.14597449
v 0.0014676788 0.1272067 -0.1241709
v -1.3917987E-17 0.1272067 -0.124170914
v -3.1776795E-18 0.14603867 -0.10902201
v 0.002385209 0.14603865 -0.10902201
v -0.002743288 0.3262572 -0.23401114
v -0.0027432877 0.3578775 -0.30285826
v -0.0027432877 0.41629425 -0.29026678
v -0.002743288 0.36164695 -0.20981172
v -0.0027432877 0.47238022 -0.2773622
v -0.0027432882 0.39937675 -0.18487364
v -0.0018087727 0.29229763 -0.16292807
v -0.0018087727 0.29898927 -0.117888294
v -0.0018087727 0.30568084 -0.072848506
v -0.0027432882 0.24025129 -0.19284493
v -0.0027432882 0.23844142 -0.22739433
v -0.0027432882 0.24206108 -0.1582955
v -0.0014676788 0.11770659 -0.1549573
v -0.005 0.09838531 -0.073471464
v -3.6508738E-17 0.09254675 -0.07542519
v -0.0014676788 0.12245666 -0.13956413
v -0.0023852093 0.1353586 -0.14597449
v -0.0014676788 0.1272067 -0.1241709
v -2.7204227E-17 0.105215214 -0.07175182
v -0.0023852093 0.14069864 -0.12749824
v -0.002391896 0.15325457 -0.20355253
v -0.002385209 0.14603865 -0.10902201
v -0.002391896 0.15731221 -0.17853986
v -0.0024104686 0.18750703 -0.16256519
v -0.002391896 0.16136983 -0.15352719
v -0.0024104686 0.18927059 -0.13602543
v -0.0027432882 0.23844142 -0.22739433
v -0.0024104686 0.19103408 -0.10948563
v -0.0027432882 0.24025129 -0.19284493
v -0.0027432882 0.24206108 -0.1582955
v 1.663927E-16 0.41629425 -0.29026675
v 2.1093092E-16 0.47238022 -0.27736217
v -0.0027432877 0.47238022 -0.2773622
v -0.0027432877 0.41629425 -0.29026678
v 1.2002614E-16 0.3578775 -0.30285826
v -0.0027432877 0.3578775 -0.30285826
v -0.0027432882 0.39937675 -0.18487364
v 8.4998817E-17 0.3056808 -0.07284845
v -0.0018087727 0.30568084 -0.072848506
v 1.5585848E-16 0.39937675 -0.18487361
v 2.1093092E-16 0.47238022 -0.27736217
v -0.0027432877 0.47238022 -0.2773622
v -0.0027432882 0.24206108 -0.1582955
v -0.0018087727 0.30568084 -0.072848506
v 8.4998817E-17 0.3056808 -0.07284845
v 4.8349627E-17 0.24206102 -0.15829547
v 9.6936303E-17 0.3262572 -0.23401114
v 1.2002614E-16 0.3578775 -0.30285826
v -0.0027432877 0.3578775 -0.30285826
v -0.002743288 0.3262572 -0.23401114
v -0.0018087727 0.29229763 -0.16292807
v 7.2062374E-17 0.29229754 -0.16292797
v 2.9802324E-10 0.2384414 -0.22739428
v 2.980233E-10 0.29229754 -0.16292797
v -0.0018087723 0.29229763 -0.16292807
v -0.002743288 0.23844142 -0.22739433
v 1.921489E-17 0.18750697 -0.16256513
v 4.3663695E-17 0.2384414 -0.22739428
v -0.0027432882 0.23844142 -0.22739433
v -0.0024104686 0.18750703 -0.16256519
v -0.0024104686 0.19103408 -0.10948563
v -0.0027432882 0.24206108 -0.1582955
v 4.8349627E-17 0.24206102 -0.15829547
v 2.3402637E-17 0.19103387 -0.10948551
v -3.3123776E-18 0.15325452 -0.20355248
v 1.921489E-17 0.18750697 -0.16256513
v -0.0024104686 0.18750703 -0.16256519
v -0.002391896 0.15325457 -0.20355253
v -0.002391896 0.16136983 -0.15352719
v -0.0024104686 0.19103408 -0.10948563
v 2.3402637E-17 0.19103387 -0.10948551
v 4.4098822E-18 0.16136968 -0.15352705
v -0.002385209 0.14603865 -0.10902201
v -0.002391896 0.16136983 -0.15352719
v 4.4098822E-18 0.16136968 -0.15352705
v -3.1776795E-18 0.14603867 -0.10902201
v -1.25741785E-17 0.13535859 -0.14597449
v -3.3123776E-18 0.15325452 -0.20355248
v -0.002391896 0.15325457 -0.20355253
v -0.0023852093 0.1353586 -0.14597449
v -2.2221044E-17 0.11770659 -0.1549573
v -1.25741785E-17 0.13535859 -0.14597449
v -0.0023852093 0.1353586 -0.14597449
v -0.0014676788 0.11770659 -0.1549573
v -0.0014676788 0.1272067 -0.1241709
v -0.002385209 0.14603865 -0.10902201
v -3.1776795E-18 0.14603867 -0.10902201
v -1.3917987E-17 0.1272067 -0.124170914
vt 0.97013086 0.66796875
vt 0.7787328 0.6817589
vt 0.76511264 0.66796875
vt 0.97093433 0.58203125
vt 0.70261264 0.58203125
vt 0.70261264 0.5741204
vt 0.9706432 0.66796875
vt 0.765625 0.66796875
vt 0.77924514 0.6817589
vt 0.9714467 0.58203125
vt 0.703125 0.5741204
vt 0.703125 0.58203125
vt 0.8211769 0.8515625
vt 0.67917514 0.9160112
vt 0.67917514 0.8515625
vt 0.84463 0.91601133
vt 0.67917514 0.98046875
vt 0.85885227 0.98046875
vt 0.91355014 0.8515625
vt 0.94858515 0.91601115
vt 0.9840212 0.98046875
vt 0.9485855 0.749158
vt 0.91355014 0.7149269
vt 0.98386264 0.796875
vt 0.70261264 0.58203125
vt 0.97093433 0.58203125
vt 0.9719294 0.6281822
vt 0.7311654 0.6281821
vt 0.70261264 0.66796875
vt 0.76511264 0.66796875
vt 0.97013086 0.66796875
vt 0.7311661 0.7193321
vt 0.56980014 0.66796875
vt 0.76511264 0.76953125
vt 0.6012596 0.7193323
vt 0.56980014 0.796875
vt 0.63230014 0.76953125
vt 0.6012596 0.85151637
vt 0.39792514 0.796875
vt 0.63230014 0.90625
vt 0.44433188 0.85151637
vt 0.48386264 0.90625
vt 0.6652833 0.9160116
vt 0.67917514 0.98046875
vt 0.66528285 0.98046875
vt 0.67917514 0.9160112
vt 0.6652832 0.8515625
vt 0.67917514 0.8515625
vt 0.85885227 0.98046875
vt 0.9840212 0.98046875
vt 0.9840214 0.9877892
vt 0.85886383 0.98778886
vt 0.67917514 0.9877892
vt 0.67917514 0.98046875
vt 0.98386264 0.796875
vt 0.99191976 0.796875
vt 0.99191976 0.98046875
vt 0.9840212 0.98046875
vt 0.8211801 0.8379479
vt 0.67917514 0.8515625
vt 0.67917514 0.83794767
vt 0.8211769 0.8515625
vt 0.91355014 0.8515625
vt 0.89959466 0.83794767
vt 0.8995949 0.7149269
vt 0.91355014 0.7149269
vt 0.91355014 0.8515625
vt 0.89959466 0.83794767
vt 0.5556325 0.78342503
vt 0.56980014 0.796875
vt 0.39792514 0.796875
vt 0.39792514 0.7834255
vt 0.63230014 0.90625
vt 0.63230014 0.9199156
vt 0.48386264 0.9199156
vt 0.48386264 0.90625
vt 0.5556319 0.66796875
vt 0.56980014 0.66796875
vt 0.56980014 0.796875
vt 0.5556325 0.78342503
vt 0.63230014 0.76953125
vt 0.6462871 0.7833372
vt 0.6463429 0.90625
vt 0.63230014 0.90625
vt 0.76511264 0.76953125
vt 0.76511264 0.78333724
vt 0.6462871 0.7833372
vt 0.63230014 0.76953125
vt 0.6888938 0.6543366
vt 0.70261264 0.66796875
vt 0.56980014 0.66796875
vt 0.56980014 0.65433717
vt 0.6888933 0.58203125
vt 0.70261264 0.58203125
vt 0.70261264 0.66796875
vt 0.6888938 0.6543366
vt 0.76511264 0.66796875
vt 0.7787328 0.6817589
vt 0.7787328 0.76953125
vt 0.76511264 0.76953125
vt 0.82168925 0.8515625
vt 0.6796875 0.8515625
vt 0.6796875 0.9160112
vt 0.84514236 0.91601133
vt 0.6796875 0.98046875
vt 0.8593646 0.98046875
vt 0.9140625 0.8515625
vt 0.9490975 0.91601115
vt 0.98453355 0.98046875
vt 0.9490979 0.749158
vt 0.9140625 0.7149269
vt 0.984375 0.796875
vt 0.703125 0.58203125
vt 0.97244173 0.6281822
vt 0.9714467 0.58203125
vt 0.7316778 0.6281821
vt 0.703125 0.66796875
vt 0.765625 0.66796875
vt 0.9706432 0.66796875
vt 0.7316785 0.7193321
vt 0.5703125 0.66796875
vt 0.765625 0.76953125
vt 0.60177195 0.7193323
vt 0.5703125 0.796875
vt 0.6328125 0.76953125
vt 0.60177195 0.85151637
vt 0.3984375 0.796875
vt 0.6328125 0.90625
vt 0.44484425 0.85151637
vt 0.484375 0.90625
vt 0.6657957 0.9160116
vt 0.6657952 0.98046875
vt 0.6796875 0.98046875
vt 0.6796875 0.9160112
vt 0.66579556 0.8515625
vt 0.6796875 0.8515625
vt 0.8593646 0.98046875
vt 0.9845338 0.9877892
vt 0.98453355 0.98046875
vt 0.8593762 0.98778886
vt 0.6796875 0.9877892
vt 0.6796875 0.98046875
vt 0.984375 0.796875
vt 0.98453355 0.98046875
vt 0.9924321 0.98046875
vt 0.9924321 0.796875
vt 0.82169247 0.8379479
vt 0.6796875 0.83794767
vt 0.6796875 0.8515625
vt 0.82168925 0.8515625
vt 0.9140625 0.8515625
vt 0.900107 0.83794767
vt 0.90010726 0.7149269
vt 0.900107 0.83794767
vt 0.9140625 0.8515625
vt 0.9140625 0.7149269
vt 0.55614483 0.78342503
vt 0.3984375 0.7834255
vt 0.3984375 0.796875
vt 0.5703125 0.796875
vt 0.6328125 0.90625
vt 0.484375 0.90625
vt 0.484375 0.9199156
vt 0.6328125 0.9199156
vt 0.55614424 0.66796875
vt 0.55614483 0.78342503
vt 0.5703125 0.796875
vt 0.5703125 0.66796875
vt 0.6328125 0.76953125
vt 0.6328125 0.90625
vt 0.64685524 0.90625
vt 0.64679945 0.7833372
vt 0.765625 0.76953125
vt 0.6328125 0.76953125
vt 0.64679945 0.7833372
vt 0.765625 0.78333724
vt 0.68940616 0.6543366
vt 0.5703125 0.65433717
vt 0.5703125 0.66796875
vt 0.703125 0.66796875
vt 0.6894057 0.58203125
vt 0.68940616 0.6543366
vt 0.703125 0.66796875
vt 0.703125 0.58203125
vt 0.765625 0.66796875
vt 0.765625 0.76953125
vt 0.77924514 0.76953125
vt 0.77924514 0.6817589
vn -0 0.92213607 0.38686582
vn -0 0.92213607 0.38686582
vn -0 0.92213595 0.38686594
vn -0 -0.9534296 -0.30161566
vn -0 -0.9534296 -0.3016156
vn -0 -0.9534296 -0.30161566
vn -0 0.92213607 0.38686582
vn -0 0.92213595 0.38686594
vn -0 0.92213607 0.38686582
vn -0 -0.9534296 -0.30161566
vn -0 -0.9534296 -0.30161566
vn -0 -0.9534296 -0.3016156
vn 0.999997 -0.0015888258 0.0018613392
vn 0.9999994 -0.0009108201 0.00056600664
vn 0.9999989 -0.0012449052 0.000756742
vn 0.99999654 -0.0019348308 0.001779441
vn 0.9999993 -0.0009931339 0.00063049875
vn 0.9999963 -0.0020974309 0.0017796782
vn 0.99999785 0.001192341 0.0016956467
vn 0.99999785 0.00074601773 0.0019362129
vn 0.99999833 0.000952611 0.0015905063
vn 0.9999933 0.003646182 -2.8610596E-06
vn 0.9999963 0.002715503 0.00034499608
vn 0.99999774 0.0021130212 0.00034392474
vn 0.9856333 -0.16039346 -0.05292345
vn 0.9836389 -0.1687819 -0.06298545
vn 0.99891984 -0.04204842 -0.019775193
vn 0.99901104 -0.0432865 -0.010161228
vn 0.99810636 -0.060039748 -0.013373543
vn 0.9968008 0.07368458 0.03096527
vn 0.9883995 0.14394036 0.048450805
vn 0.99920195 -0.03953715 -0.005689424
vn 0.99998415 -0.005482568 0.0013317193
vn 0.99921715 0.03393136 0.020338569
vn 0.9999869 -0.0049815373 0.0012184723
vn 0.99999976 -0.00065649254 -6.514858E-05
vn 0.9999789 -0.0063122166 0.0015351077
vn 0.99999905 -0.0014137188 -2.8610548E-06
vn 0.9999963 0.002715503 0.00034499608
vn 0.9999999 -0.0005695898 -7.796394E-05
vn 0.9999933 0.003646182 -2.8610596E-06
vn 0.99999774 0.0021130212 0.00034392474
vn -0 0.21739595 -0.9760835
vn -0 0.22193435 -0.9750616
vn -0 0.22250757 -0.97493094
vn -0 0.21740866 -0.97608066
vn -0 0.21236737 -0.97718984
vn -0 0.2129208 -0.97706944
vn 5.245472E-06 0.7760247 0.63070256
vn 5.4837465E-06 0.77005506 0.63797736
vn -0 0.7693057 0.63888085
vn -0 0.7760149 0.63071454
vn -0 0.78270936 0.6223874
vn 4.053208E-06 0.7819696 0.6233165
vn 1.8596646E-05 -0.8020921 0.5972003
vn -1.7881393E-07 -0.8020922 0.5972003
vn -2.3841858E-07 -0.80209225 0.5972001
vn 1.8596646E-05 -0.8020921 0.5972003
vn -0 -0.90569925 -0.4239208
vn 1.9073589E-06 -0.9077638 -0.4194816
vn -0 -0.9080048 -0.41895977
vn 4.649229E-06 -0.9056737 -0.42397526
vn 6.1989285E-06 -0.9034838 -0.42862216
vn -0 -0.9031893 -0.42924264
vn -7.152556E-07 0.7674343 -0.6411275
vn -3.314018E-05 0.76743436 -0.6411275
vn -3.314018E-05 0.76743436 -0.6411275
vn -7.152556E-07 0.7674343 -0.6411275
vn -3.576279E-07 -0.7863349 -0.6178005
vn -5.960465E-07 -0.7863349 -0.6178005
vn -5.960465E-07 -0.7863349 -0.6178005
vn -3.576279E-07 -0.7863349 -0.6178005
vn -7.987022E-06 0.69123304 0.7226319
vn 2.3841858E-07 0.69123304 0.7226319
vn 2.3841858E-07 0.69123304 0.7226319
vn -7.927417E-06 0.69123304 0.7226319
vn -5.9604645E-07 0.7673334 -0.6412484
vn -1.8894674E-05 0.76733345 -0.6412484
vn -1.8894674E-05 0.76733345 -0.6412484
vn -6.5565115E-07 0.76733327 -0.64124846
vn 6.091595E-05 -0.8294057 0.5586467
vn 5.9604645E-07 -0.8294057 0.5586467
vn 5.9604645E-07 -0.8294057 0.5586467
vn 6.091595E-05 -0.8294057 0.5586467
vn -1.1086464E-05 0.9454744 0.3256965
vn 1.1920929E-07 0.9454744 0.3256965
vn -0 0.9454744 0.3256965
vn -1.1086463E-05 0.9454744 0.3256966
vn 2.3841856E-07 -0.95493776 -0.2968061
vn 7.5101852E-06 -0.95493776 -0.2968061
vn 7.5101852E-06 -0.95493776 -0.2968061
vn 2.3841856E-07 -0.95493776 -0.2968061
vn -0 0.45353627 -0.89123785
vn 3.33786E-06 0.4535364 -0.8912378
vn 3.33786E-06 0.4535364 -0.8912378
vn -0 0.45353627 -0.89123785
vn -6.198883E-06 -0.6267952 0.7791841
vn -4.1723249E-07 -0.6267952 0.77918404
vn -4.768373E-07 -0.62679523 0.77918404
vn -6.198883E-06 -0.6267952 0.7791841
vn -0.999997 -0.0015888258 0.0018613392
vn -0.9999989 -0.0012449052 0.00075674214
vn -0.9999994 -0.0009108201 0.00056600664
vn -0.99999654 -0.0019348306 0.0017794409
vn -0.9999993 -0.0009931339 0.00063049875
vn -0.9999963 -0.002097491 0.0017796783
vn -0.99999785 0.001192341 0.0016956467
vn -0.99999785 0.00074601773 0.0019362129
vn -0.99999833 0.000952611 0.0015905063
vn -0.9999933 0.0036461812 -2.8610593E-06
vn -0.9999963 0.002715503 0.00034499608
vn -0.99999774 0.0021130212 0.00034380556
vn -0.9856333 -0.16039348 -0.052923456
vn -0.99891984 -0.04204842 -0.019775193
vn -0.9836389 -0.1687819 -0.06298545
vn -0.99901104 -0.043286435 -0.010161107
vn -0.99810636 -0.060039703 -0.013373605
vn -0.9968008 0.07368458 0.03096527
vn -0.9883995 0.14394036 0.048450682
vn -0.99920195 -0.03953709 -0.005689424
vn -0.99998415 -0.0054826867 0.0013317192
vn -0.99921715 0.03393136 0.020338567
vn -0.9999869 -0.0049815373 0.0012184723
vn -0.99999976 -0.00065649254 -6.514858E-05
vn -0.9999789 -0.0063122166 0.0015351077
vn -0.99999905 -0.0014137189 -2.8610555E-06
vn -0.9999963 0.002715503 0.00034499608
vn -0.9999999 -0.0005695898 -7.7963945E-05
vn -0.9999933 0.0036461812 -2.8610593E-06
vn -0.99999774 0.0021130212 0.00034380556
vn -0 0.21739595 -0.9760835
vn -0 0.22250757 -0.97493094
vn -0 0.22193435 -0.9750616
vn -0 0.21740866 -0.97608066
vn -0 0.21236737 -0.97718984
vn -0 0.2129208 -0.97706944
vn -5.245472E-06 0.7760247 0.63070256
vn -0 0.7693057 0.63888085
vn -5.364534E-06 0.77005506 0.63797736
vn -0 0.7760149 0.63071454
vn -0 0.78270936 0.6223874
vn -3.87439E-06 0.7819696 0.6233165
vn -1.8894672E-05 -0.8020922 0.5972003
vn -1.8894672E-05 -0.8020922 0.5972003
vn -2.3841858E-07 -0.80209225 0.5972001
vn -1.7881393E-07 -0.8020922 0.5972003
vn -0 -0.90569925 -0.4239208
vn -0 -0.9080048 -0.41895977
vn -1.9669637E-06 -0.9077638 -0.4194816
vn -4.649229E-06 -0.9056738 -0.4239752
vn -6.1989285E-06 -0.9034839 -0.42862207
vn -0 -0.9031893 -0.42924264
vn -7.152556E-07 0.7674343 -0.6411275
vn -7.152556E-07 0.7674343 -0.6411275
vn 3.1709664E-05 0.76743436 -0.6411275
vn 3.170967E-05 0.7674343 -0.6411276
vn -3.576279E-07 -0.7863349 -0.6178005
vn -3.576279E-07 -0.7863349 -0.6178005
vn -1.192093E-07 -0.7863349 -0.6178005
vn -1.192093E-07 -0.7863349 -0.6178005
vn 8.583068E-06 0.69123304 0.7226319
vn 8.583068E-06 0.69123304 0.7226319
vn 2.3841858E-07 0.69123304 0.7226319
vn 2.3841858E-07 0.69123304 0.7226319
vn -5.9604645E-07 0.7673334 -0.6412484
vn -6.5565115E-07 0.76733327 -0.64124846
vn 1.7642977E-05 0.76733345 -0.6412484
vn 1.7642977E-05 0.76733345 -0.6412484
vn -5.960465E-05 -0.8294057 0.5586467
vn -5.960465E-05 -0.8294057 0.5586467
vn 5.9604645E-07 -0.8294057 0.5586467
vn 5.9604645E-07 -0.8294057 0.5586467
vn 1.1324883E-05 0.9454744 0.3256965
vn 1.1444092E-05 0.9454744 0.3256965
vn -0 0.9454744 0.3256965
vn 1.1920929E-07 0.9454744 0.3256965
vn 2.3841856E-07 -0.95493776 -0.2968061
vn 2.3841856E-07 -0.95493776 -0.2968061
vn -6.973743E-06 -0.95493776 -0.2968061
vn -6.9737434E-06 -0.95493776 -0.2968061
vn -0 0.45353627 -0.89123785
vn -0 0.45353627 -0.89123785
vn -3.33786E-06 0.4535364 -0.8912378
vn -3.33786E-06 0.4535364 -0.8912378
vn 5.364418E-06 -0.6267952 0.7791841
vn 5.4836273E-06 -0.6267952 0.7791841
vn -4.768373E-07 -0.62679523 0.77918404
vn -4.1723249E-07 -0.6267952 0.77918404
g pm0025_00_SippoSkin_0
f 3/3/3 2/2/2 1/1/1
f 6/6/6 5/5/5 4/4/4
f 9/9/9 8/8/8 7/7/7
f 12/12/12 11/11/11 10/10/10
f 15/15/15 14/14/14 13/13/13
f 14/14/14 16/16/16 13/13/13
f 14/14/14 17/17/17 16/16/16
f 17/17/17 18/18/18 16/16/16
f 13/13/13 16/16/16 19/19/19
f 16/16/16 18/18/18 20/20/20
f 16/16/16 20/20/20 19/19/19
f 18/18/18 21/21/21 20/20/20
f 20/20/20 22/22/22 19/19/19
f 20/20/20 21/21/21 22/22/22
f 22/22/22 23/23/23 19/19/19
f 21/21/21 24/24/24 22/22/22
f 27/27/27 26/26/26 25/25/25
f 28/28/28 27/27/27 25/25/25
f 25/25/25 29/29/29 28/28/28
f 28/28/28 30/30/30 27/27/27
f 30/30/30 31/31/31 27/27/27
f 29/29/29 32/32/32 28/28/28
f 28/28/28 32/32/32 30/30/30
f 29/29/29 33/33/33 32/32/32
f 32/32/32 34/34/34 30/30/30
f 33/33/33 35/35/35 32/32/32
f 32/32/32 35/35/35 34/34/34
f 33/33/33 36/36/36 35/35/35
f 35/35/35 37/37/37 34/34/34
f 36/36/36 38/38/38 35/35/35
f 35/35/35 38/38/38 37/37/37
f 38/38/38 36/36/36 39/39/39
f 38/38/38 40/40/40 37/37/37
f 41/41/41 38/38/38 39/39/39
f 42/42/42 40/40/40 38/38/38
f 41/41/41 42/42/42 38/38/38
f 45/45/45 44/44/44 43/43/43
f 44/44/44 46/46/46 43/43/43
f 43/43/43 46/46/46 47/47/47
f 46/46/46 48/48/48 47/47/47
f 51/51/51 50/50/50 49/49/49
f 52/52/52 51/51/51 49/49/49
f 52/52/52 49/49/49 53/53/53
f 49/49/49 54/54/54 53/53/53
f 57/57/57 56/56/56 55/55/55
f 58/58/58 57/57/57 55/55/55
f 61/61/61 60/60/60 59/59/59
f 60/60/60 62/62/62 59/59/59
f 62/62/62 63/63/63 59/59/59
f 63/63/63 64/64/64 59/59/59
f 67/67/67 66/66/66 65/65/65
f 68/68/68 67/67/67 65/65/65
f 71/71/71 70/70/70 69/69/69
f 72/72/72 71/71/71 69/69/69
f 75/75/75 74/74/74 73/73/73
f 76/76/76 75/75/75 73/73/73
f 79/79/79 78/78/78 77/77/77
f 80/80/80 79/79/79 77/77/77
f 83/83/83 82/82/82 81/81/81
f 84/84/84 83/83/83 81/81/81
f 87/87/87 86/86/86 85/85/85
f 88/88/88 87/87/87 85/85/85
f 91/91/91 90/90/90 89/89/89
f 92/92/92 91/91/91 89/89/89
f 95/95/95 94/94/94 93/93/93
f 96/96/96 95/95/95 93/93/93
f 99/99/99 98/98/98 97/97/97
f 100/100/100 99/99/99 97/97/97
f 103/103/103 102/102/102 101/101/101
f 104/104/104 103/103/103 101/101/101
f 105/105/105 103/103/103 104/104/104
f 106/106/106 105/105/105 104/104/104
f 104/104/104 101/101/101 107/107/107
f 106/106/106 104/104/104 108/108/108
f 108/108/108 104/104/104 107/107/107
f 109/109/109 106/106/106 108/108/108
f 110/110/110 108/108/108 107/107/107
f 109/109/109 108/108/108 110/110/110
f 111/111/111 110/110/110 107/107/107
f 112/112/112 109/109/109 110/110/110
f 115/115/115 114/114/114 113/113/113
f 114/114/114 116/116/116 113/113/113
f 117/117/117 113/113/113 116/116/116
f 118/118/118 116/116/116 114/114/114
f 119/119/119 118/118/118 114/114/114
f 120/120/120 117/117/117 116/116/116
f 120/120/120 116/116/116 118/118/118
f 121/121/121 117/117/117 120/120/120
f 122/122/122 120/120/120 118/118/118
f 123/123/123 121/121/121 120/120/120
f 123/123/123 120/120/120 122/122/122
f 124/124/124 121/121/121 123/123/123
f 125/125/125 123/123/123 122/122/122
f 126/126/126 124/124/124 123/123/123
f 126/126/126 123/123/123 125/125/125
f 124/124/124 126/126/126 127/127/127
f 128/128/128 126/126/126 125/125/125
f 126/126/126 129/129/129 127/127/127
f 128/128/128 130/130/130 126/126/126
f 130/130/130 129/129/129 126/126/126
f 133/133/133 132/132/132 131/131/131
f 134/134/134 133/133/133 131/131/131
f 134/134/134 131/131/131 135/135/135
f 136/136/136 134/134/134 135/135/135
f 139/139/139 138/138/138 137/137/137
f 138/138/138 140/140/140 137/137/137
f 137/137/137 140/140/140 141/141/141
f 142/142/142 137/137/137 141/141/141
f 145/145/145 144/144/144 143/143/143
f 146/146/146 145/145/145 143/143/143
f 149/149/149 148/148/148 147/147/147
f 150/150/150 149/149/149 147/147/147
f 151/151/151 150/150/150 147/147/147
f 152/152/152 151/151/151 147/147/147
f 155/155/155 154/154/154 153/153/153
f 156/156/156 155/155/155 153/153/153
f 159/159/159 158/158/158 157/157/157
f 160/160/160 159/159/159 157/157/157
f 163/163/163 162/162/162 161/161/161
f 164/164/164 163/163/163 161/161/161
f 167/167/167 166/166/166 165/165/165
f 168/168/168 167/167/167 165/165/165
f 171/171/171 170/170/170 169/169/169
f 172/172/172 171/171/171 169/169/169
f 175/175/175 174/174/174 173/173/173
f 176/176/176 175/175/175 173/173/173
f 179/179/179 178/178/178 177/177/177
f 180/180/180 179/179/179 177/177/177
f 183/183/183 182/182/182 181/181/181
f 184/184/184 183/183/183 181/181/181
f 187/187/187 186/186/186 185/185/185
f 188/188/188 187/187/187 185/185/185
