g pm0009_00_CoverSkin
v -0.33187798 0.8515679 -0.26052377
v -0.305367 0.9060177 -0.2500574
v -0.31720078 0.91381496 -0.24936098
v -0.27548766 0.9580923 -0.23676045
v -0.3408572 0.867088 -0.25739697
v -0.41001293 0.8576353 -0.18685314
v -0.4042802 0.8754398 -0.18353048
v -0.40410304 0.84284985 -0.18835977
v -0.4648129 0.8389681 -0.08601284
v -0.4562854 0.8214223 -0.08743935
v -0.49793124 0.8204027 0.02430237
v -0.4919483 0.8002903 0.022061275
v -0.3512523 0.8812755 -0.23762994
v -0.33388454 0.91842335 -0.23158272
v -0.28700206 0.96623486 -0.23696338
v -0.45798138 0.8593596 -0.083858654
v -0.5160845 0.8001451 0.12722114
v -0.51631474 0.7755882 0.14018269
v -0.49934736 0.8192546 0.14634745
v -0.4902874 0.84339184 0.027006337
v -0.5078553 0.82535374 0.13130526
v -0.4711523 0.8918164 0.1565916
v -0.4604569 0.90806884 0.036226477
v -0.47582135 0.89819914 0.14204
v -0.42180258 0.9862856 0.1638318
v -0.4284795 0.9197991 -0.07437683
v -0.4122575 0.9941781 0.048696816
v -0.42417443 0.98733175 0.1494095
v -0.35927355 1.0712945 0.16475107
v -0.3641582 1.071531 0.15183319
v -0.32411787 1.1094769 0.1630581
v -0.35354275 1.0728582 0.059215486
v -0.33030808 1.1122488 0.15019828
v -0.29106212 1.1453786 0.16146626
v -0.37847054 0.92496806 -0.174083
v -0.38434756 0.9952941 -0.061168745
v -0.30201918 0.9723468 -0.2181266
v -0.34185654 0.9882173 -0.1600265
v -0.33120522 1.0645819 -0.049041945
v -0.31977132 1.1108665 0.061759394
v -0.29954293 1.1453552 0.14846687
v -0.2777064 1.1385804 0.06617718
v -0.28910416 1.1416371 0.06432356
v -0.25878498 1.1248221 -0.038392134
v -0.27042463 1.127842 -0.041413493
v -0.23479424 1.0974416 -0.12796262
v -0.29934245 1.0996202 -0.045320686
v -0.24611865 1.1005017 -0.1316501
v -0.20631143 1.059903 -0.20823625
v -0.27071345 1.0760661 -0.13847916
v -0.22004631 1.0630376 -0.20895456
v -0.2973536 1.0451444 -0.14681718
v -0.2468427 1.0502598 -0.19772886
v -0.26738697 1.025168 -0.2055639
v -0.2526502 1.01861 -0.22349371
v -0.24186884 1.0110097 -0.22386675
v 0.33187798 0.8515679 -0.26052377
v 0.31720078 0.91381496 -0.24936098
v 0.305367 0.9060177 -0.2500574
v 0.27548766 0.9580923 -0.23676045
v 0.3408572 0.867088 -0.25739697
v 0.41001293 0.8576353 -0.18685314
v 0.4042802 0.8754398 -0.18353048
v 0.40410304 0.84284985 -0.18835977
v 0.4648129 0.8389681 -0.08601284
v 0.4562854 0.8214223 -0.08743935
v 0.49793124 0.8204027 0.02430237
v 0.4919483 0.8002903 0.022061275
v 0.3512523 0.8812755 -0.23762994
v 0.33388454 0.91842335 -0.23158272
v 0.28700206 0.96623486 -0.23696338
v 0.45798138 0.8593596 -0.083858654
v 0.5160845 0.8001451 0.12722114
v 0.51631474 0.7755882 0.14018269
v 0.49934736 0.8192546 0.14634745
v 0.4902874 0.84339184 0.027006337
v 0.5078553 0.82535374 0.13130526
v 0.4711523 0.8918164 0.1565916
v 0.4604569 0.90806884 0.036226477
v 0.47582135 0.89819914 0.14204
v 0.42180258 0.9862856 0.1638318
v 0.4284795 0.9197991 -0.07437683
v 0.37847054 0.92496806 -0.174083
v 0.4122575 0.9941781 0.048696816
v 0.42417443 0.98733175 0.1494095
v 0.35927355 1.0712945 0.16475107
v 0.30201918 0.9723468 -0.2181266
v 0.34185654 0.9882173 -0.1600265
v 0.38434756 0.9952941 -0.061168745
v 0.3641582 1.071531 0.15183319
v 0.32411787 1.1094769 0.1630581
v 0.35354275 1.0728582 0.059215486
v 0.33120522 1.0645819 -0.049041945
v 0.2973536 1.0451444 -0.14681718
v 0.26738697 1.025168 -0.2055639
v 0.33030808 1.1122488 0.15019828
v 0.29106212 1.1453786 0.16146626
v 0.31977132 1.1108665 0.061759394
v 0.29934245 1.0996202 -0.045320686
v 0.27071345 1.0760661 -0.13847916
v 0.29954293 1.1453552 0.14846687
v 0.2777064 1.1385804 0.06617718
v 0.28910416 1.1416371 0.06432356
v 0.25878498 1.1248221 -0.038392134
v 0.27042463 1.127842 -0.041413493
v 0.23479424 1.0974416 -0.12796262
v 0.24611865 1.1005017 -0.1316501
v 0.20631143 1.059903 -0.20823625
v 0.2468427 1.0502598 -0.19772886
v 0.22004631 1.0630376 -0.20895456
v 0.2526502 1.01861 -0.22349371
v 0.24186884 1.0110097 -0.22386675
vt 0.39816523 0.75390625
vt 0.36501884 0.75787854
vt 0.3665161 0.76172423
vt 0.33247328 0.7633139
vt 0.39354825 0.75812423
vt 0.42192698 0.77969813
vt 0.41278005 0.7815459
vt 0.42830777 0.7769458
vt 0.45143485 0.8062372
vt 0.4602654 0.8035525
vt 0.47575355 0.834502
vt 0.48617792 0.8323363
vt 0.3915925 0.76490164
vt 0.37074924 0.7680688
vt 0.33461857 0.7670487
vt 0.44059825 0.8077643
vt 0.4965179 0.8608881
vt 0.5107353 0.8632307
vt 0.48593783 0.86776733
vt 0.46328115 0.83616483
vt 0.4829371 0.86299324
vt 0.44427943 0.8727608
vt 0.42665696 0.8409363
vt 0.4412992 0.8685447
vt 0.3870678 0.87733114
vt 0.4067247 0.81246495
vt 0.37579775 0.84676075
vt 0.38658524 0.8733574
vt 0.3293712 0.87977564
vt 0.33045435 0.8759754
vt 0.2992823 0.8802166
vt 0.3247199 0.8508972
vt 0.30057168 0.8759943
vt 0.26953125 0.87861407
vt 0.38478708 0.78582466
vt 0.3627684 0.81812775
vt 0.33841705 0.7734802
vt 0.34824705 0.791589
vt 0.3189273 0.82242346
vt 0.2981794 0.85163426
vt 0.27575302 0.8750812
vt 0.26953125 0.851825
vt 0.27575302 0.8519039
vt 0.26953125 0.82422817
vt 0.27575302 0.82431126
vt 0.26953125 0.8001739
vt 0.29540563 0.8235309
vt 0.27575302 0.80046046
vt 0.26953125 0.77781415
vt 0.29225683 0.7987335
vt 0.27575302 0.7793325
vt 0.31217885 0.7961972
vt 0.29036522 0.7820029
vt 0.30629754 0.7790451
vt 0.30200672 0.7730328
vt 0.29925537 0.7697375
vt 0.39816523 0.75390625
vt 0.3665161 0.76172423
vt 0.36501884 0.75787854
vt 0.33247328 0.7633139
vt 0.39354825 0.75812423
vt 0.42192698 0.77969813
vt 0.41278005 0.7815459
vt 0.42830777 0.7769458
vt 0.45143485 0.8062372
vt 0.4602654 0.8035525
vt 0.47575355 0.834502
vt 0.48617792 0.8323363
vt 0.3915925 0.76490164
vt 0.37074924 0.7680688
vt 0.33461857 0.7670487
vt 0.44059825 0.8077643
vt 0.4965179 0.8608881
vt 0.5107353 0.8632307
vt 0.48593783 0.86776733
vt 0.46328115 0.83616483
vt 0.4829371 0.86299324
vt 0.44427943 0.8727608
vt 0.42665696 0.8409363
vt 0.4412992 0.8685447
vt 0.3870678 0.87733114
vt 0.4067247 0.81246495
vt 0.38478708 0.78582466
vt 0.37579775 0.84676075
vt 0.38658524 0.8733574
vt 0.3293712 0.87977564
vt 0.33841705 0.7734802
vt 0.34824705 0.791589
vt 0.3627684 0.81812775
vt 0.33045435 0.8759754
vt 0.2992823 0.8802166
vt 0.3247199 0.8508972
vt 0.3189273 0.82242346
vt 0.31217885 0.7961972
vt 0.30629754 0.7790451
vt 0.30057168 0.8759943
vt 0.26953125 0.87861407
vt 0.2981794 0.85163426
vt 0.29540563 0.8235309
vt 0.29225683 0.7987335
vt 0.27575302 0.8750812
vt 0.26953125 0.851825
vt 0.27575302 0.8519039
vt 0.26953125 0.82422817
vt 0.27575302 0.82431126
vt 0.26953125 0.8001739
vt 0.27575302 0.80046046
vt 0.26953125 0.77781415
vt 0.29036522 0.7820029
vt 0.27575302 0.7793325
vt 0.30200672 0.7730328
vt 0.29925537 0.7697375
vn -0.5202099 0.103353515 -0.8477615
vn -0.2988246 0.22338529 -0.92779464
vn -0.42510143 0.31971958 -0.8467988
vn -0.15592417 0.33760363 -0.92828405
vn -0.59097624 0.21640304 -0.7771209
vn -0.77750486 0.13436711 -0.6143548
vn -0.7805534 0.32480517 -0.53407675
vn -0.74668515 -0.0037680012 -0.665167
vn -0.9104866 0.09666682 -0.40208164
vn -0.90111256 -0.04521252 -0.4312216
vn -0.977842 0.11415125 -0.17548418
vn -0.98273116 -0.00022089214 -0.18503873
vn -0.66121787 0.3390052 -0.66922826
vn -0.59602517 0.42638734 -0.6804027
vn -0.3173425 0.41603568 -0.8521784
vn -0.88580877 0.30909055 -0.34612975
vn -0.9877501 0.15569568 0.010421074
vn -0.9933041 0.10801486 0.04098455
vn -0.94868827 0.26124913 0.17815594
vn -0.94418204 0.30333725 -0.12847881
vn -0.9528893 0.29276398 0.07931695
vn -0.8877222 0.40134346 0.22555004
vn -0.884251 0.45544893 -0.10327835
vn -0.8967936 0.4295671 0.10598807
vn -0.82812655 0.5160845 0.21877678
vn -0.8292765 0.46574607 -0.30883828
vn -0.8231443 0.55853117 -0.10235444
vn -0.8383925 0.53627634 0.09749741
vn -0.7498272 0.62878424 0.20588715
vn -0.76334757 0.63977337 0.08938985
vn -0.61052525 0.77099913 0.18116093
vn -0.7474622 0.65639824 -0.102183655
vn -0.6345789 0.7682988 0.08382582
vn -0.4008567 0.9097919 0.10766863
vn -0.7348647 0.46261892 -0.4959411
vn -0.77077746 0.56467885 -0.29502526
vn -0.53682667 0.5073666 -0.6740892
vn -0.6832744 0.5524372 -0.47744036
vn -0.69535613 0.6579681 -0.2890636
vn -0.60192275 0.7928403 -0.09535849
vn -0.46096343 0.88516164 0.063256994
vn -0.20337619 0.977853 -0.049413104
vn -0.36551973 0.9273321 -0.08031461
vn -0.0669512 0.96701294 -0.24577141
vn -0.27195692 0.9238501 -0.2693332
vn -0.016831633 0.8799568 -0.47475553
vn -0.5427987 0.79049426 -0.28370482
vn -0.22617804 0.85061693 -0.4746518
vn -0.029625453 0.70337003 -0.7102062
vn -0.4816239 0.7481807 -0.4563596
vn -0.2203837 0.70663446 -0.6723829
vn -0.61660445 0.63627833 -0.4636257
vn -0.42389357 0.6822699 -0.5956694
vn -0.48513284 0.5922581 -0.6433324
vn -0.26049158 0.5416062 -0.799254
vn -0.078194566 0.49408692 -0.8658889
vn 0.52021 0.10335324 -0.8477615
vn 0.42510137 0.31971923 -0.84679896
vn 0.2988246 0.22338505 -0.92779475
vn 0.15592404 0.33760342 -0.9282843
vn 0.59097624 0.21640252 -0.777121
vn 0.77750486 0.1343668 -0.6143547
vn 0.78055334 0.32480493 -0.534077
vn 0.74668515 -0.0037683987 -0.665167
vn 0.9104866 0.09666655 -0.40208182
vn 0.90111244 -0.045212768 -0.43122172
vn 0.97784185 0.114151105 -0.17548434
vn 0.98273116 -0.00022095679 -0.18503886
vn 0.66121787 0.3390048 -0.66922843
vn 0.5960251 0.42638713 -0.68040293
vn 0.31734255 0.4160354 -0.8521786
vn 0.88580877 0.30909058 -0.34613
vn 0.9877501 0.15569566 0.010420947
vn 0.9933041 0.10801487 0.040984552
vn 0.94868827 0.26124913 0.17815608
vn 0.94418204 0.30333737 -0.12847894
vn 0.9528893 0.29276398 0.07931707
vn 0.8877222 0.4013435 0.22555007
vn 0.884251 0.45544901 -0.103278466
vn 0.8967935 0.4295672 0.10598804
vn 0.82812655 0.5160845 0.21877675
vn 0.82927644 0.4657461 -0.3088384
vn 0.7348646 0.46261883 -0.4959414
vn 0.8231443 0.55853117 -0.10235444
vn 0.8383924 0.5362764 0.09749751
vn 0.7498273 0.628784 0.20588714
vn 0.53682667 0.5073664 -0.6740894
vn 0.6832743 0.5524371 -0.4774405
vn 0.7707776 0.5646787 -0.29502532
vn 0.76334786 0.63977313 0.08938987
vn 0.6105253 0.77099913 0.1811608
vn 0.74746233 0.6563982 -0.102183774
vn 0.6953564 0.6579679 -0.2890637
vn 0.61660475 0.63627803 -0.4636258
vn 0.48513287 0.5922579 -0.6433325
vn 0.63457906 0.7682985 0.08382581
vn 0.4008567 0.9097919 0.10766863
vn 0.6019229 0.7928402 -0.09535848
vn 0.5427989 0.7904941 -0.28370476
vn 0.48162416 0.74818057 -0.4563595
vn 0.46096358 0.88516164 0.06325686
vn 0.20337623 0.977853 -0.049412966
vn 0.36552003 0.9273321 -0.08031447
vn 0.06695121 0.96701294 -0.24577115
vn 0.27195704 0.9238501 -0.2693331
vn 0.016831636 0.8799569 -0.47475538
vn 0.22617821 0.85061693 -0.47465178
vn 0.02962546 0.70337 -0.7102063
vn 0.42389357 0.68226975 -0.59566957
vn 0.22038387 0.7066344 -0.67238295
vn 0.26049155 0.54160583 -0.79925424
vn 0.07819458 0.4940869 -0.865889
g pm0009_00_CoverSkin_0
f 3/3/3 2/2/2 1/1/1
f 4/4/4 2/2/2 3/3/3
f 5/5/5 3/3/3 1/1/1
f 5/5/5 1/1/1 6/6/6
f 5/5/5 6/6/6 7/7/7
f 1/1/1 8/8/8 6/6/6
f 6/6/6 8/8/8 9/9/9
f 7/7/7 6/6/6 9/9/9
f 8/8/8 10/10/10 9/9/9
f 9/9/9 10/10/10 11/11/11
f 10/10/10 12/12/12 11/11/11
f 5/5/5 13/13/13 3/3/3
f 13/13/13 5/5/5 7/7/7
f 13/13/13 14/14/14 3/3/3
f 13/13/13 7/7/7 14/14/14
f 15/15/15 4/4/4 3/3/3
f 3/3/3 14/14/14 15/15/15
f 16/16/16 9/9/9 11/11/11
f 16/16/16 7/7/7 9/9/9
f 17/17/17 11/11/11 12/12/12
f 18/18/18 17/17/17 12/12/12
f 17/17/17 18/18/18 19/19/19
f 20/20/20 11/11/11 17/17/17
f 20/20/20 16/16/16 11/11/11
f 21/21/21 17/17/17 19/19/19
f 21/21/21 20/20/20 17/17/17
f 21/21/21 19/19/19 22/22/22
f 16/16/16 20/20/20 23/23/23
f 23/23/23 20/20/20 21/21/21
f 24/24/24 21/21/21 22/22/22
f 24/24/24 23/23/23 21/21/21
f 22/22/22 25/25/25 24/24/24
f 16/16/16 26/26/26 7/7/7
f 26/26/26 16/16/16 23/23/23
f 27/27/27 23/23/23 24/24/24
f 23/23/23 27/27/27 26/26/26
f 25/25/25 28/28/28 24/24/24
f 28/28/28 27/27/27 24/24/24
f 25/25/25 29/29/29 28/28/28
f 29/29/29 30/30/30 28/28/28
f 30/30/30 29/29/29 31/31/31
f 27/27/27 28/28/28 32/32/32
f 28/28/28 30/30/30 32/32/32
f 33/33/33 30/30/30 31/31/31
f 33/33/33 31/31/31 34/34/34
f 26/26/26 35/35/35 7/7/7
f 7/7/7 35/35/35 14/14/14
f 27/27/27 36/36/36 26/26/26
f 27/27/27 32/32/32 36/36/36
f 14/14/14 35/35/35 37/37/37
f 14/14/14 37/37/37 15/15/15
f 35/35/35 26/26/26 38/38/38
f 26/26/26 36/36/36 38/38/38
f 35/35/35 38/38/38 37/37/37
f 36/36/36 39/39/39 38/38/38
f 32/32/32 39/39/39 36/36/36
f 40/40/40 32/32/32 30/30/30
f 33/33/33 40/40/40 30/30/30
f 41/41/41 33/33/33 34/34/34
f 34/34/34 42/42/42 41/41/41
f 33/33/33 41/41/41 43/43/43
f 42/42/42 43/43/43 41/41/41
f 40/40/40 33/33/33 43/43/43
f 43/43/43 42/42/42 44/44/44
f 45/45/45 43/43/43 44/44/44
f 40/40/40 43/43/43 45/45/45
f 45/45/45 44/44/44 46/46/46
f 40/40/40 47/47/47 32/32/32
f 47/47/47 40/40/40 45/45/45
f 47/47/47 39/39/39 32/32/32
f 48/48/48 45/45/45 46/46/46
f 47/47/47 45/45/45 48/48/48
f 48/48/48 46/46/46 49/49/49
f 39/39/39 47/47/47 50/50/50
f 50/50/50 47/47/47 48/48/48
f 51/51/51 48/48/48 49/49/49
f 50/50/50 48/48/48 51/51/51
f 52/52/52 39/39/39 50/50/50
f 39/39/39 52/52/52 38/38/38
f 38/38/38 52/52/52 37/37/37
f 50/50/50 53/53/53 52/52/52
f 53/53/53 50/50/50 51/51/51
f 52/52/52 54/54/54 37/37/37
f 53/53/53 54/54/54 52/52/52
f 53/53/53 51/51/51 54/54/54
f 37/37/37 54/54/54 15/15/15
f 51/51/51 49/49/49 55/55/55
f 51/51/51 55/55/55 54/54/54
f 54/54/54 55/55/55 15/15/15
f 49/49/49 56/56/56 55/55/55
f 15/15/15 55/55/55 4/4/4
f 55/55/55 56/56/56 4/4/4
f 59/59/59 58/58/58 57/57/57
f 59/59/59 60/60/60 58/58/58
f 58/58/58 61/61/61 57/57/57
f 57/57/57 61/61/61 62/62/62
f 62/62/62 61/61/61 63/63/63
f 64/64/64 57/57/57 62/62/62
f 64/64/64 62/62/62 65/65/65
f 62/62/62 63/63/63 65/65/65
f 66/66/66 64/64/64 65/65/65
f 66/66/66 65/65/65 67/67/67
f 68/68/68 66/66/66 67/67/67
f 69/69/69 61/61/61 58/58/58
f 61/61/61 69/69/69 63/63/63
f 70/70/70 69/69/69 58/58/58
f 63/63/63 69/69/69 70/70/70
f 60/60/60 71/71/71 58/58/58
f 70/70/70 58/58/58 71/71/71
f 65/65/65 72/72/72 67/67/67
f 63/63/63 72/72/72 65/65/65
f 67/67/67 73/73/73 68/68/68
f 73/73/73 74/74/74 68/68/68
f 74/74/74 73/73/73 75/75/75
f 67/67/67 76/76/76 73/73/73
f 72/72/72 76/76/76 67/67/67
f 73/73/73 77/77/77 75/75/75
f 76/76/76 77/77/77 73/73/73
f 75/75/75 77/77/77 78/78/78
f 76/76/76 72/72/72 79/79/79
f 76/76/76 79/79/79 77/77/77
f 77/77/77 80/80/80 78/78/78
f 79/79/79 80/80/80 77/77/77
f 81/81/81 78/78/78 80/80/80
f 82/82/82 72/72/72 63/63/63
f 72/72/72 82/82/82 79/79/79
f 83/83/83 63/63/63 70/70/70
f 83/83/83 82/82/82 63/63/63
f 79/79/79 84/84/84 80/80/80
f 84/84/84 79/79/79 82/82/82
f 85/85/85 81/81/81 80/80/80
f 84/84/84 85/85/85 80/80/80
f 86/86/86 81/81/81 85/85/85
f 83/83/83 70/70/70 87/87/87
f 87/87/87 70/70/70 71/71/71
f 82/82/82 83/83/83 88/88/88
f 88/88/88 83/83/83 87/87/87
f 89/89/89 84/84/84 82/82/82
f 89/89/89 82/82/82 88/88/88
f 90/90/90 86/86/86 85/85/85
f 86/86/86 90/90/90 91/91/91
f 85/85/85 84/84/84 92/92/92
f 92/92/92 84/84/84 89/89/89
f 90/90/90 85/85/85 92/92/92
f 93/93/93 89/89/89 88/88/88
f 93/93/93 92/92/92 89/89/89
f 94/94/94 88/88/88 87/87/87
f 94/94/94 93/93/93 88/88/88
f 95/95/95 87/87/87 71/71/71
f 95/95/95 94/94/94 87/87/87
f 90/90/90 96/96/96 91/91/91
f 91/91/91 96/96/96 97/97/97
f 92/92/92 98/98/98 90/90/90
f 98/98/98 96/96/96 90/90/90
f 93/93/93 99/99/99 92/92/92
f 99/99/99 98/98/98 92/92/92
f 93/93/93 94/94/94 100/100/100
f 99/99/99 93/93/93 100/100/100
f 96/96/96 101/101/101 97/97/97
f 102/102/102 97/97/97 101/101/101
f 101/101/101 96/96/96 103/103/103
f 103/103/103 102/102/102 101/101/101
f 96/96/96 98/98/98 103/103/103
f 102/102/102 103/103/103 104/104/104
f 103/103/103 98/98/98 105/105/105
f 103/103/103 105/105/105 104/104/104
f 98/98/98 99/99/99 105/105/105
f 104/104/104 105/105/105 106/106/106
f 105/105/105 99/99/99 107/107/107
f 105/105/105 107/107/107 106/106/106
f 99/99/99 100/100/100 107/107/107
f 106/106/106 107/107/107 108/108/108
f 109/109/109 100/100/100 94/94/94
f 95/95/95 109/109/109 94/94/94
f 107/107/107 100/100/100 110/110/110
f 100/100/100 109/109/109 110/110/110
f 107/107/107 110/110/110 108/108/108
f 110/110/110 109/109/109 95/95/95
f 108/108/108 110/110/110 111/111/111
f 111/111/111 110/110/110 95/95/95
f 112/112/112 108/108/108 111/111/111
f 111/111/111 95/95/95 71/71/71
f 112/112/112 111/111/111 60/60/60
f 111/111/111 71/71/71 60/60/60
