g pm0094_00_NormalTongueSkin_tz
v -4.7683715E-09 0.27558032 0.31966347
v -0.058755934 0.28091162 0.31601277
v -0.059589505 0.3463192 0.33480778
v -4.7683715E-09 0.34376076 0.33735552
v -0.11714169 0.35202733 0.32842532
v -0.117511824 0.2915408 0.31283063
v -0.16981936 0.31448522 0.30147672
v -0.0608332 0.41114452 0.3336017
v -4.7683715E-09 0.41036218 0.3362545
v -4.7683715E-09 0.46119532 0.3139279
v -0.11959809 0.41095537 0.32562533
v -0.16769834 0.3612306 0.31603977
v -0.2157325 0.3450593 0.28300852
v -0.06152204 0.4667558 0.31317312
v -0.12164542 0.467727 0.30578983
v -0.031335816 0.483325 0.29721457
v -4.7683715E-09 0.482853 0.29533222
v -0.030824203 0.50857556 0.27703437
v -4.7683715E-09 0.50076896 0.27262613
v -4.7683715E-09 0.54461116 0.22813347
v -0.061648406 0.5126404 0.27733216
v -0.030206488 0.55242205 0.2331943
v -4.7683715E-09 0.5809823 0.17849915
v -0.12179632 0.51765406 0.27301723
v -0.17853938 0.46002978 0.28895697
v -0.029120602 0.58851343 0.18351486
v -4.7683715E-09 0.6184817 0.106093004
v -0.060412977 0.55649126 0.23414473
v -0.027042754 0.62438864 0.110935494
v -4.7683715E-09 0.6505839 0.034980193
v -0.11978923 0.56046194 0.23098773
v -0.058241203 0.59230286 0.18442014
v -0.025063917 0.65505815 0.03926264
v -4.7683715E-09 0.6705917 -0.02762166
v -0.054085508 0.6265539 0.111667566
v -0.11575342 0.5960062 0.18234679
v -0.1761151 0.54569745 0.21699587
v -0.17913797 0.5055482 0.25693965
v -0.023545848 0.6750717 -0.023313617
v -0.050127834 0.6557907 0.03943467
v -0.02220414 0.68947256 -0.09588907
v -4.7683715E-09 0.6848718 -0.10106561
v -4.7683715E-09 0.67967397 -0.17446418
v -0.022221165 0.68588775 -0.17385198
v -0.04440828 0.69033164 -0.094822936
v -0.04444231 0.6886817 -0.17180668
v -0.047091696 0.67581 -0.023116002
v -0.099630475 0.6562283 0.03899605
v -0.08743014 0.6924252 -0.089674845
v -0.0889927 0.6975424 -0.16176449
v -0.0930465 0.6764266 -0.023283595
v -0.107885614 0.6281884 0.111320004
v -0.12507819 0.6898166 -0.08337056
v -0.12178487 0.6942622 -0.1476099
v -0.14625661 0.64776593 0.034805704
v -0.13512371 0.67184424 -0.025897497
v -0.15204512 0.6787634 -0.080289714
v -0.15462911 0.68209493 -0.12558194
v -0.19325273 0.6361898 -0.052274454
v -0.1705674 0.580007 0.17119595
v -0.15879686 0.6152967 0.1035943
v -0.18544628 0.62667966 0.026684789
v -0.16763182 0.6575416 -0.03467748
v -0.21950082 0.59291893 0.019088628
v -0.2029989 0.58985126 0.09369282
v -0.24061571 0.5508789 0.08551449
v -0.21825808 0.5534097 0.1556831
v -0.25682533 0.5150639 0.13795377
v -0.22542381 0.52164084 0.19568123
v -0.26295605 0.48836857 0.16713826
v -0.22962011 0.48515308 0.23202403
v -0.271174 0.45459828 0.19779089
v -0.27142215 0.42293483 0.2262918
v -0.22801107 0.44588014 0.2632448
v -0.21847264 0.4051856 0.2870424
v -0.25567406 0.3882109 0.25336796
v -0.17334175 0.4106864 0.3101678
v -0.20318376 0.37012678 0.3003358
v -1.6117716E-32 0.67967397 -0.17446418
v 0.022204136 0.68947256 -0.09588907
v -1.4564573E-32 0.6848718 -0.10106561
v 0.022221122 0.68588775 -0.17385198
v -1.20499764E-32 0.6705917 -0.02762166
v 0.04440828 0.69033164 -0.094822936
v 0.04444231 0.6886817 -0.17180668
v 0.023545844 0.6750717 -0.023313617
v 0.08743014 0.6924252 -0.089674845
v 0.0889927 0.6975424 -0.16176449
v 0.025063911 0.65505815 0.03926264
v -9.520262E-33 0.6505839 0.034980193
v 0.12507819 0.6898166 -0.08337056
v 0.12178487 0.6942622 -0.1476099
v 0.15204512 0.6787634 -0.080289714
v 0.15462911 0.68209493 -0.12558194
v 0.19325273 0.6361898 -0.052274454
v 0.13512371 0.67184424 -0.025897497
v 0.0930465 0.6764266 -0.023283595
v 0.047091696 0.67581 -0.023116002
v 0.16763182 0.6575416 -0.03467748
v 0.18544628 0.62667966 0.026684789
v 0.21950082 0.59291893 0.019088628
v 0.050127834 0.6557907 0.03943467
v 0.099630475 0.6562283 0.03899605
v 0.14625661 0.64776593 0.034805704
v 0.2029989 0.58985126 0.09369282
v 0.24061571 0.5508789 0.08551449
v 0.054085508 0.6265539 0.111667566
v 0.107885614 0.6281884 0.111320004
v 0.15879686 0.6152967 0.1035943
v 0.21825808 0.5534097 0.1556831
v 0.25682533 0.5150639 0.13795377
v 0.1705674 0.580007 0.17119595
v 0.22542381 0.52164084 0.19568123
v 0.26295605 0.48836857 0.16713826
v 0.11575342 0.5960062 0.18234679
v 0.027042748 0.62438864 0.110935494
v -6.184433E-33 0.6184817 0.106093004
v 0.058241203 0.59230286 0.18442014
v 0.029120598 0.58851343 0.18351486
v -2.554215E-33 0.5809823 0.17849915
v 0.1761151 0.54569745 0.21699587
v 0.22962011 0.48515308 0.23202403
v 0.271174 0.45459828 0.19779089
v 0.27142215 0.42293483 0.2262918
v 0.11978923 0.56046194 0.23098773
v 0.030206485 0.55242205 0.2331943
v 3.6280983E-34 0.54461116 0.22813347
v 0.060412977 0.55649126 0.23414473
v 0.17913797 0.5055482 0.25693965
v 0.22801107 0.44588014 0.2632448
v 0.030824197 0.50857556 0.27703437
v -4.7683715E-09 0.50076896 0.27262613
v -4.7683715E-09 0.482853 0.29533222
v 0.061648406 0.5126404 0.27733216
v 0.12179632 0.51765406 0.27301723
v 0.031335812 0.483325 0.29721457
v -4.7683715E-09 0.46119532 0.3139279
v 0.061522033 0.4667558 0.31317312
v 0.17853938 0.46002978 0.28895697
v 0.060833197 0.41114452 0.3336017
v -4.7683715E-09 0.41036218 0.3362545
v -4.7683715E-09 0.34376076 0.33735552
v 0.12164542 0.467727 0.30578983
v 0.059589498 0.3463192 0.33480778
v -4.7683715E-09 0.27558032 0.31966347
v 0.058755912 0.28091162 0.31601277
v 0.11959809 0.41095537 0.32562533
v 0.11714169 0.35202733 0.32842532
v 0.117511824 0.2915408 0.31283063
v 0.16981936 0.31448522 0.30147672
v 0.16769834 0.3612306 0.31603977
v 0.2157325 0.3450593 0.28300852
v 0.17334175 0.4106864 0.3101678
v 0.20318376 0.37012678 0.3003358
v 0.21847264 0.4051856 0.2870424
v 0.25567406 0.3882109 0.25336796
vt 0.22863185 0.5166306
vt 0.17178476 0.51870483
vt 0.17370391 0.54393244
vt 0.22863185 0.54325527
vt 0.13995147 0.54610354
vt 0.13310659 0.5234355
vt 0.09716284 0.53185123
vt 0.1737994 0.56106645
vt 0.22863185 0.5603582
vt 0.22863185 0.5748434
vt 0.14054096 0.5621123
vt 0.10962474 0.55014366
vt 0.06547737 0.54402727
vt 0.17326188 0.5764928
vt 0.14004517 0.57792634
vt 0.19008958 0.5824443
vt 0.22863185 0.5825918
vt 0.19000483 0.5912328
vt 0.22863185 0.5905869
vt 0.22863185 0.6075231
vt 0.17264676 0.59189206
vt 0.19010246 0.6078066
vt 0.22863185 0.62432545
vt 0.13962519 0.59351546
vt 0.10661614 0.5785712
vt 0.19049561 0.62424487
vt 0.22863185 0.6425081
vt 0.17298079 0.60822713
vt 0.19149888 0.64207435
vt 0.22863185 0.65880936
vt 0.14011323 0.6092349
vt 0.17377496 0.62451315
vt 0.19260669 0.6582221
vt 0.22863185 0.6717963
vt 0.17553425 0.64214766
vt 0.14147401 0.62513787
vt 0.10637736 0.60899377
vt 0.10570681 0.59357053
vt 0.1935643 0.6709881
vt 0.17766404 0.6582785
vt 0.19424975 0.686734
vt 0.22863185 0.68775636
vt 0.22863185 0.6997228
vt 0.19342172 0.6996406
vt 0.18084836 0.6865515
vt 0.17927253 0.6992071
vt 0.17946196 0.67099255
vt 0.14835703 0.6583528
vt 0.15518999 0.68537784
vt 0.15209115 0.69744843
vt 0.1521883 0.6709907
vt 0.14425683 0.6422208
vt 0.13302302 0.6837198
vt 0.13068092 0.69525594
vt 0.12003326 0.6584726
vt 0.12701523 0.6712051
vt 0.11609733 0.68241495
vt 0.10804343 0.6915112
vt 0.077193975 0.67882895
vt 0.10830939 0.6247873
vt 0.11296952 0.64228475
vt 0.09266901 0.65841115
vt 0.10524118 0.6723567
vt 0.055469513 0.6592037
vt 0.08138323 0.6412268
vt 0.039000154 0.6387298
vt 0.07445204 0.6235612
vt 0.03007412 0.6205099
vt 0.071617365 0.6084176
vt 0.026747584 0.6067209
vt 0.070699096 0.5933361
vt 0.02333963 0.59086686
vt 0.026291966 0.5764402
vt 0.073126435 0.57887167
vt 0.079135776 0.5654271
vt 0.03826976 0.56167805
vt 0.10891736 0.56403923
vt 0.08715999 0.55438256
vt 0.22863185 0.6997228
vt 0.19424975 0.686734
vt 0.22863185 0.68775636
vt 0.19342172 0.6996406
vt 0.22863185 0.6717963
vt 0.18084836 0.6865515
vt 0.17927253 0.6992071
vt 0.1935643 0.6709881
vt 0.15518999 0.68537784
vt 0.15209115 0.69744843
vt 0.19260669 0.6582221
vt 0.22863185 0.65880936
vt 0.13302302 0.6837198
vt 0.13068092 0.69525594
vt 0.11609733 0.68241495
vt 0.10804343 0.6915112
vt 0.077193975 0.67882895
vt 0.12701523 0.6712051
vt 0.1521883 0.6709907
vt 0.17946196 0.67099255
vt 0.10524118 0.6723567
vt 0.09266901 0.65841115
vt 0.055469513 0.6592037
vt 0.17766404 0.6582785
vt 0.14835703 0.6583528
vt 0.12003326 0.6584726
vt 0.08138323 0.6412268
vt 0.039000154 0.6387298
vt 0.17553425 0.64214766
vt 0.14425683 0.6422208
vt 0.11296952 0.64228475
vt 0.07445204 0.6235612
vt 0.03007412 0.6205099
vt 0.10830939 0.6247873
vt 0.071617365 0.6084176
vt 0.026747584 0.6067209
vt 0.14147401 0.62513787
vt 0.19149888 0.64207435
vt 0.22863185 0.6425081
vt 0.17377496 0.62451315
vt 0.19049561 0.62424487
vt 0.22863185 0.62432545
vt 0.10637736 0.60899377
vt 0.070699096 0.5933361
vt 0.02333963 0.59086686
vt 0.026291966 0.5764402
vt 0.14011323 0.6092349
vt 0.19010246 0.6078066
vt 0.22863185 0.6075231
vt 0.17298079 0.60822713
vt 0.10570681 0.59357053
vt 0.073126435 0.57887167
vt 0.19000483 0.5912328
vt 0.22863185 0.5905869
vt 0.22863185 0.5825918
vt 0.17264676 0.59189206
vt 0.13962519 0.59351546
vt 0.19008958 0.5824443
vt 0.22863185 0.5748434
vt 0.17326188 0.5764928
vt 0.10661614 0.5785712
vt 0.1737994 0.56106645
vt 0.22863185 0.5603582
vt 0.22863185 0.54325527
vt 0.14004517 0.57792634
vt 0.17370391 0.54393244
vt 0.22863185 0.5166306
vt 0.17178476 0.51870483
vt 0.14054096 0.5621123
vt 0.13995147 0.54610354
vt 0.13310659 0.5234355
vt 0.09716284 0.53185123
vt 0.10962474 0.55014366
vt 0.06547737 0.54402727
vt 0.10891736 0.56403923
vt 0.08715999 0.55438256
vt 0.079135776 0.5654271
vt 0.03826976 0.56167805
vn -0 -0.16120125 0.98692155
vn -0.108735144 -0.15880401 0.98130417
vn -0.10301117 -0.033796787 0.9941058
vn -0 -0.034543127 0.99940324
vn -0.23678857 -0.032032263 0.971033
vn -0.24072015 -0.14875238 0.9591281
vn -0.3925554 -0.11551429 0.9124454
vn -0.08987906 0.21261768 0.9729931
vn -0 0.20999926 0.97770154
vn -0 0.468073 0.88368976
vn -0.2345275 0.196259 0.95209205
vn -0.39012238 -0.022075284 0.92049843
vn -0.5274608 -0.03491649 0.8488616
vn -0.051424596 0.49399203 0.8679443
vn -0.22244753 0.44415835 0.86789423
vn 0.018153913 0.61336637 0.7895898
vn -0 0.61597306 0.78776723
vn 0.048831176 0.69212246 0.7201264
vn -0 0.7148126 0.69931614
vn 0.13368589 0.77137786 0.622177
vn -0.029406482 0.65467554 0.75533783
vn 0.11619025 0.7669899 0.6310519
vn 0.19614756 0.82823086 0.5249378
vn -0.20996396 0.6238236 0.75283414
vn -0.419663 0.403463 0.81308085
vn 0.14704998 0.8366308 0.5276601
vn 0.20213567 0.881075 0.4276072
vn 0.0019679128 0.7649893 0.64404
vn 0.14499846 0.8920804 0.4279812
vn 0.19021645 0.92427325 0.33096328
vn -0.19483341 0.7509144 0.6310052
vn 0.018233253 0.848427 0.52899826
vn 0.13324672 0.9332397 0.3336302
vn 0.18211198 0.9578617 0.22211757
vn 0.018748851 0.9049278 0.42515212
vn -0.18194997 0.8404765 0.5103856
vn -0.4215767 0.7032641 0.57244444
vn -0.4241386 0.5792056 0.6961518
vn 0.13172095 0.9647898 0.22766232
vn 0.021392308 0.94210863 0.3346246
vn 0.13867542 0.98350245 0.116155006
vn 0.18146168 0.97704244 0.11162351
vn 0.17876908 0.98274374 0.04750065
vn 0.14158428 0.98870325 0.049192805
vn 0.054582357 0.98951995 0.13368195
vn 0.062265057 0.9956267 0.069645725
vn 0.034994334 0.97084886 0.23712415
vn -0.14400883 0.9342602 0.32621977
vn -0.07854355 0.98503923 0.15339053
vn -0.06800921 0.9929871 0.0967022
vn -0.11119567 0.9637796 0.24241336
vn -0.16660827 0.89748544 0.4083644
vn -0.26166067 0.95157766 0.16134937
vn -0.2538476 0.9599697 0.11840425
vn -0.35339943 0.88757247 0.29550633
vn -0.3072739 0.92362297 0.22913618
vn -0.41512224 0.8960354 0.15746167
vn -0.4358501 0.8897727 0.13542284
vn -0.5541202 0.81525415 0.16826056
vn -0.4095716 0.7896987 0.45675713
vn -0.38705084 0.84693563 0.36454308
vn -0.5370914 0.80714226 0.24505965
vn -0.4821692 0.85376096 0.19648153
vn -0.6222611 0.7541159 0.21000068
vn -0.5708597 0.7632322 0.30264804
vn -0.65662515 0.7066932 0.26349223
vn -0.59057635 0.7098311 0.38387427
vn -0.6745596 0.6556017 0.3393461
vn -0.59929997 0.63299865 0.4900533
vn -0.68215215 0.5846861 0.43910208
vn -0.59722984 0.52070963 0.6100639
vn -0.67990565 0.47855198 0.55562246
vn -0.66256535 0.32262605 0.6759582
vn -0.5829672 0.35781863 0.72946215
vn -0.55037916 0.15662418 0.8200925
vn -0.6148594 0.12945752 0.7779387
vn -0.40699857 0.17849265 0.8958195
vn -0.5059438 0.0016310376 0.8625649
vn -0.1787689 0.98274386 0.04750066
vn -0.13867536 0.98350257 0.11615489
vn -0.1814616 0.97704244 0.1116235
vn -0.14158422 0.98870325 0.049192686
vn -0.18211186 0.9578617 0.22211733
vn -0.054582365 0.98951995 0.13368197
vn -0.06226499 0.9956267 0.06964571
vn -0.13172086 0.9647898 0.22766237
vn 0.07854362 0.98503923 0.15339066
vn 0.06800917 0.9929871 0.09670245
vn -0.13324654 0.9332398 0.33362976
vn -0.19021635 0.9242734 0.33096305
vn 0.26166078 0.95157766 0.16134937
vn 0.25384754 0.9599697 0.11840449
vn 0.41512206 0.8960355 0.1574617
vn 0.4358501 0.8897727 0.13542296
vn 0.5541201 0.81525403 0.16826066
vn 0.30727395 0.92362297 0.22913618
vn 0.11119563 0.9637796 0.24241339
vn -0.03499422 0.970849 0.23712395
vn 0.48216933 0.8537609 0.19648153
vn 0.5370915 0.8071421 0.24505992
vn 0.62226105 0.7541159 0.21000089
vn -0.021392308 0.94210863 0.3346245
vn 0.14400883 0.9342602 0.32621977
vn 0.35339934 0.88757235 0.29550654
vn 0.5708598 0.76323205 0.3026483
vn 0.65662515 0.7066931 0.26349232
vn -0.018748786 0.9049278 0.42515194
vn 0.16660833 0.89748544 0.40836453
vn 0.38705108 0.8469355 0.36454335
vn 0.59057635 0.70983094 0.38387445
vn 0.6745597 0.6556016 0.33934608
vn 0.40957177 0.7896984 0.45675743
vn 0.59930015 0.63299835 0.49005353
vn 0.68215215 0.584686 0.43910223
vn 0.18195009 0.84047645 0.51038563
vn -0.14499836 0.8920804 0.4279812
vn -0.20213567 0.88107514 0.427607
vn -0.01823325 0.848427 0.5289983
vn -0.1470499 0.8366308 0.52766
vn -0.19614753 0.82823086 0.5249379
vn 0.421577 0.70326394 0.5724445
vn 0.59722984 0.5207096 0.61006397
vn 0.6799058 0.47855195 0.55562234
vn 0.66256547 0.32262605 0.6759582
vn 0.19483359 0.7509143 0.6310053
vn -0.116190225 0.7669897 0.6310519
vn -0.13368581 0.77137786 0.62217695
vn -0.0019678515 0.7649893 0.64404
vn 0.4241386 0.5792055 0.696152
vn 0.5829674 0.35781842 0.7294621
vn -0.04883112 0.69212234 0.7201266
vn -0 0.7148126 0.69931614
vn -0 0.61597306 0.78776723
vn 0.029406613 0.6546753 0.755338
vn 0.2099642 0.62382334 0.7528342
vn -0.018153913 0.61336637 0.7895898
vn -0 0.468073 0.88368976
vn 0.05142485 0.4939919 0.8679443
vn 0.41966313 0.40346277 0.8130809
vn 0.089879125 0.21261768 0.9729931
vn -0 0.20999926 0.97770154
vn -0 -0.034543127 0.99940324
vn 0.22244759 0.44415823 0.8678943
vn 0.10301117 -0.033796787 0.9941058
vn -0 -0.16120125 0.98692155
vn 0.108735144 -0.15880401 0.98130417
vn 0.23452762 0.19625886 0.95209205
vn 0.23678876 -0.03203233 0.971033
vn 0.24072027 -0.14875245 0.95912796
vn 0.3925554 -0.11551437 0.9124454
vn 0.3901225 -0.022075284 0.9204983
vn 0.5274608 -0.03491661 0.8488615
vn 0.40699866 0.17849265 0.8958194
vn 0.50594395 0.0016309142 0.86256474
vn 0.5503793 0.15662414 0.8200923
vn 0.6148596 0.1294574 0.77793866
g pm0094_00_NormalTongueSkin_tz_0
f 3/3/3 2/2/2 1/1/1
f 4/4/4 3/3/3 1/1/1
f 3/3/3 5/5/5 2/2/2
f 5/5/5 6/6/6 2/2/2
f 7/7/7 6/6/6 5/5/5
f 8/8/8 3/3/3 4/4/4
f 9/9/9 8/8/8 4/4/4
f 8/8/8 9/9/9 10/10/10
f 11/11/11 5/5/5 3/3/3
f 8/8/8 11/11/11 3/3/3
f 12/12/12 7/7/7 5/5/5
f 5/5/5 11/11/11 12/12/12
f 13/13/13 7/7/7 12/12/12
f 14/14/14 8/8/8 10/10/10
f 15/15/15 11/11/11 8/8/8
f 14/14/14 15/15/15 8/8/8
f 16/16/16 14/14/14 10/10/10
f 17/17/17 16/16/16 10/10/10
f 18/18/18 16/16/16 17/17/17
f 19/19/19 18/18/18 17/17/17
f 18/18/18 19/19/19 20/20/20
f 21/21/21 14/14/14 16/16/16
f 18/18/18 21/21/21 16/16/16
f 22/22/22 18/18/18 20/20/20
f 21/21/21 18/18/18 22/22/22
f 22/22/22 20/20/20 23/23/23
f 24/24/24 15/15/15 14/14/14
f 21/21/21 24/24/24 14/14/14
f 15/15/15 25/25/25 11/11/11
f 25/25/25 15/15/15 24/24/24
f 26/26/26 22/22/22 23/23/23
f 26/26/26 23/23/23 27/27/27
f 28/28/28 21/21/21 22/22/22
f 28/28/28 22/22/22 26/26/26
f 29/29/29 26/26/26 27/27/27
f 27/27/27 30/30/30 29/29/29
f 21/21/21 28/28/28 31/31/31
f 24/24/24 21/21/21 31/31/31
f 32/32/32 28/28/28 26/26/26
f 32/32/32 26/26/26 29/29/29
f 31/31/31 28/28/28 32/32/32
f 30/30/30 33/33/33 29/29/29
f 33/33/33 30/30/30 34/34/34
f 35/35/35 32/32/32 29/29/29
f 29/29/29 33/33/33 35/35/35
f 36/36/36 31/31/31 32/32/32
f 36/36/36 32/32/32 35/35/35
f 24/24/24 31/31/31 37/37/37
f 37/37/37 31/31/31 36/36/36
f 38/38/38 24/24/24 37/37/37
f 38/38/38 25/25/25 24/24/24
f 39/39/39 33/33/33 34/34/34
f 33/33/33 40/40/40 35/35/35
f 40/40/40 33/33/33 39/39/39
f 39/39/39 34/34/34 41/41/41
f 34/34/34 42/42/42 41/41/41
f 41/41/41 42/42/42 43/43/43
f 44/44/44 41/41/41 43/43/43
f 45/45/45 41/41/41 44/44/44
f 39/39/39 41/41/41 45/45/45
f 46/46/46 45/45/45 44/44/44
f 47/47/47 40/40/40 39/39/39
f 47/47/47 39/39/39 45/45/45
f 35/35/35 40/40/40 48/48/48
f 48/48/48 40/40/40 47/47/47
f 49/49/49 45/45/45 46/46/46
f 50/50/50 49/49/49 46/46/46
f 47/47/47 45/45/45 51/51/51
f 51/51/51 48/48/48 47/47/47
f 45/45/45 49/49/49 51/51/51
f 52/52/52 35/35/35 48/48/48
f 52/52/52 36/36/36 35/35/35
f 53/53/53 49/49/49 50/50/50
f 54/54/54 53/53/53 50/50/50
f 55/55/55 48/48/48 51/51/51
f 52/52/52 48/48/48 55/55/55
f 51/51/51 49/49/49 56/56/56
f 49/49/49 53/53/53 56/56/56
f 56/56/56 55/55/55 51/51/51
f 57/57/57 53/53/53 54/54/54
f 56/56/56 53/53/53 57/57/57
f 58/58/58 57/57/57 54/54/54
f 57/57/57 58/58/58 59/59/59
f 60/60/60 36/36/36 52/52/52
f 60/60/60 37/37/37 36/36/36
f 61/61/61 52/52/52 55/55/55
f 61/61/61 60/60/60 52/52/52
f 62/62/62 55/55/55 56/56/56
f 61/61/61 55/55/55 62/62/62
f 63/63/63 56/56/56 57/57/57
f 63/63/63 57/57/57 59/59/59
f 63/63/63 62/62/62 56/56/56
f 62/62/62 63/63/63 59/59/59
f 64/64/64 62/62/62 59/59/59
f 65/65/65 62/62/62 64/64/64
f 65/65/65 61/61/61 62/62/62
f 66/66/66 65/65/65 64/64/64
f 65/65/65 67/67/67 61/61/61
f 65/65/65 66/66/66 67/67/67
f 67/67/67 60/60/60 61/61/61
f 66/66/66 68/68/68 67/67/67
f 69/69/69 37/37/37 60/60/60
f 67/67/67 69/69/69 60/60/60
f 67/67/67 68/68/68 69/69/69
f 68/68/68 70/70/70 69/69/69
f 38/38/38 37/37/37 69/69/69
f 69/69/69 70/70/70 71/71/71
f 71/71/71 38/38/38 69/69/69
f 70/70/70 72/72/72 71/71/71
f 71/71/71 72/72/72 73/73/73
f 71/71/71 74/74/74 38/38/38
f 74/74/74 71/71/71 73/73/73
f 74/74/74 25/25/25 38/38/38
f 74/74/74 73/73/73 75/75/75
f 73/73/73 76/76/76 75/75/75
f 75/75/75 76/76/76 13/13/13
f 25/25/25 74/74/74 77/77/77
f 74/74/74 75/75/75 77/77/77
f 25/25/25 77/77/77 11/11/11
f 11/11/11 77/77/77 12/12/12
f 78/78/78 75/75/75 13/13/13
f 78/78/78 13/13/13 12/12/12
f 77/77/77 75/75/75 78/78/78
f 12/12/12 77/77/77 78/78/78
f 81/81/81 80/80/80 79/79/79
f 80/80/80 82/82/82 79/79/79
f 81/81/81 83/83/83 80/80/80
f 80/80/80 84/84/84 82/82/82
f 84/84/84 85/85/85 82/82/82
f 83/83/83 86/86/86 80/80/80
f 80/80/80 86/86/86 84/84/84
f 84/84/84 87/87/87 85/85/85
f 87/87/87 88/88/88 85/85/85
f 89/89/89 86/86/86 83/83/83
f 90/90/90 89/89/89 83/83/83
f 87/87/87 91/91/91 88/88/88
f 91/91/91 92/92/92 88/88/88
f 91/91/91 93/93/93 92/92/92
f 93/93/93 94/94/94 92/92/92
f 94/94/94 93/93/93 95/95/95
f 91/91/91 87/87/87 96/96/96
f 91/91/91 96/96/96 93/93/93
f 87/87/87 84/84/84 97/97/97
f 87/87/87 97/97/97 96/96/96
f 86/86/86 98/98/98 84/84/84
f 84/84/84 98/98/98 97/97/97
f 93/93/93 99/99/99 95/95/95
f 96/96/96 99/99/99 93/93/93
f 99/99/99 100/100/100 95/95/95
f 100/100/100 99/99/99 96/96/96
f 100/100/100 101/101/101 95/95/95
f 102/102/102 98/98/98 86/86/86
f 89/89/89 102/102/102 86/86/86
f 103/103/103 97/97/97 98/98/98
f 102/102/102 103/103/103 98/98/98
f 104/104/104 96/96/96 97/97/97
f 104/104/104 100/100/100 96/96/96
f 103/103/103 104/104/104 97/97/97
f 100/100/100 105/105/105 101/101/101
f 105/105/105 106/106/106 101/101/101
f 102/102/102 89/89/89 107/107/107
f 102/102/102 107/107/107 103/103/103
f 103/103/103 108/108/108 104/104/104
f 107/107/107 108/108/108 103/103/103
f 104/104/104 109/109/109 100/100/100
f 109/109/109 105/105/105 100/100/100
f 108/108/108 109/109/109 104/104/104
f 106/106/106 105/105/105 110/110/110
f 110/110/110 105/105/105 109/109/109
f 111/111/111 106/106/106 110/110/110
f 112/112/112 109/109/109 108/108/108
f 112/112/112 110/110/110 109/109/109
f 111/111/111 110/110/110 113/113/113
f 113/113/113 110/110/110 112/112/112
f 114/114/114 111/111/111 113/113/113
f 115/115/115 112/112/112 108/108/108
f 115/115/115 108/108/108 107/107/107
f 89/89/89 116/116/116 107/107/107
f 89/89/89 90/90/90 116/116/116
f 90/90/90 117/117/117 116/116/116
f 118/118/118 107/107/107 116/116/116
f 118/118/118 115/115/115 107/107/107
f 119/119/119 116/116/116 117/117/117
f 119/119/119 118/118/118 116/116/116
f 120/120/120 119/119/119 117/117/117
f 121/121/121 112/112/112 115/115/115
f 121/121/121 113/113/113 112/112/112
f 114/114/114 113/113/113 122/122/122
f 123/123/123 114/114/114 122/122/122
f 123/123/123 122/122/122 124/124/124
f 125/125/125 115/115/115 118/118/118
f 125/125/125 121/121/121 115/115/115
f 126/126/126 119/119/119 120/120/120
f 127/127/127 126/126/126 120/120/120
f 128/128/128 118/118/118 119/119/119
f 128/128/128 125/125/125 118/118/118
f 126/126/126 128/128/128 119/119/119
f 129/129/129 122/122/122 113/113/113
f 121/121/121 129/129/129 113/113/113
f 122/122/122 130/130/130 124/124/124
f 130/130/130 122/122/122 129/129/129
f 131/131/131 126/126/126 127/127/127
f 132/132/132 131/131/131 127/127/127
f 131/131/131 132/132/132 133/133/133
f 134/134/134 128/128/128 126/126/126
f 128/128/128 134/134/134 125/125/125
f 131/131/131 134/134/134 126/126/126
f 125/125/125 135/135/135 121/121/121
f 135/135/135 129/129/129 121/121/121
f 134/134/134 135/135/135 125/125/125
f 136/136/136 131/131/131 133/133/133
f 134/134/134 131/131/131 136/136/136
f 136/136/136 133/133/133 137/137/137
f 138/138/138 134/134/134 136/136/136
f 138/138/138 136/136/136 137/137/137
f 135/135/135 134/134/134 138/138/138
f 139/139/139 129/129/129 135/135/135
f 139/139/139 130/130/130 129/129/129
f 140/140/140 138/138/138 137/137/137
f 141/141/141 140/140/140 137/137/137
f 140/140/140 141/141/141 142/142/142
f 143/143/143 135/135/135 138/138/138
f 143/143/143 139/139/139 135/135/135
f 143/143/143 138/138/138 140/140/140
f 144/144/144 140/140/140 142/142/142
f 144/144/144 142/142/142 145/145/145
f 146/146/146 144/144/144 145/145/145
f 147/147/147 143/143/143 140/140/140
f 139/139/139 143/143/143 147/147/147
f 147/147/147 140/140/140 144/144/144
f 148/148/148 144/144/144 146/146/146
f 148/148/148 147/147/147 144/144/144
f 149/149/149 148/148/148 146/146/146
f 149/149/149 150/150/150 148/148/148
f 150/150/150 151/151/151 148/148/148
f 147/147/147 148/148/148 151/151/151
f 150/150/150 152/152/152 151/151/151
f 153/153/153 139/139/139 147/147/147
f 153/153/153 147/147/147 151/151/151
f 130/130/130 139/139/139 153/153/153
f 152/152/152 154/154/154 151/151/151
f 153/153/153 151/151/151 154/154/154
f 155/155/155 130/130/130 153/153/153
f 155/155/155 153/153/153 154/154/154
f 155/155/155 154/154/154 152/152/152
f 124/124/124 130/130/130 155/155/155
f 156/156/156 155/155/155 152/152/152
f 156/156/156 124/124/124 155/155/155
