g pm0025_00_SippoSkin
v 0.002743288 0.3262572 -0.23401114
v 0.0027432877 0.41629425 -0.29026678
v 0.0027432877 0.3578775 -0.30285826
v 0.002743288 0.36164695 -0.20981172
v 0.0027432877 0.47238022 -0.2773622
v 0.0027432882 0.39937675 -0.18487364
v 1.6919498E-16 0.41629425 -0.29026675
v 0.0027432877 0.47238022 -0.2773622
v 2.1373319E-16 0.47238022 -0.27736217
v 0.0027432877 0.41629425 -0.29026678
v 1.2282842E-16 0.3578775 -0.30285826
v 0.0027432877 0.3578775 -0.30285826
v 9.973858E-17 0.3262572 -0.23401114
v 0.002743288 0.3262572 -0.23401114
v 0.0027432877 0.3578775 -0.30285826
v 1.2282842E-16 0.3578775 -0.30285826
v 2.1373319E-16 0.47238022 -0.27736217
v 0.0027432877 0.47238022 -0.2773622
v 0.0027432882 0.39937675 -0.18487364
v 1.5866077E-16 0.39937675 -0.18487361
v -0.002743288 0.3262572 -0.23401114
v -0.0027432877 0.3578775 -0.30285826
v -0.0027432877 0.41629425 -0.29026678
v -0.002743288 0.36164695 -0.20981172
v -0.0027432877 0.47238022 -0.2773622
v -0.0027432882 0.39937675 -0.18487364
v 1.6919498E-16 0.41629425 -0.29026675
v 2.1373319E-16 0.47238022 -0.27736217
v -0.0027432877 0.47238022 -0.2773622
v -0.0027432877 0.41629425 -0.29026678
v 1.2282842E-16 0.3578775 -0.30285826
v -0.0027432877 0.3578775 -0.30285826
v 9.973858E-17 0.3262572 -0.23401114
v 1.2282842E-16 0.3578775 -0.30285826
v -0.0027432877 0.3578775 -0.30285826
v -0.002743288 0.3262572 -0.23401114
v 2.1373319E-16 0.47238022 -0.27736217
v 1.5866077E-16 0.39937675 -0.18487361
v -0.0027432882 0.39937675 -0.18487364
v -0.0027432877 0.47238022 -0.2773622
vt 0.8211769 0.8515625
vt 0.67917514 0.9160112
vt 0.67917514 0.8515625
vt 0.84463 0.91601133
vt 0.67917514 0.98046875
vt 0.85885227 0.98046875
vt 0.6652833 0.9160116
vt 0.67917514 0.98046875
vt 0.66528285 0.98046875
vt 0.67917514 0.9160112
vt 0.6652832 0.8515625
vt 0.67917514 0.8515625
vt 0.8211801 0.8379479
vt 0.8211769 0.8515625
vt 0.67917514 0.8515625
vt 0.67917514 0.83794767
vt 0.67917514 0.9877892
vt 0.67917514 0.98046875
vt 0.85885227 0.98046875
vt 0.85886383 0.98778886
vt 0.82168925 0.8515625
vt 0.6796875 0.8515625
vt 0.6796875 0.9160112
vt 0.84514236 0.91601133
vt 0.6796875 0.98046875
vt 0.8593646 0.98046875
vt 0.6657957 0.9160116
vt 0.6657952 0.98046875
vt 0.6796875 0.98046875
vt 0.6796875 0.9160112
vt 0.66579556 0.8515625
vt 0.6796875 0.8515625
vt 0.82169247 0.8379479
vt 0.6796875 0.83794767
vt 0.6796875 0.8515625
vt 0.82168925 0.8515625
vt 0.6796875 0.9877892
vt 0.8593762 0.98778886
vt 0.8593646 0.98046875
vt 0.6796875 0.98046875
vn 1 0 0
vn 1 0 0
vn 1 0 0
vn 1 0 0
vn 1 0 0
vn 1 0 0
vn -0 0.21741883 -0.9760784
vn -0 0.2206175 -0.97536045
vn -0 0.22094354 -0.9752866
vn -0 0.21741611 -0.97607905
vn -0 0.21390171 -0.97685516
vn -0 0.21423288 -0.9767826
vn -0 -0.9087377 -0.41736746
vn -0 -0.9087377 -0.41736746
vn -0 -0.9087377 -0.41736746
vn -0 -0.9087377 -0.41736746
vn -0 0.78493977 0.6195721
vn 2.1457674E-06 0.78493977 0.6195721
vn 2.2649763E-06 0.78493977 0.6195721
vn -0 0.78493977 0.6195721
vn -1 0 0
vn -1 0 0
vn -1 0 0
vn -1 0 0
vn -1 0 0
vn -1 0 0
vn -0 0.21741883 -0.9760784
vn -0 0.22094354 -0.9752866
vn -0 0.2206175 -0.97536045
vn -0 0.21741611 -0.97607905
vn -0 0.21390171 -0.97685516
vn -0 0.21423288 -0.9767826
vn -0 -0.9087377 -0.41736746
vn -0 -0.9087377 -0.41736746
vn -0 -0.9087377 -0.41736746
vn -0 -0.9087377 -0.41736746
vn -0 0.78493977 0.6195721
vn -0 0.78493977 0.6195721
vn -2.026558E-06 0.78493977 0.61957216
vn -2.0265581E-06 0.78493977 0.6195721
g pm0025_00_SippoSkin_0
f 3/3/3 2/2/2 1/1/1
f 2/2/2 4/4/4 1/1/1
f 2/2/2 5/5/5 4/4/4
f 5/5/5 6/6/6 4/4/4
f 9/9/9 8/8/8 7/7/7
f 8/8/8 10/10/10 7/7/7
f 7/7/7 10/10/10 11/11/11
f 10/10/10 12/12/12 11/11/11
f 15/15/15 14/14/14 13/13/13
f 16/16/16 15/15/15 13/13/13
f 19/19/19 18/18/18 17/17/17
f 20/20/20 19/19/19 17/17/17
f 23/23/23 22/22/22 21/21/21
f 24/24/24 23/23/23 21/21/21
f 25/25/25 23/23/23 24/24/24
f 26/26/26 25/25/25 24/24/24
f 29/29/29 28/28/28 27/27/27
f 30/30/30 29/29/29 27/27/27
f 30/30/30 27/27/27 31/31/31
f 32/32/32 30/30/30 31/31/31
f 35/35/35 34/34/34 33/33/33
f 36/36/36 35/35/35 33/33/33
f 39/39/39 38/38/38 37/37/37
f 40/40/40 39/39/39 37/37/37
