g AttackRing
v 0.06463345 0 0.012856391
v 0.06770141 0 0.013466617
v 0.063773334 0 0.026415754
v 0.060883395 0 0.025218729
v 0.06589978 0 3.5257957E-09
v 0.057394486 0 0.03834975
v 0.069027826 0 -7.4709866E-10
v 0.05479361 0 0.036611926
v 0.064633526 0 -0.012856409
v 0.048810028 0 0.04881
v 0.06770149 0 -0.013466667
v 0.04659813 0 0.04659814
v 0.06088344 0 -0.02521876
v 0.038349792 0 0.057394482
v 0.063773386 0 -0.026415817
v 0.03661192 0 0.05479361
v 0.054793645 0 -0.036611967
v 0.0264158 0 0.06377334
v 0.05739452 0 -0.038349822
v 0.025218723 0 0.060883425
v 0.04659815 0 -0.04659818
v 0.013466659 0 0.06770144
v 0.048810035 0 -0.048810072
v 0.012856386 0 0.06463351
v 0.036611933 0 -0.054793667
v 8.228758E-09 0 0.069027774
v 0.03834979 0 -0.057394546
v -1.6903211E-08 0 0.065899745
v 0.025218723 0 -0.060883455
v -0.013466649 0 0.067701444
v 0.026415778 0 -0.06377341
v -0.012856419 0 0.06463351
v 0.012856377 0 -0.06463354
v -0.02641579 0 0.06377338
v 0.013466633 0 -0.06770149
v -0.025218762 0 0.060883425
v -3.261495E-08 0 -0.065899774
v -0.038349792 0 0.057394527
v -3.3943632E-08 0 -0.06902782
v -0.03661196 0 0.054793645
v -0.01285644 0 -0.06463354
v -0.048810035 0 0.048810054
v -0.013466698 0 -0.06770148
v -0.046598174 0 0.046598174
v -0.025218787 0 -0.060883448
v -0.057394512 0 0.03834981
v -0.026415844 0 -0.06377339
v -0.054793656 0 0.03661195
v -0.03661198 0 -0.05479364
v -0.063773386 0 0.026415825
v -0.03834984 0 -0.057394527
v -0.060883462 0 0.02521876
v -0.04659821 0 -0.04659816
v -0.06770148 0 0.0134666795
v -0.04881009 0 -0.04881004
v -0.06463355 0 0.012856418
v -0.054793682 0 -0.03661194
v -0.069027826 0 2.1881997E-08
v -0.057394557 0 -0.038349785
v -0.06589978 0 1.2690977E-08
v -0.06088348 0 -0.025218735
v -0.067701496 0 -0.013466643
v -0.0637734 0 -0.026415788
v -0.064633556 0 -0.012856395
vt 0.93353796 0.41376382
vt 0.9730382 0.40590692
vt 0.9455924 0.3154297
vt 0.90838397 0.33084172
vt 0.9420321 0.49999988
vt 0.90102255 0.23204535
vt 0.9823061 0.49999988
vt 0.8675358 0.25442022
vt 0.93353844 0.586236
vt 0.8410417 0.15895832
vt 0.9730388 0.5940932
vt 0.81256354 0.18743628
vt 0.9083842 0.6691582
vt 0.7679548 0.09897739
vt 0.94559276 0.68457055
vt 0.7455796 0.13246405
vt 0.86753607 0.74557984
vt 0.68457055 0.054407477
vt 0.9010228 0.76795495
vt 0.6691581 0.09161574
vt 0.81256366 0.81256366
vt 0.5940932 0.026961446
vt 0.8410418 0.8410419
vt 0.586236 0.0664615
vt 0.7455797 0.86753607
vt 0.5 0.017693996
vt 0.7679547 0.9010229
vt 0.49999988 0.05796808
vt 0.6691581 0.9083842
vt 0.40590686 0.026961327
vt 0.6845703 0.94559264
vt 0.41376376 0.0664615
vt 0.586236 0.93353844
vt 0.31542957 0.05440724
vt 0.5940931 0.9730387
vt 0.3308416 0.09161574
vt 0.49999976 0.94203186
vt 0.23204517 0.09897709
vt 0.49999976 0.982306
vt 0.25442016 0.13246381
vt 0.41376364 0.93353844
vt 0.1589582 0.15895796
vt 0.4059065 0.97303855
vt 0.18743622 0.1874361
vt 0.33084142 0.9083842
vt 0.09897721 0.23204494
vt 0.3154292 0.94559264
vt 0.13246381 0.2544201
vt 0.25441998 0.86753595
vt 0.05440724 0.3154292
vt 0.23204482 0.9010227
vt 0.09161562 0.33084148
vt 0.18743598 0.81256366
vt 0.026961327 0.4059065
vt 0.15895784 0.8410417
vt 0.066461384 0.41376364
vt 0.1324637 0.7455796
vt 0.017693877 0.4999997
vt 0.09897697 0.7679546
vt 0.0579679 0.49999982
vt 0.09161544 0.6691581
vt 0.026961207 0.59409297
vt 0.05440712 0.6845703
vt 0.066461325 0.586236
vn -0 1 0
vn -0 1 0
vn -0 1 0
vn -0 1 0
vn -0 1 0
vn -0 1 0
vn -0 1 0
vn -0 1 0
vn -0 1 0
vn -0 1 0
vn -0 1 0
vn -0 1 0
vn -0 1 0
vn -0 1 0
vn -0 1 0
vn -0 1 0
vn -0 1 0
vn -0 1 0
vn -0 1 0
vn -0 1 0
vn -0 1 0
vn -0 1 0
vn -0 1 0
vn -0 1 0
vn -0 1 0
vn -0 1 0
vn -0 1 0
vn -0 1 0
vn -0 1 0
vn -0 1 0
vn -0 1 0
vn -0 1 0
vn -0 1 0
vn -0 1 0
vn -0 1 0
vn -0 1 0
vn -0 1 0
vn -0 1 0
vn -0 1 0
vn -0 1 0
vn -0 1 0
vn -0 1 0
vn -0 1 0
vn -0 1 0
vn -0 1 0
vn -0 1 0
vn -0 1 0
vn -0 1 0
vn -0 1 0
vn -0 1 0
vn -0 1 0
vn -0 1 0
vn -0 1 0
vn -0 1 0
vn -0 1 0
vn -0 1 0
vn -0 1 0
vn -0 1 0
vn -0 1 0
vn -0 1 0
vn -0 1 0
vn -0 1 0
vn -0 1 0
vn -0 1 0
g AttackRing_0
f 3/3/3 2/2/2 1/1/1
f 4/4/4 3/3/3 1/1/1
f 1/1/1 2/2/2 5/5/5
f 6/6/6 3/3/3 4/4/4
f 2/2/2 7/7/7 5/5/5
f 8/8/8 6/6/6 4/4/4
f 5/5/5 7/7/7 9/9/9
f 10/10/10 6/6/6 8/8/8
f 7/7/7 11/11/11 9/9/9
f 12/12/12 10/10/10 8/8/8
f 9/9/9 11/11/11 13/13/13
f 14/14/14 10/10/10 12/12/12
f 11/11/11 15/15/15 13/13/13
f 16/16/16 14/14/14 12/12/12
f 13/13/13 15/15/15 17/17/17
f 18/18/18 14/14/14 16/16/16
f 15/15/15 19/19/19 17/17/17
f 20/20/20 18/18/18 16/16/16
f 17/17/17 19/19/19 21/21/21
f 22/22/22 18/18/18 20/20/20
f 19/19/19 23/23/23 21/21/21
f 24/24/24 22/22/22 20/20/20
f 21/21/21 23/23/23 25/25/25
f 26/26/26 22/22/22 24/24/24
f 23/23/23 27/27/27 25/25/25
f 28/28/28 26/26/26 24/24/24
f 25/25/25 27/27/27 29/29/29
f 30/30/30 26/26/26 28/28/28
f 27/27/27 31/31/31 29/29/29
f 32/32/32 30/30/30 28/28/28
f 29/29/29 31/31/31 33/33/33
f 34/34/34 30/30/30 32/32/32
f 31/31/31 35/35/35 33/33/33
f 36/36/36 34/34/34 32/32/32
f 33/33/33 35/35/35 37/37/37
f 38/38/38 34/34/34 36/36/36
f 35/35/35 39/39/39 37/37/37
f 40/40/40 38/38/38 36/36/36
f 37/37/37 39/39/39 41/41/41
f 42/42/42 38/38/38 40/40/40
f 39/39/39 43/43/43 41/41/41
f 44/44/44 42/42/42 40/40/40
f 41/41/41 43/43/43 45/45/45
f 46/46/46 42/42/42 44/44/44
f 43/43/43 47/47/47 45/45/45
f 48/48/48 46/46/46 44/44/44
f 45/45/45 47/47/47 49/49/49
f 50/50/50 46/46/46 48/48/48
f 47/47/47 51/51/51 49/49/49
f 52/52/52 50/50/50 48/48/48
f 49/49/49 51/51/51 53/53/53
f 54/54/54 50/50/50 52/52/52
f 51/51/51 55/55/55 53/53/53
f 56/56/56 54/54/54 52/52/52
f 53/53/53 55/55/55 57/57/57
f 58/58/58 54/54/54 56/56/56
f 55/55/55 59/59/59 57/57/57
f 60/60/60 58/58/58 56/56/56
f 57/57/57 59/59/59 61/61/61
f 62/62/62 58/58/58 60/60/60
f 59/59/59 63/63/63 61/61/61
f 64/64/64 62/62/62 60/60/60
f 61/61/61 63/63/63 64/64/64
f 63/63/63 62/62/62 64/64/64
