g BlobCard
v 0.5440967 -1.7585932E-15 0
v -0 -1.7585932E-15 0
v 0.5026793 -1.7585932E-15 -0.20821632
v 0.50267977 -1.7585932E-15 0.2082168
v 0.38473427 -1.7585932E-15 -0.3847339
v 0.38473436 -1.7585932E-15 0.38473445
v 0.20821683 -1.7585932E-15 -0.5026792
v 0.20821668 -1.7585932E-15 0.50267965
v 2.4323018E-07 -1.7585932E-15 -0.5440962
v -8.91844E-08 -1.7585932E-15 0.5440965
v -0.20821637 -1.7585932E-15 -0.5026794
v -0.2082168 -1.7585932E-15 0.5026795
v -0.384734 -1.7585932E-15 -0.3847343
v -0.38473436 -1.7585932E-15 0.38473418
v -0.5026793 -1.7585932E-15 -0.20821683
v -0.5026795 -1.7585932E-15 0.20821653
v -0.54409635 -1.7585932E-15 -1.783688E-07
vt 0.9902344 0.5
vt 0.5 0.5
vt 0.953125 0.6875
vt 0.953125 0.31225586
vt 0.8466797 0.8466797
vt 0.8466797 0.15319824
vt 0.6875 0.953125
vt 0.6875 0.046875
vt 0.5 0.9902344
vt 0.5 0.009529114
vt 0.31225586 0.953125
vt 0.31225586 0.046875
vt 0.15319824 0.8466797
vt 0.15319824 0.15319824
vt 0.046875 0.6875
vt 0.046875 0.31225586
vt 0.009529114 0.5
vn -0 1 0
vn -0 1 0
vn -0 1 0
vn -0 1 0
vn -0 1 0
vn -0 1 0
vn -0 1 0
vn -0 1 0
vn -0 1 0
vn -0 1 0
vn -0 1 0
vn -0 1 0
vn -0 1 0
vn -0 1 0
vn -0 1 0
vn -0 1 0
vn -0 1 0
g BlobCard_0
f 3/3/3 2/2/2 1/1/1
f 4/4/4 1/1/1 2/2/2
f 3/3/3 5/5/5 2/2/2
f 6/6/6 4/4/4 2/2/2
f 5/5/5 7/7/7 2/2/2
f 8/8/8 6/6/6 2/2/2
f 7/7/7 9/9/9 2/2/2
f 10/10/10 8/8/8 2/2/2
f 9/9/9 11/11/11 2/2/2
f 12/12/12 10/10/10 2/2/2
f 11/11/11 13/13/13 2/2/2
f 14/14/14 12/12/12 2/2/2
f 13/13/13 15/15/15 2/2/2
f 16/16/16 14/14/14 2/2/2
f 15/15/15 17/17/17 2/2/2
f 17/17/17 16/16/16 2/2/2
