g crowdBannerBack
v 0.24494648 0.36529183 -1.0050642
v 0.24494648 0.42304313 -1.0050642
v 0.36045104 0.42304313 -1.0050642
v 0.36045104 0.36529183 -1.0050642
v 0.7271635 0.38835204 -0.76586163
v 0.7271635 0.44610333 -0.76586163
v 0.8088368 0.44610333 -0.68418634
v 0.8088368 0.38835204 -0.68418634
v 0.89904594 0.36055374 -0.52232975
v 0.89904594 0.42778122 -0.52232975
v 0.9941201 0.42778122 -0.42725563
v 0.9941201 0.36055374 -0.42725563
v -0.17192781 0.38835204 -1.0557275
v -0.17192781 0.44610333 -1.0557275
v -0.05642128 0.44610333 -1.0557275
v -0.05642128 0.38835204 -1.0557275
v -0.5343512 0.36529183 -0.8870245
v -0.5343512 0.42304313 -0.8870245
v -0.45267785 0.42304313 -0.96869785
v -0.45267785 0.36529183 -0.96869785
v -0.8538921 0.38835204 -0.63913107
v -0.8538921 0.44610333 -0.63913107
v -0.7722187 0.44610333 -0.7208064
v -0.7722187 0.38835204 -0.7208064
v 0.24494648 0.36529183 1.0050642
v 0.36045104 0.36529183 1.0050642
v 0.36045104 0.42304313 1.0050642
v 0.24494648 0.42304313 1.0050642
v 0.7271635 0.38835204 0.76586163
v 0.8088368 0.38835204 0.68418634
v 0.8088368 0.44610333 0.68418634
v 0.7271635 0.44610333 0.76586163
v 0.89904594 0.36055374 0.5223298
v 0.9941201 0.36055374 0.42725563
v 0.9941201 0.42778122 0.42725563
v 0.89904594 0.42778122 0.5223298
v -0.17192781 0.38835204 1.0557275
v -0.05642128 0.38835204 1.0557275
v -0.05642128 0.44610333 1.0557275
v -0.17192781 0.44610333 1.0557275
v -0.5343512 0.36529183 0.8870245
v -0.45267785 0.36529183 0.9686978
v -0.45267785 0.42304313 0.9686978
v -0.5343512 0.42304313 0.8870245
v -0.8538921 0.38835204 0.63913107
v -0.7722187 0.38835204 0.7208065
v -0.7722187 0.44610333 0.7208065
v -0.8538921 0.44610333 0.63913107
vt 0 0
vt 0 0.33374533
vt 1 0.33374533
vt 1 0
vt 0 0
vt 0 0.33374533
vt 1 0.33374533
vt 1 0
vt 0 0
vt 0 0.33374533
vt 1 0.33374533
vt 1 0
vt 0 0
vt 0 0.33374533
vt 1 0.33374533
vt 1 0
vt 0 0
vt 0 0.33374533
vt 1 0.33374533
vt 1 0
vt 0 0
vt 0 0.33374533
vt 1 0.33374533
vt 1 0
vt 0 0
vt 1 0
vt 1 0.33374533
vt 0 0.33374533
vt 0 0
vt 1 0
vt 1 0.33374533
vt 0 0.33374533
vt 0 0.0012512398
vt 1 0.0012512398
vt 1 0.33374533
vt 0 0.33374533
vt 0 0.0012512398
vt 1 0.0012512398
vt 1 0.33374533
vt 0 0.33374533
vt 0 0
vt 1 0
vt 1 0.33374533
vt 0 0.33374533
vt 0 0
vt 1 0
vt 1 0.33374533
vt 0 0.33374533
vn -0.00069117546 0.00069117546 0.9999995
vn -0.00069117546 0.00069117546 0.9999995
vn -0.00069117546 0.00069117546 0.9999995
vn -0.00069117546 0.00069117546 0.9999995
vn -0.70710665 0.00069117546 0.7071066
vn -0.70710665 0.00069117546 0.7071066
vn -0.70710665 0.00069117546 0.7071066
vn -0.70710665 0.00069117546 0.7071066
vn -0.70710665 0.00069117546 0.7071066
vn -0.70710665 0.00069117546 0.7071066
vn -0.70710665 0.00069117546 0.7071066
vn -0.70710665 0.00069117546 0.7071066
vn -0.00069117546 0.00069117546 0.9999995
vn -0.00069117546 0.00069117546 0.9999995
vn -0.00069117546 0.00069117546 0.9999995
vn -0.00069117546 0.00069117546 0.9999995
vn 0.70710677 0.00069117546 0.7071065
vn 0.70710677 0.00069117546 0.7071065
vn 0.70710677 0.00069117546 0.7071065
vn 0.70710677 0.00069117546 0.7071065
vn 0.70710677 0.00069117546 0.7071065
vn 0.70710677 0.00069117546 0.7071065
vn 0.70710677 0.00069117546 0.7071065
vn 0.70710677 0.00069117546 0.7071065
vn -0.00069117546 0.00069117546 -0.9999995
vn -0.00069117546 0.00069117546 -0.9999995
vn -0.00069117546 0.00069117546 -0.9999995
vn -0.00069117546 0.00069117546 -0.9999995
vn -0.70710665 0.00069117546 -0.7071066
vn -0.70710665 0.00069117546 -0.7071066
vn -0.70710665 0.00069117546 -0.7071066
vn -0.70710665 0.00069117546 -0.7071066
vn -0.70710665 0.00069117546 -0.7071066
vn -0.70710665 0.00069117546 -0.7071066
vn -0.70710665 0.00069117546 -0.7071066
vn -0.70710665 0.00069117546 -0.7071066
vn -0.00069117546 0.00069117546 -0.9999995
vn -0.00069117546 0.00069117546 -0.9999995
vn -0.00069117546 0.00069117546 -0.9999995
vn -0.00069117546 0.00069117546 -0.9999995
vn 0.70710677 0.00069117546 -0.7071065
vn 0.70710677 0.00069117546 -0.7071065
vn 0.70710677 0.00069117546 -0.7071065
vn 0.70710677 0.00069117546 -0.7071065
vn 0.70710677 0.00069117546 -0.7071065
vn 0.70710677 0.00069117546 -0.7071065
vn 0.70710677 0.00069117546 -0.7071065
vn 0.70710677 0.00069117546 -0.7071065
g crowdBannerBack_0
f 3/3/3 2/2/2 1/1/1
f 4/4/4 3/3/3 1/1/1
f 7/7/7 6/6/6 5/5/5
f 8/8/8 7/7/7 5/5/5
f 11/11/11 10/10/10 9/9/9
f 12/12/12 11/11/11 9/9/9
f 15/15/15 14/14/14 13/13/13
f 16/16/16 15/15/15 13/13/13
f 19/19/19 18/18/18 17/17/17
f 20/20/20 19/19/19 17/17/17
f 23/23/23 22/22/22 21/21/21
f 24/24/24 23/23/23 21/21/21
f 27/27/27 26/26/26 25/25/25
f 28/28/28 27/27/27 25/25/25
f 31/31/31 30/30/30 29/29/29
f 32/32/32 31/31/31 29/29/29
f 35/35/35 34/34/34 33/33/33
f 36/36/36 35/35/35 33/33/33
f 39/39/39 38/38/38 37/37/37
f 40/40/40 39/39/39 37/37/37
f 43/43/43 42/42/42 41/41/41
f 44/44/44 43/43/43 41/41/41
f 47/47/47 46/46/46 45/45/45
f 48/48/48 47/47/47 45/45/45
