g ground
v 66.30026 1.9524765 27.46212
v 54.988678 -0.001045227 -0.001045227
v 71.76223 1.9524765 -0.001045227
v 50.803505 -0.001045227 21.043098
v 50.744373 1.9524765 50.744476
v 38.429752 -0.001045227 -0.001045227
v 38.88309 -0.001045227 38.8832
v 27.46201 1.9524765 66.30036
v 35.503853 -0.001045227 14.707298
v 23.876907 -0.001045227 -0.001045227
v 21.042988 -0.001045227 50.80361
v 0.001045227 1.9524765 71.76234
v 27.175114 -0.001045227 27.173027
v 22.05917 -0.001045227 9.138016
v 14.102737 -0.001045227 -0.001045227
v 0.001045227 -0.001045227 54.988785
v -27.46212 1.9524765 66.30036
v 14.707191 -0.001045227 35.50396
v 16.884094 -0.001045227 16.884201
v 13.029617 -0.001045227 5.397415
v 6.961006 -0.001045227 -0.001045227
v -21.043098 -0.001045227 50.80361
v -50.744476 1.9524765 50.744476
v 0.001045227 -0.001045227 38.429863
v 9.137909 -0.001045227 22.05928
v 9.972313 -0.001045227 9.97242
v 6.431015 -0.001045227 2.6642456
v 3.6496582 -0.001045227 -0.001045227
v -38.8832 -0.001045227 38.8832
v -66.30036 1.9524765 27.46212
v -14.707298 -0.001045227 35.50396
v 0.001045227 -0.001045227 23.877014
v 5.3973083 -0.001045227 13.029724
v 4.9220734 -0.001045227 4.92218
v 3.371521 -0.001045227 1.3962097
v 1.3369675 -0.001045227 -0.001045227
v -50.80361 -0.001045227 21.043098
v -71.76234 1.9524765 -0.001045227
v -54.988785 -0.001045227 -0.001045227
v -27.173027 -0.001045227 27.173027
v -35.50396 -0.001045227 14.707298
v -38.429863 -0.001045227 -0.001045227
v 1.2340393 -0.001045227 0.51142883
v 0.5091324 -0.001045227 -0.001045227
v 2.5809174 -0.001045227 2.5810242
v -9.138016 -0.001045227 22.05928
v -22.05928 -0.001045227 9.138016
v -23.877014 -0.001045227 -0.001045227
v -16.884201 -0.001045227 16.884201
v 0.4697113 -0.001045227 0.19606018
v 0.4697113 -0.001045227 -0.001045227
v 0.001045227 -0.001045227 14.102844
v -13.029724 -0.001045227 5.397415
v -14.102844 -0.001045227 -0.001045227
v -9.97242 -0.001045227 9.97242
v -5.397415 -0.001045227 13.029724
v 0.9449539 -0.001045227 0.94506073
v 2.6641388 -0.001045227 6.431122
v -6.431122 -0.001045227 2.6642456
v -6.961113 -0.001045227 -0.001045227
v -4.92218 -0.001045227 4.92218
v -2.6642456 -0.001045227 6.431122
v 0.001045227 -0.001045227 6.961113
v 1.3961029 -0.001045227 3.3716278
v -3.3716278 -0.001045227 1.3962097
v -3.649765 -0.001045227 -0.001045227
v -2.5810242 -0.001045227 2.5810242
v -1.3962097 -0.001045227 3.3716278
v 0.001045227 -0.001045227 3.649765
v 0.511322 -0.001045227 1.2341461
v -1.2341461 -0.001045227 0.51142883
v -1.3370743 -0.001045227 -0.001045227
v -0.94506073 -0.001045227 0.94506073
v -0.51142883 -0.001045227 1.2341461
v 0.001045227 -0.001045227 1.3370743
v 0.3602066 -0.001045227 0.36031342
v 0.3602066 -0.001045227 -0.001045227
v 0.19595337 -0.001045227 0.46981812
v 0.19595337 -0.001045227 -0.001045227
v 0.001045227 -0.001045227 0.5092392
v 0.001045227 -0.001045227 -0.001045227
v -0.19606018 -0.001045227 0.46981812
v -0.19606018 -0.001045227 -0.001045227
v -0.36031342 -0.001045227 0.36031342
v -0.36031342 -0.001045227 -0.001045227
v -0.46981812 -0.001045227 0.19606018
v -0.46981812 -0.001045227 -0.001045227
v -0.5092392 -0.001045227 -0.001045227
v 22.05917 -0.001045227 -9.137909
v 23.876907 -0.001045227 -0.001045227
v 14.102737 -0.001045227 -0.001045227
v 13.029617 -0.001045227 -5.3973083
v 16.884094 -0.001045227 -16.884094
v 6.961006 -0.001045227 -0.001045227
v 9.972313 -0.001045227 -9.972313
v 9.137909 -0.001045227 -22.05917
v 6.431015 -0.001045227 -2.6641388
v 3.6496582 -0.001045227 -0.001045227
v 5.3973083 -0.001045227 -13.029617
v 0.001045227 -0.001045227 -23.876907
v 4.9220734 -0.001045227 -4.9220734
v 3.371521 -0.001045227 -1.3961029
v 1.3369675 -0.001045227 -0.001045227
v 0.001045227 -0.001045227 -14.102737
v -9.138016 -0.001045227 -22.05917
v 2.6641388 -0.001045227 -6.431015
v 2.5809174 -0.001045227 -2.5809174
v 1.2340393 -0.001045227 -0.511322
v 0.5091324 -0.001045227 -0.001045227
v -5.397415 -0.001045227 -13.029617
v -16.884201 -0.001045227 -16.884094
v 0.001045227 -0.001045227 -6.961006
v 1.3961029 -0.001045227 -3.371521
v 0.9449539 -0.001045227 -0.9449539
v 0.4697113 -0.001045227 -0.19595337
v 0.4697113 -0.001045227 -0.001045227
v 0.3602066 -0.001045227 -0.3602066
v 0.3602066 -0.001045227 -0.001045227
v -9.97242 -0.001045227 -9.972313
v -22.05928 -0.001045227 -9.137909
v -2.6642456 -0.001045227 -6.431015
v 0.001045227 -0.001045227 -3.6496582
v 0.511322 -0.001045227 -1.2340393
v 0.19595337 -0.001045227 -0.4697113
v 0.19595337 -0.001045227 -0.001045227
v -13.029724 -0.001045227 -5.3973083
v -23.877014 -0.001045227 -0.001045227
v -14.102844 -0.001045227 -0.001045227
v -4.92218 -0.001045227 -4.9220734
v -6.431122 -0.001045227 -2.6641388
v -6.961113 -0.001045227 -0.001045227
v -1.3962097 -0.001045227 -3.371521
v 0.001045227 -0.001045227 -1.3369675
v 0.001045227 -0.001045227 -0.5091324
v 0.001045227 -0.001045227 -0.001045227
v -3.3716278 -0.001045227 -1.3961029
v -3.649765 -0.001045227 -0.001045227
v -2.5810242 -0.001045227 -2.5809174
v -0.51142883 -0.001045227 -1.2340393
v -0.19606018 -0.001045227 -0.4697113
v -0.19606018 -0.001045227 -0.001045227
v -0.94506073 -0.001045227 -0.9449539
v -1.2341461 -0.001045227 -0.511322
v -1.3370743 -0.001045227 -0.001045227
v -0.36031342 -0.001045227 -0.3602066
v -0.36031342 -0.001045227 -0.001045227
v -0.46981812 -0.001045227 -0.19595337
v -0.5092392 -0.001045227 -0.001045227
v -0.46981812 -0.001045227 -0.001045227
vt 0.038104728 0.19491984
vt 0.11675654 0.0034197634
vt 1.1920929E-07 0.0034197634
vt 0.14606778 0.14997594
vt 0.1465563 0.35710868
vt 0.23204741 0.0034197634
vt 0.22911628 0.2745487
vt 0.30874515 0.46556026
vt 0.25256526 0.10600909
vt 0.33365968 0.0034197634
vt 0.35320053 0.3575972
vt 0.4997567 0.50366485
vt 0.31069922 0.19296576
vt 0.34636122 0.06692744
vt 0.40156406 0.0034197634
vt 0.4997567 0.38641992
vt 0.69125676 0.46556026
vt 0.39765587 0.2506112
vt 0.38251173 0.12115323
vt 0.40938038 0.04103585
vt 0.45139316 0.0034197634
vt 0.6468014 0.3575972
vt 0.8534456 0.35710868
vt 0.4997567 0.27112904
vt 0.43624902 0.15730375
vt 0.43038678 0.07278969
vt 0.4553013 0.021983547
vt 0.4743536 0.0034197634
vt 0.77088565 0.2745487
vt 0.9618972 0.19491984
vt 0.602346 0.2506112
vt 0.4997567 0.17000529
vt 0.46262914 0.094284594
vt 0.46556026 0.037616204
vt 0.4763077 0.013190175
vt 0.4904748 0.0034197634
vt 0.8539341 0.14997594
vt 1.0000018 0.0034197634
vt 0.88324535 0.0034197634
vt 0.6893027 0.19296576
vt 0.74743664 0.10600909
vt 0.7679545 0.0034197634
vt 0.49145183 0.0068394076
vt 0.49633706 0.0034197634
vt 0.48216996 0.021495026
vt 0.5637529 0.15730375
vt 0.6536407 0.06692744
vt 0.6663422 0.0034197634
vt 0.6174902 0.12115323
vt 0.49682558 0.004885325
vt 0.49682558 0.0034197634
vt 0.4997567 0.101612404
vt 0.59062153 0.04103585
vt 0.59843785 0.0034197634
vt 0.5696151 0.07278969
vt 0.53737277 0.094284594
vt 0.49340594 0.010259052
vt 0.48119292 0.04836366
vt 0.54470056 0.021983547
vt 0.5486088 0.0034197634
vt 0.53444165 0.037616204
vt 0.5183205 0.04836366
vt 0.4997567 0.051783305
vt 0.4904748 0.026868753
vt 0.5236942 0.013190175
vt 0.5256483 0.0034197634
vt 0.517832 0.021495026
vt 0.5095271 0.026868753
vt 0.4997567 0.028822836
vt 0.49633706 0.012213134
vt 0.50855005 0.0068394076
vt 0.5095271 0.0034197634
vt 0.50659597 0.010259052
vt 0.50366485 0.012213134
vt 0.4997567 0.012701655
vt 0.4973141 0.0058623664
vt 0.4973141 0.0034197634
vt 0.49877965 0.0068394076
vt 0.49877965 0.0034197634
vt 0.4997567 0.0068394076
vt 0.4997567 0.0034197634
vt 0.50122225 0.0068394076
vt 0.50122225 0.0034197634
vt 0.5026878 0.0058623664
vt 0.5026878 0.0034197634
vt 0.50317633 0.004885325
vt 0.50317633 0.0034197634
vt 0.50366485 0.0034197634
vt 0.34636122 0.06692744
vt 0.33365968 0.0034197634
vt 0.40156406 0.0034197634
vt 0.40938038 0.04103585
vt 0.38251173 0.12115323
vt 0.45139316 0.0034197634
vt 0.43038678 0.07278969
vt 0.43624902 0.15730375
vt 0.4553013 0.021983547
vt 0.4743536 0.0034197634
vt 0.46262914 0.094284594
vt 0.4997567 0.17000529
vt 0.46556026 0.037616204
vt 0.4763077 0.013190175
vt 0.4904748 0.0034197634
vt 0.4997567 0.101612404
vt 0.5637529 0.15730375
vt 0.48119292 0.04836366
vt 0.48216996 0.021495026
vt 0.49145183 0.0068394076
vt 0.49633706 0.0034197634
vt 0.53737277 0.094284594
vt 0.6174902 0.12115323
vt 0.4997567 0.051783305
vt 0.4904748 0.026868753
vt 0.49340594 0.010259052
vt 0.49682558 0.004885325
vt 0.49682558 0.0034197634
vt 0.4973141 0.0058623664
vt 0.4973141 0.0034197634
vt 0.5696151 0.07278969
vt 0.6536407 0.06692744
vt 0.5183205 0.04836366
vt 0.4997567 0.028822836
vt 0.49633706 0.012213134
vt 0.49877965 0.0068394076
vt 0.49877965 0.0034197634
vt 0.59062153 0.04103585
vt 0.6663422 0.0034197634
vt 0.59843785 0.0034197634
vt 0.53444165 0.037616204
vt 0.54470056 0.021983547
vt 0.5486088 0.0034197634
vt 0.5095271 0.026868753
vt 0.4997567 0.012701655
vt 0.4997567 0.0068394076
vt 0.4997567 0.0034197634
vt 0.5236942 0.013190175
vt 0.5256483 0.0034197634
vt 0.517832 0.021495026
vt 0.50366485 0.012213134
vt 0.50122225 0.0068394076
vt 0.50122225 0.0034197634
vt 0.50659597 0.010259052
vt 0.50855005 0.0068394076
vt 0.5095271 0.0034197634
vt 0.5026878 0.0058623664
vt 0.5026878 0.0034197634
vt 0.50317633 0.004885325
vt 0.50366485 0.0034197634
vt 0.50317633 0.0034197634
vn -0.10749884 0.99124825 -0.07662166
vn -0.07249887 0.99562323 -0.058977522
vn -0.116248846 0.99124825 -0.062554814
vn -0.06812388 0.99562323 -0.06398068
vn -0.081248865 0.99124825 -0.104045734
vn 0.0018760785 0.9999982 -0.00024414062
vn -0.050623894 0.99562323 -0.07855981
vn -0.046248883 0.99124825 -0.12364439
vn 0.0018760785 0.9999982 -0.00024414062
vn 0.0018760785 0.9999982 -0.00024414062
vn -0.0287489 0.99562323 -0.088926524
vn 0.0018760785 0.99124825 -0.13199769
vn 0.0018760785 0.9999982 -0.00024414062
vn 0.0018760785 0.9999982 -0.00024414062
vn 0.0018760785 0.9999982 -0.00024414062
vn 0.0018760785 0.99562323 -0.09343922
vn 0.045626044 0.99124825 -0.123875566
vn 0.0018760785 0.9999982 -0.00024414062
vn 0.0018760785 0.9999982 -0.00024414062
vn 0.0018760785 0.9999982 -0.00024414062
vn 0.0018760785 0.9999982 -0.00024414062
vn 0.028126054 0.99562323 -0.08912537
vn 0.08062602 0.99124825 -0.10452926
vn 0.0018760785 0.9999982 -0.00024414062
vn 0.0018760785 0.9999982 -0.00024414062
vn 0.0018760785 0.9999982 -0.00024414062
vn 0.0018760785 0.9999982 -0.00024414062
vn 0.0018760785 0.9999982 -0.00024414062
vn 0.054376036 0.99562323 -0.0760109
vn 0.106876 0.99124825 -0.0774884
vn 0.0018760785 0.9999982 -0.00024414062
vn 0.0018760785 0.9999982 -0.00024414062
vn 0.0018760785 0.9999982 -0.00024414062
vn 0.0018760785 0.9999982 -0.00024414062
vn 0.0018760785 0.9999982 -0.00024414062
vn 0.0018760785 0.9999982 -0.00024414062
vn 0.06750102 0.99562323 -0.064637356
vn 0.11562599 0.99124825 -0.06369872
vn 0.07625102 0.99562323 -0.05403897
vn 0.0018760785 0.9999982 -0.00024414062
vn 0.0018760785 0.9999982 -0.00024414062
vn 0.0018760785 0.9999982 -0.00024414062
vn 0.0018760785 0.9999982 -0.00024414062
vn 0.0018760785 0.9999982 -0.00024414062
vn 0.0018760785 0.9999982 -0.00024414062
vn 0.0018760785 0.9999982 -0.00024414062
vn 0.0018760785 0.9999982 -0.00024414062
vn 0.0018760785 0.9999982 -0.00024414062
vn 0.0018760785 0.9999982 -0.00024414062
vn 0.0018760785 0.9999982 -0.00024414062
vn 0.0018760785 0.9999982 -0.00024414062
vn 0.0018760785 0.9999982 -0.00024414062
vn 0.0018760785 0.9999982 -0.00024414062
vn 0.0018760785 0.9999982 -0.00024414062
vn 0.0018760785 0.9999982 -0.00024414062
vn 0.0018760785 0.9999982 -0.00024414062
vn 0.0018760785 0.9999982 -0.00024414062
vn 0.0018760785 0.9999982 -0.00024414062
vn 0.0018760785 0.9999982 -0.00024414062
vn 0.0018760785 0.9999982 -0.00024414062
vn 0.0018760785 0.9999982 -0.00024414062
vn 0.0018760785 0.9999982 -0.00024414062
vn 0.0018760785 0.9999982 -0.00024414062
vn 0.0018760785 0.9999982 -0.00024414062
vn 0.0018760785 0.9999982 -0.00024414062
vn 0.0018760785 0.9999982 -0.00024414062
vn 0.0018760785 0.9999982 -0.00024414062
vn 0.0018760785 0.9999982 -0.00024414062
vn 0.0018760785 0.9999982 -0.00024414062
vn 0.0018760785 0.9999982 -0.00024414062
vn 0.0018760785 0.9999982 -0.00024414062
vn 0.0018760785 0.9999982 -0.00024414062
vn 0.0018760785 0.9999982 -0.00024414062
vn 0.0018760785 0.9999982 -0.00024414062
vn 0.0018760785 0.9999982 -0.00024414062
vn 0.0018760785 0.9999982 -0.00024414062
vn 0.0018760785 0.9999982 -0.00024414062
vn 0.0018760785 0.9999982 -0.00024414062
vn 0.0018760785 0.9999982 -0.00024414062
vn 0.0018760785 0.9999982 -0.00024414062
vn 0.0018760785 0.9999982 -0.00024414062
vn 0.0018760785 0.9999982 -0.00024414062
vn 0.0018760785 0.9999982 -0.00024414062
vn 0.0018760785 0.9999982 -0.00024414062
vn 0.0018760785 0.9999982 -0.00024414062
vn 0.0018760785 0.9999982 -0.00024414062
vn 0.0018760785 0.9999982 -0.00024414062
vn 0.0018760785 0.9999982 -0.00024414062
vn 0.0018760785 0.9999982 -0.00024414062
vn 0.0018760785 0.9999982 -0.00024414062
vn 0.0018760785 0.9999982 -0.00024414062
vn 0.0018760785 0.9999982 -0.00024414062
vn 0.0018760785 0.9999982 -0.00024414062
vn 0.0018760785 0.9999982 -0.00024414062
vn 0.0018760785 0.9999982 -0.00024414062
vn 0.0018760785 0.9999982 -0.00024414062
vn 0.0018760785 0.9999982 -0.00024414062
vn 0.0018760785 0.9999982 -0.00024414062
vn 0.0018760785 0.9999982 -0.00024414062
vn 0.0018760785 0.9999982 -0.00024414062
vn 0.0018760785 0.9999982 -0.00024414062
vn 0.0018760785 0.9999982 -0.00024414062
vn 0.0018760785 0.9999982 -0.00024414062
vn 0.0018760785 0.9999982 -0.00024414062
vn 0.0018760785 0.9999982 -0.00024414062
vn 0.0018760785 0.9999982 -0.00024414062
vn 0.0018760785 0.9999982 -0.00024414062
vn 0.0018760785 0.9999982 -0.00024414062
vn 0.0018760785 0.9999982 -0.00024414062
vn 0.0018760785 0.9999982 -0.00024414062
vn 0.0018760785 0.9999982 -0.00024414062
vn 0.0018760785 0.9999982 -0.00024414062
vn 0.0018760785 0.9999982 -0.00024414062
vn 0.0018760785 0.9999982 -0.00024414062
vn 0.0018760785 0.9999982 -0.00024414062
vn 0.0018760785 0.9999982 -0.00024414062
vn 0.0018760785 0.9999982 -0.00024414062
vn 0.0018760785 0.9999982 -0.00024414062
vn 0.0018760785 0.9999982 -0.00024414062
vn 0.0018760785 0.9999982 -0.00024414062
vn 0.0018760785 0.9999982 -0.00024414062
vn 0.0018760785 0.9999982 -0.00024414062
vn 0.0018760785 0.9999982 -0.00024414062
vn 0.0018760785 0.9999982 -0.00024414062
vn 0.0018760785 0.9999982 -0.00024414062
vn 0.0018760785 0.9999982 -0.00024414062
vn 0.0018760785 0.9999982 -0.00024414062
vn 0.0018760785 0.9999982 -0.00024414062
vn 0.0018760785 0.9999982 -0.00024414062
vn 0.0018760785 0.9999982 -0.00024414062
vn 0.0018760785 0.9999982 -0.00024414062
vn 0.0018760785 0.9999982 -0.00024414062
vn 0.0018760785 0.9999982 -0.00024414062
vn 0.0018760785 0.9999982 -0.00024414062
vn 0.0018760785 0.9999982 -0.00024414062
vn 0.0018760785 0.9999982 -0.00024414062
vn 0.0018760785 0.9999982 -0.00024414062
vn 0.0018760785 0.9999982 -0.00024414062
vn 0.0018760785 0.9999982 -0.00024414062
vn 0.0018760785 0.9999982 -0.00024414062
vn 0.0018760785 0.9999982 -0.00024414062
vn 0.0018760785 0.9999982 -0.00024414062
vn 0.0018760785 0.9999982 -0.00024414062
vn 0.0018760785 0.9999982 -0.00024414062
vn 0.0018760785 0.9999982 -0.00024414062
vn 0.0018760785 0.9999982 -0.00024414062
vn 0.0018760785 0.9999982 -0.00024414062
vn 0.0018760785 0.9999982 -0.00024414062
vn 0.0018760785 0.9999982 -0.00024414062
g ground_0
f 3/3/3 2/2/2 1/1/1
f 2/2/2 4/4/4 1/1/1
f 1/1/1 4/4/4 5/5/5
f 2/2/2 6/6/6 4/4/4
f 4/4/4 7/7/7 5/5/5
f 5/5/5 7/7/7 8/8/8
f 6/6/6 9/9/9 4/4/4
f 4/4/4 9/9/9 7/7/7
f 6/6/6 10/10/10 9/9/9
f 7/7/7 11/11/11 8/8/8
f 8/8/8 11/11/11 12/12/12
f 9/9/9 13/13/13 7/7/7
f 7/7/7 13/13/13 11/11/11
f 10/10/10 14/14/14 9/9/9
f 9/9/9 14/14/14 13/13/13
f 10/10/10 15/15/15 14/14/14
f 11/11/11 16/16/16 12/12/12
f 12/12/12 16/16/16 17/17/17
f 13/13/13 18/18/18 11/11/11
f 11/11/11 18/18/18 16/16/16
f 14/14/14 19/19/19 13/13/13
f 13/13/13 19/19/19 18/18/18
f 15/15/15 20/20/20 14/14/14
f 14/14/14 20/20/20 19/19/19
f 15/15/15 21/21/21 20/20/20
f 16/16/16 22/22/22 17/17/17
f 17/17/17 22/22/22 23/23/23
f 18/18/18 24/24/24 16/16/16
f 16/16/16 24/24/24 22/22/22
f 19/19/19 25/25/25 18/18/18
f 18/18/18 25/25/25 24/24/24
f 20/20/20 26/26/26 19/19/19
f 19/19/19 26/26/26 25/25/25
f 21/21/21 27/27/27 20/20/20
f 20/20/20 27/27/27 26/26/26
f 21/21/21 28/28/28 27/27/27
f 22/22/22 29/29/29 23/23/23
f 23/23/23 29/29/29 30/30/30
f 24/24/24 31/31/31 22/22/22
f 22/22/22 31/31/31 29/29/29
f 25/25/25 32/32/32 24/24/24
f 24/24/24 32/32/32 31/31/31
f 26/26/26 33/33/33 25/25/25
f 25/25/25 33/33/33 32/32/32
f 27/27/27 34/34/34 26/26/26
f 26/26/26 34/34/34 33/33/33
f 28/28/28 35/35/35 27/27/27
f 27/27/27 35/35/35 34/34/34
f 28/28/28 36/36/36 35/35/35
f 29/29/29 37/37/37 30/30/30
f 30/30/30 37/37/37 38/38/38
f 37/37/37 39/39/39 38/38/38
f 31/31/31 40/40/40 29/29/29
f 29/29/29 40/40/40 37/37/37
f 37/37/37 41/41/41 39/39/39
f 40/40/40 41/41/41 37/37/37
f 41/41/41 42/42/42 39/39/39
f 36/36/36 43/43/43 35/35/35
f 36/36/36 44/44/44 43/43/43
f 35/35/35 45/45/45 34/34/34
f 35/35/35 43/43/43 45/45/45
f 31/31/31 46/46/46 40/40/40
f 32/32/32 46/46/46 31/31/31
f 41/41/41 47/47/47 42/42/42
f 47/47/47 48/48/48 42/42/42
f 40/40/40 49/49/49 41/41/41
f 46/46/46 49/49/49 40/40/40
f 49/49/49 47/47/47 41/41/41
f 44/44/44 50/50/50 43/43/43
f 44/44/44 51/51/51 50/50/50
f 32/32/32 52/52/52 46/46/46
f 33/33/33 52/52/52 32/32/32
f 47/47/47 53/53/53 48/48/48
f 53/53/53 54/54/54 48/48/48
f 49/49/49 55/55/55 47/47/47
f 55/55/55 53/53/53 47/47/47
f 46/46/46 56/56/56 49/49/49
f 52/52/52 56/56/56 46/46/46
f 56/56/56 55/55/55 49/49/49
f 43/43/43 50/50/50 57/57/57
f 43/43/43 57/57/57 45/45/45
f 33/33/33 58/58/58 52/52/52
f 34/34/34 58/58/58 33/33/33
f 34/34/34 45/45/45 58/58/58
f 53/53/53 59/59/59 54/54/54
f 59/59/59 60/60/60 54/54/54
f 55/55/55 61/61/61 53/53/53
f 61/61/61 59/59/59 53/53/53
f 56/56/56 62/62/62 55/55/55
f 62/62/62 61/61/61 55/55/55
f 52/52/52 63/63/63 56/56/56
f 58/58/58 63/63/63 52/52/52
f 63/63/63 62/62/62 56/56/56
f 45/45/45 64/64/64 58/58/58
f 58/58/58 64/64/64 63/63/63
f 45/45/45 57/57/57 64/64/64
f 59/59/59 65/65/65 60/60/60
f 65/65/65 66/66/66 60/60/60
f 61/61/61 67/67/67 59/59/59
f 67/67/67 65/65/65 59/59/59
f 62/62/62 68/68/68 61/61/61
f 68/68/68 67/67/67 61/61/61
f 63/63/63 69/69/69 62/62/62
f 64/64/64 69/69/69 63/63/63
f 69/69/69 68/68/68 62/62/62
f 57/57/57 70/70/70 64/64/64
f 64/64/64 70/70/70 69/69/69
f 65/65/65 71/71/71 66/66/66
f 71/71/71 72/72/72 66/66/66
f 67/67/67 73/73/73 65/65/65
f 73/73/73 71/71/71 65/65/65
f 68/68/68 74/74/74 67/67/67
f 74/74/74 73/73/73 67/67/67
f 69/69/69 75/75/75 68/68/68
f 70/70/70 75/75/75 69/69/69
f 75/75/75 74/74/74 68/68/68
f 57/57/57 76/76/76 70/70/70
f 50/50/50 76/76/76 57/57/57
f 76/76/76 50/50/50 51/51/51
f 77/77/77 76/76/76 51/51/51
f 76/76/76 78/78/78 70/70/70
f 78/78/78 76/76/76 77/77/77
f 70/70/70 78/78/78 75/75/75
f 79/79/79 78/78/78 77/77/77
f 78/78/78 80/80/80 75/75/75
f 80/80/80 78/78/78 79/79/79
f 75/75/75 80/80/80 74/74/74
f 81/81/81 80/80/80 79/79/79
f 80/80/80 82/82/82 74/74/74
f 82/82/82 80/80/80 81/81/81
f 74/74/74 82/82/82 73/73/73
f 83/83/83 82/82/82 81/81/81
f 82/82/82 84/84/84 73/73/73
f 82/82/82 83/83/83 84/84/84
f 73/73/73 84/84/84 71/71/71
f 83/83/83 85/85/85 84/84/84
f 84/84/84 86/86/86 71/71/71
f 84/84/84 85/85/85 86/86/86
f 71/71/71 86/86/86 72/72/72
f 85/85/85 87/87/87 86/86/86
f 86/86/86 88/88/88 72/72/72
f 87/87/87 88/88/88 86/86/86
f 91/91/91 90/90/90 89/89/89
f 92/92/92 91/91/91 89/89/89
f 92/92/92 89/89/89 93/93/93
f 94/94/94 91/91/91 92/92/92
f 95/95/95 92/92/92 93/93/93
f 95/95/95 93/93/93 96/96/96
f 97/97/97 94/94/94 92/92/92
f 97/97/97 92/92/92 95/95/95
f 98/98/98 94/94/94 97/97/97
f 99/99/99 95/95/95 96/96/96
f 99/99/99 96/96/96 100/100/100
f 101/101/101 97/97/97 95/95/95
f 101/101/101 95/95/95 99/99/99
f 102/102/102 98/98/98 97/97/97
f 102/102/102 97/97/97 101/101/101
f 103/103/103 98/98/98 102/102/102
f 104/104/104 99/99/99 100/100/100
f 104/104/104 100/100/100 105/105/105
f 106/106/106 101/101/101 99/99/99
f 106/106/106 99/99/99 104/104/104
f 107/107/107 102/102/102 101/101/101
f 107/107/107 101/101/101 106/106/106
f 108/108/108 103/103/103 102/102/102
f 108/108/108 102/102/102 107/107/107
f 109/109/109 103/103/103 108/108/108
f 110/110/110 104/104/104 105/105/105
f 110/110/110 105/105/105 111/111/111
f 112/112/112 106/106/106 104/104/104
f 112/112/112 104/104/104 110/110/110
f 113/113/113 107/107/107 106/106/106
f 113/113/113 106/106/106 112/112/112
f 114/114/114 108/108/108 107/107/107
f 114/114/114 107/107/107 113/113/113
f 115/115/115 109/109/109 108/108/108
f 115/115/115 108/108/108 114/114/114
f 116/116/116 109/109/109 115/115/115
f 115/115/115 117/117/117 116/116/116
f 117/117/117 115/115/115 114/114/114
f 117/117/117 118/118/118 116/116/116
f 119/119/119 110/110/110 111/111/111
f 119/119/119 111/111/111 120/120/120
f 121/121/121 112/112/112 110/110/110
f 121/121/121 110/110/110 119/119/119
f 122/122/122 113/113/113 112/112/112
f 122/122/122 112/112/112 121/121/121
f 123/123/123 114/114/114 113/113/113
f 117/117/117 114/114/114 123/123/123
f 123/123/123 113/113/113 122/122/122
f 117/117/117 124/124/124 118/118/118
f 124/124/124 117/117/117 123/123/123
f 124/124/124 125/125/125 118/118/118
f 126/126/126 119/119/119 120/120/120
f 126/126/126 120/120/120 127/127/127
f 128/128/128 126/126/126 127/127/127
f 129/129/129 121/121/121 119/119/119
f 129/129/129 119/119/119 126/126/126
f 130/130/130 126/126/126 128/128/128
f 130/130/130 129/129/129 126/126/126
f 131/131/131 130/130/130 128/128/128
f 132/132/132 122/122/122 121/121/121
f 132/132/132 121/121/121 129/129/129
f 133/133/133 123/123/123 122/122/122
f 124/124/124 123/123/123 133/133/133
f 133/133/133 122/122/122 132/132/132
f 124/124/124 134/134/134 125/125/125
f 134/134/134 124/124/124 133/133/133
f 134/134/134 135/135/135 125/125/125
f 136/136/136 130/130/130 131/131/131
f 137/137/137 136/136/136 131/131/131
f 138/138/138 129/129/129 130/130/130
f 138/138/138 132/132/132 129/129/129
f 136/136/136 138/138/138 130/130/130
f 139/139/139 133/133/133 132/132/132
f 134/134/134 133/133/133 139/139/139
f 139/139/139 132/132/132 138/138/138
f 134/134/134 140/140/140 135/135/135
f 140/140/140 134/134/134 139/139/139
f 140/140/140 141/141/141 135/135/135
f 142/142/142 139/139/139 138/138/138
f 142/142/142 138/138/138 136/136/136
f 140/140/140 139/139/139 142/142/142
f 143/143/143 136/136/136 137/137/137
f 143/143/143 142/142/142 136/136/136
f 144/144/144 143/143/143 137/137/137
f 141/141/141 140/140/140 145/145/145
f 145/145/145 140/140/140 142/142/142
f 145/145/145 142/142/142 143/143/143
f 146/146/146 141/141/141 145/145/145
f 147/147/147 143/143/143 144/144/144
f 147/147/147 145/145/145 143/143/143
f 146/146/146 145/145/145 147/147/147
f 148/148/148 147/147/147 144/144/144
f 149/149/149 146/146/146 147/147/147
f 148/148/148 149/149/149 147/147/147
