g pm0058_41_TongueSkin
v 2.2666118E-10 0.4502331 0.2291596
v -5.850103E-10 0.45569316 0.23638767
v 0.035179745 0.45569888 0.22065458
v 0.031733405 0.45016846 0.21501732
v 9.244204E-11 0.44711372 0.17840055
v 0.055292387 0.45560202 0.17840052
v 0.04907744 0.45056865 0.17840055
v 8.105999E-11 0.44712317 0.13614446
v 0.04912905 0.45039803 0.13623695
v 0.05596292 0.45555404 0.13760228
v -2.5495145E-10 0.4506108 0.09596652
v 0.040700622 0.45569044 0.10543295
v 0.03528917 0.4519115 0.1035739
v -3.0814823E-10 0.45568746 0.09413065
v -0.040700626 0.45569044 0.10543295
v -2.5495145E-10 0.4506108 0.09596652
v -3.0814823E-10 0.45568746 0.09413065
v -0.035289176 0.45191154 0.103573866
v 8.105999E-11 0.44712317 0.13614446
v -0.055962905 0.455554 0.13760228
v -0.04912905 0.45039803 0.13623695
v 9.244204E-11 0.44711372 0.17840055
v -0.049077433 0.45056868 0.17840055
v -0.055292394 0.45560202 0.17840052
v 2.2666118E-10 0.4502331 0.2291596
v -0.035179745 0.45569888 0.22065456
v -0.031733412 0.45016846 0.21501732
v -5.850103E-10 0.45569316 0.23638767
v -0.035179745 0.45569888 0.22065456
v 4.551018E-10 0.46297088 0.23443662
v -5.850103E-10 0.45569316 0.23638767
v -0.03385674 0.4631209 0.21938051
v -0.055292394 0.45560202 0.17840052
v -0.024256432 0.47087392 0.21331207
v -2.8945785E-10 0.4698988 0.22380778
v -0.053232413 0.46360365 0.17840052
v -0.055962905 0.455554 0.13760228
v -0.034660324 0.47455564 0.17840055
v 3.2795346E-13 0.47466257 0.17840055
v -0.053977933 0.46374315 0.13805896
v -0.040700626 0.45569044 0.10543295
v -0.0154999625 0.4774466 0.1362312
v -5.9723787E-10 0.4748536 0.13624026
v -0.03477504 0.4750728 0.13621993
v -0.0129265385 0.4739746 0.09949886
v 6.170291E-10 0.47101164 0.09750819
v -2.4109204E-10 0.46375182 0.09390785
v -0.040396407 0.46389374 0.10559089
v -3.0814823E-10 0.45568746 0.09413065
v -0.028819751 0.4720672 0.10194639
v 0.040700622 0.45569044 0.10543295
v -2.4109204E-10 0.46375182 0.09390785
v -3.0814823E-10 0.45568746 0.09413065
v 0.040396407 0.46389377 0.10559089
v 0.05596292 0.45555404 0.13760228
v 0.01292655 0.4739746 0.09949885
v 6.170291E-10 0.47101164 0.09750819
v 0.05397796 0.46374315 0.13805896
v 0.055292387 0.45560202 0.17840052
v 0.015499959 0.4774466 0.1362312
v -5.9723787E-10 0.4748536 0.13624026
v 3.2795346E-13 0.47466257 0.17840055
v 0.034660332 0.4745557 0.17840053
v -2.8945785E-10 0.4698988 0.22380778
v 0.034775052 0.47507286 0.13621993
v 0.02881976 0.47206718 0.10194638
v 0.0532324 0.46360365 0.17840052
v 0.035179745 0.45569888 0.22065458
v 0.03385674 0.4631209 0.21938051
v -5.850103E-10 0.45569316 0.23638767
v 4.551018E-10 0.46297088 0.23443662
v 0.024256432 0.47087392 0.21331204
vt 0.18946433 0.6901644
vt 0.19823027 0.6901644
vt 0.17859983 0.71304595
vt 0.17027617 0.709921
vt 0.12579536 0.6901644
vt 0.12654114 0.72630787
vt 0.1258738 0.7211124
vt 0.074212074 0.6901646
vt 0.07343793 0.7203078
vt 0.07417226 0.7259877
vt 0.025711775 0.6901644
vt 0.034804344 0.7138381
vt 0.035752535 0.710068
vt 0.019170284 0.6901645
vt 0.034804482 0.7138381
vt 0.025711792 0.6901644
vt 0.019170301 0.6901645
vt 0.035752494 0.710068
vt 0.07421215 0.6901646
vt 0.07417233 0.7259877
vt 0.073437884 0.7203078
vt 0.12579538 0.6901644
vt 0.12587376 0.7211124
vt 0.12654121 0.72630787
vt 0.18946446 0.6901644
vt 0.17859991 0.71304595
vt 0.1702763 0.709921
vt 0.19823024 0.6901644
vt 0.038399655 0.50544536
vt 0.027575986 0.48256403
vt 0.01876946 0.48256403
vt 0.044776518 0.50230014
vt 0.09045829 0.5187073
vt 0.05384173 0.49599367
vt 0.04199602 0.48256403
vt 0.09230073 0.5138519
vt 0.14282714 0.5183871
vt 0.09303053 0.501575
vt 0.092667475 0.48256403
vt 0.14010982 0.5134622
vt 0.18219535 0.5062376
vt 0.13876353 0.490714
vt 0.13873337 0.48256403
vt 0.13975708 0.50091994
vt 0.17556141 0.48862678
vt 0.1790577 0.4825641
vt 0.18899207 0.4825641
vt 0.17527376 0.50346875
vt 0.19782935 0.48256397
vt 0.17303096 0.4963442
vt 0.18219543 0.5062376
vt 0.18899202 0.4825641
vt 0.19782925 0.48256397
vt 0.17527366 0.50346875
vt 0.14282703 0.5183871
vt 0.17556143 0.48862678
vt 0.1790576 0.4825641
vt 0.14010978 0.5134622
vt 0.090458155 0.5187073
vt 0.13876343 0.490714
vt 0.13873339 0.48256403
vt 0.09266734 0.48256403
vt 0.09303045 0.501575
vt 0.041996002 0.48256403
vt 0.13975716 0.50091994
vt 0.17303085 0.4963442
vt 0.09230065 0.5138519
vt 0.038399696 0.50544536
vt 0.04477644 0.50230014
vt 0.018769503 0.48256403
vt 0.02757597 0.48256403
vt 0.05384159 0.49599367
vn -1.329493E-07 -0.9573313 0.28899255
vn -1.6078539E-07 -0.35654482 0.93427825
vn 0.6560213 -0.32163614 0.6827783
vn 0.25523067 -0.93112886 0.2604923
vn -0 -0.99864167 0.052104168
vn 0.92209905 -0.30590945 0.23696566
vn 0.28823698 -0.9542466 0.07957972
vn -0 -0.9978077 -0.066181086
vn 0.28195295 -0.9554743 -0.08701365
vn 0.92855877 -0.31166846 -0.20159698
vn -0 -0.93960446 -0.34226248
vn 0.6441442 -0.28636047 -0.70927846
vn 0.24256894 -0.91851556 -0.31223306
vn 3.0902663E-07 -0.26702744 -0.96368897
vn -0.64414364 -0.28636035 -0.70927906
vn -0 -0.93960446 -0.34226248
vn 3.0902663E-07 -0.26702744 -0.96368897
vn -0.24256857 -0.9185158 -0.31223285
vn -0 -0.9978077 -0.066181086
vn -0.9285588 -0.31166846 -0.20159693
vn -0.28195265 -0.9554743 -0.08701344
vn -0 -0.99864167 0.052104168
vn -0.28823683 -0.9542466 0.07957945
vn -0.9220992 -0.30590943 0.23696539
vn -1.329493E-07 -0.9573313 0.28899255
vn -0.65602136 -0.32163635 0.6827782
vn -0.25523084 -0.9311291 0.26049164
vn -1.6078539E-07 -0.35654482 0.93427825
vn -0.65602136 -0.32163635 0.6827782
vn -0 0.6147922 0.78868914
vn -1.6078539E-07 -0.35654482 0.93427825
vn -0.5404565 0.6278028 0.5601522
vn -0.9220992 -0.30590943 0.23696539
vn -0.24762227 0.92593825 0.2851694
vn -1.264079E-07 0.94410354 0.32964894
vn -0.73325884 0.6518377 0.19349211
vn -0.9285588 -0.31166846 -0.20159693
vn -0.2930731 0.9501163 0.106710784
vn -2.432085E-07 0.99771845 0.06751273
vn -0.75914586 0.6316622 -0.15716377
vn -0.64414364 -0.28636035 -0.70927906
vn -0.059667975 0.9951651 -0.078013875
vn -1.8170067E-07 0.9980434 -0.06252453
vn -0.3344183 0.93775505 -0.09370097
vn -0.07960022 0.8939614 -0.44101772
vn -0 0.9228138 -0.38524634
vn -0 0.5206776 -0.85375345
vn -0.58894366 0.5116479 -0.6255893
vn 3.0902663E-07 -0.26702744 -0.96368897
vn -0.34457526 0.8483751 -0.40190497
vn 0.6441442 -0.28636047 -0.70927846
vn -0 0.5206776 -0.85375345
vn 3.0902663E-07 -0.26702744 -0.96368897
vn 0.5889438 0.5116483 -0.6255887
vn 0.92855877 -0.31166846 -0.20159698
vn 0.07959994 0.8939614 -0.44101778
vn -0 0.9228138 -0.38524634
vn 0.75914586 0.6316622 -0.15716366
vn 0.92209905 -0.30590945 0.23696566
vn 0.05966762 0.9951651 -0.07801419
vn -1.8170067E-07 0.9980434 -0.06252453
vn -2.432085E-07 0.99771845 0.06751273
vn 0.29307318 0.9501163 0.10671081
vn -1.264079E-07 0.94410354 0.32964894
vn 0.3344182 0.93775505 -0.09370125
vn 0.344575 0.84837514 -0.4019051
vn 0.7332589 0.65183747 0.19349241
vn 0.6560213 -0.32163614 0.6827783
vn 0.54045665 0.6278027 0.56015205
vn -1.6078539E-07 -0.35654482 0.93427825
vn -0 0.6147922 0.78868914
vn 0.24762237 0.9259381 0.28516948
g pm0058_41_TongueSkin_0
f 3/3/3 2/2/2 1/1/1
f 4/4/4 3/3/3 1/1/1
f 4/4/4 1/1/1 5/5/5
f 6/6/6 3/3/3 4/4/4
f 7/7/7 4/4/4 5/5/5
f 7/7/7 6/6/6 4/4/4
f 5/5/5 8/8/8 7/7/7
f 7/7/7 9/9/9 6/6/6
f 8/8/8 9/9/9 7/7/7
f 9/9/9 10/10/10 6/6/6
f 9/9/9 8/8/8 11/11/11
f 12/12/12 10/10/10 9/9/9
f 13/13/13 9/9/9 11/11/11
f 13/13/13 12/12/12 9/9/9
f 13/13/13 11/11/11 14/14/14
f 12/12/12 13/13/13 14/14/14
f 17/17/17 16/16/16 15/15/15
f 16/16/16 18/18/18 15/15/15
f 16/16/16 19/19/19 18/18/18
f 20/20/20 15/15/15 18/18/18
f 19/19/19 21/21/21 18/18/18
f 21/21/21 20/20/20 18/18/18
f 21/21/21 19/19/19 22/22/22
f 20/20/20 21/21/21 23/23/23
f 23/23/23 21/21/21 22/22/22
f 24/24/24 20/20/20 23/23/23
f 22/22/22 25/25/25 23/23/23
f 26/26/26 24/24/24 23/23/23
f 25/25/25 27/27/27 23/23/23
f 27/27/27 26/26/26 23/23/23
f 25/25/25 28/28/28 27/27/27
f 28/28/28 26/26/26 27/27/27
f 31/31/31 30/30/30 29/29/29
f 30/30/30 32/32/32 29/29/29
f 29/29/29 32/32/32 33/33/33
f 34/34/34 32/32/32 30/30/30
f 35/35/35 34/34/34 30/30/30
f 32/32/32 36/36/36 33/33/33
f 32/32/32 34/34/34 36/36/36
f 33/33/33 36/36/36 37/37/37
f 38/38/38 34/34/34 35/35/35
f 34/34/34 38/38/38 36/36/36
f 39/39/39 38/38/38 35/35/35
f 36/36/36 40/40/40 37/37/37
f 36/36/36 38/38/38 40/40/40
f 37/37/37 40/40/40 41/41/41
f 39/39/39 42/42/42 38/38/38
f 39/39/39 43/43/43 42/42/42
f 42/42/42 44/44/44 38/38/38
f 38/38/38 44/44/44 40/40/40
f 42/42/42 43/43/43 45/45/45
f 42/42/42 45/45/45 44/44/44
f 43/43/43 46/46/46 45/45/45
f 45/45/45 46/46/46 47/47/47
f 40/40/40 48/48/48 41/41/41
f 45/45/45 47/47/47 48/48/48
f 41/41/41 48/48/48 49/49/49
f 48/48/48 47/47/47 49/49/49
f 40/40/40 44/44/44 50/50/50
f 45/45/45 50/50/50 44/44/44
f 48/48/48 40/40/40 50/50/50
f 50/50/50 45/45/45 48/48/48
f 53/53/53 52/52/52 51/51/51
f 52/52/52 54/54/54 51/51/51
f 51/51/51 54/54/54 55/55/55
f 52/52/52 56/56/56 54/54/54
f 52/52/52 57/57/57 56/56/56
f 54/54/54 58/58/58 55/55/55
f 55/55/55 58/58/58 59/59/59
f 60/60/60 56/56/56 57/57/57
f 61/61/61 60/60/60 57/57/57
f 62/62/62 60/60/60 61/61/61
f 62/62/62 63/63/63 60/60/60
f 62/62/62 64/64/64 63/63/63
f 60/60/60 65/65/65 56/56/56
f 63/63/63 65/65/65 60/60/60
f 65/65/65 58/58/58 54/54/54
f 65/65/65 63/63/63 58/58/58
f 65/65/65 66/66/66 56/56/56
f 66/66/66 65/65/65 54/54/54
f 56/56/56 66/66/66 54/54/54
f 58/58/58 67/67/67 59/59/59
f 63/63/63 67/67/67 58/58/58
f 59/59/59 67/67/67 68/68/68
f 67/67/67 69/69/69 68/68/68
f 69/69/69 67/67/67 63/63/63
f 68/68/68 69/69/69 70/70/70
f 69/69/69 71/71/71 70/70/70
f 64/64/64 71/71/71 69/69/69
f 72/72/72 69/69/69 63/63/63
f 72/72/72 64/64/64 69/69/69
f 64/64/64 72/72/72 63/63/63
