g pm0088_61_LiquidDSkin
v 0.2392613 0.4717611 0.181367
v 0.24867061 0.46591777 0.17198998
v 0.23729421 0.46983156 0.171994
v 0.23321615 0.48104 0.17199774
v 0.23732227 0.48106453 0.18324791
v 0.23714603 0.49230117 0.17199922
v 0.24864753 0.46989372 0.18330242
v 0.2580071 0.4718849 0.18136187
v 0.25999433 0.4699814 0.17198777
v 0.2639242 0.48124266 0.17198926
v 0.24857447 0.4811378 0.18730643
v 0.23913842 0.4903935 0.18137138
v 0.24846977 0.4963648 0.17199701
v 0.24849918 0.49238357 0.18330766
v 0.25788423 0.49051714 0.1813662
v 0.25984612 0.4924508 0.17199299
v 0.25982434 0.48121297 0.18324171
v 0.25787908 0.49052146 0.16262
v 0.2639242 0.48124266 0.17198926
v 0.25984612 0.4924508 0.17199299
v 0.24846977 0.4963648 0.17199701
v 0.25981814 0.4812182 0.16073914
v 0.24849288 0.49238887 0.16068459
v 0.25800198 0.47188923 0.16261563
v 0.25999433 0.4699814 0.17198777
v 0.24867061 0.46591777 0.17198998
v 0.24856597 0.4811448 0.15668058
v 0.23913324 0.49039778 0.16262512
v 0.23714603 0.49230117 0.17199922
v 0.23321615 0.48104 0.17199774
v 0.23731603 0.4810696 0.16074531
v 0.23729421 0.46983156 0.171994
v 0.2486412 0.46989903 0.16067936
v 0.23925605 0.47176543 0.16262075
vt 0.43160895 0.05580908
vt 0.44538382 0.04593298
vt 0.42118418 0.05058059
vt 0.41164047 0.06253165
vt 0.42979616 0.06259155
vt 0.420868 0.07454476
vt 0.44526422 0.054995503
vt 0.45889655 0.055899084
vt 0.4694582 0.050739855
vt 0.47868592 0.06275314
vt 0.44516334 0.062642395
vt 0.43142983 0.06938535
vt 0.44494307 0.07935178
vt 0.4450623 0.070289165
vt 0.45871726 0.06947553
vt 0.46914238 0.07470393
vt 0.46053 0.06269285
vt 0.43197802 0.030188888
vt 0.4119701 0.023453176
vt 0.42153257 0.03542766
vt 0.44577992 0.04008475
vt 0.43016186 0.023392737
vt 0.44566026 0.03100425
vt 0.4317986 0.016585618
vt 0.42121583 0.011416048
vt 0.44533825 0.006599635
vt 0.44555902 0.023342222
vt 0.45931992 0.030098617
vt 0.4699027 0.035268188
vt 0.47914842 0.023231268
vt 0.4609565 0.02329129
vt 0.46958578 0.011256576
vt 0.4454581 0.015680134
vt 0.45914033 0.016495347
vn -0.5723483 -0.5823651 0.577294
vn 0.0065998365 -0.9999782 -0.00023343749
vn -0.7015419 -0.7126282 2.9311106E-05
vn -0.9999782 -0.0065957326 0.00027602684
vn -0.7062119 -0.0048217527 0.7079841
vn -0.7108819 0.7033113 0.0003592446
vn 0.0048667677 -0.7078301 0.70636606
vn 0.58030295 -0.5747601 0.5769742
vn 0.71088463 -0.70330846 -0.0003594649
vn 0.9999782 0.006596265 -0.0002747015
vn 0.00027877695 -0.00023096436 1
vn -0.57997936 0.5744961 0.5775623
vn -0.0065960297 0.9999783 0.0002330489
vn -0.0044719665 0.70750546 0.7066937
vn 0.5726693 0.5821 0.57724303
vn 0.70154107 0.7126289 -2.9090086E-05
vn 0.70660585 0.0044977786 0.70759296
vn 0.57235 0.58236593 -0.57729137
vn 0.9999782 0.006596265 -0.0002747015
vn 0.70154107 0.7126289 -2.9090086E-05
vn -0.0065960297 0.9999783 0.0002330489
vn 0.70621437 0.0048239655 -0.70798165
vn -0.0048630084 0.70783037 -0.70636576
vn 0.5799825 -0.57449454 -0.57756054
vn 0.71088463 -0.70330846 -0.0003594649
vn 0.0065998365 -0.9999782 -0.00023343749
vn -0.000274572 0.0002309644 -1
vn -0.58030003 0.57476103 -0.5769763
vn -0.7108819 0.7033113 0.0003592446
vn -0.9999782 -0.0065957326 0.00027602684
vn -0.70660406 -0.0044960855 -0.7075948
vn -0.7015419 -0.7126282 2.9311106E-05
vn 0.004475647 -0.707504 -0.7066951
vn -0.5726677 -0.58209914 -0.57724535
g pm0088_61_LiquidDSkin_0
f 3/3/3 2/2/2 1/1/1
f 4/4/4 3/3/3 1/1/1
f 5/5/5 4/4/4 1/1/1
f 6/6/6 4/4/4 5/5/5
f 2/2/2 7/7/7 1/1/1
f 1/1/1 7/7/7 5/5/5
f 7/7/7 2/2/2 8/8/8
f 2/2/2 9/9/9 8/8/8
f 9/9/9 10/10/10 8/8/8
f 7/7/7 8/8/8 11/11/11
f 7/7/7 11/11/11 5/5/5
f 12/12/12 6/6/6 5/5/5
f 13/13/13 6/6/6 12/12/12
f 12/12/12 5/5/5 14/14/14
f 14/14/14 13/13/13 12/12/12
f 5/5/5 11/11/11 14/14/14
f 13/13/13 14/14/14 15/15/15
f 15/15/15 14/14/14 11/11/11
f 16/16/16 13/13/13 15/15/15
f 10/10/10 16/16/16 15/15/15
f 10/10/10 17/17/17 8/8/8
f 8/8/8 17/17/17 11/11/11
f 17/17/17 10/10/10 15/15/15
f 17/17/17 15/15/15 11/11/11
f 20/20/20 19/19/19 18/18/18
f 21/21/21 20/20/20 18/18/18
f 19/19/19 22/22/22 18/18/18
f 23/23/23 21/21/21 18/18/18
f 23/23/23 18/18/18 22/22/22
f 22/22/22 19/19/19 24/24/24
f 19/19/19 25/25/25 24/24/24
f 25/25/25 26/26/26 24/24/24
f 22/22/22 24/24/24 27/27/27
f 27/27/27 23/23/23 22/22/22
f 21/21/21 23/23/23 28/28/28
f 29/29/29 21/21/21 28/28/28
f 30/30/30 29/29/29 28/28/28
f 28/28/28 23/23/23 31/31/31
f 31/31/31 30/30/30 28/28/28
f 23/23/23 27/27/27 31/31/31
f 32/32/32 30/30/30 31/31/31
f 24/24/24 33/33/33 27/27/27
f 26/26/26 33/33/33 24/24/24
f 27/27/27 33/33/33 31/31/31
f 34/34/34 32/32/32 31/31/31
f 26/26/26 32/32/32 34/34/34
f 33/33/33 34/34/34 31/31/31
f 33/33/33 26/26/26 34/34/34
