g pm0076_00_RockHoleHeadSkin
v -0.08255417 0.734833 0.48481327
v -0.11032593 0.69459915 0.525866
v -0.12576422 0.7174218 0.482794
v -0.08000758 0.7137842 0.527969
v -0.0017712718 0.73905766 0.4851609
v -0.0048419586 0.7210565 0.5271449
v 0.1495932 0.71389645 0.48453698
v 0.13932727 0.7012349 0.5213097
v 0.1604012 0.6987355 0.48416838
v 0.15424709 0.67849255 0.51652557
v 0.1720961 0.6134876 0.5062182
v 0.1882987 0.6166331 0.4663803
v 0.1899513 0.5378017 0.43979472
v 0.17213371 0.5421303 0.49542022
v -0.12576422 0.7174218 0.482794
v -0.11032593 0.69459915 0.525866
v -0.16250789 0.55198455 0.50565076
v -0.20159453 0.5272456 0.46318436
v -0.10466806 0.52084506 0.46170336
v -0.08793432 0.5341921 0.5009701
v -0.0018159924 0.52304024 0.461123
v -0.0022344189 0.5266635 0.49754837
v 0.06541757 0.5301211 0.49633208
v 0.07173628 0.5253047 0.45128092
v 0.17213371 0.5421303 0.49542022
v 0.1899513 0.5378017 0.43979472
v 0.06541757 0.5301211 0.49633208
v -0.0022344189 0.5266635 0.49754837
v 0.014582758 0.60491866 0.5136501
v 0.17213371 0.5421303 0.49542022
v -0.08793432 0.5341921 0.5009701
v 0.1720961 0.6134876 0.5062182
v -0.16250789 0.55198455 0.50565076
v 0.15424709 0.67849255 0.51652557
v -0.11032593 0.69459915 0.525866
v 0.13932727 0.7012349 0.5213097
v -0.08000758 0.7137842 0.527969
v -0.0048419586 0.7210565 0.5271449
vt 0.46178502 0.5979349
vt 0.48007503 0.59165436
vt 0.4669088 0.58097607
vt 0.47340286 0.6024329
vt 0.458875 0.6303979
vt 0.47039527 0.62939066
vt 0.46495563 0.68884873
vt 0.4734622 0.6810842
vt 0.4685846 0.6949116
vt 0.47848752 0.68734074
vt 0.4923396 0.69586986
vt 0.4900607 0.7130539
vt 0.51109076 0.72275186
vt 0.509606 0.70018125
vt 0.4721071 0.5743644
vt 0.48007503 0.59165436
vt 0.5121272 0.5794861
vt 0.52104676 0.5563109
vt 0.5283433 0.5948639
vt 0.5155187 0.602913
vt 0.5285896 0.63683045
vt 0.5179296 0.63551766
vt 0.51552063 0.66142976
vt 0.5273367 0.6665197
vt 0.509606 0.70018125
vt 0.52212 0.7129547
vt 0.51552063 0.66142976
vt 0.5179296 0.63551766
vt 0.4987321 0.6391743
vt 0.509606 0.70018125
vt 0.5155187 0.602913
vt 0.4923396 0.69586986
vt 0.5121272 0.5794861
vt 0.47848752 0.68734074
vt 0.48007503 0.59165436
vt 0.4734622 0.6810842
vt 0.47340286 0.6024329
vt 0.47039527 0.62939066
vn -0.28360796 0.79782414 0.53201795
vn -0.60223716 0.40878326 0.68571615
vn -0.6022371 0.40878335 0.68571603
vn -0.2836079 0.7978243 0.5320178
vn 0.10160162 0.87724537 0.46916702
vn 0.10160162 0.87724537 0.46916702
vn 0.508131 0.7315859 0.45451596
vn 0.508131 0.7315859 0.45451596
vn 0.8130366 0.39429736 0.42837018
vn 0.8130366 0.39429736 0.42837018
vn 0.91453034 -0.08372985 0.3957569
vn 0.91453034 -0.08372978 0.3957569
vn 0.69292355 -0.64682925 0.31854168
vn 0.69292355 -0.64682925 0.31854168
vn -0.6022371 0.40878335 0.68571603
vn -0.60223716 0.40878326 0.68571615
vn -0.5971063 -0.36550146 0.71405375
vn -0.5971062 -0.3655016 0.71405375
vn -0.24950075 -0.857954 0.44907042
vn -0.2495007 -0.85795397 0.44907054
vn 0.013043798 -0.96784836 0.25119603
vn 0.013043798 -0.96784836 0.25119603
vn 0.28463078 -0.9327184 0.22140856
vn 0.28463078 -0.9327184 0.22140856
vn 0.69292355 -0.64682925 0.31854168
vn 0.69292355 -0.64682925 0.31854168
vn 0.030816603 -0.18055344 0.9830823
vn 0.025854036 -0.18348004 0.9826834
vn 0.027971355 -0.16444229 0.98599005
vn 0.035156082 -0.17060769 0.98471165
vn 0.02166455 -0.1776752 0.98385066
vn 0.037311368 -0.15871617 0.98661906
vn 0.019010318 -0.16501914 0.98610723
vn 0.03615403 -0.14644273 0.9885583
vn 0.01835874 -0.14890635 0.98868084
vn 0.033390105 -0.1320975 0.9906742
vn 0.018926088 -0.1318579 0.991088
vn 0.026144953 -0.13522725 0.99046963
g pm0076_00_RockHoleHeadSkin_0
f 3/3/3 2/2/2 1/1/1
f 2/2/2 4/4/4 1/1/1
f 1/1/1 4/4/4 5/5/5
f 4/4/4 6/6/6 5/5/5
f 5/5/5 6/6/6 7/7/7
f 6/6/6 8/8/8 7/7/7
f 7/7/7 8/8/8 9/9/9
f 8/8/8 10/10/10 9/9/9
f 9/9/9 10/10/10 11/11/11
f 12/12/12 9/9/9 11/11/11
f 12/12/12 11/11/11 13/13/13
f 11/11/11 14/14/14 13/13/13
f 17/17/17 16/16/16 15/15/15
f 18/18/18 17/17/17 15/15/15
f 18/18/18 19/19/19 17/17/17
f 19/19/19 20/20/20 17/17/17
f 19/19/19 21/21/21 20/20/20
f 21/21/21 22/22/22 20/20/20
f 23/23/23 22/22/22 21/21/21
f 24/24/24 23/23/23 21/21/21
f 25/25/25 23/23/23 24/24/24
f 26/26/26 25/25/25 24/24/24
f 29/29/29 28/28/28 27/27/27
f 29/29/29 27/27/27 30/30/30
f 29/29/29 31/31/31 28/28/28
f 32/32/32 29/29/29 30/30/30
f 29/29/29 33/33/33 31/31/31
f 32/32/32 34/34/34 29/29/29
f 29/29/29 35/35/35 33/33/33
f 34/34/34 36/36/36 29/29/29
f 37/37/37 35/35/35 29/29/29
f 36/36/36 38/38/38 29/29/29
f 38/38/38 37/37/37 29/29/29
