g pm0009_51_LArmClosedSkin
v 0.85129696 0.56848186 0.60551447
v 0.8570969 0.57215303 0.607993
v 0.8520512 0.60164165 0.5768451
v 0.84702253 0.5989405 0.5754652
v 0.85120887 0.5458445 0.63763374
v 0.8575558 0.54825383 0.6396953
v 0.84789014 0.52692354 0.6726018
v 0.88154167 0.6063416 0.63171005
v 0.85445446 0.5295099 0.6748478
v 0.84332365 0.512979 0.7079218
v 0.8567364 0.6438391 0.5630471
v 0.85330564 0.64296997 0.56126404
v 0.860907 0.6798513 0.5603076
v 0.85688865 0.6789421 0.55868375
v 0.87442344 0.6561893 0.58510643
v 0.8642201 0.71524197 0.5620748
v 0.8603576 0.7167981 0.56085134
v 0.87832755 0.63004977 0.6051611
v 0.8709217 0.68370634 0.5752311
v 0.87547725 0.732668 0.5910055
v 0.8724481 0.7356432 0.59164613
v 0.886149 0.6847475 0.6042049
v 0.8747693 0.7015074 0.5807371
v 0.8851886 0.7469774 0.62299275
v 0.8822301 0.74967825 0.62345064
v 0.87953115 0.7149153 0.5933702
v 0.89401984 0.66767025 0.6298843
v 0.891158 0.71685153 0.62036437
v 0.89436156 0.7550157 0.6659886
v 0.8906676 0.75897515 0.668661
v 0.90029967 0.7096983 0.65145415
v 0.9032981 0.739631 0.705334
v 0.899874 0.7446546 0.7081408
v 0.89893585 0.6495624 0.65871894
v 0.9064005 0.69645405 0.6840849
v 0.9058343 0.7232621 0.74141294
v 0.90281093 0.7281634 0.7438038
v 0.8819633 0.5843908 0.6638452
v 0.9080482 0.678948 0.71880347
v 0.9000841 0.63007605 0.69167554
v 0.9024051 0.7033297 0.7758747
v 0.89940405 0.70892125 0.7785852
v 0.87889796 0.56499887 0.69903404
v 0.9048959 0.65924054 0.75380886
v 0.8970319 0.61084473 0.7261983
v 0.89422184 0.682345 0.80639523
v 0.89064586 0.6883965 0.8090935
v 0.84841436 0.51629406 0.7098837
v 0.8351185 0.5033147 0.7429726
v 0.87171316 0.54933167 0.7330631
v 0.840429 0.5070122 0.7419178
v 0.8565501 0.5354828 0.77072614
v 0.8598257 0.5361295 0.7666543
v 0.8717181 0.5761796 0.7973426
v 0.8890264 0.593006 0.7606677
v 0.8758273 0.57737267 0.793859
v 0.87858015 0.6209402 0.8195417
v 0.8968755 0.6405449 0.78607774
v 0.8838084 0.6230657 0.8171831
v 0.8784295 0.6658462 0.8366068
v 0.88346297 0.66300917 0.8325859
vt 0.58836055 0.28160095
vt 0.5898087 0.28160095
vt 0.59095526 0.26378393
vt 0.5897542 0.26334214
vt 0.58800423 0.29616094
vt 0.58932424 0.29616094
vt 0.5878434 0.31125927
vt 0.5991694 0.28160095
vt 0.58927155 0.31125927
vt 0.58830214 0.3264668
vt 0.5969603 0.25010324
vt 0.5962963 0.24919152
vt 0.6030754 0.24168873
vt 0.6024084 0.24049807
vt 0.6023245 0.25610614
vt 0.609375 0.23524022
vt 0.609375 0.23354006
vt 0.60022223 0.26820278
vt 0.605719 0.24675179
vt 0.61576414 0.24168801
vt 0.6163697 0.24044633
vt 0.609375 0.25707126
vt 0.609375 0.24515986
vt 0.6218649 0.25012493
vt 0.622491 0.24907231
vt 0.613122 0.24675274
vt 0.609375 0.2690413
vt 0.6165116 0.25611353
vt 0.6278595 0.26378846
vt 0.629086 0.26328135
vt 0.61861336 0.2682066
vt 0.6290138 0.28160095
vt 0.63034153 0.28160095
vt 0.609375 0.28160095
vt 0.61967075 0.28160095
vt 0.62951696 0.29616094
vt 0.6306796 0.29616094
vt 0.59876645 0.29616094
vt 0.62007344 0.29616094
vt 0.609375 0.29616094
vt 0.6295669 0.31125927
vt 0.6309073 0.31125927
vt 0.598781 0.31125927
vt 0.6200491 0.31125927
vt 0.609375 0.31125927
vt 0.6290883 0.3264668
vt 0.6307007 0.3264668
vt 0.5896597 0.3264668
vt 0.58978057 0.34375
vt 0.5990522 0.3264668
vt 0.590798 0.34161758
vt 0.5997324 0.34375
vt 0.5996232 0.34161758
vt 0.609375 0.34375
vt 0.609375 0.3264668
vt 0.609375 0.34161758
vt 0.61893034 0.34375
vt 0.6197541 0.3264668
vt 0.61919653 0.34161758
vt 0.6288842 0.34375
vt 0.62784994 0.34161758
vn 0.61297727 -0.5639741 -0.55334634
vn 0.7381857 -0.48218322 -0.47178507
vn 0.72179866 -0.352555 -0.5955768
vn 0.5960591 -0.411256 -0.6896247
vn 0.60799706 -0.6772459 -0.41433975
vn 0.7361048 -0.5836206 -0.3428364
vn 0.6083032 -0.7475335 -0.26676
vn 0.8869016 -0.32255396 -0.33070314
vn 0.7277496 -0.6531521 -0.20921975
vn 0.6262467 -0.7747147 -0.08736175
vn 0.694168 -0.20198677 -0.6908924
vn 0.5682083 -0.22069575 -0.7927375
vn 0.68829113 -0.022902189 -0.725073
vn 0.56576836 0.009082586 -0.82451427
vn 0.8400793 -0.13721946 -0.52482146
vn 0.7301883 0.1881069 -0.6568415
vn 0.6041892 0.2796761 -0.7461478
vn 0.86880934 -0.23222345 -0.43731296
vn 0.8105783 -0.04946452 -0.5835376
vn 0.7721712 0.36619464 -0.5192812
vn 0.6590965 0.49506858 -0.5661263
vn 0.9113552 -0.010487499 -0.41148722
vn 0.85392505 0.06686229 -0.51608276
vn 0.83246917 0.42504892 -0.355427
vn 0.7285927 0.58190304 -0.3613054
vn 0.87060237 0.19646083 -0.45105952
vn 0.9470035 -0.07806905 -0.31159216
vn 0.9181609 0.1764801 -0.35473272
vn 0.90016174 0.39459702 -0.18439631
vn 0.8143602 0.55919915 -0.15528618
vn 0.9630868 0.13151914 -0.23487598
vn 0.94992614 0.31176725 -0.02100932
vn 0.883982 0.46654037 0.030263402
vn 0.96740043 -0.14564854 -0.20717818
vn 0.99191487 0.06387702 -0.109656826
vn 0.9687876 0.21654946 0.12065172
vn 0.91382366 0.36085814 0.18629989
vn 0.88961494 -0.40192527 -0.21689013
vn 0.9998965 -0.010342679 0.010000395
vn 0.97213304 -0.21247499 -0.09905451
vn 0.9570122 0.13494878 0.2567421
vn 0.9057454 0.26035374 0.3344267
vn 0.877215 -0.47111806 -0.092421316
vn 0.9868335 -0.08180242 0.13952787
vn 0.95978445 -0.27985764 0.022216823
vn 0.9066489 0.03853782 0.42012215
vn 0.85787237 0.13777721 0.4950479
vn 0.7189414 -0.6934241 -0.047814712
vn 0.6511958 -0.74796104 0.12844609
vn 0.8414744 -0.5365001 0.06394146
vn 0.7018117 -0.7038743 0.10964174
vn 0.68805116 -0.64235836 0.3375817
vn 0.764066 -0.597803 0.24255887
vn 0.7088759 -0.4867391 0.5104704
vn 0.9141458 -0.35947663 0.18738702
vn 0.80549043 -0.44608706 0.3901173
vn 0.72818416 -0.2864347 0.622658
vn 0.9364377 -0.16487168 0.30968
vn 0.8221289 -0.25656864 0.5082092
vn 0.7770194 -0.05244894 0.62728775
vn 0.82488817 -0.07368241 0.5604733
g pm0009_51_LArmClosedSkin_0
f 3/3/3 2/2/2 1/1/1
f 4/4/4 3/3/3 1/1/1
f 1/1/1 2/2/2 5/5/5
f 2/2/2 6/6/6 5/5/5
f 5/5/5 6/6/6 7/7/7
f 8/8/8 2/2/2 3/3/3
f 6/6/6 2/2/2 8/8/8
f 6/6/6 9/9/9 7/7/7
f 7/7/7 9/9/9 10/10/10
f 11/11/11 3/3/3 4/4/4
f 12/12/12 11/11/11 4/4/4
f 13/13/13 11/11/11 12/12/12
f 14/14/14 13/13/13 12/12/12
f 3/3/3 11/11/11 15/15/15
f 11/11/11 13/13/13 15/15/15
f 16/16/16 13/13/13 14/14/14
f 17/17/17 16/16/16 14/14/14
f 18/18/18 8/8/8 3/3/3
f 18/18/18 3/3/3 15/15/15
f 13/13/13 19/19/19 15/15/15
f 13/13/13 16/16/16 19/19/19
f 20/20/20 16/16/16 17/17/17
f 21/21/21 20/20/20 17/17/17
f 18/18/18 15/15/15 22/22/22
f 22/22/22 15/15/15 19/19/19
f 16/16/16 23/23/23 19/19/19
f 16/16/16 20/20/20 23/23/23
f 23/23/23 22/22/22 19/19/19
f 24/24/24 20/20/20 21/21/21
f 25/25/25 24/24/24 21/21/21
f 20/20/20 26/26/26 23/23/23
f 22/22/22 23/23/23 26/26/26
f 20/20/20 24/24/24 26/26/26
f 27/27/27 18/18/18 22/22/22
f 18/18/18 27/27/27 8/8/8
f 28/28/28 22/22/22 26/26/26
f 24/24/24 28/28/28 26/26/26
f 27/27/27 22/22/22 28/28/28
f 29/29/29 24/24/24 25/25/25
f 24/24/24 29/29/29 28/28/28
f 30/30/30 29/29/29 25/25/25
f 31/31/31 27/27/27 28/28/28
f 29/29/29 31/31/31 28/28/28
f 32/32/32 29/29/29 30/30/30
f 29/29/29 32/32/32 31/31/31
f 33/33/33 32/32/32 30/30/30
f 27/27/27 34/34/34 8/8/8
f 27/27/27 31/31/31 34/34/34
f 32/32/32 35/35/35 31/31/31
f 31/31/31 35/35/35 34/34/34
f 36/36/36 32/32/32 33/33/33
f 37/37/37 36/36/36 33/33/33
f 8/8/8 34/34/34 38/38/38
f 38/38/38 6/6/6 8/8/8
f 9/9/9 6/6/6 38/38/38
f 39/39/39 35/35/35 32/32/32
f 36/36/36 39/39/39 32/32/32
f 34/34/34 35/35/35 40/40/40
f 34/34/34 40/40/40 38/38/38
f 35/35/35 39/39/39 40/40/40
f 41/41/41 36/36/36 37/37/37
f 42/42/42 41/41/41 37/37/37
f 43/43/43 9/9/9 38/38/38
f 38/38/38 40/40/40 43/43/43
f 44/44/44 39/39/39 36/36/36
f 41/41/41 44/44/44 36/36/36
f 40/40/40 39/39/39 45/45/45
f 40/40/40 45/45/45 43/43/43
f 39/39/39 44/44/44 45/45/45
f 46/46/46 41/41/41 42/42/42
f 47/47/47 46/46/46 42/42/42
f 48/48/48 9/9/9 43/43/43
f 9/9/9 48/48/48 10/10/10
f 10/10/10 48/48/48 49/49/49
f 43/43/43 45/45/45 50/50/50
f 50/50/50 48/48/48 43/43/43
f 48/48/48 51/51/51 49/49/49
f 51/51/51 48/48/48 50/50/50
f 49/49/49 51/51/51 52/52/52
f 51/51/51 53/53/53 52/52/52
f 53/53/53 51/51/51 50/50/50
f 52/52/52 53/53/53 54/54/54
f 45/45/45 55/55/55 50/50/50
f 50/50/50 55/55/55 53/53/53
f 45/45/45 44/44/44 55/55/55
f 53/53/53 56/56/56 54/54/54
f 55/55/55 56/56/56 53/53/53
f 54/54/54 56/56/56 57/57/57
f 44/44/44 58/58/58 55/55/55
f 55/55/55 58/58/58 56/56/56
f 58/58/58 44/44/44 41/41/41
f 46/46/46 58/58/58 41/41/41
f 56/56/56 59/59/59 57/57/57
f 58/58/58 59/59/59 56/56/56
f 59/59/59 58/58/58 46/46/46
f 57/57/57 59/59/59 60/60/60
f 61/61/61 59/59/59 46/46/46
f 59/59/59 61/61/61 60/60/60
f 61/61/61 46/46/46 47/47/47
f 60/60/60 61/61/61 47/47/47
