g pm0076_61_RockIncBASkin
v 0.24082269 1.2985643 0.40757623
v 0.20955059 1.2904458 0.40942577
v 0.24118124 1.2945964 0.41007853
v 0.20785184 1.2945465 0.40678406
v 0.23835973 1.3241329 0.4056631
v 0.20654611 1.3224843 0.4040901
v 0.17239606 1.2978026 0.4246732
v 0.17154837 1.3019993 0.42182872
v 0.17728426 1.280909 0.44900507
v 0.16983812 1.301416 0.4257202
v 0.17066085 1.3161416 0.4160667
v 0.16842748 1.31601 0.4201557
v 0.20451541 1.344839 0.4100455
v 0.23835973 1.3241329 0.4056631
v 0.23620051 1.3458216 0.41057837
v 0.16892388 1.3315625 0.42438364
v 0.17155483 1.3189807 0.4752777
v 0.17148256 1.3320652 0.41988385
v 0.20429735 1.3488507 0.41336405
v 0.17086586 1.3358749 0.42455375
v 0.23578875 1.3497747 0.4131724
v 0.23620051 1.3458216 0.41057837
v 0.23433161 1.3643248 0.43902716
v 0.20537998 1.3642645 0.43912604
v 0.17402771 1.3395904 0.47083393
v 0.1757173 1.3434186 0.46997958
v 0.17724183 1.3409942 0.47498867
v 0.20463276 1.3601588 0.4795842
v 0.23433161 1.3643248 0.43902716
v 0.23417677 1.3595295 0.4750852
v 0.20317534 1.3565578 0.48303813
v 0.23443885 1.3564731 0.47832504
v 0.23417677 1.3595295 0.4750852
v 0.2365323 1.3343306 0.48364696
v 0.20616801 1.3308231 0.49035242
v 0.17448206 1.3203169 0.47921488
v 0.17431247 1.2975307 0.47527954
v 0.20894672 1.2976071 0.48920843
v 0.2365323 1.3343306 0.48364696
v 0.23973922 1.3012408 0.48430142
v 0.17764276 1.2988828 0.47914976
v 0.17400976 1.2849848 0.44919077
v 0.17846866 1.2944561 0.47637492
v 0.20910837 1.2932355 0.48654792
v 0.21003179 1.2684602 0.44799057
v 0.24280761 1.273928 0.4455909
v 0.24118124 1.2945964 0.41007853
v 0.24280761 1.273928 0.4455909
v 0.24016204 1.2971494 0.4819346
v 0.23973922 1.3012408 0.48430142
v -0.24082269 1.2985643 0.40757623
v -0.24118124 1.2945964 0.41007853
v -0.20955059 1.2904458 0.40942577
v -0.20785184 1.2945465 0.40678406
v -0.23835973 1.3241329 0.4056631
v -0.20654611 1.3224843 0.4040901
v -0.17239606 1.2978026 0.4246732
v -0.17154837 1.3019993 0.42182872
v -0.17728426 1.280909 0.44900507
v -0.16983812 1.301416 0.4257202
v -0.17066085 1.3161416 0.4160667
v -0.16842748 1.31601 0.4201557
v -0.20451541 1.344839 0.4100455
v -0.23835973 1.3241329 0.4056631
v -0.23620051 1.3458216 0.41057837
v -0.16892388 1.3315625 0.42438364
v -0.17155483 1.3189807 0.4752777
v -0.17148256 1.3320652 0.41988385
v -0.20429735 1.3488507 0.41336405
v -0.17086586 1.3358749 0.42455375
v -0.23578875 1.3497747 0.4131724
v -0.23620051 1.3458216 0.41057837
v -0.23433161 1.3643248 0.43902716
v -0.20537998 1.3642645 0.43912604
v -0.17402771 1.3395904 0.47083393
v -0.1757173 1.3434186 0.46997958
v -0.17724183 1.3409942 0.47498867
v -0.20463276 1.3601588 0.4795842
v -0.23433161 1.3643248 0.43902716
v -0.23417677 1.3595295 0.4750852
v -0.20317534 1.3565578 0.48303813
v -0.23443885 1.3564731 0.47832504
v -0.23417677 1.3595295 0.4750852
v -0.2365323 1.3343306 0.48364696
v -0.20616801 1.3308231 0.49035242
v -0.17448206 1.3203169 0.47921488
v -0.17431247 1.2975307 0.47527954
v -0.20894672 1.2976071 0.48920843
v -0.2365323 1.3343306 0.48364696
v -0.23973922 1.3012408 0.48430142
v -0.17400976 1.2849848 0.44919077
v -0.17764276 1.2988828 0.47914976
v -0.17846866 1.2944561 0.47637492
v -0.20910837 1.2932355 0.48654792
v -0.21003179 1.2684602 0.44799057
v -0.24280761 1.273928 0.4455909
v -0.24118124 1.2945964 0.41007853
v -0.24280761 1.273928 0.4455909
v -0.24016204 1.2971494 0.4819346
v -0.23973922 1.3012408 0.48430142
vt 0.73752147 0.52116585
vt 0.78950995 0.5396943
vt 0.7439915 0.5182655
vt 0.7817853 0.5429878
vt 0.6976081 0.53603244
vt 0.7331737 0.56339145
vt 0.81523323 0.56717515
vt 0.80804735 0.5693097
vt 0.8540737 0.56470466
vt 0.8150115 0.5712502
vt 0.7917934 0.5750303
vt 0.8004488 0.5775361
vt 0.72665006 0.5905714
vt 0.67024773 0.56066656
vt 0.66630524 0.5830989
vt 0.79494977 0.5876999
vt 0.8583163 0.6002612
vt 0.78495336 0.58550906
vt 0.7288799 0.5960221
vt 0.78957474 0.5905502
vt 0.6740197 0.6087525
vt 0.66990936 0.60491633
vt 0.6947814 0.6352687
vt 0.7516964 0.6284609
vt 0.8393249 0.6110406
vt 0.83469045 0.6142292
vt 0.84559566 0.6150937
vt 0.83822155 0.6423154
vt 0.735594 0.65752983
vt 0.80548877 0.6681478
vt 0.84772813 0.64002085
vt 0.8732739 0.6667166
vt 0.86577356 0.668509
vt 0.9172916 0.6618531
vt 0.9089216 0.62932944
vt 0.8642593 0.60344696
vt 0.86689264 0.58567023
vt 0.9295059 0.59098315
vt 0.9727034 0.63595057
vt 0.9889765 0.60339475
vt 0.87611544 0.5884712
vt 0.85066706 0.5686536
vt 0.8760481 0.58357453
vt 0.927188 0.5859504
vt 0.88372356 0.5407889
vt 0.8731996 0.50780725
vt 0.7923989 0.5077455
vt 0.9476255 0.52951026
vt 0.97982615 0.5698235
vt 0.9838529 0.57381344
vt 0.7375214 0.52116585
vt 0.74399143 0.5182655
vt 0.78951 0.5396943
vt 0.78178537 0.5429878
vt 0.6976081 0.53603244
vt 0.73317367 0.56339145
vt 0.8152333 0.5671754
vt 0.8080473 0.5693097
vt 0.8540739 0.56470466
vt 0.8150115 0.5712502
vt 0.7917935 0.5750303
vt 0.80044883 0.5775361
vt 0.72665 0.5905714
vt 0.67024773 0.56066656
vt 0.66630524 0.5830989
vt 0.7949499 0.5876999
vt 0.8583163 0.6002612
vt 0.7849535 0.58550906
vt 0.7288801 0.5960221
vt 0.78957486 0.5905502
vt 0.67401963 0.6087525
vt 0.66990936 0.60491633
vt 0.69478136 0.6352687
vt 0.7516965 0.6284609
vt 0.8393249 0.6110406
vt 0.8346906 0.6142292
vt 0.84559566 0.6150937
vt 0.83822167 0.6423154
vt 0.73559386 0.65752983
vt 0.8054887 0.66814756
vt 0.84772813 0.64002085
vt 0.87327385 0.6667166
vt 0.8657735 0.668509
vt 0.9172915 0.6618531
vt 0.90892166 0.62932944
vt 0.86425924 0.60344696
vt 0.8668928 0.58567023
vt 0.9295058 0.59098315
vt 0.97270334 0.63595057
vt 0.98897636 0.60339475
vt 0.850667 0.5686536
vt 0.87611556 0.5884712
vt 0.8760481 0.58357453
vt 0.927188 0.5859504
vt 0.88372356 0.5407889
vt 0.8731995 0.50780725
vt 0.79239887 0.5077455
vt 0.9476255 0.52951026
vt 0.9798262 0.5698235
vt 0.983853 0.57381344
vn 0.047293536 -0.11943852 -0.99171454
vn -0.0988325 -0.8472241 -0.5219613
vn 0.1139338 -0.84621835 -0.5205129
vn -0.15258574 -0.18981454 -0.9698907
vn 0.03462458 0.060594324 -0.9975618
vn -0.15457499 0.03880239 -0.98721886
vn -0.37230223 -0.7930998 -0.48206186
vn -0.38186854 -0.24562748 -0.890979
vn -0.35835177 -0.9326267 -0.042324297
vn -0.99058235 -0.1267296 0.05182874
vn -0.37790823 -0.0266149 -0.9254604
vn -0.998938 -0.013569653 0.044031262
vn -0.17353259 0.28645787 -0.94224644
vn 0.03462458 0.060594324 -0.9975618
vn 0.019401195 0.2758168 -0.9610145
vn -0.9927521 0.10779346 0.05314135
vn -0.99447626 -0.012293517 0.10423946
vn -0.39014563 0.26664346 -0.8812988
vn -0.19792472 0.82974833 -0.52186537
vn -0.62312996 0.75625527 -0.19946687
vn -0.016727269 0.8471659 -0.53106505
vn 0.019401195 0.2758168 -0.9610145
vn 0.0029007199 0.9848193 -0.17355867
vn -0.22884646 0.96044123 -0.15868823
vn -0.9878798 0.122419715 0.09542989
vn -0.6181743 0.7855582 0.027545325
vn -0.43698126 0.2631144 0.86012685
vn -0.19057307 0.9695164 0.15401217
vn 0.0029007199 0.9848193 -0.17355867
vn 0.024344204 0.98856145 0.148841
vn -0.120111585 0.31165278 0.942574
vn 0.15850352 0.30662784 0.9385393
vn 0.024344204 0.98856145 0.148841
vn 0.17619036 0.12485302 0.97640604
vn -0.075059116 0.106307745 0.9914963
vn -0.37839347 0.047886968 0.92440534
vn -0.98238534 -0.14616857 0.116420865
vn -0.04344999 -0.059924714 0.9972568
vn 0.17619036 0.12485302 0.97640604
vn 0.18760106 -0.026243566 0.9818947
vn -0.3388728 -0.09521275 0.936002
vn -0.9579898 -0.2769052 0.07469284
vn -0.27636576 -0.8192956 0.5023711
vn -0.012338101 -0.8341144 0.55145353
vn -0.067642555 -0.9975777 0.016220089
vn 0.17157151 -0.98513967 0.007940649
vn 0.1139338 -0.84621835 -0.5205129
vn 0.17157151 -0.98513967 0.007940649
vn 0.18140006 -0.81263745 0.5538179
vn 0.18760106 -0.026243566 0.9818947
vn -0.047293782 -0.119438395 -0.99171454
vn -0.113933966 -0.8462188 -0.52051187
vn 0.09883224 -0.84722453 -0.5219605
vn 0.1525861 -0.1898141 -0.96989083
vn -0.034624755 0.060594793 -0.9975617
vn 0.15457511 0.038802385 -0.98721874
vn 0.37230203 -0.7931002 -0.4820615
vn 0.3818692 -0.245627 -0.8909789
vn 0.35835168 -0.93262684 -0.042324185
vn 0.99058235 -0.1267296 0.051828496
vn 0.37790868 -0.026615318 -0.92546016
vn 0.998938 -0.013569533 0.04403102
vn 0.173532 0.28645715 -0.94224674
vn -0.034624755 0.060594793 -0.9975617
vn -0.019401431 0.2758166 -0.9610145
vn 0.9927227 0.10891865 0.05136513
vn 0.99447626 -0.012293457 0.10423946
vn 0.3901448 0.2666427 -0.88129944
vn 0.19792482 0.82974803 -0.52186584
vn 0.62220836 0.7572367 -0.19861822
vn 0.016727567 0.8471654 -0.531066
vn -0.019401431 0.2758166 -0.9610145
vn -0.002900481 0.98481905 -0.1735597
vn 0.22884664 0.9604411 -0.15868853
vn 0.98756826 0.12376891 0.09690283
vn 0.61735874 0.78624564 0.026188966
vn 0.43698114 0.2631138 0.8601271
vn 0.1905733 0.9695162 0.15401337
vn -0.002900481 0.98481905 -0.1735597
vn -0.024344085 0.9885616 0.1488403
vn 0.12011135 0.3116517 0.94257444
vn -0.15850344 0.30662698 0.9385395
vn -0.024344085 0.9885616 0.1488403
vn -0.17619035 0.12485266 0.97640604
vn 0.075059295 0.10630775 0.9914963
vn 0.37839374 0.04788708 0.9244053
vn 0.98238534 -0.14616859 0.11642062
vn 0.043449517 -0.05992418 0.99725693
vn -0.17619035 0.12485266 0.97640604
vn -0.18760096 -0.026243566 0.9818947
vn 0.95799 -0.27690485 0.074692
vn 0.33887222 -0.09521175 0.9360023
vn 0.2763658 -0.81929576 0.5023709
vn 0.012337922 -0.8341145 0.5514534
vn 0.06764244 -0.99757785 0.016219852
vn -0.17157157 -0.98513967 0.007940173
vn -0.113933966 -0.8462188 -0.52051187
vn -0.17157157 -0.98513967 0.007940173
vn -0.18140016 -0.8126376 0.5538177
vn -0.18760096 -0.026243566 0.9818947
g pm0076_61_RockIncBASkin_0
f 3/3/3 2/2/2 1/1/1
f 2/2/2 4/4/4 1/1/1
f 1/1/1 4/4/4 5/5/5
f 4/4/4 6/6/6 5/5/5
f 2/2/2 7/7/7 4/4/4
f 4/4/4 8/8/8 6/6/6
f 7/7/7 8/8/8 4/4/4
f 9/9/9 7/7/7 2/2/2
f 7/7/7 10/10/10 8/8/8
f 7/7/7 9/9/9 10/10/10
f 8/8/8 11/11/11 6/6/6
f 8/8/8 10/10/10 12/12/12
f 11/11/11 8/8/8 12/12/12
f 6/6/6 11/11/11 13/13/13
f 14/14/14 6/6/6 13/13/13
f 15/15/15 14/14/14 13/13/13
f 12/12/12 16/16/16 11/11/11
f 12/12/12 10/10/10 17/17/17
f 16/16/16 12/12/12 17/17/17
f 11/11/11 18/18/18 13/13/13
f 16/16/16 18/18/18 11/11/11
f 13/13/13 18/18/18 19/19/19
f 20/20/20 18/18/18 16/16/16
f 18/18/18 20/20/20 19/19/19
f 13/13/13 19/19/19 21/21/21
f 22/22/22 13/13/13 21/21/21
f 21/21/21 19/19/19 23/23/23
f 19/19/19 24/24/24 23/23/23
f 19/19/19 20/20/20 24/24/24
f 20/20/20 16/16/16 25/25/25
f 25/25/25 16/16/16 17/17/17
f 20/20/20 26/26/26 24/24/24
f 26/26/26 20/20/20 25/25/25
f 27/27/27 25/25/25 17/17/17
f 27/27/27 26/26/26 25/25/25
f 26/26/26 28/28/28 24/24/24
f 29/29/29 24/24/24 28/28/28
f 30/30/30 29/29/29 28/28/28
f 28/28/28 26/26/26 31/31/31
f 26/26/26 27/27/27 31/31/31
f 28/28/28 31/31/31 32/32/32
f 33/33/33 28/28/28 32/32/32
f 32/32/32 31/31/31 34/34/34
f 31/31/31 35/35/35 34/34/34
f 31/31/31 27/27/27 35/35/35
f 36/36/36 27/27/27 17/17/17
f 27/27/27 36/36/36 35/35/35
f 36/36/36 17/17/17 37/37/37
f 10/10/10 37/37/37 17/17/17
f 35/35/35 36/36/36 38/38/38
f 39/39/39 35/35/35 38/38/38
f 40/40/40 39/39/39 38/38/38
f 41/41/41 36/36/36 37/37/37
f 36/36/36 41/41/41 38/38/38
f 42/42/42 37/37/37 10/10/10
f 9/9/9 42/42/42 10/10/10
f 43/43/43 37/37/37 42/42/42
f 41/41/41 37/37/37 43/43/43
f 9/9/9 43/43/43 42/42/42
f 38/38/38 41/41/41 44/44/44
f 41/41/41 43/43/43 44/44/44
f 43/43/43 9/9/9 45/45/45
f 44/44/44 43/43/43 45/45/45
f 45/45/45 9/9/9 2/2/2
f 46/46/46 45/45/45 2/2/2
f 47/47/47 46/46/46 2/2/2
f 44/44/44 45/45/45 48/48/48
f 49/49/49 44/44/44 48/48/48
f 38/38/38 44/44/44 49/49/49
f 50/50/50 38/38/38 49/49/49
f 53/53/53 52/52/52 51/51/51
f 54/54/54 53/53/53 51/51/51
f 54/54/54 51/51/51 55/55/55
f 56/56/56 54/54/54 55/55/55
f 57/57/57 53/53/53 54/54/54
f 58/58/58 54/54/54 56/56/56
f 58/58/58 57/57/57 54/54/54
f 57/57/57 59/59/59 53/53/53
f 60/60/60 57/57/57 58/58/58
f 59/59/59 57/57/57 60/60/60
f 61/61/61 58/58/58 56/56/56
f 60/60/60 58/58/58 62/62/62
f 58/58/58 61/61/61 62/62/62
f 61/61/61 56/56/56 63/63/63
f 56/56/56 64/64/64 63/63/63
f 64/64/64 65/65/65 63/63/63
f 66/66/66 62/62/62 61/61/61
f 60/60/60 62/62/62 67/67/67
f 62/62/62 66/66/66 67/67/67
f 68/68/68 61/61/61 63/63/63
f 68/68/68 66/66/66 61/61/61
f 68/68/68 63/63/63 69/69/69
f 68/68/68 70/70/70 66/66/66
f 70/70/70 68/68/68 69/69/69
f 69/69/69 63/63/63 71/71/71
f 63/63/63 72/72/72 71/71/71
f 69/69/69 71/71/71 73/73/73
f 74/74/74 69/69/69 73/73/73
f 70/70/70 69/69/69 74/74/74
f 66/66/66 70/70/70 75/75/75
f 66/66/66 75/75/75 67/67/67
f 76/76/76 70/70/70 74/74/74
f 70/70/70 76/76/76 75/75/75
f 75/75/75 77/77/77 67/67/67
f 76/76/76 77/77/77 75/75/75
f 78/78/78 76/76/76 74/74/74
f 74/74/74 79/79/79 78/78/78
f 79/79/79 80/80/80 78/78/78
f 76/76/76 78/78/78 81/81/81
f 77/77/77 76/76/76 81/81/81
f 81/81/81 78/78/78 82/82/82
f 78/78/78 83/83/83 82/82/82
f 81/81/81 82/82/82 84/84/84
f 85/85/85 81/81/81 84/84/84
f 77/77/77 81/81/81 85/85/85
f 77/77/77 86/86/86 67/67/67
f 86/86/86 77/77/77 85/85/85
f 67/67/67 86/86/86 87/87/87
f 87/87/87 60/60/60 67/67/67
f 86/86/86 85/85/85 88/88/88
f 85/85/85 89/89/89 88/88/88
f 89/89/89 90/90/90 88/88/88
f 87/87/87 91/91/91 60/60/60
f 91/91/91 59/59/59 60/60/60
f 86/86/86 92/92/92 87/87/87
f 92/92/92 86/86/86 88/88/88
f 87/87/87 93/93/93 91/91/91
f 93/93/93 59/59/59 91/91/91
f 87/87/87 92/92/92 93/93/93
f 92/92/92 88/88/88 94/94/94
f 93/93/93 92/92/92 94/94/94
f 59/59/59 93/93/93 95/95/95
f 93/93/93 94/94/94 95/95/95
f 59/59/59 95/95/95 53/53/53
f 95/95/95 96/96/96 53/53/53
f 96/96/96 97/97/97 53/53/53
f 95/95/95 94/94/94 98/98/98
f 94/94/94 99/99/99 98/98/98
f 94/94/94 88/88/88 99/99/99
f 88/88/88 100/100/100 99/99/99
