g pm0058_41_TeethSkin
v 0.05609574 0.49487972 0.19569713
v 0.063313276 0.48174116 0.1877039
v 0.061475538 0.49469227 0.18625209
v 0.05821802 0.481924 0.19670908
v 0.058227558 0.49588367 0.20427997
v 0.06783611 0.46727583 0.19194855
v 0.06029628 0.48288962 0.20492622
v 0.06662056 0.49711624 0.20697413
v 0.0650633 0.46740237 0.1971584
v 0.071325704 0.45949203 0.19535698
v 0.06832926 0.48407272 0.20754296
v 0.0763593 0.49785477 0.20219949
v 0.070385806 0.45955753 0.1973796
v 0.07355724 0.45737213 0.19765016
v 0.06650097 0.46800452 0.20208743
v 0.07112853 0.4598251 0.19943044
v 0.071307115 0.46872932 0.20384842
v 0.07761223 0.48477957 0.2030247
v 0.07311871 0.460138 0.20030782
v 0.07666622 0.4691523 0.20140974
v 0.08270761 0.48459712 0.19401962
v 0.081739195 0.4976676 0.1927545
v 0.07960734 0.4966634 0.18417157
v 0.07519053 0.46031332 0.19949804
v 0.0794392 0.4690258 0.1962
v 0.08062928 0.4836312 0.18580239
v 0.07121441 0.49543113 0.18147755
v 0.07613037 0.46024793 0.1974753
v 0.072596334 0.48244837 0.18318577
v 0.061475538 0.49469227 0.18625209
v 0.063313276 0.48174116 0.1877039
v 0.078001484 0.46842378 0.1912708
v 0.07319533 0.46769905 0.18950981
v 0.06783611 0.46727583 0.19194855
v 0.07538774 0.45998022 0.19542457
v 0.07339752 0.45966727 0.19454712
v 0.071325704 0.45949203 0.19535698
v -0.056095712 0.49487972 0.19569713
v -0.061475523 0.49469233 0.18625209
v -0.06331325 0.48174116 0.1877039
v -0.058218002 0.48192406 0.19670905
v -0.05822752 0.4958837 0.20428
v -0.06783609 0.4672758 0.19194852
v -0.06029625 0.48288953 0.20492622
v -0.06662056 0.49711627 0.20697416
v -0.06506327 0.46740234 0.19715837
v -0.071325704 0.45949203 0.19535694
v -0.0683292 0.48407263 0.20754296
v -0.07635931 0.4978548 0.20219955
v -0.07038576 0.45955753 0.1973796
v -0.07355722 0.45737213 0.19765016
v -0.06650091 0.46800452 0.2020874
v -0.07112852 0.4598251 0.19943047
v -0.07130712 0.46872932 0.20384842
v -0.07761223 0.48477957 0.2030247
v -0.07311871 0.46013817 0.20030782
v -0.07666626 0.46915233 0.20140976
v -0.08270758 0.48459712 0.19401959
v -0.081739195 0.49766752 0.19275455
v -0.07960728 0.4966634 0.18417157
v -0.07519051 0.46031338 0.19949806
v -0.07943916 0.4690257 0.19619998
v -0.08062923 0.48363128 0.18580239
v -0.07121433 0.4954311 0.18147755
v -0.07613037 0.46024802 0.19747527
v -0.07259634 0.48244837 0.18318573
v -0.061475523 0.49469233 0.18625209
v -0.06331325 0.48174116 0.1877039
v -0.078001425 0.46842384 0.19127077
v -0.07319532 0.4676991 0.1895098
v -0.06783609 0.4672758 0.19194852
v -0.075387746 0.4599803 0.19542457
v -0.073397465 0.45966727 0.19454712
v -0.071325704 0.45949203 0.19535694
vt 0.80566 0.7002454
vt 0.8049364 0.71121377
vt 0.7942891 0.70450944
vt 0.81408167 0.7069909
vt 0.8160839 0.69755614
vt 0.81586593 0.7190929
vt 0.8218076 0.7045607
vt 0.82727385 0.6960915
vt 0.8206922 0.71615076
vt 0.8222007 0.7264267
vt 0.8302088 0.70334965
vt 0.84083354 0.6957167
vt 0.8264066 0.72281015
vt 0.8422267 0.7325616
vt 0.8259727 0.71317035
vt 0.8303175 0.7202257
vt 0.8333304 0.71134794
vt 0.84083354 0.70292205
vt 0.83551663 0.7187001
vt 0.8408339 0.71105397
vt 0.85147095 0.70332736
vt 0.85439324 0.6960915
vt 0.8655833 0.69755596
vt 0.8411554 0.71822524
vt 0.85030735 0.7110141
vt 0.8598888 0.70452076
vt 0.8760071 0.70024526
vt 0.8469287 0.7187043
vt 0.8676157 0.70695823
vt 0.8873781 0.7045093
vt 0.87673104 0.71121365
vt 0.8581253 0.7131501
vt 0.8643491 0.71763426
vt 0.87094486 0.72241473
vt 0.8538351 0.7217973
vt 0.8592272 0.724744
vt 0.86364615 0.72760546
vt 0.8056602 0.7002454
vt 0.79428905 0.7045094
vt 0.80493635 0.7112137
vt 0.81408185 0.7069909
vt 0.8160839 0.69755614
vt 0.815866 0.71909285
vt 0.8218075 0.7045607
vt 0.82727385 0.6960915
vt 0.8206922 0.71615076
vt 0.82220125 0.7264267
vt 0.8302092 0.7033497
vt 0.84083354 0.6957167
vt 0.82640755 0.72281015
vt 0.8422267 0.7325616
vt 0.8259726 0.71317035
vt 0.83031815 0.7202257
vt 0.8333305 0.71134794
vt 0.84083354 0.702922
vt 0.8355165 0.7187001
vt 0.84083384 0.71105397
vt 0.851471 0.70332736
vt 0.8543935 0.6960915
vt 0.8655838 0.69755596
vt 0.8411553 0.71822524
vt 0.8503072 0.71101415
vt 0.85988915 0.7045207
vt 0.8760075 0.70024526
vt 0.84692883 0.71870434
vt 0.867616 0.70695823
vt 0.8873781 0.7045093
vt 0.8767314 0.71121365
vt 0.85812545 0.71315014
vt 0.8643489 0.71763426
vt 0.8709451 0.72241473
vt 0.8538351 0.72179747
vt 0.85922754 0.724744
vt 0.86364603 0.72760546
vn -0.9712947 -0.21034878 -0.11108551
vn -0.6440923 -0.31511405 -0.6970281
vn -0.6650328 -0.21435808 -0.7153893
vn -0.94100714 -0.32325935 -0.1000451
vn -0.71286833 -0.12489841 0.69008636
vn -0.593995 -0.4740618 -0.6499503
vn -0.6815461 -0.25371385 0.6863848
vn 0.06373562 0.009600377 0.9979207
vn -0.86649686 -0.4935477 -0.07479185
vn -0.46708733 -0.7120715 -0.524198
vn 0.07746611 -0.106663264 0.99127287
vn 0.6819498 0.071882956 0.72785795
vn -0.6888649 -0.72454184 -0.022456322
vn 0.11797654 -0.9891778 0.087228015
vn -0.6100732 -0.44254485 0.65724033
vn -0.4645954 -0.6784952 0.5690301
vn 0.09236147 -0.2886973 0.95295507
vn 0.68538034 -0.032370158 0.7274654
vn 0.102255955 -0.55419564 0.82608175
vn 0.67478114 -0.20297183 0.70955807
vn 0.9881599 -0.073379904 0.13474198
vn 0.99111825 0.043438554 0.12568836
vn 0.73625106 -0.07202516 -0.6728646
vn 0.6101975 -0.48010612 0.6302041
vn 0.9561003 -0.25711673 0.14058179
vn 0.7356547 -0.20192616 -0.64655864
vn -0.043922894 -0.17651173 -0.9833181
vn 0.83917505 -0.52734685 0.13300598
vn -0.030385695 -0.2899819 -0.9565496
vn -0.6650328 -0.21435808 -0.7153893
vn -0.6440923 -0.31511405 -0.6970281
vn 0.7095866 -0.3942997 -0.5839645
vn -0.0030946108 -0.4619825 -0.8868837
vn -0.593995 -0.4740618 -0.6499503
vn 0.62187994 -0.63891345 -0.45282996
vn 0.047251657 -0.6977234 -0.71480715
vn -0.46708733 -0.7120715 -0.524198
vn 0.9712947 -0.21034896 -0.111085504
vn 0.6650346 -0.21435812 -0.71538776
vn 0.64409244 -0.31511372 -0.6970281
vn 0.94100714 -0.3232586 -0.100047156
vn 0.71286756 -0.12490003 0.6900867
vn 0.5939931 -0.47406098 -0.64995253
vn 0.68154675 -0.2537149 0.6863838
vn -0.06373629 0.009597317 0.9979207
vn 0.86649686 -0.4935471 -0.07479584
vn 0.467083 -0.71207154 -0.52420187
vn -0.0774649 -0.10666537 0.99127275
vn -0.6819503 0.071879745 0.7278579
vn 0.6888633 -0.7245432 -0.022459466
vn -0.117980674 -0.98917764 0.08722581
vn 0.61007375 -0.44254553 0.65723926
vn 0.4645924 -0.67849606 0.5690316
vn -0.09235989 -0.28869814 0.95295495
vn -0.68538153 -0.032372132 0.7274642
vn -0.10225642 -0.5541957 0.8260816
vn -0.67478275 -0.20297292 0.70955634
vn -0.98816025 -0.073381096 0.1347387
vn -0.9911185 0.04343661 0.12568738
vn -0.7362504 -0.07202513 -0.67286533
vn -0.61019844 -0.4801083 0.6302016
vn -0.9561008 -0.25711694 0.14057718
vn -0.735654 -0.20192555 -0.64655966
vn 0.043926235 -0.17651172 -0.98331785
vn -0.83917534 -0.5273474 0.13300186
vn 0.030386914 -0.28998172 -0.9565497
vn 0.6650346 -0.21435812 -0.71538776
vn 0.64409244 -0.31511372 -0.6970281
vn -0.7095854 -0.39429843 -0.58396685
vn 0.0030940715 -0.46198156 -0.88688415
vn 0.5939931 -0.47406098 -0.64995253
vn -0.6218788 -0.6389121 -0.4528333
vn -0.047254696 -0.6977218 -0.7148086
vn 0.467083 -0.71207154 -0.52420187
g pm0058_41_TeethSkin_0
f 3/3/3 2/2/2 1/1/1
f 2/2/2 4/4/4 1/1/1
f 1/1/1 4/4/4 5/5/5
f 2/2/2 6/6/6 4/4/4
f 4/4/4 7/7/7 5/5/5
f 5/5/5 7/7/7 8/8/8
f 6/6/6 9/9/9 4/4/4
f 4/4/4 9/9/9 7/7/7
f 6/6/6 10/10/10 9/9/9
f 7/7/7 11/11/11 8/8/8
f 8/8/8 11/11/11 12/12/12
f 10/10/10 13/13/13 9/9/9
f 13/13/13 10/10/10 14/14/14
f 9/9/9 15/15/15 7/7/7
f 9/9/9 13/13/13 15/15/15
f 7/7/7 15/15/15 11/11/11
f 13/13/13 16/16/16 15/15/15
f 16/16/16 13/13/13 14/14/14
f 15/15/15 17/17/17 11/11/11
f 15/15/15 16/16/16 17/17/17
f 11/11/11 18/18/18 12/12/12
f 11/11/11 17/17/17 18/18/18
f 16/16/16 19/19/19 17/17/17
f 19/19/19 16/16/16 14/14/14
f 17/17/17 19/19/19 20/20/20
f 17/17/17 20/20/20 18/18/18
f 12/12/12 18/18/18 21/21/21
f 22/22/22 12/12/12 21/21/21
f 22/22/22 21/21/21 23/23/23
f 19/19/19 24/24/24 20/20/20
f 24/24/24 19/19/19 14/14/14
f 18/18/18 20/20/20 25/25/25
f 21/21/21 18/18/18 25/25/25
f 20/20/20 24/24/24 25/25/25
f 21/21/21 26/26/26 23/23/23
f 21/21/21 25/25/25 26/26/26
f 23/23/23 26/26/26 27/27/27
f 24/24/24 28/28/28 25/25/25
f 28/28/28 24/24/24 14/14/14
f 26/26/26 29/29/29 27/27/27
f 27/27/27 29/29/29 30/30/30
f 29/29/29 31/31/31 30/30/30
f 25/25/25 32/32/32 26/26/26
f 25/25/25 28/28/28 32/32/32
f 26/26/26 32/32/32 29/29/29
f 29/29/29 33/33/33 31/31/31
f 32/32/32 33/33/33 29/29/29
f 33/33/33 34/34/34 31/31/31
f 28/28/28 35/35/35 32/32/32
f 35/35/35 28/28/28 14/14/14
f 32/32/32 35/35/35 33/33/33
f 33/33/33 36/36/36 34/34/34
f 35/35/35 36/36/36 33/33/33
f 36/36/36 35/35/35 14/14/14
f 36/36/36 37/37/37 34/34/34
f 37/37/37 36/36/36 14/14/14
f 40/40/40 39/39/39 38/38/38
f 41/41/41 40/40/40 38/38/38
f 41/41/41 38/38/38 42/42/42
f 43/43/43 40/40/40 41/41/41
f 44/44/44 41/41/41 42/42/42
f 44/44/44 42/42/42 45/45/45
f 46/46/46 43/43/43 41/41/41
f 46/46/46 41/41/41 44/44/44
f 47/47/47 43/43/43 46/46/46
f 48/48/48 44/44/44 45/45/45
f 48/48/48 45/45/45 49/49/49
f 50/50/50 47/47/47 46/46/46
f 47/47/47 50/50/50 51/51/51
f 52/52/52 46/46/46 44/44/44
f 50/50/50 46/46/46 52/52/52
f 52/52/52 44/44/44 48/48/48
f 53/53/53 50/50/50 52/52/52
f 50/50/50 53/53/53 51/51/51
f 54/54/54 52/52/52 48/48/48
f 53/53/53 52/52/52 54/54/54
f 55/55/55 48/48/48 49/49/49
f 54/54/54 48/48/48 55/55/55
f 56/56/56 53/53/53 54/54/54
f 53/53/53 56/56/56 51/51/51
f 56/56/56 54/54/54 57/57/57
f 57/57/57 54/54/54 55/55/55
f 55/55/55 49/49/49 58/58/58
f 49/49/49 59/59/59 58/58/58
f 58/58/58 59/59/59 60/60/60
f 61/61/61 56/56/56 57/57/57
f 56/56/56 61/61/61 51/51/51
f 57/57/57 55/55/55 62/62/62
f 55/55/55 58/58/58 62/62/62
f 61/61/61 57/57/57 62/62/62
f 63/63/63 58/58/58 60/60/60
f 62/62/62 58/58/58 63/63/63
f 63/63/63 60/60/60 64/64/64
f 65/65/65 61/61/61 62/62/62
f 61/61/61 65/65/65 51/51/51
f 66/66/66 63/63/63 64/64/64
f 66/66/66 64/64/64 67/67/67
f 68/68/68 66/66/66 67/67/67
f 69/69/69 62/62/62 63/63/63
f 65/65/65 62/62/62 69/69/69
f 69/69/69 63/63/63 66/66/66
f 70/70/70 66/66/66 68/68/68
f 70/70/70 69/69/69 66/66/66
f 71/71/71 70/70/70 68/68/68
f 72/72/72 65/65/65 69/69/69
f 65/65/65 72/72/72 51/51/51
f 72/72/72 69/69/69 70/70/70
f 73/73/73 70/70/70 71/71/71
f 73/73/73 72/72/72 70/70/70
f 72/72/72 73/73/73 51/51/51
f 74/74/74 73/73/73 71/71/71
f 73/73/73 74/74/74 51/51/51
