g pm0088_00_LiquidASkin
v 0.3725287 0.73452985 0.28238755
v 0.387179 0.7254318 0.26778758
v 0.36946598 0.73152554 0.26779383
v 0.36311644 0.748977 0.26779968
v 0.36950964 0.74901515 0.2853161
v 0.36923525 0.7665106 0.26780197
v 0.38714305 0.7316223 0.28540102
v 0.40171587 0.73472255 0.28237957
v 0.40480995 0.7317589 0.26778415
v 0.41092876 0.7492926 0.26778647
v 0.38702926 0.7491293 0.29163525
v 0.3723374 0.7635403 0.28239438
v 0.38686624 0.77283764 0.26779854
v 0.38691208 0.76663893 0.28540915
v 0.40152457 0.7637329 0.28238636
v 0.4045792 0.7667436 0.26779228
v 0.40454528 0.74924636 0.28530645
v 0.40151653 0.7637396 0.25319856
v 0.41092876 0.7492926 0.26778647
v 0.4045792 0.7667436 0.26779228
v 0.38686624 0.77283764 0.26779854
v 0.40453562 0.74925447 0.25027007
v 0.38690227 0.76664716 0.25018513
v 0.40170786 0.7347293 0.25319177
v 0.40480995 0.7317589 0.26778415
v 0.387179 0.7254318 0.26778758
v 0.38701606 0.74914014 0.24395093
v 0.37232932 0.76354706 0.25320655
v 0.36923525 0.7665106 0.26780197
v 0.36311644 0.748977 0.26779968
v 0.36949995 0.74902314 0.2502797
v 0.36946598 0.73152554 0.26779383
v 0.38713318 0.73163056 0.25017703
v 0.37252057 0.7345366 0.25319976
vt 0.43152416 0.05577083
vt 0.4453125 0.045885146
vt 0.42108923 0.05053726
vt 0.4115362 0.0625
vt 0.4297096 0.0625
vt 0.4207728 0.074524775
vt 0.4453125 0.05495651
vt 0.4588383 0.05586095
vt 0.4694102 0.050696686
vt 0.47864705 0.0625
vt 0.4453125 0.0625
vt 0.431345 0.06936033
vt 0.4453125 0.079336494
vt 0.4453125 0.07026504
vt 0.45865878 0.06945063
vt 0.4690941 0.0746841
vt 0.4604735 0.0625
vt 0.43196577 0.03016637
vt 0.411978 0.0234375
vt 0.4215308 0.03539984
vt 0.4453125 0.04005225
vt 0.4301514 0.0234375
vt 0.4453125 0.030980885
vt 0.43178645 0.016576797
vt 0.42121443 0.011412427
vt 0.4453125 0.0066009015
vt 0.4453125 0.0234375
vt 0.45928013 0.030076174
vt 0.4698522 0.035240546
vt 0.4790886 0.0234375
vt 0.4609151 0.0234375
vt 0.46953565 0.011253208
vt 0.4453125 0.015672281
vt 0.45910075 0.016486675
vn -0.5727359 -0.58121216 0.578071
vn 0.006600911 -0.9999782 -0.00023279572
vn -0.70248127 -0.7117022 3.0058909E-05
vn -0.9999783 -0.006593555 0.00027475745
vn -0.70617545 -0.004819842 0.7080205
vn -0.71180815 0.70237386 0.00035790604
vn 0.004860479 -0.70667577 0.7075207
vn 0.58067614 -0.5736025 0.57775027
vn 0.7118118 -0.70237017 -0.00035974776
vn 0.9999782 0.006597438 -0.00027530233
vn 0.0002786997 -0.00022867069 1
vn -0.58035225 0.5733404 0.57833564
vn -0.0065952144 0.9999783 0.00023186147
vn -0.004463021 0.70635223 0.70784646
vn 0.5730584 0.58094734 0.5780175
vn 0.7024818 0.7117017 -3.0058758E-05
vn 0.70656943 0.0044978084 0.7076294
vn 0.57273847 0.58121365 -0.57806695
vn 0.9999782 0.006597438 -0.00027530233
vn 0.7024818 0.7117017 -3.0058758E-05
vn -0.0065952144 0.9999783 0.00023186147
vn 0.70617723 0.004824181 -0.7080187
vn -0.004854884 0.706677 -0.70751953
vn 0.58035535 -0.5733353 -0.57833755
vn 0.7118118 -0.70237017 -0.00035974776
vn 0.006600911 -0.9999782 -0.00023279572
vn -0.0002743422 0.00023201603 -1
vn -0.5806722 0.5736048 -0.5777521
vn -0.71180815 0.70237386 0.00035790604
vn -0.9999783 -0.006593555 0.00027475745
vn -0.70656633 -0.00449479 -0.70763254
vn -0.70248127 -0.7117022 3.0058909E-05
vn 0.004468321 -0.70634854 -0.7078501
vn -0.5730556 -0.5809453 -0.5780223
g pm0088_00_LiquidASkin_0
f 3/3/3 2/2/2 1/1/1
f 4/4/4 3/3/3 1/1/1
f 5/5/5 4/4/4 1/1/1
f 6/6/6 4/4/4 5/5/5
f 2/2/2 7/7/7 1/1/1
f 1/1/1 7/7/7 5/5/5
f 7/7/7 2/2/2 8/8/8
f 2/2/2 9/9/9 8/8/8
f 9/9/9 10/10/10 8/8/8
f 7/7/7 8/8/8 11/11/11
f 7/7/7 11/11/11 5/5/5
f 12/12/12 6/6/6 5/5/5
f 13/13/13 6/6/6 12/12/12
f 12/12/12 5/5/5 14/14/14
f 14/14/14 13/13/13 12/12/12
f 5/5/5 11/11/11 14/14/14
f 13/13/13 14/14/14 15/15/15
f 15/15/15 14/14/14 11/11/11
f 16/16/16 13/13/13 15/15/15
f 10/10/10 16/16/16 15/15/15
f 10/10/10 17/17/17 8/8/8
f 8/8/8 17/17/17 11/11/11
f 17/17/17 10/10/10 15/15/15
f 17/17/17 15/15/15 11/11/11
f 20/20/20 19/19/19 18/18/18
f 21/21/21 20/20/20 18/18/18
f 19/19/19 22/22/22 18/18/18
f 23/23/23 21/21/21 18/18/18
f 23/23/23 18/18/18 22/22/22
f 22/22/22 19/19/19 24/24/24
f 19/19/19 25/25/25 24/24/24
f 25/25/25 26/26/26 24/24/24
f 22/22/22 24/24/24 27/27/27
f 27/27/27 23/23/23 22/22/22
f 21/21/21 23/23/23 28/28/28
f 29/29/29 21/21/21 28/28/28
f 30/30/30 29/29/29 28/28/28
f 28/28/28 23/23/23 31/31/31
f 31/31/31 30/30/30 28/28/28
f 23/23/23 27/27/27 31/31/31
f 32/32/32 30/30/30 31/31/31
f 24/24/24 33/33/33 27/27/27
f 26/26/26 33/33/33 24/24/24
f 27/27/27 33/33/33 31/31/31
f 34/34/34 32/32/32 31/31/31
f 26/26/26 32/32/32 34/34/34
f 33/33/33 34/34/34 31/31/31
f 33/33/33 26/26/26 34/34/34
