g pm0076_61_RockIncABSkin
v -0.23923747 1.2034081 0.38268214
v -0.2394876 1.2260062 0.4028129
v -0.2077547 1.2233263 0.40437868
v -0.20358148 1.1996061 0.38387766
v -0.17353345 1.2561404 0.37677467
v -0.20753452 1.272251 0.3908434
v -0.2394876 1.2260062 0.4028129
v -0.23600721 1.2724098 0.39086723
v -0.20749393 1.2741007 0.388546
v -0.23575372 1.2741096 0.38874832
v -0.17321785 1.2579706 0.37413296
v -0.20465001 1.2842327 0.34677982
v -0.23220173 1.2836595 0.34845996
v -0.23575372 1.2741096 0.38874832
v -0.16434371 1.2335013 0.35278133
v -0.20098 1.2688775 0.3113571
v -0.23220173 1.2836595 0.34845996
v -0.23039185 1.2687109 0.3132064
v -0.18113013 1.2101551 0.36456797
v -0.16474855 1.2313839 0.3558381
v -0.20336178 1.1947272 0.37044448
v -0.23923747 1.2034081 0.38268214
v -0.2386105 1.1985067 0.37067455
v -0.23837829 1.198749 0.3677563
v -0.20411807 1.1950651 0.3671561
v -0.18119833 1.2105986 0.3611167
v -0.16551374 1.2300858 0.35260513
v -0.18263341 1.2329446 0.33376878
v -0.2016544 1.2296207 0.31575507
v -0.23837829 1.198749 0.3677563
v -0.23239614 1.2286414 0.31016415
v -0.18312877 1.2298591 0.33464435
v -0.20131284 1.2323761 0.31435114
v -0.23039185 1.2687109 0.3132064
v -0.23216231 1.230991 0.30879098
v -0.23239614 1.2286414 0.31016415
v 0.23923747 1.2034081 0.38268214
v 0.2077547 1.2233263 0.40437868
v 0.2394876 1.2260062 0.4028129
v 0.20358148 1.1996061 0.38387766
v 0.17353345 1.2561404 0.37677467
v 0.20753452 1.272251 0.3908434
v 0.2394876 1.2260062 0.4028129
v 0.23600721 1.2724098 0.39086723
v 0.20749393 1.2741007 0.388546
v 0.23575372 1.2741096 0.38874832
v 0.17321785 1.2579706 0.37413296
v 0.20465001 1.2842327 0.34677982
v 0.23220173 1.2836595 0.34845996
v 0.23575372 1.2741096 0.38874832
v 0.16434371 1.2335013 0.35278133
v 0.20098 1.2688775 0.3113571
v 0.23220173 1.2836595 0.34845996
v 0.23039185 1.2687109 0.3132064
v 0.18113013 1.2101551 0.36456797
v 0.16474855 1.2313839 0.3558381
v 0.20336178 1.1947272 0.37044448
v 0.23923747 1.2034081 0.38268214
v 0.2386105 1.1985067 0.37067455
v 0.23837829 1.198749 0.3677563
v 0.20411807 1.1950651 0.3671561
v 0.18119833 1.2105986 0.3611167
v 0.16551374 1.2300858 0.35260513
v 0.18263341 1.2329446 0.33376878
v 0.2016544 1.2296207 0.31575507
v 0.23837829 1.198749 0.3677563
v 0.23239614 1.2286414 0.31016415
v 0.18312877 1.2298591 0.33464435
v 0.20131284 1.2323761 0.31435114
v 0.23039185 1.2687109 0.3132064
v 0.23216231 1.230991 0.30879098
v 0.23239614 1.2286414 0.31016415
vt 0.015730858 0.918072
vt 0.02717027 0.94590473
vt 0.08682981 0.93985176
vt 0.081214145 0.907156
vt 0.17373794 0.9347968
vt 0.17318177 0.96759224
vt 0.0617432 0.967757
vt 0.14396107 0.9898715
vt 0.17900038 0.968081
vt 0.1486206 0.9910109
vt 0.18007325 0.93436766
vt 0.25471354 0.94418144
vt 0.27305996 0.9688492
vt 0.20738398 0.99152184
vt 0.17762451 0.9126756
vt 0.27776408 0.90899897
vt 0.3012804 0.95525813
vt 0.32653072 0.9218333
vt 0.13319576 0.90409994
vt 0.17044789 0.91319036
vt 0.09222427 0.8919463
vt 0.019461006 0.8909035
vt 0.031158105 0.8806658
vt 0.033349544 0.8781581
vt 0.09530665 0.888762
vt 0.13821903 0.9017494
vt 0.17332491 0.910053
vt 0.20903252 0.8963909
vt 0.22897866 0.8759217
vt 0.08551738 0.8542659
vt 0.2201257 0.8450539
vt 0.20423019 0.89415526
vt 0.23395869 0.8780632
vt 0.3209595 0.8906863
vt 0.28006998 0.8604071
vt 0.2767013 0.8584447
vt 0.015730858 0.918072
vt 0.08682978 0.93985176
vt 0.027170181 0.94590473
vt 0.08121413 0.907156
vt 0.17373788 0.9347968
vt 0.17318195 0.96759224
vt 0.0617432 0.967757
vt 0.14396107 0.9898715
vt 0.17900032 0.968081
vt 0.14862067 0.9910109
vt 0.18007338 0.93436766
vt 0.2547136 0.94418144
vt 0.27306002 0.9688492
vt 0.20738393 0.99152184
vt 0.17762446 0.9126756
vt 0.27776408 0.90899897
vt 0.30128038 0.95525813
vt 0.3265307 0.9218333
vt 0.1331957 0.90409994
vt 0.170448 0.91319036
vt 0.09222442 0.8919463
vt 0.019461036 0.8909035
vt 0.03115803 0.8806658
vt 0.033349514 0.8781581
vt 0.095306695 0.888762
vt 0.138219 0.9017494
vt 0.17332494 0.910053
vt 0.20903248 0.8963909
vt 0.22897875 0.8759217
vt 0.08551741 0.8542659
vt 0.2201258 0.8450539
vt 0.20423025 0.89415526
vt 0.23395878 0.8780632
vt 0.32095945 0.8906863
vt 0.28006995 0.8604071
vt 0.27670127 0.8584447
vn -0.09953987 -0.7605852 0.64156216
vn -0.051233348 -0.12574023 0.99073935
vn 0.33293742 -0.20468849 0.9204647
vn 0.44017458 -0.5920419 0.67507976
vn 0.68550926 -0.086465456 0.7229113
vn 0.16629529 0.2795564 0.9456184
vn -0.051233348 -0.12574023 0.99073935
vn -0.012181698 0.27231953 0.9621297
vn 0.18689762 0.947129 0.2607985
vn -0.0017250776 0.9686119 0.24857187
vn 0.750684 0.64664745 -0.13535345
vn 0.44857204 0.88098955 -0.15046811
vn -0.018197179 0.99865437 -0.048563007
vn -0.0017250776 0.9686119 0.24857187
vn 0.8030464 0.523282 -0.2851183
vn 0.4714285 0.58537596 -0.6596136
vn -0.018197179 0.99865437 -0.048563007
vn 0.014325022 0.55955863 -0.82866704
vn 0.73972535 -0.34871304 0.5755048
vn 0.7728525 -0.27739424 0.5707464
vn 0.1264993 -0.94596666 0.29857183
vn -0.09953987 -0.7605852 0.64156216
vn -0.10533242 -0.94284004 0.3161609
vn 0.00015723704 -0.8669671 -0.4983654
vn 0.12097071 -0.85403067 -0.50596213
vn 0.4672246 -0.7364747 -0.48918927
vn 0.61283994 -0.6204974 -0.4892956
vn 0.7192385 -0.08270371 -0.68982327
vn 0.11966873 -0.8397344 -0.5296467
vn 0.00015723704 -0.8669671 -0.4983654
vn 0.006997227 -0.8553007 -0.5180847
vn 0.4642988 -0.7165573 -0.5205499
vn 0.28630123 -0.028136551 -0.9577264
vn 0.014325022 0.55955863 -0.82866704
vn 0.066287406 -0.004229605 -0.99779165
vn 0.006997227 -0.8553007 -0.5180847
vn 0.099540114 -0.7605852 0.64156216
vn -0.33293727 -0.20468804 0.9204649
vn 0.05123341 -0.12573993 0.99073935
vn -0.44017455 -0.59204197 0.6750797
vn -0.6855087 -0.08646547 0.72291183
vn -0.16629516 0.27955672 0.9456183
vn 0.05123341 -0.12573993 0.99073935
vn 0.01218164 0.27232027 0.96212953
vn -0.1868974 0.94712925 0.260798
vn 0.0017250774 0.9686119 0.24857196
vn -0.7506839 0.6466475 -0.13535391
vn -0.44857177 0.88098955 -0.15046835
vn 0.01819718 0.99865437 -0.048563253
vn 0.0017250774 0.9686119 0.24857196
vn -0.8030462 0.523282 -0.28511867
vn -0.4714285 0.58537626 -0.65961343
vn 0.01819718 0.99865437 -0.048563253
vn -0.014325082 0.5595592 -0.82866657
vn -0.7397252 -0.34871268 0.575505
vn -0.7728526 -0.27739415 0.5707464
vn -0.12649952 -0.94596773 0.29856834
vn 0.099540114 -0.7605852 0.64156216
vn 0.10533262 -0.942841 0.31615806
vn -0.00015687941 -0.8669671 -0.49836534
vn -0.120970435 -0.8540308 -0.5059621
vn -0.4672246 -0.73647475 -0.48918927
vn -0.61283946 -0.62049687 -0.48929685
vn -0.71923715 -0.08270348 -0.6898247
vn -0.1196687 -0.8397346 -0.5296462
vn -0.00015687941 -0.8669671 -0.49836534
vn -0.0069969897 -0.8553008 -0.5180846
vn -0.4642992 -0.71655756 -0.52054924
vn -0.28630117 -0.028136132 -0.9577264
vn -0.014325082 0.5595592 -0.82866657
vn -0.06628758 -0.004229069 -0.99779165
vn -0.0069969897 -0.8553008 -0.5180846
g pm0076_61_RockIncABSkin_0
f 3/3/3 2/2/2 1/1/1
f 4/4/4 3/3/3 1/1/1
f 5/5/5 3/3/3 4/4/4
f 6/6/6 3/3/3 5/5/5
f 3/3/3 6/6/6 7/7/7
f 6/6/6 8/8/8 7/7/7
f 6/6/6 9/9/9 8/8/8
f 9/9/9 10/10/10 8/8/8
f 5/5/5 11/11/11 6/6/6
f 11/11/11 9/9/9 6/6/6
f 9/9/9 11/11/11 12/12/12
f 12/12/12 13/13/13 9/9/9
f 13/13/13 14/14/14 9/9/9
f 11/11/11 15/15/15 12/12/12
f 15/15/15 11/11/11 5/5/5
f 15/15/15 16/16/16 12/12/12
f 12/12/12 16/16/16 17/17/17
f 16/16/16 18/18/18 17/17/17
f 19/19/19 5/5/5 4/4/4
f 20/20/20 15/15/15 5/5/5
f 20/20/20 5/5/5 19/19/19
f 19/19/19 4/4/4 21/21/21
f 4/4/4 22/22/22 21/21/21
f 22/22/22 23/23/23 21/21/21
f 21/21/21 23/23/23 24/24/24
f 25/25/25 21/21/21 24/24/24
f 19/19/19 21/21/21 25/25/25
f 20/20/20 19/19/19 26/26/26
f 26/26/26 19/19/19 25/25/25
f 20/20/20 27/27/27 15/15/15
f 27/27/27 20/20/20 26/26/26
f 15/15/15 28/28/28 16/16/16
f 15/15/15 27/27/27 28/28/28
f 25/25/25 29/29/29 26/26/26
f 25/25/25 30/30/30 29/29/29
f 30/30/30 31/31/31 29/29/29
f 26/26/26 32/32/32 27/27/27
f 27/27/27 32/32/32 28/28/28
f 29/29/29 32/32/32 26/26/26
f 28/28/28 33/33/33 16/16/16
f 28/28/28 32/32/32 33/33/33
f 32/32/32 29/29/29 33/33/33
f 16/16/16 33/33/33 34/34/34
f 33/33/33 35/35/35 34/34/34
f 33/33/33 29/29/29 35/35/35
f 29/29/29 36/36/36 35/35/35
f 39/39/39 38/38/38 37/37/37
f 38/38/38 40/40/40 37/37/37
f 38/38/38 41/41/41 40/40/40
f 38/38/38 42/42/42 41/41/41
f 42/42/42 38/38/38 43/43/43
f 44/44/44 42/42/42 43/43/43
f 45/45/45 42/42/42 44/44/44
f 46/46/46 45/45/45 44/44/44
f 47/47/47 41/41/41 42/42/42
f 45/45/45 47/47/47 42/42/42
f 47/47/47 45/45/45 48/48/48
f 49/49/49 48/48/48 45/45/45
f 50/50/50 49/49/49 45/45/45
f 51/51/51 47/47/47 48/48/48
f 47/47/47 51/51/51 41/41/41
f 52/52/52 51/51/51 48/48/48
f 52/52/52 48/48/48 53/53/53
f 54/54/54 52/52/52 53/53/53
f 41/41/41 55/55/55 40/40/40
f 51/51/51 56/56/56 41/41/41
f 41/41/41 56/56/56 55/55/55
f 40/40/40 55/55/55 57/57/57
f 58/58/58 40/40/40 57/57/57
f 59/59/59 58/58/58 57/57/57
f 59/59/59 57/57/57 60/60/60
f 57/57/57 61/61/61 60/60/60
f 57/57/57 55/55/55 61/61/61
f 55/55/55 56/56/56 62/62/62
f 55/55/55 62/62/62 61/61/61
f 63/63/63 56/56/56 51/51/51
f 56/56/56 63/63/63 62/62/62
f 64/64/64 51/51/51 52/52/52
f 63/63/63 51/51/51 64/64/64
f 65/65/65 61/61/61 62/62/62
f 66/66/66 61/61/61 65/65/65
f 67/67/67 66/66/66 65/65/65
f 68/68/68 62/62/62 63/63/63
f 68/68/68 63/63/63 64/64/64
f 68/68/68 65/65/65 62/62/62
f 69/69/69 64/64/64 52/52/52
f 68/68/68 64/64/64 69/69/69
f 65/65/65 68/68/68 69/69/69
f 69/69/69 52/52/52 70/70/70
f 71/71/71 69/69/69 70/70/70
f 65/65/65 69/69/69 71/71/71
f 72/72/72 65/65/65 71/71/71
