g pm0088_00_LiquidCSkin
v 0.042737253 0.48568922 0.45526278
v 0.05733113 0.47649127 0.4406688
v 0.039658785 0.48270178 0.44066885
v 0.033424437 0.50019467 0.4406689
v 0.03981294 0.50019455 0.45818704
v 0.03965879 0.51768744 0.44066885
v 0.05733113 0.48268598 0.45828086
v 0.07192502 0.4856892 0.45526272
v 0.07500345 0.48270178 0.44066885
v 0.08123781 0.50019467 0.4406689
v 0.05733113 0.5001946 0.46451098
v 0.04273725 0.51470006 0.45526272
v 0.05733112 0.52389795 0.4406689
v 0.05733113 0.5177033 0.4582809
v 0.07192502 0.5147 0.45526272
v 0.07500344 0.51768744 0.44066885
v 0.07484933 0.50019467 0.45818704
v 0.07192498 0.51470006 0.42607492
v 0.08123781 0.50019467 0.4406689
v 0.07500344 0.51768744 0.44066885
v 0.05733112 0.52389795 0.4406689
v 0.07484932 0.50019467 0.42315063
v 0.057331126 0.5177033 0.42305678
v 0.07192501 0.4856892 0.4260749
v 0.07500345 0.48270178 0.44066885
v 0.05733113 0.47649127 0.4406688
v 0.05733113 0.50019467 0.41682673
v 0.042737216 0.51470006 0.42607492
v 0.03965879 0.51768744 0.44066885
v 0.033424437 0.50019467 0.4406689
v 0.03981293 0.50019467 0.42315063
v 0.039658785 0.48270178 0.44066885
v 0.05733113 0.48268592 0.4230568
v 0.04273725 0.48568922 0.42607492
vt 0.5506116 0.056585517
vt 0.5625 0.04794091
vt 0.54146874 0.05206007
vt 0.5332909 0.0625
vt 0.5491104 0.0625
vt 0.54146874 0.0729402
vt 0.5625 0.055837333
vt 0.57438815 0.056585517
vt 0.58353096 0.05205998
vt 0.59170896 0.0625
vt 0.5625 0.0625
vt 0.5506116 0.06841455
vt 0.5625 0.07705936
vt 0.5625 0.06916286
vt 0.57438815 0.06841455
vt 0.58353096 0.0729402
vt 0.5758894 0.0625
vt 0.5506118 0.02935204
vt 0.5332909 0.0234375
vt 0.54146904 0.033877715
vt 0.5625 0.03799686
vt 0.54911065 0.0234375
vt 0.5625 0.030100374
vt 0.5506118 0.01752296
vt 0.5414689 0.012997463
vt 0.5625 0.00887841
vt 0.5625 0.0234375
vt 0.5743881 0.02935204
vt 0.58353126 0.033877715
vt 0.5917092 0.0234375
vt 0.57588965 0.0234375
vt 0.58353126 0.012997463
vt 0.5625 0.016774714
vt 0.57438785 0.01752296
vn -0.576717 -0.57728815 0.5780449
vn -0 -1 7.780593E-07
vn -0.7071608 -0.70705277 1.0314303E-06
vn -1 3.1169293E-07 4.675394E-07
vn -0.706387 -2.2082001E-07 0.70782584
vn -0.7071609 0.70705265 2.9469433E-07
vn 7.3630156E-07 -0.7065288 0.7076843
vn 0.57671785 -0.5772882 0.57804394
vn 0.70716083 -0.70705265 4.4204154E-07
vn 1 1.0909255E-06 -2.3376975E-07
vn 7.7805583E-07 1.5561116E-07 1
vn -0.57671803 0.5772881 0.57804394
vn -0 1 4.6683527E-07
vn 4.4178145E-07 0.70652926 0.7076838
vn 0.5767182 0.5772888 0.57804304
vn 0.7071604 0.7070531 0
vn 0.70638824 4.416401E-07 0.7078247
vn 0.5767169 0.57728946 -0.57804364
vn 1 1.0909255E-06 -2.3376975E-07
vn 0.7071604 0.7070531 0
vn -0 1 4.6683527E-07
vn 0.7063871 1.4721343E-06 -0.70782584
vn 2.9452076E-07 0.7065297 -0.7076834
vn 0.5767173 -0.5772878 -0.5780449
vn 0.70716083 -0.70705265 4.4204154E-07
vn -0 -1 7.780593E-07
vn -3.890276E-07 1.0892772E-06 -1
vn -0.5767174 0.5772885 -0.5780441
vn -0.7071609 0.70705265 2.9469433E-07
vn -1 3.1169293E-07 4.675394E-07
vn -0.70638734 4.4164005E-07 -0.70782554
vn -0.7071608 -0.70705277 1.0314303E-06
vn -3.681512E-07 -0.7065286 -0.70768446
vn -0.57671803 -0.57728773 -0.5780443
g pm0088_00_LiquidCSkin_0
f 3/3/3 2/2/2 1/1/1
f 4/4/4 3/3/3 1/1/1
f 5/5/5 4/4/4 1/1/1
f 6/6/6 4/4/4 5/5/5
f 2/2/2 7/7/7 1/1/1
f 1/1/1 7/7/7 5/5/5
f 7/7/7 2/2/2 8/8/8
f 2/2/2 9/9/9 8/8/8
f 9/9/9 10/10/10 8/8/8
f 7/7/7 8/8/8 11/11/11
f 7/7/7 11/11/11 5/5/5
f 12/12/12 6/6/6 5/5/5
f 13/13/13 6/6/6 12/12/12
f 12/12/12 5/5/5 14/14/14
f 14/14/14 13/13/13 12/12/12
f 5/5/5 11/11/11 14/14/14
f 13/13/13 14/14/14 15/15/15
f 15/15/15 14/14/14 11/11/11
f 16/16/16 13/13/13 15/15/15
f 10/10/10 16/16/16 15/15/15
f 10/10/10 17/17/17 8/8/8
f 8/8/8 17/17/17 11/11/11
f 17/17/17 10/10/10 15/15/15
f 17/17/17 15/15/15 11/11/11
f 20/20/20 19/19/19 18/18/18
f 21/21/21 20/20/20 18/18/18
f 19/19/19 22/22/22 18/18/18
f 23/23/23 21/21/21 18/18/18
f 23/23/23 18/18/18 22/22/22
f 22/22/22 19/19/19 24/24/24
f 19/19/19 25/25/25 24/24/24
f 25/25/25 26/26/26 24/24/24
f 22/22/22 24/24/24 27/27/27
f 27/27/27 23/23/23 22/22/22
f 21/21/21 23/23/23 28/28/28
f 29/29/29 21/21/21 28/28/28
f 30/30/30 29/29/29 28/28/28
f 28/28/28 23/23/23 31/31/31
f 31/31/31 30/30/30 28/28/28
f 23/23/23 27/27/27 31/31/31
f 32/32/32 30/30/30 31/31/31
f 24/24/24 33/33/33 27/27/27
f 26/26/26 33/33/33 24/24/24
f 27/27/27 33/33/33 31/31/31
f 34/34/34 32/32/32 31/31/31
f 26/26/26 32/32/32 34/34/34
f 33/33/33 34/34/34 31/31/31
f 33/33/33 26/26/26 34/34/34
