g pm0019_00_MustacheSkin
v -0.20329094 0.18689014 0.09692742
v -0.20069739 0.1874711 0.09626891
v -0.20060852 0.18835218 0.09834458
v -0.20255446 0.18735825 0.09955074
v -0.19677238 0.18810126 0.10075832
v -0.2016864 0.18504995 0.099714994
v -0.20176394 0.18420716 0.097624995
v -0.19866168 0.18703182 0.102080695
v -0.18526398 0.18734859 0.10799951
v -0.19792353 0.18463089 0.10219683
v -0.19782606 0.1837146 0.100073606
v -0.18698338 0.18605255 0.10967056
v -0.16991943 0.18634498 0.11765444
v -0.18663491 0.18337369 0.10964231
v -0.18601236 0.18223695 0.10741941
v -0.17141227 0.18474685 0.11979039
v -0.15098663 0.18462473 0.12938917
v -0.17158344 0.18169744 0.11956962
v -0.17026077 0.18026675 0.117213815
v -0.15288341 0.1825911 0.13210273
v -0.13205384 0.18290447 0.14112389
v -0.15310091 0.17871681 0.13182217
v -0.1516119 0.1768959 0.12877692
v -0.13435455 0.18043534 0.14441507
v -0.11506857 0.1804475 0.15151708
v -0.13461837 0.17573616 0.14407471
v -0.13296303 0.17352502 0.14034005
v -0.11759203 0.17773432 0.15513015
v -0.0980833 0.17799053 0.16191027
v -0.11725315 0.17276618 0.15496868
v -0.11526579 0.17039925 0.15103473
v -0.100829504 0.17503329 0.16584525
v -0.08299362 0.17512038 0.17111826
v -0.09988792 0.16979621 0.16586265
v -0.09756855 0.16727348 0.16172943
v -0.081171036 0.17084578 0.1784357
v -0.08600528 0.16592225 0.17512973
v -0.090665005 0.16523317 0.16594099
v -0.07047932 0.16158973 0.18549381
v -0.06783176 0.1584849 0.17987056
v -0.07030865 0.16853195 0.1853926
v -0.06677356 0.17203525 0.18101606
v -0.06418297 0.16130155 0.17521389
v -0.090665005 0.16523317 0.16594099
v -0.06783176 0.1584849 0.17987056
v -0.09088116 0.16892791 0.16026145
v -0.087704465 0.17385146 0.16227426
v -0.06379745 0.16838619 0.1757114
v -0.09494942 0.17009 0.15798302
v -0.09756855 0.16727348 0.16172943
v -0.08299362 0.17512038 0.17111826
v -0.06677356 0.17203525 0.18101606
v -0.0980833 0.17799053 0.16191027
v -0.09464897 0.17543903 0.15837105
v -0.11506857 0.1804475 0.15151708
v -0.11252367 0.17806622 0.14788017
v -0.13205384 0.18290447 0.14112389
v -0.11280586 0.1730421 0.14751574
v -0.11526579 0.17039925 0.15103473
v -0.13039836 0.18069343 0.13738929
v -0.15098663 0.18462473 0.12938917
v -0.1306623 0.17599422 0.13704847
v -0.13296303 0.17352502 0.14034005
v -0.14949758 0.1828039 0.1263439
v -0.16991943 0.18634498 0.11765444
v -0.14971519 0.17892957 0.12606303
v -0.1516119 0.1768959 0.12877692
v -0.1685968 0.18491435 0.115298524
v -0.18526398 0.18734859 0.10799951
v -0.16876808 0.18186493 0.115077585
v -0.17026077 0.18026675 0.117213815
v -0.1846471 0.18619274 0.105783716
v -0.19677238 0.18810126 0.10075832
v -0.1843036 0.18353128 0.10576681
v -0.18601236 0.18223695 0.10741941
v -0.19668484 0.18715152 0.09864761
v -0.20060852 0.18835218 0.09834458
v -0.20069739 0.1874711 0.09626891
v -0.19595525 0.18478104 0.09878372
v -0.19782606 0.1837146 0.100073606
v -0.19983913 0.18519764 0.09645602
v -0.20329094 0.18689014 0.09692742
v -0.20176394 0.18420716 0.097624995
v 0.20329094 0.18689014 0.09692742
v 0.20060852 0.18835218 0.09834458
v 0.20069739 0.1874711 0.09626891
v 0.20255446 0.18735825 0.09955074
v 0.19677238 0.18810126 0.10075832
v 0.2016864 0.18504995 0.099714994
v 0.20176394 0.18420716 0.097624995
v 0.19866168 0.18703182 0.102080695
v 0.18526398 0.18734859 0.10799951
v 0.19792353 0.18463089 0.10219683
v 0.19782606 0.1837146 0.100073606
v 0.18698338 0.18605255 0.10967056
v 0.16991943 0.18634498 0.11765444
v 0.18663491 0.18337369 0.10964231
v 0.18601236 0.18223695 0.10741941
v 0.17141227 0.18474685 0.11979039
v 0.15098663 0.18462473 0.12938917
v 0.17158344 0.18169744 0.11956962
v 0.17026077 0.18026675 0.117213815
v 0.15288341 0.1825911 0.13210273
v 0.13205384 0.18290447 0.14112389
v 0.15310091 0.17871681 0.13182217
v 0.1516119 0.1768959 0.12877692
v 0.13435455 0.18043534 0.14441507
v 0.11506857 0.1804475 0.15151708
v 0.13461837 0.17573616 0.14407471
v 0.13296303 0.17352502 0.14034005
v 0.11759203 0.17773432 0.15513015
v 0.0980833 0.17799053 0.16191027
v 0.11725315 0.17276618 0.15496868
v 0.11526579 0.17039925 0.15103473
v 0.100829504 0.17503329 0.16584525
v 0.08299362 0.17512038 0.17111826
v 0.09988792 0.16979621 0.16586265
v 0.09756855 0.16727348 0.16172943
v 0.081171036 0.17084578 0.1784357
v 0.08600528 0.16592225 0.17512973
v 0.090665005 0.16523317 0.16594099
v 0.07047932 0.16158973 0.18549381
v 0.06783176 0.1584849 0.17987056
v 0.07030865 0.16853195 0.1853926
v 0.06677356 0.17203525 0.18101606
v 0.06418297 0.16130155 0.17521389
v 0.06783176 0.1584849 0.17987056
v 0.090665005 0.16523317 0.16594099
v 0.09088116 0.16892791 0.16026145
v 0.087704465 0.17385146 0.16227426
v 0.06379745 0.16838619 0.1757114
v 0.09494942 0.17009 0.15798302
v 0.09756855 0.16727348 0.16172943
v 0.08299362 0.17512038 0.17111826
v 0.06677356 0.17203525 0.18101606
v 0.0980833 0.17799053 0.16191027
v 0.09464897 0.17543903 0.15837105
v 0.11506857 0.1804475 0.15151708
v 0.11252367 0.17806622 0.14788017
v 0.13205384 0.18290447 0.14112389
v 0.11280586 0.1730421 0.14751574
v 0.11526579 0.17039925 0.15103473
v 0.13039836 0.18069343 0.13738929
v 0.15098663 0.18462473 0.12938917
v 0.1306623 0.17599422 0.13704847
v 0.13296303 0.17352502 0.14034005
v 0.14949758 0.1828039 0.1263439
v 0.16991943 0.18634498 0.11765444
v 0.14971519 0.17892957 0.12606303
v 0.1516119 0.1768959 0.12877692
v 0.1685968 0.18491435 0.115298524
v 0.18526398 0.18734859 0.10799951
v 0.16876808 0.18186493 0.115077585
v 0.17026077 0.18026675 0.117213815
v 0.1846471 0.18619274 0.105783716
v 0.19677238 0.18810126 0.10075832
v 0.1843036 0.18353128 0.10576681
v 0.18601236 0.18223695 0.10741941
v 0.19668484 0.18715152 0.09864761
v 0.20060852 0.18835218 0.09834458
v 0.20069739 0.1874711 0.09626891
v 0.19595525 0.18478104 0.09878372
v 0.19782606 0.1837146 0.100073606
v 0.19983913 0.18519764 0.09645602
v 0.20329094 0.18689014 0.09692742
v 0.20176394 0.18420716 0.097624995
vt 0.44526005 0.98087764
vt 0.44504604 0.9862954
vt 0.4514464 0.9862025
vt 0.45150837 0.9808777
vt 0.45852223 0.9857179
vt 0.4515729 0.9775069
vt 0.44888747 0.9746683
vt 0.4586661 0.9808777
vt 0.47974968 0.98506093
vt 0.4586329 0.9773206
vt 0.45628315 0.97423
vt 0.4794221 0.98087764
vt 0.50805295 0.9856725
vt 0.47981286 0.9767619
vt 0.4784702 0.9729149
vt 0.50805295 0.98087764
vt 0.5432316 0.98702383
vt 0.5080528 0.9760169
vt 0.50805295 0.9711614
vt 0.5432316 0.98087764
vt 0.57841027 0.9883752
vt 0.54323155 0.97470343
vt 0.5432316 0.96858716
vt 0.57841027 0.9808777
vt 0.61065984 0.9891453
vt 0.57841027 0.97339
vt 0.57841027 0.96601284
vt 0.61087793 0.98087764
vt 0.6429094 0.9899153
vt 0.61212987 0.9730894
vt 0.6121239 0.9651141
vt 0.6433456 0.98087764
vt 0.6719302 0.9906604
vt 0.64584947 0.9727888
vt 0.64583755 0.96421534
vt 0.6818495 0.98087764
vt 0.672887 0.9714881
vt 0.6591371 0.96306425
vt 0.703125 0.9700334
vt 0.703125 0.9592572
vt 0.703125 0.98087764
vt 0.703125 0.9914613
vt 0.453125 0.92509824
vt 0.49693596 0.91803825
vt 0.453125 0.91470563
vt 0.50259 0.9274244
vt 0.4978103 0.93643886
vt 0.453125 0.93643886
vt 0.5101274 0.9277788
vt 0.510182 0.9190458
vt 0.48436683 0.9464432
vt 0.453125 0.9478169
vt 0.51343143 0.9451652
vt 0.51079047 0.93643886
vt 0.5461319 0.944543
vt 0.5448115 0.9364388
vt 0.5788324 0.94392073
vt 0.54447997 0.92829984
vt 0.5445072 0.92011404
vt 0.5788325 0.9364388
vt 0.6144006 0.94257843
vt 0.5788325 0.9288209
vt 0.5788324 0.9211822
vt 0.6144007 0.9364388
vt 0.64996886 0.9412361
vt 0.6144007 0.9302104
vt 0.6144006 0.92397505
vt 0.64996886 0.93643886
vt 0.67787 0.9403688
vt 0.64996886 0.9315999
vt 0.64996886 0.9267679
vt 0.6786323 0.9364388
vt 0.69879586 0.93971825
vt 0.67790335 0.9323981
vt 0.67881185 0.9283594
vt 0.70012987 0.9364388
vt 0.7057711 0.9395014
vt 0.7072958 0.9364388
vt 0.69885427 0.93299675
vt 0.70044404 0.92955303
vt 0.70583785 0.9331963
vt 0.711233 0.93643886
vt 0.70765483 0.92995083
vt 0.44526005 0.98087764
vt 0.4514464 0.9862025
vt 0.44504604 0.9862954
vt 0.45150837 0.9808777
vt 0.45852223 0.9857179
vt 0.4515729 0.9775069
vt 0.44888747 0.9746683
vt 0.4586661 0.9808777
vt 0.47974968 0.98506093
vt 0.4586329 0.9773206
vt 0.45628315 0.97423
vt 0.4794221 0.98087764
vt 0.50805295 0.9856725
vt 0.47981286 0.9767619
vt 0.4784702 0.9729149
vt 0.50805295 0.98087764
vt 0.5432316 0.98702383
vt 0.5080528 0.9760169
vt 0.50805295 0.9711614
vt 0.5432316 0.98087764
vt 0.57841027 0.9883752
vt 0.54323155 0.97470343
vt 0.5432316 0.96858716
vt 0.57841027 0.9808777
vt 0.61065984 0.9891453
vt 0.57841027 0.97339
vt 0.57841027 0.96601284
vt 0.61087793 0.98087764
vt 0.6429094 0.9899153
vt 0.61212987 0.9730894
vt 0.6121239 0.9651141
vt 0.6433456 0.98087764
vt 0.6719302 0.9906604
vt 0.64584947 0.9727888
vt 0.64583755 0.96421534
vt 0.6818495 0.98087764
vt 0.672887 0.9714881
vt 0.6591371 0.96306425
vt 0.703125 0.9700334
vt 0.703125 0.9592572
vt 0.703125 0.98087764
vt 0.703125 0.9914613
vt 0.453125 0.92509824
vt 0.453125 0.91470563
vt 0.49693596 0.91803825
vt 0.50259 0.9274244
vt 0.4978103 0.93643886
vt 0.453125 0.93643886
vt 0.5101274 0.9277788
vt 0.510182 0.9190458
vt 0.48436683 0.9464432
vt 0.453125 0.9478169
vt 0.51343143 0.9451652
vt 0.51079047 0.93643886
vt 0.5461319 0.944543
vt 0.5448115 0.9364388
vt 0.5788324 0.94392073
vt 0.54447997 0.92829984
vt 0.5445072 0.92011404
vt 0.5788325 0.9364388
vt 0.6144006 0.94257843
vt 0.5788325 0.9288209
vt 0.5788324 0.9211822
vt 0.6144007 0.9364388
vt 0.64996886 0.9412361
vt 0.6144007 0.9302104
vt 0.6144006 0.92397505
vt 0.64996886 0.93643886
vt 0.67787 0.9403688
vt 0.64996886 0.9315999
vt 0.64996886 0.9267679
vt 0.6786323 0.9364388
vt 0.69879586 0.93971825
vt 0.67790335 0.9323981
vt 0.67881185 0.9283594
vt 0.70012987 0.9364388
vt 0.7057711 0.9395014
vt 0.7072958 0.9364388
vt 0.69885427 0.93299675
vt 0.70044404 0.92955303
vt 0.70583785 0.9331963
vt 0.711233 0.93643886
vt 0.70765483 0.92995083
vn -0.82523 0.3003806 -0.47829592
vn -0.09666824 0.38673925 -0.9171085
vn -0.49884805 0.8248115 -0.26615134
vn -0.87110746 0.33337662 0.36059916
vn -0.1229512 0.9915422 -0.041555885
vn -0.77369404 -0.48752034 0.404625
vn -0.51802135 -0.7798887 -0.3513226
vn -0.58455694 0.44644016 0.67748386
vn 0.021007312 0.99872917 0.04581145
vn -0.6103543 -0.52086204 0.5968001
vn -0.21791795 -0.9594137 -0.17898874
vn -0.48408124 0.4658981 0.74067825
vn 0.028169038 0.99819946 0.052954737
vn -0.53025216 -0.5250979 0.6656612
vn -0.11244017 -0.9872039 -0.113073714
vn -0.46468598 0.4761 0.7465894
vn 0.036202356 0.99752337 0.060303126
vn -0.5333843 -0.51768386 0.6689578
vn -0.10809815 -0.98862934 -0.104531065
vn -0.45983955 0.47549644 0.74996704
vn 0.006780404 0.9955792 0.09368095
vn -0.5405485 -0.5137506 0.6662339
vn -0.124508955 -0.9861821 -0.10928063
vn -0.46814233 0.46968222 0.7484927
vn -0.16595553 0.96931183 0.18136503
vn -0.5647487 -0.48269778 0.66937417
vn -0.1521738 -0.98312044 -0.10157372
vn -0.5596306 0.44973683 0.6960965
vn -0.500374 0.81324136 0.29709315
vn -0.6654246 -0.34780237 0.6604875
vn -0.29960856 -0.9523586 -0.056989998
vn -0.6967253 0.41358232 0.5861089
vn -0.79177976 0.49014935 0.36447003
vn -0.8061319 -0.06662641 0.58797294
vn -0.5914833 -0.8054386 0.037632503
vn -0.810368 0.3644513 0.45877984
vn -0.8549438 0.2706606 0.44250864
vn -0.80897814 -0.579226 0.10025769
vn -0.8549438 0.2706606 0.44250864
vn -0.7896996 -0.6097285 0.067865446
vn -0.810368 0.3644513 0.45877984
vn -0.79177976 0.49014935 0.36447003
vn -0.092870265 -0.40318468 -0.910394
vn -0.80897814 -0.579226 0.10025769
vn -0.7896996 -0.6097285 0.067865446
vn 0.047818802 -0.42069754 -0.9059399
vn -0.29477474 0.85321736 -0.430265
vn -0.25370964 0.8379717 -0.4831508
vn 0.10638887 -0.43135226 -0.8958888
vn -0.5914833 -0.8054386 0.037632503
vn -0.79177976 0.49014935 0.36447003
vn -0.79177976 0.49014935 0.36447003
vn -0.500374 0.81324136 0.29709315
vn 0.044051096 0.8118553 -0.5821945
vn -0.16595553 0.96931183 0.18136503
vn 0.33978528 0.64561754 -0.6839035
vn 0.006780404 0.9955792 0.09368095
vn 0.31886646 -0.45967185 -0.82887024
vn -0.29960856 -0.9523586 -0.056989998
vn 0.44706726 0.5464488 -0.708184
vn 0.036202356 0.99752337 0.060303126
vn 0.3663081 -0.46356556 -0.8067995
vn -0.1521738 -0.98312044 -0.10157372
vn 0.45405012 0.5284666 -0.7173295
vn 0.028169038 0.99819946 0.052954737
vn 0.37434033 -0.46323192 -0.8032966
vn -0.124508955 -0.9861821 -0.10928063
vn 0.4521826 0.5293967 -0.7178232
vn 0.021007312 0.99872917 0.04581145
vn 0.3853899 -0.462387 -0.7985442
vn -0.10809815 -0.98862934 -0.104531065
vn 0.43641153 0.52141285 -0.7332623
vn -0.1229512 0.9915422 -0.041555885
vn 0.38734755 -0.4613111 -0.7982192
vn -0.11244017 -0.9872039 -0.113073714
vn 0.32878298 0.5046622 -0.79825926
vn -0.49884805 0.8248115 -0.26615134
vn -0.09666824 0.38673925 -0.9171085
vn 0.28160754 -0.45342207 -0.84563917
vn -0.21791795 -0.9594137 -0.17898874
vn 0.023109455 -0.42859012 -0.9032035
vn -0.82523 0.3003806 -0.47829592
vn -0.51802135 -0.7798887 -0.3513226
vn 0.8252294 0.30037963 -0.47829753
vn 0.49884814 0.82481116 -0.26615268
vn 0.096667804 0.38673896 -0.9171087
vn 0.871108 0.3333761 0.36059847
vn 0.1229517 0.9915422 -0.041556604
vn 0.77369404 -0.48752072 0.40462482
vn 0.5180207 -0.7798888 -0.35132316
vn 0.58455765 0.44644016 0.6774832
vn -0.021006748 0.99872917 0.0458107
vn 0.61035454 -0.5208621 0.5967998
vn 0.21791765 -0.9594136 -0.1789896
vn 0.48408204 0.46589825 0.74067765
vn -0.028168766 0.9981996 0.052953634
vn 0.53025275 -0.52509844 0.6656603
vn 0.11244047 -0.9872038 -0.11307486
vn 0.4646867 0.47610006 0.7465889
vn -0.036202494 0.99752337 0.060303543
vn 0.53338504 -0.5176845 0.66895676
vn 0.10809861 -0.9886291 -0.10453246
vn 0.45983994 0.47549662 0.7499668
vn -0.0067834333 0.99557495 0.09372559
vn 0.54054874 -0.5137509 0.6662335
vn 0.12450935 -0.986182 -0.109281585
vn 0.46814236 0.46968207 0.7484928
vn 0.16633981 0.9691673 0.18178539
vn 0.56474864 -0.48269776 0.6693742
vn 0.15217364 -0.98312044 -0.10157374
vn 0.5596303 0.44973677 0.69609684
vn 0.5027174 0.8112843 0.29848465
vn 0.6654243 -0.34780237 0.6604878
vn 0.2996086 -0.9523586 -0.056989472
vn 0.6967252 0.4135821 0.58610916
vn 0.79502344 0.4837444 0.36596316
vn 0.80613184 -0.066626385 0.58797306
vn 0.5914835 -0.8054384 0.037632976
vn 0.810368 0.36445123 0.4587798
vn 0.8549438 0.2706606 0.44250864
vn 0.8089782 -0.5792259 0.10025791
vn 0.8549438 0.2706606 0.44250864
vn 0.7896996 -0.60972846 0.067865685
vn 0.810368 0.36445123 0.4587798
vn 0.79502344 0.4837444 0.36596316
vn 0.092870854 -0.40318447 -0.910394
vn 0.7896996 -0.60972846 0.067865685
vn 0.8089782 -0.5792259 0.10025791
vn -0.04781825 -0.42069757 -0.9059399
vn 0.29477516 0.853217 -0.4302654
vn 0.25370997 0.8379714 -0.48315135
vn -0.106388725 -0.43135256 -0.89588857
vn 0.5914835 -0.8054384 0.037632976
vn 0.79502344 0.4837444 0.36596316
vn 0.79502344 0.4837444 0.36596316
vn 0.5027174 0.8112843 0.29848465
vn -0.04405084 0.81185526 -0.58219475
vn 0.16633981 0.9691673 0.18178539
vn -0.3397854 0.64561754 -0.68390346
vn -0.0067834333 0.99557495 0.09372559
vn -0.31886685 -0.45967197 -0.82887
vn 0.2996086 -0.9523586 -0.056989472
vn -0.447067 0.546449 -0.708184
vn -0.036202494 0.99752337 0.060303543
vn -0.36630806 -0.46356517 -0.8067997
vn 0.15217364 -0.98312044 -0.10157374
vn -0.45404944 0.5284669 -0.7173297
vn -0.028168766 0.9981996 0.052953634
vn -0.3743399 -0.46323127 -0.8032972
vn 0.12450935 -0.986182 -0.109281585
vn -0.45218158 0.52939725 -0.71782345
vn -0.021006748 0.99872917 0.0458107
vn -0.3853892 -0.46238604 -0.7985451
vn 0.10809861 -0.9886291 -0.10453246
vn -0.43641087 0.52141327 -0.73326236
vn 0.1229517 0.9915422 -0.041556604
vn -0.38734707 -0.46131033 -0.7982199
vn 0.11244047 -0.9872038 -0.11307486
vn -0.32878232 0.5046624 -0.7982593
vn 0.49884814 0.82481116 -0.26615268
vn 0.096667804 0.38673896 -0.9171087
vn -0.28160775 -0.45342132 -0.8456395
vn 0.21791765 -0.9594136 -0.1789896
vn -0.023109933 -0.4285897 -0.9032036
vn 0.8252294 0.30037963 -0.47829753
vn 0.5180207 -0.7798888 -0.35132316
g pm0019_00_MustacheSkin_0
f 3/3/3 2/2/2 1/1/1
f 4/4/4 3/3/3 1/1/1
f 3/3/3 4/4/4 5/5/5
f 6/6/6 4/4/4 1/1/1
f 7/7/7 6/6/6 1/1/1
f 4/4/4 8/8/8 5/5/5
f 4/4/4 6/6/6 8/8/8
f 5/5/5 8/8/8 9/9/9
f 6/6/6 7/7/7 10/10/10
f 6/6/6 10/10/10 8/8/8
f 7/7/7 11/11/11 10/10/10
f 8/8/8 12/12/12 9/9/9
f 8/8/8 10/10/10 12/12/12
f 9/9/9 12/12/12 13/13/13
f 10/10/10 11/11/11 14/14/14
f 10/10/10 14/14/14 12/12/12
f 11/11/11 15/15/15 14/14/14
f 12/12/12 16/16/16 13/13/13
f 12/12/12 14/14/14 16/16/16
f 13/13/13 16/16/16 17/17/17
f 14/14/14 15/15/15 18/18/18
f 14/14/14 18/18/18 16/16/16
f 15/15/15 19/19/19 18/18/18
f 16/16/16 20/20/20 17/17/17
f 16/16/16 18/18/18 20/20/20
f 17/17/17 20/20/20 21/21/21
f 18/18/18 19/19/19 22/22/22
f 18/18/18 22/22/22 20/20/20
f 19/19/19 23/23/23 22/22/22
f 20/20/20 24/24/24 21/21/21
f 20/20/20 22/22/22 24/24/24
f 21/21/21 24/24/24 25/25/25
f 22/22/22 23/23/23 26/26/26
f 22/22/22 26/26/26 24/24/24
f 23/23/23 27/27/27 26/26/26
f 24/24/24 28/28/28 25/25/25
f 24/24/24 26/26/26 28/28/28
f 25/25/25 28/28/28 29/29/29
f 26/26/26 27/27/27 30/30/30
f 26/26/26 30/30/30 28/28/28
f 27/27/27 31/31/31 30/30/30
f 28/28/28 32/32/32 29/29/29
f 28/28/28 30/30/30 32/32/32
f 33/33/33 29/29/29 32/32/32
f 30/30/30 31/31/31 34/34/34
f 30/30/30 34/34/34 32/32/32
f 31/31/31 35/35/35 34/34/34
f 36/36/36 33/33/33 32/32/32
f 32/32/32 34/34/34 36/36/36
f 34/34/34 35/35/35 37/37/37
f 34/34/34 37/37/37 36/36/36
f 35/35/35 38/38/38 37/37/37
f 39/39/39 37/37/37 38/38/38
f 36/36/36 37/37/37 39/39/39
f 40/40/40 39/39/39 38/38/38
f 41/41/41 36/36/36 39/39/39
f 36/36/36 41/41/41 33/33/33
f 41/41/41 42/42/42 33/33/33
f 45/45/45 44/44/44 43/43/43
f 44/44/44 46/46/46 43/43/43
f 43/43/43 46/46/46 47/47/47
f 48/48/48 43/43/43 47/47/47
f 49/49/49 46/46/46 44/44/44
f 50/50/50 49/49/49 44/44/44
f 48/48/48 47/47/47 51/51/51
f 52/52/52 48/48/48 51/51/51
f 53/53/53 51/51/51 47/47/47
f 54/54/54 47/47/47 46/46/46
f 54/54/54 53/53/53 47/47/47
f 49/49/49 54/54/54 46/46/46
f 55/55/55 53/53/53 54/54/54
f 56/56/56 55/55/55 54/54/54
f 56/56/56 54/54/54 49/49/49
f 57/57/57 55/55/55 56/56/56
f 58/58/58 49/49/49 50/50/50
f 58/58/58 56/56/56 49/49/49
f 59/59/59 58/58/58 50/50/50
f 60/60/60 57/57/57 56/56/56
f 60/60/60 56/56/56 58/58/58
f 61/61/61 57/57/57 60/60/60
f 62/62/62 58/58/58 59/59/59
f 62/62/62 60/60/60 58/58/58
f 63/63/63 62/62/62 59/59/59
f 64/64/64 61/61/61 60/60/60
f 64/64/64 60/60/60 62/62/62
f 65/65/65 61/61/61 64/64/64
f 66/66/66 62/62/62 63/63/63
f 66/66/66 64/64/64 62/62/62
f 67/67/67 66/66/66 63/63/63
f 68/68/68 65/65/65 64/64/64
f 68/68/68 64/64/64 66/66/66
f 69/69/69 65/65/65 68/68/68
f 70/70/70 66/66/66 67/67/67
f 70/70/70 68/68/68 66/66/66
f 71/71/71 70/70/70 67/67/67
f 72/72/72 69/69/69 68/68/68
f 72/72/72 68/68/68 70/70/70
f 73/73/73 69/69/69 72/72/72
f 74/74/74 70/70/70 71/71/71
f 74/74/74 72/72/72 70/70/70
f 75/75/75 74/74/74 71/71/71
f 76/76/76 73/73/73 72/72/72
f 72/72/72 74/74/74 76/76/76
f 77/77/77 73/73/73 76/76/76
f 78/78/78 77/77/77 76/76/76
f 79/79/79 74/74/74 75/75/75
f 74/74/74 79/79/79 76/76/76
f 80/80/80 79/79/79 75/75/75
f 78/78/78 76/76/76 81/81/81
f 76/76/76 79/79/79 81/81/81
f 81/81/81 79/79/79 80/80/80
f 78/78/78 81/81/81 82/82/82
f 83/83/83 81/81/81 80/80/80
f 81/81/81 83/83/83 82/82/82
f 86/86/86 85/85/85 84/84/84
f 85/85/85 87/87/87 84/84/84
f 87/87/87 85/85/85 88/88/88
f 87/87/87 89/89/89 84/84/84
f 89/89/89 90/90/90 84/84/84
f 91/91/91 87/87/87 88/88/88
f 89/89/89 87/87/87 91/91/91
f 91/91/91 88/88/88 92/92/92
f 90/90/90 89/89/89 93/93/93
f 93/93/93 89/89/89 91/91/91
f 94/94/94 90/90/90 93/93/93
f 95/95/95 91/91/91 92/92/92
f 93/93/93 91/91/91 95/95/95
f 95/95/95 92/92/92 96/96/96
f 94/94/94 93/93/93 97/97/97
f 97/97/97 93/93/93 95/95/95
f 98/98/98 94/94/94 97/97/97
f 99/99/99 95/95/95 96/96/96
f 97/97/97 95/95/95 99/99/99
f 99/99/99 96/96/96 100/100/100
f 98/98/98 97/97/97 101/101/101
f 101/101/101 97/97/97 99/99/99
f 102/102/102 98/98/98 101/101/101
f 103/103/103 99/99/99 100/100/100
f 101/101/101 99/99/99 103/103/103
f 103/103/103 100/100/100 104/104/104
f 102/102/102 101/101/101 105/105/105
f 105/105/105 101/101/101 103/103/103
f 106/106/106 102/102/102 105/105/105
f 107/107/107 103/103/103 104/104/104
f 105/105/105 103/103/103 107/107/107
f 107/107/107 104/104/104 108/108/108
f 106/106/106 105/105/105 109/109/109
f 109/109/109 105/105/105 107/107/107
f 110/110/110 106/106/106 109/109/109
f 111/111/111 107/107/107 108/108/108
f 109/109/109 107/107/107 111/111/111
f 111/111/111 108/108/108 112/112/112
f 110/110/110 109/109/109 113/113/113
f 113/113/113 109/109/109 111/111/111
f 114/114/114 110/110/110 113/113/113
f 115/115/115 111/111/111 112/112/112
f 113/113/113 111/111/111 115/115/115
f 112/112/112 116/116/116 115/115/115
f 114/114/114 113/113/113 117/117/117
f 117/117/117 113/113/113 115/115/115
f 118/118/118 114/114/114 117/117/117
f 116/116/116 119/119/119 115/115/115
f 117/117/117 115/115/115 119/119/119
f 118/118/118 117/117/117 120/120/120
f 120/120/120 117/117/117 119/119/119
f 121/121/121 118/118/118 120/120/120
f 120/120/120 122/122/122 121/121/121
f 120/120/120 119/119/119 122/122/122
f 122/122/122 123/123/123 121/121/121
f 119/119/119 124/124/124 122/122/122
f 124/124/124 119/119/119 116/116/116
f 125/125/125 124/124/124 116/116/116
f 128/128/128 127/127/127 126/126/126
f 129/129/129 128/128/128 126/126/126
f 129/129/129 126/126/126 130/130/130
f 126/126/126 131/131/131 130/130/130
f 129/129/129 132/132/132 128/128/128
f 132/132/132 133/133/133 128/128/128
f 130/130/130 131/131/131 134/134/134
f 131/131/131 135/135/135 134/134/134
f 134/134/134 136/136/136 130/130/130
f 130/130/130 137/137/137 129/129/129
f 136/136/136 137/137/137 130/130/130
f 137/137/137 132/132/132 129/129/129
f 136/136/136 138/138/138 137/137/137
f 138/138/138 139/139/139 137/137/137
f 137/137/137 139/139/139 132/132/132
f 138/138/138 140/140/140 139/139/139
f 132/132/132 141/141/141 133/133/133
f 139/139/139 141/141/141 132/132/132
f 141/141/141 142/142/142 133/133/133
f 140/140/140 143/143/143 139/139/139
f 139/139/139 143/143/143 141/141/141
f 140/140/140 144/144/144 143/143/143
f 141/141/141 145/145/145 142/142/142
f 143/143/143 145/145/145 141/141/141
f 145/145/145 146/146/146 142/142/142
f 144/144/144 147/147/147 143/143/143
f 143/143/143 147/147/147 145/145/145
f 144/144/144 148/148/148 147/147/147
f 145/145/145 149/149/149 146/146/146
f 147/147/147 149/149/149 145/145/145
f 149/149/149 150/150/150 146/146/146
f 148/148/148 151/151/151 147/147/147
f 147/147/147 151/151/151 149/149/149
f 148/148/148 152/152/152 151/151/151
f 149/149/149 153/153/153 150/150/150
f 151/151/151 153/153/153 149/149/149
f 153/153/153 154/154/154 150/150/150
f 152/152/152 155/155/155 151/151/151
f 151/151/151 155/155/155 153/153/153
f 152/152/152 156/156/156 155/155/155
f 153/153/153 157/157/157 154/154/154
f 155/155/155 157/157/157 153/153/153
f 157/157/157 158/158/158 154/154/154
f 156/156/156 159/159/159 155/155/155
f 157/157/157 155/155/155 159/159/159
f 156/156/156 160/160/160 159/159/159
f 160/160/160 161/161/161 159/159/159
f 157/157/157 162/162/162 158/158/158
f 162/162/162 157/157/157 159/159/159
f 162/162/162 163/163/163 158/158/158
f 159/159/159 161/161/161 164/164/164
f 162/162/162 159/159/159 164/164/164
f 162/162/162 164/164/164 163/163/163
f 164/164/164 161/161/161 165/165/165
f 164/164/164 166/166/166 163/163/163
f 166/166/166 164/164/164 165/165/165
