g pm0088_00_LiquidDSkin
v 0.049109887 0.40070894 0.44893014
v 0.057344683 0.395519 0.44069543
v 0.047372833 0.39902332 0.44069538
v 0.04385503 0.40889388 0.44069543
v 0.047459826 0.40889385 0.4505802
v 0.047372844 0.4187644 0.44069543
v 0.057344683 0.3990144 0.45063323
v 0.049109887 0.41707876 0.44893014
v 0.057344683 0.42226878 0.44069543
v 0.057344675 0.41877332 0.45063326
v 0.06557946 0.40070894 0.44893014
v 0.067316525 0.39902335 0.44069538
v 0.07083433 0.4088939 0.4406955
v 0.057344694 0.40889388 0.45414862
v 0.06722954 0.40889388 0.45058033
v 0.06557946 0.4170787 0.44893023
v 0.06731653 0.41876456 0.44069552
v 0.06557948 0.417079 0.4324609
v 0.07083433 0.4088939 0.4406955
v 0.06731653 0.41876456 0.44069552
v 0.057344683 0.42226878 0.44069543
v 0.067229554 0.408894 0.43081066
v 0.057344697 0.4187734 0.43075767
v 0.06557946 0.400709 0.43246067
v 0.067316525 0.39902335 0.44069538
v 0.057344683 0.395519 0.44069543
v 0.057344683 0.4088939 0.42724222
v 0.04910992 0.41707897 0.43246084
v 0.047372844 0.4187644 0.44069543
v 0.04385503 0.40889388 0.44069543
v 0.047459815 0.408894 0.43081066
v 0.047372833 0.39902332 0.44069538
v 0.057344683 0.39901435 0.43075758
v 0.049109902 0.400709 0.43246067
vt 0.4915414 0.1207911
vt 0.5000008 0.11463983
vt 0.4850353 0.11757074
vt 0.47921622 0.125
vt 0.49047294 0.125
vt 0.4850353 0.13242881
vt 0.5000008 0.120258935
vt 0.4915414 0.12920868
vt 0.5000008 0.13536
vt 0.5000008 0.12974112
vt 0.5084602 0.1207911
vt 0.51496625 0.11757074
vt 0.52078557 0.125
vt 0.5000008 0.125
vt 0.50952876 0.125
vt 0.5084602 0.1292086
vt 0.51496625 0.1324289
vt 0.4915414 0.10186506
vt 0.47921607 0.09765625
vt 0.4850354 0.10508524
vt 0.5000008 0.10801625
vt 0.49047303 0.09765625
vt 0.5000008 0.10239735
vt 0.4915414 0.09344737
vt 0.4850354 0.09022699
vt 0.5000008 0.0872961
vt 0.5000008 0.09765625
vt 0.5084604 0.10186506
vt 0.5149664 0.10508506
vt 0.52078575 0.09765625
vt 0.50952876 0.09765625
vt 0.5149664 0.09022699
vt 0.5000008 0.09291516
vt 0.5084602 0.09344737
vn -0.57671875 -0.5772883 0.578043
vn -0 -1 -2.4897909E-06
vn -0.7071616 -0.7070519 -1.5471467E-06
vn -1 2.4935428E-06 1.5584642E-07
vn -0.70638883 0 0.707824
vn -0.70716053 0.70705295 3.5363234E-06
vn -1.5462342E-06 -0.7065298 0.70768327
vn -0.5767191 0.57728726 0.5780438
vn -2.7231988E-06 1 6.6912885E-06
vn -5.0804765E-06 0.7065266 0.7076864
vn 0.57671696 -0.57728994 0.57804316
vn 0.70716107 -0.7070524 -1.7681654E-06
vn 1 1.5584658E-06 2.181852E-06
vn -3.5012497E-06 -1.2448887E-06 1
vn 0.70638514 -1.987382E-06 0.7078277
vn 0.5767134 0.5772875 0.5780491
vn 0.7071587 0.7070548 6.335934E-06
vn 0.57671714 0.5772944 -0.5780385
vn 1 1.5584658E-06 2.181852E-06
vn 0.7071587 0.7070548 6.335934E-06
vn -2.7231988E-06 1 6.6912885E-06
vn 0.70638806 5.152468E-06 -0.70782477
vn -1.3989736E-06 0.70653516 -0.70767796
vn 0.57671887 -0.57728493 -0.57804626
vn 0.70716107 -0.7070524 -1.7681654E-06
vn -0 -1 -2.4897909E-06
vn -0 7.93618E-06 -1
vn -0.57671756 0.5772939 -0.57803863
vn -0.70716053 0.70705295 3.5363234E-06
vn -1 2.4935428E-06 1.5584642E-07
vn -0.706388 6.3301763E-06 -0.7078248
vn -0.7071616 -0.7070519 -1.5471467E-06
vn 4.4178202E-07 -0.70652527 -0.70768774
vn -0.5767185 -0.5772847 -0.57804686
g pm0088_00_LiquidDSkin_0
f 3/3/3 2/2/2 1/1/1
f 4/4/4 3/3/3 1/1/1
f 5/5/5 4/4/4 1/1/1
f 6/6/6 4/4/4 5/5/5
f 2/2/2 7/7/7 1/1/1
f 1/1/1 7/7/7 5/5/5
f 8/8/8 6/6/6 5/5/5
f 9/9/9 6/6/6 8/8/8
f 8/8/8 5/5/5 10/10/10
f 10/10/10 9/9/9 8/8/8
f 7/7/7 2/2/2 11/11/11
f 2/2/2 12/12/12 11/11/11
f 12/12/12 13/13/13 11/11/11
f 7/7/7 14/14/14 5/5/5
f 5/5/5 14/14/14 10/10/10
f 7/7/7 11/11/11 15/15/15
f 14/14/14 7/7/7 15/15/15
f 13/13/13 15/15/15 11/11/11
f 10/10/10 14/14/14 15/15/15
f 9/9/9 10/10/10 16/16/16
f 16/16/16 10/10/10 15/15/15
f 15/15/15 13/13/13 16/16/16
f 17/17/17 9/9/9 16/16/16
f 13/13/13 17/17/17 16/16/16
f 20/20/20 19/19/19 18/18/18
f 21/21/21 20/20/20 18/18/18
f 19/19/19 22/22/22 18/18/18
f 23/23/23 21/21/21 18/18/18
f 23/23/23 18/18/18 22/22/22
f 22/22/22 19/19/19 24/24/24
f 19/19/19 25/25/25 24/24/24
f 25/25/25 26/26/26 24/24/24
f 22/22/22 24/24/24 27/27/27
f 27/27/27 23/23/23 22/22/22
f 21/21/21 23/23/23 28/28/28
f 29/29/29 21/21/21 28/28/28
f 30/30/30 29/29/29 28/28/28
f 28/28/28 23/23/23 31/31/31
f 31/31/31 30/30/30 28/28/28
f 23/23/23 27/27/27 31/31/31
f 32/32/32 30/30/30 31/31/31
f 24/24/24 33/33/33 27/27/27
f 26/26/26 33/33/33 24/24/24
f 27/27/27 33/33/33 31/31/31
f 34/34/34 32/32/32 31/31/31
f 26/26/26 32/32/32 34/34/34
f 33/33/33 34/34/34 31/31/31
f 33/33/33 26/26/26 34/34/34
