g pm0076_00_RockHoleRFSkin
v -0.32157135 0.28696895 0.072571546
v -0.3904141 0.3862598 0.07458196
v -0.30247244 0.3146268 0.09296285
v -0.40774116 0.34269702 0.06264524
v -0.41421428 0.34693295 0.048995137
v -0.40113574 0.39202276 0.06106914
v -0.40435696 0.33923247 -0.047973096
v -0.39196035 0.37506846 -0.05817332
v -0.3879331 0.32428712 -0.12105717
v -0.38480097 0.36530432 -0.14658286
v -0.27193415 0.29074574 0.075198315
v -0.32157135 0.28696895 0.072571546
v -0.30247244 0.3146268 0.09296285
v -0.30141166 0.2708178 0.052576546
v -0.28008315 0.2971431 -0.0697314
v -0.3019657 0.267254 -0.06478559
v -0.30129024 0.3148747 -0.120343864
v -0.32255378 0.2824608 -0.09933578
v -0.33854118 0.33814597 -0.13298398
v -0.3597959 0.30577016 -0.11696717
v -0.38480097 0.36530432 -0.14658286
v -0.3879331 0.32428712 -0.12105717
v -0.3879331 0.32428712 -0.12105717
v -0.40435696 0.33923247 -0.047973096
v -0.35727134 0.29425278 -0.025348451
v -0.3597959 0.30577016 -0.11696717
v -0.41421428 0.34693295 0.048995137
v -0.32255378 0.2824608 -0.09933578
v -0.40774116 0.34269702 0.06264524
v -0.3019657 0.267254 -0.06478559
v -0.32157135 0.28696895 0.072571546
v -0.30141166 0.2708178 0.052576546
vt 0.75781906 0.2508371
vt 0.751691 0.19917011
vt 0.74713653 0.24963248
vt 0.76091313 0.21100831
vt 0.76415163 0.20766711
vt 0.75559264 0.1934228
vt 0.7889646 0.2075626
vt 0.7920894 0.18947875
vt 0.8077348 0.21797304
vt 0.8183749 0.20024478
vt 0.75698835 0.27341938
vt 0.75781906 0.2508371
vt 0.74854004 0.25957704
vt 0.7641897 0.2602918
vt 0.7971043 0.2734375
vt 0.7924839 0.25861266
vt 0.8137341 0.25674677
vt 0.8008525 0.24979925
vt 0.81924325 0.23581493
vt 0.80639684 0.23128247
vt 0.8230938 0.21058023
vt 0.8077348 0.21797304
vt 0.8077348 0.21797304
vt 0.7889646 0.2075626
vt 0.78339386 0.23496759
vt 0.80639684 0.23128247
vt 0.76415163 0.20766711
vt 0.8008525 0.24979925
vt 0.76091313 0.21100831
vt 0.7924839 0.25861266
vt 0.75781906 0.2508371
vt 0.7641897 0.2602918
vn -0.16764395 -0.5606754 0.81088763
vn -0.6692999 -0.1540656 0.7268435
vn -0.16764402 -0.5606754 0.8108875
vn -0.6692999 -0.1540656 0.7268435
vn -0.94622445 0.09292274 0.3098783
vn -0.94622445 0.09292274 0.30987847
vn -0.9776627 0.054481193 -0.20299628
vn -0.9776627 0.054481193 -0.20299628
vn -0.6937641 -0.22620125 -0.68375754
vn -0.6937641 -0.22620119 -0.68375754
vn 0.34909144 -0.8478143 0.39918175
vn -0.16764395 -0.5606754 0.81088763
vn -0.16764402 -0.5606754 0.8108875
vn 0.3490913 -0.8478144 0.3991816
vn 0.5172804 -0.8238435 -0.231739
vn 0.51728046 -0.8238435 -0.23173907
vn 0.30436867 -0.6756596 -0.67144907
vn 0.30436867 -0.67565954 -0.67144907
vn -0.14575161 -0.50618446 -0.85001975
vn -0.14575157 -0.5061845 -0.8500199
vn -0.6937641 -0.22620119 -0.68375754
vn -0.6937641 -0.22620125 -0.68375754
vn -0.6065984 -0.7944037 -0.031004567
vn -0.6186899 -0.78558475 -0.008916388
vn -0.56626916 -0.8242147 0.0030672732
vn -0.565766 -0.8240986 -0.027757227
vn -0.6300078 -0.7763504 0.01923965
vn -0.52782065 -0.8491869 -0.016938496
vn -0.59398234 -0.8034486 0.040685184
vn -0.4994228 -0.866332 0.006769908
vn -0.5574861 -0.82767934 0.06446752
vn -0.52648276 -0.8494314 0.03580852
g pm0076_00_RockHoleRFSkin_0
f 3/3/3 2/2/2 1/1/1
f 2/2/2 4/4/4 1/1/1
f 5/5/5 4/4/4 2/2/2
f 6/6/6 5/5/5 2/2/2
f 7/7/7 5/5/5 6/6/6
f 8/8/8 7/7/7 6/6/6
f 9/9/9 7/7/7 8/8/8
f 10/10/10 9/9/9 8/8/8
f 13/13/13 12/12/12 11/11/11
f 12/12/12 14/14/14 11/11/11
f 11/11/11 14/14/14 15/15/15
f 14/14/14 16/16/16 15/15/15
f 15/15/15 16/16/16 17/17/17
f 16/16/16 18/18/18 17/17/17
f 17/17/17 18/18/18 19/19/19
f 18/18/18 20/20/20 19/19/19
f 19/19/19 20/20/20 21/21/21
f 20/20/20 22/22/22 21/21/21
f 25/25/25 24/24/24 23/23/23
f 26/26/26 25/25/25 23/23/23
f 24/24/24 25/25/25 27/27/27
f 28/28/28 25/25/25 26/26/26
f 25/25/25 29/29/29 27/27/27
f 28/28/28 30/30/30 25/25/25
f 31/31/31 29/29/29 25/25/25
f 30/30/30 32/32/32 25/25/25
f 32/32/32 31/31/31 25/25/25
