g pm0076_00_RockHoleRHSkin
v -0.5168405 0.49140388 0.11410363
v -0.48389244 0.50199616 0.1467227
v -0.48409262 0.4816855 0.10300429
v -0.51788014 0.51503277 0.15769482
v -0.46690887 0.57108915 0.22093181
v -0.5231059 0.57011175 0.22541574
v -0.49784458 0.6718841 0.18741219
v -0.57247084 0.6748799 0.08641935
v -0.5389329 0.7002177 0.06763089
v -0.5502912 0.6572703 0.19051485
v -0.46690887 0.57108915 0.22093181
v -0.5231059 0.57011175 0.22541574
v -0.57247084 0.6748799 0.08641935
v -0.52423555 0.63993394 0.03018067
v -0.5389329 0.7002177 0.06763089
v -0.56168973 0.62594527 0.046220254
v -0.54672277 0.5644007 0.04925214
v -0.5084892 0.570598 0.023588259
v -0.5410163 0.543301 0.0527469
v -0.50713485 0.5430958 0.038278095
v -0.5006082 0.5092018 0.07634566
v -0.52774704 0.51549655 0.08748322
v -0.5168405 0.49140388 0.11410363
v -0.48409262 0.4816855 0.10300429
v -0.51788014 0.51503277 0.15769482
v -0.5168405 0.49140388 0.11410363
v -0.52774704 0.51549655 0.08748322
v -0.5429407 0.58105683 0.13524742
v -0.5231059 0.57011175 0.22541574
v -0.5502912 0.6572703 0.19051485
v -0.57247084 0.6748799 0.08641935
v -0.54672277 0.5644007 0.04925214
v -0.5410163 0.543301 0.0527469
v -0.56168973 0.62594527 0.046220254
vt 0.54406786 0.39996415
vt 0.5573082 0.3904254
vt 0.54447806 0.38233113
vt 0.5571915 0.40855235
vt 0.58576226 0.40598884
vt 0.5764806 0.42877555
vt 0.5779446 0.47783488
vt 0.54167295 0.47980782
vt 0.5434811 0.5
vt 0.56638384 0.4632644
vt 0.59429395 0.43557927
vt 0.5764806 0.42877555
vt 0.54167295 0.47980782
vt 0.5189345 0.46573582
vt 0.53087664 0.492897
vt 0.5304544 0.4596829
vt 0.5299584 0.43453553
vt 0.5160229 0.43316653
vt 0.5295056 0.42518902
vt 0.5201199 0.41973868
vt 0.5308772 0.40179634
vt 0.53735536 0.41062838
vt 0.54406786 0.39996415
vt 0.5370096 0.3863568
vt 0.5571915 0.40855235
vt 0.54406786 0.39996415
vt 0.53735536 0.41062838
vt 0.5524168 0.43634608
vt 0.5764806 0.42877555
vt 0.56638384 0.4632644
vt 0.54167295 0.47980782
vt 0.5299584 0.43453553
vt 0.5295056 0.42518902
vt 0.5304544 0.4596829
vn -0.2967984 -0.954939 0.0014710864
vn -0.17696887 -0.7942596 0.58123463
vn -0.2967984 -0.954939 0.0014710864
vn -0.17696874 -0.7942596 0.58123463
vn -0.16668884 -0.19832477 0.9658582
vn -0.16668884 -0.19832473 0.9658582
vn -0.40661198 0.5937797 0.6943287
vn -0.64355624 0.7379948 -0.2029755
vn -0.64355624 0.7379948 -0.2029755
vn -0.40661225 0.5937795 0.6943287
vn -0.16668884 -0.19832477 0.9658582
vn -0.16668884 -0.19832473 0.9658582
vn -0.64355624 0.7379948 -0.2029755
vn -0.61193436 0.25502306 -0.7486652
vn -0.64355624 0.7379948 -0.2029755
vn -0.61193436 0.25502303 -0.7486652
vn -0.5020528 -0.21203248 -0.83844215
vn -0.5020528 -0.21203248 -0.83844215
vn -0.42536023 -0.55009466 -0.7186547
vn -0.42536026 -0.5500947 -0.7186547
vn -0.37645972 -0.80705756 -0.45490232
vn -0.37645984 -0.80705756 -0.4549023
vn -0.2967984 -0.954939 0.0014710864
vn -0.2967984 -0.954939 0.0014710864
vn -0.9495591 -0.27756524 0.14592817
vn -0.9471628 -0.29057327 0.13582996
vn -0.95057386 -0.28372005 0.1261437
vn -0.954562 -0.26442167 0.13745038
vn -0.95275396 -0.2635308 0.15103495
vn -0.956346 -0.25321072 0.14589943
vn -0.95937085 -0.25038835 0.13005155
vn -0.9574172 -0.26605815 0.1120959
vn -0.9537423 -0.27903408 0.11187344
vn -0.9610907 -0.25327572 0.1102546
g pm0076_00_RockHoleRHSkin_0
f 3/3/3 2/2/2 1/1/1
f 2/2/2 4/4/4 1/1/1
f 2/2/2 5/5/5 4/4/4
f 5/5/5 6/6/6 4/4/4
f 9/9/9 8/8/8 7/7/7
f 8/8/8 10/10/10 7/7/7
f 7/7/7 10/10/10 11/11/11
f 10/10/10 12/12/12 11/11/11
f 15/15/15 14/14/14 13/13/13
f 14/14/14 16/16/16 13/13/13
f 17/17/17 16/16/16 14/14/14
f 18/18/18 17/17/17 14/14/14
f 19/19/19 17/17/17 18/18/18
f 20/20/20 19/19/19 18/18/18
f 20/20/20 21/21/21 19/19/19
f 21/21/21 22/22/22 19/19/19
f 23/23/23 22/22/22 21/21/21
f 24/24/24 23/23/23 21/21/21
f 27/27/27 26/26/26 25/25/25
f 28/28/28 27/27/27 25/25/25
f 29/29/29 28/28/28 25/25/25
f 29/29/29 30/30/30 28/28/28
f 28/28/28 30/30/30 31/31/31
f 28/28/28 32/32/32 27/27/27
f 28/28/28 31/31/31 32/32/32
f 32/32/32 33/33/33 27/27/27
f 31/31/31 34/34/34 32/32/32
