g pm0105_61_L_FireCore3Skin
v 0.5292615 -0.10419215 0.4349758
v 0.46650007 -0.12604031 0.47211996
v 0.4665 -0.06940247 0.40470892
v 0.48439124 -0.12604031 0.47984618
v 0.55952835 -0.06940246 0.49773726
v 0.49211752 -0.12604031 0.49773726
v 0.52926147 -0.10419215 0.56049865
v 0.48439124 -0.12604031 0.5156284
v 0.4665 -0.06940247 0.5907656
v 0.46650007 -0.12604031 0.5233547
v 0.4665 -0.06940247 0.40470892
v 0.46650007 -0.12604031 0.47211996
v 0.44860893 -0.12604031 0.47984618
v 0.40373862 -0.10419215 0.4349758
v 0.4408828 -0.12604031 0.49773726
v 0.37347174 -0.06940246 0.49773726
v 0.44860893 -0.12604031 0.5156284
v 0.40373862 -0.10419215 0.56049865
v 0.46650007 -0.12604031 0.5233547
v 0.4665 -0.06940247 0.5907656
vt 0.98777884 1.5872391
vt 0.013262868 1.9467434
vt 0.98777914 2.1783502
vt 0.013262868 1.5668534
vt 0.98777884 1.1613692
vt 0.013262808 1.1612784
vt 0.98777914 0.7352352
vt 0.013262808 0.7556539
vt 0.98777884 0.14366378
vt 0.013262451 0.3754899
vt 0.9825823 2.1757758
vt 0.013262868 1.9451495
vt 0.013262659 1.5668
vt 0.9825822 1.5871037
vt 0.013262659 1.1629807
vt 0.9825821 1.1629807
vt 0.01326263 0.7591608
vt 0.9825821 0.7388613
vt 0.013262451 0.38081083
vt 0.9825823 0.1501788
vn -0.29434103 0.9092448 0.29434192
vn -0 0.8064031 0.59136635
vn -1.2842793E-07 0.8064031 0.5913663
vn -0.2943409 0.9092449 0.29434198
vn -0.5913674 0.8064023 -3.7773015E-07
vn -0.5913674 0.8064022 -3.4989046E-07
vn -0.2943423 0.9092443 -0.2943422
vn -0.29434234 0.9092443 -0.29434225
vn -1.510921E-07 0.8064027 -0.59136695
vn -0 0.8064025 -0.59136695
vn -1.2842793E-07 0.8064031 0.5913663
vn -0 0.8064031 0.59136635
vn 0.29434144 0.9092452 0.29434055
vn 0.29434085 0.9092452 0.2943411
vn 0.5913668 0.8064027 0
vn 0.59136695 0.8064027 0
vn 0.2943426 0.9092447 -0.29434067
vn 0.2943422 0.9092447 -0.29434112
vn -0 0.8064025 -0.59136695
vn -1.510921E-07 0.8064027 -0.59136695
g pm0105_61_L_FireCore3Skin_0
f 3/3/3 2/2/2 1/1/1
f 2/2/2 4/4/4 1/1/1
f 1/1/1 4/4/4 5/5/5
f 4/4/4 6/6/6 5/5/5
f 5/5/5 6/6/6 7/7/7
f 6/6/6 8/8/8 7/7/7
f 7/7/7 8/8/8 9/9/9
f 8/8/8 10/10/10 9/9/9
f 13/13/13 12/12/12 11/11/11
f 14/14/14 13/13/13 11/11/11
f 15/15/15 13/13/13 14/14/14
f 16/16/16 15/15/15 14/14/14
f 17/17/17 15/15/15 16/16/16
f 18/18/18 17/17/17 16/16/16
f 19/19/19 17/17/17 18/18/18
f 20/20/20 19/19/19 18/18/18
