g pm0184_00_BodyIncSkin
v 2.9446567E-19 0.0073491083 -0.55895317
v 2.4533916E-19 0.031942375 -0.54241395
v 0.027414182 0.034033313 -0.54764265
v 1.8505237E-19 0.06067629 -0.5364137
v 0.02492496 0.011318097 -0.5629515
v 0.0275719 -0.0041065966 -0.58560914
v 3.2476496E-19 -0.009271294 -0.5835086
v 3.315009E-19 -0.015320326 -0.61223704
v 0.043158997 0.018097216 -0.5697879
v 0.029797096 0.06067629 -0.54180986
v 0.027414182 0.087319285 -0.54764265
v 0.05487363 0.06067629 -0.5576
v 1.2216341E-19 0.08941021 -0.54241395
v 6.586414E-20 0.11400349 -0.55895317
v 0.05049788 0.036051348 -0.562136
v 0.06562356 0.033171844 -0.58490556
v 0.050680645 0.010319838 -0.5876793
v 0.055176873 0.005692729 -0.61223704
v 0.030029945 -0.010010745 -0.61223704
v 0.0275719 -0.0041065966 -0.63886493
v 3.12306E-19 -0.009271294 -0.64096546
v 2.7135743E-19 0.0073491083 -0.6655209
v 0.02492496 0.11003448 -0.5629515
v 0.0275719 0.1254592 -0.58560914
v 2.491562E-20 0.13062388 -0.5835086
v 5.720715E-21 0.13667291 -0.61223704
v 0.043158997 0.103255376 -0.5697879
v 0.05049788 0.08530123 -0.562136
v 0.06562356 0.08818075 -0.58490556
v 0.050680645 0.11103276 -0.5876793
v 0.055176873 0.115659855 -0.61223704
v 0.030029945 0.13136333 -0.61223704
v 0.0275719 0.1254592 -0.63886493
v 1.2456636E-20 0.13062388 -0.64096546
v 4.2755935E-20 0.11400349 -0.6655209
v 0.07110741 0.06067629 -0.5824696
v 0.076769836 0.06067629 -0.61223704
v 0.07124279 0.090682074 -0.61223704
v 0.06562356 0.08818075 -0.63956857
v 0.050680645 0.11103276 -0.63679475
v 0.043158997 0.103255376 -0.6546862
v 0.02492496 0.11003448 -0.66152257
v 0.027414182 0.087319285 -0.6768315
v 9.188247E-20 0.08941021 -0.6820601
v 1.5216927E-19 0.06067629 -0.6880603
v 0.07124279 0.030670507 -0.61223704
v 0.06562356 0.033171844 -0.63956857
v 0.07110741 0.06067629 -0.64200455
v 0.05487363 0.06067629 -0.66687405
v 0.05049788 0.08530123 -0.6623381
v 0.029797096 0.06067629 -0.6826643
v 0.027414182 0.034033313 -0.6768315
v 2.1505822E-19 0.031942375 -0.6820601
v 0.050680645 0.010319838 -0.63679475
v 0.05049788 0.036051348 -0.6623381
v 0.043158997 0.018097216 -0.6546862
v 0.02492496 0.011318097 -0.66152257
v 2.9446567E-19 0.0073491083 -0.55895317
v -0.027414182 0.034033313 -0.54764265
v 2.4533916E-19 0.031942375 -0.54241395
v 1.8505237E-19 0.06067629 -0.5364137
v -0.02492496 0.011318097 -0.5629515
v -0.0275719 -0.0041065966 -0.58560914
v 3.2476496E-19 -0.009271294 -0.5835086
v 3.315009E-19 -0.015320326 -0.61223704
v -0.043158997 0.018097216 -0.5697879
v -0.029797096 0.06067629 -0.54180986
v -0.027414182 0.087319285 -0.54764265
v -0.05487363 0.06067629 -0.5576
v 1.2216341E-19 0.08941021 -0.54241395
v 6.586414E-20 0.11400349 -0.55895317
v -0.05049788 0.036051348 -0.562136
v -0.06562356 0.033171844 -0.58490556
v -0.050680645 0.010319838 -0.5876793
v -0.055176873 0.005692729 -0.61223704
v -0.030029945 -0.010010745 -0.61223704
v -0.0275719 -0.0041065966 -0.63886493
v 3.12306E-19 -0.009271294 -0.64096546
v 2.7135743E-19 0.0073491083 -0.6655209
v -0.02492496 0.11003448 -0.5629515
v -0.0275719 0.1254592 -0.58560914
v 2.491562E-20 0.13062388 -0.5835086
v 5.720715E-21 0.13667291 -0.61223704
v -0.043158997 0.103255376 -0.5697879
v -0.05049788 0.08530123 -0.562136
v -0.06562356 0.08818075 -0.58490556
v -0.050680645 0.11103276 -0.5876793
v -0.055176873 0.115659855 -0.61223704
v -0.030029945 0.13136333 -0.61223704
v -0.0275719 0.1254592 -0.63886493
v 1.2456636E-20 0.13062388 -0.64096546
v 4.2755935E-20 0.11400349 -0.6655209
v -0.07110741 0.06067629 -0.5824696
v -0.076769836 0.06067629 -0.61223704
v -0.07124279 0.090682074 -0.61223704
v -0.06562356 0.08818075 -0.63956857
v -0.050680645 0.11103276 -0.63679475
v -0.043158997 0.103255376 -0.6546862
v -0.02492496 0.11003448 -0.66152257
v -0.027414182 0.087319285 -0.6768315
v 9.188247E-20 0.08941021 -0.6820601
v 1.5216927E-19 0.06067629 -0.6880603
v -0.07124279 0.030670507 -0.61223704
v -0.06562356 0.033171844 -0.63956857
v -0.07110741 0.06067629 -0.64200455
v -0.05487363 0.06067629 -0.66687405
v -0.05049788 0.08530123 -0.6623381
v -0.029797096 0.06067629 -0.6826643
v -0.027414182 0.034033313 -0.6768315
v 2.1505822E-19 0.031942375 -0.6820601
v -0.050680645 0.010319838 -0.63679475
v -0.05049788 0.036051348 -0.6623381
v -0.043158997 0.018097216 -0.6546862
v -0.02492496 0.011318097 -0.66152257
vt 0.69104314 0.8366303
vt 0.67691517 0.8160977
vt 0.67148155 0.8408918
vt 0.66015625 0.80868936
vt 0.68183494 0.8537913
vt 0.6871843 0.87563276
vt 0.69979656 0.86616826
vt 0.7024076 0.8984375
vt 0.6759031 0.86511666
vt 0.66015625 0.83677244
vt 0.6488309 0.8408919
vt 0.66015625 0.85618395
vt 0.6433973 0.8160979
vt 0.6292694 0.8366308
vt 0.6686869 0.8606104
vt 0.6685413 0.8803572
vt 0.67727184 0.88059545
vt 0.67772233 0.8984375
vt 0.68821824 0.8984375
vt 0.68663716 0.9201536
vt 0.6987189 0.9303875
vt 0.6892586 0.9573288
vt 0.6384776 0.8537916
vt 0.63312835 0.875633
vt 0.6205163 0.8661689
vt 0.6179056 0.8984375
vt 0.6444094 0.86511683
vt 0.65162563 0.8606105
vt 0.6517711 0.88035727
vt 0.64304066 0.8805955
vt 0.64259017 0.8984375
vt 0.6320944 0.8984375
vt 0.6336755 0.92015326
vt 0.62159395 0.9303869
vt 0.631054 0.95732814
vt 0.66015625 0.87977827
vt 0.66015625 0.8984375
vt 0.65151525 0.8984375
vt 0.6519166 0.91512537
vt 0.64332175 0.91498196
vt 0.6448989 0.92899585
vt 0.63938797 0.9401442
vt 0.6494534 0.95092285
vt 0.6447482 0.97467
vt 0.66015625 0.9805815
vt 0.66879714 0.8984375
vt 0.6683958 0.9151255
vt 0.66015625 0.91665184
vt 0.66015625 0.9335878
vt 0.6519227 0.9320679
vt 0.66015625 0.95346403
vt 0.6708591 0.9509231
vt 0.6755642 0.97467023
vt 0.67699087 0.9149819
vt 0.6683898 0.9320679
vt 0.6754136 0.9289962
vt 0.6809246 0.9401443
vt 0.3089569 0.8366303
vt 0.32851845 0.8408918
vt 0.32308486 0.8160977
vt 0.33984375 0.80868936
vt 0.31816506 0.8537913
vt 0.31281573 0.87563276
vt 0.30020347 0.86616826
vt 0.29759237 0.8984375
vt 0.32409692 0.86511666
vt 0.33984375 0.83677244
vt 0.35116908 0.8408919
vt 0.33984375 0.85618395
vt 0.35660273 0.8160979
vt 0.37073058 0.8366308
vt 0.33131307 0.8606104
vt 0.33145866 0.8803572
vt 0.32272816 0.88059545
vt 0.32227764 0.8984375
vt 0.3117818 0.8984375
vt 0.31336287 0.9201536
vt 0.30128112 0.9303875
vt 0.31074145 0.9573288
vt 0.36152238 0.8537916
vt 0.36687165 0.875633
vt 0.3794837 0.8661689
vt 0.38209435 0.8984375
vt 0.35559058 0.86511683
vt 0.3483744 0.8606105
vt 0.34822887 0.88035727
vt 0.3569593 0.8805955
vt 0.35740986 0.8984375
vt 0.36790562 0.8984375
vt 0.36632448 0.92015326
vt 0.37840602 0.9303869
vt 0.36894602 0.95732814
vt 0.33984375 0.87977827
vt 0.33984375 0.8984375
vt 0.34848475 0.8984375
vt 0.34808338 0.91512537
vt 0.35667828 0.91498196
vt 0.35510114 0.92899585
vt 0.360612 0.9401442
vt 0.3505466 0.95092285
vt 0.3552518 0.97467
vt 0.33984375 0.9805815
vt 0.33120286 0.8984375
vt 0.33160418 0.9151255
vt 0.33984375 0.91665184
vt 0.33984375 0.9335878
vt 0.3480773 0.9320679
vt 0.33984375 0.95346403
vt 0.32914093 0.9509231
vt 0.32443577 0.97467023
vt 0.32300916 0.9149819
vt 0.33161017 0.9320679
vt 0.32458636 0.9289962
vt 0.3190754 0.9401443
vn -3.7114197E-07 -0.70577526 0.7084357
vn -1.7820277E-07 -0.3909755 0.92040104
vn 0.33887464 -0.37060902 0.86476177
vn -0 0 1
vn 0.31457883 -0.66941196 0.6729991
vn 0.33599746 -0.864111 0.3747236
vn -2.9373038E-07 -0.9192285 0.39372447
vn -1.219821E-07 -1 0
vn 0.5554591 -0.5847754 0.59118766
vn 0.36313066 0 0.93173826
vn 0.33887404 0.37060916 0.8647619
vn 0.69975245 0 0.71438545
vn 1.2728766E-07 0.3909754 0.92040116
vn 2.6510148E-07 0.70577526 0.7084357
vn 0.6535835 -0.34548602 0.6734003
vn 0.86215687 -0.35473436 0.36173052
vn 0.65360135 -0.66982853 0.35232824
vn 0.70109445 -0.71306854 0
vn 0.3597387 -0.9330531 0
vn 0.33599767 -0.8641112 -0.37472332
vn 1.0635064E-07 -0.9192285 -0.39372447
vn -0 -0.7057754 -0.7084356
vn 0.31457877 0.66941196 0.6729991
vn 0.3359977 0.8641109 0.37472376
vn 1.3167222E-07 0.9192284 0.39372465
vn -0 1 0
vn 0.555459 0.58477515 0.59118795
vn 0.6535836 0.3454858 0.67340034
vn 0.8621568 0.3547345 0.36173064
vn 0.6536009 0.66982883 0.3523284
vn 0.7010945 0.71306837 0
vn 0.35973898 0.93305296 0
vn 0.3359977 0.86411107 -0.37472343
vn -0 0.9192284 -0.39372456
vn -0 0.70577544 -0.70843554
vn 0.9257054 0 0.37824547
vn 1 0 0
vn 0.9281917 0.37210232 0
vn 0.8621567 0.35473478 -0.36173066
vn 0.653601 0.6698288 -0.35232827
vn 0.55545956 0.584775 -0.5911877
vn 0.31457913 0.66941184 -0.6729991
vn 0.33887437 0.37060893 -0.8647619
vn -0 0.39097515 -0.9204013
vn -0 0 -1
vn 0.9281917 -0.37210226 0
vn 0.8621567 -0.35473463 -0.36173072
vn 0.9257053 0 -0.37824577
vn 0.69975185 0 -0.71438605
vn 0.6535836 0.34548602 -0.67340016
vn 0.36313075 0 -0.93173826
vn 0.3388746 -0.3706089 -0.8647619
vn -1.2219618E-07 -0.3909752 -0.9204013
vn 0.6536007 -0.669829 -0.35232836
vn 0.6535837 -0.34548602 -0.6734001
vn 0.5554593 -0.58477515 -0.59118766
vn 0.31457862 -0.66941196 -0.6729991
vn -3.7114197E-07 -0.70577526 0.7084357
vn -0.33887497 -0.37060896 0.8647617
vn -1.7820277E-07 -0.3909755 0.92040104
vn -0 0 1
vn -0.31457946 -0.66941196 0.67299885
vn -0.33599788 -0.8641109 0.3747236
vn -2.9373038E-07 -0.9192285 0.39372447
vn -1.219821E-07 -1 0
vn -0.55545914 -0.58477545 0.59118766
vn -0.36313075 0 0.93173826
vn -0.3388739 0.37060916 0.86476195
vn -0.69975245 0 0.71438545
vn 1.2728766E-07 0.3909754 0.92040116
vn 2.6510148E-07 0.70577526 0.7084357
vn -0.6535835 -0.345486 0.67340034
vn -0.86215687 -0.35473445 0.36173058
vn -0.65360117 -0.66982853 0.35232818
vn -0.7010943 -0.71306854 0
vn -0.3597389 -0.9330531 0
vn -0.33599788 -0.86411107 -0.3747233
vn 1.0635064E-07 -0.9192285 -0.39372447
vn -0 -0.7057754 -0.7084356
vn -0.31457815 0.6694121 0.6729993
vn -0.33599725 0.864111 0.37472382
vn 1.3167222E-07 0.9192284 0.39372465
vn -0 1 0
vn -0.5554587 0.58477545 0.5911881
vn -0.65358365 0.34548587 0.6734002
vn -0.86215687 0.3547345 0.36173066
vn -0.6536007 0.6698289 0.3523285
vn -0.7010946 0.71306825 0
vn -0.35973895 0.93305296 0
vn -0.3359977 0.864111 -0.37472346
vn -0 0.9192284 -0.39372456
vn -0 0.70577544 -0.70843554
vn -0.9257053 0 0.37824553
vn -1 0 0
vn -0.9281917 0.37210223 0
vn -0.8621568 0.35473463 -0.3617307
vn -0.6536011 0.66982865 -0.3523283
vn -0.55545956 0.584775 -0.5911878
vn -0.31457904 0.6694119 -0.6729991
vn -0.3388743 0.37060887 -0.8647619
vn -0 0.39097515 -0.9204013
vn -0 0 -1
vn -0.9281917 -0.37210223 0
vn -0.8621568 -0.3547346 -0.36173064
vn -0.9257053 0 -0.3782458
vn -0.6997518 0 -0.71438605
vn -0.65358365 0.34548593 -0.67340016
vn -0.36313063 0 -0.93173826
vn -0.33887473 -0.3706088 -0.86476177
vn -1.2219618E-07 -0.3909752 -0.9204013
vn -0.653601 -0.6698287 -0.35232815
vn -0.65358377 -0.345486 -0.67340004
vn -0.55546 -0.584775 -0.5911874
vn -0.314579 -0.66941196 -0.67299896
g pm0184_00_BodyIncSkin_0
f 3/3/3 2/2/2 1/1/1
f 2/2/2 3/3/3 4/4/4
f 5/5/5 3/3/3 1/1/1
f 6/6/6 5/5/5 1/1/1
f 7/7/7 6/6/6 1/1/1
f 6/6/6 7/7/7 8/8/8
f 3/3/3 5/5/5 9/9/9
f 5/5/5 6/6/6 9/9/9
f 3/3/3 10/10/10 4/4/4
f 10/10/10 11/11/11 4/4/4
f 10/10/10 3/3/3 12/12/12
f 11/11/11 10/10/10 12/12/12
f 11/11/11 13/13/13 4/4/4
f 13/13/13 11/11/11 14/14/14
f 15/15/15 3/3/3 9/9/9
f 3/3/3 15/15/15 12/12/12
f 16/16/16 15/15/15 9/9/9
f 15/15/15 16/16/16 12/12/12
f 6/6/6 17/17/17 9/9/9
f 17/17/17 16/16/16 9/9/9
f 17/17/17 6/6/6 18/18/18
f 16/16/16 17/17/17 18/18/18
f 19/19/19 6/6/6 8/8/8
f 6/6/6 19/19/19 18/18/18
f 20/20/20 19/19/19 8/8/8
f 19/19/19 20/20/20 18/18/18
f 21/21/21 20/20/20 8/8/8
f 20/20/20 21/21/21 22/22/22
f 11/11/11 23/23/23 14/14/14
f 23/23/23 24/24/24 14/14/14
f 24/24/24 25/25/25 14/14/14
f 25/25/25 24/24/24 26/26/26
f 23/23/23 11/11/11 27/27/27
f 24/24/24 23/23/23 27/27/27
f 11/11/11 28/28/28 27/27/27
f 28/28/28 29/29/29 27/27/27
f 28/28/28 11/11/11 12/12/12
f 29/29/29 28/28/28 12/12/12
f 30/30/30 24/24/24 27/27/27
f 29/29/29 30/30/30 27/27/27
f 24/24/24 30/30/30 31/31/31
f 30/30/30 29/29/29 31/31/31
f 24/24/24 32/32/32 26/26/26
f 32/32/32 24/24/24 31/31/31
f 32/32/32 33/33/33 26/26/26
f 33/33/33 32/32/32 31/31/31
f 33/33/33 34/34/34 26/26/26
f 34/34/34 33/33/33 35/35/35
f 36/36/36 29/29/29 12/12/12
f 29/29/29 36/36/36 37/37/37
f 16/16/16 36/36/36 12/12/12
f 36/36/36 16/16/16 37/37/37
f 29/29/29 38/38/38 31/31/31
f 38/38/38 29/29/29 37/37/37
f 38/38/38 39/39/39 31/31/31
f 39/39/39 38/38/38 37/37/37
f 40/40/40 33/33/33 31/31/31
f 39/39/39 40/40/40 31/31/31
f 33/33/33 40/40/40 41/41/41
f 40/40/40 39/39/39 41/41/41
f 33/33/33 42/42/42 35/35/35
f 42/42/42 33/33/33 41/41/41
f 42/42/42 43/43/43 35/35/35
f 43/43/43 42/42/42 41/41/41
f 43/43/43 44/44/44 35/35/35
f 44/44/44 43/43/43 45/45/45
f 16/16/16 46/46/46 37/37/37
f 46/46/46 47/47/47 37/37/37
f 46/46/46 16/16/16 18/18/18
f 47/47/47 46/46/46 18/18/18
f 48/48/48 39/39/39 37/37/37
f 47/47/47 48/48/48 37/37/37
f 39/39/39 48/48/48 49/49/49
f 48/48/48 47/47/47 49/49/49
f 39/39/39 50/50/50 41/41/41
f 50/50/50 43/43/43 41/41/41
f 50/50/50 39/39/39 49/49/49
f 43/43/43 50/50/50 49/49/49
f 43/43/43 51/51/51 45/45/45
f 51/51/51 43/43/43 49/49/49
f 51/51/51 52/52/52 45/45/45
f 52/52/52 51/51/51 49/49/49
f 52/52/52 53/53/53 45/45/45
f 53/53/53 52/52/52 22/22/22
f 54/54/54 47/47/47 18/18/18
f 20/20/20 54/54/54 18/18/18
f 47/47/47 55/55/55 49/49/49
f 55/55/55 52/52/52 49/49/49
f 47/47/47 54/54/54 56/56/56
f 55/55/55 47/47/47 56/56/56
f 54/54/54 20/20/20 56/56/56
f 52/52/52 55/55/55 56/56/56
f 52/52/52 57/57/57 22/22/22
f 57/57/57 20/20/20 22/22/22
f 57/57/57 52/52/52 56/56/56
f 20/20/20 57/57/57 56/56/56
f 60/60/60 59/59/59 58/58/58
f 59/59/59 60/60/60 61/61/61
f 59/59/59 62/62/62 58/58/58
f 62/62/62 63/63/63 58/58/58
f 63/63/63 64/64/64 58/58/58
f 64/64/64 63/63/63 65/65/65
f 62/62/62 59/59/59 66/66/66
f 63/63/63 62/62/62 66/66/66
f 67/67/67 59/59/59 61/61/61
f 68/68/68 67/67/67 61/61/61
f 59/59/59 67/67/67 69/69/69
f 67/67/67 68/68/68 69/69/69
f 70/70/70 68/68/68 61/61/61
f 68/68/68 70/70/70 71/71/71
f 59/59/59 72/72/72 66/66/66
f 72/72/72 59/59/59 69/69/69
f 72/72/72 73/73/73 66/66/66
f 73/73/73 72/72/72 69/69/69
f 74/74/74 63/63/63 66/66/66
f 73/73/73 74/74/74 66/66/66
f 63/63/63 74/74/74 75/75/75
f 74/74/74 73/73/73 75/75/75
f 63/63/63 76/76/76 65/65/65
f 76/76/76 63/63/63 75/75/75
f 76/76/76 77/77/77 65/65/65
f 77/77/77 76/76/76 75/75/75
f 77/77/77 78/78/78 65/65/65
f 78/78/78 77/77/77 79/79/79
f 80/80/80 68/68/68 71/71/71
f 81/81/81 80/80/80 71/71/71
f 82/82/82 81/81/81 71/71/71
f 81/81/81 82/82/82 83/83/83
f 68/68/68 80/80/80 84/84/84
f 80/80/80 81/81/81 84/84/84
f 85/85/85 68/68/68 84/84/84
f 86/86/86 85/85/85 84/84/84
f 68/68/68 85/85/85 69/69/69
f 85/85/85 86/86/86 69/69/69
f 81/81/81 87/87/87 84/84/84
f 87/87/87 86/86/86 84/84/84
f 87/87/87 81/81/81 88/88/88
f 86/86/86 87/87/87 88/88/88
f 89/89/89 81/81/81 83/83/83
f 81/81/81 89/89/89 88/88/88
f 90/90/90 89/89/89 83/83/83
f 89/89/89 90/90/90 88/88/88
f 91/91/91 90/90/90 83/83/83
f 90/90/90 91/91/91 92/92/92
f 86/86/86 93/93/93 69/69/69
f 93/93/93 86/86/86 94/94/94
f 93/93/93 73/73/73 69/69/69
f 73/73/73 93/93/93 94/94/94
f 95/95/95 86/86/86 88/88/88
f 86/86/86 95/95/95 94/94/94
f 96/96/96 95/95/95 88/88/88
f 95/95/95 96/96/96 94/94/94
f 90/90/90 97/97/97 88/88/88
f 97/97/97 96/96/96 88/88/88
f 97/97/97 90/90/90 98/98/98
f 96/96/96 97/97/97 98/98/98
f 99/99/99 90/90/90 92/92/92
f 90/90/90 99/99/99 98/98/98
f 100/100/100 99/99/99 92/92/92
f 99/99/99 100/100/100 98/98/98
f 101/101/101 100/100/100 92/92/92
f 100/100/100 101/101/101 102/102/102
f 103/103/103 73/73/73 94/94/94
f 104/104/104 103/103/103 94/94/94
f 73/73/73 103/103/103 75/75/75
f 103/103/103 104/104/104 75/75/75
f 96/96/96 105/105/105 94/94/94
f 105/105/105 104/104/104 94/94/94
f 105/105/105 96/96/96 106/106/106
f 104/104/104 105/105/105 106/106/106
f 107/107/107 96/96/96 98/98/98
f 100/100/100 107/107/107 98/98/98
f 96/96/96 107/107/107 106/106/106
f 107/107/107 100/100/100 106/106/106
f 108/108/108 100/100/100 102/102/102
f 100/100/100 108/108/108 106/106/106
f 109/109/109 108/108/108 102/102/102
f 108/108/108 109/109/109 106/106/106
f 110/110/110 109/109/109 102/102/102
f 109/109/109 110/110/110 79/79/79
f 104/104/104 111/111/111 75/75/75
f 111/111/111 77/77/77 75/75/75
f 112/112/112 104/104/104 106/106/106
f 109/109/109 112/112/112 106/106/106
f 111/111/111 104/104/104 113/113/113
f 104/104/104 112/112/112 113/113/113
f 77/77/77 111/111/111 113/113/113
f 112/112/112 109/109/109 113/113/113
f 114/114/114 109/109/109 79/79/79
f 77/77/77 114/114/114 79/79/79
f 109/109/109 114/114/114 113/113/113
f 114/114/114 77/77/77 113/113/113
