g pm0130_00_MustacheSkin
v 1.0159489 1.3307884 1.1500775
v 1.013915 1.3273667 1.1456573
v 1.0146675 1.3302455 1.1420747
v 1.0163037 1.3348598 1.1452888
v 1.0266966 1.3209633 1.1496788
v 1.0293149 1.3265508 1.1415328
v 1.0216448 1.3156494 1.1432228
v 1.013915 1.3273667 1.1456573
v 1.0293747 1.3039322 1.1407884
v 1.0374442 1.3111382 1.1492802
v 1.0448344 1.2804974 1.1359197
v 1.0242459 1.3202395 1.1360021
v 1.013915 1.3273667 1.1456573
v 1.0216448 1.3156494 1.1432228
v 1.0589396 1.2914878 1.1484828
v 1.0603137 1.2563678 1.134629
v 1.042326 1.3182418 1.1377767
v 1.0338242 1.3102336 1.1299293
v 1.0293747 1.3039322 1.1407884
v 1.080159 1.2659817 1.15006
v 1.0693411 1.2279727 1.1379358
v 1.0683484 1.301624 1.1302648
v 1.0529809 1.2902217 1.1177839
v 1.0448344 1.2804974 1.1359197
v 1.0899298 1.2333986 1.1547848
v 1.0650631 1.1998069 1.1488156
v 1.0967846 1.2685267 1.127856
v 1.0761727 1.2592094 1.1123041
v 1.0603137 1.2563678 1.134629
v 1.0854734 1.2011946 1.169971
v 1.0505579 1.177793 1.1600882
v 1.1078227 1.2241417 1.135493
v 1.0869497 1.2189738 1.1184604
v 1.0693411 1.2279727 1.1379358
v 1.0707511 1.1769075 1.1892618
v 1.0279217 1.1715021 1.1841524
v 1.0996586 1.1784782 1.1563432
v 1.0791135 1.1776035 1.1345601
v 1.0650631 1.1998069 1.1488156
v 1.0438132 1.1702319 1.2111051
v 1.0031955 1.1945202 1.2011504
v 1.069288 1.1407651 1.1868427
v 1.0502028 1.1423663 1.156526
v 1.0505579 1.177793 1.1600882
v 1.0174096 1.1939287 1.2278085
v 0.95905715 1.2350018 1.2217447
v 1.0279922 1.143135 1.2181685
v 1.012992 1.1439017 1.1906885
v 1.0279217 1.1715021 1.1841524
v 0.973178 1.2347537 1.2496182
v 0.87877417 1.3051417 1.2375935
v 0.99584913 1.1736122 1.2383947
v 0.98262715 1.173394 1.211086
v 1.0031955 1.1945202 1.2011504
v 0.8949972 1.3070565 1.2660869
v 0.7539411 1.403175 1.2594273
v 0.95010155 1.2146312 1.2609948
v 0.9362646 1.2144631 1.2329804
v 0.95905715 1.2350018 1.2217447
v 0.77339935 1.4092336 1.287872
v 0.60503536 1.5143576 1.2796116
v 0.8695651 1.2901052 1.2817891
v 0.8532149 1.2883608 1.2527719
v 0.87877417 1.3051417 1.2375935
v 0.624508 1.5303701 1.3064648
v 0.42814597 1.6379534 1.307182
v 0.7570053 1.3906595 1.3064277
v 0.73737115 1.3824856 1.2865547
v 0.7539411 1.403175 1.2594273
v 0.45034987 1.6585156 1.3310974
v 0.23196802 1.7654997 1.3292444
v 0.2526275 1.78985 1.356376
v 0.6069832 1.5101515 1.3313087
v 0.5873531 1.4940954 1.3045831
v 0.60503536 1.5143576 1.2796116
v 0.43794823 1.6374446 1.3602458
v 0.2506377 1.7602907 1.3866656
v 0.4156613 1.6167009 1.3360966
v 0.42814597 1.6379534 1.307182
v 0.22877437 1.7342998 1.3589102
v 0.23196802 1.7654997 1.3292444
v -1.0159506 1.3307917 1.1500707
v -1.0146691 1.3302488 1.1420679
v -1.0139166 1.3273702 1.1456505
v -1.0163053 1.3348633 1.145282
v -1.0266981 1.3209666 1.149672
v -1.0139166 1.3273702 1.1456505
v -1.0216464 1.3156527 1.143216
v -1.0374458 1.3111415 1.1492734
v -1.0293763 1.3039355 1.1407816
v -1.0448359 1.2805008 1.1359129
v -1.0293165 1.3265542 1.141526
v -1.0242474 1.3202429 1.1359953
v -1.0589411 1.2914913 1.148476
v -1.0603153 1.2563713 1.1346222
v -1.0216464 1.3156527 1.143216
v -1.0139166 1.3273702 1.1456505
v -1.0293763 1.3039355 1.1407816
v -1.0423278 1.3182452 1.13777
v -1.0338258 1.3102369 1.1299225
v -1.0801606 1.2659851 1.1500533
v -1.0693426 1.2279761 1.137929
v -1.0683501 1.3016273 1.130258
v -1.0529826 1.290225 1.1177771
v -1.0448359 1.2805008 1.1359129
v -1.0899314 1.2334019 1.154778
v -1.0650645 1.1998101 1.1488088
v -1.0967863 1.2685301 1.1278492
v -1.0761744 1.2592127 1.1122973
v -1.0603153 1.2563713 1.1346222
v -1.0854748 1.201198 1.1699642
v -1.0505592 1.1777961 1.1600814
v -1.1078242 1.224145 1.1354862
v -1.0869513 1.2189771 1.1184536
v -1.0693426 1.2279761 1.137929
v -1.0707524 1.1769106 1.189255
v -1.0279227 1.171505 1.1841457
v -1.09966 1.1784815 1.1563364
v -1.0791149 1.1776067 1.1345533
v -1.0650645 1.1998101 1.1488088
v -1.0438143 1.1702348 1.2110986
v -1.0031964 1.1945225 1.2011447
v -1.0692893 1.140768 1.1868359
v -1.0502042 1.1423694 1.1565192
v -1.0505592 1.1777961 1.1600814
v -1.0174104 1.193931 1.2278028
v -0.9590566 1.2350022 1.2217405
v -1.0279933 1.1431378 1.218162
v -1.0129931 1.1439044 1.1906819
v -1.0279227 1.171505 1.1841457
v -0.9731775 1.234754 1.249614
v -0.878774 1.3051417 1.2375928
v -0.99584997 1.1736145 1.238389
v -0.982628 1.1733962 1.2110803
v -1.0031964 1.1945225 1.2011447
v -0.894997 1.3070565 1.2660862
v -0.7539411 1.403175 1.2594271
v -0.950101 1.2146314 1.2609907
v -0.93626404 1.2144634 1.2329763
v -0.9590566 1.2350022 1.2217405
v -0.77339935 1.4092336 1.2878718
v -0.60503536 1.5143576 1.2796116
v -0.86956495 1.2901052 1.2817883
v -0.8532148 1.2883608 1.2527711
v -0.878774 1.3051417 1.2375928
v -0.624508 1.5303701 1.3064648
v -0.42814597 1.6379534 1.307182
v -0.7570053 1.3906595 1.3064276
v -0.73737115 1.3824856 1.2865546
v -0.7539411 1.403175 1.2594271
v -0.45034987 1.6585156 1.3310974
v -0.23196802 1.7654997 1.3292444
v -0.2526275 1.78985 1.356376
v -0.6069832 1.5101515 1.3313087
v -0.5873531 1.4940954 1.3045831
v -0.60503536 1.5143576 1.2796116
v -0.43794823 1.6374446 1.3602458
v -0.2506377 1.7602907 1.3866656
v -0.4156613 1.6167009 1.3360966
v -0.42814597 1.6379534 1.307182
v -0.22877437 1.7342998 1.3589102
v -0.23196802 1.7654997 1.3292444
vt 0.7820788 0.8142151
vt 0.7770999 0.8113126
vt 0.7824425 0.80936617
vt 0.7818938 0.81163347
vt 0.78792936 0.814645
vt 0.78799814 0.81186724
vt 0.78751564 0.81745297
vt 0.7819217 0.8168675
vt 0.79310954 0.81759024
vt 0.79377985 0.8147664
vt 0.80015945 0.8177962
vt 0.7883151 0.80922407
vt 0.78200424 0.8072502
vt 0.78757733 0.80664605
vt 0.8009081 0.8154847
vt 0.8105686 0.8177962
vt 0.7941024 0.81195647
vt 0.7941878 0.8092083
vt 0.7931505 0.80648994
vt 0.8105686 0.8154847
vt 0.8180332 0.8177962
vt 0.8014333 0.81317323
vt 0.8011942 0.81086177
vt 0.800159 0.8085503
vt 0.8180332 0.8154847
vt 0.8260431 0.8177962
vt 0.8105686 0.81317323
vt 0.8105686 0.81086177
vt 0.8105686 0.8085503
vt 0.8260431 0.8154847
vt 0.8343513 0.8177962
vt 0.8180332 0.81317323
vt 0.8180332 0.81086177
vt 0.8180332 0.8085503
vt 0.8343513 0.8154847
vt 0.8415613 0.8177962
vt 0.8260431 0.81317323
vt 0.8260431 0.81086177
vt 0.8260431 0.8085503
vt 0.8415613 0.8154847
vt 0.84868574 0.8177962
vt 0.8343513 0.81317323
vt 0.8343513 0.81086177
vt 0.8343513 0.8085503
vt 0.84868574 0.8154847
vt 0.859606 0.8177962
vt 0.8415613 0.81317323
vt 0.8415613 0.81086177
vt 0.8415613 0.8085503
vt 0.859606 0.8154847
vt 0.8780782 0.8177962
vt 0.84868574 0.81317323
vt 0.84868574 0.81086177
vt 0.84868574 0.8085503
vt 0.8780782 0.8154847
vt 0.90420985 0.8177962
vt 0.859606 0.81317323
vt 0.859606 0.81086177
vt 0.859606 0.8085503
vt 0.90420985 0.8154847
vt 0.9349725 0.8177962
vt 0.8780782 0.81317323
vt 0.8780782 0.81086177
vt 0.8780782 0.8085503
vt 0.9349725 0.8154847
vt 0.9649148 0.8177962
vt 0.90420985 0.81317323
vt 0.90420985 0.81086177
vt 0.90420985 0.8085503
vt 0.9649148 0.8154847
vt 0.9921589 0.8177962
vt 0.9921589 0.8154847
vt 0.9349725 0.81317323
vt 0.9349725 0.81086177
vt 0.9349725 0.8085503
vt 0.9649148 0.81317323
vt 0.9921589 0.81317323
vt 0.9649148 0.81086177
vt 0.9649148 0.8085503
vt 0.9921589 0.81086177
vt 0.9921589 0.8085503
vt 0.78207874 0.8142151
vt 0.78244257 0.80936617
vt 0.77709985 0.8113126
vt 0.7818939 0.81163347
vt 0.78792924 0.814645
vt 0.78192174 0.8168675
vt 0.7875157 0.81745297
vt 0.79377985 0.8147664
vt 0.79310966 0.81759024
vt 0.8001595 0.8177962
vt 0.7879982 0.81186724
vt 0.7883151 0.80922407
vt 0.80090815 0.8154847
vt 0.81056863 0.8177962
vt 0.78757745 0.80664605
vt 0.7820043 0.8072502
vt 0.7931505 0.80648994
vt 0.7941024 0.81195647
vt 0.7941878 0.8092083
vt 0.81056863 0.8154847
vt 0.8180333 0.8177962
vt 0.80143327 0.81317323
vt 0.80119413 0.81086177
vt 0.8001589 0.8085503
vt 0.8180333 0.8154847
vt 0.82604307 0.8177962
vt 0.81056863 0.81317323
vt 0.81056863 0.81086177
vt 0.81056863 0.8085503
vt 0.82604307 0.8154847
vt 0.83435124 0.8177962
vt 0.8180333 0.81317323
vt 0.8180333 0.81086177
vt 0.8180333 0.8085503
vt 0.83435124 0.8154847
vt 0.8415614 0.8177962
vt 0.82604307 0.81317323
vt 0.82604307 0.81086177
vt 0.82604307 0.8085503
vt 0.8415614 0.8154847
vt 0.8486857 0.8177962
vt 0.83435124 0.81317323
vt 0.83435124 0.81086177
vt 0.83435124 0.8085503
vt 0.8486857 0.8154847
vt 0.85960597 0.8177962
vt 0.8415614 0.81317323
vt 0.8415614 0.81086177
vt 0.8415614 0.8085503
vt 0.85960597 0.8154847
vt 0.8780783 0.8177962
vt 0.8486857 0.81317323
vt 0.8486857 0.81086177
vt 0.8486857 0.8085503
vt 0.8780783 0.8154847
vt 0.9042099 0.8177962
vt 0.85960597 0.81317323
vt 0.85960597 0.81086177
vt 0.85960597 0.8085503
vt 0.9042099 0.8154847
vt 0.93497247 0.8177962
vt 0.8780783 0.81317323
vt 0.8780783 0.81086177
vt 0.8780783 0.8085503
vt 0.93497247 0.8154847
vt 0.96491474 0.8177962
vt 0.9042099 0.81317323
vt 0.9042099 0.81086177
vt 0.9042099 0.8085503
vt 0.96491474 0.8154847
vt 0.99215895 0.8177962
vt 0.99215883 0.8154847
vt 0.93497247 0.81317323
vt 0.93497247 0.81086177
vt 0.93497247 0.8085503
vt 0.96491474 0.81317323
vt 0.99215883 0.81317323
vt 0.96491474 0.81086177
vt 0.96491474 0.8085503
vt 0.99215883 0.81086177
vt 0.99215883 0.8085503
vn -0.7187365 0.4145569 0.558176
vn -0.9839648 0.08124279 0.1587856
vn -0.86497384 0.40034372 -0.3025644
vn -0.5534634 0.8319592 0.039014593
vn -0.46777466 0.39161515 0.7923537
vn -0.19444624 0.9807881 -0.015660418
vn -0.9731058 -0.13942139 0.18337603
vn -0.9839648 0.08124279 0.1587856
vn -0.94090843 -0.27595404 0.1963177
vn -0.19609603 0.31047952 0.9301338
vn -0.9363218 -0.29821026 0.18539752
vn -0.7402106 0.37831506 -0.55584717
vn -0.9839648 0.08124279 0.1587856
vn -0.9731058 -0.13942139 0.18337603
vn -0.05208594 0.27631646 0.95965433
vn -0.96250904 -0.23302627 0.13883518
vn 0.22665265 0.97109216 -0.07488955
vn -0.58085805 0.2959745 -0.7582896
vn -0.94090843 -0.27595404 0.1963177
vn 0.046870034 0.25602198 0.96553403
vn -0.9992549 -0.009262864 0.0374677
vn 0.53485745 0.8376123 -0.111055486
vn -0.43658724 0.17547782 -0.88238263
vn -0.9363218 -0.29821026 0.18539752
vn 0.118697025 0.3137594 0.94205415
vn -0.9376245 0.31995097 -0.13598415
vn 0.8498936 0.51375395 -0.11720785
vn -0.27020755 -0.045080665 -0.9617462
vn -0.96250904 -0.23302627 0.13883518
vn 0.1854518 0.42865497 0.88422996
vn -0.7479122 0.57536846 -0.33102635
vn 0.99733895 0.066187836 -0.030561946
vn -0.17264599 -0.2651314 -0.9486299
vn -0.9992549 -0.009262864 0.0374677
vn 0.27537036 0.5343829 0.79912835
vn -0.44837946 0.68349993 -0.57600677
vn 0.9266832 -0.3319784 0.1762057
vn -0.23978849 -0.43589443 -0.8674661
vn -0.9376245 0.31995097 -0.13598415
vn 0.44715562 0.58952844 0.67268723
vn -0.11299679 0.61714214 -0.7786959
vn 0.617632 -0.6106199 0.4956552
vn -0.4593614 -0.5411467 -0.7043774
vn -0.7479122 0.57536846 -0.33102635
vn 0.61381483 0.6009751 0.5119182
vn 0.056406043 0.47126406 -0.8801866
vn 0.23348173 -0.6564022 0.71737194
vn -0.6316577 -0.5670449 -0.52864784
vn -0.44837946 0.68349993 -0.57600677
vn 0.68549544 0.61163557 0.39496577
vn 0.07626029 0.33934262 -0.93756646
vn 0.0317689 -0.58095837 0.81331307
vn -0.6850202 -0.5781597 -0.44325912
vn -0.11299679 0.61714214 -0.7786959
vn 0.6808308 0.66189927 0.31362203
vn 0.025132108 0.21506087 -0.9762773
vn -0.049969357 -0.47813228 0.8768652
vn -0.68012166 -0.63044363 -0.374133
vn 0.056406043 0.47126406 -0.8801866
vn 0.6557391 0.7239637 0.21420261
vn -0.034487795 0.10728025 -0.99363047
vn -0.0448678 -0.35365433 0.93429947
vn -0.6593268 -0.70283234 -0.26704878
vn 0.07626029 0.33934262 -0.93756646
vn 0.6271935 0.77407914 0.08619629
vn -0.07291776 0.04163237 -0.99646866
vn 0.014196663 -0.23623377 0.9715926
vn -0.62235737 -0.7709281 -0.13542971
vn 0.025132108 0.21506087 -0.9762773
vn 0.5990979 0.80057085 -0.012961889
vn -0.0789255 0.013050304 -0.9967951
vn 0.5894912 0.8056884 -0.058021586
vn 0.08026524 -0.13410254 0.9877115
vn -0.5817965 -0.8125061 -0.036694776
vn -0.034487795 0.10728025 -0.99363047
vn 0.12997821 -0.06340867 0.9894872
vn 0.16101177 -0.030752188 0.9864733
vn -0.54962283 -0.83522373 0.01777524
vn -0.07291776 0.04163237 -0.99646866
vn -0.5260289 -0.8495283 0.039939404
vn -0.0789255 0.013050304 -0.9967951
vn 0.7187449 0.4145454 0.5581737
vn 0.8649715 0.4003404 -0.30257532
vn 0.98396736 0.081235774 0.15877357
vn 0.5534604 0.83196145 0.039009746
vn 0.46777728 0.3916038 0.7923578
vn 0.98396736 0.081235774 0.15877357
vn 0.9731067 -0.13943176 0.18336354
vn 0.1960963 0.3104664 0.9301381
vn 0.9409076 -0.2759628 0.19630964
vn 0.9363215 -0.29821414 0.18539284
vn 0.19443552 0.98079026 -0.015661854
vn 0.7402018 0.37831438 -0.5558594
vn 0.052086566 0.27630922 0.9596563
vn 0.96250904 -0.23302685 0.13883427
vn 0.9731067 -0.13943176 0.18336354
vn 0.98396736 0.081235774 0.15877357
vn 0.9409076 -0.2759628 0.19630964
vn -0.22666661 0.97108936 -0.07488521
vn 0.58084893 0.29597214 -0.7582974
vn -0.046869155 0.25601935 0.9655347
vn 0.9992549 -0.009263039 0.037467673
vn -0.5348624 0.8376098 -0.111050025
vn 0.4365827 0.1754785 -0.8823848
vn 0.9363215 -0.29821414 0.18539284
vn -0.11869574 0.31375673 0.9420552
vn 0.93762547 0.31994918 -0.13598149
vn -0.84989405 0.51375437 -0.11720307
vn 0.27020532 -0.045078002 -0.9617469
vn 0.96250904 -0.23302685 0.13883427
vn -0.18544897 0.42865235 0.8842318
vn 0.74791473 0.57536894 -0.33101988
vn -0.99733907 0.06618747 -0.030558912
vn 0.17264542 -0.26513016 -0.94863033
vn 0.9992549 -0.009263039 0.037467673
vn -0.27536565 0.53438103 0.7991311
vn 0.44838747 0.68350554 -0.5759937
vn -0.9266823 -0.33198044 0.17620721
vn 0.23978826 -0.43589464 -0.8674661
vn 0.93762547 0.31994918 -0.13598149
vn -0.44714954 0.58952856 0.6726912
vn 0.11301216 0.617157 -0.77868193
vn -0.6176326 -0.61062235 0.49565136
vn 0.45936015 -0.541147 -0.7043779
vn 0.74791473 0.57536894 -0.33101988
vn -0.613809 0.60097593 0.5119242
vn -0.0563914 0.47128183 -0.88017803
vn -0.23348896 -0.65640914 0.7173632
vn 0.6316552 -0.56704515 -0.52865064
vn 0.44838747 0.68350554 -0.5759937
vn -0.6854921 0.6116351 0.3949722
vn -0.07624889 0.33935723 -0.93756217
vn -0.031781692 -0.5809719 0.8133028
vn 0.6850172 -0.57816046 -0.4432627
vn 0.11301216 0.617157 -0.77868193
vn -0.6808293 0.6618986 0.31362668
vn -0.025125828 0.21506962 -0.9762755
vn 0.04995645 -0.478149 0.87685674
vn 0.68011934 -0.6304439 -0.3741366
vn -0.0563914 0.47128183 -0.88017803
vn -0.6557381 0.72396356 0.2142059
vn 0.034489147 0.107283615 -0.99363
vn 0.044859793 -0.35366768 0.9342948
vn 0.6593269 -0.70283073 -0.26705235
vn -0.07624889 0.33935723 -0.93756217
vn -0.62719387 0.7740788 0.086197026
vn 0.072916225 0.04163336 -0.99646866
vn -0.014197966 -0.2362406 0.9715908
vn 0.6223596 -0.7709258 -0.13543302
vn -0.025125828 0.21506962 -0.9762755
vn -0.5990995 0.8005697 -0.012961717
vn 0.078923605 0.013051135 -0.99679524
vn -0.5894933 0.8056867 -0.05802224
vn -0.08026436 -0.13410547 0.98771113
vn 0.58179843 -0.8125046 -0.03669828
vn 0.034489147 0.107283615 -0.99363
vn -0.12997733 -0.063410684 0.9894872
vn -0.16101061 -0.030754006 0.98647344
vn 0.5496241 -0.83522296 0.01777204
vn 0.072916225 0.04163336 -0.99646866
vn 0.526031 -0.8495272 0.039934997
vn 0.078923605 0.013051135 -0.99679524
g pm0130_00_MustacheSkin_0
f 3/3/3 2/2/2 1/1/1
f 4/4/4 3/3/3 1/1/1
f 4/4/4 1/1/1 5/5/5
f 3/3/3 4/4/4 6/6/6
f 6/6/6 4/4/4 5/5/5
f 5/5/5 1/1/1 7/7/7
f 1/1/1 8/8/8 7/7/7
f 5/5/5 7/7/7 9/9/9
f 10/10/10 5/5/5 9/9/9
f 6/6/6 5/5/5 10/10/10
f 10/10/10 9/9/9 11/11/11
f 12/12/12 3/3/3 6/6/6
f 13/13/13 3/3/3 12/12/12
f 14/14/14 13/13/13 12/12/12
f 15/15/15 10/10/10 11/11/11
f 15/15/15 11/11/11 16/16/16
f 17/17/17 6/6/6 10/10/10
f 12/12/12 6/6/6 17/17/17
f 17/17/17 10/10/10 15/15/15
f 14/14/14 12/12/12 18/18/18
f 18/18/18 12/12/12 17/17/17
f 19/19/19 14/14/14 18/18/18
f 20/20/20 15/15/15 16/16/16
f 20/20/20 16/16/16 21/21/21
f 22/22/22 17/17/17 15/15/15
f 18/18/18 17/17/17 22/22/22
f 22/22/22 15/15/15 20/20/20
f 19/19/19 18/18/18 23/23/23
f 23/23/23 18/18/18 22/22/22
f 24/24/24 19/19/19 23/23/23
f 25/25/25 20/20/20 21/21/21
f 25/25/25 21/21/21 26/26/26
f 27/27/27 22/22/22 20/20/20
f 23/23/23 22/22/22 27/27/27
f 27/27/27 20/20/20 25/25/25
f 24/24/24 23/23/23 28/28/28
f 28/28/28 23/23/23 27/27/27
f 29/29/29 24/24/24 28/28/28
f 30/30/30 25/25/25 26/26/26
f 30/30/30 26/26/26 31/31/31
f 32/32/32 27/27/27 25/25/25
f 28/28/28 27/27/27 32/32/32
f 32/32/32 25/25/25 30/30/30
f 29/29/29 28/28/28 33/33/33
f 33/33/33 28/28/28 32/32/32
f 34/34/34 29/29/29 33/33/33
f 35/35/35 30/30/30 31/31/31
f 35/35/35 31/31/31 36/36/36
f 37/37/37 32/32/32 30/30/30
f 33/33/33 32/32/32 37/37/37
f 37/37/37 30/30/30 35/35/35
f 34/34/34 33/33/33 38/38/38
f 38/38/38 33/33/33 37/37/37
f 39/39/39 34/34/34 38/38/38
f 40/40/40 35/35/35 36/36/36
f 40/40/40 36/36/36 41/41/41
f 42/42/42 37/37/37 35/35/35
f 38/38/38 37/37/37 42/42/42
f 42/42/42 35/35/35 40/40/40
f 39/39/39 38/38/38 43/43/43
f 43/43/43 38/38/38 42/42/42
f 44/44/44 39/39/39 43/43/43
f 45/45/45 40/40/40 41/41/41
f 41/41/41 46/46/46 45/45/45
f 47/47/47 42/42/42 40/40/40
f 43/43/43 42/42/42 47/47/47
f 47/47/47 40/40/40 45/45/45
f 44/44/44 43/43/43 48/48/48
f 48/48/48 43/43/43 47/47/47
f 49/49/49 44/44/44 48/48/48
f 46/46/46 50/50/50 45/45/45
f 50/50/50 46/46/46 51/51/51
f 52/52/52 47/47/47 45/45/45
f 48/48/48 47/47/47 52/52/52
f 45/45/45 50/50/50 52/52/52
f 49/49/49 48/48/48 53/53/53
f 53/53/53 48/48/48 52/52/52
f 54/54/54 49/49/49 53/53/53
f 55/55/55 50/50/50 51/51/51
f 55/55/55 51/51/51 56/56/56
f 50/50/50 57/57/57 52/52/52
f 52/52/52 57/57/57 53/53/53
f 57/57/57 50/50/50 55/55/55
f 53/53/53 58/58/58 54/54/54
f 57/57/57 58/58/58 53/53/53
f 58/58/58 59/59/59 54/54/54
f 60/60/60 55/55/55 56/56/56
f 60/60/60 56/56/56 61/61/61
f 62/62/62 57/57/57 55/55/55
f 58/58/58 57/57/57 62/62/62
f 62/62/62 55/55/55 60/60/60
f 59/59/59 58/58/58 63/63/63
f 63/63/63 58/58/58 62/62/62
f 64/64/64 59/59/59 63/63/63
f 65/65/65 60/60/60 61/61/61
f 65/65/65 61/61/61 66/66/66
f 67/67/67 62/62/62 60/60/60
f 63/63/63 62/62/62 67/67/67
f 67/67/67 60/60/60 65/65/65
f 64/64/64 63/63/63 68/68/68
f 68/68/68 63/63/63 67/67/67
f 69/69/69 64/64/64 68/68/68
f 70/70/70 65/65/65 66/66/66
f 70/70/70 66/66/66 71/71/71
f 72/72/72 70/70/70 71/71/71
f 73/73/73 67/67/67 65/65/65
f 68/68/68 67/67/67 73/73/73
f 73/73/73 65/65/65 70/70/70
f 69/69/69 68/68/68 74/74/74
f 74/74/74 68/68/68 73/73/73
f 75/75/75 69/69/69 74/74/74
f 76/76/76 70/70/70 72/72/72
f 76/76/76 73/73/73 70/70/70
f 74/74/74 73/73/73 76/76/76
f 77/77/77 76/76/76 72/72/72
f 75/75/75 74/74/74 78/78/78
f 78/78/78 74/74/74 76/76/76
f 78/78/78 76/76/76 77/77/77
f 79/79/79 75/75/75 78/78/78
f 80/80/80 78/78/78 77/77/77
f 79/79/79 78/78/78 80/80/80
f 81/81/81 79/79/79 80/80/80
f 84/84/84 83/83/83 82/82/82
f 83/83/83 85/85/85 82/82/82
f 82/82/82 85/85/85 86/86/86
f 87/87/87 82/82/82 86/86/86
f 88/88/88 87/87/87 86/86/86
f 88/88/88 86/86/86 89/89/89
f 90/90/90 88/88/88 89/89/89
f 90/90/90 89/89/89 91/91/91
f 85/85/85 92/92/92 86/86/86
f 86/86/86 92/92/92 89/89/89
f 85/85/85 83/83/83 93/93/93
f 92/92/92 85/85/85 93/93/93
f 89/89/89 94/94/94 91/91/91
f 91/91/91 94/94/94 95/95/95
f 93/93/93 83/83/83 96/96/96
f 83/83/83 97/97/97 96/96/96
f 93/93/93 96/96/96 98/98/98
f 92/92/92 99/99/99 89/89/89
f 89/89/89 99/99/99 94/94/94
f 92/92/92 93/93/93 100/100/100
f 100/100/100 93/93/93 98/98/98
f 99/99/99 92/92/92 100/100/100
f 94/94/94 101/101/101 95/95/95
f 95/95/95 101/101/101 102/102/102
f 99/99/99 103/103/103 94/94/94
f 99/99/99 100/100/100 103/103/103
f 94/94/94 103/103/103 101/101/101
f 100/100/100 98/98/98 104/104/104
f 100/100/100 104/104/104 103/103/103
f 98/98/98 105/105/105 104/104/104
f 101/101/101 106/106/106 102/102/102
f 102/102/102 106/106/106 107/107/107
f 103/103/103 108/108/108 101/101/101
f 103/103/103 104/104/104 108/108/108
f 101/101/101 108/108/108 106/106/106
f 104/104/104 105/105/105 109/109/109
f 104/104/104 109/109/109 108/108/108
f 105/105/105 110/110/110 109/109/109
f 106/106/106 111/111/111 107/107/107
f 107/107/107 111/111/111 112/112/112
f 108/108/108 113/113/113 106/106/106
f 108/108/108 109/109/109 113/113/113
f 106/106/106 113/113/113 111/111/111
f 109/109/109 110/110/110 114/114/114
f 109/109/109 114/114/114 113/113/113
f 110/110/110 115/115/115 114/114/114
f 111/111/111 116/116/116 112/112/112
f 112/112/112 116/116/116 117/117/117
f 113/113/113 118/118/118 111/111/111
f 113/113/113 114/114/114 118/118/118
f 111/111/111 118/118/118 116/116/116
f 114/114/114 115/115/115 119/119/119
f 114/114/114 119/119/119 118/118/118
f 115/115/115 120/120/120 119/119/119
f 116/116/116 121/121/121 117/117/117
f 117/117/117 121/121/121 122/122/122
f 118/118/118 123/123/123 116/116/116
f 118/118/118 119/119/119 123/123/123
f 116/116/116 123/123/123 121/121/121
f 119/119/119 120/120/120 124/124/124
f 119/119/119 124/124/124 123/123/123
f 120/120/120 125/125/125 124/124/124
f 121/121/121 126/126/126 122/122/122
f 127/127/127 122/122/122 126/126/126
f 123/123/123 128/128/128 121/121/121
f 123/123/123 124/124/124 128/128/128
f 121/121/121 128/128/128 126/126/126
f 124/124/124 125/125/125 129/129/129
f 124/124/124 129/129/129 128/128/128
f 125/125/125 130/130/130 129/129/129
f 131/131/131 127/127/127 126/126/126
f 127/127/127 131/131/131 132/132/132
f 128/128/128 133/133/133 126/126/126
f 128/128/128 129/129/129 133/133/133
f 131/131/131 126/126/126 133/133/133
f 129/129/129 130/130/130 134/134/134
f 129/129/129 134/134/134 133/133/133
f 130/130/130 135/135/135 134/134/134
f 131/131/131 136/136/136 132/132/132
f 132/132/132 136/136/136 137/137/137
f 138/138/138 131/131/131 133/133/133
f 138/138/138 133/133/133 134/134/134
f 131/131/131 138/138/138 136/136/136
f 139/139/139 134/134/134 135/135/135
f 139/139/139 138/138/138 134/134/134
f 140/140/140 139/139/139 135/135/135
f 136/136/136 141/141/141 137/137/137
f 137/137/137 141/141/141 142/142/142
f 138/138/138 143/143/143 136/136/136
f 138/138/138 139/139/139 143/143/143
f 136/136/136 143/143/143 141/141/141
f 139/139/139 140/140/140 144/144/144
f 139/139/139 144/144/144 143/143/143
f 140/140/140 145/145/145 144/144/144
f 141/141/141 146/146/146 142/142/142
f 142/142/142 146/146/146 147/147/147
f 143/143/143 148/148/148 141/141/141
f 143/143/143 144/144/144 148/148/148
f 141/141/141 148/148/148 146/146/146
f 144/144/144 145/145/145 149/149/149
f 144/144/144 149/149/149 148/148/148
f 145/145/145 150/150/150 149/149/149
f 146/146/146 151/151/151 147/147/147
f 147/147/147 151/151/151 152/152/152
f 151/151/151 153/153/153 152/152/152
f 148/148/148 154/154/154 146/146/146
f 148/148/148 149/149/149 154/154/154
f 146/146/146 154/154/154 151/151/151
f 149/149/149 150/150/150 155/155/155
f 149/149/149 155/155/155 154/154/154
f 150/150/150 156/156/156 155/155/155
f 151/151/151 157/157/157 153/153/153
f 154/154/154 157/157/157 151/151/151
f 154/154/154 155/155/155 157/157/157
f 157/157/157 158/158/158 153/153/153
f 155/155/155 156/156/156 159/159/159
f 155/155/155 159/159/159 157/157/157
f 157/157/157 159/159/159 158/158/158
f 156/156/156 160/160/160 159/159/159
f 159/159/159 161/161/161 158/158/158
f 159/159/159 160/160/160 161/161/161
f 160/160/160 162/162/162 161/161/161
