g pm0118_01_HornSkin
v 5.553051E-33 0.16681324 0.06435957
v 0.005692746 0.16629116 0.065339886
v 0.0045316643 0.17672296 0.07374403
v 6.293051E-33 0.17715837 0.07293614
v 0.010518817 0.16469423 0.06815206
v 6.644936E-33 0.18189317 0.07701446
v 0.00850364 0.17542839 0.076054856
v 0.013743485 0.16243793 0.07233587
v 0.0039483374 0.1815021 0.07773431
v 2.9802322E-10 0.18721607 0.08212026
v 0.0031406458 0.18689205 0.08271116
v 2.2351741E-10 0.19130225 0.086720325
v 0.0074851094 0.1803604 0.07978985
v 0.011157621 0.17355374 0.0795015
v 0.0024495528 0.19098482 0.08714248
v 1.4901161E-10 0.19538847 0.09132038
v 0.012089578 0.17137073 0.083561875
v 0.014875848 0.15984443 0.07725839
v 0.013743485 0.15727474 0.08217653
v 0.009848297 0.17868064 0.08286037
v 0.0060401517 0.18596847 0.08439408
v 0.0017584594 0.19507758 0.0915738
v 7.4505804E-11 0.19947468 0.095920436
v 0.011157621 0.16919568 0.08762081
v 0.0105188 0.15509956 0.08634524
v 0.0047038635 0.19033127 0.08848841
v 0.01067814 0.1767086 0.0864805
v 0.007977532 0.1845808 0.08691368
v 0.0010673661 0.19917038 0.09600511
v 8.673074E-33 0.20356086 0.10052049
v 0.0085036205 0.16734944 0.09106218
v 0.005692746 0.15365343 0.08912939
v 0.0033675756 0.19469407 0.09258274
v 0.009848297 0.17473711 0.090100564
v 0.0062101698 0.18918617 0.09041028
v 0.008657851 0.18293434 0.08988752
v 0.00037627283 0.20326315 0.100436434
v 8.762625E-33 0.20339593 0.101558365
v 0.0045316643 0.16611809 0.09336124
v 7.774108E-33 0.15317522 0.09010151
v 8.124795E-33 0.16569956 0.09416595
v 0.0020312876 0.1990569 0.09667707
v 0.0074850894 0.17306086 0.09317042
v 0.0039483374 0.17194076 0.09522167
v 8.277922E-33 0.17155375 0.095940694
v 0.007977532 0.18128106 0.09286269
v 0.0060401326 0.17987226 0.09538624
v 0.0031406458 0.17892852 0.097072855
v 8.426727E-33 0.17859577 0.097665325
v 0.0067391125 0.18797047 0.092759915
v 0.0062101698 0.18661915 0.09503593
v 0.0047038547 0.18558872 0.097035386
v 0.0024495528 0.18478952 0.09830946
v 8.52527E-33 0.18459606 0.09880744
v 0.0044428073 0.19379152 0.09390688
v 0.0048203743 0.19300662 0.09563229
v 0.0044428073 0.19195724 0.09720916
v 0.0033675765 0.19130516 0.09868455
v 0.0017584594 0.19065052 0.09954607
v 8.623814E-33 0.19059633 0.099949546
v 0.0026754448 0.19839688 0.097403474
v 0.0029016363 0.19804277 0.09850468
v 0.0026754448 0.19729532 0.09938241
v 0.0020312986 0.19702162 0.100333706
v 0.0010673661 0.19651154 0.10078267
v 8.722357E-33 0.1965966 0.10109167
v 0.00069499976 0.20341969 0.1007714
v 0.0009080819 0.20300224 0.10090008
v 0.0009828978 0.20307891 0.10137706
v 0.0009080819 0.2026334 0.10155565
v 0.00069502083 0.20273808 0.10198286
v 0.00037627283 0.20237252 0.10201927
v 8.8209E-33 0.20259689 0.10223378
v -0.0045316643 0.17672296 0.07374403
v -0.010518817 0.16469423 0.06815206
v -0.005692746 0.16629116 0.065339886
v 5.553051E-33 0.16681324 0.06435957
v 6.293051E-33 0.17715837 0.07293614
v 6.644936E-33 0.18189317 0.07701446
v -0.00850364 0.17542839 0.076054856
v -0.013743485 0.16243793 0.07233587
v -0.0039483374 0.1815021 0.07773431
v 2.9802322E-10 0.18721607 0.08212026
v -0.0031406458 0.18689205 0.08271116
v 2.2351741E-10 0.19130225 0.086720325
v -0.0074851094 0.1803604 0.07978985
v -0.011157621 0.17355374 0.0795015
v -0.012089578 0.17137073 0.083561875
v -0.014875848 0.15984443 0.07725839
v -0.013743485 0.15727474 0.08217653
v -0.009848297 0.17868064 0.08286037
v -0.0060401517 0.18596847 0.08439408
v -0.0024495528 0.19098482 0.08714248
v -0.011157621 0.16919568 0.08762081
v -0.0105188 0.15509956 0.08634524
v -0.01067814 0.1767086 0.0864805
v -0.0017584594 0.19507758 0.0915738
v 1.4901161E-10 0.19538847 0.09132038
v -0.0047038635 0.19033127 0.08848841
v -0.007977532 0.1845808 0.08691368
v -0.0085036205 0.16734944 0.09106218
v -0.005692746 0.15365343 0.08912939
v -0.0010673661 0.19917038 0.09600511
v 7.4505804E-11 0.19947468 0.095920436
v -0.009848297 0.17473711 0.090100564
v -0.0033675756 0.19469407 0.09258274
v -0.0062101698 0.18918617 0.09041028
v -0.008657851 0.18293434 0.08988752
v -0.0045316643 0.16611809 0.09336124
v 7.774108E-33 0.15317522 0.09010151
v 8.124795E-33 0.16569956 0.09416595
v -0.00037627283 0.20326315 0.100436434
v 8.673074E-33 0.20356086 0.10052049
v 8.762625E-33 0.20339593 0.101558365
v -0.0074850894 0.17306086 0.09317042
v -0.0039483374 0.17194076 0.09522167
v 8.277922E-33 0.17155375 0.095940694
v -0.0020312876 0.1990569 0.09667707
v -0.007977532 0.18128106 0.09286269
v -0.0060401326 0.17987226 0.09538624
v -0.0031406458 0.17892852 0.097072855
v 8.426727E-33 0.17859577 0.097665325
v -0.0067391125 0.18797047 0.092759915
v -0.0044428073 0.19379152 0.09390688
v -0.00069499976 0.20341969 0.1007714
v -0.0062101698 0.18661915 0.09503593
v -0.0048203743 0.19300662 0.09563229
v -0.0047038547 0.18558872 0.097035386
v -0.0026754448 0.19839688 0.097403474
v -0.0029016363 0.19804277 0.09850468
v -0.0044428073 0.19195724 0.09720916
v -0.0024495528 0.18478952 0.09830946
v 8.52527E-33 0.18459606 0.09880744
v -0.0009080819 0.20300224 0.10090008
v -0.0009828978 0.20307891 0.10137706
v -0.0026754448 0.19729532 0.09938241
v -0.0033675765 0.19130516 0.09868455
v -0.0017584594 0.19065052 0.09954607
v 8.623814E-33 0.19059633 0.099949546
v -0.0009080819 0.2026334 0.10155565
v -0.0020312986 0.19702162 0.100333706
v -0.0010673661 0.19651154 0.10078267
v 8.722357E-33 0.1965966 0.10109167
v -0.00069502083 0.20273808 0.10198286
v -0.00037627283 0.20237252 0.10201927
v 8.8209E-33 0.20259689 0.10223378
vt 0.12812912 0.059635848
vt 0.12812912 0.05407083
vt 0.11908004 0.05220741
vt 0.11908004 0.056745887
vt 0.12812912 0.048812687
vt 0.114833385 0.05450481
vt 0.11908004 0.047598243
vt 0.12812915 0.043801397
vt 0.114833385 0.05071467
vt 0.110428154 0.05253145
vt 0.110428154 0.049217343
vt 0.10605682 0.051235437
vt 0.114833385 0.046650052
vt 0.11908004 0.043065935
vt 0.10612382 0.0482992
vt 0.09742859 0.049643893
vt 0.11908004 0.038574845
vt 0.12812912 0.03890869
vt 0.12812915 0.033988237
vt 0.114833385 0.042567074
vt 0.110428154 0.04562086
vt 0.097562596 0.047169324
vt 0.09124284 0.048683114
vt 0.11908004 0.034076482
vt 0.12812912 0.028899908
vt 0.106093876 0.044930257
vt 0.114833385 0.038480222
vt 0.110428154 0.042027652
vt 0.09144385 0.046568803
vt 0.08484773 0.046258263
vt 0.11908004 0.029516011
vt 0.12812915 0.02355674
vt 0.09750271 0.044087008
vt 0.114833385 0.034384906
vt 0.10615415 0.04169448
vt 0.11042827 0.03843081
vt 0.085115746 0.04485981
vt 0.06801596 0.038232774
vt 0.11908004 0.024861217
vt 0.12812915 0.017887414
vt 0.11908004 0.020244688
vt 0.09135402 0.04355784
vt 0.114833385 0.03027007
vt 0.114833385 0.02616465
vt 0.114833385 0.022315323
vt 0.110428154 0.034823596
vt 0.110428154 0.031206787
vt 0.110428154 0.027585417
vt 0.110428154 0.02424571
vt 0.10611105 0.038384806
vt 0.1061548 0.035070777
vt 0.10609476 0.031811178
vt 0.106124 0.028424935
vt 0.10605708 0.025463425
vt 0.09762326 0.041290395
vt 0.09753694 0.038337376
vt 0.097624555 0.035387136
vt 0.09750448 0.032566573
vt 0.097562954 0.029475998
vt 0.09742911 0.026976667
vt 0.091534846 0.041060317
vt 0.0914053 0.038283028
vt 0.09153679 0.035518117
vt 0.09135668 0.032994106
vt 0.09144439 0.029985901
vt 0.091243625 0.027845066
vt 0.08499597 0.04227385
vt 0.08523707 0.04045174
vt 0.08506431 0.038214386
vt 0.08523966 0.036577687
vt 0.08499952 0.034151863
vt 0.08511646 0.03158319
vt 0.08484878 0.03015875
vt 0.88091993 0.05220741
vt 0.8718709 0.048812687
vt 0.8718709 0.05407083
vt 0.8718709 0.059635848
vt 0.88091993 0.056745887
vt 0.88516665 0.05450481
vt 0.88091993 0.047598243
vt 0.8718709 0.043801397
vt 0.88516665 0.05071467
vt 0.88957185 0.05253145
vt 0.88957185 0.049217343
vt 0.8939432 0.051235437
vt 0.88516665 0.046650052
vt 0.88091993 0.043065935
vt 0.88091993 0.038574845
vt 0.8718709 0.03890869
vt 0.8718709 0.033988237
vt 0.88516665 0.042567074
vt 0.88957185 0.04562086
vt 0.8938762 0.048299193
vt 0.88091993 0.034076482
vt 0.8718709 0.028899908
vt 0.88516665 0.038480222
vt 0.9024374 0.047169328
vt 0.9025714 0.049643904
vt 0.8939061 0.04493025
vt 0.88957185 0.042027652
vt 0.88091993 0.029516011
vt 0.8718709 0.02355674
vt 0.9085561 0.04656881
vt 0.9087571 0.048683137
vt 0.88516665 0.034384906
vt 0.90249735 0.044086993
vt 0.8938458 0.041694462
vt 0.8895717 0.03843081
vt 0.88091993 0.024861217
vt 0.8718709 0.017887414
vt 0.88091993 0.020244688
vt 0.91488427 0.044859827
vt 0.91515225 0.04625827
vt 0.931984 0.038232774
vt 0.88516665 0.03027007
vt 0.88516665 0.02616465
vt 0.88516665 0.022315323
vt 0.908646 0.043557823
vt 0.88957185 0.034823596
vt 0.88957185 0.031206787
vt 0.88957185 0.027585417
vt 0.88957185 0.02424571
vt 0.89388895 0.038384795
vt 0.9023767 0.041290373
vt 0.9150041 0.04227388
vt 0.8938452 0.035070777
vt 0.9024631 0.03833735
vt 0.8939053 0.031811178
vt 0.90846515 0.04106033
vt 0.9085947 0.03828305
vt 0.90237546 0.03538713
vt 0.89387596 0.028424919
vt 0.89394295 0.025463432
vt 0.9147629 0.040451735
vt 0.9149357 0.038214386
vt 0.90846324 0.03551811
vt 0.90249556 0.032566577
vt 0.90243703 0.029475987
vt 0.9025709 0.026976675
vt 0.91476035 0.0365777
vt 0.90864336 0.03299409
vt 0.9085556 0.029985875
vt 0.9087564 0.027845055
vt 0.9150005 0.034151852
vt 0.91488355 0.03158319
vt 0.91515124 0.030158728
vn -0 0.66609234 -0.74586934
vn 0.37164566 0.6317496 -0.6802734
vn 0.37089068 0.64094424 -0.6720346
vn -0 0.67539245 -0.73745847
vn 0.685959 0.53399 -0.49428222
vn -0 0.7006014 -0.71355283
vn 0.68421966 0.5431014 -0.48670772
vn 0.89674735 0.38621354 -0.21606311
vn 0.3681532 0.6658159 -0.64896256
vn -0 0.73144114 -0.6819046
vn 0.36409423 0.69614244 -0.6187254
vn -0 0.7558738 -0.6547174
vn 0.67890745 0.5674399 -0.4659363
vn 0.8942846 0.39542568 -0.20950797
vn 0.3604277 0.71949786 -0.59364533
vn -0 0.78169745 -0.6236578
vn 0.96875876 0.21782635 0.118567646
vn 0.9714901 0.20833638 0.11315014
vn 0.8967045 0.02666676 0.44182554
vn 0.8872557 0.4194811 -0.19186698
vn 0.6713973 0.5968112 -0.43936554
vn 0.3557425 0.7440067 -0.5655982
vn -0 0.8425877 -0.538559
vn 0.89428294 0.036688324 0.44599557
vn 0.684453 -0.12962498 0.71744096
vn 0.6645718 0.6200056 -0.41705802
vn 0.96110255 0.24225095 0.132651
vn 0.87768704 0.44802868 -0.17010525
vn 0.34099045 0.8012023 -0.49173203
vn -4.704566E-07 0.9522706 -0.30525523
vn 0.68301046 -0.11898169 0.7206526
vn 0.36954618 -0.23497877 0.8990109
vn 0.6554134 0.6464491 -0.3905598
vn 0.88750577 0.062394556 0.4565527
vn 0.8694888 0.46970114 -0.15287282
vn 0.95097697 0.27081075 0.14934665
vn 0.3092967 0.8807051 -0.35873964
vn -1.0985611E-06 0.8712449 0.49084854
vn 0.36918303 -0.22395341 0.9019693
vn -0 -0.27215824 0.96225244
vn -0 -0.26105383 0.9653243
vn 0.62489617 0.713609 -0.3166496
vn 0.6786575 -0.091438204 0.72874075
vn 0.36754307 -0.19489682 0.9093555
vn -0 -0.23143503 0.97285044
vn 0.87861764 0.09219151 0.46854216
vn 0.67268544 -0.05936717 0.7375431
vn 0.36499265 -0.1606985 0.9170367
vn -0 -0.19633748 0.98053634
vn 0.94215596 0.2931105 0.16256826
vn 0.8712134 0.114485234 0.47736812
vn 0.66732055 -0.034354553 0.7439778
vn 0.36260957 -0.13479403 0.92214143
vn -3.2453664E-07 -0.16862124 0.98568094
vn 0.8585324 0.4953999 -0.13229091
vn 0.9295867 0.32201272 0.17937787
vn 0.8606301 0.14335263 0.48863673
vn 0.6587833 -0.0012972777 0.7523316
vn 0.35842472 -0.10215424 0.9279527
vn -5.8772343E-07 -0.13298543 0.991118
vn 0.82309604 0.56269807 -0.07670499
vn 0.8862402 0.40423378 0.22621511
vn 0.8251845 0.225114 0.51806766
vn 0.62816423 0.0959644 0.77214026
vn 0.34356344 -0.010157749 0.9390745
vn -1.0839863E-06 -0.029359767 0.9995689
vn 0.51982445 0.8456958 -0.120752625
vn 0.7467628 0.6648486 0.0179307
vn 0.73719424 0.5890892 0.33093566
vn 0.74868083 0.35895422 0.55734086
vn 0.5226161 0.3326341 0.78500134
vn 0.3115446 0.1453637 0.9390471
vn -1.6499843E-06 0.22832167 0.97358567
vn -0.3708908 0.6409445 -0.67203426
vn -0.68595916 0.5339902 -0.49428195
vn -0.3716458 0.63174975 -0.6802732
vn -0 0.66609234 -0.74586934
vn -0 0.67539245 -0.73745847
vn -0 0.7006014 -0.71355283
vn -0.68421984 0.54310143 -0.48670733
vn -0.89674735 0.3862136 -0.2160627
vn -0.36815342 0.6658162 -0.6489622
vn -0 0.73144114 -0.6819046
vn -0.3640945 0.6961427 -0.6187252
vn -0 0.7558738 -0.6547174
vn -0.67890775 0.56744 -0.46593562
vn -0.8942847 0.3954257 -0.20950754
vn -0.96875864 0.21782646 0.11856779
vn -0.9714901 0.20833637 0.11315041
vn -0.8967045 0.02666676 0.4418257
vn -0.8872558 0.419481 -0.19186641
vn -0.6713977 0.5968113 -0.43936476
vn -0.36042807 0.7194981 -0.5936449
vn -0.89428294 0.036688328 0.4459955
vn -0.684453 -0.12962501 0.71744096
vn -0.96110255 0.24225089 0.13265137
vn -0.35574278 0.74400693 -0.56559783
vn -0 0.78169745 -0.6236578
vn -0.6645724 0.62000567 -0.41705695
vn -0.8776872 0.44802874 -0.17010422
vn -0.68301046 -0.11898169 0.7206526
vn -0.36954626 -0.23497872 0.8990109
vn -0.34099096 0.8012023 -0.49173173
vn -0 0.8425877 -0.538559
vn -0.8875057 0.06239456 0.4565529
vn -0.655414 0.64644915 -0.39055866
vn -0.8694891 0.469701 -0.15287168
vn -0.9509769 0.2708107 0.14934728
vn -0.36918312 -0.2239535 0.9019693
vn -0 -0.27215824 0.96225244
vn -0 -0.26105383 0.9653243
vn -0.30929753 0.88070476 -0.35873967
vn -4.704566E-07 0.9522706 -0.30525523
vn -1.0985611E-06 0.8712449 0.49084854
vn -0.6786575 -0.09143823 0.72874075
vn -0.36754295 -0.19489683 0.9093555
vn -0 -0.23143503 0.97285044
vn -0.6248969 0.7136086 -0.31664887
vn -0.8786175 0.09219148 0.4685424
vn -0.6726856 -0.059367243 0.7375429
vn -0.36499268 -0.16069844 0.9170367
vn -0 -0.19633748 0.98053634
vn -0.94215584 0.2931104 0.16256912
vn -0.8585328 0.4953998 -0.1322897
vn -0.5198257 0.845695 -0.120752044
vn -0.8712133 0.11448522 0.47736827
vn -0.9295866 0.32201257 0.17937878
vn -0.66732085 -0.034354553 0.7439776
vn -0.82309645 0.5626979 -0.076703735
vn -0.8862402 0.40423352 0.226216
vn -0.86063004 0.14335234 0.48863706
vn -0.36260998 -0.13479394 0.9221413
vn -3.2453664E-07 -0.16862124 0.98568094
vn -0.74676335 0.6648481 0.017931543
vn -0.73719454 0.5890886 0.3309363
vn -0.82518446 0.22511366 0.518068
vn -0.6587835 -0.0012974081 0.7523315
vn -0.35842565 -0.10215437 0.9279523
vn -5.8772343E-07 -0.13298543 0.991118
vn -0.74868095 0.35895377 0.55734104
vn -0.62816477 0.09596393 0.7721398
vn -0.34356505 -0.010157945 0.93907386
vn -1.0839863E-06 -0.029359767 0.9995689
vn -0.52261734 0.3326333 0.78500074
vn -0.31154722 0.14536335 0.93904626
vn -1.6499843E-06 0.22832167 0.97358567
g pm0118_01_HornSkin_0
f 3/3/3 2/2/2 1/1/1
f 4/4/4 3/3/3 1/1/1
f 5/5/5 2/2/2 3/3/3
f 4/4/4 6/6/6 3/3/3
f 7/7/7 5/5/5 3/3/3
f 8/8/8 5/5/5 7/7/7
f 6/6/6 9/9/9 3/3/3
f 7/7/7 3/3/3 9/9/9
f 6/6/6 10/10/10 9/9/9
f 10/10/10 11/11/11 9/9/9
f 10/10/10 12/12/12 11/11/11
f 13/13/13 7/7/7 9/9/9
f 13/13/13 9/9/9 11/11/11
f 14/14/14 8/8/8 7/7/7
f 14/14/14 7/7/7 13/13/13
f 12/12/12 15/15/15 11/11/11
f 12/12/12 16/16/16 15/15/15
f 14/14/14 17/17/17 8/8/8
f 17/17/17 18/18/18 8/8/8
f 19/19/19 18/18/18 17/17/17
f 20/20/20 14/14/14 13/13/13
f 14/14/14 20/20/20 17/17/17
f 21/21/21 13/13/13 11/11/11
f 21/21/21 11/11/11 15/15/15
f 20/20/20 13/13/13 21/21/21
f 16/16/16 22/22/22 15/15/15
f 16/16/16 23/23/23 22/22/22
f 24/24/24 19/19/19 17/17/17
f 25/25/25 19/19/19 24/24/24
f 26/26/26 21/21/21 15/15/15
f 26/26/26 15/15/15 22/22/22
f 20/20/20 27/27/27 17/17/17
f 24/24/24 17/17/17 27/27/27
f 28/28/28 20/20/20 21/21/21
f 28/28/28 21/21/21 26/26/26
f 20/20/20 28/28/28 27/27/27
f 23/23/23 29/29/29 22/22/22
f 23/23/23 30/30/30 29/29/29
f 31/31/31 25/25/25 24/24/24
f 32/32/32 25/25/25 31/31/31
f 33/33/33 26/26/26 22/22/22
f 33/33/33 22/22/22 29/29/29
f 34/34/34 24/24/24 27/27/27
f 31/31/31 24/24/24 34/34/34
f 35/35/35 28/28/28 26/26/26
f 35/35/35 26/26/26 33/33/33
f 28/28/28 36/36/36 27/27/27
f 34/34/34 27/27/27 36/36/36
f 28/28/28 35/35/35 36/36/36
f 30/30/30 37/37/37 29/29/29
f 37/37/37 30/30/30 38/38/38
f 39/39/39 32/32/32 31/31/31
f 40/40/40 32/32/32 39/39/39
f 41/41/41 40/40/40 39/39/39
f 42/42/42 33/33/33 29/29/29
f 42/42/42 29/29/29 37/37/37
f 43/43/43 31/31/31 34/34/34
f 39/39/39 31/31/31 43/43/43
f 41/41/41 39/39/39 44/44/44
f 44/44/44 39/39/39 43/43/43
f 45/45/45 41/41/41 44/44/44
f 43/43/43 34/34/34 46/46/46
f 46/46/46 34/34/34 36/36/36
f 44/44/44 43/43/43 47/47/47
f 47/47/47 43/43/43 46/46/46
f 45/45/45 44/44/44 48/48/48
f 48/48/48 44/44/44 47/47/47
f 49/49/49 45/45/45 48/48/48
f 46/46/46 36/36/36 50/50/50
f 35/35/35 50/50/50 36/36/36
f 47/47/47 46/46/46 51/51/51
f 51/51/51 46/46/46 50/50/50
f 48/48/48 47/47/47 52/52/52
f 52/52/52 47/47/47 51/51/51
f 49/49/49 48/48/48 53/53/53
f 53/53/53 48/48/48 52/52/52
f 54/54/54 49/49/49 53/53/53
f 35/35/35 55/55/55 50/50/50
f 55/55/55 35/35/35 33/33/33
f 55/55/55 33/33/33 42/42/42
f 51/51/51 50/50/50 56/56/56
f 55/55/55 56/56/56 50/50/50
f 52/52/52 51/51/51 57/57/57
f 57/57/57 51/51/51 56/56/56
f 53/53/53 52/52/52 58/58/58
f 58/58/58 52/52/52 57/57/57
f 54/54/54 53/53/53 59/59/59
f 59/59/59 53/53/53 58/58/58
f 60/60/60 54/54/54 59/59/59
f 61/61/61 55/55/55 42/42/42
f 55/55/55 61/61/61 56/56/56
f 57/57/57 56/56/56 62/62/62
f 61/61/61 62/62/62 56/56/56
f 58/58/58 57/57/57 63/63/63
f 63/63/63 57/57/57 62/62/62
f 59/59/59 58/58/58 64/64/64
f 64/64/64 58/58/58 63/63/63
f 60/60/60 59/59/59 65/65/65
f 65/65/65 59/59/59 64/64/64
f 66/66/66 60/60/60 65/65/65
f 61/61/61 42/42/42 67/67/67
f 67/67/67 42/42/42 37/37/37
f 67/67/67 37/37/37 38/38/38
f 68/68/68 61/61/61 67/67/67
f 61/61/61 68/68/68 62/62/62
f 68/68/68 67/67/67 38/38/38
f 68/68/68 69/69/69 62/62/62
f 63/63/63 62/62/62 69/69/69
f 69/69/69 68/68/68 38/38/38
f 70/70/70 63/63/63 69/69/69
f 64/64/64 63/63/63 70/70/70
f 70/70/70 69/69/69 38/38/38
f 71/71/71 64/64/64 70/70/70
f 65/65/65 64/64/64 71/71/71
f 71/71/71 70/70/70 38/38/38
f 66/66/66 65/65/65 72/72/72
f 72/72/72 65/65/65 71/71/71
f 72/72/72 71/71/71 38/38/38
f 73/73/73 66/66/66 72/72/72
f 73/73/73 72/72/72 38/38/38
f 76/76/76 75/75/75 74/74/74
f 76/76/76 74/74/74 77/77/77
f 74/74/74 78/78/78 77/77/77
f 79/79/79 78/78/78 74/74/74
f 75/75/75 80/80/80 74/74/74
f 75/75/75 81/81/81 80/80/80
f 82/82/82 79/79/79 74/74/74
f 74/74/74 80/80/80 82/82/82
f 83/83/83 79/79/79 82/82/82
f 84/84/84 83/83/83 82/82/82
f 85/85/85 83/83/83 84/84/84
f 80/80/80 86/86/86 82/82/82
f 82/82/82 86/86/86 84/84/84
f 81/81/81 87/87/87 80/80/80
f 80/80/80 87/87/87 86/86/86
f 88/88/88 87/87/87 81/81/81
f 89/89/89 88/88/88 81/81/81
f 89/89/89 90/90/90 88/88/88
f 87/87/87 91/91/91 86/86/86
f 91/91/91 87/87/87 88/88/88
f 86/86/86 92/92/92 84/84/84
f 86/86/86 91/91/91 92/92/92
f 93/93/93 85/85/85 84/84/84
f 84/84/84 92/92/92 93/93/93
f 90/90/90 94/94/94 88/88/88
f 90/90/90 95/95/95 94/94/94
f 96/96/96 91/91/91 88/88/88
f 88/88/88 94/94/94 96/96/96
f 93/93/93 97/97/97 85/85/85
f 97/97/97 98/98/98 85/85/85
f 92/92/92 99/99/99 93/93/93
f 93/93/93 99/99/99 97/97/97
f 91/91/91 100/100/100 92/92/92
f 100/100/100 91/91/91 96/96/96
f 92/92/92 100/100/100 99/99/99
f 95/95/95 101/101/101 94/94/94
f 95/95/95 102/102/102 101/101/101
f 97/97/97 103/103/103 98/98/98
f 103/103/103 104/104/104 98/98/98
f 94/94/94 105/105/105 96/96/96
f 94/94/94 101/101/101 105/105/105
f 99/99/99 106/106/106 97/97/97
f 97/97/97 106/106/106 103/103/103
f 100/100/100 107/107/107 99/99/99
f 99/99/99 107/107/107 106/106/106
f 108/108/108 100/100/100 96/96/96
f 96/96/96 105/105/105 108/108/108
f 107/107/107 100/100/100 108/108/108
f 102/102/102 109/109/109 101/101/101
f 102/102/102 110/110/110 109/109/109
f 110/110/110 111/111/111 109/109/109
f 103/103/103 112/112/112 104/104/104
f 112/112/112 113/113/113 104/104/104
f 113/113/113 112/112/112 114/114/114
f 101/101/101 115/115/115 105/105/105
f 101/101/101 109/109/109 115/115/115
f 109/109/109 111/111/111 116/116/116
f 109/109/109 116/116/116 115/115/115
f 111/111/111 117/117/117 116/116/116
f 103/103/103 118/118/118 112/112/112
f 106/106/106 118/118/118 103/103/103
f 105/105/105 115/115/115 119/119/119
f 105/105/105 119/119/119 108/108/108
f 115/115/115 116/116/116 120/120/120
f 115/115/115 120/120/120 119/119/119
f 116/116/116 117/117/117 121/121/121
f 116/116/116 121/121/121 120/120/120
f 117/117/117 122/122/122 121/121/121
f 108/108/108 119/119/119 123/123/123
f 123/123/123 107/107/107 108/108/108
f 107/107/107 124/124/124 106/106/106
f 106/106/106 124/124/124 118/118/118
f 118/118/118 125/125/125 112/112/112
f 112/112/112 125/125/125 114/114/114
f 119/119/119 120/120/120 126/126/126
f 119/119/119 126/126/126 123/123/123
f 123/123/123 127/127/127 107/107/107
f 127/127/127 124/124/124 107/107/107
f 123/123/123 126/126/126 127/127/127
f 120/120/120 121/121/121 128/128/128
f 120/120/120 128/128/128 126/126/126
f 124/124/124 129/129/129 118/118/118
f 118/118/118 129/129/129 125/125/125
f 127/127/127 130/130/130 124/124/124
f 130/130/130 129/129/129 124/124/124
f 126/126/126 131/131/131 127/127/127
f 126/126/126 128/128/128 131/131/131
f 127/127/127 131/131/131 130/130/130
f 121/121/121 132/132/132 128/128/128
f 121/121/121 122/122/122 132/132/132
f 122/122/122 133/133/133 132/132/132
f 129/129/129 134/134/134 125/125/125
f 125/125/125 134/134/134 114/114/114
f 135/135/135 134/134/134 129/129/129
f 130/130/130 135/135/135 129/129/129
f 134/134/134 135/135/135 114/114/114
f 131/131/131 136/136/136 130/130/130
f 130/130/130 136/136/136 135/135/135
f 128/128/128 137/137/137 131/131/131
f 128/128/128 132/132/132 137/137/137
f 131/131/131 137/137/137 136/136/136
f 132/132/132 133/133/133 138/138/138
f 132/132/132 138/138/138 137/137/137
f 133/133/133 139/139/139 138/138/138
f 136/136/136 140/140/140 135/135/135
f 135/135/135 140/140/140 114/114/114
f 137/137/137 141/141/141 136/136/136
f 137/137/137 138/138/138 141/141/141
f 136/136/136 141/141/141 140/140/140
f 138/138/138 139/139/139 142/142/142
f 138/138/138 142/142/142 141/141/141
f 139/139/139 143/143/143 142/142/142
f 141/141/141 144/144/144 140/140/140
f 140/140/140 144/144/144 114/114/114
f 141/141/141 142/142/142 144/144/144
f 142/142/142 143/143/143 145/145/145
f 142/142/142 145/145/145 144/144/144
f 144/144/144 145/145/145 114/114/114
f 143/143/143 146/146/146 145/145/145
f 145/145/145 146/146/146 114/114/114
