g pm0105_61_L_FireCore2Skin
v 0.46651027 0.7609297 0.5000599
v 0.466498 0.6460757 0.50004715
v 0.44001704 0.6460757 0.47386324
v 0.42136246 0.5464576 0.47173986
v 0.46651912 0.5464577 0.50006634
v 0.45659655 0.4428247 0.4966374
v 0.39812785 0.4421542 0.4764
v 0.37957823 0.3448119 0.4857914
v 0.4532829 0.34486315 0.49787426
v 0.36549038 0.24783798 0.516671
v 0.44533622 0.2474768 0.5035012
v 0.43969455 0.14934584 0.51394916
v 0.35146767 0.14926222 0.5598277
v 0.42204353 0.046643436 0.53390473
v 0.32994777 0.046655707 0.60411817
v 0.34906378 -0.055636737 0.6173547
v 0.42558897 -0.059311025 0.5409214
v 0.38846004 -0.11466425 0.57807285
v 0.46650565 -0.13813302 0.50005376
v 0.46651027 0.7609297 0.5000599
v 0.46649802 0.6460757 0.50004715
v 0.4926813 0.6460757 0.52640986
v 0.5113501 0.5464576 0.5285443
v 0.46651912 0.5464577 0.50006634
v 0.47640887 0.44305193 0.5035135
v 0.5346836 0.44372022 0.523794
v 0.5533335 0.3449326 0.5143176
v 0.47936425 0.34488127 0.5021562
v 0.5675086 0.24782008 0.4833481
v 0.48766306 0.24747685 0.49651927
v 0.49330497 0.14940432 0.4860712
v 0.58153147 0.14951631 0.44019195
v 0.5112957 0.046574477 0.4658789
v 0.6027748 0.046655707 0.39617267
v 0.5836319 -0.055636737 0.38287878
v 0.5100671 -0.059178405 0.45647416
v 0.5448371 -0.11466425 0.4216671
v 0.4664938 -0.13813302 0.5000657
v 0.46649873 0.7609297 0.50007135
v 0.46651405 0.6460757 0.50003177
v 0.440366 0.6460757 0.5264689
v 0.43819195 0.5464576 0.54516405
v 0.4665192 0.5464577 0.50006646
v 0.4631309 0.4428247 0.50992197
v 0.44286156 0.4421542 0.56839067
v 0.4520158 0.3448108 0.58846986
v 0.4642977 0.34486315 0.5131698
v 0.48316076 0.24783798 0.6010197
v 0.46999082 0.2474768 0.52117383
v 0.48043895 0.14934584 0.52681535
v 0.5263175 0.14926222 0.6150423
v 0.5004822 0.046643436 0.5444474
v 0.57057756 0.046655707 0.63654083
v 0.58387893 -0.055636737 0.6173984
v 0.5084905 -0.05925856 0.5420284
v 0.54455507 -0.11466425 0.57805955
v 0.46650565 -0.13813302 0.50005376
v 0.46649873 0.7609297 0.50007135
v 0.46651405 0.6460757 0.50003177
v 0.49291256 0.6460757 0.47380456
v 0.49499637 0.5464576 0.45517644
v 0.4665192 0.5464577 0.50006646
v 0.470007 0.44305193 0.4901096
v 0.49025562 0.44372022 0.43183494
v 0.48104367 0.34493366 0.41165897
v 0.46861684 0.34488147 0.48686057
v 0.44983786 0.24782008 0.39900145
v 0.4630089 0.24747685 0.4788469
v 0.45256102 0.14940432 0.4732049
v 0.4066818 0.14951631 0.38497847
v 0.4324563 0.046574477 0.45519522
v 0.3626321 0.046655707 0.3637138
v 0.3494989 -0.055636737 0.3827346
v 0.42524132 -0.059286963 0.45867923
v 0.38812843 -0.11466425 0.42170337
v 0.46650565 -0.13813302 0.50005376
vt 0.99454355 4.908773
vt 0.6526369 4.5607796
vt 0.99454355 4.5123897
vt 0.99454355 4.1464634
vt 0.46116054 4.1909704
vt 0.28616786 3.828084
vt 0.99454355 3.7886477
vt 0.99454355 3.4910583
vt 0.16259551 3.5193691
vt 0.99454355 3.0933766
vt 0.07379556 3.13801
vt 0.036550164 2.7706845
vt 0.99454355 2.7334888
vt 0.021452546 2.3899374
vt 0.99454355 2.3842633
vt 0.99454355 1.9641602
vt 0.016011357 1.9511595
vt 0.9185411 1.6766214
vt 0.76239693 1.4291799
vt 0.99399054 4.404995
vt 0.7149823 3.9981384
vt 0.99399054 3.9529266
vt 0.99399054 3.568306
vt 0.5200608 3.6190858
vt 0.33230984 3.2585688
vt 0.99399054 3.2209706
vt 0.99399054 2.9242368
vt 0.18862021 2.9517007
vt 0.99399054 2.5360806
vt 0.06383729 2.5762155
vt 0.026821852 2.2235
vt 0.99399054 2.1822994
vt 0.019072771 1.818723
vt 0.99399054 1.8741233
vt 0.99399054 1.3801162
vt 0.15749657 1.4056165
vt 0.91798794 1.1246622
vt 0.7618438 0.90625
vt 0.9941082 5.4881773
vt 0.7750155 5.180798
vt 0.9941082 5.142048
vt 0.9941082 4.7322726
vt 0.5659076 4.7958393
vt 0.38351667 4.4380836
vt 0.9941082 4.3963842
vt 0.9941082 4.06711
vt 0.23040497 4.092657
vt 0.9941082 3.7140713
vt 0.10302532 3.7629886
vt 0.054649472 3.388884
vt 0.9941082 3.3642302
vt 0.03331411 3.0322032
vt 0.9941082 2.973516
vt 0.9941082 2.5593402
vt 0.07824814 2.582818
vt 0.91810584 2.26818
vt 0.7619617 2.0305443
vt 0.9946679 5.881937
vt 0.6376762 5.527134
vt 0.9946679 5.4718385
vt 0.99466777 5.1086335
vt 0.4205958 5.1546593
vt 0.27206522 4.8113422
vt 0.9946679 4.782428
vt 0.99466777 4.434859
vt 0.16008802 4.466868
vt 0.9946679 4.0755005
vt 0.09132184 4.1239276
vt 0.05778341 3.76441
vt 0.9946679 3.7300262
vt 0.03387366 3.382884
vt 0.9946679 3.3500018
vt 0.9946679 2.9347796
vt 0.07234003 2.9433799
vt 0.910075 2.622206
vt 0.7625212 2.442016
vn -0.7031072 -3.6723427E-06 0.71108395
vn -0.6378751 0.03269564 0.7694456
vn -0.63140684 0.035778485 0.7746259
vn -0.4949127 0.063868515 0.8665923
vn -0.50718266 0.062229715 0.85958904
vn -0.3312071 0.07647092 0.9404542
vn -0.31600508 0.07697593 0.94562966
vn -0.0976 0.14051564 0.9852561
vn -0.112015575 0.13438661 0.9845775
vn 0.1996289 0.2072371 0.9577062
vn 0.17338826 0.20445593 0.9633972
vn 0.43166563 0.18965572 0.8818705
vn 0.46446097 0.18000558 0.86710674
vn 0.5914242 0.15136571 0.7920264
vn 0.6030865 0.14990541 0.7834636
vn 0.6582007 0.12767328 0.74193764
vn 0.66948426 0.101277985 0.7358897
vn 0.7068531 0.0006272627 0.70736
vn 0.70704275 0.00037330366 0.7071708
vn 0.7095167 2.3978084E-06 -0.70468867
vn 0.6438411 0.033061314 -0.7644446
vn 0.63733554 0.036170222 -0.7697371
vn 0.49889782 0.06496154 -0.8642228
vn 0.51146334 0.063253954 -0.8569739
vn 0.3299827 0.07727704 -0.9408186
vn 0.31724733 0.07759728 -0.9451628
vn 0.098405175 0.14047836 -0.98518133
vn 0.1125231 0.13444197 -0.9845121
vn -0.19935843 0.20756085 -0.95769244
vn -0.17277783 0.2047533 -0.9634438
vn -0.43167874 0.18955556 -0.88188565
vn -0.46424046 0.17983285 -0.8672606
vn -0.5897476 0.15202792 -0.79314893
vn -0.6018681 0.15073673 -0.78424066
vn -0.65759623 0.12921695 -0.74220634
vn -0.66911495 0.102442786 -0.73606426
vn -0.7073146 0.00021206384 -0.7068988
vn -0.7073763 0.00013453238 -0.7068371
vn 0.7109824 -0.00014780465 0.7032099
vn 0.7692567 0.032697447 0.63810265
vn 0.7744229 0.03579007 0.6316552
vn 0.8663934 0.063981526 0.49524623
vn 0.8593875 0.062338058 0.5075106
vn 0.94076324 0.07663262 0.3302907
vn 0.9460776 0.07714816 0.31461942
vn 0.9850723 0.14163496 0.09783647
vn 0.9844205 0.13535431 0.11223024
vn 0.9580197 0.2078332 -0.19749346
vn 0.9634978 0.20526937 -0.1718616
vn 0.88193965 0.18989278 -0.43141985
vn 0.8672071 0.18031701 -0.46415251
vn 0.7926146 0.1518472 -0.59051216
vn 0.78387827 0.1503438 -0.6024381
vn 0.74219584 0.1280344 -0.6578392
vn 0.7360642 0.10157911 -0.6692468
vn 0.7069561 0.0002315922 -0.70725745
vn 0.7068877 0.00014235356 -0.7073258
vn -0.7048009 0.0001507743 -0.7094051
vn -0.7646418 0.03305784 -0.6436071
vn -0.76994854 0.03615646 -0.63708067
vn -0.8644244 0.064846314 -0.49856335
vn -0.85717833 0.06314313 -0.5111342
vn -0.9410545 0.077740565 -0.3292001
vn -0.9455494 0.07815144 -0.3159566
vn -0.9849422 0.14162454 -0.09915324
vn -0.9842812 0.13553618 -0.11322759
vn -0.95804155 0.20795426 0.19725999
vn -0.9635601 0.2053389 0.1714288
vn -0.8818161 0.18931867 0.43192452
vn -0.8671598 0.17952241 0.46454874
vn -0.7922334 0.15083508 0.5912825
vn -0.7837121 0.14947014 0.60287154
vn -0.74200153 0.1277102 0.65812147
vn -0.7358201 0.101359144 0.66954845
vn -0.7074426 0.0022005572 0.7067674
vn -0.7067873 0.0013227635 0.7074249
g pm0105_61_L_FireCore2Skin_0
f 3/3/3 2/2/2 1/1/1
f 3/3/3 4/4/4 2/2/2
f 4/4/4 5/5/5 2/2/2
f 6/6/6 5/5/5 4/4/4
f 7/7/7 6/6/6 4/4/4
f 7/7/7 8/8/8 6/6/6
f 8/8/8 9/9/9 6/6/6
f 8/8/8 10/10/10 9/9/9
f 10/10/10 11/11/11 9/9/9
f 12/12/12 11/11/11 10/10/10
f 13/13/13 12/12/12 10/10/10
f 14/14/14 12/12/12 13/13/13
f 15/15/15 14/14/14 13/13/13
f 15/15/15 16/16/16 14/14/14
f 16/16/16 17/17/17 14/14/14
f 18/18/18 17/17/17 16/16/16
f 19/19/19 17/17/17 18/18/18
f 22/22/22 21/21/21 20/20/20
f 22/22/22 23/23/23 21/21/21
f 23/23/23 24/24/24 21/21/21
f 25/25/25 24/24/24 23/23/23
f 26/26/26 25/25/25 23/23/23
f 26/26/26 27/27/27 25/25/25
f 27/27/27 28/28/28 25/25/25
f 27/27/27 29/29/29 28/28/28
f 29/29/29 30/30/30 28/28/28
f 31/31/31 30/30/30 29/29/29
f 32/32/32 31/31/31 29/29/29
f 33/33/33 31/31/31 32/32/32
f 34/34/34 33/33/33 32/32/32
f 34/34/34 35/35/35 33/33/33
f 35/35/35 36/36/36 33/33/33
f 37/37/37 36/36/36 35/35/35
f 38/38/38 36/36/36 37/37/37
f 41/41/41 40/40/40 39/39/39
f 41/41/41 42/42/42 40/40/40
f 42/42/42 43/43/43 40/40/40
f 44/44/44 43/43/43 42/42/42
f 45/45/45 44/44/44 42/42/42
f 45/45/45 46/46/46 44/44/44
f 46/46/46 47/47/47 44/44/44
f 46/46/46 48/48/48 47/47/47
f 48/48/48 49/49/49 47/47/47
f 50/50/50 49/49/49 48/48/48
f 51/51/51 50/50/50 48/48/48
f 52/52/52 50/50/50 51/51/51
f 53/53/53 52/52/52 51/51/51
f 53/53/53 54/54/54 52/52/52
f 54/54/54 55/55/55 52/52/52
f 56/56/56 55/55/55 54/54/54
f 57/57/57 55/55/55 56/56/56
f 60/60/60 59/59/59 58/58/58
f 60/60/60 61/61/61 59/59/59
f 61/61/61 62/62/62 59/59/59
f 63/63/63 62/62/62 61/61/61
f 64/64/64 63/63/63 61/61/61
f 64/64/64 65/65/65 63/63/63
f 65/65/65 66/66/66 63/63/63
f 65/65/65 67/67/67 66/66/66
f 67/67/67 68/68/68 66/66/66
f 69/69/69 68/68/68 67/67/67
f 70/70/70 69/69/69 67/67/67
f 71/71/71 69/69/69 70/70/70
f 72/72/72 71/71/71 70/70/70
f 72/72/72 73/73/73 71/71/71
f 73/73/73 74/74/74 71/71/71
f 75/75/75 74/74/74 73/73/73
f 76/76/76 74/74/74 75/75/75
