g pm0119_00_HornSkin
v 0.03076538 0.5202367 0.27756375
v 7.6852325E-17 0.5527015 0.32533973
v 9.0195536E-17 0.52692395 0.27292544
v 0.024594374 0.5474215 0.32918882
v 0.053533997 0.50193405 0.29049507
v 0.018515347 0.5747563 0.38073593
v -3.5762782E-10 0.5786469 0.37765774
v -8.940696E-10 0.5929438 0.4084504
v 0.04272259 0.53297997 0.33983546
v 0.061760925 0.4778416 0.30985054
v 0.01460324 0.5898753 0.41087812
v -1.4305115E-09 0.6072407 0.43924305
v 0.032069024 0.56412697 0.38914585
v 0.049304206 0.51371 0.3552295
v 0.05286456 0.45581523 0.33113137
v 0.010691133 0.60499424 0.44102037
v -1.4305115E-09 0.62076145 0.47064972
v 0.025293149 0.5814918 0.41751114
v 0.037030075 0.54960704 0.40063387
v 0.042385887 0.49547923 0.37159187
v 0.029966492 0.4419277 0.3481823
v 0.029205972 0.57003987 0.42657185
v 0.032069024 0.53508705 0.41212192
v 0.024192551 0.48325846 0.38431057
v 1.1586161E-16 0.4383632 0.35533157
v 1.0056345E-16 0.47954914 0.38942268
v 9.124691E-17 0.5205672 0.42360994
v 0.018515345 0.5244578 0.4205318
v -8.940688E-11 0.54713583 0.4446933
v 0.025293149 0.5585878 0.43563256
v 0.01460324 0.55020446 0.4422655
v 0.018517274 0.5988566 0.44587642
v 0.010691134 0.57595104 0.4639992
v -1.7881385E-10 0.57370454 0.4657766
v -8.046626E-10 0.60104936 0.48624578
v 0.021381872 0.59047264 0.4525098
v 0.018517274 0.58208853 0.45914322
v 0.0062841442 0.60236984 0.4852011
v 0.010884249 0.6059774 0.4823468
v 0.012568018 0.61090547 0.4784478
v 0.010884248 0.6158334 0.4745487
v 0.0040806495 0.6155792 0.49580202
v -1.117587E-09 0.6147218 0.4964804
v 0.0070677362 0.6179218 0.49394858
v 0.008161091 0.6211218 0.49141678
v 0.0018771543 0.6287886 0.50640297
v -1.4305115E-09 0.6283942 0.506715
v 5.7828156E-09 0.63313377 0.50666755
v 0.003251223 0.6298662 0.5055504
v 0.0037541648 0.63133824 0.50438577
v 0.007067735 0.6243218 0.48888487
v 0.003251222 0.6328102 0.50322104
v 0.0018771518 0.6338878 0.5023685
v -1.4305115E-09 0.63428223 0.5020564
v 0.004080647 0.6266644 0.48703146
v -1.4305115E-09 0.6275219 0.48635307
v 0.0062841424 0.61944103 0.47169444
v -0.03076538 0.5202367 0.27756375
v 9.0195536E-17 0.52692395 0.27292544
v 7.6852325E-17 0.5527015 0.32533973
v -0.024594374 0.5474215 0.32918882
v -0.053533997 0.50193405 0.29049507
v -0.018515347 0.5747563 0.38073593
v -3.5762782E-10 0.5786469 0.37765774
v -8.940696E-10 0.5929438 0.4084504
v -0.04272259 0.53297997 0.33983546
v -0.061760925 0.4778416 0.30985054
v -0.01460324 0.5898753 0.41087812
v -1.4305115E-09 0.6072407 0.43924305
v -0.032069024 0.56412697 0.38914585
v -0.049304206 0.51371 0.3552295
v -0.05286456 0.45581523 0.33113137
v -0.010691134 0.60499424 0.44102037
v -1.4305115E-09 0.62076145 0.47064972
v -0.025293149 0.5814918 0.41751114
v -0.037030075 0.54960704 0.40063387
v -0.042385887 0.49547923 0.37159187
v -0.029966492 0.4419277 0.3481823
v -0.0062841433 0.61944103 0.47169444
v -1.4305115E-09 0.6275219 0.48635307
v -0.018517274 0.5988566 0.44587642
v -0.029205972 0.57003987 0.42657185
v -0.032069024 0.53508705 0.41212192
v -0.024192551 0.48325846 0.38431057
v 1.1586161E-16 0.4383632 0.35533157
v 1.0056345E-16 0.47954914 0.38942268
v 9.124691E-17 0.5205672 0.42360994
v -0.018515348 0.5244578 0.4205318
v -8.940688E-11 0.54713583 0.4446933
v -0.014603241 0.55020446 0.4422655
v -1.7881385E-10 0.57370454 0.4657766
v -0.025293149 0.5585878 0.43563256
v -0.010691134 0.57595104 0.4639992
v -8.046626E-10 0.60104936 0.48624578
v -0.018517274 0.58208853 0.45914322
v -0.0062841442 0.60236984 0.4852011
v -1.117587E-09 0.6147218 0.4964804
v -0.021381872 0.59047264 0.4525098
v -0.010884247 0.6059774 0.4823468
v -0.0040806495 0.6155792 0.49580202
v -1.4305115E-09 0.6283942 0.506715
v -0.012568018 0.61090547 0.4784478
v -0.0070677325 0.6179218 0.49394858
v -0.0018771543 0.6287886 0.50640297
v 5.7828156E-09 0.63313377 0.50666755
v -0.0108842505 0.6158334 0.4745487
v -0.008161091 0.6211218 0.49141678
v -0.0032512185 0.6298662 0.5055504
v -0.0070677376 0.6243218 0.48888487
v -0.0037541648 0.63133824 0.50438577
v -0.0040806476 0.6266644 0.48703146
v -1.4305115E-09 0.63428223 0.5020564
v -0.003251225 0.6328102 0.50322104
v -0.0018771518 0.6338878 0.5023685
vt 0.930454 0.03976163
vt 0.93642956 0.054445677
vt 0.9408942 0.03976163
vt 0.9275695 0.054445677
vt 0.91989654 0.03976163
vt 0.9238806 0.071034886
vt 0.93092763 0.071034886
vt 0.92737734 0.08098841
vt 0.9182686 0.054445677
vt 0.90869796 0.03976163
vt 0.92147756 0.08098841
vt 0.92382705 0.09094192
vt 0.9163911 0.071034886
vt 0.9086979 0.054445677
vt 0.89888334 0.03976163
vt 0.91907454 0.09094192
vt 0.92084974 0.09799847
vt 0.91519636 0.08098841
vt 0.90869385 0.071034886
vt 0.8996749 0.054445677
vt 0.888578 0.03976163
vt 0.90867597 0.08098841
vt 0.901113 0.071034886
vt 0.8903884 0.054445677
vt 0.87851954 0.03976163
vt 0.8818756 0.054445677
vt 0.8865993 0.071034886
vt 0.8936252 0.071034886
vt 0.8902286 0.08098841
vt 0.90235525 0.08098841
vt 0.8960928 0.08098841
vt 0.9140016 0.09094192
vt 0.89856035 0.09094192
vt 0.89385796 0.09094192
vt 0.8966511 0.09799847
vt 0.9086581 0.09094192
vt 0.9035976 0.09094192
vt 0.90036196 0.09799847
vt 0.904394 0.09799847
vt 0.90865785 0.09799847
vt 0.9130396 0.09799847
vt 0.9012628 0.10152674
vt 0.8980477 0.10152674
vt 0.90479213 0.10152674
vt 0.9086577 0.10152674
vt 0.9021636 0.10505502
vt 0.8994443 0.10505502
vt 0.90869796 0.12158696
vt 0.9051903 0.10505502
vt 0.90865755 0.10505502
vt 0.9125587 0.10152674
vt 0.9120777 0.10505502
vt 0.9151635 0.10505502
vt 0.91787237 0.10505502
vt 0.9161413 0.10152674
vt 0.91936105 0.10152674
vt 0.917119 0.09799847
vt 0.93045384 0.03976163
vt 0.94089425 0.03976163
vt 0.93642944 0.054445677
vt 0.9275694 0.054445677
vt 0.91989654 0.039761644
vt 0.9238805 0.071034886
vt 0.93092763 0.071034886
vt 0.9273773 0.08098842
vt 0.91826874 0.054445677
vt 0.90869796 0.039761644
vt 0.9214775 0.08098842
vt 0.923827 0.09094196
vt 0.916391 0.071034886
vt 0.90869796 0.054445677
vt 0.89888316 0.039761644
vt 0.91907454 0.09094196
vt 0.92084956 0.097998485
vt 0.91519636 0.08098842
vt 0.90869397 0.071034886
vt 0.8996749 0.054445677
vt 0.88857806 0.039761644
vt 0.917119 0.097998485
vt 0.9193608 0.10152674
vt 0.91400164 0.09094196
vt 0.9086761 0.08098842
vt 0.901113 0.071034886
vt 0.8903883 0.054445677
vt 0.8785194 0.039761644
vt 0.8818756 0.054445677
vt 0.886599 0.071034886
vt 0.89362514 0.071034886
vt 0.89022833 0.08098842
vt 0.8960928 0.08098842
vt 0.89385766 0.09094196
vt 0.90235525 0.08098842
vt 0.8985604 0.09094196
vt 0.89665097 0.097998485
vt 0.9035976 0.09094196
vt 0.9003623 0.097998485
vt 0.8980476 0.10152674
vt 0.90865815 0.09094196
vt 0.904394 0.097998485
vt 0.90126324 0.10152674
vt 0.8994443 0.105055
vt 0.90865797 0.097998485
vt 0.90479213 0.10152674
vt 0.90216416 0.105055
vt 0.90869796 0.12158696
vt 0.9130398 0.097998485
vt 0.90865785 0.10152674
vt 0.9051903 0.105055
vt 0.91255885 0.10152674
vt 0.9086577 0.105055
vt 0.9161413 0.10152674
vt 0.91787213 0.105055
vt 0.91207796 0.105055
vt 0.9151635 0.105055
vn 0.4834037 0.81488633 -0.3198142
vn -0 0.9152911 -0.402793
vn -0 0.9164497 -0.40014982
vn 0.48379225 0.8136281 -0.32241955
vn 0.83754736 0.5370962 -0.10020977
vn 0.48290175 0.8167529 -0.31578565
vn -0 0.9182721 -0.39594996
vn -0 0.92338365 -0.38387856
vn 0.83819216 0.5356112 -0.10273575
vn 0.9671419 0.15721981 0.19979581
vn 0.48122695 0.82217485 -0.30405462
vn -0 0.9298413 -0.3679606
vn 0.83659565 0.5392187 -0.096700504
vn 0.9679193 0.15546253 0.19739203
vn 0.8372314 -0.22264205 0.49947387
vn 0.47885886 0.82911086 -0.2885644
vn -0 0.9452391 -0.32637864
vn 0.83365196 0.5455659 -0.085920006
vn 0.96612597 0.15982825 0.20262171
vn 0.83800125 -0.22470324 0.49725485
vn 0.48310983 -0.5004404 0.7184458
vn 0.96277505 0.16752452 0.21213153
vn 0.8366157 -0.21964055 0.5018289
vn 0.48361385 -0.5028031 0.7164542
vn -1.4375169E-07 -0.6020222 0.7984794
vn -0 -0.6045182 0.79659134
vn -2.0908054E-07 -0.59897417 0.80076844
vn 0.48292878 -0.4973582 0.72070426
vn -0 -0.5888519 0.808241
vn 0.83386064 -0.21064071 0.5102027
vn 0.48143622 -0.48751134 0.7283899
vn 0.8295365 0.55384296 -0.07160461
vn 0.47917065 -0.47421542 0.73859
vn -0 -0.5750972 0.81808513
vn -4.2032266E-07 -0.5382428 0.8427898
vn 0.95805424 0.1776732 0.22486472
vn 0.8298489 -0.19864522 0.5214316
vn 0.47239274 -0.43878284 0.7644048
vn 0.8180737 -0.16711396 0.55029833
vn 0.9444128 0.20384268 0.25793916
vn 0.8176963 0.5746279 -0.034287192
vn 0.44295114 -0.31431282 0.83964384
vn -1.2567083E-06 -0.40757623 0.91317123
vn 0.767043 -0.05959066 0.63882226
vn 0.88543224 0.28817943 0.36464003
vn 0.33143756 0.013798897 0.94337624
vn -1.9324057E-06 -0.055973966 0.9984322
vn -1.6653253E-06 0.6198903 0.7846886
vn 0.57390416 0.20434815 0.7930169
vn 0.66242754 0.46446404 0.5877609
vn 0.76657003 0.6357335 0.09062731
vn 0.573453 0.72437406 0.38266668
vn 0.3309872 0.9145114 0.23262955
vn -7.0210626E-07 0.9840783 0.17773521
vn 0.44247878 0.89002484 -0.1098559
vn -2.216505E-07 0.9830729 -0.18321498
vn 0.4720164 0.8459514 -0.2481266
vn -0.48340362 0.81488633 -0.31981406
vn -0 0.9164497 -0.40014982
vn -0 0.9152911 -0.402793
vn -0.48379225 0.81362814 -0.32241946
vn -0.8375473 0.53709644 -0.10020955
vn -0.4829016 0.8167529 -0.31578568
vn -0 0.9182721 -0.39594996
vn -0 0.92338365 -0.38387856
vn -0.838192 0.5356113 -0.10273561
vn -0.9671419 0.15721993 0.19979595
vn -0.48122674 0.82217485 -0.3040548
vn -0 0.9298413 -0.3679606
vn -0.83659554 0.5392188 -0.096700616
vn -0.9679194 0.15546253 0.19739191
vn -0.83723146 -0.22264196 0.49947378
vn -0.47885862 0.829111 -0.28856465
vn -0 0.9452391 -0.32637864
vn -0.8336519 0.54556596 -0.08592024
vn -0.96612597 0.15982841 0.20262161
vn -0.83800143 -0.22470307 0.4972546
vn -0.48311004 -0.50044024 0.7184458
vn -0.47201648 0.8459514 -0.24812609
vn -2.216505E-07 0.9830729 -0.18321498
vn -0.8295363 0.5538432 -0.0716047
vn -0.96277505 0.1675245 0.21213125
vn -0.8366158 -0.21964055 0.50182855
vn -0.483614 -0.502803 0.7164542
vn -1.4375169E-07 -0.6020222 0.7984794
vn -0 -0.6045182 0.79659134
vn -2.0908054E-07 -0.59897417 0.80076844
vn -0.48292884 -0.49735814 0.72070414
vn -0 -0.5888519 0.808241
vn -0.4814364 -0.48751125 0.7283899
vn -0 -0.5750972 0.81808513
vn -0.8338607 -0.21064058 0.51020277
vn -0.47917074 -0.4742154 0.73859006
vn -4.2032266E-07 -0.5382428 0.8427898
vn -0.8298491 -0.19864509 0.5214313
vn -0.4723936 -0.43878254 0.7644044
vn -1.2567083E-06 -0.40757623 0.91317123
vn -0.95805424 0.1776734 0.22486465
vn -0.81807405 -0.16711363 0.5502981
vn -0.44295323 -0.3143122 0.83964294
vn -1.9324057E-06 -0.055973966 0.9984322
vn -0.9444127 0.20384313 0.25793937
vn -0.7670437 -0.05959002 0.63882154
vn -0.331441 0.013799589 0.94337505
vn -1.6653253E-06 0.6198903 0.7846886
vn -0.81769603 0.57462823 -0.03428678
vn -0.88543177 0.2881796 0.36464104
vn -0.5739056 0.20434847 0.79301584
vn -0.76656973 0.6357334 0.090629995
vn -0.66242737 0.4644632 0.58776176
vn -0.44247892 0.89002496 -0.10985429
vn -7.0210626E-07 0.9840783 0.17773521
vn -0.57345283 0.7243729 0.38266915
vn -0.33098784 0.9145105 0.23263183
g pm0119_00_HornSkin_0
f 3/3/3 2/2/2 1/1/1
f 2/2/2 4/4/4 1/1/1
f 1/1/1 4/4/4 5/5/5
f 6/6/6 4/4/4 2/2/2
f 7/7/7 6/6/6 2/2/2
f 6/6/6 7/7/7 8/8/8
f 4/4/4 9/9/9 5/5/5
f 5/5/5 9/9/9 10/10/10
f 11/11/11 6/6/6 8/8/8
f 11/11/11 8/8/8 12/12/12
f 6/6/6 13/13/13 4/4/4
f 13/13/13 9/9/9 4/4/4
f 9/9/9 14/14/14 10/10/10
f 10/10/10 14/14/14 15/15/15
f 16/16/16 11/11/11 12/12/12
f 16/16/16 12/12/12 17/17/17
f 11/11/11 18/18/18 6/6/6
f 18/18/18 13/13/13 6/6/6
f 11/11/11 16/16/16 18/18/18
f 13/13/13 19/19/19 9/9/9
f 19/19/19 14/14/14 9/9/9
f 14/14/14 20/20/20 15/15/15
f 15/15/15 20/20/20 21/21/21
f 18/18/18 22/22/22 13/13/13
f 22/22/22 19/19/19 13/13/13
f 19/19/19 23/23/23 14/14/14
f 23/23/23 20/20/20 14/14/14
f 20/20/20 24/24/24 21/21/21
f 21/21/21 24/24/24 25/25/25
f 24/24/24 26/26/26 25/25/25
f 27/27/27 26/26/26 24/24/24
f 28/28/28 24/24/24 20/20/20
f 28/28/28 27/27/27 24/24/24
f 23/23/23 28/28/28 20/20/20
f 29/29/29 27/27/27 28/28/28
f 30/30/30 23/23/23 19/19/19
f 22/22/22 30/30/30 19/19/19
f 31/31/31 28/28/28 23/23/23
f 31/31/31 29/29/29 28/28/28
f 30/30/30 31/31/31 23/23/23
f 18/18/18 32/32/32 22/22/22
f 16/16/16 32/32/32 18/18/18
f 31/31/31 33/33/33 29/29/29
f 33/33/33 34/34/34 29/29/29
f 35/35/35 34/34/34 33/33/33
f 22/22/22 36/36/36 30/30/30
f 32/32/32 36/36/36 22/22/22
f 30/30/30 37/37/37 31/31/31
f 37/37/37 33/33/33 31/31/31
f 36/36/36 37/37/37 30/30/30
f 38/38/38 35/35/35 33/33/33
f 38/38/38 33/33/33 37/37/37
f 39/39/39 37/37/37 36/36/36
f 39/39/39 38/38/38 37/37/37
f 40/40/40 36/36/36 32/32/32
f 40/40/40 39/39/39 36/36/36
f 41/41/41 32/32/32 16/16/16
f 41/41/41 40/40/40 32/32/32
f 38/38/38 42/42/42 35/35/35
f 42/42/42 43/43/43 35/35/35
f 39/39/39 44/44/44 38/38/38
f 44/44/44 42/42/42 38/38/38
f 40/40/40 45/45/45 39/39/39
f 45/45/45 44/44/44 39/39/39
f 42/42/42 46/46/46 43/43/43
f 46/46/46 47/47/47 43/43/43
f 46/46/46 48/48/48 47/47/47
f 49/49/49 46/46/46 42/42/42
f 44/44/44 49/49/49 42/42/42
f 49/49/49 48/48/48 46/46/46
f 50/50/50 49/49/49 44/44/44
f 45/45/45 50/50/50 44/44/44
f 50/50/50 48/48/48 49/49/49
f 51/51/51 45/45/45 40/40/40
f 41/41/41 51/51/51 40/40/40
f 52/52/52 50/50/50 45/45/45
f 52/52/52 48/48/48 50/50/50
f 51/51/51 52/52/52 45/45/45
f 53/53/53 48/48/48 52/52/52
f 53/53/53 52/52/52 51/51/51
f 54/54/54 48/48/48 53/53/53
f 55/55/55 53/53/53 51/51/51
f 53/53/53 55/55/55 54/54/54
f 55/55/55 51/51/51 41/41/41
f 55/55/55 56/56/56 54/54/54
f 57/57/57 55/55/55 41/41/41
f 55/55/55 57/57/57 56/56/56
f 57/57/57 41/41/41 16/16/16
f 57/57/57 17/17/17 56/56/56
f 57/57/57 16/16/16 17/17/17
f 60/60/60 59/59/59 58/58/58
f 61/61/61 60/60/60 58/58/58
f 61/61/61 58/58/58 62/62/62
f 61/61/61 63/63/63 60/60/60
f 63/63/63 64/64/64 60/60/60
f 64/64/64 63/63/63 65/65/65
f 66/66/66 61/61/61 62/62/62
f 66/66/66 62/62/62 67/67/67
f 63/63/63 68/68/68 65/65/65
f 65/65/65 68/68/68 69/69/69
f 70/70/70 63/63/63 61/61/61
f 66/66/66 70/70/70 61/61/61
f 71/71/71 66/66/66 67/67/67
f 71/71/71 67/67/67 72/72/72
f 68/68/68 73/73/73 69/69/69
f 69/69/69 73/73/73 74/74/74
f 75/75/75 68/68/68 63/63/63
f 70/70/70 75/75/75 63/63/63
f 76/76/76 70/70/70 66/66/66
f 71/71/71 76/76/76 66/66/66
f 77/77/77 71/71/71 72/72/72
f 77/77/77 72/72/72 78/78/78
f 73/73/73 79/79/79 74/74/74
f 74/74/74 79/79/79 80/80/80
f 81/81/81 73/73/73 68/68/68
f 75/75/75 81/81/81 68/68/68
f 82/82/82 75/75/75 70/70/70
f 76/76/76 82/82/82 70/70/70
f 83/83/83 76/76/76 71/71/71
f 77/77/77 83/83/83 71/71/71
f 84/84/84 77/77/77 78/78/78
f 84/84/84 78/78/78 85/85/85
f 86/86/86 84/84/84 85/85/85
f 86/86/86 87/87/87 84/84/84
f 84/84/84 88/88/88 77/77/77
f 87/87/87 88/88/88 84/84/84
f 88/88/88 83/83/83 77/77/77
f 87/87/87 89/89/89 88/88/88
f 89/89/89 90/90/90 88/88/88
f 88/88/88 90/90/90 83/83/83
f 89/89/89 91/91/91 90/90/90
f 83/83/83 92/92/92 76/76/76
f 90/90/90 92/92/92 83/83/83
f 92/92/92 82/82/82 76/76/76
f 91/91/91 93/93/93 90/90/90
f 90/90/90 93/93/93 92/92/92
f 91/91/91 94/94/94 93/93/93
f 92/92/92 95/95/95 82/82/82
f 93/93/93 95/95/95 92/92/92
f 94/94/94 96/96/96 93/93/93
f 93/93/93 96/96/96 95/95/95
f 94/94/94 97/97/97 96/96/96
f 95/95/95 98/98/98 82/82/82
f 82/82/82 98/98/98 75/75/75
f 98/98/98 81/81/81 75/75/75
f 96/96/96 99/99/99 95/95/95
f 95/95/95 99/99/99 98/98/98
f 97/97/97 100/100/100 96/96/96
f 96/96/96 100/100/100 99/99/99
f 97/97/97 101/101/101 100/100/100
f 98/98/98 102/102/102 81/81/81
f 99/99/99 102/102/102 98/98/98
f 100/100/100 103/103/103 99/99/99
f 99/99/99 103/103/103 102/102/102
f 101/101/101 104/104/104 100/100/100
f 100/100/100 104/104/104 103/103/103
f 105/105/105 104/104/104 101/101/101
f 102/102/102 106/106/106 81/81/81
f 81/81/81 106/106/106 73/73/73
f 106/106/106 79/79/79 73/73/73
f 103/103/103 107/107/107 102/102/102
f 102/102/102 107/107/107 106/106/106
f 104/104/104 108/108/108 103/103/103
f 105/105/105 108/108/108 104/104/104
f 103/103/103 108/108/108 107/107/107
f 106/106/106 109/109/109 79/79/79
f 107/107/107 109/109/109 106/106/106
f 108/108/108 110/110/110 107/107/107
f 105/105/105 110/110/110 108/108/108
f 107/107/107 110/110/110 109/109/109
f 109/109/109 111/111/111 79/79/79
f 79/79/79 111/111/111 80/80/80
f 80/80/80 111/111/111 112/112/112
f 110/110/110 113/113/113 109/109/109
f 105/105/105 113/113/113 110/110/110
f 109/109/109 113/113/113 111/111/111
f 105/105/105 112/112/112 114/114/114
f 111/111/111 114/114/114 112/112/112
f 105/105/105 114/114/114 113/113/113
f 113/113/113 114/114/114 111/111/111
