g pm0183_00_IncSkin
v 6.0272824E-30 0.052406833 -0.34169647
v 6.404899E-30 0.028987367 -0.35717922
v -0.025170607 0.032141574 -0.3602497
v 6.638701E-30 0.013040289 -0.3802519
v -0.027172552 0.05452684 -0.34659684
v -0.029176576 0.08143549 -0.34201786
v -0.049373243 0.056679208 -0.36043787
v 5.5348537E-30 0.081405684 -0.33587223
v 5.0197013E-30 0.11046416 -0.34169647
v -0.027459122 0.017813126 -0.38236538
v -0.029559249 0.013040297 -0.4095235
v -0.049561534 0.032141574 -0.38464054
v 6.694047E-30 0.0067073223 -0.4095568
v 6.529649E-30 0.013040297 -0.4388225
v -0.04292972 0.038774975 -0.36681655
v -0.027172552 0.10834415 -0.34659684
v -0.025170607 0.13072944 -0.3602497
v -0.049373243 0.10619178 -0.36043787
v 4.5844306E-30 0.13388363 -0.35717922
v 4.264712E-30 0.14983068 -0.3802519
v -0.052363023 0.08143549 -0.3574482
v -0.0677934 0.08143549 -0.3806347
v -0.06321446 0.05452685 -0.38263857
v -0.06811477 0.052406844 -0.40953723
v -0.052631997 0.028987344 -0.40953723
v -0.04956156 0.032141548 -0.43443388
v -0.027445737 0.017813114 -0.43672243
v -0.025170607 0.032141574 -0.45882478
v 6.2099305E-30 0.028987318 -0.4618953
v 5.774659E-30 0.052406833 -0.47737807
v -0.042994756 0.038774963 -0.45219305
v -0.049373284 0.0566792 -0.45863658
v -0.027172567 0.05452683 -0.4724778
v -0.029176595 0.08143549 -0.47705668
v 5.2595074E-30 0.0814653 -0.48320225
v 4.7670776E-30 0.11046416 -0.47737807
v -0.06321449 0.054526832 -0.43643588
v -0.06779344 0.08143549 -0.43843985
v -0.052363057 0.08143549 -0.4616264
v -0.049373284 0.10619179 -0.45863658
v -0.027172567 0.10834416 -0.4724778
v -0.025170607 0.13072944 -0.45882478
v 4.389461E-30 0.13388364 -0.4618953
v 4.1556603E-30 0.14983068 -0.4388225
v -0.0739389 0.08146443 -0.40947825
v -0.068114765 0.11046413 -0.4095372
v -0.06321449 0.10834416 -0.43643588
v -0.04956156 0.13072944 -0.43443388
v -0.042994745 0.12409603 -0.45219305
v -0.027445737 0.14505787 -0.43672243
v -0.029559249 0.14983068 -0.4095511
v 4.100241E-30 0.15616368 -0.4095568
v -0.06321446 0.10834415 -0.38263857
v -0.049561534 0.13072944 -0.38464054
v -0.052631997 0.13388364 -0.40953723
v -0.02745912 0.14505787 -0.38236538
v -0.042994726 0.12409602 -0.36688155
v 0.029176576 0.08143549 -0.34201786
v 6.0272824E-30 0.052406833 -0.34169647
v 5.5348537E-30 0.081405684 -0.33587223
v 5.0197013E-30 0.11046416 -0.34169647
v 0.027172552 0.05452684 -0.34659684
v 0.025170607 0.032141574 -0.3602497
v 0.049373243 0.056679208 -0.36043787
v 6.404899E-30 0.028987367 -0.35717922
v 6.638701E-30 0.013040289 -0.3802519
v 0.027172552 0.10834415 -0.34659684
v 0.025170607 0.13072944 -0.3602497
v 0.049373243 0.10619178 -0.36043787
v 4.5844306E-30 0.13388363 -0.35717922
v 4.264712E-30 0.14983068 -0.3802519
v 0.052363023 0.08143549 -0.3574482
v 0.0677934 0.08143549 -0.3806347
v 0.04292972 0.038774975 -0.36681655
v 0.049561534 0.032141574 -0.38464054
v 0.027459122 0.017813126 -0.38236538
v 0.029559249 0.013040297 -0.4095235
v 6.694047E-30 0.0067073223 -0.4095568
v 6.529649E-30 0.013040297 -0.4388225
v 0.06321446 0.05452685 -0.38263857
v 0.06811477 0.052406844 -0.40953723
v 0.052631997 0.028987344 -0.40953723
v 0.04956156 0.032141548 -0.43443388
v 0.027445737 0.017813114 -0.43672243
v 0.025170607 0.032141574 -0.45882478
v 6.2099305E-30 0.028987318 -0.4618953
v 5.774659E-30 0.052406833 -0.47737807
v 0.042994756 0.038774963 -0.45219305
v 0.049373284 0.0566792 -0.45863658
v 0.027172567 0.05452683 -0.4724778
v 0.029176595 0.08143549 -0.47705668
v 5.2595074E-30 0.0814653 -0.48320225
v 4.7670776E-30 0.11046416 -0.47737807
v 0.06321449 0.054526832 -0.43643588
v 0.06779344 0.08143549 -0.43843985
v 0.052363057 0.08143549 -0.4616264
v 0.049373284 0.10619179 -0.45863658
v 0.027172567 0.10834416 -0.4724778
v 0.025170607 0.13072944 -0.45882478
v 4.389461E-30 0.13388364 -0.4618953
v 4.1556603E-30 0.14983068 -0.4388225
v 0.0739389 0.08146443 -0.40947825
v 0.068114765 0.11046413 -0.4095372
v 0.06321449 0.10834416 -0.43643588
v 0.04956156 0.13072944 -0.43443388
v 0.042994745 0.12409603 -0.45219305
v 0.027445737 0.14505787 -0.43672243
v 0.029559249 0.14983068 -0.4095511
v 4.100241E-30 0.15616368 -0.4095568
v 0.06321446 0.10834415 -0.38263857
v 0.049561534 0.13072944 -0.38464054
v 0.052631997 0.13388364 -0.40953723
v 0.02745912 0.14505787 -0.38236538
v 0.042994726 0.12409602 -0.36688155
vt 0.4179294 0.12298214
vt 0.39966387 0.09629083
vt 0.38214403 0.11388242
vt 0.3731048 0.07813954
vt 0.39307564 0.13353443
vt 0.3958668 0.15625
vt 0.37380838 0.13897562
vt 0.42578125 0.15625
vt 0.41700011 0.18956745
vt 0.36251807 0.10292649
vt 0.33984375 0.1000551
vt 0.35709763 0.12217034
vt 0.33984375 0.0703125
vt 0.30669975 0.07821751
vt 0.37102264 0.12504518
vt 0.39257205 0.17862962
vt 0.38128173 0.19764352
vt 0.37353736 0.17304325
vt 0.39798355 0.2152754
vt 0.37157637 0.23186922
vt 0.3749879 0.15625
vt 0.35738713 0.15625
vt 0.3567099 0.13927424
vt 0.33984375 0.13846052
vt 0.33984375 0.12086653
vt 0.3227275 0.12217784
vt 0.31726992 0.10294342
vt 0.29776937 0.1138978
vt 0.2802704 0.096334815
vt 0.26200676 0.1229049
vt 0.30895758 0.12506807
vt 0.30620623 0.13897586
vt 0.28692383 0.13351393
vt 0.28427416 0.15625
vt 0.25390625 0.15625
vt 0.26288038 0.18960476
vt 0.32321104 0.13927518
vt 0.32278317 0.15625
vt 0.30520177 0.15625
vt 0.30647022 0.17303956
vt 0.2874059 0.17863107
vt 0.29861677 0.1976254
vt 0.28191626 0.21523666
vt 0.3082239 0.23180151
vt 0.3398437 0.15625
vt 0.33984375 0.17279756
vt 0.32335353 0.1724968
vt 0.3230288 0.18910396
vt 0.30942196 0.18653345
vt 0.31793302 0.2078111
vt 0.33984375 0.21030736
vt 0.33984375 0.23828125
vt 0.3565657 0.17249988
vt 0.35679573 0.18911242
vt 0.33984375 0.19013858
vt 0.36186117 0.20782708
vt 0.37048638 0.18654335
vt 0.6041332 0.15625
vt 0.5820706 0.12298214
vt 0.57421875 0.15625
vt 0.5829999 0.18956745
vt 0.6069242 0.13353443
vt 0.61785597 0.11388242
vt 0.6261916 0.13897562
vt 0.60033613 0.09629083
vt 0.6268952 0.07813954
vt 0.6074278 0.17862962
vt 0.61871827 0.19764352
vt 0.62646264 0.17304325
vt 0.60201645 0.2152754
vt 0.62842363 0.23186922
vt 0.6250121 0.15625
vt 0.6426129 0.15625
vt 0.62897736 0.12504518
vt 0.6429024 0.12217034
vt 0.6374819 0.10292649
vt 0.66015625 0.1000551
vt 0.66015625 0.0703125
vt 0.69330025 0.07821751
vt 0.6432901 0.13927424
vt 0.66015625 0.13846052
vt 0.66015625 0.12086653
vt 0.6772725 0.12217784
vt 0.68273 0.10294342
vt 0.70223063 0.1138978
vt 0.7197296 0.096334815
vt 0.73799324 0.1229049
vt 0.6910424 0.12506807
vt 0.6937938 0.13897586
vt 0.7130761 0.13351393
vt 0.71572584 0.15625
vt 0.74609375 0.15625
vt 0.7371196 0.18960476
vt 0.6767888 0.13927518
vt 0.6772168 0.15625
vt 0.69479823 0.15625
vt 0.6935298 0.17303956
vt 0.7125941 0.17863107
vt 0.70138323 0.1976254
vt 0.71808374 0.21523666
vt 0.6917761 0.23180151
vt 0.66015625 0.15625
vt 0.66015625 0.17279756
vt 0.6766464 0.1724968
vt 0.6769712 0.18910396
vt 0.69057804 0.18653345
vt 0.682067 0.2078111
vt 0.66015625 0.21030736
vt 0.66015625 0.23828125
vt 0.64343417 0.17249988
vt 0.6432043 0.18911242
vt 0.66015625 0.19013858
vt 0.6381387 0.20782708
vt 0.6295136 0.18654335
vn -0 -0.37318832 0.92775553
vn 1.1920927E-07 -0.69838846 0.7157189
vn -0.34233412 -0.65522856 0.6734113
vn 1.1920929E-07 -0.92106533 0.38940808
vn -0.35992253 -0.35097528 0.864449
vn -0.38057277 -4.9412243E-05 0.9247509
vn -0.66706777 -0.33137473 0.66724163
vn -0 -9.924173E-05 1
vn -0 0.37308928 0.92779547
vn -0.3654619 -0.8556757 0.36641073
vn -0.3886463 -0.921387 -1.0430814E-05
vn -0.67310435 -0.65505195 0.3432746
vn -0 -1 -1.9907951E-05
vn -0 -0.9210363 -0.38947678
vn -0.58274233 -0.5661757 0.582972
vn -0.35996673 0.35101795 0.86441326
vn -0.3424066 0.6552975 0.67330736
vn -0.6672403 0.33137447 0.66706926
vn -3.5762784E-07 0.69838864 0.71571875
vn -2.3841855E-07 0.9210826 0.38936704
vn -0.70710623 0 0.70710725
vn -0.9243435 4.7922138E-05 0.3815613
vn -0.8640443 -0.35096893 0.36089912
vn -0.92776763 -0.3731583 0.00010478496
vn -0.71573496 -0.69837195 0
vn -0.6731751 -0.65501595 -0.34320462
vn -0.3654504 -0.8556694 -0.3664368
vn -0.34238195 -0.6552893 -0.67332786
vn 1.1920932E-07 -0.6983589 -0.7157478
vn -0 -0.37308908 -0.92779547
vn -0.58297044 -0.56617635 -0.58274335
vn -0.6672405 -0.33137515 -0.6670687
vn -0.35996568 -0.3510182 -0.8644136
vn -0.38057065 4.9352646E-05 -0.9247518
vn 4.7683716E-07 9.918213E-05 -1
vn 4.768373E-07 0.37318808 -0.9277558
vn -0.8641897 -0.3507933 -0.3607218
vn -0.924429 4.7922127E-05 -0.38135406
vn -0.70710605 0 -0.70710754
vn -0.6672404 0.33137512 -0.6670689
vn -0.36000794 0.3510611 -0.8643786
vn -0.34238166 0.6552895 -0.67332786
vn -0 0.6983589 -0.7157478
vn -0 0.9210189 -0.38951778
vn -1 9.6321106E-05 0.00020933151
vn -0.92772907 0.37325433 0.0001050234
vn -0.8641556 0.35083485 -0.36076307
vn -0.67318726 0.6549928 -0.34322485
vn -0.58297104 0.5661761 -0.582743
vn -0.3654441 0.8556517 -0.36648428
vn -0.3886462 0.921387 -0.00010609626
vn -0 1 -0.00011599064
vn -0.8640811 0.3509246 0.36085415
vn -0.6731964 0.65500623 0.3431814
vn -0.7157349 0.69837207 -4.7743317E-05
vn -0.36546767 0.8556936 0.36636305
vn -0.5829705 0.56617546 0.5827442
vn 0.38057277 -4.9471848E-05 0.9247509
vn -0 -0.37318832 0.92775553
vn -0 -9.924173E-05 1
vn -0 0.37308928 0.92779547
vn 0.35992244 -0.35097528 0.864449
vn 0.34233427 -0.65522856 0.6734113
vn 0.6670677 -0.33137468 0.66724175
vn 1.1920927E-07 -0.69838846 0.7157189
vn 1.1920929E-07 -0.92106533 0.38940808
vn 0.35996673 0.35101795 0.86441326
vn 0.3424063 0.6552975 0.6733075
vn 0.66724026 0.33137447 0.6670693
vn -3.5762784E-07 0.69838864 0.71571875
vn -2.3841855E-07 0.9210826 0.38936704
vn 0.70710623 0 0.7071073
vn 0.9243435 4.804134E-05 0.38156137
vn 0.58274233 -0.5661757 0.582972
vn 0.6731044 -0.65505195 0.34327444
vn 0.3654619 -0.8556757 0.36641064
vn 0.3886462 -0.92138714 -1.0371209E-05
vn -0 -1 -1.9907951E-05
vn -0 -0.9210363 -0.38947678
vn 0.8640444 -0.35096872 0.3608991
vn 0.92776763 -0.37315828 0.00010478495
vn 0.71573484 -0.6983721 0
vn 0.6731751 -0.6550158 -0.34320462
vn 0.3654504 -0.8556694 -0.3664368
vn 0.34238195 -0.65528935 -0.673328
vn 1.1920932E-07 -0.6983589 -0.7157478
vn -0 -0.37308908 -0.92779547
vn 0.58297026 -0.56617635 -0.5827435
vn 0.66724044 -0.33137515 -0.6670688
vn 0.35996547 -0.35101822 -0.86441374
vn 0.38057116 4.935265E-05 -0.92475164
vn 4.7683716E-07 9.918213E-05 -1
vn 4.768373E-07 0.37318808 -0.9277558
vn 0.86418974 -0.3507932 -0.36072177
vn 0.9244291 4.7922145E-05 -0.38135403
vn 0.7071061 0 -0.7071074
vn 0.6672406 0.33137503 -0.6670686
vn 0.36000872 0.35106108 -0.8643784
vn 0.34238186 0.6552895 -0.67332786
vn -0 0.6983589 -0.7157478
vn -0 0.9210189 -0.38951778
vn 1 9.6321106E-05 0.00020933151
vn 0.92772907 0.37325433 0.00010490419
vn 0.86415565 0.35083476 -0.3607629
vn 0.67318726 0.6549928 -0.34322485
vn 0.58297116 0.5661761 -0.58274287
vn 0.36544397 0.8556518 -0.3664843
vn 0.3886462 0.921387 -0.00010603665
vn -0 1 -0.00011599064
vn 0.86408114 0.35092446 0.36085415
vn 0.6731964 0.6550062 0.34318137
vn 0.7157349 0.698372 -4.7743317E-05
vn 0.36546752 0.8556936 0.36636305
vn 0.5829703 0.56617564 0.5827442
g pm0183_00_IncSkin_0
f 3/3/3 2/2/2 1/1/1
f 4/4/4 2/2/2 3/3/3
f 5/5/5 3/3/3 1/1/1
f 5/5/5 1/1/1 6/6/6
f 5/5/5 7/7/7 3/3/3
f 5/5/5 6/6/6 7/7/7
f 1/1/1 8/8/8 6/6/6
f 6/6/6 8/8/8 9/9/9
f 10/10/10 4/4/4 3/3/3
f 10/10/10 11/11/11 4/4/4
f 10/10/10 3/3/3 12/12/12
f 10/10/10 12/12/12 11/11/11
f 11/11/11 13/13/13 4/4/4
f 14/14/14 13/13/13 11/11/11
f 7/7/7 15/15/15 3/3/3
f 3/3/3 15/15/15 12/12/12
f 12/12/12 15/15/15 7/7/7
f 16/16/16 6/6/6 9/9/9
f 16/16/16 9/9/9 17/17/17
f 16/16/16 18/18/18 6/6/6
f 16/16/16 17/17/17 18/18/18
f 9/9/9 19/19/19 17/17/17
f 17/17/17 19/19/19 20/20/20
f 6/6/6 21/21/21 7/7/7
f 18/18/18 21/21/21 6/6/6
f 7/7/7 21/21/21 22/22/22
f 22/22/22 21/21/21 18/18/18
f 23/23/23 12/12/12 7/7/7
f 23/23/23 7/7/7 22/22/22
f 23/23/23 24/24/24 12/12/12
f 23/23/23 22/22/22 24/24/24
f 24/24/24 25/25/25 12/12/12
f 26/26/26 25/25/25 24/24/24
f 12/12/12 25/25/25 11/11/11
f 11/11/11 25/25/25 26/26/26
f 27/27/27 11/11/11 26/26/26
f 27/27/27 26/26/26 28/28/28
f 27/27/27 14/14/14 11/11/11
f 27/27/27 28/28/28 14/14/14
f 28/28/28 29/29/29 14/14/14
f 30/30/30 29/29/29 28/28/28
f 26/26/26 31/31/31 28/28/28
f 28/28/28 31/31/31 32/32/32
f 32/32/32 31/31/31 26/26/26
f 33/33/33 30/30/30 28/28/28
f 33/33/33 28/28/28 32/32/32
f 33/33/33 34/34/34 30/30/30
f 33/33/33 32/32/32 34/34/34
f 34/34/34 35/35/35 30/30/30
f 36/36/36 35/35/35 34/34/34
f 37/37/37 26/26/26 24/24/24
f 37/37/37 32/32/32 26/26/26
f 37/37/37 24/24/24 38/38/38
f 37/37/37 38/38/38 32/32/32
f 32/32/32 39/39/39 34/34/34
f 38/38/38 39/39/39 32/32/32
f 34/34/34 39/39/39 40/40/40
f 40/40/40 39/39/39 38/38/38
f 41/41/41 36/36/36 34/34/34
f 41/41/41 34/34/34 40/40/40
f 41/41/41 42/42/42 36/36/36
f 41/41/41 40/40/40 42/42/42
f 42/42/42 43/43/43 36/36/36
f 44/44/44 43/43/43 42/42/42
f 24/24/24 45/45/45 38/38/38
f 38/38/38 45/45/45 46/46/46
f 22/22/22 45/45/45 24/24/24
f 46/46/46 45/45/45 22/22/22
f 47/47/47 40/40/40 38/38/38
f 47/47/47 38/38/38 46/46/46
f 47/47/47 48/48/48 40/40/40
f 47/47/47 46/46/46 48/48/48
f 40/40/40 49/49/49 42/42/42
f 48/48/48 49/49/49 40/40/40
f 42/42/42 49/49/49 48/48/48
f 50/50/50 44/44/44 42/42/42
f 50/50/50 42/42/42 48/48/48
f 50/50/50 51/51/51 44/44/44
f 50/50/50 48/48/48 51/51/51
f 51/51/51 52/52/52 44/44/44
f 20/20/20 52/52/52 51/51/51
f 53/53/53 46/46/46 22/22/22
f 53/53/53 54/54/54 46/46/46
f 53/53/53 22/22/22 18/18/18
f 53/53/53 18/18/18 54/54/54
f 46/46/46 55/55/55 48/48/48
f 48/48/48 55/55/55 51/51/51
f 54/54/54 55/55/55 46/46/46
f 51/51/51 55/55/55 54/54/54
f 56/56/56 20/20/20 51/51/51
f 56/56/56 51/51/51 54/54/54
f 56/56/56 17/17/17 20/20/20
f 56/56/56 54/54/54 17/17/17
f 17/17/17 57/57/57 18/18/18
f 54/54/54 57/57/57 17/17/17
f 18/18/18 57/57/57 54/54/54
f 60/60/60 59/59/59 58/58/58
f 60/60/60 58/58/58 61/61/61
f 59/59/59 62/62/62 58/58/58
f 63/63/63 62/62/62 59/59/59
f 58/58/58 62/62/62 64/64/64
f 64/64/64 62/62/62 63/63/63
f 65/65/65 63/63/63 59/59/59
f 65/65/65 66/66/66 63/63/63
f 58/58/58 67/67/67 61/61/61
f 61/61/61 67/67/67 68/68/68
f 69/69/69 67/67/67 58/58/58
f 68/68/68 67/67/67 69/69/69
f 70/70/70 61/61/61 68/68/68
f 70/70/70 68/68/68 71/71/71
f 72/72/72 58/58/58 64/64/64
f 72/72/72 69/69/69 58/58/58
f 72/72/72 64/64/64 73/73/73
f 72/72/72 73/73/73 69/69/69
f 74/74/74 64/64/64 63/63/63
f 74/74/74 63/63/63 75/75/75
f 74/74/74 75/75/75 64/64/64
f 66/66/66 76/76/76 63/63/63
f 63/63/63 76/76/76 75/75/75
f 77/77/77 76/76/76 66/66/66
f 75/75/75 76/76/76 77/77/77
f 78/78/78 77/77/77 66/66/66
f 78/78/78 79/79/79 77/77/77
f 64/64/64 80/80/80 73/73/73
f 75/75/75 80/80/80 64/64/64
f 81/81/81 80/80/80 75/75/75
f 73/73/73 80/80/80 81/81/81
f 82/82/82 75/75/75 77/77/77
f 82/82/82 81/81/81 75/75/75
f 82/82/82 77/77/77 83/83/83
f 82/82/82 83/83/83 81/81/81
f 79/79/79 84/84/84 77/77/77
f 77/77/77 84/84/84 83/83/83
f 85/85/85 84/84/84 79/79/79
f 83/83/83 84/84/84 85/85/85
f 86/86/86 85/85/85 79/79/79
f 86/86/86 87/87/87 85/85/85
f 88/88/88 83/83/83 85/85/85
f 88/88/88 85/85/85 89/89/89
f 88/88/88 89/89/89 83/83/83
f 87/87/87 90/90/90 85/85/85
f 85/85/85 90/90/90 89/89/89
f 91/91/91 90/90/90 87/87/87
f 89/89/89 90/90/90 91/91/91
f 92/92/92 91/91/91 87/87/87
f 92/92/92 93/93/93 91/91/91
f 83/83/83 94/94/94 81/81/81
f 89/89/89 94/94/94 83/83/83
f 81/81/81 94/94/94 95/95/95
f 95/95/95 94/94/94 89/89/89
f 96/96/96 89/89/89 91/91/91
f 96/96/96 95/95/95 89/89/89
f 96/96/96 91/91/91 97/97/97
f 96/96/96 97/97/97 95/95/95
f 93/93/93 98/98/98 91/91/91
f 91/91/91 98/98/98 97/97/97
f 99/99/99 98/98/98 93/93/93
f 97/97/97 98/98/98 99/99/99
f 100/100/100 99/99/99 93/93/93
f 100/100/100 101/101/101 99/99/99
f 102/102/102 81/81/81 95/95/95
f 102/102/102 95/95/95 103/103/103
f 102/102/102 73/73/73 81/81/81
f 102/102/102 103/103/103 73/73/73
f 97/97/97 104/104/104 95/95/95
f 95/95/95 104/104/104 103/103/103
f 105/105/105 104/104/104 97/97/97
f 103/103/103 104/104/104 105/105/105
f 106/106/106 97/97/97 99/99/99
f 106/106/106 105/105/105 97/97/97
f 106/106/106 99/99/99 105/105/105
f 101/101/101 107/107/107 99/99/99
f 99/99/99 107/107/107 105/105/105
f 108/108/108 107/107/107 101/101/101
f 105/105/105 107/107/107 108/108/108
f 109/109/109 108/108/108 101/101/101
f 109/109/109 71/71/71 108/108/108
f 103/103/103 110/110/110 73/73/73
f 111/111/111 110/110/110 103/103/103
f 73/73/73 110/110/110 69/69/69
f 69/69/69 110/110/110 111/111/111
f 112/112/112 103/103/103 105/105/105
f 112/112/112 105/105/105 108/108/108
f 112/112/112 111/111/111 103/103/103
f 112/112/112 108/108/108 111/111/111
f 71/71/71 113/113/113 108/108/108
f 108/108/108 113/113/113 111/111/111
f 68/68/68 113/113/113 71/71/71
f 111/111/111 113/113/113 68/68/68
f 114/114/114 68/68/68 69/69/69
f 114/114/114 111/111/111 68/68/68
f 114/114/114 69/69/69 111/111/111
