g pm0152_00_LFeelerSkin
v 0.09444302 0.19823682 0.050761834
v 0.102619484 0.2013327 0.046273246
v 0.103114404 0.19220804 0.038833372
v 0.0951434 0.1876126 0.04205476
v 0.090918586 0.21153124 0.050856993
v 0.10057417 0.19160913 0.027342085
v 0.092056446 0.18689 0.028671073
v 0.09949546 0.21269454 0.046372656
v 0.086286336 0.2195563 0.040692627
v 0.09650216 0.19846259 0.018663969
v 0.087423496 0.19491482 0.018506825
v 0.095629364 0.21960327 0.037644174
v 0.083198756 0.21883346 0.027309056
v 0.093584135 0.2098792 0.018712822
v 0.08389983 0.20820966 0.01860189
v 0.092883214 0.21894911 0.026203265
v 0.1082395 0.19794089 0.02683072
v 0.10992558 0.19834736 0.035061393
v 0.109699965 0.20488475 0.040349588
v 0.10520954 0.20280826 0.02067599
v 0.10734433 0.21295916 0.04043876
v 0.10324788 0.2109878 0.020668661
v 0.10470827 0.21793158 0.034187503
v 0.102628276 0.21742007 0.026053354
v 0.11261508 0.20471855 0.03190861
v 0.11364386 0.20841451 0.03384704
v 0.111334614 0.21196558 0.03457571
v 0.111357994 0.21438834 0.031025521
v 0.11455674 0.21044946 0.028755413
v 0.112974994 0.205235 0.027656943
v 0.10899559 0.21417804 0.027440958
v 0.11068949 0.21120904 0.024835384
v 0.11027606 0.20693107 0.024773857
vt 0.40877795 0.2617186
vt 0.39726186 0.2617186
vt 0.3890152 0.23984909
vt 0.3969934 0.23175257
vt 0.3969344 0.29191318
vt 0.3671875 0.23136014
vt 0.3671875 0.2197144
vt 0.388973 0.2836506
vt 0.3671875 0.30417266
vt 0.34512198 0.24003357
vt 0.33694792 0.23189515
vt 0.3671875 0.292276
vt 0.33700442 0.29176047
vt 0.3368504 0.2617186
vt 0.3248675 0.2617186
vt 0.34516883 0.28347877
vt 0.3671875 0.24344939
vt 0.38055205 0.24838561
vt 0.38534594 0.2617186
vt 0.3539679 0.24858212
vt 0.38055015 0.27490374
vt 0.34940195 0.2617186
vt 0.3671875 0.27995637
vt 0.35398328 0.2748048
vt 0.3733796 0.2557889
vt 0.37498498 0.2617186
vt 0.37345386 0.2682499
vt 0.3671875 0.26928088
vt 0.3671875 0.2617186
vt 0.3671875 0.25437507
vt 0.36144423 0.26807228
vt 0.3599763 0.2617186
vt 0.36150074 0.25589153
vn 0.8413442 -0.045848258 0.5385516
vn 0.8809118 -0.012907919 0.4731042
vn 0.90302455 -0.41260663 0.11959213
vn 0.8654106 -0.47655854 0.15477817
vn 0.68462217 0.5099844 0.52077687
vn 0.79351664 -0.4580526 -0.4006484
vn 0.744883 -0.52861667 -0.40707952
vn 0.7335598 0.5008088 0.45943514
vn 0.48921317 0.8653255 0.10900631
vn 0.60995203 -0.13255677 -0.78127277
vn 0.5484146 -0.17440002 -0.8178179
vn 0.5545706 0.8285954 0.076688245
vn 0.36728713 0.8121693 -0.4533003
vn 0.46775928 0.38159922 -0.7972348
vn 0.3931936 0.3811104 -0.8367519
vn 0.4400552 0.7808972 -0.4433406
vn 0.8800686 -0.2898124 -0.37614882
vn 0.9628766 -0.266873 0.040589858
vn 0.9477349 0.060403395 0.31328893
vn 0.7271425 -0.04096976 -0.6852629
vn 0.82468414 0.46925437 0.31574717
vn 0.6224525 0.37169108 -0.688766
vn 0.689338 0.72443926 0.0009200334
vn 0.58828294 0.69523776 -0.41299847
vn 0.99203885 -0.12059143 -0.03628689
vn 0.9839399 0.14609982 0.102553144
vn 0.88936996 0.42515463 0.16812065
vn 0.82226545 0.5614981 -0.092732824
vn 0.9392825 0.25951433 -0.22450064
vn 0.9416644 -0.07278144 -0.32858944
vn 0.7140778 0.5927265 -0.37251604
vn 0.78054297 0.34074986 -0.52406305
vn 0.8173915 0.046894804 -0.5741707
g pm0152_00_LFeelerSkin_0
f 3/3/3 2/2/2 1/1/1
f 4/4/4 3/3/3 1/1/1
f 1/1/1 2/2/2 5/5/5
f 6/6/6 3/3/3 4/4/4
f 7/7/7 6/6/6 4/4/4
f 2/2/2 8/8/8 5/5/5
f 5/5/5 8/8/8 9/9/9
f 10/10/10 6/6/6 7/7/7
f 11/11/11 10/10/10 7/7/7
f 8/8/8 12/12/12 9/9/9
f 9/9/9 12/12/12 13/13/13
f 14/14/14 10/10/10 11/11/11
f 15/15/15 14/14/14 11/11/11
f 13/13/13 16/16/16 15/15/15
f 12/12/12 16/16/16 13/13/13
f 16/16/16 14/14/14 15/15/15
f 6/6/6 17/17/17 3/3/3
f 3/3/3 18/18/18 2/2/2
f 17/17/17 18/18/18 3/3/3
f 2/2/2 19/19/19 8/8/8
f 18/18/18 19/19/19 2/2/2
f 10/10/10 20/20/20 6/6/6
f 20/20/20 17/17/17 6/6/6
f 8/8/8 21/21/21 12/12/12
f 19/19/19 21/21/21 8/8/8
f 14/14/14 22/22/22 10/10/10
f 22/22/22 20/20/20 10/10/10
f 12/12/12 23/23/23 16/16/16
f 21/21/21 23/23/23 12/12/12
f 16/16/16 24/24/24 14/14/14
f 24/24/24 22/22/22 14/14/14
f 23/23/23 24/24/24 16/16/16
f 18/18/18 17/17/17 25/25/25
f 19/19/19 18/18/18 25/25/25
f 21/21/21 19/19/19 26/26/26
f 26/26/26 19/19/19 25/25/25
f 23/23/23 21/21/21 27/27/27
f 27/27/27 21/21/21 26/26/26
f 24/24/24 23/23/23 28/28/28
f 28/28/28 23/23/23 27/27/27
f 27/27/27 26/26/26 29/29/29
f 26/26/26 25/25/25 29/29/29
f 28/28/28 27/27/27 29/29/29
f 17/17/17 30/30/30 25/25/25
f 25/25/25 30/30/30 29/29/29
f 17/17/17 20/20/20 30/30/30
f 31/31/31 24/24/24 28/28/28
f 22/22/22 24/24/24 31/31/31
f 31/31/31 28/28/28 29/29/29
f 32/32/32 22/22/22 31/31/31
f 32/32/32 31/31/31 29/29/29
f 32/32/32 29/29/29 30/30/30
f 20/20/20 22/22/22 32/32/32
f 20/20/20 33/33/33 30/30/30
f 33/33/33 32/32/32 30/30/30
f 33/33/33 20/20/20 32/32/32
