g pm0165_00_WingSkin
v 0.03151247 0.48017538 0.13068216
v 0.017785333 0.44023833 0.16889518
v 0.012459818 0.41140923 0.19647975
v 0.04924814 0.47054258 0.13989912
v 0.014999999 0.40715507 0.20055014
v 0.077726796 0.5641294 0.0503527
v 0.069761746 0.459401 0.15055977
v 0.021836111 0.40545294 0.20217869
v 0.09605966 0.44511786 0.16422628
v 0.0721208 0.4138919 0.19410427
v 0.124023005 0.42993027 0.17875843
v 0.18827921 0.50408506 0.107804924
v 0.2289288 0.4820072 0.12892982
v 0.34921327 0.5641398 0.05034303
v 0.14172058 0.52937245 0.083609246
v 0.30042383 0.5906388 0.024988031
v 0.45305496 0.65381896 -0.035464313
v 0.10725258 0.5480931 0.06569678
v 0.2399621 0.6234771 -0.006432896
v 0.40159538 0.681768 -0.062207017
v 0.5210834 0.73458 -0.112738796
v 0.18679796 0.6523522 -0.03406139
v 0.15121402 0.67167896 -0.052553706
v 0.33694288 0.7168827 -0.095805846
v 0.4716393 0.76143444 -0.13843404
v 0.56225866 0.81960994 -0.19409803
v 0.27332488 0.75143546 -0.12886706
v 0.22857873 0.77573836 -0.1521208
v 0.415316 0.7920254 -0.1677044
v 0.52648693 0.82725364 -0.20141149
v 0.5731367 0.8839768 -0.25568607
v 0.3473154 0.82895863 -0.20304315
v 0.30889624 0.849825 -0.22300903
v 0.4747838 0.8491852 -0.22239651
v 0.5472571 0.91884595 -0.28904977
v 0.42264473 0.8837068 -0.25542775
v 0.40420341 0.9053507 -0.27613738
v 0.4932698 0.9287271 -0.29850435
v 0.03151246 0.48017538 0.13068216
v 0.012459816 0.41140914 0.19647968
v 0.017785333 0.44023827 0.16889514
v 0.04924814 0.47054258 0.1398991
v 0.014999999 0.40715507 0.20055014
v 0.0777268 0.5641295 0.05035272
v 0.069761746 0.45940107 0.15055975
v 0.021836111 0.40545303 0.2021787
v 0.09605966 0.44511795 0.16422628
v 0.07212079 0.4138919 0.1941042
v 0.124023005 0.42993018 0.17875834
v 0.18827921 0.50408506 0.10780492
v 0.22892879 0.48200712 0.12892981
v 0.34921324 0.5641397 0.050342992
v 0.1417206 0.5293724 0.08360924
v 0.3004238 0.5906387 0.02498802
v 0.45305496 0.6538188 -0.035464335
v 0.1072526 0.5480931 0.06569678
v 0.23996207 0.6234771 -0.0064328765
v 0.40159532 0.681768 -0.06220701
v 0.52108335 0.7345799 -0.112738855
v 0.18679798 0.6523523 -0.034061372
v 0.15121405 0.6716791 -0.052553676
v 0.33694288 0.71688277 -0.09580582
v 0.4716393 0.76143444 -0.13843413
v 0.56225866 0.81960994 -0.19409803
v 0.27332488 0.7514355 -0.12886706
v 0.22857878 0.77573836 -0.15212083
v 0.415316 0.79202545 -0.16770446
v 0.5264869 0.8272536 -0.20141155
v 0.5731367 0.8839769 -0.25568607
v 0.3473154 0.82895875 -0.2030432
v 0.30889618 0.84982514 -0.22300905
v 0.47478384 0.84918547 -0.22239664
v 0.5472573 0.91884613 -0.28904986
v 0.42264473 0.8837069 -0.2554278
v 0.40420333 0.9053508 -0.27613735
v 0.49326986 0.92872727 -0.29850444
v -0.03151247 0.48017538 0.13068216
v -0.012459818 0.41140923 0.19647975
v -0.017785333 0.44023833 0.16889518
v -0.04924814 0.47054258 0.13989912
v -0.014999999 0.40715507 0.20055014
v -0.077726796 0.5641294 0.0503527
v -0.069761746 0.459401 0.15055977
v -0.021836111 0.40545294 0.20217869
v -0.09605966 0.44511786 0.16422628
v -0.0721208 0.4138919 0.19410427
v -0.124023005 0.42993027 0.17875843
v -0.18827921 0.50408506 0.107804924
v -0.2289288 0.4820072 0.12892982
v -0.34921327 0.5641398 0.05034303
v -0.14172058 0.52937245 0.083609246
v -0.30042383 0.5906388 0.024988031
v -0.45305496 0.65381896 -0.035464313
v -0.10725258 0.5480931 0.06569678
v -0.2399621 0.6234771 -0.006432896
v -0.40159538 0.681768 -0.062207017
v -0.5210834 0.73458 -0.112738796
v -0.18679796 0.6523522 -0.03406139
v -0.15121402 0.67167896 -0.052553706
v -0.33694288 0.7168827 -0.095805846
v -0.4716393 0.76143444 -0.13843404
v -0.56225866 0.81960994 -0.19409803
v -0.27332488 0.75143546 -0.12886706
v -0.22857873 0.77573836 -0.1521208
v -0.415316 0.7920254 -0.1677044
v -0.52648693 0.82725364 -0.20141149
v -0.5731367 0.8839768 -0.25568607
v -0.3473154 0.82895863 -0.20304315
v -0.30889624 0.849825 -0.22300903
v -0.4747838 0.8491852 -0.22239651
v -0.5472571 0.91884595 -0.28904977
v -0.42264473 0.8837068 -0.25542775
v -0.40420341 0.9053507 -0.27613738
v -0.4932698 0.9287271 -0.29850435
v -0.03151246 0.48017538 0.13068216
v -0.017785333 0.44023827 0.16889514
v -0.012459816 0.41140914 0.19647968
v -0.04924814 0.47054258 0.1398991
v -0.014999999 0.40715507 0.20055014
v -0.0777268 0.5641295 0.05035272
v -0.069761746 0.45940107 0.15055975
v -0.021836111 0.40545303 0.2021787
v -0.09605966 0.44511795 0.16422628
v -0.07212079 0.4138919 0.1941042
v -0.124023005 0.42993018 0.17875834
v -0.18827921 0.50408506 0.10780492
v -0.22892879 0.48200712 0.12892981
v -0.34921324 0.5641397 0.050342992
v -0.1417206 0.5293724 0.08360924
v -0.3004238 0.5906387 0.02498802
v -0.45305496 0.6538188 -0.035464335
v -0.1072526 0.5480931 0.06569678
v -0.23996207 0.6234771 -0.0064328765
v -0.40159532 0.681768 -0.06220701
v -0.52108335 0.7345799 -0.112738855
v -0.18679798 0.6523523 -0.034061372
v -0.15121405 0.6716791 -0.052553676
v -0.33694288 0.71688277 -0.09580582
v -0.4716393 0.76143444 -0.13843413
v -0.56225866 0.81960994 -0.19409803
v -0.27332488 0.7514355 -0.12886706
v -0.22857878 0.77573836 -0.15212083
v -0.415316 0.79202545 -0.16770446
v -0.5264869 0.8272536 -0.20141155
v -0.5731367 0.8839769 -0.25568607
v -0.3473154 0.82895875 -0.2030432
v -0.30889618 0.84982514 -0.22300905
v -0.47478384 0.84918547 -0.22239664
v -0.5472573 0.91884613 -0.28904986
v -0.42264473 0.8837069 -0.2554278
v -0.40420333 0.9053508 -0.27613735
v -0.49326986 0.92872727 -0.29850444
vt 0.08927035 0.598766
vt 0.080408335 0.6196005
vt 0.07253337 0.63354754
vt 0.08047533 0.59877485
vt 0.0703125 0.6348128
vt 0.102152824 0.55090934
vt 0.0703125 0.5987852
vt 0.067590475 0.63393205
vt 0.057211876 0.59879833
vt 0.054466248 0.6182359
vt 0.04330039 0.5988123
vt 0.047227263 0.55090934
vt 0.027038097 0.55090934
vt 0.016003847 0.48611814
vt 0.0703125 0.5509093
vt 0.0402503 0.4860943
vt 0.012604952 0.42193115
vt 0.08747387 0.5509093
vt 0.0703125 0.48606473
vt 0.038190603 0.42190653
vt 0.017732024 0.370099
vt 0.09672916 0.48603886
vt 0.11442089 0.48602134
vt 0.0703125 0.421875
vt 0.04230988 0.370099
vt 0.032787085 0.32299834
vt 0.10194731 0.4218443
vt 0.12418604 0.4218226
vt 0.0703125 0.370099
vt 0.046658635 0.32816333
vt 0.050569892 0.29210126
vt 0.10408592 0.370099
vt 0.12317228 0.370099
vt 0.0703125 0.33084285
vt 0.0703125 0.28293437
vt 0.098255515 0.3280902
vt 0.111254215 0.32296836
vt 0.09070194 0.2914598
vt 0.12051666 0.67462337
vt 0.10378158 0.6398959
vt 0.111649394 0.65384424
vt 0.11172223 0.6746233
vt 0.1015625 0.63863003
vt 0.13341463 0.7225271
vt 0.1015625 0.6746233
vt 0.09884095 0.6395101
vt 0.08846247 0.6746233
vt 0.085718274 0.6552025
vt 0.07455146 0.6746233
vt 0.0784775 0.72252715
vt 0.058288336 0.7225271
vt 0.047253728 0.7873165
vt 0.1015625 0.7225271
vt 0.07150018 0.78734165
vt 0.043854237 0.85150516
vt 0.11872947 0.72252715
vt 0.1015625 0.78737265
vt 0.069440246 0.8515304
vt 0.04898119 0.90333754
vt 0.12798023 0.78740036
vt 0.1456722 0.7874185
vt 0.1015625 0.8515625
vt 0.0735594 0.90333754
vt 0.06403625 0.95044
vt 0.13319695 0.8515935
vt 0.15543532 0.8516152
vt 0.1015625 0.9033375
vt 0.07790828 0.9452749
vt 0.08182037 0.98133725
vt 0.13533628 0.90333754
vt 0.15442276 0.90333754
vt 0.1015625 0.94259566
vt 0.1015625 0.99050224
vt 0.12950599 0.9453489
vt 0.14250493 0.9504712
vt 0.12195122 0.98197937
vt 0.08927035 0.598766
vt 0.07253337 0.63354754
vt 0.080408335 0.6196005
vt 0.08047533 0.59877485
vt 0.0703125 0.6348128
vt 0.102152824 0.55090934
vt 0.0703125 0.5987852
vt 0.067590475 0.63393205
vt 0.057211876 0.59879833
vt 0.054466248 0.6182359
vt 0.04330039 0.5988123
vt 0.047227263 0.55090934
vt 0.027038097 0.55090934
vt 0.016003847 0.48611814
vt 0.0703125 0.5509093
vt 0.0402503 0.4860943
vt 0.012604952 0.42193115
vt 0.08747387 0.5509093
vt 0.0703125 0.48606473
vt 0.038190603 0.42190653
vt 0.017732024 0.370099
vt 0.09672916 0.48603886
vt 0.11442089 0.48602134
vt 0.0703125 0.421875
vt 0.04230988 0.370099
vt 0.032787085 0.32299834
vt 0.10194731 0.4218443
vt 0.12418604 0.4218226
vt 0.0703125 0.370099
vt 0.046658635 0.32816333
vt 0.050569892 0.29210126
vt 0.10408592 0.370099
vt 0.12317228 0.370099
vt 0.0703125 0.33084285
vt 0.0703125 0.28293437
vt 0.098255515 0.3280902
vt 0.111254215 0.32296836
vt 0.09070194 0.2914598
vt 0.12051666 0.67462337
vt 0.111649394 0.65384424
vt 0.10378158 0.6398959
vt 0.11172223 0.6746233
vt 0.1015625 0.63863003
vt 0.13341463 0.7225271
vt 0.1015625 0.6746233
vt 0.09884095 0.6395101
vt 0.08846247 0.6746233
vt 0.085718274 0.6552025
vt 0.07455146 0.6746233
vt 0.0784775 0.72252715
vt 0.058288336 0.7225271
vt 0.047253728 0.7873165
vt 0.1015625 0.7225271
vt 0.07150018 0.78734165
vt 0.043854237 0.85150516
vt 0.11872947 0.72252715
vt 0.1015625 0.78737265
vt 0.069440246 0.8515304
vt 0.04898119 0.90333754
vt 0.12798023 0.78740036
vt 0.1456722 0.7874185
vt 0.1015625 0.8515625
vt 0.0735594 0.90333754
vt 0.06403625 0.95044
vt 0.13319695 0.8515935
vt 0.15543532 0.8516152
vt 0.1015625 0.9033375
vt 0.07790828 0.9452749
vt 0.08182037 0.98133725
vt 0.13533628 0.90333754
vt 0.15442276 0.90333754
vt 0.1015625 0.94259566
vt 0.1015625 0.99050224
vt 0.12950599 0.9453489
vt 0.14250493 0.9504712
vt 0.12195122 0.98197937
vn 7.152557E-07 -0.69133866 -0.7225308
vn 5.9604645E-07 -0.6913388 -0.7225307
vn 7.1525574E-07 -0.6913388 -0.7225307
vn 7.1525574E-07 -0.6913388 -0.7225307
vn 8.34465E-07 -0.69133884 -0.72253066
vn 7.152557E-07 -0.69133866 -0.7225308
vn 8.34465E-07 -0.6913388 -0.7225307
vn 1.0728836E-06 -0.69133896 -0.7225305
vn 1.0728835E-06 -0.6913389 -0.72253054
vn 1.1920929E-06 -0.691339 -0.7225305
vn 1.1920929E-06 -0.691339 -0.7225305
vn 1.0728836E-06 -0.69133884 -0.72253066
vn 1.1920929E-06 -0.6913389 -0.7225306
vn 1.0728836E-06 -0.6913388 -0.7225307
vn 8.34465E-07 -0.6913388 -0.7225307
vn 1.0728836E-06 -0.6913388 -0.7225307
vn 9.5367426E-07 -0.6913388 -0.7225307
vn 7.1525574E-07 -0.6913388 -0.7225307
vn 9.5367426E-07 -0.6913388 -0.7225307
vn 9.5367426E-07 -0.6913388 -0.7225307
vn 7.1525574E-07 -0.6913388 -0.7225307
vn 8.34465E-07 -0.6913387 -0.7225307
vn 8.3446497E-07 -0.69133866 -0.7225308
vn 9.5367426E-07 -0.6913388 -0.7225307
vn 7.1525574E-07 -0.6913388 -0.7225307
vn 5.9604645E-07 -0.6913388 -0.7225307
vn 9.5367426E-07 -0.6913388 -0.7225307
vn 9.5367426E-07 -0.6913388 -0.7225307
vn 8.34465E-07 -0.6913388 -0.7225307
vn 5.9604645E-07 -0.6913388 -0.7225307
vn 5.9604645E-07 -0.6913388 -0.7225307
vn 9.5367426E-07 -0.6913388 -0.7225307
vn 9.5367426E-07 -0.6913388 -0.7225307
vn 7.1525574E-07 -0.6913388 -0.7225307
vn 7.1525574E-07 -0.6913388 -0.7225307
vn 9.5367426E-07 -0.69133884 -0.72253066
vn 9.5367426E-07 -0.69133884 -0.72253066
vn 9.5367426E-07 -0.69133884 -0.72253066
vn -7.748605E-07 0.6913384 0.7225312
vn -8.344652E-07 0.6913384 0.7225312
vn -7.748605E-07 0.6913384 0.7225312
vn -7.748605E-07 0.6913384 0.7225312
vn -8.344651E-07 0.6913383 0.72253126
vn -7.1525585E-07 0.6913384 0.7225312
vn -7.7486044E-07 0.6913383 0.72253126
vn -7.748604E-07 0.69133824 0.7225313
vn -7.152558E-07 0.69133824 0.7225313
vn -7.1525585E-07 0.6913381 0.7225314
vn -6.556512E-07 0.6913381 0.7225314
vn -5.960465E-07 0.69133824 0.72253126
vn -5.9604645E-07 0.69133824 0.7225313
vn -4.768372E-07 0.6913383 0.72253126
vn -6.5565115E-07 0.6913383 0.72253126
vn -5.3644186E-07 0.6913383 0.72253126
vn -4.1723254E-07 0.6913383 0.72253126
vn -7.1525585E-07 0.6913384 0.7225312
vn -6.5565115E-07 0.6913383 0.72253126
vn -4.768372E-07 0.6913383 0.72253126
vn -3.5762784E-07 0.69133824 0.72253126
vn -7.1525574E-07 0.6913384 0.7225311
vn -7.748604E-07 0.6913384 0.7225311
vn -6.556511E-07 0.6913384 0.7225312
vn -4.7683713E-07 0.69133824 0.72253126
vn -3.5762784E-07 0.69133824 0.72253126
vn -7.7486027E-07 0.6913385 0.722531
vn -8.3446514E-07 0.69133854 0.722531
vn -6.556511E-07 0.6913384 0.7225312
vn -4.1723246E-07 0.69133824 0.72253126
vn -4.1723246E-07 0.69133824 0.72253126
vn -7.748605E-07 0.69133854 0.722531
vn -8.3446525E-07 0.6913386 0.72253096
vn -5.9604645E-07 0.6913384 0.7225311
vn -5.9604645E-07 0.6913384 0.7225311
vn -7.748605E-07 0.69133854 0.722531
vn -8.3446525E-07 0.6913386 0.72253096
vn -7.748605E-07 0.69133854 0.722531
vn -5.9604645E-07 -0.69133866 -0.7225308
vn -6.556511E-07 -0.6913387 -0.7225307
vn -5.3644175E-07 -0.69133866 -0.7225308
vn -6.5565104E-07 -0.69133866 -0.7225308
vn -8.3446514E-07 -0.6913388 -0.7225307
vn -7.152557E-07 -0.69133866 -0.7225308
vn -8.34465E-07 -0.6913388 -0.7225307
vn -1.0728836E-06 -0.69133884 -0.72253066
vn -1.013279E-06 -0.69133884 -0.72253066
vn -1.1324883E-06 -0.6913389 -0.72253054
vn -1.1324883E-06 -0.69133884 -0.72253066
vn -1.013279E-06 -0.6913388 -0.7225307
vn -1.0728836E-06 -0.69133884 -0.72253066
vn -1.013279E-06 -0.6913388 -0.7225307
vn -8.940697E-07 -0.6913388 -0.7225307
vn -9.5367426E-07 -0.6913388 -0.7225307
vn -8.34465E-07 -0.6913388 -0.7225307
vn -7.748603E-07 -0.69133866 -0.7225308
vn -8.940697E-07 -0.6913388 -0.7225307
vn -8.940697E-07 -0.6913388 -0.7225307
vn -7.152557E-07 -0.69133866 -0.7225308
vn -8.3446497E-07 -0.69133866 -0.7225308
vn -8.34465E-07 -0.6913387 -0.7225307
vn -8.940697E-07 -0.6913388 -0.7225307
vn -7.1525574E-07 -0.6913388 -0.7225307
vn -5.9604645E-07 -0.69133866 -0.7225308
vn -8.940697E-07 -0.6913388 -0.7225307
vn -9.5367426E-07 -0.6913388 -0.7225307
vn -8.34465E-07 -0.6913388 -0.7225307
vn -6.556511E-07 -0.6913388 -0.7225307
vn -5.9604645E-07 -0.6913388 -0.7225307
vn -9.5367426E-07 -0.6913388 -0.7225307
vn -9.5367426E-07 -0.69133884 -0.72253066
vn -7.748603E-07 -0.6913388 -0.7225307
vn -7.1525574E-07 -0.6913388 -0.7225307
vn -9.5367426E-07 -0.69133884 -0.72253066
vn -9.5367426E-07 -0.69133884 -0.72253066
vn -8.940697E-07 -0.69133884 -0.72253066
vn 9.536743E-07 0.6913384 0.7225311
vn 9.536743E-07 0.6913384 0.7225311
vn 9.536743E-07 0.6913384 0.7225311
vn 8.34465E-07 0.6913384 0.7225311
vn 9.536744E-07 0.6913383 0.72253126
vn 8.34465E-07 0.6913384 0.7225311
vn 8.344651E-07 0.6913383 0.72253126
vn 9.536743E-07 0.69133824 0.7225313
vn 8.344651E-07 0.69133824 0.7225313
vn 8.3446514E-07 0.6913381 0.7225314
vn 7.1525585E-07 0.6913381 0.7225314
vn 7.1525585E-07 0.6913383 0.72253126
vn 5.9604645E-07 0.69133824 0.7225313
vn 4.7683713E-07 0.69133824 0.72253126
vn 7.152558E-07 0.6913384 0.7225312
vn 5.960465E-07 0.6913383 0.72253126
vn 4.7683713E-07 0.69133824 0.72253126
vn 8.34465E-07 0.6913384 0.7225312
vn 7.152558E-07 0.6913384 0.7225312
vn 5.960465E-07 0.6913383 0.72253126
vn 4.7683713E-07 0.69133824 0.72253126
vn 8.34465E-07 0.6913384 0.7225312
vn 8.34465E-07 0.6913384 0.7225311
vn 7.152558E-07 0.6913384 0.7225312
vn 4.7683713E-07 0.69133824 0.72253126
vn 3.5762784E-07 0.69133824 0.72253126
vn 8.344649E-07 0.6913385 0.722531
vn 9.536744E-07 0.69133854 0.722531
vn 7.152558E-07 0.6913384 0.7225312
vn 4.7683713E-07 0.69133824 0.72253126
vn 4.7683713E-07 0.69133824 0.72253126
vn 8.3446514E-07 0.69133854 0.722531
vn 9.536745E-07 0.6913386 0.72253096
vn 5.9604645E-07 0.6913384 0.7225312
vn 5.9604645E-07 0.6913384 0.7225311
vn 8.3446514E-07 0.69133854 0.722531
vn 9.536745E-07 0.6913386 0.72253096
vn 8.3446514E-07 0.69133854 0.722531
g pm0165_00_WingSkin_0
f 3/3/3 2/2/2 1/1/1
f 4/4/4 3/3/3 1/1/1
f 3/3/3 4/4/4 5/5/5
f 4/4/4 1/1/1 6/6/6
f 4/4/4 7/7/7 5/5/5
f 5/5/5 7/7/7 8/8/8
f 7/7/7 9/9/9 8/8/8
f 8/8/8 9/9/9 10/10/10
f 9/9/9 11/11/11 10/10/10
f 9/9/9 12/12/12 11/11/11
f 12/12/12 9/9/9 7/7/7
f 12/12/12 13/13/13 11/11/11
f 14/14/14 13/13/13 12/12/12
f 15/15/15 7/7/7 4/4/4
f 15/15/15 12/12/12 7/7/7
f 16/16/16 14/14/14 12/12/12
f 16/16/16 12/12/12 15/15/15
f 17/17/17 14/14/14 16/16/16
f 18/18/18 4/4/4 6/6/6
f 18/18/18 15/15/15 4/4/4
f 19/19/19 16/16/16 15/15/15
f 19/19/19 15/15/15 18/18/18
f 20/20/20 17/17/17 16/16/16
f 20/20/20 16/16/16 19/19/19
f 21/21/21 17/17/17 20/20/20
f 22/22/22 18/18/18 6/6/6
f 22/22/22 19/19/19 18/18/18
f 23/23/23 22/22/22 6/6/6
f 24/24/24 20/20/20 19/19/19
f 24/24/24 19/19/19 22/22/22
f 25/25/25 21/21/21 20/20/20
f 25/25/25 20/20/20 24/24/24
f 26/26/26 21/21/21 25/25/25
f 27/27/27 22/22/22 23/23/23
f 27/27/27 24/24/24 22/22/22
f 28/28/28 27/27/27 23/23/23
f 29/29/29 25/25/25 24/24/24
f 29/29/29 24/24/24 27/27/27
f 30/30/30 26/26/26 25/25/25
f 30/30/30 25/25/25 29/29/29
f 31/31/31 26/26/26 30/30/30
f 32/32/32 27/27/27 28/28/28
f 32/32/32 29/29/29 27/27/27
f 33/33/33 32/32/32 28/28/28
f 34/34/34 30/30/30 29/29/29
f 31/31/31 30/30/30 34/34/34
f 34/34/34 29/29/29 32/32/32
f 35/35/35 31/31/31 34/34/34
f 36/36/36 32/32/32 33/33/33
f 36/36/36 34/34/34 32/32/32
f 35/35/35 34/34/34 36/36/36
f 37/37/37 36/36/36 33/33/33
f 38/38/38 35/35/35 36/36/36
f 38/38/38 36/36/36 37/37/37
f 41/41/41 40/40/40 39/39/39
f 40/40/40 42/42/42 39/39/39
f 42/42/42 40/40/40 43/43/43
f 39/39/39 42/42/42 44/44/44
f 45/45/45 42/42/42 43/43/43
f 45/45/45 43/43/43 46/46/46
f 47/47/47 45/45/45 46/46/46
f 47/47/47 46/46/46 48/48/48
f 49/49/49 47/47/47 48/48/48
f 50/50/50 47/47/47 49/49/49
f 47/47/47 50/50/50 45/45/45
f 51/51/51 50/50/50 49/49/49
f 51/51/51 52/52/52 50/50/50
f 45/45/45 53/53/53 42/42/42
f 50/50/50 53/53/53 45/45/45
f 52/52/52 54/54/54 50/50/50
f 50/50/50 54/54/54 53/53/53
f 52/52/52 55/55/55 54/54/54
f 42/42/42 56/56/56 44/44/44
f 53/53/53 56/56/56 42/42/42
f 54/54/54 57/57/57 53/53/53
f 53/53/53 57/57/57 56/56/56
f 55/55/55 58/58/58 54/54/54
f 54/54/54 58/58/58 57/57/57
f 55/55/55 59/59/59 58/58/58
f 56/56/56 60/60/60 44/44/44
f 57/57/57 60/60/60 56/56/56
f 60/60/60 61/61/61 44/44/44
f 58/58/58 62/62/62 57/57/57
f 57/57/57 62/62/62 60/60/60
f 59/59/59 63/63/63 58/58/58
f 58/58/58 63/63/63 62/62/62
f 59/59/59 64/64/64 63/63/63
f 60/60/60 65/65/65 61/61/61
f 62/62/62 65/65/65 60/60/60
f 65/65/65 66/66/66 61/61/61
f 63/63/63 67/67/67 62/62/62
f 62/62/62 67/67/67 65/65/65
f 64/64/64 68/68/68 63/63/63
f 63/63/63 68/68/68 67/67/67
f 64/64/64 69/69/69 68/68/68
f 65/65/65 70/70/70 66/66/66
f 67/67/67 70/70/70 65/65/65
f 70/70/70 71/71/71 66/66/66
f 68/68/68 72/72/72 67/67/67
f 68/68/68 69/69/69 72/72/72
f 67/67/67 72/72/72 70/70/70
f 69/69/69 73/73/73 72/72/72
f 70/70/70 74/74/74 71/71/71
f 72/72/72 74/74/74 70/70/70
f 72/72/72 73/73/73 74/74/74
f 74/74/74 75/75/75 71/71/71
f 73/73/73 76/76/76 74/74/74
f 74/74/74 76/76/76 75/75/75
f 79/79/79 78/78/78 77/77/77
f 78/78/78 80/80/80 77/77/77
f 80/80/80 78/78/78 81/81/81
f 77/77/77 80/80/80 82/82/82
f 83/83/83 80/80/80 81/81/81
f 83/83/83 81/81/81 84/84/84
f 85/85/85 83/83/83 84/84/84
f 85/85/85 84/84/84 86/86/86
f 87/87/87 85/85/85 86/86/86
f 88/88/88 85/85/85 87/87/87
f 85/85/85 88/88/88 83/83/83
f 89/89/89 88/88/88 87/87/87
f 89/89/89 90/90/90 88/88/88
f 83/83/83 91/91/91 80/80/80
f 88/88/88 91/91/91 83/83/83
f 90/90/90 92/92/92 88/88/88
f 88/88/88 92/92/92 91/91/91
f 90/90/90 93/93/93 92/92/92
f 80/80/80 94/94/94 82/82/82
f 91/91/91 94/94/94 80/80/80
f 92/92/92 95/95/95 91/91/91
f 91/91/91 95/95/95 94/94/94
f 93/93/93 96/96/96 92/92/92
f 92/92/92 96/96/96 95/95/95
f 93/93/93 97/97/97 96/96/96
f 94/94/94 98/98/98 82/82/82
f 95/95/95 98/98/98 94/94/94
f 98/98/98 99/99/99 82/82/82
f 96/96/96 100/100/100 95/95/95
f 95/95/95 100/100/100 98/98/98
f 97/97/97 101/101/101 96/96/96
f 96/96/96 101/101/101 100/100/100
f 97/97/97 102/102/102 101/101/101
f 98/98/98 103/103/103 99/99/99
f 100/100/100 103/103/103 98/98/98
f 103/103/103 104/104/104 99/99/99
f 101/101/101 105/105/105 100/100/100
f 100/100/100 105/105/105 103/103/103
f 102/102/102 106/106/106 101/101/101
f 101/101/101 106/106/106 105/105/105
f 102/102/102 107/107/107 106/106/106
f 103/103/103 108/108/108 104/104/104
f 105/105/105 108/108/108 103/103/103
f 108/108/108 109/109/109 104/104/104
f 106/106/106 110/110/110 105/105/105
f 106/106/106 107/107/107 110/110/110
f 105/105/105 110/110/110 108/108/108
f 107/107/107 111/111/111 110/110/110
f 108/108/108 112/112/112 109/109/109
f 110/110/110 112/112/112 108/108/108
f 110/110/110 111/111/111 112/112/112
f 112/112/112 113/113/113 109/109/109
f 111/111/111 114/114/114 112/112/112
f 112/112/112 114/114/114 113/113/113
f 117/117/117 116/116/116 115/115/115
f 118/118/118 117/117/117 115/115/115
f 117/117/117 118/118/118 119/119/119
f 118/118/118 115/115/115 120/120/120
f 118/118/118 121/121/121 119/119/119
f 119/119/119 121/121/121 122/122/122
f 121/121/121 123/123/123 122/122/122
f 122/122/122 123/123/123 124/124/124
f 123/123/123 125/125/125 124/124/124
f 123/123/123 126/126/126 125/125/125
f 126/126/126 123/123/123 121/121/121
f 126/126/126 127/127/127 125/125/125
f 128/128/128 127/127/127 126/126/126
f 129/129/129 121/121/121 118/118/118
f 129/129/129 126/126/126 121/121/121
f 130/130/130 128/128/128 126/126/126
f 130/130/130 126/126/126 129/129/129
f 131/131/131 128/128/128 130/130/130
f 132/132/132 118/118/118 120/120/120
f 132/132/132 129/129/129 118/118/118
f 133/133/133 130/130/130 129/129/129
f 133/133/133 129/129/129 132/132/132
f 134/134/134 131/131/131 130/130/130
f 134/134/134 130/130/130 133/133/133
f 135/135/135 131/131/131 134/134/134
f 136/136/136 132/132/132 120/120/120
f 136/136/136 133/133/133 132/132/132
f 137/137/137 136/136/136 120/120/120
f 138/138/138 134/134/134 133/133/133
f 138/138/138 133/133/133 136/136/136
f 139/139/139 135/135/135 134/134/134
f 139/139/139 134/134/134 138/138/138
f 140/140/140 135/135/135 139/139/139
f 141/141/141 136/136/136 137/137/137
f 141/141/141 138/138/138 136/136/136
f 142/142/142 141/141/141 137/137/137
f 143/143/143 139/139/139 138/138/138
f 143/143/143 138/138/138 141/141/141
f 144/144/144 140/140/140 139/139/139
f 144/144/144 139/139/139 143/143/143
f 145/145/145 140/140/140 144/144/144
f 146/146/146 141/141/141 142/142/142
f 146/146/146 143/143/143 141/141/141
f 147/147/147 146/146/146 142/142/142
f 148/148/148 144/144/144 143/143/143
f 145/145/145 144/144/144 148/148/148
f 148/148/148 143/143/143 146/146/146
f 149/149/149 145/145/145 148/148/148
f 150/150/150 146/146/146 147/147/147
f 150/150/150 148/148/148 146/146/146
f 149/149/149 148/148/148 150/150/150
f 151/151/151 150/150/150 147/147/147
f 152/152/152 149/149/149 150/150/150
f 152/152/152 150/150/150 151/151/151
