g pm0105_61_R_FireCore2Skin
v -0.46651027 0.7609297 0.5000599
v -0.44001704 0.6460757 0.47386324
v -0.466498 0.6460757 0.50004715
v -0.42136246 0.5464576 0.47173986
v -0.46651912 0.5464577 0.50006634
v -0.45659655 0.4428247 0.4966374
v -0.39812785 0.4421542 0.4764
v -0.37957823 0.3448119 0.4857914
v -0.4532829 0.34486315 0.49787426
v -0.36549038 0.24783798 0.516671
v -0.44533622 0.2474768 0.5035012
v -0.43969455 0.14934584 0.51394916
v -0.35146767 0.14926222 0.5598277
v -0.42204353 0.046643436 0.53390473
v -0.32994777 0.046655707 0.60411817
v -0.34906378 -0.055636734 0.61735463
v -0.42558897 -0.059311025 0.5409214
v -0.38846004 -0.11466425 0.57807285
v -0.46650565 -0.13813302 0.50005376
v -0.46651027 0.7609297 0.5000599
v -0.4926813 0.6460757 0.52640986
v -0.46649802 0.6460757 0.50004715
v -0.5113501 0.5464576 0.5285443
v -0.46651912 0.5464577 0.50006634
v -0.47640887 0.44305193 0.5035135
v -0.5346836 0.44372022 0.523794
v -0.5533335 0.3449326 0.5143176
v -0.47936425 0.34488127 0.5021562
v -0.5675086 0.24782008 0.4833481
v -0.48766306 0.24747685 0.49651927
v -0.49330497 0.14940432 0.4860712
v -0.58153147 0.14951631 0.44019195
v -0.5112957 0.046574477 0.4658789
v -0.6027748 0.046655707 0.39617267
v -0.5836319 -0.055636737 0.38287878
v -0.5100671 -0.059178405 0.45647416
v -0.5448371 -0.11466425 0.4216671
v -0.4664938 -0.13813302 0.5000657
v -0.46649873 0.7609297 0.50007135
v -0.440366 0.6460757 0.5264689
v -0.46651405 0.6460757 0.50003177
v -0.43819195 0.5464576 0.54516405
v -0.4665192 0.5464577 0.50006646
v -0.4631309 0.4428247 0.50992197
v -0.44286156 0.4421542 0.56839067
v -0.4520158 0.3448108 0.58846986
v -0.4642977 0.34486315 0.5131698
v -0.48316076 0.24783798 0.6010197
v -0.46999082 0.2474768 0.52117383
v -0.48043895 0.14934584 0.52681535
v -0.5263175 0.14926222 0.6150423
v -0.5004822 0.046643436 0.5444474
v -0.57057756 0.046655707 0.63654083
v -0.58387893 -0.055636737 0.6173984
v -0.5084905 -0.05925856 0.5420284
v -0.54455507 -0.11466425 0.57805955
v -0.46650565 -0.13813302 0.50005376
v -0.46649873 0.7609297 0.50007135
v -0.49291256 0.6460757 0.47380456
v -0.46651405 0.6460757 0.50003177
v -0.49499637 0.5464576 0.45517644
v -0.4665192 0.5464577 0.50006646
v -0.470007 0.44305193 0.4901096
v -0.49025562 0.44372022 0.43183494
v -0.48104367 0.34493366 0.41165897
v -0.46861684 0.34488147 0.48686057
v -0.44983786 0.24782008 0.39900145
v -0.4630089 0.24747685 0.4788469
v -0.45256102 0.14940432 0.4732049
v -0.4066818 0.14951631 0.38497847
v -0.4324563 0.046574477 0.45519522
v -0.3626321 0.046655707 0.3637138
v -0.3494989 -0.055636737 0.3827346
v -0.42524132 -0.059286963 0.45867923
v -0.38812843 -0.11466425 0.42170337
v -0.46650565 -0.13813302 0.50005376
vt 0.99454355 2.9075115
vt 0.99454355 2.7093198
vt 0.6526369 2.7335148
vt 0.99454355 2.5263567
vt 0.46116054 2.5486102
vt 0.28616786 2.367167
vt 0.99454355 2.3474488
vt 0.99454355 2.1986542
vt 0.16259551 2.2128096
vt 0.99454355 1.9998133
vt 0.07379556 2.02213
vt 0.036550164 1.8384672
vt 0.99454355 1.8198694
vt 0.021452546 1.6480937
vt 0.99454355 1.6452566
vt 0.99454355 1.4352051
vt 0.016011357 1.4287047
vt 0.9185411 1.2914357
vt 0.76239693 1.167715
vt 0.99399054 2.6556225
vt 0.99399054 2.4295883
vt 0.7149823 2.4521942
vt 0.99399054 2.237278
vt 0.5200608 2.262668
vt 0.33230984 2.0824094
vt 0.99399054 2.0636103
vt 0.99399054 1.9152434
vt 0.18862021 1.9289753
vt 0.99399054 1.7211653
vt 0.06383729 1.7412328
vt 0.026821852 1.564875
vt 0.99399054 1.5442747
vt 0.019072771 1.3624865
vt 0.99399054 1.3901867
vt 0.99399054 1.1431831
vt 0.15749657 1.1559333
vt 0.91798794 1.0154561
vt 0.7618438 0.90625
vt 0.9941082 3.1972136
vt 0.9941082 3.024149
vt 0.7750155 3.043524
vt 0.9941082 2.8192613
vt 0.5659076 2.8510447
vt 0.38351667 2.6721668
vt 0.9941082 2.6513171
vt 0.9941082 2.48668
vt 0.23040497 2.4994535
vt 0.9941082 2.3101606
vt 0.10302532 2.3346193
vt 0.054649472 2.147567
vt 0.9941082 2.13524
vt 0.03331411 1.9692266
vt 0.9941082 1.939883
vt 0.9941082 1.7327951
vt 0.07824814 1.744534
vt 0.91810584 1.587215
vt 0.7619617 1.4683971
vt 0.9946679 3.3940935
vt 0.9946679 3.1890442
vt 0.6376762 3.216692
vt 0.99466777 3.0074418
vt 0.4205958 3.0304546
vt 0.27206522 2.8587961
vt 0.9946679 2.844339
vt 0.99466777 2.6705544
vt 0.16008802 2.686559
vt 0.9946679 2.4908752
vt 0.09132184 2.5150888
vt 0.05778341 2.33533
vt 0.9946679 2.3181381
vt 0.03387366 2.144567
vt 0.9946679 2.128126
vt 0.9946679 1.9205148
vt 0.07234003 1.9248149
vt 0.910075 1.764228
vt 0.7625212 1.674133
vn 0.7031071 -3.5674784E-06 0.711084
vn 0.63140684 0.035778463 0.7746259
vn 0.637875 0.03269562 0.7694455
vn 0.49491277 0.06386846 0.8665923
vn 0.5071828 0.062229645 0.8595889
vn 0.33120716 0.0764709 0.9404542
vn 0.31600514 0.076975904 0.94562966
vn 0.09760001 0.14051566 0.9852561
vn 0.112015575 0.13438663 0.9845775
vn -0.19962887 0.20723708 0.9577062
vn -0.17338817 0.20445588 0.9633972
vn -0.43166554 0.18965569 0.8818705
vn -0.46446088 0.18000554 0.86710674
vn -0.59142447 0.15136561 0.7920262
vn -0.6030867 0.14990528 0.7834634
vn -0.658201 0.12767312 0.74193734
vn -0.66948456 0.10127787 0.73588943
vn -0.70685315 0.0006275369 0.7073601
vn -0.70704293 0.00037330357 0.70717055
vn -0.7095165 2.5029105E-06 -0.7046888
vn -0.63733554 0.03617033 -0.769737
vn -0.6438411 0.03306142 -0.7644446
vn -0.4988979 0.064961545 -0.8642227
vn -0.5114634 0.06325397 -0.8569738
vn -0.3299828 0.07727705 -0.9408186
vn -0.3172474 0.0775973 -0.9451628
vn -0.0984053 0.1404784 -0.98518133
vn -0.11252319 0.13444197 -0.9845121
vn 0.19935833 0.20756084 -0.95769244
vn 0.17277773 0.20475322 -0.9634438
vn 0.43167874 0.18955551 -0.88188565
vn 0.46424046 0.17983282 -0.8672606
vn 0.5897476 0.15202788 -0.79314893
vn 0.6018681 0.15073664 -0.78424066
vn 0.6575962 0.12921682 -0.7422064
vn 0.6691149 0.10244269 -0.7360643
vn 0.70731443 0.00021206391 -0.7068989
vn 0.7073761 0.0001345324 -0.7068373
vn -0.7109824 -0.00014791767 0.7032099
vn -0.77442294 0.035790022 0.6316552
vn -0.7692567 0.032697394 0.63810265
vn -0.8663935 0.06398151 0.49524623
vn -0.8593875 0.062338043 0.50751054
vn -0.94076324 0.076632716 0.33029073
vn -0.94607747 0.077148266 0.31461945
vn -0.9850723 0.14163491 0.097836524
vn -0.9844205 0.13535427 0.11223029
vn -0.9580197 0.20783305 -0.19749351
vn -0.9634978 0.20526925 -0.17186166
vn -0.88193977 0.18989274 -0.4314199
vn -0.8672072 0.18031697 -0.46415251
vn -0.7926146 0.1518472 -0.5905121
vn -0.7838783 0.15034385 -0.60243803
vn -0.74219584 0.12803444 -0.6578392
vn -0.73606414 0.10157922 -0.6692468
vn -0.706956 0.00023150767 -0.7072575
vn -0.7068876 0.00014277102 -0.7073259
vn 0.7048009 0.00015066135 -0.7094051
vn 0.76994854 0.03615653 -0.63708085
vn 0.7646418 0.033057895 -0.6436071
vn 0.86442435 0.06484638 -0.49856344
vn 0.8571783 0.06314319 -0.51113427
vn 0.9410545 0.07774058 -0.3292001
vn 0.9455494 0.07815146 -0.31595656
vn 0.9849422 0.14162454 -0.09915325
vn 0.9842812 0.13553618 -0.1132276
vn 0.95804155 0.20795433 0.19726
vn 0.9635601 0.20533898 0.17142884
vn 0.8818161 0.18931869 0.43192446
vn 0.86715984 0.1795224 0.4645487
vn 0.79223335 0.15083507 0.5912825
vn 0.783712 0.14947012 0.6028716
vn 0.7420015 0.12771028 0.65812147
vn 0.73582 0.101359315 0.6695484
vn 0.7074424 0.0022010172 0.7067675
vn 0.70678717 0.0013231776 0.707425
g pm0105_61_R_FireCore2Skin_0
f 3/3/3 2/2/2 1/1/1
f 4/4/4 2/2/2 3/3/3
f 5/5/5 4/4/4 3/3/3
f 5/5/5 6/6/6 4/4/4
f 6/6/6 7/7/7 4/4/4
f 8/8/8 7/7/7 6/6/6
f 9/9/9 8/8/8 6/6/6
f 10/10/10 8/8/8 9/9/9
f 11/11/11 10/10/10 9/9/9
f 11/11/11 12/12/12 10/10/10
f 12/12/12 13/13/13 10/10/10
f 12/12/12 14/14/14 13/13/13
f 14/14/14 15/15/15 13/13/13
f 16/16/16 15/15/15 14/14/14
f 17/17/17 16/16/16 14/14/14
f 17/17/17 18/18/18 16/16/16
f 17/17/17 19/19/19 18/18/18
f 22/22/22 21/21/21 20/20/20
f 23/23/23 21/21/21 22/22/22
f 24/24/24 23/23/23 22/22/22
f 24/24/24 25/25/25 23/23/23
f 25/25/25 26/26/26 23/23/23
f 27/27/27 26/26/26 25/25/25
f 28/28/28 27/27/27 25/25/25
f 29/29/29 27/27/27 28/28/28
f 30/30/30 29/29/29 28/28/28
f 30/30/30 31/31/31 29/29/29
f 31/31/31 32/32/32 29/29/29
f 31/31/31 33/33/33 32/32/32
f 33/33/33 34/34/34 32/32/32
f 35/35/35 34/34/34 33/33/33
f 36/36/36 35/35/35 33/33/33
f 36/36/36 37/37/37 35/35/35
f 36/36/36 38/38/38 37/37/37
f 41/41/41 40/40/40 39/39/39
f 42/42/42 40/40/40 41/41/41
f 43/43/43 42/42/42 41/41/41
f 43/43/43 44/44/44 42/42/42
f 44/44/44 45/45/45 42/42/42
f 46/46/46 45/45/45 44/44/44
f 47/47/47 46/46/46 44/44/44
f 48/48/48 46/46/46 47/47/47
f 49/49/49 48/48/48 47/47/47
f 49/49/49 50/50/50 48/48/48
f 50/50/50 51/51/51 48/48/48
f 50/50/50 52/52/52 51/51/51
f 52/52/52 53/53/53 51/51/51
f 54/54/54 53/53/53 52/52/52
f 55/55/55 54/54/54 52/52/52
f 55/55/55 56/56/56 54/54/54
f 55/55/55 57/57/57 56/56/56
f 60/60/60 59/59/59 58/58/58
f 61/61/61 59/59/59 60/60/60
f 62/62/62 61/61/61 60/60/60
f 62/62/62 63/63/63 61/61/61
f 63/63/63 64/64/64 61/61/61
f 65/65/65 64/64/64 63/63/63
f 66/66/66 65/65/65 63/63/63
f 67/67/67 65/65/65 66/66/66
f 68/68/68 67/67/67 66/66/66
f 68/68/68 69/69/69 67/67/67
f 69/69/69 70/70/70 67/67/67
f 69/69/69 71/71/71 70/70/70
f 71/71/71 72/72/72 70/70/70
f 73/73/73 72/72/72 71/71/71
f 74/74/74 73/73/73 71/71/71
f 74/74/74 75/75/75 73/73/73
f 74/74/74 76/76/76 75/75/75
