g pm0111_01_HornSkin
v -0.036617797 0.29328367 0.79044706
v -3.9168925E-18 0.30112094 0.78514946
v 7.6991014E-10 0.3101612 0.814595
v -0.029501107 0.30428225 0.8193791
v -0.06342389 0.2718719 0.8049203
v -1.6568651E-18 0.32036966 0.8492996
v -0.05109741 0.28822085 0.8324492
v -0.073235594 0.24262287 0.82469124
v -0.018837532 0.31680602 0.85254014
v -1.2686367E-18 0.32923317 0.87852126
v -0.059002213 0.26628044 0.8503034
v -0.06342389 0.21337387 0.84446216
v -0.03262755 0.307076 0.86138713
v -0.008451608 0.32766128 0.88001114
v -6.481266E-08 0.33472508 0.89736974
v -0.014638608 0.32339454 0.8840545
v -0.05109741 0.24434012 0.8681577
v -0.036617793 0.19196208 0.85893536
v -0.037675064 0.29378238 0.8734747
v -0.016903216 0.31755587 0.8895878
v -6.481266E-08 0.33472508 0.89736974
v -0.014638608 0.31171703 0.8951213
v -0.03262755 0.2804887 0.88556236
v -0.029501103 0.22827865 0.8812279
v -0.01883753 0.27075705 0.89441115
v 7.6991014E-10 0.22239977 0.88601196
v 4.599349E-18 0.18412483 0.864233
v -3.0883076E-18 0.26719502 0.89765
v -1.4616622E-18 0.30587846 0.9006545
v -0.008451608 0.3074431 0.8991719
v -6.481266E-08 0.33472508 0.89736974
v 0.036617797 0.29328367 0.79044706
v 7.6991014E-10 0.3101612 0.814595
v -3.9168925E-18 0.30112094 0.78514946
v 0.029501108 0.30428225 0.8193791
v 0.06342389 0.2718719 0.8049203
v -1.6568651E-18 0.32036966 0.8492996
v 0.05109741 0.28822085 0.8324492
v 0.073235594 0.24262287 0.82469124
v 0.018837532 0.31680602 0.85254014
v -1.2686367E-18 0.32923317 0.87852126
v 0.059002217 0.26628044 0.8503034
v 0.06342389 0.21337387 0.84446216
v 0.03262755 0.307076 0.86138713
v 0.008451608 0.32766128 0.88001114
v -6.481266E-08 0.33472508 0.89736974
v 0.014638608 0.32339454 0.8840545
v 0.014638608 0.32339454 0.8840545
v 0.037675064 0.29378238 0.8734747
v 0.016903216 0.31755587 0.8895878
v 0.05109741 0.24434012 0.8681577
v 0.036617793 0.19196208 0.85893536
v 0.03262755 0.2804887 0.88556236
v 0.029501107 0.22827865 0.8812279
v 7.6991014E-10 0.22239977 0.88601196
v 4.599349E-18 0.18412483 0.864233
v -3.0883076E-18 0.26719502 0.89765
v 0.01883753 0.27075705 0.89441115
v -1.4616622E-18 0.30587846 0.9006545
v 0.014638608 0.31171703 0.8951213
v -6.481266E-08 0.33472508 0.89736974
v 0.014638608 0.32339454 0.8840545
v 0.008451608 0.3074431 0.8991719
v -6.481266E-08 0.33472508 0.89736974
vt 0.56561196 0.6302762
vt 0.57591134 0.60606503
vt 0.5596733 0.57924545
vt 0.5514513 0.5976224
vt 0.55473167 0.652817
vt 0.53759587 0.544111
vt 0.5423207 0.61310387
vt 0.542875 0.6723628
vt 0.5326274 0.5560312
vt 0.5134033 0.512342
vt 0.5325055 0.6251637
vt 0.5295659 0.6875081
vt 0.52685416 0.5654508
vt 0.5117655 0.51662374
vt 0.50728166 0.50536454
vt 0.5097773 0.5199902
vt 0.5220858 0.6336787
vt 0.5148878 0.69690347
vt 0.5205566 0.57226944
vt 0.5075842 0.52264786
vt 0.50535536 0.5069947
vt 0.5051268 0.52429485
vt 0.5139004 0.57673764
vt 0.51114595 0.6387167
vt 0.50698483 0.57923746
vt 0.5 0.6403775
vt 0.5 0.70001006
vt 0.5 0.580039
vt 0.5 0.52583134
vt 0.50257856 0.52553785
vt 0.5011371 0.50812376
vt 0.56561196 0.6302762
vt 0.5596733 0.57924545
vt 0.57591134 0.60606503
vt 0.5514513 0.5976224
vt 0.55473167 0.652817
vt 0.53759587 0.544111
vt 0.5423207 0.61310387
vt 0.542875 0.6723628
vt 0.5326274 0.5560312
vt 0.5134033 0.512342
vt 0.5325055 0.6251637
vt 0.5295659 0.6875081
vt 0.52685416 0.5654508
vt 0.5117655 0.51662374
vt 0.50728166 0.50536454
vt 0.5097773 0.5199902
vt 0.5097773 0.5199902
vt 0.5205566 0.57226944
vt 0.5075842 0.52264786
vt 0.5220858 0.6336787
vt 0.5148878 0.69690347
vt 0.5139004 0.57673764
vt 0.51114595 0.6387167
vt 0.5 0.6403775
vt 0.5 0.70001006
vt 0.5 0.580039
vt 0.50698483 0.57923746
vt 0.5 0.52583134
vt 0.5051268 0.52429485
vt 0.50535536 0.5069947
vt 0.5097773 0.5199902
vt 0.50257856 0.52553785
vt 0.5011371 0.50812376
vn -0.43683288 0.88949794 -0.13405402
vn -0 0.9765819 -0.21514574
vn -0 0.97813976 -0.20794843
vn -0.42608416 0.89612365 -0.12415597
vn -0.7567255 0.64787203 0.0873398
vn -0 0.99144214 -0.13054731
vn -0.73616785 0.6688393 0.10349427
vn -0.8679134 0.31356907 0.38522816
vn -0.38782397 0.92050415 -0.04758864
vn -2.3919006E-07 0.99138945 0.13094652
vn -0.84140843 0.3550618 0.40738568
vn -0.7407105 -0.018324897 0.6715743
vn -0.66621447 0.72474015 0.17581242
vn -0.2784894 0.9406141 0.19413587
vn -4.5904116E-07 0.74538857 0.6666303
vn -0.47398505 0.8027043 0.36194488
vn -0.7157071 0.04433096 0.6969922
vn -0.4210735 -0.25534523 0.8703425
vn -0.75571626 0.45650733 0.4695679
vn -0.53239715 0.617876 0.5786039
vn -4.5904116E-07 0.74538857 0.6666303
vn -0.44671384 0.43948704 0.7792932
vn -0.63839656 0.19307496 0.7450986
vn -0.4059184 -0.17709684 0.89658636
vn -0.36044106 0.0064896713 0.93275934
vn 2.7315704E-07 -0.25630033 0.9665972
vn 1.3894999E-07 -0.34022662 0.9403435
vn 2.7939552E-07 -0.06005328 0.99819523
vn 1.5681584E-07 0.2696999 0.96294445
vn -0.25141641 0.31424838 0.915444
vn -4.5904116E-07 0.74538857 0.6666303
vn 0.43683273 0.88949805 -0.13405402
vn -0 0.97813976 -0.20794843
vn -0 0.9765819 -0.21514574
vn 0.42608416 0.89612365 -0.1241558
vn 0.75672543 0.6478722 0.08733953
vn -0 0.99144214 -0.13054731
vn 0.7361676 0.66883945 0.10349427
vn 0.8679135 0.31356922 0.3852279
vn 0.38782382 0.9205043 -0.047588084
vn -2.3919006E-07 0.99138945 0.13094652
vn 0.8414083 0.35506198 0.40738547
vn 0.74071085 -0.018324828 0.671574
vn 0.666214 0.72474045 0.17581293
vn 0.278489 0.94061416 0.1941361
vn -4.5904116E-07 0.74538857 0.6666303
vn 0.4739842 0.80270445 0.36194548
vn 0.4739842 0.80270445 0.36194548
vn 0.7557159 0.45650762 0.4695683
vn 0.53239655 0.6178763 0.5786042
vn 0.7157074 0.04433095 0.6969919
vn 0.42107397 -0.25534526 0.8703422
vn 0.6383967 0.19307518 0.7450984
vn 0.4059188 -0.17709668 0.89658606
vn 2.7315704E-07 -0.25630033 0.9665972
vn 1.3894999E-07 -0.34022662 0.9403435
vn 2.7939552E-07 -0.06005328 0.99819523
vn 0.36044154 0.00648981 0.93275917
vn 1.5681584E-07 0.2696999 0.96294445
vn 0.44671363 0.43948734 0.7792931
vn -4.5904116E-07 0.74538857 0.6666303
vn 0.4739842 0.80270445 0.36194548
vn 0.25141647 0.3142485 0.9154439
vn -4.5904116E-07 0.74538857 0.6666303
g pm0111_01_HornSkin_0
f 3/3/3 2/2/2 1/1/1
f 4/4/4 3/3/3 1/1/1
f 4/4/4 1/1/1 5/5/5
f 6/6/6 3/3/3 4/4/4
f 7/7/7 4/4/4 5/5/5
f 7/7/7 5/5/5 8/8/8
f 9/9/9 6/6/6 4/4/4
f 9/9/9 4/4/4 7/7/7
f 10/10/10 6/6/6 9/9/9
f 11/11/11 7/7/7 8/8/8
f 11/11/11 8/8/8 12/12/12
f 13/13/13 9/9/9 7/7/7
f 13/13/13 7/7/7 11/11/11
f 14/14/14 10/10/10 9/9/9
f 14/14/14 9/9/9 13/13/13
f 10/10/10 14/14/14 15/15/15
f 14/14/14 16/16/16 15/15/15
f 16/16/16 14/14/14 13/13/13
f 17/17/17 11/11/11 12/12/12
f 17/17/17 12/12/12 18/18/18
f 19/19/19 13/13/13 11/11/11
f 16/16/16 13/13/13 19/19/19
f 19/19/19 11/11/11 17/17/17
f 20/20/20 16/16/16 19/19/19
f 16/16/16 20/20/20 21/21/21
f 20/20/20 22/22/22 21/21/21
f 20/20/20 19/19/19 23/23/23
f 23/23/23 19/19/19 17/17/17
f 22/22/22 20/20/20 23/23/23
f 24/24/24 17/17/17 18/18/18
f 23/23/23 17/17/17 24/24/24
f 22/22/22 23/23/23 25/25/25
f 25/25/25 23/23/23 24/24/24
f 24/24/24 18/18/18 26/26/26
f 18/18/18 27/27/27 26/26/26
f 24/24/24 26/26/26 28/28/28
f 25/25/25 24/24/24 28/28/28
f 25/25/25 28/28/28 29/29/29
f 30/30/30 22/22/22 25/25/25
f 30/30/30 25/25/25 29/29/29
f 22/22/22 30/30/30 31/31/31
f 30/30/30 29/29/29 31/31/31
f 34/34/34 33/33/33 32/32/32
f 33/33/33 35/35/35 32/32/32
f 32/32/32 35/35/35 36/36/36
f 33/33/33 37/37/37 35/35/35
f 35/35/35 38/38/38 36/36/36
f 36/36/36 38/38/38 39/39/39
f 37/37/37 40/40/40 35/35/35
f 35/35/35 40/40/40 38/38/38
f 37/37/37 41/41/41 40/40/40
f 38/38/38 42/42/42 39/39/39
f 39/39/39 42/42/42 43/43/43
f 40/40/40 44/44/44 38/38/38
f 38/38/38 44/44/44 42/42/42
f 41/41/41 45/45/45 40/40/40
f 40/40/40 45/45/45 44/44/44
f 45/45/45 41/41/41 46/46/46
f 47/47/47 45/45/45 46/46/46
f 45/45/45 48/48/48 44/44/44
f 44/44/44 48/48/48 49/49/49
f 44/44/44 49/49/49 42/42/42
f 48/48/48 50/50/50 49/49/49
f 42/42/42 51/51/51 43/43/43
f 42/42/42 49/49/49 51/51/51
f 43/43/43 51/51/51 52/52/52
f 49/49/49 53/53/53 51/51/51
f 49/49/49 50/50/50 53/53/53
f 51/51/51 54/54/54 52/52/52
f 51/51/51 53/53/53 54/54/54
f 52/52/52 54/54/54 55/55/55
f 56/56/56 52/52/52 55/55/55
f 55/55/55 54/54/54 57/57/57
f 54/54/54 58/58/58 57/57/57
f 53/53/53 58/58/58 54/54/54
f 57/57/57 58/58/58 59/59/59
f 50/50/50 60/60/60 53/53/53
f 53/53/53 60/60/60 58/58/58
f 60/60/60 50/50/50 61/61/61
f 50/50/50 62/62/62 61/61/61
f 58/58/58 63/63/63 59/59/59
f 60/60/60 63/63/63 58/58/58
f 59/59/59 63/63/63 64/64/64
f 63/63/63 60/60/60 64/64/64
