g pm0118_00_HornSkin
v -0.004686582 0.17219836 0.09718798
v 8.457908E-33 0.17177717 0.098026715
v 7.821405E-33 0.153136 0.09064968
v -0.0058873557 0.15360591 0.08963058
v -0.003994546 0.1809677 0.100388296
v 8.724705E-33 0.18058181 0.10111888
v -0.008794322 0.17345214 0.094799355
v -0.010878391 0.15506035 0.08672831
v -0.0075726896 0.18209124 0.098307624
v -0.0032490306 0.18980223 0.10346629
v 8.980086E-33 0.18945713 0.10407874
v -0.01153905 0.17533325 0.09122457
v -0.014213313 0.1572521 0.082384855
v -0.009963554 0.18377252 0.09519373
v -0.0062485794 0.19077964 0.10172209
v -0.00252186 0.19873954 0.106312595
v 9.218647E-33 0.19857304 0.10684364
v -0.012502868 0.17754835 0.08700776
v -0.015384387 0.15984282 0.07726131
v -0.014213313 0.16246635 0.072137795
v -0.01080311 0.18574785 0.09152056
v -0.00825284 0.19223751 0.099111706
v -0.0048436 0.19959699 0.10501949
v -0.001794689 0.20767686 0.109158896
v 9.457206E-33 0.20768894 0.10960853
v -0.008956636 0.19394535 0.09603249
v -0.006394975 0.20062526 0.10294197
v -0.0034386208 0.20841435 0.1083169
v -0.0010675181 0.21661419 0.112005204
v 9.695766E-33 0.21680485 0.11237343
v -0.00693974 0.2020487 0.1006155
v -0.00453711 0.20901302 0.10677223
v -0.0020336413 0.2172317 0.111614294
v -0.0007039327 0.22108284 0.11342836
v 9.815046E-33 0.2213628 0.113755874
v -0.0049228445 0.21015204 0.1051985
v -0.006394975 0.20326383 0.09817516
v -0.0026792453 0.21740077 0.11060249
v -0.0013311517 0.2216404 0.113262996
v -0.0003403473 0.2255515 0.11485151
v 9.9343254E-33 0.22592077 0.115138315
v 9.8914426E-33 0.2268477 0.1146413
v -0.0006286621 0.22604905 0.11491169
v -0.002905949 0.21825542 0.10978151
v -0.001750313 0.22159465 0.112517625
v -0.0008213806 0.22578853 0.11443275
v -0.0018975012 0.22230709 0.11207302
v -0.00088905334 0.22635877 0.11436452
v -0.00453711 0.21088378 0.10339698
v -0.0026792453 0.21850376 0.1086188
v -0.001750313 0.22231372 0.1112297
v -0.0008213806 0.2261237 0.11384062
v -0.000628643 0.22666839 0.11381747
v -0.0013311375 0.22296892 0.110883154
v -0.0003403473 0.22636077 0.11342186
v 9.800807E-33 0.22679667 0.11359085
v 9.524656E-33 0.2232415 0.110390276
v -0.0007039327 0.22281845 0.110318966
v 9.248505E-33 0.21968631 0.1071897
v -0.002033632 0.21926944 0.107948855
v -0.0010675181 0.21927612 0.10721607
v 8.6962036E-33 0.21257597 0.100788556
v -0.003438621 0.21187049 0.102080226
v -0.001794689 0.21219146 0.10101029
v 8.143902E-33 0.20546561 0.0943874
v -0.0048436103 0.20447154 0.096211605
v -0.00252186 0.20510681 0.09480451
v -0.00825284 0.19564387 0.09295335
v -0.0032490306 0.19802217 0.08859873
v 7.5916E-33 0.19835526 0.087986246
v -0.0062485994 0.19707258 0.09034298
v -0.009963554 0.18772395 0.08784746
v -0.003994546 0.19056316 0.082652874
v 7.0683886E-33 0.19095461 0.081922255
v -0.0075727096 0.18941009 0.08473358
v -0.01153905 0.17977448 0.08279099
v -0.008794342 0.18169473 0.07921623
v -0.01087841 0.16476998 0.06779433
v -0.004686582 0.18303572 0.07682758
v 6.55644E-33 0.18348013 0.0759888
v -0.0058873557 0.16643232 0.06489207
v 5.511061E-33 0.16696273 0.06387291
v 5.511061E-33 0.16696273 0.06387291
v 0.004686582 0.18303572 0.07682758
v 6.55644E-33 0.18348013 0.0759888
v 0.0058873557 0.16643232 0.06489207
v 7.0683886E-33 0.19095461 0.081922255
v 0.01087841 0.16476998 0.06779433
v 0.003994546 0.19056316 0.082652874
v 7.5916E-33 0.19835526 0.087986246
v 0.008794342 0.18169473 0.07921623
v 0.014213313 0.16246635 0.072137795
v 0.0032490306 0.19802217 0.08859873
v 8.143902E-33 0.20546561 0.0943874
v 0.0075727096 0.18941009 0.08473358
v 0.01153905 0.17977448 0.08279099
v 0.00252186 0.20510681 0.09480451
v 8.6962036E-33 0.21257597 0.100788556
v 0.012502868 0.17754835 0.08700776
v 0.015384387 0.15984282 0.07726131
v 0.014213313 0.1572521 0.082384855
v 0.009963554 0.18772395 0.08784746
v 0.0062485994 0.19707258 0.09034298
v 0.001794689 0.21219146 0.10101029
v 9.248505E-33 0.21968631 0.1071897
v 0.01153905 0.17533325 0.09122457
v 0.010878391 0.15506035 0.08672831
v 0.0048436103 0.20447154 0.096211605
v 0.01080311 0.18574785 0.09152056
v 0.00825284 0.19564387 0.09295335
v 0.0010675181 0.21927612 0.10721607
v 9.524656E-33 0.2232415 0.110390276
v 0.008794322 0.17345214 0.094799355
v 0.0058873557 0.15360591 0.08963058
v 0.003438621 0.21187049 0.102080226
v 0.009963554 0.18377252 0.09519373
v 0.006394975 0.20326383 0.09817516
v 0.008956636 0.19394535 0.09603249
v 0.0007039327 0.22281845 0.110318966
v 9.800807E-33 0.22679667 0.11359085
v 0.004686582 0.17219836 0.09718798
v 7.821405E-33 0.153136 0.09064968
v 8.457908E-33 0.17177717 0.098026715
v 0.002033632 0.21926944 0.107948855
v 0.0075726896 0.18209124 0.098307624
v 0.003994546 0.1809677 0.100388296
v 8.724705E-33 0.18058181 0.10111888
v 0.0003403473 0.22636077 0.11342186
v 9.8914426E-33 0.2268477 0.1146413
v 0.00825284 0.19223751 0.099111706
v 0.0062485794 0.19077964 0.10172209
v 0.0032490306 0.18980223 0.10346629
v 8.980086E-33 0.18945713 0.10407874
v 0.0013311375 0.22296892 0.110883154
v 0.00693974 0.2020487 0.1006155
v 0.006394975 0.20062526 0.10294197
v 0.0048436 0.19959699 0.10501949
v 0.00252186 0.19873954 0.106312595
v 9.218647E-33 0.19857304 0.10684364
v 0.00453711 0.21088378 0.10339698
v 0.0049228445 0.21015204 0.1051985
v 0.0026792453 0.21850376 0.1086188
v 0.00453711 0.20901302 0.10677223
v 0.0034386208 0.20841435 0.1083169
v 0.001794689 0.20767686 0.109158896
v 9.457206E-33 0.20768894 0.10960853
v 0.002905949 0.21825542 0.10978151
v 0.001750313 0.22231372 0.1112297
v 0.0026792453 0.21740077 0.11060249
v 0.0020336413 0.2172317 0.111614294
v 0.0010675181 0.21661419 0.112005204
v 9.695766E-33 0.21680485 0.11237343
v 0.0018975012 0.22230709 0.11207302
v 0.000628643 0.22666839 0.11381747
v 0.0008213806 0.2261237 0.11384062
v 0.001750313 0.22159465 0.112517625
v 0.00088905334 0.22635877 0.11436452
v 0.0013311517 0.2216404 0.113262996
v 0.0007039327 0.22108284 0.11342836
v 9.815046E-33 0.2213628 0.113755874
v 0.0008213806 0.22578853 0.11443275
v 0.0006286621 0.22604905 0.11491169
v 0.0003403473 0.2255515 0.11485151
v 9.9343254E-33 0.22592077 0.115138315
vt 0.04438328 0.048101995
vt 0.04438328 0.043665253
vt 0.030637048 0.04136958
vt 0.030637048 0.04679883
vt 0.050820693 0.049317036
vt 0.050820746 0.045479797
vt 0.04438328 0.052586555
vt 0.030637141 0.05188682
vt 0.050820746 0.053345814
vt 0.05728744 0.05080307
vt 0.05728744 0.047587715
vt 0.04438328 0.056986164
vt 0.030637048 0.056701995
vt 0.050820746 0.05734694
vt 0.05728744 0.054311432
vt 0.061462957 0.051546767
vt 0.061570365 0.04876914
vt 0.04438328 0.061333105
vt 0.030637141 0.061333105
vt 0.030637048 0.06609932
vt 0.050820746 0.061333105
vt 0.05728744 0.057824925
vt 0.061509896 0.054929633
vt 0.06753245 0.052290466
vt 0.067860104 0.04995056
vt 0.05728732 0.061333105
vt 0.061413553 0.058071688
vt 0.06767564 0.055547833
vt 0.07603306 0.051781766
vt 0.07652454 0.048432946
vt 0.061483797 0.061337594
vt 0.06738173 0.058318447
vt 0.07624785 0.05538739
vt 0.081526875 0.052163042
vt 0.08210027 0.049180202
vt 0.067596205 0.061342083
vt 0.061414566 0.06458549
vt 0.07580698 0.058149476
vt 0.08177745 0.0557148
vt 0.08604364 0.053296473
vt 0.08669895 0.05084507
vt 0.09832759 0.061333105
vt 0.08633002 0.05649572
vt 0.07612877 0.06135157
vt 0.08126312 0.058276325
vt 0.08574221 0.058653537
vt 0.081638575 0.061354887
vt 0.08617133 0.06135552
vt 0.067384824 0.06435014
vt 0.07581162 0.06453854
vt 0.08126853 0.06441964
vt 0.0857484 0.06404612
vt 0.08633866 0.06619357
vt 0.081785016 0.066966556
vt 0.086045414 0.06937211
vt 0.08670163 0.071821995
vt 0.08210261 0.073469944
vt 0.08152842 0.07049372
vt 0.076526545 0.07420026
vt 0.07625432 0.06728276
vt 0.07603438 0.07086185
vt 0.067861445 0.07265589
vt 0.06767996 0.06709944
vt 0.06753334 0.07033018
vt 0.061570805 0.07381055
vt 0.06151131 0.06770043
vt 0.061463248 0.07105309
vt 0.05728744 0.06482084
vt 0.05728744 0.071776
vt 0.05728744 0.0749652
vt 0.05728744 0.068301424
vt 0.050820746 0.06527726
vt 0.050820746 0.07321388
vt 0.050820693 0.076984905
vt 0.050820746 0.069235794
vt 0.04438328 0.06565481
vt 0.04438328 0.07002329
vt 0.030637141 0.070947684
vt 0.04438328 0.07446475
vt 0.04438328 0.078825444
vt 0.030637141 0.07601116
vt 0.030637141 0.08135296
vt 0.9693629 0.08135295
vt 0.9556167 0.07446474
vt 0.9556167 0.078825444
vt 0.9693629 0.07601115
vt 0.9491793 0.07698491
vt 0.9693629 0.07094768
vt 0.9491793 0.073213875
vt 0.9427126 0.07496521
vt 0.9556167 0.0700233
vt 0.969363 0.066099316
vt 0.9427126 0.071776
vt 0.93842924 0.07381055
vt 0.9491793 0.0692358
vt 0.9556167 0.065654814
vt 0.93853676 0.07105312
vt 0.9321387 0.07265589
vt 0.9556167 0.06133312
vt 0.9693629 0.06133312
vt 0.969363 0.05670196
vt 0.9491793 0.06527728
vt 0.9427126 0.06830144
vt 0.93246675 0.0703302
vt 0.9234736 0.07420027
vt 0.9556167 0.056986153
vt 0.9693629 0.051886827
vt 0.9384887 0.067700446
vt 0.9491793 0.06133312
vt 0.9427126 0.064820826
vt 0.92396563 0.070861906
vt 0.9178976 0.07346997
vt 0.9556167 0.052586555
vt 0.969363 0.046798825
vt 0.93232006 0.06709945
vt 0.9491793 0.05734694
vt 0.9385855 0.06458548
vt 0.94271266 0.06133312
vt 0.9184716 0.07049379
vt 0.9132985 0.07182202
vt 0.9556167 0.04810199
vt 0.969363 0.041369617
vt 0.9556167 0.04366526
vt 0.9237457 0.067282766
vt 0.9491793 0.0533458
vt 0.9491793 0.049317032
vt 0.9491793 0.045479804
vt 0.91395456 0.06937218
vt 0.9016724 0.06133312
vt 0.9427126 0.05782491
vt 0.9427126 0.054311424
vt 0.9427126 0.050803065
vt 0.9427126 0.047587723
vt 0.91821504 0.06696653
vt 0.9385162 0.06133762
vt 0.9385865 0.058071673
vt 0.93849015 0.054929644
vt 0.9385371 0.051546782
vt 0.9384297 0.048769146
vt 0.9326153 0.06435013
vt 0.9324038 0.06134215
vt 0.92418844 0.06453854
vt 0.9326184 0.058318436
vt 0.93232435 0.055547863
vt 0.93246764 0.0522905
vt 0.93214 0.04995057
vt 0.9238713 0.061351657
vt 0.9187315 0.06441963
vt 0.9241931 0.058149457
vt 0.9237522 0.055387437
vt 0.923967 0.051781833
vt 0.9234755 0.048432946
vt 0.9183614 0.061354995
vt 0.91366136 0.06619358
vt 0.9142517 0.064046115
vt 0.9187369 0.058276325
vt 0.91382873 0.06135565
vt 0.9182225 0.055714846
vt 0.9184731 0.052163124
vt 0.9178997 0.04918021
vt 0.9142578 0.058653533
vt 0.91366994 0.056495786
vt 0.91395634 0.053296566
vt 0.91330105 0.050845057
vn -0.3749793 -0.2898101 0.8805684
vn -0 -0.32701242 0.9450201
vn -0 -0.33695766 0.9415198
vn -0.37498313 -0.29976243 0.87722856
vn -0.3748199 -0.27027875 0.88682544
vn -1.9565694E-07 -0.3072551 0.9516272
vn -0.6938203 -0.18423204 0.6961839
vn -0.69460845 -0.1939967 0.69273686
vn -0.6921668 -0.16546838 0.7025136
vn -0.37460372 -0.25207627 0.8922609
vn -3.2599377E-07 -0.28864145 0.9574372
vn -0.90846413 -0.0268129 0.41710192
vn -0.9100337 -0.036152016 0.41295463
vn -0.90521806 -0.009119887 0.42484948
vn -0.69045764 -0.14834887 0.70799774
vn -0.37443283 -0.24080884 0.89543915
vn -3.911613E-07 -0.27695766 0.9608822
vn -0.98388124 0.15739793 0.084874116
vn -0.9856908 0.14845698 0.07983899
vn -0.9093985 0.33007154 -0.25307566
vn -0.98011166 0.17437881 0.094726816
vn -0.90194035 0.006847383 0.43180645
vn -0.6893218 -0.13802251 0.71118575
vn -0.3741912 -0.23488404 0.89711225
vn -3.9124822E-07 -0.26996475 0.9628702
vn -0.9762571 0.18997116 0.10408154
vn -0.8998037 0.016354265 0.43598834
vn -0.6884473 -0.13187411 0.71319664
vn -0.37228182 -0.2163448 0.9025526
vn -9.194453E-07 -0.24752212 0.96888214
vn -0.97370535 0.19948193 0.110021524
vn -0.89860415 0.021275219 0.43824413
vn -0.68434405 -0.11045873 0.7207441
vn -0.36269557 -0.13722773 0.9217486
vn -2.401074E-06 -0.16494331 0.98630303
vn -0.97212327 0.20509608 0.11363131
vn -0.89847577 0.38231787 -0.21581087
vn -0.8941976 0.038385913 0.44602373
vn -0.66626465 -0.03150807 0.7450494
vn -0.34155086 -0.0033984869 0.93985707
vn -4.4177336E-06 0.07787565 0.9969631
vn -4.2788656E-06 0.87097216 0.49133238
vn -0.58837014 0.19570637 0.78455055
vn -0.9664211 0.22449414 0.12503055
vn -0.87187225 0.111248925 0.47693026
vn -0.8217197 0.23100045 0.5209755
vn -0.94117373 0.29475313 0.16526532
vn -0.8313793 0.48416072 0.2727579
vn -0.8972107 0.38766584 -0.21149015
vn -0.89300704 0.40315133 -0.20001854
vn -0.87103724 0.46687546 -0.15271363
vn -0.8211574 0.56611717 -0.07219274
vn -0.58744407 0.77339673 -0.23825814
vn -0.6647754 0.6224327 -0.4130994
vn -0.34067807 0.80322564 -0.48863798
vn -1.0833496E-06 0.8938633 -0.44833958
vn -2.0568201E-07 0.7591174 -0.65095377
vn -0.36140916 0.71851176 -0.59424275
vn -3.2805514E-07 0.7012873 -0.71287864
vn -0.6822492 0.56099236 -0.46885347
vn -0.37048402 0.66109246 -0.6524556
vn -0 0.68386465 -0.7296089
vn -0.68602055 0.54314154 -0.48412085
vn -0.3721304 0.6462631 -0.6662304
vn -0 0.6762232 -0.7366968
vn -0.68710625 0.5364319 -0.49002635
vn -0.3726129 0.63953465 -0.6724248
vn -0.90089226 0.37194398 -0.22372048
vn -0.373613 0.6266831 -0.6838725
vn -0 0.6628427 -0.7487587
vn -0.6890211 0.5247415 -0.49989623
vn -0.9044278 0.35573354 -0.2355079
vn -0.3749753 0.6081872 -0.699644
vn 1.3047071E-07 0.64381766 -0.76517904
vn -0.69171566 0.5073576 -0.5139238
vn -0.9077809 0.33878598 -0.24730141
vn -0.6941496 0.48999816 -0.52731216
vn -0.695247 0.48140234 -0.5337448
vn -0.3761228 0.5903047 -0.71419317
vn 1.3095362E-07 0.62563205 -0.7801183
vn -0.37652862 0.5816768 -0.7210258
vn 2.6566696E-07 0.616924 -0.78702277
vn 2.6566696E-07 0.616924 -0.78702277
vn 0.376123 0.5903046 -0.7141932
vn 1.3095362E-07 0.62563205 -0.7801183
vn 0.37652874 0.5816768 -0.7210258
vn 1.3047071E-07 0.64381766 -0.76517904
vn 0.695247 0.48140243 -0.53374475
vn 0.3749753 0.6081872 -0.6996441
vn -0 0.6628427 -0.7487587
vn 0.6941497 0.48999795 -0.5273122
vn 0.9093985 0.33007142 -0.25307563
vn 0.37361318 0.626683 -0.6838725
vn -0 0.6762232 -0.7366968
vn 0.6917157 0.5073575 -0.5139239
vn 0.9077809 0.33878595 -0.24730137
vn 0.37261304 0.63953465 -0.67242473
vn -0 0.68386465 -0.7296089
vn 0.98388124 0.15739793 0.08487412
vn 0.9856908 0.14845698 0.079839
vn 0.9100337 -0.036152016 0.41295478
vn 0.9044278 0.3557333 -0.23550797
vn 0.68902117 0.5247415 -0.49989626
vn 0.37213033 0.64626324 -0.6662302
vn -3.2805514E-07 0.7012873 -0.71287864
vn 0.90846413 -0.026812904 0.41710198
vn 0.69460833 -0.19399664 0.692737
vn 0.68710655 0.5364317 -0.49002612
vn 0.98011166 0.1743788 0.09472669
vn 0.90089226 0.3719438 -0.22372058
vn 0.37048423 0.66109276 -0.6524552
vn -2.0568201E-07 0.7591174 -0.65095377
vn 0.69382036 -0.18423204 0.69618386
vn 0.37498313 -0.29976243 0.87722856
vn 0.6860207 0.5431419 -0.48412037
vn 0.90521806 -0.009119887 0.42484945
vn 0.89847594 0.3823177 -0.21581069
vn 0.9762572 0.1899712 0.10408142
vn 0.3614091 0.7185126 -0.5942417
vn -1.0833496E-06 0.8938633 -0.44833958
vn 0.37497905 -0.28981006 0.8805684
vn -0 -0.33695766 0.9415198
vn -0 -0.32701242 0.9450201
vn 0.6822495 0.56099284 -0.46885258
vn 0.6921666 -0.16546845 0.70251375
vn 0.37481973 -0.2702788 0.88682556
vn -1.9565694E-07 -0.3072551 0.9516272
vn 0.3406776 0.803227 -0.488636
vn -4.2788656E-06 0.87097216 0.49133238
vn 0.90194035 0.0068473844 0.43180645
vn 0.69045746 -0.14834893 0.7079979
vn 0.37460327 -0.2520762 0.8922611
vn -3.2599377E-07 -0.28864145 0.9574372
vn 0.66477597 0.6224338 -0.4130969
vn 0.9737055 0.1994819 0.110021375
vn 0.8998038 0.016354267 0.43598825
vn 0.6893217 -0.13802242 0.71118593
vn 0.37443224 -0.24080889 0.8954393
vn -3.911613E-07 -0.27695766 0.9608822
vn 0.8972109 0.3876658 -0.21148963
vn 0.97212327 0.20509608 0.113631554
vn 0.8930072 0.40315184 -0.20001689
vn 0.89860404 0.021274956 0.43824428
vn 0.688447 -0.13187432 0.71319693
vn 0.3741905 -0.23488416 0.89711255
vn -3.9124822E-07 -0.26996475 0.9628702
vn 0.96642095 0.22449414 0.12503213
vn 0.8710374 0.46687624 -0.15270999
vn 0.89419705 0.038385652 0.4460249
vn 0.68434316 -0.11045889 0.7207449
vn 0.3722803 -0.21634492 0.90255314
vn -9.194453E-07 -0.24752212 0.96888214
vn 0.94117296 0.29475316 0.16526936
vn 0.587443 0.77339864 -0.2382546
vn 0.8211569 0.56611866 -0.07218714
vn 0.8718705 0.11124828 0.4769336
vn 0.83137697 0.4841611 0.2727641
vn 0.66626203 -0.031508707 0.74505186
vn 0.36269167 -0.13722807 0.92175
vn -2.401074E-06 -0.16494331 0.98630303
vn 0.8217164 0.23099965 0.52098113
vn 0.5883646 0.19570594 0.78455484
vn 0.34154394 -0.0033990024 0.9398596
vn -4.4177336E-06 0.07787565 0.9969631
g pm0118_00_HornSkin_0
f 3/3/3 2/2/2 1/1/1
f 4/4/4 3/3/3 1/1/1
f 1/1/1 2/2/2 5/5/5
f 2/2/2 6/6/6 5/5/5
f 4/4/4 1/1/1 7/7/7
f 8/8/8 4/4/4 7/7/7
f 1/1/1 5/5/5 9/9/9
f 7/7/7 1/1/1 9/9/9
f 5/5/5 6/6/6 10/10/10
f 6/6/6 11/11/11 10/10/10
f 8/8/8 7/7/7 12/12/12
f 13/13/13 8/8/8 12/12/12
f 7/7/7 9/9/9 14/14/14
f 12/12/12 7/7/7 14/14/14
f 9/9/9 5/5/5 15/15/15
f 5/5/5 10/10/10 15/15/15
f 10/10/10 11/11/11 16/16/16
f 11/11/11 17/17/17 16/16/16
f 13/13/13 12/12/12 18/18/18
f 19/19/19 13/13/13 18/18/18
f 19/19/19 18/18/18 20/20/20
f 12/12/12 14/14/14 21/21/21
f 18/18/18 12/12/12 21/21/21
f 14/14/14 9/9/9 22/22/22
f 9/9/9 15/15/15 22/22/22
f 15/15/15 10/10/10 23/23/23
f 10/10/10 16/16/16 23/23/23
f 16/16/16 17/17/17 24/24/24
f 17/17/17 25/25/25 24/24/24
f 21/21/21 14/14/14 26/26/26
f 14/14/14 22/22/22 26/26/26
f 22/22/22 15/15/15 27/27/27
f 15/15/15 23/23/23 27/27/27
f 23/23/23 16/16/16 28/28/28
f 16/16/16 24/24/24 28/28/28
f 24/24/24 25/25/25 29/29/29
f 25/25/25 30/30/30 29/29/29
f 26/26/26 22/22/22 31/31/31
f 22/22/22 27/27/27 31/31/31
f 27/27/27 23/23/23 32/32/32
f 23/23/23 28/28/28 32/32/32
f 28/28/28 24/24/24 33/33/33
f 24/24/24 29/29/29 33/33/33
f 29/29/29 30/30/30 34/34/34
f 30/30/30 35/35/35 34/34/34
f 31/31/31 27/27/27 36/36/36
f 27/27/27 32/32/32 36/36/36
f 31/31/31 37/37/37 26/26/26
f 31/31/31 36/36/36 37/37/37
f 32/32/32 28/28/28 38/38/38
f 28/28/28 33/33/33 38/38/38
f 33/33/33 29/29/29 39/39/39
f 29/29/29 34/34/34 39/39/39
f 34/34/34 35/35/35 40/40/40
f 35/35/35 41/41/41 40/40/40
f 40/40/40 41/41/41 42/42/42
f 34/34/34 40/40/40 43/43/43
f 39/39/39 34/34/34 43/43/43
f 43/43/43 40/40/40 42/42/42
f 36/36/36 32/32/32 44/44/44
f 32/32/32 38/38/38 44/44/44
f 33/33/33 39/39/39 45/45/45
f 38/38/38 33/33/33 45/45/45
f 39/39/39 43/43/43 46/46/46
f 46/46/46 43/43/43 42/42/42
f 45/45/45 39/39/39 46/46/46
f 38/38/38 45/45/45 47/47/47
f 44/44/44 38/38/38 47/47/47
f 45/45/45 46/46/46 48/48/48
f 48/48/48 46/46/46 42/42/42
f 47/47/47 45/45/45 48/48/48
f 36/36/36 44/44/44 49/49/49
f 36/36/36 49/49/49 37/37/37
f 44/44/44 47/47/47 50/50/50
f 44/44/44 50/50/50 49/49/49
f 47/47/47 48/48/48 51/51/51
f 47/47/47 51/51/51 50/50/50
f 52/52/52 48/48/48 42/42/42
f 48/48/48 52/52/52 51/51/51
f 53/53/53 52/52/52 42/42/42
f 51/51/51 52/52/52 53/53/53
f 50/50/50 51/51/51 54/54/54
f 54/54/54 51/51/51 53/53/53
f 55/55/55 53/53/53 42/42/42
f 54/54/54 53/53/53 55/55/55
f 56/56/56 55/55/55 42/42/42
f 55/55/55 56/56/56 57/57/57
f 58/58/58 55/55/55 57/57/57
f 58/58/58 54/54/54 55/55/55
f 58/58/58 57/57/57 59/59/59
f 60/60/60 50/50/50 54/54/54
f 49/49/49 50/50/50 60/60/60
f 60/60/60 54/54/54 58/58/58
f 61/61/61 58/58/58 59/59/59
f 61/61/61 60/60/60 58/58/58
f 61/61/61 59/59/59 62/62/62
f 63/63/63 49/49/49 60/60/60
f 63/63/63 60/60/60 61/61/61
f 37/37/37 49/49/49 63/63/63
f 64/64/64 61/61/61 62/62/62
f 64/64/64 63/63/63 61/61/61
f 64/64/64 62/62/62 65/65/65
f 66/66/66 37/37/37 63/63/63
f 66/66/66 63/63/63 64/64/64
f 67/67/67 64/64/64 65/65/65
f 67/67/67 66/66/66 64/64/64
f 68/68/68 37/37/37 66/66/66
f 37/37/37 68/68/68 26/26/26
f 26/26/26 68/68/68 21/21/21
f 67/67/67 65/65/65 69/69/69
f 65/65/65 70/70/70 69/69/69
f 71/71/71 66/66/66 67/67/67
f 71/71/71 68/68/68 66/66/66
f 69/69/69 71/71/71 67/67/67
f 68/68/68 72/72/72 21/21/21
f 72/72/72 68/68/68 71/71/71
f 21/21/21 72/72/72 18/18/18
f 69/69/69 70/70/70 73/73/73
f 70/70/70 74/74/74 73/73/73
f 75/75/75 71/71/71 69/69/69
f 75/75/75 72/72/72 71/71/71
f 73/73/73 75/75/75 69/69/69
f 72/72/72 76/76/76 18/18/18
f 76/76/76 72/72/72 75/75/75
f 18/18/18 76/76/76 20/20/20
f 77/77/77 76/76/76 75/75/75
f 20/20/20 76/76/76 77/77/77
f 77/77/77 75/75/75 73/73/73
f 78/78/78 20/20/20 77/77/77
f 73/73/73 74/74/74 79/79/79
f 79/79/79 77/77/77 73/73/73
f 78/78/78 77/77/77 79/79/79
f 74/74/74 80/80/80 79/79/79
f 81/81/81 78/78/78 79/79/79
f 79/79/79 80/80/80 82/82/82
f 81/81/81 79/79/79 82/82/82
f 85/85/85 84/84/84 83/83/83
f 84/84/84 86/86/86 83/83/83
f 85/85/85 87/87/87 84/84/84
f 88/88/88 86/86/86 84/84/84
f 87/87/87 89/89/89 84/84/84
f 87/87/87 90/90/90 89/89/89
f 91/91/91 88/88/88 84/84/84
f 91/91/91 84/84/84 89/89/89
f 92/92/92 88/88/88 91/91/91
f 90/90/90 93/93/93 89/89/89
f 90/90/90 94/94/94 93/93/93
f 95/95/95 91/91/91 89/89/89
f 95/95/95 89/89/89 93/93/93
f 96/96/96 92/92/92 91/91/91
f 96/96/96 91/91/91 95/95/95
f 94/94/94 97/97/97 93/93/93
f 94/94/94 98/98/98 97/97/97
f 96/96/96 99/99/99 92/92/92
f 99/99/99 100/100/100 92/92/92
f 101/101/101 100/100/100 99/99/99
f 102/102/102 96/96/96 95/95/95
f 96/96/96 102/102/102 99/99/99
f 103/103/103 95/95/95 93/93/93
f 103/103/103 93/93/93 97/97/97
f 102/102/102 95/95/95 103/103/103
f 98/98/98 104/104/104 97/97/97
f 98/98/98 105/105/105 104/104/104
f 106/106/106 101/101/101 99/99/99
f 107/107/107 101/101/101 106/106/106
f 108/108/108 103/103/103 97/97/97
f 108/108/108 97/97/97 104/104/104
f 102/102/102 109/109/109 99/99/99
f 106/106/106 99/99/99 109/109/109
f 110/110/110 102/102/102 103/103/103
f 110/110/110 103/103/103 108/108/108
f 102/102/102 110/110/110 109/109/109
f 105/105/105 111/111/111 104/104/104
f 105/105/105 112/112/112 111/111/111
f 113/113/113 107/107/107 106/106/106
f 114/114/114 107/107/107 113/113/113
f 115/115/115 108/108/108 104/104/104
f 115/115/115 104/104/104 111/111/111
f 116/116/116 106/106/106 109/109/109
f 113/113/113 106/106/106 116/116/116
f 117/117/117 110/110/110 108/108/108
f 117/117/117 108/108/108 115/115/115
f 110/110/110 118/118/118 109/109/109
f 116/116/116 109/109/109 118/118/118
f 110/110/110 117/117/117 118/118/118
f 112/112/112 119/119/119 111/111/111
f 112/112/112 120/120/120 119/119/119
f 121/121/121 114/114/114 113/113/113
f 122/122/122 114/114/114 121/121/121
f 123/123/123 122/122/122 121/121/121
f 124/124/124 115/115/115 111/111/111
f 124/124/124 111/111/111 119/119/119
f 125/125/125 113/113/113 116/116/116
f 121/121/121 113/113/113 125/125/125
f 123/123/123 121/121/121 126/126/126
f 126/126/126 121/121/121 125/125/125
f 127/127/127 123/123/123 126/126/126
f 120/120/120 128/128/128 119/119/119
f 128/128/128 120/120/120 129/129/129
f 125/125/125 116/116/116 130/130/130
f 130/130/130 116/116/116 118/118/118
f 126/126/126 125/125/125 131/131/131
f 131/131/131 125/125/125 130/130/130
f 127/127/127 126/126/126 132/132/132
f 132/132/132 126/126/126 131/131/131
f 133/133/133 127/127/127 132/132/132
f 134/134/134 119/119/119 128/128/128
f 134/134/134 124/124/124 119/119/119
f 130/130/130 118/118/118 135/135/135
f 117/117/117 135/135/135 118/118/118
f 131/131/131 130/130/130 136/136/136
f 136/136/136 130/130/130 135/135/135
f 132/132/132 131/131/131 137/137/137
f 137/137/137 131/131/131 136/136/136
f 133/133/133 132/132/132 138/138/138
f 138/138/138 132/132/132 137/137/137
f 139/139/139 133/133/133 138/138/138
f 117/117/117 140/140/140 135/135/135
f 140/140/140 117/117/117 115/115/115
f 140/140/140 115/115/115 124/124/124
f 136/136/136 135/135/135 141/141/141
f 140/140/140 141/141/141 135/135/135
f 142/142/142 140/140/140 124/124/124
f 140/140/140 142/142/142 141/141/141
f 142/142/142 124/124/124 134/134/134
f 137/137/137 136/136/136 143/143/143
f 143/143/143 136/136/136 141/141/141
f 138/138/138 137/137/137 144/144/144
f 144/144/144 137/137/137 143/143/143
f 139/139/139 138/138/138 145/145/145
f 145/145/145 138/138/138 144/144/144
f 146/146/146 139/139/139 145/145/145
f 142/142/142 147/147/147 141/141/141
f 143/143/143 141/141/141 147/147/147
f 148/148/148 142/142/142 134/134/134
f 142/142/142 148/148/148 147/147/147
f 144/144/144 143/143/143 149/149/149
f 149/149/149 143/143/143 147/147/147
f 145/145/145 144/144/144 150/150/150
f 150/150/150 144/144/144 149/149/149
f 146/146/146 145/145/145 151/151/151
f 151/151/151 145/145/145 150/150/150
f 152/152/152 146/146/146 151/151/151
f 149/149/149 147/147/147 153/153/153
f 148/148/148 153/153/153 147/147/147
f 148/148/148 134/134/134 154/154/154
f 154/154/154 134/134/134 128/128/128
f 154/154/154 128/128/128 129/129/129
f 155/155/155 148/148/148 154/154/154
f 148/148/148 155/155/155 153/153/153
f 155/155/155 154/154/154 129/129/129
f 150/150/150 149/149/149 156/156/156
f 156/156/156 149/149/149 153/153/153
f 155/155/155 157/157/157 153/153/153
f 157/157/157 155/155/155 129/129/129
f 156/156/156 153/153/153 157/157/157
f 151/151/151 150/150/150 158/158/158
f 158/158/158 150/150/150 156/156/156
f 152/152/152 151/151/151 159/159/159
f 159/159/159 151/151/151 158/158/158
f 160/160/160 152/152/152 159/159/159
f 161/161/161 156/156/156 157/157/157
f 158/158/158 156/156/156 161/161/161
f 161/161/161 157/157/157 129/129/129
f 162/162/162 158/158/158 161/161/161
f 159/159/159 158/158/158 162/162/162
f 162/162/162 161/161/161 129/129/129
f 160/160/160 159/159/159 163/163/163
f 163/163/163 159/159/159 162/162/162
f 163/163/163 162/162/162 129/129/129
f 164/164/164 160/160/160 163/163/163
f 164/164/164 163/163/163 129/129/129
