g pm0208_51_ToothSkin
v 0.102459006 0.46861163 4.511001
v 1.1306165E-14 0.46511754 4.5268006
v 1.1300451E-14 0.46828273 4.5192227
v 0.09796642 0.46539283 4.518306
v 0.099896275 0.36400306 4.537808
v 0.095928654 0.363982 4.5466003
v 1.1311878E-14 0.46195242 4.534378
v 0.09196104 0.3639609 4.5553923
v 0.09347383 0.462174 4.525611
v 1.1329522E-14 0.36392823 4.5640826
v 0.088229395 0.36401135 4.524521
v 1.1291536E-14 0.45627445 4.5086083
v 1.1302793E-14 0.3640063 4.529684
v 0.09269061 0.4565982 4.5027037
v 1.1295993E-14 0.46227857 4.5139155
v 0.09757481 0.46260488 4.506852
v 1.1300451E-14 0.46828273 4.5192227
v 0.09406284 0.36400717 4.5311646
v 0.102459006 0.46861163 4.511001
v 0.099896275 0.36400306 4.537808
v 0.47763333 0.47163412 4.2949505
v 0.4733343 0.37633774 4.3197913
v 0.47999844 0.37628767 4.326079
v 0.4722645 0.46590537 4.29118
v 0.37808096 0.46515426 4.36586
v 0.37961966 0.4707872 4.3725896
v 0.4666702 0.37638777 4.313503
v 0.28920996 0.47023794 4.435058
v 0.4668957 0.46017665 4.2874103
v 0.37654224 0.45952132 4.35913
v 0.3766134 0.3646508 4.392847
v 0.2922793 0.458967 4.4177227
v 0.29374522 0.3644445 4.445399
v 0.29074463 0.4646025 4.42639
v 0.29005894 0.36439207 4.4678974
v 0.29190207 0.3644183 4.4566483
v 0.2893776 0.3644176 4.4706073
v 0.28642514 0.47024742 4.444664
v 0.2891688 0.47035086 4.435279
v 0.28656304 0.37020862 4.477882
v 0.19588542 0.36418888 4.51194
v 0.2836815 0.47014394 4.4540496
v 0.19706413 0.36996093 4.517277
v 0.0986985 0.36401835 4.542402
v 0.28374848 0.37599963 4.4851565
v 0.19824286 0.37573302 4.5226135
v 0.19741316 0.46937406 4.497408
v 0.105625086 0.36977118 4.545498
v 0.102185756 0.4688026 4.5113344
v 0.10801279 0.46873733 4.516028
v 0.11255167 0.375524 4.5485945
v 0.113839835 0.4686721 4.5207214
v 0.1073991 0.4689736 4.502568
v 0.102185756 0.4688026 4.5113344
v 0.0986985 0.36401835 4.542402
v 0.10341563 0.3698225 4.53166
v 0.19588542 0.36418888 4.51194
v 0.112612456 0.46914458 4.493801
v 0.19466785 0.37001598 4.5025983
v 0.2893776 0.3644176 4.4706073
v 0.10813276 0.37562662 4.520918
v 0.19345029 0.37584308 4.493257
v 0.19561058 0.4698409 4.464333
v 0.2827303 0.37026304 4.462863
v 0.2891688 0.47035086 4.435279
v 0.28247353 0.4704049 4.42983
v 0.27608302 0.37610847 4.455119
v 0.2757783 0.47045892 4.4243813
v -0.102459006 0.46861163 4.511001
v 1.1300451E-14 0.46828273 4.5192227
v 1.1306165E-14 0.46511754 4.5268006
v -0.09796642 0.46539283 4.518306
v -0.095928654 0.363982 4.5466003
v -0.099896275 0.36400306 4.537808
v -0.09196104 0.3639609 4.5553923
v -0.09347383 0.462174 4.525611
v 1.1311878E-14 0.46195242 4.534378
v 1.1329522E-14 0.36392823 4.5640826
v -0.088229395 0.36401135 4.524521
v 1.1302793E-14 0.3640063 4.529684
v 1.1291536E-14 0.45627445 4.5086083
v -0.09269061 0.4565982 4.5027037
v -0.09406284 0.36400717 4.5311646
v 1.1295993E-14 0.46227857 4.5139155
v -0.09757481 0.46260488 4.506852
v -0.102459006 0.46861163 4.511001
v -0.099896275 0.36400306 4.537808
v 1.1300451E-14 0.46828273 4.5192227
v -0.28247353 0.4704049 4.42983
v -0.2891688 0.47035086 4.435279
v -0.2893776 0.3644176 4.4706073
v -0.2827303 0.37026304 4.462863
v -0.19588542 0.36418888 4.51194
v -0.27608302 0.37610847 4.455119
v -0.2757783 0.47045892 4.4243813
v -0.19561058 0.4698409 4.464333
v -0.19345029 0.37584308 4.493257
v -0.112612456 0.46914458 4.493801
v -0.19466785 0.37001598 4.5025983
v -0.0986985 0.36401835 4.542402
v -0.10813276 0.37562662 4.520918
v -0.10341563 0.3698225 4.53166
v -0.102185756 0.4688026 4.5113344
v -0.1073991 0.4689736 4.502568
v -0.47916266 0.37596145 4.3371797
v -0.47999844 0.37628767 4.326079
v -0.47763333 0.47163412 4.2949505
v -0.47605494 0.46832854 4.305897
v -0.37961966 0.4707872 4.3725896
v -0.47447658 0.46502295 4.3168435
v -0.47832686 0.3756352 4.34828
v -0.3986825 0.36403853 4.414775
v -0.3817424 0.46744 4.3807926
v -0.28920996 0.47023794 4.435058
v -0.3838651 0.46409288 4.388996
v -0.30033034 0.36438185 4.4790406
v -0.29475173 0.46702638 4.4405622
v -0.29005894 0.36439207 4.4678974
v -0.29519463 0.36438698 4.4734693
v -0.3002935 0.46381482 4.4460654
v -0.47763333 0.47163412 4.2949505
v -0.47999844 0.37628767 4.326079
v -0.4733343 0.37633774 4.3197913
v -0.4722645 0.46590537 4.29118
v -0.37808096 0.46515426 4.36586
v -0.37961966 0.4707872 4.3725896
v -0.4668957 0.46017665 4.2874103
v -0.4666702 0.37638777 4.313503
v -0.37654224 0.45952132 4.35913
v -0.3766134 0.3646508 4.392847
v -0.2922793 0.458967 4.4177227
v -0.29374522 0.3644445 4.445399
v -0.29074463 0.4646025 4.42639
v -0.28920996 0.47023794 4.435058
v -0.29190207 0.3644183 4.4566483
v -0.29005894 0.36439207 4.4678974
v -0.2893776 0.3644176 4.4706073
v -0.2891688 0.47035086 4.435279
v -0.28642514 0.47024742 4.444664
v -0.28656304 0.37020862 4.477882
v -0.19588542 0.36418888 4.51194
v -0.28374848 0.37599963 4.4851565
v -0.2836815 0.47014394 4.4540496
v -0.19824286 0.37573302 4.5226135
v -0.19741316 0.46937406 4.497408
v -0.19706413 0.36996093 4.517277
v -0.0986985 0.36401835 4.542402
v -0.11255167 0.375524 4.5485945
v -0.113839835 0.4686721 4.5207214
v -0.105625086 0.36977118 4.545498
v -0.102185756 0.4688026 4.5113344
v -0.10801279 0.46873733 4.516028
v 0.47605494 0.46832854 4.305897
v 0.47763333 0.47163412 4.2949505
v 0.47999844 0.37628767 4.326079
v 0.3817424 0.46744 4.3807926
v 0.37961966 0.4707872 4.3725896
v 0.47916266 0.37596145 4.3371797
v 0.28920996 0.47023794 4.435058
v 0.47447658 0.46502295 4.3168435
v 0.47832686 0.3756352 4.34828
v 0.3986825 0.36403853 4.414775
v 0.3838651 0.46409288 4.388996
v 0.30033034 0.36438185 4.4790406
v 0.29475173 0.46702638 4.4405622
v 0.29005894 0.36439207 4.4678974
v 0.29519463 0.36438698 4.4734693
v 0.3002935 0.46381482 4.4460654
vt 0.98045784 0.19471623
vt 0.9999 0.19409144
vt 0.9999 0.19623835
vt 0.98271406 0.19313554
vt 0.9799406 0.17963025
vt 0.9830501 0.17999566
vt 0.9999 0.19194454
vt 0.9861597 0.18036105
vt 0.9849703 0.19155486
vt 0.9999 0.18035772
vt 0.8674912 0.07909563
vt 0.8521922 0.06815456
vt 0.8674919 0.068272814
vt 0.8519963 0.07916525
vt 0.8494842 0.067853704
vt 0.84930587 0.08080088
vt 0.8467761 0.06755285
vt 0.86742187 0.08153834
vt 0.8466154 0.08243652
vt 0.8673526 0.08398105
vt 0.81419086 0.48885715
vt 0.8143499 0.4966248
vt 0.8116427 0.4966248
vt 0.8161948 0.4901548
vt 0.82851076 0.4901548
vt 0.82848054 0.48885715
vt 0.8170571 0.4966248
vt 0.8425624 0.48885715
vt 0.8181986 0.49145243
vt 0.828541 0.49145243
vt 0.82859087 0.4966248
vt 0.83825535 0.49145243
vt 0.8381063 0.4966248
vt 0.84040886 0.4901548
vt 0.8443172 0.4966248
vt 0.84121174 0.4966248
vt 0.72577375 0.48885715
vt 0.7237752 0.4966248
vt 0.72173446 0.4966248
vt 0.72659534 0.4901548
vt 0.73731875 0.48885715
vt 0.72879004 0.4966248
vt 0.73729575 0.4901548
vt 0.75011885 0.48885715
vt 0.72993517 0.49145243
vt 0.7372728 0.49145243
vt 0.7364033 0.4966248
vt 0.74841166 0.4901548
vt 0.75080675 0.4966248
vt 0.7483719 0.4966248
vt 0.7437303 0.49145243
vt 0.74318147 0.4966248
vt 0.79206806 0.48885715
vt 0.79460865 0.48885715
vt 0.79323727 0.4966248
vt 0.79125917 0.49482167
vt 0.7804223 0.4966248
vt 0.7895275 0.48885715
vt 0.78021467 0.49482167
vt 0.7667558 0.4966248
vt 0.78928113 0.49301854
vt 0.780007 0.49301854
vt 0.78007525 0.48885715
vt 0.7687286 0.49482167
vt 0.7653383 0.48885715
vt 0.76792735 0.48885715
vt 0.77070147 0.49301854
vt 0.7705164 0.48885715
vt 0.9804577 0.19471636
vt 0.9999 0.19623835
vt 0.9999 0.19409144
vt 0.982714 0.19313562
vt 0.9830501 0.17999566
vt 0.9799406 0.17963025
vt 0.9861597 0.18036105
vt 0.9849703 0.19155486
vt 0.9999 0.19194454
vt 0.9999 0.18035772
vt 0.8674912 0.07909563
vt 0.8674919 0.068272814
vt 0.8521922 0.06815456
vt 0.8519962 0.07916528
vt 0.86742187 0.08153834
vt 0.8494842 0.067853704
vt 0.84930575 0.0808009
vt 0.8466154 0.08243652
vt 0.8673526 0.08398105
vt 0.8467761 0.06755285
vt 0.76792735 0.48885715
vt 0.7653383 0.48885715
vt 0.7667558 0.4966248
vt 0.7687286 0.49482167
vt 0.7804222 0.4966248
vt 0.7707014 0.49301854
vt 0.7705164 0.48885715
vt 0.7800753 0.48885715
vt 0.780007 0.49301854
vt 0.78952736 0.48885715
vt 0.7802146 0.49482167
vt 0.79323727 0.4966248
vt 0.789281 0.49301854
vt 0.79125917 0.49482167
vt 0.79460865 0.48885715
vt 0.792068 0.48885715
vt 0.6813803 0.48885715
vt 0.67904633 0.48885715
vt 0.6794976 0.4966248
vt 0.6810588 0.4949637
vt 0.6940641 0.4966248
vt 0.68564475 0.49330264
vt 0.6864663 0.48885715
vt 0.69472104 0.48885715
vt 0.6942228 0.49482167
vt 0.7069883 0.4966248
vt 0.6944757 0.49301854
vt 0.70387393 0.48885715
vt 0.7057668 0.49482167
vt 0.71031547 0.48885715
vt 0.7086071 0.48885715
vt 0.70210695 0.49301854
vt 0.81419086 0.48885715
vt 0.8116427 0.4966248
vt 0.8143499 0.4966248
vt 0.8161948 0.4901548
vt 0.82851076 0.4901548
vt 0.82848054 0.48885715
vt 0.8181987 0.49145243
vt 0.81705713 0.4966248
vt 0.8285409 0.49145243
vt 0.82859087 0.4966248
vt 0.8382553 0.49145243
vt 0.8381063 0.4966248
vt 0.8404088 0.4901548
vt 0.8425624 0.48885715
vt 0.84121174 0.4966248
vt 0.8443172 0.4966248
vt 0.72577375 0.48885715
vt 0.72173446 0.4966248
vt 0.7237752 0.4966248
vt 0.7265953 0.4901548
vt 0.73731875 0.48885715
vt 0.7299351 0.49145243
vt 0.72879004 0.4966248
vt 0.7372727 0.49145243
vt 0.7364033 0.4966248
vt 0.73729575 0.4901548
vt 0.75011885 0.48885715
vt 0.7437303 0.49145243
vt 0.7431815 0.4966248
vt 0.74841166 0.4901548
vt 0.75080675 0.4966248
vt 0.74837196 0.4966248
vt 0.6810588 0.4949637
vt 0.6794976 0.4966248
vt 0.67904633 0.48885715
vt 0.6942228 0.49482167
vt 0.6940641 0.4966248
vt 0.6813803 0.48885715
vt 0.7069883 0.4966248
vt 0.68564475 0.49330264
vt 0.68646634 0.48885715
vt 0.69472104 0.48885715
vt 0.6944757 0.49301854
vt 0.70387393 0.48885715
vt 0.7057668 0.49482167
vt 0.7103154 0.48885715
vt 0.708607 0.48885715
vt 0.70210695 0.49301854
vn 0.70731175 0.6064256 -0.3632603
vn -0.14570759 0.9098671 0.388473
vn -0.13900405 0.9182014 -0.37092322
vn 0.56345546 0.620325 0.5456325
vn 0.9907925 0.1261447 -0.049169764
vn 0.8268578 0.24585189 0.5058289
vn -3.0070575E-07 0.37345573 0.927648
vn 0.19346413 0.30154565 0.9336176
vn 0.20337516 0.37551656 0.9042267
vn -2.3847898E-07 0.297961 0.9545781
vn 0.07123306 -0.19899729 -0.97740775
vn 2.437392E-07 -0.11780716 -0.99303645
vn 2.3874276E-07 -0.2144285 -0.9767397
vn 0.07377716 -0.11082197 -0.991098
vn 0.0025631993 0.58257943 -0.81276965
vn 0.45328164 0.27238062 -0.8487312
vn -0.13900405 0.9182014 -0.37092322
vn 0.71957994 -0.060594723 -0.69176084
vn 0.70731175 0.6064256 -0.3632603
vn 0.9907925 0.1261447 -0.049169764
vn 0.8001224 0.49021512 -0.34567797
vn 0.4535197 -0.28523704 -0.8443695
vn 0.8591608 -0.16772117 -0.48343807
vn -0.15356135 0.18815534 -0.97006005
vn -0.47799695 0.6231185 -0.6190656
vn -0.3818412 0.8249023 -0.41681352
vn -0.46436608 -0.14463398 -0.87375355
vn -0.8963658 0.41897976 -0.1448594
vn -0.46127945 -0.019404072 -0.88704264
vn -0.5743963 -0.024298888 -0.8182166
vn -0.5589918 -0.17298886 -0.8109273
vn -0.6371301 -0.009227521 -0.770701
vn -0.6486017 -0.12514819 -0.75076884
vn -0.85420525 0.26130646 -0.44950226
vn -0.9334176 0.17622371 0.31253284
vn -0.9835224 -0.006673936 -0.18066338
vn 0.7138929 -0.6906701 -0.11546402
vn 0.94846964 0.068042345 0.30947632
vn 0.93312985 -0.15642844 -0.3237263
vn 0.7858035 -0.29327258 0.5445219
vn 0.061519846 -0.9953418 0.07423021
vn 0.5527327 0.22726029 0.80177265
vn 0.27072367 -0.6348618 0.72364295
vn -0.7077191 -0.67628324 0.20438816
vn 0.536028 0.14726706 0.8312559
vn 0.3709298 0.17130198 0.9127249
vn 0.36968443 0.27450845 0.8876815
vn -0.23937057 -0.24359423 0.93987423
vn -0.9992138 -0.0048100795 0.03935224
vn -0.5517817 0.21745674 0.80513936
vn 0.21892774 0.19712833 0.95562077
vn 0.19777435 0.26611066 0.94343543
vn -0.85664415 -0.14408715 -0.49537838
vn -0.9992138 -0.0048100795 0.03935224
vn -0.7077191 -0.67628324 0.20438816
vn -0.60362345 -0.55574495 -0.57165223
vn 0.061519846 -0.9953418 0.07423021
vn -0.2650876 -0.04528434 -0.9631604
vn -0.1687156 -0.8394219 -0.5166292
vn 0.7138929 -0.6906701 -0.11546402
vn -0.28343415 -0.18996392 -0.93998873
vn -0.13000785 -0.21537273 -0.9678391
vn -0.14177899 -0.031691797 -0.9893909
vn 0.2607435 -0.65924805 -0.70526934
vn 0.93312985 -0.15642844 -0.3237263
vn 0.6061207 -0.28082904 -0.74414563
vn 0.10395212 -0.20329702 -0.9735832
vn 0.1015603 -0.077020444 -0.9918434
vn -0.79856527 0.5143506 -0.31262913
vn -0.13900405 0.9182014 -0.37092322
vn -0.14570759 0.9098671 0.388473
vn -0.78222585 0.47210225 0.4065
vn -0.825878 0.24459295 0.5080352
vn -0.9909113 0.123020425 -0.05441249
vn -0.17142089 0.3028029 0.93751013
vn -0.19261056 0.37635037 0.9062348
vn -3.0070575E-07 0.37345573 0.927648
vn -2.3847898E-07 0.297961 0.9545781
vn -0.041669127 -0.1993308 -0.97904587
vn 2.3874276E-07 -0.2144285 -0.9767397
vn 2.437392E-07 -0.11780716 -0.99303645
vn -0.051771384 -0.11097556 -0.99247384
vn -0.69960684 -0.062350206 -0.7118025
vn 0.0025631993 0.58257943 -0.81276965
vn -0.43798518 0.2747066 -0.85598207
vn -0.79856527 0.5143506 -0.31262913
vn -0.9909113 0.123020425 -0.05441249
vn -0.13900405 0.9182014 -0.37092322
vn 0.55153376 -0.16476 -0.81771916
vn -0.24790205 -0.26346874 -0.9322707
vn 0.425227 -0.5952393 -0.6818154
vn 0.4252293 -0.5952459 -0.68180805
vn 0.34654826 -0.84352565 0.41032767
vn 0.5646335 -0.24889849 -0.7869172
vn 0.55152154 -0.16474879 -0.8177296
vn 0.4464172 -0.257323 -0.8570278
vn 0.37598085 -0.40833166 -0.8318075
vn 0.35837945 -0.39669043 -0.8451041
vn 0.38122994 -0.76599014 -0.5176125
vn 0.73952484 -0.65202075 0.16724776
vn 0.23520628 -0.50301915 -0.83165485
vn 0.34801513 -0.6712327 -0.6544708
vn 0.993626 -0.0800486 0.07937084
vn 0.70600337 -0.40301973 -0.5823524
vn -0.9952192 0.07466686 0.06295708
vn -0.97055763 0.062429607 -0.23263788
vn -0.6180107 0.6002003 -0.50776213
vn -0.81728816 0.5432514 0.19214089
vn -0.4050066 0.88383275 0.23411372
vn -0.64062715 0.3829923 0.6655177
vn -0.63854504 0.29552305 0.7105817
vn -0.5583714 0.29045302 0.7770832
vn -0.40501288 0.88383126 0.2341086
vn 0.72035253 0.67603886 -0.15512484
vn -0.53164095 0.37837893 0.75775146
vn -0.41110057 0.32279098 0.8525271
vn 0.23221137 0.7416327 0.629332
vn 0.9901168 -0.04633129 0.13237116
vn 0.6346871 0.28803447 0.7170833
vn -0.39755505 0.38520795 0.8328054
vn -0.6180107 0.6002003 -0.50776213
vn -0.97055763 0.062429607 -0.23263788
vn -0.53988624 -0.059817 -0.8396099
vn -0.053307664 0.4680824 -0.88207555
vn 0.3047644 0.56827873 -0.7643153
vn -0.4050066 0.88383275 0.23411372
vn 0.55464065 -0.10075358 -0.82596755
vn 0.55770344 -0.20319693 -0.8047843
vn 0.5226894 -0.18080182 -0.83313054
vn 0.49620324 -0.29615456 -0.8161341
vn 0.42333484 -0.27456412 -0.8633668
vn 0.42880666 -0.35653627 -0.83006436
vn 0.58320093 0.036988318 -0.81148535
vn 0.72035253 0.67603886 -0.15512484
vn 0.7330938 -0.31482792 -0.60287386
vn 0.9901168 -0.04633129 0.13237116
vn 0.425227 -0.5952393 -0.6818154
vn -0.24790205 -0.26346874 -0.9322707
vn -0.81565493 0.2552152 0.51920354
vn -0.62792575 -0.13583398 0.7663278
vn 0.34654826 -0.84352565 0.41032767
vn -0.3391971 0.24189818 0.9090823
vn -0.31828508 0.33730274 0.88595796
vn -0.12509277 0.27950913 0.95195925
vn -0.23147924 0.3109044 0.921822
vn -0.26169077 -0.6365076 0.72551775
vn 0.73952484 -0.65202075 0.16724776
vn -0.000826517 0.23209994 0.9726916
vn -0.02926305 0.28740034 0.9573634
vn 0.25005722 -0.2429189 0.937263
vn 0.993626 -0.0800486 0.07937084
vn 0.5759729 0.21314959 0.789191
vn 0.81714857 0.56415457 -0.11831229
vn 0.8001224 0.49021512 -0.34567797
vn 0.8591608 -0.16772117 -0.48343807
vn 0.13721016 0.95752126 0.25362673
vn -0.3818412 0.8249023 -0.41681352
vn 0.99975103 -0.0065453416 -0.021330206
vn -0.8963658 0.41897976 -0.1448594
vn 0.64217716 0.3823462 0.6643944
vn 0.6439384 0.29379275 0.70641994
vn 0.55923873 0.29024827 0.77653587
vn 0.54207206 0.37541386 0.7518127
vn 0.44782674 0.31660506 0.83618927
vn -0.38994142 0.71281 0.58296454
vn -0.9334176 0.17622371 0.31253284
vn -0.5955066 0.29943192 0.7454612
vn 0.43035343 0.37894517 0.81926584
g pm0208_51_ToothSkin_0
f 3/3/3 2/2/2 1/1/1
f 2/2/2 4/4/4 1/1/1
f 5/5/5 1/1/1 4/4/4
f 6/6/6 5/5/5 4/4/4
f 2/2/2 7/7/7 4/4/4
f 6/6/6 4/4/4 8/8/8
f 7/7/7 9/9/9 4/4/4
f 4/4/4 9/9/9 8/8/8
f 9/9/9 7/7/7 10/10/10
f 8/8/8 9/9/9 10/10/10
f 13/13/13 12/12/12 11/11/11
f 12/12/12 14/14/14 11/11/11
f 12/12/12 15/15/15 14/14/14
f 11/11/11 14/14/14 16/16/16
f 15/15/15 16/16/16 14/14/14
f 15/15/15 17/17/17 16/16/16
f 18/18/18 11/11/11 16/16/16
f 17/17/17 19/19/19 16/16/16
f 18/18/18 16/16/16 19/19/19
f 20/20/20 18/18/18 19/19/19
f 23/23/23 22/22/22 21/21/21
f 22/22/22 24/24/24 21/21/21
f 24/24/24 25/25/25 21/21/21
f 25/25/25 26/26/26 21/21/21
f 22/22/22 27/27/27 24/24/24
f 28/28/28 26/26/26 25/25/25
f 27/27/27 29/29/29 24/24/24
f 24/24/24 29/29/29 25/25/25
f 30/30/30 29/29/29 27/27/27
f 29/29/29 30/30/30 25/25/25
f 31/31/31 30/30/30 27/27/27
f 32/32/32 30/30/30 31/31/31
f 25/25/25 30/30/30 32/32/32
f 33/33/33 32/32/32 31/31/31
f 34/34/34 28/28/28 25/25/25
f 34/34/34 25/25/25 32/32/32
f 34/34/34 32/32/32 33/33/33
f 35/35/35 28/28/28 34/34/34
f 36/36/36 34/34/34 33/33/33
f 36/36/36 35/35/35 34/34/34
f 39/39/39 38/38/38 37/37/37
f 38/38/38 40/40/40 37/37/37
f 37/37/37 40/40/40 41/41/41
f 38/38/38 42/42/42 40/40/40
f 40/40/40 43/43/43 41/41/41
f 41/41/41 43/43/43 44/44/44
f 42/42/42 45/45/45 40/40/40
f 40/40/40 45/45/45 43/43/43
f 46/46/46 45/45/45 42/42/42
f 45/45/45 46/46/46 43/43/43
f 47/47/47 46/46/46 42/42/42
f 43/43/43 48/48/48 44/44/44
f 43/43/43 46/46/46 48/48/48
f 44/44/44 48/48/48 49/49/49
f 48/48/48 50/50/50 49/49/49
f 51/51/51 46/46/46 47/47/47
f 46/46/46 51/51/51 48/48/48
f 48/48/48 51/51/51 50/50/50
f 52/52/52 51/51/51 47/47/47
f 51/51/51 52/52/52 50/50/50
f 55/55/55 54/54/54 53/53/53
f 56/56/56 55/55/55 53/53/53
f 57/57/57 55/55/55 56/56/56
f 56/56/56 53/53/53 58/58/58
f 59/59/59 57/57/57 56/56/56
f 60/60/60 57/57/57 59/59/59
f 61/61/61 56/56/56 58/58/58
f 59/59/59 56/56/56 61/61/61
f 62/62/62 61/61/61 58/58/58
f 62/62/62 59/59/59 61/61/61
f 63/63/63 62/62/62 58/58/58
f 64/64/64 60/60/60 59/59/59
f 64/64/64 59/59/59 62/62/62
f 65/65/65 60/60/60 64/64/64
f 66/66/66 65/65/65 64/64/64
f 67/67/67 62/62/62 63/63/63
f 67/67/67 64/64/64 62/62/62
f 66/66/66 64/64/64 67/67/67
f 68/68/68 67/67/67 63/63/63
f 68/68/68 66/66/66 67/67/67
f 71/71/71 70/70/70 69/69/69
f 72/72/72 71/71/71 69/69/69
f 72/72/72 69/69/69 73/73/73
f 69/69/69 74/74/74 73/73/73
f 72/72/72 73/73/73 75/75/75
f 72/72/72 76/76/76 71/71/71
f 76/76/76 72/72/72 75/75/75
f 76/76/76 77/77/77 71/71/71
f 76/76/76 75/75/75 78/78/78
f 77/77/77 76/76/76 78/78/78
f 81/81/81 80/80/80 79/79/79
f 82/82/82 81/81/81 79/79/79
f 82/82/82 79/79/79 83/83/83
f 84/84/84 81/81/81 82/82/82
f 85/85/85 82/82/82 83/83/83
f 85/85/85 84/84/84 82/82/82
f 85/85/85 83/83/83 86/86/86
f 85/85/85 86/86/86 84/84/84
f 83/83/83 87/87/87 86/86/86
f 86/86/86 88/88/88 84/84/84
f 91/91/91 90/90/90 89/89/89
f 92/92/92 91/91/91 89/89/89
f 93/93/93 91/91/91 92/92/92
f 92/92/92 89/89/89 94/94/94
f 89/89/89 95/95/95 94/94/94
f 94/94/94 95/95/95 96/96/96
f 97/97/97 94/94/94 96/96/96
f 92/92/92 94/94/94 97/97/97
f 97/97/97 96/96/96 98/98/98
f 99/99/99 93/93/93 92/92/92
f 99/99/99 92/92/92 97/97/97
f 100/100/100 93/93/93 99/99/99
f 101/101/101 97/97/97 98/98/98
f 99/99/99 97/97/97 101/101/101
f 102/102/102 100/100/100 99/99/99
f 102/102/102 99/99/99 101/101/101
f 102/102/102 101/101/101 98/98/98
f 103/103/103 100/100/100 102/102/102
f 104/104/104 102/102/102 98/98/98
f 104/104/104 103/103/103 102/102/102
f 107/107/107 106/106/106 105/105/105
f 108/108/108 107/107/107 105/105/105
f 109/109/109 107/107/107 108/108/108
f 108/108/108 105/105/105 110/110/110
f 105/105/105 111/111/111 110/110/110
f 110/110/110 111/111/111 112/112/112
f 113/113/113 109/109/109 108/108/108
f 113/113/113 108/108/108 110/110/110
f 109/109/109 113/113/113 114/114/114
f 115/115/115 110/110/110 112/112/112
f 115/115/115 113/113/113 110/110/110
f 115/115/115 112/112/112 116/116/116
f 113/113/113 117/117/117 114/114/114
f 113/113/113 115/115/115 117/117/117
f 114/114/114 117/117/117 118/118/118
f 117/117/117 119/119/119 118/118/118
f 120/120/120 115/115/115 116/116/116
f 120/120/120 116/116/116 119/119/119
f 117/117/117 120/120/120 119/119/119
f 115/115/115 120/120/120 117/117/117
f 123/123/123 122/122/122 121/121/121
f 124/124/124 123/123/123 121/121/121
f 125/125/125 124/124/124 121/121/121
f 126/126/126 125/125/125 121/121/121
f 124/124/124 127/127/127 123/123/123
f 127/127/127 128/128/128 123/123/123
f 129/129/129 127/127/127 124/124/124
f 127/127/127 129/129/129 128/128/128
f 125/125/125 129/129/129 124/124/124
f 129/129/129 130/130/130 128/128/128
f 129/129/129 131/131/131 130/130/130
f 129/129/129 125/125/125 131/131/131
f 131/131/131 132/132/132 130/130/130
f 125/125/125 126/126/126 133/133/133
f 125/125/125 133/133/133 131/131/131
f 131/131/131 133/133/133 132/132/132
f 126/126/126 134/134/134 133/133/133
f 133/133/133 135/135/135 132/132/132
f 133/133/133 134/134/134 135/135/135
f 134/134/134 136/136/136 135/135/135
f 139/139/139 138/138/138 137/137/137
f 140/140/140 139/139/139 137/137/137
f 140/140/140 137/137/137 141/141/141
f 140/140/140 142/142/142 139/139/139
f 142/142/142 143/143/143 139/139/139
f 142/142/142 144/144/144 143/143/143
f 144/144/144 142/142/142 140/140/140
f 144/144/144 145/145/145 143/143/143
f 146/146/146 140/140/140 141/141/141
f 146/146/146 144/144/144 140/140/140
f 146/146/146 141/141/141 147/147/147
f 144/144/144 148/148/148 145/145/145
f 148/148/148 144/144/144 146/146/146
f 148/148/148 149/149/149 145/145/145
f 150/150/150 146/146/146 147/147/147
f 150/150/150 148/148/148 146/146/146
f 149/149/149 148/148/148 150/150/150
f 150/150/150 147/147/147 151/151/151
f 152/152/152 149/149/149 150/150/150
f 152/152/152 150/150/150 151/151/151
f 155/155/155 154/154/154 153/153/153
f 153/153/153 154/154/154 156/156/156
f 154/154/154 157/157/157 156/156/156
f 158/158/158 155/155/155 153/153/153
f 156/156/156 157/157/157 159/159/159
f 158/158/158 153/153/153 160/160/160
f 153/153/153 156/156/156 160/160/160
f 161/161/161 158/158/158 160/160/160
f 161/161/161 160/160/160 162/162/162
f 160/160/160 163/163/163 162/162/162
f 156/156/156 163/163/163 160/160/160
f 162/162/162 163/163/163 164/164/164
f 165/165/165 156/156/156 159/159/159
f 165/165/165 159/159/159 166/166/166
f 167/167/167 165/165/165 166/166/166
f 167/167/167 164/164/164 165/165/165
f 163/163/163 168/168/168 164/164/164
f 168/168/168 163/163/163 156/156/156
f 164/164/164 168/168/168 165/165/165
f 165/165/165 168/168/168 156/156/156
