g pm0257_00_FireCoreASkin
v -0.67474943 1.3852185 0.05191595
v -0.65972954 1.3404858 0.05607422
v -0.69969636 1.420321 0.022089982
v -0.65757763 1.3847123 0.07217869
v -0.68177015 1.4265376 0.05745648
v -0.6674541 1.4130288 0.07602884
v -0.61428016 1.3463409 0.12929
v -0.6262171 1.3710684 0.123666115
v -0.6746267 1.4299005 0.072572246
v -0.64716446 1.4146197 0.1100935
v -0.5878586 1.3662182 0.19162604
v -0.58535075 1.4033917 0.12807429
v -0.64480627 1.4370788 0.08327286
v -0.5820868 1.4450226 0.1224929
v -0.44905233 1.434116 0.2127869
v -0.4878919 1.4509196 0.18097866
v -0.59870565 1.4582602 0.10691692
v -0.5138128 1.4864308 0.15354037
v -0.32206678 1.5196539 0.2663309
v -0.5379991 1.5060072 0.077213876
v -0.6157328 1.4877539 0.0550551
v -0.5455664 1.5478773 0.07036624
v -0.47056445 1.5786914 0.09093558
v -0.4928502 1.5732642 0.06664616
v -0.5795268 1.5344898 0.04293064
v -0.54810685 1.5642787 0.035214327
v -0.41279247 1.6254575 0.06874218
v -0.53172624 1.5273508 -0.008439196
v -0.5963139 1.5116869 -0.01304116
v -0.5175466 1.5510381 -0.056177717
v -0.43911573 1.5814546 -0.0682169
v -0.46628478 1.5582194 -0.07613402
v -0.5488637 1.5309991 -0.06233347
v -0.5092953 1.546065 -0.09496415
v -0.3317544 1.6082262 -0.15249804
v -0.57999337 1.4434544 -0.10831769
v -0.6561358 1.4503195 -0.0730107
v -0.63293403 1.4069382 -0.131775
v -0.5555468 1.3541028 -0.22503345
v -0.6260296 1.365399 -0.12627529
v -0.66859907 1.404229 -0.07615762
v -0.6632098 1.3837569 -0.08670433
v -0.61951625 1.3319404 -0.14915617
v -0.6774521 1.3655996 -0.067231946
v -0.69134635 1.4048797 -0.046138205
v -0.6814612 1.3401276 -0.058690872
v -0.6907205 1.38018 -0.046966102
v -0.6999801 1.4528891 0.043260224
v -0.67474943 1.3852185 0.05191595
v -0.69969636 1.420321 0.022089982
v -0.68177015 1.4265376 0.05745648
v -0.6674541 1.4130288 0.07602884
v -0.6746267 1.4299005 0.072572246
v -0.64716446 1.4146197 0.1100935
v -0.64480627 1.4370788 0.08327286
v -0.5820868 1.4450226 0.1224929
v -0.59870565 1.4582602 0.10691692
v -0.5138128 1.4864308 0.15354037
v -0.6157328 1.4877539 0.0550551
v -0.69998014 1.4808477 0.022285925
v -0.5455664 1.5478773 0.07036624
v -0.5795268 1.5344898 0.04293064
v -0.6999801 1.4888946 -0.0039946553
v -0.54810685 1.5642787 0.035214327
v -0.5963139 1.5116869 -0.01304116
v -0.69998014 1.4808477 -0.032386016
v -0.5175466 1.5510381 -0.056177717
v -0.5488637 1.5309991 -0.06233347
v -0.5092953 1.546065 -0.09496415
v -0.6561358 1.4503195 -0.0730107
v -0.6999801 1.4531626 -0.053015064
v -0.63293403 1.4069382 -0.131775
v -0.66859907 1.404229 -0.07615762
v -0.69971424 1.4202878 -0.035058558
v -0.6632098 1.3837569 -0.08670433
v -0.69134635 1.4048797 -0.046138205
v -0.6907205 1.38018 -0.046966102
v 0.67474943 1.3852185 0.05191595
v 0.69969636 1.420321 0.022089982
v 0.65972954 1.3404858 0.05607422
v 0.65757763 1.3847123 0.07217869
v 0.68177015 1.4265376 0.05745648
v 0.6674541 1.4130288 0.07602884
v 0.61428016 1.3463409 0.12929
v 0.6262171 1.3710684 0.123666115
v 0.6746267 1.4299005 0.072572246
v 0.64716446 1.4146197 0.1100935
v 0.5878586 1.3662182 0.19162604
v 0.58535075 1.4033917 0.12807429
v 0.64480627 1.4370788 0.08327286
v 0.5820868 1.4450226 0.1224929
v 0.44905233 1.434116 0.2127869
v 0.4878919 1.4509196 0.18097866
v 0.59870565 1.4582602 0.10691692
v 0.5138128 1.4864308 0.15354037
v 0.32206678 1.5196539 0.2663309
v 0.5379991 1.5060072 0.077213876
v 0.6157328 1.4877539 0.0550551
v 0.5455664 1.5478773 0.07036624
v 0.47056445 1.5786914 0.09093558
v 0.4928502 1.5732642 0.06664616
v 0.5795268 1.5344898 0.04293064
v 0.54810685 1.5642787 0.035214327
v 0.41279247 1.6254575 0.06874218
v 0.53172624 1.5273508 -0.008439196
v 0.5963139 1.5116869 -0.01304116
v 0.5175466 1.5510381 -0.056177717
v 0.43911573 1.5814546 -0.0682169
v 0.46628478 1.5582194 -0.07613402
v 0.5488637 1.5309991 -0.06233347
v 0.5092953 1.546065 -0.09496415
v 0.3317544 1.6082262 -0.15249804
v 0.57999337 1.4434544 -0.10831769
v 0.6561358 1.4503195 -0.0730107
v 0.63293403 1.4069382 -0.131775
v 0.5555468 1.3541028 -0.22503345
v 0.6260296 1.365399 -0.12627529
v 0.66859907 1.404229 -0.07615762
v 0.6632098 1.3837569 -0.08670433
v 0.61951625 1.3319404 -0.14915617
v 0.6774521 1.3655996 -0.067231946
v 0.69134635 1.4048797 -0.046138205
v 0.6814612 1.3401276 -0.058690872
v 0.6907205 1.38018 -0.046966102
v 0.6999801 1.4528891 0.043260224
v 0.69969636 1.420321 0.022089982
v 0.67474943 1.3852185 0.05191595
v 0.68177015 1.4265376 0.05745648
v 0.6674541 1.4130288 0.07602884
v 0.6746267 1.4299005 0.072572246
v 0.64716446 1.4146197 0.1100935
v 0.64480627 1.4370788 0.08327286
v 0.5820868 1.4450226 0.1224929
v 0.59870565 1.4582602 0.10691692
v 0.5138128 1.4864308 0.15354037
v 0.6157328 1.4877539 0.0550551
v 0.69998014 1.4808477 0.022285925
v 0.5455664 1.5478773 0.07036624
v 0.5795268 1.5344898 0.04293064
v 0.6999801 1.4888946 -0.0039946553
v 0.54810685 1.5642787 0.035214327
v 0.5963139 1.5116869 -0.01304116
v 0.69998014 1.4808477 -0.032386016
v 0.5175466 1.5510381 -0.056177717
v 0.5488637 1.5309991 -0.06233347
v 0.5092953 1.546065 -0.09496415
v 0.6561358 1.4503195 -0.0730107
v 0.6999801 1.4531626 -0.053015064
v 0.63293403 1.4069382 -0.131775
v 0.66859907 1.404229 -0.07615762
v 0.69971424 1.4202878 -0.035058558
v 0.6632098 1.3837569 -0.08670433
v 0.69134635 1.4048797 -0.046138205
v 0.6907205 1.38018 -0.046966102
vt 0.0641588 0.44616535
vt 0.9813001 0.44616497
vt 0.59022236 0.42127177
vt 0.9813001 0.48418522
vt 0.0641588 0.48418522
vt 0.0641588 0.5184217
vt 0.9813001 0.5184217
vt 0.9813001 0.55337965
vt 0.0641588 0.5533795
vt 0.0641588 0.5889415
vt 0.9813001 0.5843261
vt 0.9813001 0.6203925
vt 0.0641588 0.62039274
vt 0.0641588 0.65318984
vt 0.9813001 0.65318966
vt 0.9813001 0.68743783
vt 0.0641588 0.6874376
vt 0.0641588 0.7193125
vt 0.9813001 0.71931165
vt 0.9813001 0.755336
vt 0.0641588 0.755336
vt 0.0641588 0.7983872
vt 0.9813001 0.7983874
vt 0.9813001 0.8337465
vt 0.0641588 0.8337459
vt 0.0641588 0.86382675
vt 0.9813001 0.86382675
vt 0.9813001 0.9029043
vt 0.0641588 0.9029041
vt 0.0641588 0.9450859
vt 0.9813001 0.9450863
vt 0.9813001 0.98341984
vt 0.0641588 0.98341984
vt 0.0641588 1.0270343
vt 0.9813001 1.027034
vt 0.9813001 1.0662471
vt 0.0641588 1.0662475
vt 0.0641588 1.1058128
vt 0.9813001 1.1058128
vt 0.9813001 1.141828
vt 0.0641588 1.141828
vt 0.0641588 1.1741841
vt 0.9813001 1.1741842
vt 0.9813001 1.2044803
vt 0.0641588 1.2044804
vt 0.9813001 1.2323421
vt 0.0641588 1.2323421
vt 0.019855857 0.5290654
vt 0.023988843 0.5486013
vt 0.019855857 0.5521048
vt 0.0253461 0.54396653
vt 0.031208038 0.5448512
vt 0.03152597 0.5393701
vt 0.035680354 0.53687614
vt 0.03491038 0.53232956
vt 0.03770137 0.5284917
vt 0.036161542 0.52470654
vt 0.03904879 0.51800954
vt 0.03659463 0.5116687
vt 0.019855857 0.50643945
vt 0.038182616 0.50437224
vt 0.037460804 0.5008449
vt 0.019855857 0.4888895
vt 0.03847134 0.49472192
vt 0.036835194 0.48509654
vt 0.019855857 0.46987954
vt 0.03895253 0.47472355
vt 0.036498368 0.46677947
vt 0.038134456 0.46012917
vt 0.03317809 0.44952893
vt 0.019855857 0.45347184
vt 0.03313434 0.4419509
vt 0.028676808 0.43610469
vt 0.019855857 0.43699318
vt 0.028010786 0.43148777
vt 0.02200985 0.42983967
vt 0.019855857 0.42567414
vt 0.0641588 0.0311895
vt 0.59022236 0.0062959194
vt 0.9813001 0.031189105
vt 0.9813001 0.069209374
vt 0.0641588 0.069209374
vt 0.0641588 0.10344587
vt 0.9813001 0.10344587
vt 0.9813001 0.1384038
vt 0.0641588 0.13840361
vt 0.0641588 0.17396568
vt 0.9813001 0.16935022
vt 0.9813001 0.20541666
vt 0.0641588 0.20541686
vt 0.0641588 0.238214
vt 0.9813001 0.2382138
vt 0.9813001 0.27246198
vt 0.0641588 0.27246177
vt 0.0641588 0.3043366
vt 0.9813001 0.3043358
vt 0.9813001 0.3403601
vt 0.0641588 0.3403601
vt 0.0641588 0.38341138
vt 0.9813001 0.3834116
vt 0.9813001 0.4187706
vt 0.0641588 0.41877002
vt 0.0641588 0.44885093
vt 0.9813001 0.44885093
vt 0.9813001 0.48792845
vt 0.0641588 0.48792824
vt 0.0641588 0.53011006
vt 0.9813001 0.5301104
vt 0.9813001 0.56844395
vt 0.0641588 0.56844395
vt 0.0641588 0.6120584
vt 0.9813001 0.61205816
vt 0.9813001 0.6512712
vt 0.0641588 0.65127164
vt 0.0641588 0.6908369
vt 0.9813001 0.6908369
vt 0.9813001 0.7268521
vt 0.0641588 0.7268521
vt 0.0641588 0.7592082
vt 0.9813001 0.7592084
vt 0.9813001 0.7895044
vt 0.0641588 0.7895046
vt 0.9813001 0.8173663
vt 0.0641588 0.8173663
vt 0.019855857 0.11408953
vt 0.019855857 0.1371289
vt 0.023988843 0.13362545
vt 0.0253461 0.12899065
vt 0.031208038 0.12987533
vt 0.03152597 0.1243943
vt 0.035680354 0.12190027
vt 0.03491038 0.11735372
vt 0.03770137 0.11351582
vt 0.036161542 0.1097307
vt 0.03904879 0.10303369
vt 0.03659463 0.09669285
vt 0.019855857 0.09146357
vt 0.038182616 0.08939643
vt 0.037460804 0.085869044
vt 0.019855857 0.07391361
vt 0.03847134 0.07974607
vt 0.036835194 0.07012069
vt 0.019855857 0.054903686
vt 0.03895253 0.059747692
vt 0.036498368 0.05180362
vt 0.038134456 0.045153305
vt 0.03317809 0.034553096
vt 0.019855857 0.038495958
vt 0.03313434 0.02697504
vt 0.028676808 0.021128844
vt 0.019855857 0.02201737
vt 0.028010786 0.016511906
vt 0.02200985 0.014863785
vt 0.019855857 0.010698324
vn -0.8028296 -0.22538777 0.55196464
vn -0.7820572 -0.21509233 0.5849118
vn -0.8710138 -0.2706751 0.40996328
vn -0.8128135 -0.28981912 0.50531083
vn -0.8046807 -0.27304986 0.52719325
vn -0.841702 -0.32160985 0.4337107
vn -0.8404659 -0.31316432 0.44220486
vn -0.83919185 -0.26292813 0.4760524
vn -0.8312838 -0.26590887 0.4881185
vn -0.54324186 0.4526117 0.7071286
vn -0.3819123 0.613213 0.691457
vn -0.37698886 0.46267414 0.802379
vn -0.3497464 0.53912956 0.7661701
vn -0.53726333 0.19694203 0.82009876
vn -0.53685135 0.1994043 0.8197735
vn -0.52256536 0.26114535 0.81162095
vn -0.5236053 0.25728512 0.8121833
vn -0.454503 0.6699437 0.58702856
vn -0.4523326 0.6749558 0.58294934
vn -0.36137944 0.7563267 0.54532087
vn -0.40107027 0.6698877 0.6248145
vn -0.40272182 0.42358217 0.81141436
vn -0.41496545 0.48303202 0.7710277
vn -0.4561751 0.75988 0.46312693
vn -0.46556216 0.7951737 0.38852364
vn -0.31563383 0.8880466 -0.33428806
vn -0.2730506 0.8595197 -0.43205252
vn -0.22491647 0.91244614 -0.3418402
vn -0.27547416 0.9254329 -0.26016912
vn -0.3288986 0.9394001 0.09671132
vn -0.3344093 0.94101703 0.051549565
vn -0.33258304 0.93827456 -0.09502261
vn -0.34068516 0.9253428 -0.16635597
vn -0.41731095 0.5838048 -0.6964362
vn -0.41168675 0.5267393 -0.7436798
vn -0.34857225 0.50476253 -0.78975457
vn -0.35638893 0.53129804 -0.76857615
vn -0.5269764 0.47031853 -0.7078816
vn -0.4578112 0.5514446 -0.69736487
vn -0.7903268 -0.089386836 -0.60613006
vn -0.8046156 -0.16058405 -0.5716699
vn -0.75691295 0.12412116 -0.64162034
vn -0.73121613 0.16399267 -0.66213995
vn -0.82174563 0.00727672 -0.56980795
vn -0.8216317 -0.010072758 -0.56992966
vn -0.8446001 -0.025261622 -0.5348014
vn -0.84344727 -0.024595859 -0.5366485
vn -0.5145996 0.54951555 0.6581945
vn -0.8028296 -0.22538777 0.55196464
vn -0.8710138 -0.2706751 0.40996328
vn -0.8046807 -0.27304986 0.52719325
vn -0.841702 -0.32160985 0.4337107
vn -0.8312838 -0.26590887 0.4881185
vn -0.54324186 0.4526117 0.7071286
vn -0.3497464 0.53912956 0.7661701
vn -0.53726333 0.19694203 0.82009876
vn -0.5236053 0.25728512 0.8121833
vn -0.454503 0.6699437 0.58702856
vn -0.40107027 0.6698877 0.6248145
vn -0.41693586 0.7173866 0.5581406
vn -0.40272182 0.42358217 0.81141436
vn -0.46556216 0.7951737 0.38852364
vn -0.33971962 0.9335918 -0.11400395
vn -0.31563383 0.8880466 -0.33428806
vn -0.27547416 0.9254329 -0.26016912
vn -0.3890829 0.7145383 -0.58142024
vn -0.3288986 0.9394001 0.09671132
vn -0.34068516 0.9253428 -0.16635597
vn -0.41731095 0.5838048 -0.6964362
vn -0.35638893 0.53129804 -0.76857615
vn -0.62171406 0.2540529 -0.7408973
vn -0.5269764 0.47031853 -0.7078816
vn -0.8046156 -0.16058405 -0.5716699
vn -0.81791604 -0.24176957 -0.5220737
vn -0.75691295 0.12412116 -0.64162034
vn -0.8216317 -0.010072758 -0.56992966
vn -0.84344727 -0.024595859 -0.5366485
vn 0.8028288 -0.22538799 0.5519656
vn 0.8710142 -0.27067482 0.4099627
vn 0.78205615 -0.21509281 0.584913
vn 0.81281316 -0.28981957 0.50531125
vn 0.80468094 -0.27305022 0.52719265
vn 0.84170216 -0.32161042 0.43370995
vn 0.840466 -0.3131652 0.44220403
vn 0.83919185 -0.26292866 0.47605205
vn 0.83128464 -0.2659108 0.48811606
vn 0.5432413 0.4526126 0.7071284
vn 0.38191178 0.61321366 0.6914566
vn 0.3769894 0.46267426 0.80237865
vn 0.3497478 0.5391297 0.7661694
vn 0.537264 0.19694217 0.82009834
vn 0.5368517 0.19940439 0.8197732
vn 0.5225654 0.26114473 0.8116212
vn 0.5236072 0.25728527 0.81218207
vn 0.45450273 0.6699433 0.58702916
vn 0.45233256 0.6749549 0.58295035
vn 0.36137915 0.7563262 0.5453218
vn 0.40106934 0.6698861 0.6248167
vn 0.4027217 0.42358187 0.81141454
vn 0.4149655 0.48303193 0.7710277
vn 0.45617452 0.75987995 0.4631278
vn 0.46556088 0.795171 0.38853064
vn 0.3156333 0.88804615 -0.33428985
vn 0.27305022 0.859519 -0.43205395
vn 0.22491615 0.9124453 -0.3418423
vn 0.27547422 0.92543304 -0.26016858
vn 0.32889864 0.9394 0.096712984
vn 0.33440924 0.9410169 0.051551823
vn 0.332583 0.9382753 -0.09501576
vn 0.34068576 0.925343 -0.16635409
vn 0.41731107 0.5838047 -0.6964363
vn 0.4116866 0.52673894 -0.74368024
vn 0.348572 0.504762 -0.7897549
vn 0.35638934 0.53129834 -0.7685758
vn 0.5269762 0.4703196 -0.70788115
vn 0.45781103 0.5514456 -0.6973642
vn 0.7903266 -0.08938739 -0.60613006
vn 0.8046158 -0.16058348 -0.57166994
vn 0.75691396 0.12411885 -0.6416197
vn 0.73121715 0.16399002 -0.6621395
vn 0.8217467 0.007274112 -0.56980646
vn 0.8216312 -0.0100701265 -0.56993043
vn 0.844601 -0.025265357 -0.5347997
vn 0.8434484 -0.024599472 -0.53664666
vn 0.5146 0.5495154 0.6581942
vn 0.8710142 -0.27067482 0.4099627
vn 0.8028288 -0.22538799 0.5519656
vn 0.80468094 -0.27305022 0.52719265
vn 0.84170216 -0.32161042 0.43370995
vn 0.83128464 -0.2659108 0.48811606
vn 0.5432413 0.4526126 0.7071284
vn 0.3497478 0.5391297 0.7661694
vn 0.537264 0.19694217 0.82009834
vn 0.5236072 0.25728527 0.81218207
vn 0.45450273 0.6699433 0.58702916
vn 0.40106934 0.6698861 0.6248167
vn 0.41693613 0.7173875 0.55813926
vn 0.4027217 0.42358187 0.81141454
vn 0.46556088 0.795171 0.38853064
vn 0.33971956 0.9335918 -0.114003874
vn 0.3156333 0.88804615 -0.33428985
vn 0.27547422 0.92543304 -0.26016858
vn 0.3890838 0.7145393 -0.58141834
vn 0.32889864 0.9394 0.096712984
vn 0.34068576 0.925343 -0.16635409
vn 0.41731107 0.5838047 -0.6964363
vn 0.35638934 0.53129834 -0.7685758
vn 0.6217142 0.25405166 -0.74089754
vn 0.5269762 0.4703196 -0.70788115
vn 0.8046158 -0.16058348 -0.57166994
vn 0.81791633 -0.24176766 -0.5220739
vn 0.75691396 0.12411885 -0.6416197
vn 0.8216312 -0.0100701265 -0.56993043
vn 0.8434484 -0.024599472 -0.53664666
g pm0257_00_FireCoreASkin_0
f 3/3/3 2/2/2 1/1/1
f 1/1/1 2/2/2 4/4/4
f 5/5/5 1/1/1 4/4/4
f 6/6/6 5/5/5 4/4/4
f 7/7/7 6/6/6 4/4/4
f 6/6/6 7/7/7 8/8/8
f 9/9/9 6/6/6 8/8/8
f 10/10/10 9/9/9 8/8/8
f 11/11/11 10/10/10 8/8/8
f 10/10/10 11/11/11 12/12/12
f 13/13/13 10/10/10 12/12/12
f 14/14/14 13/13/13 12/12/12
f 15/15/15 14/14/14 12/12/12
f 14/14/14 15/15/15 16/16/16
f 17/17/17 14/14/14 16/16/16
f 18/18/18 17/17/17 16/16/16
f 19/19/19 18/18/18 16/16/16
f 19/19/19 20/20/20 18/18/18
f 20/20/20 21/21/21 18/18/18
f 21/21/21 20/20/20 22/22/22
f 20/20/20 23/23/23 22/22/22
f 22/22/22 23/23/23 24/24/24
f 25/25/25 22/22/22 24/24/24
f 25/25/25 24/24/24 26/26/26
f 24/24/24 27/27/27 26/26/26
f 27/27/27 28/28/28 26/26/26
f 28/28/28 29/29/29 26/26/26
f 30/30/30 29/29/29 28/28/28
f 31/31/31 30/30/30 28/28/28
f 30/30/30 31/31/31 32/32/32
f 33/33/33 30/30/30 32/32/32
f 34/34/34 33/33/33 32/32/32
f 35/35/35 34/34/34 32/32/32
f 34/34/34 35/35/35 36/36/36
f 37/37/37 34/34/34 36/36/36
f 37/37/37 36/36/36 38/38/38
f 36/36/36 39/39/39 38/38/38
f 38/38/38 39/39/39 40/40/40
f 41/41/41 38/38/38 40/40/40
f 42/42/42 41/41/41 40/40/40
f 43/43/43 42/42/42 40/40/40
f 42/42/42 43/43/43 44/44/44
f 45/45/45 42/42/42 44/44/44
f 44/44/44 46/46/46 45/45/45
f 46/46/46 47/47/47 45/45/45
f 50/50/50 49/49/49 48/48/48
f 48/48/48 49/49/49 51/51/51
f 48/48/48 51/51/51 52/52/52
f 48/48/48 52/52/52 53/53/53
f 48/48/48 53/53/53 54/54/54
f 48/48/48 54/54/54 55/55/55
f 48/48/48 55/55/55 56/56/56
f 48/48/48 56/56/56 57/57/57
f 48/48/48 57/57/57 58/58/58
f 58/58/58 59/59/59 48/48/48
f 59/59/59 60/60/60 48/48/48
f 60/60/60 59/59/59 61/61/61
f 60/60/60 61/61/61 62/62/62
f 60/60/60 62/62/62 63/63/63
f 63/63/63 62/62/62 64/64/64
f 64/64/64 65/65/65 63/63/63
f 66/66/66 63/63/63 65/65/65
f 66/66/66 65/65/65 67/67/67
f 66/66/66 67/67/67 68/68/68
f 66/66/66 68/68/68 69/69/69
f 70/70/70 66/66/66 69/69/69
f 71/71/71 66/66/66 70/70/70
f 70/70/70 72/72/72 71/71/71
f 73/73/73 71/71/71 72/72/72
f 74/74/74 71/71/71 73/73/73
f 74/74/74 73/73/73 75/75/75
f 74/74/74 75/75/75 76/76/76
f 74/74/74 76/76/76 77/77/77
f 80/80/80 79/79/79 78/78/78
f 80/80/80 78/78/78 81/81/81
f 78/78/78 82/82/82 81/81/81
f 82/82/82 83/83/83 81/81/81
f 83/83/83 84/84/84 81/81/81
f 84/84/84 83/83/83 85/85/85
f 83/83/83 86/86/86 85/85/85
f 86/86/86 87/87/87 85/85/85
f 87/87/87 88/88/88 85/85/85
f 88/88/88 87/87/87 89/89/89
f 87/87/87 90/90/90 89/89/89
f 90/90/90 91/91/91 89/89/89
f 91/91/91 92/92/92 89/89/89
f 92/92/92 91/91/91 93/93/93
f 91/91/91 94/94/94 93/93/93
f 94/94/94 95/95/95 93/93/93
f 95/95/95 96/96/96 93/93/93
f 97/97/97 96/96/96 95/95/95
f 98/98/98 97/97/97 95/95/95
f 97/97/97 98/98/98 99/99/99
f 100/100/100 97/97/97 99/99/99
f 100/100/100 99/99/99 101/101/101
f 99/99/99 102/102/102 101/101/101
f 101/101/101 102/102/102 103/103/103
f 104/104/104 101/101/101 103/103/103
f 105/105/105 104/104/104 103/103/103
f 106/106/106 105/105/105 103/103/103
f 106/106/106 107/107/107 105/105/105
f 107/107/107 108/108/108 105/105/105
f 108/108/108 107/107/107 109/109/109
f 107/107/107 110/110/110 109/109/109
f 110/110/110 111/111/111 109/109/109
f 111/111/111 112/112/112 109/109/109
f 112/112/112 111/111/111 113/113/113
f 111/111/111 114/114/114 113/113/113
f 113/113/113 114/114/114 115/115/115
f 116/116/116 113/113/113 115/115/115
f 116/116/116 115/115/115 117/117/117
f 115/115/115 118/118/118 117/117/117
f 118/118/118 119/119/119 117/117/117
f 119/119/119 120/120/120 117/117/117
f 120/120/120 119/119/119 121/121/121
f 119/119/119 122/122/122 121/121/121
f 123/123/123 121/121/121 122/122/122
f 124/124/124 123/123/123 122/122/122
f 127/127/127 126/126/126 125/125/125
f 127/127/127 125/125/125 128/128/128
f 128/128/128 125/125/125 129/129/129
f 129/129/129 125/125/125 130/130/130
f 130/130/130 125/125/125 131/131/131
f 131/131/131 125/125/125 132/132/132
f 132/132/132 125/125/125 133/133/133
f 133/133/133 125/125/125 134/134/134
f 134/134/134 125/125/125 135/135/135
f 136/136/136 135/135/135 125/125/125
f 137/137/137 136/136/136 125/125/125
f 136/136/136 137/137/137 138/138/138
f 138/138/138 137/137/137 139/139/139
f 139/139/139 137/137/137 140/140/140
f 139/139/139 140/140/140 141/141/141
f 142/142/142 141/141/141 140/140/140
f 140/140/140 143/143/143 142/142/142
f 142/142/142 143/143/143 144/144/144
f 144/144/144 143/143/143 145/145/145
f 145/145/145 143/143/143 146/146/146
f 143/143/143 147/147/147 146/146/146
f 143/143/143 148/148/148 147/147/147
f 149/149/149 147/147/147 148/148/148
f 148/148/148 150/150/150 149/149/149
f 148/148/148 151/151/151 150/150/150
f 150/150/150 151/151/151 152/152/152
f 152/152/152 151/151/151 153/153/153
f 153/153/153 151/151/151 154/154/154
