g pm0203_00_ToothASkin
v 0.102576695 1.0355395 -0.55164766
v 0.099930696 1.0407702 -0.5484083
v 0.111373425 1.0403938 -0.57588845
v 0.10896094 1.0315654 -0.57832974
v 0.103198536 1.0316601 -0.5545489
v 0.10387462 1.0250189 -0.56215197
v 0.10909248 1.0402422 -0.6148522
v 0.10207272 1.012902 -0.5823281
v 0.10562183 1.0268766 -0.61264324
v 0.09689939 1.0395733 -0.64896953
v 0.105642766 1.0197674 -0.58501
v 0.09521403 1.0020694 -0.60497326
v 0.10064849 1.0128404 -0.60827565
v 0.092531994 1.022211 -0.64526236
v 0.08571849 1.002558 -0.6386517
v 0.07715705 0.9895326 -0.63354814
v 0.051173043 0.9819974 -0.65209585
v 0.073744394 1.0189521 -0.66713446
v 0.07756042 1.039335 -0.6716837
v 0.066148736 0.99726963 -0.6598567
v 0.054937877 1.0169977 -0.6816577
v 0.055429645 1.039561 -0.6914452
v 0.052960433 0.9951301 -0.6675936
v 0.029164588 0.99218655 -0.67729765
v 0.027839245 0.9777776 -0.66411626
v 1.82522E-17 0.9766178 -0.6686005
v 1.0389181E-17 0.9915331 -0.68170553
v -2.0831086E-18 1.0158246 -0.697127
v 0.029576229 1.0158608 -0.6924925
v 0.029987872 1.0400681 -0.7003668
v -6.370381E-18 1.0406489 -0.7052278
v -0.102576695 1.0355395 -0.55164766
v -0.111373425 1.0403938 -0.57588845
v -0.099930696 1.0407702 -0.5484083
v -0.10896094 1.0315654 -0.57832974
v -0.103198536 1.0316601 -0.5545489
v -0.10387462 1.0250189 -0.56215197
v -0.10909248 1.0402422 -0.6148522
v -0.10207272 1.012902 -0.5823281
v -0.10562183 1.0268766 -0.61264324
v -0.09689939 1.0395733 -0.64896953
v -0.105642766 1.0197674 -0.58501
v -0.09521403 1.0020694 -0.60497326
v -0.10064849 1.0128404 -0.60827565
v -0.092531994 1.022211 -0.64526236
v -0.08571849 1.002558 -0.6386517
v -0.07715705 0.9895326 -0.63354814
v -0.051173043 0.9819974 -0.65209585
v -0.073744394 1.0189521 -0.66713446
v -0.07756042 1.039335 -0.6716837
v -0.066148736 0.99726963 -0.6598567
v -0.054937877 1.0169977 -0.6816577
v -0.055429645 1.039561 -0.6914452
v -0.052960433 0.9951301 -0.6675936
v -0.029164588 0.99218655 -0.67729765
v -0.027839245 0.9777776 -0.66411626
v 1.82522E-17 0.9766178 -0.6686005
v 1.0389181E-17 0.9915331 -0.68170553
v -2.0831086E-18 1.0158246 -0.697127
v -0.029576229 1.0158608 -0.6924925
v -0.029987872 1.0400681 -0.7003668
v -6.370381E-18 1.0406489 -0.7052278
vt 0.28368556 0.9921875
vt 0.27734375 0.9921875
vt 0.29837024 0.9732311
vt 0.30448878 0.9790125
vt 0.2879151 0.9921875
vt 0.2964276 0.9921875
vt 0.3291242 0.9580529
vt 0.31622612 0.9921875
vt 0.3329972 0.96911395
vt 0.35742128 0.94700277
vt 0.314901 0.9853528
vt 0.3391645 0.9921875
vt 0.33611512 0.98183
vt 0.3617983 0.9612769
vt 0.36639762 0.97880584
vt 0.37135506 0.9921875
vt 0.40067792 0.9921875
vt 0.3852557 0.956744
vt 0.38102102 0.940063
vt 0.39088762 0.97555923
vt 0.4044509 0.9537894
vt 0.40456223 0.93389636
vt 0.40373552 0.97510064
vt 0.4257295 0.97493696
vt 0.42479742 0.9921875
vt 0.45117188 0.9921875
vt 0.45117188 0.97439885
vt 0.45117188 0.9505679
vt 0.426844 0.95170367
vt 0.42650402 0.93111444
vt 0.45117188 0.9296875
vt 0.28368556 0.9921875
vt 0.29837024 0.9732311
vt 0.27734375 0.9921875
vt 0.30448878 0.9790125
vt 0.2879151 0.9921875
vt 0.2964276 0.9921875
vt 0.3291242 0.9580529
vt 0.31622612 0.9921875
vt 0.3329972 0.96911395
vt 0.35742128 0.94700277
vt 0.314901 0.9853528
vt 0.3391645 0.9921875
vt 0.33611512 0.98183
vt 0.3617983 0.9612769
vt 0.36639762 0.97880584
vt 0.37135506 0.9921875
vt 0.40067792 0.9921875
vt 0.3852557 0.956744
vt 0.38102102 0.940063
vt 0.39088762 0.97555923
vt 0.4044509 0.9537894
vt 0.40456223 0.93389636
vt 0.40373552 0.97510064
vt 0.4257295 0.97493696
vt 0.42479742 0.9921875
vt 0.45117188 0.9921875
vt 0.45117188 0.97439885
vt 0.45117188 0.9505679
vt 0.426844 0.95170367
vt 0.42650402 0.93111444
vt 0.45117188 0.9296875
vn 0.9655879 -0.19703272 0.1697586
vn 0.9702234 -0.18614827 0.15496917
vn 0.9710543 -0.23583391 0.03789243
vn 0.9604311 -0.27450097 0.047129314
vn 0.960946 -0.20918204 0.18117839
vn 0.9551012 -0.27695015 0.105263285
vn 0.9348709 -0.3010586 -0.18809573
vn 0.9241088 -0.38200918 -0.009586472
vn 0.91825074 -0.3515158 -0.18235168
vn 0.82995725 -0.3503054 -0.43411648
vn 0.93006635 -0.3662806 -0.028552536
vn 0.8573217 -0.48217583 -0.18029453
vn 0.88031185 -0.43546423 -0.18820691
vn 0.8097001 -0.40956712 -0.42028612
vn 0.76722413 -0.5041679 -0.39646146
vn 0.7274471 -0.5656789 -0.3883658
vn 0.5190501 -0.6123481 -0.5963361
vn 0.65004945 -0.44516596 -0.6158433
vn 0.6691975 -0.37934047 -0.6389644
vn 0.6045086 -0.5470107 -0.57909304
vn 0.46706706 -0.46540967 -0.7518258
vn 0.47444758 -0.39681754 -0.78577054
vn 0.46205118 -0.56702 -0.6819069
vn 0.24499667 -0.5847568 -0.773328
vn 0.25763568 -0.64978313 -0.7151264
vn -0 -0.65715355 -0.75375676
vn 1.2532077E-07 -0.59022397 -0.80723953
vn -0 -0.48132545 -0.87654203
vn 0.24611263 -0.4780937 -0.8431222
vn 0.24796435 -0.4067829 -0.8792277
vn -0 -0.41007274 -0.91205275
vn -0.96558803 -0.1970325 0.1697585
vn -0.9710543 -0.23583378 0.037892554
vn -0.9702234 -0.18614809 0.15496904
vn -0.9604312 -0.27450067 0.047129184
vn -0.9609462 -0.20918167 0.18117805
vn -0.95510143 -0.27694958 0.10526302
vn -0.934871 -0.3010586 -0.18809561
vn -0.92410904 -0.38200858 -0.0095867785
vn -0.91825086 -0.35151556 -0.18235168
vn -0.8299572 -0.35030556 -0.43411642
vn -0.93006647 -0.36628002 -0.028552778
vn -0.85732186 -0.48217538 -0.18029465
vn -0.880312 -0.43546396 -0.18820693
vn -0.8097001 -0.4095673 -0.42028612
vn -0.76722413 -0.5041679 -0.39646146
vn -0.72744715 -0.56567883 -0.3883658
vn -0.51904994 -0.6123483 -0.59633607
vn -0.6500491 -0.44516632 -0.6158434
vn -0.6691973 -0.37934065 -0.6389645
vn -0.6045084 -0.5470108 -0.579093
vn -0.46706676 -0.46541002 -0.751826
vn -0.47444734 -0.39681783 -0.7857706
vn -0.46205094 -0.5670203 -0.6819068
vn -0.24499641 -0.5847571 -0.7733278
vn -0.25763574 -0.64978325 -0.7151262
vn -0 -0.65715355 -0.75375676
vn 1.2532077E-07 -0.59022397 -0.80723953
vn -0 -0.48132545 -0.87654203
vn -0.24611238 -0.47809398 -0.8431221
vn -0.24796419 -0.406783 -0.87922764
vn -0 -0.41007274 -0.91205275
g pm0203_00_ToothASkin_0
f 3/3/3 2/2/2 1/1/1
f 4/4/4 3/3/3 1/1/1
f 4/4/4 1/1/1 5/5/5
f 6/6/6 4/4/4 5/5/5
f 7/7/7 3/3/3 4/4/4
f 6/6/6 8/8/8 4/4/4
f 9/9/9 7/7/7 4/4/4
f 7/7/7 9/9/9 10/10/10
f 8/8/8 11/11/11 4/4/4
f 9/9/9 4/4/4 11/11/11
f 11/11/11 8/8/8 12/12/12
f 13/13/13 9/9/9 11/11/11
f 13/13/13 11/11/11 12/12/12
f 9/9/9 14/14/14 10/10/10
f 9/9/9 13/13/13 14/14/14
f 13/13/13 12/12/12 15/15/15
f 13/13/13 15/15/15 14/14/14
f 12/12/12 16/16/16 15/15/15
f 15/15/15 16/16/16 17/17/17
f 10/10/10 14/14/14 18/18/18
f 18/18/18 14/14/14 15/15/15
f 19/19/19 10/10/10 18/18/18
f 20/20/20 15/15/15 17/17/17
f 20/20/20 18/18/18 15/15/15
f 18/18/18 21/21/21 19/19/19
f 21/21/21 22/22/22 19/19/19
f 20/20/20 23/23/23 18/18/18
f 17/17/17 23/23/23 20/20/20
f 23/23/23 21/21/21 18/18/18
f 23/23/23 17/17/17 24/24/24
f 23/23/23 24/24/24 21/21/21
f 17/17/17 25/25/25 24/24/24
f 24/24/24 25/25/25 26/26/26
f 27/27/27 24/24/24 26/26/26
f 24/24/24 27/27/27 28/28/28
f 21/21/21 29/29/29 22/22/22
f 24/24/24 29/29/29 21/21/21
f 29/29/29 24/24/24 28/28/28
f 29/29/29 30/30/30 22/22/22
f 29/29/29 28/28/28 31/31/31
f 30/30/30 29/29/29 31/31/31
f 34/34/34 33/33/33 32/32/32
f 33/33/33 35/35/35 32/32/32
f 32/32/32 35/35/35 36/36/36
f 35/35/35 37/37/37 36/36/36
f 33/33/33 38/38/38 35/35/35
f 39/39/39 37/37/37 35/35/35
f 38/38/38 40/40/40 35/35/35
f 40/40/40 38/38/38 41/41/41
f 42/42/42 39/39/39 35/35/35
f 35/35/35 40/40/40 42/42/42
f 39/39/39 42/42/42 43/43/43
f 40/40/40 44/44/44 42/42/42
f 42/42/42 44/44/44 43/43/43
f 45/45/45 40/40/40 41/41/41
f 44/44/44 40/40/40 45/45/45
f 43/43/43 44/44/44 46/46/46
f 46/46/46 44/44/44 45/45/45
f 47/47/47 43/43/43 46/46/46
f 47/47/47 46/46/46 48/48/48
f 45/45/45 41/41/41 49/49/49
f 45/45/45 49/49/49 46/46/46
f 41/41/41 50/50/50 49/49/49
f 46/46/46 51/51/51 48/48/48
f 49/49/49 51/51/51 46/46/46
f 52/52/52 49/49/49 50/50/50
f 53/53/53 52/52/52 50/50/50
f 54/54/54 51/51/51 49/49/49
f 54/54/54 48/48/48 51/51/51
f 52/52/52 54/54/54 49/49/49
f 48/48/48 54/54/54 55/55/55
f 55/55/55 54/54/54 52/52/52
f 56/56/56 48/48/48 55/55/55
f 56/56/56 55/55/55 57/57/57
f 55/55/55 58/58/58 57/57/57
f 58/58/58 55/55/55 59/59/59
f 60/60/60 52/52/52 53/53/53
f 60/60/60 55/55/55 52/52/52
f 55/55/55 60/60/60 59/59/59
f 61/61/61 60/60/60 53/53/53
f 59/59/59 60/60/60 62/62/62
f 60/60/60 61/61/61 62/62/62
