g pm0308_00_HairSkin
v -0.02991691 1.3001025 -0.04292413
v 7.817072E-24 1.3065649 -0.04080776
v 5.8085588E-24 1.275529 -0.019018117
v 8.51068E-24 1.3241955 -0.07111635
v -0.029579142 1.2722694 -0.023858462
v -0.053015284 1.2674868 -0.03792423
v -0.028540706 1.2357337 -0.014000139
v 3.9862037E-24 1.2367561 -0.009254908
v 1.2295973E-24 1.1955336 -0.0035311813
v -0.02538756 1.19435 -0.008123229
v -1.2191576E-24 1.1550357 -0.0012329736
v -0.05127426 1.2316637 -0.026739452
v -0.035743356 1.3132207 -0.070172526
v -0.038651567 1.3112969 -0.106581725
v -0.0588649 1.2906897 -0.06906507
v 8.612862E-24 1.3230779 -0.110872135
v 8.425268E-24 1.298381 -0.14205132
v -0.051504605 1.2832096 -0.044171315
v -0.06660073 1.223964 -0.046278436
v -0.044685893 1.1911244 -0.020166015
v -0.06887698 1.2578205 -0.05638276
v -0.07425237 1.2468501 -0.08321888
v -0.06275656 1.2857132 -0.09735502
v -0.05887039 1.2713555 -0.1222023
v -0.035735216 1.2893747 -0.1357171
v -0.029888675 1.2617776 -0.148298
v 7.46843E-24 1.2651947 -0.15350178
v 5.643149E-24 1.2255372 -0.1503226
v -0.033754945 1.1506194 -0.015237194
v -0.058786716 1.1856935 -0.03650248
v -0.07168003 1.2145187 -0.07150402
v -0.019839613 1.1538653 -0.005355457
v -0.02600439 1.1244986 -0.013900655
v -2.0477346E-24 1.1273003 -0.00311053
v -1.5500745E-24 1.1050624 -0.0058809975
v -0.016509635 1.1031052 -0.012360182
v -0.023838608 1.098205 -0.029509915
v -0.04474531 1.1463643 -0.027014896
v -0.04900861 1.1408155 -0.044216614
v -0.06385658 1.1785295 -0.05812725
v -0.06668543 1.2054247 -0.09782137
v -0.037031747 1.1176052 -0.03595675
v -0.026034752 1.1095405 -0.05953943
v -0.016509634 1.0926756 -0.04775401
v -1.564777E-24 1.0902505 -0.05384545
v -2.0986414E-24 1.1053208 -0.070995614
v -1.2934989E-24 1.1247909 -0.09006886
v -0.058961894 1.1707633 -0.080487326
v -0.06886228 1.2379091 -0.10944443
v -0.05349134 1.2322093 -0.13173859
v -0.051790323 1.2490698 -0.1365417
v -0.044542693 1.1343887 -0.063585095
v -0.0341223 1.1300503 -0.07626963
v -0.019974794 1.1264751 -0.08573898
v -0.025498793 1.1598736 -0.1100794
v 1.1230054E-24 1.1581521 -0.11468506
v -0.028380178 1.1929623 -0.13103628
v 3.8336053E-24 1.190636 -0.1355411
v -0.029300397 1.2261343 -0.14475212
v -0.045376036 1.1641327 -0.09860369
v -0.051799398 1.198263 -0.118550114
v 0.02600439 1.1244986 -0.013900655
v 0.016509635 1.1031052 -0.012360182
v -1.5500745E-24 1.1050624 -0.0058809975
v -2.0477346E-24 1.1273003 -0.00311053
v 0.023838608 1.098205 -0.029509915
v -1.2191576E-24 1.1550357 -0.0012329736
v 0.037031747 1.1176052 -0.03595675
v 0.04900861 1.1408155 -0.044216614
v 0.026034752 1.1095405 -0.05953943
v 0.016509634 1.0926756 -0.04775401
v -1.564777E-24 1.0902505 -0.05384545
v -2.0986414E-24 1.1053208 -0.070995614
v -1.2934989E-24 1.1247909 -0.09006886
v 0.019839613 1.1538653 -0.005355457
v 0.02538756 1.19435 -0.008123229
v 1.2295973E-24 1.1955336 -0.0035311813
v 0.033754945 1.1506194 -0.015237194
v 0.04474531 1.1463643 -0.027014896
v 0.058786716 1.1856935 -0.03650248
v 0.028540706 1.2357337 -0.014000139
v 3.9862037E-24 1.2367561 -0.009254908
v 5.8085588E-24 1.275529 -0.019018117
v 0.044685893 1.1911244 -0.020166015
v 0.05127426 1.2316637 -0.026739452
v 0.053015284 1.2674868 -0.03792423
v 0.06660073 1.223964 -0.046278436
v 0.029579142 1.2722694 -0.023858462
v 0.02991691 1.3001025 -0.04292413
v 7.817072E-24 1.3065649 -0.04080776
v 8.51068E-24 1.3241955 -0.07111635
v 0.07168003 1.2145187 -0.07150402
v 0.07425237 1.2468501 -0.08321888
v 0.06385658 1.1785295 -0.05812725
v 0.06668543 1.2054247 -0.09782137
v 0.058961894 1.1707633 -0.080487326
v 0.06887698 1.2578205 -0.05638276
v 0.0588649 1.2906897 -0.06906507
v 0.051504605 1.2832096 -0.044171315
v 0.035743356 1.3132207 -0.070172526
v 0.038651567 1.3112969 -0.106581725
v 8.612862E-24 1.3230779 -0.110872135
v 8.425268E-24 1.298381 -0.14205132
v 0.044542693 1.1343887 -0.063585095
v 0.0341223 1.1300503 -0.07626963
v 0.06275656 1.2857132 -0.09735502
v 0.05887039 1.2713555 -0.1222023
v 0.035735216 1.2893747 -0.1357171
v 0.029888675 1.2617776 -0.148298
v 7.46843E-24 1.2651947 -0.15350178
v 5.643149E-24 1.2255372 -0.1503226
v 0.019974794 1.1264751 -0.08573898
v 0.025498793 1.1598736 -0.1100794
v 1.1230054E-24 1.1581521 -0.11468506
v 0.028380178 1.1929623 -0.13103628
v 3.8336053E-24 1.190636 -0.1355411
v 0.045376036 1.1641327 -0.09860369
v 0.051799398 1.198263 -0.118550114
v 0.05349134 1.2322093 -0.13173859
v 0.029300397 1.2261343 -0.14475212
v 0.051790323 1.2490698 -0.1365417
v 0.06886228 1.2379091 -0.10944443
vt 0.87475216 0.63651717
vt 0.8935387 0.6545357
vt 0.9100306 0.6200995
vt 0.86695623 0.67697316
vt 0.88547826 0.61246836
vt 0.8657664 0.6089717
vt 0.88798535 0.58194953
vt 0.9134214 0.58194953
vt 0.9058585 0.5407498
vt 0.8834115 0.5472533
vt 0.8898891 0.5055942
vt 0.8677863 0.58194953
vt 0.8558719 0.6482197
vt 0.8314805 0.6526639
vt 0.84899056 0.6277867
vt 0.8314805 0.6848196
vt 0.79557407 0.67428595
vt 0.8641745 0.6201507
vt 0.8496717 0.58194953
vt 0.865118 0.5513992
vt 0.8494065 0.60512125
vt 0.8314805 0.60357887
vt 0.8314805 0.6294616
vt 0.8141955 0.62719876
vt 0.8072357 0.6470402
vt 0.7888454 0.63504505
vt 0.77037585 0.65174574
vt 0.75417066 0.6170882
vt 0.8592695 0.5182412
vt 0.8484297 0.5538869
vt 0.8314805 0.58194953
vt 0.8733492 0.51367176
vt 0.85270774 0.49629584
vt 0.87493753 0.484034
vt 0.8622407 0.46821567
vt 0.8481045 0.4761002
vt 0.8314805 0.48054346
vt 0.8461101 0.52155125
vt 0.8314805 0.5232682
vt 0.8314805 0.55508095
vt 0.8131199 0.58194953
vt 0.8314805 0.5014955
vt 0.808799 0.49886712
vt 0.81212926 0.47957656
vt 0.79774487 0.47306234
vt 0.78597 0.48945138
vt 0.77237463 0.5095208
vt 0.8144275 0.5548557
vt 0.8145664 0.604354
vt 0.79746723 0.60750455
vt 0.79928064 0.6188848
vt 0.81546843 0.52296853
vt 0.8023493 0.5206656
vt 0.78867173 0.5167273
vt 0.7790854 0.5501124
vt 0.75704324 0.5444312
vt 0.77512956 0.58194953
vt 0.7505008 0.58194953
vt 0.7778318 0.6100374
vt 0.79722273 0.55321616
vt 0.7952161 0.58194953
vt 0.85270774 0.49629584
vt 0.8481045 0.4761002
vt 0.8622407 0.46821567
vt 0.87493753 0.484034
vt 0.8314805 0.48054346
vt 0.8898891 0.5055942
vt 0.8314805 0.5014955
vt 0.8314805 0.5232682
vt 0.808799 0.49886712
vt 0.81212926 0.47957656
vt 0.79774487 0.47306234
vt 0.78597 0.48945138
vt 0.77237463 0.5095208
vt 0.8733492 0.51367176
vt 0.8834115 0.5472533
vt 0.9058585 0.5407498
vt 0.8592695 0.5182412
vt 0.8461101 0.52155125
vt 0.8484297 0.5538869
vt 0.88798535 0.58194953
vt 0.9134214 0.58194953
vt 0.9100306 0.6200995
vt 0.865118 0.5513992
vt 0.8677863 0.58194953
vt 0.8657664 0.6089717
vt 0.8496717 0.58194953
vt 0.88547826 0.61246836
vt 0.87475216 0.63651717
vt 0.8935387 0.6545357
vt 0.86695623 0.67697316
vt 0.8314805 0.58194953
vt 0.8314805 0.60357887
vt 0.8314805 0.55508095
vt 0.8131199 0.58194953
vt 0.8144275 0.5548557
vt 0.8494065 0.60512125
vt 0.84899056 0.6277867
vt 0.8641745 0.6201507
vt 0.8558719 0.6482197
vt 0.8314805 0.6526639
vt 0.8314805 0.6848196
vt 0.79557407 0.67428595
vt 0.81546843 0.52296853
vt 0.8023493 0.5206656
vt 0.8314805 0.6294616
vt 0.8141955 0.62719876
vt 0.8072357 0.6470402
vt 0.7888454 0.63504505
vt 0.77037585 0.65174574
vt 0.75417066 0.6170882
vt 0.78867173 0.5167273
vt 0.7790854 0.5501124
vt 0.75704324 0.5444312
vt 0.77512956 0.58194953
vt 0.7505008 0.58194953
vt 0.79722273 0.55321616
vt 0.7952161 0.58194953
vt 0.79746723 0.60750455
vt 0.7778318 0.6100374
vt 0.79928064 0.6188848
vt 0.8145664 0.604354
vn -0.412009 0.6715361 0.6158634
vn -0 0.75021744 0.6611912
vn -0 0.47417662 0.88042974
vn 1.6332187E-07 0.9693313 0.2457576
vn -0.38483107 0.43282446 0.8152104
vn -0.6846796 0.34572175 0.641631
vn -0.3712378 0.20932339 0.90463597
vn -0 0.23851897 0.9711378
vn 1.3199488E-07 0.06709642 0.9977464
vn -0.3736924 0.041283168 0.9266335
vn 2.733233E-07 -0.07125252 0.9974583
vn -0.6816448 0.13598885 0.71893483
vn -0.49773678 0.83179414 0.24571654
vn -0.54932284 0.7853996 -0.28529266
vn -0.7889214 0.555025 0.26372352
vn -0 0.9395877 -0.34230846
vn -0 0.5859066 -0.8103785
vn -0.654486 0.5342498 0.53500026
vn -0.9053915 0.034479246 0.4231754
vn -0.65876526 -0.025784325 0.7519066
vn -0.8975791 0.2730648 0.34610334
vn -0.98688006 0.15340078 -0.050358422
vn -0.8671249 0.46895224 -0.1678636
vn -0.78987193 0.26138422 -0.5547798
vn -0.49657 0.48231062 -0.72166103
vn -0.41014704 0.12717128 -0.90310955
vn -0 0.15771012 -0.98748547
vn -0 -0.18883917 -0.982008
vn -0.6324047 -0.14581771 0.7607901
vn -0.8651847 -0.131587 0.48388034
vn -0.994263 -0.09803131 0.04279018
vn -0.4189007 -0.099086106 0.9026097
vn -0.5968519 -0.26442194 0.7575281
vn 4.5620945E-07 -0.21820682 0.9759025
vn 3.2273786E-07 -0.31825963 0.9480036
vn -0.5442217 -0.3947945 0.74024326
vn -0.7657433 -0.6047817 0.21880639
vn -0.7910789 -0.23727028 0.5638235
vn -0.900135 -0.40771025 0.15339307
vn -0.95535564 -0.27529925 0.10726614
vn -0.911356 -0.2380399 -0.3358085
vn -0.8256738 -0.5295939 0.19440481
vn -0.5973672 -0.693504 -0.40274638
vn -0.5420743 -0.78095627 -0.31026244
vn 3.2121835E-07 -0.85656774 -0.51603454
vn 1.518558E-07 -0.80027413 -0.5996343
vn 2.7353113E-07 -0.70064926 -0.71350574
vn -0.87073827 -0.40840414 -0.27389947
vn -0.9012287 -0.0048966985 -0.43331605
vn -0.6886917 -0.13600567 -0.71218413
vn -0.6553551 0.07455471 -0.75163245
vn -0.7941184 -0.5452661 -0.2684416
vn -0.63578707 -0.60439354 -0.4800869
vn -0.4200601 -0.66098726 -0.6218081
vn -0.37589866 -0.5633108 -0.735786
vn 1.3228397E-07 -0.58867407 -0.8083704
vn -0.37320596 -0.41193125 -0.83128214
vn -0 -0.4312677 -0.902224
vn -0.3847228 -0.17936316 -0.90543765
vn -0.66534746 -0.5018548 -0.55267936
vn -0.6888464 -0.3494674 -0.6351089
vn 0.59685206 -0.26442188 0.7575279
vn 0.54422206 -0.3947944 0.740243
vn 3.2273786E-07 -0.31825963 0.9480036
vn 4.5620945E-07 -0.21820682 0.9759025
vn 0.7657435 -0.6047816 0.21880628
vn 2.733233E-07 -0.07125252 0.9974583
vn 0.8256738 -0.5295938 0.19440462
vn 0.900135 -0.40771016 0.1533932
vn 0.5973673 -0.693504 -0.40274635
vn 0.5420745 -0.7809562 -0.31026235
vn 3.2121835E-07 -0.85656774 -0.51603454
vn 1.518558E-07 -0.80027413 -0.5996343
vn 2.7353113E-07 -0.70064926 -0.71350574
vn 0.41890082 -0.09908608 0.9026096
vn 0.37369257 0.041283168 0.9266335
vn 1.3199488E-07 0.06709642 0.9977464
vn 0.6324045 -0.14581767 0.7607902
vn 0.7910789 -0.23727034 0.56382346
vn 0.86518455 -0.13158706 0.4838807
vn 0.37123802 0.2093234 0.9046359
vn -0 0.23851897 0.9711378
vn -0 0.47417662 0.88042974
vn 0.658765 -0.02578432 0.75190675
vn 0.68164474 0.13598882 0.71893495
vn 0.6846796 0.3457217 0.64163095
vn 0.9053914 0.03447938 0.4231755
vn 0.38483122 0.43282455 0.8152102
vn 0.41200915 0.6715361 0.61586326
vn -0 0.75021744 0.6611912
vn 1.6332187E-07 0.9693313 0.2457576
vn 0.994263 -0.09803131 0.042790316
vn 0.98688006 0.15340075 -0.050358273
vn 0.95535564 -0.27529922 0.10726628
vn 0.911356 -0.2380398 -0.3358085
vn 0.8707383 -0.408404 -0.2738994
vn 0.8975789 0.2730649 0.34610358
vn 0.7889214 0.555025 0.26372352
vn 0.654486 0.5342499 0.53500015
vn 0.49773672 0.8317942 0.24571651
vn 0.54932296 0.7853995 -0.28529269
vn -0 0.9395877 -0.34230846
vn -0 0.5859066 -0.8103785
vn 0.7941184 -0.545266 -0.2684417
vn 0.6357871 -0.60439336 -0.4800869
vn 0.8671249 0.46895224 -0.16786353
vn 0.7898719 0.26138437 -0.5547798
vn 0.49657026 0.48231074 -0.7216608
vn 0.4101471 0.12717141 -0.90310955
vn -0 0.15771012 -0.98748547
vn -0 -0.18883917 -0.982008
vn 0.42006028 -0.6609872 -0.6218082
vn 0.37589893 -0.56331074 -0.73578596
vn 1.3228397E-07 -0.58867407 -0.8083704
vn 0.3732061 -0.41193125 -0.8312821
vn -0 -0.4312677 -0.902224
vn 0.6653475 -0.5018547 -0.5526794
vn 0.68884647 -0.34946728 -0.6351089
vn 0.6886916 -0.13600558 -0.7121842
vn 0.38472298 -0.17936313 -0.9054375
vn 0.65535516 0.07455483 -0.7516323
vn 0.9012288 -0.004896698 -0.43331593
g pm0308_00_HairSkin_0
f 3/3/3 2/2/2 1/1/1
f 1/1/1 2/2/2 4/4/4
f 5/5/5 3/3/3 1/1/1
f 5/5/5 1/1/1 6/6/6
f 5/5/5 7/7/7 3/3/3
f 5/5/5 6/6/6 7/7/7
f 7/7/7 8/8/8 3/3/3
f 9/9/9 8/8/8 7/7/7
f 10/10/10 9/9/9 7/7/7
f 11/11/11 9/9/9 10/10/10
f 6/6/6 12/12/12 7/7/7
f 7/7/7 12/12/12 10/10/10
f 13/13/13 1/1/1 4/4/4
f 13/13/13 4/4/4 14/14/14
f 13/13/13 15/15/15 1/1/1
f 13/13/13 14/14/14 15/15/15
f 4/4/4 16/16/16 14/14/14
f 14/14/14 16/16/16 17/17/17
f 1/1/1 18/18/18 6/6/6
f 15/15/15 18/18/18 1/1/1
f 6/6/6 18/18/18 15/15/15
f 19/19/19 12/12/12 6/6/6
f 12/12/12 20/20/20 10/10/10
f 20/20/20 12/12/12 19/19/19
f 21/21/21 6/6/6 15/15/15
f 21/21/21 19/19/19 6/6/6
f 21/21/21 15/15/15 22/22/22
f 21/21/21 22/22/22 19/19/19
f 14/14/14 23/23/23 15/15/15
f 15/15/15 23/23/23 22/22/22
f 24/24/24 23/23/23 14/14/14
f 22/22/22 23/23/23 24/24/24
f 25/25/25 14/14/14 17/17/17
f 25/25/25 24/24/24 14/14/14
f 25/25/25 17/17/17 26/26/26
f 25/25/25 26/26/26 24/24/24
f 17/17/17 27/27/27 26/26/26
f 26/26/26 27/27/27 28/28/28
f 10/10/10 20/20/20 29/29/29
f 30/30/30 20/20/20 19/19/19
f 29/29/29 20/20/20 30/30/30
f 22/22/22 31/31/31 19/19/19
f 19/19/19 31/31/31 30/30/30
f 32/32/32 10/10/10 29/29/29
f 32/32/32 11/11/11 10/10/10
f 32/32/32 33/33/33 11/11/11
f 32/32/32 29/29/29 33/33/33
f 33/33/33 34/34/34 11/11/11
f 35/35/35 34/34/34 33/33/33
f 36/36/36 35/35/35 33/33/33
f 36/36/36 33/33/33 37/37/37
f 38/38/38 29/29/29 30/30/30
f 38/38/38 33/33/33 29/29/29
f 38/38/38 30/30/30 39/39/39
f 38/38/38 39/39/39 33/33/33
f 31/31/31 40/40/40 30/30/30
f 30/30/30 40/40/40 39/39/39
f 41/41/41 31/31/31 22/22/22
f 40/40/40 31/31/31 41/41/41
f 33/33/33 42/42/42 37/37/37
f 39/39/39 42/42/42 33/33/33
f 37/37/37 42/42/42 43/43/43
f 43/43/43 42/42/42 39/39/39
f 44/44/44 37/37/37 43/43/43
f 44/44/44 43/43/43 45/45/45
f 43/43/43 46/46/46 45/45/45
f 47/47/47 46/46/46 43/43/43
f 39/39/39 40/40/40 48/48/48
f 48/48/48 40/40/40 41/41/41
f 49/49/49 41/41/41 22/22/22
f 49/49/49 50/50/50 41/41/41
f 49/49/49 22/22/22 24/24/24
f 49/49/49 24/24/24 50/50/50
f 24/24/24 51/51/51 50/50/50
f 26/26/26 51/51/51 24/24/24
f 50/50/50 51/51/51 26/26/26
f 52/52/52 43/43/43 39/39/39
f 52/52/52 39/39/39 48/48/48
f 52/52/52 53/53/53 43/43/43
f 52/52/52 48/48/48 53/53/53
f 54/54/54 47/47/47 43/43/43
f 54/54/54 43/43/43 53/53/53
f 54/54/54 55/55/55 47/47/47
f 54/54/54 53/53/53 55/55/55
f 55/55/55 56/56/56 47/47/47
f 55/55/55 57/57/57 56/56/56
f 57/57/57 58/58/58 56/56/56
f 28/28/28 58/58/58 57/57/57
f 59/59/59 26/26/26 28/28/28
f 59/59/59 50/50/50 26/26/26
f 59/59/59 28/28/28 57/57/57
f 59/59/59 57/57/57 50/50/50
f 53/53/53 60/60/60 55/55/55
f 48/48/48 60/60/60 53/53/53
f 55/55/55 60/60/60 57/57/57
f 57/57/57 61/61/61 50/50/50
f 60/60/60 61/61/61 57/57/57
f 61/61/61 60/60/60 48/48/48
f 50/50/50 61/61/61 41/41/41
f 41/41/41 61/61/61 48/48/48
f 64/64/64 63/63/63 62/62/62
f 65/65/65 64/64/64 62/62/62
f 62/62/62 63/63/63 66/66/66
f 65/65/65 62/62/62 67/67/67
f 68/68/68 62/62/62 66/66/66
f 68/68/68 69/69/69 62/62/62
f 68/68/68 66/66/66 70/70/70
f 68/68/68 70/70/70 69/69/69
f 66/66/66 71/71/71 70/70/70
f 70/70/70 71/71/71 72/72/72
f 73/73/73 70/70/70 72/72/72
f 73/73/73 74/74/74 70/70/70
f 62/62/62 75/75/75 67/67/67
f 67/67/67 75/75/75 76/76/76
f 77/77/77 67/67/67 76/76/76
f 78/78/78 75/75/75 62/62/62
f 76/76/76 75/75/75 78/78/78
f 69/69/69 79/79/79 62/62/62
f 62/62/62 79/79/79 78/78/78
f 78/78/78 79/79/79 80/80/80
f 80/80/80 79/79/79 69/69/69
f 77/77/77 76/76/76 81/81/81
f 82/82/82 77/77/77 81/81/81
f 82/82/82 81/81/81 83/83/83
f 84/84/84 76/76/76 78/78/78
f 84/84/84 78/78/78 80/80/80
f 84/84/84 85/85/85 76/76/76
f 85/85/85 81/81/81 76/76/76
f 85/85/85 86/86/86 81/81/81
f 85/85/85 84/84/84 87/87/87
f 84/84/84 80/80/80 87/87/87
f 85/85/85 87/87/87 86/86/86
f 81/81/81 88/88/88 83/83/83
f 86/86/86 88/88/88 81/81/81
f 83/83/83 88/88/88 89/89/89
f 89/89/89 88/88/88 86/86/86
f 90/90/90 83/83/83 89/89/89
f 90/90/90 89/89/89 91/91/91
f 92/92/92 87/87/87 80/80/80
f 92/92/92 93/93/93 87/87/87
f 94/94/94 92/92/92 80/80/80
f 94/94/94 80/80/80 69/69/69
f 92/92/92 94/94/94 95/95/95
f 92/92/92 95/95/95 93/93/93
f 94/94/94 69/69/69 96/96/96
f 94/94/94 96/96/96 95/95/95
f 87/87/87 97/97/97 86/86/86
f 93/93/93 97/97/97 87/87/87
f 86/86/86 97/97/97 98/98/98
f 98/98/98 97/97/97 93/93/93
f 99/99/99 89/89/89 86/86/86
f 99/99/99 86/86/86 98/98/98
f 99/99/99 98/98/98 89/89/89
f 89/89/89 100/100/100 91/91/91
f 98/98/98 100/100/100 89/89/89
f 91/91/91 100/100/100 101/101/101
f 101/101/101 100/100/100 98/98/98
f 102/102/102 91/91/91 101/101/101
f 102/102/102 101/101/101 103/103/103
f 69/69/69 104/104/104 96/96/96
f 70/70/70 104/104/104 69/69/69
f 105/105/105 104/104/104 70/70/70
f 96/96/96 104/104/104 105/105/105
f 106/106/106 98/98/98 93/93/93
f 106/106/106 101/101/101 98/98/98
f 106/106/106 93/93/93 107/107/107
f 106/106/106 107/107/107 101/101/101
f 101/101/101 108/108/108 103/103/103
f 107/107/107 108/108/108 101/101/101
f 103/103/103 108/108/108 109/109/109
f 109/109/109 108/108/108 107/107/107
f 110/110/110 103/103/103 109/109/109
f 110/110/110 109/109/109 111/111/111
f 70/70/70 112/112/112 105/105/105
f 74/74/74 112/112/112 70/70/70
f 113/113/113 112/112/112 74/74/74
f 105/105/105 112/112/112 113/113/113
f 114/114/114 113/113/113 74/74/74
f 115/115/115 113/113/113 114/114/114
f 116/116/116 115/115/115 114/114/114
f 116/116/116 111/111/111 115/115/115
f 117/117/117 105/105/105 113/113/113
f 117/117/117 113/113/113 115/115/115
f 117/117/117 96/96/96 105/105/105
f 117/117/117 118/118/118 96/96/96
f 118/118/118 117/117/117 115/115/115
f 118/118/118 115/115/115 119/119/119
f 118/118/118 95/95/95 96/96/96
f 118/118/118 119/119/119 95/95/95
f 111/111/111 120/120/120 115/115/115
f 115/115/115 120/120/120 119/119/119
f 109/109/109 120/120/120 111/111/111
f 119/119/119 120/120/120 109/109/109
f 121/121/121 119/119/119 109/109/109
f 121/121/121 109/109/109 107/107/107
f 121/121/121 107/107/107 119/119/119
f 119/119/119 122/122/122 95/95/95
f 107/107/107 122/122/122 119/119/119
f 95/95/95 122/122/122 93/93/93
f 93/93/93 122/122/122 107/107/107
