g pm0354_51_ToothSkin
v -0.05690083 0.83986443 0.23170434
v 2.842171E-16 0.8379158 0.2365062
v 2.842171E-16 0.8804795 0.25962216
v -0.057202544 0.88272786 0.25425145
v -0.10943856 0.8869911 0.24083823
v -0.111579284 0.84641063 0.21807544
v -0.15575406 0.893789 0.22126226
v -0.15748459 0.85619694 0.1972644
v -0.1982522 0.86895394 0.16957244
v -0.19695327 0.9060954 0.19407995
v -0.23090377 0.9422103 0.16140147
v -0.2287452 0.90358627 0.14817998
v -0.057778012 0.837588 0.2359549
v 8.881784E-18 0.87817025 0.26393932
v 8.881784E-18 0.8356065 0.24082336
v -0.058079727 0.8804515 0.258502
v -0.11112702 0.8847655 0.24486297
v -0.11326774 0.8441851 0.22210018
v -0.1582508 0.8916464 0.22488719
v -0.15998134 0.8540544 0.20088933
v -0.20151883 0.8671639 0.17274334
v -0.20021991 0.9043054 0.19725084
v -0.2345351 0.94070774 0.16435891
v -0.23237653 0.9020837 0.15113746
v 1.8431005E-31 0.87817025 0.26393932
v -0.057202544 0.88272786 0.25425145
v 1.843234E-31 0.8804795 0.25962216
v -0.058079727 0.8804515 0.258502
v -0.10943856 0.8869911 0.24083823
v -0.11112702 0.8847655 0.24486297
v -0.15575406 0.893789 0.22126226
v -0.1582508 0.8916464 0.22488719
v -0.19695327 0.9060954 0.19407995
v -0.20021991 0.9043054 0.19725084
v -0.23090377 0.9422103 0.16140147
v -0.2345351 0.94070774 0.16435891
v -0.2345351 0.94070774 0.16435891
v -0.23237653 0.9020837 0.15113746
v -0.2287452 0.90358627 0.14818
v -0.23090377 0.9422103 0.16140147
v 0.05690083 0.83986443 0.23170434
v 2.842171E-16 0.8804795 0.25962216
v 2.842171E-16 0.8379158 0.2365062
v 0.057202544 0.88272786 0.25425145
v 0.10943856 0.8869911 0.24083823
v 0.111579284 0.84641063 0.21807544
v 0.15575406 0.893789 0.22126226
v 0.15748459 0.85619694 0.1972644
v 0.1982522 0.86895394 0.16957244
v 0.19695327 0.9060954 0.19407995
v 0.23090377 0.9422103 0.16140147
v 0.2287452 0.90358627 0.14817998
v 0.057778012 0.837588 0.2359549
v 8.881784E-18 0.8356065 0.24082336
v 8.881784E-18 0.87817025 0.26393932
v 0.058079727 0.8804515 0.258502
v 0.11112702 0.8847655 0.24486297
v 0.11326774 0.8441851 0.22210018
v 0.1582508 0.8916464 0.22488719
v 0.15998134 0.8540544 0.20088933
v 0.20151883 0.8671639 0.17274334
v 0.20021991 0.9043054 0.19725084
v 0.2345351 0.94070774 0.16435891
v 0.23237653 0.9020837 0.15113746
v 1.8431005E-31 0.87817025 0.26393932
v 1.843234E-31 0.8804795 0.25962216
v 0.057202544 0.88272786 0.25425145
v 0.058079727 0.8804515 0.258502
v 0.10943856 0.8869911 0.24083823
v 0.11112702 0.8847655 0.24486297
v 0.15575406 0.893789 0.22126226
v 0.1582508 0.8916464 0.22488719
v 0.19695327 0.9060954 0.19407995
v 0.20021991 0.9043054 0.19725084
v 0.23090377 0.9422103 0.16140147
v 0.2345351 0.94070774 0.16435891
v 0.2345351 0.94070774 0.16435891
v 0.23090377 0.9422103 0.16140147
v 0.2287452 0.90358627 0.14818
v 0.23237653 0.9020837 0.15113746
vt 0.4516285 0.8828125
vt 0.46875 0.8828125
vt 0.46875 0.85546875
vt 0.4516285 0.85546875
vt 0.43632987 0.85546875
vt 0.4352029 0.8828125
vt 0.42124012 0.85546875
vt 0.4197932 0.8828125
vt 0.40441018 0.8828125
vt 0.4055463 0.85546875
vt 0.38860804 0.84719646
vt 0.3907781 0.8711865
vt 0.45162866 0.8984375
vt 0.46875 0.92578125
vt 0.46875 0.8984375
vt 0.45162868 0.92578125
vt 0.4362207 0.92578125
vt 0.43511456 0.8984375
vt 0.42105898 0.92578125
vt 0.41964445 0.8984375
vt 0.40420192 0.8984375
vt 0.40529913 0.92578125
vt 0.38836473 0.93536806
vt 0.39025825 0.9113251
vt 0.46875 0.92578125
vt 0.4516287 0.9296875
vt 0.46874994 0.9296875
vt 0.45162868 0.92578125
vt 0.43633008 0.9296875
vt 0.4362207 0.92578125
vt 0.42124033 0.9296875
vt 0.42105898 0.92578125
vt 0.40554652 0.9296875
vt 0.40529913 0.92578125
vt 0.3886082 0.9382329
vt 0.38836473 0.93536806
vt 0.38836473 0.93536806
vt 0.39025825 0.9113251
vt 0.38879833 0.91102934
vt 0.3869065 0.9350736
vt 0.4516285 0.8828125
vt 0.46875 0.85546875
vt 0.46875 0.8828125
vt 0.4516285 0.85546875
vt 0.43632984 0.85546875
vt 0.4352029 0.8828125
vt 0.4212401 0.85546875
vt 0.4197932 0.8828125
vt 0.40441018 0.8828125
vt 0.4055463 0.85546875
vt 0.38860804 0.84719646
vt 0.39077806 0.8711865
vt 0.45162868 0.8984375
vt 0.46875 0.8984375
vt 0.46875 0.92578125
vt 0.45162868 0.92578125
vt 0.4362207 0.92578125
vt 0.43511456 0.8984375
vt 0.421059 0.92578125
vt 0.41964447 0.8984375
vt 0.40420192 0.8984375
vt 0.40529913 0.92578125
vt 0.38836473 0.93536806
vt 0.39025825 0.9113251
vt 0.46875 0.92578125
vt 0.46874994 0.9296875
vt 0.45162868 0.9296875
vt 0.45162868 0.92578125
vt 0.43633008 0.9296875
vt 0.4362207 0.92578125
vt 0.42124033 0.9296875
vt 0.421059 0.92578125
vt 0.40554655 0.9296875
vt 0.40529913 0.92578125
vt 0.38860822 0.9382329
vt 0.38836473 0.93536806
vt 0.38836473 0.93536806
vt 0.3869065 0.9350736
vt 0.38879836 0.91102934
vt 0.39025825 0.9113251
vn 0.17717311 0.46899486 -0.8652477
vn -0 0.47348002 -0.88080454
vn -0 0.4734802 -0.88080454
vn 0.17717311 0.46899486 -0.8652477
vn 0.34977904 0.45536447 -0.8187172
vn 0.34977904 0.45536447 -0.8187172
vn 0.5178085 0.42370778 -0.74319994
vn 0.5178083 0.4237078 -0.7432
vn 0.6602815 0.36763895 -0.6548817
vn 0.6602815 0.36763895 -0.6548817
vn 0.7302743 0.3254402 -0.6006564
vn 0.7302743 0.3254402 -0.6006564
vn -0.17717893 -0.4689921 0.8652479
vn -0 -0.47347918 0.880805
vn -0 -0.47347918 0.880805
vn -0.17717896 -0.46899214 0.8652479
vn -0.34980103 -0.45535412 0.8187135
vn -0.349801 -0.45535415 0.81871355
vn -0.51766354 -0.4237335 0.74328625
vn -0.51766354 -0.4237334 0.74328625
vn -0.65974003 -0.36783594 0.65531653
vn -0.65974003 -0.36783594 0.65531653
vn -0.72947276 -0.32580933 0.60142964
vn -0.72947276 -0.32580933 0.60142964
vn -0 0.8828617 0.46963325
vn -0.026163984 0.8826583 0.46928638
vn -0 0.8828617 0.46963325
vn -0.026163924 0.8826583 0.46928638
vn -0.03910071 0.8798464 0.47364694
vn -0.03910071 0.8798464 0.47364694
vn -0.010528316 0.86636317 0.49930355
vn -0.010528316 0.8663632 0.4993035
vn 0.07053529 0.8298917 0.55344796
vn 0.07053515 0.8298917 0.55344796
vn 0.1353787 0.79404205 0.5925958
vn 0.13537881 0.79404205 0.5925958
vn -0.66791874 0.2073461 -0.7147673
vn -0.66791874 0.2073461 -0.7147673
vn -0.66791874 0.2073461 -0.7147673
vn -0.66791874 0.2073461 -0.7147673
vn -0.17717311 0.46899474 -0.8652477
vn -0 0.4734802 -0.88080454
vn -0 0.47348002 -0.88080454
vn -0.1771731 0.4689946 -0.8652477
vn -0.34977895 0.4553644 -0.81871724
vn -0.34977895 0.4553644 -0.81871724
vn -0.5178082 0.42370772 -0.7432002
vn -0.5178082 0.42370772 -0.7432002
vn -0.6602812 0.3676389 -0.6548819
vn -0.6602812 0.3676389 -0.6548819
vn -0.73027396 0.3254403 -0.6006568
vn -0.73027396 0.3254403 -0.6006568
vn 0.17717883 -0.4689922 0.8652479
vn -0 -0.47347918 0.880805
vn -0 -0.47347918 0.880805
vn 0.17717896 -0.4689922 0.8652479
vn 0.34980106 -0.4553542 0.8187135
vn 0.34980106 -0.4553542 0.8187135
vn 0.5176634 -0.42373353 0.7432863
vn 0.5176634 -0.42373353 0.7432863
vn 0.65974 -0.36783594 0.6553167
vn 0.65974 -0.36783594 0.6553167
vn 0.7294726 -0.32580915 0.6014301
vn 0.7294726 -0.32580915 0.6014301
vn -0 0.8828617 0.46963325
vn -0 0.8828617 0.46963325
vn 0.026163984 0.8826571 0.4692887
vn 0.026163992 0.8826571 0.4692888
vn 0.03910095 0.879846 0.47364777
vn 0.039100952 0.879846 0.4736477
vn 0.010528555 0.8663639 0.49930242
vn 0.010528555 0.8663639 0.49930242
vn -0.07053473 0.82989234 0.55344695
vn -0.07053473 0.82989234 0.55344695
vn -0.13537805 0.79404235 0.5925956
vn -0.13537803 0.7940424 0.59259546
vn 0.6679194 0.20734455 -0.7147671
vn 0.6679194 0.20734455 -0.7147671
vn 0.6679194 0.20734455 -0.7147671
vn 0.6679194 0.20734455 -0.7147671
g pm0354_51_ToothSkin_0
f 3/3/3 2/2/2 1/1/1
f 4/4/4 3/3/3 1/1/1
f 4/4/4 1/1/1 5/5/5
f 1/1/1 6/6/6 5/5/5
f 5/5/5 6/6/6 7/7/7
f 6/6/6 8/8/8 7/7/7
f 7/7/7 8/8/8 9/9/9
f 10/10/10 7/7/7 9/9/9
f 11/11/11 10/10/10 9/9/9
f 12/12/12 11/11/11 9/9/9
f 15/15/15 14/14/14 13/13/13
f 14/14/14 16/16/16 13/13/13
f 13/13/13 16/16/16 17/17/17
f 18/18/18 13/13/13 17/17/17
f 18/18/18 17/17/17 19/19/19
f 20/20/20 18/18/18 19/19/19
f 20/20/20 19/19/19 21/21/21
f 19/19/19 22/22/22 21/21/21
f 22/22/22 23/23/23 21/21/21
f 23/23/23 24/24/24 21/21/21
f 27/27/27 26/26/26 25/25/25
f 26/26/26 28/28/28 25/25/25
f 26/26/26 29/29/29 28/28/28
f 29/29/29 30/30/30 28/28/28
f 29/29/29 31/31/31 30/30/30
f 31/31/31 32/32/32 30/30/30
f 31/31/31 33/33/33 32/32/32
f 33/33/33 34/34/34 32/32/32
f 33/33/33 35/35/35 34/34/34
f 35/35/35 36/36/36 34/34/34
f 39/39/39 38/38/38 37/37/37
f 40/40/40 39/39/39 37/37/37
f 43/43/43 42/42/42 41/41/41
f 42/42/42 44/44/44 41/41/41
f 41/41/41 44/44/44 45/45/45
f 46/46/46 41/41/41 45/45/45
f 46/46/46 45/45/45 47/47/47
f 48/48/48 46/46/46 47/47/47
f 48/48/48 47/47/47 49/49/49
f 47/47/47 50/50/50 49/49/49
f 50/50/50 51/51/51 49/49/49
f 51/51/51 52/52/52 49/49/49
f 55/55/55 54/54/54 53/53/53
f 56/56/56 55/55/55 53/53/53
f 56/56/56 53/53/53 57/57/57
f 53/53/53 58/58/58 57/57/57
f 57/57/57 58/58/58 59/59/59
f 58/58/58 60/60/60 59/59/59
f 59/59/59 60/60/60 61/61/61
f 62/62/62 59/59/59 61/61/61
f 63/63/63 62/62/62 61/61/61
f 64/64/64 63/63/63 61/61/61
f 67/67/67 66/66/66 65/65/65
f 68/68/68 67/67/67 65/65/65
f 69/69/69 67/67/67 68/68/68
f 70/70/70 69/69/69 68/68/68
f 71/71/71 69/69/69 70/70/70
f 72/72/72 71/71/71 70/70/70
f 73/73/73 71/71/71 72/72/72
f 74/74/74 73/73/73 72/72/72
f 75/75/75 73/73/73 74/74/74
f 76/76/76 75/75/75 74/74/74
f 79/79/79 78/78/78 77/77/77
f 80/80/80 79/79/79 77/77/77
