g pm0354_51_LZipperSkin
v -0.019696366 0.5792496 -0.12663177
v -3.799796E-09 0.6123744 -0.10085617
v -0.019696366 0.6123744 -0.10085617
v -3.7997965E-09 0.5792496 -0.12663177
v 0.019696359 0.5792496 -0.12663177
v 0.019696359 0.6123744 -0.10085617
v 0.01969636 0.5304652 -0.15775202
v -2.6077034E-09 0.5304652 -0.15775202
v -0.019696366 0.5304652 -0.15775202
v 0.019696359 0.48107633 -0.18258527
v -3.7997965E-09 0.48107633 -0.18258527
v -0.019696366 0.48107633 -0.18258527
v 0.019696359 0.42498696 -0.20104037
v -3.799796E-09 0.42498696 -0.20104037
v -0.019696366 0.42498696 -0.20104037
v 0.019696359 0.36365324 -0.20858996
v -0.019696366 0.36365324 -0.20858996
v -3.7997956E-09 0.36365324 -0.20858996
v 0.019696359 0.30287093 -0.20278822
v -3.7997956E-09 0.30287096 -0.20278822
v -0.019696366 0.30287096 -0.20278822
v 0.019696359 0.24744356 -0.18279774
v -3.799795E-09 0.24744356 -0.18279774
v -0.019696366 0.24744356 -0.18279774
v 0.019696359 0.20208542 -0.14914188
v -3.7997947E-09 0.20208542 -0.14914188
v -0.019696366 0.20208542 -0.14914188
v 0.019696359 0.1678084 -0.10522308
v -3.7997947E-09 0.1678084 -0.10522308
v -0.019696366 0.1678084 -0.10522308
v 0.019696355 0.14717239 -0.05437126
v -4.991888E-09 0.14717239 -0.05437126
v -0.019696366 0.14717239 -0.05437126
v 0.019696359 0.140276 1.013279E-08
v -0.019696366 0.140276 1.013279E-08
v -3.7997947E-09 0.140276 1.013279E-08
v 0.019696355 0.14717239 0.05437128
v -4.991888E-09 0.14717239 0.05437128
v -0.019696366 0.14717239 0.05437128
v 0.019696359 0.1678084 0.1052231
v -0.019696366 0.1678084 0.1052231
v -3.7997947E-09 0.1678084 0.1052231
v 0.019696359 0.20208542 0.1491419
v -0.019696366 0.20208542 0.1491419
v -3.7997947E-09 0.20208542 0.1491419
v 0.019696359 0.24744356 0.18279779
v -0.019696366 0.24744356 0.18279779
v -3.799795E-09 0.24744356 0.18279779
v -0.019696366 0.30287096 0.20278825
v 0.019696359 0.30287093 0.20278825
v -3.7997956E-09 0.30287096 0.20278825
v -0.019696366 0.36365324 0.20858999
v -3.7997956E-09 0.36365324 0.20858999
v 0.019696359 0.36365324 0.20858999
v 0.019696359 0.42498696 0.20104042
v -3.8743018E-09 0.42498696 0.20104042
v -0.019696366 0.42498696 0.20104042
v -0.019696366 0.48107633 0.18258531
v -3.874302E-09 0.48107633 0.18258531
v -2.6077034E-09 0.5304652 0.15775204
v 0.019696359 0.48107633 0.18258531
v -0.019696366 0.5304652 0.15775204
v 0.01969636 0.5304652 0.15775204
v 0.019696359 0.5792496 0.12663178
v -0.019696366 0.5792496 0.12663178
v -3.7997965E-09 0.5792496 0.12663178
v 0.019696359 0.6123744 0.100856185
v -3.799796E-09 0.6123744 0.100856185
v -0.019696366 0.6123744 0.100856185
v -0.019696366 0.5792496 -0.12663177
v -0.019696366 0.6123744 -0.10085617
v -0.019696366 0.60902286 -0.096549
v -0.019696366 0.57610625 -0.12217762
v -0.019696366 0.5304652 -0.15775202
v -0.019696366 0.52777183 -0.15301353
v -0.019696366 0.48107633 -0.18258527
v -0.019696366 0.47899768 -0.17755528
v -0.019696366 0.42498696 -0.20104037
v -0.019696366 0.42380074 -0.19573997
v -0.019696366 0.36365324 -0.20858996
v -0.019696366 0.36357918 -0.20316519
v -0.019696366 0.30287096 -0.20278822
v -0.019696366 0.30405602 -0.19750486
v -0.019696366 0.24744356 -0.18279774
v -0.019696366 0.24999537 -0.17803942
v -0.019696366 0.20208542 -0.14914188
v -0.019696366 0.2058626 -0.14527157
v -0.019696366 0.1678084 -0.10522308
v -0.019696366 0.17248806 -0.10251809
v -0.019696366 0.14717239 -0.05437126
v -0.019696366 0.15240799 -0.053001806
v -0.019696366 0.140276 1.013279E-08
v -0.019696366 0.14569017 1.0095537E-08
v -0.019696366 0.14717239 0.05437128
v -0.019696366 0.15240799 0.05300183
v -0.019696366 0.1678084 0.1052231
v -0.019696366 0.17248806 0.10251811
v -0.019696366 0.20208542 0.1491419
v -0.019696366 0.2058626 0.1452716
v -0.019696366 0.24744356 0.18279779
v -0.019696366 0.24999537 0.17803945
v -0.019696366 0.30287096 0.20278825
v -0.019696366 0.30405602 0.1975049
v -0.019696366 0.36365324 0.20858999
v -0.019696366 0.36357918 0.20316522
v -0.019696366 0.42498696 0.20104042
v -0.019696366 0.42380074 0.19574001
v -0.019696366 0.48107633 0.18258531
v -0.019696366 0.47899768 0.17755531
v -0.019696366 0.5304652 0.15775204
v -0.019696366 0.52777183 0.15301356
v -0.019696366 0.5792496 0.12663178
v -0.019696366 0.57610625 0.122177646
v -0.019696366 0.6123744 0.100856185
v -0.019696366 0.60902286 0.09654901
vt 0.026182353 0.890625
vt 0.01562494 0.9003341
vt 0.01562494 0.890625
vt 0.026182353 0.9003341
vt 0.026182353 0.91015625
vt 0.01562494 0.91015625
vt 0.041126132 0.91015625
vt 0.041126132 0.9003341
vt 0.041126132 0.890625
vt 0.055375695 0.91015625
vt 0.055375695 0.9003341
vt 0.055375695 0.890625
vt 0.07059342 0.91015625
vt 0.07059342 0.9003341
vt 0.07059342 0.890625
vt 0.0865193 0.91015625
vt 0.0865193 0.890625
vt 0.0865193 0.9003341
vt 0.10226071 0.91015625
vt 0.10226071 0.9003341
vt 0.10226071 0.890625
vt 0.11744172 0.91015625
vt 0.11744172 0.9003341
vt 0.11744172 0.890625
vt 0.13198799 0.91015625
vt 0.13198799 0.9003341
vt 0.13198799 0.890625
vt 0.14633662 0.91015625
vt 0.14633656 0.9003341
vt 0.14633662 0.890625
vt 0.16046691 0.91015625
vt 0.16046691 0.9003341
vt 0.16046691 0.890625
vt 0.17458159 0.91015625
vt 0.17458159 0.890625
vt 0.17458165 0.9003341
vt 0.1886909 0.91015625
vt 0.1886909 0.9003341
vt 0.1886909 0.890625
vt 0.20281011 0.91015625
vt 0.20281011 0.890625
vt 0.20281017 0.9003341
vt 0.21714747 0.91015625
vt 0.21714747 0.890625
vt 0.21714747 0.9003341
vt 0.23167449 0.91015625
vt 0.23167443 0.890625
vt 0.23167449 0.9003341
vt 0.24683315 0.890625
vt 0.24683309 0.91015625
vt 0.24683309 0.9003341
vt 0.26254123 0.890625
vt 0.26254117 0.9003341
vt 0.26254117 0.91015625
vt 0.27843946 0.91015625
vt 0.27843946 0.9003341
vt 0.27843952 0.890625
vt 0.29363072 0.890625
vt 0.29363072 0.9003341
vt 0.3078583 0.9003341
vt 0.29363072 0.91015625
vt 0.3078583 0.890625
vt 0.3078583 0.91015625
vt 0.3227601 0.91015625
vt 0.32276005 0.890625
vt 0.32276005 0.9003341
vt 0.33398438 0.91015625
vt 0.33398438 0.9003341
vt 0.33398438 0.890625
vt 0.026182353 0.890625
vt 0.01562494 0.890625
vt 0.01562494 0.88671875
vt 0.026182353 0.88671875
vt 0.041126132 0.890625
vt 0.041126132 0.88671875
vt 0.055375695 0.890625
vt 0.055375695 0.88671875
vt 0.07059342 0.890625
vt 0.07059342 0.88671875
vt 0.0865193 0.890625
vt 0.0865193 0.88671875
vt 0.10226071 0.890625
vt 0.10226071 0.88671875
vt 0.11744172 0.890625
vt 0.11744172 0.88671875
vt 0.13198799 0.890625
vt 0.13198799 0.88671875
vt 0.14633662 0.890625
vt 0.14633656 0.88671875
vt 0.16046691 0.890625
vt 0.16046691 0.88671875
vt 0.17458159 0.890625
vt 0.17458153 0.88671875
vt 0.1886909 0.890625
vt 0.1886909 0.88671875
vt 0.20281011 0.890625
vt 0.20281017 0.88671875
vt 0.21714747 0.890625
vt 0.21714747 0.88671875
vt 0.23167443 0.890625
vt 0.23167443 0.88671875
vt 0.24683315 0.890625
vt 0.24683309 0.88671875
vt 0.26254123 0.890625
vt 0.26254117 0.88671875
vt 0.27843952 0.890625
vt 0.27843952 0.88671875
vt 0.29363072 0.890625
vt 0.29363072 0.88671875
vt 0.3078583 0.890625
vt 0.30785835 0.88671875
vt 0.32276005 0.890625
vt 0.32276 0.88671875
vt 0.33398438 0.890625
vt 0.33398438 0.88671875
vn -0 0.5528535 -0.8332785
vn -0 0.5898646 -0.8075021
vn -0 0.5867912 -0.80973834
vn -0 0.5554912 -0.83152235
vn -0 0.55285347 -0.8332786
vn -0 0.58679116 -0.8097384
vn -0 0.47667384 -0.87908024
vn -0 0.4788959 -0.87787163
vn -0 0.47667396 -0.87908024
vn -0 0.35962716 -0.9330961
vn -0 0.36187735 -0.9322257
vn -0 0.3596271 -0.9330961
vn -0 0.1988871 -0.98002243
vn -0 0.20098832 -0.97959363
vn -0 0.1988871 -0.98002243
vn -2.4538508E-07 -0.0029869496 -0.9999956
vn -0 -0.0029868884 -0.9999956
vn -1.8345717E-07 -0.0011579817 -0.9999994
vn -1.8549156E-07 -0.23542148 -0.97189337
vn -1.231771E-07 -0.23396832 -0.97224426
vn -0 -0.23542154 -0.97189337
vn -0 -0.47779816 -0.8784697
vn -0 -0.47721088 -0.8787888
vn -0 -0.47779816 -0.8784696
vn -0 -0.69683605 -0.71723056
vn -0 -0.69688153 -0.7171862
vn -0 -0.696836 -0.71723056
vn -0 -0.8641197 -0.5032862
vn -0 -0.8642898 -0.50299406
vn -0 -0.8641197 -0.5032863
vn -0 -0.9661905 -0.25782928
vn -0 -0.9662813 -0.2574885
vn -0 -0.9661905 -0.25782922
vn -0 -1 0
vn -0 -1 0
vn -0 -1 0
vn -0 -0.9661905 0.2578292
vn -0 -0.9662813 0.25748852
vn -0 -0.9661905 0.25782922
vn -0 -0.8641197 0.5032862
vn -0 -0.8641197 0.5032862
vn -0 -0.86428976 0.5029941
vn -0 -0.69683605 0.71723044
vn -0 -0.69683605 0.71723044
vn -0 -0.69688165 0.71718615
vn -0 -0.4777983 0.8784696
vn -0 -0.47779825 0.8784696
vn -0 -0.47721094 0.87878877
vn -0 -0.2354216 0.97189337
vn -2.473221E-07 -0.23542163 0.97189337
vn -1.231771E-07 -0.23396832 0.97224426
vn -0 -0.0029868884 0.9999956
vn -1.223048E-07 -0.0011579817 0.9999994
vn -1.8403881E-07 -0.0029868884 0.9999956
vn -0 0.1988871 0.98002243
vn -0 0.20098832 0.97959363
vn -0 0.19888721 0.9800223
vn -0 0.35962716 0.9330961
vn -0 0.36187738 0.9322257
vn -0 0.47889608 0.8778716
vn -0 0.35962716 0.9330961
vn -0 0.47667384 0.87908024
vn -0 0.4766739 0.87908024
vn -0 0.55285347 0.8332785
vn -0 0.55285347 0.8332785
vn -0 0.5554912 0.83152235
vn -0 0.58679116 0.80973834
vn -0 0.5898646 0.8075021
vn -0 0.58679116 0.8097384
vn -1 0 0
vn -1 0 0
vn -1 0 0
vn -1 0 0
vn -1 0 0
vn -1 0 0
vn -1 0 0
vn -1 0 0
vn -1 0 0
vn -1 0 0
vn -1 0 0
vn -1 0 0
vn -1 0 0
vn -1 0 0
vn -1 0 0
vn -1 0 0
vn -1 0 0
vn -1 0 0
vn -1 0 0
vn -1 0 0
vn -1 0 0
vn -1 0 0
vn -1 0 0
vn -1 0 0
vn -1 0 0
vn -1 0 0
vn -1 0 0
vn -1 0 0
vn -1 0 0
vn -1 0 0
vn -1 -1.1920929E-07 0
vn -1 -1.1920929E-07 0
vn -1 0 0
vn -1 0 0
vn -1 0 0
vn -1 0 0
vn -1 0 0
vn -1 0 0
vn -1 0 0
vn -1 0 0
vn -1 1.1920929E-07 0
vn -1 1.1920929E-07 0
vn -1 2.3841858E-07 0
vn -1 2.3841858E-07 0
vn -1 2.3841858E-07 0
vn -1 2.3841858E-07 0
g pm0354_51_LZipperSkin_0
f 3/3/3 2/2/2 1/1/1
f 2/2/2 4/4/4 1/1/1
f 5/5/5 4/4/4 2/2/2
f 6/6/6 5/5/5 2/2/2
f 5/5/5 7/7/7 4/4/4
f 4/4/4 8/8/8 1/1/1
f 7/7/7 8/8/8 4/4/4
f 8/8/8 9/9/9 1/1/1
f 8/8/8 7/7/7 10/10/10
f 9/9/9 8/8/8 11/11/11
f 11/11/11 8/8/8 10/10/10
f 12/12/12 9/9/9 11/11/11
f 11/11/11 10/10/10 13/13/13
f 12/12/12 11/11/11 14/14/14
f 14/14/14 11/11/11 13/13/13
f 15/15/15 12/12/12 14/14/14
f 13/13/13 16/16/16 14/14/14
f 15/15/15 14/14/14 17/17/17
f 16/16/16 18/18/18 14/14/14
f 14/14/14 18/18/18 17/17/17
f 18/18/18 16/16/16 19/19/19
f 17/17/17 18/18/18 20/20/20
f 20/20/20 18/18/18 19/19/19
f 21/21/21 17/17/17 20/20/20
f 19/19/19 22/22/22 20/20/20
f 20/20/20 23/23/23 21/21/21
f 22/22/22 23/23/23 20/20/20
f 23/23/23 24/24/24 21/21/21
f 22/22/22 25/25/25 23/23/23
f 23/23/23 26/26/26 24/24/24
f 25/25/25 26/26/26 23/23/23
f 26/26/26 27/27/27 24/24/24
f 25/25/25 28/28/28 26/26/26
f 26/26/26 29/29/29 27/27/27
f 28/28/28 29/29/29 26/26/26
f 29/29/29 30/30/30 27/27/27
f 28/28/28 31/31/31 29/29/29
f 29/29/29 32/32/32 30/30/30
f 31/31/31 32/32/32 29/29/29
f 32/32/32 33/33/33 30/30/30
f 31/31/31 34/34/34 32/32/32
f 33/33/33 32/32/32 35/35/35
f 34/34/34 36/36/36 32/32/32
f 32/32/32 36/36/36 35/35/35
f 34/34/34 37/37/37 36/36/36
f 36/36/36 38/38/38 35/35/35
f 37/37/37 38/38/38 36/36/36
f 38/38/38 39/39/39 35/35/35
f 37/37/37 40/40/40 38/38/38
f 39/39/39 38/38/38 41/41/41
f 40/40/40 42/42/42 38/38/38
f 38/38/38 42/42/42 41/41/41
f 40/40/40 43/43/43 42/42/42
f 41/41/41 42/42/42 44/44/44
f 43/43/43 45/45/45 42/42/42
f 42/42/42 45/45/45 44/44/44
f 43/43/43 46/46/46 45/45/45
f 44/44/44 45/45/45 47/47/47
f 46/46/46 48/48/48 45/45/45
f 45/45/45 48/48/48 47/47/47
f 47/47/47 48/48/48 49/49/49
f 46/46/46 50/50/50 48/48/48
f 48/48/48 51/51/51 49/49/49
f 50/50/50 51/51/51 48/48/48
f 52/52/52 49/49/49 51/51/51
f 53/53/53 51/51/51 50/50/50
f 53/53/53 52/52/52 51/51/51
f 54/54/54 53/53/53 50/50/50
f 54/54/54 55/55/55 53/53/53
f 53/53/53 56/56/56 52/52/52
f 55/55/55 56/56/56 53/53/53
f 56/56/56 57/57/57 52/52/52
f 58/58/58 57/57/57 56/56/56
f 59/59/59 56/56/56 55/55/55
f 59/59/59 58/58/58 56/56/56
f 58/58/58 59/59/59 60/60/60
f 61/61/61 59/59/59 55/55/55
f 60/60/60 59/59/59 61/61/61
f 62/62/62 58/58/58 60/60/60
f 63/63/63 60/60/60 61/61/61
f 63/63/63 64/64/64 60/60/60
f 62/62/62 60/60/60 65/65/65
f 64/64/64 66/66/66 60/60/60
f 60/60/60 66/66/66 65/65/65
f 64/64/64 67/67/67 66/66/66
f 67/67/67 68/68/68 66/66/66
f 66/66/66 68/68/68 65/65/65
f 68/68/68 69/69/69 65/65/65
f 72/72/72 71/71/71 70/70/70
f 73/73/73 72/72/72 70/70/70
f 73/73/73 70/70/70 74/74/74
f 75/75/75 73/73/73 74/74/74
f 75/75/75 74/74/74 76/76/76
f 77/77/77 75/75/75 76/76/76
f 77/77/77 76/76/76 78/78/78
f 79/79/79 77/77/77 78/78/78
f 79/79/79 78/78/78 80/80/80
f 81/81/81 79/79/79 80/80/80
f 81/81/81 80/80/80 82/82/82
f 83/83/83 81/81/81 82/82/82
f 83/83/83 82/82/82 84/84/84
f 85/85/85 83/83/83 84/84/84
f 85/85/85 84/84/84 86/86/86
f 87/87/87 85/85/85 86/86/86
f 87/87/87 86/86/86 88/88/88
f 89/89/89 87/87/87 88/88/88
f 89/89/89 88/88/88 90/90/90
f 91/91/91 89/89/89 90/90/90
f 91/91/91 90/90/90 92/92/92
f 93/93/93 91/91/91 92/92/92
f 93/93/93 92/92/92 94/94/94
f 95/95/95 93/93/93 94/94/94
f 95/95/95 94/94/94 96/96/96
f 97/97/97 95/95/95 96/96/96
f 97/97/97 96/96/96 98/98/98
f 99/99/99 97/97/97 98/98/98
f 99/99/99 98/98/98 100/100/100
f 101/101/101 99/99/99 100/100/100
f 101/101/101 100/100/100 102/102/102
f 103/103/103 101/101/101 102/102/102
f 103/103/103 102/102/102 104/104/104
f 105/105/105 103/103/103 104/104/104
f 105/105/105 104/104/104 106/106/106
f 107/107/107 105/105/105 106/106/106
f 107/107/107 106/106/106 108/108/108
f 109/109/109 107/107/107 108/108/108
f 109/109/109 108/108/108 110/110/110
f 111/111/111 109/109/109 110/110/110
f 111/111/111 110/110/110 112/112/112
f 113/113/113 111/111/111 112/112/112
f 113/113/113 112/112/112 114/114/114
f 115/115/115 113/113/113 114/114/114
