g pm0354_51_RZipperSkin
v -0.019696362 0.57924974 -0.12663177
v 2.1208383E-17 0.61237454 -0.10085618
v -0.019696362 0.61237454 -0.10085618
v 1.3253783E-16 0.57924974 -0.12663177
v 0.019696362 0.57924974 -0.12663177
v 0.019696362 0.61237454 -0.10085618
v 0.019696364 0.5304653 -0.15775204
v 1.1920933E-09 0.5304653 -0.15775204
v -0.019696362 0.5304653 -0.15775204
v 0.019696362 0.48107645 -0.1825853
v 2.1480793E-16 0.48107645 -0.1825853
v -0.019696362 0.48107645 -0.1825853
v 0.019696362 0.42498705 -0.2010404
v 9.4887456E-17 0.42498705 -0.2010404
v -0.019696362 0.42498705 -0.2010404
v 0.019696362 0.36365336 -0.20858997
v -0.019696362 0.36365336 -0.20858997
v -6.276391E-17 0.36365336 -0.20858997
v 0.019696362 0.30287105 -0.20278823
v -1.22389E-16 0.30287108 -0.20278823
v -0.019696362 0.30287108 -0.20278823
v 0.019696362 0.24744368 -0.18279777
v -1.2800051E-16 0.24744368 -0.18279777
v -0.019696362 0.24744368 -0.18279777
v 0.019696362 0.20208552 -0.1491419
v -6.744288E-17 0.20208552 -0.1491419
v -0.019696362 0.20208552 -0.1491419
v 0.019696362 0.1678085 -0.10522309
v -9.770608E-18 0.1678085 -0.10522309
v -0.019696362 0.1678085 -0.10522309
v 0.019696359 0.14717251 -0.05437127
v -1.1920928E-09 0.14717251 -0.05437127
v -0.019696362 0.14717251 -0.05437127
v 0.019696362 0.14027612 -1.9966399E-18
v -0.019696362 0.14027612 -1.9966399E-18
v 7.571036E-17 0.14027612 -1.9966399E-18
v 0.019696359 0.14717251 0.05437127
v -1.1920928E-09 0.14717251 0.05437127
v -0.019696362 0.14717251 0.05437127
v 0.019696362 0.1678085 0.10522309
v -0.019696362 0.1678085 0.10522309
v -9.770608E-18 0.1678085 0.10522309
v 0.019696362 0.20208552 0.1491419
v -0.019696362 0.20208552 0.1491419
v -6.744288E-17 0.20208552 0.1491419
v 0.019696362 0.24744368 0.18279777
v -0.019696362 0.24744368 0.18279777
v -1.2800051E-16 0.24744368 0.18279777
v -0.019696362 0.30287108 0.20278823
v 0.019696362 0.30287105 0.20278823
v -1.22389E-16 0.30287108 0.20278823
v -0.019696362 0.36365336 0.20858997
v -6.276391E-17 0.36365336 0.20858997
v 0.019696362 0.36365336 0.20858997
v 0.019696362 0.42498705 0.2010404
v 9.4887456E-17 0.42498705 0.2010404
v -0.019696362 0.42498705 0.2010404
v -0.019696362 0.48107645 0.1825853
v 2.1480793E-16 0.48107645 0.1825853
v 1.1920933E-09 0.5304653 0.15775204
v 0.019696362 0.48107645 0.1825853
v -0.019696362 0.5304653 0.15775204
v 0.019696364 0.5304653 0.15775204
v 0.019696362 0.57924974 0.12663177
v -0.019696362 0.57924974 0.12663177
v 1.3253783E-16 0.57924974 0.12663177
v 0.019696362 0.61237454 0.10085618
v 2.1030748E-17 0.61237454 0.10085618
v -0.019696362 0.61237454 0.10085618
v 0.019696362 0.61237454 -0.10085618
v 0.019696362 0.57610637 -0.12217764
v 0.019696362 0.609023 -0.096549004
v 0.019696362 0.57924974 -0.12663177
v 0.019696364 0.52777195 -0.15301354
v 0.019696364 0.5304653 -0.15775204
v 0.019696362 0.4789978 -0.1775553
v 0.019696362 0.48107645 -0.1825853
v 0.019696362 0.42380083 -0.19573998
v 0.019696362 0.42498705 -0.2010404
v 0.019696362 0.36357927 -0.2031652
v 0.019696362 0.36365336 -0.20858997
v 0.019696364 0.3040561 -0.19750488
v 0.019696362 0.30287105 -0.20278823
v 0.019696364 0.24999547 -0.17803943
v 0.019696362 0.24744368 -0.18279777
v 0.019696362 0.2058627 -0.14527158
v 0.019696362 0.20208552 -0.1491419
v 0.019696362 0.17248817 -0.1025181
v 0.019696362 0.1678085 -0.10522309
v 0.019696359 0.1524081 -0.053001817
v 0.019696359 0.14717251 -0.05437127
v 0.019696362 0.14569029 -3.7252902E-11
v 0.019696362 0.14027612 -1.9966399E-18
v 0.019696359 0.1524081 0.053001817
v 0.019696359 0.14717251 0.05437127
v 0.019696362 0.17248817 0.1025181
v 0.019696362 0.1678085 0.10522309
v 0.019696362 0.2058627 0.14527158
v 0.019696362 0.20208552 0.1491419
v 0.019696362 0.24999547 0.17803943
v 0.019696362 0.24744368 0.18279777
v 0.019696364 0.3040561 0.19750488
v 0.019696362 0.30287105 0.20278823
v 0.019696362 0.36357927 0.2031652
v 0.019696362 0.36365336 0.20858997
v 0.019696362 0.42380083 0.19573998
v 0.019696362 0.42498705 0.2010404
v 0.019696362 0.4789978 0.1775553
v 0.019696362 0.48107645 0.1825853
v 0.019696364 0.52777195 0.15301354
v 0.019696364 0.5304653 0.15775204
v 0.019696362 0.57610637 0.12217764
v 0.019696362 0.57924974 0.12663177
v 0.019696362 0.609023 0.096549004
v 0.019696362 0.61237454 0.10085618
vt 0.026182353 0.91015625
vt 0.01562494 0.9003341
vt 0.01562494 0.91015625
vt 0.026182353 0.9003341
vt 0.026182353 0.890625
vt 0.01562494 0.890625
vt 0.041126132 0.890625
vt 0.041126132 0.9003341
vt 0.041126132 0.91015625
vt 0.055375695 0.890625
vt 0.055375695 0.9003341
vt 0.055375695 0.91015625
vt 0.07059342 0.890625
vt 0.07059342 0.9003341
vt 0.07059342 0.91015625
vt 0.0865193 0.890625
vt 0.0865193 0.91015625
vt 0.0865193 0.9003341
vt 0.10226074 0.890625
vt 0.10226074 0.9003341
vt 0.10226074 0.91015625
vt 0.11744171 0.890625
vt 0.11744171 0.9003341
vt 0.11744171 0.91015625
vt 0.13198799 0.890625
vt 0.13198799 0.9003341
vt 0.13198799 0.91015625
vt 0.14633662 0.890625
vt 0.14633659 0.9003341
vt 0.14633662 0.91015625
vt 0.16046694 0.890625
vt 0.16046694 0.9003341
vt 0.16046694 0.91015625
vt 0.17458159 0.890625
vt 0.17458159 0.91015625
vt 0.17458159 0.9003341
vt 0.18869087 0.890625
vt 0.18869087 0.9003341
vt 0.18869087 0.91015625
vt 0.20281011 0.890625
vt 0.20281011 0.91015625
vt 0.20281011 0.9003341
vt 0.21714753 0.890625
vt 0.2171475 0.91015625
vt 0.21714753 0.9003341
vt 0.23167449 0.890625
vt 0.23167449 0.91015625
vt 0.23167449 0.9003341
vt 0.24683309 0.91015625
vt 0.24683309 0.890625
vt 0.24683309 0.9003341
vt 0.26254117 0.91015625
vt 0.26254117 0.9003341
vt 0.26254117 0.890625
vt 0.27843952 0.890625
vt 0.27843946 0.9003341
vt 0.27843946 0.91015625
vt 0.29363072 0.91015625
vt 0.29363072 0.9003341
vt 0.3078583 0.9003341
vt 0.29363072 0.890625
vt 0.3078583 0.91015625
vt 0.3078583 0.890625
vt 0.32276005 0.890625
vt 0.32276008 0.91015625
vt 0.32276005 0.9003341
vt 0.33398438 0.890625
vt 0.3339844 0.9003341
vt 0.33398438 0.91015625
vt 0.01562494 0.890625
vt 0.026182353 0.88671875
vt 0.01562494 0.88671875
vt 0.026182353 0.890625
vt 0.041126132 0.88671875
vt 0.041126132 0.890625
vt 0.055375695 0.88671875
vt 0.055375695 0.890625
vt 0.07059342 0.88671875
vt 0.07059342 0.890625
vt 0.0865193 0.88671875
vt 0.0865193 0.890625
vt 0.10226074 0.88671875
vt 0.10226074 0.890625
vt 0.11744171 0.88671875
vt 0.11744171 0.890625
vt 0.13198799 0.88671875
vt 0.13198799 0.890625
vt 0.14633659 0.88671875
vt 0.14633662 0.890625
vt 0.16046694 0.88671875
vt 0.16046694 0.890625
vt 0.17458159 0.88671875
vt 0.17458159 0.890625
vt 0.18869087 0.88671875
vt 0.18869087 0.890625
vt 0.20281014 0.88671875
vt 0.20281011 0.890625
vt 0.2171475 0.88671875
vt 0.21714753 0.890625
vt 0.23167446 0.88671875
vt 0.23167449 0.890625
vt 0.24683306 0.88671875
vt 0.24683309 0.890625
vt 0.2625412 0.88671875
vt 0.26254117 0.890625
vt 0.2784395 0.88671875
vt 0.27843952 0.890625
vt 0.2936307 0.88671875
vt 0.29363072 0.890625
vt 0.30785832 0.88671875
vt 0.3078583 0.890625
vt 0.32276002 0.88671875
vt 0.32276005 0.890625
vt 0.3339844 0.88671875
vt 0.33398438 0.890625
vn -0 0.56196946 -0.8271579
vn -0 0.59978884 -0.8001583
vn -0 0.59705627 -0.8021994
vn -0 0.5641171 -0.82569486
vn -0 0.56196946 -0.8271579
vn -0 0.59705627 -0.8021993
vn -0 0.48428172 -0.8749121
vn -0 0.48592016 -0.87400323
vn -0 0.48428172 -0.8749121
vn -0 0.36770776 -0.9299414
vn -0 0.3696281 -0.9291798
vn -0 0.36770767 -0.9299414
vn -0 0.20638478 -0.97847086
vn -0 0.20813115 -0.978101
vn -0 0.20638478 -0.97847086
vn -0 0.0035393792 -0.9999938
vn -0 0.0035393792 -0.9999938
vn -0 0.0050538005 -0.99998724
vn -2.438874E-07 -0.22998187 -0.9731949
vn -1.8232068E-07 -0.22858745 -0.9735233
vn -0 -0.22998187 -0.9731949
vn -1.8360772E-07 -0.47571093 -0.87960166
vn -1.2194876E-07 -0.47523117 -0.879861
vn -0 -0.47571084 -0.87960166
vn -0 -0.6971094 -0.71696466
vn -0 -0.69722646 -0.716851
vn -0 -0.6971094 -0.71696466
vn -0 -0.8647556 -0.50219303
vn -0 -0.864914 -0.50192004
vn -0 -0.8647556 -0.50219303
vn -0 -0.9665523 -0.2564697
vn -0 -0.9666548 -0.25608307
vn -0 -0.9665523 -0.2564697
vn -0 -1 0
vn -0 -1 0
vn -0 -1 0
vn -0 -0.9665523 0.2564697
vn -0 -0.9666548 0.25608307
vn -0 -0.9665523 0.2564697
vn -0 -0.86475563 0.5021929
vn -0 -0.86475563 0.5021929
vn -0 -0.864914 0.50192004
vn -0 -0.6971095 0.7169646
vn -0 -0.6971095 0.7169646
vn -0 -0.69722646 0.716851
vn -2.4481028E-07 -0.47571084 0.87960166
vn -0 -0.47571084 0.87960166
vn -1.8292313E-07 -0.47523117 0.879861
vn -0 -0.22998177 0.9731949
vn -1.8291556E-07 -0.22998187 0.9731949
vn -1.2154712E-07 -0.22858748 0.9735233
vn -0 0.0035393792 0.9999938
vn -0 0.0050538005 0.99998724
vn -0 0.0035393795 0.9999938
vn -0 0.20638478 0.97847086
vn -0 0.20813128 0.9781009
vn -0 0.20638478 0.97847086
vn -0 0.36770776 0.9299414
vn -0 0.3696281 0.9291798
vn -0 0.4859202 0.8740032
vn -0 0.36770764 0.9299415
vn -0 0.48428178 0.8749121
vn -0 0.48428187 0.87491196
vn -0 0.56196946 0.8271579
vn -0 0.56196946 0.8271579
vn -0 0.5641171 0.82569486
vn -0 0.5970562 0.8021994
vn -0 0.599789 0.80015826
vn -0 0.5970563 0.80219924
vn 1 0 0
vn 1 0 0
vn 1 0 0
vn 1 0 0
vn 1 0 0
vn 1 0 0
vn 1 -1.1920929E-07 0
vn 1 -1.1920929E-07 0
vn 1 0 0
vn 1 0 0
vn 1 0 -1.1920929E-07
vn 1 0 -1.1920929E-07
vn 1 -1.1920929E-07 -2.9802322E-07
vn 1 -1.1920929E-07 -2.9802322E-07
vn 1 0 -2.9802322E-07
vn 1 0 -2.9802322E-07
vn 1 1.1920929E-07 0
vn 1 1.1920929E-07 0
vn 1 1.1920929E-07 0
vn 1 1.1920929E-07 0
vn 1 0 0
vn 1 0 0
vn 1 0 0
vn 1 0 0
vn 1 0 0
vn 1 0 0
vn 1 0 0
vn 1 0 0
vn 1 0 0
vn 1 0 0
vn 1 -1.1920929E-07 2.3841858E-07
vn 1 -1.1920929E-07 2.3841858E-07
vn 1 -1.1920929E-07 3.5762787E-07
vn 1 -1.1920929E-07 3.5762787E-07
vn 1 0 2.3841858E-07
vn 1 0 2.3841858E-07
vn 1 0 0
vn 1 0 0
vn 1 0 0
vn 1 0 0
vn 1 0 0
vn 1 0 0
vn 1 0 0
vn 1 0 0
vn 1 0 0
vn 1 0 0
g pm0354_51_RZipperSkin_0
f 3/3/3 2/2/2 1/1/1
f 2/2/2 4/4/4 1/1/1
f 5/5/5 4/4/4 2/2/2
f 6/6/6 5/5/5 2/2/2
f 5/5/5 7/7/7 4/4/4
f 4/4/4 8/8/8 1/1/1
f 7/7/7 8/8/8 4/4/4
f 8/8/8 9/9/9 1/1/1
f 8/8/8 7/7/7 10/10/10
f 9/9/9 8/8/8 11/11/11
f 11/11/11 8/8/8 10/10/10
f 12/12/12 9/9/9 11/11/11
f 11/11/11 10/10/10 13/13/13
f 12/12/12 11/11/11 14/14/14
f 14/14/14 11/11/11 13/13/13
f 15/15/15 12/12/12 14/14/14
f 13/13/13 16/16/16 14/14/14
f 15/15/15 14/14/14 17/17/17
f 16/16/16 18/18/18 14/14/14
f 14/14/14 18/18/18 17/17/17
f 18/18/18 16/16/16 19/19/19
f 17/17/17 18/18/18 20/20/20
f 20/20/20 18/18/18 19/19/19
f 21/21/21 17/17/17 20/20/20
f 19/19/19 22/22/22 20/20/20
f 20/20/20 23/23/23 21/21/21
f 22/22/22 23/23/23 20/20/20
f 23/23/23 24/24/24 21/21/21
f 22/22/22 25/25/25 23/23/23
f 23/23/23 26/26/26 24/24/24
f 25/25/25 26/26/26 23/23/23
f 26/26/26 27/27/27 24/24/24
f 25/25/25 28/28/28 26/26/26
f 26/26/26 29/29/29 27/27/27
f 28/28/28 29/29/29 26/26/26
f 29/29/29 30/30/30 27/27/27
f 28/28/28 31/31/31 29/29/29
f 29/29/29 32/32/32 30/30/30
f 31/31/31 32/32/32 29/29/29
f 32/32/32 33/33/33 30/30/30
f 31/31/31 34/34/34 32/32/32
f 33/33/33 32/32/32 35/35/35
f 34/34/34 36/36/36 32/32/32
f 32/32/32 36/36/36 35/35/35
f 34/34/34 37/37/37 36/36/36
f 36/36/36 38/38/38 35/35/35
f 37/37/37 38/38/38 36/36/36
f 38/38/38 39/39/39 35/35/35
f 37/37/37 40/40/40 38/38/38
f 39/39/39 38/38/38 41/41/41
f 40/40/40 42/42/42 38/38/38
f 38/38/38 42/42/42 41/41/41
f 40/40/40 43/43/43 42/42/42
f 41/41/41 42/42/42 44/44/44
f 43/43/43 45/45/45 42/42/42
f 42/42/42 45/45/45 44/44/44
f 43/43/43 46/46/46 45/45/45
f 44/44/44 45/45/45 47/47/47
f 46/46/46 48/48/48 45/45/45
f 45/45/45 48/48/48 47/47/47
f 47/47/47 48/48/48 49/49/49
f 46/46/46 50/50/50 48/48/48
f 48/48/48 51/51/51 49/49/49
f 50/50/50 51/51/51 48/48/48
f 52/52/52 49/49/49 51/51/51
f 53/53/53 51/51/51 50/50/50
f 53/53/53 52/52/52 51/51/51
f 54/54/54 53/53/53 50/50/50
f 54/54/54 55/55/55 53/53/53
f 53/53/53 56/56/56 52/52/52
f 55/55/55 56/56/56 53/53/53
f 56/56/56 57/57/57 52/52/52
f 58/58/58 57/57/57 56/56/56
f 59/59/59 56/56/56 55/55/55
f 59/59/59 58/58/58 56/56/56
f 58/58/58 59/59/59 60/60/60
f 61/61/61 59/59/59 55/55/55
f 60/60/60 59/59/59 61/61/61
f 62/62/62 58/58/58 60/60/60
f 63/63/63 60/60/60 61/61/61
f 63/63/63 64/64/64 60/60/60
f 62/62/62 60/60/60 65/65/65
f 64/64/64 66/66/66 60/60/60
f 60/60/60 66/66/66 65/65/65
f 64/64/64 67/67/67 66/66/66
f 67/67/67 68/68/68 66/66/66
f 66/66/66 68/68/68 65/65/65
f 68/68/68 69/69/69 65/65/65
f 72/72/72 71/71/71 70/70/70
f 71/71/71 73/73/73 70/70/70
f 71/71/71 74/74/74 73/73/73
f 74/74/74 75/75/75 73/73/73
f 74/74/74 76/76/76 75/75/75
f 76/76/76 77/77/77 75/75/75
f 76/76/76 78/78/78 77/77/77
f 78/78/78 79/79/79 77/77/77
f 78/78/78 80/80/80 79/79/79
f 80/80/80 81/81/81 79/79/79
f 80/80/80 82/82/82 81/81/81
f 82/82/82 83/83/83 81/81/81
f 82/82/82 84/84/84 83/83/83
f 84/84/84 85/85/85 83/83/83
f 84/84/84 86/86/86 85/85/85
f 86/86/86 87/87/87 85/85/85
f 86/86/86 88/88/88 87/87/87
f 88/88/88 89/89/89 87/87/87
f 88/88/88 90/90/90 89/89/89
f 90/90/90 91/91/91 89/89/89
f 90/90/90 92/92/92 91/91/91
f 92/92/92 93/93/93 91/91/91
f 92/92/92 94/94/94 93/93/93
f 94/94/94 95/95/95 93/93/93
f 94/94/94 96/96/96 95/95/95
f 96/96/96 97/97/97 95/95/95
f 96/96/96 98/98/98 97/97/97
f 98/98/98 99/99/99 97/97/97
f 98/98/98 100/100/100 99/99/99
f 100/100/100 101/101/101 99/99/99
f 100/100/100 102/102/102 101/101/101
f 102/102/102 103/103/103 101/101/101
f 102/102/102 104/104/104 103/103/103
f 104/104/104 105/105/105 103/103/103
f 104/104/104 106/106/106 105/105/105
f 106/106/106 107/107/107 105/105/105
f 106/106/106 108/108/108 107/107/107
f 108/108/108 109/109/109 107/107/107
f 108/108/108 110/110/110 109/109/109
f 110/110/110 111/111/111 109/109/109
f 110/110/110 112/112/112 111/111/111
f 112/112/112 113/113/113 111/111/111
f 112/112/112 114/114/114 113/113/113
f 114/114/114 115/115/115 113/113/113
