g pm0402_00_WingBSkin
v -0.2560738 0.54008937 -0.22434929
v -0.19424613 0.47057235 -0.20159262
v -0.22043338 0.5490338 -0.1892974
v -0.18329926 0.5535028 -0.15494686
v -0.23063347 0.46386573 -0.23629382
v -0.2673781 0.4570931 -0.27133587
v -0.29018006 0.5254117 -0.26063007
v -0.299548 0.45116365 -0.30201516
v -0.3185782 0.5081816 -0.29308024
v -0.34038487 0.49000204 -0.32021266
v -0.15785898 0.4772792 -0.16689143
v -0.16805887 0.3921106 -0.21388793
v -0.20519315 0.38764212 -0.24823838
v -0.24457616 0.38877445 -0.28204173
v -0.13241866 0.4010556 -0.17883597
v -0.2805177 0.39414555 -0.31095016
v -0.09831235 0.41573313 -0.14255519
v -0.12111426 0.48405176 -0.13184932
v -0.14391623 0.5523704 -0.12114352
v -0.06991415 0.43296304 -0.110105105
v -0.3258068 0.4463238 -0.32705718
v -0.3112285 0.40264484 -0.33390185
v -0.34186217 0.4170843 -0.3541283
v -0.08894442 0.4899811 -0.10117014
v -0.10797465 0.54699904 -0.09223519
v -0.0772636 0.5384993 -0.069283456
v -0.35012498 0.4418414 -0.35024872
v -0.3583879 0.46659836 -0.34636924
v -0.36109987 0.43056 -0.364858
v -0.36692196 0.44800377 -0.36212456
v -0.3683323 0.43848562 -0.36761233
v -0.06268565 0.49482107 -0.07612806
v -0.0481074 0.45114216 -0.08297271
v -0.030104415 0.47454607 -0.056816157
v -0.03836727 0.49930316 -0.052936587
v -0.046630125 0.52406013 -0.049057055
v -0.021570316 0.4931405 -0.041060906
v -0.027392251 0.5105843 -0.038327303
v -0.020159967 0.5026591 -0.035572924
v 0.2560738 0.54008937 -0.22434919
v 0.22043337 0.5490338 -0.18929729
v 0.19424611 0.47057235 -0.20159252
v 0.18329926 0.55350274 -0.15494676
v 0.23063344 0.4638657 -0.23629375
v 0.2673781 0.4570931 -0.27133578
v 0.29018006 0.5254117 -0.26062995
v 0.29954797 0.45116365 -0.30201504
v 0.3185782 0.5081816 -0.29308012
v 0.3403848 0.4900021 -0.32021257
v 0.15785895 0.4772792 -0.16689132
v 0.16805887 0.3921106 -0.21388784
v 0.20519315 0.38764212 -0.24823827
v 0.24457619 0.3887744 -0.28204167
v 0.13241866 0.4010556 -0.17883588
v 0.2805177 0.39414555 -0.31095004
v 0.09831235 0.41573313 -0.14255509
v 0.121114254 0.48405176 -0.13184921
v 0.14391623 0.5523704 -0.12114341
v 0.06991414 0.43296304 -0.11010501
v 0.3258068 0.44632384 -0.3270571
v 0.31122848 0.40264487 -0.33390173
v 0.34186214 0.4170843 -0.35412818
v 0.08894441 0.4899811 -0.10117003
v 0.10797465 0.54699904 -0.09223509
v 0.0772636 0.5384993 -0.06928335
v 0.35012498 0.4418414 -0.3502486
v 0.35838786 0.4665984 -0.34636912
v 0.36109987 0.43055996 -0.36485794
v 0.3669219 0.4480037 -0.36212444
v 0.36833233 0.43848562 -0.36761218
v 0.06268565 0.49482107 -0.07612796
v 0.048107393 0.45114216 -0.08297261
v 0.030104412 0.47454607 -0.056816056
v 0.038367264 0.49930316 -0.052936476
v 0.046630118 0.52406013 -0.049056947
v 0.021570312 0.4931405 -0.041060798
v 0.027392248 0.5105843 -0.038327202
v 0.020159964 0.5026591 -0.03557282
v -0.2560738 0.54008937 -0.22434929
v -0.22043338 0.5490338 -0.1892974
v -0.19424613 0.47057235 -0.20159262
v -0.18329926 0.5535028 -0.15494686
v -0.23063347 0.46386573 -0.23629382
v -0.2673781 0.4570931 -0.27133587
v -0.29018006 0.5254117 -0.26063007
v -0.299548 0.45116365 -0.30201516
v -0.3185782 0.5081816 -0.29308024
v -0.34038487 0.49000204 -0.32021266
v -0.15785898 0.4772792 -0.16689143
v -0.16805887 0.3921106 -0.21388793
v -0.20519315 0.38764212 -0.24823838
v -0.24457616 0.38877445 -0.28204173
v -0.13241866 0.4010556 -0.17883597
v -0.2805177 0.39414555 -0.31095016
v -0.09831235 0.41573313 -0.14255519
v -0.12111426 0.48405176 -0.13184932
v -0.14391623 0.5523704 -0.12114352
v -0.06991415 0.43296304 -0.110105105
v -0.3258068 0.4463238 -0.32705718
v -0.3112285 0.40264484 -0.33390185
v -0.34186217 0.4170843 -0.3541283
v -0.08894442 0.4899811 -0.10117014
v -0.10797465 0.54699904 -0.09223519
v -0.0772636 0.5384993 -0.069283456
v -0.35012498 0.4418414 -0.35024872
v -0.3583879 0.46659836 -0.34636924
v -0.36109987 0.43056 -0.364858
v -0.36692196 0.44800377 -0.36212456
v -0.3683323 0.43848562 -0.36761233
v -0.06268565 0.49482107 -0.07612806
v -0.0481074 0.45114216 -0.08297271
v -0.030104415 0.47454607 -0.056816157
v -0.03836727 0.49930316 -0.052936587
v -0.046630125 0.52406013 -0.049057055
v -0.021570316 0.4931405 -0.041060906
v -0.027392251 0.5105843 -0.038327303
v -0.020159967 0.5026591 -0.035572924
v 0.2560738 0.54008937 -0.22434919
v 0.19424611 0.47057235 -0.20159252
v 0.22043337 0.5490338 -0.18929729
v 0.18329926 0.55350274 -0.15494676
v 0.23063344 0.4638657 -0.23629375
v 0.2673781 0.4570931 -0.27133578
v 0.29018006 0.5254117 -0.26062995
v 0.29954797 0.45116365 -0.30201504
v 0.3185782 0.5081816 -0.29308012
v 0.3403848 0.4900021 -0.32021257
v 0.15785895 0.4772792 -0.16689132
v 0.16805887 0.3921106 -0.21388784
v 0.20519315 0.38764212 -0.24823827
v 0.24457619 0.3887744 -0.28204167
v 0.13241866 0.4010556 -0.17883588
v 0.2805177 0.39414555 -0.31095004
v 0.09831235 0.41573313 -0.14255509
v 0.121114254 0.48405176 -0.13184921
v 0.14391623 0.5523704 -0.12114341
v 0.06991414 0.43296304 -0.11010501
v 0.3258068 0.44632384 -0.3270571
v 0.31122848 0.40264487 -0.33390173
v 0.34186214 0.4170843 -0.35412818
v 0.08894441 0.4899811 -0.10117003
v 0.10797465 0.54699904 -0.09223509
v 0.0772636 0.5384993 -0.06928335
v 0.35012498 0.4418414 -0.3502486
v 0.35838786 0.4665984 -0.34636912
v 0.36109987 0.43055996 -0.36485794
v 0.3669219 0.4480037 -0.36212444
v 0.36833233 0.43848562 -0.36761218
v 0.06268565 0.49482107 -0.07612796
v 0.048107393 0.45114216 -0.08297261
v 0.030104412 0.47454607 -0.056816056
v 0.038367264 0.49930316 -0.052936476
v 0.046630118 0.52406013 -0.049056947
v 0.021570312 0.4931405 -0.041060798
v 0.027392248 0.5105843 -0.038327202
v 0.020159964 0.5026591 -0.03557282
vt 0.8227136 0.3180024
vt 0.8540076 0.28217578
vt 0.82179034 0.28217578
vt 0.82270414 0.24631825
vt 0.8540076 0.31799236
vt 0.8540076 0.35611784
vt 0.82596105 0.35611784
vt 0.8540074 0.38836518
vt 0.830601 0.38836518
vt 0.8360771 0.41471618
vt 0.8540076 0.24631825
vt 0.88622594 0.28217578
vt 0.8853019 0.31800318
vt 0.88205427 0.35611784
vt 0.88531166 0.24631825
vt 0.8774143 0.38836518
vt 0.8820672 0.20947754
vt 0.85400856 0.20947754
vt 0.82594824 0.20947754
vt 0.87742674 0.17721534
vt 0.8540087 0.41471618
vt 0.8719379 0.41471618
vt 0.8641701 0.43906087
vt 0.8540087 0.17721534
vt 0.83058864 0.17721534
vt 0.83606714 0.1508795
vt 0.8540073 0.43906087
vt 0.84384465 0.43906087
vt 0.85758775 0.45297855
vt 0.85042715 0.45297855
vt 0.8540073 0.4573101
vt 0.8540074 0.1508795
vt 0.87194824 0.1508795
vt 0.8641762 0.12649095
vt 0.8540074 0.12649095
vt 0.8438385 0.12649095
vt 0.85758996 0.11256459
vt 0.8504251 0.11256459
vt 0.8540073 0.10823059
vt 0.82271355 0.3180024
vt 0.82179034 0.28217578
vt 0.8540076 0.28217578
vt 0.82270414 0.24631825
vt 0.8540076 0.31799236
vt 0.8540076 0.35611784
vt 0.82596105 0.35611784
vt 0.8540074 0.38836518
vt 0.830601 0.38836518
vt 0.83607715 0.41471618
vt 0.8540076 0.24631825
vt 0.88622594 0.28217578
vt 0.8853019 0.31800318
vt 0.88205427 0.35611784
vt 0.88531166 0.24631825
vt 0.87741435 0.38836518
vt 0.8820672 0.20947754
vt 0.85400856 0.20947754
vt 0.82594824 0.20947754
vt 0.87742674 0.17721534
vt 0.8540087 0.41471618
vt 0.8719378 0.41471618
vt 0.8641701 0.43906087
vt 0.8540087 0.17721534
vt 0.83058864 0.17721534
vt 0.83606714 0.1508795
vt 0.8540073 0.43906087
vt 0.84384465 0.43906087
vt 0.85758775 0.45297855
vt 0.85042715 0.45297855
vt 0.8540073 0.4573101
vt 0.8540074 0.1508795
vt 0.87194824 0.1508795
vt 0.8641763 0.12649095
vt 0.8540074 0.12649095
vt 0.8438385 0.12649095
vt 0.85758996 0.11256459
vt 0.8504251 0.11256459
vt 0.8540073 0.10823059
vt 0.9591514 0.31929255
vt 0.9600913 0.28217578
vt 0.9272942 0.28217578
vt 0.95916086 0.24631825
vt 0.9272942 0.31928188
vt 0.9272942 0.35611784
vt 0.9558455 0.35611784
vt 0.9272942 0.38836518
vt 0.95112205 0.38836518
vt 0.94554734 0.41471618
vt 0.927294 0.24631825
vt 0.89449614 0.28217578
vt 0.8954366 0.31929332
vt 0.89874274 0.35611784
vt 0.8954268 0.24631825
vt 0.9034663 0.38836518
vt 0.8987295 0.20947754
vt 0.9272931 0.20947754
vt 0.9558585 0.20947754
vt 0.9034536 0.17721534
vt 0.927293 0.41471618
vt 0.9090412 0.41471618
vt 0.91694885 0.43906087
vt 0.9272931 0.17721534
vt 0.9511345 0.17721534
vt 0.9455575 0.1508795
vt 0.9272943 0.43906108
vt 0.93763995 0.43906087
vt 0.9236497 0.45297855
vt 0.93093914 0.45297855
vt 0.9272945 0.4573101
vt 0.9272943 0.1508795
vt 0.90903056 0.1508795
vt 0.91694254 0.12649095
vt 0.9272942 0.12649095
vt 0.9376464 0.12649095
vt 0.9236474 0.11256459
vt 0.93094134 0.11256459
vt 0.9272943 0.10823059
vt 0.9591514 0.31929255
vt 0.9272942 0.28217578
vt 0.9600913 0.28217578
vt 0.95916086 0.24631825
vt 0.9272942 0.31928188
vt 0.9272942 0.35611784
vt 0.9558455 0.35611784
vt 0.9272942 0.38836518
vt 0.951122 0.38836518
vt 0.94554734 0.41471618
vt 0.927294 0.24631825
vt 0.8944962 0.28217578
vt 0.89543664 0.31929332
vt 0.89874274 0.35611784
vt 0.8954268 0.24631825
vt 0.9034663 0.38836518
vt 0.8987295 0.20947754
vt 0.9272931 0.20947754
vt 0.95585847 0.20947754
vt 0.90345365 0.17721534
vt 0.927293 0.41471618
vt 0.90904117 0.41471618
vt 0.91694885 0.43906087
vt 0.9272931 0.17721534
vt 0.9511345 0.17721534
vt 0.9455575 0.1508795
vt 0.9272944 0.43906108
vt 0.93764 0.43906087
vt 0.9236497 0.45297855
vt 0.9309392 0.45297855
vt 0.9272945 0.4573101
vt 0.92729425 0.1508795
vt 0.90903056 0.1508795
vt 0.91694254 0.12649095
vt 0.9272942 0.12649095
vt 0.9376464 0.12649095
vt 0.92364746 0.11256459
vt 0.9309413 0.11256459
vt 0.9272944 0.10823059
vn 0.6224042 0.31968737 -0.7144318
vn 0.6224043 0.31968737 -0.7144318
vn 0.6224043 0.31968737 -0.7144318
vn 0.62240446 0.31968737 -0.71443164
vn 0.62240416 0.31968752 -0.7144319
vn 0.6224043 0.31968758 -0.71443176
vn 0.6224043 0.31968737 -0.7144318
vn 0.62240434 0.31968772 -0.71443164
vn 0.62240446 0.31968737 -0.71443164
vn 0.62240463 0.31968746 -0.7144315
vn 0.62240446 0.31968737 -0.71443164
vn 0.6224043 0.31968737 -0.7144318
vn 0.6224042 0.31968737 -0.7144318
vn 0.6224042 0.3196876 -0.7144318
vn 0.6224044 0.3196874 -0.71443176
vn 0.62240434 0.3196876 -0.71443164
vn 0.6224044 0.31968734 -0.7144317
vn 0.62240446 0.31968737 -0.71443164
vn 0.6224044 0.3196873 -0.71443176
vn 0.6224044 0.3196873 -0.71443176
vn 0.6224047 0.3196877 -0.71443135
vn 0.62240475 0.3196878 -0.7144312
vn 0.62240523 0.31968793 -0.7144308
vn 0.6224043 0.31968737 -0.7144318
vn 0.6224044 0.3196873 -0.71443176
vn 0.6224044 0.31968734 -0.7144317
vn 0.62240505 0.31968784 -0.714431
vn 0.6224049 0.31968758 -0.7144312
vn 0.6224055 0.31968805 -0.7144305
vn 0.62240493 0.31968778 -0.71443105
vn 0.6224053 0.31968796 -0.71443075
vn 0.6224042 0.31968746 -0.71443176
vn 0.62240416 0.31968737 -0.71443194
vn 0.62240404 0.3196876 -0.71443194
vn 0.6224043 0.31968758 -0.71443176
vn 0.62240446 0.31968758 -0.71443164
vn 0.62240404 0.3196876 -0.71443194
vn 0.6224044 0.3196876 -0.7144316
vn 0.6224043 0.31968758 -0.71443176
vn -0.6224043 0.3196876 -0.7144317
vn -0.6224043 0.3196876 -0.7144317
vn -0.62240434 0.3196875 -0.71443176
vn -0.62240434 0.31968746 -0.7144317
vn -0.6224042 0.31968746 -0.71443176
vn -0.62240446 0.31968737 -0.71443164
vn -0.62240446 0.31968752 -0.71443164
vn -0.6224046 0.31968734 -0.7144316
vn -0.6224047 0.31968725 -0.7144316
vn -0.62240475 0.3196869 -0.71443164
vn -0.62240446 0.31968763 -0.71443164
vn -0.6224044 0.31968737 -0.71443176
vn -0.62240434 0.31968734 -0.71443176
vn -0.6224044 0.31968737 -0.71443176
vn -0.62240446 0.31968752 -0.71443164
vn -0.62240446 0.31968737 -0.71443164
vn -0.6224044 0.3196875 -0.7144317
vn -0.6224044 0.3196875 -0.7144317
vn -0.6224044 0.31968737 -0.71443176
vn -0.6224043 0.31968737 -0.7144318
vn -0.6224046 0.31968713 -0.7144317
vn -0.6224043 0.31968758 -0.71443176
vn -0.62240386 0.3196878 -0.71443194
vn -0.6224043 0.31968737 -0.7144318
vn -0.6224043 0.3196874 -0.7144318
vn -0.6224043 0.3196874 -0.7144318
vn -0.6224042 0.3196871 -0.71443194
vn -0.6224045 0.3196865 -0.71443194
vn -0.6224037 0.3196879 -0.71443224
vn -0.62240434 0.31968656 -0.7144323
vn -0.622404 0.31968716 -0.7144323
vn -0.6224043 0.31968737 -0.7144318
vn -0.6224043 0.31968737 -0.7144318
vn -0.62240446 0.31968758 -0.7144315
vn -0.62240446 0.31968752 -0.71443164
vn -0.6224044 0.31968737 -0.7144317
vn -0.62240463 0.31968772 -0.7144314
vn -0.62240446 0.31968758 -0.7144315
vn -0.6224045 0.3196876 -0.7144315
vn -0.62240434 -0.3196875 0.71443176
vn -0.6224044 -0.31968737 0.71443176
vn -0.6224044 -0.31968737 0.71443176
vn -0.6224044 -0.31968737 0.71443176
vn -0.62240434 -0.3196875 0.71443176
vn -0.62240434 -0.3196874 0.7144317
vn -0.6224044 -0.31968746 0.7144317
vn -0.6224044 -0.31968743 0.71443164
vn -0.6224046 -0.31968734 0.7144316
vn -0.6224048 -0.31968734 0.71443135
vn -0.62240434 -0.3196874 0.7144317
vn -0.6224044 -0.31968734 0.7144317
vn -0.62240434 -0.31968746 0.7144317
vn -0.62240434 -0.3196876 0.7144317
vn -0.6224044 -0.3196874 0.7144317
vn -0.6224044 -0.31968763 0.7144316
vn -0.62240434 -0.31968743 0.71443176
vn -0.6224044 -0.31968737 0.71443176
vn -0.6224044 -0.31968737 0.71443176
vn -0.6224043 -0.3196874 0.7144318
vn -0.62240475 -0.3196875 0.7144314
vn -0.6224048 -0.31968772 0.7144313
vn -0.6224053 -0.31968784 0.7144307
vn -0.6224043 -0.31968737 0.7144318
vn -0.6224044 -0.31968737 0.71443176
vn -0.62240434 -0.3196874 0.7144317
vn -0.6224051 -0.31968763 0.714431
vn -0.622405 -0.3196875 0.71443117
vn -0.6224056 -0.3196878 0.7144305
vn -0.62240505 -0.31968758 0.7144311
vn -0.6224054 -0.31968772 0.7144307
vn -0.6224043 -0.3196874 0.7144318
vn -0.62240416 -0.3196874 0.71443206
vn -0.6224038 -0.3196873 0.71443236
vn -0.622404 -0.31968737 0.7144321
vn -0.6224042 -0.3196874 0.7144318
vn -0.6224037 -0.31968725 0.7144325
vn -0.6224041 -0.31968743 0.7144321
vn -0.62240386 -0.3196874 0.71443224
vn 0.62240434 -0.31968755 0.71443176
vn 0.6224044 -0.31968746 0.7144317
vn 0.62240434 -0.31968755 0.71443176
vn 0.62240434 -0.3196875 0.71443176
vn 0.62240434 -0.31968755 0.71443176
vn 0.6224044 -0.3196874 0.7144317
vn 0.62240434 -0.31968755 0.71443176
vn 0.6224046 -0.3196874 0.7144316
vn 0.6224047 -0.31968725 0.7144315
vn 0.6224047 -0.3196869 0.71443164
vn 0.6224044 -0.3196874 0.7144317
vn 0.62240446 -0.31968743 0.71443164
vn 0.6224044 -0.31968746 0.7144317
vn 0.6224044 -0.31968752 0.7144317
vn 0.62240446 -0.31968743 0.71443164
vn 0.6224045 -0.3196876 0.7144315
vn 0.6224044 -0.31968746 0.7144317
vn 0.62240434 -0.3196875 0.71443176
vn 0.62240434 -0.3196875 0.71443176
vn 0.6224044 -0.31968746 0.7144317
vn 0.6224046 -0.31968725 0.7144316
vn 0.62240446 -0.3196877 0.7144315
vn 0.622404 -0.31968793 0.7144318
vn 0.6224044 -0.3196874 0.7144317
vn 0.62240434 -0.3196875 0.71443176
vn 0.62240434 -0.3196875 0.71443176
vn 0.6224043 -0.31968722 0.7144319
vn 0.6224045 -0.3196865 0.71443194
vn 0.6224038 -0.31968793 0.71443206
vn 0.62240416 -0.3196864 0.7144325
vn 0.6224039 -0.31968722 0.7144323
vn 0.6224044 -0.31968746 0.7144317
vn 0.62240446 -0.31968743 0.71443164
vn 0.62240434 -0.31968758 0.71443164
vn 0.62240434 -0.31968755 0.71443176
vn 0.6224044 -0.31968752 0.7144317
vn 0.62240434 -0.31968758 0.71443164
vn 0.62240434 -0.31968758 0.71443164
vn 0.62240434 -0.31968758 0.71443164
g pm0402_00_WingBSkin_0
f 3/3/3 2/2/2 1/1/1
f 2/2/2 3/3/3 4/4/4
f 2/2/2 5/5/5 1/1/1
f 1/1/1 5/5/5 6/6/6
f 7/7/7 1/1/1 6/6/6
f 7/7/7 6/6/6 8/8/8
f 9/9/9 7/7/7 8/8/8
f 9/9/9 8/8/8 10/10/10
f 11/11/11 2/2/2 4/4/4
f 2/2/2 12/12/12 5/5/5
f 12/12/12 2/2/2 11/11/11
f 12/12/12 13/13/13 5/5/5
f 5/5/5 13/13/13 14/14/14
f 6/6/6 5/5/5 14/14/14
f 15/15/15 12/12/12 11/11/11
f 6/6/6 14/14/14 16/16/16
f 8/8/8 6/6/6 16/16/16
f 15/15/15 11/11/11 17/17/17
f 11/11/11 4/4/4 18/18/18
f 11/11/11 18/18/18 17/17/17
f 4/4/4 19/19/19 18/18/18
f 17/17/17 18/18/18 20/20/20
f 8/8/8 16/16/16 21/21/21
f 16/16/16 22/22/22 21/21/21
f 8/8/8 21/21/21 10/10/10
f 21/21/21 22/22/22 23/23/23
f 18/18/18 19/19/19 24/24/24
f 18/18/18 24/24/24 20/20/20
f 19/19/19 25/25/25 24/24/24
f 24/24/24 25/25/25 26/26/26
f 10/10/10 21/21/21 27/27/27
f 27/27/27 21/21/21 23/23/23
f 28/28/28 10/10/10 27/27/27
f 23/23/23 29/29/29 27/27/27
f 28/28/28 27/27/27 30/30/30
f 29/29/29 31/31/31 27/27/27
f 27/27/27 31/31/31 30/30/30
f 20/20/20 24/24/24 32/32/32
f 32/32/32 24/24/24 26/26/26
f 33/33/33 20/20/20 32/32/32
f 33/33/33 32/32/32 34/34/34
f 32/32/32 26/26/26 35/35/35
f 32/32/32 35/35/35 34/34/34
f 26/26/26 36/36/36 35/35/35
f 37/37/37 34/34/34 35/35/35
f 35/35/35 36/36/36 38/38/38
f 39/39/39 37/37/37 35/35/35
f 39/39/39 35/35/35 38/38/38
f 42/42/42 41/41/41 40/40/40
f 41/41/41 42/42/42 43/43/43
f 44/44/44 42/42/42 40/40/40
f 44/44/44 40/40/40 45/45/45
f 40/40/40 46/46/46 45/45/45
f 45/45/45 46/46/46 47/47/47
f 46/46/46 48/48/48 47/47/47
f 47/47/47 48/48/48 49/49/49
f 42/42/42 50/50/50 43/43/43
f 51/51/51 42/42/42 44/44/44
f 42/42/42 51/51/51 50/50/50
f 52/52/52 51/51/51 44/44/44
f 52/52/52 44/44/44 53/53/53
f 44/44/44 45/45/45 53/53/53
f 51/51/51 54/54/54 50/50/50
f 53/53/53 45/45/45 55/55/55
f 45/45/45 47/47/47 55/55/55
f 50/50/50 54/54/54 56/56/56
f 43/43/43 50/50/50 57/57/57
f 57/57/57 50/50/50 56/56/56
f 58/58/58 43/43/43 57/57/57
f 57/57/57 56/56/56 59/59/59
f 55/55/55 47/47/47 60/60/60
f 61/61/61 55/55/55 60/60/60
f 60/60/60 47/47/47 49/49/49
f 61/61/61 60/60/60 62/62/62
f 58/58/58 57/57/57 63/63/63
f 63/63/63 57/57/57 59/59/59
f 64/64/64 58/58/58 63/63/63
f 64/64/64 63/63/63 65/65/65
f 60/60/60 49/49/49 66/66/66
f 60/60/60 66/66/66 62/62/62
f 49/49/49 67/67/67 66/66/66
f 68/68/68 62/62/62 66/66/66
f 66/66/66 67/67/67 69/69/69
f 70/70/70 68/68/68 66/66/66
f 70/70/70 66/66/66 69/69/69
f 63/63/63 59/59/59 71/71/71
f 63/63/63 71/71/71 65/65/65
f 59/59/59 72/72/72 71/71/71
f 71/71/71 72/72/72 73/73/73
f 65/65/65 71/71/71 74/74/74
f 74/74/74 71/71/71 73/73/73
f 75/75/75 65/65/65 74/74/74
f 73/73/73 76/76/76 74/74/74
f 75/75/75 74/74/74 77/77/77
f 76/76/76 78/78/78 74/74/74
f 74/74/74 78/78/78 77/77/77
f 81/81/81 80/80/80 79/79/79
f 80/80/80 81/81/81 82/82/82
f 83/83/83 81/81/81 79/79/79
f 83/83/83 79/79/79 84/84/84
f 79/79/79 85/85/85 84/84/84
f 84/84/84 85/85/85 86/86/86
f 85/85/85 87/87/87 86/86/86
f 86/86/86 87/87/87 88/88/88
f 81/81/81 89/89/89 82/82/82
f 90/90/90 81/81/81 83/83/83
f 81/81/81 90/90/90 89/89/89
f 91/91/91 90/90/90 83/83/83
f 91/91/91 83/83/83 92/92/92
f 83/83/83 84/84/84 92/92/92
f 90/90/90 93/93/93 89/89/89
f 92/92/92 84/84/84 94/94/94
f 84/84/84 86/86/86 94/94/94
f 89/89/89 93/93/93 95/95/95
f 82/82/82 89/89/89 96/96/96
f 96/96/96 89/89/89 95/95/95
f 97/97/97 82/82/82 96/96/96
f 96/96/96 95/95/95 98/98/98
f 94/94/94 86/86/86 99/99/99
f 100/100/100 94/94/94 99/99/99
f 99/99/99 86/86/86 88/88/88
f 100/100/100 99/99/99 101/101/101
f 97/97/97 96/96/96 102/102/102
f 102/102/102 96/96/96 98/98/98
f 103/103/103 97/97/97 102/102/102
f 103/103/103 102/102/102 104/104/104
f 99/99/99 88/88/88 105/105/105
f 99/99/99 105/105/105 101/101/101
f 88/88/88 106/106/106 105/105/105
f 107/107/107 101/101/101 105/105/105
f 105/105/105 106/106/106 108/108/108
f 109/109/109 107/107/107 105/105/105
f 109/109/109 105/105/105 108/108/108
f 102/102/102 98/98/98 110/110/110
f 102/102/102 110/110/110 104/104/104
f 98/98/98 111/111/111 110/110/110
f 110/110/110 111/111/111 112/112/112
f 104/104/104 110/110/110 113/113/113
f 113/113/113 110/110/110 112/112/112
f 114/114/114 104/104/104 113/113/113
f 112/112/112 115/115/115 113/113/113
f 114/114/114 113/113/113 116/116/116
f 115/115/115 117/117/117 113/113/113
f 113/113/113 117/117/117 116/116/116
f 120/120/120 119/119/119 118/118/118
f 119/119/119 120/120/120 121/121/121
f 119/119/119 122/122/122 118/118/118
f 118/118/118 122/122/122 123/123/123
f 124/124/124 118/118/118 123/123/123
f 124/124/124 123/123/123 125/125/125
f 126/126/126 124/124/124 125/125/125
f 126/126/126 125/125/125 127/127/127
f 128/128/128 119/119/119 121/121/121
f 119/119/119 129/129/129 122/122/122
f 129/129/129 119/119/119 128/128/128
f 129/129/129 130/130/130 122/122/122
f 122/122/122 130/130/130 131/131/131
f 123/123/123 122/122/122 131/131/131
f 132/132/132 129/129/129 128/128/128
f 123/123/123 131/131/131 133/133/133
f 125/125/125 123/123/123 133/133/133
f 132/132/132 128/128/128 134/134/134
f 128/128/128 121/121/121 135/135/135
f 128/128/128 135/135/135 134/134/134
f 121/121/121 136/136/136 135/135/135
f 134/134/134 135/135/135 137/137/137
f 125/125/125 133/133/133 138/138/138
f 133/133/133 139/139/139 138/138/138
f 125/125/125 138/138/138 127/127/127
f 138/138/138 139/139/139 140/140/140
f 135/135/135 136/136/136 141/141/141
f 135/135/135 141/141/141 137/137/137
f 136/136/136 142/142/142 141/141/141
f 141/141/141 142/142/142 143/143/143
f 127/127/127 138/138/138 144/144/144
f 144/144/144 138/138/138 140/140/140
f 145/145/145 127/127/127 144/144/144
f 140/140/140 146/146/146 144/144/144
f 145/145/145 144/144/144 147/147/147
f 146/146/146 148/148/148 144/144/144
f 144/144/144 148/148/148 147/147/147
f 137/137/137 141/141/141 149/149/149
f 149/149/149 141/141/141 143/143/143
f 150/150/150 137/137/137 149/149/149
f 150/150/150 149/149/149 151/151/151
f 149/149/149 143/143/143 152/152/152
f 149/149/149 152/152/152 151/151/151
f 143/143/143 153/153/153 152/152/152
f 154/154/154 151/151/151 152/152/152
f 152/152/152 153/153/153 155/155/155
f 156/156/156 154/154/154 152/152/152
f 156/156/156 152/152/152 155/155/155
