g pm0479_16_LArmSkin_tx0
v 0.15582538 0.10217532 -0.0022094792
v 0.11855007 0.10225201 -0.002444203
v 0.11855007 0.09214118 -0.002444203
v 0.1611906 0.086234294 -0.002175694
v 0.18019992 0.08375605 -0.002055992
v 0.17463547 0.10073593 -0.0020910315
v 0.15408795 0.10811443 -0.00222042
v 0.17280267 0.109020025 -0.0021025732
v 0.15286104 0.11198389 -0.0022281462
v 0.2269937 0.0990075 -0.0010234023
v 0.17163017 0.11368538 -0.0021099565
v 0.15144624 0.116445996 -0.0022370552
v 0.21573736 0.11056155 -0.0010622368
v 0.24330674 0.09857676 -0.0002975929
v 0.22727203 0.11097586 -0.0010224421
v 0.24586357 0.120298214 -0.00029582003
v 0.1703736 0.11906531 -0.002117869
v 0.14843997 0.1259272 -0.0022559853
v 0.16750827 0.13001013 -0.0021359122
v 0.22837697 0.118722245 -0.0010186301
v 0.21471143 0.12390186 -0.0010657767
v 0.2196896 0.14017715 -0.0010486018
v 0.2283456 0.12544952 -0.0010187383
v 0.24586354 0.14541192 -0.00029582012
v 0.1611906 0.086234294 0.0019173566
v 0.11855005 0.09214118 0.002185865
v 0.11855005 0.10225201 0.002185865
v 0.15582538 0.10217531 0.0019511416
v 0.18019992 0.08375607 0.0017976548
v 0.17463547 0.10073593 0.0018326939
v 0.15408793 0.10811443 0.0019620822
v 0.17280267 0.109020025 0.001844235
v 0.15286101 0.11198389 0.0019698082
v 0.2269937 0.09900749 0.0007650642
v 0.17163017 0.11368539 0.001851618
v 0.15144624 0.116445996 0.001978717
v 0.21573736 0.11056155 0.0008038989
v 0.24330673 0.098576784 3.925475E-05
v 0.22727203 0.11097588 0.00076410396
v 0.24586357 0.120298214 3.7481932E-05
v 0.1703736 0.11906532 0.0018595308
v 0.14843996 0.1259272 0.0019976478
v 0.16750827 0.13001014 0.001877574
v 0.22837697 0.11872225 0.0007602919
v 0.21471143 0.12390186 0.0008074384
v 0.2196896 0.14017715 0.0007902635
v 0.2283456 0.12544954 0.00076040026
v 0.24586354 0.14541194 3.748199E-05
v 0.11855005 0.10225201 0.002185865
v 0.11855005 0.09214118 0.002185865
v 0.11855007 0.09214118 -5.44903E-05
v 0.11855007 0.10225201 -5.4490214E-05
v 0.15582538 0.10217532 -6.206206E-05
v 0.15582538 0.10217531 0.0019511416
v 0.15408793 0.10811443 0.0019620822
v 0.15408795 0.10811444 -6.170934E-05
v 0.15286101 0.11198389 0.0019698082
v 0.15286104 0.111983895 -6.1460254E-05
v 0.15144624 0.116445996 0.001978717
v 0.15144624 0.116445996 -6.117281E-05
v 0.14843996 0.1259272 0.0019976478
v 0.14843994 0.1259272 -6.056192E-05
v 0.16750827 0.13001014 0.001877574
v 0.16750827 0.13001014 -6.4435284E-05
v 0.2196896 0.14017715 0.0007902635
v 0.2196896 0.14017715 -9.950996E-05
v 0.24586354 0.14541194 3.748199E-05
v 0.24586354 0.14541192 -0.00012379329
v 0.1611906 0.086234294 -6.315188E-05
v 0.11855007 0.09214118 -5.44903E-05
v 0.11855005 0.09214118 0.002185865
v 0.1611906 0.086234294 0.0019173566
v 0.18019992 0.08375607 -6.701307E-05
v 0.18019992 0.08375607 0.0017976548
v 0.17463544 0.10073593 -6.588309E-05
v 0.17463547 0.10073593 0.0018326939
v 0.22699367 0.0990075 -0.00010032297
v 0.2269937 0.09900749 0.0007650642
v 0.24330674 0.09857677 -0.00012373611
v 0.24330673 0.098576784 3.925475E-05
v 0.2283456 0.12544954 0.00076040026
v 0.24586354 0.14541194 3.748199E-05
v 0.24586354 0.14541192 -0.00012379329
v 0.2283456 0.12544952 -0.000100473255
v 0.24586357 0.120298214 3.7481932E-05
v 0.24586357 0.120298214 -0.00012379326
v 0.24330673 0.098576784 3.925475E-05
v 0.22727203 0.11097586 -0.000100353915
v 0.24330674 0.09857677 -0.00012373611
v 0.22727203 0.11097588 0.00076410396
v 0.24586357 0.120298214 -0.00012379326
v 0.24586357 0.120298214 3.7481932E-05
v 0.11855007 0.10225201 -5.4490214E-05
v 0.11855007 0.09214118 -5.44903E-05
v 0.11855007 0.09214118 -0.002444203
v 0.11855007 0.10225201 -0.002444203
v 0.15582538 0.10217532 -6.206206E-05
v 0.15582538 0.10217532 -0.0022094792
v 0.15408795 0.10811444 -6.170934E-05
v 0.15408795 0.10811443 -0.00222042
v 0.15286104 0.111983895 -6.1460254E-05
v 0.15286104 0.11198389 -0.0022281462
v 0.15144624 0.116445996 -6.117281E-05
v 0.15144624 0.116445996 -0.0022370552
v 0.14843994 0.1259272 -6.056192E-05
v 0.14843997 0.1259272 -0.0022559853
v 0.16750827 0.13001014 -6.4435284E-05
v 0.16750827 0.13001013 -0.0021359122
v 0.2196896 0.14017715 -9.950996E-05
v 0.2196896 0.14017715 -0.0010486018
v 0.24586354 0.14541192 -0.00012379329
v 0.24586354 0.14541192 -0.00029582012
v 0.1611906 0.086234294 -0.002175694
v 0.11855007 0.09214118 -0.002444203
v 0.11855007 0.09214118 -5.44903E-05
v 0.1611906 0.086234294 -6.315188E-05
v 0.18019992 0.08375605 -0.002055992
v 0.18019992 0.08375607 -6.701307E-05
v 0.17463547 0.10073593 -0.0020910315
v 0.17463544 0.10073593 -6.588309E-05
v 0.2269937 0.0990075 -0.0010234023
v 0.22699367 0.0990075 -0.00010032297
v 0.24330674 0.09857676 -0.0002975929
v 0.24330674 0.09857677 -0.00012373611
v 0.2283456 0.12544952 -0.000100473255
v 0.24586354 0.14541192 -0.00012379329
v 0.24586354 0.14541192 -0.00029582012
v 0.2283456 0.12544952 -0.0010187383
v 0.24586357 0.120298214 -0.00012379326
v 0.24586357 0.120298214 -0.00029582003
v 0.24330674 0.09857677 -0.00012373611
v 0.22727203 0.11097586 -0.0010224421
v 0.24330674 0.09857676 -0.0002975929
v 0.22727203 0.11097586 -0.000100353915
v 0.24586357 0.120298214 -0.00029582003
v 0.24586357 0.120298214 -0.00012379326
vt 0.44983405 0.72585857
vt 0.49064058 0.7231544
vt 0.49134964 0.73422396
vt 0.44509417 0.7436888
vt 0.42445356 0.7477431
vt 0.42935008 0.7287599
vt 0.45132083 0.71923053
vt 0.43077368 0.71955734
vt 0.45239323 0.7149066
vt 0.37211007 0.7343446
vt 0.43172926 0.714365
vt 0.45363015 0.7099204
vt 0.38362354 0.720895
vt 0.3542506 0.73596954
vt 0.37095982 0.72125274
vt 0.34991938 0.71234983
vt 0.43272787 0.7083836
vt 0.45625752 0.69932836
vt 0.43509597 0.69619626
vt 0.36920542 0.7128432
vt 0.38380808 0.706204
vt 0.3772102 0.6887299
vt 0.36876482 0.7054707
vt 0.3481565 0.6848346
vt 0.46113294 0.71651083
vt 0.41487426 0.70705736
vt 0.4155832 0.6959877
vt 0.45638937 0.69868207
vt 0.48177284 0.7205566
vt 0.47686976 0.7015775
vt 0.4549021 0.6920558
vt 0.47544545 0.69237906
vt 0.4538297 0.6877334
vt 0.5340872 0.7071396
vt 0.47448915 0.6871889
vt 0.45259303 0.6827487
vt 0.5225742 0.69369984
vt 0.551939 0.70875776
vt 0.5352322 0.69405305
vt 0.5562599 0.6851471
vt 0.4734897 0.68121076
vt 0.4499666 0.67216134
vt 0.47111696 0.6690282
vt 0.53698313 0.6856475
vt 0.5223849 0.67901677
vt 0.52897406 0.6615473
vt 0.5374205 0.67827785
vt 0.55801284 0.65764415
vt 0.32895255 0.68895566
vt 0.32044172 0.68895566
vt 0.32043755 0.6870661
vt 0.32895756 0.6870661
vt 0.35522994 0.6870661
vt 0.35522237 0.68895566
vt 0.3644145 0.68895566
vt 0.36441296 0.6870661
vt 0.3704171 0.68895566
vt 0.37041405 0.6870661
vt 0.37732285 0.68895566
vt 0.3773198 0.6870661
vt 0.39188808 0.68895566
vt 0.39189374 0.6870661
vt 0.4035077 0.68895566
vt 0.4035293 0.6870661
vt 0.474486 0.68895566
vt 0.47450995 0.6870661
vt 0.5705839 0.68895566
vt 0.5705839 0.6870661
vt 0.4888724 0.67144084
vt 0.5274118 0.67144084
vt 0.5274118 0.67333174
vt 0.48887837 0.6733316
vt 0.4700061 0.67144084
vt 0.47000837 0.67333186
vt 0.45203567 0.67144084
vt 0.45205545 0.67333174
vt 0.38038838 0.67144084
vt 0.3804152 0.6733315
vt 0.32044172 0.67144084
vt 0.32044172 0.67333066
vt 0.45943558 0.72416127
vt 0.360972 0.7241554
vt 0.360972 0.7222674
vt 0.4594357 0.7222674
vt 0.5271596 0.7241626
vt 0.5271596 0.7222674
vt 0.360972 0.7046265
vt 0.4355439 0.706515
vt 0.360972 0.706515
vt 0.4355439 0.7046242
vt 0.51234496 0.706515
vt 0.51234496 0.7046236
vt 0.32895756 0.6870661
vt 0.32043755 0.6870661
vt 0.3204323 0.6850494
vt 0.32895267 0.6850494
vt 0.35522994 0.6870661
vt 0.35522276 0.6850494
vt 0.36441296 0.6870661
vt 0.36441597 0.6850494
vt 0.37041405 0.6870661
vt 0.37041655 0.6850494
vt 0.3773198 0.6870661
vt 0.3773213 0.6850494
vt 0.39189374 0.6870661
vt 0.3918879 0.6850494
vt 0.4035293 0.6870661
vt 0.40350783 0.6850494
vt 0.47450995 0.6870661
vt 0.47448587 0.6850494
vt 0.5705839 0.6870661
vt 0.5705839 0.6850494
vt 0.48887825 0.6694244
vt 0.5274118 0.6694244
vt 0.5274118 0.67144084
vt 0.4888724 0.67144084
vt 0.47000825 0.6694244
vt 0.4700061 0.67144084
vt 0.45205545 0.6694244
vt 0.45203567 0.67144084
vt 0.3804152 0.6694244
vt 0.38038838 0.67144084
vt 0.32044172 0.6694244
vt 0.32044172 0.67144084
vt 0.4594357 0.7222674
vt 0.360972 0.7222674
vt 0.360972 0.72025
vt 0.45943582 0.7202492
vt 0.5271596 0.7222674
vt 0.5271596 0.72024935
vt 0.360972 0.706515
vt 0.43554366 0.7085315
vt 0.360972 0.7085304
vt 0.4355439 0.706515
vt 0.51234496 0.7085315
vt 0.51234496 0.706515
vn -0.29114106 0.22303979 -0.9303172
vn -0.5741256 0.5789609 -0.5789508
vn -0.62634796 -0.5486006 -0.5538282
vn -0.08980481 -0.7010928 -0.70739233
vn 0.5646004 -0.46420944 -0.6824485
vn 0.29576012 -0.21000397 -0.9318929
vn -0.6739504 -0.20675817 -0.70925456
vn 0.014313679 -0.0013105725 -0.99989676
vn -0.67160195 -0.21436219 -0.7092247
vn -0.0034652983 -0.7050234 -0.70917565
vn 0.013547709 0.001107603 -0.9999076
vn -0.67160106 -0.21436335 -0.7092253
vn 0.024659222 -0.0022720783 -0.9996934
vn 0.51451576 -0.17558959 -0.83931035
vn 0.48618713 -0.046563156 -0.8726133
vn 0.36392853 0.028998865 -0.9309753
vn 0.013526345 0.0049918927 -0.99989605
vn -0.6918368 0.404214 -0.5983083
vn -0.13173358 0.6934417 -0.70836776
vn 0.023203306 0.00031054195 -0.99973065
vn 0.021201149 0.0072388947 -0.999749
vn -0.12248378 0.6964036 -0.7071207
vn 0.46991 0.13472112 -0.8723731
vn 0.47874138 0.27509546 -0.83374405
vn -0.08980479 -0.70109344 0.7073917
vn -0.6263503 -0.5486029 0.55382323
vn -0.5741262 0.5789614 0.57894975
vn -0.2911406 0.22303928 0.9303174
vn 0.5646005 -0.46420947 0.6824484
vn 0.29576007 -0.2100039 0.9318929
vn -0.6739519 -0.20675965 0.7092526
vn 0.014313695 -0.0013105395 0.99989676
vn -0.6716045 -0.2143634 0.7092219
vn -0.003464924 -0.7050234 0.70917565
vn 0.013547708 0.0011075853 0.9999076
vn -0.67160267 -0.21436362 0.70922357
vn 0.024659254 -0.0022720704 0.9996934
vn 0.5145163 -0.17558964 0.8393101
vn 0.48618397 -0.046562698 0.87261504
vn 0.3639261 0.028998777 0.93097633
vn 0.013526336 0.0049918476 0.99989605
vn -0.69183755 0.4042142 0.5983073
vn -0.131734 0.6934433 0.70836616
vn 0.02320333 0.00031049727 0.99973065
vn 0.02120114 0.0072388416 0.999749
vn -0.122484155 0.6964052 0.70711905
vn 0.46991 0.134721 0.8723731
vn 0.47874132 0.2750954 0.8337441
vn -0.5741262 0.5789614 0.57894975
vn -0.6263503 -0.5486029 0.55382323
vn -0.75406116 -0.65680414 -4.2146844E-06
vn -0.70637923 0.7078335 -1.1183423E-06
vn -0.79962474 0.6005 1.8365548E-06
vn -0.2911406 0.22303928 0.9303174
vn -0.6739519 -0.20675965 0.7092526
vn -0.9565622 -0.29152817 -2.7508522E-06
vn -0.6716045 -0.2143634 0.7092219
vn -0.95323086 -0.30224305 -4.075915E-06
vn -0.67160267 -0.21436362 0.70922357
vn -0.95323044 -0.30224457 -2.3680923E-06
vn -0.69183755 0.4042142 0.5983073
vn -0.8646191 0.50242794 -1.0825876E-06
vn -0.131734 0.6934433 0.70836616
vn -0.20031862 0.9797308 -2.2992447E-06
vn -0.122484155 0.6964052 0.70711905
vn -0.19368039 0.9810647 -2.3755626E-06
vn 0.47874132 0.2750954 0.8337441
vn 0.8658443 0.5003136 0
vn -0.13324727 -0.9910828 -1.0497403E-06
vn -0.75406116 -0.65680414 -4.2146844E-06
vn -0.6263503 -0.5486029 0.55382323
vn -0.08980479 -0.70109344 0.7073917
vn 0.7700497 -0.63798386 -1.2470957E-07
vn 0.5646005 -0.46420947 0.6824484
vn 0.7999658 -0.60004556 -1.159559E-07
vn 0.29576007 -0.2100039 0.9318929
vn -0.029694255 -0.999559 0
vn -0.003464924 -0.7050234 0.70917565
vn 0.94198126 -0.3356655 9.212276E-07
vn 0.5145163 -0.17558964 0.8393101
vn 0.46991 0.134721 0.8723731
vn 0.47874132 0.2750954 0.8337441
vn 0.8658443 0.5003136 0
vn 0.9604273 0.2785311 0
vn 0.3639261 0.028998777 0.93097633
vn 0.9960068 0.08927738 1.2192937E-05
vn 0.5145163 -0.17558964 0.8393101
vn 0.9953264 -0.09656693 8.933233E-06
vn 0.94198126 -0.3356655 9.212276E-07
vn 0.48618397 -0.046562698 0.87261504
vn 0.9960068 0.08927738 1.2192937E-05
vn 0.3639261 0.028998777 0.93097633
vn -0.70637923 0.7078335 -1.1183423E-06
vn -0.75406116 -0.65680414 -4.2146844E-06
vn -0.62634796 -0.5486006 -0.5538282
vn -0.5741256 0.5789609 -0.5789508
vn -0.79962474 0.6005 1.8365548E-06
vn -0.29114106 0.22303979 -0.9303172
vn -0.9565622 -0.29152817 -2.7508522E-06
vn -0.6739504 -0.20675817 -0.70925456
vn -0.95323086 -0.30224305 -4.075915E-06
vn -0.67160195 -0.21436219 -0.7092247
vn -0.95323044 -0.30224457 -2.3680923E-06
vn -0.67160106 -0.21436335 -0.7092253
vn -0.8646191 0.50242794 -1.0825876E-06
vn -0.6918368 0.404214 -0.5983083
vn -0.20031862 0.9797308 -2.2992447E-06
vn -0.13173358 0.6934417 -0.70836776
vn -0.19368039 0.9810647 -2.3755626E-06
vn -0.12248378 0.6964036 -0.7071207
vn 0.8658443 0.5003136 0
vn 0.47874138 0.27509546 -0.83374405
vn -0.08980481 -0.7010928 -0.70739233
vn -0.62634796 -0.5486006 -0.5538282
vn -0.75406116 -0.65680414 -4.2146844E-06
vn -0.13324727 -0.9910828 -1.0497403E-06
vn 0.5646004 -0.46420944 -0.6824485
vn 0.7700497 -0.63798386 -1.2470957E-07
vn 0.29576012 -0.21000397 -0.9318929
vn 0.7999658 -0.60004556 -1.159559E-07
vn -0.0034652983 -0.7050234 -0.70917565
vn -0.029694255 -0.999559 0
vn 0.51451576 -0.17558959 -0.83931035
vn 0.94198126 -0.3356655 9.212276E-07
vn 0.9604273 0.2785311 0
vn 0.8658443 0.5003136 0
vn 0.47874138 0.27509546 -0.83374405
vn 0.46991 0.13472112 -0.8723731
vn 0.9960068 0.08927738 1.2192937E-05
vn 0.36392853 0.028998865 -0.9309753
vn 0.94198126 -0.3356655 9.212276E-07
vn 0.48618713 -0.046563156 -0.8726133
vn 0.51451576 -0.17558959 -0.83931035
vn 0.9953264 -0.09656693 8.933233E-06
vn 0.36392853 0.028998865 -0.9309753
vn 0.9960068 0.08927738 1.2192937E-05
g pm0479_16_LArmSkin_tx0_0
f 3/3/3 2/2/2 1/1/1
f 4/4/4 3/3/3 1/1/1
f 4/4/4 1/1/1 5/5/5
f 1/1/1 6/6/6 5/5/5
f 6/6/6 1/1/1 7/7/7
f 8/8/8 6/6/6 7/7/7
f 8/8/8 7/7/7 9/9/9
f 10/10/10 6/6/6 8/8/8
f 11/11/11 8/8/8 9/9/9
f 11/11/11 9/9/9 12/12/12
f 13/13/13 10/10/10 8/8/8
f 8/8/8 11/11/11 13/13/13
f 14/14/14 10/10/10 13/13/13
f 15/15/15 14/14/14 13/13/13
f 15/15/15 13/13/13 16/16/16
f 17/17/17 11/11/11 12/12/12
f 17/17/17 12/12/12 18/18/18
f 19/19/19 17/17/17 18/18/18
f 11/11/11 20/20/20 13/13/13
f 13/13/13 20/20/20 16/16/16
f 20/20/20 11/11/11 17/17/17
f 21/21/21 17/17/17 19/19/19
f 21/21/21 20/20/20 17/17/17
f 16/16/16 20/20/20 21/21/21
f 22/22/22 21/21/21 19/19/19
f 23/23/23 16/16/16 21/21/21
f 23/23/23 21/21/21 22/22/22
f 24/24/24 23/23/23 22/22/22
f 27/27/27 26/26/26 25/25/25
f 28/28/28 27/27/27 25/25/25
f 28/28/28 25/25/25 29/29/29
f 30/30/30 28/28/28 29/29/29
f 28/28/28 30/30/30 31/31/31
f 30/30/30 32/32/32 31/31/31
f 31/31/31 32/32/32 33/33/33
f 30/30/30 34/34/34 32/32/32
f 32/32/32 35/35/35 33/33/33
f 33/33/33 35/35/35 36/36/36
f 34/34/34 37/37/37 32/32/32
f 35/35/35 32/32/32 37/37/37
f 34/34/34 38/38/38 37/37/37
f 38/38/38 39/39/39 37/37/37
f 37/37/37 39/39/39 40/40/40
f 35/35/35 41/41/41 36/36/36
f 36/36/36 41/41/41 42/42/42
f 41/41/41 43/43/43 42/42/42
f 44/44/44 35/35/35 37/37/37
f 44/44/44 37/37/37 40/40/40
f 35/35/35 44/44/44 41/41/41
f 41/41/41 45/45/45 43/43/43
f 44/44/44 45/45/45 41/41/41
f 44/44/44 40/40/40 45/45/45
f 45/45/45 46/46/46 43/43/43
f 40/40/40 47/47/47 45/45/45
f 45/45/45 47/47/47 46/46/46
f 47/47/47 48/48/48 46/46/46
f 51/51/51 50/50/50 49/49/49
f 52/52/52 51/51/51 49/49/49
f 53/53/53 52/52/52 49/49/49
f 54/54/54 53/53/53 49/49/49
f 53/53/53 54/54/54 55/55/55
f 56/56/56 53/53/53 55/55/55
f 56/56/56 55/55/55 57/57/57
f 58/58/58 56/56/56 57/57/57
f 58/58/58 57/57/57 59/59/59
f 60/60/60 58/58/58 59/59/59
f 60/60/60 59/59/59 61/61/61
f 62/62/62 60/60/60 61/61/61
f 62/62/62 61/61/61 63/63/63
f 64/64/64 62/62/62 63/63/63
f 64/64/64 63/63/63 65/65/65
f 66/66/66 64/64/64 65/65/65
f 66/66/66 65/65/65 67/67/67
f 68/68/68 66/66/66 67/67/67
f 71/71/71 70/70/70 69/69/69
f 72/72/72 71/71/71 69/69/69
f 69/69/69 73/73/73 72/72/72
f 73/73/73 74/74/74 72/72/72
f 73/73/73 75/75/75 74/74/74
f 75/75/75 76/76/76 74/74/74
f 75/75/75 77/77/77 76/76/76
f 77/77/77 78/78/78 76/76/76
f 77/77/77 79/79/79 78/78/78
f 79/79/79 80/80/80 78/78/78
f 83/83/83 82/82/82 81/81/81
f 84/84/84 83/83/83 81/81/81
f 84/84/84 81/81/81 85/85/85
f 86/86/86 84/84/84 85/85/85
f 89/89/89 88/88/88 87/87/87
f 88/88/88 90/90/90 87/87/87
f 88/88/88 91/91/91 90/90/90
f 91/91/91 92/92/92 90/90/90
f 95/95/95 94/94/94 93/93/93
f 96/96/96 95/95/95 93/93/93
f 96/96/96 93/93/93 97/97/97
f 98/98/98 96/96/96 97/97/97
f 98/98/98 97/97/97 99/99/99
f 100/100/100 98/98/98 99/99/99
f 100/100/100 99/99/99 101/101/101
f 102/102/102 100/100/100 101/101/101
f 102/102/102 101/101/101 103/103/103
f 104/104/104 102/102/102 103/103/103
f 104/104/104 103/103/103 105/105/105
f 106/106/106 104/104/104 105/105/105
f 106/106/106 105/105/105 107/107/107
f 108/108/108 106/106/106 107/107/107
f 108/108/108 107/107/107 109/109/109
f 110/110/110 108/108/108 109/109/109
f 110/110/110 109/109/109 111/111/111
f 112/112/112 110/110/110 111/111/111
f 115/115/115 114/114/114 113/113/113
f 116/116/116 115/115/115 113/113/113
f 113/113/113 117/117/117 116/116/116
f 117/117/117 118/118/118 116/116/116
f 117/117/117 119/119/119 118/118/118
f 119/119/119 120/120/120 118/118/118
f 119/119/119 121/121/121 120/120/120
f 121/121/121 122/122/122 120/120/120
f 121/121/121 123/123/123 122/122/122
f 123/123/123 124/124/124 122/122/122
f 127/127/127 126/126/126 125/125/125
f 128/128/128 127/127/127 125/125/125
f 128/128/128 125/125/125 129/129/129
f 130/130/130 128/128/128 129/129/129
f 133/133/133 132/132/132 131/131/131
f 132/132/132 134/134/134 131/131/131
f 132/132/132 135/135/135 134/134/134
f 135/135/135 136/136/136 134/134/134
