g pm0438_00_RTearSkin
v -2.9698666E-13 -0.005014848 -0.0031262685
v -2.9698666E-13 -0.005894438 -4.8074387E-05
v 0.003082597 -0.0050416593 -3.790808E-05
v -2.9698666E-13 -0.0050651627 0.003044056
v 0.0024364952 -0.0048369826 -0.00245227
v 0.004015039 -0.0024496943 -0.004023816
v -2.9698666E-13 -0.0027051591 -0.005450933
v -2.9698666E-13 0.000293685 -0.0058804397
v 0.004182032 0.00028126792 -0.0041748215
v -2.9698666E-13 0.0036361655 -0.0051444005
v 0.005427233 -0.0027523348 -1.679345E-05
v 0.0036725632 0.0036260283 -0.0036409001
v -2.9698666E-13 0.0069763097 -0.0035538648
v 0.0025586414 0.0069706505 -0.0025053471
v -2.9698666E-13 0.0130970115 0.0001067963
v 0.005175763 0.0035912043 3.46697E-05
v 0.0036142927 0.006944934 6.039627E-05
v 0.0025657697 0.00692892 0.0026115468
v -2.9698666E-13 0.0069174278 0.0036671583
v 0.0036722326 0.0035661657 0.0036998726
v 0.0041770986 0.00021310756 0.0041837753
v -2.9698666E-13 0.0035517893 0.005203002
v -2.9698666E-13 0.00019775078 0.005884445
v -2.9698666E-13 -0.0027936904 0.0054060775
v 0.005882762 0.00024256407 8.10096E-06
v 0.0040023867 -0.0025150874 0.003995969
v 0.0024101671 -0.0048765326 0.002399368
v -2.9698666E-13 0.000293685 -0.0058804397
v -0.004015039 -0.0024496943 -0.004023816
v -2.9698666E-13 -0.0027051591 -0.005450933
v -2.9698666E-13 -0.005014848 -0.0031262685
v -0.004182032 0.00028126792 -0.0041748215
v -2.9698666E-13 0.0036361655 -0.0051444005
v -0.0036725632 0.0036260283 -0.0036409001
v -2.9698666E-13 0.0069763097 -0.0035538648
v -0.0025586414 0.0069706505 -0.0025053471
v -2.9698666E-13 0.0130970115 0.0001067963
v -0.005175763 0.0035912043 3.46697E-05
v -0.0036142927 0.006944934 6.039627E-05
v -0.0025657697 0.00692892 0.0026115468
v -2.9698666E-13 0.0069174278 0.0036671583
v -0.0036722326 0.0035661657 0.0036998726
v -0.0041770986 0.00021310756 0.0041837753
v -2.9698666E-13 0.0035517893 0.005203002
v -2.9698666E-13 0.00019775078 0.005884445
v -2.9698666E-13 -0.0027936904 0.0054060775
v -0.005882762 0.00024256407 8.10096E-06
v -0.005427233 -0.0027523348 -1.679345E-05
v -0.003082597 -0.0050416593 -3.790808E-05
v -0.0040023867 -0.0025150874 0.003995969
v -2.9698666E-13 -0.0050651627 0.003044056
v -0.0024101671 -0.0048765326 0.002399368
v -2.9698666E-13 -0.005894438 -4.8074387E-05
v -0.0024364952 -0.0048369826 -0.00245227
vt 0.5649164 0.6155447
vt 0.5844104 0.60948986
vt 0.5844104 0.62443465
vt 0.60390484 0.6155288
vt 0.57358027 0.6247355
vt 0.5694027 0.63782716
vt 0.55154264 0.630026
vt 0.54694176 0.64684165
vt 0.5678735 0.64864224
vt 0.5489745 0.66630304
vt 0.5844104 0.6378083
vt 0.5681331 0.6632215
vt 0.5582588 0.68601215
vt 0.5712266 0.6802323
vt 0.5844104 0.7142934
vt 0.5844104 0.66298634
vt 0.5844104 0.6789572
vt 0.59751415 0.6802139
vt 0.6105597 0.68600917
vt 0.6006439 0.66321844
vt 0.6009278 0.64864206
vt 0.61984026 0.6663116
vt 0.62188435 0.6468591
vt 0.61729324 0.63003635
vt 0.5844104 0.6494183
vt 0.59944546 0.637819
vt 0.59536576 0.6246867
vt 0.54694223 0.64684165
vt 0.5694032 0.63782716
vt 0.5515431 0.630026
vt 0.56491685 0.6155447
vt 0.56787395 0.64864224
vt 0.548975 0.66630304
vt 0.5681336 0.6632215
vt 0.55825925 0.68601215
vt 0.5712271 0.6802323
vt 0.5844109 0.7142934
vt 0.5844109 0.66298634
vt 0.5844109 0.6789572
vt 0.5975146 0.6802139
vt 0.6105602 0.68600917
vt 0.60064435 0.66321844
vt 0.6009283 0.64864206
vt 0.6198406 0.6663116
vt 0.6218848 0.6468591
vt 0.61729383 0.63003635
vt 0.5844109 0.6494183
vt 0.5844109 0.6378083
vt 0.5844109 0.62443465
vt 0.5994458 0.637819
vt 0.6039052 0.6155288
vt 0.59536624 0.6246867
vt 0.5844109 0.60948986
vt 0.57358074 0.6247355
vn -0 -0.888835 -0.4582274
vn -0 -0.99997354 -0.007287276
vn 0.45152217 -0.8922373 -0.0063527836
vn -0 -0.895496 0.4450695
vn 0.3866762 -0.8344705 -0.3926073
vn 0.5759577 -0.5763996 -0.5796863
vn -0 -0.5948347 -0.80384797
vn -0 -0.056288376 -0.9984145
vn 0.70607376 -0.05809746 -0.7057511
vn -0 0.42468038 -0.90534335
vn 0.7992617 -0.6009708 -0.0038544622
vn 0.64267445 0.422866 -0.6388692
vn -0 0.7887123 -0.6147624
vn 0.43925136 0.7872235 -0.4328249
vn -0 0.9999677 0.008046386
vn 0.90880007 0.41721487 0.0037802055
vn 0.6211313 0.7836802 0.0064122323
vn 0.43917862 0.78013223 0.44555128
vn -0 0.77870756 0.6273871
vn 0.64229494 0.412413 0.64604396
vn 0.70522034 -0.06932135 0.7055912
vn -0 0.409904 0.91212875
vn -0 -0.07211809 0.9973961
vn -0 -0.60683167 0.7948304
vn 0.99792933 -0.06431958 0.00030043372
vn 0.57518744 -0.5851181 0.5716609
vn 0.38623062 -0.84024763 0.38053885
vn -0 -0.056288376 -0.9984145
vn -0.57595754 -0.57639974 -0.57968634
vn -0 -0.5948347 -0.80384797
vn -0 -0.888835 -0.4582274
vn -0.70607376 -0.05809764 -0.70575106
vn -0 0.42468038 -0.90534335
vn -0.6426744 0.42286602 -0.63886935
vn -0 0.7887123 -0.6147624
vn -0.43925127 0.7872235 -0.432825
vn -0 0.9999677 0.008046386
vn -0.90880007 0.41721472 0.0037802057
vn -0.62113124 0.7836803 0.0064122346
vn -0.43917844 0.78013235 0.44555113
vn -0 0.77870756 0.6273871
vn -0.64229476 0.4124129 0.646044
vn -0.70522016 -0.069321334 0.70559126
vn -0 0.409904 0.91212875
vn -0 -0.07211809 0.9973961
vn -0 -0.60683167 0.7948304
vn -0.99792933 -0.06431968 0.00030043372
vn -0.79926157 -0.60097104 -0.0038544629
vn -0.45152193 -0.89223737 -0.006352864
vn -0.5751872 -0.58511835 0.57166094
vn -0 -0.895496 0.4450695
vn -0.38623053 -0.8402477 0.38053885
vn -0 -0.99997354 -0.007287276
vn -0.38667628 -0.8344705 -0.39260736
g pm0438_00_RTearSkin_0
f 3/3/3 2/2/2 1/1/1
f 4/4/4 2/2/2 3/3/3
f 5/5/5 3/3/3 1/1/1
f 6/6/6 5/5/5 1/1/1
f 5/5/5 6/6/6 3/3/3
f 7/7/7 6/6/6 1/1/1
f 6/6/6 7/7/7 8/8/8
f 9/9/9 6/6/6 8/8/8
f 8/8/8 10/10/10 9/9/9
f 6/6/6 11/11/11 3/3/3
f 11/11/11 6/6/6 9/9/9
f 10/10/10 12/12/12 9/9/9
f 10/10/10 13/13/13 12/12/12
f 13/13/13 14/14/14 12/12/12
f 14/14/14 13/13/13 15/15/15
f 9/9/9 12/12/12 16/16/16
f 12/12/12 14/14/14 16/16/16
f 17/17/17 14/14/14 15/15/15
f 14/14/14 17/17/17 16/16/16
f 18/18/18 17/17/17 15/15/15
f 19/19/19 18/18/18 15/15/15
f 17/17/17 18/18/18 20/20/20
f 20/20/20 18/18/18 19/19/19
f 16/16/16 17/17/17 20/20/20
f 16/16/16 20/20/20 21/21/21
f 22/22/22 20/20/20 19/19/19
f 21/21/21 20/20/20 22/22/22
f 23/23/23 21/21/21 22/22/22
f 23/23/23 24/24/24 21/21/21
f 25/25/25 9/9/9 16/16/16
f 25/25/25 16/16/16 21/21/21
f 25/25/25 11/11/11 9/9/9
f 25/25/25 21/21/21 11/11/11
f 24/24/24 26/26/26 21/21/21
f 21/21/21 26/26/26 11/11/11
f 26/26/26 24/24/24 4/4/4
f 11/11/11 26/26/26 3/3/3
f 27/27/27 4/4/4 3/3/3
f 27/27/27 26/26/26 4/4/4
f 26/26/26 27/27/27 3/3/3
f 30/30/30 29/29/29 28/28/28
f 29/29/29 30/30/30 31/31/31
f 29/29/29 32/32/32 28/28/28
f 33/33/33 28/28/28 32/32/32
f 34/34/34 33/33/33 32/32/32
f 35/35/35 33/33/33 34/34/34
f 36/36/36 35/35/35 34/34/34
f 35/35/35 36/36/36 37/37/37
f 36/36/36 34/34/34 38/38/38
f 34/34/34 32/32/32 38/38/38
f 36/36/36 39/39/39 37/37/37
f 39/39/39 36/36/36 38/38/38
f 39/39/39 40/40/40 37/37/37
f 40/40/40 41/41/41 37/37/37
f 40/40/40 39/39/39 42/42/42
f 40/40/40 42/42/42 41/41/41
f 39/39/39 38/38/38 42/42/42
f 42/42/42 38/38/38 43/43/43
f 42/42/42 44/44/44 41/41/41
f 42/42/42 43/43/43 44/44/44
f 43/43/43 45/45/45 44/44/44
f 46/46/46 45/45/45 43/43/43
f 32/32/32 47/47/47 38/38/38
f 38/38/38 47/47/47 43/43/43
f 48/48/48 47/47/47 32/32/32
f 43/43/43 47/47/47 48/48/48
f 29/29/29 48/48/48 32/32/32
f 48/48/48 29/29/29 49/49/49
f 50/50/50 46/46/46 43/43/43
f 50/50/50 43/43/43 48/48/48
f 50/50/50 48/48/48 49/49/49
f 46/46/46 50/50/50 51/51/51
f 50/50/50 52/52/52 51/51/51
f 52/52/52 50/50/50 49/49/49
f 51/51/51 52/52/52 49/49/49
f 53/53/53 51/51/51 49/49/49
f 53/53/53 49/49/49 31/31/31
f 29/29/29 54/54/54 49/49/49
f 49/49/49 54/54/54 31/31/31
f 54/54/54 29/29/29 31/31/31
