g pm0479_13_AuraCSkin_tz1
v 2.4958775E-32 0.17311205 0.11646291
v 2.7770757E-32 0.20162895 0.11139253
v -0.02314694 0.20160525 0.11087589
v -0.021083001 0.17332321 0.1162494
v -0.046367798 0.20166963 0.10959528
v -0.018601889 0.14356844 0.11740932
v 2.2034771E-32 0.14345913 0.11749283
v -0.017736435 0.114050336 0.11472535
v 1.9127438E-32 0.11397527 0.11474706
v 1.6949519E-32 0.09188855 0.11193296
v -0.04118646 0.1436527 0.11724951
v -0.04295273 0.17258854 0.115658455
v -0.01770247 0.09213548 0.111916155
v 1.5100252E-32 0.07313474 0.107010804
v -0.062218707 0.17214306 0.11478272
v -0.06376905 0.2018473 0.10805342
v -0.083494864 0.20192382 0.10607502
v -0.08282975 0.17214184 0.111359954
v -0.062150043 0.1436792 0.11617056
v -0.08163031 0.14365824 0.112094864
v -0.041160267 0.114076585 0.1147597
v -0.06235414 0.11413106 0.11435312
v -0.07885656 0.11359187 0.110664986
v -0.041130494 0.09230325 0.11175552
v -0.06158751 0.0926273 0.111206196
v -0.0762357 0.092940584 0.10767525
v -0.017694946 0.07327905 0.10696116
v -0.061180636 0.07356851 0.10622261
v -0.073619515 0.073054224 0.10143692
v -0.06988697 0.053936247 0.09206393
v -0.06150176 0.052738905 0.09452868
v -0.041387886 0.05040457 0.09530348
v -0.041126125 0.07350397 0.10672437
v -0.019446747 0.04891336 0.095840864
v 1.2603251E-32 0.047812145 0.09557945
v 2.4958775E-32 0.17311205 0.11646291
v 0.02314694 0.20160525 0.11087589
v 2.7770757E-32 0.20162895 0.11139253
v 0.021083001 0.17332321 0.1162494
v 0.046367798 0.20166963 0.10959528
v 0.018601889 0.14356844 0.11740932
v 2.2034771E-32 0.14345913 0.11749283
v 0.017736435 0.114050336 0.11472535
v 1.9127438E-32 0.11397527 0.11474706
v 1.6949519E-32 0.09188855 0.11193296
v 0.04118646 0.1436527 0.11724951
v 0.04295273 0.17258854 0.115658455
v 0.01770247 0.09213548 0.111916155
v 1.5100252E-32 0.07313474 0.107010804
v 0.062218707 0.17214306 0.11478272
v 0.06376905 0.2018473 0.10805342
v 0.083494864 0.20192382 0.10607502
v 0.08282975 0.17214184 0.111359954
v 0.062150043 0.1436792 0.11617056
v 0.08163031 0.14365824 0.112094864
v 0.041160267 0.114076585 0.1147597
v 0.06235414 0.11413106 0.11435312
v 0.07885656 0.11359187 0.110664986
v 0.041130494 0.09230325 0.11175552
v 0.06158751 0.0926273 0.111206196
v 0.0762357 0.092940584 0.10767525
v 0.017694946 0.07327905 0.10696116
v 0.041126125 0.07350397 0.10672437
v 0.061180636 0.07356851 0.10622261
v 0.073619515 0.073054224 0.10143692
v 0.06988697 0.053936247 0.09206393
v 0.06150176 0.052738905 0.09452868
v 0.041387886 0.05040457 0.09530348
v 0.019446747 0.04891336 0.095840864
v 1.2603251E-32 0.047812145 0.09557945
vt 0 0.28040612
vt 0 0.30078125
vt 0.01626122 0.30078125
vt 0.014726996 0.28053617
vt 0.032617807 0.3007813
vt 0.012969851 0.25972676
vt 0 0.25965965
vt 0.012373328 0.23904407
vt 0 0.2389921
vt 0 0.22344625
vt 0.028707504 0.2597553
vt 0.030007124 0.27996308
vt 0.012360811 0.22362167
vt 0 0.20988727
vt 0.043468952 0.27956706
vt 0.044916272 0.3007813
vt 0.058870673 0.30078137
vt 0.0581156 0.2796815
vt 0.04333222 0.25972277
vt 0.05728221 0.25966066
vt 0.028709054 0.23907119
vt 0.043492436 0.2390827
vt 0.055357218 0.23845774
vt 0.028707504 0.22375196
vt 0.042966127 0.22394264
vt 0.053556323 0.22365987
vt 0.01238668 0.2099911
vt 0.042723417 0.21027434
vt 0.05194676 0.20882219
vt 0.049666524 0.19366652
vt 0.04341221 0.19357651
vt 0.029191732 0.19209915
vt 0.028770328 0.2101776
vt 0.013710499 0.19118404
vt 0 0.19036865
vt 0 0.28040612
vt 0.01626122 0.30078125
vt 0 0.30078125
vt 0.014726996 0.28053617
vt 0.032617807 0.3007813
vt 0.012969851 0.25972676
vt 0 0.25965965
vt 0.012373328 0.23904407
vt 0 0.2389921
vt 0 0.22344625
vt 0.028707504 0.2597553
vt 0.030007124 0.27996308
vt 0.012360811 0.22362167
vt 0 0.20988727
vt 0.043468952 0.27956706
vt 0.044916272 0.3007813
vt 0.058870673 0.30078137
vt 0.0581156 0.2796815
vt 0.04333222 0.25972277
vt 0.05728221 0.25966066
vt 0.028709054 0.23907119
vt 0.043492436 0.2390827
vt 0.055357218 0.23845774
vt 0.028707504 0.22375196
vt 0.042966127 0.22394264
vt 0.053556323 0.22365987
vt 0.01238668 0.2099911
vt 0.028770328 0.2101776
vt 0.042723417 0.21027434
vt 0.05194676 0.20882219
vt 0.049666524 0.19366652
vt 0.04341221 0.19357651
vt 0.029191732 0.19209915
vt 0.013710499 0.19118404
vt 0 0.19036865
vn -0 -0.10869911 -0.99407476
vn -0 -0.18029904 -0.9836119
vn 0.029511072 -0.18582913 -0.9821389
vn 0.020991426 -0.1137394 -0.9932888
vn 0.054712698 -0.1991177 -0.978447
vn 0.0077651986 0.024268597 -0.9996753
vn -0 0.027633136 -0.9996182
vn 0.0029314726 0.109428085 -0.9939904
vn -0 0.10924517 -0.9940149
vn -0 0.1907882 -0.9816312
vn 0.026236614 0.016039833 -0.9995271
vn 0.044121064 -0.12386889 -0.9913173
vn 0.005114592 0.19264844 -0.98125446
vn -0 0.33471304 -0.9423201
vn 0.10763333 -0.120869085 -0.986816
vn 0.09794193 -0.19935864 -0.97501975
vn 0.12990624 -0.19164114 -0.9728299
vn 0.15739444 -0.11248367 -0.98110884
vn 0.11995124 0.013050928 -0.992694
vn 0.19691114 0.014847818 -0.9803089
vn 0.01635956 0.10825295 -0.99398875
vn 0.1233266 0.10900618 -0.986361
vn 0.21596856 0.11017493 -0.9701644
vn 0.016302973 0.19669257 -0.98032975
vn 0.13940468 0.21205933 -0.9672627
vn 0.25127015 0.22246416 -0.94200474
vn 0.013858677 0.3390909 -0.94065154
vn 0.16921625 0.37285817 -0.9123281
vn 0.29349762 0.37704933 -0.87846047
vn 0.30473763 0.46451655 -0.83148015
vn 0.18175572 0.46823594 -0.86470807
vn 0.043718502 0.44614148 -0.893894
vn 0.031491645 0.35298193 -0.93509996
vn 0.020126041 0.4203887 -0.9071208
vn -0 0.41303423 -0.9107155
vn -0 -0.10869911 -0.99407476
vn -0.029510869 -0.18582912 -0.9821389
vn -0 -0.18029904 -0.9836119
vn -0.020991286 -0.11373938 -0.9932888
vn -0.05471262 -0.19911768 -0.978447
vn -0.007765196 0.024268594 -0.9996753
vn -0 0.027633136 -0.9996182
vn -0.002931455 0.109428085 -0.9939904
vn -0 0.10924517 -0.9940149
vn -0 0.1907882 -0.9816312
vn -0.02623642 0.016039837 -0.9995271
vn -0.044120897 -0.123868875 -0.9913173
vn -0.00511457 0.19264843 -0.9812546
vn -0 0.33471304 -0.9423201
vn -0.10763334 -0.12086909 -0.986816
vn -0.0979421 -0.19935866 -0.97501975
vn -0.12990628 -0.19164117 -0.9728299
vn -0.15739444 -0.1124837 -0.98110884
vn -0.11995104 0.013050924 -0.992694
vn -0.19691104 0.014847807 -0.9803089
vn -0.016359448 0.10825295 -0.99398875
vn -0.123326525 0.10900618 -0.986361
vn -0.21596856 0.11017493 -0.9701644
vn -0.016302967 0.19669254 -0.98032975
vn -0.13940483 0.21205933 -0.9672627
vn -0.25127035 0.22246417 -0.94200474
vn -0.013858732 0.3390909 -0.94065154
vn -0.03149162 0.3529819 -0.93509996
vn -0.16921636 0.37285817 -0.9123281
vn -0.29349792 0.37704933 -0.87846047
vn -0.30473793 0.46451646 -0.83148015
vn -0.18175583 0.46823594 -0.86470807
vn -0.043718394 0.4461415 -0.8938939
vn -0.020126086 0.4203887 -0.9071208
vn -0 0.41303423 -0.9107155
g pm0479_13_AuraCSkin_tz1_0
f 3/3/3 2/2/2 1/1/1
f 4/4/4 3/3/3 1/1/1
f 3/3/3 4/4/4 5/5/5
f 6/6/6 4/4/4 1/1/1
f 7/7/7 6/6/6 1/1/1
f 6/6/6 7/7/7 8/8/8
f 7/7/7 9/9/9 8/8/8
f 8/8/8 9/9/9 10/10/10
f 6/6/6 11/11/11 4/4/4
f 6/6/6 8/8/8 11/11/11
f 4/4/4 12/12/12 5/5/5
f 11/11/11 12/12/12 4/4/4
f 13/13/13 8/8/8 10/10/10
f 13/13/13 10/10/10 14/14/14
f 5/5/5 12/12/12 15/15/15
f 16/16/16 5/5/5 15/15/15
f 16/16/16 15/15/15 17/17/17
f 15/15/15 18/18/18 17/17/17
f 19/19/19 15/15/15 12/12/12
f 18/18/18 15/15/15 19/19/19
f 11/11/11 19/19/19 12/12/12
f 20/20/20 18/18/18 19/19/19
f 8/8/8 21/21/21 11/11/11
f 11/11/11 21/21/21 19/19/19
f 8/8/8 13/13/13 21/21/21
f 19/19/19 22/22/22 20/20/20
f 21/21/21 22/22/22 19/19/19
f 22/22/22 23/23/23 20/20/20
f 13/13/13 24/24/24 21/21/21
f 21/21/21 24/24/24 22/22/22
f 22/22/22 25/25/25 23/23/23
f 24/24/24 25/25/25 22/22/22
f 25/25/25 26/26/26 23/23/23
f 13/13/13 27/27/27 24/24/24
f 27/27/27 13/13/13 14/14/14
f 26/26/26 25/25/25 28/28/28
f 29/29/29 26/26/26 28/28/28
f 30/30/30 29/29/29 28/28/28
f 31/31/31 30/30/30 28/28/28
f 31/31/31 28/28/28 32/32/32
f 24/24/24 33/33/33 25/25/25
f 33/33/33 28/28/28 25/25/25
f 28/28/28 33/33/33 32/32/32
f 27/27/27 33/33/33 24/24/24
f 32/32/32 33/33/33 34/34/34
f 33/33/33 27/27/27 34/34/34
f 34/34/34 27/27/27 14/14/14
f 35/35/35 34/34/34 14/14/14
f 38/38/38 37/37/37 36/36/36
f 37/37/37 39/39/39 36/36/36
f 39/39/39 37/37/37 40/40/40
f 39/39/39 41/41/41 36/36/36
f 41/41/41 42/42/42 36/36/36
f 42/42/42 41/41/41 43/43/43
f 44/44/44 42/42/42 43/43/43
f 44/44/44 43/43/43 45/45/45
f 46/46/46 41/41/41 39/39/39
f 43/43/43 41/41/41 46/46/46
f 47/47/47 39/39/39 40/40/40
f 47/47/47 46/46/46 39/39/39
f 43/43/43 48/48/48 45/45/45
f 45/45/45 48/48/48 49/49/49
f 47/47/47 40/40/40 50/50/50
f 40/40/40 51/51/51 50/50/50
f 50/50/50 51/51/51 52/52/52
f 53/53/53 50/50/50 52/52/52
f 50/50/50 54/54/54 47/47/47
f 50/50/50 53/53/53 54/54/54
f 54/54/54 46/46/46 47/47/47
f 53/53/53 55/55/55 54/54/54
f 56/56/56 43/43/43 46/46/46
f 56/56/56 46/46/46 54/54/54
f 48/48/48 43/43/43 56/56/56
f 57/57/57 54/54/54 55/55/55
f 57/57/57 56/56/56 54/54/54
f 58/58/58 57/57/57 55/55/55
f 59/59/59 48/48/48 56/56/56
f 59/59/59 56/56/56 57/57/57
f 60/60/60 57/57/57 58/58/58
f 60/60/60 59/59/59 57/57/57
f 61/61/61 60/60/60 58/58/58
f 62/62/62 48/48/48 59/59/59
f 48/48/48 62/62/62 49/49/49
f 63/63/63 59/59/59 60/60/60
f 63/63/63 62/62/62 59/59/59
f 60/60/60 61/61/61 64/64/64
f 64/64/64 63/63/63 60/60/60
f 61/61/61 65/65/65 64/64/64
f 65/65/65 66/66/66 64/64/64
f 66/66/66 67/67/67 64/64/64
f 64/64/64 67/67/67 68/68/68
f 63/63/63 64/64/64 68/68/68
f 63/63/63 68/68/68 69/69/69
f 62/62/62 63/63/63 69/69/69
f 62/62/62 69/69/69 49/49/49
f 69/69/69 70/70/70 49/49/49
