g pm0479_14_ArmSkin_tx0
v -0.3107419 0.3063276 0.0026992613
v -0.27480888 0.20383613 0.0026992601
v -0.27905288 0.20567703 0.0026992601
v -0.3078699 0.3086475 0.0026992634
v -0.2512991 0.2792304 0.002699258
v -0.24416474 0.20121063 0.0026992627
v -0.19472831 0.24981336 0.0026992522
v -0.21352059 0.19858514 0.0026992657
v -0.13815752 0.22039625 0.0026992464
v -0.18287638 0.19595967 0.0026992685
v -0.1379283 0.21690533 0.0026992552
v -0.18559442 0.16444966 0.0026992604
v -0.21903422 0.14633852 0.0026992436
v -0.21771924 0.14337271 0.0026992585
v -0.1583267 0.15840486 0.0026992105
v -0.18022953 0.13765262 0.0026992229
v -0.13105896 0.15236005 0.0026991605
v -0.14273983 0.13193254 0.0026991868
v -0.09501305 0.14631526 0.0026991107
v -0.09647196 0.12621242 0.002699151
v -0.3107419 0.3063276 -0.0026992625
v -0.3078699 0.3086475 -0.0026992601
v -0.3078699 0.3086475 0.0026992634
v -0.3107419 0.3063276 0.0026992613
v -0.27905285 0.20567703 -0.002699265
v -0.27905288 0.20567703 0.0026992601
v -0.18559442 0.16444966 0.0026992604
v -0.18559442 0.16444966 -0.0026992646
v -0.1583267 0.15840486 -0.0026992136
v -0.1583267 0.15840486 0.0026992105
v -0.13105893 0.15236005 -0.002699162
v -0.13105896 0.15236005 0.0026991605
v -0.095013045 0.14631526 -0.0026991104
v -0.09501305 0.14631526 0.0026991107
v -0.09647196 0.12621242 0.002699151
v -0.09647193 0.12621242 -0.002699151
v -0.1427398 0.13193254 -0.0026991891
v -0.14273983 0.13193254 0.0026991868
v -0.18022953 0.13765264 -0.0026992278
v -0.18022953 0.13765262 0.0026992229
v -0.21771924 0.14337273 -0.0026992667
v -0.21771924 0.14337271 0.0026992585
v -0.27905285 0.20567703 -0.002699265
v -0.3078699 0.3086475 -0.0026992601
v -0.3107419 0.3063276 -0.0026992625
v -0.27480888 0.20383613 -0.002699265
v -0.24416474 0.20121063 -0.0026992622
v -0.25129908 0.2792304 -0.0026992643
v -0.21352059 0.19858514 -0.0026992585
v -0.1947283 0.24981329 -0.0026992685
v -0.1828764 0.19595966 -0.0026992552
v -0.13815747 0.22039619 -0.0026992725
v -0.13792828 0.2169053 -0.0026992667
v -0.18559442 0.16444966 -0.0026992646
v -0.21771924 0.14337273 -0.0026992667
v -0.21903427 0.14633852 -0.0026992809
v -0.18022953 0.13765264 -0.0026992278
v -0.1583267 0.15840486 -0.0026992136
v -0.1427398 0.13193254 -0.0026991891
v -0.13105893 0.15236005 -0.002699162
v -0.09647193 0.12621242 -0.002699151
v -0.095013045 0.14631526 -0.0026991104
v -0.27480888 0.20383613 0.0026992601
v -0.27905285 0.20567703 -0.002699265
v -0.27905288 0.20567703 0.0026992601
v -0.27480888 0.20383613 -0.002699265
v -0.24416474 0.20121063 0.0026992627
v -0.24416474 0.20121063 -0.0026992622
v -0.21352059 0.19858514 0.0026992657
v -0.21352059 0.19858514 -0.0026992585
v -0.18287638 0.19595967 0.0026992685
v -0.1828764 0.19595966 -0.0026992552
v -0.21903422 0.14633852 0.0026992436
v -0.21903427 0.14633852 -0.0026992809
v -0.21771924 0.14337271 0.0026992585
v -0.21771924 0.14337273 -0.0026992667
v -0.1379283 0.21690533 0.0026992552
v -0.18559442 0.16444966 -0.0026992646
v -0.18559442 0.16444966 0.0026992604
v -0.13792828 0.2169053 -0.0026992667
v -0.13815752 0.22039625 0.0026992464
v -0.13815747 0.22039619 -0.0026992725
v -0.1947283 0.24981329 -0.0026992685
v -0.19472831 0.24981336 0.0026992522
v -0.2512991 0.2792304 0.002699258
v -0.25129908 0.2792304 -0.0026992643
v -0.3078699 0.3086475 0.0026992634
v -0.3078699 0.3086475 -0.0026992601
v 0.3107419 0.3063276 0.0026992613
v 0.27905288 0.20567703 0.0026992601
v 0.27480888 0.20383613 0.0026992601
v 0.3078699 0.3086475 0.0026992634
v 0.2512991 0.2792304 0.002699258
v 0.24416474 0.20121063 0.0026992627
v 0.19472831 0.24981336 0.0026992522
v 0.21352059 0.19858514 0.0026992657
v 0.13815752 0.22039625 0.0026992464
v 0.18287638 0.19595967 0.0026992685
v 0.1379283 0.21690533 0.0026992552
v 0.18559442 0.16444966 0.0026992604
v 0.21903422 0.14633852 0.0026992436
v 0.21771924 0.14337271 0.0026992585
v 0.1583267 0.15840486 0.0026992105
v 0.18022953 0.13765262 0.0026992229
v 0.13105896 0.15236005 0.0026991605
v 0.14273983 0.13193254 0.0026991868
v 0.09501305 0.14631526 0.0026991107
v 0.09647196 0.12621242 0.002699151
v 0.3107419 0.3063276 -0.0026992625
v 0.3078699 0.3086475 0.0026992634
v 0.3078699 0.3086475 -0.0026992601
v 0.3107419 0.3063276 0.0026992613
v 0.27905285 0.20567703 -0.002699265
v 0.27905288 0.20567703 0.0026992601
v 0.18559442 0.16444966 0.0026992604
v 0.1583267 0.15840486 -0.0026992136
v 0.18559442 0.16444966 -0.0026992646
v 0.1583267 0.15840486 0.0026992105
v 0.13105893 0.15236005 -0.002699162
v 0.13105896 0.15236005 0.0026991605
v 0.095013045 0.14631526 -0.0026991104
v 0.09501305 0.14631526 0.0026991107
v 0.09647196 0.12621242 0.002699151
v 0.09647193 0.12621242 -0.002699151
v 0.1427398 0.13193254 -0.0026991891
v 0.14273983 0.13193254 0.0026991868
v 0.18022953 0.13765264 -0.0026992278
v 0.18022953 0.13765262 0.0026992229
v 0.21771924 0.14337273 -0.0026992667
v 0.21771924 0.14337271 0.0026992585
v 0.27905285 0.20567703 -0.002699265
v 0.3107419 0.3063276 -0.0026992625
v 0.3078699 0.3086475 -0.0026992601
v 0.27480888 0.20383613 -0.002699265
v 0.24416474 0.20121063 -0.0026992622
v 0.25129908 0.2792304 -0.0026992643
v 0.21352059 0.19858514 -0.0026992585
v 0.1947283 0.24981329 -0.0026992685
v 0.1828764 0.19595966 -0.0026992552
v 0.13815747 0.22039619 -0.0026992725
v 0.13792828 0.2169053 -0.0026992667
v 0.18559442 0.16444966 -0.0026992646
v 0.21771924 0.14337273 -0.0026992667
v 0.21903427 0.14633852 -0.0026992809
v 0.18022953 0.13765264 -0.0026992278
v 0.1583267 0.15840486 -0.0026992136
v 0.1427398 0.13193254 -0.0026991891
v 0.13105893 0.15236005 -0.002699162
v 0.09647193 0.12621242 -0.002699151
v 0.095013045 0.14631526 -0.0026991104
v 0.27480888 0.20383613 0.0026992601
v 0.27905288 0.20567703 0.0026992601
v 0.27905285 0.20567703 -0.002699265
v 0.27480888 0.20383613 -0.002699265
v 0.24416474 0.20121063 0.0026992627
v 0.24416474 0.20121063 -0.0026992622
v 0.21352059 0.19858514 0.0026992657
v 0.21352059 0.19858514 -0.0026992585
v 0.18287638 0.19595967 0.0026992685
v 0.1828764 0.19595966 -0.0026992552
v 0.21903422 0.14633852 0.0026992436
v 0.21903427 0.14633852 -0.0026992809
v 0.21771924 0.14337271 0.0026992585
v 0.21771924 0.14337273 -0.0026992667
v 0.1379283 0.21690533 0.0026992552
v 0.18559442 0.16444966 0.0026992604
v 0.18559442 0.16444966 -0.0026992646
v 0.13792828 0.2169053 -0.0026992667
v 0.13815752 0.22039625 0.0026992464
v 0.13815747 0.22039619 -0.0026992725
v 0.1947283 0.24981329 -0.0026992685
v 0.19472831 0.24981336 0.0026992522
v 0.2512991 0.2792304 0.002699258
v 0.25129908 0.2792304 -0.0026992643
v 0.3078699 0.3086475 0.0026992634
v 0.3078699 0.3086475 -0.0026992601
vt 0.35237166 0.59169745
vt 0.30900085 0.6324326
vt 0.31152868 0.6326102
vt 0.3515625 0.58984363
vt 0.31663018 0.58984363
vt 0.29344216 0.62596285
vt 0.28169784 0.5898435
vt 0.27788374 0.61949396
vt 0.24676552 0.58984375
vt 0.2623241 0.6130246
vt 0.24577114 0.5914824
vt 0.25567976 0.62902725
vt 0.26735353 0.6462866
vt 0.26596445 0.64739573
vt 0.2408957 0.62506795
vt 0.24629287 0.6406964
vt 0.22611085 0.621107
vt 0.22662058 0.6339936
vt 0.20705701 0.614925
vt 0.20267972 0.6250675
vt 0.24677266 0.5703232
vt 0.24952991 0.5703232
vt 0.24952991 0.56640625
vt 0.24677266 0.56640625
vt 0.16796598 0.5703232
vt 0.16796875 0.56640625
vt 0.15625 0.55078125
vt 0.15625 0.5546874
vt 0.17683128 0.5546874
vt 0.17683129 0.55078125
vt 0.19741346 0.5546875
vt 0.19741344 0.55078125
vt 0.2243485 0.5546874
vt 0.2243485 0.55078125
vt 0.2392022 0.55078125
vt 0.23920219 0.5546874
vt 0.27355868 0.5546874
vt 0.27355868 0.55078125
vt 0.30099726 0.5546874
vt 0.30099726 0.55078125
vt 0.32843572 0.5546875
vt 0.32843554 0.55078125
vt 0.064142644 0.6326103
vt 0.0241093 0.58984375
vt 0.023299862 0.59169734
vt 0.066670805 0.632432
vt 0.08222933 0.62596333
vt 0.05904153 0.58984375
vt 0.0977871 0.6194937
vt 0.093973935 0.58984375
vt 0.11334669 0.61302507
vt 0.12890625 0.58984375
vt 0.12990026 0.591483
vt 0.11998818 0.6290288
vt 0.10969849 0.6473936
vt 0.10831019 0.6462846
vt 0.12936829 0.64069974
vt 0.13477151 0.62507796
vt 0.14903657 0.6340076
vt 0.14955409 0.62112725
vt 0.17297153 0.6250988
vt 0.16860169 0.61495876
vt 0.4419651 0.55078125
vt 0.44531357 0.5546875
vt 0.4453125 0.55078125
vt 0.4419663 0.5546875
vt 0.41971087 0.55078125
vt 0.41971207 0.5546875
vt 0.39745748 0.55078125
vt 0.39745867 0.5546688
vt 0.37520462 0.55078125
vt 0.37520564 0.5546757
vt 0.3356143 0.55078125
vt 0.33561525 0.5546868
vt 0.32843554 0.55078125
vt 0.32843572 0.5546875
vt 0.39330322 0.56640625
vt 0.4453125 0.5703232
vt 0.4453125 0.56640625
vt 0.39330322 0.5703232
vt 0.39073592 0.56640625
vt 0.39073598 0.5703232
vt 0.3439443 0.5703232
vt 0.34394428 0.56640625
vt 0.29715118 0.56640625
vt 0.2971512 0.5703232
vt 0.24952991 0.56640625
vt 0.24952991 0.5703232
vt 0.35237157 0.5916977
vt 0.31152868 0.63261044
vt 0.30900085 0.6324328
vt 0.3515625 0.58984387
vt 0.31663013 0.58984387
vt 0.29344213 0.6259631
vt 0.28169787 0.58984375
vt 0.27788365 0.6194942
vt 0.2467655 0.589844
vt 0.2623242 0.61302483
vt 0.24577105 0.59148264
vt 0.25567985 0.6290275
vt 0.26735353 0.64628685
vt 0.2659644 0.64739597
vt 0.24089563 0.6250682
vt 0.24629283 0.64069664
vt 0.22611082 0.6211072
vt 0.22662055 0.63399386
vt 0.207057 0.61492527
vt 0.20267975 0.6250677
vt 0.24677265 0.5703232
vt 0.24952996 0.56640625
vt 0.24952996 0.5703232
vt 0.24677265 0.56640625
vt 0.16796601 0.5703232
vt 0.16796875 0.56640625
vt 0.15625 0.55078125
vt 0.17683125 0.5546874
vt 0.15625 0.5546874
vt 0.17683125 0.55078125
vt 0.19741344 0.5546875
vt 0.19741344 0.55078125
vt 0.22434855 0.5546874
vt 0.22434855 0.55078125
vt 0.23920214 0.55078125
vt 0.23920214 0.5546874
vt 0.27355862 0.5546874
vt 0.27355862 0.55078125
vt 0.30099726 0.5546874
vt 0.30099726 0.55078125
vt 0.32843566 0.5546875
vt 0.32843554 0.55078125
vt 0.064142704 0.63261056
vt 0.023299813 0.5916976
vt 0.024109364 0.589844
vt 0.066670775 0.6324322
vt 0.082229495 0.62596357
vt 0.05904138 0.589844
vt 0.09778714 0.61949396
vt 0.093973875 0.589844
vt 0.1133467 0.6130253
vt 0.12890625 0.589844
vt 0.12990022 0.59148324
vt 0.1199882 0.62902904
vt 0.10969853 0.6473938
vt 0.10831022 0.6462848
vt 0.1293683 0.6407
vt 0.13477147 0.6250782
vt 0.14903653 0.6340078
vt 0.14955413 0.6211275
vt 0.17297149 0.62509906
vt 0.16860175 0.614959
vt 0.4419651 0.55078125
vt 0.4453125 0.55078125
vt 0.44531357 0.5546875
vt 0.4419663 0.5546875
vt 0.41971087 0.55078125
vt 0.41971207 0.5546875
vt 0.39745748 0.55078125
vt 0.39745867 0.5546688
vt 0.37520456 0.55078125
vt 0.37520564 0.5546757
vt 0.3356143 0.55078125
vt 0.33561525 0.5546868
vt 0.32843554 0.55078125
vt 0.32843566 0.5546875
vt 0.39330316 0.56640625
vt 0.4453125 0.56640625
vt 0.4453125 0.5703232
vt 0.39330316 0.5703232
vt 0.39073586 0.56640625
vt 0.39073598 0.5703232
vt 0.3439443 0.5703232
vt 0.3439443 0.56640625
vt 0.2971512 0.56640625
vt 0.2971512 0.5703232
vt 0.24952996 0.56640625
vt 0.24952996 0.5703232
vn -0.81907475 0.24724427 0.5176744
vn -0.17199562 -0.6810554 0.71174514
vn -0.65111977 -0.5865449 0.48167217
vn -0.06404484 0.6385224 0.76693386
vn 0.326229 0.6273576 0.7071046
vn -0.060361516 -0.7045257 0.70710665
vn 0.32622987 0.6273595 0.70710266
vn -0.060361087 -0.70452565 0.7071068
vn 0.5500787 0.3591526 0.75393826
vn -0.2830714 -0.12907164 0.9503742
vn 0.8295778 -0.28973922 0.47733822
vn 0.3023678 0.09603066 0.9483416
vn -0.861155 0.09178426 0.49998784
vn -0.40032998 -0.52396417 0.7517962
vn 0.15303944 0.69034684 0.7071069
vn -0.10665352 -0.69901764 0.70710635
vn 0.13501622 0.69397557 0.7072259
vn -0.09671092 -0.7004262 0.7071422
vn 0.651315 0.51188564 0.5601445
vn 0.5137261 -0.6254025 0.5873306
vn -0.81907284 0.24724394 -0.51767766
vn -0.06404448 0.6385215 -0.76693445
vn -0.06404484 0.6385224 0.76693386
vn -0.81907475 0.24724427 0.5176744
vn -0.65111816 -0.5865436 -0.48167592
vn -0.65111977 -0.5865449 0.48167217
vn 0.3023678 0.09603066 0.9483416
vn 0.3023685 0.09603076 -0.9483414
vn 0.15303952 0.69034684 -0.7071069
vn 0.15303944 0.69034684 0.7071069
vn 0.13501623 0.6939753 -0.70722616
vn 0.13501622 0.69397557 0.7072259
vn 0.65131617 0.51188654 -0.56014246
vn 0.651315 0.51188564 0.5601445
vn 0.5137261 -0.6254025 0.5873306
vn 0.513727 -0.6254036 -0.58732855
vn -0.09671074 -0.7004252 -0.7071432
vn -0.09671092 -0.7004262 0.7071422
vn -0.106653385 -0.69901705 -0.70710695
vn -0.10665352 -0.69901764 0.70710635
vn -0.40033007 -0.523965 -0.75179553
vn -0.40032998 -0.52396417 0.7517962
vn -0.65111816 -0.5865436 -0.48167592
vn -0.06404448 0.6385215 -0.76693445
vn -0.81907284 0.24724394 -0.51767766
vn -0.17199524 -0.6810549 -0.71174574
vn -0.06036156 -0.7045256 -0.7071068
vn 0.3262271 0.62735397 -0.70710874
vn -0.060361214 -0.70452577 -0.7071067
vn 0.32622606 0.6273522 -0.70711076
vn -0.28307188 -0.12907216 -0.95037395
vn 0.5500759 0.35915077 -0.7539412
vn 0.8295807 -0.2897403 -0.47733262
vn 0.3023685 0.09603076 -0.9483414
vn -0.40033007 -0.523965 -0.75179553
vn -0.8611572 0.091784365 -0.49998394
vn -0.106653385 -0.69901705 -0.70710695
vn 0.15303952 0.69034684 -0.7071069
vn -0.09671074 -0.7004252 -0.7071432
vn 0.13501623 0.6939753 -0.70722616
vn 0.513727 -0.6254036 -0.58732855
vn 0.65131617 0.51188654 -0.56014246
vn -0.17199562 -0.6810554 0.71174514
vn -0.65111816 -0.5865436 -0.48167592
vn -0.65111977 -0.5865449 0.48167217
vn -0.17199524 -0.6810549 -0.71174574
vn -0.060361516 -0.7045257 0.70710665
vn -0.06036156 -0.7045256 -0.7071068
vn -0.060361087 -0.70452565 0.7071068
vn -0.060361214 -0.70452577 -0.7071067
vn -0.2830714 -0.12907164 0.9503742
vn -0.28307188 -0.12907216 -0.95037395
vn -0.861155 0.09178426 0.49998784
vn -0.8611572 0.091784365 -0.49998394
vn -0.40032998 -0.52396417 0.7517962
vn -0.40033007 -0.523965 -0.75179553
vn 0.8295778 -0.28973922 0.47733822
vn 0.3023685 0.09603076 -0.9483414
vn 0.3023678 0.09603066 0.9483416
vn 0.8295807 -0.2897403 -0.47733262
vn 0.5500787 0.3591526 0.75393826
vn 0.5500759 0.35915077 -0.7539412
vn 0.32622606 0.6273522 -0.70711076
vn 0.32622987 0.6273595 0.70710266
vn 0.326229 0.6273576 0.7071046
vn 0.3262271 0.62735397 -0.70710874
vn -0.06404484 0.6385224 0.76693386
vn -0.06404448 0.6385215 -0.76693445
vn 0.8190748 0.24724397 0.51767445
vn 0.65111965 -0.5865447 0.48167264
vn 0.17199554 -0.6810551 0.7117454
vn 0.064045034 0.6385218 0.7669343
vn -0.3262288 0.6273571 0.7071052
vn 0.06036151 -0.70452565 0.7071068
vn -0.3262296 0.6273591 0.7071031
vn 0.060361087 -0.70452565 0.7071068
vn -0.5500783 0.35915223 0.7539387
vn 0.2830714 -0.12907165 0.9503742
vn -0.8295779 -0.28973943 0.477338
vn -0.30236787 0.09603069 0.9483416
vn 0.8611549 0.09178377 0.49998796
vn 0.40032974 -0.5239646 0.75179607
vn -0.15303944 0.69034684 0.7071069
vn 0.106653504 -0.69901764 0.70710635
vn -0.13501623 0.6939755 0.70722604
vn 0.09671095 -0.70042634 0.70714206
vn -0.65131485 0.5118855 0.5601447
vn -0.51372623 -0.6254026 0.5873304
vn 0.8190731 0.2472437 -0.5176774
vn 0.064045034 0.6385218 0.7669343
vn 0.06404478 0.6385218 -0.7669343
vn 0.8190748 0.24724397 0.51767445
vn 0.65111834 -0.5865438 -0.4816755
vn 0.65111965 -0.5865447 0.48167264
vn -0.30236787 0.09603069 0.9483416
vn -0.15303949 0.69034684 -0.7071069
vn -0.3023684 0.09603073 -0.9483414
vn -0.15303944 0.69034684 0.7071069
vn -0.13501626 0.6939755 -0.70722604
vn -0.13501623 0.6939755 0.70722604
vn -0.6513163 0.5118866 -0.56014204
vn -0.65131485 0.5118855 0.5601447
vn -0.51372623 -0.6254026 0.5873304
vn -0.51372695 -0.62540346 -0.58732885
vn 0.09671073 -0.7004251 -0.7071433
vn 0.09671095 -0.70042634 0.70714206
vn 0.106653355 -0.69901705 -0.70710695
vn 0.106653504 -0.69901764 0.70710635
vn 0.40032977 -0.52396536 -0.7517955
vn 0.40032974 -0.5239646 0.75179607
vn 0.65111834 -0.5865438 -0.4816755
vn 0.8190731 0.2472437 -0.5176774
vn 0.06404478 0.6385218 -0.7669343
vn 0.17199531 -0.6810551 -0.7117455
vn 0.06036157 -0.70452565 -0.70710677
vn -0.3262273 0.6273543 -0.7071083
vn 0.060361203 -0.70452577 -0.70710665
vn -0.32622632 0.62735265 -0.7071103
vn 0.2830719 -0.12907222 -0.95037395
vn -0.5500763 0.3591509 -0.75394076
vn -0.8295804 -0.28974038 -0.47733286
vn -0.3023684 0.09603073 -0.9483414
vn 0.40032977 -0.52396536 -0.7517955
vn 0.8611572 0.09178389 -0.49998415
vn 0.106653355 -0.69901705 -0.70710695
vn -0.15303949 0.69034684 -0.7071069
vn 0.09671073 -0.7004251 -0.7071433
vn -0.13501626 0.6939755 -0.70722604
vn -0.51372695 -0.62540346 -0.58732885
vn -0.6513163 0.5118866 -0.56014204
vn 0.17199554 -0.6810551 0.7117454
vn 0.65111965 -0.5865447 0.48167264
vn 0.65111834 -0.5865438 -0.4816755
vn 0.17199531 -0.6810551 -0.7117455
vn 0.06036151 -0.70452565 0.7071068
vn 0.06036157 -0.70452565 -0.70710677
vn 0.060361087 -0.70452565 0.7071068
vn 0.060361203 -0.70452577 -0.70710665
vn 0.2830714 -0.12907165 0.9503742
vn 0.2830719 -0.12907222 -0.95037395
vn 0.8611549 0.09178377 0.49998796
vn 0.8611572 0.09178389 -0.49998415
vn 0.40032974 -0.5239646 0.75179607
vn 0.40032977 -0.52396536 -0.7517955
vn -0.8295779 -0.28973943 0.477338
vn -0.30236787 0.09603069 0.9483416
vn -0.3023684 0.09603073 -0.9483414
vn -0.8295804 -0.28974038 -0.47733286
vn -0.5500783 0.35915223 0.7539387
vn -0.5500763 0.3591509 -0.75394076
vn -0.32622632 0.62735265 -0.7071103
vn -0.3262296 0.6273591 0.7071031
vn -0.3262288 0.6273571 0.7071052
vn -0.3262273 0.6273543 -0.7071083
vn 0.064045034 0.6385218 0.7669343
vn 0.06404478 0.6385218 -0.7669343
g pm0479_14_ArmSkin_tx0_0
f 3/3/3 2/2/2 1/1/1
f 2/2/2 4/4/4 1/1/1
f 5/5/5 4/4/4 2/2/2
f 6/6/6 5/5/5 2/2/2
f 7/7/7 5/5/5 6/6/6
f 8/8/8 7/7/7 6/6/6
f 9/9/9 7/7/7 8/8/8
f 10/10/10 9/9/9 8/8/8
f 11/11/11 9/9/9 10/10/10
f 12/12/12 11/11/11 10/10/10
f 12/12/12 10/10/10 13/13/13
f 14/14/14 12/12/12 13/13/13
f 15/15/15 12/12/12 14/14/14
f 16/16/16 15/15/15 14/14/14
f 17/17/17 15/15/15 16/16/16
f 18/18/18 17/17/17 16/16/16
f 19/19/19 17/17/17 18/18/18
f 20/20/20 19/19/19 18/18/18
f 23/23/23 22/22/22 21/21/21
f 24/24/24 23/23/23 21/21/21
f 24/24/24 21/21/21 25/25/25
f 26/26/26 24/24/24 25/25/25
f 29/29/29 28/28/28 27/27/27
f 30/30/30 29/29/29 27/27/27
f 31/31/31 29/29/29 30/30/30
f 32/32/32 31/31/31 30/30/30
f 33/33/33 31/31/31 32/32/32
f 34/34/34 33/33/33 32/32/32
f 33/33/33 34/34/34 35/35/35
f 36/36/36 33/33/33 35/35/35
f 36/36/36 35/35/35 37/37/37
f 35/35/35 38/38/38 37/37/37
f 37/37/37 38/38/38 39/39/39
f 38/38/38 40/40/40 39/39/39
f 39/39/39 40/40/40 41/41/41
f 40/40/40 42/42/42 41/41/41
f 45/45/45 44/44/44 43/43/43
f 44/44/44 46/46/46 43/43/43
f 47/47/47 46/46/46 44/44/44
f 48/48/48 47/47/47 44/44/44
f 49/49/49 47/47/47 48/48/48
f 50/50/50 49/49/49 48/48/48
f 51/51/51 49/49/49 50/50/50
f 52/52/52 51/51/51 50/50/50
f 51/51/51 52/52/52 53/53/53
f 54/54/54 51/51/51 53/53/53
f 54/54/54 55/55/55 51/51/51
f 55/55/55 56/56/56 51/51/51
f 57/57/57 55/55/55 54/54/54
f 58/58/58 57/57/57 54/54/54
f 59/59/59 57/57/57 58/58/58
f 60/60/60 59/59/59 58/58/58
f 61/61/61 59/59/59 60/60/60
f 62/62/62 61/61/61 60/60/60
f 65/65/65 64/64/64 63/63/63
f 64/64/64 66/66/66 63/63/63
f 67/67/67 63/63/63 66/66/66
f 68/68/68 67/67/67 66/66/66
f 69/69/69 67/67/67 68/68/68
f 70/70/70 69/69/69 68/68/68
f 71/71/71 69/69/69 70/70/70
f 72/72/72 71/71/71 70/70/70
f 73/73/73 71/71/71 72/72/72
f 74/74/74 73/73/73 72/72/72
f 75/75/75 73/73/73 74/74/74
f 76/76/76 75/75/75 74/74/74
f 79/79/79 78/78/78 77/77/77
f 78/78/78 80/80/80 77/77/77
f 77/77/77 80/80/80 81/81/81
f 80/80/80 82/82/82 81/81/81
f 82/82/82 83/83/83 81/81/81
f 83/83/83 84/84/84 81/81/81
f 85/85/85 84/84/84 83/83/83
f 86/86/86 85/85/85 83/83/83
f 87/87/87 85/85/85 86/86/86
f 88/88/88 87/87/87 86/86/86
f 91/91/91 90/90/90 89/89/89
f 92/92/92 91/91/91 89/89/89
f 92/92/92 93/93/93 91/91/91
f 93/93/93 94/94/94 91/91/91
f 93/93/93 95/95/95 94/94/94
f 95/95/95 96/96/96 94/94/94
f 95/95/95 97/97/97 96/96/96
f 97/97/97 98/98/98 96/96/96
f 97/97/97 99/99/99 98/98/98
f 99/99/99 100/100/100 98/98/98
f 98/98/98 100/100/100 101/101/101
f 100/100/100 102/102/102 101/101/101
f 100/100/100 103/103/103 102/102/102
f 103/103/103 104/104/104 102/102/102
f 103/103/103 105/105/105 104/104/104
f 105/105/105 106/106/106 104/104/104
f 105/105/105 107/107/107 106/106/106
f 107/107/107 108/108/108 106/106/106
f 111/111/111 110/110/110 109/109/109
f 110/110/110 112/112/112 109/109/109
f 109/109/109 112/112/112 113/113/113
f 112/112/112 114/114/114 113/113/113
f 117/117/117 116/116/116 115/115/115
f 116/116/116 118/118/118 115/115/115
f 116/116/116 119/119/119 118/118/118
f 119/119/119 120/120/120 118/118/118
f 119/119/119 121/121/121 120/120/120
f 121/121/121 122/122/122 120/120/120
f 122/122/122 121/121/121 123/123/123
f 121/121/121 124/124/124 123/123/123
f 123/123/123 124/124/124 125/125/125
f 126/126/126 123/123/123 125/125/125
f 126/126/126 125/125/125 127/127/127
f 128/128/128 126/126/126 127/127/127
f 128/128/128 127/127/127 129/129/129
f 130/130/130 128/128/128 129/129/129
f 133/133/133 132/132/132 131/131/131
f 134/134/134 133/133/133 131/131/131
f 134/134/134 135/135/135 133/133/133
f 135/135/135 136/136/136 133/133/133
f 135/135/135 137/137/137 136/136/136
f 137/137/137 138/138/138 136/136/136
f 137/137/137 139/139/139 138/138/138
f 139/139/139 140/140/140 138/138/138
f 140/140/140 139/139/139 141/141/141
f 139/139/139 142/142/142 141/141/141
f 143/143/143 142/142/142 139/139/139
f 144/144/144 143/143/143 139/139/139
f 143/143/143 145/145/145 142/142/142
f 145/145/145 146/146/146 142/142/142
f 145/145/145 147/147/147 146/146/146
f 147/147/147 148/148/148 146/146/146
f 147/147/147 149/149/149 148/148/148
f 149/149/149 150/150/150 148/148/148
f 153/153/153 152/152/152 151/151/151
f 154/154/154 153/153/153 151/151/151
f 151/151/151 155/155/155 154/154/154
f 155/155/155 156/156/156 154/154/154
f 155/155/155 157/157/157 156/156/156
f 157/157/157 158/158/158 156/156/156
f 157/157/157 159/159/159 158/158/158
f 159/159/159 160/160/160 158/158/158
f 159/159/159 161/161/161 160/160/160
f 161/161/161 162/162/162 160/160/160
f 161/161/161 163/163/163 162/162/162
f 163/163/163 164/164/164 162/162/162
f 167/167/167 166/166/166 165/165/165
f 168/168/168 167/167/167 165/165/165
f 168/168/168 165/165/165 169/169/169
f 170/170/170 168/168/168 169/169/169
f 171/171/171 170/170/170 169/169/169
f 172/172/172 171/171/171 169/169/169
f 172/172/172 173/173/173 171/171/171
f 173/173/173 174/174/174 171/171/171
f 173/173/173 175/175/175 174/174/174
f 175/175/175 176/176/176 174/174/174
