g pm0442_00_EyeCloseSkin
v 0.02959353 0.84010243 0.18827379
v 0.05109362 0.81667656 0.19959882
v 8.541636E-17 0.77211976 0.22113937
v 0.027039737 0.7661234 0.22403823
v 0.01803327 0.7476701 0.2329593
v -2.0277123E-17 0.74761534 0.2329858
v -9.878616E-18 0.73158467 0.24073568
v 0.062185805 0.6751252 0.26803046
v -7.94743E-18 0.6742012 0.26847717
v 0.06232004 0.69616395 0.2578595
v 0.1275159 0.7336427 0.23974045
v 0.12622991 0.7562646 0.2288044
v 0.19915779 0.6992925 0.25634697
v 0.062446203 0.5838505 0.31215635
v -1.4357556E-17 0.64086485 0.2845933
v 0.06286618 0.5484984 0.32924697
v 0.12947461 0.6963515 0.25776884
v 0.13060193 0.6738574 0.26864338
v 0.20295154 0.6342835 0.287775
v 0.20448677 0.6064679 0.30122218
v 0.30179644 0.7859554 0.21445066
v 0.29441077 0.7852569 0.21478833
v 0.20044576 0.67875344 0.26627642
v 0.17898422 0.93188184 0.14390393
v 0.17962861 0.94610393 0.13702838
v 0.18622322 0.9500741 0.13510908
v 0.1925799 0.9239037 0.14776084
v 0.19400215 0.94569033 0.13722831
v 0.17288215 0.91128963 0.15385902
v 0.20331411 0.92098814 0.14917037
v 0.1884808 0.89649135 0.16101307
v 0.15617727 0.8930894 0.16265775
v 0.20311409 0.88271254 0.16767435
v 0.17414415 0.869062 0.17427358
v 0.13366102 0.87870413 0.16961215
v 0.18755731 0.848682 0.18412611
v 0.14682934 0.8518776 0.18258117
v 0.15748082 0.8232495 0.1964212
v 0.10865597 0.8722512 0.17273182
v 0.11552751 0.83879966 0.18890361
v 0.119641885 0.81059456 0.20253907
v 0.08344603 0.8092571 0.20318566
v 0.08369933 0.8366372 0.18994904
v 0.083122626 0.8716791 0.17300837
v 0.05109362 0.81667656 0.19959882
v 0.063415356 0.84449303 0.18615122
v 0.04599287 0.8789883 0.1694748
v 0.02959353 0.84010243 0.18827379
v -0.02959353 0.84010243 0.18827379
v 8.541636E-17 0.77211976 0.22113937
v -0.05109362 0.81667656 0.19959882
v -0.027039737 0.7661234 0.22403823
v -0.01803327 0.7476701 0.2329593
v -2.0277123E-17 0.74761534 0.2329858
v -9.878616E-18 0.73158467 0.24073568
v -0.06232004 0.69616395 0.2578595
v -0.062675476 0.6713604 0.26985052
v -0.12753111 0.7345371 0.23930833
v -0.12622991 0.7562646 0.2288044
v -7.94743E-18 0.6742012 0.26847717
v -0.19915779 0.6992925 0.25634697
v -0.06291701 0.5830695 0.312534
v -1.4357556E-17 0.64086485 0.2845933
v -0.06286618 0.5484984 0.32924697
v -0.13060191 0.6738574 0.26864338
v -0.12971586 0.69241005 0.2596743
v -0.20448677 0.6064679 0.30122218
v -0.20274098 0.6310666 0.28933012
v -0.30179644 0.7859554 0.21445066
v -0.2001711 0.68126965 0.2650599
v -0.29441077 0.7852569 0.21478833
v -0.18622322 0.9500741 0.13510908
v -0.17962861 0.94610393 0.13702838
v -0.17898422 0.93188184 0.14390393
v -0.1925799 0.9239037 0.14776084
v -0.19400215 0.94569033 0.13722831
v -0.17288215 0.91128963 0.15385902
v -0.20331411 0.92098814 0.14917037
v -0.1884808 0.89649135 0.16101307
v -0.15617727 0.8930894 0.16265775
v -0.20311409 0.88271254 0.16767435
v -0.17414415 0.869062 0.17427358
v -0.133661 0.87870413 0.16961215
v -0.18755731 0.848682 0.18412611
v -0.14682932 0.8518776 0.18258117
v -0.15748082 0.8232495 0.1964212
v -0.10865597 0.8722512 0.17273182
v -0.11552751 0.83879966 0.18890361
v -0.11964187 0.81059456 0.20253907
v -0.08344603 0.8092571 0.20318566
v -0.08369933 0.8366372 0.18994904
v -0.083122626 0.8716791 0.17300837
v -0.05109362 0.81667656 0.19959882
v -0.06341536 0.84449303 0.18615122
v -0.04599287 0.8789883 0.1694748
v -0.02959353 0.84010243 0.18827379
vt 0.17270824 0.9327043
vt 0.2130279 0.87402517
vt 0.12495029 0.81397414
vt 0.1838826 0.7944519
vt 0.16511482 0.74964476
vt 0.12504905 0.7492874
vt 0.12451198 0.70828193
vt 0.26886564 0.56408733
vt 0.12495632 0.5611759
vt 0.26902306 0.61842436
vt 0.41979358 0.7153086
vt 0.41663325 0.7735637
vt 0.5860666 0.6273849
vt 0.27018774 0.32938996
vt 0.12504905 0.4756525
vt 0.27143598 0.2383862
vt 0.42462748 0.6193324
vt 0.42741746 0.5614535
vt 0.59538573 0.46006244
vt 0.5991717 0.3884685
vt 0.82315826 0.8511588
vt 0.80604947 0.84931195
vt 0.58921635 0.574519
vt 0.08640236 0.34589532
vt 0.08566779 0.3820329
vt 0.07079965 0.3924208
vt 0.054911137 0.32627454
vt 0.052792013 0.38165525
vt 0.099285424 0.2933325
vt 0.030223012 0.31937268
vt 0.06286639 0.25648203
vt 0.13653582 0.24635366
vt 0.0287022 0.22217408
vt 0.09423262 0.18616906
vt 0.1872775 0.20879391
vt 0.06251854 0.13503352
vt 0.15580529 0.14127138
vt 0.1299861 0.0690532
vt 0.24412113 0.191268
vt 0.22671384 0.1066201
vt 0.21586722 0.035166174
vt 0.29857928 0.030108005
vt 0.2993905 0.0996739
vt 0.30247873 0.18865648
vt 0.3736722 0.04803261
vt 0.3461793 0.11870673
vt 0.38775855 0.20554808
vt 0.4230777 0.10462156
vt 0.17270824 0.9327043
vt 0.12504971 0.81397414
vt 0.21302831 0.8740252
vt 0.18390542 0.79446703
vt 0.16517389 0.7496309
vt 0.12505043 0.7492874
vt 0.12453362 0.70827866
vt 0.26902303 0.6184242
vt 0.27004218 0.55443066
vt 0.41982248 0.717615
vt 0.41663346 0.7735636
vt 0.12496251 0.56117254
vt 0.5860665 0.627385
vt 0.271284 0.32738152
vt 0.12505043 0.4756525
vt 0.27143583 0.2383862
vt 0.4274175 0.56145346
vt 0.4252185 0.6091865
vt 0.5991716 0.38846838
vt 0.5949238 0.45177978
vt 0.8231584 0.8511588
vt 0.5885591 0.5809943
vt 0.8060497 0.84931195
vt 0.07075101 0.3923569
vt 0.08562034 0.38197163
vt 0.08636302 0.3458369
vt 0.054878592 0.32620838
vt 0.05274582 0.38158718
vt 0.099258125 0.29327777
vt 0.030192316 0.31930116
vt 0.062847674 0.25642005
vt 0.13651985 0.24630609
vt 0.028692424 0.22210458
vt 0.09422845 0.18611386
vt 0.18726844 0.20875898
vt 0.06252569 0.13497224
vt 0.1558097 0.14122859
vt 0.13000435 0.069006115
vt 0.24411744 0.19124296
vt 0.22672516 0.10659125
vt 0.2158913 0.03513655
vt 0.29860312 0.030091196
vt 0.29940325 0.09965709
vt 0.3024773 0.18864205
vt 0.3736722 0.04803261
vt 0.34618992 0.11869791
vt 0.38775855 0.20554808
vt 0.4230777 0.10462156
vn -2.9802322E-07 0.43524694 0.9003111
vn 2.384186E-07 0.43524674 0.9003113
vn 1.192093E-07 0.43524736 0.9003109
vn 1.1920929E-07 0.4352474 0.9003109
vn 1.1920929E-07 0.4352477 0.9003108
vn -0 0.43524656 0.9003113
vn -0 0.43524656 0.9003113
vn 1.6639761E-06 0.43524632 0.90031135
vn 4.9837E-07 0.43524668 0.9003113
vn -2.3841856E-07 0.4352469 0.9003111
vn 4.4806626E-07 0.43524536 0.9003118
vn 2.3841856E-07 0.4352469 0.9003111
vn 3.5762787E-07 0.43524694 0.9003111
vn -2.7792862E-07 0.4352471 0.900311
vn -0 0.43524694 0.9003111
vn -0 0.43524674 0.9003113
vn 3.158425E-07 0.43524772 0.9003107
vn 1.19209275E-07 0.4352468 0.9003112
vn 7.0534674E-07 0.4352477 0.9003108
vn -0 0.4352458 0.90031165
vn -0 0.4352441 0.90031254
vn -0 0.43524545 0.9003118
vn -1.4321039E-06 0.43524536 0.9003118
vn 2.3841862E-06 0.43524805 0.9003106
vn 3.8146966E-06 0.435247 0.9003111
vn 2.1457672E-06 0.43524706 0.9003111
vn 1.1920929E-07 0.4352474 0.9003109
vn -9.536742E-07 0.4352495 0.9003098
vn 1.66893E-06 0.43524686 0.9003112
vn -2.5629995E-06 0.43524754 0.9003109
vn -4.1723246E-07 0.4352463 0.90031135
vn 5.9604633E-07 0.4352459 0.90031165
vn -1.609325E-06 0.43524772 0.9003107
vn -5.3644186E-07 0.43524733 0.9003109
vn -5.364417E-07 0.4352459 0.90031165
vn -1.7881392E-07 0.43524754 0.9003109
vn -0 0.43524733 0.9003109
vn -1.7881393E-07 0.4352461 0.90031147
vn 1.1920929E-07 0.43524626 0.90031147
vn -1.7881392E-07 0.4352464 0.90031135
vn 1.19209275E-07 0.43524548 0.90031177
vn -0 0.43524706 0.900311
vn -0 0.43524656 0.9003113
vn -1.7881393E-07 0.43524706 0.900311
vn 2.384186E-07 0.43524674 0.9003113
vn 1.1920929E-07 0.43524733 0.9003109
vn -2.980232E-07 0.4352479 0.9003107
vn -2.9802322E-07 0.43524694 0.9003111
vn 4.7683716E-07 0.43524694 0.9003111
vn 1.192093E-07 0.43524736 0.9003109
vn -1.7881393E-07 0.43524694 0.9003111
vn -0 0.4352474 0.9003109
vn -1.7881395E-07 0.4352477 0.9003108
vn -0 0.43524656 0.9003113
vn -0 0.43524656 0.9003113
vn 2.3841855E-07 0.4352468 0.9003112
vn -1.3788431E-07 0.43524694 0.9003111
vn -2.7133086E-07 0.43524656 0.9003113
vn -2.3841856E-07 0.4352469 0.9003111
vn 4.9837E-07 0.43524668 0.9003113
vn -1.7881393E-07 0.43524694 0.9003111
vn -0 0.4352465 0.90031135
vn -0 0.43524694 0.9003111
vn -0 0.43524668 0.9003113
vn -1.192093E-07 0.43524674 0.9003113
vn -1.1817094E-06 0.43524677 0.9003112
vn 1.1920929E-07 0.4352461 0.90031147
vn -0 0.435247 0.9003111
vn -1.7881395E-07 0.43524507 0.90031207
vn -3.254043E-07 0.43524575 0.90031177
vn 2.3841858E-07 0.43524596 0.9003116
vn -1.7285347E-06 0.43524647 0.90031135
vn -1.9073484E-06 0.43524584 0.90031165
vn -1.9073486E-06 0.43524754 0.9003109
vn -2.9802322E-07 0.4352474 0.9003109
vn 9.536742E-07 0.4352495 0.9003098
vn -1.6093255E-06 0.43524686 0.9003112
vn 2.3841853E-06 0.43524772 0.9003107
vn 1.19209275E-07 0.4352463 0.90031135
vn -6.556511E-07 0.43524647 0.90031135
vn 1.5497204E-06 0.4352478 0.9003107
vn 8.34465E-07 0.43524754 0.9003109
vn 7.152556E-07 0.43524727 0.9003109
vn 3.5762784E-07 0.43524754 0.9003109
vn 1.1920929E-07 0.4352474 0.9003109
vn 2.3841855E-07 0.43524548 0.90031177
vn -0 0.43524647 0.90031135
vn 1.19209275E-07 0.4352459 0.90031165
vn -1.7881395E-07 0.4352445 0.90031236
vn -0 0.43524706 0.900311
vn 1.1920926E-07 0.43524686 0.9003112
vn 1.1920929E-07 0.43524706 0.9003111
vn -1.7881393E-07 0.43524694 0.9003111
vn -1.1920929E-07 0.4352474 0.9003109
vn 2.3841852E-07 0.43524736 0.9003109
vn 4.7683716E-07 0.43524694 0.9003111
g pm0442_00_EyeCloseSkin_0
f 3/3/3 2/2/2 1/1/1
f 3/3/3 4/4/4 2/2/2
f 5/5/5 4/4/4 3/3/3
f 5/5/5 3/3/3 6/6/6
f 5/5/5 6/6/6 7/7/7
f 5/5/5 7/7/7 8/8/8
f 8/8/8 7/7/7 9/9/9
f 10/10/10 5/5/5 8/8/8
f 8/8/8 11/11/11 10/10/10
f 11/11/11 12/12/12 10/10/10
f 12/12/12 11/11/11 13/13/13
f 14/14/14 8/8/8 9/9/9
f 11/11/11 8/8/8 14/14/14
f 14/14/14 9/9/9 15/15/15
f 16/16/16 14/14/14 15/15/15
f 14/14/14 16/16/16 17/17/17
f 17/17/17 11/11/11 14/14/14
f 16/16/16 18/18/18 17/17/17
f 17/17/17 18/18/18 19/19/19
f 17/17/17 19/19/19 11/11/11
f 18/18/18 20/20/20 19/19/19
f 21/21/21 19/19/19 20/20/20
f 21/21/21 22/22/22 19/19/19
f 22/22/22 13/13/13 23/23/23
f 11/11/11 23/23/23 13/13/13
f 19/19/19 23/23/23 11/11/11
f 22/22/22 23/23/23 19/19/19
f 26/26/26 25/25/25 24/24/24
f 26/26/26 24/24/24 27/27/27
f 27/27/27 28/28/28 26/26/26
f 29/29/29 27/27/27 24/24/24
f 27/27/27 30/30/30 28/28/28
f 29/29/29 31/31/31 27/27/27
f 30/30/30 27/27/27 31/31/31
f 32/32/32 31/31/31 29/29/29
f 30/30/30 31/31/31 33/33/33
f 32/32/32 34/34/34 31/31/31
f 33/33/33 31/31/31 34/34/34
f 35/35/35 34/34/34 32/32/32
f 33/33/33 34/34/34 36/36/36
f 35/35/35 37/37/37 34/34/34
f 37/37/37 36/36/36 34/34/34
f 37/37/37 38/38/38 36/36/36
f 37/37/37 35/35/35 39/39/39
f 38/38/38 37/37/37 40/40/40
f 37/37/37 39/39/39 40/40/40
f 38/38/38 40/40/40 41/41/41
f 40/40/40 42/42/42 41/41/41
f 39/39/39 43/43/43 40/40/40
f 40/40/40 43/43/43 42/42/42
f 39/39/39 44/44/44 43/43/43
f 43/43/43 45/45/45 42/42/42
f 44/44/44 46/46/46 43/43/43
f 43/43/43 46/46/46 45/45/45
f 44/44/44 47/47/47 46/46/46
f 48/48/48 45/45/45 46/46/46
f 48/48/48 46/46/46 47/47/47
f 51/51/51 50/50/50 49/49/49
f 51/51/51 52/52/52 50/50/50
f 53/53/53 50/50/50 52/52/52
f 53/53/53 54/54/54 50/50/50
f 53/53/53 55/55/55 54/54/54
f 53/53/53 56/56/56 55/55/55
f 56/56/56 57/57/57 55/55/55
f 58/58/58 57/57/57 56/56/56
f 59/59/59 58/58/58 56/56/56
f 55/55/55 57/57/57 60/60/60
f 58/58/58 59/59/59 61/61/61
f 57/57/57 62/62/62 60/60/60
f 62/62/62 57/57/57 58/58/58
f 60/60/60 62/62/62 63/63/63
f 62/62/62 64/64/64 63/63/63
f 65/65/65 64/64/64 62/62/62
f 66/66/66 65/65/65 62/62/62
f 66/66/66 62/62/62 58/58/58
f 67/67/67 65/65/65 66/66/66
f 68/68/68 67/67/67 66/66/66
f 66/66/66 58/58/58 68/68/68
f 69/69/69 67/67/67 68/68/68
f 70/70/70 58/58/58 61/61/61
f 58/58/58 70/70/70 68/68/68
f 69/69/69 68/68/68 70/70/70
f 70/70/70 61/61/61 71/71/71
f 71/71/71 69/69/69 70/70/70
f 74/74/74 73/73/73 72/72/72
f 74/74/74 72/72/72 75/75/75
f 75/75/75 72/72/72 76/76/76
f 77/77/77 74/74/74 75/75/75
f 75/75/75 76/76/76 78/78/78
f 77/77/77 75/75/75 79/79/79
f 79/79/79 75/75/75 78/78/78
f 79/79/79 80/80/80 77/77/77
f 79/79/79 78/78/78 81/81/81
f 79/79/79 82/82/82 80/80/80
f 81/81/81 82/82/82 79/79/79
f 82/82/82 83/83/83 80/80/80
f 81/81/81 84/84/84 82/82/82
f 82/82/82 85/85/85 83/83/83
f 84/84/84 85/85/85 82/82/82
f 84/84/84 86/86/86 85/85/85
f 87/87/87 83/83/83 85/85/85
f 88/88/88 85/85/85 86/86/86
f 87/87/87 85/85/85 88/88/88
f 88/88/88 86/86/86 89/89/89
f 88/88/88 89/89/89 90/90/90
f 91/91/91 87/87/87 88/88/88
f 88/88/88 90/90/90 91/91/91
f 91/91/91 92/92/92 87/87/87
f 91/91/91 90/90/90 93/93/93
f 92/92/92 91/91/91 94/94/94
f 91/91/91 93/93/93 94/94/94
f 92/92/92 94/94/94 95/95/95
f 94/94/94 93/93/93 96/96/96
f 94/94/94 96/96/96 95/95/95
