g pm0427_00_LStraightEarSkin
v 0.041241203 0.3867951 -0.025651889
v 0.035529435 0.3942596 -0.0095334
v 0.0355747 0.39059287 -0.009201495
v 0.041694984 0.39228797 -0.025962535
v 0.035846844 0.40441594 -0.009356731
v 0.05164812 0.38758263 -0.03435246
v 0.050021905 0.38141686 -0.03384382
v 0.042553872 0.40328532 -0.02654025
v 0.036543384 0.4206903 -0.009516186
v 0.05413253 0.39992338 -0.03490443
v 0.06718276 0.3788038 -0.036180504
v 0.06567558 0.37230566 -0.03570759
v 0.043899793 0.4191332 -0.027153723
v 0.037477084 0.43638265 -0.009442144
v 0.056723565 0.41556236 -0.03547922
v 0.071243145 0.3924918 -0.03708027
v 0.079942755 0.37071517 -0.03332878
v 0.07765277 0.36436343 -0.03291954
v 0.04488174 0.43479785 -0.02756859
v 0.038719557 0.45191398 -0.009393271
v 0.059260413 0.43052086 -0.035953365
v 0.075684406 0.40779844 -0.03777034
v 0.086020455 0.38512793 -0.03412879
v 0.09035278 0.3644739 -0.025692448
v 0.087338105 0.3588357 -0.025382845
v 0.09167555 0.3572624 -0.009018659
v 0.094771676 0.36206943 -0.0090327365
v 0.09836143 0.37858975 -0.026315605
v 0.10336641 0.37550476 -0.00900363
v 0.10682005 0.3942667 -0.026943807
v 0.11290844 0.3913377 -0.009248202
v 0.09242627 0.4008076 -0.034793165
v 0.114687145 0.4098152 -0.027419178
v 0.121668525 0.40701598 -0.009354163
v 0.09843661 0.41617134 -0.035411697
v 0.12173469 0.4251949 -0.02771601
v 0.12932657 0.42253223 -0.009378646
v 0.08000873 0.4230223 -0.038389258
v 0.12819654 0.44034952 -0.027920492
v 0.13582487 0.4379596 -0.009399555
v 0.10404894 0.4316377 -0.0358326
v 0.084194526 0.438182 -0.03886842
v 0.1333208 0.45549256 -0.028048115
v 0.14146769 0.45305723 -0.009397491
v 0.109200634 0.44653904 -0.036264416
v 0.062035143 0.44587463 -0.036437783
v 0.13802826 0.4703424 -0.028106026
v 0.1460959 0.46796954 -0.00939492
v 0.11360472 0.46132812 -0.036508854
v 0.08823077 0.45326427 -0.03918943
v 0.04629441 0.45031282 -0.027860178
v 0.04027789 0.46746498 -0.009389079
v 0.14120696 0.48522955 -0.028100602
v 0.14953294 0.48276842 -0.009371132
v 0.11772126 0.47587866 -0.036641184
v 0.12114925 0.49073687 -0.036606885
v 0.09213329 0.46826464 -0.03937756
v 0.06480424 0.4611612 -0.03689823
v 0.047921173 0.46575987 -0.028063552
v 0.04226252 0.48278877 -0.009398018
v 0.095908575 0.4831813 -0.039441146
v 0.09955854 0.49801356 -0.03938295
v 0.067953035 0.4762748 -0.037165012
v 0.05013257 0.48103222 -0.028134648
v 0.044241454 0.49813262 -0.009400537
v 0.07102232 0.4913523 -0.03736302
v 0.07459977 0.50622165 -0.037318632
v 0.05265144 0.49622512 -0.028201524
v 0.047624126 0.5130783 -0.009394739
v 0.056147475 0.5111362 -0.02817355
v 0.08785322 0.36162594 0.006977327
v 0.094771676 0.36206943 -0.0090327365
v 0.09167555 0.3572624 -0.009018659
v 0.09034615 0.3661661 0.0072246897
v 0.10336641 0.37550476 -0.00900363
v 0.079923555 0.37327263 0.013498903
v 0.078226514 0.36933368 0.013230116
v 0.097678915 0.37890896 0.00791756
v 0.11290844 0.3913377 -0.009248202
v 0.06778269 0.38088056 0.015204873
v 0.06669015 0.37715873 0.014886202
v 0.085317515 0.38526616 0.014317559
v 0.106142975 0.39458263 0.0082412185
v 0.121668525 0.40701598 -0.009354163
v 0.055260863 0.38688093 0.013895687
v 0.054640688 0.38375446 0.013750517
v 0.04174519 0.38912898 0.006599012
v 0.071063876 0.39192015 0.016147608
v 0.09181055 0.40078044 0.014802317
v 0.11399963 0.4101476 0.008515452
v 0.12932657 0.42253223 -0.009378646
v 0.041975368 0.39260146 0.006873502
v 0.0355747 0.39059287 -0.009201495
v 0.035529435 0.3942596 -0.0095334
v 0.057057813 0.3975304 0.014498481
v 0.042743016 0.4025862 0.0075694285
v 0.035846844 0.40441594 -0.009356731
v 0.059548877 0.4131945 0.0151895005
v 0.043774135 0.41851753 0.008105296
v 0.036543384 0.4206903 -0.009516186
v 0.07559796 0.40752664 0.016878784
v 0.045012817 0.43410778 0.008313979
v 0.037477084 0.43638265 -0.009442144
v 0.061979998 0.428688 0.015667697
v 0.07991183 0.42270064 0.01749454
v 0.046521805 0.44959477 0.008518333
v 0.038719557 0.45191398 -0.009393271
v 0.06459793 0.444066 0.016173862
v 0.09798692 0.41616806 0.015275441
v 0.04839301 0.46497095 0.0086072665
v 0.04027789 0.46746498 -0.009389079
v 0.08419396 0.43818215 0.018004093
v 0.06728142 0.45936626 0.016486924
v 0.10368942 0.43142992 0.015666151
v 0.050658483 0.48022777 0.008727596
v 0.04226252 0.48278877 -0.009398018
v 0.07035832 0.47449064 0.016759763
v 0.053018443 0.49546656 0.008763436
v 0.044241454 0.49813262 -0.009400537
v 0.08823073 0.45326424 0.018328363
v 0.12112445 0.4255055 0.008819728
v 0.13582487 0.4379596 -0.009399555
v 0.09213327 0.46826464 0.018516378
v 0.109029256 0.44653395 0.01611868
v 0.12758888 0.4406594 0.009024682
v 0.14146769 0.45305723 -0.009397491
v 0.056514494 0.5103776 0.00873825
v 0.047624126 0.5130783 -0.009394739
v 0.073403336 0.48957357 0.016809182
v 0.0769739 0.50444645 0.016767692
v 0.09590852 0.48318136 0.018579932
v 0.099558495 0.49801365 0.018521773
v 0.11358677 0.46160126 0.016369248
v 0.13271312 0.45580232 0.009154613
v 0.1460959 0.46796954 -0.00939492
v 0.11784299 0.47648355 0.016432075
v 0.121249825 0.49134418 0.01640449
v 0.13742052 0.4706522 0.00921781
v 0.14953294 0.48276842 -0.009371132
v 0.1405993 0.48553938 0.009221009
vt 0.23964578 0.811447
vt 0.23463076 0.78286415
vt 0.24027202 0.7837821
vt 0.23119062 0.8100922
vt 0.21931297 0.7789597
vt 0.23317254 0.83157754
vt 0.24305485 0.83168757
vt 0.21428175 0.80723554
vt 0.19440533 0.773473
vt 0.21371177 0.8300409
vt 0.23973097 0.8590361
vt 0.25009763 0.85903615
vt 0.18989947 0.80299306
vt 0.17024083 0.7682022
vt 0.18926442 0.8273524
vt 0.21756943 0.8590361
vt 0.24674824 0.8815687
vt 0.2571785 0.88084644
vt 0.16594762 0.7984434
vt 0.14612187 0.76357317
vt 0.16589808 0.8249819
vt 0.19294448 0.8590361
vt 0.22260065 0.8844268
vt 0.25246525 0.903079
vt 0.26218194 0.9011522
vt 0.26756123 0.9269599
vt 0.25902295 0.9293008
vt 0.22793233 0.90856403
vt 0.23515145 0.93596625
vt 0.20104194 0.9140986
vt 0.20714031 0.94282943
vt 0.19663572 0.88721806
vt 0.17477372 0.91901875
vt 0.17974707 0.9489129
vt 0.17140077 0.8896414
vt 0.14921153 0.92308986
vt 0.15314198 0.95385563
vt 0.1685524 0.8590361
vt 0.12429921 0.92647886
vt 0.12717108 0.9574991
vt 0.14625667 0.8916457
vt 0.14435582 0.8590361
vt 0.09996186 0.9283805
vt 0.10207789 0.9600268
vt 0.12214782 0.8933004
vt 0.14186655 0.8229425
vt 0.07615744 0.92985153
vt 0.077748425 0.9615095
vt 0.098476976 0.8941548
vt 0.12033898 0.8590361
vt 0.14215246 0.7944512
vt 0.12179194 0.7595955
vt 0.052655466 0.9297187
vt 0.054078653 0.96197283
vt 0.075194694 0.89483637
vt 0.051596344 0.89457744
vt 0.09645158 0.8590361
vt 0.11796407 0.82103705
vt 0.11841784 0.7908595
vt 0.09764405 0.75642014
vt 0.07264081 0.8590361
vt 0.04886938 0.8590361
vt 0.09414801 0.8197308
vt 0.094753966 0.7880092
vt 0.07349126 0.75363463
vt 0.07035683 0.81831855
vt 0.046560377 0.81753296
vt 0.071086414 0.7856465
vt 0.049622692 0.75206554
vt 0.047377758 0.78430045
vt 0.33282298 0.9067296
vt 0.33146435 0.9385469
vt 0.32146293 0.9356084
vt 0.3420579 0.90873075
vt 0.3595384 0.9466007
vt 0.3502299 0.8844147
vt 0.34250048 0.8834121
vt 0.36804673 0.9146716
vt 0.3922458 0.95550036
vt 0.35789976 0.859375
vt 0.3508856 0.8593749
vt 0.37383807 0.8876406
vt 0.39939764 0.9216053
vt 0.42429078 0.96298116
vt 0.36171162 0.8339566
vt 0.35595462 0.83454084
vt 0.35817844 0.8055773
vt 0.37862715 0.8593749
vt 0.40392566 0.89124715
vt 0.4301835 0.92761743
vt 0.4554238 0.96890485
vt 0.36440375 0.8044938
vt 0.35299417 0.7747673
vt 0.35930666 0.77249336
vt 0.38132697 0.831828
vt 0.3824635 0.80138505
vt 0.37741792 0.7682098
vt 0.40997028 0.8284582
vt 0.41097397 0.79563916
vt 0.4065585 0.7609248
vt 0.4080096 0.8593749
vt 0.43888795 0.7901839
vt 0.43504345 0.7548909
vt 0.4382379 0.8251276
vt 0.4365378 0.8593749
vt 0.4667843 0.7854142
vt 0.46348572 0.7495971
vt 0.4663694 0.82235265
vt 0.4336084 0.89445484
vt 0.4946559 0.78132534
vt 0.49214834 0.7450199
vt 0.4655531 0.8593749
vt 0.49437985 0.8198291
vt 0.46279407 0.89705515
vt 0.5225206 0.77810085
vt 0.52052915 0.7413262
vt 0.52230716 0.8181734
vt 0.5503698 0.7750938
vt 0.5488595 0.73802936
vt 0.4937152 0.85937494
vt 0.46018076 0.9325272
vt 0.4857932 0.9733104
vt 0.5216353 0.8593749
vt 0.49150738 0.8992386
vt 0.48937142 0.9365552
vt 0.51517487 0.97635096
vt 0.5782276 0.77355826
vt 0.5768738 0.73621464
vt 0.5502331 0.8164636
vt 0.5782383 0.8155916
vt 0.5493715 0.8593749
vt 0.5775469 0.859375
vt 0.51979655 0.9003866
vt 0.5179194 0.9388367
vt 0.5437303 0.97815555
vt 0.54774386 0.90131557
vt 0.57548827 0.9009304
vt 0.54585963 0.9405631
vt 0.57154685 0.9785882
vt 0.5734783 0.94036055
vn -0.8334063 0.026760595 -0.55201244
vn -0.99727494 0.035379425 0.064738326
vn -0.9964349 0.031018315 0.078455985
vn -0.82418096 0.031717245 -0.56543756
vn -0.99751115 0.04398291 0.055109248
vn -0.42879236 -0.008688916 -0.90336126
vn -0.4426652 -0.015527667 -0.8965525
vn -0.8115816 0.037862387 -0.5830108
vn -0.9970341 0.05704783 0.051659342
vn -0.41137463 -0.0032974915 -0.91146046
vn -0.02516713 -0.09298079 -0.99534976
vn -0.028412322 -0.10361134 -0.994212
vn -0.79838157 0.04497759 -0.6004697
vn -0.9959843 0.07391606 0.050513566
vn -0.39334023 0.002187598 -0.9193904
vn -0.02208573 -0.08373676 -0.9962431
vn 0.3468721 -0.23475666 -0.9080578
vn 0.3556546 -0.24630281 -0.9015791
vn -0.787017 0.05553534 -0.61442655
vn -0.99412656 0.09506594 0.051717713
vn -0.3773148 0.009231851 -0.92603904
vn -0.019126935 -0.07263412 -0.9971752
vn 0.33396003 -0.22017841 -0.9165109
vn 0.69858384 -0.41942364 -0.57971066
vn 0.7062005 -0.4260336 -0.5654876
vn 0.85214853 -0.5169962 0.08098088
vn 0.85462356 -0.5147806 0.06796714
vn 0.69093657 -0.40603378 -0.59811646
vn 0.8612559 -0.5047327 0.059018817
vn 0.68742096 -0.382437 -0.6174094
vn 0.8744249 -0.48203555 0.054979455
vn 0.3234554 -0.20067462 -0.9247195
vn 0.6890988 -0.35152125 -0.6337001
vn 0.8911842 -0.45067158 0.051825985
vn 0.31690457 -0.1789925 -0.9314146
vn 0.6952677 -0.3168037 -0.64516544
vn 0.9101212 -0.41132843 0.049884703
vn -0.015573458 -0.06103877 -0.99801385
vn 0.7045747 -0.2788204 -0.6525593
vn 0.9298814 -0.36531097 0.043225925
vn 0.31467873 -0.15709463 -0.93610823
vn -0.011333555 -0.04921374 -0.9987239
vn 0.7149695 -0.23889366 -0.65707564
vn 0.94862884 -0.31557038 0.022776391
vn 0.3157894 -0.13487642 -0.9391941
vn -0.36402103 0.01904772 -0.931196
vn 0.72664 -0.20136346 -0.65684634
vn 0.96335495 -0.26766425 0.017412905
vn 0.3190434 -0.112253055 -0.9410689
vn -0.0065294453 -0.036552303 -0.9993104
vn -0.77774966 0.071206585 -0.62452793
vn -0.9916191 0.11996301 0.047962744
vn 0.736987 -0.17973107 -0.65157264
vn 0.9709972 -0.23846085 0.017348586
vn 0.32584655 -0.09151884 -0.94098264
vn 0.33769384 -0.08089413 -0.9377734
vn -0.0015031461 -0.023274504 -0.9997279
vn -0.35263807 0.031486847 -0.9352299
vn -0.7693773 0.09075868 -0.6323144
vn -0.9884029 0.14908116 0.02888916
vn 0.0028141772 -0.009932722 -0.9999467
vn 0.00492725 -0.0016385182 -0.9999865
vn -0.34247807 0.045940947 -0.938402
vn -0.7606195 0.11427621 -0.6390609
vn -0.9827917 0.18313411 0.024130594
vn -0.33622557 0.06248281 -0.93970644
vn -0.34074745 0.07521098 -0.93714166
vn -0.75341153 0.1417829 -0.64208156
vn -0.9780005 0.20721973 0.023976378
vn -0.7517119 0.16120106 -0.63948685
vn 0.54629666 -0.35194334 0.7600631
vn 0.85462356 -0.5147806 0.06796714
vn 0.85214853 -0.5169962 0.08098088
vn 0.56172323 -0.3538998 0.74781156
vn 0.8612559 -0.5047327 0.059018817
vn 0.3376629 -0.24199198 0.90962833
vn 0.28134164 -0.21737209 0.93466365
vn 0.56401527 -0.33873907 0.75308883
vn 0.8744249 -0.48203555 0.054979455
vn -0.032486524 -0.09607319 0.99484396
vn -0.03298701 -0.09554072 0.99487877
vn 0.34999323 -0.23697758 0.90628165
vn 0.56439656 -0.31484094 0.7631066
vn 0.8911842 -0.45067158 0.051825985
vn -0.422892 -0.016891351 0.9060226
vn -0.36232072 -0.02474244 0.9317251
vn -0.657006 0.005111849 0.75386804
vn -0.028689323 -0.089603454 0.9955642
vn 0.34992713 -0.21778184 0.9111103
vn 0.56445664 -0.28785524 0.77364594
vn 0.9101212 -0.41132843 0.049884703
vn -0.6710655 0.009040302 0.7413429
vn -0.9964349 0.031018315 0.078455985
vn -0.99727494 0.035379425 0.064738326
vn -0.42967436 -0.010707631 0.9029205
vn -0.66538495 0.017141478 0.7463036
vn -0.99751115 0.04398291 0.055109248
vn -0.41882685 -0.00028081366 0.90806603
vn -0.6547082 0.029683003 0.75529873
vn -0.9970341 0.05704783 0.051659342
vn -0.021970721 -0.07507105 0.9969361
vn -0.6431761 0.043624945 0.7644747
vn -0.9959843 0.07391606 0.050513566
vn -0.4051615 0.011415183 0.91417384
vn -0.016929334 -0.06156774 0.9979594
vn -0.6280161 0.058196694 0.77602124
vn -0.99412656 0.09506594 0.051717713
vn -0.3854611 0.021814488 0.9224662
vn 0.34613153 -0.19602145 0.9174795
vn -0.63748056 0.07715729 0.7665933
vn -0.9916191 0.11996301 0.047962744
vn -0.013256277 -0.049587384 0.99868184
vn -0.32508376 0.026378233 0.9453172
vn 0.33582202 -0.17218965 0.92605305
vn -0.71775526 0.10805847 0.68785954
vn -0.9884029 0.14908116 0.02888916
vn -0.3801194 0.048315007 0.92367476
vn -0.7200841 0.13516518 0.68059474
vn -0.9827917 0.18313411 0.024130594
vn -0.0091457805 -0.0358488 0.9993154
vn 0.5631823 -0.25735405 0.78523535
vn 0.9298814 -0.36531097 0.043225925
vn -0.008572912 -0.031495698 0.9994672
vn 0.29015875 -0.13256802 0.9477519
vn 0.58808583 -0.23140086 0.7749895
vn 0.94862884 -0.31557038 0.022776391
vn -0.7205172 0.15430166 0.6760517
vn -0.9780005 0.20721973 0.023976378
vn -0.32187554 0.05895549 0.9449446
vn -0.31448314 0.06958247 0.94670933
vn -0.0003672283 -0.009367624 0.99995613
vn 0.003057528 -0.0006078181 0.9999951
vn 0.35208845 -0.13140744 0.92669624
vn 0.68148977 -0.22800264 0.6954038
vn 0.96335495 -0.26766425 0.017412905
vn 0.31356156 -0.089991495 0.945294
vn 0.3147319 -0.07529057 0.94618976
vn 0.70221937 -0.19464847 0.68483573
vn 0.9709972 -0.23846085 0.017348586
vn 0.71419966 -0.17420219 0.6779177
g pm0427_00_LStraightEarSkin_0
f 3/3/3 2/2/2 1/1/1
f 2/2/2 4/4/4 1/1/1
f 2/2/2 5/5/5 4/4/4
f 1/1/1 4/4/4 6/6/6
f 7/7/7 1/1/1 6/6/6
f 5/5/5 8/8/8 4/4/4
f 5/5/5 9/9/9 8/8/8
f 6/6/6 4/4/4 10/10/10
f 4/4/4 8/8/8 10/10/10
f 7/7/7 6/6/6 11/11/11
f 12/12/12 7/7/7 11/11/11
f 9/9/9 13/13/13 8/8/8
f 9/9/9 14/14/14 13/13/13
f 10/10/10 8/8/8 15/15/15
f 8/8/8 13/13/13 15/15/15
f 6/6/6 10/10/10 16/16/16
f 11/11/11 6/6/6 16/16/16
f 12/12/12 11/11/11 17/17/17
f 18/18/18 12/12/12 17/17/17
f 14/14/14 19/19/19 13/13/13
f 14/14/14 20/20/20 19/19/19
f 15/15/15 13/13/13 21/21/21
f 13/13/13 19/19/19 21/21/21
f 10/10/10 15/15/15 22/22/22
f 16/16/16 10/10/10 22/22/22
f 11/11/11 16/16/16 23/23/23
f 17/17/17 11/11/11 23/23/23
f 18/18/18 17/17/17 24/24/24
f 25/25/25 18/18/18 24/24/24
f 25/25/25 24/24/24 26/26/26
f 24/24/24 27/27/27 26/26/26
f 24/24/24 17/17/17 28/28/28
f 24/24/24 28/28/28 27/27/27
f 17/17/17 23/23/23 28/28/28
f 28/28/28 29/29/29 27/27/27
f 28/28/28 30/30/30 29/29/29
f 28/28/28 23/23/23 30/30/30
f 30/30/30 31/31/31 29/29/29
f 23/23/23 16/16/16 32/32/32
f 23/23/23 32/32/32 30/30/30
f 16/16/16 22/22/22 32/32/32
f 30/30/30 33/33/33 31/31/31
f 30/30/30 32/32/32 33/33/33
f 33/33/33 34/34/34 31/31/31
f 32/32/32 22/22/22 35/35/35
f 32/32/32 35/35/35 33/33/33
f 33/33/33 36/36/36 34/34/34
f 33/33/33 35/35/35 36/36/36
f 36/36/36 37/37/37 34/34/34
f 22/22/22 38/38/38 35/35/35
f 22/22/22 15/15/15 38/38/38
f 15/15/15 21/21/21 38/38/38
f 36/36/36 39/39/39 37/37/37
f 39/39/39 40/40/40 37/37/37
f 35/35/35 41/41/41 36/36/36
f 35/35/35 38/38/38 41/41/41
f 36/36/36 41/41/41 39/39/39
f 38/38/38 21/21/21 42/42/42
f 38/38/38 42/42/42 41/41/41
f 39/39/39 43/43/43 40/40/40
f 43/43/43 44/44/44 40/40/40
f 41/41/41 45/45/45 39/39/39
f 41/41/41 42/42/42 45/45/45
f 39/39/39 45/45/45 43/43/43
f 21/21/21 46/46/46 42/42/42
f 21/21/21 19/19/19 46/46/46
f 43/43/43 47/47/47 44/44/44
f 47/47/47 48/48/48 44/44/44
f 45/45/45 49/49/49 43/43/43
f 43/43/43 49/49/49 47/47/47
f 42/42/42 50/50/50 45/45/45
f 42/42/42 46/46/46 50/50/50
f 45/45/45 50/50/50 49/49/49
f 19/19/19 51/51/51 46/46/46
f 20/20/20 51/51/51 19/19/19
f 20/20/20 52/52/52 51/51/51
f 47/47/47 53/53/53 48/48/48
f 53/53/53 54/54/54 48/48/48
f 47/47/47 55/55/55 53/53/53
f 49/49/49 55/55/55 47/47/47
f 55/55/55 56/56/56 53/53/53
f 50/50/50 57/57/57 49/49/49
f 49/49/49 57/57/57 55/55/55
f 46/46/46 58/58/58 50/50/50
f 46/46/46 51/51/51 58/58/58
f 50/50/50 58/58/58 57/57/57
f 52/52/52 59/59/59 51/51/51
f 51/51/51 59/59/59 58/58/58
f 52/52/52 60/60/60 59/59/59
f 55/55/55 61/61/61 56/56/56
f 57/57/57 61/61/61 55/55/55
f 61/61/61 62/62/62 56/56/56
f 58/58/58 63/63/63 57/57/57
f 58/58/58 59/59/59 63/63/63
f 61/61/61 57/57/57 63/63/63
f 60/60/60 64/64/64 59/59/59
f 59/59/59 64/64/64 63/63/63
f 60/60/60 65/65/65 64/64/64
f 61/61/61 66/66/66 62/62/62
f 66/66/66 61/61/61 63/63/63
f 66/66/66 67/67/67 62/62/62
f 65/65/65 68/68/68 64/64/64
f 63/63/63 64/64/64 68/68/68
f 66/66/66 63/63/63 68/68/68
f 66/66/66 68/68/68 67/67/67
f 65/65/65 69/69/69 68/68/68
f 68/68/68 70/70/70 67/67/67
f 69/69/69 70/70/70 68/68/68
f 73/73/73 72/72/72 71/71/71
f 72/72/72 74/74/74 71/71/71
f 72/72/72 75/75/75 74/74/74
f 76/76/76 71/71/71 74/74/74
f 76/76/76 77/77/77 71/71/71
f 75/75/75 78/78/78 74/74/74
f 75/75/75 79/79/79 78/78/78
f 76/76/76 80/80/80 77/77/77
f 80/80/80 81/81/81 77/77/77
f 76/76/76 74/74/74 82/82/82
f 74/74/74 78/78/78 82/82/82
f 79/79/79 83/83/83 78/78/78
f 79/79/79 84/84/84 83/83/83
f 81/81/81 80/80/80 85/85/85
f 86/86/86 81/81/81 85/85/85
f 87/87/87 86/86/86 85/85/85
f 80/80/80 76/76/76 88/88/88
f 76/76/76 82/82/82 88/88/88
f 82/82/82 78/78/78 89/89/89
f 78/78/78 83/83/83 89/89/89
f 84/84/84 90/90/90 83/83/83
f 84/84/84 91/91/91 90/90/90
f 87/87/87 85/85/85 92/92/92
f 87/87/87 92/92/92 93/93/93
f 92/92/92 94/94/94 93/93/93
f 85/85/85 80/80/80 95/95/95
f 92/92/92 85/85/85 95/95/95
f 80/80/80 88/88/88 95/95/95
f 92/92/92 96/96/96 94/94/94
f 92/92/92 95/95/95 96/96/96
f 96/96/96 97/97/97 94/94/94
f 95/95/95 88/88/88 98/98/98
f 96/96/96 95/95/95 98/98/98
f 96/96/96 99/99/99 97/97/97
f 96/96/96 98/98/98 99/99/99
f 99/99/99 100/100/100 97/97/97
f 88/88/88 101/101/101 98/98/98
f 88/88/88 82/82/82 101/101/101
f 82/82/82 89/89/89 101/101/101
f 99/99/99 102/102/102 100/100/100
f 102/102/102 103/103/103 100/100/100
f 99/99/99 98/98/98 104/104/104
f 98/98/98 101/101/101 104/104/104
f 99/99/99 104/104/104 102/102/102
f 101/101/101 89/89/89 105/105/105
f 101/101/101 105/105/105 104/104/104
f 102/102/102 106/106/106 103/103/103
f 106/106/106 107/107/107 103/103/103
f 102/102/102 104/104/104 108/108/108
f 104/104/104 105/105/105 108/108/108
f 102/102/102 108/108/108 106/106/106
f 89/89/89 109/109/109 105/105/105
f 89/89/89 83/83/83 109/109/109
f 83/83/83 90/90/90 109/109/109
f 106/106/106 110/110/110 107/107/107
f 110/110/110 111/111/111 107/107/107
f 105/105/105 112/112/112 108/108/108
f 105/105/105 109/109/109 112/112/112
f 106/106/106 108/108/108 113/113/113
f 106/106/106 113/113/113 110/110/110
f 108/108/108 112/112/112 113/113/113
f 109/109/109 90/90/90 114/114/114
f 109/109/109 114/114/114 112/112/112
f 110/110/110 115/115/115 111/111/111
f 115/115/115 116/116/116 111/111/111
f 110/110/110 117/117/117 115/115/115
f 110/110/110 113/113/113 117/117/117
f 115/115/115 118/118/118 116/116/116
f 115/115/115 117/117/117 118/118/118
f 118/118/118 119/119/119 116/116/116
f 112/112/112 120/120/120 113/113/113
f 112/112/112 114/114/114 120/120/120
f 90/90/90 121/121/121 114/114/114
f 91/91/91 121/121/121 90/90/90
f 91/91/91 122/122/122 121/121/121
f 113/113/113 123/123/123 117/117/117
f 113/113/113 120/120/120 123/123/123
f 114/114/114 124/124/124 120/120/120
f 114/114/114 121/121/121 124/124/124
f 120/120/120 124/124/124 123/123/123
f 122/122/122 125/125/125 121/121/121
f 121/121/121 125/125/125 124/124/124
f 122/122/122 126/126/126 125/125/125
f 118/118/118 127/127/127 119/119/119
f 127/127/127 128/128/128 119/119/119
f 117/117/117 129/129/129 118/118/118
f 118/118/118 129/129/129 127/127/127
f 117/117/117 123/123/123 129/129/129
f 129/129/129 130/130/130 127/127/127
f 129/129/129 131/131/131 130/130/130
f 123/123/123 131/131/131 129/129/129
f 131/131/131 132/132/132 130/130/130
f 124/124/124 133/133/133 123/123/123
f 124/124/124 125/125/125 133/133/133
f 123/123/123 133/133/133 131/131/131
f 126/126/126 134/134/134 125/125/125
f 125/125/125 134/134/134 133/133/133
f 126/126/126 135/135/135 134/134/134
f 131/131/131 136/136/136 132/132/132
f 133/133/133 136/136/136 131/131/131
f 133/133/133 134/134/134 136/136/136
f 136/136/136 137/137/137 132/132/132
f 135/135/135 138/138/138 134/134/134
f 134/134/134 138/138/138 136/136/136
f 136/136/136 138/138/138 137/137/137
f 135/135/135 139/139/139 138/138/138
f 138/138/138 140/140/140 137/137/137
f 139/139/139 140/140/140 138/138/138
