g pm0464_01_HornSkin
v -0.0553806 2.400669 0.86773115
v -5.005478E-11 2.4115872 0.85811424
v -5.005478E-11 2.4693315 0.9550089
v -0.041833963 2.4610841 0.9622736
v -0.09592197 2.3708408 0.8940054
v -5.005478E-11 2.5255585 1.051769
v -0.072458364 2.4385521 0.98212093
v -0.110760875 2.330095 0.9298965
v -0.027781362 2.5200815 1.0565941
v -5.005478E-11 2.5949585 1.1779222
v -0.083667755 2.4077735 1.0092329
v -0.09592197 2.289349 0.96578795
v -0.048118714 2.5051184 1.069774
v -0.0077567254 2.5934296 1.1792698
v -5.005478E-11 2.605614 1.1998855
v -0.0724584 2.3769944 1.0363444
v -0.055380564 2.2595212 0.992062
v -0.05556257 2.4846785 1.0877789
v -0.041833848 2.3544626 1.0561919
v -5.005478E-11 2.248604 1.001679
v -5.005478E-11 2.3462152 1.0634563
v -0.048118744 2.4642382 1.1057842
v -0.027781285 2.4492755 1.1189641
v -5.005478E-11 2.4437988 1.1237887
v -0.013434965 2.589252 1.1829492
v -0.015513269 2.5835445 1.1879765
v -0.013434965 2.5778377 1.1930034
v -0.0077567254 2.5736601 1.1966835
v -5.005478E-11 2.5721319 1.1980306
v -5.005478E-11 2.5946236 1.2095659
v -0.006038208 2.6039002 1.202885
v -0.006038208 2.597905 1.208166
v -0.005054578 2.593856 1.2081864
v -5.005478E-11 2.6001244 1.2101852
v -0.0066976384 2.6015027 1.2061388
v -5.005478E-11 2.6040955 1.208787
v -5.005478E-11 2.6058593 1.2051334
v -0.005054578 2.6042202 1.1990564
v 0.055380333 2.400669 0.86773115
v -5.005478E-11 2.4693315 0.9550089
v -5.005478E-11 2.4115872 0.85811424
v 0.04183381 2.4610841 0.9622736
v 0.09592191 2.3708408 0.8940054
v -5.005478E-11 2.5255585 1.051769
v 0.07245843 2.4385521 0.98212093
v 0.11076097 2.330095 0.9298965
v 0.027781205 2.5200815 1.0565941
v -5.005478E-11 2.5949585 1.1779222
v 0.08366768 2.4077735 1.0092329
v 0.09592191 2.289349 0.96578795
v 0.04811859 2.5051184 1.069774
v 0.0077565736 2.5934296 1.1792698
v -5.005478E-11 2.605614 1.1998855
v 0.07245843 2.3769944 1.0363444
v 0.05538041 2.2595212 0.992062
v 0.055562608 2.4846785 1.0877789
v 0.041833773 2.3544626 1.0561919
v -5.005478E-11 2.248604 1.001679
v -5.005478E-11 2.3462152 1.0634563
v 0.04811859 2.4642382 1.1057842
v 0.027781205 2.4492755 1.1189641
v -5.005478E-11 2.4437988 1.1237887
v 0.01343504 2.589252 1.1829492
v 0.015513191 2.5835445 1.1879765
v 0.0077565736 2.5736601 1.1966835
v -5.005478E-11 2.5721319 1.1980306
v -5.005478E-11 2.5946236 1.2095659
v 0.01343504 2.5778377 1.1930034
v 0.0060380553 2.6039002 1.202885
v 0.0060380553 2.597905 1.208166
v 0.005054426 2.593856 1.2081864
v -5.005478E-11 2.6001244 1.2101852
v 0.006697678 2.6015027 1.2061388
v -5.005478E-11 2.6040955 1.208787
v -5.005478E-11 2.6058593 1.2051334
v 0.005054426 2.6042202 1.1990564
vt 0.1875 0.039781626
vt 0.1875 0.046315
vt 0.22376084 0.044512734
vt 0.22376084 0.03897621
vt 0.1875 0.033883702
vt 0.2561049 0.041914154
vt 0.22376084 0.03364047
vt 0.1875 0.0284446
vt 0.2561049 0.037374932
vt 0.285764 0.038986225
vt 0.22376084 0.0284446
vt 0.1875 0.02258449
vt 0.2561049 0.032889713
vt 0.285764 0.035504967
vt 0.3141895 0.03485001
vt 0.22376084 0.02319131
vt 0.1875 0.016638244
vt 0.2561049 0.028438393
vt 0.22376084 0.017855106
vt 0.1875 0.01022867
vt 0.22376084 0.012401634
vt 0.2561049 0.02403115
vt 0.2561049 0.019585274
vt 0.2561049 0.015127371
vt 0.285764 0.031960305
vt 0.285764 0.028379206
vt 0.285764 0.024871953
vt 0.285764 0.021378428
vt 0.285764 0.017967254
vt 0.31447726 0.022042781
vt 0.31131 0.030633517
vt 0.3113035 0.026183441
vt 0.30842328 0.024300449
vt 0.32226413 0.025293678
vt 0.31202263 0.028368935
vt 0.32448232 0.028368935
vt 0.3220212 0.031586282
vt 0.3084219 0.032549493
vt 0.1875 0.039781626
vt 0.22376084 0.04451273
vt 0.1875 0.046315
vt 0.22376084 0.03897621
vt 0.1875 0.033883702
vt 0.2561049 0.041914154
vt 0.22376084 0.03364047
vt 0.1875 0.0284446
vt 0.2561049 0.037374932
vt 0.28576356 0.038986225
vt 0.22376084 0.0284446
vt 0.1875 0.02258449
vt 0.2561049 0.032889713
vt 0.28576356 0.035504967
vt 0.3141898 0.03485001
vt 0.22376084 0.02319131
vt 0.1875 0.016638244
vt 0.2561049 0.028438393
vt 0.22376084 0.017855106
vt 0.1875 0.01022867
vt 0.22376084 0.012401634
vt 0.2561049 0.02403115
vt 0.2561049 0.019585274
vt 0.2561049 0.015127371
vt 0.28576356 0.031960305
vt 0.28576356 0.028379206
vt 0.28576356 0.021378428
vt 0.28576356 0.017967254
vt 0.31447756 0.022042781
vt 0.28576356 0.024871953
vt 0.31131023 0.030633517
vt 0.31130338 0.026183441
vt 0.30842292 0.024300449
vt 0.3222639 0.025293678
vt 0.3120227 0.028368935
vt 0.32448286 0.028368935
vt 0.32202107 0.031586282
vt 0.3084222 0.032549493
vn -0.47901008 0.7949484 -0.37229872
vn -0 0.8864679 -0.46279007
vn -0 0.88805366 -0.45973995
vn -0.47879368 0.79624844 -0.36979052
vn -0.83081853 0.54257345 -0.12391293
vn -0 0.9036154 -0.42834473
vn -0.8293718 0.5455295 -0.12058242
vn -0.9568513 0.19560418 0.21488297
vn -0.47037807 0.8143004 -0.3400873
vn -4.1944614E-07 0.9411346 -0.33803216
vn -0.95523375 0.19887836 0.21903391
vn -0.8226008 -0.14959632 0.5485881
vn -0.81356895 0.574535 -0.08952626
vn -0.43533155 0.86114836 -0.26250693
vn -7.9777493E-07 0.9869135 -0.16125016
vn -0.82066005 -0.14666504 0.5522738
vn -0.47089782 -0.39831844 0.7871452
vn -0.93860245 0.23180798 0.25552037
vn -0.47022554 -0.39546582 0.7889832
vn 4.272471E-07 -0.4880489 0.8728163
vn 4.1719065E-07 -0.4844666 0.8748097
vn -0.80360025 -0.11857042 0.58323896
vn -0.46084902 -0.36712652 0.80798286
vn 4.1503057E-07 -0.45393503 0.8910348
vn -0.74423957 0.66787827 -0.0067793448
vn -0.87075895 0.33028337 0.36426878
vn -0.73179287 -0.04601485 0.67997193
vn -0.42450845 -0.29624966 0.85558677
vn 5.535237E-07 -0.37023243 0.9289392
vn 7.1370147E-07 -0.20867625 0.9779848
vn -0.5260346 0.84113955 0.1255862
vn -0.51289004 0.06673778 0.85585624
vn -0.3472289 -0.19287637 0.9177313
vn 6.7287135E-07 0.120716475 0.9926871
vn -0.62868136 0.5223602 0.57610726
vn -0 0.67182827 0.740707
vn -6.877942E-07 0.98113054 0.19334635
vn -0.35814056 0.92192656 -0.14760356
vn 0.47901025 0.79494834 -0.37229866
vn -0 0.88805366 -0.45973995
vn -0 0.8864679 -0.46279007
vn 0.4787938 0.7962483 -0.36979058
vn 0.83081853 0.5425735 -0.1239127
vn -0 0.9036154 -0.42834473
vn 0.8293718 0.5455293 -0.12058249
vn 0.9568513 0.19560412 0.21488307
vn 0.4703778 0.8143001 -0.3400882
vn -4.1944614E-07 0.9411346 -0.33803216
vn 0.95523375 0.19887844 0.21903372
vn 0.82260096 -0.14959614 0.5485879
vn 0.81356883 0.5745352 -0.089527115
vn 0.4353307 0.86114836 -0.2625085
vn -7.9777493E-07 0.9869135 -0.16125016
vn 0.82066035 -0.14666493 0.5522734
vn 0.47089827 -0.39831823 0.7871451
vn 0.9386025 0.2318082 0.25551963
vn 0.4702262 -0.39546564 0.78898305
vn 4.272471E-07 -0.4880489 0.8728163
vn 4.1719065E-07 -0.4844666 0.8748097
vn 0.8036008 -0.11857017 0.5832381
vn 0.46084994 -0.36712635 0.8079824
vn 4.1503057E-07 -0.45393503 0.8910348
vn 0.74423945 0.6678785 -0.006781449
vn 0.8707595 0.33028373 0.36426708
vn 0.42450976 -0.2962495 0.8555861
vn 5.535237E-07 -0.37023243 0.9289392
vn 7.1370147E-07 -0.20867625 0.9779848
vn 0.73179394 -0.046014566 0.67997086
vn 0.52603376 0.8411404 0.12558407
vn 0.51289153 0.06673812 0.8558553
vn 0.34723043 -0.19287618 0.91773075
vn 6.7287135E-07 0.120716475 0.9926871
vn 0.628682 0.52236116 0.57610565
vn -0 0.67182827 0.740707
vn -6.877942E-07 0.98113054 0.19334635
vn 0.3581394 0.9219267 -0.14760561
g pm0464_01_HornSkin_0
f 3/3/3 2/2/2 1/1/1
f 4/4/4 3/3/3 1/1/1
f 4/4/4 1/1/1 5/5/5
f 6/6/6 3/3/3 4/4/4
f 7/7/7 4/4/4 5/5/5
f 7/7/7 5/5/5 8/8/8
f 9/9/9 6/6/6 4/4/4
f 9/9/9 4/4/4 7/7/7
f 10/10/10 6/6/6 9/9/9
f 11/11/11 7/7/7 8/8/8
f 11/11/11 8/8/8 12/12/12
f 13/13/13 9/9/9 7/7/7
f 13/13/13 7/7/7 11/11/11
f 14/14/14 10/10/10 9/9/9
f 14/14/14 9/9/9 13/13/13
f 10/10/10 14/14/14 15/15/15
f 16/16/16 11/11/11 12/12/12
f 16/16/16 12/12/12 17/17/17
f 18/18/18 13/13/13 11/11/11
f 18/18/18 11/11/11 16/16/16
f 19/19/19 16/16/16 17/17/17
f 19/19/19 17/17/17 20/20/20
f 21/21/21 19/19/19 20/20/20
f 22/22/22 16/16/16 19/19/19
f 22/22/22 18/18/18 16/16/16
f 23/23/23 19/19/19 21/21/21
f 23/23/23 22/22/22 19/19/19
f 24/24/24 23/23/23 21/21/21
f 25/25/25 13/13/13 18/18/18
f 25/25/25 14/14/14 13/13/13
f 26/26/26 18/18/18 22/22/22
f 26/26/26 25/25/25 18/18/18
f 27/27/27 22/22/22 23/23/23
f 27/27/27 26/26/26 22/22/22
f 28/28/28 23/23/23 24/24/24
f 28/28/28 27/27/27 23/23/23
f 29/29/29 28/28/28 24/24/24
f 28/28/28 29/29/29 30/30/30
f 14/14/14 25/25/25 31/31/31
f 31/31/31 25/25/25 26/26/26
f 27/27/27 32/32/32 26/26/26
f 27/27/27 28/28/28 32/32/32
f 33/33/33 28/28/28 30/30/30
f 28/28/28 33/33/33 32/32/32
f 33/33/33 30/30/30 32/32/32
f 30/30/30 34/34/34 32/32/32
f 32/32/32 35/35/35 26/26/26
f 32/32/32 34/34/34 35/35/35
f 35/35/35 31/31/31 26/26/26
f 34/34/34 36/36/36 35/35/35
f 36/36/36 37/37/37 35/35/35
f 37/37/37 31/31/31 35/35/35
f 37/37/37 15/15/15 31/31/31
f 38/38/38 14/14/14 31/31/31
f 14/14/14 38/38/38 15/15/15
f 15/15/15 38/38/38 31/31/31
f 41/41/41 40/40/40 39/39/39
f 40/40/40 42/42/42 39/39/39
f 39/39/39 42/42/42 43/43/43
f 40/40/40 44/44/44 42/42/42
f 42/42/42 45/45/45 43/43/43
f 43/43/43 45/45/45 46/46/46
f 44/44/44 47/47/47 42/42/42
f 42/42/42 47/47/47 45/45/45
f 44/44/44 48/48/48 47/47/47
f 45/45/45 49/49/49 46/46/46
f 46/46/46 49/49/49 50/50/50
f 47/47/47 51/51/51 45/45/45
f 45/45/45 51/51/51 49/49/49
f 48/48/48 52/52/52 47/47/47
f 47/47/47 52/52/52 51/51/51
f 52/52/52 48/48/48 53/53/53
f 49/49/49 54/54/54 50/50/50
f 50/50/50 54/54/54 55/55/55
f 51/51/51 56/56/56 49/49/49
f 49/49/49 56/56/56 54/54/54
f 54/54/54 57/57/57 55/55/55
f 55/55/55 57/57/57 58/58/58
f 57/57/57 59/59/59 58/58/58
f 54/54/54 60/60/60 57/57/57
f 56/56/56 60/60/60 54/54/54
f 57/57/57 61/61/61 59/59/59
f 60/60/60 61/61/61 57/57/57
f 61/61/61 62/62/62 59/59/59
f 51/51/51 63/63/63 56/56/56
f 52/52/52 63/63/63 51/51/51
f 56/56/56 64/64/64 60/60/60
f 63/63/63 64/64/64 56/56/56
f 61/61/61 65/65/65 62/62/62
f 65/65/65 66/66/66 62/62/62
f 66/66/66 65/65/65 67/67/67
f 60/60/60 68/68/68 61/61/61
f 64/64/64 68/68/68 60/60/60
f 68/68/68 65/65/65 61/61/61
f 63/63/63 52/52/52 69/69/69
f 63/63/63 69/69/69 64/64/64
f 65/65/65 68/68/68 70/70/70
f 70/70/70 68/68/68 64/64/64
f 65/65/65 71/71/71 67/67/67
f 71/71/71 65/65/65 70/70/70
f 67/67/67 71/71/71 70/70/70
f 72/72/72 67/67/67 70/70/70
f 73/73/73 70/70/70 64/64/64
f 72/72/72 70/70/70 73/73/73
f 69/69/69 73/73/73 64/64/64
f 74/74/74 72/72/72 73/73/73
f 75/75/75 74/74/74 73/73/73
f 69/69/69 75/75/75 73/73/73
f 53/53/53 75/75/75 69/69/69
f 52/52/52 76/76/76 69/69/69
f 76/76/76 52/52/52 53/53/53
f 76/76/76 53/53/53 69/69/69
