g pm0438_00_LTearSkin
v -2.969864E-13 0.0130970115 0.0001067963
v -2.969864E-13 0.0069174278 0.0036671583
v -0.0025654114 0.0069289855 0.0026117237
v -0.0036069623 0.006948804 5.2896863E-05
v -0.0025584395 0.006973292 -0.0024981936
v -2.969864E-13 0.0069763097 -0.0035538648
v -0.0036684414 0.0036299042 -0.0036412063
v -2.969864E-13 0.0036361655 -0.0051444005
v -0.0036687723 0.0035700419 0.0036995618
v -2.969864E-13 0.0069174278 0.0036671583
v -2.969864E-13 0.0035517893 0.005203002
v -0.004176837 0.0002857185 -0.0041797194
v -2.969864E-13 0.000293685 -0.0058804397
v -2.969864E-13 -0.0027051591 -0.005450933
v -0.005175668 0.0035913412 3.440446E-05
v -0.0041817697 0.00021755804 0.004178882
v -2.969864E-13 0.00019775078 0.005884445
v -0.00401479 -0.0024495872 -0.0040241275
v -2.969864E-13 -0.005014848 -0.0031262685
v -0.005882754 0.00024271989 7.799313E-06
v -0.0040027625 -0.0025149803 0.003995657
v -2.969864E-13 -0.0027936904 0.0054060775
v -2.969864E-13 -0.0050651627 0.003044056
v -0.0054273037 -0.0027521914 -1.7071818E-05
v -0.0030879192 -0.0050383513 -4.431466E-05
v -0.0024359704 -0.0048369137 -0.0024529195
v -2.969864E-13 -0.005894438 -4.8074387E-05
v -0.002410943 -0.0048764637 0.0023987181
v -2.969864E-13 0.0036361655 -0.0051444005
v -2.969864E-13 0.000293685 -0.0058804397
v 0.004176837 0.0002857185 -0.0041797194
v -2.969864E-13 -0.0027051591 -0.005450933
v 0.0036684414 0.0036299042 -0.0036412063
v -2.969864E-13 0.0069763097 -0.0035538648
v 0.00401479 -0.0024495872 -0.0040241275
v -2.969864E-13 -0.005014848 -0.0031262685
v 0.0025584395 0.006973292 -0.0024981936
v -2.969864E-13 0.0130970115 0.0001067963
v 0.0036069623 0.006948804 5.2896863E-05
v 0.005175668 0.0035913412 3.440446E-05
v 0.0025654114 0.0069289855 0.0026117237
v -2.969864E-13 0.0069174278 0.0036671583
v 0.0036687723 0.0035700419 0.0036995618
v -2.969864E-13 0.0035517893 0.005203002
v 0.0041817697 0.00021755804 0.004178882
v -2.969864E-13 0.00019775078 0.005884445
v 0.005882754 0.00024271989 7.799313E-06
v 0.0040027625 -0.0025149803 0.003995657
v -2.969864E-13 -0.0027936904 0.0054060775
v -2.969864E-13 -0.0050651627 0.003044056
v 0.0054273037 -0.0027521914 -1.7071818E-05
v 0.0030879192 -0.0050383513 -4.431466E-05
v 0.002410943 -0.0048764637 0.0023987181
v -2.969864E-13 -0.005894438 -4.8074387E-05
v 0.0024359704 -0.0048369137 -0.0024529195
vt 0.86185694 0.32247722
vt 0.88562155 0.2967734
vt 0.87378025 0.29148942
vt 0.86185694 0.2903697
vt 0.84993863 0.29150987
vt 0.83807826 0.2967811
vt 0.8470793 0.2760547
vt 0.8296275 0.27886617
vt 0.8766322 0.2760587
vt 0.88562155 0.2967734
vt 0.8940468 0.27886567
vt 0.8468206 0.26280686
vt 0.82777596 0.26116943
vt 0.83196163 0.2458807
vt 0.86185694 0.27581376
vt 0.8768673 0.2628057
vt 0.89590025 0.26118657
vt 0.8482313 0.25296408
vt 0.8441279 0.23271674
vt 0.86185694 0.26348984
vt 0.8755455 0.25294617
vt 0.8917289 0.24589825
vt 0.87956643 0.23271242
vt 0.86185694 0.2529413
vt 0.86185694 0.24079761
vt 0.85202146 0.2410587
vt 0.86185694 0.2272233
vt 0.8718338 0.2410036
vt 0.8296269 0.27886617
vt 0.8277755 0.26116943
vt 0.8468201 0.26280686
vt 0.8319613 0.2458807
vt 0.8470788 0.2760547
vt 0.8380778 0.2967811
vt 0.8482307 0.25296408
vt 0.8441274 0.23271674
vt 0.84993815 0.29150987
vt 0.86185634 0.32247722
vt 0.86185634 0.2903697
vt 0.86185634 0.27581376
vt 0.8737799 0.29148942
vt 0.88562095 0.2967734
vt 0.87663174 0.2760587
vt 0.8940462 0.27886567
vt 0.87686694 0.2628057
vt 0.8958998 0.26118657
vt 0.86185634 0.26348984
vt 0.875545 0.25294617
vt 0.8917283 0.24589825
vt 0.87956595 0.23271242
vt 0.86185634 0.2529413
vt 0.86185634 0.24079761
vt 0.8718333 0.2410036
vt 0.86185634 0.2272233
vt 0.852021 0.2410587
vn -0 0.9999722 0.007456699
vn -0 0.7790874 0.62691534
vn -0.43925145 0.7804217 0.44497213
vn -0.6210199 0.7837727 0.0058841733
vn -0.43907928 0.7872209 -0.4330041
vn 2.0347184E-07 0.7887262 -0.61474466
vn -0.64245826 0.4231597 -0.63889223
vn -0 0.4249875 -0.9051992
vn -0.6424299 0.41280162 0.64566153
vn -0 0.7790874 0.62691534
vn -0 0.410318 0.9119425
vn -0.7059405 -0.057687774 -0.70591795
vn -0 -0.055885233 -0.9984372
vn -0 -0.5945806 -0.80403596
vn -0.90865564 0.41753298 0.0033472388
vn -0.7054446 -0.068989806 0.7053995
vn -0 -0.07182263 0.99741745
vn -0.57594806 -0.5761467 -0.57994723
vn -0 -0.8887177 -0.458455
vn -0.99795485 -0.0639219 -8.8152214E-05
vn -0.57541585 -0.5850447 0.5715062
vn -0 -0.6068312 0.79483074
vn -0 -0.8955769 0.44490686
vn -0.799401 -0.6007831 -0.0042027156
vn -0.45162508 -0.8921831 -0.0066439393
vn -0.3867074 -0.83433825 -0.3928576
vn -0 -0.9999715 -0.0075572715
vn -0.38637906 -0.8402734 0.38033134
vn -0 0.4249875 -0.9051992
vn -0 -0.055885233 -0.9984372
vn 0.7059406 -0.057687778 -0.7059179
vn -0 -0.5945806 -0.80403596
vn 0.64245826 0.42315948 -0.63889235
vn 2.0347184E-07 0.7887262 -0.61474466
vn 0.5759481 -0.57614666 -0.5799472
vn -0 -0.8887177 -0.458455
vn 0.43907934 0.7872209 -0.43300405
vn -0 0.9999722 0.007456699
vn 0.6210201 0.7837726 0.005884174
vn 0.90865564 0.41753295 0.003347238
vn 0.43925172 0.78042156 0.4449719
vn -0 0.7790874 0.62691534
vn 0.64243 0.41280127 0.64566153
vn -0 0.410318 0.9119425
vn 0.7054446 -0.06898979 0.7053995
vn -0 -0.07182263 0.99741745
vn 0.99795485 -0.06392188 -8.81522E-05
vn 0.5754159 -0.5850446 0.57150614
vn -0 -0.6068312 0.79483074
vn -0 -0.8955769 0.44490686
vn 0.7994011 -0.600783 -0.004202715
vn 0.45162514 -0.892183 -0.006643939
vn 0.38637906 -0.8402734 0.38033134
vn -0 -0.9999715 -0.0075572715
vn 0.3867074 -0.83433825 -0.39285752
g pm0438_00_LTearSkin_0
f 3/3/3 2/2/2 1/1/1
f 4/4/4 3/3/3 1/1/1
f 5/5/5 4/4/4 1/1/1
f 6/6/6 5/5/5 1/1/1
f 7/7/7 5/5/5 6/6/6
f 4/4/4 5/5/5 7/7/7
f 8/8/8 7/7/7 6/6/6
f 9/9/9 3/3/3 4/4/4
f 10/10/10 3/3/3 9/9/9
f 11/11/11 10/10/10 9/9/9
f 12/12/12 7/7/7 8/8/8
f 13/13/13 12/12/12 8/8/8
f 13/13/13 14/14/14 12/12/12
f 15/15/15 4/4/4 7/7/7
f 15/15/15 9/9/9 4/4/4
f 15/15/15 7/7/7 12/12/12
f 11/11/11 9/9/9 16/16/16
f 16/16/16 9/9/9 15/15/15
f 17/17/17 11/11/11 16/16/16
f 14/14/14 18/18/18 12/12/12
f 18/18/18 14/14/14 19/19/19
f 20/20/20 15/15/15 12/12/12
f 20/20/20 16/16/16 15/15/15
f 12/12/12 18/18/18 20/20/20
f 16/16/16 21/21/21 17/17/17
f 21/21/21 22/22/22 17/17/17
f 22/22/22 21/21/21 23/23/23
f 20/20/20 24/24/24 16/16/16
f 18/18/18 24/24/24 20/20/20
f 24/24/24 21/21/21 16/16/16
f 24/24/24 18/18/18 25/25/25
f 21/21/21 24/24/24 25/25/25
f 26/26/26 18/18/18 19/19/19
f 18/18/18 26/26/26 25/25/25
f 26/26/26 19/19/19 25/25/25
f 19/19/19 27/27/27 25/25/25
f 25/25/25 27/27/27 23/23/23
f 28/28/28 21/21/21 25/25/25
f 28/28/28 25/25/25 23/23/23
f 21/21/21 28/28/28 23/23/23
f 31/31/31 30/30/30 29/29/29
f 32/32/32 30/30/30 31/31/31
f 33/33/33 31/31/31 29/29/29
f 33/33/33 29/29/29 34/34/34
f 35/35/35 32/32/32 31/31/31
f 32/32/32 35/35/35 36/36/36
f 37/37/37 33/33/33 34/34/34
f 37/37/37 34/34/34 38/38/38
f 37/37/37 39/39/39 33/33/33
f 39/39/39 37/37/37 38/38/38
f 33/33/33 40/40/40 31/31/31
f 39/39/39 40/40/40 33/33/33
f 41/41/41 39/39/39 38/38/38
f 42/42/42 41/41/41 38/38/38
f 41/41/41 43/43/43 39/39/39
f 41/41/41 42/42/42 43/43/43
f 43/43/43 40/40/40 39/39/39
f 42/42/42 44/44/44 43/43/43
f 43/43/43 44/44/44 45/45/45
f 43/43/43 45/45/45 40/40/40
f 44/44/44 46/46/46 45/45/45
f 40/40/40 47/47/47 31/31/31
f 35/35/35 31/31/31 47/47/47
f 45/45/45 47/47/47 40/40/40
f 48/48/48 45/45/45 46/46/46
f 49/49/49 48/48/48 46/46/46
f 48/48/48 49/49/49 50/50/50
f 51/51/51 47/47/47 45/45/45
f 51/51/51 35/35/35 47/47/47
f 48/48/48 51/51/51 45/45/45
f 35/35/35 51/51/51 52/52/52
f 51/51/51 48/48/48 52/52/52
f 53/53/53 48/48/48 50/50/50
f 48/48/48 53/53/53 52/52/52
f 52/52/52 53/53/53 50/50/50
f 54/54/54 52/52/52 50/50/50
f 54/54/54 36/36/36 52/52/52
f 35/35/35 55/55/55 36/36/36
f 36/36/36 55/55/55 52/52/52
f 55/55/55 35/35/35 52/52/52
