g pm0484_00_InkSkin
v 0.9788441 2.9574628 0.061796226
v 1.0043633 2.884211 0.056958407
v 0.99594265 2.948929 0.07992182
v 0.9900473 3.0008442 0.12526923
v 0.9882981 2.8848703 0.03604755
v 0.99933404 2.8082478 0.041473854
v 1.0142095 2.8158996 0.061803725
v 1.0239072 2.7542562 0.0916854
v 1.0031105 2.891181 0.00452742
v 1.0158793 2.802521 0.010806632
v 0.9921713 2.9751775 0.034321483
v 1.0284747 2.7225227 0.049596585
v 0.97224134 3.0156918 0.112666816
v 0.9845303 3.0425508 0.09318295
v 1.0102185 2.7391105 0.074997805
v 1.0388916 2.664512 0.11733737
v 0.9697558 3.0492134 0.1826045
v 0.9878404 3.030727 0.18762565
v 0.9816546 3.0813384 0.17410722
v 0.98934436 3.0358343 0.2566023
v 1.0192212 2.6889758 0.13354185
v 1.0319401 2.7095654 0.14388493
v 1.0457647 2.635374 0.20198955
v 1.0372293 2.6871064 0.20910676
v 0.9714524 3.0549343 0.25997195
v 0.9836184 3.0879617 0.2636293
v 1.0251611 2.6637936 0.20670038
v 1.0477281 2.6419942 0.29151085
v 0.9773923 3.029752 0.33313018
v 0.9946484 3.0133774 0.3218237
v 0.99049175 3.0588238 0.34828094
v 1.0026668 2.9686844 0.37402365
v 1.0268577 2.6695151 0.28406784
v 1.0387483 2.692216 0.27808306
v 1.0448527 2.680785 0.37243626
v 1.0365267 2.7220964 0.34043953
v 0.986395 2.9796174 0.3916745
v 1.0009086 3.0008125 0.41602233
v 1.0243729 2.7030394 0.354006
v 1.0372115 2.7481582 0.43129766
v 0.99728 2.9104805 0.4251982
v 1.0123789 2.907043 0.40390456
v 1.0135036 2.920814 0.4548122
v 1.0222105 2.8387299 0.40875003
v 1.0177693 2.7612655 0.4048761
v 1.0306456 2.774014 0.3857868
v 1.0262727 2.8321548 0.46109113
v 1.0083154 2.833858 0.43062454
v -0.97894347 2.9574769 0.06179306
v -0.9960219 2.948967 0.0798734
v -1.004445 2.8842297 0.056903448
v -0.9901247 3.0008976 0.1252345
v -0.9883974 2.8848844 0.0360449
v -0.9994335 2.8082619 0.041470695
v -1.0142944 2.8158977 0.061750047
v -1.0239947 2.7542365 0.09164089
v -1.0032005 2.8911874 0.0045707715
v -1.015967 2.8025453 0.010848966
v -0.9922638 2.9751668 0.034359034
v -1.0285598 2.7225635 0.04963082
v -0.97234076 3.015705 0.112663954
v -0.9846243 3.0425267 0.093208365
v -1.0103178 2.7391248 0.07499505
v -1.0389744 2.6645644 0.11735804
v -0.9698552 3.0492275 0.18260132
v -0.98791707 3.0307894 0.1876094
v -0.98174924 3.081306 0.17411634
v -0.9894216 3.035898 0.25660667
v -1.0193206 2.6889899 0.13353868
v -1.0320301 2.709532 0.1438558
v -1.0458462 2.6354325 0.20199296
v -1.037321 2.6870666 0.20909704
v -0.9715518 3.0549479 0.25996867
v -0.9837126 3.087928 0.26362023
v -1.0252603 2.6638083 0.20669726
v -1.0478091 2.6420512 0.29149607
v -0.9774917 3.029766 0.33312696
v -0.99472713 3.0134346 0.32184762
v -0.99058455 3.058796 0.34825462
v -1.0027481 2.968728 0.37406293
v -1.026957 2.669529 0.28406462
v -1.0388402 2.6921773 0.27809379
v -1.0449346 2.6808336 0.37240517
v -1.036618 2.722067 0.3404686
v -0.9864944 2.979631 0.39167085
v -1.0009992 3.0007968 0.41598243
v -1.0244722 2.703054 0.35400248
v -1.037295 2.7481935 0.4312545
v -0.99737936 2.9104946 0.42519495
v -1.0124631 2.9070685 0.40395287
v -1.0135918 2.9208145 0.45476422
v -1.0222976 2.8387349 0.40879944
v -1.0178685 2.7612796 0.40487292
v -1.0307351 2.774 0.38582957
v -1.0263584 2.832173 0.46104214
v -1.0084149 2.833872 0.4306208
v 0.99594265 2.948929 0.07992182
v 1.0322882 2.9558315 0.1629801
v 0.9900473 3.0008442 0.12526923
v 0.9878404 3.030727 0.18762565
v 1.0362731 2.9224148 0.13452815
v 1.0717198 2.8696816 0.231027
v 1.0415145 2.881341 0.119593054
v 1.0043633 2.884211 0.056958407
v 1.0142095 2.8158996 0.061803725
v 1.0310704 2.9744818 0.20291032
v 1.0318424 2.9781628 0.24683525
v 0.98934436 3.0358343 0.2566023
v 0.9946484 3.0133774 0.3218237
v 1.0479716 2.8380105 0.123319365
v 1.054052 2.7987566 0.14198926
v 1.0239072 2.7542562 0.0916854
v 1.0319401 2.7095654 0.14388493
v 1.0354557 2.9633358 0.2881711
v 1.0592654 2.7709465 0.17547016
v 1.0404389 2.9351516 0.3216026
v 1.0026668 2.9686844 0.37402365
v 1.0123789 2.907043 0.40390456
v 1.0625571 2.7563567 0.21661365
v 1.0372293 2.6871064 0.20910676
v 1.0387483 2.692216 0.27808306
v 1.0468165 2.8957355 0.33998507
v 1.0529774 2.8524227 0.3433816
v 1.0222105 2.8387299 0.40875003
v 1.0306456 2.774014 0.3857868
v 1.0635871 2.7601314 0.26019087
v 1.062112 2.7785432 0.29985067
v 1.0365267 2.7220964 0.34043953
v 1.0584495 2.811662 0.32823703
v -0.9960219 2.948967 0.0798734
v -0.9901247 3.0008976 0.1252345
v -1.03264 2.9559972 0.16288061
v -0.98791707 3.0307894 0.1876094
v -1.0363624 2.9224455 0.13449416
v -1.0718193 2.8696957 0.23102382
v -1.0416055 2.8813586 0.11955439
v -1.004445 2.8842297 0.056903448
v -1.0142944 2.8158977 0.061750047
v -1.0311579 2.974529 0.20289816
v -1.0319301 2.9782114 0.2468371
v -0.9894216 3.035898 0.25660667
v -0.99472713 3.0134346 0.32184762
v -1.0480646 2.8380144 0.12328185
v -1.0541469 2.798748 0.14195776
v -1.0239947 2.7542365 0.09164089
v -1.0320301 2.709532 0.1438558
v -1.0355445 2.9633799 0.28818616
v -1.059362 2.770929 0.17544927
v -1.0405295 2.9351864 0.3216283
v -1.0027481 2.968728 0.37406293
v -1.0124631 2.9070685 0.40395287
v -1.0626546 2.7563348 0.21660589
v -1.037321 2.6870666 0.20909704
v -1.0388402 2.6921773 0.27809379
v -1.0469091 2.8957577 0.34001666
v -1.053072 2.8524313 0.3434142
v -1.0222976 2.8387349 0.40879944
v -1.0307351 2.774 0.38582957
v -1.063685 2.7601106 0.26019695
v -1.0622095 2.7785285 0.2998694
v -1.036618 2.722067 0.3404686
v -1.058546 2.8116574 0.3282648
vt 0.3334186 0.90216374
vt 0.50000024 0.8692224
vt 0.35870495 0.84111714
vt 0.23892063 0.7610798
vt 0.5000001 0.9352989
vt 0.66658163 0.9021636
vt 0.6412953 0.841117
vt 0.76107955 0.7610798
vt 0.50000024 1.0000004
vt 0.6913419 0.96193993
vt 0.30865848 0.96194017
vt 0.85355353 0.85355353
vt 0.19219759 0.8078029
vt 0.1464467 0.8535539
vt 0.80780256 0.8078027
vt 0.9619398 0.6913419
vt 0.097836584 0.666582
vt 0.15888333 0.6412958
vt 0.03806019 0.69134223
vt 0.13077793 0.5000005
vt 0.90216345 0.6665814
vt 0.8411168 0.6412952
vt 0.9999999 0.50000036
vt 0.8692219 0.50000036
vt 0.06470138 0.5000005
vt -2.9802322E-08 0.5000005
vt 0.93529856 0.50000036
vt 0.9619397 0.3086586
vt 0.097836584 0.33341926
vt 0.15888324 0.3587054
vt 0.03806019 0.30865884
vt 0.23892054 0.23892117
vt 0.90216327 0.33341885
vt 0.84111655 0.35870528
vt 0.8535533 0.14644694
vt 0.7610794 0.23892117
vt 0.1921973 0.19219798
vt 0.14644647 0.14644718
vt 0.80780244 0.19219804
vt 0.6913415 0.038060427
vt 0.33341834 0.09783709
vt 0.3587048 0.15888381
vt 0.30865812 0.038060904
vt 0.49999988 0.13077849
vt 0.6665814 0.09783709
vt 0.64129496 0.15888381
vt 0.49999988 2.3841858E-07
vt 0.49999988 0.06470168
vt 0.6665813 0.90216374
vt 0.64129496 0.84111714
vt 0.49999964 0.8692224
vt 0.76107925 0.7610798
vt 0.49999976 0.9352989
vt 0.33341825 0.9021636
vt 0.35870457 0.841117
vt 0.23892033 0.7610798
vt 0.49999964 1.0000004
vt 0.308658 0.96193993
vt 0.6913414 0.96194017
vt 0.14644635 0.85355353
vt 0.8078023 0.8078029
vt 0.8535532 0.8535539
vt 0.19219732 0.8078027
vt 0.03806007 0.6913419
vt 0.90216327 0.666582
vt 0.84111655 0.6412958
vt 0.9619397 0.69134223
vt 0.8692219 0.5000005
vt 0.097836435 0.6665814
vt 0.1588831 0.6412952
vt 0 0.50000036
vt 0.13077796 0.50000036
vt 0.9352985 0.5000005
vt 0.9999999 0.5000005
vt 0.06470132 0.50000036
vt 0.03806019 0.3086586
vt 0.90216327 0.33341926
vt 0.84111667 0.3587054
vt 0.9619397 0.30865884
vt 0.7610793 0.23892117
vt 0.09783661 0.33341885
vt 0.15888333 0.35870528
vt 0.14644659 0.14644694
vt 0.23892051 0.23892117
vt 0.80780256 0.19219798
vt 0.8535534 0.14644718
vt 0.19219744 0.19219804
vt 0.30865836 0.038060427
vt 0.6665815 0.09783709
vt 0.6412951 0.15888381
vt 0.69134176 0.038060904
vt 0.5 0.13077849
vt 0.3334185 0.09783709
vt 0.35870492 0.15888381
vt 0.5 2.3841858E-07
vt 0.5 0.06470168
vt 0.35870495 0.84111714
vt 0.34309444 0.6569059
vt 0.23892063 0.7610798
vt 0.15888333 0.6412958
vt 0.41508344 0.7050073
vt 0.49999994 0.50000036
vt 0.5000001 0.7218981
vt 0.50000024 0.8692224
vt 0.6412953 0.841117
vt 0.29499295 0.5849172
vt 0.27810198 0.50000036
vt 0.13077793 0.5000005
vt 0.15888324 0.3587054
vt 0.58491683 0.7050073
vt 0.65690553 0.6569058
vt 0.76107955 0.7610798
vt 0.8411168 0.6412952
vt 0.29499295 0.41508383
vt 0.7050071 0.58491695
vt 0.34309435 0.3430949
vt 0.23892054 0.23892117
vt 0.3587048 0.15888381
vt 0.7218978 0.50000036
vt 0.8692219 0.50000036
vt 0.84111655 0.35870528
vt 0.41508323 0.29499328
vt 0.49999994 0.2781024
vt 0.49999988 0.13077849
vt 0.64129496 0.15888381
vt 0.70500684 0.4150839
vt 0.65690565 0.34309483
vt 0.7610794 0.23892117
vt 0.58491665 0.2949934
vt 0.64129496 0.84111714
vt 0.76107925 0.7610798
vt 0.6569054 0.6569059
vt 0.84111655 0.6412958
vt 0.5849165 0.7050073
vt 0.49999994 0.50000036
vt 0.49999976 0.7218981
vt 0.49999964 0.8692224
vt 0.35870457 0.841117
vt 0.70500696 0.5849172
vt 0.7218979 0.50000036
vt 0.8692219 0.5000005
vt 0.84111667 0.3587054
vt 0.41508305 0.7050073
vt 0.34309435 0.6569058
vt 0.23892033 0.7610798
vt 0.1588831 0.6412952
vt 0.70500696 0.41508383
vt 0.2949928 0.58491695
vt 0.65690553 0.3430949
vt 0.7610793 0.23892117
vt 0.6412951 0.15888381
vt 0.2781021 0.50000036
vt 0.13077796 0.50000036
vt 0.15888333 0.35870528
vt 0.58491665 0.29499328
vt 0.49999994 0.2781024
vt 0.5 0.13077849
vt 0.35870492 0.15888381
vt 0.29499304 0.4150839
vt 0.34309435 0.34309483
vt 0.23892051 0.23892117
vt 0.41508323 0.2949934
vn 0.9825712 0.16761762 -0.08036329
vn 0.94302064 0.16849698 -0.28691608
vn 0.93071985 0.26301897 -0.25412887
vn 0.92225367 0.33810553 -0.18743743
vn 0.9852352 0.14714488 -0.08752074
vn 0.9883357 0.12552495 -0.08623259
vn 0.9573159 0.06888018 -0.28071636
vn 0.97140807 -0.020676427 -0.2365139
vn 0.9861079 0.11965698 0.11520983
vn 0.9779068 0.17680568 0.11152563
vn 0.9931886 0.06536043 0.09645962
vn 0.969821 0.22810864 0.08610287
vn 0.9807417 0.18385978 -0.06588961
vn 0.998058 0.022169363 0.058212496
vn 0.99140024 0.10604468 -0.07668244
vn 0.9630996 0.2657304 0.042737134
vn 0.98002326 0.19342163 -0.046287056
vn 0.91893274 0.38231617 -0.09693816
vn 0.99997544 -0.0032381134 0.0062123383
vn 0.92123 0.38900194 0.0035858036
vn 0.99396014 0.09170162 -0.060282283
vn 0.983167 -0.0864804 -0.16094676
vn 0.95873594 0.2840491 -0.011895129
vn 0.9907827 -0.11853771 -0.065563425
vn 0.98051983 0.19488342 -0.02452279
vn 0.9986451 -0.0070744967 -0.051554844
vn 0.995622 0.084696986 -0.03953753
vn 0.9574206 0.28019896 -0.069529586
vn 0.98216194 0.18799686 -0.0038746137
vn 0.9288311 0.35706794 0.098869756
vn 0.99427235 0.011347146 -0.10627184
vn 0.9405546 0.29141554 0.17445365
vn 0.9961272 0.08614035 -0.017620938
vn 0.9931021 -0.111870244 0.035117064
vn 0.95932037 0.254872 -0.12142731
vn 0.98976 -0.06756611 0.12573779
vn 0.9847007 0.17380223 0.012540959
vn 0.98752314 0.04909752 -0.14962462
vn 0.99539894 0.09579497 0.0020991308
vn 0.9641797 0.21181367 -0.1596636
vn 0.98775613 0.15441659 0.022207523
vn 0.9546469 0.20195653 0.21877626
vn 0.97943693 0.100484565 -0.17494625
vn 0.96894103 0.10232034 0.22513096
vn 0.9935486 0.11218831 0.01658581
vn 0.9812781 0.0076769837 0.19244324
vn 0.97123355 0.15761875 -0.17849885
vn 0.9908635 0.1327798 0.023645895
vn -0.9825461 0.16769743 -0.08050383
vn -0.9305906 0.26318225 -0.2544329
vn -0.94290847 0.16852948 -0.28726548
vn -0.92211264 0.33837262 -0.18764928
vn -0.98521787 0.14716484 -0.0876824
vn -0.98832744 0.12548135 -0.08639062
vn -0.9572235 0.06877491 -0.28105742
vn -0.97133493 -0.020905543 -0.23679407
vn -0.9861044 0.11965152 0.115246005
vn -0.97790134 0.17681412 0.1115604
vn -0.9931867 0.065341555 0.09649152
vn -0.96981364 0.22812931 0.08613136
vn -0.98071116 0.1839871 -0.06598755
vn -0.9980573 0.022139564 0.058235694
vn -0.9914009 0.105944 -0.076812565
vn -0.96309066 0.26576012 0.042754807
vn -0.97999084 0.19357641 -0.046327613
vn -0.9187872 0.38264373 -0.097025275
vn -0.9999753 -0.0032749788 0.0062227813
vn -0.921088 0.3893375 0.0036368887
vn -0.99396825 0.09155903 -0.06036466
vn -0.98310983 -0.086800426 -0.1611229
vn -0.95872575 0.2840837 -0.011890916
vn -0.99073607 -0.11890144 -0.06560852
vn -0.980489 0.1950414 -0.02450001
vn -0.99864465 -0.007113024 -0.051558875
vn -0.995635 0.08453467 -0.03955991
vn -0.95740986 0.2802332 -0.06954
vn -0.98213595 0.18813422 -0.0037924151
vn -0.9286998 0.35735908 0.099051215
vn -0.9942708 0.011313355 -0.10629008
vn -0.9404396 0.29161644 0.17473793
vn -0.9961415 0.08598284 -0.017580098
vn -0.9930589 -0.11222408 0.03520968
vn -0.95930994 0.25490046 -0.12145094
vn -0.9897125 -0.067858264 0.12595455
vn -0.98468196 0.17389908 0.0126698
vn -0.98751974 0.049073797 -0.14965434
vn -0.9954111 0.09566589 0.0021966577
vn -0.96417034 0.21183136 -0.15969642
vn -0.98774636 0.15445735 0.022363769
vn -0.95455116 0.20203489 0.21912083
vn -0.97943145 0.10047423 -0.17498262
vn -0.96886504 0.10226189 0.22548412
vn -0.99355537 0.11210694 0.016725414
vn -0.9812191 0.007488528 0.19275147
vn -0.97122586 0.15762281 -0.17853637
vn -0.9908626 0.13275811 0.023806158
vn 0.93071985 0.26301897 -0.25412887
vn 0.933407 0.3162241 -0.1695694
vn 0.92225367 0.33810553 -0.18743743
vn 0.91893274 0.38231617 -0.09693816
vn 0.9410349 0.2497367 -0.22822118
vn 0.9894275 0.14139274 -0.03226747
vn 0.9520992 0.1662898 -0.2566217
vn 0.94302064 0.16849698 -0.28691608
vn 0.9573159 0.06888018 -0.28071636
vn 0.930384 0.35545406 -0.089654766
vn 0.93246585 0.36125737 -0.00077854976
vn 0.92123 0.38900194 0.0035858036
vn 0.9288311 0.35706794 0.098869756
vn 0.96486825 0.07876211 -0.25065076
vn 0.9774057 0.00049642695 -0.21137145
vn 0.97140807 -0.020676427 -0.2365139
vn 0.983167 -0.0864804 -0.16094676
vn 0.9393024 0.33282238 0.08330837
vn 0.98780537 -0.056764826 -0.14497685
vn 0.9498483 0.27458313 0.1496406
vn 0.9405546 0.29141554 0.17445365
vn 0.9546469 0.20195653 0.21877626
vn 0.99452376 -0.08446623 -0.06154647
vn 0.9907827 -0.11853771 -0.065563425
vn 0.9931021 -0.111870244 0.035117064
vn 0.9624472 0.19566339 0.18817833
vn 0.97518367 0.10819441 0.19315997
vn 0.96894103 0.10232034 0.22513096
vn 0.9812781 0.0076769837 0.19244324
vn 0.9965576 -0.07860746 0.026341312
vn 0.9936119 -0.040029183 0.10551376
vn 0.98976 -0.06756611 0.12573779
vn 0.9861141 0.02547798 0.16410361
vn -0.9305906 0.26318225 -0.2544329
vn -0.92211264 0.33837262 -0.18764928
vn -0.93336856 0.31630343 -0.16963261
vn -0.9187872 0.38264373 -0.097025275
vn -0.94100636 0.2496113 -0.2284756
vn -0.9894337 0.14135595 -0.032239698
vn -0.9520738 0.16610874 -0.25683352
vn -0.94290847 0.16852948 -0.28726548
vn -0.9572235 0.06877491 -0.28105742
vn -0.93032205 0.35566252 -0.08947037
vn -0.93240696 0.36140963 -0.0005515559
vn -0.921088 0.3893375 0.0036368887
vn -0.9286998 0.35735908 0.099051215
vn -0.9648627 0.07865838 -0.2507047
vn -0.97741014 0.00044092315 -0.21135077
vn -0.97133493 -0.020905543 -0.23679407
vn -0.98310983 -0.086800426 -0.1611229
vn -0.93928427 0.33284488 0.08342166
vn -0.98780805 -0.056805402 -0.1449426
vn -0.94985074 0.27454787 0.14968945
vn -0.9404396 0.29161644 0.17473793
vn -0.95455116 0.20203489 0.21912083
vn -0.99452245 -0.08450604 -0.06151257
vn -0.99073607 -0.11890144 -0.06560852
vn -0.9930589 -0.11222408 0.03520968
vn -0.9624502 0.19561937 0.18820904
vn -0.97518253 0.10815111 0.19318978
vn -0.96886504 0.10226189 0.22548412
vn -0.9812191 0.007488528 0.19275147
vn -0.99655366 -0.07864701 0.026374076
vn -0.9936069 -0.04006935 0.105544716
vn -0.9897125 -0.067858264 0.12595455
vn -0.9861101 0.02543624 0.16413338
g pm0484_00_InkSkin_0
f 3/3/3 2/2/2 1/1/1
f 3/3/3 1/1/1 4/4/4
f 2/2/2 5/5/5 1/1/1
f 6/6/6 5/5/5 2/2/2
f 7/7/7 6/6/6 2/2/2
f 7/7/7 8/8/8 6/6/6
f 1/1/1 5/5/5 9/9/9
f 9/9/9 5/5/5 10/10/10
f 5/5/5 6/6/6 10/10/10
f 11/11/11 1/1/1 9/9/9
f 10/10/10 6/6/6 12/12/12
f 13/13/13 1/1/1 11/11/11
f 1/1/1 13/13/13 4/4/4
f 14/14/14 13/13/13 11/11/11
f 6/6/6 15/15/15 12/12/12
f 8/8/8 15/15/15 6/6/6
f 12/12/12 15/15/15 16/16/16
f 4/4/4 13/13/13 17/17/17
f 17/17/17 13/13/13 14/14/14
f 18/18/18 4/4/4 17/17/17
f 19/19/19 17/17/17 14/14/14
f 18/18/18 17/17/17 20/20/20
f 21/21/21 15/15/15 8/8/8
f 15/15/15 21/21/21 16/16/16
f 22/22/22 21/21/21 8/8/8
f 16/16/16 21/21/21 23/23/23
f 22/22/22 24/24/24 21/21/21
f 25/25/25 17/17/17 19/19/19
f 17/17/17 25/25/25 20/20/20
f 26/26/26 25/25/25 19/19/19
f 21/21/21 27/27/27 23/23/23
f 24/24/24 27/27/27 21/21/21
f 23/23/23 27/27/27 28/28/28
f 20/20/20 25/25/25 29/29/29
f 29/29/29 25/25/25 26/26/26
f 30/30/30 20/20/20 29/29/29
f 31/31/31 29/29/29 26/26/26
f 30/30/30 29/29/29 32/32/32
f 33/33/33 27/27/27 24/24/24
f 27/27/27 33/33/33 28/28/28
f 34/34/34 33/33/33 24/24/24
f 28/28/28 33/33/33 35/35/35
f 34/34/34 36/36/36 33/33/33
f 37/37/37 29/29/29 31/31/31
f 29/29/29 37/37/37 32/32/32
f 38/38/38 37/37/37 31/31/31
f 33/33/33 39/39/39 35/35/35
f 36/36/36 39/39/39 33/33/33
f 35/35/35 39/39/39 40/40/40
f 32/32/32 37/37/37 41/41/41
f 41/41/41 37/37/37 38/38/38
f 42/42/42 32/32/32 41/41/41
f 43/43/43 41/41/41 38/38/38
f 42/42/42 41/41/41 44/44/44
f 45/45/45 39/39/39 36/36/36
f 39/39/39 45/45/45 40/40/40
f 46/46/46 45/45/45 36/36/36
f 46/46/46 44/44/44 45/45/45
f 40/40/40 45/45/45 47/47/47
f 48/48/48 41/41/41 43/43/43
f 41/41/41 48/48/48 44/44/44
f 47/47/47 48/48/48 43/43/43
f 44/44/44 48/48/48 45/45/45
f 45/45/45 48/48/48 47/47/47
f 51/51/51 50/50/50 49/49/49
f 49/49/49 50/50/50 52/52/52
f 53/53/53 51/51/51 49/49/49
f 53/53/53 54/54/54 51/51/51
f 54/54/54 55/55/55 51/51/51
f 56/56/56 55/55/55 54/54/54
f 53/53/53 49/49/49 57/57/57
f 53/53/53 57/57/57 58/58/58
f 54/54/54 53/53/53 58/58/58
f 49/49/49 59/59/59 57/57/57
f 54/54/54 58/58/58 60/60/60
f 49/49/49 61/61/61 59/59/59
f 61/61/61 49/49/49 52/52/52
f 61/61/61 62/62/62 59/59/59
f 63/63/63 54/54/54 60/60/60
f 63/63/63 56/56/56 54/54/54
f 63/63/63 60/60/60 64/64/64
f 61/61/61 52/52/52 65/65/65
f 61/61/61 65/65/65 62/62/62
f 52/52/52 66/66/66 65/65/65
f 65/65/65 67/67/67 62/62/62
f 65/65/65 66/66/66 68/68/68
f 63/63/63 69/69/69 56/56/56
f 69/69/69 63/63/63 64/64/64
f 69/69/69 70/70/70 56/56/56
f 69/69/69 64/64/64 71/71/71
f 72/72/72 70/70/70 69/69/69
f 65/65/65 73/73/73 67/67/67
f 73/73/73 65/65/65 68/68/68
f 73/73/73 74/74/74 67/67/67
f 75/75/75 69/69/69 71/71/71
f 75/75/75 72/72/72 69/69/69
f 75/75/75 71/71/71 76/76/76
f 73/73/73 68/68/68 77/77/77
f 73/73/73 77/77/77 74/74/74
f 68/68/68 78/78/78 77/77/77
f 77/77/77 79/79/79 74/74/74
f 77/77/77 78/78/78 80/80/80
f 75/75/75 81/81/81 72/72/72
f 81/81/81 75/75/75 76/76/76
f 81/81/81 82/82/82 72/72/72
f 81/81/81 76/76/76 83/83/83
f 84/84/84 82/82/82 81/81/81
f 77/77/77 85/85/85 79/79/79
f 85/85/85 77/77/77 80/80/80
f 85/85/85 86/86/86 79/79/79
f 87/87/87 81/81/81 83/83/83
f 87/87/87 84/84/84 81/81/81
f 87/87/87 83/83/83 88/88/88
f 85/85/85 80/80/80 89/89/89
f 85/85/85 89/89/89 86/86/86
f 80/80/80 90/90/90 89/89/89
f 89/89/89 91/91/91 86/86/86
f 89/89/89 90/90/90 92/92/92
f 87/87/87 93/93/93 84/84/84
f 93/93/93 87/87/87 88/88/88
f 93/93/93 94/94/94 84/84/84
f 92/92/92 94/94/94 93/93/93
f 93/93/93 88/88/88 95/95/95
f 96/96/96 95/95/95 91/91/91
f 89/89/89 96/96/96 91/91/91
f 96/96/96 89/89/89 92/92/92
f 96/96/96 92/92/92 93/93/93
f 96/96/96 93/93/93 95/95/95
f 99/99/99 98/98/98 97/97/97
f 99/99/99 100/100/100 98/98/98
f 98/98/98 101/101/101 97/97/97
f 101/101/101 98/98/98 102/102/102
f 97/97/97 101/101/101 103/103/103
f 103/103/103 101/101/101 102/102/102
f 104/104/104 97/97/97 103/103/103
f 104/104/104 103/103/103 105/105/105
f 100/100/100 106/106/106 98/98/98
f 98/98/98 106/106/106 102/102/102
f 107/107/107 106/106/106 100/100/100
f 106/106/106 107/107/107 102/102/102
f 108/108/108 107/107/107 100/100/100
f 108/108/108 109/109/109 107/107/107
f 103/103/103 110/110/110 105/105/105
f 110/110/110 103/103/103 102/102/102
f 105/105/105 110/110/110 111/111/111
f 111/111/111 110/110/110 102/102/102
f 112/112/112 105/105/105 111/111/111
f 112/112/112 111/111/111 113/113/113
f 107/107/107 114/114/114 102/102/102
f 109/109/109 114/114/114 107/107/107
f 115/115/115 111/111/111 102/102/102
f 111/111/111 115/115/115 113/113/113
f 114/114/114 116/116/116 102/102/102
f 116/116/116 114/114/114 109/109/109
f 117/117/117 116/116/116 109/109/109
f 117/117/117 118/118/118 116/116/116
f 113/113/113 115/115/115 119/119/119
f 119/119/119 115/115/115 102/102/102
f 120/120/120 113/113/113 119/119/119
f 120/120/120 119/119/119 121/121/121
f 118/118/118 122/122/122 116/116/116
f 116/116/116 122/122/122 102/102/102
f 123/123/123 122/122/122 118/118/118
f 122/122/122 123/123/123 102/102/102
f 124/124/124 123/123/123 118/118/118
f 124/124/124 125/125/125 123/123/123
f 119/119/119 126/126/126 121/121/121
f 126/126/126 119/119/119 102/102/102
f 121/121/121 126/126/126 127/127/127
f 127/127/127 126/126/126 102/102/102
f 128/128/128 121/121/121 127/127/127
f 128/128/128 127/127/127 125/125/125
f 123/123/123 129/129/129 102/102/102
f 125/125/125 129/129/129 123/123/123
f 129/129/129 127/127/127 102/102/102
f 127/127/127 129/129/129 125/125/125
f 132/132/132 131/131/131 130/130/130
f 133/133/133 131/131/131 132/132/132
f 134/134/134 132/132/132 130/130/130
f 132/132/132 134/134/134 135/135/135
f 134/134/134 130/130/130 136/136/136
f 134/134/134 136/136/136 135/135/135
f 130/130/130 137/137/137 136/136/136
f 136/136/136 137/137/137 138/138/138
f 139/139/139 133/133/133 132/132/132
f 139/139/139 132/132/132 135/135/135
f 139/139/139 140/140/140 133/133/133
f 140/140/140 139/139/139 135/135/135
f 140/140/140 141/141/141 133/133/133
f 142/142/142 141/141/141 140/140/140
f 143/143/143 136/136/136 138/138/138
f 136/136/136 143/143/143 135/135/135
f 143/143/143 138/138/138 144/144/144
f 143/143/143 144/144/144 135/135/135
f 138/138/138 145/145/145 144/144/144
f 144/144/144 145/145/145 146/146/146
f 147/147/147 140/140/140 135/135/135
f 147/147/147 142/142/142 140/140/140
f 144/144/144 148/148/148 135/135/135
f 148/148/148 144/144/144 146/146/146
f 149/149/149 147/147/147 135/135/135
f 147/147/147 149/149/149 142/142/142
f 149/149/149 150/150/150 142/142/142
f 151/151/151 150/150/150 149/149/149
f 148/148/148 146/146/146 152/152/152
f 148/148/148 152/152/152 135/135/135
f 146/146/146 153/153/153 152/152/152
f 152/152/152 153/153/153 154/154/154
f 155/155/155 151/151/151 149/149/149
f 155/155/155 149/149/149 135/135/135
f 155/155/155 156/156/156 151/151/151
f 156/156/156 155/155/155 135/135/135
f 156/156/156 157/157/157 151/151/151
f 158/158/158 157/157/157 156/156/156
f 159/159/159 152/152/152 154/154/154
f 152/152/152 159/159/159 135/135/135
f 159/159/159 154/154/154 160/160/160
f 159/159/159 160/160/160 135/135/135
f 154/154/154 161/161/161 160/160/160
f 160/160/160 161/161/161 158/158/158
f 162/162/162 156/156/156 135/135/135
f 162/162/162 158/158/158 156/156/156
f 160/160/160 162/162/162 135/135/135
f 162/162/162 160/160/160 158/158/158
