g pm0536_00_TongueBSkin
v -0.039339058 0.40062606 0.14646758
v -0.021145228 0.385715 0.153514
v -0.039201096 0.39146885 0.14332207
v -0.05031865 0.3951365 0.12467441
v -0.021248352 0.39599743 0.15693264
v 0.00034751932 0.39374626 0.16014096
v -0.020635264 0.4069891 0.15878825
v 0.00035482013 0.3823426 0.15643711
v 0.02180492 0.38581905 0.15327838
v -0.0503718 0.40540278 0.12814246
v -0.054191396 0.41135955 0.10622615
v -0.048812676 0.41608894 0.13093327
v -0.05421028 0.39996433 0.10249643
v -0.050588388 0.40919837 0.081713505
v -0.038173094 0.4104635 0.14837421
v -0.034399245 0.4216614 0.14780307
v 0.021895733 0.3961019 0.15669595
v 0.03984791 0.4008178 0.14603318
v 0.021249805 0.4070905 0.15855847
v 0.039719794 0.39166 0.14288911
v 0.050614193 0.395381 0.12412071
v 0.00032948068 0.405815 0.1621811
v 0.0002899663 0.41921386 0.16089374
v -0.018589748 0.41939926 0.15751779
v -0.017250886 0.4317179 0.15098706
v 0.050655656 0.40564746 0.12758823
v 0.05420568 0.41162208 0.1056315
v 0.049075503 0.41632602 0.13039626
v 0.054238837 0.400227 0.101901494
v 0.050344456 0.4094428 0.08115979
v 0.03865529 0.4106496 0.14795275
v 0.034821205 0.42182907 0.14742334
v 0.019130386 0.4194906 0.15731086
v 0.017660301 0.43180248 0.15079555
v 0.00021983703 0.4324161 0.15393893
v 0.00010995358 0.44389495 0.13897663
v 0.0503847 0.41977277 0.084433325
v 0.039350595 0.42674357 0.06682635
v 0.048812456 0.43003917 0.0885007
v 0.03922415 0.4174986 0.06394844
v 0.021171035 0.41886437 0.052320212
v 0.052473534 0.42312187 0.10940645
v 0.047343396 0.43483114 0.1132713
v 0.04425213 0.42782867 0.13188533
v 0.034707196 0.43746042 0.1335425
v 0.029601106 0.43050247 0.14455494
v 0.018962374 0.4425263 0.13685489
v 0.020247225 0.4505786 0.118595846
v 0.037154783 0.44467503 0.11655734
v 0.034487948 0.4488903 0.09862257
v 0.04401524 0.44017822 0.094155736
v 0.034386482 0.44449174 0.07818552
v 0.03817279 0.43580315 0.0711051
v 0.020635046 0.439139 0.060645733
v 0.021261256 0.42917818 0.055643152
v -0.0003332398 0.42923534 0.051716685
v -0.00032626578 0.41784874 0.047960795
v -0.021779113 0.41876033 0.052555837
v 0.029231489 0.44977123 0.08568607
v 0.01722558 0.45446518 0.081557736
v 0.018575959 0.44839376 0.06900756
v -0.000304782 0.45021906 0.06616838
v -0.00032961246 0.44017458 0.05720755
v -0.021250023 0.4390376 0.06087551
v -0.021882826 0.42907366 0.055879835
v -0.039836373 0.42655182 0.06726076
v -0.039696738 0.41730744 0.06438139
v 0.01872548 0.45487583 0.0991253
v -0.00014457849 0.4571641 0.09843739
v -0.00024701515 0.45675388 0.07958354
v -0.017685607 0.45438063 0.08174925
v -0.019144174 0.44830242 0.069214486
v -0.034833968 0.4443241 0.078565255
v -0.038655594 0.43561706 0.07152657
v -0.049075723 0.4298021 0.0890377
v -0.05064275 0.41952813 0.08498755
v -1.8559713E-05 0.45252082 0.1193588
v -0.020281851 0.45048046 0.118818186
v -0.01899465 0.45478445 0.099332236
v -0.034732502 0.4487227 0.0990023
v -0.029622624 0.44962868 0.086008936
v -0.052473668 0.4228677 0.10998217
v -0.04735821 0.43460178 0.113790825
v -0.04426592 0.4399644 0.09464005
v -0.018757759 0.44243494 0.13706182
v -0.034513254 0.43729278 0.13392223
v -0.037181962 0.44449496 0.11696514
v -0.04402903 0.42761484 0.13236962
v -0.029253006 0.4303599 0.1448778
vt 0.031099826 0.030368984
vt 0.042003363 0.01350414
vt 0.024513125 0.023989528
vt 0.013743848 0.041395724
vt 0.045363486 0.02187623
vt 0.06277245 0.019027099
vt 0.048429787 0.029079586
vt 0.06282988 0.010050379
vt 0.08360803 0.01373902
vt 0.02224359 0.044605404
vt 0.019091398 0.062233806
vt 0.029588759 0.047656357
vt 0.009974122 0.06221798
vt 0.013482563 0.082951486
vt 0.03659129 0.03576702
vt 0.041980684 0.04121551
vt 0.08014268 0.022072569
vt 0.09429675 0.030725747
vt 0.076985955 0.029240787
vt 0.10096169 0.02442114
vt 0.10887171 0.041947693
vt 0.06272161 0.02704081
vt 0.062672704 0.034777954
vt 0.05152434 0.036111504
vt 0.05323419 0.043474168
vt 0.10297513 0.04506117
vt 0.1059072 0.062723935
vt 0.09559208 0.048028976
vt 0.11238278 0.06281108
vt 0.10861041 0.083503425
vt 0.08873862 0.036061436
vt 0.08328158 0.041448683
vt 0.07380319 0.0362373
vt 0.07200086 0.043580115
vt 0.0626238 0.04253778
vt 0.06256497 0.051891297
vt 0.10275364 0.08028734
vt 0.09389603 0.092139006
vt 0.09540844 0.077234805
vt 0.10048157 0.09555458
vt 0.082993984 0.10616981
vt 0.09770125 0.06266001
vt 0.089784324 0.06260601
vt 0.08842844 0.051129878
vt 0.08105385 0.05288124
vt 0.0789696 0.045771867
vt 0.07228881 0.052505404
vt 0.072778404 0.06250411
vt 0.08197498 0.06255752
vt 0.08093226 0.07221782
vt 0.08828431 0.07405311
vt 0.08301616 0.08365977
vt 0.08840519 0.089089096
vt 0.07656735 0.09581077
vt 0.07963371 0.10069829
vt 0.062226027 0.1036104
vt 0.062170118 0.10975342
vt 0.041389346 0.10593491
vt 0.078758836 0.079297125
vt 0.07176298 0.081415415
vt 0.0734728 0.088778436
vt 0.062324703 0.09012395
vt 0.062276185 0.09787893
vt 0.048011243 0.09564948
vt 0.04485452 0.10050195
vt 0.030699149 0.09178215
vt 0.02403301 0.09512298
vt 0.072163165 0.072494864
vt 0.06243223 0.07300037
vt 0.06237343 0.08235592
vt 0.052996308 0.08130944
vt 0.051193982 0.08865267
vt 0.041715294 0.083426654
vt 0.036257863 0.08879465
vt 0.029405132 0.07686216
vt 0.022022098 0.0798316
vt 0.0624986 0.062446088
vt 0.052218825 0.062388033
vt 0.052708358 0.07238507
vt 0.043943346 0.07200897
vt 0.046027422 0.07911235
vt 0.027296603 0.062262535
vt 0.035213128 0.06229791
vt 0.03656873 0.073761106
vt 0.052834064 0.052395552
vt 0.04406494 0.052672416
vt 0.043022245 0.062337607
vt 0.036712855 0.050837904
vt 0.046238244 0.045587063
vn -0.70893204 -0.08573026 0.7000469
vn -0.37728563 -0.2513352 0.8913396
vn -0.71450573 -0.18136086 0.6757143
vn -0.92987615 -0.07914436 0.3592582
vn -0.3734833 -0.15546219 0.9145173
vn 0.005830933 -0.17903955 0.9838246
vn -0.3571413 0.06340594 0.9318958
vn 0.0059398436 -0.27418393 0.96165895
vn 0.3882557 -0.24948132 0.88713956
vn -0.9230021 0.013056727 0.38457316
vn -0.9915951 0.120991305 0.0458284
vn -0.8743406 0.21639623 0.43439764
vn -0.99933916 0.03222129 0.016821267
vn -0.9341784 0.14513712 -0.32595387
vn -0.67210716 0.12498824 0.7298287
vn -0.57929873 0.38596243 0.71794564
vn 0.38424316 -0.15362705 0.91036034
vn 0.71697694 -0.08227684 0.6922244
vn 0.36703262 0.06516001 0.927923
vn 0.72274697 -0.17788023 0.667829
vn 0.9341345 -0.074629836 0.34903172
vn 0.0053810677 0.0413603 0.99912983
vn 0.0043078572 0.34631065 0.93811005
vn -0.31775832 0.3543144 0.87948334
vn -0.27238047 0.6154522 0.7396132
vn 0.92709184 0.01753769 0.37442365
vn 0.99144053 0.12579422 0.03494966
vn 0.87799543 0.2206405 0.4247844
vn 0.99929583 0.037062183 0.0058565973
vn 0.92983204 0.14965205 -0.3361796
vn 0.6794607 0.12826192 0.7224141
vn 0.5852647 0.3887837 0.7115564
vn 0.32566884 0.35587332 0.8759532
vn 0.27749482 0.6167845 0.7365958
vn 0.0027050741 0.63430667 0.77307683
vn 0.000994393 0.83517885 0.54997754
vn 0.92284435 0.23896906 -0.30207974
vn 0.7087692 0.34559605 -0.61498743
vn 0.8739343 0.43235913 -0.222046
vn 0.71446 0.25409287 -0.6519077
vn 0.37723953 0.32477736 -0.86730033
vn 0.94112027 0.32300097 0.09981501
vn 0.7953661 0.5775147 0.18403663
vn 0.741887 0.47756982 0.47067058
vn 0.52859634 0.68878865 0.49614123
vn 0.4757952 0.5782807 0.66272944
vn 0.2723247 0.8007084 0.53357786
vn 0.27283382 0.9148334 0.2977274
vn 0.55245966 0.79320264 0.25615993
vn 0.52548844 0.8507999 0.0011739501
vn 0.73826885 0.66619027 -0.1055916
vn 0.57859576 0.7364331 -0.3505612
vn 0.67169493 0.5330998 -0.51442254
vn 0.35672402 0.60256016 -0.71391124
vn 0.37331992 0.41579497 -0.829305
vn -0.005992453 0.43733227 -0.89928
vn -0.0059854025 0.34749645 -0.9376622
vn -0.3883008 0.32292303 -0.863101
vn 0.47039136 0.85998046 -0.19790304
vn 0.2714102 0.933971 -0.23245354
vn 0.31703183 0.8061302 -0.49964502
vn -0.0050468664 0.8339762 -0.55177736
vn -0.0057977764 0.62412566 -0.78130245
vn -0.36744952 0.60080606 -0.70993865
vn -0.38440552 0.41395974 -0.82514834
vn -0.7171393 0.34214246 -0.60716534
vn -0.7227918 0.25061166 -0.64402324
vn 0.26922616 0.9622432 0.040066008
vn -0.0021428897 0.9987319 0.05029985
vn -0.0037086469 0.96865183 -0.2483948
vn -0.27846494 0.9326392 -0.22943719
vn -0.3263955 0.80457157 -0.4961155
vn -0.58596766 0.73361224 -0.34417295
vn -0.6798727 0.52982616 -0.5070082
vn -0.8784017 0.42811525 -0.21243303
vn -0.92724967 0.23448798 -0.2919306
vn -0.0005952048 0.9503834 0.31108025
vn -0.27397907 0.913509 0.30072716
vn -0.27342808 0.960929 0.043043014
vn -0.5295591 0.8482446 0.006961798
vn -0.47669446 0.8576865 -0.19270761
vn -0.9415219 0.31844142 0.11014292
vn -0.79608715 0.57366025 0.19276738
vn -0.74260116 0.66260374 -0.09746777
vn -0.27032954 0.79939395 0.53655505
vn -0.5264512 0.68623304 0.5019297
vn -0.55345184 0.7905239 0.262227
vn -0.7389829 0.47398287 0.4787948
vn -0.47129056 0.5759861 0.667926
g pm0536_00_TongueBSkin_0
f 3/3/3 2/2/2 1/1/1
f 3/3/3 1/1/1 4/4/4
f 2/2/2 5/5/5 1/1/1
f 6/6/6 5/5/5 2/2/2
f 1/1/1 5/5/5 7/7/7
f 7/7/7 5/5/5 6/6/6
f 8/8/8 6/6/6 2/2/2
f 8/8/8 9/9/9 6/6/6
f 1/1/1 10/10/10 4/4/4
f 4/4/4 10/10/10 11/11/11
f 12/12/12 10/10/10 1/1/1
f 11/11/11 10/10/10 12/12/12
f 13/13/13 4/4/4 11/11/11
f 13/13/13 11/11/11 14/14/14
f 15/15/15 1/1/1 7/7/7
f 15/15/15 12/12/12 1/1/1
f 15/15/15 7/7/7 16/16/16
f 15/15/15 16/16/16 12/12/12
f 9/9/9 17/17/17 6/6/6
f 18/18/18 17/17/17 9/9/9
f 6/6/6 17/17/17 19/19/19
f 19/19/19 17/17/17 18/18/18
f 20/20/20 18/18/18 9/9/9
f 20/20/20 21/21/21 18/18/18
f 22/22/22 7/7/7 6/6/6
f 22/22/22 6/6/6 19/19/19
f 22/22/22 23/23/23 7/7/7
f 22/22/22 19/19/19 23/23/23
f 7/7/7 24/24/24 16/16/16
f 23/23/23 24/24/24 7/7/7
f 16/16/16 24/24/24 25/25/25
f 25/25/25 24/24/24 23/23/23
f 21/21/21 26/26/26 18/18/18
f 27/27/27 26/26/26 21/21/21
f 18/18/18 26/26/26 28/28/28
f 28/28/28 26/26/26 27/27/27
f 29/29/29 27/27/27 21/21/21
f 29/29/29 30/30/30 27/27/27
f 31/31/31 19/19/19 18/18/18
f 31/31/31 18/18/18 28/28/28
f 31/31/31 32/32/32 19/19/19
f 31/31/31 28/28/28 32/32/32
f 19/19/19 33/33/33 23/23/23
f 32/32/32 33/33/33 19/19/19
f 23/23/23 33/33/33 34/34/34
f 34/34/34 33/33/33 32/32/32
f 35/35/35 25/25/25 23/23/23
f 35/35/35 23/23/23 34/34/34
f 35/35/35 36/36/36 25/25/25
f 35/35/35 34/34/34 36/36/36
f 30/30/30 37/37/37 27/27/27
f 38/38/38 37/37/37 30/30/30
f 27/27/27 37/37/37 39/39/39
f 39/39/39 37/37/37 38/38/38
f 40/40/40 38/38/38 30/30/30
f 40/40/40 41/41/41 38/38/38
f 42/42/42 27/27/27 39/39/39
f 42/42/42 39/39/39 43/43/43
f 42/42/42 28/28/28 27/27/27
f 42/42/42 43/43/43 28/28/28
f 43/43/43 44/44/44 28/28/28
f 45/45/45 44/44/44 43/43/43
f 28/28/28 44/44/44 32/32/32
f 32/32/32 44/44/44 45/45/45
f 46/46/46 34/34/34 32/32/32
f 46/46/46 32/32/32 45/45/45
f 46/46/46 45/45/45 34/34/34
f 45/45/45 47/47/47 34/34/34
f 48/48/48 47/47/47 45/45/45
f 34/34/34 47/47/47 36/36/36
f 36/36/36 47/47/47 48/48/48
f 49/49/49 45/45/45 43/43/43
f 49/49/49 48/48/48 45/45/45
f 49/49/49 43/43/43 50/50/50
f 49/49/49 50/50/50 48/48/48
f 39/39/39 51/51/51 43/43/43
f 43/43/43 51/51/51 50/50/50
f 52/52/52 51/51/51 39/39/39
f 50/50/50 51/51/51 52/52/52
f 53/53/53 52/52/52 39/39/39
f 53/53/53 54/54/54 52/52/52
f 53/53/53 39/39/39 38/38/38
f 53/53/53 38/38/38 54/54/54
f 38/38/38 55/55/55 54/54/54
f 54/54/54 55/55/55 56/56/56
f 41/41/41 55/55/55 38/38/38
f 56/56/56 55/55/55 41/41/41
f 57/57/57 56/56/56 41/41/41
f 57/57/57 58/58/58 56/56/56
f 59/59/59 50/50/50 52/52/52
f 59/59/59 52/52/52 60/60/60
f 59/59/59 60/60/60 50/50/50
f 54/54/54 61/61/61 52/52/52
f 52/52/52 61/61/61 60/60/60
f 62/62/62 61/61/61 54/54/54
f 60/60/60 61/61/61 62/62/62
f 63/63/63 54/54/54 56/56/56
f 63/63/63 62/62/62 54/54/54
f 63/63/63 56/56/56 64/64/64
f 63/63/63 64/64/64 62/62/62
f 58/58/58 65/65/65 56/56/56
f 56/56/56 65/65/65 64/64/64
f 66/66/66 65/65/65 58/58/58
f 64/64/64 65/65/65 66/66/66
f 67/67/67 66/66/66 58/58/58
f 67/67/67 14/14/14 66/66/66
f 60/60/60 68/68/68 50/50/50
f 69/69/69 68/68/68 60/60/60
f 50/50/50 68/68/68 48/48/48
f 48/48/48 68/68/68 69/69/69
f 70/70/70 60/60/60 62/62/62
f 70/70/70 69/69/69 60/60/60
f 70/70/70 62/62/62 71/71/71
f 70/70/70 71/71/71 69/69/69
f 64/64/64 72/72/72 62/62/62
f 62/62/62 72/72/72 71/71/71
f 73/73/73 72/72/72 64/64/64
f 71/71/71 72/72/72 73/73/73
f 74/74/74 64/64/64 66/66/66
f 74/74/74 73/73/73 64/64/64
f 74/74/74 66/66/66 75/75/75
f 74/74/74 75/75/75 73/73/73
f 14/14/14 76/76/76 66/66/66
f 66/66/66 76/76/76 75/75/75
f 11/11/11 76/76/76 14/14/14
f 75/75/75 76/76/76 11/11/11
f 77/77/77 48/48/48 69/69/69
f 77/77/77 69/69/69 78/78/78
f 77/77/77 36/36/36 48/48/48
f 77/77/77 78/78/78 36/36/36
f 71/71/71 79/79/79 69/69/69
f 69/69/69 79/79/79 78/78/78
f 80/80/80 79/79/79 71/71/71
f 78/78/78 79/79/79 80/80/80
f 81/81/81 71/71/71 73/73/73
f 81/81/81 80/80/80 71/71/71
f 81/81/81 73/73/73 80/80/80
f 82/82/82 75/75/75 11/11/11
f 82/82/82 83/83/83 75/75/75
f 82/82/82 11/11/11 12/12/12
f 82/82/82 12/12/12 83/83/83
f 75/75/75 84/84/84 73/73/73
f 73/73/73 84/84/84 80/80/80
f 83/83/83 84/84/84 75/75/75
f 80/80/80 84/84/84 83/83/83
f 78/78/78 85/85/85 36/36/36
f 86/86/86 85/85/85 78/78/78
f 36/36/36 85/85/85 25/25/25
f 25/25/25 85/85/85 86/86/86
f 87/87/87 78/78/78 80/80/80
f 87/87/87 80/80/80 83/83/83
f 87/87/87 86/86/86 78/78/78
f 87/87/87 83/83/83 86/86/86
f 12/12/12 88/88/88 83/83/83
f 83/83/83 88/88/88 86/86/86
f 16/16/16 88/88/88 12/12/12
f 86/86/86 88/88/88 16/16/16
f 89/89/89 16/16/16 25/25/25
f 89/89/89 25/25/25 86/86/86
f 89/89/89 86/86/86 16/16/16
