g pm0520_00_RWingSkin_ty0
v -0.06432846 0.36523458 0.16481201
v -0.07952022 0.32408413 0.18733904
v -0.069114394 0.3474485 0.17903693
v -0.06113799 0.34842893 0.16680188
v -0.053482346 0.36572132 0.13858518
v -0.061947644 0.37737277 0.13873819
v -0.05708842 0.37910074 0.12763572
v -0.053875208 0.3803791 0.10956621
v -0.060849812 0.32778826 0.16530737
v -0.0877141 0.29747656 0.18890226
v -0.05061377 0.34850368 0.13124102
v -0.053704772 0.37778914 0.09579898
v -0.061916105 0.30120122 0.15899345
v -0.093865156 0.2685307 0.18261144
v -0.050786886 0.3343907 0.114667535
v -0.057847124 0.37231582 0.083280645
v -0.06274326 0.27766982 0.1460324
v -0.09765128 0.24741285 0.17284195
v -0.054724004 0.3239966 0.09621476
v -0.06170629 0.36764935 0.07135584
v -0.06350121 0.26519117 0.1287691
v -0.1000278 0.22969525 0.16019075
v -0.05754782 0.31428432 0.07473738
v -0.065233715 0.36087275 0.05474507
v -0.065099545 0.25213766 0.110004306
v -0.103212126 0.21231739 0.14075476
v -0.05974708 0.30791375 0.059310544
v -0.0707934 0.34905344 0.029443933
v -0.06926996 0.23704652 0.08565543
v -0.10682822 0.19350019 0.107877254
v -0.065078564 0.29869768 0.03690011
v -0.077691354 0.32992625 -0.0013212085
v -0.07339908 0.22923933 0.061150555
v -0.108528994 0.18226668 0.07848285
v -0.07046563 0.2853702 0.011874047
v -0.08011672 0.3132062 -0.027945485
v -0.07708363 0.22268666 0.032093056
v -0.10677911 0.17862627 0.047839332
v -0.07474558 0.27092516 -0.013711487
v -0.08168687 0.29424885 -0.057234734
v -0.080832615 0.2212864 -0.0018377742
v -0.10576232 0.1774625 0.012430661
v -0.07671679 0.25460857 -0.047502387
v -0.08137246 0.27309266 -0.090311326
v -0.083886094 0.22351626 -0.039923053
v -0.10222295 0.18450859 -0.029476637
v -0.07649768 0.24907489 -0.078862906
v -0.07363506 0.2868556 -0.1286471
v -0.082013234 0.23178327 -0.076946475
v -0.09681729 0.20323549 -0.07564982
v -0.07214913 0.26629466 -0.13245302
v -0.06800775 0.29492792 -0.15681131
v -0.084035195 0.2429662 -0.14071268
v -0.06700003 0.2806384 -0.15844694
v -0.06519411 0.2989641 -0.1708934
v -0.07549892 0.26387838 -0.16291232
v -0.06442548 0.28781024 -0.1714439
v -0.062380455 0.3030003 -0.1849755
v -0.07123079 0.27433446 -0.17401214
v -0.061850943 0.29498208 -0.18444084
v -0.06696265 0.28479055 -0.18511195
v -0.07009664 0.30038226 -0.1913844
v -0.061850943 0.29498208 -0.18444084
v -0.062380455 0.3030003 -0.1849755
v -0.07177611 0.29485878 -0.19180273
v -0.06696265 0.28479055 -0.18511195
v -0.0737329 0.2964777 -0.17635784
v -0.07009664 0.30038226 -0.1913844
v -0.062380455 0.3030003 -0.1849755
v -0.06519411 0.2989641 -0.1708934
v -0.07177611 0.29485878 -0.19180273
v -0.077369146 0.29257315 -0.16133125
v -0.06800775 0.29492792 -0.15681131
v -0.0766416 0.28857583 -0.17777424
v -0.08464166 0.28476405 -0.13127808
v -0.07363506 0.2868556 -0.1286471
v -0.07642196 0.28488293 -0.17875667
v -0.06696265 0.28479055 -0.18511195
v -0.07123079 0.27433446 -0.17401214
v -0.081067815 0.27490702 -0.1657106
v -0.07549892 0.26387838 -0.16291232
v -0.09035953 0.25495526 -0.13961849
v -0.084035195 0.2429662 -0.14071268
v -0.09681729 0.20323549 -0.07564982
v -0.08150709 0.28229284 -0.16374576
v -0.09328178 0.26888525 -0.09170781
v -0.08137246 0.27309266 -0.090311326
v -0.09123807 0.2697269 -0.13568881
v -0.09696684 0.28659126 -0.05637086
v -0.08168687 0.29424885 -0.057234734
v -0.100299 0.26542893 -0.09221095
v -0.0997315 0.3053168 -0.026184686
v -0.08011672 0.3132062 -0.027945485
v -0.09835581 0.32281703 -0.00092113315
v -0.077691354 0.32992625 -0.0013212085
v -0.095608726 0.34191254 0.027050707
v -0.0707934 0.34905344 0.029443933
v -0.090972185 0.35732758 0.052110862
v -0.065233715 0.36087275 0.05474507
v -0.08537801 0.3686484 0.07330253
v -0.06170629 0.36764935 0.07135584
v -0.10899721 0.34412867 0.058086805
v -0.115716405 0.3257616 0.0314655
v -0.11774732 0.30743515 0.002902474
v -0.1176744 0.29088584 -0.023937242
v -0.07824259 0.37478533 0.090211116
v -0.057847124 0.37231582 0.083280645
v -0.111118585 0.27534935 -0.055289917
v -0.10609757 0.25461528 -0.09142233
v -0.121148095 0.2536488 -0.05242347
v -0.10713983 0.2424093 -0.088739276
v -0.12731719 0.2642217 -0.017284466
v -0.10509396 0.22119196 -0.083174735
v -0.120222434 0.23014519 -0.045479774
v -0.11375671 0.20068929 -0.03638607
v -0.10222295 0.18450859 -0.029476637
v -0.10576232 0.1774625 0.012430661
v -0.11849896 0.19488819 0.0048663327
v -0.10677911 0.17862627 0.047839332
v -0.1309442 0.2775395 0.011909928
v -0.12817293 0.23145297 -0.0071788924
v -0.12113766 0.19646902 0.042458806
v -0.108528994 0.18226668 0.07848285
v -0.13158761 0.24032399 0.02577484
v -0.13118061 0.2951592 0.045172747
v -0.1230869 0.20374097 0.07600054
v -0.10682822 0.19350019 0.107877254
v -0.1336866 0.25491205 0.061170653
v -0.12313827 0.21882325 0.10928342
v -0.103212126 0.21231739 0.14075476
v -0.12555522 0.3143184 0.073811114
v -0.13112152 0.27264008 0.09446019
v -0.12041257 0.24329333 0.14195754
v -0.1000278 0.22969525 0.16019075
v -0.099778086 0.35720477 0.08114723
v -0.11458886 0.3341889 0.101493955
v -0.09191663 0.36763498 0.10103081
v -0.12292308 0.2989109 0.1334585
v -0.11470225 0.27532405 0.1651704
v -0.09765128 0.24741285 0.17284195
v -0.093865156 0.2685307 0.18261144
v -0.0877141 0.29747656 0.18890226
v -0.10476644 0.31138447 0.16941337
v -0.07952022 0.32408413 0.18733904
v -0.103455424 0.34975898 0.11788029
v -0.07987736 0.37725177 0.118492566
v -0.10800343 0.32927948 0.14167021
v -0.08525324 0.3437517 0.16838966
v -0.069114394 0.3474485 0.17903693
v -0.06432846 0.36523458 0.16481201
v -0.0865498 0.3579004 0.15087864
v -0.061947644 0.37737277 0.13873819
v -0.08505317 0.36960697 0.13394552
v -0.06980196 0.3791373 0.106302075
v -0.05708842 0.37910074 0.12763572
v -0.053704772 0.37778914 0.09579898
v -0.053875208 0.3803791 0.10956621
vt 0.4119087 0.45232457
vt 0.35292172 0.46978092
vt 0.38826513 0.4690826
vt 0.38385653 0.45679992
vt 0.39870888 0.4291153
vt 0.4229493 0.42760754
vt 0.41659874 0.41719717
vt 0.40817827 0.40190834
vt 0.34963506 0.4600187
vt 0.3081712 0.47405493
vt 0.3671751 0.42689002
vt 0.39667267 0.39134002
vt 0.3044443 0.46093416
vt 0.2558515 0.47661006
vt 0.33640575 0.4170711
vt 0.38063836 0.3819641
vt 0.26175886 0.45610034
vt 0.21545053 0.47387302
vt 0.30963397 0.4049431
vt 0.36611217 0.37287384
vt 0.23378658 0.44594592
vt 0.17985195 0.46768022
vt 0.28223252 0.3905077
vt 0.3451965 0.3607995
vt 0.20397496 0.43486
vt 0.14087719 0.45643446
vt 0.26329064 0.38012815
vt 0.31036466 0.34326118
vt 0.16718602 0.42043948
vt 0.09280878 0.4411899
vt 0.23512149 0.36504567
vt 0.260315 0.32417363
vt 0.14034057 0.40410882
vt 0.05996561 0.4206252
vt 0.19864851 0.34939283
vt 0.21692759 0.30870408
vt 0.11289096 0.38405544
vt 0.039905965 0.39901486
vt 0.1597383 0.33413237
vt 0.16728407 0.29223293
vt 0.0896278 0.35912627
vt 0.02015394 0.3721024
vt 0.11232239 0.31381774
vt 0.1106112 0.27509952
vt 0.068339765 0.3302132
vt 0.009242117 0.35085577
vt 0.0819397 0.29225498
vt 0.099818945 0.24226832
vt 0.056472063 0.30017096
vt 0.010271966 0.31174493
vt 0.06727177 0.2472924
vt 0.08905664 0.21916461
vt 0.024010658 0.25135863
vt 0.06724694 0.22350812
vt 0.08367549 0.20761275
vt 0.03728175 0.22739255
vt 0.06723453 0.21161598
vt 0.07829434 0.1960609
vt 0.0439173 0.21540952
vt 0.06722212 0.19972384
vt 0.050552845 0.20342648
vt 0.0642755 0.19016123
vt 0.06722212 0.19972384
vt 0.07829434 0.1960609
vt 0.05481237 0.19201082
vt 0.050552845 0.20342648
vt 0.91993415 0.20582005
vt 0.92708683 0.19357103
vt 0.9105301 0.19423896
vt 0.9031677 0.20559698
vt 0.93503374 0.19590867
vt 0.9127815 0.21806908
vt 0.89580536 0.216955
vt 0.93223214 0.2087064
vt 0.8984762 0.24256712
vt 0.8810806 0.23967105
vt 0.9381615 0.20936525
vt 0.95053124 0.20276588
vt 0.9550346 0.21509475
vt 0.9412892 0.22282183
vt 0.959538 0.22742361
vt 0.9475446 0.249735
vt 0.9685447 0.25208133
vt 0.9840956 0.3118471
vt 0.9294305 0.22150412
vt 0.8822927 0.2769817
vt 0.86447626 0.2715096
vt 0.92382723 0.24709958
vt 0.83315516 0.2993819
vt 0.8123071 0.2899016
vt 0.8934116 0.28053057
vt 0.7881081 0.31867987
vt 0.7624602 0.3064748
vt 0.7470324 0.3341995
vt 0.7175882 0.3229944
vt 0.7040794 0.35249412
vt 0.6648965 0.34259957
vt 0.6684711 0.3690173
vt 0.6279611 0.36052394
vt 0.64058405 0.38331282
vt 0.6070022 0.3734426
vt 0.6988793 0.37930244
vt 0.7395551 0.36373538
vt 0.7800742 0.34617448
vt 0.81819874 0.32980174
vt 0.6187082 0.39428574
vt 0.5919359 0.38266164
vt 0.8566327 0.30839932
vt 0.9106141 0.28641522
vt 0.88926274 0.31864846
vt 0.92730975 0.29254156
vt 0.85638815 0.3426072
vt 0.9564018 0.30268228
vt 0.92076296 0.3295772
vt 0.96180815 0.34283185
vt 0.99052596 0.3508271
vt 0.9819634 0.38461155
vt 0.9514427 0.37481302
vt 0.9643374 0.4120025
vt 0.8236959 0.36142355
vt 0.9001062 0.3578087
vt 0.93189 0.40262657
vt 0.94301915 0.43485576
vt 0.8723082 0.38004458
vt 0.78351206 0.3819642
vt 0.90517235 0.42598534
vt 0.91179806 0.45589328
vt 0.8351168 0.4026369
vt 0.86653495 0.44705933
vt 0.8650307 0.47789544
vt 0.74221283 0.3983587
vt 0.79429984 0.42266405
vt 0.81373125 0.46537155
vt 0.82578707 0.48931575
vt 0.6651711 0.39320326
vt 0.69780064 0.41397393
vt 0.63792944 0.40569395
vt 0.73741364 0.44480592
vt 0.7543249 0.4745171
vt 0.7904931 0.49439752
vt 0.74966097 0.49691546
vt 0.6972382 0.49377036
vt 0.6959829 0.46978945
vt 0.65117574 0.485358
vt 0.6634001 0.4224614
vt 0.608891 0.41651905
vt 0.68407434 0.4446652
vt 0.63662094 0.46322715
vt 0.61091495 0.47327077
vt 0.58770156 0.45664102
vt 0.6263214 0.44566244
vt 0.5772963 0.43164736
vt 0.61737084 0.4298653
vt 0.5973971 0.4052382
vt 0.57082707 0.42113435
vt 0.577142 0.3930747
vt 0.570911 0.40493327
vn 0.23982409 0.6739163 0.6987998
vn 0.15551333 0.2837201 0.9462127
vn 0.2208518 0.40433568 0.8875456
vn 0.88663334 0.018425452 0.46210584
vn 0.91944903 0.25465217 0.29960912
vn 0.14600016 0.915747 0.37428778
vn 0.48143366 0.8600943 0.1686995
vn 0.8301708 0.55747867 0.005818078
vn 0.8847056 -0.10597228 0.4539448
vn 0.068633705 0.00820398 0.9976082
vn 0.9926063 0.0252302 0.11872767
vn 0.6636953 0.71294796 -0.2263046
vn 0.89102733 -0.20076819 0.4071393
vn 0.056411956 -0.27766174 0.95902115
vn 0.996813 -0.070561044 -0.037215237
vn 0.6535608 0.6535516 -0.38174418
vn 0.9098595 -0.30290303 0.28355843
vn 0.038813192 -0.5176154 0.8547326
vn 0.9891102 -0.079462886 -0.123881124
vn 0.6422953 0.6541809 -0.3993796
vn 0.9205155 -0.34754577 0.1785022
vn -0.20940068 -0.63399804 0.7444447
vn 0.9903611 -0.049887672 -0.12921336
vn 0.59923995 0.659887 -0.45327756
vn 0.92404306 -0.36388406 0.1171875
vn 0.022181865 -0.8103759 0.5854902
vn 0.9847779 -0.046363372 -0.16751967
vn 0.54708385 0.659107 -0.5160206
vn 0.92131305 -0.38696977 0.03790313
vn -0.002250133 -0.9098471 0.41493762
vn 0.98079395 -0.042890046 -0.19027238
vn 0.5146879 0.668664 -0.5366423
vn 0.92493 -0.37988344 -0.013897569
vn 0.00083682674 -0.977626 0.21034878
vn 0.9863949 -0.031594235 -0.1613282
vn 0.5011065 0.6976993 -0.51196486
vn 0.9343304 -0.35429808 -0.038723722
vn 0.031401534 -0.99870634 0.03999505
vn 0.99392635 -0.032679938 -0.10508326
vn 0.5049952 0.73178154 -0.45768487
vn 0.94105244 -0.33460528 -0.049595248
vn 0.07707061 -0.99077976 -0.1114255
vn 0.9978818 -0.04819746 -0.043689564
vn 0.5441273 0.8386399 -0.024671342
vn 0.9401283 -0.33915755 -0.03362803
vn 0.12189267 -0.9497957 -0.28814977
vn 0.9973423 -0.064113796 0.03460755
vn 0.5224555 0.78492546 0.33306497
vn 0.93031853 -0.36409965 -0.044031333
vn 0.13095824 -0.8840558 -0.44865957
vn 0.97798276 -0.20433387 0.042394813
vn 0.53444004 0.7826436 0.31912827
vn 0.15522186 -0.8100301 -0.5654709
vn 0.9757323 -0.20512415 0.07661972
vn 0.4994108 0.8055444 0.31888425
vn 0.22837292 -0.77268845 -0.59228224
vn 0.9767303 -0.19957313 0.07853996
vn 0.76091903 0.60136914 -0.24363352
vn 0.29802442 -0.7711058 -0.56265193
vn 0.8466911 -0.17110217 -0.5038236
vn 0.45883787 -0.57134944 -0.68046135
vn -0.049238183 0.5801327 -0.8130324
vn 0.8466911 -0.17110217 -0.5038236
vn 0.76091903 0.60136914 -0.24363352
vn -0.38526613 -0.19427706 -0.9021233
vn 0.45883787 -0.57134944 -0.68046135
vn -0.7129402 0.70111 0.012685336
vn -0.049238183 0.5801327 -0.8130324
vn 0.76091903 0.60136914 -0.24363352
vn 0.4994108 0.8055444 0.31888425
vn -0.38526613 -0.19427706 -0.9021233
vn -0.6752346 0.73687166 0.032838173
vn 0.53444004 0.7826436 0.31912827
vn -0.95192754 0.19762176 -0.23405056
vn -0.61415213 0.7824603 0.10282561
vn 0.5224555 0.78492546 0.33306497
vn -0.7981691 -0.28533077 -0.5305774
vn 0.45883787 -0.57134944 -0.68046135
vn 0.29802442 -0.7711058 -0.56265193
vn -0.8379932 -0.22710639 -0.4961754
vn 0.22837292 -0.77268845 -0.59228224
vn -0.86472774 -0.2417804 -0.44021383
vn 0.15522186 -0.8100301 -0.5654709
vn 0.13095824 -0.8840558 -0.44865957
vn -0.94935995 0.21798834 -0.22626732
vn -0.43496937 0.8957926 -0.09141761
vn 0.5441273 0.8386399 -0.024671342
vn -0.95330983 0.16636898 -0.25203505
vn -0.4636366 0.7563141 -0.46155173
vn 0.5049952 0.73178154 -0.45768487
vn -0.7341488 0.6578263 -0.16819683
vn -0.47914118 0.73687077 -0.4769122
vn 0.5011065 0.6976993 -0.51196486
vn -0.4562238 0.7588704 -0.46473178
vn 0.5146879 0.668664 -0.5366423
vn -0.4213135 0.79840106 -0.43017524
vn 0.54708385 0.659107 -0.5160206
vn -0.38287625 0.8489961 -0.36415854
vn 0.59923995 0.659887 -0.45327756
vn -0.34029785 0.89554924 -0.286686
vn 0.6422953 0.6541809 -0.3993796
vn -0.7758024 0.6120158 -0.1535171
vn -0.7881982 0.55974483 -0.25579154
vn -0.79142964 0.5221985 -0.31772292
vn -0.78081936 0.5077737 -0.36398745
vn -0.28253156 0.93179876 -0.22787476
vn 0.6535608 0.6535516 -0.38174418
vn -0.7445763 0.54562265 -0.38458025
vn -0.9369924 0.1933366 -0.29097453
vn -0.9453049 0.14050633 -0.29437497
vn -0.9402528 -0.1031603 -0.32447278
vn -0.96857876 0.13975535 -0.20572683
vn -0.8583683 -0.35340518 -0.37189892
vn -0.9533513 -0.16916433 -0.25000912
vn -0.8592841 -0.4423209 -0.25687155
vn 0.12189267 -0.9497957 -0.28814977
vn 0.07707061 -0.99077976 -0.1114255
vn -0.8847256 -0.45474753 -0.10230001
vn 0.031401534 -0.99870634 0.03999505
vn -0.97437966 0.17337316 -0.1432686
vn -0.97995996 -0.15454486 -0.1256764
vn -0.90466017 -0.4261336 0.00045130317
vn 0.00083682674 -0.977626 0.21034878
vn -0.9920608 -0.11663604 -0.047025986
vn -0.96849054 0.23977831 -0.06732338
vn -0.91973823 -0.37780803 0.10650191
vn -0.002250133 -0.9098471 0.41493762
vn -0.9980444 -0.053064406 0.033040162
vn -0.9186924 -0.31272066 0.24126752
vn 0.022181865 -0.8103759 0.5854902
vn -0.9423222 0.334106 0.02004938
vn -0.99225074 0.04363037 0.11633955
vn -0.87577754 -0.2659187 0.40286577
vn -0.20940068 -0.63399804 0.7444447
vn -0.74511826 0.6634766 -0.06780552
vn -0.89579874 0.43605527 0.08602532
vn -0.67164 0.7406852 -0.016886992
vn -0.95895606 0.1746375 0.22339469
vn -0.82221246 -0.08885457 0.56220245
vn 0.038813192 -0.5176154 0.8547326
vn 0.056411956 -0.27766174 0.95902115
vn 0.068633705 0.00820398 0.9976082
vn -0.7754017 0.28951702 0.56118804
vn 0.15551333 0.2837201 0.9462127
vn -0.82904464 0.5359128 0.1596322
vn -0.43722868 0.8928829 0.107662305
vn -0.8520978 0.41727445 0.31592935
vn -0.64239323 0.503626 0.57766056
vn 0.2208518 0.40433568 0.8875456
vn 0.23982409 0.6739163 0.6987998
vn -0.66063595 0.6196454 0.42379197
vn 0.14600016 0.915747 0.37428778
vn -0.61096555 0.7359966 0.29159936
vn -0.17075987 0.9805916 -0.096339315
vn 0.48143366 0.8600943 0.1686995
vn 0.6636953 0.71294796 -0.2263046
vn 0.8301708 0.55747867 0.005818078
g pm0520_00_RWingSkin_ty0_0
f 3/3/3 2/2/2 1/1/1
f 2/2/2 4/4/4 1/1/1
f 5/5/5 1/1/1 4/4/4
f 6/6/6 1/1/1 5/5/5
f 6/6/6 5/5/5 7/7/7
f 7/7/7 5/5/5 8/8/8
f 4/4/4 2/2/2 9/9/9
f 4/4/4 9/9/9 5/5/5
f 2/2/2 10/10/10 9/9/9
f 5/5/5 11/11/11 8/8/8
f 5/5/5 9/9/9 11/11/11
f 8/8/8 11/11/11 12/12/12
f 9/9/9 10/10/10 13/13/13
f 9/9/9 13/13/13 11/11/11
f 10/10/10 14/14/14 13/13/13
f 11/11/11 15/15/15 12/12/12
f 11/11/11 13/13/13 15/15/15
f 12/12/12 15/15/15 16/16/16
f 13/13/13 14/14/14 17/17/17
f 13/13/13 17/17/17 15/15/15
f 14/14/14 18/18/18 17/17/17
f 15/15/15 19/19/19 16/16/16
f 15/15/15 17/17/17 19/19/19
f 16/16/16 19/19/19 20/20/20
f 17/17/17 18/18/18 21/21/21
f 17/17/17 21/21/21 19/19/19
f 18/18/18 22/22/22 21/21/21
f 19/19/19 23/23/23 20/20/20
f 19/19/19 21/21/21 23/23/23
f 20/20/20 23/23/23 24/24/24
f 21/21/21 22/22/22 25/25/25
f 21/21/21 25/25/25 23/23/23
f 22/22/22 26/26/26 25/25/25
f 23/23/23 27/27/27 24/24/24
f 23/23/23 25/25/25 27/27/27
f 24/24/24 27/27/27 28/28/28
f 25/25/25 26/26/26 29/29/29
f 25/25/25 29/29/29 27/27/27
f 26/26/26 30/30/30 29/29/29
f 27/27/27 31/31/31 28/28/28
f 27/27/27 29/29/29 31/31/31
f 28/28/28 31/31/31 32/32/32
f 29/29/29 30/30/30 33/33/33
f 29/29/29 33/33/33 31/31/31
f 30/30/30 34/34/34 33/33/33
f 31/31/31 35/35/35 32/32/32
f 31/31/31 33/33/33 35/35/35
f 32/32/32 35/35/35 36/36/36
f 33/33/33 34/34/34 37/37/37
f 33/33/33 37/37/37 35/35/35
f 34/34/34 38/38/38 37/37/37
f 35/35/35 39/39/39 36/36/36
f 35/35/35 37/37/37 39/39/39
f 36/36/36 39/39/39 40/40/40
f 37/37/37 38/38/38 41/41/41
f 37/37/37 41/41/41 39/39/39
f 38/38/38 42/42/42 41/41/41
f 39/39/39 43/43/43 40/40/40
f 39/39/39 41/41/41 43/43/43
f 40/40/40 43/43/43 44/44/44
f 41/41/41 42/42/42 45/45/45
f 41/41/41 45/45/45 43/43/43
f 42/42/42 46/46/46 45/45/45
f 43/43/43 47/47/47 44/44/44
f 43/43/43 45/45/45 47/47/47
f 44/44/44 47/47/47 48/48/48
f 45/45/45 46/46/46 49/49/49
f 45/45/45 49/49/49 47/47/47
f 46/46/46 50/50/50 49/49/49
f 47/47/47 51/51/51 48/48/48
f 47/47/47 49/49/49 51/51/51
f 49/49/49 50/50/50 51/51/51
f 48/48/48 51/51/51 52/52/52
f 50/50/50 53/53/53 51/51/51
f 51/51/51 54/54/54 52/52/52
f 51/51/51 53/53/53 54/54/54
f 52/52/52 54/54/54 55/55/55
f 53/53/53 56/56/56 54/54/54
f 54/54/54 57/57/57 55/55/55
f 54/54/54 56/56/56 57/57/57
f 55/55/55 57/57/57 58/58/58
f 56/56/56 59/59/59 57/57/57
f 57/57/57 60/60/60 58/58/58
f 57/57/57 59/59/59 60/60/60
f 59/59/59 61/61/61 60/60/60
f 64/64/64 63/63/63 62/62/62
f 62/62/62 63/63/63 65/65/65
f 63/63/63 66/66/66 65/65/65
f 69/69/69 68/68/68 67/67/67
f 70/70/70 69/69/69 67/67/67
f 67/67/67 68/68/68 71/71/71
f 70/70/70 67/67/67 72/72/72
f 73/73/73 70/70/70 72/72/72
f 74/74/74 67/67/67 71/71/71
f 72/72/72 67/67/67 74/74/74
f 73/73/73 72/72/72 75/75/75
f 76/76/76 73/73/73 75/75/75
f 74/74/74 71/71/71 77/77/77
f 77/77/77 71/71/71 78/78/78
f 79/79/79 77/77/77 78/78/78
f 80/80/80 77/77/77 79/79/79
f 74/74/74 77/77/77 80/80/80
f 81/81/81 80/80/80 79/79/79
f 82/82/82 80/80/80 81/81/81
f 83/83/83 82/82/82 81/81/81
f 83/83/83 84/84/84 82/82/82
f 85/85/85 72/72/72 74/74/74
f 85/85/85 74/74/74 80/80/80
f 75/75/75 72/72/72 85/85/85
f 85/85/85 80/80/80 82/82/82
f 76/76/76 75/75/75 86/86/86
f 87/87/87 76/76/76 86/86/86
f 88/88/88 75/75/75 85/85/85
f 88/88/88 85/85/85 82/82/82
f 87/87/87 86/86/86 89/89/89
f 90/90/90 87/87/87 89/89/89
f 91/91/91 86/86/86 75/75/75
f 75/75/75 88/88/88 91/91/91
f 89/89/89 86/86/86 91/91/91
f 90/90/90 89/89/89 92/92/92
f 93/93/93 90/90/90 92/92/92
f 93/93/93 92/92/92 94/94/94
f 95/95/95 93/93/93 94/94/94
f 95/95/95 94/94/94 96/96/96
f 97/97/97 95/95/95 96/96/96
f 97/97/97 96/96/96 98/98/98
f 99/99/99 97/97/97 98/98/98
f 99/99/99 98/98/98 100/100/100
f 101/101/101 99/99/99 100/100/100
f 102/102/102 98/98/98 96/96/96
f 100/100/100 98/98/98 102/102/102
f 103/103/103 96/96/96 94/94/94
f 103/103/103 102/102/102 96/96/96
f 104/104/104 94/94/94 92/92/92
f 104/104/104 103/103/103 94/94/94
f 105/105/105 92/92/92 89/89/89
f 105/105/105 104/104/104 92/92/92
f 100/100/100 106/106/106 101/101/101
f 106/106/106 107/107/107 101/101/101
f 108/108/108 105/105/105 89/89/89
f 108/108/108 89/89/89 91/91/91
f 108/108/108 91/91/91 109/109/109
f 88/88/88 109/109/109 91/91/91
f 108/108/108 110/110/110 105/105/105
f 110/110/110 108/108/108 109/109/109
f 88/88/88 111/111/111 109/109/109
f 110/110/110 109/109/109 111/111/111
f 88/88/88 82/82/82 111/111/111
f 105/105/105 112/112/112 104/104/104
f 110/110/110 112/112/112 105/105/105
f 82/82/82 113/113/113 111/111/111
f 84/84/84 113/113/113 82/82/82
f 114/114/114 110/110/110 111/111/111
f 114/114/114 111/111/111 113/113/113
f 110/110/110 114/114/114 112/112/112
f 115/115/115 113/113/113 84/84/84
f 115/115/115 114/114/114 113/113/113
f 116/116/116 115/115/115 84/84/84
f 116/116/116 117/117/117 115/115/115
f 117/117/117 118/118/118 115/115/115
f 115/115/115 118/118/118 114/114/114
f 117/117/117 119/119/119 118/118/118
f 112/112/112 120/120/120 104/104/104
f 104/104/104 120/120/120 103/103/103
f 114/114/114 121/121/121 112/112/112
f 118/118/118 121/121/121 114/114/114
f 112/112/112 121/121/121 120/120/120
f 119/119/119 122/122/122 118/118/118
f 122/122/122 119/119/119 123/123/123
f 121/121/121 118/118/118 124/124/124
f 121/121/121 124/124/124 120/120/120
f 118/118/118 122/122/122 124/124/124
f 120/120/120 125/125/125 103/103/103
f 120/120/120 124/124/124 125/125/125
f 103/103/103 125/125/125 102/102/102
f 126/126/126 122/122/122 123/123/123
f 124/124/124 122/122/122 126/126/126
f 123/123/123 127/127/127 126/126/126
f 124/124/124 128/128/128 125/125/125
f 128/128/128 124/124/124 126/126/126
f 127/127/127 129/129/129 126/126/126
f 126/126/126 129/129/129 128/128/128
f 127/127/127 130/130/130 129/129/129
f 125/125/125 131/131/131 102/102/102
f 125/125/125 128/128/128 131/131/131
f 129/129/129 132/132/132 128/128/128
f 128/128/128 132/132/132 131/131/131
f 130/130/130 133/133/133 129/129/129
f 129/129/129 133/133/133 132/132/132
f 130/130/130 134/134/134 133/133/133
f 102/102/102 131/131/131 135/135/135
f 135/135/135 100/100/100 102/102/102
f 131/131/131 132/132/132 136/136/136
f 131/131/131 136/136/136 135/135/135
f 135/135/135 137/137/137 100/100/100
f 135/135/135 136/136/136 137/137/137
f 137/137/137 106/106/106 100/100/100
f 133/133/133 138/138/138 132/132/132
f 132/132/132 138/138/138 136/136/136
f 133/133/133 134/134/134 139/139/139
f 138/138/138 133/133/133 139/139/139
f 134/134/134 140/140/140 139/139/139
f 140/140/140 141/141/141 139/139/139
f 141/141/141 142/142/142 139/139/139
f 142/142/142 143/143/143 139/139/139
f 138/138/138 139/139/139 143/143/143
f 142/142/142 144/144/144 143/143/143
f 136/136/136 145/145/145 137/137/137
f 136/136/136 138/138/138 145/145/145
f 137/137/137 146/146/146 106/106/106
f 137/137/137 145/145/145 146/146/146
f 147/147/147 138/138/138 143/143/143
f 138/138/138 147/147/147 145/145/145
f 144/144/144 148/148/148 143/143/143
f 147/147/147 143/143/143 148/148/148
f 144/144/144 149/149/149 148/148/148
f 149/149/149 150/150/150 148/148/148
f 148/148/148 150/150/150 151/151/151
f 151/151/151 147/147/147 148/148/148
f 151/151/151 150/150/150 152/152/152
f 145/145/145 147/147/147 153/153/153
f 147/147/147 151/151/151 153/153/153
f 145/145/145 153/153/153 146/146/146
f 153/153/153 151/151/151 152/152/152
f 146/146/146 153/153/153 152/152/152
f 146/146/146 154/154/154 106/106/106
f 146/146/146 152/152/152 154/154/154
f 106/106/106 154/154/154 107/107/107
f 152/152/152 155/155/155 154/154/154
f 154/154/154 156/156/156 107/107/107
f 155/155/155 157/157/157 154/154/154
f 157/157/157 156/156/156 154/154/154
