g pm0519_00_LCloseWingSkin
v 0.040932618 0.11277602 -0.15208396
v 0.044471376 0.0968844 -0.13423127
v 0.04315132 0.10576739 -0.15137304
v 0.042428818 0.10625879 -0.13371335
v 0.04579144 0.08800142 -0.117089495
v 0.042875815 0.11721582 -0.14766955
v 0.04392502 0.09974157 -0.11534273
v 0.046473313 0.0760306 -0.09765849
v 0.04561637 0.11390933 -0.13120456
v 0.0453576 0.09392561 -0.098190926
v 0.04715519 0.06405978 -0.078227475
v 0.05140268 0.11859103 -0.1332282
v 0.0465085 0.120307595 -0.1493145
v 0.056296863 0.116874464 -0.117141895
v 0.048356928 0.11060283 -0.11473955
v 0.051173706 0.10768035 -0.09955404
v 0.061379176 0.11645635 -0.1003198
v 0.046790175 0.08810964 -0.08103912
v 0.049148597 0.05306793 -0.048779797
v 0.053990487 0.10475786 -0.084368534
v 0.06646148 0.116038255 -0.08349771
v 0.04896049 0.08127121 -0.055410326
v 0.053190745 0.047819365 -0.020372242
v 0.054389205 0.103414506 -0.061599873
v 0.06419479 0.11992421 -0.066417255
v 0.051693715 0.079758815 -0.03099114
v 0.05617539 0.049918097 0.004947605
v 0.055584054 0.10578208 -0.040804744
v 0.06408073 0.12721379 -0.04992885
v 0.054902785 0.08348505 -0.00808167
v 0.062165447 0.058808226 0.03151014
v 0.057474945 0.111693196 -0.020969415
v 0.06397827 0.13648935 -0.03292819
v 0.059038784 0.0918577 0.013935907
v 0.07055558 0.075820096 0.056531906
v 0.059652805 0.119911894 -0.0022067332
v 0.06377804 0.14564054 -0.0168806
v 0.06400323 0.10477421 0.033561375
v 0.076894656 0.100864 0.07359749
v 0.06203522 0.12972654 0.014118371
v 0.06425414 0.15360166 -0.002676189
v 0.068988465 0.12096522 0.04769903
v 0.078340255 0.123920105 0.0786408
v 0.06510667 0.14089249 0.027164655
v 0.06588106 0.16090761 0.009421853
v 0.07228789 0.13633746 0.056767736
v 0.06810901 0.15178557 0.03655128
v 0.06827569 0.16787891 0.019870881
v 0.07644207 0.15043613 0.06339159
v 0.08021896 0.15048619 0.075612694
v 0.08019837 0.16379324 0.06828282
v 0.07803896 0.1757374 0.05153585
v 0.07124832 0.16050363 0.043318536
v 0.07063215 0.17310667 0.028567053
v 0.0769385 0.18269879 0.0314965
v 0.044502195 0.11493476 -0.15741697
v 0.04315132 0.10576739 -0.15137304
v 0.045980897 0.107712135 -0.15458754
v 0.040932618 0.11277602 -0.15208396
v 0.045226082 0.1199341 -0.15415263
v 0.042875815 0.11721582 -0.14766955
v 0.0465085 0.120307595 -0.1493145
v 0.049685992 0.119075954 -0.15207058
v 0.05627096 0.11672623 -0.1356929
v 0.05140268 0.11859103 -0.1332282
v 0.04959439 0.11498599 -0.15714039
v 0.044502195 0.11493476 -0.15741697
v 0.045980897 0.107712135 -0.15458754
v 0.06285593 0.11437649 -0.1193152
v 0.056296863 0.116874464 -0.117141895
v 0.057266492 0.10855203 -0.13981038
v 0.06905145 0.11405728 -0.10258707
v 0.061379176 0.11645635 -0.1003198
v 0.05042036 0.09924679 -0.13771792
v 0.04315132 0.10576739 -0.15137304
v 0.044471376 0.0968844 -0.13423127
v 0.06493859 0.10211807 -0.12248037
v 0.054859824 0.09078146 -0.12084831
v 0.04579144 0.08800142 -0.117089495
v 0.046473313 0.0760306 -0.09765849
v 0.075246975 0.11373807 -0.085858926
v 0.06646148 0.116038255 -0.08349771
v 0.07221301 0.097960696 -0.10431455
v 0.058927324 0.0822901 -0.10254911
v 0.06299483 0.07379874 -0.08424991
v 0.04715519 0.06405978 -0.078227475
v 0.079487436 0.09380334 -0.08614875
v 0.06768836 0.06635399 -0.059816245
v 0.049148597 0.05306793 -0.048779797
v 0.053190745 0.047819365 -0.020372242
v 0.08279651 0.08402055 -0.06575435
v 0.07326371 0.061512146 -0.032778393
v 0.05617539 0.049918097 0.004947605
v 0.076830365 0.06174825 -0.0065788007
v 0.062165447 0.058808226 0.03151014
v 0.08235785 0.070614286 0.021824813
v 0.07055558 0.075820096 0.056531906
v 0.09536959 0.08518537 -0.0173351
v 0.089591846 0.08152984 -0.042045858
v 0.09017769 0.09808008 -0.070105255
v 0.09773408 0.10169339 -0.050240315
v 0.09005387 0.1156057 -0.07323374
v 0.09745003 0.12212144 -0.05744516
v 0.084316224 0.12497995 -0.07326175
v 0.10345635 0.10895399 -0.028645655
v 0.10242246 0.1318984 -0.038995504
v 0.07400267 0.13064231 -0.07044368
v 0.06419479 0.11992421 -0.066417255
v 0.08874908 0.13803516 -0.061440982
v 0.07526151 0.14501353 -0.059358466
v 0.06408073 0.12721379 -0.04992885
v 0.0902979 0.15088116 -0.045758728
v 0.0732177 0.15903686 -0.043841675
v 0.06397827 0.13648935 -0.03292819
v 0.10373355 0.14297855 -0.020200329
v 0.10625721 0.11975869 -0.0070781875
v 0.09050682 0.1620382 -0.029471168
v 0.072460696 0.16970144 -0.02949868
v 0.06377804 0.14564054 -0.0168806
v 0.10194131 0.15361424 -0.002758069
v 0.09921026 0.09572986 0.0073764655
v 0.089346305 0.17078981 -0.014254627
v 0.0724833 0.17594743 -0.01658129
v 0.06425414 0.15360166 -0.002676189
v 0.087702796 0.17589973 -0.00033052682
v 0.07333398 0.18070568 -0.004281909
v 0.06588106 0.16090761 0.009421853
v 0.10624524 0.13369924 0.012324095
v 0.088548735 0.08823286 0.049498104
v 0.07478999 0.18394142 0.009119074
v 0.06827569 0.16787891 0.019870881
v 0.08642801 0.18099616 0.013553998
v 0.09970823 0.16315757 0.012393796
v 0.101437636 0.11187459 0.030436277
v 0.09199829 0.10901823 0.064382106
v 0.076894656 0.100864 0.07359749
v 0.0769385 0.18269879 0.0314965
v 0.07063215 0.17310667 0.028567053
v 0.09616444 0.17210385 0.02514117
v 0.103952274 0.14811778 0.028547661
v 0.10077006 0.12862004 0.046540666
v 0.08598427 0.12453554 0.079242826
v 0.078340255 0.123920105 0.0786408
v 0.08021896 0.15048619 0.075612694
v 0.10022974 0.15918909 0.040302616
v 0.09242555 0.17849834 0.030745687
v 0.09546492 0.13224182 0.070329
v 0.08957563 0.15137248 0.076311834
v 0.08019837 0.16379324 0.06828282
v 0.09938642 0.14590353 0.055917386
v 0.089370266 0.16522829 0.06794477
v 0.07803896 0.1757374 0.05153585
v 0.095807776 0.15800168 0.062811546
v 0.09490608 0.1700151 0.04924573
v 0.08747708 0.17629287 0.052393015
v 0.08625678 0.18285972 0.03210797
vt 0.22219622 0.50561464
vt 0.19609773 0.538749
vt 0.2079333 0.50561726
vt 0.21460527 0.5412165
vt 0.18426216 0.5718807
vt 0.23133695 0.51508784
vt 0.20701432 0.5768183
vt 0.15668541 0.5973175
vt 0.23063809 0.54743767
vt 0.19132936 0.6062236
vt 0.12910867 0.62275434
vt 0.24569863 0.54561424
vt 0.24053335 0.51284504
vt 0.2508639 0.5783834
vt 0.22993922 0.57978743
vt 0.22319907 0.61116034
vt 0.25267845 0.61673254
vt 0.1756444 0.6356289
vt 0.08145845 0.65991825
vt 0.21645892 0.64253324
vt 0.254493 0.6550817
vt 0.1395979 0.67551136
vt 0.04164958 0.70616704
vt 0.18966413 0.68356335
vt 0.23104489 0.69108677
vt 0.11078823 0.7178464
vt 0.019045472 0.7562183
vt 0.16856909 0.7242246
vt 0.21781206 0.7293406
vt 0.09331477 0.7643215
vt 0.008914471 0.8177693
vt 0.15584993 0.76727384
vt 0.20952749 0.77031785
vt 0.086863875 0.81508225
vt 0.01781106 0.8859569
vt 0.15102482 0.81118494
vt 0.20636523 0.8087766
vt 0.093432546 0.8663808
vt 0.052144527 0.9444322
vt 0.15474117 0.8522012
vt 0.2080698 0.8427161
vt 0.11302841 0.9099627
vt 0.09395182 0.9743308
vt 0.16666055 0.8879863
vt 0.21434009 0.8723596
vt 0.13649547 0.94154567
vt 0.18266106 0.91564876
vt 0.22465849 0.8987409
vt 0.15923905 0.9671173
vt 0.14947164 0.99140936
vt 0.18155682 0.98833096
vt 0.22120035 0.96550137
vt 0.19644356 0.93571866
vt 0.23502159 0.91917646
vt 0.26011443 0.9326678
vt 0.22887087 0.49424854
vt 0.2079333 0.50561726
vt 0.21118951 0.49611503
vt 0.22219622 0.50561464
vt 0.23948097 0.5021492
vt 0.23133695 0.51508784
vt 0.24053335 0.51284504
vt 0.24767244 0.50870955
vt 0.2567454 0.5422907
vt 0.24569863 0.54561424
vt 0.25301576 0.49780652
vt 0.24749136 0.4902257
vt 0.26634526 0.49045226
vt 0.26581836 0.5758719
vt 0.2508639 0.5783834
vt 0.27142614 0.53114384
vt 0.27179486 0.61383104
vt 0.25267845 0.61673254
vt 0.2913568 0.51936793
vt 0.27587795 0.49001464
vt 0.30501735 0.5134499
vt 0.28983653 0.56448114
vt 0.31636834 0.54828364
vt 0.33415675 0.53688514
vt 0.37274402 0.558354
vt 0.27777135 0.65179026
vt 0.254493 0.6550817
vt 0.3083834 0.599234
vt 0.346276 0.57467353
vt 0.37618363 0.6010634
vt 0.4113313 0.57982284
vt 0.32693028 0.6339869
vt 0.41740465 0.634882
vt 0.46834612 0.61734223
vt 0.51311564 0.6675634
vt 0.37161565 0.6562358
vt 0.4572376 0.67898774
vt 0.5414829 0.72084486
vt 0.48714614 0.7273342
vt 0.55318546 0.7881398
vt 0.5011163 0.79180336
vt 0.54087234 0.8634749
vt 0.42629683 0.7426072
vt 0.40440583 0.69545865
vt 0.33963203 0.6693602
vt 0.36032844 0.7072909
vt 0.30578625 0.6838717
vt 0.3200426 0.7179319
vt 0.28449917 0.6916806
vt 0.37494564 0.75109047
vt 0.32943797 0.75819653
vt 0.26005518 0.70038235
vt 0.23104489 0.69108677
vt 0.28665352 0.72781265
vt 0.2595364 0.7383145
vt 0.21781206 0.7293406
vt 0.2883078 0.7662272
vt 0.25600994 0.7781263
vt 0.20952749 0.77031785
vt 0.33239043 0.7991811
vt 0.38070238 0.797957
vt 0.28912663 0.8021923
vt 0.25562382 0.8098285
vt 0.20636523 0.8087766
vt 0.3294592 0.8381524
vt 0.43501103 0.7968921
vt 0.28727973 0.8342279
vt 0.25518775 0.83522946
vt 0.2080698 0.8427161
vt 0.28544307 0.86232954
vt 0.25675642 0.8592468
vt 0.21434009 0.8723596
vt 0.37504613 0.8443484
vt 0.49294055 0.8646208
vt 0.25888312 0.88541216
vt 0.22465849 0.8987409
vt 0.2820338 0.89113873
vt 0.32252455 0.8731748
vt 0.42848063 0.8540293
vt 0.46538138 0.91370434
vt 0.5017271 0.930135
vt 0.26011443 0.9326678
vt 0.23502159 0.91917646
vt 0.31078517 0.90439695
vt 0.3618052 0.8856987
vt 0.41174698 0.89844316
vt 0.4496013 0.95942
vt 0.45916831 0.9707204
vt 0.395046 0.99217814
vt 0.34846866 0.9163147
vt 0.2976755 0.9204916
vt 0.4238602 0.94443184
vt 0.391675 0.97473973
vt 0.35587668 0.99052876
vt 0.38638318 0.9304354
vt 0.3578372 0.97248465
vt 0.30544448 0.9706744
vt 0.3683468 0.9535084
vt 0.33283567 0.94213414
vt 0.31861234 0.9576627
vt 0.28206515 0.9286434
vn -0.9060696 0.08537806 -0.41442534
vn -0.6243766 -0.64017546 -0.44758156
vn -0.63545686 -0.48138663 -0.6037064
vn -0.99377006 0.029395893 -0.10750277
vn -0.61052746 -0.69427824 -0.3810957
vn -0.65938526 0.73940945 -0.13595876
vn -0.9993999 0.034477208 -0.0033505308
vn -0.60178006 -0.7108674 -0.36404446
vn -0.7449353 0.66053784 0.09360217
vn -0.99874663 0.049743164 0.0055503715
vn -0.5817145 -0.74835193 -0.31871256
vn -0.14161661 0.98990214 0.006191755
vn -0.22197884 0.9611488 -0.1640682
vn -0.13396566 0.99022406 0.038850445
vn -0.7534902 0.6389009 0.15510692
vn -0.7801476 0.6161152 0.10849839
vn -0.22382283 0.9717192 -0.075266935
vn -0.9996779 0.018346101 -0.017534146
vn -0.5494012 -0.81239533 -0.19537702
vn -0.854267 0.5197861 0.0070860363
vn -0.4310301 0.84527016 -0.31580287
vn -0.9981938 -0.060075928 -0.000394644
vn -0.50980526 -0.86023843 -0.009407358
vn -0.92556894 0.37709638 -0.033473436
vn -0.7248374 0.6331265 -0.27159083
vn -0.990006 -0.13018921 0.054210983
vn -0.45959428 -0.857454 0.23139954
vn -0.9672348 0.2518625 -0.031971198
vn -0.8236023 0.49795678 -0.27151084
vn -0.9743334 -0.16911523 0.14857471
vn -0.39326137 -0.7738399 0.49650514
vn -0.98389775 0.17873187 1.8823761E-05
vn -0.8745486 0.42699668 -0.22986625
vn -0.9503367 -0.16579455 0.26338637
vn -0.31103608 -0.5899549 0.745124
vn -0.9883824 0.14093192 0.056906477
vn -0.8991465 0.4069878 -0.1609239
vn -0.91767734 -0.12118216 0.37839553
vn -0.18369229 -0.28848422 0.93969893
vn -0.98328304 0.13462535 0.12259893
vn -0.9063871 0.41498527 -0.07905521
vn -0.89009076 -0.027476696 0.45495436
vn -0.45516473 -0.018757645 0.8902096
vn -0.97074294 0.15633602 0.18225567
vn -0.8947049 0.44658566 0.008032616
vn -0.8744519 0.09893622 0.47491637
vn -0.9469807 0.22335255 0.23095697
vn -0.86532396 0.48886704 0.110559985
vn -0.7993799 0.2981078 0.5216546
vn -0.47425345 0.2974366 0.8286224
vn -0.50082034 0.5311299 0.6834325
vn -0.5108097 0.7316089 0.45146626
vn -0.86568695 0.38042897 0.325361
vn -0.8294245 0.5214712 0.20030671
vn -0.45252872 0.8678005 0.20528091
vn -0.3375483 0.1752567 -0.92484933
vn -0.63545686 -0.48138663 -0.6037064
vn -0.070579864 -0.4278918 -0.90107006
vn -0.9060696 0.08537806 -0.41442534
vn -0.28946465 0.87485385 -0.38838238
vn -0.65938526 0.73940945 -0.13595876
vn -0.22197884 0.9611488 -0.1640682
vn 0.21339197 0.860474 -0.4626535
vn 0.57383233 0.7523145 -0.32363454
vn -0.14161661 0.98990214 0.006191755
vn 0.35963768 0.108966455 -0.9267077
vn -0.3375483 0.1752567 -0.92484933
vn -0.070579864 -0.4278918 -0.90107006
vn 0.663828 0.6902554 -0.28788853
vn -0.13396566 0.99022406 0.038850445
vn 0.74643314 -0.06997946 -0.6617707
vn 0.649349 0.6447413 -0.40330476
vn -0.22382283 0.9717192 -0.075266935
vn 0.21023026 -0.67299074 -0.70914507
vn -0.63545686 -0.48138663 -0.6037064
vn -0.6243766 -0.64017546 -0.44758156
vn 0.8405834 -0.1339457 -0.52486014
vn 0.32007313 -0.7450561 -0.5851878
vn -0.61052746 -0.69427824 -0.3810957
vn -0.60178006 -0.7108674 -0.36404446
vn 0.60295135 0.49354368 -0.62678874
vn -0.4310301 0.84527016 -0.31580287
vn 0.8326251 -0.18656693 -0.5214674
vn 0.35936323 -0.7558805 -0.54726857
vn 0.374431 -0.7912673 -0.48342285
vn -0.5817145 -0.74835193 -0.31871256
vn 0.80537254 -0.3017302 -0.5102293
vn 0.39639214 -0.85469776 -0.3352091
vn -0.5494012 -0.81239533 -0.19537702
vn -0.50980526 -0.86023843 -0.009407358
vn 0.7760954 -0.51055115 -0.37015337
vn 0.44987866 -0.88137156 -0.14419934
vn -0.45959428 -0.857454 0.23139954
vn 0.52874756 -0.84595466 0.0691864
vn -0.39326137 -0.7738399 0.49650514
vn 0.6056053 -0.7411214 0.28979522
vn -0.31103608 -0.5899549 0.745124
vn 0.8697268 -0.49003172 -0.058687955
vn 0.81378585 -0.5391159 -0.21704054
vn 0.8641206 -0.22887474 -0.44823194
vn 0.9228354 -0.22044227 -0.3158798
vn 0.7652676 0.24087757 -0.5969451
vn 0.8487738 0.19575222 -0.4911864
vn 0.42506772 0.5789246 -0.6958188
vn 0.97253674 -0.1556217 -0.17307277
vn 0.9066442 0.23492326 -0.35043862
vn -0.33567438 0.77127403 -0.54079485
vn -0.7248374 0.6331265 -0.27159083
vn 0.44953278 0.5841831 -0.67575914
vn -0.35732958 0.72187304 -0.5926339
vn -0.8236023 0.49795678 -0.27151084
vn 0.4982152 0.6497453 -0.5741191
vn -0.3718491 0.745666 -0.5529108
vn -0.8745486 0.42699668 -0.22986625
vn 0.9211462 0.3136291 -0.23049137
vn 0.9963684 -0.06185075 -0.058518413
vn 0.51835054 0.728857 -0.4473034
vn -0.389009 0.8028414 -0.4517938
vn -0.8991465 0.4069878 -0.1609239
vn 0.9066145 0.39615437 -0.14529966
vn 0.918402 -0.38768855 0.07896359
vn 0.5086731 0.79643244 -0.32702768
vn -0.38867143 0.86211276 -0.3251095
vn -0.9063871 0.41498527 -0.07905521
vn 0.49301085 0.8453163 -0.2058654
vn -0.3573361 0.9159892 -0.18241355
vn -0.8947049 0.44658566 0.008032616
vn 0.9986077 0.048060447 0.021749426
vn 0.6665089 -0.55280244 0.5001753
vn -0.2560942 0.96645445 0.0195339
vn -0.86532396 0.48886704 0.110559985
vn 0.4779625 0.87720174 -0.045487363
vn 0.8729725 0.48062983 -0.08315081
vn 0.9478551 -0.24976455 0.19796069
vn 0.6808138 -0.26228052 0.6838871
vn -0.18369229 -0.28848422 0.93969893
vn -0.45252872 0.8678005 0.20528091
vn -0.8294245 0.5214712 0.20030671
vn 0.80932176 0.5872531 -0.011490603
vn 0.9813938 0.17192258 0.08549106
vn 0.94095224 -0.066853546 0.33187276
vn 0.3749531 -0.109729834 0.9205268
vn -0.45516473 -0.018757645 0.8902096
vn -0.47425345 0.2974366 0.8286224
vn 0.93282056 0.33135152 0.14160495
vn 0.65393037 0.7548093 0.051361453
vn 0.8091461 0.016205644 0.587384
vn 0.4873771 0.2531306 0.83569646
vn -0.50082034 0.5311299 0.6834325
vn 0.9293466 0.11988033 0.34920427
vn 0.3455836 0.5924148 0.7277477
vn -0.5108097 0.7316089 0.45146626
vn 0.7830756 0.30948043 0.5394576
vn 0.77274585 0.5708661 0.27744496
vn 0.27637562 0.85269594 0.44331267
vn 0.19912443 0.9728161 0.11823029
g pm0519_00_LCloseWingSkin_0
f 3/3/3 2/2/2 1/1/1
f 2/2/2 4/4/4 1/1/1
f 2/2/2 5/5/5 4/4/4
f 1/1/1 4/4/4 6/6/6
f 5/5/5 7/7/7 4/4/4
f 5/5/5 8/8/8 7/7/7
f 4/4/4 9/9/9 6/6/6
f 4/4/4 7/7/7 9/9/9
f 8/8/8 10/10/10 7/7/7
f 8/8/8 11/11/11 10/10/10
f 6/6/6 9/9/9 12/12/12
f 13/13/13 6/6/6 12/12/12
f 12/12/12 9/9/9 14/14/14
f 7/7/7 15/15/15 9/9/9
f 9/9/9 15/15/15 14/14/14
f 7/7/7 10/10/10 15/15/15
f 15/15/15 16/16/16 14/14/14
f 10/10/10 16/16/16 15/15/15
f 16/16/16 17/17/17 14/14/14
f 11/11/11 18/18/18 10/10/10
f 10/10/10 18/18/18 16/16/16
f 11/11/11 19/19/19 18/18/18
f 16/16/16 20/20/20 17/17/17
f 18/18/18 20/20/20 16/16/16
f 20/20/20 21/21/21 17/17/17
f 19/19/19 22/22/22 18/18/18
f 18/18/18 22/22/22 20/20/20
f 19/19/19 23/23/23 22/22/22
f 20/20/20 24/24/24 21/21/21
f 22/22/22 24/24/24 20/20/20
f 24/24/24 25/25/25 21/21/21
f 23/23/23 26/26/26 22/22/22
f 22/22/22 26/26/26 24/24/24
f 23/23/23 27/27/27 26/26/26
f 24/24/24 28/28/28 25/25/25
f 26/26/26 28/28/28 24/24/24
f 28/28/28 29/29/29 25/25/25
f 27/27/27 30/30/30 26/26/26
f 26/26/26 30/30/30 28/28/28
f 27/27/27 31/31/31 30/30/30
f 28/28/28 32/32/32 29/29/29
f 30/30/30 32/32/32 28/28/28
f 32/32/32 33/33/33 29/29/29
f 31/31/31 34/34/34 30/30/30
f 30/30/30 34/34/34 32/32/32
f 31/31/31 35/35/35 34/34/34
f 32/32/32 36/36/36 33/33/33
f 34/34/34 36/36/36 32/32/32
f 36/36/36 37/37/37 33/33/33
f 35/35/35 38/38/38 34/34/34
f 34/34/34 38/38/38 36/36/36
f 35/35/35 39/39/39 38/38/38
f 36/36/36 40/40/40 37/37/37
f 38/38/38 40/40/40 36/36/36
f 40/40/40 41/41/41 37/37/37
f 39/39/39 42/42/42 38/38/38
f 38/38/38 42/42/42 40/40/40
f 39/39/39 43/43/43 42/42/42
f 40/40/40 44/44/44 41/41/41
f 42/42/42 44/44/44 40/40/40
f 44/44/44 45/45/45 41/41/41
f 43/43/43 46/46/46 42/42/42
f 42/42/42 46/46/46 44/44/44
f 44/44/44 47/47/47 45/45/45
f 46/46/46 47/47/47 44/44/44
f 47/47/47 48/48/48 45/45/45
f 46/46/46 43/43/43 49/49/49
f 46/46/46 49/49/49 47/47/47
f 43/43/43 50/50/50 49/49/49
f 50/50/50 51/51/51 49/49/49
f 49/49/49 51/51/51 52/52/52
f 47/47/47 53/53/53 48/48/48
f 49/49/49 53/53/53 47/47/47
f 53/53/53 49/49/49 52/52/52
f 53/53/53 54/54/54 48/48/48
f 53/53/53 52/52/52 54/54/54
f 52/52/52 55/55/55 54/54/54
f 58/58/58 57/57/57 56/56/56
f 57/57/57 59/59/59 56/56/56
f 56/56/56 59/59/59 60/60/60
f 59/59/59 61/61/61 60/60/60
f 60/60/60 61/61/61 62/62/62
f 60/60/60 62/62/62 63/63/63
f 63/63/63 62/62/62 64/64/64
f 62/62/62 65/65/65 64/64/64
f 60/60/60 63/63/63 66/66/66
f 63/63/63 64/64/64 66/66/66
f 67/67/67 60/60/60 66/66/66
f 68/68/68 67/67/67 66/66/66
f 64/64/64 65/65/65 69/69/69
f 65/65/65 70/70/70 69/69/69
f 64/64/64 71/71/71 66/66/66
f 66/66/66 71/71/71 68/68/68
f 64/64/64 69/69/69 71/71/71
f 69/69/69 70/70/70 72/72/72
f 70/70/70 73/73/73 72/72/72
f 71/71/71 74/74/74 68/68/68
f 68/68/68 74/74/74 75/75/75
f 74/74/74 76/76/76 75/75/75
f 69/69/69 77/77/77 71/71/71
f 71/71/71 77/77/77 74/74/74
f 77/77/77 69/69/69 72/72/72
f 74/74/74 78/78/78 76/76/76
f 77/77/77 78/78/78 74/74/74
f 78/78/78 79/79/79 76/76/76
f 80/80/80 79/79/79 78/78/78
f 72/72/72 73/73/73 81/81/81
f 73/73/73 82/82/82 81/81/81
f 83/83/83 77/77/77 72/72/72
f 78/78/78 77/77/77 83/83/83
f 83/83/83 72/72/72 81/81/81
f 84/84/84 80/80/80 78/78/78
f 84/84/84 78/78/78 83/83/83
f 84/84/84 85/85/85 80/80/80
f 85/85/85 86/86/86 80/80/80
f 84/84/84 83/83/83 87/87/87
f 87/87/87 83/83/83 81/81/81
f 85/85/85 84/84/84 87/87/87
f 85/85/85 88/88/88 86/86/86
f 88/88/88 89/89/89 86/86/86
f 90/90/90 89/89/89 88/88/88
f 91/91/91 88/88/88 85/85/85
f 87/87/87 91/91/91 85/85/85
f 92/92/92 90/90/90 88/88/88
f 92/92/92 88/88/88 91/91/91
f 93/93/93 90/90/90 92/92/92
f 94/94/94 93/93/93 92/92/92
f 93/93/93 94/94/94 95/95/95
f 94/94/94 96/96/96 95/95/95
f 97/97/97 95/95/95 96/96/96
f 94/94/94 92/92/92 98/98/98
f 94/94/94 98/98/98 96/96/96
f 99/99/99 92/92/92 91/91/91
f 92/92/92 99/99/99 98/98/98
f 100/100/100 91/91/91 87/87/87
f 99/99/99 91/91/91 101/101/101
f 91/91/91 100/100/100 101/101/101
f 102/102/102 100/100/100 87/87/87
f 81/81/81 102/102/102 87/87/87
f 100/100/100 102/102/102 103/103/103
f 101/101/101 100/100/100 103/103/103
f 104/104/104 102/102/102 81/81/81
f 103/103/103 102/102/102 104/104/104
f 81/81/81 82/82/82 104/104/104
f 99/99/99 101/101/101 105/105/105
f 98/98/98 99/99/99 105/105/105
f 101/101/101 103/103/103 106/106/106
f 105/105/105 101/101/101 106/106/106
f 82/82/82 107/107/107 104/104/104
f 82/82/82 108/108/108 107/107/107
f 109/109/109 103/103/103 104/104/104
f 104/104/104 107/107/107 109/109/109
f 106/106/106 103/103/103 109/109/109
f 107/107/107 108/108/108 110/110/110
f 107/107/107 110/110/110 109/109/109
f 108/108/108 111/111/111 110/110/110
f 112/112/112 106/106/106 109/109/109
f 109/109/109 110/110/110 112/112/112
f 110/110/110 111/111/111 113/113/113
f 110/110/110 113/113/113 112/112/112
f 111/111/111 114/114/114 113/113/113
f 105/105/105 106/106/106 115/115/115
f 115/115/115 106/106/106 112/112/112
f 98/98/98 105/105/105 116/116/116
f 116/116/116 105/105/105 115/115/115
f 112/112/112 113/113/113 117/117/117
f 117/117/117 115/115/115 112/112/112
f 113/113/113 114/114/114 118/118/118
f 113/113/113 118/118/118 117/117/117
f 114/114/114 119/119/119 118/118/118
f 120/120/120 115/115/115 117/117/117
f 116/116/116 115/115/115 120/120/120
f 121/121/121 98/98/98 116/116/116
f 98/98/98 121/121/121 96/96/96
f 117/117/117 118/118/118 122/122/122
f 122/122/122 120/120/120 117/117/117
f 118/118/118 119/119/119 123/123/123
f 118/118/118 123/123/123 122/122/122
f 119/119/119 124/124/124 123/123/123
f 122/122/122 123/123/123 125/125/125
f 122/122/122 125/125/125 120/120/120
f 123/123/123 124/124/124 126/126/126
f 123/123/123 126/126/126 125/125/125
f 124/124/124 127/127/127 126/126/126
f 128/128/128 116/116/116 120/120/120
f 121/121/121 116/116/116 128/128/128
f 129/129/129 96/96/96 121/121/121
f 129/129/129 97/97/97 96/96/96
f 130/130/130 126/126/126 127/127/127
f 131/131/131 130/130/130 127/127/127
f 132/132/132 125/125/125 126/126/126
f 130/130/130 132/132/132 126/126/126
f 125/125/125 133/133/133 120/120/120
f 128/128/128 120/120/120 133/133/133
f 134/134/134 121/121/121 128/128/128
f 134/134/134 129/129/129 121/121/121
f 129/129/129 135/135/135 97/97/97
f 135/135/135 136/136/136 97/97/97
f 137/137/137 130/130/130 131/131/131
f 138/138/138 137/137/137 131/131/131
f 139/139/139 133/133/133 125/125/125
f 132/132/132 139/139/139 125/125/125
f 140/140/140 128/128/128 133/133/133
f 134/134/134 128/128/128 140/140/140
f 140/140/140 133/133/133 139/139/139
f 134/134/134 141/141/141 129/129/129
f 141/141/141 134/134/134 140/140/140
f 141/141/141 135/135/135 129/129/129
f 142/142/142 136/136/136 135/135/135
f 142/142/142 143/143/143 136/136/136
f 144/144/144 143/143/143 142/142/142
f 145/145/145 140/140/140 139/139/139
f 141/141/141 140/140/140 145/145/145
f 146/146/146 139/139/139 132/132/132
f 145/145/145 139/139/139 146/146/146
f 135/135/135 141/141/141 147/147/147
f 142/142/142 135/135/135 147/147/147
f 148/148/148 144/144/144 142/142/142
f 148/148/148 142/142/142 147/147/147
f 149/149/149 144/144/144 148/148/148
f 150/150/150 141/141/141 145/145/145
f 147/147/147 141/141/141 150/150/150
f 151/151/151 149/149/149 148/148/148
f 149/149/149 151/151/151 152/152/152
f 147/147/147 153/153/153 148/148/148
f 153/153/153 147/147/147 150/150/150
f 153/153/153 151/151/151 148/148/148
f 150/150/150 145/145/145 154/154/154
f 153/153/153 150/150/150 154/154/154
f 154/154/154 145/145/145 146/146/146
f 151/151/151 155/155/155 152/152/152
f 151/151/151 153/153/153 155/155/155
f 153/153/153 154/154/154 155/155/155
f 154/154/154 146/146/146 155/155/155
f 152/152/152 155/155/155 137/137/137
f 146/146/146 156/156/156 155/155/155
f 155/155/155 156/156/156 137/137/137
f 156/156/156 146/146/146 132/132/132
f 137/137/137 156/156/156 130/130/130
f 156/156/156 132/132/132 130/130/130
