g pm0521_00_LWingSkin_tx1
v 0.08906399 0.7339535 0.14889632
v 0.09904678 0.72127926 0.17911565
v 0.11121264 0.70398617 0.19762583
v 0.10487039 0.6813342 0.19469836
v 0.13468114 0.6557817 0.22398704
v 0.07682637 0.70541906 0.14433825
v 0.08491216 0.7342645 0.11243266
v 0.10691246 0.65207535 0.1890484
v 0.14967456 0.61643535 0.2273147
v 0.07033927 0.6773171 0.11925992
v 0.08073957 0.72859246 0.062336665
v 0.08176691 0.72058463 0.030684082
v 0.10736581 0.6166411 0.16960083
v 0.1621038 0.57313496 0.21971923
v 0.072909646 0.65827584 0.07913933
v 0.08582367 0.70605093 -0.008407956
v 0.11524262 0.58103883 0.13001145
v 0.17255884 0.5297651 0.20365955
v 0.07612998 0.64786863 0.04348089
v 0.09047918 0.6935211 -0.036316976
v 0.124393925 0.54651433 0.08758565
v 0.17893358 0.49280828 0.1755241
v 0.07796529 0.6365413 0.016141722
v 0.0968 0.67350864 -0.069444664
v 0.12801132 0.52668977 0.05835546
v 0.18507963 0.45806482 0.1299252
v 0.08161391 0.6216878 -0.011088616
v 0.10554455 0.64724964 -0.10596943
v 0.12772274 0.51177704 0.028795755
v 0.18941075 0.42416286 0.06157991
v 0.09396823 0.57525086 -0.063572384
v 0.1134268 0.61535066 -0.14195442
v 0.12852892 0.48720726 -0.026389671
v 0.18651552 0.4068285 0.0007626977
v 0.1011132 0.54188067 -0.11234932
v 0.11621433 0.57155156 -0.18528692
v 0.12571742 0.4675086 -0.08183657
v 0.18055569 0.39706433 -0.059126984
v 0.10384749 0.51102006 -0.15796044
v 0.112615734 0.5324485 -0.21992841
v 0.12063105 0.4606852 -0.14200097
v 0.16614665 0.40225306 -0.12840256
v 0.103774354 0.4933072 -0.20368989
v 0.0990714 0.54969996 -0.28995058
v 0.12051523 0.46805486 -0.202159
v 0.14805159 0.43128312 -0.20231107
v 0.0929823 0.5345299 -0.28787762
v 0.092628285 0.5616925 -0.3321159
v 0.103458256 0.5132651 -0.2874187
v 0.11871328 0.48206228 -0.29255423
v 0.089474484 0.552149 -0.33090213
v 0.089406736 0.56768876 -0.35319853
v 0.09459787 0.5394626 -0.33048674
v 0.10414146 0.52109075 -0.33333832
v 0.08772058 0.56095856 -0.3524144
v 0.08618519 0.57368505 -0.37428123
v 0.085966684 0.5697681 -0.37392664
v 0.09016767 0.5525614 -0.3520208
v 0.09685555 0.540605 -0.35373032
v 0.08573748 0.5656602 -0.37355483
v 0.08956964 0.5601192 -0.37412235
v 0.09253592 0.56967306 -0.37918466
v 0.085966684 0.5697681 -0.37392664
v 0.08573748 0.5656602 -0.37355483
v 0.091616035 0.57195073 -0.37886027
v 0.08618519 0.57368505 -0.37428123
v 0.09758416 0.5672512 -0.35811117
v 0.089406736 0.56768876 -0.35319853
v 0.10355228 0.56255174 -0.33736205
v 0.092628285 0.5616925 -0.3321159
v 0.101454616 0.56123024 -0.35839987
v 0.11548854 0.55315274 -0.2958638
v 0.0990714 0.54969996 -0.28995058
v 0.093142115 0.56606233 -0.3789927
v 0.08573748 0.5656602 -0.37355483
v 0.08956964 0.5601192 -0.37412235
v 0.101881295 0.5527571 -0.35756114
v 0.09685555 0.540605 -0.35373032
v 0.110373326 0.5527875 -0.33761507
v 0.11062048 0.53945184 -0.33612958
v 0.10414146 0.52109075 -0.33333832
v 0.14012274 0.53529966 -0.2149971
v 0.112615734 0.5324485 -0.21992841
v 0.12821074 0.53590184 -0.2960455
v 0.16150033 0.5126979 -0.21030453
v 0.12809883 0.5128414 -0.29326642
v 0.11871328 0.48206228 -0.29255423
v 0.16824608 0.4766108 -0.2036667
v 0.14805159 0.43128312 -0.20231107
v 0.16614665 0.40225306 -0.12840256
v 0.14206451 0.56283677 -0.177353
v 0.11621433 0.57155156 -0.18528692
v 0.19028322 0.44852543 -0.14378442
v 0.18055569 0.39706433 -0.059126984
v 0.19332208 0.48097277 -0.15355071
v 0.20841707 0.44128177 -0.08211487
v 0.18651552 0.4068285 0.0007626977
v 0.15816712 0.5539188 -0.17485864
v 0.14278316 0.60108757 -0.14067939
v 0.1134268 0.61535066 -0.14195442
v 0.16674228 0.58145016 -0.13601889
v 0.17825681 0.53311056 -0.16883332
v 0.18593492 0.51337945 -0.16322531
v 0.14219865 0.6375079 -0.10391875
v 0.10554455 0.64724964 -0.10596943
v 0.17174655 0.612612 -0.09627048
v 0.19303839 0.55324346 -0.12515242
v 0.21611568 0.48559067 -0.09893064
v 0.13752837 0.66651464 -0.06616474
v 0.0968 0.67350864 -0.069444664
v 0.16946526 0.645143 -0.056270964
v 0.20741163 0.5232563 -0.11365019
v 0.20338143 0.5776281 -0.080017805
v 0.23008327 0.50160646 -0.04167845
v 0.13233422 0.69085073 -0.028998053
v 0.09047918 0.6935211 -0.036316976
v 0.16218023 0.6739033 -0.014633614
v 0.12539464 0.70821464 0.003461917
v 0.08582367 0.70605093 -0.008407956
v 0.22128943 0.5410847 -0.061820753
v 0.20225058 0.61023945 -0.034279168
v 0.21970539 0.4517155 -0.020336058
v 0.18941075 0.42416286 0.06157991
v 0.22468668 0.4706301 0.04355404
v 0.18507963 0.45806482 0.1299252
v 0.23552306 0.5277478 0.017621176
v 0.2189872 0.50306505 0.10775023
v 0.17893358 0.49280828 0.1755241
v 0.22506624 0.5708069 -0.010419987
v 0.19853373 0.64314604 0.011068643
v 0.23053119 0.5604188 0.07848062
v 0.20764999 0.53786445 0.15917706
v 0.20966005 0.602455 0.13734518
v 0.22143309 0.6054829 0.042405494
v 0.19951548 0.5646858 0.17919977
v 0.17255884 0.5297651 0.20365955
v 0.1621038 0.57313496 0.21971923
v 0.19101341 0.5988784 0.18892194
v 0.14967456 0.61643535 0.2273147
v 0.17388235 0.6385313 0.19732442
v 0.13468114 0.6557817 0.22398704
v 0.18291815 0.67420864 0.04960619
v 0.20770572 0.6434868 0.086278886
v 0.1842485 0.65783507 0.15719634
v 0.14971787 0.67080224 0.20079917
v 0.12771522 0.6952075 0.20017883
v 0.11121264 0.70398617 0.19762583
v 0.15200289 0.69122237 0.16484725
v 0.11893569 0.71897537 0.17608568
v 0.09904678 0.72127926 0.17911565
v 0.1110107 0.7302693 0.15674923
v 0.08906399 0.7339535 0.14889632
v 0.1471841 0.7055193 0.13462946
v 0.18022092 0.67998284 0.11322044
v 0.10375279 0.7369901 0.13944139
v 0.16124132 0.70086586 0.0812142
v 0.13558811 0.72173333 0.10846395
v 0.097994804 0.73869365 0.121268414
v 0.08491216 0.7342645 0.11243266
v 0.12080404 0.7304475 0.087290764
v 0.13749684 0.71795195 0.05670325
v 0.09194945 0.7367755 0.09850291
v 0.08073957 0.72859246 0.062336665
v 0.1046228 0.7336589 0.0712734
v 0.11529542 0.7241914 0.040852748
v 0.08176691 0.72058463 0.030684082
v 0.15276965 0.6977709 0.020177918
vt 0.8154576 0.03537786
vt 0.8247453 0.05693841
vt 0.8298036 0.07817507
vt 0.8231081 0.09212601
vt 0.8322321 0.1283052
vt 0.80701625 0.054005146
vt 0.80115604 0.020449877
vt 0.8160252 0.11157417
vt 0.8270472 0.16208935
vt 0.793275 0.064983726
vt 0.7806246 0.008630991
vt 0.76712 0.0050845146
vt 0.8028835 0.13040292
vt 0.81678414 0.19396508
vt 0.7758591 0.06678915
vt 0.7497739 0.0045546293
vt 0.78297216 0.1467408
vt 0.8036065 0.2226367
vt 0.76101375 0.06432271
vt 0.7370646 0.0059444904
vt 0.76188207 0.16164815
vt 0.7870679 0.2420417
vt 0.74908924 0.06482029
vt 0.72124505 0.01166141
vt 0.7478949 0.16823673
vt 0.76449037 0.25530505
vt 0.73662853 0.06825709
vt 0.70320404 0.021115303
vt 0.73451513 0.16998148
vt 0.7335043 0.2611462
vt 0.70961833 0.08867836
vt 0.68468606 0.034828424
vt 0.71006733 0.17155993
vt 0.7079561 0.25510705
vt 0.68594027 0.10014689
vt 0.6620132 0.055544496
vt 0.68631685 0.16861892
vt 0.6839397 0.24317467
vt 0.6639117 0.11041522
vt 0.64331996 0.07544291
vt 0.6628278 0.1552844
vt 0.658615 0.21562135
vt 0.6438265 0.11063302
vt 0.6175817 0.0449574
vt 0.640619 0.13454843
vt 0.6346024 0.17006826
vt 0.6159214 0.057921886
vt 0.60237306 0.025666595
vt 0.61323684 0.0764029
vt 0.6070316 0.10208571
vt 0.6013755 0.033710837
vt 0.59476876 0.016021192
vt 0.59984815 0.044589043
vt 0.59620017 0.059952557
vt 0.5941026 0.021605313
vt 0.5871644 0.0063757896
vt 0.58682966 0.009499788
vt 0.59315383 0.028682113
vt 0.59078443 0.03888598
vt 0.5864595 0.012775183
vt 0.58536875 0.017819405
vt 0.59207284 0.8514551
vt 0.5971252 0.8570069
vt 0.59145594 0.86003923
vt 0.5968918 0.84923506
vt 0.602143 0.85283434
vt 0.60353196 0.84197843
vt 0.6084449 0.84773666
vt 0.61017203 0.83472174
vt 0.61474687 0.84263897
vt 0.5996336 0.83938825
vt 0.6234523 0.82020843
vt 0.62735075 0.8324436
vt 0.592065 0.84820986
vt 0.5888235 0.8453915
vt 0.591441 0.8417182
vt 0.59910315 0.83232963
vt 0.5971759 0.82157433
vt 0.60719436 0.82732135
vt 0.6061413 0.81644946
vt 0.6029108 0.80143046
vt 0.6575106 0.7885256
vt 0.6554545 0.8127464
vt 0.6223159 0.8031876
vt 0.65716016 0.7592552
vt 0.6202177 0.78468907
vt 0.61438066 0.76114273
vt 0.6541313 0.72648335
vt 0.6426881 0.69101524
vt 0.6646691 0.6393393
vt 0.67913413 0.79529774
vt 0.6762997 0.81858265
vt 0.672481 0.6809281
vt 0.6893408 0.6077957
vt 0.6757391 0.70798695
vt 0.693447 0.6524309
vt 0.7127096 0.59164274
vt 0.67945147 0.77961993
vt 0.70137686 0.8067794
vt 0.70207995 0.8341763
vt 0.7001965 0.78128886
vt 0.6790975 0.75468147
vt 0.67784023 0.7364634
vt 0.7222152 0.8153075
vt 0.72214764 0.84610224
vt 0.72061795 0.78486276
vt 0.6997847 0.749158
vt 0.69704837 0.6891037
vt 0.74067867 0.8211913
vt 0.74061656 0.85418296
vt 0.74004203 0.7911719
vt 0.6987049 0.7213428
vt 0.7201685 0.74680424
vt 0.71913767 0.6790513
vt 0.75759375 0.82454
vt 0.75624675 0.858111
vt 0.7587859 0.7967111
vt 0.7720848 0.8273804
vt 0.7688514 0.85998356
vt 0.7197356 0.7131357
vt 0.7407821 0.7522329
vt 0.7162014 0.6374266
vt 0.7369742 0.5824647
vt 0.73990256 0.62825656
vt 0.7657311 0.5816399
vt 0.74212885 0.67559683
vt 0.76556635 0.6267079
vt 0.78861064 0.58766234
vt 0.7412004 0.7143507
vt 0.7606758 0.75759685
vt 0.7661955 0.6757903
vt 0.789459 0.6308447
vt 0.7943702 0.6828624
vt 0.76321965 0.7187052
vt 0.8024114 0.6410947
vt 0.8075414 0.6021061
vt 0.8252851 0.6259701
vt 0.81413376 0.66074324
vt 0.84083945 0.65587366
vt 0.8282418 0.6858436
vt 0.8524249 0.690565
vt 0.7792291 0.768168
vt 0.78439736 0.7298064
vt 0.81603914 0.71636283
vt 0.84182215 0.7117517
vt 0.8524953 0.7369951
vt 0.85916334 0.7502916
vt 0.8320278 0.745554
vt 0.8495463 0.77228916
vt 0.85750717 0.7828988
vt 0.843879 0.79456055
vt 0.84611046 0.8171941
vt 0.82242703 0.772359
vt 0.80400616 0.7505418
vt 0.8379215 0.8107345
vt 0.79745185 0.7815633
vt 0.81541806 0.7972163
vt 0.83027285 0.8243066
vt 0.8283158 0.8396448
vt 0.8100576 0.8169167
vt 0.7933363 0.8096328
vt 0.82062685 0.8374785
vt 0.80291396 0.8567375
vt 0.8050265 0.8338399
vt 0.78956515 0.8306322
vt 0.78714126 0.8597323
vt 0.775343 0.80261266
vn -0.33084527 0.86098456 0.38632497
vn -0.011298464 0.8285688 0.5597732
vn -0.024546048 0.6404276 0.76762617
vn -0.42684597 0.45692837 0.7803967
vn 0.029634116 0.47009155 0.8821201
vn -0.83635014 0.4285253 0.34188372
vn -0.5221437 0.84552735 0.11157742
vn -0.7128028 0.067817196 0.69807804
vn -0.058592908 0.10151754 0.9931068
vn -0.9635154 0.1842548 0.19413428
vn -0.57835615 0.81323826 -0.06440354
vn -0.6527426 0.7232348 -0.22551842
vn -0.792165 -0.22784741 0.5661804
vn -0.055064365 -0.2391775 0.9694132
vn -0.9974438 0.042692263 0.057299674
vn -0.64320874 0.68158406 -0.34889212
vn -0.807256 -0.3950106 0.43852517
vn -0.0608058 -0.5134681 0.85595167
vn -0.999382 -0.007496235 -0.03434095
vn -0.6103515 0.65351355 -0.44765055
vn -0.80863017 -0.4847895 0.33331144
vn -0.028272362 -0.6935435 0.7198598
vn -0.9953047 -0.024242189 -0.09370677
vn -0.5747946 0.6187187 -0.53553575
vn -0.80607057 -0.53543186 0.25211692
vn -0.007591644 -0.8331755 0.5529566
vn -0.989 -0.036114518 -0.14343853
vn -0.54425603 0.5869718 -0.59937423
vn -0.803777 -0.5676697 0.17802696
vn 0.0017978563 -0.9289396 0.37022695
vn -0.982454 -0.041019652 -0.1819379
vn -0.53864574 0.589144 -0.602304
vn -0.8034926 -0.5865078 0.10202119
vn 0.0023665999 -0.9848567 0.17335376
vn -0.9784032 -0.03669241 -0.20342267
vn -0.56620723 0.6522747 -0.5039316
vn -0.80450237 -0.59389746 0.007853971
vn -0.0067036566 -0.99866474 -0.051221598
vn -0.9853005 -0.014654751 -0.17020066
vn -0.6055756 0.7617923 -0.23011003
vn -0.8029698 -0.5877911 -0.09869747
vn -0.014854776 -0.9557867 -0.29368538
vn -0.9971411 0.0181467 -0.07335088
vn -0.58667487 0.8063278 0.07515279
vn -0.81473005 -0.55444515 -0.16972163
vn -0.020896748 -0.87147707 -0.48999086
vn -0.996879 0.06694296 0.041845724
vn -0.56205076 0.808981 0.17218801
vn -0.8341902 -0.5130055 -0.20236646
vn -0.06391929 -0.80071837 -0.59562117
vn -0.99299675 0.1016296 0.060241
vn -0.62519646 0.779982 -0.027522568
vn -0.85553354 -0.4609801 -0.23571119
vn -0.12878636 -0.7490441 -0.6498823
vn -0.9835577 0.15303159 -0.09589383
vn -0.6896398 0.63518625 -0.34775782
vn -0.8420756 0.29096407 -0.454146
vn -0.84181577 -0.39312574 -0.36986277
vn -0.21801186 -0.66822827 -0.71129584
vn -0.6554314 -0.242973 -0.7151041
vn -0.24222842 -0.5193771 -0.81949544
vn 0.18070313 -0.018190458 -0.9833695
vn -0.8420756 0.29096407 -0.454146
vn -0.6554314 -0.242973 -0.7151041
vn -0.14205621 0.33922365 -0.9299179
vn -0.6896398 0.63518625 -0.34775782
vn 0.43991795 0.73179495 -0.52052695
vn -0.62519646 0.779982 -0.027522568
vn 0.57482535 0.7681227 -0.28206968
vn -0.56205076 0.808981 0.17218801
vn 0.7144928 0.09787418 -0.6927631
vn 0.52529305 0.80940765 -0.2625382
vn -0.58667487 0.8063278 0.07515279
vn 0.25118965 -0.3254331 -0.9115904
vn -0.6554314 -0.242973 -0.7151041
vn -0.24222842 -0.5193771 -0.81949544
vn 0.54110277 -0.32504213 -0.7756001
vn -0.21801186 -0.66822827 -0.71129584
vn 0.8384683 0.15881252 -0.52129596
vn 0.6857358 -0.304766 -0.66097206
vn -0.12878636 -0.7490441 -0.6498823
vn 0.55049205 0.6948243 -0.4627934
vn -0.6055756 0.7617923 -0.23011003
vn 0.8597053 0.20327997 -0.46859795
vn 0.8403115 0.3154499 -0.44087172
vn 0.75338507 -0.2769304 -0.5964231
vn -0.06391929 -0.80071837 -0.59562117
vn 0.81615216 -0.28164467 -0.50455123
vn -0.020896748 -0.87147707 -0.48999086
vn -0.014854776 -0.9557867 -0.29368538
vn 0.26627055 0.7658179 -0.5853401
vn -0.56620723 0.6522747 -0.5039316
vn 0.77814066 -0.49451494 -0.38723654
vn -0.0067036566 -0.99866474 -0.051221598
vn 0.9045304 -0.14107382 -0.4023964
vn 0.80484825 -0.55653006 -0.20613977
vn 0.0023665999 -0.9848567 0.17335376
vn 0.58496463 0.6256092 -0.51616806
vn 0.26509038 0.71261746 -0.6495409
vn -0.53864574 0.589144 -0.602304
vn 0.6294567 0.57169485 -0.5262596
vn 0.8028808 0.37867033 -0.46042496
vn 0.8881999 0.18736118 -0.4195194
vn 0.26465935 0.73662245 -0.6223687
vn -0.54425603 0.5869718 -0.59937423
vn 0.6517017 0.5891948 -0.47763407
vn 0.8157096 0.38155478 -0.4347802
vn 0.95034534 -0.118946366 -0.28756812
vn 0.24242665 0.79680836 -0.55346704
vn -0.5747946 0.6187187 -0.53553575
vn 0.64690346 0.6444432 -0.40768725
vn 0.9167749 0.1744975 -0.35926896
vn 0.8330463 0.41441697 -0.36645928
vn 0.98478276 -0.08708704 -0.15039577
vn 0.1970179 0.86166114 -0.4676794
vn -0.6103515 0.65351355 -0.44765055
vn 0.6163793 0.71463066 -0.33072588
vn 0.13050927 0.9187569 -0.37262994
vn -0.64320874 0.68158406 -0.34889212
vn 0.94345963 0.20161954 -0.26312286
vn 0.836734 0.4680905 -0.28419623
vn 0.83494043 -0.55033934 -0.0011152081
vn 0.0017978563 -0.9289396 0.37022695
vn 0.85 -0.48901737 0.19586208
vn -0.007591644 -0.8331755 0.5529566
vn 0.9995927 -0.02777322 -0.006565416
vn 0.84032834 -0.38329294 0.38332072
vn -0.028272362 -0.6935435 0.7198598
vn 0.9531611 0.25896925 -0.15626483
vn 0.8155692 0.5435971 -0.19836584
vn 0.9874582 0.067079425 0.14292149
vn 0.78294015 -0.25901914 0.5656092
vn 0.9205101 0.19942053 0.33599478
vn 0.9375471 0.3446253 -0.04731541
vn 0.6428746 -0.22757879 0.73138225
vn -0.0608058 -0.5134681 0.85595167
vn -0.055064365 -0.2391775 0.9694132
vn 0.70449126 0.045847304 0.70823026
vn -0.058592908 0.10151754 0.9931068
vn 0.62146026 0.32978144 0.71065557
vn 0.029634116 0.47009155 0.8821201
vn 0.76070917 0.640244 -0.106813625
vn 0.88272464 0.46537906 0.064958096
vn 0.8015811 0.47322354 0.36541376
vn 0.46468595 0.53772163 0.7035072
vn 0.21506251 0.61135143 0.7615757
vn -0.024546048 0.6404276 0.76762617
vn 0.60710317 0.6621651 0.43927568
vn 0.22635388 0.76940346 0.5973126
vn -0.011298464 0.8285688 0.5597732
vn 0.14287895 0.90255547 0.40617633
vn -0.33084527 0.86098456 0.38632497
vn 0.57571334 0.78145254 0.2405951
vn 0.7697609 0.62191135 0.14385541
vn 0.07230271 0.9706631 0.22931555
vn 0.66027945 0.7508376 -0.01654894
vn 0.4705977 0.8785268 0.08202642
vn -0.1649759 0.9813494 0.09867293
vn -0.5221437 0.84552735 0.11157742
vn 0.25248668 0.9664002 -0.048179183
vn 0.45455438 0.87735546 -0.15371326
vn -0.33310935 0.94221914 -0.035513747
vn -0.57835615 0.81323826 -0.06440354
vn -0.09654531 0.9852409 -0.14134814
vn 0.041636795 0.9642116 -0.26184425
vn -0.6527426 0.7232348 -0.22551842
vn 0.5569199 0.7933488 -0.2458414
g pm0521_00_LWingSkin_tx1_0
f 3/3/3 2/2/2 1/1/1
f 4/4/4 3/3/3 1/1/1
f 4/4/4 5/5/5 3/3/3
f 4/4/4 1/1/1 6/6/6
f 6/6/6 1/1/1 7/7/7
f 5/5/5 4/4/4 8/8/8
f 8/8/8 4/4/4 6/6/6
f 9/9/9 5/5/5 8/8/8
f 6/6/6 7/7/7 10/10/10
f 8/8/8 6/6/6 10/10/10
f 7/7/7 11/11/11 10/10/10
f 10/10/10 11/11/11 12/12/12
f 9/9/9 8/8/8 13/13/13
f 13/13/13 8/8/8 10/10/10
f 14/14/14 9/9/9 13/13/13
f 15/15/15 10/10/10 12/12/12
f 13/13/13 10/10/10 15/15/15
f 15/15/15 12/12/12 16/16/16
f 14/14/14 13/13/13 17/17/17
f 17/17/17 13/13/13 15/15/15
f 18/18/18 14/14/14 17/17/17
f 19/19/19 15/15/15 16/16/16
f 17/17/17 15/15/15 19/19/19
f 19/19/19 16/16/16 20/20/20
f 18/18/18 17/17/17 21/21/21
f 21/21/21 17/17/17 19/19/19
f 22/22/22 18/18/18 21/21/21
f 23/23/23 19/19/19 20/20/20
f 21/21/21 19/19/19 23/23/23
f 23/23/23 20/20/20 24/24/24
f 22/22/22 21/21/21 25/25/25
f 25/25/25 21/21/21 23/23/23
f 26/26/26 22/22/22 25/25/25
f 27/27/27 23/23/23 24/24/24
f 25/25/25 23/23/23 27/27/27
f 27/27/27 24/24/24 28/28/28
f 26/26/26 25/25/25 29/29/29
f 29/29/29 25/25/25 27/27/27
f 30/30/30 26/26/26 29/29/29
f 31/31/31 27/27/27 28/28/28
f 29/29/29 27/27/27 31/31/31
f 31/31/31 28/28/28 32/32/32
f 30/30/30 29/29/29 33/33/33
f 33/33/33 29/29/29 31/31/31
f 34/34/34 30/30/30 33/33/33
f 35/35/35 31/31/31 32/32/32
f 33/33/33 31/31/31 35/35/35
f 35/35/35 32/32/32 36/36/36
f 34/34/34 33/33/33 37/37/37
f 37/37/37 33/33/33 35/35/35
f 38/38/38 34/34/34 37/37/37
f 39/39/39 35/35/35 36/36/36
f 37/37/37 35/35/35 39/39/39
f 39/39/39 36/36/36 40/40/40
f 38/38/38 37/37/37 41/41/41
f 41/41/41 37/37/37 39/39/39
f 42/42/42 38/38/38 41/41/41
f 43/43/43 39/39/39 40/40/40
f 41/41/41 39/39/39 43/43/43
f 43/43/43 40/40/40 44/44/44
f 42/42/42 41/41/41 45/45/45
f 45/45/45 41/41/41 43/43/43
f 46/46/46 42/42/42 45/45/45
f 47/47/47 43/43/43 44/44/44
f 45/45/45 43/43/43 47/47/47
f 47/47/47 44/44/44 48/48/48
f 46/46/46 45/45/45 49/49/49
f 49/49/49 45/45/45 47/47/47
f 50/50/50 46/46/46 49/49/49
f 51/51/51 47/47/47 48/48/48
f 49/49/49 47/47/47 51/51/51
f 51/51/51 48/48/48 52/52/52
f 50/50/50 49/49/49 53/53/53
f 53/53/53 49/49/49 51/51/51
f 54/54/54 50/50/50 53/53/53
f 55/55/55 51/51/51 52/52/52
f 53/53/53 51/51/51 55/55/55
f 55/55/55 52/52/52 56/56/56
f 57/57/57 55/55/55 56/56/56
f 54/54/54 53/53/53 58/58/58
f 58/58/58 53/53/53 55/55/55
f 58/58/58 55/55/55 57/57/57
f 59/59/59 54/54/54 58/58/58
f 60/60/60 58/58/58 57/57/57
f 59/59/59 58/58/58 60/60/60
f 61/61/61 59/59/59 60/60/60
f 64/64/64 63/63/63 62/62/62
f 63/63/63 65/65/65 62/62/62
f 63/63/63 66/66/66 65/65/65
f 65/65/65 66/66/66 67/67/67
f 65/65/65 67/67/67 62/62/62
f 66/66/66 68/68/68 67/67/67
f 67/67/67 68/68/68 69/69/69
f 68/68/68 70/70/70 69/69/69
f 67/67/67 71/71/71 62/62/62
f 67/67/67 69/69/69 71/71/71
f 69/69/69 70/70/70 72/72/72
f 70/70/70 73/73/73 72/72/72
f 62/62/62 71/71/71 74/74/74
f 75/75/75 62/62/62 74/74/74
f 76/76/76 75/75/75 74/74/74
f 74/74/74 77/77/77 76/76/76
f 71/71/71 77/77/77 74/74/74
f 77/77/77 78/78/78 76/76/76
f 69/69/69 79/79/79 71/71/71
f 71/71/71 79/79/79 77/77/77
f 69/69/69 72/72/72 79/79/79
f 77/77/77 80/80/80 78/78/78
f 79/79/79 80/80/80 77/77/77
f 80/80/80 81/81/81 78/78/78
f 72/72/72 73/73/73 82/82/82
f 73/73/73 83/83/83 82/82/82
f 72/72/72 84/84/84 79/79/79
f 79/79/79 84/84/84 80/80/80
f 84/84/84 72/72/72 82/82/82
f 85/85/85 84/84/84 82/82/82
f 80/80/80 86/86/86 81/81/81
f 84/84/84 86/86/86 80/80/80
f 86/86/86 84/84/84 85/85/85
f 86/86/86 87/87/87 81/81/81
f 87/87/87 86/86/86 88/88/88
f 88/88/88 86/86/86 85/85/85
f 89/89/89 87/87/87 88/88/88
f 90/90/90 89/89/89 88/88/88
f 82/82/82 83/83/83 91/91/91
f 83/83/83 92/92/92 91/91/91
f 93/93/93 90/90/90 88/88/88
f 94/94/94 90/90/90 93/93/93
f 88/88/88 95/95/95 93/93/93
f 95/95/95 88/88/88 85/85/85
f 96/96/96 94/94/94 93/93/93
f 96/96/96 93/93/93 95/95/95
f 97/97/97 94/94/94 96/96/96
f 91/91/91 98/98/98 82/82/82
f 82/82/82 98/98/98 85/85/85
f 91/91/91 92/92/92 99/99/99
f 92/92/92 100/100/100 99/99/99
f 101/101/101 98/98/98 91/91/91
f 99/99/99 101/101/101 91/91/91
f 98/98/98 102/102/102 85/85/85
f 102/102/102 98/98/98 101/101/101
f 103/103/103 95/95/95 85/85/85
f 85/85/85 102/102/102 103/103/103
f 99/99/99 100/100/100 104/104/104
f 100/100/100 105/105/105 104/104/104
f 106/106/106 101/101/101 99/99/99
f 104/104/104 106/106/106 99/99/99
f 107/107/107 102/102/102 101/101/101
f 103/103/103 102/102/102 107/107/107
f 107/107/107 101/101/101 106/106/106
f 108/108/108 95/95/95 103/103/103
f 108/108/108 96/96/96 95/95/95
f 104/104/104 105/105/105 109/109/109
f 105/105/105 110/110/110 109/109/109
f 111/111/111 106/106/106 104/104/104
f 109/109/109 111/111/111 104/104/104
f 112/112/112 103/103/103 107/107/107
f 112/112/112 108/108/108 103/103/103
f 113/113/113 107/107/107 106/106/106
f 113/113/113 106/106/106 111/111/111
f 112/112/112 107/107/107 113/113/113
f 96/96/96 108/108/108 114/114/114
f 114/114/114 108/108/108 112/112/112
f 109/109/109 110/110/110 115/115/115
f 110/110/110 116/116/116 115/115/115
f 117/117/117 111/111/111 109/109/109
f 115/115/115 117/117/117 109/109/109
f 115/115/115 116/116/116 118/118/118
f 115/115/115 118/118/118 117/117/117
f 116/116/116 119/119/119 118/118/118
f 120/120/120 112/112/112 113/113/113
f 120/120/120 114/114/114 112/112/112
f 121/121/121 113/113/113 111/111/111
f 121/121/121 111/111/111 117/117/117
f 120/120/120 113/113/113 121/121/121
f 122/122/122 96/96/96 114/114/114
f 122/122/122 97/97/97 96/96/96
f 97/97/97 122/122/122 123/123/123
f 122/122/122 124/124/124 123/123/123
f 122/122/122 114/114/114 124/124/124
f 125/125/125 123/123/123 124/124/124
f 126/126/126 114/114/114 120/120/120
f 114/114/114 126/126/126 124/124/124
f 127/127/127 125/125/125 124/124/124
f 127/127/127 124/124/124 126/126/126
f 128/128/128 125/125/125 127/127/127
f 129/129/129 120/120/120 121/121/121
f 129/129/129 126/126/126 120/120/120
f 130/130/130 121/121/121 117/117/117
f 129/129/129 121/121/121 130/130/130
f 131/131/131 127/127/127 126/126/126
f 131/131/131 126/126/126 129/129/129
f 132/132/132 128/128/128 127/127/127
f 132/132/132 127/127/127 131/131/131
f 133/133/133 132/132/132 131/131/131
f 134/134/134 131/131/131 129/129/129
f 134/134/134 129/129/129 130/130/130
f 133/133/133 131/131/131 134/134/134
f 128/128/128 132/132/132 135/135/135
f 135/135/135 132/132/132 133/133/133
f 136/136/136 128/128/128 135/135/135
f 136/136/136 135/135/135 137/137/137
f 135/135/135 138/138/138 137/137/137
f 138/138/138 135/135/135 133/133/133
f 139/139/139 137/137/137 138/138/138
f 140/140/140 139/139/139 138/138/138
f 138/138/138 133/133/133 140/140/140
f 141/141/141 139/139/139 140/140/140
f 134/134/134 130/130/130 142/142/142
f 143/143/143 133/133/133 134/134/134
f 143/143/143 134/134/134 142/142/142
f 133/133/133 144/144/144 140/140/140
f 144/144/144 133/133/133 143/143/143
f 145/145/145 141/141/141 140/140/140
f 140/140/140 144/144/144 145/145/145
f 145/145/145 146/146/146 141/141/141
f 147/147/147 141/141/141 146/146/146
f 145/145/145 148/148/148 146/146/146
f 144/144/144 148/148/148 145/145/145
f 147/147/147 146/146/146 149/149/149
f 148/148/148 149/149/149 146/146/146
f 147/147/147 149/149/149 150/150/150
f 150/150/150 149/149/149 151/151/151
f 149/149/149 148/148/148 151/151/151
f 150/150/150 151/151/151 152/152/152
f 148/148/148 144/144/144 153/153/153
f 148/148/148 153/153/153 151/151/151
f 154/154/154 144/144/144 143/143/143
f 144/144/144 154/154/154 153/153/153
f 151/151/151 155/155/155 152/152/152
f 151/151/151 153/153/153 155/155/155
f 154/154/154 143/143/143 156/156/156
f 143/143/143 142/142/142 156/156/156
f 153/153/153 154/154/154 157/157/157
f 153/153/153 157/157/157 155/155/155
f 154/154/154 156/156/156 157/157/157
f 155/155/155 158/158/158 152/152/152
f 155/155/155 157/157/157 158/158/158
f 159/159/159 152/152/152 158/158/158
f 157/157/157 156/156/156 160/160/160
f 157/157/157 160/160/160 158/158/158
f 156/156/156 142/142/142 161/161/161
f 156/156/156 161/161/161 160/160/160
f 159/159/159 158/158/158 162/162/162
f 163/163/163 159/159/159 162/162/162
f 162/162/162 158/158/158 164/164/164
f 158/158/158 160/160/160 164/164/164
f 163/163/163 162/162/162 164/164/164
f 164/164/164 160/160/160 165/165/165
f 163/163/163 164/164/164 165/165/165
f 160/160/160 161/161/161 165/165/165
f 166/166/166 163/163/163 165/165/165
f 166/166/166 165/165/165 119/119/119
f 165/165/165 118/118/118 119/119/119
f 165/165/165 161/161/161 118/118/118
f 142/142/142 167/167/167 161/161/161
f 161/161/161 167/167/167 118/118/118
f 142/142/142 130/130/130 167/167/167
f 118/118/118 167/167/167 117/117/117
f 130/130/130 117/117/117 167/167/167
