g pm0623_00_HandLightSkin_tx
v 1.01855 1.1019905 -0.0006105963
v 1.0171705 1.1357895 0.03540269
v 1.0174313 1.1683377 -0.0006170542
v 1.0171208 1.1357709 -0.03659835
v 1.0127559 1.1056877 0.06817903
v 1.012646 1.1058584 -0.069183685
v 1.0143119 1.0718504 0.032172132
v 1.0100738 1.0417104 0.064954855
v 1.0083412 1.0755858 0.10095538
v 1.000338 1.0452696 0.1339313
v 1.0000002 1.0113225 0.098822385
v 0.99672604 0.98125094 0.0662598
v 1.0061147 1.0117694 0.032363385
v 0.99345195 0.9511795 0.03369722
v 1.0117321 1.0419053 -0.00041933986
v 1.0021555 0.98182845 -0.00022808323
v 0.98693115 0.9222146 0.00067683175
v 0.99366933 0.9520596 -0.03318282
v 1.0062345 1.0119604 -0.033010807
v 0.9969191 0.9823141 -0.065939955
v 1.0144317 1.0720413 -0.033202067
v 1.0103135 1.0420922 -0.06579354
v 1.0001689 1.0125687 -0.09869709
v 1.0081711 1.075946 -0.10176902
v 1.0003706 1.046545 -0.13377778
v -1.01855 1.1019905 -0.0006151163
v -1.0171208 1.135771 -0.036602717
v -1.0174313 1.1683377 -0.00062127586
v -1.012646 1.1058587 -0.069188185
v -1.0171705 1.1357894 0.03539832
v -1.0144317 1.0720414 -0.03320672
v -1.0081711 1.0759465 -0.10177366
v -1.0143119 1.0718503 0.032167476
v -1.0127559 1.1056874 0.06817453
v -1.0117321 1.0419053 -0.00042412995
v -1.0103135 1.0420926 -0.06579833
v -1.0003706 1.0465457 -0.13378255
v -1.0001689 1.0125692 -0.098702006
v -0.9969191 0.9823144 -0.065945014
v -1.0062345 1.0119605 -0.033015735
v -0.99366933 0.95205975 -0.03318801
v -1.0100738 1.0417101 0.064950064
v -1.0083412 1.0755854 0.10095075
v -1.000338 1.045269 0.13392651
v -1.0000002 1.011322 0.09881745
v -0.99672604 0.98125064 0.066254735
v -1.0061147 1.0117693 0.03235846
v -1.0021555 0.98182845 -0.00023314344
v -0.98693115 0.9222146 0.00067150354
v -0.99345195 0.9511793 0.033692025
vt 0.2704106 0.23525429
vt 0.2704106 0.15800881
vt 0.19316512 0.15800881
vt 0.19316512 0.23525429
vt 0.3476562 0.15800881
vt 0.19316512 0.3125
vt 0.3476562 0.23525429
vt 0.42490184 0.23525429
vt 0.42490184 0.15800881
vt 0.50214726 0.15800881
vt 0.50214726 0.23525429
vt 0.50214726 0.3125
vt 0.42490184 0.3125
vt 0.50214726 0.3897457
vt 0.3476562 0.3125
vt 0.42490184 0.3897457
vt 0.50214726 0.4669912
vt 0.42490184 0.4669912
vt 0.3476562 0.3897457
vt 0.3476562 0.4669912
vt 0.2704106 0.3125
vt 0.2704106 0.3897457
vt 0.2704106 0.4669912
vt 0.19316512 0.3897457
vt 0.19316512 0.4669912
vt 0.27041107 0.23525444
vt 0.19316512 0.2352544
vt 0.19316512 0.15800893
vt 0.19316518 0.31250012
vt 0.27041107 0.15800902
vt 0.27041107 0.31250012
vt 0.19316518 0.3897457
vt 0.3476563 0.2352544
vt 0.3476563 0.158009
vt 0.3476563 0.31250012
vt 0.27041107 0.3897457
vt 0.19316512 0.46699107
vt 0.2704111 0.46699104
vt 0.3476563 0.46699107
vt 0.3476563 0.3897457
vt 0.42490205 0.46699104
vt 0.42490202 0.23525444
vt 0.42490208 0.15800898
vt 0.5021475 0.15800893
vt 0.50214744 0.2352545
vt 0.50214744 0.31250012
vt 0.42490202 0.31250012
vt 0.42490205 0.38974574
vt 0.5021475 0.4669911
vt 0.5021475 0.3897457
vn 0.9980981 -0.06164328 -0.0006954674
vn 0.9987853 -0.043750595 0.02266578
vn 0.99959654 -0.028391138 -0.0008202797
vn 0.9987722 -0.043130197 -0.024367856
vn 0.995466 -0.07544509 0.057927072
vn 0.99541324 -0.074321434 -0.060240205
vn 0.9947248 -0.09574832 0.036805514
vn 0.98890483 -0.13040318 0.07114895
vn 0.9900067 -0.1091195 0.089328624
vn 0.98598623 -0.13067926 0.10370257
vn 0.98452467 -0.15120335 0.08859279
vn 0.98188937 -0.18076114 0.05673321
vn 0.9859526 -0.16302918 0.0363181
vn 0.97827744 -0.20611699 0.022112828
vn 0.9914853 -0.13021755 -0.0004903506
vn 0.9813913 -0.19201794 -0.00044733472
vn 0.9760409 -0.21758655 -0.00044279723
vn 0.978143 -0.20663767 -0.023178345
vn 0.98584914 -0.16335778 -0.037625317
vn 0.98162997 -0.18155825 -0.058644064
vn 0.9947154 -0.09523427 -0.038363602
vn 0.988751 -0.13017538 -0.07366008
vn 0.9841814 -0.15146655 -0.09189628
vn 0.9897892 -0.10819974 -0.092791066
vn 0.9855935 -0.1302446 -0.10789744
vn -0.9980981 -0.061643165 -0.00069576653
vn -0.9987722 -0.043129895 -0.024368033
vn -0.99959654 -0.028391022 -0.0008203992
vn -0.99541324 -0.074321136 -0.060240563
vn -0.9987853 -0.04375065 0.02266542
vn -0.9947154 -0.09523395 -0.038364075
vn -0.9897892 -0.10819937 -0.09279153
vn -0.9947248 -0.09574843 0.036805037
vn -0.995466 -0.075445265 0.057926588
vn -0.9914853 -0.13021754 -0.00049100874
vn -0.988751 -0.13017508 -0.073660724
vn -0.9855934 -0.13024446 -0.10789802
vn -0.9841814 -0.1514663 -0.091897056
vn -0.98162997 -0.1815581 -0.058644958
vn -0.98584926 -0.16335748 -0.037626036
vn -0.97814286 -0.20663767 -0.023179242
vn -0.98890483 -0.1304032 0.0711481
vn -0.9900067 -0.10911974 0.0893279
vn -0.98598623 -0.13067946 0.10370175
vn -0.98452467 -0.15120359 0.08859207
vn -0.98188937 -0.18076153 0.05673237
vn -0.9859526 -0.16302924 0.03631726
vn -0.9813913 -0.192018 -0.0004482311
vn -0.9760408 -0.21758696 -0.00044375233
vn -0.97827744 -0.20611739 0.022111991
g pm0623_00_HandLightSkin_tx_0
f 3/3/3 2/2/2 1/1/1
f 4/4/4 3/3/3 1/1/1
f 1/1/1 2/2/2 5/5/5
f 6/6/6 4/4/4 1/1/1
f 7/7/7 1/1/1 5/5/5
f 7/7/7 5/5/5 8/8/8
f 5/5/5 9/9/9 8/8/8
f 9/9/9 10/10/10 8/8/8
f 10/10/10 11/11/11 8/8/8
f 11/11/11 12/12/12 8/8/8
f 12/12/12 13/13/13 8/8/8
f 8/8/8 13/13/13 7/7/7
f 12/12/12 14/14/14 13/13/13
f 7/7/7 15/15/15 1/1/1
f 13/13/13 15/15/15 7/7/7
f 14/14/14 16/16/16 13/13/13
f 13/13/13 16/16/16 15/15/15
f 16/16/16 14/14/14 17/17/17
f 18/18/18 16/16/16 17/17/17
f 16/16/16 18/18/18 19/19/19
f 16/16/16 19/19/19 15/15/15
f 18/18/18 20/20/20 19/19/19
f 15/15/15 21/21/21 1/1/1
f 15/15/15 19/19/19 21/21/21
f 21/21/21 6/6/6 1/1/1
f 19/19/19 20/20/20 22/22/22
f 19/19/19 22/22/22 21/21/21
f 21/21/21 22/22/22 6/6/6
f 20/20/20 23/23/23 22/22/22
f 22/22/22 24/24/24 6/6/6
f 22/22/22 23/23/23 25/25/25
f 24/24/24 22/22/22 25/25/25
f 28/28/28 27/27/27 26/26/26
f 27/27/27 29/29/29 26/26/26
f 30/30/30 28/28/28 26/26/26
f 29/29/29 31/31/31 26/26/26
f 29/29/29 32/32/32 31/31/31
f 30/30/30 26/26/26 33/33/33
f 34/34/34 30/30/30 33/33/33
f 31/31/31 35/35/35 26/26/26
f 35/35/35 33/33/33 26/26/26
f 32/32/32 36/36/36 31/31/31
f 31/31/31 36/36/36 35/35/35
f 36/36/36 32/32/32 37/37/37
f 38/38/38 36/36/36 37/37/37
f 38/38/38 39/39/39 36/36/36
f 39/39/39 40/40/40 36/36/36
f 36/36/36 40/40/40 35/35/35
f 39/39/39 41/41/41 40/40/40
f 34/34/34 33/33/33 42/42/42
f 43/43/43 34/34/34 42/42/42
f 44/44/44 43/43/43 42/42/42
f 45/45/45 44/44/44 42/42/42
f 46/46/46 45/45/45 42/42/42
f 35/35/35 47/47/47 33/33/33
f 47/47/47 42/42/42 33/33/33
f 35/35/35 40/40/40 47/47/47
f 47/47/47 46/46/46 42/42/42
f 41/41/41 48/48/48 40/40/40
f 40/40/40 48/48/48 47/47/47
f 47/47/47 48/48/48 46/46/46
f 48/48/48 41/41/41 49/49/49
f 48/48/48 50/50/50 46/46/46
f 50/50/50 48/48/48 49/49/49
