g pm0676_17_Eye5Skin
v -0.06599205 0.9944465 0.5242634
v -0.054003246 0.9898419 0.5461468
v -0.064830534 0.9883729 0.5504195
v -0.04342854 0.97184545 0.56332684
v -0.07547278 0.9935137 0.53000116
v -0.085198134 0.9919799 0.5116438
v -0.07724479 0.9930446 0.50640565
v -0.085978486 0.9846753 0.5348654
v -0.09260184 0.9847737 0.49896738
v -0.08505467 0.9860383 0.49316034
v -0.087718636 0.9767558 0.483837
v -0.05609329 0.97169906 0.5666205
v -0.050789833 0.9495047 0.57540876
v -0.03886554 0.9470964 0.5726872
v -0.03966478 0.9258269 0.5727889
v -0.06595178 0.96647215 0.566215
v -0.052866023 0.9282688 0.576427
v -0.04260328 0.9139316 0.5702057
v -0.07659196 0.979144 0.5525694
v -0.05849941 0.9517978 0.5724209
v -0.062369402 0.93961114 0.5718246
v -0.06618412 0.9238612 0.5669054
v -0.05574758 0.91348076 0.57331777
v -0.04549908 0.89350545 0.5797753
v -0.075707965 0.9532833 0.56271845
v -0.086973175 0.9652639 0.5498905
v -0.09291684 0.95088387 0.5412136
v -0.09563314 0.97291636 0.5318629
v -0.08033252 0.93807936 0.5559063
v -0.09270582 0.98384345 0.51887345
v -0.09783117 0.97916156 0.5127648
v -0.10169207 0.97047055 0.50542486
v -0.08011855 0.9265197 0.5480213
v -0.100072294 0.9604225 0.52409273
v -0.0989114 0.9511017 0.5149195
v -0.096882045 0.97687656 0.49003154
v -0.09119883 0.9402088 0.53150624
v -0.10080269 0.9781777 0.47207525
v -0.093625754 0.97817314 0.4686036
v -0.10402472 0.97803414 0.45911482
v -0.09957453 0.9786378 0.4556028
v -0.10457293 0.97637075 0.45598543
v -0.100803114 0.97713095 0.45309815
v -0.10469707 0.9725299 0.46920982
v -0.10371707 0.96710235 0.48504126
v -0.104470156 0.9731729 0.45634684
v -0.10024736 0.97331136 0.45270965
v -0.102467485 0.96815753 0.46385512
v -0.09642858 0.9672228 0.4607311
v -0.0981758 0.96077 0.47843212
v -0.09133826 0.9594965 0.4737309
v -0.09443569 0.9545577 0.48967028
v -0.0869416 0.9525987 0.48517853
v -0.10259356 0.96059287 0.4981258
v -0.088962294 0.94673824 0.5037648
v -0.08176065 0.9443923 0.49781498
v -0.08110338 0.9353139 0.5214365
v -0.073047295 0.9321662 0.51506674
v -0.07256042 0.92216533 0.5391909
v -0.06337765 0.9190106 0.5326821
v -0.065275244 0.910531 0.5536743
v -0.055990867 0.9079242 0.54705614
v -0.07002234 0.91384125 0.5609179
v -0.059444565 0.89999074 0.5671116
v -0.05143582 0.8971172 0.5617303
v -0.062141683 0.9031563 0.5713998
v -0.055439033 0.8928711 0.57747877
v -0.046597365 0.88955563 0.57797277
v -0.05399149 0.89396787 0.57959604
v -0.04589775 0.88986456 0.57994705
v -0.054449484 0.89676946 0.58027744
v 0.066026494 0.9944669 0.52422196
v 0.06490492 0.9883993 0.55031395
v 0.054001432 0.9898559 0.546152
v 0.04342866 0.97184616 0.56332725
v 0.075488076 0.99358696 0.5299997
v 0.08518342 0.9921694 0.51171196
v 0.077241205 0.9931043 0.50644004
v 0.085977025 0.9847271 0.5348763
v 0.092601605 0.984766 0.49897084
v 0.08503707 0.9860325 0.49320433
v 0.08771662 0.97675246 0.48383746
v 0.056093287 0.9716992 0.5666208
v 0.05078977 0.9495058 0.5754092
v 0.03886559 0.9470966 0.57268727
v 0.039668553 0.92581457 0.57278234
v 0.06595567 0.9664775 0.56620884
v 0.052867252 0.9282675 0.5764266
v 0.04260326 0.9139318 0.57020575
v 0.07659296 0.9791438 0.5525669
v 0.05849988 0.9517945 0.57242006
v 0.062372074 0.9396121 0.5718249
v 0.06618596 0.9238637 0.566906
v 0.055747554 0.91348 0.5733175
v 0.045480922 0.893562 0.57980645
v 0.07572044 0.95328784 0.5627199
v 0.08702162 0.96525496 0.54989195
v 0.09294009 0.95088553 0.54121566
v 0.09563245 0.9729192 0.5318652
v 0.08035439 0.9380863 0.5559045
v 0.09270525 0.98402005 0.518906
v 0.09783388 0.9793388 0.5127824
v 0.10168885 0.9704651 0.5054292
v 0.08012732 0.92651886 0.5480214
v 0.100070275 0.96041805 0.5240955
v 0.09890864 0.95110005 0.5149228
v 0.096898 0.9769173 0.49000308
v 0.09121043 0.94020957 0.53150773
v 0.100801535 0.97818154 0.472077
v 0.093625166 0.9781737 0.46860412
v 0.1040217 0.97804236 0.45911834
v 0.09957368 0.97866255 0.45561057
v 0.104571834 0.9763742 0.45598677
v 0.10080319 0.97713125 0.45309824
v 0.10469478 0.97253704 0.46921274
v 0.103713654 0.96710753 0.4850453
v 0.1044682 0.97317886 0.45634905
v 0.10024366 0.9733199 0.45271286
v 0.10246379 0.9681687 0.46385914
v 0.09641988 0.96724826 0.46074027
v 0.09817064 0.9607846 0.47843826
v 0.09132208 0.9595408 0.473749
v 0.09443063 0.9545711 0.48967633
v 0.08692156 0.95265365 0.48520187
v 0.10258969 0.9605929 0.4981303
v 0.08895903 0.94674504 0.50376874
v 0.08174052 0.9444437 0.49783805
v 0.08110456 0.9353169 0.5214386
v 0.07303123 0.9321922 0.5150846
v 0.07256327 0.922166 0.53919137
v 0.06336531 0.9190274 0.5326941
v 0.065277115 0.91053134 0.55367464
v 0.05601657 0.90791357 0.5470588
v 0.070024885 0.91384125 0.56091785
v 0.05944459 0.8999901 0.56711143
v 0.051436465 0.89711523 0.56172925
v 0.062141664 0.9031563 0.5713998
v 0.055439156 0.89287084 0.57747865
v 0.04659769 0.88955456 0.5779722
v 0.053991497 0.8939678 0.579596
v 0.045898028 0.88986367 0.5799466
v 0.05444869 0.8967719 0.5802788
vt 0.11047323 0.22364764
vt 0.11704136 0.2276532
vt 0.11706533 0.221327
vt 0.12379128 0.22446607
vt 0.111554 0.21739128
vt 0.10745201 0.2105827
vt 0.1057969 0.21490811
vt 0.11276044 0.20890003
vt 0.10507473 0.200148
vt 0.1030881 0.20334093
vt 0.10118814 0.19511315
vt 0.12250258 0.21813796
vt 0.1264164 0.21031132
vt 0.128855 0.21502061
vt 0.13196552 0.20434135
vt 0.1215708 0.21064787
vt 0.12918997 0.20038973
vt 0.13341999 0.19763169
vt 0.11710318 0.21131192
vt 0.1248022 0.20783946
vt 0.12568039 0.20104036
vt 0.12676412 0.19169776
vt 0.1308825 0.19182295
vt 0.13994198 0.18743466
vt 0.121492 0.20102003
vt 0.11714151 0.20118622
vt 0.11717847 0.19140625
vt 0.11294243 0.19999559
vt 0.12191676 0.19155027
vt 0.10957997 0.20409119
vt 0.10868526 0.19873935
vt 0.10801063 0.19112754
vt 0.12240747 0.18356186
vt 0.11283275 0.1912741
vt 0.11251262 0.18291296
vt 0.10354556 0.19099167
vt 0.11721019 0.18299998
vt 0.09972199 0.18447989
vt 0.0982831 0.1878355
vt 0.09734715 0.18307526
vt 0.09419235 0.18264039
vt 0.09666825 0.17823935
vt 0.094239086 0.17712164
vt 0.10007538 0.17951371
vt 0.10401744 0.181674
vt 0.09762846 0.17426491
vt 0.09538268 0.17029448
vt 0.09968656 0.17492492
vt 0.09932671 0.17075059
vt 0.10385643 0.17443882
vt 0.10339457 0.16938058
vt 0.10732731 0.17374977
vt 0.1070727 0.16824122
vt 0.10773094 0.18267031
vt 0.1117343 0.17313467
vt 0.11135285 0.16711965
vt 0.11724685 0.17330521
vt 0.11727171 0.1667442
vt 0.12261572 0.17543182
vt 0.12306394 0.16830373
vt 0.12714337 0.17808314
vt 0.12768319 0.17078404
vt 0.12707877 0.1841439
vt 0.13127065 0.18087365
vt 0.13214186 0.17392518
vt 0.13115335 0.18414545
vt 0.13518634 0.18089257
vt 0.13968365 0.17824191
vt 0.13593876 0.18419902
vt 0.14031865 0.18138766
vt 0.13565627 0.18743184
vt 0.11047339 0.2236478
vt 0.11706531 0.22132707
vt 0.11704135 0.22765326
vt 0.12379146 0.22446615
vt 0.11155397 0.21739128
vt 0.10745203 0.21058276
vt 0.10579693 0.214908
vt 0.11276054 0.20890021
vt 0.10507476 0.20014796
vt 0.10308826 0.20334116
vt 0.1011883 0.1951133
vt 0.12250257 0.21813795
vt 0.12641644 0.21031138
vt 0.12885505 0.21502072
vt 0.1319657 0.20434132
vt 0.12157083 0.21064794
vt 0.12919009 0.20038977
vt 0.13341993 0.19763172
vt 0.11710316 0.21131194
vt 0.12480211 0.20783955
vt 0.12568045 0.20104057
vt 0.12676418 0.19169772
vt 0.13088262 0.19182292
vt 0.13994229 0.18743503
vt 0.12149221 0.20102009
vt 0.11714143 0.20118642
vt 0.11717844 0.19140625
vt 0.11294258 0.19999579
vt 0.12191671 0.19155031
vt 0.10957992 0.20409122
vt 0.10868537 0.19873929
vt 0.10801065 0.19112763
vt 0.12240744 0.18356192
vt 0.11283278 0.1912742
vt 0.11251271 0.18291286
vt 0.10354567 0.19099173
vt 0.11721021 0.18300003
vt 0.09972209 0.18447995
vt 0.09828317 0.18783563
vt 0.0973469 0.18307538
vt 0.094192445 0.18264057
vt 0.09666854 0.1782397
vt 0.094239354 0.1771219
vt 0.10007536 0.17951375
vt 0.1040175 0.18167406
vt 0.097628474 0.17426501
vt 0.09538293 0.17029475
vt 0.0996865 0.17492497
vt 0.09932673 0.17075065
vt 0.1038565 0.17443886
vt 0.10339451 0.16938066
vt 0.10732734 0.1737498
vt 0.10707265 0.16824135
vt 0.10773098 0.18267035
vt 0.11173427 0.17313474
vt 0.1113528 0.16711971
vt 0.11724693 0.17330524
vt 0.11727172 0.16674417
vt 0.12261569 0.1754319
vt 0.12306392 0.16830379
vt 0.12714338 0.17808318
vt 0.12768316 0.17078406
vt 0.12707877 0.18414393
vt 0.13127077 0.18087375
vt 0.13214183 0.17392525
vt 0.1311534 0.18414557
vt 0.13518655 0.1808927
vt 0.13968372 0.17824213
vt 0.13593876 0.18419921
vt 0.14031875 0.18138796
vt 0.13565636 0.18743199
vn -0.28572834 0.91629463 0.28064805
vn -0.15643686 0.7987771 0.58093244
vn -0.31375185 0.7189429 0.6202265
vn -0.05188876 0.5580801 0.82816315
vn -0.4327103 0.8379033 0.33268568
vn -0.53363484 0.83949864 0.10235154
vn -0.40020603 0.9155796 0.039360255
vn -0.65616363 0.647618 0.38735023
vn -0.6607639 0.7504564 -0.014363581
vn -0.49197924 0.8661463 -0.08801724
vn -0.5540333 0.822898 -0.12603983
vn -0.20503876 0.49232766 0.8459152
vn -0.16304797 0.2591667 0.95197064
vn -0.01599676 0.29597384 0.95506203
vn -0.06359967 0.09992196 0.9929605
vn -0.44433284 0.34005958 0.8288111
vn -0.24440983 0.06523832 0.9674749
vn -0.16856386 -0.043058317 0.9847498
vn -0.56810296 0.51725465 0.64008343
vn -0.35025877 0.20777528 0.91331714
vn -0.48091516 0.04374037 0.87567544
vn -0.6656569 -0.1965319 0.7199139
vn -0.41984338 -0.1433783 0.8961998
vn -0.26953486 -0.19598426 0.94283676
vn -0.6549939 0.100976765 0.74885696
vn -0.79088473 0.22066937 0.57079464
vn -0.91326433 -0.13980472 0.38262615
vn -0.8593391 0.3745057 0.3482553
vn -0.8123954 -0.20072098 0.5474713
vn -0.6822472 0.7047076 0.19474544
vn -0.82436883 0.5486119 0.13943094
vn -0.9711662 0.2316661 0.05627742
vn -0.83127517 -0.51496994 0.20925482
vn -0.9766692 -0.00052561896 0.21474868
vn -0.91024506 -0.41406813 0.0012063658
vn -0.8206092 0.5660079 -0.078964785
vn -0.8657972 -0.49083084 0.09736729
vn -0.75717854 0.6374937 -0.14241615
vn -0.55761087 0.81544894 -0.15528408
vn -0.7364656 0.6361936 -0.22994827
vn -0.64430416 0.7154932 -0.27007726
vn -0.8992377 0.24412178 -0.36300993
vn -0.83391684 0.30505887 -0.45991495
vn -0.9633872 0.10755942 -0.2455933
vn -0.98365456 -0.0706217 -0.16563898
vn -0.8700885 -0.20841889 -0.44666263
vn -0.8182186 -0.2502889 -0.5175653
vn -0.84468347 -0.40044138 -0.35518536
vn -0.718548 -0.5548034 -0.419383
vn -0.79537797 -0.5412997 -0.27270597
vn -0.64559406 -0.6883685 -0.33069196
vn -0.75001746 -0.6239055 -0.2195806
vn -0.61138695 -0.7392162 -0.28242767
vn -0.95787376 -0.2744405 -0.08461829
vn -0.71865964 -0.671828 -0.17937516
vn -0.6008222 -0.7568663 -0.25722745
vn -0.7043774 -0.6958032 -0.14039351
vn -0.60270864 -0.76079315 -0.2406991
vn -0.7057855 -0.70245147 -0.091808125
vn -0.61149484 -0.7607739 -0.21747889
vn -0.71034473 -0.70382243 -0.0066576577
vn -0.6222076 -0.76763755 -0.1535913
vn -0.7865991 -0.50460166 0.35586402
vn -0.6905571 -0.70758235 0.1498605
vn -0.62382305 -0.7815312 0.0073339497
vn -0.68597233 -0.4818737 0.54519695
vn -0.6387849 -0.6912426 0.33784238
vn -0.59251857 -0.74254656 0.31232414
vn -0.5680064 -0.47696087 0.67072874
vn -0.47245613 -0.50196755 0.72444034
vn -0.38497552 -0.2139265 0.8977914
vn 0.28343698 0.91722363 0.27993608
vn 0.3127995 0.71915287 0.620464
vn 0.1551335 0.7990906 0.5808509
vn 0.051597513 0.55814296 0.82813895
vn 0.43121198 0.8387142 0.33258784
vn 0.5321656 0.84057623 0.101149574
vn 0.39769882 0.9167483 0.037525743
vn 0.65572226 0.64781594 0.38776645
vn 0.65981114 0.7512589 -0.016101943
vn 0.48990333 0.8670938 -0.09023828
vn 0.55271995 0.82352155 -0.12772152
vn 0.20477334 0.49236298 0.8459589
vn 0.1630831 0.2592104 0.9519527
vn 0.016148416 0.29601288 0.9550475
vn 0.06400321 0.099899255 0.9929369
vn 0.4440637 0.34005743 0.82895625
vn 0.24460562 0.06522265 0.96742654
vn 0.1693848 -0.043286286 0.984599
vn 0.56763285 0.5172115 0.64053524
vn 0.35014394 0.20782046 0.91335094
vn 0.48085377 0.043721784 0.87570995
vn 0.66569585 -0.19666788 0.7198408
vn 0.4203323 -0.14356801 0.89594036
vn 0.2707318 -0.19650476 0.9423853
vn 0.65484595 0.1008769 0.7489998
vn 0.7907879 0.22038332 0.57103914
vn 0.9132695 -0.14026344 0.38244602
vn 0.8594515 0.3741438 0.3483671
vn 0.8123629 -0.20097943 0.54742473
vn 0.6818593 0.7051794 0.19439636
vn 0.82445395 0.54865766 0.13874586
vn 0.9713354 0.23116618 0.055405177
vn 0.83113414 -0.51535964 0.20885517
vn 0.97675556 -0.0011898433 0.2143529
vn 0.9098465 -0.4149449 0.00028401613
vn 0.820298 0.5662566 -0.08040304
vn 0.8655217 -0.49145442 0.096667804
vn 0.7571198 0.6373651 -0.14330116
vn 0.55715036 0.8155792 -0.1562502
vn 0.7367723 0.63561904 -0.23055342
vn 0.6445391 0.71502674 -0.27075097
vn 0.8992984 0.24298173 -0.36362386
vn 0.83400065 0.30382195 -0.46058136
vn 0.9632688 0.106607966 -0.24647115
vn 0.9833772 -0.07159434 -0.16686326
vn 0.8694375 -0.20984039 -0.4472643
vn 0.8173425 -0.2518106 -0.51821095
vn 0.84364 -0.40187514 -0.35604495
vn 0.716912 -0.5562608 -0.42025116
vn 0.79396504 -0.542752 -0.27393407
vn 0.64346427 -0.68975776 -0.33194554
vn 0.7485043 -0.62521374 -0.22101828
vn 0.6091424 -0.74045897 -0.2840177
vn 0.9574727 -0.27549553 -0.085721314
vn 0.7173393 -0.6728493 -0.18082628
vn 0.59886014 -0.75784487 -0.25891638
vn 0.7034496 -0.6964956 -0.14160648
vn 0.60131264 -0.7614381 -0.24214715
vn 0.7053025 -0.70283544 -0.09257808
vn 0.61075026 -0.7610998 -0.21842878
vn 0.7102118 -0.7039533 -0.006991791
vn 0.62198645 -0.76773036 -0.15402292
vn 0.78657734 -0.5047814 0.35565677
vn 0.69061756 -0.70756173 0.14967917
vn 0.6238896 -0.78147966 0.007158298
vn 0.6861688 -0.48198462 0.5448516
vn 0.6390024 -0.69122756 0.33746162
vn 0.5928161 -0.74248374 0.31190854
vn 0.56857103 -0.4772319 0.67005724
vn 0.47331345 -0.50231487 0.7236395
vn 0.38592973 -0.21438101 0.8972731
g pm0676_17_Eye5Skin_0
f 3/3/3 2/2/2 1/1/1
f 4/4/4 2/2/2 3/3/3
f 5/5/5 3/3/3 1/1/1
f 5/5/5 1/1/1 6/6/6
f 1/1/1 7/7/7 6/6/6
f 5/5/5 8/8/8 3/3/3
f 5/5/5 6/6/6 8/8/8
f 6/6/6 7/7/7 9/9/9
f 7/7/7 10/10/10 9/9/9
f 9/9/9 10/10/10 11/11/11
f 12/12/12 4/4/4 3/3/3
f 12/12/12 13/13/13 4/4/4
f 13/13/13 14/14/14 4/4/4
f 15/15/15 14/14/14 13/13/13
f 12/12/12 3/3/3 16/16/16
f 12/12/12 16/16/16 13/13/13
f 17/17/17 15/15/15 13/13/13
f 18/18/18 15/15/15 17/17/17
f 8/8/8 19/19/19 3/3/3
f 3/3/3 19/19/19 16/16/16
f 16/16/16 20/20/20 13/13/13
f 13/13/13 20/20/20 17/17/17
f 21/21/21 20/20/20 16/16/16
f 20/20/20 21/21/21 17/17/17
f 17/17/17 21/21/21 22/22/22
f 23/23/23 18/18/18 17/17/17
f 23/23/23 17/17/17 22/22/22
f 24/24/24 18/18/18 23/23/23
f 25/25/25 21/21/21 16/16/16
f 16/16/16 19/19/19 25/25/25
f 22/22/22 21/21/21 25/25/25
f 26/26/26 19/19/19 8/8/8
f 19/19/19 26/26/26 25/25/25
f 25/25/25 26/26/26 27/27/27
f 28/28/28 26/26/26 8/8/8
f 27/27/27 26/26/26 28/28/28
f 29/29/29 22/22/22 25/25/25
f 29/29/29 25/25/25 27/27/27
f 8/8/8 30/30/30 28/28/28
f 6/6/6 30/30/30 8/8/8
f 31/31/31 30/30/30 6/6/6
f 30/30/30 31/31/31 28/28/28
f 28/28/28 31/31/31 32/32/32
f 9/9/9 31/31/31 6/6/6
f 32/32/32 31/31/31 9/9/9
f 29/29/29 33/33/33 22/22/22
f 29/29/29 27/27/27 33/33/33
f 34/34/34 28/28/28 32/32/32
f 34/34/34 27/27/27 28/28/28
f 34/34/34 35/35/35 27/27/27
f 34/34/34 32/32/32 35/35/35
f 36/36/36 32/32/32 9/9/9
f 36/36/36 9/9/9 11/11/11
f 27/27/27 37/37/37 33/33/33
f 35/35/35 37/37/37 27/27/27
f 38/38/38 36/36/36 11/11/11
f 39/39/39 38/38/38 11/11/11
f 40/40/40 38/38/38 39/39/39
f 41/41/41 40/40/40 39/39/39
f 40/40/40 41/41/41 42/42/42
f 40/40/40 42/42/42 38/38/38
f 41/41/41 43/43/43 42/42/42
f 38/38/38 44/44/44 36/36/36
f 42/42/42 44/44/44 38/38/38
f 36/36/36 45/45/45 32/32/32
f 44/44/44 45/45/45 36/36/36
f 42/42/42 43/43/43 46/46/46
f 43/43/43 47/47/47 46/46/46
f 46/46/46 48/48/48 42/42/42
f 46/46/46 47/47/47 48/48/48
f 48/48/48 44/44/44 42/42/42
f 47/47/47 49/49/49 48/48/48
f 48/48/48 50/50/50 44/44/44
f 48/48/48 49/49/49 50/50/50
f 50/50/50 45/45/45 44/44/44
f 49/49/49 51/51/51 50/50/50
f 52/52/52 50/50/50 51/51/51
f 50/50/50 52/52/52 45/45/45
f 53/53/53 52/52/52 51/51/51
f 45/45/45 54/54/54 32/32/32
f 52/52/52 54/54/54 45/45/45
f 32/32/32 54/54/54 35/35/35
f 55/55/55 52/52/52 53/53/53
f 54/54/54 52/52/52 55/55/55
f 35/35/35 54/54/54 55/55/55
f 56/56/56 55/55/55 53/53/53
f 55/55/55 57/57/57 35/35/35
f 57/57/57 55/55/55 56/56/56
f 57/57/57 37/37/37 35/35/35
f 58/58/58 57/57/57 56/56/56
f 37/37/37 57/57/57 59/59/59
f 59/59/59 57/57/57 58/58/58
f 60/60/60 59/59/59 58/58/58
f 33/33/33 37/37/37 59/59/59
f 61/61/61 59/59/59 60/60/60
f 59/59/59 61/61/61 33/33/33
f 62/62/62 61/61/61 60/60/60
f 61/61/61 63/63/63 33/33/33
f 33/33/33 63/63/63 22/22/22
f 64/64/64 61/61/61 62/62/62
f 63/63/63 61/61/61 64/64/64
f 65/65/65 64/64/64 62/62/62
f 22/22/22 63/63/63 66/66/66
f 66/66/66 63/63/63 64/64/64
f 23/23/23 22/22/22 66/66/66
f 67/67/67 64/64/64 65/65/65
f 68/68/68 67/67/67 65/65/65
f 67/67/67 69/69/69 64/64/64
f 67/67/67 68/68/68 69/69/69
f 69/69/69 66/66/66 64/64/64
f 68/68/68 70/70/70 69/69/69
f 69/69/69 70/70/70 24/24/24
f 71/71/71 23/23/23 66/66/66
f 71/71/71 24/24/24 23/23/23
f 71/71/71 69/69/69 24/24/24
f 69/69/69 71/71/71 66/66/66
f 74/74/74 73/73/73 72/72/72
f 74/74/74 75/75/75 73/73/73
f 73/73/73 76/76/76 72/72/72
f 72/72/72 76/76/76 77/77/77
f 78/78/78 72/72/72 77/77/77
f 79/79/79 76/76/76 73/73/73
f 77/77/77 76/76/76 79/79/79
f 78/78/78 77/77/77 80/80/80
f 81/81/81 78/78/78 80/80/80
f 81/81/81 80/80/80 82/82/82
f 75/75/75 83/83/83 73/73/73
f 84/84/84 83/83/83 75/75/75
f 85/85/85 84/84/84 75/75/75
f 85/85/85 86/86/86 84/84/84
f 73/73/73 83/83/83 87/87/87
f 87/87/87 83/83/83 84/84/84
f 86/86/86 88/88/88 84/84/84
f 86/86/86 89/89/89 88/88/88
f 90/90/90 79/79/79 73/73/73
f 90/90/90 73/73/73 87/87/87
f 91/91/91 87/87/87 84/84/84
f 91/91/91 84/84/84 88/88/88
f 91/91/91 92/92/92 87/87/87
f 92/92/92 91/91/91 88/88/88
f 92/92/92 88/88/88 93/93/93
f 89/89/89 94/94/94 88/88/88
f 88/88/88 94/94/94 93/93/93
f 89/89/89 95/95/95 94/94/94
f 92/92/92 96/96/96 87/87/87
f 90/90/90 87/87/87 96/96/96
f 92/92/92 93/93/93 96/96/96
f 90/90/90 97/97/97 79/79/79
f 97/97/97 90/90/90 96/96/96
f 97/97/97 96/96/96 98/98/98
f 97/97/97 99/99/99 79/79/79
f 97/97/97 98/98/98 99/99/99
f 93/93/93 100/100/100 96/96/96
f 96/96/96 100/100/100 98/98/98
f 101/101/101 79/79/79 99/99/99
f 101/101/101 77/77/77 79/79/79
f 101/101/101 102/102/102 77/77/77
f 102/102/102 101/101/101 99/99/99
f 102/102/102 99/99/99 103/103/103
f 102/102/102 80/80/80 77/77/77
f 102/102/102 103/103/103 80/80/80
f 104/104/104 100/100/100 93/93/93
f 98/98/98 100/100/100 104/104/104
f 99/99/99 105/105/105 103/103/103
f 98/98/98 105/105/105 99/99/99
f 106/106/106 105/105/105 98/98/98
f 103/103/103 105/105/105 106/106/106
f 103/103/103 107/107/107 80/80/80
f 80/80/80 107/107/107 82/82/82
f 108/108/108 98/98/98 104/104/104
f 108/108/108 106/106/106 98/98/98
f 107/107/107 109/109/109 82/82/82
f 109/109/109 110/110/110 82/82/82
f 109/109/109 111/111/111 110/110/110
f 111/111/111 112/112/112 110/110/110
f 112/112/112 111/111/111 113/113/113
f 113/113/113 111/111/111 109/109/109
f 114/114/114 112/112/112 113/113/113
f 115/115/115 109/109/109 107/107/107
f 115/115/115 113/113/113 109/109/109
f 116/116/116 107/107/107 103/103/103
f 116/116/116 115/115/115 107/107/107
f 114/114/114 113/113/113 117/117/117
f 118/118/118 114/114/114 117/117/117
f 119/119/119 117/117/117 113/113/113
f 118/118/118 117/117/117 119/119/119
f 115/115/115 119/119/119 113/113/113
f 120/120/120 118/118/118 119/119/119
f 121/121/121 119/119/119 115/115/115
f 120/120/120 119/119/119 121/121/121
f 116/116/116 121/121/121 115/115/115
f 122/122/122 120/120/120 121/121/121
f 121/121/121 123/123/123 122/122/122
f 123/123/123 121/121/121 116/116/116
f 123/123/123 124/124/124 122/122/122
f 125/125/125 116/116/116 103/103/103
f 125/125/125 123/123/123 116/116/116
f 125/125/125 103/103/103 106/106/106
f 123/123/123 126/126/126 124/124/124
f 123/123/123 125/125/125 126/126/126
f 125/125/125 106/106/106 126/126/126
f 126/126/126 127/127/127 124/124/124
f 128/128/128 126/126/126 106/106/106
f 126/126/126 128/128/128 127/127/127
f 108/108/108 128/128/128 106/106/106
f 128/128/128 129/129/129 127/127/127
f 128/128/128 108/108/108 130/130/130
f 128/128/128 130/130/130 129/129/129
f 130/130/130 131/131/131 129/129/129
f 108/108/108 104/104/104 130/130/130
f 130/130/130 132/132/132 131/131/131
f 132/132/132 130/130/130 104/104/104
f 132/132/132 133/133/133 131/131/131
f 134/134/134 132/132/132 104/104/104
f 134/134/134 104/104/104 93/93/93
f 132/132/132 135/135/135 133/133/133
f 132/132/132 134/134/134 135/135/135
f 135/135/135 136/136/136 133/133/133
f 134/134/134 93/93/93 137/137/137
f 134/134/134 137/137/137 135/135/135
f 93/93/93 94/94/94 137/137/137
f 135/135/135 138/138/138 136/136/136
f 138/138/138 139/139/139 136/136/136
f 140/140/140 138/138/138 135/135/135
f 139/139/139 138/138/138 140/140/140
f 137/137/137 140/140/140 135/135/135
f 141/141/141 139/139/139 140/140/140
f 141/141/141 140/140/140 95/95/95
f 94/94/94 142/142/142 137/137/137
f 95/95/95 142/142/142 94/94/94
f 140/140/140 142/142/142 95/95/95
f 142/142/142 140/140/140 137/137/137
