g pm0676_18_Eye5Skin
v 0.087718636 0.9767558 0.483837
v 0.09260184 0.9847737 0.49896738
v 0.08505467 0.9860383 0.49316034
v 0.07724479 0.9930446 0.50640565
v 0.085198134 0.9919799 0.5116438
v 0.06599205 0.9944465 0.5242634
v 0.096882045 0.97687656 0.49003154
v 0.10169207 0.97047055 0.50542486
v 0.09783117 0.97916156 0.5127648
v 0.10080269 0.9781777 0.47207525
v 0.093625754 0.97817314 0.4686036
v 0.10402472 0.97803414 0.45911482
v 0.09957453 0.9786378 0.4556028
v 0.10457293 0.97637075 0.45598543
v 0.100803114 0.97713095 0.45309815
v 0.10469707 0.9725299 0.46920982
v 0.104470156 0.9731729 0.45634684
v 0.10024736 0.97331136 0.45270965
v 0.102467485 0.96815753 0.46385512
v 0.09642858 0.9672228 0.4607311
v 0.0981758 0.96077 0.47843212
v 0.09133826 0.9594965 0.4737309
v 0.10371707 0.96710235 0.48504126
v 0.09443569 0.9545577 0.48967028
v 0.0869416 0.9525987 0.48517853
v 0.10259356 0.96059287 0.4981258
v 0.088962294 0.94673824 0.5037648
v 0.08176065 0.9443923 0.49781498
v 0.0989114 0.9511017 0.5149195
v 0.08110338 0.9353139 0.5214365
v 0.073047295 0.9321662 0.51506674
v 0.07256042 0.92216533 0.5391909
v 0.06337765 0.9190106 0.5326821
v 0.09119883 0.9402088 0.53150624
v 0.09291684 0.95088387 0.5412136
v 0.100072294 0.9604225 0.52409273
v 0.09563314 0.97291636 0.5318629
v 0.065275244 0.910531 0.5536743
v 0.055990867 0.9079242 0.54705614
v 0.08011855 0.9265197 0.5480213
v 0.059444565 0.89999074 0.5671116
v 0.05143582 0.8971172 0.5617303
v 0.09270582 0.98384345 0.51887345
v 0.085978486 0.9846753 0.5348654
v 0.086973175 0.9652639 0.5498905
v 0.07002234 0.91384125 0.5609179
v 0.06618412 0.9238612 0.5669054
v 0.08033252 0.93807936 0.5559063
v 0.075707965 0.9532833 0.56271845
v 0.055439033 0.8928711 0.57747877
v 0.046597365 0.88955563 0.57797277
v 0.05399149 0.89396787 0.57959604
v 0.04589775 0.88986456 0.57994705
v 0.04549908 0.89350545 0.5797753
v 0.062141683 0.9031563 0.5713998
v 0.054449484 0.89676946 0.58027744
v 0.05574758 0.91348076 0.57331777
v 0.04260328 0.9139316 0.5702057
v 0.052866023 0.9282688 0.576427
v 0.03966478 0.9258269 0.5727889
v 0.062369402 0.93961114 0.5718246
v 0.050789833 0.9495047 0.57540876
v 0.03886554 0.9470964 0.5726872
v 0.04342854 0.97184545 0.56332684
v 0.05849941 0.9517978 0.5724209
v 0.06595178 0.96647215 0.566215
v 0.05609329 0.97169906 0.5666205
v 0.064830534 0.9883729 0.5504195
v 0.054003246 0.9898419 0.5461468
v 0.07659196 0.979144 0.5525694
v 0.07547278 0.9935137 0.53000116
v -0.087718636 0.9767558 0.483837
v -0.08505467 0.9860383 0.49316034
v -0.09260184 0.9847737 0.49896738
v -0.07724479 0.9930446 0.50640565
v -0.085198134 0.9919799 0.5116438
v -0.06599205 0.9944465 0.5242634
v -0.096882045 0.97687656 0.49003154
v -0.10169207 0.97047055 0.50542486
v -0.09783117 0.97916156 0.5127648
v -0.10080269 0.9781777 0.47207525
v -0.093625754 0.97817314 0.4686036
v -0.10402472 0.97803414 0.45911482
v -0.09957453 0.9786378 0.4556028
v -0.10457293 0.97637075 0.45598543
v -0.100803114 0.97713095 0.45309815
v -0.10469707 0.9725299 0.46920982
v -0.104470156 0.9731729 0.45634684
v -0.10024736 0.97331136 0.45270965
v -0.102467485 0.96815753 0.46385512
v -0.09642858 0.9672228 0.4607311
v -0.0981758 0.96077 0.47843212
v -0.09133826 0.9594965 0.4737309
v -0.10371707 0.96710235 0.48504126
v -0.09443569 0.9545577 0.48967028
v -0.0869416 0.9525987 0.48517853
v -0.10259356 0.96059287 0.4981258
v -0.088962294 0.94673824 0.5037648
v -0.08176065 0.9443923 0.49781498
v -0.0989114 0.9511017 0.5149195
v -0.08110338 0.9353139 0.5214365
v -0.073047295 0.9321662 0.51506674
v -0.07256042 0.92216533 0.5391909
v -0.06337765 0.9190106 0.5326821
v -0.09119883 0.9402088 0.53150624
v -0.09291684 0.95088387 0.5412136
v -0.100072294 0.9604225 0.52409273
v -0.09563314 0.97291636 0.5318629
v -0.065275244 0.910531 0.5536743
v -0.055990867 0.9079242 0.54705614
v -0.08011855 0.9265197 0.5480213
v -0.059444565 0.89999074 0.5671116
v -0.05143582 0.8971172 0.5617303
v -0.09270582 0.98384345 0.51887345
v -0.085978486 0.9846753 0.5348654
v -0.086973175 0.9652639 0.5498905
v -0.07002234 0.91384125 0.5609179
v -0.06618412 0.9238612 0.5669054
v -0.08033252 0.93807936 0.5559063
v -0.075707965 0.9532833 0.56271845
v -0.055439033 0.8928711 0.57747877
v -0.046597365 0.88955563 0.57797277
v -0.05399149 0.89396787 0.57959604
v -0.04589775 0.88986456 0.57994705
v -0.04549908 0.89350545 0.5797753
v -0.062141683 0.9031563 0.5713998
v -0.054449484 0.89676946 0.58027744
v -0.05574758 0.91348076 0.57331777
v -0.04260328 0.9139316 0.5702057
v -0.052866023 0.9282688 0.576427
v -0.03966478 0.9258269 0.5727889
v -0.062369402 0.93961114 0.5718246
v -0.050789833 0.9495047 0.57540876
v -0.03886554 0.9470964 0.5726872
v -0.04342854 0.97184545 0.56332684
v -0.05849941 0.9517978 0.5724209
v -0.06595178 0.96647215 0.566215
v -0.05609329 0.97169906 0.5666205
v -0.064830534 0.9883729 0.5504195
v -0.054003246 0.9898419 0.5461468
v -0.07659196 0.979144 0.5525694
v -0.07547278 0.9935137 0.53000116
vt 0.037874937 0.9353959
vt 0.043860316 0.94314945
vt 0.04080087 0.9480667
vt 0.04497248 0.96588016
vt 0.047521412 0.95921904
vt 0.05217409 0.97933894
vt 0.041505456 0.92904896
vt 0.048381567 0.9292583
vt 0.049420476 0.94098026
vt 0.035617232 0.9190209
vt 0.03340125 0.92418844
vt 0.032416105 0.9144395
vt 0.028681159 0.9139344
vt 0.032001376 0.9088222
vt 0.02870977 0.90752405
vt 0.036161542 0.91137296
vt 0.032587707 0.9042054
vt 0.029408038 0.8995935
vt 0.035562634 0.9043061
vt 0.03500843 0.89787775
vt 0.04198426 0.9035576
vt 0.04127276 0.8957679
vt 0.042232156 0.9146996
vt 0.047329426 0.9024965
vt 0.046937227 0.8940132
vt 0.047950983 0.9162341
vt 0.05411601 0.9015492
vt 0.053528428 0.8922861
vt 0.05531466 0.9166078
vt 0.06260538 0.9018118
vt 0.062643886 0.8917079
vt 0.07087344 0.90508664
vt 0.07156372 0.8941095
vt 0.062548876 0.9167417
vt 0.0625 0.9296875
vt 0.05580765 0.92948383
vt 0.05597675 0.94291514
vt 0.07784599 0.90916985
vt 0.07867724 0.8979294
vt 0.07055265 0.9176068
vt 0.08420211 0.9134672
vt 0.08554357 0.90276664
vt 0.050798357 0.9492221
vt 0.05569631 0.9566278
vt 0.062443137 0.9447485
vt 0.07774645 0.91850334
vt 0.077261925 0.93013644
vt 0.06979698 0.92990917
vt 0.06914282 0.94449264
vt 0.088302135 0.9126204
vt 0.09296334 0.90734434
vt 0.08877939 0.9192013
vt 0.09336609 0.9136055
vt 0.09312713 0.9256414
vt 0.08402121 0.9185058
vt 0.08860016 0.92563564
vt 0.08360422 0.9303291
vt 0.0875119 0.93927455
vt 0.080997705 0.9435221
vt 0.085271955 0.94960755
vt 0.07559323 0.9445239
vt 0.07672644 0.9588009
vt 0.08048195 0.9660534
vt 0.07268369 0.9805992
vt 0.074240565 0.9549945
vt 0.06926429 0.9593193
vt 0.070699215 0.9708539
vt 0.062325835 0.97576517
vt 0.062289 0.98550755
vt 0.06238407 0.960342
vt 0.053838253 0.96970433
vt 0.037874877 0.9353959
vt 0.04080084 0.9480667
vt 0.043860286 0.94314945
vt 0.04497236 0.96588016
vt 0.047521323 0.95921904
vt 0.05217406 0.97933894
vt 0.041505337 0.92904896
vt 0.048381478 0.9292583
vt 0.049420416 0.94098026
vt 0.035617143 0.9190209
vt 0.03340116 0.92418844
vt 0.032415926 0.9144395
vt 0.028680995 0.9139344
vt 0.032001287 0.9088222
vt 0.028709576 0.90752405
vt 0.036161333 0.91137296
vt 0.032587618 0.9042054
vt 0.029407963 0.8995935
vt 0.035562575 0.9043061
vt 0.03500837 0.89787775
vt 0.04198414 0.9035576
vt 0.04127276 0.8957679
vt 0.042232066 0.9146996
vt 0.047329307 0.9024965
vt 0.046937138 0.8940132
vt 0.047950894 0.9162341
vt 0.05411598 0.9015492
vt 0.05352837 0.8922861
vt 0.05531454 0.9166078
vt 0.06260529 0.9018118
vt 0.06264368 0.8917079
vt 0.07087338 0.90508664
vt 0.07156357 0.8941095
vt 0.062548816 0.9167417
vt 0.0625 0.9296875
vt 0.05580759 0.92948383
vt 0.0559766 0.94291514
vt 0.07784593 0.90916985
vt 0.07867715 0.8979294
vt 0.07055256 0.9176068
vt 0.08420196 0.9134672
vt 0.08554348 0.90276664
vt 0.050798237 0.9492221
vt 0.05569622 0.9566278
vt 0.062443078 0.9447485
vt 0.07774636 0.91850334
vt 0.077261835 0.93013644
vt 0.06979689 0.92990917
vt 0.06914273 0.94449264
vt 0.08830199 0.9126204
vt 0.092963204 0.90734434
vt 0.08877927 0.9192013
vt 0.09336607 0.9136055
vt 0.09312709 0.9256414
vt 0.08402115 0.9185058
vt 0.08860007 0.92563564
vt 0.08360416 0.9303291
vt 0.08751187 0.93927455
vt 0.080997616 0.9435221
vt 0.085271865 0.94960755
vt 0.075592875 0.9445239
vt 0.07672635 0.9588009
vt 0.08048183 0.9660534
vt 0.0726836 0.9805992
vt 0.074240506 0.9549945
vt 0.0692642 0.9593193
vt 0.070699066 0.9708539
vt 0.062325656 0.97576517
vt 0.06228888 0.98550755
vt 0.06238404 0.960342
vt 0.053838253 0.96970433
vn 0.52522695 0.8405646 -0.13261886
vn 0.6539826 0.75593954 -0.029363105
vn 0.4733318 0.8739444 -0.110354856
vn 0.38293174 0.92362845 0.016546587
vn 0.52553165 0.84630686 0.087069966
vn 0.26371208 0.927768 0.2640123
vn 0.81183064 0.5787936 -0.07699959
vn 0.9709528 0.2324679 0.05665157
vn 0.8255262 0.5482256 0.13399705
vn 0.7388964 0.66249096 -0.12303509
vn 0.5180205 0.8430397 -0.14470303
vn 0.7155524 0.6645479 -0.21531573
vn 0.60939497 0.74752206 -0.2642887
vn 0.8981051 0.2512787 -0.36092418
vn 0.81999314 0.31892174 -0.4752894
vn 0.9678207 0.10623035 -0.2281187
vn 0.86144763 -0.23045659 -0.45254582
vn 0.7997 -0.2723092 -0.5350957
vn 0.83336896 -0.42789668 -0.34985793
vn 0.69231385 -0.5842989 -0.4234339
vn 0.78161675 -0.56302035 -0.26848322
vn 0.6197679 -0.71120006 -0.33178657
vn 0.98501915 -0.07630171 -0.15464585
vn 0.73637235 -0.6391076 -0.22202986
vn 0.5904049 -0.7544734 -0.28669113
vn 0.9559446 -0.2816808 -0.08261886
vn 0.70560646 -0.6835521 -0.18675134
vn 0.58441615 -0.76699865 -0.26489785
vn 0.90601236 -0.42324787 -0.0016786807
vn 0.69286484 -0.7048407 -0.15211162
vn 0.5890666 -0.76755255 -0.25271258
vn 0.69727147 -0.70840716 -0.1094155
vn 0.5987961 -0.7651485 -0.23662393
vn 0.8615253 -0.49932134 0.09193717
vn 0.91193646 -0.14419337 0.3841617
vn 0.97641194 -0.0046758614 0.21586525
vn 0.8602861 0.37175092 0.34886834
vn 0.70663154 -0.70687497 -0.03161807
vn 0.6099604 -0.7713015 -0.18177554
vn 0.83074814 -0.51888597 0.20153145
vn 0.691269 -0.7122093 0.12208725
vn 0.6128239 -0.78982556 -0.024946623
vn 0.6819511 0.7066928 0.18848825
vn 0.6542161 0.65060973 0.3856271
vn 0.7897841 0.21781199 0.57341003
vn 0.79294163 -0.5013398 0.34626865
vn 0.6665389 -0.19066195 0.720676
vn 0.8118837 -0.20143327 0.54796857
vn 0.6534827 0.0979517 0.75057703
vn 0.63820493 -0.7005391 0.3192795
vn 0.58236694 -0.757952 0.2938666
vn 0.5677179 -0.4692469 0.67639023
vn 0.45667854 -0.5006507 0.73538667
vn 0.23886748 -0.1736419 0.9554009
vn 0.6952687 -0.4742396 0.5400909
vn 0.3686962 -0.18805663 0.9103284
vn 0.40972936 -0.12900001 0.9030398
vn 0.13708688 -0.03073827 0.99008197
vn 0.22902434 0.061324455 0.97148716
vn 0.032923404 0.09424213 0.99500483
vn 0.47822812 0.0404043 0.87730575
vn 0.14558288 0.25406024 0.95616895
vn -0.013874755 0.28944457 0.9570942
vn 0.022724025 0.5618955 0.82689613
vn 0.34478065 0.20332931 0.916397
vn 0.43888935 0.33959866 0.83189476
vn 0.18677004 0.4958428 0.84809005
vn 0.29705164 0.72901 0.61668855
vn 0.12979719 0.8099975 0.57188874
vn 0.5635604 0.5202245 0.6416901
vn 0.42003912 0.8480989 0.322948
vn -0.52522683 0.8405649 -0.13261761
vn -0.47333172 0.8739446 -0.11035346
vn -0.65398246 0.7559397 -0.029362004
vn -0.38293162 0.92362845 0.016547766
vn -0.5255317 0.8463068 0.087070905
vn -0.26371196 0.92776775 0.26401296
vn -0.81183064 0.5787937 -0.07699869
vn -0.9709528 0.23246782 0.056651887
vn -0.82552606 0.5482255 0.13399759
vn -0.73889637 0.66249126 -0.12303456
vn -0.5180202 0.84303993 -0.14470252
vn -0.71555215 0.6645481 -0.21531628
vn -0.60939443 0.7475222 -0.26428962
vn -0.8981047 0.25127864 -0.36092526
vn -0.8199924 0.31892145 -0.475291
vn -0.9678207 0.10623038 -0.22811864
vn -0.86144716 -0.23045641 -0.45254672
vn -0.7996993 -0.27230918 -0.535097
vn -0.83336884 -0.42789668 -0.34985834
vn -0.69231355 -0.5842989 -0.42343453
vn -0.7816167 -0.5630205 -0.26848328
vn -0.6197677 -0.71120006 -0.33178678
vn -0.9850192 -0.07630189 -0.15464549
vn -0.73637235 -0.63910747 -0.22203006
vn -0.59040505 -0.75447327 -0.28669137
vn -0.9559446 -0.28168082 -0.08261888
vn -0.7056065 -0.68355197 -0.18675171
vn -0.5844161 -0.76699847 -0.2648982
vn -0.9060125 -0.42324787 -0.0016788923
vn -0.692865 -0.70484054 -0.15211168
vn -0.58906674 -0.7675524 -0.2527128
vn -0.6972714 -0.7084073 -0.10941527
vn -0.5987961 -0.7651485 -0.23662382
vn -0.8615253 -0.49932134 0.09193719
vn -0.91193646 -0.14419322 0.38416168
vn -0.97641194 -0.0046758624 0.2158653
vn -0.86028594 0.37175098 0.34886855
vn -0.70663136 -0.7068751 -0.031617593
vn -0.6099603 -0.77130157 -0.18177526
vn -0.830748 -0.5188859 0.20153172
vn -0.6912684 -0.71220964 0.12208768
vn -0.6128235 -0.789826 -0.024946686
vn -0.6819511 0.70669276 0.1884889
vn -0.6542158 0.6506097 0.38562754
vn -0.7897839 0.21781231 0.5734102
vn -0.7929416 -0.5013397 0.34626907
vn -0.66653895 -0.19066183 0.72067606
vn -0.81188375 -0.2014332 0.54796845
vn -0.65348274 0.09795184 0.7505769
vn -0.6382041 -0.70053995 0.3192793
vn -0.5823661 -0.7579528 0.29386592
vn -0.56771696 -0.4692479 0.67639035
vn -0.45667782 -0.50065196 0.7353863
vn -0.23886691 -0.17364268 0.9554009
vn -0.69526815 -0.47423992 0.5400913
vn -0.3686955 -0.18805721 0.9103286
vn -0.40972903 -0.1290002 0.90303993
vn -0.1370866 -0.030738477 0.99008197
vn -0.22902453 0.061324447 0.97148705
vn -0.032923535 0.09424213 0.99500483
vn -0.47822845 0.040404428 0.87730557
vn -0.14558305 0.25406033 0.95616883
vn 0.013874555 0.28944474 0.9570942
vn -0.02272408 0.5618952 0.8268962
vn -0.34478086 0.20332937 0.91639686
vn -0.4388893 0.3395987 0.8318949
vn -0.18676987 0.49584273 0.84809023
vn -0.2970512 0.7290098 0.61668897
vn -0.12979706 0.80999726 0.57188916
vn -0.5635602 0.5202246 0.64169025
vn -0.4200389 0.8480988 0.3229487
g pm0676_18_Eye5Skin_0
f 3/3/3 2/2/2 1/1/1
f 3/3/3 4/4/4 2/2/2
f 4/4/4 5/5/5 2/2/2
f 4/4/4 6/6/6 5/5/5
f 2/2/2 7/7/7 1/1/1
f 8/8/8 7/7/7 2/2/2
f 9/9/9 2/2/2 5/5/5
f 9/9/9 8/8/8 2/2/2
f 7/7/7 10/10/10 1/1/1
f 10/10/10 11/11/11 1/1/1
f 10/10/10 12/12/12 11/11/11
f 12/12/12 13/13/13 11/11/11
f 13/13/13 12/12/12 14/14/14
f 14/14/14 12/12/12 10/10/10
f 15/15/15 13/13/13 14/14/14
f 16/16/16 10/10/10 7/7/7
f 16/16/16 14/14/14 10/10/10
f 15/15/15 14/14/14 17/17/17
f 18/18/18 15/15/15 17/17/17
f 19/19/19 17/17/17 14/14/14
f 18/18/18 17/17/17 19/19/19
f 16/16/16 19/19/19 14/14/14
f 20/20/20 18/18/18 19/19/19
f 20/20/20 19/19/19 21/21/21
f 21/21/21 19/19/19 16/16/16
f 22/22/22 20/20/20 21/21/21
f 23/23/23 16/16/16 7/7/7
f 23/23/23 21/21/21 16/16/16
f 23/23/23 7/7/7 8/8/8
f 21/21/21 24/24/24 22/22/22
f 24/24/24 21/21/21 23/23/23
f 24/24/24 25/25/25 22/22/22
f 26/26/26 24/24/24 23/23/23
f 26/26/26 23/23/23 8/8/8
f 24/24/24 27/27/27 25/25/25
f 24/24/24 26/26/26 27/27/27
f 27/27/27 28/28/28 25/25/25
f 26/26/26 29/29/29 27/27/27
f 26/26/26 8/8/8 29/29/29
f 27/27/27 30/30/30 28/28/28
f 30/30/30 27/27/27 29/29/29
f 30/30/30 31/31/31 28/28/28
f 30/30/30 32/32/32 31/31/31
f 32/32/32 33/33/33 31/31/31
f 34/34/34 30/30/30 29/29/29
f 30/30/30 34/34/34 32/32/32
f 34/34/34 29/29/29 35/35/35
f 8/8/8 36/36/36 29/29/29
f 29/29/29 36/36/36 35/35/35
f 37/37/37 36/36/36 8/8/8
f 35/35/35 36/36/36 37/37/37
f 9/9/9 37/37/37 8/8/8
f 32/32/32 38/38/38 33/33/33
f 38/38/38 39/39/39 33/33/33
f 34/34/34 40/40/40 32/32/32
f 34/34/34 35/35/35 40/40/40
f 38/38/38 32/32/32 40/40/40
f 38/38/38 41/41/41 39/39/39
f 41/41/41 42/42/42 39/39/39
f 9/9/9 43/43/43 37/37/37
f 43/43/43 9/9/9 5/5/5
f 43/43/43 44/44/44 37/37/37
f 43/43/43 5/5/5 44/44/44
f 45/45/45 35/35/35 37/37/37
f 45/45/45 37/37/37 44/44/44
f 46/46/46 38/38/38 40/40/40
f 38/38/38 46/46/46 41/41/41
f 46/46/46 40/40/40 47/47/47
f 35/35/35 48/48/48 40/40/40
f 40/40/40 48/48/48 47/47/47
f 49/49/49 48/48/48 35/35/35
f 45/45/45 49/49/49 35/35/35
f 47/47/47 48/48/48 49/49/49
f 41/41/41 50/50/50 42/42/42
f 50/50/50 51/51/51 42/42/42
f 51/51/51 50/50/50 52/52/52
f 52/52/52 50/50/50 41/41/41
f 53/53/53 51/51/51 52/52/52
f 53/53/53 52/52/52 54/54/54
f 46/46/46 55/55/55 41/41/41
f 55/55/55 52/52/52 41/41/41
f 46/46/46 47/47/47 55/55/55
f 52/52/52 56/56/56 54/54/54
f 56/56/56 52/52/52 55/55/55
f 54/54/54 56/56/56 57/57/57
f 57/57/57 56/56/56 55/55/55
f 47/47/47 57/57/57 55/55/55
f 58/58/58 54/54/54 57/57/57
f 58/58/58 57/57/57 59/59/59
f 59/59/59 57/57/57 47/47/47
f 60/60/60 58/58/58 59/59/59
f 61/61/61 59/59/59 47/47/47
f 61/61/61 47/47/47 49/49/49
f 60/60/60 59/59/59 62/62/62
f 63/63/63 60/60/60 62/62/62
f 63/63/63 62/62/62 64/64/64
f 61/61/61 65/65/65 59/59/59
f 65/65/65 62/62/62 59/59/59
f 65/65/65 61/61/61 66/66/66
f 61/61/61 49/49/49 66/66/66
f 65/65/65 66/66/66 62/62/62
f 62/62/62 67/67/67 64/64/64
f 66/66/66 67/67/67 62/62/62
f 64/64/64 67/67/67 68/68/68
f 68/68/68 67/67/67 66/66/66
f 69/69/69 64/64/64 68/68/68
f 69/69/69 68/68/68 6/6/6
f 70/70/70 66/66/66 49/49/49
f 70/70/70 68/68/68 66/66/66
f 45/45/45 70/70/70 49/49/49
f 70/70/70 45/45/45 44/44/44
f 70/70/70 44/44/44 68/68/68
f 68/68/68 71/71/71 6/6/6
f 44/44/44 71/71/71 68/68/68
f 6/6/6 71/71/71 5/5/5
f 5/5/5 71/71/71 44/44/44
f 74/74/74 73/73/73 72/72/72
f 75/75/75 73/73/73 74/74/74
f 76/76/76 75/75/75 74/74/74
f 77/77/77 75/75/75 76/76/76
f 78/78/78 74/74/74 72/72/72
f 78/78/78 79/79/79 74/74/74
f 74/74/74 80/80/80 76/76/76
f 79/79/79 80/80/80 74/74/74
f 81/81/81 78/78/78 72/72/72
f 82/82/82 81/81/81 72/72/72
f 83/83/83 81/81/81 82/82/82
f 84/84/84 83/83/83 82/82/82
f 83/83/83 84/84/84 85/85/85
f 83/83/83 85/85/85 81/81/81
f 84/84/84 86/86/86 85/85/85
f 81/81/81 87/87/87 78/78/78
f 85/85/85 87/87/87 81/81/81
f 85/85/85 86/86/86 88/88/88
f 86/86/86 89/89/89 88/88/88
f 88/88/88 90/90/90 85/85/85
f 88/88/88 89/89/89 90/90/90
f 90/90/90 87/87/87 85/85/85
f 89/89/89 91/91/91 90/90/90
f 90/90/90 91/91/91 92/92/92
f 90/90/90 92/92/92 87/87/87
f 91/91/91 93/93/93 92/92/92
f 87/87/87 94/94/94 78/78/78
f 92/92/92 94/94/94 87/87/87
f 78/78/78 94/94/94 79/79/79
f 95/95/95 92/92/92 93/93/93
f 92/92/92 95/95/95 94/94/94
f 96/96/96 95/95/95 93/93/93
f 95/95/95 97/97/97 94/94/94
f 94/94/94 97/97/97 79/79/79
f 98/98/98 95/95/95 96/96/96
f 97/97/97 95/95/95 98/98/98
f 99/99/99 98/98/98 96/96/96
f 100/100/100 97/97/97 98/98/98
f 79/79/79 97/97/97 100/100/100
f 101/101/101 98/98/98 99/99/99
f 98/98/98 101/101/101 100/100/100
f 102/102/102 101/101/101 99/99/99
f 103/103/103 101/101/101 102/102/102
f 104/104/104 103/103/103 102/102/102
f 101/101/101 105/105/105 100/100/100
f 105/105/105 101/101/101 103/103/103
f 100/100/100 105/105/105 106/106/106
f 107/107/107 79/79/79 100/100/100
f 107/107/107 100/100/100 106/106/106
f 107/107/107 108/108/108 79/79/79
f 107/107/107 106/106/106 108/108/108
f 108/108/108 80/80/80 79/79/79
f 109/109/109 103/103/103 104/104/104
f 110/110/110 109/109/109 104/104/104
f 111/111/111 105/105/105 103/103/103
f 106/106/106 105/105/105 111/111/111
f 103/103/103 109/109/109 111/111/111
f 112/112/112 109/109/109 110/110/110
f 113/113/113 112/112/112 110/110/110
f 114/114/114 80/80/80 108/108/108
f 80/80/80 114/114/114 76/76/76
f 115/115/115 114/114/114 108/108/108
f 76/76/76 114/114/114 115/115/115
f 106/106/106 116/116/116 108/108/108
f 108/108/108 116/116/116 115/115/115
f 109/109/109 117/117/117 111/111/111
f 117/117/117 109/109/109 112/112/112
f 111/111/111 117/117/117 118/118/118
f 119/119/119 106/106/106 111/111/111
f 119/119/119 111/111/111 118/118/118
f 119/119/119 120/120/120 106/106/106
f 120/120/120 116/116/116 106/106/106
f 119/119/119 118/118/118 120/120/120
f 121/121/121 112/112/112 113/113/113
f 122/122/122 121/121/121 113/113/113
f 121/121/121 122/122/122 123/123/123
f 121/121/121 123/123/123 112/112/112
f 122/122/122 124/124/124 123/123/123
f 123/123/123 124/124/124 125/125/125
f 126/126/126 117/117/117 112/112/112
f 123/123/123 126/126/126 112/112/112
f 118/118/118 117/117/117 126/126/126
f 127/127/127 123/123/123 125/125/125
f 123/123/123 127/127/127 126/126/126
f 127/127/127 125/125/125 128/128/128
f 127/127/127 128/128/128 126/126/126
f 128/128/128 118/118/118 126/126/126
f 125/125/125 129/129/129 128/128/128
f 128/128/128 129/129/129 130/130/130
f 128/128/128 130/130/130 118/118/118
f 129/129/129 131/131/131 130/130/130
f 130/130/130 132/132/132 118/118/118
f 118/118/118 132/132/132 120/120/120
f 130/130/130 131/131/131 133/133/133
f 131/131/131 134/134/134 133/133/133
f 133/133/133 134/134/134 135/135/135
f 136/136/136 132/132/132 130/130/130
f 133/133/133 136/136/136 130/130/130
f 132/132/132 136/136/136 137/137/137
f 120/120/120 132/132/132 137/137/137
f 137/137/137 136/136/136 133/133/133
f 138/138/138 133/133/133 135/135/135
f 138/138/138 137/137/137 133/133/133
f 138/138/138 135/135/135 139/139/139
f 138/138/138 139/139/139 137/137/137
f 135/135/135 140/140/140 139/139/139
f 139/139/139 140/140/140 77/77/77
f 137/137/137 141/141/141 120/120/120
f 139/139/139 141/141/141 137/137/137
f 141/141/141 116/116/116 120/120/120
f 116/116/116 141/141/141 115/115/115
f 115/115/115 141/141/141 139/139/139
f 142/142/142 139/139/139 77/77/77
f 142/142/142 115/115/115 139/139/139
f 142/142/142 77/77/77 76/76/76
f 142/142/142 76/76/76 115/115/115
