g pm0654_00_TeethSkin
v -0.021563353 0.79624814 0.14887996
v -0.023198482 0.80630577 0.1479404
v -0.020818109 0.80615914 0.1511155
v -0.024113353 0.7971091 0.14691131
v -0.022427917 0.78963596 0.14634319
v -0.028144168 0.8065711 0.14187635
v -0.02455416 0.78959095 0.14511259
v -0.024422074 0.7838648 0.14294776
v -0.027952768 0.79801494 0.14192834
v -0.02994244 0.8054845 0.13763307
v -0.030098585 0.7983127 0.13803862
v -0.027459111 0.79043394 0.14176348
v -0.02846351 0.7910318 0.13903761
v -0.025092022 0.7839635 0.14264464
v -0.025197579 0.7826836 0.14158952
v -0.025956172 0.7841891 0.14157467
v -0.02628308 0.7842982 0.14069065
v -0.030098585 0.7983127 0.13803862
v -0.02416634 0.80204445 0.13588543
v -0.02994244 0.8054845 0.13763307
v -0.024431122 0.7961015 0.13644773
v -0.02846351 0.7910318 0.13903761
v -0.020325655 0.8016551 0.13862528
v -0.024851032 0.7900702 0.13795915
v -0.02628308 0.7842982 0.14069065
v -0.021092078 0.7954073 0.13866267
v -0.025211627 0.78411984 0.14041896
v -0.025197579 0.7826836 0.14158952
v -0.019474616 0.7950054 0.14279918
v -0.018061453 0.80282795 0.14326401
v -0.020818109 0.80615914 0.1511155
v -0.021563353 0.79624814 0.14887996
v -0.021294044 0.78928274 0.14232825
v -0.022427917 0.78963596 0.14634319
v -0.022464462 0.78954095 0.13946493
v -0.024167623 0.7839773 0.141654
v -0.024422074 0.7838648 0.14294776
v -0.024557753 0.7840511 0.14106137
v 0.021563353 0.79624814 0.14887996
v 0.020818109 0.80615914 0.1511155
v 0.023198482 0.80630577 0.1479404
v 0.024113353 0.7971091 0.14691131
v 0.022427917 0.78963596 0.14634319
v 0.028144168 0.8065711 0.14187635
v 0.02455416 0.78959095 0.14511259
v 0.024422074 0.7838648 0.14294776
v 0.027952768 0.79801494 0.14192834
v 0.02994244 0.8054845 0.13763307
v 0.030098585 0.7983127 0.13803862
v 0.027459111 0.79043394 0.14176348
v 0.02846351 0.7910318 0.13903761
v 0.025092022 0.7839635 0.14264464
v 0.025197579 0.7826836 0.14158952
v 0.025956172 0.7841891 0.14157467
v 0.02628308 0.7842982 0.14069065
v 0.030098585 0.7983127 0.13803862
v 0.02994244 0.8054845 0.13763307
v 0.02416634 0.80204445 0.13588543
v 0.024431122 0.7961015 0.13644773
v 0.02846351 0.7910318 0.13903761
v 0.020325655 0.8016551 0.13862528
v 0.024851032 0.7900702 0.13795915
v 0.02628308 0.7842982 0.14069065
v 0.021092078 0.7954073 0.13866267
v 0.025211627 0.78411984 0.14041896
v 0.025197579 0.7826836 0.14158952
v 0.019474616 0.7950054 0.14279918
v 0.018061453 0.80282795 0.14326401
v 0.020818109 0.80615914 0.1511155
v 0.021563353 0.79624814 0.14887996
v 0.021294044 0.78928274 0.14232825
v 0.022427917 0.78963596 0.14634319
v 0.022464462 0.78954095 0.13946493
v 0.024167623 0.7839773 0.141654
v 0.024422074 0.7838648 0.14294776
v 0.024557753 0.7840511 0.14106137
vt 0.8457457 0.28335023
vt 0.84337264 0.30205393
vt 0.8482802 0.30186987
vt 0.8417736 0.28500414
vt 0.8428311 0.2707939
vt 0.8336811 0.3024149
vt 0.8397975 0.2710215
vt 0.84037924 0.26233917
vt 0.83396655 0.28656054
vt 0.8279984 0.30027306
vt 0.8284741 0.28695428
vt 0.83430266 0.2725488
vt 0.8306747 0.27333283
vt 0.8383692 0.26435724
vt 0.8358352 0.25249866
vt 0.8344224 0.26611635
vt 0.8317095 0.26599368
vt 0.80979955 0.28695428
vt 0.8030155 0.2978959
vt 0.81220055 0.30027306
vt 0.8017059 0.28591883
vt 0.8055168 0.27333283
vt 0.79609585 0.29810166
vt 0.80038136 0.274112
vt 0.80162865 0.2637162
vt 0.7965492 0.28529
vt 0.79901385 0.26632833
vt 0.7968991 0.2529807
vt 0.79091597 0.28398764
vt 0.78873444 0.2995031
vt 0.77681506 0.30186987
vt 0.7822876 0.28335023
vt 0.7928411 0.2727164
vt 0.78736365 0.2707939
vt 0.7967434 0.27368844
vt 0.7951042 0.26534745
vt 0.7921515 0.260809
vt 0.79680777 0.26606444
vt 0.8457457 0.28335023
vt 0.8482802 0.30186987
vt 0.84337264 0.30205393
vt 0.8417736 0.28500414
vt 0.8428311 0.2707939
vt 0.8336811 0.3024149
vt 0.8397975 0.2710215
vt 0.84037924 0.26233917
vt 0.83396655 0.28656054
vt 0.8279984 0.30027306
vt 0.8284741 0.28695428
vt 0.83430266 0.2725488
vt 0.8306747 0.27333283
vt 0.8383692 0.26435724
vt 0.8358352 0.25249866
vt 0.8344224 0.26611635
vt 0.8317095 0.26599368
vt 0.80979955 0.28695428
vt 0.81220055 0.30027306
vt 0.8030155 0.2978959
vt 0.8017059 0.28591883
vt 0.8055168 0.27333283
vt 0.79609585 0.29810166
vt 0.80038136 0.274112
vt 0.80162865 0.2637162
vt 0.7965492 0.28529
vt 0.79901385 0.26632833
vt 0.7968991 0.2529807
vt 0.790916 0.28398764
vt 0.78873444 0.2995031
vt 0.77681506 0.30186987
vt 0.7822876 0.28335023
vt 0.79284114 0.2727164
vt 0.78736365 0.2707939
vt 0.7967434 0.27368844
vt 0.7951042 0.26534745
vt 0.7921515 0.260809
vt 0.79680777 0.26606444
vn 0.24965186 -0.39971685 0.8819866
vn -0.5936366 -0.13540389 0.7932599
vn 0.23044977 -0.29968777 0.9257863
vn -0.57162786 -0.20341223 0.79489946
vn 0.22281754 -0.6098832 0.7605228
vn -0.9296614 -0.08136669 0.3593176
vn -0.5428676 -0.38927522 0.7441503
vn 0.05207487 -0.8553751 0.51538503
vn -0.9232193 -0.14384922 0.35633335
vn -0.89030075 -0.13541703 -0.434772
vn -0.8750346 -0.23366635 -0.4239277
vn -0.88063854 -0.32508066 0.3446712
vn -0.8105362 -0.44916296 -0.37587723
vn -0.48243663 -0.67643875 0.556494
vn -0.31602678 -0.9396346 0.13120168
vn -0.7282425 -0.6249103 0.28133613
vn -0.6446278 -0.73320746 -0.21647581
vn -0.8750346 -0.23366635 -0.4239277
vn 0.033497803 -0.1931063 -0.9806059
vn -0.89030075 -0.13541703 -0.434772
vn 0.018541815 -0.28424418 -0.9585726
vn -0.8105362 -0.44916296 -0.37587723
vn 0.7326816 -0.21754378 -0.6448662
vn -0.0053678863 -0.4931347 -0.8699363
vn -0.6446278 -0.73320746 -0.21647581
vn 0.7130148 -0.28511354 -0.6405625
vn -0.045293115 -0.7728225 -0.6330039
vn -0.31602678 -0.9396346 0.13120168
vn 0.92206126 -0.381982 0.062392894
vn 0.95073545 -0.300531 0.076047085
vn 0.23044977 -0.29968777 0.9257863
vn 0.24965186 -0.39971685 0.8819866
vn 0.81725335 -0.57600534 0.017744044
vn 0.22281754 -0.6098832 0.7605228
vn 0.65702665 -0.42867544 -0.6201236
vn 0.54427826 -0.83836615 -0.030055692
vn 0.05207487 -0.8553751 0.51538503
vn 0.537105 -0.6377728 -0.5520544
vn -0.24965239 -0.39971718 0.8819863
vn -0.23045029 -0.29968762 0.9257862
vn 0.5936364 -0.13540378 0.7932601
vn 0.57162774 -0.20341273 0.7948993
vn -0.22281688 -0.6098846 0.7605218
vn 0.9296615 -0.08136662 0.35931742
vn 0.54286665 -0.38927642 0.7441503
vn -0.052073468 -0.8553745 0.5153861
vn 0.92321914 -0.14384925 0.35633397
vn 0.89030087 -0.13541704 -0.43477175
vn 0.875035 -0.23366608 -0.42392683
vn 0.88063747 -0.32508162 0.34467325
vn 0.81053716 -0.4491635 -0.37587446
vn 0.48243505 -0.676439 0.5564949
vn 0.31602666 -0.93963367 0.13120866
vn 0.72823995 -0.6249109 0.2813413
vn 0.6446284 -0.7332093 -0.21646781
vn 0.875035 -0.23366608 -0.42392683
vn 0.89030087 -0.13541704 -0.43477175
vn -0.03349802 -0.19310614 -0.9806059
vn -0.018540647 -0.2842435 -0.95857286
vn 0.81053716 -0.4491635 -0.37587446
vn -0.73268217 -0.21754383 -0.64486545
vn 0.0053697354 -0.49313527 -0.86993605
vn 0.6446284 -0.7332093 -0.21646781
vn -0.7130144 -0.28511345 -0.64056295
vn 0.04529455 -0.77282584 -0.6329997
vn 0.31602666 -0.93963367 0.13120866
vn -0.92206126 -0.381982 0.062393066
vn -0.95073545 -0.30053082 0.07604822
vn -0.23045029 -0.29968762 0.9257862
vn -0.24965239 -0.39971718 0.8819863
vn -0.81725264 -0.57600623 0.01774456
vn -0.22281688 -0.6098846 0.7605218
vn -0.6570258 -0.42867592 -0.6201242
vn -0.5442757 -0.83836794 -0.03005212
vn -0.052073468 -0.8553745 0.5153861
vn -0.5371043 -0.6377751 -0.5520524
g pm0654_00_TeethSkin_0
f 3/3/3 2/2/2 1/1/1
f 2/2/2 4/4/4 1/1/1
f 1/1/1 4/4/4 5/5/5
f 2/2/2 6/6/6 4/4/4
f 4/4/4 7/7/7 5/5/5
f 5/5/5 7/7/7 8/8/8
f 6/6/6 9/9/9 4/4/4
f 4/4/4 9/9/9 7/7/7
f 6/6/6 10/10/10 9/9/9
f 10/10/10 11/11/11 9/9/9
f 9/9/9 11/11/11 12/12/12
f 9/9/9 12/12/12 7/7/7
f 11/11/11 13/13/13 12/12/12
f 7/7/7 14/14/14 8/8/8
f 7/7/7 12/12/12 14/14/14
f 15/15/15 8/8/8 14/14/14
f 12/12/12 13/13/13 16/16/16
f 12/12/12 16/16/16 14/14/14
f 15/15/15 14/14/14 16/16/16
f 13/13/13 17/17/17 16/16/16
f 15/15/15 16/16/16 17/17/17
f 20/20/20 19/19/19 18/18/18
f 19/19/19 21/21/21 18/18/18
f 18/18/18 21/21/21 22/22/22
f 19/19/19 23/23/23 21/21/21
f 21/21/21 24/24/24 22/22/22
f 22/22/22 24/24/24 25/25/25
f 23/23/23 26/26/26 21/21/21
f 21/21/21 26/26/26 24/24/24
f 24/24/24 27/27/27 25/25/25
f 28/28/28 25/25/25 27/27/27
f 29/29/29 26/26/26 23/23/23
f 30/30/30 29/29/29 23/23/23
f 30/30/30 31/31/31 29/29/29
f 31/31/31 32/32/32 29/29/29
f 29/29/29 32/32/32 33/33/33
f 29/29/29 33/33/33 26/26/26
f 32/32/32 34/34/34 33/33/33
f 26/26/26 35/35/35 24/24/24
f 24/24/24 35/35/35 27/27/27
f 33/33/33 35/35/35 26/26/26
f 28/28/28 27/27/27 36/36/36
f 33/33/33 34/34/34 36/36/36
f 28/28/28 36/36/36 37/37/37
f 34/34/34 37/37/37 36/36/36
f 35/35/35 38/38/38 27/27/27
f 35/35/35 33/33/33 38/38/38
f 27/27/27 38/38/38 36/36/36
f 33/33/33 36/36/36 38/38/38
f 41/41/41 40/40/40 39/39/39
f 42/42/42 41/41/41 39/39/39
f 42/42/42 39/39/39 43/43/43
f 44/44/44 41/41/41 42/42/42
f 45/45/45 42/42/42 43/43/43
f 45/45/45 43/43/43 46/46/46
f 47/47/47 44/44/44 42/42/42
f 47/47/47 42/42/42 45/45/45
f 48/48/48 44/44/44 47/47/47
f 49/49/49 48/48/48 47/47/47
f 49/49/49 47/47/47 50/50/50
f 50/50/50 47/47/47 45/45/45
f 51/51/51 49/49/49 50/50/50
f 52/52/52 45/45/45 46/46/46
f 50/50/50 45/45/45 52/52/52
f 46/46/46 53/53/53 52/52/52
f 51/51/51 50/50/50 54/54/54
f 54/54/54 50/50/50 52/52/52
f 52/52/52 53/53/53 54/54/54
f 55/55/55 51/51/51 54/54/54
f 54/54/54 53/53/53 55/55/55
f 58/58/58 57/57/57 56/56/56
f 59/59/59 58/58/58 56/56/56
f 59/59/59 56/56/56 60/60/60
f 61/61/61 58/58/58 59/59/59
f 62/62/62 59/59/59 60/60/60
f 62/62/62 60/60/60 63/63/63
f 64/64/64 61/61/61 59/59/59
f 64/64/64 59/59/59 62/62/62
f 65/65/65 62/62/62 63/63/63
f 63/63/63 66/66/66 65/65/65
f 64/64/64 67/67/67 61/61/61
f 67/67/67 68/68/68 61/61/61
f 69/69/69 68/68/68 67/67/67
f 70/70/70 69/69/69 67/67/67
f 70/70/70 67/67/67 71/71/71
f 71/71/71 67/67/67 64/64/64
f 72/72/72 70/70/70 71/71/71
f 73/73/73 64/64/64 62/62/62
f 73/73/73 62/62/62 65/65/65
f 73/73/73 71/71/71 64/64/64
f 65/65/65 66/66/66 74/74/74
f 72/72/72 71/71/71 74/74/74
f 74/74/74 66/66/66 75/75/75
f 75/75/75 72/72/72 74/74/74
f 76/76/76 73/73/73 65/65/65
f 71/71/71 73/73/73 76/76/76
f 76/76/76 65/65/65 74/74/74
f 74/74/74 71/71/71 76/76/76
