g pm0676_13_Eye7Skin
v 0.09179775 0.9647924 0.47541472
v 0.09916558 0.9748756 0.48881698
v 0.08797002 0.9772253 0.48274168
v 0.08299752 0.98850965 0.4950206
v 0.09126409 0.9866552 0.50009286
v 0.07394163 0.9931484 0.51218355
v 0.10411342 0.9630988 0.48248413
v 0.105395354 0.95858383 0.49791896
v 0.10354619 0.970573 0.5033387
v 0.10990473 0.9602281 0.46803927
v 0.09731893 0.9623032 0.4623156
v 0.11567255 0.95793617 0.45669487
v 0.10492429 0.9593469 0.44873205
v 0.117616765 0.9558049 0.45438543
v 0.1060319 0.95710516 0.44559732
v 0.113150574 0.9532652 0.4661469
v 0.115223765 0.9531802 0.45426267
v 0.104226336 0.95253384 0.44667095
v 0.11046802 0.9492609 0.46327776
v 0.0999292 0.9478847 0.4575494
v 0.104016855 0.943867 0.47519985
v 0.09604118 0.942797 0.47019675
v 0.10831894 0.9498419 0.47985846
v 0.09866715 0.9393407 0.4855982
v 0.090915985 0.93837345 0.47975245
v 0.10504423 0.9455795 0.49333686
v 0.089238584 0.9329745 0.5044846
v 0.079944745 0.9311279 0.49816793
v 0.0995037 0.93894583 0.51401514
v 0.07900663 0.92727965 0.5257641
v 0.070429355 0.9239369 0.5201479
v 0.07031121 0.9229768 0.5471343
v 0.06044582 0.9195198 0.5412899
v 0.09122897 0.9329461 0.5345389
v 0.09584335 0.94529885 0.5402334
v 0.10351634 0.95119876 0.5202304
v 0.1020575 0.9669983 0.52425474
v 0.061238162 0.9203732 0.56404585
v 0.050972722 0.9176723 0.55785775
v 0.07971242 0.92805743 0.5545967
v 0.052940182 0.91803974 0.5796583
v 0.042759866 0.9156955 0.57441777
v 0.09971562 0.97759 0.5086718
v 0.09424538 0.9815018 0.5240401
v 0.0934233 0.96295154 0.54359335
v 0.06697829 0.9248222 0.5698297
v 0.06584868 0.9365852 0.5711537
v 0.082412824 0.94065267 0.55812216
v 0.08049217 0.95688945 0.55945057
v 0.044905365 0.9172432 0.590377
v 0.0352985 0.916863 0.59115374
v 0.043583095 0.9194867 0.5916701
v 0.034749307 0.91813785 0.5927431
v 0.03542153 0.9213565 0.5910833
v 0.055100564 0.922042 0.5819801
v 0.04373653 0.92173785 0.59117264
v 0.051709056 0.9329913 0.5788975
v 0.039067212 0.93521804 0.5743489
v 0.052319005 0.9467276 0.57590955
v 0.039769266 0.94648147 0.5723422
v 0.06518664 0.95189184 0.57014745
v 0.05556744 0.9638409 0.56949276
v 0.043257143 0.9634811 0.5663859
v 0.050461292 0.9802656 0.55330676
v 0.06350459 0.9629115 0.5671851
v 0.07267297 0.97180563 0.5586452
v 0.061339863 0.9790079 0.557161
v 0.07155306 0.9899355 0.53831476
v 0.06230511 0.9917413 0.5339889
v 0.08479269 0.9793572 0.5423282
v 0.083491266 0.99155986 0.51763886
v -0.09179775 0.9647924 0.47541472
v -0.08797002 0.9772253 0.48274168
v -0.09916558 0.9748756 0.48881698
v -0.08299752 0.98850965 0.4950206
v -0.09126409 0.9866552 0.50009286
v -0.07394163 0.9931484 0.51218355
v -0.10411342 0.9630988 0.48248413
v -0.105395354 0.95858383 0.49791896
v -0.10354619 0.970573 0.5033387
v -0.10990473 0.9602281 0.46803927
v -0.09731893 0.9623032 0.4623156
v -0.11567255 0.95793617 0.45669487
v -0.10492429 0.9593469 0.44873205
v -0.117616765 0.9558049 0.45438543
v -0.1060319 0.95710516 0.44559732
v -0.113150574 0.9532652 0.4661469
v -0.115223765 0.9531802 0.45426267
v -0.104226336 0.95253384 0.44667095
v -0.11046802 0.9492609 0.46327776
v -0.0999292 0.9478847 0.4575494
v -0.104016855 0.943867 0.47519985
v -0.09604118 0.942797 0.47019675
v -0.10831894 0.9498419 0.47985846
v -0.09866715 0.9393407 0.4855982
v -0.090915985 0.93837345 0.47975245
v -0.10504423 0.9455795 0.49333686
v -0.089238584 0.9329745 0.5044846
v -0.079944745 0.9311279 0.49816793
v -0.0995037 0.93894583 0.51401514
v -0.07900663 0.92727965 0.5257641
v -0.070429355 0.9239369 0.5201479
v -0.07031121 0.9229768 0.5471343
v -0.06044582 0.9195198 0.5412899
v -0.09122897 0.9329461 0.5345389
v -0.09584335 0.94529885 0.5402334
v -0.10351634 0.95119876 0.5202304
v -0.1020575 0.9669983 0.52425474
v -0.061238162 0.9203732 0.56404585
v -0.050972722 0.9176723 0.55785775
v -0.07971242 0.92805743 0.5545967
v -0.052940182 0.91803974 0.5796583
v -0.042759866 0.9156955 0.57441777
v -0.09971562 0.97759 0.5086718
v -0.09424538 0.9815018 0.5240401
v -0.0934233 0.96295154 0.54359335
v -0.06697829 0.9248222 0.5698297
v -0.06584868 0.9365852 0.5711537
v -0.082412824 0.94065267 0.55812216
v -0.08049217 0.95688945 0.55945057
v -0.044905365 0.9172432 0.590377
v -0.0352985 0.916863 0.59115374
v -0.043583095 0.9194867 0.5916701
v -0.034749307 0.91813785 0.5927431
v -0.03542153 0.9213565 0.5910833
v -0.055100564 0.922042 0.5819801
v -0.04373653 0.92173785 0.59117264
v -0.051709056 0.9329913 0.5788975
v -0.039067212 0.93521804 0.5743489
v -0.052319005 0.9467276 0.57590955
v -0.039769266 0.94648147 0.5723422
v -0.06518664 0.95189184 0.57014745
v -0.05556744 0.9638409 0.56949276
v -0.043257143 0.9634811 0.5663859
v -0.050461292 0.9802656 0.55330676
v -0.06350459 0.9629115 0.5671851
v -0.07267297 0.97180563 0.5586452
v -0.061339863 0.9790079 0.557161
v -0.07155306 0.9899355 0.53831476
v -0.06230511 0.9917413 0.5339889
v -0.08479269 0.9793572 0.5423282
v -0.083491266 0.99155986 0.51763886
vt 0.16287518 0.93539596
vt 0.16886044 0.9431494
vt 0.16580135 0.9480672
vt 0.16997278 0.96588
vt 0.17252147 0.95921916
vt 0.17717415 0.97933906
vt 0.1665057 0.92904913
vt 0.17338175 0.9292583
vt 0.17442071 0.94098026
vt 0.16061747 0.919021
vt 0.15840155 0.92418873
vt 0.1574161 0.91297746
vt 0.15284503 0.91257167
vt 0.15700161 0.9084669
vt 0.15287375 0.90742403
vt 0.16116142 0.91137326
vt 0.15758789 0.90475965
vt 0.15357244 0.9010557
vt 0.16056287 0.9043063
vt 0.16000855 0.89787775
vt 0.16698432 0.9035578
vt 0.16627288 0.895768
vt 0.16723245 0.9146998
vt 0.17232943 0.90249646
vt 0.17193747 0.89401335
vt 0.17295098 0.91623414
vt 0.17911613 0.9015494
vt 0.17852855 0.89228636
vt 0.18031502 0.9166078
vt 0.18760538 0.9018121
vt 0.18764377 0.89170784
vt 0.19587338 0.90508705
vt 0.19656348 0.89410955
vt 0.18754894 0.9167417
vt 0.1875 0.9296875
vt 0.18080795 0.92948395
vt 0.18097669 0.9429152
vt 0.20284629 0.9091699
vt 0.20367742 0.8979294
vt 0.19555259 0.91760725
vt 0.20920211 0.9134675
vt 0.21054357 0.90276676
vt 0.17579836 0.94922215
vt 0.18069649 0.95662785
vt 0.18744302 0.9447487
vt 0.20274669 0.91850346
vt 0.20226222 0.9301362
vt 0.1947968 0.92990935
vt 0.19414335 0.94449264
vt 0.21330214 0.9141241
vt 0.21879965 0.910897
vt 0.21377951 0.9181499
vt 0.21920234 0.914727
vt 0.21896344 0.9220892
vt 0.20902139 0.9185061
vt 0.2136004 0.9220856
vt 0.20860457 0.9303291
vt 0.21251184 0.93927467
vt 0.20599806 0.9435217
vt 0.21027237 0.9496075
vt 0.2005933 0.9445243
vt 0.20172668 0.95880103
vt 0.20548195 0.9660534
vt 0.19768399 0.98059946
vt 0.19924068 0.9549945
vt 0.1942643 0.9593194
vt 0.19569933 0.9708539
vt 0.18732572 0.9757651
vt 0.18728888 0.9855075
vt 0.18738407 0.960342
vt 0.17883867 0.96970433
vt 0.16287515 0.93539596
vt 0.16580135 0.9480672
vt 0.16886044 0.9431494
vt 0.16997275 0.96588
vt 0.1725215 0.95921916
vt 0.17717415 0.97933906
vt 0.16650572 0.92904913
vt 0.17338175 0.9292583
vt 0.17442071 0.94098026
vt 0.16061747 0.919021
vt 0.15840155 0.92418873
vt 0.1574161 0.91297746
vt 0.15284503 0.91257167
vt 0.15700161 0.9084669
vt 0.15287375 0.90742403
vt 0.16116142 0.91137326
vt 0.15758789 0.90475965
vt 0.15357244 0.9010557
vt 0.16056287 0.9043063
vt 0.16000858 0.89787775
vt 0.16698432 0.9035578
vt 0.16627291 0.895768
vt 0.16723245 0.9146998
vt 0.17232946 0.90249646
vt 0.17193747 0.89401335
vt 0.17295101 0.91623414
vt 0.17911613 0.9015494
vt 0.17852855 0.89228636
vt 0.18031499 0.9166078
vt 0.18760535 0.9018121
vt 0.18764377 0.89170784
vt 0.19587338 0.90508705
vt 0.19656348 0.89410955
vt 0.18754894 0.9167417
vt 0.1875 0.9296875
vt 0.18080792 0.92948395
vt 0.18097669 0.9429152
vt 0.20284629 0.9091699
vt 0.20367739 0.8979294
vt 0.19555259 0.91760725
vt 0.20920211 0.9134675
vt 0.21054357 0.90276676
vt 0.17579836 0.94922215
vt 0.18069649 0.95662785
vt 0.18744302 0.9447487
vt 0.20274669 0.91850346
vt 0.20226222 0.9301362
vt 0.19479683 0.92990935
vt 0.19414335 0.94449264
vt 0.21330214 0.9141241
vt 0.21879968 0.910897
vt 0.21377951 0.9181499
vt 0.21920234 0.914727
vt 0.21896341 0.9220892
vt 0.20902139 0.9185061
vt 0.2136004 0.9220856
vt 0.20860457 0.9303291
vt 0.21251184 0.93927467
vt 0.20599806 0.9435217
vt 0.21027237 0.9496075
vt 0.2005933 0.9445243
vt 0.20172668 0.95880103
vt 0.20548195 0.9660534
vt 0.19768399 0.98059946
vt 0.19924068 0.9549945
vt 0.1942643 0.9593194
vt 0.19569933 0.9708539
vt 0.18732569 0.9757651
vt 0.18728888 0.9855075
vt 0.18738407 0.960342
vt 0.17883867 0.96970433
vn 0.74649715 0.63699114 -0.19231287
vn 0.7871952 0.6115251 -0.07975432
vn 0.66558486 0.7297009 -0.15663122
vn 0.5666139 0.82261425 -0.04748151
vn 0.66695035 0.7450456 0.009178361
vn 0.45023444 0.87741244 0.16563891
vn 0.9241808 0.36579305 -0.10993375
vn 0.99473345 0.08520538 0.056969002
vn 0.8964165 0.43678057 0.07523452
vn 0.899275 0.39640677 -0.18484099
vn 0.7712309 0.5948423 -0.2266398
vn 0.88839966 0.37987843 -0.25775668
vn 0.83391976 0.46065176 -0.30393714
vn 0.9517938 -0.010341257 -0.30656415
vn 0.9194884 0.03626869 -0.39144075
vn 0.97429895 -0.11414962 -0.19419432
vn 0.8578618 -0.39989567 -0.32273272
vn 0.81741047 -0.4378594 -0.37432516
vn 0.80832684 -0.541607 -0.23080193
vn 0.691962 -0.66890347 -0.271582
vn 0.74839175 -0.6480929 -0.14101514
vn 0.60792893 -0.77302235 -0.18127038
vn 0.96438307 -0.24584304 -0.09760425
vn 0.6902157 -0.7205327 -0.06659541
vn 0.5540827 -0.82464296 -0.1138261
vn 0.914052 -0.4054562 0.010689377
vn 0.6379421 -0.7700129 0.010480402
vn 0.51488525 -0.8558337 -0.0494148
vn 0.84852475 -0.51305926 0.12952183
vn 0.59251904 -0.798381 0.10728045
vn 0.4834943 -0.87487996 0.028604167
vn 0.55336577 -0.80038327 0.23059256
vn 0.45763078 -0.8795629 0.13016582
vn 0.7782785 -0.56506974 0.2738225
vn 0.8801855 -0.163298 0.44565362
vn 0.9667322 -0.085882984 0.2409421
vn 0.9018324 0.32194373 0.28818488
vn 0.5134016 -0.765936 0.3869894
vn 0.43452713 -0.85916597 0.27022192
vn 0.7021162 -0.5570846 0.44349703
vn 0.4599684 -0.6800096 0.57097805
vn 0.40818757 -0.78450215 0.46683955
vn 0.7782213 0.6203208 0.09784503
vn 0.74026495 0.61193424 0.27846754
vn 0.8096782 0.25112656 0.5304307
vn 0.6077696 -0.483854 0.62968355
vn 0.5679839 -0.06469922 0.8204927
vn 0.7456633 -0.15512058 0.6480154
vn 0.64371914 0.22162537 0.732467
vn 0.40649 -0.56420106 0.71863973
vn 0.3731467 -0.60284466 0.7052232
vn 0.38005242 -0.27627975 0.88273984
vn 0.31638485 -0.25378326 0.914054
vn 0.22627634 0.08027865 0.97074944
vn 0.48121363 -0.35769242 0.80030596
vn 0.2979314 0.025286814 0.9542523
vn 0.3454509 0.08629594 0.9344606
vn 0.17931539 0.2510643 0.9512164
vn 0.25012597 0.3393271 0.9068044
vn 0.12075577 0.4115229 0.90336424
vn 0.45222974 0.24736233 0.8569132
vn 0.21674402 0.5078594 0.8337271
vn 0.11154849 0.5641486 0.8181035
vn 0.18159162 0.7220972 0.66753274
vn 0.36413234 0.42330942 0.82958835
vn 0.47926143 0.4881326 0.7294073
vn 0.29407117 0.65101635 0.6997855
vn 0.43044442 0.76606846 0.47734344
vn 0.3102121 0.8456883 0.43425775
vn 0.63126755 0.56773627 0.5283719
vn 0.5641347 0.7977013 0.21313073
vn -0.7464972 0.6369912 -0.1923122
vn -0.6655849 0.7297009 -0.15663093
vn -0.78719515 0.61152524 -0.07975404
vn -0.5666137 0.82261443 -0.04748122
vn -0.6669503 0.74504566 0.009178642
vn -0.4502342 0.87741256 0.1656392
vn -0.9241808 0.3657931 -0.10993301
vn -0.99473345 0.08520523 0.05696916
vn -0.89641637 0.4367808 0.07523468
vn -0.8992752 0.3964071 -0.18483908
vn -0.7712312 0.5948427 -0.22663814
vn -0.8884002 0.37987864 -0.25775403
vn -0.8339206 0.4606522 -0.30393448
vn -0.95179474 -0.01034089 -0.30656135
vn -0.91948944 0.03626909 -0.39143798
vn -0.97429943 -0.11414949 -0.1941923
vn -0.85786265 -0.39989576 -0.32273054
vn -0.8174114 -0.4378592 -0.37432322
vn -0.80832714 -0.54160726 -0.2308005
vn -0.6919623 -0.6689034 -0.2715809
vn -0.7483916 -0.64809316 -0.14101443
vn -0.6079288 -0.77302253 -0.1812697
vn -0.9643832 -0.24584307 -0.097603425
vn -0.6902154 -0.720533 -0.066595145
vn -0.55408245 -0.82464314 -0.11382579
vn -0.9140519 -0.40545633 0.010689538
vn -0.637942 -0.77001315 0.010480402
vn -0.51488507 -0.85583377 -0.049414806
vn -0.84852475 -0.51305944 0.12952168
vn -0.5925189 -0.79838115 0.10728017
vn -0.4834943 -0.8748801 0.028604036
vn -0.55336577 -0.8003834 0.23059215
vn -0.45763078 -0.8795629 0.13016538
vn -0.7782785 -0.5650699 0.2738221
vn -0.8801856 -0.16329806 0.44565344
vn -0.9667322 -0.085883014 0.24094202
vn -0.9018324 0.32194382 0.2881848
vn -0.5134018 -0.7659362 0.38698894
vn -0.4345273 -0.8591661 0.27022144
vn -0.7021162 -0.55708486 0.44349664
vn -0.45996872 -0.68000996 0.57097733
vn -0.40818796 -0.78450245 0.4668387
vn -0.77822113 0.62032115 0.09784532
vn -0.74026465 0.61193466 0.2784677
vn -0.80967796 0.2511266 0.53043085
vn -0.60776967 -0.48385435 0.62968326
vn -0.5679839 -0.06469954 0.8204927
vn -0.74566334 -0.15512072 0.64801526
vn -0.64371896 0.22162524 0.7324672
vn -0.40649068 -0.5642021 0.71863854
vn -0.37314737 -0.6028458 0.7052219
vn -0.380053 -0.2762811 0.8827392
vn -0.3163857 -0.25378484 0.9140533
vn -0.22627696 0.080277465 0.9707493
vn -0.48121393 -0.3576932 0.8003054
vn -0.29793212 0.025285907 0.9542521
vn -0.34545124 0.086295314 0.9344606
vn -0.179316 0.25106362 0.9512165
vn -0.250126 0.33932677 0.9068044
vn -0.12075604 0.41152263 0.90336424
vn -0.4522296 0.24736218 0.8569132
vn -0.2167439 0.50785923 0.8337271
vn -0.11154868 0.5641485 0.81810355
vn -0.18159151 0.72209716 0.6675329
vn -0.36413208 0.42330933 0.8295885
vn -0.47926104 0.48813266 0.7294075
vn -0.2940708 0.65101653 0.6997856
vn -0.43044388 0.7660687 0.4773435
vn -0.31021184 0.8456884 0.4342578
vn -0.63126725 0.56773645 0.528372
vn -0.5641343 0.7977015 0.213131
g pm0676_13_Eye7Skin_0
f 3/3/3 2/2/2 1/1/1
f 3/3/3 4/4/4 2/2/2
f 4/4/4 5/5/5 2/2/2
f 4/4/4 6/6/6 5/5/5
f 2/2/2 7/7/7 1/1/1
f 8/8/8 7/7/7 2/2/2
f 9/9/9 2/2/2 5/5/5
f 9/9/9 8/8/8 2/2/2
f 7/7/7 10/10/10 1/1/1
f 10/10/10 11/11/11 1/1/1
f 10/10/10 12/12/12 11/11/11
f 12/12/12 13/13/13 11/11/11
f 13/13/13 12/12/12 14/14/14
f 14/14/14 12/12/12 10/10/10
f 15/15/15 13/13/13 14/14/14
f 16/16/16 10/10/10 7/7/7
f 16/16/16 14/14/14 10/10/10
f 15/15/15 14/14/14 17/17/17
f 18/18/18 15/15/15 17/17/17
f 19/19/19 17/17/17 14/14/14
f 18/18/18 17/17/17 19/19/19
f 16/16/16 19/19/19 14/14/14
f 20/20/20 18/18/18 19/19/19
f 20/20/20 19/19/19 21/21/21
f 21/21/21 19/19/19 16/16/16
f 22/22/22 20/20/20 21/21/21
f 23/23/23 16/16/16 7/7/7
f 23/23/23 21/21/21 16/16/16
f 23/23/23 7/7/7 8/8/8
f 21/21/21 24/24/24 22/22/22
f 24/24/24 21/21/21 23/23/23
f 24/24/24 25/25/25 22/22/22
f 26/26/26 24/24/24 23/23/23
f 26/26/26 23/23/23 8/8/8
f 24/24/24 27/27/27 25/25/25
f 24/24/24 26/26/26 27/27/27
f 27/27/27 28/28/28 25/25/25
f 26/26/26 29/29/29 27/27/27
f 26/26/26 8/8/8 29/29/29
f 27/27/27 30/30/30 28/28/28
f 30/30/30 27/27/27 29/29/29
f 30/30/30 31/31/31 28/28/28
f 30/30/30 32/32/32 31/31/31
f 32/32/32 33/33/33 31/31/31
f 34/34/34 30/30/30 29/29/29
f 30/30/30 34/34/34 32/32/32
f 34/34/34 29/29/29 35/35/35
f 8/8/8 36/36/36 29/29/29
f 29/29/29 36/36/36 35/35/35
f 37/37/37 36/36/36 8/8/8
f 35/35/35 36/36/36 37/37/37
f 9/9/9 37/37/37 8/8/8
f 32/32/32 38/38/38 33/33/33
f 38/38/38 39/39/39 33/33/33
f 34/34/34 40/40/40 32/32/32
f 34/34/34 35/35/35 40/40/40
f 38/38/38 32/32/32 40/40/40
f 38/38/38 41/41/41 39/39/39
f 41/41/41 42/42/42 39/39/39
f 9/9/9 43/43/43 37/37/37
f 43/43/43 9/9/9 5/5/5
f 43/43/43 44/44/44 37/37/37
f 43/43/43 5/5/5 44/44/44
f 45/45/45 35/35/35 37/37/37
f 45/45/45 37/37/37 44/44/44
f 46/46/46 38/38/38 40/40/40
f 38/38/38 46/46/46 41/41/41
f 46/46/46 40/40/40 47/47/47
f 35/35/35 48/48/48 40/40/40
f 40/40/40 48/48/48 47/47/47
f 49/49/49 48/48/48 35/35/35
f 45/45/45 49/49/49 35/35/35
f 47/47/47 48/48/48 49/49/49
f 41/41/41 50/50/50 42/42/42
f 50/50/50 51/51/51 42/42/42
f 51/51/51 50/50/50 52/52/52
f 52/52/52 50/50/50 41/41/41
f 53/53/53 51/51/51 52/52/52
f 53/53/53 52/52/52 54/54/54
f 46/46/46 55/55/55 41/41/41
f 55/55/55 52/52/52 41/41/41
f 46/46/46 47/47/47 55/55/55
f 52/52/52 56/56/56 54/54/54
f 56/56/56 52/52/52 55/55/55
f 54/54/54 56/56/56 57/57/57
f 57/57/57 56/56/56 55/55/55
f 47/47/47 57/57/57 55/55/55
f 58/58/58 54/54/54 57/57/57
f 58/58/58 57/57/57 59/59/59
f 59/59/59 57/57/57 47/47/47
f 60/60/60 58/58/58 59/59/59
f 61/61/61 59/59/59 47/47/47
f 61/61/61 47/47/47 49/49/49
f 60/60/60 59/59/59 62/62/62
f 63/63/63 60/60/60 62/62/62
f 63/63/63 62/62/62 64/64/64
f 61/61/61 65/65/65 59/59/59
f 65/65/65 62/62/62 59/59/59
f 65/65/65 61/61/61 66/66/66
f 61/61/61 49/49/49 66/66/66
f 65/65/65 66/66/66 62/62/62
f 62/62/62 67/67/67 64/64/64
f 66/66/66 67/67/67 62/62/62
f 64/64/64 67/67/67 68/68/68
f 68/68/68 67/67/67 66/66/66
f 69/69/69 64/64/64 68/68/68
f 69/69/69 68/68/68 6/6/6
f 70/70/70 66/66/66 49/49/49
f 70/70/70 68/68/68 66/66/66
f 45/45/45 70/70/70 49/49/49
f 70/70/70 45/45/45 44/44/44
f 70/70/70 44/44/44 68/68/68
f 68/68/68 71/71/71 6/6/6
f 44/44/44 71/71/71 68/68/68
f 6/6/6 71/71/71 5/5/5
f 5/5/5 71/71/71 44/44/44
f 74/74/74 73/73/73 72/72/72
f 75/75/75 73/73/73 74/74/74
f 76/76/76 75/75/75 74/74/74
f 77/77/77 75/75/75 76/76/76
f 78/78/78 74/74/74 72/72/72
f 78/78/78 79/79/79 74/74/74
f 74/74/74 80/80/80 76/76/76
f 79/79/79 80/80/80 74/74/74
f 81/81/81 78/78/78 72/72/72
f 82/82/82 81/81/81 72/72/72
f 83/83/83 81/81/81 82/82/82
f 84/84/84 83/83/83 82/82/82
f 83/83/83 84/84/84 85/85/85
f 83/83/83 85/85/85 81/81/81
f 84/84/84 86/86/86 85/85/85
f 81/81/81 87/87/87 78/78/78
f 85/85/85 87/87/87 81/81/81
f 85/85/85 86/86/86 88/88/88
f 86/86/86 89/89/89 88/88/88
f 88/88/88 90/90/90 85/85/85
f 88/88/88 89/89/89 90/90/90
f 90/90/90 87/87/87 85/85/85
f 89/89/89 91/91/91 90/90/90
f 90/90/90 91/91/91 92/92/92
f 90/90/90 92/92/92 87/87/87
f 91/91/91 93/93/93 92/92/92
f 87/87/87 94/94/94 78/78/78
f 92/92/92 94/94/94 87/87/87
f 78/78/78 94/94/94 79/79/79
f 95/95/95 92/92/92 93/93/93
f 92/92/92 95/95/95 94/94/94
f 96/96/96 95/95/95 93/93/93
f 95/95/95 97/97/97 94/94/94
f 94/94/94 97/97/97 79/79/79
f 98/98/98 95/95/95 96/96/96
f 97/97/97 95/95/95 98/98/98
f 99/99/99 98/98/98 96/96/96
f 100/100/100 97/97/97 98/98/98
f 79/79/79 97/97/97 100/100/100
f 101/101/101 98/98/98 99/99/99
f 98/98/98 101/101/101 100/100/100
f 102/102/102 101/101/101 99/99/99
f 103/103/103 101/101/101 102/102/102
f 104/104/104 103/103/103 102/102/102
f 101/101/101 105/105/105 100/100/100
f 105/105/105 101/101/101 103/103/103
f 100/100/100 105/105/105 106/106/106
f 107/107/107 79/79/79 100/100/100
f 107/107/107 100/100/100 106/106/106
f 107/107/107 108/108/108 79/79/79
f 107/107/107 106/106/106 108/108/108
f 108/108/108 80/80/80 79/79/79
f 109/109/109 103/103/103 104/104/104
f 110/110/110 109/109/109 104/104/104
f 111/111/111 105/105/105 103/103/103
f 106/106/106 105/105/105 111/111/111
f 103/103/103 109/109/109 111/111/111
f 112/112/112 109/109/109 110/110/110
f 113/113/113 112/112/112 110/110/110
f 114/114/114 80/80/80 108/108/108
f 80/80/80 114/114/114 76/76/76
f 115/115/115 114/114/114 108/108/108
f 76/76/76 114/114/114 115/115/115
f 106/106/106 116/116/116 108/108/108
f 108/108/108 116/116/116 115/115/115
f 109/109/109 117/117/117 111/111/111
f 117/117/117 109/109/109 112/112/112
f 111/111/111 117/117/117 118/118/118
f 119/119/119 106/106/106 111/111/111
f 119/119/119 111/111/111 118/118/118
f 119/119/119 120/120/120 106/106/106
f 120/120/120 116/116/116 106/106/106
f 119/119/119 118/118/118 120/120/120
f 121/121/121 112/112/112 113/113/113
f 122/122/122 121/121/121 113/113/113
f 121/121/121 122/122/122 123/123/123
f 121/121/121 123/123/123 112/112/112
f 122/122/122 124/124/124 123/123/123
f 123/123/123 124/124/124 125/125/125
f 126/126/126 117/117/117 112/112/112
f 123/123/123 126/126/126 112/112/112
f 118/118/118 117/117/117 126/126/126
f 127/127/127 123/123/123 125/125/125
f 123/123/123 127/127/127 126/126/126
f 127/127/127 125/125/125 128/128/128
f 127/127/127 128/128/128 126/126/126
f 128/128/128 118/118/118 126/126/126
f 125/125/125 129/129/129 128/128/128
f 128/128/128 129/129/129 130/130/130
f 128/128/128 130/130/130 118/118/118
f 129/129/129 131/131/131 130/130/130
f 130/130/130 132/132/132 118/118/118
f 118/118/118 132/132/132 120/120/120
f 130/130/130 131/131/131 133/133/133
f 131/131/131 134/134/134 133/133/133
f 133/133/133 134/134/134 135/135/135
f 136/136/136 132/132/132 130/130/130
f 133/133/133 136/136/136 130/130/130
f 132/132/132 136/136/136 137/137/137
f 120/120/120 132/132/132 137/137/137
f 137/137/137 136/136/136 133/133/133
f 138/138/138 133/133/133 135/135/135
f 138/138/138 137/137/137 133/133/133
f 138/138/138 135/135/135 139/139/139
f 138/138/138 139/139/139 137/137/137
f 135/135/135 140/140/140 139/139/139
f 139/139/139 140/140/140 77/77/77
f 137/137/137 141/141/141 120/120/120
f 139/139/139 141/141/141 137/137/137
f 141/141/141 116/116/116 120/120/120
f 116/116/116 141/141/141 115/115/115
f 115/115/115 141/141/141 139/139/139
f 142/142/142 139/139/139 77/77/77
f 142/142/142 115/115/115 139/139/139
f 142/142/142 77/77/77 76/76/76
f 142/142/142 76/76/76 115/115/115
