g pm0676_18_Eye123Skin
v -0.068651624 1.0000393 0.5192198
v -0.057050433 0.99532384 0.5406306
v -0.06648277 0.99392074 0.54454803
v -0.04657422 0.9803901 0.558044
v -0.078398116 0.99894404 0.52433604
v -0.08691881 0.99673665 0.50630265
v -0.07841413 0.9981573 0.50159305
v -0.09023706 0.98956037 0.52907425
v -0.09513287 0.98742795 0.49286714
v -0.08725327 0.9892707 0.48777446
v -0.089534245 0.9783004 0.47842884
v -0.05755325 0.97970426 0.56155866
v -0.05367838 0.96182036 0.571359
v -0.04150077 0.9605585 0.56833214
v -0.040199075 0.9415084 0.57148147
v -0.06954072 0.9735991 0.56179076
v -0.052501142 0.94305015 0.57495266
v -0.04088923 0.929623 0.57165736
v -0.080790944 0.98444545 0.54677945
v -0.06153844 0.96229786 0.56887984
v -0.06438483 0.9510351 0.5700024
v -0.06621998 0.9356369 0.5681689
v -0.053311437 0.92871255 0.5755411
v -0.03952465 0.91235423 0.58597153
v -0.0788321 0.95966 0.56017417
v -0.09116076 0.96913564 0.5454441
v -0.09541518 0.9526009 0.53940433
v -0.09966465 0.9761537 0.5270529
v -0.082081564 0.9440107 0.55602634
v -0.09636397 0.9878954 0.5133643
v -0.10105562 0.9819776 0.5070595
v -0.10417083 0.97114843 0.49993762
v -0.08028631 0.9317629 0.5502634
v -0.10283414 0.96143836 0.5206957
v -0.10013432 0.9499474 0.5127537
v -0.09898714 0.97752094 0.48364523
v -0.09190086 0.94082314 0.5317741
v -0.10297123 0.978323 0.46566
v -0.09568338 0.9789829 0.46271262
v -0.106184416 0.97816014 0.45289576
v -0.10173358 0.9790022 0.44943622
v -0.10666498 0.9763723 0.449893
v -0.10290412 0.97733396 0.44703242
v -0.1074725 0.9721937 0.46298248
v -0.106458224 0.9658043 0.47907475
v -0.10645369 0.9730699 0.45040774
v -0.102230124 0.9733496 0.44682539
v -0.10428303 0.96770513 0.45796627
v -0.098210506 0.9669817 0.4549516
v -0.099422865 0.95912445 0.47300994
v -0.092542455 0.95823056 0.46846095
v -0.09505437 0.95217556 0.4854764
v -0.08735135 0.95055145 0.48123083
v -0.10476042 0.9590931 0.49343735
v -0.08902929 0.9443794 0.5018812
v -0.08140899 0.94215155 0.49605596
v -0.08014434 0.9353443 0.52225995
v -0.07202068 0.93206656 0.51635087
v -0.07112962 0.9268552 0.54196316
v -0.06188564 0.9234263 0.5359092
v -0.06278349 0.9202355 0.55822533
v -0.053089608 0.9175754 0.5519629
v -0.06824286 0.924334 0.5647102
v -0.055946834 0.9139326 0.57366645
v -0.04623737 0.911413 0.5683195
v -0.05773517 0.91775113 0.57661545
v -0.049122967 0.90998137 0.58452505
v -0.039872166 0.908146 0.5853487
v -0.047666993 0.9117291 0.5861865
v -0.039250813 0.9089633 0.58711475
v -0.047538687 0.9140661 0.5860499
v 0.068651624 1.0000393 0.5192198
v 0.06648277 0.99392074 0.54454803
v 0.057050433 0.99532384 0.5406306
v 0.04657422 0.9803901 0.558044
v 0.078398116 0.99894404 0.52433604
v 0.08691881 0.99673665 0.50630265
v 0.07841413 0.9981573 0.50159305
v 0.09023706 0.98956037 0.52907425
v 0.09513287 0.98742795 0.49286714
v 0.08725327 0.9892707 0.48777446
v 0.089534245 0.9783004 0.47842884
v 0.05755325 0.97970426 0.56155866
v 0.05367838 0.96182036 0.571359
v 0.04150077 0.9605585 0.56833214
v 0.040199075 0.9415084 0.57148147
v 0.06954072 0.9735991 0.56179076
v 0.052501142 0.94305015 0.57495266
v 0.04088923 0.929623 0.57165736
v 0.080790944 0.98444545 0.54677945
v 0.06153844 0.96229786 0.56887984
v 0.06438483 0.9510351 0.5700024
v 0.06621998 0.9356369 0.5681689
v 0.053311437 0.92871255 0.5755411
v 0.03952465 0.91235423 0.58597153
v 0.0788321 0.95966 0.56017417
v 0.09116076 0.96913564 0.5454441
v 0.09541518 0.9526009 0.53940433
v 0.09966465 0.9761537 0.5270529
v 0.082081564 0.9440107 0.55602634
v 0.09636397 0.9878954 0.5133643
v 0.10105562 0.9819776 0.5070595
v 0.10417083 0.97114843 0.49993762
v 0.08028631 0.9317629 0.5502634
v 0.10283414 0.96143836 0.5206957
v 0.10013432 0.9499474 0.5127537
v 0.09898714 0.97752094 0.48364523
v 0.09190086 0.94082314 0.5317741
v 0.10297123 0.978323 0.46566
v 0.09568338 0.9789829 0.46271262
v 0.106184416 0.97816014 0.45289576
v 0.10173358 0.9790022 0.44943622
v 0.10666498 0.9763723 0.449893
v 0.10290412 0.97733396 0.44703242
v 0.1074725 0.9721937 0.46298248
v 0.106458224 0.9658043 0.47907475
v 0.10645369 0.9730699 0.45040774
v 0.102230124 0.9733496 0.44682539
v 0.10428303 0.96770513 0.45796627
v 0.098210506 0.9669817 0.4549516
v 0.099422865 0.95912445 0.47300994
v 0.092542455 0.95823056 0.46846095
v 0.09505437 0.95217556 0.4854764
v 0.08735135 0.95055145 0.48123083
v 0.10476042 0.9590931 0.49343735
v 0.08902929 0.9443794 0.5018812
v 0.08140899 0.94215155 0.49605596
v 0.08014434 0.9353443 0.52225995
v 0.07202068 0.93206656 0.51635087
v 0.07112962 0.9268552 0.54196316
v 0.06188564 0.9234263 0.5359092
v 0.06278349 0.9202355 0.55822533
v 0.053089608 0.9175754 0.5519629
v 0.06824286 0.924334 0.5647102
v 0.055946834 0.9139326 0.57366645
v 0.04623737 0.911413 0.5683195
v 0.05773517 0.91775113 0.57661545
v 0.049122967 0.90998137 0.58452505
v 0.039872166 0.908146 0.5853487
v 0.047666993 0.9117291 0.5861865
v 0.039250813 0.9089633 0.58711475
v 0.047538687 0.9140661 0.5860499
vt 0.43052757 0.9838316
vt 0.4408691 0.98468757
vt 0.44028097 0.9750885
vt 0.45077658 0.97450703
vt 0.4315464 0.9734993
vt 0.42466265 0.96644247
vt 0.42258322 0.9743055
vt 0.43253577 0.9596837
vt 0.42003316 0.952526
vt 0.41733956 0.9589374
vt 0.4136507 0.9479845
vt 0.4482003 0.96594584
vt 0.45335513 0.95098925
vt 0.45751286 0.9561868
vt 0.46116966 0.937547
vt 0.44605035 0.95534253
vt 0.4565766 0.933764
vt 0.46271002 0.9262324
vt 0.4393502 0.9598919
vt 0.4506668 0.9485263
vt 0.4513259 0.93753386
vt 0.45204514 0.92252547
vt 0.45829445 0.9194483
vt 0.46742618 0.9146598
vt 0.44498128 0.9408244
vt 0.4384089 0.94452703
vt 0.4375 0.9296875
vt 0.43193293 0.946055
vt 0.4446897 0.9261471
vt 0.42724442 0.95492446
vt 0.4253618 0.9475288
vt 0.4235891 0.9365372
vt 0.44464463 0.9136607
vt 0.43090594 0.93293405
vt 0.42959625 0.920526
vt 0.41681397 0.939873
vt 0.43671882 0.9169316
vt 0.41038114 0.9330446
vt 0.4085331 0.93926746
vt 0.40570053 0.9298187
vt 0.401202 0.93117934
vt 0.40429637 0.92481357
vt 0.40076062 0.92498595
vt 0.41042608 0.9252438
vt 0.41660935 0.9253882
vt 0.40528667 0.91981244
vt 0.40174797 0.91668963
vt 0.4093848 0.9186028
vt 0.40842777 0.911213
vt 0.41565162 0.9145592
vt 0.41445267 0.9072652
vt 0.42083967 0.91076213
vt 0.4199103 0.9026227
vt 0.42233127 0.923951
vt 0.42745256 0.9063354
vt 0.42628157 0.8975289
vt 0.4358176 0.9022218
vt 0.43520778 0.8922655
vt 0.44415796 0.90118307
vt 0.44413304 0.8900334
vt 0.45127642 0.90160704
vt 0.45137346 0.89012593
vt 0.45177633 0.91083634
vt 0.45780182 0.9025595
vt 0.4584353 0.8913457
vt 0.45794678 0.9076069
vt 0.46252096 0.9025173
vt 0.46691033 0.8922975
vt 0.46256006 0.90879667
vt 0.4668579 0.9065679
vt 0.4626898 0.91597
vt 0.43052757 0.9838316
vt 0.44028097 0.9750885
vt 0.44086903 0.98468757
vt 0.45077658 0.97450703
vt 0.4315465 0.9734993
vt 0.42466265 0.96644247
vt 0.42258322 0.9743055
vt 0.43253565 0.9596837
vt 0.42003316 0.952526
vt 0.41733956 0.9589374
vt 0.41365063 0.9479845
vt 0.44820035 0.96594584
vt 0.45335513 0.95098925
vt 0.4575128 0.9561868
vt 0.46116972 0.937547
vt 0.44605035 0.95534253
vt 0.45657653 0.933764
vt 0.46271002 0.9262324
vt 0.4393502 0.9598919
vt 0.4506668 0.9485263
vt 0.4513259 0.93753386
vt 0.45204508 0.92252547
vt 0.45829445 0.9194483
vt 0.4674261 0.9146598
vt 0.44498122 0.9408244
vt 0.43840897 0.94452703
vt 0.4375 0.9296875
vt 0.43193293 0.946055
vt 0.4446897 0.9261471
vt 0.42724437 0.95492446
vt 0.42536175 0.9475288
vt 0.42358905 0.9365372
vt 0.44464463 0.9136607
vt 0.43090594 0.93293405
vt 0.42959625 0.920526
vt 0.41681403 0.939873
vt 0.43671876 0.9169316
vt 0.41038114 0.9330446
vt 0.40853316 0.93926746
vt 0.4057004 0.9298187
vt 0.401202 0.93117934
vt 0.40429637 0.92481357
vt 0.40076062 0.92498595
vt 0.41042608 0.9252438
vt 0.41660935 0.9253882
vt 0.40528667 0.91981244
vt 0.40174797 0.91668963
vt 0.40938485 0.9186028
vt 0.40842783 0.911213
vt 0.41565162 0.9145592
vt 0.41445267 0.9072652
vt 0.42083967 0.91076213
vt 0.41991025 0.9026227
vt 0.4223312 0.923951
vt 0.42745262 0.9063354
vt 0.42628163 0.8975289
vt 0.4358176 0.9022218
vt 0.43520772 0.8922655
vt 0.44415796 0.90118307
vt 0.44413292 0.8900334
vt 0.45127636 0.90160704
vt 0.45137346 0.89012593
vt 0.45177633 0.91083634
vt 0.45780182 0.9025595
vt 0.4584353 0.8913457
vt 0.45794678 0.9076069
vt 0.46252105 0.9025173
vt 0.46691045 0.89229757
vt 0.46255997 0.90879667
vt 0.4668579 0.9065679
vt 0.4626897 0.91597
vn -0.28345704 0.9332453 0.2206927
vn -0.13878627 0.84392756 0.51819366
vn -0.30045667 0.7664897 0.5676436
vn -0.020129025 0.6452026 0.7637463
vn -0.4369465 0.85525185 0.2786073
vn -0.55358016 0.832018 0.035984423
vn -0.41396943 0.90977186 -0.03073289
vn -0.67235523 0.65527195 0.344321
vn -0.68723017 0.7217123 -0.08274004
vn -0.51332 0.84323955 -0.15952928
vn -0.57140344 0.80248183 -0.17181699
vn -0.17659305 0.57833487 0.7964569
vn -0.11706641 0.3774545 0.9185988
vn 0.03435032 0.42549437 0.9043089
vn 0.006407478 0.27134892 0.9624598
vn -0.42301327 0.4139211 0.8060578
vn -0.17923403 0.20928769 0.9612876
vn -0.08145044 0.17448322 0.9812856
vn -0.5654444 0.55682623 0.6084547
vn -0.3135955 0.30569485 0.89900416
vn -0.43254313 0.1367372 0.8911843
vn -0.59906214 -0.12899251 0.790244
vn -0.3336392 0.02479485 0.9423747
vn -0.16387033 0.04679288 0.9853715
vn -0.629985 0.15037705 0.76190925
vn -0.790722 0.23300466 0.56609845
vn -0.89541847 -0.16934015 0.41176417
vn -0.8783101 0.3572096 0.31776184
vn -0.7698741 -0.19663784 0.607147
vn -0.70847917 0.6922756 0.13715586
vn -0.85205394 0.5165912 0.08448508
vn -0.9827428 0.18344931 0.023723751
vn -0.75601715 -0.57463384 0.31342322
vn -0.9768812 -0.0459713 0.20878172
vn -0.8751975 -0.4831361 0.024674945
vn -0.8388931 0.5311981 -0.11868847
vn -0.81113553 -0.5625106 0.16012779
vn -0.76925415 0.6203643 -0.15295807
vn -0.5658468 0.8066528 -0.17067134
vn -0.7438618 0.6241568 -0.23895188
vn -0.64707404 0.70723754 -0.2847987
vn -0.8972537 0.207853 -0.389529
vn -0.8233626 0.2736051 -0.4972065
vn -0.9629541 0.06296919 -0.26221037
vn -0.97487086 -0.1250917 -0.18433306
vn -0.8354956 -0.26380882 -0.48202908
vn -0.7723235 -0.301759 -0.5589793
vn -0.8029709 -0.45812276 -0.3812627
vn -0.6569332 -0.6055335 -0.44918585
vn -0.74754983 -0.5984247 -0.28819638
vn -0.57995117 -0.73768 -0.34566602
vn -0.69574875 -0.68594056 -0.21311775
vn -0.54308313 -0.7946438 -0.27129674
vn -0.9374734 -0.33615974 -0.09022325
vn -0.6526059 -0.74517775 -0.13717026
vn -0.5245911 -0.82589644 -0.20663801
vn -0.62011135 -0.7825896 -0.054912627
vn -0.51078874 -0.8473756 -0.145084
vn -0.60172087 -0.7978977 0.03593285
vn -0.49919802 -0.86259925 -0.081999384
vn -0.5934422 -0.78970605 0.15553372
vn -0.4923614 -0.8703211 0.011022404
vn -0.69657695 -0.52125406 0.49302623
vn -0.56755024 -0.75047445 0.3386368
vn -0.48320144 -0.8533144 0.19588467
vn -0.5839482 -0.41526943 0.6975356
vn -0.5099445 -0.6705041 0.53887
vn -0.4483304 -0.7296809 0.51629996
vn -0.45345384 -0.338412 0.82453436
vn -0.3416264 -0.33885345 0.8766241
vn -0.2857248 0.006025415 0.9582927
vn 0.28345746 0.9332457 0.22069058
vn 0.3004574 0.7664904 0.56764233
vn 0.13878661 0.8439283 0.5181924
vn 0.020129366 0.64520293 0.763746
vn 0.43694717 0.85525215 0.2786054
vn 0.55358064 0.8320179 0.035982557
vn 0.41396967 0.9097717 -0.030734867
vn 0.6723559 0.655272 0.34431976
vn 0.6872304 0.72171205 -0.08274094
vn 0.51332015 0.8432394 -0.15953016
vn 0.57140344 0.80248195 -0.17181638
vn 0.17659366 0.5783352 0.7964566
vn 0.11706694 0.37745458 0.91859853
vn -0.03434987 0.42549443 0.9043089
vn -0.0064071543 0.27134892 0.9624598
vn 0.423014 0.41392124 0.80605733
vn 0.17923446 0.20928767 0.9612875
vn 0.08145071 0.17448373 0.9812856
vn 0.5654451 0.5568265 0.6084538
vn 0.31359622 0.30569485 0.89900386
vn 0.43254367 0.13673702 0.891184
vn 0.59906226 -0.12899241 0.79024386
vn 0.33363953 0.024794988 0.9423745
vn 0.16387035 0.046794012 0.9853715
vn 0.62998533 0.15037705 0.7619089
vn 0.7907224 0.23300469 0.56609803
vn 0.89541847 -0.1693401 0.4117641
vn 0.8783104 0.35720956 0.31776124
vn 0.7698741 -0.1966378 0.607147
vn 0.7084796 0.6922754 0.13715465
vn 0.8520542 0.51659095 0.08448435
vn 0.9827428 0.18344943 0.023723895
vn 0.756017 -0.57463366 0.31342354
vn 0.9768812 -0.04597135 0.20878151
vn 0.8751977 -0.48313582 0.024675366
vn 0.8388931 0.5311982 -0.1186879
vn 0.8111356 -0.5625104 0.16012819
vn 0.7692541 0.62036496 -0.15295589
vn 0.5658468 0.80665326 -0.17066906
vn 0.7438621 0.6241577 -0.23894836
vn 0.6470745 0.7072387 -0.2847948
vn 0.89725506 0.20785436 -0.38952526
vn 0.8233645 0.27360666 -0.49720234
vn 0.96295464 0.06296986 -0.2622081
vn 0.9748712 -0.12509131 -0.18433195
vn 0.8354973 -0.26380813 -0.48202634
vn 0.77232575 -0.30175838 -0.5589765
vn 0.8029719 -0.45812246 -0.38126096
vn 0.65693426 -0.6055335 -0.44918424
vn 0.74755037 -0.5984246 -0.28819522
vn 0.57995164 -0.73768 -0.34566498
vn 0.6957493 -0.6859403 -0.21311696
vn 0.54308355 -0.7946437 -0.27129588
vn 0.93747354 -0.3361594 -0.09022247
vn 0.65260607 -0.74517757 -0.13716963
vn 0.52459157 -0.8258963 -0.2066374
vn 0.62011176 -0.7825893 -0.054912042
vn 0.5107891 -0.8473755 -0.14508352
vn 0.6017209 -0.7978977 0.03593324
vn 0.49919823 -0.8625991 -0.081999145
vn 0.5934422 -0.78970593 0.15553385
vn 0.49236163 -0.870321 0.011022408
vn 0.69657695 -0.5212538 0.49302647
vn 0.5675506 -0.7504741 0.33863708
vn 0.48320183 -0.85331416 0.19588482
vn 0.5839483 -0.4152689 0.69753575
vn 0.5099446 -0.67050326 0.538871
vn 0.44833046 -0.72967994 0.5163012
vn 0.45345378 -0.33841053 0.824535
vn 0.34162608 -0.33885142 0.876625
vn 0.28572506 0.0060265707 0.9582927
g pm0676_18_Eye123Skin_0
f 3/3/3 2/2/2 1/1/1
f 4/4/4 2/2/2 3/3/3
f 5/5/5 3/3/3 1/1/1
f 5/5/5 1/1/1 6/6/6
f 1/1/1 7/7/7 6/6/6
f 5/5/5 8/8/8 3/3/3
f 5/5/5 6/6/6 8/8/8
f 6/6/6 7/7/7 9/9/9
f 7/7/7 10/10/10 9/9/9
f 9/9/9 10/10/10 11/11/11
f 12/12/12 4/4/4 3/3/3
f 12/12/12 13/13/13 4/4/4
f 13/13/13 14/14/14 4/4/4
f 15/15/15 14/14/14 13/13/13
f 12/12/12 3/3/3 16/16/16
f 12/12/12 16/16/16 13/13/13
f 17/17/17 15/15/15 13/13/13
f 18/18/18 15/15/15 17/17/17
f 8/8/8 19/19/19 3/3/3
f 3/3/3 19/19/19 16/16/16
f 16/16/16 20/20/20 13/13/13
f 13/13/13 20/20/20 17/17/17
f 21/21/21 20/20/20 16/16/16
f 20/20/20 21/21/21 17/17/17
f 17/17/17 21/21/21 22/22/22
f 23/23/23 18/18/18 17/17/17
f 23/23/23 17/17/17 22/22/22
f 24/24/24 18/18/18 23/23/23
f 25/25/25 21/21/21 16/16/16
f 16/16/16 19/19/19 25/25/25
f 22/22/22 21/21/21 25/25/25
f 26/26/26 19/19/19 8/8/8
f 19/19/19 26/26/26 25/25/25
f 25/25/25 26/26/26 27/27/27
f 28/28/28 26/26/26 8/8/8
f 27/27/27 26/26/26 28/28/28
f 29/29/29 22/22/22 25/25/25
f 29/29/29 25/25/25 27/27/27
f 8/8/8 30/30/30 28/28/28
f 6/6/6 30/30/30 8/8/8
f 31/31/31 30/30/30 6/6/6
f 30/30/30 31/31/31 28/28/28
f 28/28/28 31/31/31 32/32/32
f 9/9/9 31/31/31 6/6/6
f 32/32/32 31/31/31 9/9/9
f 29/29/29 33/33/33 22/22/22
f 29/29/29 27/27/27 33/33/33
f 34/34/34 28/28/28 32/32/32
f 34/34/34 27/27/27 28/28/28
f 34/34/34 35/35/35 27/27/27
f 34/34/34 32/32/32 35/35/35
f 36/36/36 32/32/32 9/9/9
f 36/36/36 9/9/9 11/11/11
f 27/27/27 37/37/37 33/33/33
f 35/35/35 37/37/37 27/27/27
f 38/38/38 36/36/36 11/11/11
f 39/39/39 38/38/38 11/11/11
f 40/40/40 38/38/38 39/39/39
f 41/41/41 40/40/40 39/39/39
f 40/40/40 41/41/41 42/42/42
f 40/40/40 42/42/42 38/38/38
f 41/41/41 43/43/43 42/42/42
f 38/38/38 44/44/44 36/36/36
f 42/42/42 44/44/44 38/38/38
f 36/36/36 45/45/45 32/32/32
f 44/44/44 45/45/45 36/36/36
f 42/42/42 43/43/43 46/46/46
f 43/43/43 47/47/47 46/46/46
f 46/46/46 48/48/48 42/42/42
f 46/46/46 47/47/47 48/48/48
f 48/48/48 44/44/44 42/42/42
f 47/47/47 49/49/49 48/48/48
f 48/48/48 50/50/50 44/44/44
f 48/48/48 49/49/49 50/50/50
f 50/50/50 45/45/45 44/44/44
f 49/49/49 51/51/51 50/50/50
f 52/52/52 50/50/50 51/51/51
f 50/50/50 52/52/52 45/45/45
f 53/53/53 52/52/52 51/51/51
f 45/45/45 54/54/54 32/32/32
f 52/52/52 54/54/54 45/45/45
f 32/32/32 54/54/54 35/35/35
f 55/55/55 52/52/52 53/53/53
f 54/54/54 52/52/52 55/55/55
f 35/35/35 54/54/54 55/55/55
f 56/56/56 55/55/55 53/53/53
f 55/55/55 57/57/57 35/35/35
f 57/57/57 55/55/55 56/56/56
f 57/57/57 37/37/37 35/35/35
f 58/58/58 57/57/57 56/56/56
f 37/37/37 57/57/57 59/59/59
f 59/59/59 57/57/57 58/58/58
f 60/60/60 59/59/59 58/58/58
f 33/33/33 37/37/37 59/59/59
f 61/61/61 59/59/59 60/60/60
f 59/59/59 61/61/61 33/33/33
f 62/62/62 61/61/61 60/60/60
f 61/61/61 63/63/63 33/33/33
f 33/33/33 63/63/63 22/22/22
f 64/64/64 61/61/61 62/62/62
f 63/63/63 61/61/61 64/64/64
f 65/65/65 64/64/64 62/62/62
f 22/22/22 63/63/63 66/66/66
f 66/66/66 63/63/63 64/64/64
f 23/23/23 22/22/22 66/66/66
f 67/67/67 64/64/64 65/65/65
f 68/68/68 67/67/67 65/65/65
f 67/67/67 69/69/69 64/64/64
f 67/67/67 68/68/68 69/69/69
f 69/69/69 66/66/66 64/64/64
f 68/68/68 70/70/70 69/69/69
f 69/69/69 70/70/70 24/24/24
f 71/71/71 23/23/23 66/66/66
f 71/71/71 24/24/24 23/23/23
f 71/71/71 69/69/69 24/24/24
f 69/69/69 71/71/71 66/66/66
f 74/74/74 73/73/73 72/72/72
f 74/74/74 75/75/75 73/73/73
f 73/73/73 76/76/76 72/72/72
f 72/72/72 76/76/76 77/77/77
f 78/78/78 72/72/72 77/77/77
f 79/79/79 76/76/76 73/73/73
f 77/77/77 76/76/76 79/79/79
f 78/78/78 77/77/77 80/80/80
f 81/81/81 78/78/78 80/80/80
f 81/81/81 80/80/80 82/82/82
f 75/75/75 83/83/83 73/73/73
f 84/84/84 83/83/83 75/75/75
f 85/85/85 84/84/84 75/75/75
f 85/85/85 86/86/86 84/84/84
f 73/73/73 83/83/83 87/87/87
f 87/87/87 83/83/83 84/84/84
f 86/86/86 88/88/88 84/84/84
f 86/86/86 89/89/89 88/88/88
f 90/90/90 79/79/79 73/73/73
f 90/90/90 73/73/73 87/87/87
f 91/91/91 87/87/87 84/84/84
f 91/91/91 84/84/84 88/88/88
f 91/91/91 92/92/92 87/87/87
f 92/92/92 91/91/91 88/88/88
f 92/92/92 88/88/88 93/93/93
f 89/89/89 94/94/94 88/88/88
f 88/88/88 94/94/94 93/93/93
f 89/89/89 95/95/95 94/94/94
f 92/92/92 96/96/96 87/87/87
f 90/90/90 87/87/87 96/96/96
f 92/92/92 93/93/93 96/96/96
f 90/90/90 97/97/97 79/79/79
f 97/97/97 90/90/90 96/96/96
f 97/97/97 96/96/96 98/98/98
f 97/97/97 99/99/99 79/79/79
f 97/97/97 98/98/98 99/99/99
f 93/93/93 100/100/100 96/96/96
f 96/96/96 100/100/100 98/98/98
f 101/101/101 79/79/79 99/99/99
f 101/101/101 77/77/77 79/79/79
f 101/101/101 102/102/102 77/77/77
f 102/102/102 101/101/101 99/99/99
f 102/102/102 99/99/99 103/103/103
f 102/102/102 80/80/80 77/77/77
f 102/102/102 103/103/103 80/80/80
f 104/104/104 100/100/100 93/93/93
f 98/98/98 100/100/100 104/104/104
f 99/99/99 105/105/105 103/103/103
f 98/98/98 105/105/105 99/99/99
f 106/106/106 105/105/105 98/98/98
f 103/103/103 105/105/105 106/106/106
f 103/103/103 107/107/107 80/80/80
f 80/80/80 107/107/107 82/82/82
f 108/108/108 98/98/98 104/104/104
f 108/108/108 106/106/106 98/98/98
f 107/107/107 109/109/109 82/82/82
f 109/109/109 110/110/110 82/82/82
f 109/109/109 111/111/111 110/110/110
f 111/111/111 112/112/112 110/110/110
f 112/112/112 111/111/111 113/113/113
f 113/113/113 111/111/111 109/109/109
f 114/114/114 112/112/112 113/113/113
f 115/115/115 109/109/109 107/107/107
f 115/115/115 113/113/113 109/109/109
f 116/116/116 107/107/107 103/103/103
f 116/116/116 115/115/115 107/107/107
f 114/114/114 113/113/113 117/117/117
f 118/118/118 114/114/114 117/117/117
f 119/119/119 117/117/117 113/113/113
f 118/118/118 117/117/117 119/119/119
f 115/115/115 119/119/119 113/113/113
f 120/120/120 118/118/118 119/119/119
f 121/121/121 119/119/119 115/115/115
f 120/120/120 119/119/119 121/121/121
f 116/116/116 121/121/121 115/115/115
f 122/122/122 120/120/120 121/121/121
f 121/121/121 123/123/123 122/122/122
f 123/123/123 121/121/121 116/116/116
f 123/123/123 124/124/124 122/122/122
f 125/125/125 116/116/116 103/103/103
f 125/125/125 123/123/123 116/116/116
f 125/125/125 103/103/103 106/106/106
f 123/123/123 126/126/126 124/124/124
f 123/123/123 125/125/125 126/126/126
f 125/125/125 106/106/106 126/126/126
f 126/126/126 127/127/127 124/124/124
f 128/128/128 126/126/126 106/106/106
f 126/126/126 128/128/128 127/127/127
f 108/108/108 128/128/128 106/106/106
f 128/128/128 129/129/129 127/127/127
f 128/128/128 108/108/108 130/130/130
f 128/128/128 130/130/130 129/129/129
f 130/130/130 131/131/131 129/129/129
f 108/108/108 104/104/104 130/130/130
f 130/130/130 132/132/132 131/131/131
f 132/132/132 130/130/130 104/104/104
f 132/132/132 133/133/133 131/131/131
f 134/134/134 132/132/132 104/104/104
f 134/134/134 104/104/104 93/93/93
f 132/132/132 135/135/135 133/133/133
f 132/132/132 134/134/134 135/135/135
f 135/135/135 136/136/136 133/133/133
f 134/134/134 93/93/93 137/137/137
f 134/134/134 137/137/137 135/135/135
f 93/93/93 94/94/94 137/137/137
f 135/135/135 138/138/138 136/136/136
f 138/138/138 139/139/139 136/136/136
f 140/140/140 138/138/138 135/135/135
f 139/139/139 138/138/138 140/140/140
f 137/137/137 140/140/140 135/135/135
f 141/141/141 139/139/139 140/140/140
f 141/141/141 140/140/140 95/95/95
f 94/94/94 142/142/142 137/137/137
f 95/95/95 142/142/142 94/94/94
f 140/140/140 142/142/142 95/95/95
f 142/142/142 140/140/140 137/137/137
