g pm0676_19_Eye46Skin
v 0.089546554 0.97807217 0.4784674
v 0.0951954 0.9861677 0.49307325
v 0.08726123 0.9880602 0.48797527
v 0.07846585 0.99556106 0.50195736
v 0.086971045 0.9941337 0.50666726
v 0.06874101 0.9978453 0.5194516
v 0.09910207 0.9772537 0.4836904
v 0.10385903 0.97341657 0.49750528
v 0.099072464 0.9829462 0.50651574
v 0.102974765 0.978323 0.46566
v 0.09568338 0.9789829 0.46271262
v 0.106184416 0.97816014 0.45289576
v 0.10173358 0.9790022 0.44943622
v 0.10666498 0.9763723 0.449893
v 0.10290412 0.97733396 0.44703242
v 0.10748087 0.9721937 0.46298248
v 0.10645369 0.9730699 0.45040774
v 0.102230124 0.9733496 0.44682539
v 0.10428546 0.96770513 0.45796627
v 0.098210506 0.9669817 0.4549516
v 0.09959732 0.95922565 0.47301966
v 0.09267134 0.9583057 0.46846816
v 0.10634331 0.9658217 0.47902265
v 0.09744666 0.9562371 0.47883514
v 0.090983845 0.95587075 0.47511232
v 0.10533855 0.9634841 0.48844984
v 0.0901076 0.95803386 0.5023744
v 0.08246374 0.9555172 0.4964637
v 0.10098707 0.9641313 0.5136204
v 0.07866733 0.95460254 0.5291723
v 0.07059836 0.951331 0.5231888
v 0.069537155 0.9425976 0.5473349
v 0.05977447 0.93888897 0.54087204
v 0.08882034 0.9606412 0.5377394
v 0.09078094 0.96857727 0.54370916
v 0.10042071 0.97152334 0.52262175
v 0.09720565 0.9810916 0.5284667
v 0.060942534 0.91945684 0.5635632
v 0.051083826 0.92107624 0.55681634
v 0.077227235 0.94738716 0.55428
v 0.055946834 0.9139326 0.57366645
v 0.04623737 0.911413 0.5683195
v 0.094306946 0.9879302 0.5137957
v 0.08804081 0.9906541 0.5296205
v 0.087934 0.977617 0.5473142
v 0.06533006 0.92637205 0.56927586
v 0.0642834 0.9365154 0.57141876
v 0.078845955 0.9558231 0.55954045
v 0.075491495 0.96651936 0.56222093
v 0.049122967 0.90998137 0.58452505
v 0.039872166 0.908146 0.5853487
v 0.047666993 0.9117291 0.5861865
v 0.039250813 0.9089633 0.58711475
v 0.03952465 0.91235423 0.58597153
v 0.057510752 0.91831464 0.57709706
v 0.047538687 0.9140661 0.5860499
v 0.053311437 0.92871255 0.5755411
v 0.04088923 0.929623 0.57165736
v 0.052501142 0.94305015 0.57495266
v 0.040199075 0.9415084 0.57148147
v 0.062374327 0.9530664 0.57148117
v 0.05367838 0.96182036 0.571359
v 0.04150077 0.9605585 0.56833214
v 0.04657422 0.9803901 0.558044
v 0.06122689 0.9634498 0.5702432
v 0.067015044 0.97766584 0.56326306
v 0.057979207 0.97970426 0.56155866
v 0.066518135 0.99345887 0.5445693
v 0.057083197 0.99489594 0.54065025
v 0.078491054 0.9877164 0.5472178
v 0.07848753 0.9967374 0.52457
v -0.089546554 0.97807217 0.4784674
v -0.08726123 0.9880602 0.48797527
v -0.0951954 0.9861677 0.49307325
v -0.07846585 0.99556106 0.50195736
v -0.086971045 0.9941337 0.50666726
v -0.06874101 0.9978453 0.5194516
v -0.09910207 0.9772537 0.4836904
v -0.10385903 0.97341657 0.49750528
v -0.099072464 0.9829462 0.50651574
v -0.102974765 0.978323 0.46566
v -0.09568338 0.9789829 0.46271262
v -0.106184416 0.97816014 0.45289576
v -0.10173358 0.9790022 0.44943622
v -0.10666498 0.9763723 0.449893
v -0.10290412 0.97733396 0.44703242
v -0.10748087 0.9721937 0.46298248
v -0.10645369 0.9730699 0.45040774
v -0.102230124 0.9733496 0.44682539
v -0.10428546 0.96770513 0.45796627
v -0.098210506 0.9669817 0.4549516
v -0.09959732 0.95922565 0.47301966
v -0.09267134 0.9583057 0.46846816
v -0.10634331 0.9658217 0.47902265
v -0.09744666 0.9562371 0.47883514
v -0.090983845 0.95587075 0.47511232
v -0.10533855 0.9634841 0.48844984
v -0.0901076 0.95803386 0.5023744
v -0.08246374 0.9555172 0.4964637
v -0.10098707 0.9641313 0.5136204
v -0.07866733 0.95460254 0.5291723
v -0.07059836 0.951331 0.5231888
v -0.069537155 0.9425976 0.5473349
v -0.05977447 0.93888897 0.54087204
v -0.08882034 0.9606412 0.5377394
v -0.09078094 0.96857727 0.54370916
v -0.10042071 0.97152334 0.52262175
v -0.09720565 0.9810916 0.5284667
v -0.060942534 0.91945684 0.5635632
v -0.051083826 0.92107624 0.55681634
v -0.077227235 0.94738716 0.55428
v -0.055946834 0.9139326 0.57366645
v -0.04623737 0.911413 0.5683195
v -0.094306946 0.9879302 0.5137957
v -0.08804081 0.9906541 0.5296205
v -0.087934 0.977617 0.5473142
v -0.06533006 0.92637205 0.56927586
v -0.0642834 0.9365154 0.57141876
v -0.078845955 0.9558231 0.55954045
v -0.075491495 0.96651936 0.56222093
v -0.049122967 0.90998137 0.58452505
v -0.039872166 0.908146 0.5853487
v -0.047666993 0.9117291 0.5861865
v -0.039250813 0.9089633 0.58711475
v -0.03952465 0.91235423 0.58597153
v -0.057510752 0.91831464 0.57709706
v -0.047538687 0.9140661 0.5860499
v -0.053311437 0.92871255 0.5755411
v -0.04088923 0.929623 0.57165736
v -0.052501142 0.94305015 0.57495266
v -0.040199075 0.9415084 0.57148147
v -0.062374327 0.9530664 0.57148117
v -0.05367838 0.96182036 0.571359
v -0.04150077 0.9605585 0.56833214
v -0.04657422 0.9803901 0.558044
v -0.06122689 0.9634498 0.5702432
v -0.067015044 0.97766584 0.56326306
v -0.057979207 0.97970426 0.56155866
v -0.066518135 0.99345887 0.5445693
v -0.057083197 0.99489594 0.54065025
v -0.078491054 0.9877164 0.5472178
v -0.07848753 0.9967374 0.52457
vt 0.28865063 0.9479845
vt 0.29503322 0.9525261
vt 0.29233992 0.9589373
vt 0.29758334 0.97430545
vt 0.2996627 0.9664424
vt 0.3055278 0.9838315
vt 0.29181427 0.939873
vt 0.29858917 0.9365371
vt 0.30036175 0.94752884
vt 0.28538132 0.93304455
vt 0.28353322 0.93926746
vt 0.28069755 0.9316895
vt 0.2769107 0.93356776
vt 0.27951527 0.9247775
vt 0.2765396 0.9250156
vt 0.2854259 0.9252438
vt 0.280349 0.91787094
vt 0.27737048 0.91355866
vt 0.28438497 0.9186028
vt 0.28342807 0.9125666
vt 0.29065168 0.91455907
vt 0.28945273 0.9072653
vt 0.29160953 0.92538804
vt 0.29583973 0.9107622
vt 0.29491025 0.9026227
vt 0.29733133 0.92395097
vt 0.30245268 0.9063352
vt 0.30128157 0.8975289
vt 0.3045963 0.92052615
vt 0.31081766 0.9022216
vt 0.3102079 0.8922654
vt 0.31915802 0.90118307
vt 0.31913292 0.8900334
vt 0.311719 0.9169318
vt 0.3125 0.9296875
vt 0.30590582 0.9329342
vt 0.306933 0.9460551
vt 0.32627666 0.9016071
vt 0.32637346 0.89012593
vt 0.3196448 0.9136607
vt 0.33280182 0.90255946
vt 0.33343548 0.8913457
vt 0.30224466 0.95492435
vt 0.3075359 0.95968395
vt 0.3134091 0.94452703
vt 0.32677662 0.91083634
vt 0.32704526 0.9225253
vt 0.31968993 0.926147
vt 0.31998134 0.94082445
vt 0.336991 0.9011691
vt 0.34240127 0.89502
vt 0.33740485 0.9074911
vt 0.34274167 0.9048759
vt 0.34234554 0.91463745
vt 0.33294678 0.9076069
vt 0.33713973 0.9148052
vt 0.33329463 0.91944826
vt 0.33771002 0.9262324
vt 0.33157665 0.93376374
vt 0.33616996 0.9375469
vt 0.32632577 0.937534
vt 0.32835513 0.95098937
vt 0.3325128 0.95618695
vt 0.32577652 0.9745069
vt 0.32566673 0.9485263
vt 0.3210503 0.95534235
vt 0.32320017 0.96594584
vt 0.31528103 0.9750886
vt 0.3158689 0.98468757
vt 0.31435013 0.9598919
vt 0.3065464 0.9734992
vt 0.28865057 0.9479845
vt 0.29233974 0.9589373
vt 0.29503322 0.9525261
vt 0.29758334 0.97430545
vt 0.2996627 0.9664424
vt 0.30552775 0.9838315
vt 0.2918142 0.939873
vt 0.29858905 0.9365371
vt 0.30036175 0.94752884
vt 0.28538126 0.93304455
vt 0.2835331 0.93926746
vt 0.28069732 0.9316895
vt 0.27691045 0.93356776
vt 0.27951515 0.9247775
vt 0.27653947 0.9250156
vt 0.28542584 0.9252438
vt 0.280349 0.91787094
vt 0.27737024 0.91355866
vt 0.2843849 0.9186028
vt 0.28342795 0.9125666
vt 0.29065168 0.91455907
vt 0.28945267 0.9072653
vt 0.2916094 0.92538804
vt 0.29583967 0.9107622
vt 0.2949102 0.9026227
vt 0.29733133 0.92395097
vt 0.30245268 0.9063352
vt 0.30128145 0.8975289
vt 0.3045963 0.92052615
vt 0.31081766 0.9022216
vt 0.31020784 0.8922654
vt 0.31915802 0.90118307
vt 0.31913292 0.8900334
vt 0.31171888 0.9169318
vt 0.3125 0.9296875
vt 0.30590576 0.9329342
vt 0.30693293 0.9460551
vt 0.3262766 0.9016071
vt 0.32637346 0.89012593
vt 0.3196447 0.9136607
vt 0.3328017 0.90255946
vt 0.33343542 0.8913457
vt 0.3022446 0.95492435
vt 0.30753583 0.95968395
vt 0.31340897 0.94452703
vt 0.3267765 0.91083634
vt 0.32704514 0.9225253
vt 0.31968975 0.926147
vt 0.31998134 0.94082445
vt 0.3369909 0.90116906
vt 0.3424013 0.89502
vt 0.33740473 0.9074911
vt 0.34274164 0.9048759
vt 0.34234557 0.91463745
vt 0.33294666 0.9076069
vt 0.33713973 0.9148052
vt 0.3332945 0.91944826
vt 0.33771002 0.9262324
vt 0.3315766 0.93376374
vt 0.33616984 0.9375469
vt 0.3263257 0.937534
vt 0.32835507 0.95098937
vt 0.33251274 0.95618695
vt 0.32577652 0.9745069
vt 0.32566667 0.9485263
vt 0.3210503 0.95534235
vt 0.32320017 0.96594584
vt 0.31528097 0.9750886
vt 0.31586885 0.98468757
vt 0.31435007 0.9598919
vt 0.30654633 0.9734992
vn 0.57418585 0.8059228 -0.14421864
vn 0.64991015 0.75797534 -0.05558943
vn 0.4982408 0.8583752 -0.122262955
vn 0.3962642 0.9180228 -0.014449682
vn 0.5118821 0.85823715 0.037494615
vn 0.27219158 0.94015634 0.20498241
vn 0.82529134 0.55779487 -0.08808509
vn 0.96802855 0.23729333 0.08131788
vn 0.80269945 0.58800083 0.099642664
vn 0.7761227 0.61055684 -0.15765093
vn 0.59053063 0.7889808 -0.16965508
vn 0.75956255 0.6010944 -0.24849597
vn 0.6752701 0.6797084 -0.286368
vn 0.8998647 0.20350413 -0.38578442
vn 0.8372915 0.26172057 -0.48004717
vn 0.964039 0.068636276 -0.2567447
vn 0.847668 -0.24877883 -0.4685809
vn 0.7927747 -0.2908611 -0.5356381
vn 0.81567943 -0.45362297 -0.3590171
vn 0.6741116 -0.6110073 -0.41502246
vn 0.7467042 -0.62939376 -0.21516572
vn 0.56930846 -0.7786147 -0.26390705
vn 0.98378146 -0.12122609 -0.13220507
vn 0.6672172 -0.7406083 -0.079501614
vn 0.4983321 -0.85605466 -0.13724248
vn 0.9376319 -0.3471968 0.017347183
vn 0.62222683 -0.7827999 -0.0076226513
vn 0.48066697 -0.8728564 -0.08414812
vn 0.86470073 -0.48390558 0.13464051
vn 0.6359611 -0.77154064 -0.01669271
vn 0.5152481 -0.8487377 -0.119011596
vn 0.6739879 -0.73802847 -0.032470215
vn 0.5585263 -0.8124792 -0.16711041
vn 0.8259298 -0.5264184 0.2018009
vn 0.8919824 -0.10798955 0.4389826
vn 0.96298593 0.00943372 0.26938674
vn 0.8351478 0.44398826 0.32465765
vn 0.6876739 -0.7238069 0.056640614
vn 0.5766844 -0.80915403 -0.11271597
vn 0.8149135 -0.50701207 0.280811
vn 0.64077544 -0.7115189 0.2883532
vn 0.56141907 -0.81928164 0.11656012
vn 0.64877456 0.75067496 0.12481445
vn 0.6130249 0.7242284 0.31574303
vn 0.7570375 0.31815192 0.570678
vn 0.76710093 -0.4557401 0.45150527
vn 0.6067448 -0.0736797 0.7914746
vn 0.7852269 -0.12952745 0.60550916
vn 0.5962764 0.22315535 0.7711395
vn 0.55263627 -0.6454112 0.52729267
vn 0.50044537 -0.7099884 0.49545023
vn 0.46762708 -0.32535237 0.82187027
vn 0.36404797 -0.33288887 0.8698586
vn 0.17691188 0.029814722 0.98377496
vn 0.6204158 -0.37677184 0.68784237
vn 0.28666934 -0.004529255 0.9580189
vn 0.3263767 0.0427555 0.9442724
vn 0.08647982 0.1708713 0.98149085
vn 0.14605924 0.2371089 0.9604406
vn -0.0135393925 0.28527108 0.9583513
vn 0.388846 0.18938105 0.9016284
vn 0.07030941 0.4084472 0.91007006
vn -0.05038401 0.44586876 0.89367914
vn 0.0041138744 0.6672199 0.7448495
vn 0.24681629 0.35434535 0.901954
vn 0.3598005 0.47821492 0.8011581
vn 0.13039778 0.6157106 0.777108
vn 0.26151466 0.80437964 0.53346366
vn 0.12849265 0.8615423 0.49115634
vn 0.5080581 0.6323545 0.58481175
vn 0.39862296 0.8824317 0.24982801
vn -0.5741859 0.8059228 -0.1442186
vn -0.4982409 0.8583751 -0.12226302
vn -0.6499101 0.75797534 -0.05558956
vn -0.39626446 0.91802275 -0.014450273
vn -0.51188225 0.858237 0.037494082
vn -0.27219197 0.94015634 0.20498163
vn -0.82529145 0.5577949 -0.088084966
vn -0.96802855 0.23729354 0.0813179
vn -0.8026993 0.5880009 0.09964253
vn -0.7761228 0.61055654 -0.15765178
vn -0.5905307 0.7889806 -0.16965602
vn -0.75956255 0.6010936 -0.24849804
vn -0.67526996 0.6797076 -0.28637052
vn -0.899864 0.20350285 -0.38578668
vn -0.83729047 0.26171893 -0.48004997
vn -0.96403885 0.068635605 -0.25674558
vn -0.8476668 -0.24878013 -0.46858236
vn -0.79277307 -0.29086244 -0.53563964
vn -0.81567866 -0.4536237 -0.35901788
vn -0.6741107 -0.6110078 -0.4150231
vn -0.7467041 -0.62939394 -0.21516602
vn -0.5693083 -0.77861476 -0.2639075
vn -0.98378146 -0.121226184 -0.13220516
vn -0.66721725 -0.7406082 -0.079501905
vn -0.4983322 -0.8560545 -0.1372429
vn -0.9376319 -0.3471968 0.017347187
vn -0.62222683 -0.7827999 -0.0076228552
vn -0.48066714 -0.8728564 -0.08414845
vn -0.8647007 -0.48390573 0.1346404
vn -0.63596106 -0.77154064 -0.016692912
vn -0.5152481 -0.84873766 -0.11901183
vn -0.6739877 -0.73802865 -0.03247063
vn -0.558526 -0.8124794 -0.16711076
vn -0.8259299 -0.52641857 0.20180048
vn -0.89198256 -0.107989706 0.43898222
vn -0.9629858 0.009433721 0.2693868
vn -0.835148 0.4439882 0.32465726
vn -0.68767345 -0.72380733 0.056640483
vn -0.5766839 -0.8091544 -0.11271606
vn -0.8149136 -0.5070122 0.2808104
vn -0.64077467 -0.7115196 0.2883534
vn -0.5614183 -0.8192822 0.11656006
vn -0.6487746 0.750675 0.12481391
vn -0.6130252 0.7242284 0.3157424
vn -0.7570379 0.31815198 0.5706777
vn -0.7671008 -0.45574045 0.45150524
vn -0.606745 -0.07367994 0.7914745
vn -0.7852271 -0.1295277 0.60550886
vn -0.5962769 0.22315525 0.7711392
vn -0.5526355 -0.6454122 0.52729225
vn -0.5004445 -0.70998967 0.49544942
vn -0.46762657 -0.32535377 0.82187
vn -0.36404777 -0.33289066 0.869858
vn -0.17691171 0.029813556 0.9837751
vn -0.6204153 -0.37677246 0.68784255
vn -0.28666908 -0.00453022 0.958019
vn -0.3263764 0.04275505 0.9442724
vn -0.086479686 0.17087066 0.98149097
vn -0.1460595 0.23710893 0.9604406
vn 0.013539195 0.28527078 0.9583513
vn -0.38884643 0.18938097 0.9016282
vn -0.07030967 0.40844733 0.91006994
vn 0.050383683 0.4458688 0.89367914
vn -0.004114214 0.6672199 0.7448495
vn -0.24681686 0.35434535 0.9019538
vn -0.3598011 0.478215 0.8011576
vn -0.13039821 0.61571085 0.7771078
vn -0.261515 0.8043799 0.5334633
vn -0.12849298 0.86154246 0.49115598
vn -0.50805867 0.6323546 0.58481115
vn -0.39862317 0.88243186 0.24982738
g pm0676_19_Eye46Skin_0
f 3/3/3 2/2/2 1/1/1
f 3/3/3 4/4/4 2/2/2
f 4/4/4 5/5/5 2/2/2
f 4/4/4 6/6/6 5/5/5
f 2/2/2 7/7/7 1/1/1
f 8/8/8 7/7/7 2/2/2
f 9/9/9 2/2/2 5/5/5
f 9/9/9 8/8/8 2/2/2
f 7/7/7 10/10/10 1/1/1
f 10/10/10 11/11/11 1/1/1
f 10/10/10 12/12/12 11/11/11
f 12/12/12 13/13/13 11/11/11
f 13/13/13 12/12/12 14/14/14
f 14/14/14 12/12/12 10/10/10
f 15/15/15 13/13/13 14/14/14
f 16/16/16 10/10/10 7/7/7
f 16/16/16 14/14/14 10/10/10
f 15/15/15 14/14/14 17/17/17
f 18/18/18 15/15/15 17/17/17
f 19/19/19 17/17/17 14/14/14
f 18/18/18 17/17/17 19/19/19
f 16/16/16 19/19/19 14/14/14
f 20/20/20 18/18/18 19/19/19
f 20/20/20 19/19/19 21/21/21
f 21/21/21 19/19/19 16/16/16
f 22/22/22 20/20/20 21/21/21
f 23/23/23 16/16/16 7/7/7
f 23/23/23 21/21/21 16/16/16
f 23/23/23 7/7/7 8/8/8
f 21/21/21 24/24/24 22/22/22
f 24/24/24 21/21/21 23/23/23
f 24/24/24 25/25/25 22/22/22
f 26/26/26 24/24/24 23/23/23
f 26/26/26 23/23/23 8/8/8
f 24/24/24 27/27/27 25/25/25
f 24/24/24 26/26/26 27/27/27
f 27/27/27 28/28/28 25/25/25
f 26/26/26 29/29/29 27/27/27
f 26/26/26 8/8/8 29/29/29
f 27/27/27 30/30/30 28/28/28
f 30/30/30 27/27/27 29/29/29
f 30/30/30 31/31/31 28/28/28
f 30/30/30 32/32/32 31/31/31
f 32/32/32 33/33/33 31/31/31
f 34/34/34 30/30/30 29/29/29
f 30/30/30 34/34/34 32/32/32
f 34/34/34 29/29/29 35/35/35
f 8/8/8 36/36/36 29/29/29
f 29/29/29 36/36/36 35/35/35
f 37/37/37 36/36/36 8/8/8
f 35/35/35 36/36/36 37/37/37
f 9/9/9 37/37/37 8/8/8
f 32/32/32 38/38/38 33/33/33
f 38/38/38 39/39/39 33/33/33
f 34/34/34 40/40/40 32/32/32
f 34/34/34 35/35/35 40/40/40
f 38/38/38 32/32/32 40/40/40
f 38/38/38 41/41/41 39/39/39
f 41/41/41 42/42/42 39/39/39
f 9/9/9 43/43/43 37/37/37
f 43/43/43 9/9/9 5/5/5
f 43/43/43 44/44/44 37/37/37
f 43/43/43 5/5/5 44/44/44
f 45/45/45 35/35/35 37/37/37
f 45/45/45 37/37/37 44/44/44
f 46/46/46 38/38/38 40/40/40
f 38/38/38 46/46/46 41/41/41
f 46/46/46 40/40/40 47/47/47
f 35/35/35 48/48/48 40/40/40
f 40/40/40 48/48/48 47/47/47
f 49/49/49 48/48/48 35/35/35
f 45/45/45 49/49/49 35/35/35
f 47/47/47 48/48/48 49/49/49
f 41/41/41 50/50/50 42/42/42
f 50/50/50 51/51/51 42/42/42
f 51/51/51 50/50/50 52/52/52
f 52/52/52 50/50/50 41/41/41
f 53/53/53 51/51/51 52/52/52
f 53/53/53 52/52/52 54/54/54
f 46/46/46 55/55/55 41/41/41
f 55/55/55 52/52/52 41/41/41
f 46/46/46 47/47/47 55/55/55
f 52/52/52 56/56/56 54/54/54
f 56/56/56 52/52/52 55/55/55
f 54/54/54 56/56/56 57/57/57
f 57/57/57 56/56/56 55/55/55
f 47/47/47 57/57/57 55/55/55
f 58/58/58 54/54/54 57/57/57
f 58/58/58 57/57/57 59/59/59
f 59/59/59 57/57/57 47/47/47
f 60/60/60 58/58/58 59/59/59
f 61/61/61 59/59/59 47/47/47
f 61/61/61 47/47/47 49/49/49
f 60/60/60 59/59/59 62/62/62
f 63/63/63 60/60/60 62/62/62
f 63/63/63 62/62/62 64/64/64
f 61/61/61 65/65/65 59/59/59
f 65/65/65 62/62/62 59/59/59
f 65/65/65 61/61/61 66/66/66
f 61/61/61 49/49/49 66/66/66
f 65/65/65 66/66/66 62/62/62
f 62/62/62 67/67/67 64/64/64
f 66/66/66 67/67/67 62/62/62
f 64/64/64 67/67/67 68/68/68
f 68/68/68 67/67/67 66/66/66
f 69/69/69 64/64/64 68/68/68
f 69/69/69 68/68/68 6/6/6
f 70/70/70 66/66/66 49/49/49
f 70/70/70 68/68/68 66/66/66
f 45/45/45 70/70/70 49/49/49
f 70/70/70 45/45/45 44/44/44
f 70/70/70 44/44/44 68/68/68
f 68/68/68 71/71/71 6/6/6
f 44/44/44 71/71/71 68/68/68
f 6/6/6 71/71/71 5/5/5
f 5/5/5 71/71/71 44/44/44
f 74/74/74 73/73/73 72/72/72
f 75/75/75 73/73/73 74/74/74
f 76/76/76 75/75/75 74/74/74
f 77/77/77 75/75/75 76/76/76
f 78/78/78 74/74/74 72/72/72
f 78/78/78 79/79/79 74/74/74
f 74/74/74 80/80/80 76/76/76
f 79/79/79 80/80/80 74/74/74
f 81/81/81 78/78/78 72/72/72
f 82/82/82 81/81/81 72/72/72
f 83/83/83 81/81/81 82/82/82
f 84/84/84 83/83/83 82/82/82
f 83/83/83 84/84/84 85/85/85
f 83/83/83 85/85/85 81/81/81
f 84/84/84 86/86/86 85/85/85
f 81/81/81 87/87/87 78/78/78
f 85/85/85 87/87/87 81/81/81
f 85/85/85 86/86/86 88/88/88
f 86/86/86 89/89/89 88/88/88
f 88/88/88 90/90/90 85/85/85
f 88/88/88 89/89/89 90/90/90
f 90/90/90 87/87/87 85/85/85
f 89/89/89 91/91/91 90/90/90
f 90/90/90 91/91/91 92/92/92
f 90/90/90 92/92/92 87/87/87
f 91/91/91 93/93/93 92/92/92
f 87/87/87 94/94/94 78/78/78
f 92/92/92 94/94/94 87/87/87
f 78/78/78 94/94/94 79/79/79
f 95/95/95 92/92/92 93/93/93
f 92/92/92 95/95/95 94/94/94
f 96/96/96 95/95/95 93/93/93
f 95/95/95 97/97/97 94/94/94
f 94/94/94 97/97/97 79/79/79
f 98/98/98 95/95/95 96/96/96
f 97/97/97 95/95/95 98/98/98
f 99/99/99 98/98/98 96/96/96
f 100/100/100 97/97/97 98/98/98
f 79/79/79 97/97/97 100/100/100
f 101/101/101 98/98/98 99/99/99
f 98/98/98 101/101/101 100/100/100
f 102/102/102 101/101/101 99/99/99
f 103/103/103 101/101/101 102/102/102
f 104/104/104 103/103/103 102/102/102
f 101/101/101 105/105/105 100/100/100
f 105/105/105 101/101/101 103/103/103
f 100/100/100 105/105/105 106/106/106
f 107/107/107 79/79/79 100/100/100
f 107/107/107 100/100/100 106/106/106
f 107/107/107 108/108/108 79/79/79
f 107/107/107 106/106/106 108/108/108
f 108/108/108 80/80/80 79/79/79
f 109/109/109 103/103/103 104/104/104
f 110/110/110 109/109/109 104/104/104
f 111/111/111 105/105/105 103/103/103
f 106/106/106 105/105/105 111/111/111
f 103/103/103 109/109/109 111/111/111
f 112/112/112 109/109/109 110/110/110
f 113/113/113 112/112/112 110/110/110
f 114/114/114 80/80/80 108/108/108
f 80/80/80 114/114/114 76/76/76
f 115/115/115 114/114/114 108/108/108
f 76/76/76 114/114/114 115/115/115
f 106/106/106 116/116/116 108/108/108
f 108/108/108 116/116/116 115/115/115
f 109/109/109 117/117/117 111/111/111
f 117/117/117 109/109/109 112/112/112
f 111/111/111 117/117/117 118/118/118
f 119/119/119 106/106/106 111/111/111
f 119/119/119 111/111/111 118/118/118
f 119/119/119 120/120/120 106/106/106
f 120/120/120 116/116/116 106/106/106
f 119/119/119 118/118/118 120/120/120
f 121/121/121 112/112/112 113/113/113
f 122/122/122 121/121/121 113/113/113
f 121/121/121 122/122/122 123/123/123
f 121/121/121 123/123/123 112/112/112
f 122/122/122 124/124/124 123/123/123
f 123/123/123 124/124/124 125/125/125
f 126/126/126 117/117/117 112/112/112
f 123/123/123 126/126/126 112/112/112
f 118/118/118 117/117/117 126/126/126
f 127/127/127 123/123/123 125/125/125
f 123/123/123 127/127/127 126/126/126
f 127/127/127 125/125/125 128/128/128
f 127/127/127 128/128/128 126/126/126
f 128/128/128 118/118/118 126/126/126
f 125/125/125 129/129/129 128/128/128
f 128/128/128 129/129/129 130/130/130
f 128/128/128 130/130/130 118/118/118
f 129/129/129 131/131/131 130/130/130
f 130/130/130 132/132/132 118/118/118
f 118/118/118 132/132/132 120/120/120
f 130/130/130 131/131/131 133/133/133
f 131/131/131 134/134/134 133/133/133
f 133/133/133 134/134/134 135/135/135
f 136/136/136 132/132/132 130/130/130
f 133/133/133 136/136/136 130/130/130
f 132/132/132 136/136/136 137/137/137
f 120/120/120 132/132/132 137/137/137
f 137/137/137 136/136/136 133/133/133
f 138/138/138 133/133/133 135/135/135
f 138/138/138 137/137/137 133/133/133
f 138/138/138 135/135/135 139/139/139
f 138/138/138 139/139/139 137/137/137
f 135/135/135 140/140/140 139/139/139
f 139/139/139 140/140/140 77/77/77
f 137/137/137 141/141/141 120/120/120
f 139/139/139 141/141/141 137/137/137
f 141/141/141 116/116/116 120/120/120
f 116/116/116 141/141/141 115/115/115
f 115/115/115 141/141/141 139/139/139
f 142/142/142 139/139/139 77/77/77
f 142/142/142 115/115/115 139/139/139
f 142/142/142 77/77/77 76/76/76
f 142/142/142 76/76/76 115/115/115
