g pm0676_11_Eye123Skin
v 0.089534245 0.9783004 0.47842884
v 0.09513287 0.98742795 0.49286714
v 0.08725327 0.9892707 0.48777446
v 0.07841413 0.9981573 0.50159305
v 0.08691881 0.99673665 0.50630265
v 0.068651624 1.0000393 0.5192198
v 0.09898714 0.97752094 0.48364523
v 0.10417083 0.97114843 0.49993762
v 0.10105562 0.9819776 0.5070595
v 0.10297123 0.978323 0.46566
v 0.09568338 0.9789829 0.46271262
v 0.106184416 0.97816014 0.45289576
v 0.10173358 0.9790022 0.44943622
v 0.10666498 0.9763723 0.449893
v 0.10290412 0.97733396 0.44703242
v 0.1074725 0.9721937 0.46298248
v 0.10645369 0.9730699 0.45040774
v 0.102230124 0.9733496 0.44682539
v 0.10428303 0.96770513 0.45796627
v 0.098210506 0.9669817 0.4549516
v 0.099422865 0.95912445 0.47300994
v 0.092542455 0.95823056 0.46846095
v 0.106458224 0.9658043 0.47907475
v 0.09505437 0.95217556 0.4854764
v 0.08735135 0.95055145 0.48123083
v 0.10476042 0.9590931 0.49343735
v 0.08902929 0.9443794 0.5018812
v 0.08140899 0.94215155 0.49605596
v 0.10013432 0.9499474 0.5127537
v 0.08014434 0.9353443 0.52225995
v 0.07202068 0.93206656 0.51635087
v 0.07112962 0.9268552 0.54196316
v 0.06188564 0.9234263 0.5359092
v 0.09190086 0.94082314 0.5317741
v 0.09541518 0.9526009 0.53940433
v 0.10283414 0.96143836 0.5206957
v 0.09966465 0.9761537 0.5270529
v 0.06278349 0.9202355 0.55822533
v 0.053089608 0.9175754 0.5519629
v 0.08028631 0.9317629 0.5502634
v 0.055946834 0.9139326 0.57366645
v 0.04623737 0.911413 0.5683195
v 0.09636397 0.9878954 0.5133643
v 0.09023706 0.98956037 0.52907425
v 0.09116076 0.96913564 0.5454441
v 0.06824286 0.924334 0.5647102
v 0.06621998 0.9356369 0.5681689
v 0.082081564 0.9440107 0.55602634
v 0.0788321 0.95966 0.56017417
v 0.049122967 0.90998137 0.58452505
v 0.039872166 0.908146 0.5853487
v 0.047666993 0.9117291 0.5861865
v 0.039250813 0.9089633 0.58711475
v 0.03952465 0.91235423 0.58597153
v 0.05773517 0.91775113 0.57661545
v 0.047538687 0.9140661 0.5860499
v 0.053311437 0.92871255 0.5755411
v 0.04088923 0.929623 0.57165736
v 0.052501142 0.94305015 0.57495266
v 0.040199075 0.9415084 0.57148147
v 0.06438483 0.9510351 0.5700024
v 0.05367838 0.96182036 0.571359
v 0.04150077 0.9605585 0.56833214
v 0.04657422 0.9803901 0.558044
v 0.06153844 0.96229786 0.56887984
v 0.06954072 0.9735991 0.56179076
v 0.05755325 0.97970426 0.56155866
v 0.06648277 0.99392074 0.54454803
v 0.057050433 0.99532384 0.5406306
v 0.080790944 0.98444545 0.54677945
v 0.078398116 0.99894404 0.52433604
v -0.089534245 0.9783004 0.47842884
v -0.08725327 0.9892707 0.48777446
v -0.09513287 0.98742795 0.49286714
v -0.07841413 0.9981573 0.50159305
v -0.08691881 0.99673665 0.50630265
v -0.068651624 1.0000393 0.5192198
v -0.09898714 0.97752094 0.48364523
v -0.10417083 0.97114843 0.49993762
v -0.10105562 0.9819776 0.5070595
v -0.10297123 0.978323 0.46566
v -0.09568338 0.9789829 0.46271262
v -0.106184416 0.97816014 0.45289576
v -0.10173358 0.9790022 0.44943622
v -0.10666498 0.9763723 0.449893
v -0.10290412 0.97733396 0.44703242
v -0.1074725 0.9721937 0.46298248
v -0.10645369 0.9730699 0.45040774
v -0.102230124 0.9733496 0.44682539
v -0.10428303 0.96770513 0.45796627
v -0.098210506 0.9669817 0.4549516
v -0.099422865 0.95912445 0.47300994
v -0.092542455 0.95823056 0.46846095
v -0.106458224 0.9658043 0.47907475
v -0.09505437 0.95217556 0.4854764
v -0.08735135 0.95055145 0.48123083
v -0.10476042 0.9590931 0.49343735
v -0.08902929 0.9443794 0.5018812
v -0.08140899 0.94215155 0.49605596
v -0.10013432 0.9499474 0.5127537
v -0.08014434 0.9353443 0.52225995
v -0.07202068 0.93206656 0.51635087
v -0.07112962 0.9268552 0.54196316
v -0.06188564 0.9234263 0.5359092
v -0.09190086 0.94082314 0.5317741
v -0.09541518 0.9526009 0.53940433
v -0.10283414 0.96143836 0.5206957
v -0.09966465 0.9761537 0.5270529
v -0.06278349 0.9202355 0.55822533
v -0.053089608 0.9175754 0.5519629
v -0.08028631 0.9317629 0.5502634
v -0.055946834 0.9139326 0.57366645
v -0.04623737 0.911413 0.5683195
v -0.09636397 0.9878954 0.5133643
v -0.09023706 0.98956037 0.52907425
v -0.09116076 0.96913564 0.5454441
v -0.06824286 0.924334 0.5647102
v -0.06621998 0.9356369 0.5681689
v -0.082081564 0.9440107 0.55602634
v -0.0788321 0.95966 0.56017417
v -0.049122967 0.90998137 0.58452505
v -0.039872166 0.908146 0.5853487
v -0.047666993 0.9117291 0.5861865
v -0.039250813 0.9089633 0.58711475
v -0.03952465 0.91235423 0.58597153
v -0.05773517 0.91775113 0.57661545
v -0.047538687 0.9140661 0.5860499
v -0.053311437 0.92871255 0.5755411
v -0.04088923 0.929623 0.57165736
v -0.052501142 0.94305015 0.57495266
v -0.040199075 0.9415084 0.57148147
v -0.06438483 0.9510351 0.5700024
v -0.05367838 0.96182036 0.571359
v -0.04150077 0.9605585 0.56833214
v -0.04657422 0.9803901 0.558044
v -0.06153844 0.96229786 0.56887984
v -0.06954072 0.9735991 0.56179076
v -0.05755325 0.97970426 0.56155866
v -0.06648277 0.99392074 0.54454803
v -0.057050433 0.99532384 0.5406306
v -0.080790944 0.98444545 0.54677945
v -0.078398116 0.99894404 0.52433604
vt 0.41365063 0.9479845
vt 0.42003316 0.952526
vt 0.41733956 0.9589374
vt 0.42258322 0.9743055
vt 0.42466265 0.96644247
vt 0.43052757 0.9838316
vt 0.41681403 0.939873
vt 0.42358905 0.9365372
vt 0.42536175 0.9475288
vt 0.41038114 0.9330446
vt 0.40853316 0.93926746
vt 0.40671402 0.92672664
vt 0.40242082 0.9274581
vt 0.40611732 0.9240358
vt 0.40223324 0.9241285
vt 0.41042608 0.9252438
vt 0.4065382 0.9213471
vt 0.40265286 0.9196682
vt 0.40938485 0.9186028
vt 0.40842783 0.9125666
vt 0.41565162 0.9145592
vt 0.41445267 0.9072652
vt 0.41660935 0.9253882
vt 0.42083967 0.91076213
vt 0.41991025 0.9026227
vt 0.4223312 0.923951
vt 0.42745262 0.9063354
vt 0.42628163 0.8975289
vt 0.42959625 0.920526
vt 0.4358176 0.9022218
vt 0.43520772 0.8922655
vt 0.44415796 0.90118307
vt 0.44413292 0.8900334
vt 0.43671876 0.9169316
vt 0.4375 0.9296875
vt 0.43090594 0.93293405
vt 0.43193293 0.946055
vt 0.45127636 0.90160704
vt 0.45137346 0.89012593
vt 0.44464463 0.9136607
vt 0.45780182 0.9025595
vt 0.4584353 0.8913457
vt 0.42724437 0.95492446
vt 0.43253565 0.9596837
vt 0.43840897 0.94452703
vt 0.45177633 0.91083634
vt 0.45204508 0.92252547
vt 0.4446897 0.9261471
vt 0.44498122 0.9408244
vt 0.4619484 0.902209
vt 0.4677799 0.8990859
vt 0.4625522 0.90402615
vt 0.46830377 0.9008411
vt 0.46831462 0.9047364
vt 0.45794678 0.9076069
vt 0.4625073 0.9061351
vt 0.45829445 0.9194483
vt 0.46271002 0.9262324
vt 0.45657653 0.933764
vt 0.46116972 0.937547
vt 0.4513259 0.93753386
vt 0.45335513 0.95098925
vt 0.4575128 0.9561868
vt 0.45077658 0.97450703
vt 0.4506668 0.9485263
vt 0.44605035 0.95534253
vt 0.44820035 0.96594584
vt 0.44028097 0.9750885
vt 0.44086903 0.98468757
vt 0.4393502 0.9598919
vt 0.4315465 0.9734993
vt 0.4136507 0.9479845
vt 0.41733956 0.9589374
vt 0.42003316 0.952526
vt 0.42258322 0.9743055
vt 0.42466265 0.96644247
vt 0.43052757 0.9838316
vt 0.41681397 0.939873
vt 0.4235891 0.9365372
vt 0.4253618 0.9475288
vt 0.41038114 0.9330446
vt 0.4085331 0.93926746
vt 0.40671408 0.92672664
vt 0.40242082 0.9274581
vt 0.40611732 0.9240358
vt 0.40223324 0.9241285
vt 0.41042608 0.9252438
vt 0.4065382 0.9213471
vt 0.40265286 0.9196682
vt 0.4093848 0.9186028
vt 0.40842777 0.9125666
vt 0.41565162 0.9145592
vt 0.41445267 0.9072652
vt 0.41660935 0.9253882
vt 0.42083967 0.91076213
vt 0.4199103 0.9026227
vt 0.42233127 0.923951
vt 0.42745256 0.9063354
vt 0.42628157 0.8975289
vt 0.42959625 0.920526
vt 0.4358176 0.9022218
vt 0.43520778 0.8922655
vt 0.44415796 0.90118307
vt 0.44413304 0.8900334
vt 0.43671882 0.9169316
vt 0.4375 0.9296875
vt 0.43090594 0.93293405
vt 0.43193293 0.946055
vt 0.45127642 0.90160704
vt 0.45137346 0.89012593
vt 0.44464463 0.9136607
vt 0.45780182 0.9025595
vt 0.4584353 0.8913457
vt 0.42724442 0.95492446
vt 0.43253577 0.9596837
vt 0.4384089 0.94452703
vt 0.45177633 0.91083634
vt 0.45204514 0.92252547
vt 0.4446897 0.9261471
vt 0.44498128 0.9408244
vt 0.46194834 0.902209
vt 0.46777984 0.8990859
vt 0.46255225 0.90402615
vt 0.46830377 0.9008411
vt 0.46831468 0.9047364
vt 0.45794678 0.9076069
vt 0.46250737 0.9061351
vt 0.45829445 0.9194483
vt 0.46271002 0.9262324
vt 0.4565766 0.933764
vt 0.46116966 0.937547
vt 0.4513259 0.93753386
vt 0.45335513 0.95098925
vt 0.45751286 0.9561868
vt 0.45077658 0.97450703
vt 0.4506668 0.9485263
vt 0.44605035 0.95534253
vt 0.4482003 0.96594584
vt 0.44028097 0.9750885
vt 0.4408691 0.98468757
vt 0.4393502 0.9598919
vt 0.4315464 0.9734993
vn 0.5424926 0.8207063 -0.17928441
vn 0.681258 0.7250215 -0.101150244
vn 0.49518827 0.84868765 -0.18578947
vn 0.39644083 0.9164354 -0.054596104
vn 0.5453265 0.8379921 0.019708391
vn 0.26058257 0.94336116 0.20534472
vn 0.83076847 0.54426605 -0.116611354
vn 0.9827299 0.1836236 0.022899956
vn 0.85440916 0.5138647 0.07699402
vn 0.7508401 0.6478817 -0.12840705
vn 0.52464855 0.8369001 -0.15601927
vn 0.7227926 0.65489715 -0.22063695
vn 0.6111901 0.74170154 -0.27627084
vn 0.8968797 0.21503672 -0.38647905
vn 0.80834097 0.2879878 -0.51346654
vn 0.96863 0.06159078 -0.24075395
vn 0.8242829 -0.28719583 -0.48793057
vn 0.7498309 -0.3236767 -0.57705027
vn 0.7892045 -0.48620856 -0.37517667
vn 0.6269256 -0.6335447 -0.45341536
vn 0.7317973 -0.61928046 -0.28454274
vn 0.551689 -0.7579126 -0.3481492
vn 0.97655904 -0.13013214 -0.1714584
vn 0.6804969 -0.70000464 -0.21660435
vn 0.52099276 -0.80739033 -0.27692485
vn 0.9353049 -0.3426481 -0.08830172
vn 0.6380408 -0.75624484 -0.14490621
vn 0.50804454 -0.83430856 -0.21405609
vn 0.87011904 -0.49240324 0.02078401
vn 0.6066877 -0.7921894 -0.06607468
vn 0.49706846 -0.8537541 -0.15500616
vn 0.5905842 -0.806737 0.019639842
vn 0.4852167 -0.8688254 -0.09852529
vn 0.80548614 -0.57236004 0.15360996
vn 0.8945692 -0.17421305 0.41157702
vn 0.97676826 -0.050787725 0.20819332
vn 0.8802483 0.35272226 0.31741124
vn 0.5878252 -0.7982258 0.13151869
vn 0.47741553 -0.8785231 -0.0164758
vn 0.754018 -0.58141786 0.30563062
vn 0.5682961 -0.76150495 0.31168857
vn 0.46876332 -0.86824906 0.16249512
vn 0.7089672 0.6930864 0.13037103
vn 0.67082953 0.6574397 0.3431629
vn 0.79066086 0.22966738 0.56754583
vn 0.7031649 -0.52072066 0.48415804
vn 0.60070515 -0.12319513 0.7899217
vn 0.7698601 -0.19817099 0.60666615
vn 0.6297604 0.14708272 0.7627375
vn 0.508909 -0.6839122 0.5227578
vn 0.43437713 -0.74984753 0.49904427
vn 0.45479614 -0.324185 0.8294965
vn 0.3247981 -0.32991976 0.8863742
vn 0.1350058 0.081232056 0.9875094
vn 0.5958614 -0.40609446 0.6928467
vn 0.2719742 0.043159712 0.9613362
vn 0.32506576 0.044684336 0.9446351
vn 0.050742455 0.19430155 0.9796285
vn 0.16344671 0.20611693 0.9647804
vn -0.03790133 0.2675279 0.9628043
vn 0.43054304 0.13263251 0.8927716
vn 0.09989431 0.3728274 0.92250794
vn -0.06404445 0.41930893 0.90558183
vn -0.007910266 0.6485841 0.7611019
vn 0.30938426 0.30135038 0.9019253
vn 0.41905624 0.41406325 0.80804914
vn 0.15920383 0.5823599 0.7971895
vn 0.28357118 0.7758172 0.5636445
vn 0.1124013 0.85336673 0.5090492
vn 0.5614991 0.5596305 0.6095346
vn 0.42332917 0.8648464 0.2698759
vn -0.5424928 0.8207061 -0.17928502
vn -0.49518827 0.8486878 -0.18578857
vn -0.6812579 0.7250217 -0.101149365
vn -0.39644068 0.9164356 -0.054593958
vn -0.5453262 0.8379922 0.019710233
vn -0.26058215 0.94336087 0.20534705
vn -0.83076847 0.544266 -0.11661183
vn -0.9827298 0.18362363 0.022899961
vn -0.8544089 0.51386493 0.076994725
vn -0.75084025 0.64788115 -0.12840925
vn -0.5246488 0.83689964 -0.15602164
vn -0.7227923 0.65489614 -0.22064061
vn -0.61118954 0.7417004 -0.27627486
vn -0.8968784 0.21503535 -0.3864827
vn -0.8083389 0.2879861 -0.5134708
vn -0.96862954 0.061590113 -0.24075614
vn -0.8242811 -0.28719652 -0.4879332
vn -0.7498286 -0.3236773 -0.57705295
vn -0.7892036 -0.48620883 -0.37517837
vn -0.6269244 -0.6335447 -0.45341688
vn -0.73179674 -0.61928046 -0.2845438
vn -0.5516885 -0.7579124 -0.34815013
vn -0.9765588 -0.13013254 -0.17145951
vn -0.68049645 -0.7000048 -0.21660519
vn -0.5209923 -0.80739033 -0.27692565
vn -0.93530464 -0.34264836 -0.08830246
vn -0.6380404 -0.75624496 -0.1449069
vn -0.50804406 -0.83430874 -0.21405667
vn -0.870119 -0.49240342 0.020783594
vn -0.6066874 -0.79218966 -0.06607527
vn -0.497068 -0.8537543 -0.15500666
vn -0.59058404 -0.80673707 0.019639324
vn -0.48521644 -0.86882555 -0.09852553
vn -0.80548614 -0.5723601 0.15360971
vn -0.8945692 -0.17421311 0.41157722
vn -0.97676814 -0.05078773 0.20819347
vn -0.880248 0.35272247 0.3174118
vn -0.587825 -0.79822594 0.13151853
vn -0.47741532 -0.8785233 -0.016475672
vn -0.75401807 -0.581418 0.3056302
vn -0.5682958 -0.76150525 0.3116883
vn -0.468763 -0.86824924 0.16249497
vn -0.7089668 0.6930867 0.13037223
vn -0.6708289 0.65743977 0.34316412
vn -0.7906605 0.22966738 0.5675464
vn -0.7031649 -0.5207209 0.48415783
vn -0.60070515 -0.12319523 0.7899217
vn -0.76986015 -0.19817111 0.60666597
vn -0.6297602 0.14708275 0.7627377
vn -0.5089088 -0.6839131 0.5227569
vn -0.43437707 -0.74984854 0.49904278
vn -0.45479622 -0.32418647 0.82949585
vn -0.32479843 -0.329922 0.8863732
vn -0.13500574 0.08123083 0.98750955
vn -0.5958612 -0.40609497 0.69284654
vn -0.271974 0.043158732 0.9613363
vn -0.32506552 0.044684198 0.9446352
vn -0.05074214 0.19430122 0.9796286
vn -0.1634464 0.20611711 0.9647804
vn 0.037901647 0.2675279 0.9628043
vn -0.43054256 0.13263254 0.8927719
vn -0.09989376 0.37282732 0.922508
vn 0.06404477 0.41930887 0.9055817
vn 0.007910595 0.6485838 0.76110214
vn -0.30938357 0.3013505 0.9019256
vn -0.41905543 0.414063 0.8080498
vn -0.15920323 0.5823595 0.79718983
vn -0.2835704 0.7758165 0.5636458
vn -0.112401 0.8533661 0.5090505
vn -0.56149846 0.5596301 0.6095356
vn -0.4233286 0.86484605 0.2698781
g pm0676_11_Eye123Skin_0
f 3/3/3 2/2/2 1/1/1
f 3/3/3 4/4/4 2/2/2
f 4/4/4 5/5/5 2/2/2
f 4/4/4 6/6/6 5/5/5
f 2/2/2 7/7/7 1/1/1
f 8/8/8 7/7/7 2/2/2
f 9/9/9 2/2/2 5/5/5
f 9/9/9 8/8/8 2/2/2
f 7/7/7 10/10/10 1/1/1
f 10/10/10 11/11/11 1/1/1
f 10/10/10 12/12/12 11/11/11
f 12/12/12 13/13/13 11/11/11
f 13/13/13 12/12/12 14/14/14
f 14/14/14 12/12/12 10/10/10
f 15/15/15 13/13/13 14/14/14
f 16/16/16 10/10/10 7/7/7
f 16/16/16 14/14/14 10/10/10
f 15/15/15 14/14/14 17/17/17
f 18/18/18 15/15/15 17/17/17
f 19/19/19 17/17/17 14/14/14
f 18/18/18 17/17/17 19/19/19
f 16/16/16 19/19/19 14/14/14
f 20/20/20 18/18/18 19/19/19
f 20/20/20 19/19/19 21/21/21
f 21/21/21 19/19/19 16/16/16
f 22/22/22 20/20/20 21/21/21
f 23/23/23 16/16/16 7/7/7
f 23/23/23 21/21/21 16/16/16
f 23/23/23 7/7/7 8/8/8
f 21/21/21 24/24/24 22/22/22
f 24/24/24 21/21/21 23/23/23
f 24/24/24 25/25/25 22/22/22
f 26/26/26 24/24/24 23/23/23
f 26/26/26 23/23/23 8/8/8
f 24/24/24 27/27/27 25/25/25
f 24/24/24 26/26/26 27/27/27
f 27/27/27 28/28/28 25/25/25
f 26/26/26 29/29/29 27/27/27
f 26/26/26 8/8/8 29/29/29
f 27/27/27 30/30/30 28/28/28
f 30/30/30 27/27/27 29/29/29
f 30/30/30 31/31/31 28/28/28
f 30/30/30 32/32/32 31/31/31
f 32/32/32 33/33/33 31/31/31
f 34/34/34 30/30/30 29/29/29
f 30/30/30 34/34/34 32/32/32
f 34/34/34 29/29/29 35/35/35
f 8/8/8 36/36/36 29/29/29
f 29/29/29 36/36/36 35/35/35
f 37/37/37 36/36/36 8/8/8
f 35/35/35 36/36/36 37/37/37
f 9/9/9 37/37/37 8/8/8
f 32/32/32 38/38/38 33/33/33
f 38/38/38 39/39/39 33/33/33
f 34/34/34 40/40/40 32/32/32
f 34/34/34 35/35/35 40/40/40
f 38/38/38 32/32/32 40/40/40
f 38/38/38 41/41/41 39/39/39
f 41/41/41 42/42/42 39/39/39
f 9/9/9 43/43/43 37/37/37
f 43/43/43 9/9/9 5/5/5
f 43/43/43 44/44/44 37/37/37
f 43/43/43 5/5/5 44/44/44
f 45/45/45 35/35/35 37/37/37
f 45/45/45 37/37/37 44/44/44
f 46/46/46 38/38/38 40/40/40
f 38/38/38 46/46/46 41/41/41
f 46/46/46 40/40/40 47/47/47
f 35/35/35 48/48/48 40/40/40
f 40/40/40 48/48/48 47/47/47
f 49/49/49 48/48/48 35/35/35
f 45/45/45 49/49/49 35/35/35
f 47/47/47 48/48/48 49/49/49
f 41/41/41 50/50/50 42/42/42
f 50/50/50 51/51/51 42/42/42
f 51/51/51 50/50/50 52/52/52
f 52/52/52 50/50/50 41/41/41
f 53/53/53 51/51/51 52/52/52
f 53/53/53 52/52/52 54/54/54
f 46/46/46 55/55/55 41/41/41
f 55/55/55 52/52/52 41/41/41
f 46/46/46 47/47/47 55/55/55
f 52/52/52 56/56/56 54/54/54
f 56/56/56 52/52/52 55/55/55
f 54/54/54 56/56/56 57/57/57
f 57/57/57 56/56/56 55/55/55
f 47/47/47 57/57/57 55/55/55
f 58/58/58 54/54/54 57/57/57
f 58/58/58 57/57/57 59/59/59
f 59/59/59 57/57/57 47/47/47
f 60/60/60 58/58/58 59/59/59
f 61/61/61 59/59/59 47/47/47
f 61/61/61 47/47/47 49/49/49
f 60/60/60 59/59/59 62/62/62
f 63/63/63 60/60/60 62/62/62
f 63/63/63 62/62/62 64/64/64
f 61/61/61 65/65/65 59/59/59
f 65/65/65 62/62/62 59/59/59
f 65/65/65 61/61/61 66/66/66
f 61/61/61 49/49/49 66/66/66
f 65/65/65 66/66/66 62/62/62
f 62/62/62 67/67/67 64/64/64
f 66/66/66 67/67/67 62/62/62
f 64/64/64 67/67/67 68/68/68
f 68/68/68 67/67/67 66/66/66
f 69/69/69 64/64/64 68/68/68
f 69/69/69 68/68/68 6/6/6
f 70/70/70 66/66/66 49/49/49
f 70/70/70 68/68/68 66/66/66
f 45/45/45 70/70/70 49/49/49
f 70/70/70 45/45/45 44/44/44
f 70/70/70 44/44/44 68/68/68
f 68/68/68 71/71/71 6/6/6
f 44/44/44 71/71/71 68/68/68
f 6/6/6 71/71/71 5/5/5
f 5/5/5 71/71/71 44/44/44
f 74/74/74 73/73/73 72/72/72
f 75/75/75 73/73/73 74/74/74
f 76/76/76 75/75/75 74/74/74
f 77/77/77 75/75/75 76/76/76
f 78/78/78 74/74/74 72/72/72
f 78/78/78 79/79/79 74/74/74
f 74/74/74 80/80/80 76/76/76
f 79/79/79 80/80/80 74/74/74
f 81/81/81 78/78/78 72/72/72
f 82/82/82 81/81/81 72/72/72
f 83/83/83 81/81/81 82/82/82
f 84/84/84 83/83/83 82/82/82
f 83/83/83 84/84/84 85/85/85
f 83/83/83 85/85/85 81/81/81
f 84/84/84 86/86/86 85/85/85
f 81/81/81 87/87/87 78/78/78
f 85/85/85 87/87/87 81/81/81
f 85/85/85 86/86/86 88/88/88
f 86/86/86 89/89/89 88/88/88
f 88/88/88 90/90/90 85/85/85
f 88/88/88 89/89/89 90/90/90
f 90/90/90 87/87/87 85/85/85
f 89/89/89 91/91/91 90/90/90
f 90/90/90 91/91/91 92/92/92
f 90/90/90 92/92/92 87/87/87
f 91/91/91 93/93/93 92/92/92
f 87/87/87 94/94/94 78/78/78
f 92/92/92 94/94/94 87/87/87
f 78/78/78 94/94/94 79/79/79
f 95/95/95 92/92/92 93/93/93
f 92/92/92 95/95/95 94/94/94
f 96/96/96 95/95/95 93/93/93
f 95/95/95 97/97/97 94/94/94
f 94/94/94 97/97/97 79/79/79
f 98/98/98 95/95/95 96/96/96
f 97/97/97 95/95/95 98/98/98
f 99/99/99 98/98/98 96/96/96
f 100/100/100 97/97/97 98/98/98
f 79/79/79 97/97/97 100/100/100
f 101/101/101 98/98/98 99/99/99
f 98/98/98 101/101/101 100/100/100
f 102/102/102 101/101/101 99/99/99
f 103/103/103 101/101/101 102/102/102
f 104/104/104 103/103/103 102/102/102
f 101/101/101 105/105/105 100/100/100
f 105/105/105 101/101/101 103/103/103
f 100/100/100 105/105/105 106/106/106
f 107/107/107 79/79/79 100/100/100
f 107/107/107 100/100/100 106/106/106
f 107/107/107 108/108/108 79/79/79
f 107/107/107 106/106/106 108/108/108
f 108/108/108 80/80/80 79/79/79
f 109/109/109 103/103/103 104/104/104
f 110/110/110 109/109/109 104/104/104
f 111/111/111 105/105/105 103/103/103
f 106/106/106 105/105/105 111/111/111
f 103/103/103 109/109/109 111/111/111
f 112/112/112 109/109/109 110/110/110
f 113/113/113 112/112/112 110/110/110
f 114/114/114 80/80/80 108/108/108
f 80/80/80 114/114/114 76/76/76
f 115/115/115 114/114/114 108/108/108
f 76/76/76 114/114/114 115/115/115
f 106/106/106 116/116/116 108/108/108
f 108/108/108 116/116/116 115/115/115
f 109/109/109 117/117/117 111/111/111
f 117/117/117 109/109/109 112/112/112
f 111/111/111 117/117/117 118/118/118
f 119/119/119 106/106/106 111/111/111
f 119/119/119 111/111/111 118/118/118
f 119/119/119 120/120/120 106/106/106
f 120/120/120 116/116/116 106/106/106
f 119/119/119 118/118/118 120/120/120
f 121/121/121 112/112/112 113/113/113
f 122/122/122 121/121/121 113/113/113
f 121/121/121 122/122/122 123/123/123
f 121/121/121 123/123/123 112/112/112
f 122/122/122 124/124/124 123/123/123
f 123/123/123 124/124/124 125/125/125
f 126/126/126 117/117/117 112/112/112
f 123/123/123 126/126/126 112/112/112
f 118/118/118 117/117/117 126/126/126
f 127/127/127 123/123/123 125/125/125
f 123/123/123 127/127/127 126/126/126
f 127/127/127 125/125/125 128/128/128
f 127/127/127 128/128/128 126/126/126
f 128/128/128 118/118/118 126/126/126
f 125/125/125 129/129/129 128/128/128
f 128/128/128 129/129/129 130/130/130
f 128/128/128 130/130/130 118/118/118
f 129/129/129 131/131/131 130/130/130
f 130/130/130 132/132/132 118/118/118
f 118/118/118 132/132/132 120/120/120
f 130/130/130 131/131/131 133/133/133
f 131/131/131 134/134/134 133/133/133
f 133/133/133 134/134/134 135/135/135
f 136/136/136 132/132/132 130/130/130
f 133/133/133 136/136/136 130/130/130
f 132/132/132 136/136/136 137/137/137
f 120/120/120 132/132/132 137/137/137
f 137/137/137 136/136/136 133/133/133
f 138/138/138 133/133/133 135/135/135
f 138/138/138 137/137/137 133/133/133
f 138/138/138 135/135/135 139/139/139
f 138/138/138 139/139/139 137/137/137
f 135/135/135 140/140/140 139/139/139
f 139/139/139 140/140/140 77/77/77
f 137/137/137 141/141/141 120/120/120
f 139/139/139 141/141/141 137/137/137
f 141/141/141 116/116/116 120/120/120
f 116/116/116 141/141/141 115/115/115
f 115/115/115 141/141/141 139/139/139
f 142/142/142 139/139/139 77/77/77
f 142/142/142 115/115/115 139/139/139
f 142/142/142 77/77/77 76/76/76
f 142/142/142 76/76/76 115/115/115
