g pm0627_00_RCloseWingSkin
v -0.049105372 0.07944158 -0.06868814
v -0.05373617 0.08193566 -0.073337145
v -0.0525621 0.07667027 -0.07595859
v -0.053040832 0.10446151 -0.05552548
v -0.05771588 0.09620983 -0.06609914
v -0.061433304 0.08964335 -0.06764088
v -0.06813064 0.10662458 -0.05772021
v -0.06967994 0.10094811 -0.05697423
v -0.08160627 0.11736687 -0.03637235
v -0.076100655 0.1257616 -0.03802268
v -0.09049739 0.13110115 -0.0107016275
v -0.057910487 0.10736385 -0.056056622
v -0.06278014 0.11026619 -0.056587763
v -0.069326125 0.13166524 -0.03851022
v -0.0647141 0.1301358 -0.036568165
v -0.060102064 0.12860638 -0.034626115
v -0.082120165 0.14246473 -0.013836073
v -0.06782673 0.1482793 -0.014264952
v -0.062680714 0.14772101 -0.013372145
v -0.061446473 0.15923013 0.01294183
v -0.07297275 0.1488376 -0.015157761
v -0.067490764 0.1591618 0.0127960425
v -0.05993502 0.16390255 0.034372285
v -0.08364525 0.15278539 0.014751465
v -0.09143194 0.14262338 0.018279742
v -0.08286242 0.15760024 0.03676022
v -0.08993748 0.14799698 0.040775426
v -0.07353506 0.1590935 0.012650256
v -0.066886045 0.16374955 0.034140795
v -0.056791052 0.16129555 0.057495814
v -0.07383707 0.16359656 0.03390931
v -0.06463391 0.16154473 0.05857867
v -0.053905766 0.15309753 0.07244295
v -0.072476774 0.16179387 0.05966153
v -0.062226627 0.15354985 0.074279666
v -0.051774483 0.1351066 0.08458112
v -0.060316157 0.13560216 0.08680023
v -0.068857834 0.13609773 0.08901933
v -0.07054749 0.15400216 0.076116376
v -0.08144771 0.15642177 0.055604823
v -0.080469914 0.14942198 0.07004557
v -0.087222986 0.14822324 0.052378397
v -0.090275235 0.14223817 0.060140975
v -0.09062252 0.12829338 0.069751754
v -0.07932597 0.13307664 0.081765726
v -0.097586736 0.13596418 0.045715727
v -0.06908831 0.11402597 0.09066052
v -0.07914012 0.1129905 0.08330008
v -0.0607731 0.113728546 0.08876746
v -0.060316157 0.13560216 0.08680023
v -0.052457888 0.113431126 0.086874396
v -0.051774483 0.1351066 0.08458112
v -0.05445832 0.09738742 0.080746874
v -0.062292073 0.09738701 0.08192055
v -0.0568853 0.08035149 0.06476985
v -0.070125826 0.09738658 0.0830942
v -0.063824415 0.07987222 0.06465707
v -0.06422308 0.06963926 0.04536615
v -0.058192015 0.07006985 0.04538013
v -0.06462504 0.06056483 0.017647339
v -0.059547987 0.061895847 0.017852781
v -0.05770832 0.06302672 -0.010766923
v -0.062165536 0.06031457 -0.011165798
v -0.051728837 0.06851763 -0.042448387
v -0.0697021 0.05923382 0.017441897
v -0.070254155 0.069208674 0.04535217
v -0.07076352 0.079392955 0.06454428
v -0.080220595 0.08522361 0.06309229
v -0.07932658 0.09831023 0.07674697
v -0.089152955 0.11149148 0.07132723
v -0.085540615 0.10213235 0.069147184
v -0.09651331 0.10655631 0.056414902
v -0.08799145 0.09468333 0.060172006
v -0.10144351 0.1212098 0.05136744
v -0.10796838 0.11272134 0.028690562
v -0.10374251 0.09876078 0.033830013
v -0.10477182 0.1269599 0.023570605
v -0.09584866 0.13997214 0.018976292
v -0.09143194 0.14262338 0.018279742
v -0.09049739 0.13110115 -0.0107016275
v -0.095373355 0.12847933 -0.010312784
v -0.10316396 0.11593529 -0.0066607445
v -0.08608389 0.1150869 -0.03613895
v -0.08160627 0.11736687 -0.03637235
v -0.06967994 0.10094811 -0.05697423
v -0.092492886 0.10369758 -0.033669878
v -0.07293939 0.09900391 -0.057255194
v -0.061433304 0.08964335 -0.06764088
v -0.10562485 0.10169309 -0.0018569126
v -0.062269866 0.087943085 -0.06905296
v -0.05373617 0.08193566 -0.073337145
v -0.07667428 0.092135094 -0.05627084
v -0.055443425 0.080742106 -0.07458916
v -0.0525621 0.07667027 -0.07595859
v -0.062805064 0.08415098 -0.06986987
v -0.05447562 0.076593734 -0.075977
v -0.102140106 0.08788529 0.0035444072
v -0.094262674 0.09185653 -0.030033734
v -0.06355501 0.078791484 -0.06902531
v -0.05520653 0.07425221 -0.072228014
v -0.053455763 0.074253686 -0.07054229
v -0.09164936 0.080588505 -0.02526233
v -0.0934745 0.07645758 0.008613777
v -0.077465616 0.08369677 -0.05414696
v -0.076083004 0.07593651 -0.050377473
v -0.06244193 0.0742023 -0.06625034
v -0.061682943 0.07186339 -0.06320284
v -0.060771942 0.071524315 -0.061048817
v -0.07189154 0.07029649 -0.046810847
v -0.068521135 0.06920106 -0.04542401
v -0.08446419 0.07071345 -0.019995
v -0.07984483 0.06910977 -0.01881544
v -0.088432044 0.07451855 0.009884258
v -0.09389479 0.08644347 0.038451098
v -0.089301415 0.08425488 0.039515384
v -0.089301415 0.08425488 0.039515384
v -0.08079599 0.07472653 0.043150857
v -0.088432044 0.07451855 0.009884258
v -0.07926936 0.06436285 0.01457897
v -0.073772915 0.061990317 -0.01482141
v -0.07984483 0.06910977 -0.01881544
v -0.06662275 0.057602424 -0.011564672
v -0.066592485 0.06448441 -0.04238877
v -0.068521135 0.06920106 -0.04542401
v -0.060771942 0.071524315 -0.061048817
v -0.056387708 0.06564537 -0.040878605
v -0.061046585 0.0627731 -0.039308827
v -0.056676533 0.067735545 -0.055739615
v -0.053455763 0.074253686 -0.07054229
v -0.049105372 0.07944158 -0.06868814
v -0.0525621 0.07667027 -0.07595859
v -0.049105372 0.07944158 -0.06868814
v -0.049625125 0.08689006 -0.04860045
v -0.053040832 0.10446151 -0.05552548
v -0.051829025 0.09657914 -0.021240143
v -0.060102064 0.12860638 -0.034626115
v -0.05311109 0.105826795 0.0033699023
v -0.062680714 0.14772101 -0.013372145
v -0.053252533 0.11553143 0.029968832
v -0.061446473 0.15923013 0.01294183
v -0.05252105 0.12285775 0.050117344
v -0.05993502 0.16390255 0.034372285
v -0.05155567 0.12991354 0.06976384
v -0.056791052 0.16129555 0.057495814
v -0.051774483 0.1351066 0.08458112
v -0.053905766 0.15309753 0.07244295
v -0.049105372 0.07944158 -0.06868814
v -0.051728837 0.06851763 -0.042448387
v -0.049625125 0.08689006 -0.04860045
v -0.051829025 0.09657914 -0.021240143
v -0.05770832 0.06302672 -0.010766923
v -0.05311109 0.105826795 0.0033699023
v -0.059547987 0.061895847 0.017852781
v -0.053252533 0.11553143 0.029968832
v -0.058192015 0.07006985 0.04538013
v -0.05252105 0.12285775 0.050117344
v -0.0568853 0.08035149 0.06476985
v -0.05155567 0.12991354 0.06976384
v -0.05445832 0.09738742 0.080746874
v -0.051774483 0.1351066 0.08458112
v -0.052457888 0.113431126 0.086874396
vt 0.5043572 0.56519306
vt 0.5091866 0.580264
vt 0.5175395 0.5726835
vt 0.46696997 0.60943174
vt 0.49021313 0.61120576
vt 0.50107455 0.60885596
vt 0.48237023 0.64365184
vt 0.49039775 0.6435994
vt 0.47879675 0.6996123
vt 0.46465957 0.69825864
vt 0.47386897 0.75641555
vt 0.46998042 0.6240041
vt 0.47299087 0.6385765
vt 0.45020813 0.6932292
vt 0.44277447 0.6870334
vt 0.4353408 0.6808377
vt 0.45430008 0.75638056
vt 0.42718518 0.7562194
vt 0.41845363 0.75613016
vt 0.41571972 0.8271631
vt 0.43591675 0.7563087
vt 0.4259505 0.82523894
vt 0.4312821 0.8910925
vt 0.45503533 0.8209237
vt 0.47311756 0.8189742
vt 0.46289104 0.86421025
vt 0.47926274 0.8600814
vt 0.43618128 0.82331485
vt 0.43657112 0.8812439
vt 0.45516765 0.9464584
vt 0.44657716 0.8713953
vt 0.45938066 0.93230116
vt 0.47616622 0.97766954
vt 0.4683107 0.91814387
vt 0.4823168 0.95856625
vt 0.51753956 0.9932395
vt 0.5175395 0.97077644
vt 0.5175395 0.94831336
vt 0.48846734 0.93946296
vt 0.47651234 0.8962086
vt 0.49282146 0.9145008
vt 0.48490602 0.88116324
vt 0.4971532 0.88691056
vt 0.51753956 0.8924192
vt 0.5175394 0.9223702
vt 0.4979596 0.85622364
vt 0.5465695 0.93947476
vt 0.5422185 0.9145105
vt 0.55272007 0.95858157
vt 0.5175395 0.97077644
vt 0.5588706 0.9776884
vt 0.51753956 0.9932395
vt 0.5804623 0.9464906
vt 0.57565963 0.93232954
vt 0.6043581 0.89112926
vt 0.5667296 0.91816854
vt 0.5984781 0.88127404
vt 0.6091099 0.8252988
vt 0.61521477 0.8272166
vt 0.6078717 0.7562226
vt 0.61660385 0.756133
vt 0.59971416 0.680964
vt 0.592278 0.6871656
vt 0.5668346 0.60911274
vt 0.5991396 0.7563122
vt 0.5988775 0.8233809
vt 0.5884706 0.87141883
vt 0.5726659 0.86501783
vt 0.5591235 0.8979062
vt 0.5378861 0.88691586
vt 0.5501344 0.88117313
vt 0.53708297 0.85623324
vt 0.5557841 0.86009693
vt 0.5175395 0.8540044
vt 0.51753974 0.81609064
vt 0.5354395 0.81658864
vt 0.4996013 0.81657046
vt 0.47970247 0.81798637
vt 0.47311756 0.8189742
vt 0.47386897 0.75641555
vt 0.4809396 0.75645715
vt 0.49953264 0.756504
vt 0.48513934 0.70154834
vt 0.47879675 0.6996123
vt 0.49039775 0.6435994
vt 0.5019669 0.70308095
vt 0.49550363 0.64684534
vt 0.50107455 0.60885596
vt 0.51753956 0.75651586
vt 0.50431275 0.60738695
vt 0.5091866 0.580264
vt 0.5059537 0.6495222
vt 0.51217854 0.58192855
vt 0.5175395 0.5726835
vt 0.5096469 0.6046174
vt 0.51753956 0.577252
vt 0.53551406 0.75650436
vt 0.51753956 0.7034381
vt 0.51753974 0.6043871
vt 0.5229014 0.5819371
vt 0.5258898 0.58027595
vt 0.5330846 0.70313704
vt 0.554105 0.7564582
vt 0.51753956 0.64948416
vt 0.529093 0.64965415
vt 0.5253806 0.60559076
vt 0.53058326 0.60962147
vt 0.53370774 0.61182433
vt 0.53939706 0.64770585
vt 0.54439324 0.6447225
vt 0.5499152 0.70165837
vt 0.55622166 0.69973415
vt 0.5611766 0.7564184
vt 0.5553325 0.8180338
vt 0.56192213 0.81903946
vt 0.56192213 0.81903946
vt 0.5795937 0.82102734
vt 0.5611766 0.7564184
vt 0.58075154 0.7563828
vt 0.5703952 0.69835395
vt 0.55622166 0.69973415
vt 0.5848418 0.69336724
vt 0.55247736 0.6443986
vt 0.54439324 0.6447225
vt 0.53370774 0.61182433
vt 0.565449 0.6238558
vt 0.5620726 0.63859886
vt 0.54485846 0.6112207
vt 0.5258898 0.58027595
vt 0.5307316 0.565198
vt 0.5175395 0.5726835
vt 0.12882197 0.603127
vt 0.12882204 0.6364895
vt 0.14616764 0.6364895
vt 0.12882204 0.6818773
vt 0.16598842 0.6818771
vt 0.12882204 0.7210536
vt 0.17723434 0.72105396
vt 0.12882204 0.7656378
vt 0.17883481 0.7656376
vt 0.12882204 0.7994502
vt 0.17562102 0.7994502
vt 0.12882204 0.8319739
vt 0.1645871 0.8319742
vt 0.12882204 0.8578105
vt 0.15104268 0.8496034
vt 0.12882197 0.603127
vt 0.11189876 0.63648915
vt 0.12882204 0.6364895
vt 0.12882204 0.6818773
vt 0.09199108 0.68187743
vt 0.12882204 0.7210536
vt 0.08078751 0.7210532
vt 0.12882204 0.7656378
vt 0.079231516 0.7656377
vt 0.12882204 0.7994502
vt 0.08248271 0.7994502
vt 0.12882204 0.8319739
vt 0.093552366 0.8319742
vt 0.12882204 0.8578105
vt 0.10711474 0.8496033
vn 0.90510595 -0.19672197 -0.37693995
vn 0.617455 0.30277598 -0.72599995
vn 0.83836305 -0.15891984 -0.5214324
vn 0.8368651 0.24535376 -0.48934475
vn 0.3213781 0.54187244 -0.7765889
vn -0.13613777 0.46814984 -0.8730992
vn -0.39884263 0.47931784 -0.7817794
vn -0.54689753 0.3936029 -0.7389045
vn -0.69047797 0.43732798 -0.5761809
vn -0.52612334 0.56175584 -0.63845485
vn -0.74416184 0.54105145 -0.39177358
vn 0.37675107 0.6147528 -0.6929196
vn 0.027639141 0.6225642 -0.7820804
vn -0.097873725 0.7321839 -0.67403823
vn 0.36239514 0.7258309 -0.5846702
vn 0.77980137 0.49157557 -0.38763794
vn -0.59118366 0.6719229 -0.44611827
vn 0.26914096 0.84743714 -0.45761713
vn 0.7490091 0.5845873 -0.3118383
vn 0.7118176 0.6696241 -0.21194126
vn -0.21036126 0.8427682 -0.49546942
vn 0.17738575 0.94284004 -0.28211176
vn 0.6995214 0.7134976 -0.039888434
vn -0.62160194 0.74919003 -0.22874737
vn -0.75161964 0.6267943 -0.2054189
vn -0.6251252 0.78045475 -0.010429546
vn -0.7610289 0.6477137 -0.036082156
vn -0.28842443 0.9176371 -0.27341062
vn 0.15112239 0.98767346 -0.04078026
vn 0.6764744 0.6956255 0.2418424
vn -0.31243777 0.9497842 -0.017108114
vn 0.1675742 0.94375855 0.2850242
vn 0.7062346 0.56161267 0.43107283
vn -0.30377337 0.90544915 0.29645166
vn 0.20455074 0.7426626 0.6376607
vn 0.703223 0.26580054 0.6594145
vn 0.25367942 0.3389332 0.90596414
vn -0.25850117 0.3219401 0.91078633
vn -0.28632396 0.7097428 0.6436488
vn -0.6329761 0.7335526 0.24747103
vn -0.6512089 0.5621468 0.50982153
vn -0.7658852 0.6145636 0.18902735
vn -0.8212964 0.4482916 0.3528553
vn -0.8435188 0.15617502 0.51389235
vn -0.65369517 0.23754723 0.7185082
vn -0.8963772 0.4122872 0.16287151
vn -0.25501445 -0.14767028 0.9555946
vn -0.6254236 -0.14427324 0.7668315
vn 0.2370785 -0.14501034 0.960607
vn 0.25367942 0.3389332 0.90596414
vn 0.6115754 -0.11578349 0.7826683
vn 0.703223 0.26580054 0.6594145
vn 0.71439976 -0.33240223 0.61574477
vn 0.22145693 -0.5274176 0.82023627
vn 0.74526966 -0.5252343 0.41073358
vn -0.25168246 -0.52119285 0.81548387
vn 0.2155399 -0.7711381 0.5990732
vn 0.24451123 -0.89003533 0.3847744
vn 0.7587718 -0.60127276 0.25047264
vn 0.33399996 -0.92385715 0.1869011
vn 0.7926499 -0.5980343 0.11857866
vn 0.81904876 -0.5737239 5.387677E-05
vn 0.42214337 -0.9064816 0.009281284
vn 0.857306 -0.4692742 -0.21167934
vn -0.1439695 -0.9755431 0.16609816
vn -0.22222918 -0.8952624 0.3861597
vn -0.25012347 -0.75687474 0.60380363
vn -0.5731555 -0.64332396 0.50756973
vn -0.59005004 -0.44246158 0.6753285
vn -0.7987657 -0.16897029 0.5774274
vn -0.72894 -0.3976068 0.55727494
vn -0.8715375 -0.26822978 0.41045702
vn -0.71668667 -0.5671073 0.40589356
vn -0.94236416 0.08348276 0.32400694
vn -0.9955641 -0.0021178317 0.0940619
vn -0.9039197 -0.37000877 0.21452919
vn -0.93064696 0.36222315 -0.051871274
vn -0.7634551 0.62071824 -0.17845206
vn -0.6687351 0.71061426 -0.21867988
vn -0.5763267 0.69877374 -0.4237485
vn -0.71600926 0.5738902 -0.39746785
vn -0.9097268 0.27930528 -0.30722257
vn -0.63275486 0.49266586 -0.5974124
vn -0.47614542 0.6379269 -0.6052561
vn -0.3472412 0.58146787 -0.7357435
vn -0.8263058 0.18728538 -0.53117114
vn -0.5066293 0.43291345 -0.7455955
vn -0.24647157 0.43605924 -0.86550796
vn -0.979556 -0.09938895 -0.17490502
vn -0.36560553 0.31916744 -0.8743368
vn -0.07277471 0.23480092 -0.96931547
vn -0.6970254 0.12273549 -0.70646405
vn -0.28113016 0.01215239 -0.9595927
vn -0.10878908 -0.34336936 -0.9328786
vn -0.49134925 0.037918 -0.8701368
vn -0.38245505 -0.32819825 -0.863721
vn -0.88240576 -0.46919283 -0.03490412
vn -0.893955 -0.18167995 -0.409679
vn -0.59065 -0.29483688 -0.751135
vn -0.21994486 -0.6998939 -0.67953867
vn -0.034776762 -0.80624026 -0.5905652
vn -0.7998599 -0.5372417 -0.26757354
vn -0.6680603 -0.7397444 0.08045858
vn -0.77197134 -0.2420238 -0.58777946
vn -0.6709335 -0.59209955 -0.4463927
vn -0.46736825 -0.61909246 -0.63110346
vn -0.24778135 -0.88737255 -0.38881138
vn -0.13130116 -0.9376384 -0.32186046
vn -0.4600955 -0.8419739 -0.281766
vn -0.2917473 -0.9389035 -0.18260239
vn -0.585548 -0.8006467 -0.12687944
vn -0.4197695 -0.90659595 -0.04332821
vn -0.52004915 -0.84304583 0.1371957
vn -0.71751016 -0.63801223 0.2794988
vn -0.6162818 -0.7264253 0.3041431
vn -0.70467937 -0.659201 0.26245192
vn -0.566539 -0.7593292 0.3200824
vn -0.69839454 -0.7128092 0.064406194
vn -0.5360754 -0.8378426 0.10316482
vn -0.47375593 -0.8729175 -0.11649193
vn -0.64719564 -0.74845123 -0.1447706
vn -0.034689914 -0.9984112 -0.04440268
vn -0.3487248 -0.89371735 -0.28224167
vn -0.5029556 -0.81023467 -0.30092424
vn -0.16723724 -0.9213503 -0.35092074
vn 0.43179315 -0.8901765 -0.1453983
vn 0.08601416 -0.9759041 -0.20053087
vn 0.37380195 -0.8917542 -0.25504223
vn 0.6526392 -0.6573656 -0.37673938
vn 0.90510595 -0.19672197 -0.37693995
vn 0.83836305 -0.15891984 -0.5214324
vn 0.90510595 -0.19672197 -0.37693995
vn 0.9580119 -0.14284353 -0.24861374
vn 0.8368651 0.24535376 -0.48934475
vn 0.9923465 -0.008126915 -0.12321652
vn 0.77980137 0.49157557 -0.38763794
vn 0.9976197 0.012339894 -0.06784234
vn 0.7490091 0.5845873 -0.3118383
vn 0.9993781 0.034478776 -0.0073864996
vn 0.7118176 0.6696241 -0.21194126
vn 0.9887621 0.08215538 0.124900006
vn 0.6995214 0.7134976 -0.039888434
vn 0.9176998 0.16535087 0.36122856
vn 0.6764744 0.6956255 0.2418424
vn 0.703223 0.26580054 0.6594145
vn 0.7062346 0.56161267 0.43107283
vn 0.90510595 -0.19672197 -0.37693995
vn 0.857306 -0.4692742 -0.21167934
vn 0.9580119 -0.14284353 -0.24861374
vn 0.9923465 -0.008126915 -0.12321652
vn 0.81904876 -0.5737239 5.387677E-05
vn 0.9976197 0.012339894 -0.06784234
vn 0.7926499 -0.5980343 0.11857866
vn 0.9993781 0.034478776 -0.0073864996
vn 0.7587718 -0.60127276 0.25047264
vn 0.9887621 0.08215538 0.124900006
vn 0.74526966 -0.5252343 0.41073358
vn 0.9176998 0.16535087 0.36122856
vn 0.71439976 -0.33240223 0.61574477
vn 0.703223 0.26580054 0.6594145
vn 0.6115754 -0.11578349 0.7826683
g pm0627_00_RCloseWingSkin_0
f 3/3/3 2/2/2 1/1/1
f 2/2/2 4/4/4 1/1/1
f 2/2/2 5/5/5 4/4/4
f 6/6/6 5/5/5 2/2/2
f 6/6/6 7/7/7 5/5/5
f 7/7/7 6/6/6 8/8/8
f 7/7/7 8/8/8 9/9/9
f 10/10/10 7/7/7 9/9/9
f 10/10/10 9/9/9 11/11/11
f 5/5/5 12/12/12 4/4/4
f 7/7/7 13/13/13 5/5/5
f 5/5/5 13/13/13 12/12/12
f 14/14/14 13/13/13 7/7/7
f 10/10/10 14/14/14 7/7/7
f 13/13/13 14/14/14 12/12/12
f 12/12/12 15/15/15 4/4/4
f 14/14/14 15/15/15 12/12/12
f 15/15/15 16/16/16 4/4/4
f 17/17/17 10/10/10 11/11/11
f 14/14/14 10/10/10 17/17/17
f 15/15/15 18/18/18 16/16/16
f 18/18/18 19/19/19 16/16/16
f 19/19/19 18/18/18 20/20/20
f 14/14/14 21/21/21 15/15/15
f 21/21/21 18/18/18 15/15/15
f 21/21/21 14/14/14 17/17/17
f 18/18/18 22/22/22 20/20/20
f 18/18/18 21/21/21 22/22/22
f 20/20/20 22/22/22 23/23/23
f 24/24/24 17/17/17 11/11/11
f 25/25/25 24/24/24 11/11/11
f 24/24/24 25/25/25 26/26/26
f 25/25/25 27/27/27 26/26/26
f 21/21/21 17/17/17 28/28/28
f 17/17/17 24/24/24 28/28/28
f 21/21/21 28/28/28 22/22/22
f 24/24/24 26/26/26 28/28/28
f 22/22/22 29/29/29 23/23/23
f 22/22/22 28/28/28 29/29/29
f 30/30/30 23/23/23 29/29/29
f 26/26/26 31/31/31 28/28/28
f 28/28/28 31/31/31 29/29/29
f 32/32/32 30/30/30 29/29/29
f 33/33/33 30/30/30 32/32/32
f 29/29/29 31/31/31 34/34/34
f 31/31/31 26/26/26 34/34/34
f 32/32/32 29/29/29 34/34/34
f 35/35/35 33/33/33 32/32/32
f 36/36/36 33/33/33 35/35/35
f 37/37/37 36/36/36 35/35/35
f 37/37/37 35/35/35 38/38/38
f 35/35/35 32/32/32 39/39/39
f 32/32/32 34/34/34 39/39/39
f 35/35/35 39/39/39 38/38/38
f 26/26/26 40/40/40 34/34/34
f 39/39/39 34/34/34 41/41/41
f 34/34/34 40/40/40 41/41/41
f 42/42/42 40/40/40 26/26/26
f 27/27/27 42/42/42 26/26/26
f 42/42/42 43/43/43 40/40/40
f 43/43/43 41/41/41 40/40/40
f 43/43/43 44/44/44 41/41/41
f 39/39/39 41/41/41 45/45/45
f 38/38/38 39/39/39 45/45/45
f 44/44/44 45/45/45 41/41/41
f 43/43/43 42/42/42 46/46/46
f 42/42/42 27/27/27 46/46/46
f 44/44/44 43/43/43 46/46/46
f 47/47/47 38/38/38 45/45/45
f 45/45/45 44/44/44 48/48/48
f 48/48/48 47/47/47 45/45/45
f 47/47/47 49/49/49 38/38/38
f 49/49/49 50/50/50 38/38/38
f 49/49/49 51/51/51 50/50/50
f 51/51/51 52/52/52 50/50/50
f 53/53/53 51/51/51 49/49/49
f 54/54/54 53/53/53 49/49/49
f 54/54/54 49/49/49 47/47/47
f 55/55/55 53/53/53 54/54/54
f 56/56/56 54/54/54 47/47/47
f 56/56/56 47/47/47 48/48/48
f 57/57/57 55/55/55 54/54/54
f 57/57/57 54/54/54 56/56/56
f 57/57/57 58/58/58 55/55/55
f 58/58/58 59/59/59 55/55/55
f 58/58/58 60/60/60 59/59/59
f 60/60/60 61/61/61 59/59/59
f 61/61/61 60/60/60 62/62/62
f 60/60/60 63/63/63 62/62/62
f 62/62/62 63/63/63 64/64/64
f 65/65/65 60/60/60 58/58/58
f 60/60/60 65/65/65 63/63/63
f 66/66/66 58/58/58 57/57/57
f 66/66/66 65/65/65 58/58/58
f 67/67/67 57/57/57 56/56/56
f 67/67/67 66/66/66 57/57/57
f 68/68/68 67/67/67 56/56/56
f 67/67/67 68/68/68 66/66/66
f 69/69/69 68/68/68 56/56/56
f 69/69/69 56/56/56 48/48/48
f 48/48/48 70/70/70 69/69/69
f 44/44/44 70/70/70 48/48/48
f 70/70/70 71/71/71 69/69/69
f 69/69/69 71/71/71 68/68/68
f 70/70/70 44/44/44 72/72/72
f 71/71/71 70/70/70 72/72/72
f 71/71/71 73/73/73 68/68/68
f 73/73/73 71/71/71 72/72/72
f 44/44/44 74/74/74 72/72/72
f 72/72/72 74/74/74 75/75/75
f 74/74/74 44/44/44 46/46/46
f 74/74/74 46/46/46 75/75/75
f 73/73/73 72/72/72 76/76/76
f 76/76/76 72/72/72 75/75/75
f 46/46/46 77/77/77 75/75/75
f 46/46/46 27/27/27 77/77/77
f 27/27/27 78/78/78 77/77/77
f 27/27/27 79/79/79 78/78/78
f 79/79/79 80/80/80 78/78/78
f 78/78/78 81/81/81 77/77/77
f 80/80/80 81/81/81 78/78/78
f 77/77/77 82/82/82 75/75/75
f 81/81/81 82/82/82 77/77/77
f 81/81/81 80/80/80 83/83/83
f 80/80/80 84/84/84 83/83/83
f 84/84/84 85/85/85 83/83/83
f 82/82/82 81/81/81 86/86/86
f 81/81/81 83/83/83 86/86/86
f 85/85/85 87/87/87 83/83/83
f 83/83/83 87/87/87 86/86/86
f 85/85/85 88/88/88 87/87/87
f 82/82/82 89/89/89 75/75/75
f 82/82/82 86/86/86 89/89/89
f 88/88/88 90/90/90 87/87/87
f 90/90/90 88/88/88 91/91/91
f 87/87/87 92/92/92 86/86/86
f 87/87/87 90/90/90 92/92/92
f 93/93/93 90/90/90 91/91/91
f 93/93/93 91/91/91 94/94/94
f 90/90/90 93/93/93 95/95/95
f 90/90/90 95/95/95 92/92/92
f 96/96/96 93/93/93 94/94/94
f 95/95/95 93/93/93 96/96/96
f 89/89/89 97/97/97 75/75/75
f 97/97/97 76/76/76 75/75/75
f 86/86/86 98/98/98 89/89/89
f 86/86/86 92/92/92 98/98/98
f 95/95/95 99/99/99 92/92/92
f 99/99/99 95/95/95 96/96/96
f 100/100/100 96/96/96 94/94/94
f 101/101/101 100/100/100 94/94/94
f 102/102/102 97/97/97 89/89/89
f 98/98/98 102/102/102 89/89/89
f 97/97/97 103/103/103 76/76/76
f 103/103/103 97/97/97 102/102/102
f 92/92/92 104/104/104 98/98/98
f 99/99/99 104/104/104 92/92/92
f 104/104/104 105/105/105 98/98/98
f 104/104/104 99/99/99 105/105/105
f 105/105/105 102/102/102 98/98/98
f 106/106/106 99/99/99 96/96/96
f 100/100/100 106/106/106 96/96/96
f 99/99/99 106/106/106 105/105/105
f 107/107/107 100/100/100 101/101/101
f 100/100/100 107/107/107 106/106/106
f 106/106/106 107/107/107 105/105/105
f 108/108/108 107/107/107 101/101/101
f 107/107/107 109/109/109 105/105/105
f 107/107/107 108/108/108 109/109/109
f 105/105/105 109/109/109 102/102/102
f 108/108/108 110/110/110 109/109/109
f 109/109/109 111/111/111 102/102/102
f 109/109/109 110/110/110 111/111/111
f 111/111/111 103/103/103 102/102/102
f 110/110/110 112/112/112 111/111/111
f 112/112/112 113/113/113 111/111/111
f 113/113/113 103/103/103 111/111/111
f 103/103/103 113/113/113 114/114/114
f 103/103/103 114/114/114 76/76/76
f 113/113/113 115/115/115 114/114/114
f 114/114/114 73/73/73 76/76/76
f 115/115/115 73/73/73 114/114/114
f 73/73/73 116/116/116 68/68/68
f 116/116/116 117/117/117 68/68/68
f 68/68/68 117/117/117 66/66/66
f 117/117/117 116/116/116 118/118/118
f 117/117/117 119/119/119 66/66/66
f 119/119/119 117/117/117 118/118/118
f 119/119/119 65/65/65 66/66/66
f 120/120/120 119/119/119 118/118/118
f 121/121/121 120/120/120 118/118/118
f 122/122/122 65/65/65 119/119/119
f 120/120/120 122/122/122 119/119/119
f 65/65/65 122/122/122 63/63/63
f 123/123/123 120/120/120 121/121/121
f 122/122/122 120/120/120 123/123/123
f 124/124/124 123/123/123 121/121/121
f 125/125/125 123/123/123 124/124/124
f 63/63/63 122/122/122 126/126/126
f 63/63/63 126/126/126 64/64/64
f 127/127/127 122/122/122 123/123/123
f 122/122/122 127/127/127 126/126/126
f 123/123/123 125/125/125 128/128/128
f 127/127/127 123/123/123 128/128/128
f 126/126/126 127/127/127 128/128/128
f 126/126/126 128/128/128 64/64/64
f 128/128/128 125/125/125 129/129/129
f 129/129/129 64/64/64 128/128/128
f 130/130/130 64/64/64 129/129/129
f 129/129/129 131/131/131 130/130/130
f 134/134/134 133/133/133 132/132/132
f 135/135/135 133/133/133 134/134/134
f 136/136/136 135/135/135 134/134/134
f 137/137/137 135/135/135 136/136/136
f 138/138/138 137/137/137 136/136/136
f 139/139/139 137/137/137 138/138/138
f 140/140/140 139/139/139 138/138/138
f 141/141/141 139/139/139 140/140/140
f 142/142/142 141/141/141 140/140/140
f 143/143/143 141/141/141 142/142/142
f 144/144/144 143/143/143 142/142/142
f 145/145/145 143/143/143 144/144/144
f 146/146/146 145/145/145 144/144/144
f 149/149/149 148/148/148 147/147/147
f 149/149/149 150/150/150 148/148/148
f 150/150/150 151/151/151 148/148/148
f 150/150/150 152/152/152 151/151/151
f 152/152/152 153/153/153 151/151/151
f 152/152/152 154/154/154 153/153/153
f 154/154/154 155/155/155 153/153/153
f 154/154/154 156/156/156 155/155/155
f 156/156/156 157/157/157 155/155/155
f 156/156/156 158/158/158 157/157/157
f 158/158/158 159/159/159 157/157/157
f 158/158/158 160/160/160 159/159/159
f 160/160/160 161/161/161 159/159/159
