g pm0676_15_Eye46Skin
v -0.06874101 0.9978453 0.5194516
v -0.057083197 0.99489594 0.54065025
v -0.066518135 0.99345887 0.5445693
v -0.04657422 0.9803901 0.558044
v -0.07848753 0.9967374 0.52457
v -0.086971045 0.9941337 0.50666726
v -0.07846585 0.99556106 0.50195736
v -0.08804081 0.9906541 0.5296205
v -0.0951954 0.9861677 0.49307325
v -0.08726123 0.9880602 0.48797527
v -0.089546554 0.97807217 0.4784674
v -0.057979207 0.97970426 0.56155866
v -0.05367838 0.96182036 0.571359
v -0.04150077 0.9605585 0.56833214
v -0.040199075 0.9415084 0.57148147
v -0.067015044 0.97766584 0.56326306
v -0.052501142 0.94305015 0.57495266
v -0.04088923 0.929623 0.57165736
v -0.078491054 0.9877164 0.5472178
v -0.06122689 0.9634498 0.5702432
v -0.062374327 0.9530664 0.57148117
v -0.0642834 0.9365154 0.57141876
v -0.053311437 0.92871255 0.5755411
v -0.03952465 0.91235423 0.58597153
v -0.075491495 0.96651936 0.56222093
v -0.087934 0.977617 0.5473142
v -0.09078094 0.96857727 0.54370916
v -0.09720565 0.9810916 0.5284667
v -0.078845955 0.9558231 0.55954045
v -0.094306946 0.9879302 0.5137957
v -0.099072464 0.9829462 0.50651574
v -0.10385903 0.97341657 0.49750528
v -0.077227235 0.94738716 0.55428
v -0.10042071 0.97152334 0.52262175
v -0.10098707 0.9641313 0.5136204
v -0.09910207 0.9772537 0.4836904
v -0.08882034 0.9606412 0.5377394
v -0.102974765 0.978323 0.46566
v -0.09568338 0.9789829 0.46271262
v -0.106184416 0.97816014 0.45289576
v -0.10173358 0.9790022 0.44943622
v -0.10666498 0.9763723 0.449893
v -0.10290412 0.97733396 0.44703242
v -0.10748087 0.9721937 0.46298248
v -0.10634331 0.9658217 0.47902265
v -0.10645369 0.9730699 0.45040774
v -0.102230124 0.9733496 0.44682539
v -0.10428546 0.96770513 0.45796627
v -0.098210506 0.9669817 0.4549516
v -0.09959732 0.95922565 0.47301966
v -0.09267134 0.9583057 0.46846816
v -0.09744666 0.9562371 0.47883514
v -0.090983845 0.95587075 0.47511232
v -0.10533855 0.9634841 0.48844984
v -0.0901076 0.95803386 0.5023744
v -0.08246374 0.9555172 0.4964637
v -0.07866733 0.95460254 0.5291723
v -0.07059836 0.951331 0.5231888
v -0.069537155 0.9425976 0.5473349
v -0.05977447 0.93888897 0.54087204
v -0.060942534 0.91945684 0.5635632
v -0.051083826 0.92107624 0.55681634
v -0.06533006 0.92637205 0.56927586
v -0.055946834 0.9139326 0.57366645
v -0.04623737 0.911413 0.5683195
v -0.057510752 0.91831464 0.57709706
v -0.049122967 0.90998137 0.58452505
v -0.039872166 0.908146 0.5853487
v -0.047666993 0.9117291 0.5861865
v -0.039250813 0.9089633 0.58711475
v -0.047538687 0.9140661 0.5860499
v 0.06874101 0.9978453 0.5194516
v 0.066518135 0.99345887 0.5445693
v 0.057083197 0.99489594 0.54065025
v 0.04657422 0.9803901 0.558044
v 0.07848753 0.9967374 0.52457
v 0.086971045 0.9941337 0.50666726
v 0.07846585 0.99556106 0.50195736
v 0.08804081 0.9906541 0.5296205
v 0.0951954 0.9861677 0.49307325
v 0.08726063 0.9880602 0.48797527
v 0.08954439 0.97807217 0.4784674
v 0.057979207 0.97970426 0.56155866
v 0.05367838 0.96182036 0.571359
v 0.04150077 0.9605585 0.56833214
v 0.040199075 0.9415084 0.57148147
v 0.067015044 0.97766584 0.56326306
v 0.052501142 0.94305015 0.57495266
v 0.04088923 0.929623 0.57165736
v 0.078491054 0.9877164 0.5472178
v 0.06122689 0.9634498 0.5702432
v 0.062375277 0.95305914 0.5714791
v 0.0642834 0.9365154 0.57141876
v 0.053311437 0.92871255 0.5755411
v 0.03952465 0.91235423 0.58597153
v 0.075491495 0.96651936 0.56222093
v 0.087934 0.977617 0.5473142
v 0.09078094 0.9685778 0.54370904
v 0.09720565 0.9810916 0.5284667
v 0.078845955 0.9558231 0.55954045
v 0.094306804 0.98793113 0.5137959
v 0.09907112 0.9829549 0.5065185
v 0.10385905 0.9734084 0.49750668
v 0.077227235 0.94738716 0.55428
v 0.10042071 0.97152334 0.52262175
v 0.10098708 0.9641282 0.5136209
v 0.09909585 0.97720295 0.48369893
v 0.08882034 0.9606412 0.5377394
v 0.1029745 0.978323 0.46566
v 0.09568338 0.9789829 0.46271262
v 0.106184416 0.97816014 0.45289576
v 0.10173358 0.9790022 0.44943622
v 0.10666498 0.9763723 0.449893
v 0.10290412 0.97733396 0.44703242
v 0.10748087 0.9721937 0.46298248
v 0.10634331 0.9658217 0.47902265
v 0.10645369 0.9730699 0.45040774
v 0.102230124 0.9733496 0.44682539
v 0.10428546 0.96770513 0.45796627
v 0.098210506 0.9669817 0.4549516
v 0.09959732 0.95922565 0.47301966
v 0.09267134 0.9583057 0.46846816
v 0.09744666 0.9562371 0.47883514
v 0.090983845 0.95587075 0.47511232
v 0.10533857 0.96347827 0.48845086
v 0.0901076 0.95803386 0.5023744
v 0.08246374 0.9555172 0.4964637
v 0.07866733 0.95460254 0.5291723
v 0.07059836 0.951331 0.5231888
v 0.069537155 0.9425976 0.5473349
v 0.05977447 0.93888897 0.54087204
v 0.060942534 0.91945684 0.5635632
v 0.051083826 0.92107624 0.55681634
v 0.06533006 0.92637205 0.56927586
v 0.055946834 0.9139326 0.57366645
v 0.04623737 0.911413 0.5683195
v 0.057510752 0.91831464 0.57709706
v 0.049122967 0.90998137 0.58452505
v 0.039872166 0.908146 0.5853487
v 0.047666993 0.9117291 0.5861865
v 0.039250813 0.9089633 0.58711475
v 0.047538687 0.9140661 0.5860499
vt 0.18800455 0.23956627
vt 0.18128937 0.23901045
vt 0.18167117 0.24524355
vt 0.17485584 0.24562126
vt 0.18734303 0.2462756
vt 0.19181298 0.2508579
vt 0.19316326 0.2457521
vt 0.18670057 0.25524667
vt 0.19481914 0.25989464
vt 0.19656824 0.2557313
vt 0.19896366 0.26284364
vt 0.17652883 0.25118047
vt 0.17318153 0.26089242
vt 0.17048168 0.2575175
vt 0.16810697 0.26962137
vt 0.17792489 0.25806576
vt 0.17108962 0.2720778
vt 0.1671069 0.27696857
vt 0.18227565 0.25511155
vt 0.17492713 0.2624918
vt 0.17449917 0.2696297
vt 0.17403214 0.2793755
vt 0.16997403 0.28137377
vt 0.16037442 0.2901996
vt 0.17861906 0.267493
vt 0.18288682 0.2650887
vt 0.18347706 0.27472487
vt 0.18709205 0.26409653
vt 0.17880838 0.27702382
vt 0.19013648 0.25833723
vt 0.19135903 0.26313952
vt 0.19251008 0.27027708
vt 0.1788376 0.28513196
vt 0.18775895 0.27261657
vt 0.18860935 0.2806738
vt 0.1969095 0.2681109
vt 0.18398431 0.2830078
vt 0.20108669 0.2725449
vt 0.20228668 0.26850405
vt 0.20493034 0.27200696
vt 0.20844774 0.2723528
vt 0.20567681 0.27783853
vt 0.20868228 0.2795684
vt 0.20105757 0.27761036
vt 0.19704236 0.27751666
vt 0.20515034 0.28366545
vt 0.20815757 0.28923476
vt 0.20173366 0.2819228
vt 0.2023551 0.28584236
vt 0.19766437 0.2845485
vt 0.1984428 0.2892848
vt 0.19429548 0.287014
vt 0.19489895 0.29229936
vt 0.1933269 0.27844986
vt 0.19000131 0.28988862
vt 0.19076173 0.2956071
vt 0.18456951 0.2925598
vt 0.18496549 0.29902494
vt 0.17915364 0.2932342
vt 0.1791699 0.3004743
vt 0.1745313 0.29295897
vt 0.17446823 0.30041417
vt 0.17420666 0.286966
vt 0.17029408 0.29234046
vt 0.16988263 0.2996222
vt 0.17019987 0.28906286
vt 0.16542959 0.29415178
vt 0.1612106 0.29903525
vt 0.16448523 0.29131034
vt 0.16039129 0.29629076
vt 0.16455549 0.28801268
vt 0.18800479 0.23956615
vt 0.1816712 0.24524337
vt 0.18128937 0.23901033
vt 0.17485583 0.24562109
vt 0.18734288 0.2462756
vt 0.19181293 0.25085777
vt 0.19316334 0.24575198
vt 0.18670064 0.25524655
vt 0.19481927 0.2598945
vt 0.19656813 0.2557312
vt 0.1989637 0.2628435
vt 0.17652875 0.25118032
vt 0.17318153 0.26089227
vt 0.17048168 0.25751734
vt 0.16810715 0.26962107
vt 0.17792493 0.2580658
vt 0.17108971 0.27207765
vt 0.16710693 0.27696842
vt 0.18227571 0.25511143
vt 0.1749273 0.26249176
vt 0.17449921 0.26962966
vt 0.17403215 0.2793755
vt 0.16997421 0.28137362
vt 0.16037464 0.29019925
vt 0.17861915 0.2674929
vt 0.18288684 0.2650887
vt 0.18347704 0.27472487
vt 0.18709213 0.26409656
vt 0.17880833 0.2770237
vt 0.19013643 0.25833723
vt 0.1913591 0.26313937
vt 0.19251013 0.27027705
vt 0.17883772 0.2851318
vt 0.18775892 0.27261645
vt 0.18860936 0.2806737
vt 0.19690949 0.26811078
vt 0.1839844 0.28300768
vt 0.20108676 0.27254462
vt 0.20228672 0.2685039
vt 0.20493084 0.27200606
vt 0.20844787 0.2723524
vt 0.20567697 0.27783763
vt 0.20868248 0.27956796
vt 0.20105755 0.27761036
vt 0.19704252 0.27751654
vt 0.20515043 0.28366503
vt 0.20815772 0.28923422
vt 0.20173389 0.28192252
vt 0.20235533 0.28584212
vt 0.19766444 0.28454834
vt 0.19844282 0.28928465
vt 0.19429559 0.2870139
vt 0.1948989 0.29229945
vt 0.19332701 0.2784497
vt 0.19000131 0.28988853
vt 0.1907618 0.29560697
vt 0.18456954 0.2925598
vt 0.18496549 0.29902494
vt 0.17915374 0.2932341
vt 0.17916977 0.3004743
vt 0.17453152 0.29295886
vt 0.1744684 0.3004141
vt 0.17420673 0.28696582
vt 0.1702941 0.29234022
vt 0.16988277 0.29962206
vt 0.17019981 0.28906274
vt 0.16542983 0.29415143
vt 0.16121101 0.29903495
vt 0.1644857 0.29131004
vt 0.16039169 0.2962905
vt 0.16455573 0.2880124
vn -0.23624332 0.95598364 0.17402413
vn -0.08521154 0.8773308 0.4722601
vn -0.22872604 0.8224468 0.52083164
vn 0.044948965 0.6706038 0.74045265
vn -0.3745624 0.8989454 0.22715653
vn -0.49671412 0.8678945 0.0058590644
vn -0.36715725 0.92842865 -0.05670868
vn -0.6078001 0.7332462 0.30484244
vn -0.6371482 0.7656358 -0.08856683
vn -0.46482372 0.86965096 -0.1662711
vn -0.51974636 0.83983004 -0.1566818
vn -0.09253334 0.62192476 0.77759063
vn -0.031367943 0.39581108 0.917796
vn 0.10365347 0.43063283 0.8965553
vn 0.070647396 0.27545416 0.9587147
vn -0.34434217 0.48012757 0.80678755
vn -0.110579014 0.22747621 0.96748483
vn -0.029205566 0.20445912 0.9784394
vn -0.4965337 0.643537 0.582507
vn -0.22794987 0.34327826 0.9111525
vn -0.37836206 0.17817536 0.9083478
vn -0.60820657 -0.063823104 0.79120874
vn -0.30366185 0.07687009 0.9496739
vn -0.122212715 0.0901004 0.9884058
vn -0.59482807 0.21555701 0.7744125
vn -0.7579719 0.31360075 0.5719556
vn -0.8907275 -0.12159913 0.43797058
vn -0.83910626 0.44049224 0.31916645
vn -0.7888075 -0.1345799 0.59972584
vn -0.64706755 0.7550459 0.10587425
vn -0.8049532 0.5877442 0.08128441
vn -0.9674104 0.24100077 0.07768991
vn -0.8207071 -0.512408 0.25274068
vn -0.9626079 -0.00095553446 0.2708971
vn -0.8488666 -0.5088453 0.143185
vn -0.80773443 0.58310086 -0.08693983
vn -0.8142443 -0.547634 0.19262241
vn -0.7409447 0.6614848 -0.11592608
vn -0.5142875 0.8454554 -0.14392212
vn -0.71997595 0.6593682 -0.21649064
vn -0.6085903 0.7454697 -0.27183223
vn -0.89784586 0.21728681 -0.38296112
vn -0.8088852 0.28897187 -0.51205456
vn -0.97255504 0.066978894 -0.22282423
vn -0.9852201 -0.12941849 -0.11221547
vn -0.82546204 -0.29120842 -0.48353902
vn -0.749597 -0.33053052 -0.57345784
vn -0.78804827 -0.5036121 -0.3540548
vn -0.61550117 -0.66056126 -0.42990366
vn -0.7128256 -0.6689762 -0.21059553
vn -0.50854343 -0.8174581 -0.27045488
vn -0.6265902 -0.7761518 -0.07052015
vn -0.43854463 -0.8889947 -0.13178453
vn -0.93155324 -0.36249524 0.028383981
vn -0.579393 -0.815045 0.002283818
vn -0.42901078 -0.90020615 -0.07469048
vn -0.6083356 -0.79295963 -0.033804566
vn -0.4825907 -0.8650468 -0.13711365
vn -0.6636942 -0.74296325 -0.08669227
vn -0.5354322 -0.8133671 -0.22747807
vn -0.68597454 -0.72751546 -0.012659972
vn -0.5480521 -0.8129687 -0.19677624
vn -0.7871912 -0.4456211 0.42632362
vn -0.64043677 -0.7317203 0.23329398
vn -0.5269558 -0.84892315 0.04058283
vn -0.63832265 -0.35680553 0.6820806
vn -0.5434861 -0.6731967 0.50142705
vn -0.4658802 -0.7532442 0.46430477
vn -0.4628135 -0.30027074 0.8340511
vn -0.3276306 -0.31926566 0.88922864
vn -0.25591126 0.060667336 0.9647948
vn 0.23634209 0.9559593 0.17402379
vn 0.2287312 0.82244426 0.5208335
vn 0.085229814 0.8773274 0.47226322
vn -0.04493794 0.67059994 0.7404568
vn 0.3745997 0.8989333 0.22714338
vn 0.4968894 0.8677944 0.0058144103
vn 0.3674958 0.9282951 -0.056703046
vn 0.6078058 0.73325217 0.30481702
vn 0.6375083 0.76533556 -0.08857032
vn 0.46550268 0.8693112 -0.16614856
vn 0.5205534 0.839402 -0.15629594
vn 0.092549205 0.6219151 0.7775965
vn 0.031400453 0.39579523 0.91780174
vn -0.10363379 0.43062618 0.8965608
vn -0.07062808 0.2754499 0.95871747
vn 0.3443593 0.48010868 0.8067914
vn 0.11060883 0.22746511 0.96748406
vn 0.029215354 0.20446007 0.9784388
vn 0.49653348 0.64353555 0.5825088
vn 0.22798635 0.34325123 0.91115355
vn 0.3783879 0.17815633 0.9083408
vn 0.60821277 -0.0638241 0.7912039
vn 0.30367404 0.076870486 0.94967
vn 0.12221597 0.09010317 0.9884051
vn 0.594836 0.21554215 0.77441055
vn 0.7579794 0.31359485 0.5719489
vn 0.8907313 -0.12160234 0.43796203
vn 0.8391384 0.44047487 0.31910607
vn 0.78880566 -0.13458091 0.59972805
vn 0.6471225 0.75500953 0.10579733
vn 0.8050538 0.58762276 0.0811663
vn 0.96743596 0.24092536 0.077606134
vn 0.820704 -0.51241064 0.25274584
vn 0.9626261 -0.0009610837 0.2708319
vn 0.8488769 -0.5088392 0.14314584
vn 0.8080066 0.58275527 -0.08672727
vn 0.8142391 -0.5476429 0.19261883
vn 0.74121875 0.66125 -0.115513235
vn 0.5149076 0.8451625 -0.14342442
vn 0.72015053 0.6592768 -0.21618824
vn 0.6088998 0.7453427 -0.27148762
vn 0.897909 0.21730494 -0.3828028
vn 0.80898696 0.28895834 -0.5119016
vn 0.97260714 0.06702334 -0.22258335
vn 0.9852445 -0.12932767 -0.11210545
vn 0.8254948 -0.2911863 -0.48349643
vn 0.7496246 -0.33052227 -0.57342654
vn 0.7880965 -0.50357306 -0.35400283
vn 0.6155171 -0.66055083 -0.42989674
vn 0.7128743 -0.6689256 -0.21059155
vn 0.5085526 -0.817448 -0.27046797
vn 0.6266036 -0.7761371 -0.07056208
vn 0.4385344 -0.8889962 -0.1318078
vn 0.9315859 -0.36241606 0.028324202
vn 0.5793736 -0.81505895 0.0022616882
vn 0.42898843 -0.9002158 -0.074701704
vn 0.60831815 -0.792973 -0.033807874
vn 0.48257568 -0.86505485 -0.13711564
vn 0.66368836 -0.74296874 -0.08669097
vn 0.53542733 -0.8133704 -0.22747782
vn 0.6859742 -0.72751576 -0.012659134
vn 0.5480517 -0.81296897 -0.19677597
vn 0.78719175 -0.44561842 0.4263254
vn 0.6404382 -0.7317192 0.23329376
vn 0.5269566 -0.84892267 0.04058285
vn 0.6383259 -0.35680208 0.6820794
vn 0.5434875 -0.67319524 0.50142735
vn 0.4658812 -0.7532429 0.4643058
vn 0.46281564 -0.30026785 0.8340509
vn 0.32763168 -0.31926262 0.88922936
vn 0.25591603 0.060670383 0.9647932
g pm0676_15_Eye46Skin_0
f 3/3/3 2/2/2 1/1/1
f 4/4/4 2/2/2 3/3/3
f 5/5/5 3/3/3 1/1/1
f 5/5/5 1/1/1 6/6/6
f 1/1/1 7/7/7 6/6/6
f 5/5/5 8/8/8 3/3/3
f 5/5/5 6/6/6 8/8/8
f 6/6/6 7/7/7 9/9/9
f 7/7/7 10/10/10 9/9/9
f 9/9/9 10/10/10 11/11/11
f 12/12/12 4/4/4 3/3/3
f 12/12/12 13/13/13 4/4/4
f 13/13/13 14/14/14 4/4/4
f 15/15/15 14/14/14 13/13/13
f 12/12/12 3/3/3 16/16/16
f 12/12/12 16/16/16 13/13/13
f 17/17/17 15/15/15 13/13/13
f 18/18/18 15/15/15 17/17/17
f 8/8/8 19/19/19 3/3/3
f 3/3/3 19/19/19 16/16/16
f 16/16/16 20/20/20 13/13/13
f 13/13/13 20/20/20 17/17/17
f 21/21/21 20/20/20 16/16/16
f 20/20/20 21/21/21 17/17/17
f 17/17/17 21/21/21 22/22/22
f 23/23/23 18/18/18 17/17/17
f 23/23/23 17/17/17 22/22/22
f 24/24/24 18/18/18 23/23/23
f 25/25/25 21/21/21 16/16/16
f 16/16/16 19/19/19 25/25/25
f 22/22/22 21/21/21 25/25/25
f 26/26/26 19/19/19 8/8/8
f 19/19/19 26/26/26 25/25/25
f 25/25/25 26/26/26 27/27/27
f 28/28/28 26/26/26 8/8/8
f 27/27/27 26/26/26 28/28/28
f 29/29/29 22/22/22 25/25/25
f 29/29/29 25/25/25 27/27/27
f 8/8/8 30/30/30 28/28/28
f 6/6/6 30/30/30 8/8/8
f 31/31/31 30/30/30 6/6/6
f 30/30/30 31/31/31 28/28/28
f 28/28/28 31/31/31 32/32/32
f 9/9/9 31/31/31 6/6/6
f 32/32/32 31/31/31 9/9/9
f 29/29/29 33/33/33 22/22/22
f 29/29/29 27/27/27 33/33/33
f 34/34/34 28/28/28 32/32/32
f 34/34/34 27/27/27 28/28/28
f 34/34/34 35/35/35 27/27/27
f 34/34/34 32/32/32 35/35/35
f 36/36/36 32/32/32 9/9/9
f 36/36/36 9/9/9 11/11/11
f 27/27/27 37/37/37 33/33/33
f 35/35/35 37/37/37 27/27/27
f 38/38/38 36/36/36 11/11/11
f 39/39/39 38/38/38 11/11/11
f 40/40/40 38/38/38 39/39/39
f 41/41/41 40/40/40 39/39/39
f 40/40/40 41/41/41 42/42/42
f 40/40/40 42/42/42 38/38/38
f 41/41/41 43/43/43 42/42/42
f 38/38/38 44/44/44 36/36/36
f 42/42/42 44/44/44 38/38/38
f 36/36/36 45/45/45 32/32/32
f 44/44/44 45/45/45 36/36/36
f 42/42/42 43/43/43 46/46/46
f 43/43/43 47/47/47 46/46/46
f 46/46/46 48/48/48 42/42/42
f 46/46/46 47/47/47 48/48/48
f 48/48/48 44/44/44 42/42/42
f 47/47/47 49/49/49 48/48/48
f 48/48/48 50/50/50 44/44/44
f 48/48/48 49/49/49 50/50/50
f 50/50/50 45/45/45 44/44/44
f 49/49/49 51/51/51 50/50/50
f 52/52/52 50/50/50 51/51/51
f 50/50/50 52/52/52 45/45/45
f 53/53/53 52/52/52 51/51/51
f 45/45/45 54/54/54 32/32/32
f 52/52/52 54/54/54 45/45/45
f 32/32/32 54/54/54 35/35/35
f 55/55/55 52/52/52 53/53/53
f 54/54/54 52/52/52 55/55/55
f 35/35/35 54/54/54 55/55/55
f 56/56/56 55/55/55 53/53/53
f 55/55/55 57/57/57 35/35/35
f 57/57/57 55/55/55 56/56/56
f 57/57/57 37/37/37 35/35/35
f 58/58/58 57/57/57 56/56/56
f 37/37/37 57/57/57 59/59/59
f 59/59/59 57/57/57 58/58/58
f 60/60/60 59/59/59 58/58/58
f 33/33/33 37/37/37 59/59/59
f 61/61/61 59/59/59 60/60/60
f 59/59/59 61/61/61 33/33/33
f 62/62/62 61/61/61 60/60/60
f 61/61/61 63/63/63 33/33/33
f 33/33/33 63/63/63 22/22/22
f 64/64/64 61/61/61 62/62/62
f 63/63/63 61/61/61 64/64/64
f 65/65/65 64/64/64 62/62/62
f 22/22/22 63/63/63 66/66/66
f 66/66/66 63/63/63 64/64/64
f 23/23/23 22/22/22 66/66/66
f 67/67/67 64/64/64 65/65/65
f 68/68/68 67/67/67 65/65/65
f 67/67/67 69/69/69 64/64/64
f 67/67/67 68/68/68 69/69/69
f 69/69/69 66/66/66 64/64/64
f 68/68/68 70/70/70 69/69/69
f 69/69/69 70/70/70 24/24/24
f 71/71/71 23/23/23 66/66/66
f 71/71/71 24/24/24 23/23/23
f 71/71/71 69/69/69 24/24/24
f 69/69/69 71/71/71 66/66/66
f 74/74/74 73/73/73 72/72/72
f 74/74/74 75/75/75 73/73/73
f 73/73/73 76/76/76 72/72/72
f 72/72/72 76/76/76 77/77/77
f 78/78/78 72/72/72 77/77/77
f 79/79/79 76/76/76 73/73/73
f 77/77/77 76/76/76 79/79/79
f 78/78/78 77/77/77 80/80/80
f 81/81/81 78/78/78 80/80/80
f 81/81/81 80/80/80 82/82/82
f 75/75/75 83/83/83 73/73/73
f 84/84/84 83/83/83 75/75/75
f 85/85/85 84/84/84 75/75/75
f 85/85/85 86/86/86 84/84/84
f 73/73/73 83/83/83 87/87/87
f 87/87/87 83/83/83 84/84/84
f 86/86/86 88/88/88 84/84/84
f 86/86/86 89/89/89 88/88/88
f 90/90/90 79/79/79 73/73/73
f 90/90/90 73/73/73 87/87/87
f 91/91/91 87/87/87 84/84/84
f 91/91/91 84/84/84 88/88/88
f 91/91/91 92/92/92 87/87/87
f 92/92/92 91/91/91 88/88/88
f 92/92/92 88/88/88 93/93/93
f 89/89/89 94/94/94 88/88/88
f 88/88/88 94/94/94 93/93/93
f 89/89/89 95/95/95 94/94/94
f 92/92/92 96/96/96 87/87/87
f 90/90/90 87/87/87 96/96/96
f 92/92/92 93/93/93 96/96/96
f 90/90/90 97/97/97 79/79/79
f 97/97/97 90/90/90 96/96/96
f 97/97/97 96/96/96 98/98/98
f 97/97/97 99/99/99 79/79/79
f 97/97/97 98/98/98 99/99/99
f 93/93/93 100/100/100 96/96/96
f 96/96/96 100/100/100 98/98/98
f 101/101/101 79/79/79 99/99/99
f 101/101/101 77/77/77 79/79/79
f 101/101/101 102/102/102 77/77/77
f 102/102/102 101/101/101 99/99/99
f 102/102/102 99/99/99 103/103/103
f 102/102/102 80/80/80 77/77/77
f 102/102/102 103/103/103 80/80/80
f 104/104/104 100/100/100 93/93/93
f 98/98/98 100/100/100 104/104/104
f 99/99/99 105/105/105 103/103/103
f 98/98/98 105/105/105 99/99/99
f 106/106/106 105/105/105 98/98/98
f 103/103/103 105/105/105 106/106/106
f 103/103/103 107/107/107 80/80/80
f 80/80/80 107/107/107 82/82/82
f 108/108/108 98/98/98 104/104/104
f 108/108/108 106/106/106 98/98/98
f 107/107/107 109/109/109 82/82/82
f 109/109/109 110/110/110 82/82/82
f 109/109/109 111/111/111 110/110/110
f 111/111/111 112/112/112 110/110/110
f 112/112/112 111/111/111 113/113/113
f 113/113/113 111/111/111 109/109/109
f 114/114/114 112/112/112 113/113/113
f 115/115/115 109/109/109 107/107/107
f 115/115/115 113/113/113 109/109/109
f 116/116/116 107/107/107 103/103/103
f 116/116/116 115/115/115 107/107/107
f 114/114/114 113/113/113 117/117/117
f 118/118/118 114/114/114 117/117/117
f 119/119/119 117/117/117 113/113/113
f 118/118/118 117/117/117 119/119/119
f 115/115/115 119/119/119 113/113/113
f 120/120/120 118/118/118 119/119/119
f 121/121/121 119/119/119 115/115/115
f 120/120/120 119/119/119 121/121/121
f 116/116/116 121/121/121 115/115/115
f 122/122/122 120/120/120 121/121/121
f 121/121/121 123/123/123 122/122/122
f 123/123/123 121/121/121 116/116/116
f 123/123/123 124/124/124 122/122/122
f 125/125/125 116/116/116 103/103/103
f 125/125/125 123/123/123 116/116/116
f 125/125/125 103/103/103 106/106/106
f 123/123/123 126/126/126 124/124/124
f 123/123/123 125/125/125 126/126/126
f 125/125/125 106/106/106 126/126/126
f 126/126/126 127/127/127 124/124/124
f 128/128/128 126/126/126 106/106/106
f 126/126/126 128/128/128 127/127/127
f 108/108/108 128/128/128 106/106/106
f 128/128/128 129/129/129 127/127/127
f 128/128/128 108/108/108 130/130/130
f 128/128/128 130/130/130 129/129/129
f 130/130/130 131/131/131 129/129/129
f 108/108/108 104/104/104 130/130/130
f 130/130/130 132/132/132 131/131/131
f 132/132/132 130/130/130 104/104/104
f 132/132/132 133/133/133 131/131/131
f 134/134/134 132/132/132 104/104/104
f 134/134/134 104/104/104 93/93/93
f 132/132/132 135/135/135 133/133/133
f 132/132/132 134/134/134 135/135/135
f 135/135/135 136/136/136 133/133/133
f 134/134/134 93/93/93 137/137/137
f 134/134/134 137/137/137 135/135/135
f 93/93/93 94/94/94 137/137/137
f 135/135/135 138/138/138 136/136/136
f 138/138/138 139/139/139 136/136/136
f 140/140/140 138/138/138 135/135/135
f 139/139/139 138/138/138 140/140/140
f 137/137/137 140/140/140 135/135/135
f 141/141/141 139/139/139 140/140/140
f 141/141/141 140/140/140 95/95/95
f 94/94/94 142/142/142 137/137/137
f 95/95/95 142/142/142 94/94/94
f 140/140/140 142/142/142 95/95/95
f 142/142/142 140/140/140 137/137/137
