g pm0676_11_Eye46Skin
v 0.089546554 0.97807217 0.4784674
v 0.0951954 0.9861677 0.49307325
v 0.08726123 0.9880602 0.48797527
v 0.07846585 0.99556106 0.50195736
v 0.086971045 0.9941337 0.50666726
v 0.06874101 0.9978453 0.5194516
v 0.09910207 0.9772537 0.4836904
v 0.10385903 0.97341657 0.49750528
v 0.099072464 0.9829462 0.50651574
v 0.102974765 0.978323 0.46566
v 0.09568338 0.9789829 0.46271262
v 0.106184416 0.97816014 0.45289576
v 0.10173358 0.9790022 0.44943622
v 0.10666498 0.9763723 0.449893
v 0.10290412 0.97733396 0.44703242
v 0.10748087 0.9721937 0.46298248
v 0.10645369 0.9730699 0.45040774
v 0.102230124 0.9733496 0.44682539
v 0.10428546 0.96770513 0.45796627
v 0.098210506 0.9669817 0.4549516
v 0.09959732 0.95922565 0.47301966
v 0.09267134 0.9583057 0.46846816
v 0.10634331 0.9658217 0.47902265
v 0.09744666 0.9562371 0.47883514
v 0.090983845 0.95587075 0.47511232
v 0.10533855 0.9634841 0.48844984
v 0.0901076 0.95803386 0.5023744
v 0.08246374 0.9555172 0.4964637
v 0.10098707 0.9641313 0.5136204
v 0.07866733 0.95460254 0.5291723
v 0.07059836 0.951331 0.5231888
v 0.069537155 0.9425976 0.5473349
v 0.05977447 0.93888897 0.54087204
v 0.08882034 0.9606412 0.5377394
v 0.09078094 0.96857727 0.54370916
v 0.10042071 0.97152334 0.52262175
v 0.09720565 0.9810916 0.5284667
v 0.060942534 0.91945684 0.5635632
v 0.051083826 0.92107624 0.55681634
v 0.077227235 0.94738716 0.55428
v 0.055946834 0.9139326 0.57366645
v 0.04623737 0.911413 0.5683195
v 0.094306946 0.9879302 0.5137957
v 0.08804081 0.9906541 0.5296205
v 0.087934 0.977617 0.5473142
v 0.06533006 0.92637205 0.56927586
v 0.0642834 0.9365154 0.57141876
v 0.078845955 0.9558231 0.55954045
v 0.075491495 0.96651936 0.56222093
v 0.049122967 0.90998137 0.58452505
v 0.039872166 0.908146 0.5853487
v 0.047666993 0.9117291 0.5861865
v 0.039250813 0.9089633 0.58711475
v 0.03952465 0.91235423 0.58597153
v 0.057510752 0.91831464 0.57709706
v 0.047538687 0.9140661 0.5860499
v 0.053311437 0.92871255 0.5755411
v 0.04088923 0.929623 0.57165736
v 0.052501142 0.94305015 0.57495266
v 0.040199075 0.9415084 0.57148147
v 0.062374327 0.9530664 0.57148117
v 0.05367838 0.96182036 0.571359
v 0.04150077 0.9605585 0.56833214
v 0.04657422 0.9803901 0.558044
v 0.06122689 0.9634498 0.5702432
v 0.067015044 0.97766584 0.56326306
v 0.057979207 0.97970426 0.56155866
v 0.066518135 0.99345887 0.5445693
v 0.057083197 0.99489594 0.54065025
v 0.078491054 0.9877164 0.5472178
v 0.07848753 0.9967374 0.52457
v -0.089546554 0.97807217 0.4784674
v -0.08726123 0.9880602 0.48797527
v -0.0951954 0.9861677 0.49307325
v -0.07846585 0.99556106 0.50195736
v -0.086971045 0.9941337 0.50666726
v -0.06874101 0.9978453 0.5194516
v -0.09910207 0.9772537 0.4836904
v -0.10385903 0.97341657 0.49750528
v -0.099072464 0.9829462 0.50651574
v -0.102974765 0.978323 0.46566
v -0.09568338 0.9789829 0.46271262
v -0.106184416 0.97816014 0.45289576
v -0.10173358 0.9790022 0.44943622
v -0.10666498 0.9763723 0.449893
v -0.10290412 0.97733396 0.44703242
v -0.10748087 0.9721937 0.46298248
v -0.10645369 0.9730699 0.45040774
v -0.102230124 0.9733496 0.44682539
v -0.10428546 0.96770513 0.45796627
v -0.098210506 0.9669817 0.4549516
v -0.09959732 0.95922565 0.47301966
v -0.09267134 0.9583057 0.46846816
v -0.10634331 0.9658217 0.47902265
v -0.09744666 0.9562371 0.47883514
v -0.090983845 0.95587075 0.47511232
v -0.10533855 0.9634841 0.48844984
v -0.0901076 0.95803386 0.5023744
v -0.08246374 0.9555172 0.4964637
v -0.10098707 0.9641313 0.5136204
v -0.07866733 0.95460254 0.5291723
v -0.07059836 0.951331 0.5231888
v -0.069537155 0.9425976 0.5473349
v -0.05977447 0.93888897 0.54087204
v -0.08882034 0.9606412 0.5377394
v -0.09078094 0.96857727 0.54370916
v -0.10042071 0.97152334 0.52262175
v -0.09720565 0.9810916 0.5284667
v -0.060942534 0.91945684 0.5635632
v -0.051083826 0.92107624 0.55681634
v -0.077227235 0.94738716 0.55428
v -0.055946834 0.9139326 0.57366645
v -0.04623737 0.911413 0.5683195
v -0.094306946 0.9879302 0.5137957
v -0.08804081 0.9906541 0.5296205
v -0.087934 0.977617 0.5473142
v -0.06533006 0.92637205 0.56927586
v -0.0642834 0.9365154 0.57141876
v -0.078845955 0.9558231 0.55954045
v -0.075491495 0.96651936 0.56222093
v -0.049122967 0.90998137 0.58452505
v -0.039872166 0.908146 0.5853487
v -0.047666993 0.9117291 0.5861865
v -0.039250813 0.9089633 0.58711475
v -0.03952465 0.91235423 0.58597153
v -0.057510752 0.91831464 0.57709706
v -0.047538687 0.9140661 0.5860499
v -0.053311437 0.92871255 0.5755411
v -0.04088923 0.929623 0.57165736
v -0.052501142 0.94305015 0.57495266
v -0.040199075 0.9415084 0.57148147
v -0.062374327 0.9530664 0.57148117
v -0.05367838 0.96182036 0.571359
v -0.04150077 0.9605585 0.56833214
v -0.04657422 0.9803901 0.558044
v -0.06122689 0.9634498 0.5702432
v -0.067015044 0.97766584 0.56326306
v -0.057979207 0.97970426 0.56155866
v -0.066518135 0.99345887 0.5445693
v -0.057083197 0.99489594 0.54065025
v -0.078491054 0.9877164 0.5472178
v -0.07848753 0.9967374 0.52457
vt 0.28865063 0.9479845
vt 0.29503322 0.9525261
vt 0.29233992 0.9589373
vt 0.29758334 0.97430545
vt 0.2996627 0.9664424
vt 0.3055278 0.9838315
vt 0.29181427 0.939873
vt 0.29858917 0.9365371
vt 0.30036175 0.94752884
vt 0.28538132 0.93304455
vt 0.28353322 0.93926746
vt 0.28171438 0.9267268
vt 0.27710855 0.92745805
vt 0.28111738 0.9240359
vt 0.27692115 0.9241286
vt 0.2854259 0.9252438
vt 0.28153837 0.9213471
vt 0.2773407 0.91966826
vt 0.28438497 0.9186028
vt 0.28342807 0.9125666
vt 0.29065168 0.91455907
vt 0.28945273 0.9072653
vt 0.29160953 0.92538804
vt 0.29583973 0.9107622
vt 0.29491025 0.9026227
vt 0.29733133 0.92395097
vt 0.30245268 0.9063352
vt 0.30128157 0.8975289
vt 0.3045963 0.92052615
vt 0.31081766 0.9022216
vt 0.3102079 0.8922654
vt 0.31915802 0.90118307
vt 0.31913292 0.8900334
vt 0.311719 0.9169318
vt 0.3125 0.9296875
vt 0.30590582 0.9329342
vt 0.306933 0.9460551
vt 0.32627666 0.9016071
vt 0.32637346 0.89012593
vt 0.3196448 0.9136607
vt 0.33280182 0.90255946
vt 0.33343548 0.8913457
vt 0.30224466 0.95492435
vt 0.3075359 0.95968395
vt 0.3134091 0.94452703
vt 0.32677662 0.91083634
vt 0.32704526 0.9225253
vt 0.31968993 0.926147
vt 0.31998134 0.94082445
vt 0.33694834 0.90220904
vt 0.3423401 0.899086
vt 0.3375523 0.9040262
vt 0.34286416 0.90084124
vt 0.342875 0.9047364
vt 0.33294678 0.9076069
vt 0.3375075 0.906135
vt 0.33329463 0.91944826
vt 0.33771002 0.9262324
vt 0.33157665 0.93376374
vt 0.33616996 0.9375469
vt 0.32632577 0.937534
vt 0.32835513 0.95098937
vt 0.3325128 0.95618695
vt 0.32577652 0.9745069
vt 0.32566673 0.9485263
vt 0.3210503 0.95534235
vt 0.32320017 0.96594584
vt 0.31528103 0.9750886
vt 0.3158689 0.98468757
vt 0.31435013 0.9598919
vt 0.3065464 0.9734992
vt 0.28865057 0.9479845
vt 0.29233974 0.9589373
vt 0.2950332 0.9525261
vt 0.29758334 0.97430545
vt 0.2996627 0.9664424
vt 0.30552775 0.9838315
vt 0.2918142 0.939873
vt 0.29858905 0.9365371
vt 0.30036172 0.94752884
vt 0.28538126 0.93304455
vt 0.2835331 0.93926746
vt 0.28171426 0.9267268
vt 0.2771084 0.92745805
vt 0.28111732 0.9240359
vt 0.27692106 0.9241286
vt 0.28542584 0.9252438
vt 0.28153834 0.9213471
vt 0.27734056 0.91966826
vt 0.2843849 0.9186028
vt 0.28342795 0.9125666
vt 0.2906517 0.91455907
vt 0.28945267 0.9072653
vt 0.29160944 0.92538804
vt 0.29583967 0.9107622
vt 0.2949102 0.9026227
vt 0.2973313 0.92395097
vt 0.3024527 0.9063352
vt 0.30128148 0.8975289
vt 0.30459628 0.92052615
vt 0.31081766 0.9022216
vt 0.31020784 0.8922654
vt 0.31915802 0.90118307
vt 0.31913292 0.8900334
vt 0.31171888 0.9169318
vt 0.3125 0.9296875
vt 0.30590576 0.9329342
vt 0.30693296 0.9460551
vt 0.3262766 0.9016071
vt 0.32637346 0.89012593
vt 0.3196447 0.9136607
vt 0.3328017 0.90255946
vt 0.33343542 0.8913457
vt 0.3022446 0.95492435
vt 0.30753583 0.95968395
vt 0.313409 0.94452703
vt 0.32677647 0.91083634
vt 0.32704514 0.9225253
vt 0.31968978 0.926147
vt 0.31998134 0.94082445
vt 0.33694822 0.90220904
vt 0.34234008 0.899086
vt 0.3375522 0.9040262
vt 0.3428641 0.90084124
vt 0.342875 0.9047364
vt 0.3329467 0.9076069
vt 0.33750746 0.906135
vt 0.3332945 0.91944826
vt 0.33771002 0.9262324
vt 0.33157656 0.93376374
vt 0.33616987 0.9375469
vt 0.3263257 0.937534
vt 0.32835507 0.95098937
vt 0.33251277 0.95618695
vt 0.32577652 0.9745069
vt 0.32566667 0.9485263
vt 0.32105026 0.95534235
vt 0.32320017 0.96594584
vt 0.31528097 0.9750886
vt 0.31586885 0.98468757
vt 0.31435007 0.9598919
vt 0.30654633 0.9734992
vn 0.51974636 0.83983004 -0.1566822
vn 0.6371482 0.7656357 -0.08856669
vn 0.46482363 0.86965096 -0.1662712
vn 0.36715713 0.9284287 -0.05670798
vn 0.49671394 0.8678946 0.005859711
vn 0.23624307 0.9559835 0.17402488
vn 0.80773443 0.5831007 -0.0869402
vn 0.9674105 0.24100061 0.07768976
vn 0.8049533 0.58774394 0.08128469
vn 0.74094456 0.661485 -0.11592535
vn 0.51428723 0.8454557 -0.14392129
vn 0.71997577 0.6593692 -0.21648842
vn 0.6085905 0.7454706 -0.27182946
vn 0.89784664 0.21728837 -0.38295862
vn 0.8088866 0.28897375 -0.5120514
vn 0.97255516 0.06697954 -0.22282358
vn 0.82546335 -0.29120705 -0.48353764
vn 0.7495988 -0.33052906 -0.5734564
vn 0.7880489 -0.5036114 -0.35405427
vn 0.615502 -0.66056067 -0.4299033
vn 0.7128257 -0.6689762 -0.21059516
vn 0.50854355 -0.8174582 -0.27045456
vn 0.9852201 -0.12941839 -0.11221545
vn 0.62659025 -0.77615184 -0.07051973
vn 0.43854445 -0.8889949 -0.13178398
vn 0.93155324 -0.36249533 0.028383976
vn 0.579393 -0.8150451 0.0022839503
vn 0.42901063 -0.90020627 -0.07469018
vn 0.84886664 -0.5088452 0.14318497
vn 0.6083357 -0.7929597 -0.03380431
vn 0.48259073 -0.8650468 -0.13711339
vn 0.6636945 -0.7429631 -0.08669178
vn 0.5354325 -0.8133671 -0.22747773
vn 0.8142443 -0.5476338 0.19262265
vn 0.8907275 -0.12159892 0.43797073
vn 0.9626079 -0.0009554612 0.27089706
vn 0.83910614 0.44049233 0.31916672
vn 0.685975 -0.727515 -0.012659826
vn 0.54805267 -0.81296825 -0.19677608
vn 0.820707 -0.51240784 0.2527415
vn 0.6404375 -0.73171973 0.23329367
vn 0.5269567 -0.84892267 0.040582843
vn 0.64706737 0.75504595 0.105875045
vn 0.60779977 0.73324615 0.3048433
vn 0.7579716 0.3136009 0.5719559
vn 0.7871912 -0.44562092 0.4263238
vn 0.6082064 -0.06382304 0.791209
vn 0.7888072 -0.13457957 0.59972614
vn 0.5948276 0.21555714 0.7744129
vn 0.543487 -0.6731957 0.5014273
vn 0.46588096 -0.75324297 0.46430576
vn 0.46281403 -0.30026934 0.8340513
vn 0.32763085 -0.31926337 0.8892294
vn 0.12221289 0.090101644 0.9884057
vn 0.6383232 -0.35680515 0.68208027
vn 0.2559116 0.060668312 0.9647946
vn 0.30366224 0.07687024 0.9496738
vn 0.0292057 0.20445962 0.9784393
vn 0.11057888 0.22747621 0.96748483
vn -0.07064759 0.27545434 0.9587147
vn 0.37836155 0.17817532 0.9083481
vn 0.03136743 0.39581108 0.917796
vn -0.10365383 0.43063274 0.8965552
vn -0.044949424 0.6706039 0.74045265
vn 0.22794914 0.34327796 0.9111528
vn 0.3443416 0.48012727 0.8067879
vn 0.09253294 0.62192464 0.77759075
vn 0.22872569 0.82244676 0.52083206
vn 0.08521111 0.8773307 0.47226036
vn 0.4965332 0.6435368 0.5825076
vn 0.37456214 0.89894533 0.22715732
vn -0.51974636 0.83983004 -0.1566818
vn -0.46482372 0.86965096 -0.1662711
vn -0.6371482 0.7656358 -0.08856683
vn -0.36715725 0.92842865 -0.05670868
vn -0.49671412 0.8678945 0.0058590644
vn -0.23624332 0.95598364 0.17402413
vn -0.80773443 0.58310086 -0.08693983
vn -0.9674104 0.24100077 0.07768991
vn -0.8049532 0.5877442 0.08128441
vn -0.7409447 0.6614848 -0.11592608
vn -0.5142875 0.8454554 -0.14392212
vn -0.71997595 0.6593682 -0.21649064
vn -0.6085903 0.7454697 -0.27183223
vn -0.89784586 0.21728681 -0.38296112
vn -0.8088852 0.28897187 -0.51205456
vn -0.97255504 0.066978894 -0.22282423
vn -0.82546204 -0.29120842 -0.48353902
vn -0.749597 -0.33053052 -0.57345784
vn -0.78804827 -0.5036121 -0.3540548
vn -0.61550117 -0.66056126 -0.42990366
vn -0.7128256 -0.6689762 -0.21059553
vn -0.50854343 -0.8174581 -0.27045488
vn -0.9852201 -0.12941849 -0.11221547
vn -0.6265902 -0.7761518 -0.07052015
vn -0.43854463 -0.8889947 -0.13178453
vn -0.93155324 -0.36249524 0.028383981
vn -0.579393 -0.815045 0.002283818
vn -0.42901078 -0.90020615 -0.07469048
vn -0.8488666 -0.5088453 0.143185
vn -0.6083356 -0.79295963 -0.033804566
vn -0.4825907 -0.8650468 -0.13711365
vn -0.6636942 -0.74296325 -0.08669227
vn -0.5354322 -0.8133671 -0.22747807
vn -0.8142443 -0.547634 0.19262241
vn -0.8907275 -0.12159913 0.43797058
vn -0.9626079 -0.00095553446 0.2708971
vn -0.83910626 0.44049224 0.31916645
vn -0.68597454 -0.72751546 -0.012659972
vn -0.5480521 -0.8129687 -0.19677624
vn -0.8207071 -0.512408 0.25274068
vn -0.64043677 -0.7317203 0.23329398
vn -0.5269558 -0.84892315 0.04058283
vn -0.64706755 0.7550459 0.10587425
vn -0.6078001 0.7332462 0.30484244
vn -0.7579719 0.31360075 0.5719556
vn -0.7871912 -0.4456211 0.42632362
vn -0.60820657 -0.063823104 0.79120874
vn -0.7888075 -0.1345799 0.59972584
vn -0.59482807 0.21555701 0.7744125
vn -0.5434861 -0.6731967 0.50142705
vn -0.4658802 -0.7532442 0.46430477
vn -0.4628135 -0.30027074 0.8340511
vn -0.3276306 -0.31926566 0.88922864
vn -0.122212715 0.0901004 0.9884058
vn -0.63832265 -0.35680553 0.6820806
vn -0.25591126 0.060667336 0.9647948
vn -0.30366185 0.07687009 0.9496739
vn -0.029205566 0.20445912 0.9784394
vn -0.110579014 0.22747621 0.96748483
vn 0.070647396 0.27545416 0.9587147
vn -0.37836206 0.17817536 0.9083478
vn -0.031367943 0.39581108 0.917796
vn 0.10365347 0.43063283 0.8965553
vn 0.044948965 0.6706038 0.74045265
vn -0.22794987 0.34327826 0.9111525
vn -0.34434217 0.48012757 0.80678755
vn -0.09253334 0.62192476 0.77759063
vn -0.22872604 0.8224468 0.52083164
vn -0.08521154 0.8773308 0.4722601
vn -0.4965337 0.643537 0.582507
vn -0.3745624 0.8989454 0.22715653
g pm0676_11_Eye46Skin_0
f 3/3/3 2/2/2 1/1/1
f 3/3/3 4/4/4 2/2/2
f 4/4/4 5/5/5 2/2/2
f 4/4/4 6/6/6 5/5/5
f 2/2/2 7/7/7 1/1/1
f 8/8/8 7/7/7 2/2/2
f 9/9/9 2/2/2 5/5/5
f 9/9/9 8/8/8 2/2/2
f 7/7/7 10/10/10 1/1/1
f 10/10/10 11/11/11 1/1/1
f 10/10/10 12/12/12 11/11/11
f 12/12/12 13/13/13 11/11/11
f 13/13/13 12/12/12 14/14/14
f 14/14/14 12/12/12 10/10/10
f 15/15/15 13/13/13 14/14/14
f 16/16/16 10/10/10 7/7/7
f 16/16/16 14/14/14 10/10/10
f 15/15/15 14/14/14 17/17/17
f 18/18/18 15/15/15 17/17/17
f 19/19/19 17/17/17 14/14/14
f 18/18/18 17/17/17 19/19/19
f 16/16/16 19/19/19 14/14/14
f 20/20/20 18/18/18 19/19/19
f 20/20/20 19/19/19 21/21/21
f 21/21/21 19/19/19 16/16/16
f 22/22/22 20/20/20 21/21/21
f 23/23/23 16/16/16 7/7/7
f 23/23/23 21/21/21 16/16/16
f 23/23/23 7/7/7 8/8/8
f 21/21/21 24/24/24 22/22/22
f 24/24/24 21/21/21 23/23/23
f 24/24/24 25/25/25 22/22/22
f 26/26/26 24/24/24 23/23/23
f 26/26/26 23/23/23 8/8/8
f 24/24/24 27/27/27 25/25/25
f 24/24/24 26/26/26 27/27/27
f 27/27/27 28/28/28 25/25/25
f 26/26/26 29/29/29 27/27/27
f 26/26/26 8/8/8 29/29/29
f 27/27/27 30/30/30 28/28/28
f 30/30/30 27/27/27 29/29/29
f 30/30/30 31/31/31 28/28/28
f 30/30/30 32/32/32 31/31/31
f 32/32/32 33/33/33 31/31/31
f 34/34/34 30/30/30 29/29/29
f 30/30/30 34/34/34 32/32/32
f 34/34/34 29/29/29 35/35/35
f 8/8/8 36/36/36 29/29/29
f 29/29/29 36/36/36 35/35/35
f 37/37/37 36/36/36 8/8/8
f 35/35/35 36/36/36 37/37/37
f 9/9/9 37/37/37 8/8/8
f 32/32/32 38/38/38 33/33/33
f 38/38/38 39/39/39 33/33/33
f 34/34/34 40/40/40 32/32/32
f 34/34/34 35/35/35 40/40/40
f 38/38/38 32/32/32 40/40/40
f 38/38/38 41/41/41 39/39/39
f 41/41/41 42/42/42 39/39/39
f 9/9/9 43/43/43 37/37/37
f 43/43/43 9/9/9 5/5/5
f 43/43/43 44/44/44 37/37/37
f 43/43/43 5/5/5 44/44/44
f 45/45/45 35/35/35 37/37/37
f 45/45/45 37/37/37 44/44/44
f 46/46/46 38/38/38 40/40/40
f 38/38/38 46/46/46 41/41/41
f 46/46/46 40/40/40 47/47/47
f 35/35/35 48/48/48 40/40/40
f 40/40/40 48/48/48 47/47/47
f 49/49/49 48/48/48 35/35/35
f 45/45/45 49/49/49 35/35/35
f 47/47/47 48/48/48 49/49/49
f 41/41/41 50/50/50 42/42/42
f 50/50/50 51/51/51 42/42/42
f 51/51/51 50/50/50 52/52/52
f 52/52/52 50/50/50 41/41/41
f 53/53/53 51/51/51 52/52/52
f 53/53/53 52/52/52 54/54/54
f 46/46/46 55/55/55 41/41/41
f 55/55/55 52/52/52 41/41/41
f 46/46/46 47/47/47 55/55/55
f 52/52/52 56/56/56 54/54/54
f 56/56/56 52/52/52 55/55/55
f 54/54/54 56/56/56 57/57/57
f 57/57/57 56/56/56 55/55/55
f 47/47/47 57/57/57 55/55/55
f 58/58/58 54/54/54 57/57/57
f 58/58/58 57/57/57 59/59/59
f 59/59/59 57/57/57 47/47/47
f 60/60/60 58/58/58 59/59/59
f 61/61/61 59/59/59 47/47/47
f 61/61/61 47/47/47 49/49/49
f 60/60/60 59/59/59 62/62/62
f 63/63/63 60/60/60 62/62/62
f 63/63/63 62/62/62 64/64/64
f 61/61/61 65/65/65 59/59/59
f 65/65/65 62/62/62 59/59/59
f 65/65/65 61/61/61 66/66/66
f 61/61/61 49/49/49 66/66/66
f 65/65/65 66/66/66 62/62/62
f 62/62/62 67/67/67 64/64/64
f 66/66/66 67/67/67 62/62/62
f 64/64/64 67/67/67 68/68/68
f 68/68/68 67/67/67 66/66/66
f 69/69/69 64/64/64 68/68/68
f 69/69/69 68/68/68 6/6/6
f 70/70/70 66/66/66 49/49/49
f 70/70/70 68/68/68 66/66/66
f 45/45/45 70/70/70 49/49/49
f 70/70/70 45/45/45 44/44/44
f 70/70/70 44/44/44 68/68/68
f 68/68/68 71/71/71 6/6/6
f 44/44/44 71/71/71 68/68/68
f 6/6/6 71/71/71 5/5/5
f 5/5/5 71/71/71 44/44/44
f 74/74/74 73/73/73 72/72/72
f 75/75/75 73/73/73 74/74/74
f 76/76/76 75/75/75 74/74/74
f 77/77/77 75/75/75 76/76/76
f 78/78/78 74/74/74 72/72/72
f 78/78/78 79/79/79 74/74/74
f 74/74/74 80/80/80 76/76/76
f 79/79/79 80/80/80 74/74/74
f 81/81/81 78/78/78 72/72/72
f 82/82/82 81/81/81 72/72/72
f 83/83/83 81/81/81 82/82/82
f 84/84/84 83/83/83 82/82/82
f 83/83/83 84/84/84 85/85/85
f 83/83/83 85/85/85 81/81/81
f 84/84/84 86/86/86 85/85/85
f 81/81/81 87/87/87 78/78/78
f 85/85/85 87/87/87 81/81/81
f 85/85/85 86/86/86 88/88/88
f 86/86/86 89/89/89 88/88/88
f 88/88/88 90/90/90 85/85/85
f 88/88/88 89/89/89 90/90/90
f 90/90/90 87/87/87 85/85/85
f 89/89/89 91/91/91 90/90/90
f 90/90/90 91/91/91 92/92/92
f 90/90/90 92/92/92 87/87/87
f 91/91/91 93/93/93 92/92/92
f 87/87/87 94/94/94 78/78/78
f 92/92/92 94/94/94 87/87/87
f 78/78/78 94/94/94 79/79/79
f 95/95/95 92/92/92 93/93/93
f 92/92/92 95/95/95 94/94/94
f 96/96/96 95/95/95 93/93/93
f 95/95/95 97/97/97 94/94/94
f 94/94/94 97/97/97 79/79/79
f 98/98/98 95/95/95 96/96/96
f 97/97/97 95/95/95 98/98/98
f 99/99/99 98/98/98 96/96/96
f 100/100/100 97/97/97 98/98/98
f 79/79/79 97/97/97 100/100/100
f 101/101/101 98/98/98 99/99/99
f 98/98/98 101/101/101 100/100/100
f 102/102/102 101/101/101 99/99/99
f 103/103/103 101/101/101 102/102/102
f 104/104/104 103/103/103 102/102/102
f 101/101/101 105/105/105 100/100/100
f 105/105/105 101/101/101 103/103/103
f 100/100/100 105/105/105 106/106/106
f 107/107/107 79/79/79 100/100/100
f 107/107/107 100/100/100 106/106/106
f 107/107/107 108/108/108 79/79/79
f 107/107/107 106/106/106 108/108/108
f 108/108/108 80/80/80 79/79/79
f 109/109/109 103/103/103 104/104/104
f 110/110/110 109/109/109 104/104/104
f 111/111/111 105/105/105 103/103/103
f 106/106/106 105/105/105 111/111/111
f 103/103/103 109/109/109 111/111/111
f 112/112/112 109/109/109 110/110/110
f 113/113/113 112/112/112 110/110/110
f 114/114/114 80/80/80 108/108/108
f 80/80/80 114/114/114 76/76/76
f 115/115/115 114/114/114 108/108/108
f 76/76/76 114/114/114 115/115/115
f 106/106/106 116/116/116 108/108/108
f 108/108/108 116/116/116 115/115/115
f 109/109/109 117/117/117 111/111/111
f 117/117/117 109/109/109 112/112/112
f 111/111/111 117/117/117 118/118/118
f 119/119/119 106/106/106 111/111/111
f 119/119/119 111/111/111 118/118/118
f 119/119/119 120/120/120 106/106/106
f 120/120/120 116/116/116 106/106/106
f 119/119/119 118/118/118 120/120/120
f 121/121/121 112/112/112 113/113/113
f 122/122/122 121/121/121 113/113/113
f 121/121/121 122/122/122 123/123/123
f 121/121/121 123/123/123 112/112/112
f 122/122/122 124/124/124 123/123/123
f 123/123/123 124/124/124 125/125/125
f 126/126/126 117/117/117 112/112/112
f 123/123/123 126/126/126 112/112/112
f 118/118/118 117/117/117 126/126/126
f 127/127/127 123/123/123 125/125/125
f 123/123/123 127/127/127 126/126/126
f 127/127/127 125/125/125 128/128/128
f 127/127/127 128/128/128 126/126/126
f 128/128/128 118/118/118 126/126/126
f 125/125/125 129/129/129 128/128/128
f 128/128/128 129/129/129 130/130/130
f 128/128/128 130/130/130 118/118/118
f 129/129/129 131/131/131 130/130/130
f 130/130/130 132/132/132 118/118/118
f 118/118/118 132/132/132 120/120/120
f 130/130/130 131/131/131 133/133/133
f 131/131/131 134/134/134 133/133/133
f 133/133/133 134/134/134 135/135/135
f 136/136/136 132/132/132 130/130/130
f 133/133/133 136/136/136 130/130/130
f 132/132/132 136/136/136 137/137/137
f 120/120/120 132/132/132 137/137/137
f 137/137/137 136/136/136 133/133/133
f 138/138/138 133/133/133 135/135/135
f 138/138/138 137/137/137 133/133/133
f 138/138/138 135/135/135 139/139/139
f 138/138/138 139/139/139 137/137/137
f 135/135/135 140/140/140 139/139/139
f 139/139/139 140/140/140 77/77/77
f 137/137/137 141/141/141 120/120/120
f 139/139/139 141/141/141 137/137/137
f 141/141/141 116/116/116 120/120/120
f 116/116/116 141/141/141 115/115/115
f 115/115/115 141/141/141 139/139/139
f 142/142/142 139/139/139 77/77/77
f 142/142/142 115/115/115 139/139/139
f 142/142/142 77/77/77 76/76/76
f 142/142/142 76/76/76 115/115/115
