g pm0676_20_Eye123Skin
v 0.089534245 0.9783004 0.47842884
v 0.09513287 0.98742795 0.49286714
v 0.08725327 0.9892707 0.48777446
v 0.07841413 0.9981573 0.50159305
v 0.08691881 0.99673665 0.50630265
v 0.068651624 1.0000393 0.5192198
v 0.09898714 0.97752094 0.48364523
v 0.10417083 0.97114843 0.49993762
v 0.10105562 0.9819776 0.5070595
v 0.10297123 0.978323 0.46566
v 0.09568338 0.9789829 0.46271262
v 0.106184416 0.97816014 0.45289576
v 0.10173358 0.9790022 0.44943622
v 0.10666498 0.9763723 0.449893
v 0.10290412 0.97733396 0.44703242
v 0.1074725 0.9721937 0.46298248
v 0.10645369 0.9730699 0.45040774
v 0.102230124 0.9733496 0.44682539
v 0.10428303 0.96770513 0.45796627
v 0.098210506 0.9669817 0.4549516
v 0.099422865 0.95912445 0.47300994
v 0.092542455 0.95823056 0.46846095
v 0.106458224 0.9658043 0.47907475
v 0.09505437 0.95217556 0.4854764
v 0.08735135 0.95055145 0.48123083
v 0.10476042 0.9590931 0.49343735
v 0.08902929 0.9443794 0.5018812
v 0.08140899 0.94215155 0.49605596
v 0.10013432 0.9499474 0.5127537
v 0.08014434 0.9353443 0.52225995
v 0.07202068 0.93206656 0.51635087
v 0.07112962 0.9268552 0.54196316
v 0.06188564 0.9234263 0.5359092
v 0.09190086 0.94082314 0.5317741
v 0.09541518 0.9526009 0.53940433
v 0.10283414 0.96143836 0.5206957
v 0.09966465 0.9761537 0.5270529
v 0.06278349 0.9202355 0.55822533
v 0.053089608 0.9175754 0.5519629
v 0.08028631 0.9317629 0.5502634
v 0.055946834 0.9139326 0.57366645
v 0.04623737 0.911413 0.5683195
v 0.09636397 0.9878954 0.5133643
v 0.09023706 0.98956037 0.52907425
v 0.09116076 0.96913564 0.5454441
v 0.06824286 0.924334 0.5647102
v 0.06621998 0.9356369 0.5681689
v 0.082081564 0.9440107 0.55602634
v 0.0788321 0.95966 0.56017417
v 0.049122967 0.90998137 0.58452505
v 0.039872166 0.908146 0.5853487
v 0.047666993 0.9117291 0.5861865
v 0.039250813 0.9089633 0.58711475
v 0.03952465 0.91235423 0.58597153
v 0.05773517 0.91775113 0.57661545
v 0.047538687 0.9140661 0.5860499
v 0.053311437 0.92871255 0.5755411
v 0.04088923 0.929623 0.57165736
v 0.052501142 0.94305015 0.57495266
v 0.040199075 0.9415084 0.57148147
v 0.06438483 0.9510351 0.5700024
v 0.05367838 0.96182036 0.571359
v 0.04150077 0.9605585 0.56833214
v 0.04657422 0.9803901 0.558044
v 0.06153844 0.96229786 0.56887984
v 0.06954072 0.9735991 0.56179076
v 0.05755325 0.97970426 0.56155866
v 0.06648277 0.99392074 0.54454803
v 0.057050433 0.99532384 0.5406306
v 0.080790944 0.98444545 0.54677945
v 0.078398116 0.99894404 0.52433604
v -0.089534245 0.9783004 0.47842884
v -0.08725327 0.9892707 0.48777446
v -0.09513287 0.98742795 0.49286714
v -0.07841413 0.9981573 0.50159305
v -0.08691881 0.99673665 0.50630265
v -0.068651624 1.0000393 0.5192198
v -0.09898714 0.97752094 0.48364523
v -0.10417083 0.97114843 0.49993762
v -0.10105562 0.9819776 0.5070595
v -0.10297123 0.978323 0.46566
v -0.09568338 0.9789829 0.46271262
v -0.106184416 0.97816014 0.45289576
v -0.10173358 0.9790022 0.44943622
v -0.10666498 0.9763723 0.449893
v -0.10290412 0.97733396 0.44703242
v -0.1074725 0.9721937 0.46298248
v -0.10645369 0.9730699 0.45040774
v -0.102230124 0.9733496 0.44682539
v -0.10428303 0.96770513 0.45796627
v -0.098210506 0.9669817 0.4549516
v -0.099422865 0.95912445 0.47300994
v -0.092542455 0.95823056 0.46846095
v -0.106458224 0.9658043 0.47907475
v -0.09505437 0.95217556 0.4854764
v -0.08735135 0.95055145 0.48123083
v -0.10476042 0.9590931 0.49343735
v -0.08902929 0.9443794 0.5018812
v -0.08140899 0.94215155 0.49605596
v -0.10013432 0.9499474 0.5127537
v -0.08014434 0.9353443 0.52225995
v -0.07202068 0.93206656 0.51635087
v -0.07112962 0.9268552 0.54196316
v -0.06188564 0.9234263 0.5359092
v -0.09190086 0.94082314 0.5317741
v -0.09541518 0.9526009 0.53940433
v -0.10283414 0.96143836 0.5206957
v -0.09966465 0.9761537 0.5270529
v -0.06278349 0.9202355 0.55822533
v -0.053089608 0.9175754 0.5519629
v -0.08028631 0.9317629 0.5502634
v -0.055946834 0.9139326 0.57366645
v -0.04623737 0.911413 0.5683195
v -0.09636397 0.9878954 0.5133643
v -0.09023706 0.98956037 0.52907425
v -0.09116076 0.96913564 0.5454441
v -0.06824286 0.924334 0.5647102
v -0.06621998 0.9356369 0.5681689
v -0.082081564 0.9440107 0.55602634
v -0.0788321 0.95966 0.56017417
v -0.049122967 0.90998137 0.58452505
v -0.039872166 0.908146 0.5853487
v -0.047666993 0.9117291 0.5861865
v -0.039250813 0.9089633 0.58711475
v -0.03952465 0.91235423 0.58597153
v -0.05773517 0.91775113 0.57661545
v -0.047538687 0.9140661 0.5860499
v -0.053311437 0.92871255 0.5755411
v -0.04088923 0.929623 0.57165736
v -0.052501142 0.94305015 0.57495266
v -0.040199075 0.9415084 0.57148147
v -0.06438483 0.9510351 0.5700024
v -0.05367838 0.96182036 0.571359
v -0.04150077 0.9605585 0.56833214
v -0.04657422 0.9803901 0.558044
v -0.06153844 0.96229786 0.56887984
v -0.06954072 0.9735991 0.56179076
v -0.05755325 0.97970426 0.56155866
v -0.06648277 0.99392074 0.54454803
v -0.057050433 0.99532384 0.5406306
v -0.080790944 0.98444545 0.54677945
v -0.078398116 0.99894404 0.52433604
vt 0.41365063 0.9479845
vt 0.42003316 0.952526
vt 0.41733956 0.9589374
vt 0.42258322 0.9743055
vt 0.42466265 0.96644247
vt 0.43052757 0.9838316
vt 0.41681403 0.939873
vt 0.42358905 0.9365372
vt 0.42536175 0.9475288
vt 0.41038114 0.9330446
vt 0.40853316 0.93926746
vt 0.4060421 0.92945594
vt 0.40182307 0.9308185
vt 0.40472522 0.9244436
vt 0.40140903 0.9246162
vt 0.41042608 0.9252438
vt 0.40565407 0.9194352
vt 0.4023351 0.91630787
vt 0.40938485 0.9186028
vt 0.40842783 0.9125666
vt 0.41565162 0.9145592
vt 0.41445267 0.9072652
vt 0.41660935 0.9253882
vt 0.42083967 0.91076213
vt 0.41991025 0.9026227
vt 0.4223312 0.923951
vt 0.42745262 0.9063354
vt 0.42628163 0.8975289
vt 0.42959625 0.920526
vt 0.4358176 0.9022218
vt 0.43520772 0.8922655
vt 0.44415796 0.90118307
vt 0.44413292 0.8900334
vt 0.43671876 0.9169316
vt 0.4375 0.9296875
vt 0.43090594 0.93293405
vt 0.43193293 0.946055
vt 0.45127636 0.90160704
vt 0.45137346 0.89012593
vt 0.44464463 0.9136607
vt 0.45780182 0.9025595
vt 0.4584353 0.8913457
vt 0.42724437 0.95492446
vt 0.43253565 0.9596837
vt 0.43840897 0.94452703
vt 0.45177633 0.91083634
vt 0.45204508 0.92252547
vt 0.4446897 0.9261471
vt 0.44498122 0.9408244
vt 0.4619484 0.9011777
vt 0.46658522 0.8970602
vt 0.4625522 0.90766245
vt 0.4675938 0.9062321
vt 0.46711993 0.9164979
vt 0.45794678 0.9076069
vt 0.4625073 0.9151885
vt 0.45829445 0.9194483
vt 0.46271002 0.9262324
vt 0.45657653 0.933764
vt 0.46116972 0.937547
vt 0.4513259 0.93753386
vt 0.45335513 0.95098925
vt 0.4575128 0.9561868
vt 0.45077658 0.97450703
vt 0.4506668 0.9485263
vt 0.44605035 0.95534253
vt 0.44820035 0.96594584
vt 0.44028097 0.9750885
vt 0.44086903 0.98468757
vt 0.4393502 0.9598919
vt 0.4315465 0.9734993
vt 0.4136507 0.9479845
vt 0.41733956 0.9589374
vt 0.42003316 0.952526
vt 0.42258322 0.9743055
vt 0.42466265 0.96644247
vt 0.43052757 0.9838316
vt 0.41681397 0.939873
vt 0.4235891 0.9365372
vt 0.4253618 0.9475288
vt 0.41038114 0.9330446
vt 0.4085331 0.93926746
vt 0.40604222 0.92945594
vt 0.40182307 0.9308185
vt 0.40472522 0.9244436
vt 0.40140903 0.9246162
vt 0.41042608 0.9252438
vt 0.4056541 0.9194352
vt 0.4023351 0.91630787
vt 0.4093848 0.9186028
vt 0.40842777 0.9125666
vt 0.41565162 0.9145592
vt 0.41445267 0.9072652
vt 0.41660935 0.9253882
vt 0.42083967 0.91076213
vt 0.4199103 0.9026227
vt 0.42233127 0.923951
vt 0.42745256 0.9063354
vt 0.42628157 0.8975289
vt 0.42959625 0.920526
vt 0.4358176 0.9022218
vt 0.43520778 0.8922655
vt 0.44415796 0.90118307
vt 0.44413304 0.8900334
vt 0.43671882 0.9169316
vt 0.4375 0.9296875
vt 0.43090594 0.93293405
vt 0.43193293 0.946055
vt 0.45127642 0.90160704
vt 0.45137346 0.89012593
vt 0.44464463 0.9136607
vt 0.45780182 0.9025595
vt 0.4584353 0.8913457
vt 0.42724442 0.95492446
vt 0.43253577 0.9596837
vt 0.4384089 0.94452703
vt 0.45177633 0.91083634
vt 0.45204514 0.92252547
vt 0.4446897 0.9261471
vt 0.44498128 0.9408244
vt 0.46194834 0.9011777
vt 0.46658516 0.8970602
vt 0.46255225 0.90766245
vt 0.46759376 0.9062321
vt 0.46712 0.9164979
vt 0.45794678 0.9076069
vt 0.46250737 0.9151885
vt 0.45829445 0.9194483
vt 0.46271002 0.9262324
vt 0.4565766 0.933764
vt 0.46116966 0.937547
vt 0.4513259 0.93753386
vt 0.45335513 0.95098925
vt 0.45751286 0.9561868
vt 0.45077658 0.97450703
vt 0.4506668 0.9485263
vt 0.44605035 0.95534253
vt 0.4482003 0.96594584
vt 0.44028097 0.9750885
vt 0.4408691 0.98468757
vt 0.4393502 0.9598919
vt 0.4315464 0.9734993
vn 0.51063275 0.8389109 -0.18836856
vn 0.6756586 0.7270262 -0.12214058
vn 0.4769398 0.8519506 -0.2161217
vn 0.37837872 0.9222063 -0.07978144
vn 0.5368434 0.84367657 0.002992375
vn 0.23629165 0.9530215 0.18951589
vn 0.82178575 0.5582328 -0.11421205
vn 0.9826115 0.18434808 0.02214652
vn 0.8573998 0.509969 0.069261394
vn 0.7297927 0.67646 -0.0990172
vn 0.47750458 0.8676748 -0.13831082
vn 0.6994462 0.6861978 -0.19976889
vn 0.5706542 0.7767203 -0.26656967
vn 0.8969379 0.22187327 -0.3824586
vn 0.79052943 0.30314714 -0.53213257
vn 0.97508085 0.059112098 -0.21382965
vn 0.8114953 -0.31281355 -0.4935819
vn 0.72379893 -0.34682065 -0.59651536
vn 0.7736651 -0.51655966 -0.3668904
vn 0.5933324 -0.66273004 -0.45688692
vn 0.71456623 -0.64090335 -0.2804248
vn 0.52129054 -0.7779881 -0.35070047
vn 0.97855467 -0.13468029 -0.15585859
vn 0.66394615 -0.7144682 -0.22070527
vn 0.49824417 -0.8195491 -0.28300545
vn 0.93329424 -0.34866953 -0.08597349
vn 0.6222382 -0.7676877 -0.15321627
vn 0.4918382 -0.8421057 -0.2212536
vn 0.8645879 -0.5022099 0.016524488
vn 0.592128 -0.8020727 -0.077870354
vn 0.48406228 -0.8595137 -0.16407281
vn 0.57812834 -0.81594175 0.0025641196
vn 0.47128347 -0.8745455 -0.11428948
vn 0.79911757 -0.5830628 0.14645445
vn 0.893546 -0.17895198 0.41176665
vn 0.9765737 -0.055597365 0.20787707
vn 0.88226116 0.34741616 0.31767476
vn 0.5812725 -0.80680686 0.105759524
vn 0.46124506 -0.8861283 -0.045050118
vn 0.7515569 -0.58874696 0.29755557
vn 0.56947297 -0.77237046 0.28132623
vn 0.45205703 -0.8831309 0.12539633
vn 0.7100209 0.693112 0.12436236
vn 0.66945875 0.65903234 0.34278467
vn 0.790408 0.22617479 0.5692981
vn 0.71065944 -0.5190547 0.47491607
vn 0.602622 -0.116254106 0.7895136
vn 0.7695929 -0.19922882 0.6066585
vn 0.6297347 0.14359577 0.76342285
vn 0.5076108 -0.6985037 0.50440454
vn 0.41739717 -0.7720572 0.47927788
vn 0.45729905 -0.30752677 0.8344489
vn 0.30542332 -0.32034954 0.8967122
vn 0.103091694 0.12003001 0.98740315
vn 0.6109474 -0.3936399 0.68687034
vn 0.2574123 0.08566028 0.9624975
vn 0.3166505 0.067133024 0.9461636
vn 0.016959766 0.2154757 0.9763618
vn 0.14720002 0.20063195 0.9685448
vn -0.071832806 0.2603088 0.9628496
vn 0.42942727 0.127497 0.8940564
vn 0.08257659 0.36716437 0.92648333
vn -0.09503711 0.41110426 0.9066208
vn -0.036932785 0.6516221 0.757644
vn 0.3064988 0.29649943 0.9045146
vn 0.41571015 0.4142277 0.80969167
vn 0.14136395 0.5866293 0.7974223
vn 0.26595217 0.7853332 0.5590361
vn 0.08492214 0.86251235 0.49885944
vn 0.55763173 0.56228215 0.6106436
vn 0.40875524 0.8744817 0.26115325
vn -0.5106327 0.8389107 -0.18836917
vn -0.47693986 0.8519509 -0.21612084
vn -0.67565846 0.72702646 -0.1221397
vn -0.3783787 0.9222065 -0.07977921
vn -0.53684306 0.84367687 0.0029943231
vn -0.2362913 0.9530211 0.18951836
vn -0.8217858 0.5582326 -0.11421251
vn -0.9826115 0.18434815 0.022146527
vn -0.8573996 0.50996923 0.06926194
vn -0.72979295 0.6764595 -0.09901934
vn -0.4775048 0.8676743 -0.13831322
vn -0.6994461 0.6861968 -0.19977267
vn -0.57065386 0.7767191 -0.26657388
vn -0.89693666 0.22187196 -0.38246235
vn -0.79052716 0.30314523 -0.532137
vn -0.97508043 0.05911146 -0.21383174
vn -0.8114935 -0.3128142 -0.49358445
vn -0.7237964 -0.34682128 -0.596518
vn -0.7736641 -0.5165598 -0.36689204
vn -0.5933312 -0.66273004 -0.45688832
vn -0.71456575 -0.6409034 -0.2804258
vn -0.5212901 -0.77798784 -0.3507015
vn -0.9785544 -0.13468078 -0.15585953
vn -0.66394556 -0.71446836 -0.22070615
vn -0.49824372 -0.819549 -0.2830063
vn -0.9332941 -0.34866986 -0.0859742
vn -0.62223786 -0.76768786 -0.15321694
vn -0.4918378 -0.84210587 -0.2212542
vn -0.8645877 -0.50221014 0.016524084
vn -0.5921276 -0.8020728 -0.07787099
vn -0.48406184 -0.8595138 -0.1640733
vn -0.57812816 -0.815942 0.002563483
vn -0.47128314 -0.8745457 -0.114289716
vn -0.7991174 -0.58306295 0.14645422
vn -0.8935458 -0.17895201 0.411767
vn -0.9765736 -0.05559731 0.20787722
vn -0.8822609 0.34741637 0.31767535
vn -0.5812724 -0.8068069 0.10575939
vn -0.4612449 -0.88612837 -0.045049854
vn -0.751557 -0.588747 0.29755515
vn -0.5694727 -0.7723707 0.28132614
vn -0.45205677 -0.8831311 0.12539624
vn -0.7100205 0.6931123 0.12436354
vn -0.6694582 0.6590322 0.3427858
vn -0.79040754 0.22617489 0.5692985
vn -0.7106596 -0.5190548 0.4749158
vn -0.6026219 -0.11625419 0.7895136
vn -0.76959306 -0.19922894 0.60665846
vn -0.62973434 0.14359577 0.76342314
vn -0.5076106 -0.69850457 0.5044035
vn -0.4173971 -0.77205825 0.47927624
vn -0.45729908 -0.30752832 0.8344482
vn -0.30542362 -0.32035208 0.89671123
vn -0.10309152 0.120028816 0.9874033
vn -0.6109474 -0.39364028 0.68687016
vn -0.25741217 0.08565931 0.96249753
vn -0.31665042 0.067132905 0.9461637
vn -0.016959444 0.2154755 0.97636193
vn -0.14719956 0.2006321 0.9685448
vn 0.07183311 0.2603088 0.9628496
vn -0.4294268 0.12749712 0.89405656
vn -0.08257595 0.3671645 0.92648345
vn 0.095037304 0.41110432 0.90662074
vn 0.036933105 0.6516219 0.7576443
vn -0.30649808 0.2964997 0.90451473
vn -0.41570938 0.41422755 0.809692
vn -0.14136346 0.58662903 0.7974226
vn -0.2659515 0.7853326 0.5590372
vn -0.084921904 0.8625116 0.49886084
vn -0.5576312 0.5622818 0.6106446
vn -0.40875456 0.8744813 0.26115543
g pm0676_20_Eye123Skin_0
f 3/3/3 2/2/2 1/1/1
f 3/3/3 4/4/4 2/2/2
f 4/4/4 5/5/5 2/2/2
f 4/4/4 6/6/6 5/5/5
f 2/2/2 7/7/7 1/1/1
f 8/8/8 7/7/7 2/2/2
f 9/9/9 2/2/2 5/5/5
f 9/9/9 8/8/8 2/2/2
f 7/7/7 10/10/10 1/1/1
f 10/10/10 11/11/11 1/1/1
f 10/10/10 12/12/12 11/11/11
f 12/12/12 13/13/13 11/11/11
f 13/13/13 12/12/12 14/14/14
f 14/14/14 12/12/12 10/10/10
f 15/15/15 13/13/13 14/14/14
f 16/16/16 10/10/10 7/7/7
f 16/16/16 14/14/14 10/10/10
f 15/15/15 14/14/14 17/17/17
f 18/18/18 15/15/15 17/17/17
f 19/19/19 17/17/17 14/14/14
f 18/18/18 17/17/17 19/19/19
f 16/16/16 19/19/19 14/14/14
f 20/20/20 18/18/18 19/19/19
f 20/20/20 19/19/19 21/21/21
f 21/21/21 19/19/19 16/16/16
f 22/22/22 20/20/20 21/21/21
f 23/23/23 16/16/16 7/7/7
f 23/23/23 21/21/21 16/16/16
f 23/23/23 7/7/7 8/8/8
f 21/21/21 24/24/24 22/22/22
f 24/24/24 21/21/21 23/23/23
f 24/24/24 25/25/25 22/22/22
f 26/26/26 24/24/24 23/23/23
f 26/26/26 23/23/23 8/8/8
f 24/24/24 27/27/27 25/25/25
f 24/24/24 26/26/26 27/27/27
f 27/27/27 28/28/28 25/25/25
f 26/26/26 29/29/29 27/27/27
f 26/26/26 8/8/8 29/29/29
f 27/27/27 30/30/30 28/28/28
f 30/30/30 27/27/27 29/29/29
f 30/30/30 31/31/31 28/28/28
f 30/30/30 32/32/32 31/31/31
f 32/32/32 33/33/33 31/31/31
f 34/34/34 30/30/30 29/29/29
f 30/30/30 34/34/34 32/32/32
f 34/34/34 29/29/29 35/35/35
f 8/8/8 36/36/36 29/29/29
f 29/29/29 36/36/36 35/35/35
f 37/37/37 36/36/36 8/8/8
f 35/35/35 36/36/36 37/37/37
f 9/9/9 37/37/37 8/8/8
f 32/32/32 38/38/38 33/33/33
f 38/38/38 39/39/39 33/33/33
f 34/34/34 40/40/40 32/32/32
f 34/34/34 35/35/35 40/40/40
f 38/38/38 32/32/32 40/40/40
f 38/38/38 41/41/41 39/39/39
f 41/41/41 42/42/42 39/39/39
f 9/9/9 43/43/43 37/37/37
f 43/43/43 9/9/9 5/5/5
f 43/43/43 44/44/44 37/37/37
f 43/43/43 5/5/5 44/44/44
f 45/45/45 35/35/35 37/37/37
f 45/45/45 37/37/37 44/44/44
f 46/46/46 38/38/38 40/40/40
f 38/38/38 46/46/46 41/41/41
f 46/46/46 40/40/40 47/47/47
f 35/35/35 48/48/48 40/40/40
f 40/40/40 48/48/48 47/47/47
f 49/49/49 48/48/48 35/35/35
f 45/45/45 49/49/49 35/35/35
f 47/47/47 48/48/48 49/49/49
f 41/41/41 50/50/50 42/42/42
f 50/50/50 51/51/51 42/42/42
f 51/51/51 50/50/50 52/52/52
f 52/52/52 50/50/50 41/41/41
f 53/53/53 51/51/51 52/52/52
f 53/53/53 52/52/52 54/54/54
f 46/46/46 55/55/55 41/41/41
f 55/55/55 52/52/52 41/41/41
f 46/46/46 47/47/47 55/55/55
f 52/52/52 56/56/56 54/54/54
f 56/56/56 52/52/52 55/55/55
f 54/54/54 56/56/56 57/57/57
f 57/57/57 56/56/56 55/55/55
f 47/47/47 57/57/57 55/55/55
f 58/58/58 54/54/54 57/57/57
f 58/58/58 57/57/57 59/59/59
f 59/59/59 57/57/57 47/47/47
f 60/60/60 58/58/58 59/59/59
f 61/61/61 59/59/59 47/47/47
f 61/61/61 47/47/47 49/49/49
f 60/60/60 59/59/59 62/62/62
f 63/63/63 60/60/60 62/62/62
f 63/63/63 62/62/62 64/64/64
f 61/61/61 65/65/65 59/59/59
f 65/65/65 62/62/62 59/59/59
f 65/65/65 61/61/61 66/66/66
f 61/61/61 49/49/49 66/66/66
f 65/65/65 66/66/66 62/62/62
f 62/62/62 67/67/67 64/64/64
f 66/66/66 67/67/67 62/62/62
f 64/64/64 67/67/67 68/68/68
f 68/68/68 67/67/67 66/66/66
f 69/69/69 64/64/64 68/68/68
f 69/69/69 68/68/68 6/6/6
f 70/70/70 66/66/66 49/49/49
f 70/70/70 68/68/68 66/66/66
f 45/45/45 70/70/70 49/49/49
f 70/70/70 45/45/45 44/44/44
f 70/70/70 44/44/44 68/68/68
f 68/68/68 71/71/71 6/6/6
f 44/44/44 71/71/71 68/68/68
f 6/6/6 71/71/71 5/5/5
f 5/5/5 71/71/71 44/44/44
f 74/74/74 73/73/73 72/72/72
f 75/75/75 73/73/73 74/74/74
f 76/76/76 75/75/75 74/74/74
f 77/77/77 75/75/75 76/76/76
f 78/78/78 74/74/74 72/72/72
f 78/78/78 79/79/79 74/74/74
f 74/74/74 80/80/80 76/76/76
f 79/79/79 80/80/80 74/74/74
f 81/81/81 78/78/78 72/72/72
f 82/82/82 81/81/81 72/72/72
f 83/83/83 81/81/81 82/82/82
f 84/84/84 83/83/83 82/82/82
f 83/83/83 84/84/84 85/85/85
f 83/83/83 85/85/85 81/81/81
f 84/84/84 86/86/86 85/85/85
f 81/81/81 87/87/87 78/78/78
f 85/85/85 87/87/87 81/81/81
f 85/85/85 86/86/86 88/88/88
f 86/86/86 89/89/89 88/88/88
f 88/88/88 90/90/90 85/85/85
f 88/88/88 89/89/89 90/90/90
f 90/90/90 87/87/87 85/85/85
f 89/89/89 91/91/91 90/90/90
f 90/90/90 91/91/91 92/92/92
f 90/90/90 92/92/92 87/87/87
f 91/91/91 93/93/93 92/92/92
f 87/87/87 94/94/94 78/78/78
f 92/92/92 94/94/94 87/87/87
f 78/78/78 94/94/94 79/79/79
f 95/95/95 92/92/92 93/93/93
f 92/92/92 95/95/95 94/94/94
f 96/96/96 95/95/95 93/93/93
f 95/95/95 97/97/97 94/94/94
f 94/94/94 97/97/97 79/79/79
f 98/98/98 95/95/95 96/96/96
f 97/97/97 95/95/95 98/98/98
f 99/99/99 98/98/98 96/96/96
f 100/100/100 97/97/97 98/98/98
f 79/79/79 97/97/97 100/100/100
f 101/101/101 98/98/98 99/99/99
f 98/98/98 101/101/101 100/100/100
f 102/102/102 101/101/101 99/99/99
f 103/103/103 101/101/101 102/102/102
f 104/104/104 103/103/103 102/102/102
f 101/101/101 105/105/105 100/100/100
f 105/105/105 101/101/101 103/103/103
f 100/100/100 105/105/105 106/106/106
f 107/107/107 79/79/79 100/100/100
f 107/107/107 100/100/100 106/106/106
f 107/107/107 108/108/108 79/79/79
f 107/107/107 106/106/106 108/108/108
f 108/108/108 80/80/80 79/79/79
f 109/109/109 103/103/103 104/104/104
f 110/110/110 109/109/109 104/104/104
f 111/111/111 105/105/105 103/103/103
f 106/106/106 105/105/105 111/111/111
f 103/103/103 109/109/109 111/111/111
f 112/112/112 109/109/109 110/110/110
f 113/113/113 112/112/112 110/110/110
f 114/114/114 80/80/80 108/108/108
f 80/80/80 114/114/114 76/76/76
f 115/115/115 114/114/114 108/108/108
f 76/76/76 114/114/114 115/115/115
f 106/106/106 116/116/116 108/108/108
f 108/108/108 116/116/116 115/115/115
f 109/109/109 117/117/117 111/111/111
f 117/117/117 109/109/109 112/112/112
f 111/111/111 117/117/117 118/118/118
f 119/119/119 106/106/106 111/111/111
f 119/119/119 111/111/111 118/118/118
f 119/119/119 120/120/120 106/106/106
f 120/120/120 116/116/116 106/106/106
f 119/119/119 118/118/118 120/120/120
f 121/121/121 112/112/112 113/113/113
f 122/122/122 121/121/121 113/113/113
f 121/121/121 122/122/122 123/123/123
f 121/121/121 123/123/123 112/112/112
f 122/122/122 124/124/124 123/123/123
f 123/123/123 124/124/124 125/125/125
f 126/126/126 117/117/117 112/112/112
f 123/123/123 126/126/126 112/112/112
f 118/118/118 117/117/117 126/126/126
f 127/127/127 123/123/123 125/125/125
f 123/123/123 127/127/127 126/126/126
f 127/127/127 125/125/125 128/128/128
f 127/127/127 128/128/128 126/126/126
f 128/128/128 118/118/118 126/126/126
f 125/125/125 129/129/129 128/128/128
f 128/128/128 129/129/129 130/130/130
f 128/128/128 130/130/130 118/118/118
f 129/129/129 131/131/131 130/130/130
f 130/130/130 132/132/132 118/118/118
f 118/118/118 132/132/132 120/120/120
f 130/130/130 131/131/131 133/133/133
f 131/131/131 134/134/134 133/133/133
f 133/133/133 134/134/134 135/135/135
f 136/136/136 132/132/132 130/130/130
f 133/133/133 136/136/136 130/130/130
f 132/132/132 136/136/136 137/137/137
f 120/120/120 132/132/132 137/137/137
f 137/137/137 136/136/136 133/133/133
f 138/138/138 133/133/133 135/135/135
f 138/138/138 137/137/137 133/133/133
f 138/138/138 135/135/135 139/139/139
f 138/138/138 139/139/139 137/137/137
f 135/135/135 140/140/140 139/139/139
f 139/139/139 140/140/140 77/77/77
f 137/137/137 141/141/141 120/120/120
f 139/139/139 141/141/141 137/137/137
f 141/141/141 116/116/116 120/120/120
f 116/116/116 141/141/141 115/115/115
f 115/115/115 141/141/141 139/139/139
f 142/142/142 139/139/139 77/77/77
f 142/142/142 115/115/115 139/139/139
f 142/142/142 77/77/77 76/76/76
f 142/142/142 76/76/76 115/115/115
