g pm0666_11_ParticleB1Skin
v -0.044845704 0.30271998 0.19999999
v -0.09515429 0.30271998 0.19999999
v -0.09515429 0.35302857 0.19999999
v -0.044845704 0.35302857 0.19999999
v -0.14484571 0.30271998 0.19999999
v -0.1951543 0.30271998 0.19999999
v -0.1951543 0.35302857 0.19999999
v -0.14484571 0.35302857 0.19999999
v -0.24484569 0.30271998 0.19999999
v -0.2951543 0.30271998 0.19999999
v -0.2951543 0.35302857 0.19999999
v -0.24484569 0.35302857 0.19999999
v -0.34484568 0.30271998 0.19999999
v -0.3951543 0.30271998 0.19999999
v -0.3951543 0.35302857 0.19999999
v -0.34484568 0.35302857 0.19999999
v -0.44484568 0.30271998 0.19999999
v -0.4951543 0.30271998 0.19999999
v -0.4951543 0.35302857 0.19999999
v -0.44484568 0.35302857 0.19999999
v 0.044845704 0.30271998 0.19999999
v 0.044845704 0.35302857 0.19999999
v 0.09515429 0.35302857 0.19999999
v 0.09515429 0.30271998 0.19999999
v 0.14484571 0.30271998 0.19999999
v 0.14484571 0.35302857 0.19999999
v 0.1951543 0.35302857 0.19999999
v 0.1951543 0.30271998 0.19999999
v 0.24484569 0.30271998 0.19999999
v 0.24484569 0.35302857 0.19999999
v 0.2951543 0.35302857 0.19999999
v 0.2951543 0.30271998 0.19999999
v 0.34484568 0.30271998 0.19999999
v 0.34484568 0.35302857 0.19999999
v 0.3951543 0.35302857 0.19999999
v 0.3951543 0.30271998 0.19999999
v 0.44484568 0.30271998 0.19999999
v 0.44484568 0.35302857 0.19999999
v 0.4951543 0.35302857 0.19999999
v 0.4951543 0.30271998 0.19999999
vt 0.875 0.98828125
vt 0.875 0.9609375
vt 0.8613281 0.9609375
vt 0.8613281 0.98828125
vt 0.8984375 0.98828125
vt 0.8984375 0.9609375
vt 0.8847656 0.9609375
vt 0.8847656 0.98828125
vt 0.921875 0.98828125
vt 0.921875 0.9609375
vt 0.9082031 0.9609375
vt 0.9082031 0.98828125
vt 0.9453125 0.98828125
vt 0.9453125 0.9609375
vt 0.9316406 0.9609375
vt 0.9316406 0.98828125
vt 0.96875 0.98828125
vt 0.96875 0.9609375
vt 0.9550781 0.9609375
vt 0.9550781 0.98828125
vt 0.875 0.98828125
vt 0.8613281 0.98828125
vt 0.8613281 0.9609375
vt 0.875 0.9609375
vt 0.8984375 0.98828125
vt 0.8847656 0.98828125
vt 0.8847656 0.9609375
vt 0.8984375 0.9609375
vt 0.921875 0.98828125
vt 0.9082031 0.98828125
vt 0.9082031 0.9609375
vt 0.921875 0.9609375
vt 0.9453125 0.98828125
vt 0.9316406 0.98828125
vt 0.9316406 0.9609375
vt 0.9453125 0.9609375
vt 0.96875 0.98828125
vt 0.9550781 0.98828125
vt 0.9550781 0.9609375
vt 0.96875 0.9609375
vn -0 0 1
vn -0 0 1
vn -0 0 1
vn -0 0 1
vn -0 0 1
vn -0 0 1
vn -0 0 1
vn -0 0 1
vn -0 0 1
vn -0 0 1
vn -0 0 1
vn -0 0 1
vn -0 0 1
vn -0 0 1
vn -0 0 1
vn -0 0 1
vn -0 0 1
vn -0 0 1
vn -0 0 1
vn -0 0 1
vn -0 0 1
vn -0 0 1
vn -0 0 1
vn -0 0 1
vn -0 0 1
vn -0 0 1
vn -0 0 1
vn -0 0 1
vn -0 0 1
vn -0 0 1
vn -0 0 1
vn -0 0 1
vn -0 0 1
vn -0 0 1
vn -0 0 1
vn -0 0 1
vn -0 0 1
vn -0 0 1
vn -0 0 1
vn -0 0 1
g pm0666_11_ParticleB1Skin_0
f 3/3/3 2/2/2 1/1/1
f 4/4/4 3/3/3 1/1/1
f 7/7/7 6/6/6 5/5/5
f 8/8/8 7/7/7 5/5/5
f 11/11/11 10/10/10 9/9/9
f 12/12/12 11/11/11 9/9/9
f 15/15/15 14/14/14 13/13/13
f 16/16/16 15/15/15 13/13/13
f 19/19/19 18/18/18 17/17/17
f 20/20/20 19/19/19 17/17/17
f 23/23/23 22/22/22 21/21/21
f 24/24/24 23/23/23 21/21/21
f 27/27/27 26/26/26 25/25/25
f 28/28/28 27/27/27 25/25/25
f 31/31/31 30/30/30 29/29/29
f 32/32/32 31/31/31 29/29/29
f 35/35/35 34/34/34 33/33/33
f 36/36/36 35/35/35 33/33/33
f 39/39/39 38/38/38 37/37/37
f 40/40/40 39/39/39 37/37/37
