g pm0676_13_Eye123Skin
v -0.068651624 1.0008929 0.5192198
v -0.057050433 0.99532384 0.5406306
v -0.07881331 0.993211 0.5505962
v -0.04657422 0.9803901 0.558044
v -0.08860857 0.99804294 0.5308918
v -0.098577276 0.9943139 0.5144639
v -0.07841413 0.9984897 0.5002219
v -0.09539414 0.9881784 0.53151625
v -0.10700798 0.98564535 0.50200653
v -0.08725327 0.9893723 0.48800242
v -0.09069219 0.98023605 0.47750407
v -0.06994942 0.980305 0.56554884
v -0.05840254 0.96135384 0.5742555
v -0.04150077 0.9605585 0.56833214
v -0.040199075 0.9415084 0.57148147
v -0.07525598 0.9720722 0.56510913
v -0.055352107 0.9430771 0.5766659
v -0.04088923 0.929623 0.57165736
v -0.086289346 0.9827225 0.5495623
v -0.066001944 0.96245885 0.5717259
v -0.06695373 0.9507873 0.5715451
v -0.0672263 0.93554294 0.56935406
v -0.053311437 0.92871255 0.5755411
v -0.03952465 0.91235423 0.58597153
v -0.08040219 0.9596942 0.56177855
v -0.09160131 0.96920234 0.5457262
v -0.09541518 0.9526009 0.53940433
v -0.10046991 0.97629005 0.5274137
v -0.0817405 0.94411117 0.55650014
v -0.10128808 0.9876503 0.5168837
v -0.10606338 0.98224974 0.51065195
v -0.10790696 0.9689585 0.5011619
v -0.08028631 0.9317629 0.5502634
v -0.1033408 0.96134484 0.520834
v -0.10013432 0.9499474 0.5127537
v -0.11030611 0.97558856 0.48444998
v -0.09190086 0.94082314 0.5317741
v -0.11303701 0.9760465 0.46908462
v -0.0971483 0.97959965 0.46382722
v -0.11403775 0.97676647 0.4549113
v -0.10307663 0.97939223 0.44974646
v -0.114298426 0.97525 0.45245934
v -0.10290412 0.97733396 0.44703242
v -0.1121414 0.97092015 0.46362484
v -0.10912555 0.9643781 0.47904995
v -0.11347446 0.97252876 0.45335475
v -0.101965375 0.9731607 0.44710124
v -0.10972353 0.9678204 0.45993432
v -0.098519474 0.9666875 0.45541477
v -0.103292786 0.95912445 0.47436908
v -0.092542455 0.95823056 0.46846095
v -0.097198635 0.95217556 0.48693025
v -0.08735135 0.95055145 0.48123083
v -0.105403885 0.9580212 0.49343735
v -0.08989439 0.9443794 0.50235355
v -0.08140899 0.94215155 0.49605596
v -0.08014434 0.9353443 0.52225995
v -0.07202068 0.93206656 0.51635087
v -0.07112962 0.9268552 0.54196316
v -0.06188564 0.9234263 0.5359092
v -0.06278349 0.9202355 0.55822533
v -0.053089608 0.9175754 0.5519629
v -0.06824286 0.924334 0.5647102
v -0.055946834 0.9139326 0.57366645
v -0.04623737 0.911413 0.5683195
v -0.05773517 0.91775113 0.57661545
v -0.049122967 0.90998137 0.58452505
v -0.039872166 0.908146 0.5853487
v -0.047666993 0.9117291 0.5861865
v -0.039250813 0.9089633 0.58711475
v -0.047538687 0.9140661 0.5860499
v 0.068651624 1.0008929 0.5192198
v 0.07881331 0.993211 0.5505962
v 0.057050433 0.99532384 0.5406306
v 0.04657422 0.9803901 0.558044
v 0.08860857 0.99804294 0.5308918
v 0.098577276 0.9943139 0.5144639
v 0.07841413 0.9984897 0.5002219
v 0.09539414 0.9881784 0.53151625
v 0.10700798 0.98564535 0.50200653
v 0.08725327 0.9893723 0.48800242
v 0.09069219 0.98023605 0.47750407
v 0.06994942 0.980305 0.56554884
v 0.05840254 0.96135384 0.5742555
v 0.04150077 0.9605585 0.56833214
v 0.040199075 0.9415084 0.57148147
v 0.07525598 0.9720722 0.56510913
v 0.055352107 0.9430771 0.5766659
v 0.04088923 0.929623 0.57165736
v 0.086289346 0.9827225 0.5495623
v 0.066001944 0.96245885 0.5717259
v 0.06695373 0.9507873 0.5715451
v 0.0672263 0.93554294 0.56935406
v 0.053311437 0.92871255 0.5755411
v 0.03952465 0.91235423 0.58597153
v 0.08040219 0.9596942 0.56177855
v 0.09160131 0.96920234 0.5457262
v 0.09541518 0.9526009 0.53940433
v 0.10046991 0.97629005 0.5274137
v 0.0817405 0.94411117 0.55650014
v 0.10128808 0.9876503 0.5168837
v 0.10606338 0.98224974 0.51065195
v 0.10790696 0.9689585 0.5011619
v 0.08028631 0.9317629 0.5502634
v 0.1033408 0.96134484 0.520834
v 0.10013432 0.9499474 0.5127537
v 0.11030611 0.97558856 0.48444998
v 0.09190086 0.94082314 0.5317741
v 0.11303701 0.9760465 0.46908462
v 0.0971483 0.97959965 0.46382722
v 0.11403775 0.97676647 0.4549113
v 0.10307663 0.97939223 0.44974646
v 0.114298426 0.97525 0.45245934
v 0.10290412 0.97733396 0.44703242
v 0.1121414 0.97092015 0.46362484
v 0.10912555 0.9643781 0.47904995
v 0.11347446 0.97252876 0.45335475
v 0.101965375 0.9731607 0.44710124
v 0.10972353 0.9678204 0.45993432
v 0.098519474 0.9666875 0.45541477
v 0.103292786 0.95912445 0.47436908
v 0.092542455 0.95823056 0.46846095
v 0.097198635 0.95217556 0.48693025
v 0.08735135 0.95055145 0.48123083
v 0.105403885 0.9580212 0.49343735
v 0.08989439 0.9443794 0.50235355
v 0.08140899 0.94215155 0.49605596
v 0.08014434 0.9353443 0.52225995
v 0.07202068 0.93206656 0.51635087
v 0.07112962 0.9268552 0.54196316
v 0.06188564 0.9234263 0.5359092
v 0.06278349 0.9202355 0.55822533
v 0.053089608 0.9175754 0.5519629
v 0.06824286 0.924334 0.5647102
v 0.055946834 0.9139326 0.57366645
v 0.04623737 0.911413 0.5683195
v 0.05773517 0.91775113 0.57661545
v 0.049122967 0.90998137 0.58452505
v 0.039872166 0.908146 0.5853487
v 0.047666993 0.9117291 0.5861865
v 0.039250813 0.9089633 0.58711475
v 0.047538687 0.9140661 0.5860499
vt 0.43052757 0.9838316
vt 0.4408691 0.98468757
vt 0.44028097 0.9750885
vt 0.45077658 0.97450703
vt 0.4315464 0.9734993
vt 0.42466265 0.96644247
vt 0.42258322 0.9743055
vt 0.43253577 0.9596837
vt 0.42003316 0.952526
vt 0.41733956 0.9589374
vt 0.4136507 0.9479845
vt 0.4482003 0.96594584
vt 0.45335513 0.95098925
vt 0.45751286 0.9561868
vt 0.46116966 0.937547
vt 0.44605035 0.95534253
vt 0.4565766 0.933764
vt 0.46271002 0.9262324
vt 0.4393502 0.9598919
vt 0.4506668 0.9485263
vt 0.4513259 0.93753386
vt 0.45204514 0.92252547
vt 0.45829445 0.9194483
vt 0.46836695 0.9075229
vt 0.44498128 0.9408244
vt 0.4384089 0.94452703
vt 0.4375 0.9296875
vt 0.43193293 0.946055
vt 0.4446897 0.9261471
vt 0.42724442 0.95492446
vt 0.4253618 0.9475288
vt 0.4235891 0.9365372
vt 0.44464463 0.9136607
vt 0.43090594 0.93293405
vt 0.42959625 0.920526
vt 0.41681397 0.939873
vt 0.43671882 0.9169316
vt 0.41038114 0.9330446
vt 0.4085331 0.93926746
vt 0.4045903 0.92672664
vt 0.40020066 0.9274581
vt 0.40399355 0.9240358
vt 0.4000131 0.9241285
vt 0.41042608 0.9252438
vt 0.41660935 0.9253882
vt 0.40441442 0.9213471
vt 0.4004327 0.9196682
vt 0.4093848 0.9186028
vt 0.40842777 0.9125666
vt 0.41565162 0.9145592
vt 0.41445267 0.9072652
vt 0.42083967 0.91076213
vt 0.4199103 0.9026227
vt 0.42233127 0.923951
vt 0.42745256 0.9063354
vt 0.42628157 0.8975289
vt 0.4358176 0.9022218
vt 0.43520778 0.8922655
vt 0.44415796 0.90118307
vt 0.44413304 0.8900334
vt 0.45127642 0.90160704
vt 0.45137346 0.89012593
vt 0.45177633 0.91083634
vt 0.45780182 0.9025595
vt 0.4584353 0.8913457
vt 0.45794678 0.9076069
vt 0.46194834 0.90168273
vt 0.46783212 0.89446604
vt 0.46255225 0.9058817
vt 0.46835604 0.89852196
vt 0.46250737 0.9107549
vt 0.43052757 0.9838316
vt 0.44028097 0.9750885
vt 0.44086903 0.98468757
vt 0.45077658 0.97450703
vt 0.4315465 0.9734993
vt 0.42466265 0.96644247
vt 0.42258322 0.9743055
vt 0.43253565 0.9596837
vt 0.42003316 0.952526
vt 0.41733956 0.9589374
vt 0.41365063 0.9479845
vt 0.44820035 0.96594584
vt 0.45335513 0.95098925
vt 0.4575128 0.9561868
vt 0.46116972 0.937547
vt 0.44605035 0.95534253
vt 0.45657653 0.933764
vt 0.46271002 0.9262324
vt 0.4393502 0.9598919
vt 0.4506668 0.9485263
vt 0.4513259 0.93753386
vt 0.45204508 0.92252547
vt 0.45829445 0.9194483
vt 0.46836692 0.9075229
vt 0.44498122 0.9408244
vt 0.43840897 0.94452703
vt 0.4375 0.9296875
vt 0.43193293 0.946055
vt 0.4446897 0.9261471
vt 0.42724437 0.95492446
vt 0.42536175 0.9475288
vt 0.42358905 0.9365372
vt 0.44464463 0.9136607
vt 0.43090594 0.93293405
vt 0.42959625 0.920526
vt 0.41681403 0.939873
vt 0.43671876 0.9169316
vt 0.41038114 0.9330446
vt 0.40853316 0.93926746
vt 0.40459025 0.92672664
vt 0.4002007 0.9274581
vt 0.40399355 0.9240358
vt 0.40001312 0.9241285
vt 0.41042608 0.9252438
vt 0.41660935 0.9253882
vt 0.40441442 0.9213471
vt 0.40043274 0.9196682
vt 0.40938485 0.9186028
vt 0.40842783 0.9125666
vt 0.41565162 0.9145592
vt 0.41445267 0.9072652
vt 0.42083967 0.91076213
vt 0.41991025 0.9026227
vt 0.4223312 0.923951
vt 0.42745262 0.9063354
vt 0.42628163 0.8975289
vt 0.4358176 0.9022218
vt 0.43520772 0.8922655
vt 0.44415796 0.90118307
vt 0.44413292 0.8900334
vt 0.45127636 0.90160704
vt 0.45137346 0.89012593
vt 0.45177633 0.91083634
vt 0.45780182 0.9025595
vt 0.4584353 0.8913457
vt 0.45794678 0.9076069
vt 0.4619484 0.90168273
vt 0.4678322 0.89446604
vt 0.4625522 0.9058817
vt 0.46835607 0.89852196
vt 0.4625073 0.9107549
vn -0.4666314 0.8144181 0.3449323
vn -0.3207698 0.73651123 0.59553164
vn -0.4701081 0.6206695 0.6275092
vn -0.18186022 0.56618327 0.80396736
vn -0.6031687 0.69579846 0.38993856
vn -0.70693713 0.6789996 0.1979886
vn -0.5895042 0.79577255 0.13867481
vn -0.7810542 0.45721537 0.42533332
vn -0.83077365 0.55085355 0.07984772
vn -0.69933623 0.71475905 0.006960098
vn -0.7889288 0.60741377 -0.092950985
vn -0.32592744 0.4678367 0.8215231
vn -0.23764718 0.30265364 0.9229976
vn -0.103971206 0.37618798 0.9206914
vn -0.11465929 0.21572457 0.96969897
vn -0.5340713 0.27489185 0.79950136
vn -0.27072513 0.13494428 0.9531516
vn -0.18532845 0.06895444 0.98025435
vn -0.68059134 0.3761626 0.6287266
vn -0.41161656 0.20320949 0.888413
vn -0.49748424 0.039884474 0.8665556
vn -0.61340386 -0.21677774 0.759436
vn -0.38015684 -0.085109554 0.92099786
vn -0.2535361 -0.08103069 0.9639261
vn -0.6845965 0.026030188 0.72845733
vn -0.8276469 0.07440494 0.5562952
vn -0.87711465 -0.26090574 0.40323466
vn -0.91089255 0.16727382 0.37721896
vn -0.77158856 -0.27413875 0.57402
vn -0.8197614 0.5027681 0.27425426
vn -0.92368937 0.31621018 0.2163542
vn -0.9936336 -0.022091918 0.1104726
vn -0.74574876 -0.58206934 0.3241204
vn -0.94975245 -0.18528171 0.2522714
vn -0.8419921 -0.53511304 0.068581484
vn -0.9576478 0.28347152 -0.05054268
vn -0.7962444 -0.5764531 0.18356661
vn -0.9243371 0.31682384 -0.21265805
vn -0.8087077 0.54988915 -0.20883867
vn -0.88976353 0.30992204 -0.33506587
vn -0.8370602 0.41049236 -0.36169913
vn -0.89736944 -0.045449123 -0.43893313
vn -0.857298 0.02290943 -0.51431036
vn -0.9361048 -0.16934195 -0.30827126
vn -0.9372936 -0.30590394 -0.16704299
vn -0.7922686 -0.37026075 -0.48499212
vn -0.7514267 -0.38674593 -0.5345892
vn -0.76229787 -0.5190993 -0.38657188
vn -0.65718526 -0.61597145 -0.4343807
vn -0.7238826 -0.6352038 -0.26927713
vn -0.59915185 -0.73224336 -0.3237848
vn -0.68808985 -0.70503014 -0.17165366
vn -0.56980026 -0.7870766 -0.23630086
vn -0.8916681 -0.45095405 -0.039605185
vn -0.6625301 -0.7435073 -0.09083275
vn -0.55678046 -0.8139486 -0.16578043
vn -0.64349145 -0.7654044 -0.008648243
vn -0.54955167 -0.82975465 -0.09746798
vn -0.6266415 -0.7739221 0.09146132
vn -0.5436242 -0.83918786 -0.015378101
vn -0.60504085 -0.76230645 0.22981396
vn -0.536951 -0.8369055 0.10617405
vn -0.67285246 -0.5435989 0.5017667
vn -0.563844 -0.71405286 0.41497993
vn -0.5214836 -0.79909223 0.2991765
vn -0.5560875 -0.45649984 0.6945319
vn -0.51063824 -0.632899 0.58196867
vn -0.48130322 -0.6706237 0.56445646
vn -0.45456007 -0.39202926 0.79980505
vn -0.3883185 -0.37878248 0.840079
vn -0.33573815 -0.12890458 0.93309355
vn 0.46663108 0.814418 0.3449329
vn 0.4701078 0.62066907 0.62750983
vn 0.3207697 0.7365111 0.59553194
vn 0.18186001 0.5661829 0.80396754
vn 0.60316855 0.69579816 0.38993928
vn 0.706937 0.67899936 0.19798945
vn 0.589504 0.7957727 0.13867554
vn 0.7810539 0.457215 0.42533416
vn 0.83077365 0.55085325 0.079848796
vn 0.69933605 0.7147591 0.006961125
vn 0.788929 0.60741365 -0.09294928
vn 0.32592744 0.4678363 0.8215233
vn 0.23764734 0.30265364 0.9229976
vn 0.10397131 0.3761879 0.9206914
vn 0.11465961 0.21572454 0.96969897
vn 0.53407115 0.2748914 0.7995015
vn 0.27072534 0.13494423 0.95315146
vn 0.1853286 0.068955 0.98025435
vn 0.68059105 0.3761623 0.6287271
vn 0.41161668 0.20320931 0.888413
vn 0.49748445 0.039884463 0.86655545
vn 0.613404 -0.21677741 0.759436
vn 0.380157 -0.08510897 0.92099786
vn 0.25353608 -0.08102952 0.9639262
vn 0.6845965 0.026030028 0.7284573
vn 0.8276468 0.07440461 0.5562956
vn 0.8771146 -0.2609057 0.40323484
vn 0.91089237 0.16727336 0.3772197
vn 0.7715886 -0.2741387 0.57402
vn 0.8197613 0.50276774 0.2742553
vn 0.9236893 0.31620985 0.21635512
vn 0.9936335 -0.022092154 0.11047338
vn 0.74574876 -0.5820693 0.32412064
vn 0.9497524 -0.18528193 0.25227186
vn 0.8419919 -0.53511316 0.068581775
vn 0.9576479 0.28347117 -0.05054099
vn 0.79624426 -0.5764532 0.18356673
vn 0.9243378 0.31682387 -0.2126553
vn 0.80870837 0.5498894 -0.20883597
vn 0.8897648 0.3099223 -0.33506238
vn 0.83706146 0.4104928 -0.3616957
vn 0.8973711 -0.045449235 -0.4389299
vn 0.85730004 0.022909625 -0.514307
vn 0.9361056 -0.16934225 -0.3082686
vn 0.9372939 -0.30590415 -0.16704145
vn 0.79227 -0.37026113 -0.48498964
vn 0.7514283 -0.38674623 -0.53458667
vn 0.76229864 -0.5190997 -0.38656995
vn 0.65718615 -0.6159717 -0.434379
vn 0.7238829 -0.6352039 -0.26927602
vn 0.59915227 -0.73224354 -0.32378393
vn 0.68808985 -0.70503014 -0.17165326
vn 0.5698004 -0.78707665 -0.23630038
vn 0.89166796 -0.45095426 -0.039604492
vn 0.66253006 -0.7435074 -0.090832606
vn 0.5567805 -0.8139487 -0.16578011
vn 0.6434914 -0.7654045 -0.00864811
vn 0.54955167 -0.8297547 -0.09746778
vn 0.62664145 -0.773922 0.091461435
vn 0.54362434 -0.83918774 -0.01537797
vn 0.60504115 -0.7623062 0.22981398
vn 0.5369511 -0.8369053 0.1061742
vn 0.67285264 -0.54359865 0.5017667
vn 0.56384444 -0.7140524 0.41498035
vn 0.52148396 -0.7990918 0.2991768
vn 0.55608773 -0.45649913 0.6945323
vn 0.5106386 -0.63289803 0.5819695
vn 0.48130363 -0.67062277 0.5644573
vn 0.45456034 -0.3920281 0.7998055
vn 0.38831857 -0.378781 0.8400796
vn 0.33573833 -0.12890363 0.93309367
g pm0676_13_Eye123Skin_0
f 3/3/3 2/2/2 1/1/1
f 4/4/4 2/2/2 3/3/3
f 5/5/5 3/3/3 1/1/1
f 5/5/5 1/1/1 6/6/6
f 1/1/1 7/7/7 6/6/6
f 5/5/5 8/8/8 3/3/3
f 5/5/5 6/6/6 8/8/8
f 6/6/6 7/7/7 9/9/9
f 7/7/7 10/10/10 9/9/9
f 9/9/9 10/10/10 11/11/11
f 12/12/12 4/4/4 3/3/3
f 12/12/12 13/13/13 4/4/4
f 13/13/13 14/14/14 4/4/4
f 15/15/15 14/14/14 13/13/13
f 12/12/12 3/3/3 16/16/16
f 12/12/12 16/16/16 13/13/13
f 17/17/17 15/15/15 13/13/13
f 18/18/18 15/15/15 17/17/17
f 8/8/8 19/19/19 3/3/3
f 3/3/3 19/19/19 16/16/16
f 16/16/16 20/20/20 13/13/13
f 13/13/13 20/20/20 17/17/17
f 21/21/21 20/20/20 16/16/16
f 20/20/20 21/21/21 17/17/17
f 17/17/17 21/21/21 22/22/22
f 23/23/23 18/18/18 17/17/17
f 23/23/23 17/17/17 22/22/22
f 24/24/24 18/18/18 23/23/23
f 25/25/25 21/21/21 16/16/16
f 16/16/16 19/19/19 25/25/25
f 22/22/22 21/21/21 25/25/25
f 26/26/26 19/19/19 8/8/8
f 19/19/19 26/26/26 25/25/25
f 25/25/25 26/26/26 27/27/27
f 28/28/28 26/26/26 8/8/8
f 27/27/27 26/26/26 28/28/28
f 29/29/29 22/22/22 25/25/25
f 29/29/29 25/25/25 27/27/27
f 8/8/8 30/30/30 28/28/28
f 6/6/6 30/30/30 8/8/8
f 31/31/31 30/30/30 6/6/6
f 30/30/30 31/31/31 28/28/28
f 28/28/28 31/31/31 32/32/32
f 9/9/9 31/31/31 6/6/6
f 32/32/32 31/31/31 9/9/9
f 29/29/29 33/33/33 22/22/22
f 29/29/29 27/27/27 33/33/33
f 34/34/34 28/28/28 32/32/32
f 34/34/34 27/27/27 28/28/28
f 34/34/34 35/35/35 27/27/27
f 34/34/34 32/32/32 35/35/35
f 36/36/36 32/32/32 9/9/9
f 36/36/36 9/9/9 11/11/11
f 27/27/27 37/37/37 33/33/33
f 35/35/35 37/37/37 27/27/27
f 38/38/38 36/36/36 11/11/11
f 39/39/39 38/38/38 11/11/11
f 40/40/40 38/38/38 39/39/39
f 41/41/41 40/40/40 39/39/39
f 40/40/40 41/41/41 42/42/42
f 40/40/40 42/42/42 38/38/38
f 41/41/41 43/43/43 42/42/42
f 38/38/38 44/44/44 36/36/36
f 42/42/42 44/44/44 38/38/38
f 36/36/36 45/45/45 32/32/32
f 44/44/44 45/45/45 36/36/36
f 42/42/42 43/43/43 46/46/46
f 43/43/43 47/47/47 46/46/46
f 46/46/46 48/48/48 42/42/42
f 46/46/46 47/47/47 48/48/48
f 48/48/48 44/44/44 42/42/42
f 47/47/47 49/49/49 48/48/48
f 48/48/48 50/50/50 44/44/44
f 48/48/48 49/49/49 50/50/50
f 50/50/50 45/45/45 44/44/44
f 49/49/49 51/51/51 50/50/50
f 52/52/52 50/50/50 51/51/51
f 50/50/50 52/52/52 45/45/45
f 53/53/53 52/52/52 51/51/51
f 45/45/45 54/54/54 32/32/32
f 52/52/52 54/54/54 45/45/45
f 32/32/32 54/54/54 35/35/35
f 55/55/55 52/52/52 53/53/53
f 54/54/54 52/52/52 55/55/55
f 35/35/35 54/54/54 55/55/55
f 56/56/56 55/55/55 53/53/53
f 55/55/55 57/57/57 35/35/35
f 57/57/57 55/55/55 56/56/56
f 57/57/57 37/37/37 35/35/35
f 58/58/58 57/57/57 56/56/56
f 37/37/37 57/57/57 59/59/59
f 59/59/59 57/57/57 58/58/58
f 60/60/60 59/59/59 58/58/58
f 33/33/33 37/37/37 59/59/59
f 61/61/61 59/59/59 60/60/60
f 59/59/59 61/61/61 33/33/33
f 62/62/62 61/61/61 60/60/60
f 61/61/61 63/63/63 33/33/33
f 33/33/33 63/63/63 22/22/22
f 64/64/64 61/61/61 62/62/62
f 63/63/63 61/61/61 64/64/64
f 65/65/65 64/64/64 62/62/62
f 22/22/22 63/63/63 66/66/66
f 66/66/66 63/63/63 64/64/64
f 23/23/23 22/22/22 66/66/66
f 67/67/67 64/64/64 65/65/65
f 68/68/68 67/67/67 65/65/65
f 67/67/67 69/69/69 64/64/64
f 67/67/67 68/68/68 69/69/69
f 69/69/69 66/66/66 64/64/64
f 68/68/68 70/70/70 69/69/69
f 69/69/69 70/70/70 24/24/24
f 71/71/71 23/23/23 66/66/66
f 71/71/71 24/24/24 23/23/23
f 71/71/71 69/69/69 24/24/24
f 69/69/69 71/71/71 66/66/66
f 74/74/74 73/73/73 72/72/72
f 74/74/74 75/75/75 73/73/73
f 73/73/73 76/76/76 72/72/72
f 72/72/72 76/76/76 77/77/77
f 78/78/78 72/72/72 77/77/77
f 79/79/79 76/76/76 73/73/73
f 77/77/77 76/76/76 79/79/79
f 78/78/78 77/77/77 80/80/80
f 81/81/81 78/78/78 80/80/80
f 81/81/81 80/80/80 82/82/82
f 75/75/75 83/83/83 73/73/73
f 84/84/84 83/83/83 75/75/75
f 85/85/85 84/84/84 75/75/75
f 85/85/85 86/86/86 84/84/84
f 73/73/73 83/83/83 87/87/87
f 87/87/87 83/83/83 84/84/84
f 86/86/86 88/88/88 84/84/84
f 86/86/86 89/89/89 88/88/88
f 90/90/90 79/79/79 73/73/73
f 90/90/90 73/73/73 87/87/87
f 91/91/91 87/87/87 84/84/84
f 91/91/91 84/84/84 88/88/88
f 91/91/91 92/92/92 87/87/87
f 92/92/92 91/91/91 88/88/88
f 92/92/92 88/88/88 93/93/93
f 89/89/89 94/94/94 88/88/88
f 88/88/88 94/94/94 93/93/93
f 89/89/89 95/95/95 94/94/94
f 92/92/92 96/96/96 87/87/87
f 90/90/90 87/87/87 96/96/96
f 92/92/92 93/93/93 96/96/96
f 90/90/90 97/97/97 79/79/79
f 97/97/97 90/90/90 96/96/96
f 97/97/97 96/96/96 98/98/98
f 97/97/97 99/99/99 79/79/79
f 97/97/97 98/98/98 99/99/99
f 93/93/93 100/100/100 96/96/96
f 96/96/96 100/100/100 98/98/98
f 101/101/101 79/79/79 99/99/99
f 101/101/101 77/77/77 79/79/79
f 101/101/101 102/102/102 77/77/77
f 102/102/102 101/101/101 99/99/99
f 102/102/102 99/99/99 103/103/103
f 102/102/102 80/80/80 77/77/77
f 102/102/102 103/103/103 80/80/80
f 104/104/104 100/100/100 93/93/93
f 98/98/98 100/100/100 104/104/104
f 99/99/99 105/105/105 103/103/103
f 98/98/98 105/105/105 99/99/99
f 106/106/106 105/105/105 98/98/98
f 103/103/103 105/105/105 106/106/106
f 103/103/103 107/107/107 80/80/80
f 80/80/80 107/107/107 82/82/82
f 108/108/108 98/98/98 104/104/104
f 108/108/108 106/106/106 98/98/98
f 107/107/107 109/109/109 82/82/82
f 109/109/109 110/110/110 82/82/82
f 109/109/109 111/111/111 110/110/110
f 111/111/111 112/112/112 110/110/110
f 112/112/112 111/111/111 113/113/113
f 113/113/113 111/111/111 109/109/109
f 114/114/114 112/112/112 113/113/113
f 115/115/115 109/109/109 107/107/107
f 115/115/115 113/113/113 109/109/109
f 116/116/116 107/107/107 103/103/103
f 116/116/116 115/115/115 107/107/107
f 114/114/114 113/113/113 117/117/117
f 118/118/118 114/114/114 117/117/117
f 119/119/119 117/117/117 113/113/113
f 118/118/118 117/117/117 119/119/119
f 115/115/115 119/119/119 113/113/113
f 120/120/120 118/118/118 119/119/119
f 121/121/121 119/119/119 115/115/115
f 120/120/120 119/119/119 121/121/121
f 116/116/116 121/121/121 115/115/115
f 122/122/122 120/120/120 121/121/121
f 121/121/121 123/123/123 122/122/122
f 123/123/123 121/121/121 116/116/116
f 123/123/123 124/124/124 122/122/122
f 125/125/125 116/116/116 103/103/103
f 125/125/125 123/123/123 116/116/116
f 125/125/125 103/103/103 106/106/106
f 123/123/123 126/126/126 124/124/124
f 123/123/123 125/125/125 126/126/126
f 125/125/125 106/106/106 126/126/126
f 126/126/126 127/127/127 124/124/124
f 128/128/128 126/126/126 106/106/106
f 126/126/126 128/128/128 127/127/127
f 108/108/108 128/128/128 106/106/106
f 128/128/128 129/129/129 127/127/127
f 128/128/128 108/108/108 130/130/130
f 128/128/128 130/130/130 129/129/129
f 130/130/130 131/131/131 129/129/129
f 108/108/108 104/104/104 130/130/130
f 130/130/130 132/132/132 131/131/131
f 132/132/132 130/130/130 104/104/104
f 132/132/132 133/133/133 131/131/131
f 134/134/134 132/132/132 104/104/104
f 134/134/134 104/104/104 93/93/93
f 132/132/132 135/135/135 133/133/133
f 132/132/132 134/134/134 135/135/135
f 135/135/135 136/136/136 133/133/133
f 134/134/134 93/93/93 137/137/137
f 134/134/134 137/137/137 135/135/135
f 93/93/93 94/94/94 137/137/137
f 135/135/135 138/138/138 136/136/136
f 138/138/138 139/139/139 136/136/136
f 140/140/140 138/138/138 135/135/135
f 139/139/139 138/138/138 140/140/140
f 137/137/137 140/140/140 135/135/135
f 141/141/141 139/139/139 140/140/140
f 141/141/141 140/140/140 95/95/95
f 94/94/94 142/142/142 137/137/137
f 95/95/95 142/142/142 94/94/94
f 140/140/140 142/142/142 95/95/95
f 142/142/142 140/140/140 137/137/137
