g pm0607_00_HeadASkin
v -2.6893615E-05 0.23266909 0.07255462
v 0.033232536 0.22776647 0.07630448
v -7.480621E-05 0.22801428 0.08195487
v -0.033340607 0.2277018 0.07630448
v 0.029993057 0.23230132 0.06786374
v 0.054580078 0.23207182 0.053775776
v 0.025402794 0.23916736 0.048757095
v 0.06085411 0.22761492 0.059736405
v 0.0777763 0.22923446 0.032602265
v -0.030013504 0.23225862 0.06785775
v -0.054515343 0.23198418 0.05376787
v -0.025333785 0.23914468 0.048753727
v -0.06085754 0.22747873 0.059736405
v -0.07765747 0.22905363 0.032602265
v 2.861023E-05 0.23984815 0.051947467
v 6.198883E-05 0.24508967 0.028487569
v 0.042849082 0.23798978 0.042472657
v 0.04932026 0.23998989 0.025424726
v 0.06884021 0.23379101 0.029570393
v 0.07365204 0.23553811 -0.00010496616
v 0.08354488 0.23112014 -0.0003373122
v 0.07771942 0.23213764 -0.03346959
v 0.02683071 0.2437468 0.026887884
v -0.042743795 0.23793781 0.042473096
v -0.049160805 0.23993814 0.025420401
v -0.02669361 0.24372636 0.026884627
v -0.068665385 0.23368533 0.029560741
v -0.07344631 0.23541965 -0.000104548926
v -0.083364755 0.23093328 -0.0003373146
v -0.07755886 0.23197632 -0.033469584
v 0.027720412 0.2459991 -9.517908E-05
v 0.05226879 0.2418709 0.00014310598
v 0.04930599 0.24219346 -0.025274688
v 0.06881477 0.23627813 -0.029988186
v 0.054513052 0.23670362 -0.05454174
v 0.060779113 0.23279825 -0.0609782
v 0.03324665 0.23424411 -0.07775741
v -0.068621404 0.23617303 -0.02998707
v -0.054351117 0.23662747 -0.054541234
v -0.049111746 0.24214546 -0.025273668
v -0.060657196 0.23268668 -0.0609782
v -0.03312317 0.23419374 -0.07775744
v -0.052071836 0.24182014 0.00014324427
v -0.027549744 0.24597767 -9.518623E-05
v 0.030025711 0.23813823 -0.06871065
v 7.74765E-05 0.23889552 -0.07349073
v 0.025556525 0.24320768 -0.048933752
v 6.179809E-05 0.23413858 -0.08387826
v 0.04274273 0.24164653 -0.042422235
v -0.029872017 0.23810314 -0.06871034
v -0.02538082 0.24318607 -0.048933133
v -0.04256012 0.24160416 -0.042421415
v 0.026822586 0.24601611 -0.026343348
v 8.640289E-05 0.24415334 -0.05179531
v 8.808136E-05 0.24745712 -0.027847521
v -0.026640395 0.24599743 -0.026342345
v 0.009164237 0.24775852 -0.009102103
v 8.7203975E-05 0.24800505 -0.012124745
v -0.008990517 0.24775329 -0.009102108
v -0.012030754 0.24740896 -6.495714E-05
v 0.012200584 0.24741618 -6.470919E-05
v -0.008981476 0.2472115 0.008971974
v 0.009141464 0.24721694 0.008971946
v 7.709503E-05 0.24700616 0.01200092
v 8.7127686E-05 0.24818054 -0.004453988
v -0.003194618 0.24807557 -0.0033283685
v 0.00023999214 0.24805738 0.00046552418
v 0.0033685684 0.24807729 -0.0033283685
v -0.004289627 0.24792975 -5.6252476E-05
v 0.0044617844 0.24793343 -5.624771E-05
v -0.0031972884 0.24786468 0.0032135819
v 0.0033665085 0.24786647 0.0032135819
v 8.3618164E-05 0.24778163 0.0043025888
vt 0.5547888 0.5558424
vt 0.6494705 0.5562564
vt 0.5546813 0.54792446
vt 0.46001 0.5562566
vt 0.64757204 0.5631386
vt 0.72356355 0.5850507
vt 0.6333848 0.5928567
vt 0.7280791 0.5806867
vt 0.7762383 0.6206974
vt 0.4621092 0.56314796
vt 0.38638067 0.5850633
vt 0.4765725 0.592862
vt 0.38169912 0.5806867
vt 0.3338881 0.6206972
vt 0.55496085 0.58789456
vt 0.55506384 0.6243838
vt 0.6873064 0.6026316
vt 0.7073072 0.62914747
vt 0.7676377 0.6226995
vt 0.7825104 0.66885626
vt 0.7926551 0.6692681
vt 0.77607656 0.7181231
vt 0.6377981 0.6268718
vt 0.42276275 0.60263115
vt 0.40292966 0.6291543
vt 0.47236955 0.6268772
vt 0.3426472 0.62271464
vt 0.3278706 0.6688554
vt 0.3176459 0.6692681
vt 0.33416873 0.7181231
vt 0.6405482 0.6688411
vt 0.7164196 0.6684705
vt 0.70726275 0.7080053
vt 0.7675592 0.71533644
vt 0.7233561 0.75352675
vt 0.7278657 0.75868624
vt 0.6495106 0.7834276
vt 0.34278274 0.71533436
vt 0.38688827 0.7535262
vt 0.40308142 0.7080035
vt 0.38226917 0.75868624
vt 0.46062896 0.783428
vt 0.3939327 0.6684704
vt 0.46972358 0.66884124
vt 0.64767313 0.77556515
vt 0.5551113 0.7829998
vt 0.63386023 0.74480414
vt 0.55506957 0.7924532
vt 0.68697786 0.73467624
vt 0.46254647 0.7755647
vt 0.47642696 0.74480313
vt 0.42333102 0.73467493
vt 0.63777363 0.7096671
vt 0.5551392 0.7492548
vt 0.5551441 0.7120068
vt 0.4725343 0.7096656
vt 0.58319616 0.6828505
vt 0.5551413 0.68755186
vt 0.52708507 0.6828505
vt 0.51768816 0.66879404
vt 0.5925809 0.6687937
vt 0.52711284 0.6547383
vt 0.5831256 0.6547383
vt 0.55511034 0.65002716
vt 0.55514157 0.6756207
vt 0.54499876 0.6738702
vt 0.5556136 0.66796875
vt 0.5652839 0.67386997
vt 0.54161406 0.6687807
vt 0.56866205 0.6687807
vt 0.54498994 0.66369456
vt 0.5652777 0.66369456
vt 0.55513036 0.6620011
vn -0.00089757313 0.94098866 0.33843687
vn 0.13390133 0.9260649 0.35280907
vn -0.0010172548 0.92632926 0.3767135
vn -0.13617037 0.9258035 0.35262683
vn 0.124061175 0.93973 0.31861645
vn 0.2238066 0.9385668 0.2626842
vn 0.10810699 0.9631204 0.24639796
vn 0.24493146 0.9271972 0.28339708
vn 0.31470916 0.93314564 0.17377394
vn -0.12608223 0.93951625 0.31845334
vn -0.22630692 0.9380415 0.26241815
vn -0.10977744 0.9629629 0.2462751
vn -0.24770983 0.9265513 0.28309467
vn -0.31789875 0.93211895 0.17347851
vn -0.00073482015 0.9656971 0.2596702
vn -0.0005613432 0.98623043 0.16537607
vn 0.18875185 0.95517886 0.22804822
vn 0.20707764 0.9670747 0.1479367
vn 0.27976415 0.9459501 0.16404359
vn 0.29904225 0.9533452 0.041312076
vn 0.33812222 0.9402086 0.041001987
vn 0.31338587 0.9451048 -0.092554115
vn 0.10209078 0.9847617 0.14079
vn -0.19085963 0.9548089 0.22784339
vn -0.20922205 0.9666392 0.14776622
vn -0.10342758 0.98463446 0.14070435
vn -0.2825958 0.94515115 0.16379523
vn -0.30194262 0.952438 0.04114024
vn -0.3414051 0.93903047 0.04079638
vn -0.31638506 0.9440901 -0.092705905
vn 0.1276708 0.99098444 0.040621817
vn 0.22002989 0.9746153 0.041375574
vn 0.20639332 0.97632444 -0.06474874
vn 0.2785913 0.9569283 -0.08170097
vn 0.2222586 0.95783657 -0.18207227
vn 0.24319825 0.9480515 -0.20506826
vn 0.13278326 0.9511882 -0.27858505
vn -0.28124514 0.9561402 -0.08183544
vn -0.22446023 0.9572948 -0.18222035
vn -0.20839183 0.97589296 -0.06485231
vn -0.24565029 0.9473848 -0.20522659
vn -0.13467851 0.95088524 -0.27870932
vn -0.22216807 0.9741353 0.041252032
vn -0.1289665 0.9908193 0.040555894
vn 0.12311964 0.96270686 -0.24090865
vn -0.00073616614 0.9649725 -0.26234984
vn 0.10756041 0.98048717 -0.16454679
vn -0.00082928495 0.95247453 -0.30461717
vn 0.18762638 0.9714343 -0.14529914
vn -0.12481393 0.9624597 -0.24102461
vn -0.10899484 0.98031425 -0.16463323
vn -0.18948731 0.9710541 -0.14542522
vn 0.10214211 0.9930489 -0.058487363
vn -0.0006199157 0.98397255 -0.1783191
vn -0.00049695215 0.99657047 -0.0827476
vn -0.10336291 0.9929196 -0.05853726
vn 0.05133635 0.9986519 -0.007684583
vn -0.0002705375 0.99971837 -0.023730358
vn -0.051925797 0.99862134 -0.007678761
vn -0.069688655 0.9968052 0.03902383
vn 0.069065966 0.99684757 0.039047353
vn -0.051349193 0.9948925 0.086903445
vn 0.05069878 0.99492234 0.08694305
vn -0.0003110105 0.9945793 0.10398039
vn -8.3779836E-05 0.9999348 0.011421168
vn -0.02325084 0.9995552 0.018675584
vn -5.2479172E-05 0.9992606 0.03844616
vn 0.023078978 0.99955946 0.018658197
vn -0.031801764 0.9987626 0.038233224
vn 0.031618413 0.9987686 0.038229287
vn -0.022694834 0.99802446 0.058585107
vn 0.022485893 0.9980281 0.058602598
vn -0.00010850839 0.99777967 0.0666017
g pm0607_00_HeadASkin_0
f 3/3/3 2/2/2 1/1/1
f 3/3/3 1/1/1 4/4/4
f 2/2/2 5/5/5 1/1/1
f 6/6/6 5/5/5 2/2/2
f 1/1/1 5/5/5 7/7/7
f 7/7/7 5/5/5 6/6/6
f 8/8/8 6/6/6 2/2/2
f 8/8/8 9/9/9 6/6/6
f 1/1/1 10/10/10 4/4/4
f 4/4/4 10/10/10 11/11/11
f 12/12/12 10/10/10 1/1/1
f 11/11/11 10/10/10 12/12/12
f 13/13/13 4/4/4 11/11/11
f 13/13/13 11/11/11 14/14/14
f 15/15/15 1/1/1 7/7/7
f 15/15/15 12/12/12 1/1/1
f 15/15/15 7/7/7 16/16/16
f 15/15/15 16/16/16 12/12/12
f 17/17/17 7/7/7 6/6/6
f 17/17/17 6/6/6 18/18/18
f 17/17/17 18/18/18 7/7/7
f 9/9/9 19/19/19 6/6/6
f 6/6/6 19/19/19 18/18/18
f 20/20/20 19/19/19 9/9/9
f 18/18/18 19/19/19 20/20/20
f 21/21/21 20/20/20 9/9/9
f 21/21/21 22/22/22 20/20/20
f 7/7/7 23/23/23 16/16/16
f 18/18/18 23/23/23 7/7/7
f 24/24/24 11/11/11 12/12/12
f 24/24/24 12/12/12 25/25/25
f 24/24/24 25/25/25 11/11/11
f 16/16/16 26/26/26 12/12/12
f 12/12/12 26/26/26 25/25/25
f 25/25/25 27/27/27 11/11/11
f 28/28/28 27/27/27 25/25/25
f 11/11/11 27/27/27 14/14/14
f 14/14/14 27/27/27 28/28/28
f 29/29/29 14/14/14 28/28/28
f 29/29/29 28/28/28 30/30/30
f 31/31/31 23/23/23 18/18/18
f 32/32/32 31/31/31 18/18/18
f 32/32/32 33/33/33 31/31/31
f 32/32/32 18/18/18 20/20/20
f 32/32/32 20/20/20 33/33/33
f 20/20/20 34/34/34 33/33/33
f 33/33/33 34/34/34 35/35/35
f 22/22/22 34/34/34 20/20/20
f 35/35/35 34/34/34 22/22/22
f 36/36/36 35/35/35 22/22/22
f 36/36/36 37/37/37 35/35/35
f 28/28/28 38/38/38 30/30/30
f 30/30/30 38/38/38 39/39/39
f 40/40/40 38/38/38 28/28/28
f 39/39/39 38/38/38 40/40/40
f 41/41/41 30/30/30 39/39/39
f 41/41/41 39/39/39 42/42/42
f 43/43/43 40/40/40 28/28/28
f 43/43/43 28/28/28 25/25/25
f 43/43/43 25/25/25 44/44/44
f 43/43/43 44/44/44 40/40/40
f 25/25/25 26/26/26 44/44/44
f 37/37/37 45/45/45 35/35/35
f 46/46/46 45/45/45 37/37/37
f 35/35/35 45/45/45 47/47/47
f 47/47/47 45/45/45 46/46/46
f 48/48/48 46/46/46 37/37/37
f 48/48/48 42/42/42 46/46/46
f 49/49/49 35/35/35 47/47/47
f 49/49/49 33/33/33 35/35/35
f 49/49/49 47/47/47 33/33/33
f 42/42/42 50/50/50 46/46/46
f 46/46/46 50/50/50 51/51/51
f 39/39/39 50/50/50 42/42/42
f 51/51/51 50/50/50 39/39/39
f 52/52/52 51/51/51 39/39/39
f 52/52/52 39/39/39 40/40/40
f 52/52/52 40/40/40 51/51/51
f 47/47/47 53/53/53 33/33/33
f 33/33/33 53/53/53 31/31/31
f 54/54/54 47/47/47 46/46/46
f 54/54/54 46/46/46 51/51/51
f 54/54/54 55/55/55 47/47/47
f 54/54/54 51/51/51 55/55/55
f 55/55/55 53/53/53 47/47/47
f 40/40/40 56/56/56 51/51/51
f 51/51/51 56/56/56 55/55/55
f 44/44/44 56/56/56 40/40/40
f 31/31/31 53/53/53 57/57/57
f 53/53/53 55/55/55 58/58/58
f 57/57/57 53/53/53 58/58/58
f 55/55/55 56/56/56 59/59/59
f 58/58/58 55/55/55 59/59/59
f 56/56/56 44/44/44 60/60/60
f 59/59/59 56/56/56 60/60/60
f 61/61/61 31/31/31 57/57/57
f 23/23/23 31/31/31 61/61/61
f 60/60/60 44/44/44 62/62/62
f 44/44/44 26/26/26 62/62/62
f 63/63/63 23/23/23 61/61/61
f 16/16/16 23/23/23 63/63/63
f 26/26/26 16/16/16 64/64/64
f 62/62/62 26/26/26 64/64/64
f 64/64/64 16/16/16 63/63/63
f 57/57/57 58/58/58 65/65/65
f 58/58/58 59/59/59 66/66/66
f 65/65/65 58/58/58 66/66/66
f 66/66/66 67/67/67 65/65/65
f 68/68/68 57/57/57 65/65/65
f 61/61/61 57/57/57 68/68/68
f 68/68/68 65/65/65 67/67/67
f 66/66/66 59/59/59 69/69/69
f 66/66/66 69/69/69 67/67/67
f 59/59/59 60/60/60 69/69/69
f 70/70/70 61/61/61 68/68/68
f 63/63/63 61/61/61 70/70/70
f 68/68/68 67/67/67 70/70/70
f 69/69/69 60/60/60 71/71/71
f 60/60/60 62/62/62 71/71/71
f 71/71/71 67/67/67 69/69/69
f 72/72/72 63/63/63 70/70/70
f 64/64/64 63/63/63 72/72/72
f 72/72/72 70/70/70 67/67/67
f 62/62/62 64/64/64 73/73/73
f 71/71/71 62/62/62 73/73/73
f 71/71/71 73/73/73 67/67/67
f 72/72/72 67/67/67 73/73/73
f 73/73/73 64/64/64 72/72/72
