g pm0676_20_Eye7Skin
v 0.09179775 0.9647924 0.47541472
v 0.09916558 0.9748756 0.48881698
v 0.08797002 0.9772253 0.48274168
v 0.08299752 0.98850965 0.4950206
v 0.09126409 0.9866552 0.50009286
v 0.07394163 0.9931484 0.51218355
v 0.10324737 0.9630988 0.48248413
v 0.105395354 0.95858383 0.49791896
v 0.10354619 0.970573 0.5033387
v 0.11086462 0.9602287 0.46846825
v 0.10154773 0.9620027 0.4638239
v 0.11896147 0.95805174 0.4590265
v 0.112808466 0.9590754 0.45311874
v 0.12267612 0.95546234 0.45784897
v 0.11518213 0.95671856 0.45074967
v 0.11733886 0.9533502 0.46727657
v 0.12219051 0.95284915 0.45848396
v 0.11475798 0.9514877 0.45200202
v 0.11802134 0.9493625 0.46499282
v 0.109832644 0.9473258 0.4601509
v 0.109389216 0.9443074 0.47613895
v 0.10158958 0.94270295 0.47118282
v 0.10817056 0.95037603 0.47985846
v 0.10094013 0.93984604 0.4862137
v 0.09129442 0.93829465 0.48074824
v 0.10504423 0.9455795 0.49333686
v 0.08775445 0.9329745 0.5037765
v 0.079944745 0.9307263 0.49816793
v 0.0995037 0.93894583 0.51401514
v 0.07900663 0.92727965 0.5257641
v 0.070429355 0.9239369 0.5201479
v 0.07031121 0.9229768 0.5471343
v 0.06044582 0.9195198 0.5412899
v 0.09122897 0.9329461 0.5345389
v 0.09584335 0.94529885 0.5402334
v 0.10351634 0.95119876 0.5202304
v 0.1020575 0.9669983 0.52425474
v 0.061238162 0.9203732 0.56404585
v 0.050972722 0.9176723 0.55785775
v 0.07971242 0.92805743 0.5545967
v 0.052940182 0.91803974 0.5796583
v 0.042759866 0.9156955 0.57441777
v 0.09971562 0.97759 0.5086718
v 0.09424538 0.9815018 0.5240401
v 0.0934233 0.96295154 0.54359335
v 0.06697829 0.9248222 0.5698297
v 0.06584868 0.9365852 0.5711537
v 0.082412824 0.94065267 0.55812216
v 0.08049217 0.95688945 0.55945057
v 0.044905365 0.9172432 0.590377
v 0.0352985 0.916863 0.59115374
v 0.043583095 0.9194867 0.5916701
v 0.034749307 0.91813785 0.5927431
v 0.03542153 0.9213565 0.5910833
v 0.055100564 0.922042 0.5819801
v 0.04373653 0.92173785 0.59117264
v 0.051709056 0.9329913 0.5788975
v 0.039067212 0.93521804 0.5743489
v 0.052319005 0.9467276 0.57590955
v 0.039769266 0.94648147 0.5723422
v 0.06518664 0.95189184 0.57014745
v 0.05556744 0.9638409 0.56949276
v 0.043257143 0.9634811 0.5663859
v 0.050461292 0.9802656 0.55330676
v 0.06350459 0.9629115 0.5671851
v 0.07267297 0.97180563 0.5586452
v 0.061339863 0.9790079 0.557161
v 0.07155306 0.9899355 0.53831476
v 0.06230511 0.9917413 0.5339889
v 0.08479269 0.9793572 0.5423282
v 0.083491266 0.99155986 0.51763886
v -0.09179775 0.9647924 0.47541472
v -0.08797002 0.9772253 0.48274168
v -0.09916558 0.9748756 0.48881698
v -0.08299752 0.98850965 0.4950206
v -0.09126409 0.9866552 0.50009286
v -0.07394163 0.9931484 0.51218355
v -0.10324737 0.9630988 0.48248413
v -0.105395354 0.95858383 0.49791896
v -0.10354619 0.970573 0.5033387
v -0.11086462 0.9602287 0.46846825
v -0.10154773 0.9620027 0.4638239
v -0.11896147 0.95805174 0.4590265
v -0.112808466 0.9590754 0.45311874
v -0.12267612 0.95546234 0.45784897
v -0.11518213 0.95671856 0.45074967
v -0.11733886 0.9533502 0.46727657
v -0.12219051 0.95284915 0.45848396
v -0.11475798 0.9514877 0.45200202
v -0.11802134 0.9493625 0.46499282
v -0.109832644 0.9473258 0.46015093
v -0.109389216 0.9443074 0.47613895
v -0.10158958 0.94270295 0.47118282
v -0.10817056 0.95037603 0.47985846
v -0.10094013 0.93984604 0.4862137
v -0.09129442 0.93829465 0.48074824
v -0.10504423 0.9455795 0.49333686
v -0.08775445 0.9329745 0.5037765
v -0.079944745 0.9307263 0.49816793
v -0.0995037 0.93894583 0.51401514
v -0.07900663 0.92727965 0.5257641
v -0.070429355 0.9239369 0.5201479
v -0.07031121 0.9229768 0.5471343
v -0.06044582 0.9195198 0.5412899
v -0.09122897 0.9329461 0.5345389
v -0.09584335 0.94529885 0.5402334
v -0.10351634 0.95119876 0.5202304
v -0.1020575 0.9669983 0.52425474
v -0.061238162 0.9203732 0.56404585
v -0.050972722 0.9176723 0.55785775
v -0.07971242 0.92805743 0.5545967
v -0.052940182 0.91803974 0.5796583
v -0.042759866 0.9156955 0.57441777
v -0.09971562 0.97759 0.5086718
v -0.09424538 0.9815018 0.5240401
v -0.0934233 0.96295154 0.54359335
v -0.06697829 0.9248222 0.5698297
v -0.06584868 0.9365852 0.5711537
v -0.082412824 0.94065267 0.55812216
v -0.08049217 0.95688945 0.55945057
v -0.044905365 0.9172432 0.590377
v -0.0352985 0.916863 0.59115374
v -0.043583095 0.9194867 0.5916701
v -0.034749307 0.91813785 0.5927431
v -0.03542153 0.9213565 0.5910833
v -0.055100564 0.922042 0.5819801
v -0.04373653 0.92173785 0.59117264
v -0.051709056 0.9329913 0.5788975
v -0.039067212 0.93521804 0.5743489
v -0.052319005 0.9467276 0.57590955
v -0.039769266 0.94648147 0.5723422
v -0.06518664 0.95189184 0.57014745
v -0.05556744 0.9638409 0.56949276
v -0.043257143 0.9634811 0.5663859
v -0.050461292 0.9802656 0.55330676
v -0.06350459 0.9629115 0.5671851
v -0.07267297 0.97180563 0.5586452
v -0.061339863 0.9790079 0.557161
v -0.07155306 0.9899355 0.53831476
v -0.06230511 0.9917413 0.5339889
v -0.08479269 0.9793572 0.5423282
v -0.083491266 0.99155986 0.51763886
vt 0.16287512 0.93539596
vt 0.16886038 0.9431494
vt 0.16580129 0.9480672
vt 0.16997278 0.96588
vt 0.17252147 0.95921916
vt 0.17717415 0.97933906
vt 0.16650563 0.92904913
vt 0.17338169 0.9292583
vt 0.17442071 0.94098026
vt 0.16061747 0.919021
vt 0.15840149 0.92418873
vt 0.15741605 0.91581714
vt 0.15300316 0.9152181
vt 0.15700161 0.90915775
vt 0.15303177 0.90761817
vt 0.16116142 0.91137326
vt 0.15758789 0.90368444
vt 0.15373057 0.9011541
vt 0.16056287 0.9043063
vt 0.16000849 0.89787775
vt 0.16698426 0.9035578
vt 0.16627294 0.895768
vt 0.1672324 0.9146998
vt 0.17232943 0.90249646
vt 0.17193735 0.89401335
vt 0.17295098 0.91623414
vt 0.17911613 0.9015494
vt 0.17852855 0.89228636
vt 0.1803149 0.9166078
vt 0.18760538 0.9018121
vt 0.18764377 0.89170784
vt 0.19587332 0.90508705
vt 0.19656342 0.89410955
vt 0.18754888 0.9167417
vt 0.1875 0.9296875
vt 0.18080783 0.92948395
vt 0.18097669 0.9429152
vt 0.20284629 0.9091699
vt 0.20367742 0.8979294
vt 0.19555253 0.91760725
vt 0.20920205 0.9134675
vt 0.21054351 0.90276676
vt 0.17579836 0.94922215
vt 0.18069643 0.95662785
vt 0.18744308 0.9447487
vt 0.20274663 0.91850346
vt 0.20226216 0.9301362
vt 0.19479668 0.92990935
vt 0.19414335 0.94449264
vt 0.21330214 0.9124508
vt 0.21728545 0.9069443
vt 0.21377945 0.91932017
vt 0.21768808 0.9173216
vt 0.21744913 0.926042
vt 0.20902139 0.9185061
vt 0.21360034 0.9260358
vt 0.20860457 0.9303291
vt 0.21251184 0.93927467
vt 0.20599806 0.9435217
vt 0.21027237 0.9496075
vt 0.2005933 0.9445243
vt 0.20172668 0.95880103
vt 0.20548195 0.9660534
vt 0.19768393 0.98059946
vt 0.19924062 0.9549945
vt 0.1942643 0.9593194
vt 0.19569933 0.9708539
vt 0.1873256 0.9757651
vt 0.18728888 0.9855075
vt 0.18738401 0.960342
vt 0.17883861 0.96970433
vt 0.16287515 0.93539596
vt 0.16580135 0.9480672
vt 0.16886044 0.9431494
vt 0.16997275 0.96588
vt 0.1725215 0.95921916
vt 0.17717415 0.97933906
vt 0.16650572 0.92904913
vt 0.17338175 0.9292583
vt 0.17442071 0.94098026
vt 0.16061747 0.919021
vt 0.15840155 0.92418873
vt 0.1574161 0.91581714
vt 0.15300322 0.9152181
vt 0.15700161 0.90915775
vt 0.15303195 0.90761817
vt 0.16116142 0.91137326
vt 0.15758789 0.90368444
vt 0.15373063 0.9011541
vt 0.16056287 0.9043063
vt 0.16000858 0.89787775
vt 0.16698432 0.9035578
vt 0.16627291 0.895768
vt 0.16723245 0.9146998
vt 0.17232946 0.90249646
vt 0.17193747 0.89401335
vt 0.17295101 0.91623414
vt 0.17911613 0.9015494
vt 0.17852855 0.89228636
vt 0.18031499 0.9166078
vt 0.18760535 0.9018121
vt 0.18764377 0.89170784
vt 0.19587338 0.90508705
vt 0.19656348 0.89410955
vt 0.18754894 0.9167417
vt 0.1875 0.9296875
vt 0.18080792 0.92948395
vt 0.18097669 0.9429152
vt 0.20284629 0.9091699
vt 0.20367739 0.8979294
vt 0.19555259 0.91760725
vt 0.20920211 0.9134675
vt 0.21054357 0.90276676
vt 0.17579836 0.94922215
vt 0.18069649 0.95662785
vt 0.18744302 0.9447487
vt 0.20274669 0.91850346
vt 0.20226222 0.9301362
vt 0.19479683 0.92990935
vt 0.19414335 0.94449264
vt 0.21330214 0.9124508
vt 0.21728547 0.9069443
vt 0.21377951 0.91932017
vt 0.21768813 0.9173216
vt 0.2174492 0.926042
vt 0.20902139 0.9185061
vt 0.2136004 0.9260358
vt 0.20860457 0.9303291
vt 0.21251184 0.93927467
vt 0.20599806 0.9435217
vt 0.21027237 0.9496075
vt 0.2005933 0.9445243
vt 0.20172668 0.95880103
vt 0.20548195 0.9660534
vt 0.19768399 0.98059946
vt 0.19924068 0.9549945
vt 0.1942643 0.9593194
vt 0.19569933 0.9708539
vt 0.18732569 0.9757651
vt 0.18728888 0.9855075
vt 0.18738407 0.960342
vt 0.17883867 0.96970433
vn 0.5890606 0.7753048 -0.22783783
vn 0.748318 0.64088804 -0.17112203
vn 0.5614816 0.76899654 -0.30558592
vn 0.4707462 0.86130345 -0.19119178
vn 0.62333125 0.77680117 -0.08965538
vn 0.33156598 0.9406278 0.07268766
vn 0.8623758 0.5050971 -0.034422167
vn 0.99002236 0.11395993 0.082878284
vn 0.90458244 0.42478195 0.03593035
vn 0.73575324 0.67540157 0.049999483
vn 0.53211874 0.8372661 -0.12583803
vn 0.70766145 0.70506275 -0.04584598
vn 0.61325157 0.7646023 -0.19825709
vn 0.9583364 0.27085745 -0.09070576
vn 0.8849823 0.29868376 -0.3572037
vn 0.97901905 0.12207417 0.16315545
vn 0.92558724 -0.34238175 -0.1614405
vn 0.83287054 -0.4304181 -0.3479466
vn 0.8458089 -0.53279626 0.02711923
vn 0.6478009 -0.74480075 -0.16008078
vn 0.746142 -0.6628453 0.06251439
vn 0.5268729 -0.84610456 -0.08069724
vn 0.980755 -0.113397725 0.15893593
vn 0.65223265 -0.75794417 0.010631085
vn 0.46107405 -0.8835969 -0.08165388
vn 0.9207704 -0.37386495 0.111386344
vn 0.5725449 -0.8198654 -0.0036244653
vn 0.4253652 -0.9019837 -0.07409311
vn 0.8291434 -0.5434075 0.13126127
vn 0.52154726 -0.8518619 0.0481639
vn 0.4023734 -0.91495866 -0.030762319
vn 0.4908176 -0.8592715 0.14405073
vn 0.3754492 -0.92614853 0.035872918
vn 0.7510174 -0.61581886 0.23820168
vn 0.87993586 -0.1900516 0.4354232
vn 0.9660977 -0.10572841 0.23553501
vn 0.91311795 0.29864916 0.27753273
vn 0.47531167 -0.83718026 0.27056983
vn 0.34874895 -0.9282181 0.12955809
vn 0.69176894 -0.60025996 0.40142706
vn 0.44825926 -0.7702751 0.45358565
vn 0.32461697 -0.89282 0.3122439
vn 0.78045535 0.62311786 0.051123835
vn 0.73489565 0.6256181 0.2617831
vn 0.8131651 0.23404175 0.53290427
vn 0.6362 -0.4997078 0.5878279
vn 0.5755037 -0.034525443 0.8170701
vn 0.749464 -0.16429289 0.6413358
vn 0.64110786 0.20711456 0.73897517
vn 0.38577655 -0.648209 0.6565071
vn 0.29220992 -0.7125119 0.6379186
vn 0.38317284 -0.20576979 0.900465
vn 0.2379624 -0.19112508 0.9522841
vn 0.10566552 0.27216193 0.9564322
vn 0.52993506 -0.33046737 0.78099954
vn 0.24608283 0.21877633 0.94423527
vn 0.30430076 0.19560432 0.9322768
vn 0.035883516 0.3748491 0.9263911
vn 0.15888801 0.3467529 0.92440087
vn -0.046367224 0.42565912 0.90369487
vn 0.43230402 0.23595104 0.8703105
vn 0.11548359 0.50446093 0.8556767
vn -0.05384895 0.56162274 0.82563937
vn 0.027227968 0.7586077 0.65097845
vn 0.330002 0.41018018 0.8502064
vn 0.4531239 0.49420607 0.7419158
vn 0.1969387 0.68479705 0.7016184
vn 0.34198794 0.82415944 0.45144802
vn 0.16929188 0.9086724 0.38164756
vn 0.6117632 0.5869234 0.53034586
vn 0.4969057 0.85372525 0.15568492
vn -0.5890602 0.7753043 -0.22784057
vn -0.56148136 0.76899636 -0.30558679
vn -0.748318 0.64088786 -0.17112267
vn -0.4707461 0.8613036 -0.1911916
vn -0.6233312 0.7768013 -0.08965512
vn -0.33156577 0.9406278 0.07268778
vn -0.8623758 0.505097 -0.034424
vn -0.9900225 0.11395996 0.082877755
vn -0.9045823 0.42478216 0.03593009
vn -0.7357534 0.6754016 0.049995854
vn -0.5321184 0.83726555 -0.12584242
vn -0.7076612 0.7050626 -0.04585054
vn -0.61325055 0.76460177 -0.19826227
vn -0.95833606 0.27085748 -0.090709016
vn -0.8849808 0.29868323 -0.3572078
vn -0.9790192 0.12207423 0.16315392
vn -0.9255869 -0.342382 -0.16144174
vn -0.83286965 -0.43041852 -0.34794825
vn -0.8458087 -0.5327966 0.027119089
vn -0.64780056 -0.744801 -0.16008097
vn -0.74614197 -0.66284543 0.06251484
vn -0.5268727 -0.8461046 -0.08069698
vn -0.9807551 -0.11339784 0.15893553
vn -0.65223265 -0.75794417 0.010631882
vn -0.46107417 -0.8835969 -0.08165339
vn -0.92077035 -0.373865 0.111386806
vn -0.5725448 -0.8198655 -0.003623956
vn -0.42536524 -0.9019838 -0.07409275
vn -0.82914335 -0.54340756 0.13126154
vn -0.5215472 -0.8518619 0.048163768
vn -0.4023734 -0.91495866 -0.030762315
vn -0.49081764 -0.8592715 0.1440502
vn -0.37544924 -0.92614853 0.035872668
vn -0.7510174 -0.615819 0.23820141
vn -0.87993586 -0.1900517 0.43542302
vn -0.9660977 -0.10572846 0.23553485
vn -0.9131178 0.29864928 0.2775326
vn -0.47531188 -0.83718026 0.27056965
vn -0.34874907 -0.9282181 0.12955782
vn -0.6917691 -0.6002602 0.40142643
vn -0.44825986 -0.7702752 0.45358485
vn -0.3246174 -0.8928202 0.31224313
vn -0.78045505 0.62311816 0.05112397
vn -0.73489535 0.62561834 0.26178336
vn -0.81316495 0.23404193 0.5329044
vn -0.6362002 -0.49970776 0.5878278
vn -0.5755036 -0.034525517 0.8170702
vn -0.7494642 -0.164293 0.64133555
vn -0.6411077 0.20711456 0.73897535
vn -0.38577756 -0.64821017 0.65650547
vn -0.29221076 -0.7125132 0.6379168
vn -0.38317403 -0.20577155 0.9004642
vn -0.23796324 -0.19112758 0.9522835
vn -0.10566614 0.27216086 0.9564326
vn -0.5299355 -0.33046767 0.78099906
vn -0.24608341 0.2187753 0.94423527
vn -0.30430108 0.19560389 0.9322768
vn -0.03588423 0.37484872 0.92639124
vn -0.15888835 0.3467527 0.924401
vn 0.04636634 0.4256588 0.90369517
vn -0.43230376 0.23595092 0.8703107
vn -0.11548378 0.5044607 0.8556769
vn 0.053848445 0.5616224 0.8256395
vn -0.027228167 0.7586077 0.65097845
vn -0.33000162 0.41018027 0.85020655
vn -0.45312345 0.49420634 0.7419159
vn -0.1969385 0.6847973 0.7016182
vn -0.34198758 0.8241597 0.45144796
vn -0.16929169 0.90867245 0.38164738
vn -0.61176276 0.58692366 0.5303459
vn -0.49690548 0.8537254 0.15568532
g pm0676_20_Eye7Skin_0
f 3/3/3 2/2/2 1/1/1
f 3/3/3 4/4/4 2/2/2
f 4/4/4 5/5/5 2/2/2
f 4/4/4 6/6/6 5/5/5
f 2/2/2 7/7/7 1/1/1
f 8/8/8 7/7/7 2/2/2
f 9/9/9 2/2/2 5/5/5
f 9/9/9 8/8/8 2/2/2
f 7/7/7 10/10/10 1/1/1
f 10/10/10 11/11/11 1/1/1
f 10/10/10 12/12/12 11/11/11
f 12/12/12 13/13/13 11/11/11
f 13/13/13 12/12/12 14/14/14
f 14/14/14 12/12/12 10/10/10
f 15/15/15 13/13/13 14/14/14
f 16/16/16 10/10/10 7/7/7
f 16/16/16 14/14/14 10/10/10
f 15/15/15 14/14/14 17/17/17
f 18/18/18 15/15/15 17/17/17
f 19/19/19 17/17/17 14/14/14
f 18/18/18 17/17/17 19/19/19
f 16/16/16 19/19/19 14/14/14
f 20/20/20 18/18/18 19/19/19
f 20/20/20 19/19/19 21/21/21
f 21/21/21 19/19/19 16/16/16
f 22/22/22 20/20/20 21/21/21
f 23/23/23 16/16/16 7/7/7
f 23/23/23 21/21/21 16/16/16
f 23/23/23 7/7/7 8/8/8
f 21/21/21 24/24/24 22/22/22
f 24/24/24 21/21/21 23/23/23
f 24/24/24 25/25/25 22/22/22
f 26/26/26 24/24/24 23/23/23
f 26/26/26 23/23/23 8/8/8
f 24/24/24 27/27/27 25/25/25
f 24/24/24 26/26/26 27/27/27
f 27/27/27 28/28/28 25/25/25
f 26/26/26 29/29/29 27/27/27
f 26/26/26 8/8/8 29/29/29
f 27/27/27 30/30/30 28/28/28
f 30/30/30 27/27/27 29/29/29
f 30/30/30 31/31/31 28/28/28
f 30/30/30 32/32/32 31/31/31
f 32/32/32 33/33/33 31/31/31
f 34/34/34 30/30/30 29/29/29
f 30/30/30 34/34/34 32/32/32
f 34/34/34 29/29/29 35/35/35
f 8/8/8 36/36/36 29/29/29
f 29/29/29 36/36/36 35/35/35
f 37/37/37 36/36/36 8/8/8
f 35/35/35 36/36/36 37/37/37
f 9/9/9 37/37/37 8/8/8
f 32/32/32 38/38/38 33/33/33
f 38/38/38 39/39/39 33/33/33
f 34/34/34 40/40/40 32/32/32
f 34/34/34 35/35/35 40/40/40
f 38/38/38 32/32/32 40/40/40
f 38/38/38 41/41/41 39/39/39
f 41/41/41 42/42/42 39/39/39
f 9/9/9 43/43/43 37/37/37
f 43/43/43 9/9/9 5/5/5
f 43/43/43 44/44/44 37/37/37
f 43/43/43 5/5/5 44/44/44
f 45/45/45 35/35/35 37/37/37
f 45/45/45 37/37/37 44/44/44
f 46/46/46 38/38/38 40/40/40
f 38/38/38 46/46/46 41/41/41
f 46/46/46 40/40/40 47/47/47
f 35/35/35 48/48/48 40/40/40
f 40/40/40 48/48/48 47/47/47
f 49/49/49 48/48/48 35/35/35
f 45/45/45 49/49/49 35/35/35
f 47/47/47 48/48/48 49/49/49
f 41/41/41 50/50/50 42/42/42
f 50/50/50 51/51/51 42/42/42
f 51/51/51 50/50/50 52/52/52
f 52/52/52 50/50/50 41/41/41
f 53/53/53 51/51/51 52/52/52
f 53/53/53 52/52/52 54/54/54
f 46/46/46 55/55/55 41/41/41
f 55/55/55 52/52/52 41/41/41
f 46/46/46 47/47/47 55/55/55
f 52/52/52 56/56/56 54/54/54
f 56/56/56 52/52/52 55/55/55
f 54/54/54 56/56/56 57/57/57
f 57/57/57 56/56/56 55/55/55
f 47/47/47 57/57/57 55/55/55
f 58/58/58 54/54/54 57/57/57
f 58/58/58 57/57/57 59/59/59
f 59/59/59 57/57/57 47/47/47
f 60/60/60 58/58/58 59/59/59
f 61/61/61 59/59/59 47/47/47
f 61/61/61 47/47/47 49/49/49
f 60/60/60 59/59/59 62/62/62
f 63/63/63 60/60/60 62/62/62
f 63/63/63 62/62/62 64/64/64
f 61/61/61 65/65/65 59/59/59
f 65/65/65 62/62/62 59/59/59
f 65/65/65 61/61/61 66/66/66
f 61/61/61 49/49/49 66/66/66
f 65/65/65 66/66/66 62/62/62
f 62/62/62 67/67/67 64/64/64
f 66/66/66 67/67/67 62/62/62
f 64/64/64 67/67/67 68/68/68
f 68/68/68 67/67/67 66/66/66
f 69/69/69 64/64/64 68/68/68
f 69/69/69 68/68/68 6/6/6
f 70/70/70 66/66/66 49/49/49
f 70/70/70 68/68/68 66/66/66
f 45/45/45 70/70/70 49/49/49
f 70/70/70 45/45/45 44/44/44
f 70/70/70 44/44/44 68/68/68
f 68/68/68 71/71/71 6/6/6
f 44/44/44 71/71/71 68/68/68
f 6/6/6 71/71/71 5/5/5
f 5/5/5 71/71/71 44/44/44
f 74/74/74 73/73/73 72/72/72
f 75/75/75 73/73/73 74/74/74
f 76/76/76 75/75/75 74/74/74
f 77/77/77 75/75/75 76/76/76
f 78/78/78 74/74/74 72/72/72
f 78/78/78 79/79/79 74/74/74
f 74/74/74 80/80/80 76/76/76
f 79/79/79 80/80/80 74/74/74
f 81/81/81 78/78/78 72/72/72
f 82/82/82 81/81/81 72/72/72
f 83/83/83 81/81/81 82/82/82
f 84/84/84 83/83/83 82/82/82
f 83/83/83 84/84/84 85/85/85
f 83/83/83 85/85/85 81/81/81
f 84/84/84 86/86/86 85/85/85
f 81/81/81 87/87/87 78/78/78
f 85/85/85 87/87/87 81/81/81
f 85/85/85 86/86/86 88/88/88
f 86/86/86 89/89/89 88/88/88
f 88/88/88 90/90/90 85/85/85
f 88/88/88 89/89/89 90/90/90
f 90/90/90 87/87/87 85/85/85
f 89/89/89 91/91/91 90/90/90
f 90/90/90 91/91/91 92/92/92
f 90/90/90 92/92/92 87/87/87
f 91/91/91 93/93/93 92/92/92
f 87/87/87 94/94/94 78/78/78
f 92/92/92 94/94/94 87/87/87
f 78/78/78 94/94/94 79/79/79
f 95/95/95 92/92/92 93/93/93
f 92/92/92 95/95/95 94/94/94
f 96/96/96 95/95/95 93/93/93
f 95/95/95 97/97/97 94/94/94
f 94/94/94 97/97/97 79/79/79
f 98/98/98 95/95/95 96/96/96
f 97/97/97 95/95/95 98/98/98
f 99/99/99 98/98/98 96/96/96
f 100/100/100 97/97/97 98/98/98
f 79/79/79 97/97/97 100/100/100
f 101/101/101 98/98/98 99/99/99
f 98/98/98 101/101/101 100/100/100
f 102/102/102 101/101/101 99/99/99
f 103/103/103 101/101/101 102/102/102
f 104/104/104 103/103/103 102/102/102
f 101/101/101 105/105/105 100/100/100
f 105/105/105 101/101/101 103/103/103
f 100/100/100 105/105/105 106/106/106
f 107/107/107 79/79/79 100/100/100
f 107/107/107 100/100/100 106/106/106
f 107/107/107 108/108/108 79/79/79
f 107/107/107 106/106/106 108/108/108
f 108/108/108 80/80/80 79/79/79
f 109/109/109 103/103/103 104/104/104
f 110/110/110 109/109/109 104/104/104
f 111/111/111 105/105/105 103/103/103
f 106/106/106 105/105/105 111/111/111
f 103/103/103 109/109/109 111/111/111
f 112/112/112 109/109/109 110/110/110
f 113/113/113 112/112/112 110/110/110
f 114/114/114 80/80/80 108/108/108
f 80/80/80 114/114/114 76/76/76
f 115/115/115 114/114/114 108/108/108
f 76/76/76 114/114/114 115/115/115
f 106/106/106 116/116/116 108/108/108
f 108/108/108 116/116/116 115/115/115
f 109/109/109 117/117/117 111/111/111
f 117/117/117 109/109/109 112/112/112
f 111/111/111 117/117/117 118/118/118
f 119/119/119 106/106/106 111/111/111
f 119/119/119 111/111/111 118/118/118
f 119/119/119 120/120/120 106/106/106
f 120/120/120 116/116/116 106/106/106
f 119/119/119 118/118/118 120/120/120
f 121/121/121 112/112/112 113/113/113
f 122/122/122 121/121/121 113/113/113
f 121/121/121 122/122/122 123/123/123
f 121/121/121 123/123/123 112/112/112
f 122/122/122 124/124/124 123/123/123
f 123/123/123 124/124/124 125/125/125
f 126/126/126 117/117/117 112/112/112
f 123/123/123 126/126/126 112/112/112
f 118/118/118 117/117/117 126/126/126
f 127/127/127 123/123/123 125/125/125
f 123/123/123 127/127/127 126/126/126
f 127/127/127 125/125/125 128/128/128
f 127/127/127 128/128/128 126/126/126
f 128/128/128 118/118/118 126/126/126
f 125/125/125 129/129/129 128/128/128
f 128/128/128 129/129/129 130/130/130
f 128/128/128 130/130/130 118/118/118
f 129/129/129 131/131/131 130/130/130
f 130/130/130 132/132/132 118/118/118
f 118/118/118 132/132/132 120/120/120
f 130/130/130 131/131/131 133/133/133
f 131/131/131 134/134/134 133/133/133
f 133/133/133 134/134/134 135/135/135
f 136/136/136 132/132/132 130/130/130
f 133/133/133 136/136/136 130/130/130
f 132/132/132 136/136/136 137/137/137
f 120/120/120 132/132/132 137/137/137
f 137/137/137 136/136/136 133/133/133
f 138/138/138 133/133/133 135/135/135
f 138/138/138 137/137/137 133/133/133
f 138/138/138 135/135/135 139/139/139
f 138/138/138 139/139/139 137/137/137
f 135/135/135 140/140/140 139/139/139
f 139/139/139 140/140/140 77/77/77
f 137/137/137 141/141/141 120/120/120
f 139/139/139 141/141/141 137/137/137
f 141/141/141 116/116/116 120/120/120
f 116/116/116 141/141/141 115/115/115
f 115/115/115 141/141/141 139/139/139
f 142/142/142 139/139/139 77/77/77
f 142/142/142 115/115/115 139/139/139
f 142/142/142 77/77/77 76/76/76
f 142/142/142 76/76/76 115/115/115
