g pm0646_13_LightningASkin
v 0.0021194117 1.2080677 -1.3281629
v 0.006981584 0.8656296 -1.4346044
v 0.006981584 1.2005 -1.4346044
v -0.009092814 1.1953799 -1.7484574
v -0.0024304285 0.89829016 -1.7484574
v -0.013276952 1.1960465 -2.040239
v -0.0098917335 0.9711183 -2.040239
v 0.00011061578 1.1995068 -2.3611264
v -0.0030377612 1.0329877 -2.3611264
v -0.035013884 1.1955159 -2.5811727
v -0.033866372 1.055287 -2.5811727
v -0.01859707 1.2036983 -2.8268664
v -0.018406471 1.0890542 -2.8268664
v -0.016574204 1.2070868 -3.027189
v -0.018671 1.1154635 -3.027189
v -0.020271933 1.210125 -3.181647
v -0.02263149 1.1355784 -3.181647
v -0.0032021035 1.2096766 -3.3424432
v 0.0012124523 1.180076 -3.3424432
v 0.00678249 1.2138416 -3.5486956
v -0.008564105 1.2456307 -3.3424432
v 0.00678249 1.2138416 -3.5486956
v -0.01834425 1.2710265 -3.181647
v -0.014431235 1.3007308 -3.027189
v -0.018714765 1.3371289 -2.8268664
v -0.03644328 1.3701901 -2.5811727
v 0.004468999 1.4231274 -2.3611264
v 0.008246083 1.4890629 -2.040239
v -0.01964033 1.5745013 -1.7484574
v 0.006981584 1.5791531 -1.4346044
v 0.0021194117 1.2080677 -1.3281629
v 0.0021194117 1.2079676 -1.3281629
v 0.006981584 1.2004 -1.4346044
v -0.31348553 1.2005 -1.4346044
v -0.34410515 1.1875163 -1.7484574
v -0.009092814 1.1952798 -1.7484574
v -0.27271494 1.192474 -2.040239
v 0.2968449 1.2005 -1.4346044
v 0.0021194117 1.2079676 -1.3281629
v 0.35441783 1.2052941 -1.7484574
v -0.013276952 1.1958466 -2.040239
v -0.21690011 1.2034976 -2.3611264
v 0.31235796 1.2011048 -2.040239
v 0.00011061578 1.1993068 -2.3611264
v -0.2103273 1.1940812 -2.5811727
v 0.21478897 1.1951913 -2.3611264
v -0.035013884 1.1954159 -2.5811727
v -0.18583383 1.2035279 -2.8268664
v 0.20607398 1.1974888 -2.5811727
v -0.01859707 1.2035983 -2.8268664
v -0.13632229 1.2098272 -3.027189
v 0.14866887 1.2039435 -2.8268664
v -0.016574204 1.2067868 -3.027189
v -0.08556908 1.2121917 -3.181647
v 0.07389028 1.2050166 -3.027189
v -0.020271933 1.210025 -3.181647
v -0.037615195 1.2045443 -3.3424432
v 0.049878925 1.2079046 -3.181647
v -0.0032021035 1.2095766 -3.3424432
v 0.00678249 1.2137415 -3.5486956
v 0.02793952 1.2143209 -3.3424432
v 0.00678249 1.2137415 -3.5486956
vt 0.5413437 5
vt 0.54134405 4.9
vt 0.7500002 4.9
vt 0.75 4.8
vt 0.5413437 4.8
vt 0.7500002 4.7
vt 0.54134405 4.7
vt 0.74999976 4.6
vt 0.5413438 4.6
vt 0.75000024 4.5
vt 0.54134405 4.5
vt 0.75000024 4.4
vt 0.54134405 4.4
vt 0.7500002 4.3
vt 0.54134405 4.3
vt 0.75 4.2
vt 0.5413437 4.2
vt 0.7500001 4.087546
vt 0.5413437 4.087546
vt 0.5413437 4
vt 0.9586563 4.087546
vt 0.9586563 4
vt 0.9586563 4.2
vt 0.9586563 4.3
vt 0.9586563 4.4
vt 0.9586563 4.5
vt 0.9586557 4.6
vt 0.9586563 4.7
vt 0.9586563 4.8
vt 0.9586563 4.9
vt 0.9586563 5
vt 0.9586563 5
vt 0.7500001 4.9
vt 0.9586563 4.9
vt 0.9586563 4.8
vt 0.7500001 4.8
vt 0.9586563 4.7
vt 0.5413439 4.9
vt 0.5413437 5
vt 0.5413439 4.8
vt 0.7500001 4.7
vt 0.9586563 4.6
vt 0.5413439 4.7
vt 0.75 4.6
vt 0.9586563 4.5
vt 0.5413437 4.6
vt 0.7500001 4.5
vt 0.9586563 4.4
vt 0.5413439 4.5
vt 0.7500001 4.4
vt 0.9586563 4.3
vt 0.5413439 4.4
vt 0.7500001 4.3
vt 0.9586563 4.2
vt 0.5413439 4.3
vt 0.75 4.2
vt 0.9586563 4.087546
vt 0.5413437 4.2
vt 0.75043845 4.087546
vt 0.9586563 4
vt 0.5413437 4.087546
vt 0.5413437 4
vn -0.99997735 -0.0047894157 -0.004727528
vn -0.99997914 -0.0063571683 -0.0011449653
vn -0.99998844 -0.004431644 -0.0018963374
vn -0.99998605 -0.0006689465 0.0052407864
vn -0.999956 -0.005342566 0.00771072
vn -0.99983037 0.0067897043 0.017120043
vn -0.99984074 -0.00016281343 0.017846737
vn -0.99940836 0.009402319 0.03308409
vn -0.9994734 0.0033569692 0.03227758
vn -0.99965906 0.006167356 0.025372107
vn -0.9997018 0.0034302115 0.024177784
vn -0.9999802 0.006272289 -0.00048559924
vn -0.99998295 0.005641969 -0.0015117744
vn -0.999814 0.004063647 -0.018853726
vn -0.99981755 0.0028546099 -0.018886944
vn -0.99894613 -0.026347324 -0.037582535
vn -0.9988446 -0.024594689 -0.041285463
vn -0.9949044 -0.08073627 -0.0603903
vn -0.9953981 -0.073518336 -0.061463848
vn -0.9933836 -0.092746705 -0.067727886
vn -0.99562377 -0.07617853 -0.054131065
vn -0.9936051 -0.094934694 -0.061127022
vn -0.998995 -0.027148044 -0.035664897
vn -0.9998596 0.0013004766 -0.016707024
vn -0.999977 0.006756148 -0.0006603906
vn -0.99964917 0.009427307 0.024753872
vn -0.9993844 0.0146699 0.03186672
vn -0.99980587 0.013099981 0.014721103
vn -0.99998033 0.0044730296 0.0043996796
vn -0.9999939 -0.0018594587 -0.002946503
vn -0.99997735 -0.0047894157 -0.004727528
vn 0.0069794147 -0.9990422 0.043195248
vn 0.008311373 -0.99928623 0.036852293
vn 0.0077844537 -0.9992907 0.03684522
vn 0.009891418 -0.99981433 0.01654071
vn 0.011147824 -0.9998198 0.01536895
vn 0.0069790273 -0.9999738 0.0019247883
vn 0.008740675 -0.9993325 0.03546877
vn 0.0069794147 -0.9990422 0.043195248
vn 0.011506524 -0.99980766 0.01588473
vn 0.008069036 -0.99996555 0.001941495
vn 0.0012851652 -0.99999356 -0.0033469133
vn 0.008807914 -0.9999565 0.0030627414
vn 0.0020561167 -0.9999944 -0.0026322873
vn -0.0024983126 -0.9999449 -0.010194256
vn 0.0030819615 -0.99999297 -0.0021506492
vn -0.0015627661 -0.9999528 -0.009586837
vn -0.00573048 -0.9998436 -0.01673256
vn -0.00073664053 -0.9999583 -0.009113051
vn -0.0052239276 -0.9998411 -0.017040279
vn -0.0023557553 -0.99988675 -0.014867829
vn -0.004032701 -0.999859 -0.016299015
vn -0.0035665608 -0.99986124 -0.016271427
vn 0.025639271 -0.99964154 -0.007713829
vn -0.0008127821 -0.9998596 -0.01673507
vn 0.02445769 -0.9996501 -0.010077814
vn 0.07075675 -0.9974847 -0.00422583
vn 0.026687967 -0.9995572 -0.013157117
vn 0.072322465 -0.9973584 -0.0067575932
vn 0.08675361 -0.99621 -0.006285266
vn 0.071289465 -0.9974101 -0.009532178
vn 0.08675361 -0.99621 -0.006285266
g pm0646_13_LightningASkin_0
f 3/3/3 2/2/2 1/1/1
f 3/3/3 4/4/4 2/2/2
f 4/4/4 5/5/5 2/2/2
f 4/4/4 6/6/6 5/5/5
f 6/6/6 7/7/7 5/5/5
f 6/6/6 8/8/8 7/7/7
f 8/8/8 9/9/9 7/7/7
f 8/8/8 10/10/10 9/9/9
f 10/10/10 11/11/11 9/9/9
f 10/10/10 12/12/12 11/11/11
f 12/12/12 13/13/13 11/11/11
f 12/12/12 14/14/14 13/13/13
f 14/14/14 15/15/15 13/13/13
f 14/14/14 16/16/16 15/15/15
f 16/16/16 17/17/17 15/15/15
f 16/16/16 18/18/18 17/17/17
f 18/18/18 19/19/19 17/17/17
f 18/18/18 20/20/20 19/19/19
f 21/21/21 18/18/18 16/16/16
f 21/21/21 22/22/22 18/18/18
f 23/23/23 21/21/21 16/16/16
f 23/23/23 16/16/16 14/14/14
f 24/24/24 23/23/23 14/14/14
f 24/24/24 14/14/14 12/12/12
f 25/25/25 24/24/24 12/12/12
f 25/25/25 12/12/12 10/10/10
f 26/26/26 25/25/25 10/10/10
f 26/26/26 10/10/10 8/8/8
f 27/27/27 26/26/26 8/8/8
f 27/27/27 8/8/8 6/6/6
f 28/28/28 27/27/27 6/6/6
f 28/28/28 6/6/6 4/4/4
f 29/29/29 28/28/28 4/4/4
f 29/29/29 4/4/4 3/3/3
f 30/30/30 29/29/29 3/3/3
f 30/30/30 3/3/3 31/31/31
f 34/34/34 33/33/33 32/32/32
f 34/34/34 35/35/35 33/33/33
f 35/35/35 36/36/36 33/33/33
f 35/35/35 37/37/37 36/36/36
f 33/33/33 36/36/36 38/38/38
f 33/33/33 38/38/38 39/39/39
f 36/36/36 40/40/40 38/38/38
f 37/37/37 41/41/41 36/36/36
f 36/36/36 41/41/41 40/40/40
f 37/37/37 42/42/42 41/41/41
f 41/41/41 43/43/43 40/40/40
f 42/42/42 44/44/44 41/41/41
f 41/41/41 44/44/44 43/43/43
f 42/42/42 45/45/45 44/44/44
f 44/44/44 46/46/46 43/43/43
f 45/45/45 47/47/47 44/44/44
f 44/44/44 47/47/47 46/46/46
f 45/45/45 48/48/48 47/47/47
f 47/47/47 49/49/49 46/46/46
f 48/48/48 50/50/50 47/47/47
f 47/47/47 50/50/50 49/49/49
f 48/48/48 51/51/51 50/50/50
f 50/50/50 52/52/52 49/49/49
f 51/51/51 53/53/53 50/50/50
f 50/50/50 53/53/53 52/52/52
f 51/51/51 54/54/54 53/53/53
f 53/53/53 55/55/55 52/52/52
f 54/54/54 56/56/56 53/53/53
f 53/53/53 56/56/56 55/55/55
f 54/54/54 57/57/57 56/56/56
f 56/56/56 58/58/58 55/55/55
f 57/57/57 59/59/59 56/56/56
f 56/56/56 59/59/59 58/58/58
f 57/57/57 60/60/60 59/59/59
f 59/59/59 61/61/61 58/58/58
f 59/59/59 62/62/62 61/61/61
