g pm0676_18_Eye123Skin
v 0.089534245 0.9783004 0.47842884
v 0.09513287 0.98742795 0.49286714
v 0.08725327 0.9892707 0.48777446
v 0.07841413 0.9981573 0.50159305
v 0.08691881 0.99673665 0.50630265
v 0.068651624 1.0000393 0.5192198
v 0.09898714 0.97752094 0.48364523
v 0.10417083 0.97114843 0.49993762
v 0.10105562 0.9819776 0.5070595
v 0.10297123 0.978323 0.46566
v 0.09568338 0.9789829 0.46271262
v 0.106184416 0.97816014 0.45289576
v 0.10173358 0.9790022 0.44943622
v 0.10666498 0.9763723 0.449893
v 0.10290412 0.97733396 0.44703242
v 0.1074725 0.9721937 0.46298248
v 0.10645369 0.9730699 0.45040774
v 0.102230124 0.9733496 0.44682539
v 0.10428303 0.96770513 0.45796627
v 0.098210506 0.9669817 0.4549516
v 0.099422865 0.95912445 0.47300994
v 0.092542455 0.95823056 0.46846095
v 0.106458224 0.9658043 0.47907475
v 0.09505437 0.95217556 0.4854764
v 0.08735135 0.95055145 0.48123083
v 0.10476042 0.9590931 0.49343735
v 0.08902929 0.9443794 0.5018812
v 0.08140899 0.94215155 0.49605596
v 0.10013432 0.9499474 0.5127537
v 0.08014434 0.9353443 0.52225995
v 0.07202068 0.93206656 0.51635087
v 0.07112962 0.9268552 0.54196316
v 0.06188564 0.9234263 0.5359092
v 0.09190086 0.94082314 0.5317741
v 0.09541518 0.9526009 0.53940433
v 0.10283414 0.96143836 0.5206957
v 0.09966465 0.9761537 0.5270529
v 0.06278349 0.9202355 0.55822533
v 0.053089608 0.9175754 0.5519629
v 0.08028631 0.9317629 0.5502634
v 0.055946834 0.9139326 0.57366645
v 0.04623737 0.911413 0.5683195
v 0.09636397 0.9878954 0.5133643
v 0.09023706 0.98956037 0.52907425
v 0.09116076 0.96913564 0.5454441
v 0.06824286 0.924334 0.5647102
v 0.06621998 0.9356369 0.5681689
v 0.082081564 0.9440107 0.55602634
v 0.0788321 0.95966 0.56017417
v 0.049122967 0.90998137 0.58452505
v 0.039872166 0.908146 0.5853487
v 0.047666993 0.9117291 0.5861865
v 0.039250813 0.9089633 0.58711475
v 0.03952465 0.91235423 0.58597153
v 0.05773517 0.91775113 0.57661545
v 0.047538687 0.9140661 0.5860499
v 0.053311437 0.92871255 0.5755411
v 0.04088923 0.929623 0.57165736
v 0.052501142 0.94305015 0.57495266
v 0.040199075 0.9415084 0.57148147
v 0.06438483 0.9510351 0.5700024
v 0.05367838 0.96182036 0.571359
v 0.04150077 0.9605585 0.56833214
v 0.04657422 0.9803901 0.558044
v 0.06153844 0.96229786 0.56887984
v 0.06954072 0.9735991 0.56179076
v 0.05755325 0.97970426 0.56155866
v 0.06648277 0.99392074 0.54454803
v 0.057050433 0.99532384 0.5406306
v 0.080790944 0.98444545 0.54677945
v 0.078398116 0.99894404 0.52433604
v -0.089534245 0.9783004 0.47842884
v -0.08725327 0.9892707 0.48777446
v -0.09513287 0.98742795 0.49286714
v -0.07841413 0.9981573 0.50159305
v -0.08691881 0.99673665 0.50630265
v -0.068651624 1.0000393 0.5192198
v -0.09898714 0.97752094 0.48364523
v -0.10417083 0.97114843 0.49993762
v -0.10105562 0.9819776 0.5070595
v -0.10297123 0.978323 0.46566
v -0.09568338 0.9789829 0.46271262
v -0.106184416 0.97816014 0.45289576
v -0.10173358 0.9790022 0.44943622
v -0.10666498 0.9763723 0.449893
v -0.10290412 0.97733396 0.44703242
v -0.1074725 0.9721937 0.46298248
v -0.10645369 0.9730699 0.45040774
v -0.102230124 0.9733496 0.44682539
v -0.10428303 0.96770513 0.45796627
v -0.098210506 0.9669817 0.4549516
v -0.099422865 0.95912445 0.47300994
v -0.092542455 0.95823056 0.46846095
v -0.106458224 0.9658043 0.47907475
v -0.09505437 0.95217556 0.4854764
v -0.08735135 0.95055145 0.48123083
v -0.10476042 0.9590931 0.49343735
v -0.08902929 0.9443794 0.5018812
v -0.08140899 0.94215155 0.49605596
v -0.10013432 0.9499474 0.5127537
v -0.08014434 0.9353443 0.52225995
v -0.07202068 0.93206656 0.51635087
v -0.07112962 0.9268552 0.54196316
v -0.06188564 0.9234263 0.5359092
v -0.09190086 0.94082314 0.5317741
v -0.09541518 0.9526009 0.53940433
v -0.10283414 0.96143836 0.5206957
v -0.09966465 0.9761537 0.5270529
v -0.06278349 0.9202355 0.55822533
v -0.053089608 0.9175754 0.5519629
v -0.08028631 0.9317629 0.5502634
v -0.055946834 0.9139326 0.57366645
v -0.04623737 0.911413 0.5683195
v -0.09636397 0.9878954 0.5133643
v -0.09023706 0.98956037 0.52907425
v -0.09116076 0.96913564 0.5454441
v -0.06824286 0.924334 0.5647102
v -0.06621998 0.9356369 0.5681689
v -0.082081564 0.9440107 0.55602634
v -0.0788321 0.95966 0.56017417
v -0.049122967 0.90998137 0.58452505
v -0.039872166 0.908146 0.5853487
v -0.047666993 0.9117291 0.5861865
v -0.039250813 0.9089633 0.58711475
v -0.03952465 0.91235423 0.58597153
v -0.05773517 0.91775113 0.57661545
v -0.047538687 0.9140661 0.5860499
v -0.053311437 0.92871255 0.5755411
v -0.04088923 0.929623 0.57165736
v -0.052501142 0.94305015 0.57495266
v -0.040199075 0.9415084 0.57148147
v -0.06438483 0.9510351 0.5700024
v -0.05367838 0.96182036 0.571359
v -0.04150077 0.9605585 0.56833214
v -0.04657422 0.9803901 0.558044
v -0.06153844 0.96229786 0.56887984
v -0.06954072 0.9735991 0.56179076
v -0.05755325 0.97970426 0.56155866
v -0.06648277 0.99392074 0.54454803
v -0.057050433 0.99532384 0.5406306
v -0.080790944 0.98444545 0.54677945
v -0.078398116 0.99894404 0.52433604
vt 0.41365063 0.9479845
vt 0.42003316 0.952526
vt 0.41733956 0.9589374
vt 0.42258322 0.9743055
vt 0.42466265 0.96644247
vt 0.43052757 0.9838316
vt 0.41681403 0.939873
vt 0.42358905 0.9365372
vt 0.42536175 0.9475288
vt 0.41038114 0.9330446
vt 0.40853316 0.93926746
vt 0.4057004 0.9298187
vt 0.401202 0.93117934
vt 0.40429637 0.92481357
vt 0.40076062 0.92498595
vt 0.41042608 0.9252438
vt 0.40528667 0.91981244
vt 0.40174797 0.91668963
vt 0.40938485 0.9186028
vt 0.40842783 0.911213
vt 0.41565162 0.9145592
vt 0.41445267 0.9072652
vt 0.41660935 0.9253882
vt 0.42083967 0.91076213
vt 0.41991025 0.9026227
vt 0.4223312 0.923951
vt 0.42745262 0.9063354
vt 0.42628163 0.8975289
vt 0.42959625 0.920526
vt 0.4358176 0.9022218
vt 0.43520772 0.8922655
vt 0.44415796 0.90118307
vt 0.44413292 0.8900334
vt 0.43671876 0.9169316
vt 0.4375 0.9296875
vt 0.43090594 0.93293405
vt 0.43193293 0.946055
vt 0.45127636 0.90160704
vt 0.45137346 0.89012593
vt 0.44464463 0.9136607
vt 0.45780182 0.9025595
vt 0.4584353 0.8913457
vt 0.42724437 0.95492446
vt 0.43253565 0.9596837
vt 0.43840897 0.94452703
vt 0.45177633 0.91083634
vt 0.45204508 0.92252547
vt 0.4446897 0.9261471
vt 0.44498122 0.9408244
vt 0.46252105 0.9025173
vt 0.46691045 0.89229757
vt 0.46255997 0.90879667
vt 0.4668579 0.9065679
vt 0.4674261 0.9146598
vt 0.45794678 0.9076069
vt 0.4626897 0.91597
vt 0.45829445 0.9194483
vt 0.46271002 0.9262324
vt 0.45657653 0.933764
vt 0.46116972 0.937547
vt 0.4513259 0.93753386
vt 0.45335513 0.95098925
vt 0.4575128 0.9561868
vt 0.45077658 0.97450703
vt 0.4506668 0.9485263
vt 0.44605035 0.95534253
vt 0.44820035 0.96594584
vt 0.44028097 0.9750885
vt 0.44086903 0.98468757
vt 0.4393502 0.9598919
vt 0.4315465 0.9734993
vt 0.4136507 0.9479845
vt 0.41733956 0.9589374
vt 0.42003316 0.952526
vt 0.42258322 0.9743055
vt 0.42466265 0.96644247
vt 0.43052757 0.9838316
vt 0.41681397 0.939873
vt 0.4235891 0.9365372
vt 0.4253618 0.9475288
vt 0.41038114 0.9330446
vt 0.4085331 0.93926746
vt 0.40570053 0.9298187
vt 0.401202 0.93117934
vt 0.40429637 0.92481357
vt 0.40076062 0.92498595
vt 0.41042608 0.9252438
vt 0.40528667 0.91981244
vt 0.40174797 0.91668963
vt 0.4093848 0.9186028
vt 0.40842777 0.911213
vt 0.41565162 0.9145592
vt 0.41445267 0.9072652
vt 0.41660935 0.9253882
vt 0.42083967 0.91076213
vt 0.4199103 0.9026227
vt 0.42233127 0.923951
vt 0.42745256 0.9063354
vt 0.42628157 0.8975289
vt 0.42959625 0.920526
vt 0.4358176 0.9022218
vt 0.43520778 0.8922655
vt 0.44415796 0.90118307
vt 0.44413304 0.8900334
vt 0.43671882 0.9169316
vt 0.4375 0.9296875
vt 0.43090594 0.93293405
vt 0.43193293 0.946055
vt 0.45127642 0.90160704
vt 0.45137346 0.89012593
vt 0.44464463 0.9136607
vt 0.45780182 0.9025595
vt 0.4584353 0.8913457
vt 0.42724442 0.95492446
vt 0.43253577 0.9596837
vt 0.4384089 0.94452703
vt 0.45177633 0.91083634
vt 0.45204514 0.92252547
vt 0.4446897 0.9261471
vt 0.44498128 0.9408244
vt 0.46252096 0.9025173
vt 0.46691033 0.8922975
vt 0.46256006 0.90879667
vt 0.4668579 0.9065679
vt 0.46742618 0.9146598
vt 0.45794678 0.9076069
vt 0.4626898 0.91597
vt 0.45829445 0.9194483
vt 0.46271002 0.9262324
vt 0.4565766 0.933764
vt 0.46116966 0.937547
vt 0.4513259 0.93753386
vt 0.45335513 0.95098925
vt 0.45751286 0.9561868
vt 0.45077658 0.97450703
vt 0.4506668 0.9485263
vt 0.44605035 0.95534253
vt 0.4482003 0.96594584
vt 0.44028097 0.9750885
vt 0.4408691 0.98468757
vt 0.4393502 0.9598919
vt 0.4315464 0.9734993
vn 0.57140344 0.80248195 -0.17181638
vn 0.6872304 0.72171205 -0.08274094
vn 0.51332015 0.8432394 -0.15953016
vn 0.41396967 0.9097717 -0.030734867
vn 0.55358064 0.8320179 0.035982557
vn 0.28345746 0.9332457 0.22069058
vn 0.8388931 0.5311982 -0.1186879
vn 0.9827428 0.18344943 0.023723895
vn 0.8520542 0.51659095 0.08448435
vn 0.7692541 0.62036496 -0.15295589
vn 0.5658468 0.80665326 -0.17066906
vn 0.7438621 0.6241577 -0.23894836
vn 0.6470745 0.7072387 -0.2847948
vn 0.89725506 0.20785436 -0.38952526
vn 0.8233645 0.27360666 -0.49720234
vn 0.96295464 0.06296986 -0.2622081
vn 0.8354973 -0.26380813 -0.48202634
vn 0.77232575 -0.30175838 -0.5589765
vn 0.8029719 -0.45812246 -0.38126096
vn 0.65693426 -0.6055335 -0.44918424
vn 0.74755037 -0.5984246 -0.28819522
vn 0.57995164 -0.73768 -0.34566498
vn 0.9748712 -0.12509131 -0.18433195
vn 0.6957493 -0.6859403 -0.21311696
vn 0.54308355 -0.7946437 -0.27129588
vn 0.93747354 -0.3361594 -0.09022247
vn 0.65260607 -0.74517757 -0.13716963
vn 0.52459157 -0.8258963 -0.2066374
vn 0.8751977 -0.48313582 0.024675366
vn 0.62011176 -0.7825893 -0.054912042
vn 0.5107891 -0.8473755 -0.14508352
vn 0.6017209 -0.7978977 0.03593324
vn 0.49919823 -0.8625991 -0.081999145
vn 0.8111356 -0.5625104 0.16012819
vn 0.89541847 -0.1693401 0.4117641
vn 0.9768812 -0.04597135 0.20878151
vn 0.8783104 0.35720956 0.31776124
vn 0.5934422 -0.78970593 0.15553385
vn 0.49236163 -0.870321 0.011022408
vn 0.756017 -0.57463366 0.31342354
vn 0.5675506 -0.7504741 0.33863708
vn 0.48320183 -0.85331416 0.19588482
vn 0.7084796 0.6922754 0.13715465
vn 0.6723559 0.655272 0.34431976
vn 0.7907224 0.23300469 0.56609803
vn 0.69657695 -0.5212538 0.49302647
vn 0.59906226 -0.12899241 0.79024386
vn 0.7698741 -0.1966378 0.607147
vn 0.62998533 0.15037705 0.7619089
vn 0.5099446 -0.67050326 0.538871
vn 0.44833046 -0.72967994 0.5163012
vn 0.45345378 -0.33841053 0.824535
vn 0.34162608 -0.33885142 0.876625
vn 0.16387035 0.046794012 0.9853715
vn 0.5839483 -0.4152689 0.69753575
vn 0.28572506 0.0060265707 0.9582927
vn 0.33363953 0.024794988 0.9423745
vn 0.08145071 0.17448373 0.9812856
vn 0.17923446 0.20928767 0.9612875
vn -0.0064071543 0.27134892 0.9624598
vn 0.43254367 0.13673702 0.891184
vn 0.11706694 0.37745458 0.91859853
vn -0.03434987 0.42549443 0.9043089
vn 0.020129366 0.64520293 0.763746
vn 0.31359622 0.30569485 0.89900386
vn 0.423014 0.41392124 0.80605733
vn 0.17659366 0.5783352 0.7964566
vn 0.3004574 0.7664904 0.56764233
vn 0.13878661 0.8439283 0.5181924
vn 0.5654451 0.5568265 0.6084538
vn 0.43694717 0.85525215 0.2786054
vn -0.57140344 0.80248183 -0.17181699
vn -0.51332 0.84323955 -0.15952928
vn -0.68723017 0.7217123 -0.08274004
vn -0.41396943 0.90977186 -0.03073289
vn -0.55358016 0.832018 0.035984423
vn -0.28345704 0.9332453 0.2206927
vn -0.8388931 0.5311981 -0.11868847
vn -0.9827428 0.18344931 0.023723751
vn -0.85205394 0.5165912 0.08448508
vn -0.76925415 0.6203643 -0.15295807
vn -0.5658468 0.8066528 -0.17067134
vn -0.7438618 0.6241568 -0.23895188
vn -0.64707404 0.70723754 -0.2847987
vn -0.8972537 0.207853 -0.389529
vn -0.8233626 0.2736051 -0.4972065
vn -0.9629541 0.06296919 -0.26221037
vn -0.8354956 -0.26380882 -0.48202908
vn -0.7723235 -0.301759 -0.5589793
vn -0.8029709 -0.45812276 -0.3812627
vn -0.6569332 -0.6055335 -0.44918585
vn -0.74754983 -0.5984247 -0.28819638
vn -0.57995117 -0.73768 -0.34566602
vn -0.97487086 -0.1250917 -0.18433306
vn -0.69574875 -0.68594056 -0.21311775
vn -0.54308313 -0.7946438 -0.27129674
vn -0.9374734 -0.33615974 -0.09022325
vn -0.6526059 -0.74517775 -0.13717026
vn -0.5245911 -0.82589644 -0.20663801
vn -0.8751975 -0.4831361 0.024674945
vn -0.62011135 -0.7825896 -0.054912627
vn -0.51078874 -0.8473756 -0.145084
vn -0.60172087 -0.7978977 0.03593285
vn -0.49919802 -0.86259925 -0.081999384
vn -0.81113553 -0.5625106 0.16012779
vn -0.89541847 -0.16934015 0.41176417
vn -0.9768812 -0.0459713 0.20878172
vn -0.8783101 0.3572096 0.31776184
vn -0.5934422 -0.78970605 0.15553372
vn -0.4923614 -0.8703211 0.011022404
vn -0.75601715 -0.57463384 0.31342322
vn -0.56755024 -0.75047445 0.3386368
vn -0.48320144 -0.8533144 0.19588467
vn -0.70847917 0.6922756 0.13715586
vn -0.67235523 0.65527195 0.344321
vn -0.790722 0.23300466 0.56609845
vn -0.69657695 -0.52125406 0.49302623
vn -0.59906214 -0.12899251 0.790244
vn -0.7698741 -0.19663784 0.607147
vn -0.629985 0.15037705 0.76190925
vn -0.5099445 -0.6705041 0.53887
vn -0.4483304 -0.7296809 0.51629996
vn -0.45345384 -0.338412 0.82453436
vn -0.3416264 -0.33885345 0.8766241
vn -0.16387033 0.04679288 0.9853715
vn -0.5839482 -0.41526943 0.6975356
vn -0.2857248 0.006025415 0.9582927
vn -0.3336392 0.02479485 0.9423747
vn -0.08145044 0.17448322 0.9812856
vn -0.17923403 0.20928769 0.9612876
vn 0.006407478 0.27134892 0.9624598
vn -0.43254313 0.1367372 0.8911843
vn -0.11706641 0.3774545 0.9185988
vn 0.03435032 0.42549437 0.9043089
vn -0.020129025 0.6452026 0.7637463
vn -0.3135955 0.30569485 0.89900416
vn -0.42301327 0.4139211 0.8060578
vn -0.17659305 0.57833487 0.7964569
vn -0.30045667 0.7664897 0.5676436
vn -0.13878627 0.84392756 0.51819366
vn -0.5654444 0.55682623 0.6084547
vn -0.4369465 0.85525185 0.2786073
g pm0676_18_Eye123Skin_0
f 3/3/3 2/2/2 1/1/1
f 3/3/3 4/4/4 2/2/2
f 4/4/4 5/5/5 2/2/2
f 4/4/4 6/6/6 5/5/5
f 2/2/2 7/7/7 1/1/1
f 8/8/8 7/7/7 2/2/2
f 9/9/9 2/2/2 5/5/5
f 9/9/9 8/8/8 2/2/2
f 7/7/7 10/10/10 1/1/1
f 10/10/10 11/11/11 1/1/1
f 10/10/10 12/12/12 11/11/11
f 12/12/12 13/13/13 11/11/11
f 13/13/13 12/12/12 14/14/14
f 14/14/14 12/12/12 10/10/10
f 15/15/15 13/13/13 14/14/14
f 16/16/16 10/10/10 7/7/7
f 16/16/16 14/14/14 10/10/10
f 15/15/15 14/14/14 17/17/17
f 18/18/18 15/15/15 17/17/17
f 19/19/19 17/17/17 14/14/14
f 18/18/18 17/17/17 19/19/19
f 16/16/16 19/19/19 14/14/14
f 20/20/20 18/18/18 19/19/19
f 20/20/20 19/19/19 21/21/21
f 21/21/21 19/19/19 16/16/16
f 22/22/22 20/20/20 21/21/21
f 23/23/23 16/16/16 7/7/7
f 23/23/23 21/21/21 16/16/16
f 23/23/23 7/7/7 8/8/8
f 21/21/21 24/24/24 22/22/22
f 24/24/24 21/21/21 23/23/23
f 24/24/24 25/25/25 22/22/22
f 26/26/26 24/24/24 23/23/23
f 26/26/26 23/23/23 8/8/8
f 24/24/24 27/27/27 25/25/25
f 24/24/24 26/26/26 27/27/27
f 27/27/27 28/28/28 25/25/25
f 26/26/26 29/29/29 27/27/27
f 26/26/26 8/8/8 29/29/29
f 27/27/27 30/30/30 28/28/28
f 30/30/30 27/27/27 29/29/29
f 30/30/30 31/31/31 28/28/28
f 30/30/30 32/32/32 31/31/31
f 32/32/32 33/33/33 31/31/31
f 34/34/34 30/30/30 29/29/29
f 30/30/30 34/34/34 32/32/32
f 34/34/34 29/29/29 35/35/35
f 8/8/8 36/36/36 29/29/29
f 29/29/29 36/36/36 35/35/35
f 37/37/37 36/36/36 8/8/8
f 35/35/35 36/36/36 37/37/37
f 9/9/9 37/37/37 8/8/8
f 32/32/32 38/38/38 33/33/33
f 38/38/38 39/39/39 33/33/33
f 34/34/34 40/40/40 32/32/32
f 34/34/34 35/35/35 40/40/40
f 38/38/38 32/32/32 40/40/40
f 38/38/38 41/41/41 39/39/39
f 41/41/41 42/42/42 39/39/39
f 9/9/9 43/43/43 37/37/37
f 43/43/43 9/9/9 5/5/5
f 43/43/43 44/44/44 37/37/37
f 43/43/43 5/5/5 44/44/44
f 45/45/45 35/35/35 37/37/37
f 45/45/45 37/37/37 44/44/44
f 46/46/46 38/38/38 40/40/40
f 38/38/38 46/46/46 41/41/41
f 46/46/46 40/40/40 47/47/47
f 35/35/35 48/48/48 40/40/40
f 40/40/40 48/48/48 47/47/47
f 49/49/49 48/48/48 35/35/35
f 45/45/45 49/49/49 35/35/35
f 47/47/47 48/48/48 49/49/49
f 41/41/41 50/50/50 42/42/42
f 50/50/50 51/51/51 42/42/42
f 51/51/51 50/50/50 52/52/52
f 52/52/52 50/50/50 41/41/41
f 53/53/53 51/51/51 52/52/52
f 53/53/53 52/52/52 54/54/54
f 46/46/46 55/55/55 41/41/41
f 55/55/55 52/52/52 41/41/41
f 46/46/46 47/47/47 55/55/55
f 52/52/52 56/56/56 54/54/54
f 56/56/56 52/52/52 55/55/55
f 54/54/54 56/56/56 57/57/57
f 57/57/57 56/56/56 55/55/55
f 47/47/47 57/57/57 55/55/55
f 58/58/58 54/54/54 57/57/57
f 58/58/58 57/57/57 59/59/59
f 59/59/59 57/57/57 47/47/47
f 60/60/60 58/58/58 59/59/59
f 61/61/61 59/59/59 47/47/47
f 61/61/61 47/47/47 49/49/49
f 60/60/60 59/59/59 62/62/62
f 63/63/63 60/60/60 62/62/62
f 63/63/63 62/62/62 64/64/64
f 61/61/61 65/65/65 59/59/59
f 65/65/65 62/62/62 59/59/59
f 65/65/65 61/61/61 66/66/66
f 61/61/61 49/49/49 66/66/66
f 65/65/65 66/66/66 62/62/62
f 62/62/62 67/67/67 64/64/64
f 66/66/66 67/67/67 62/62/62
f 64/64/64 67/67/67 68/68/68
f 68/68/68 67/67/67 66/66/66
f 69/69/69 64/64/64 68/68/68
f 69/69/69 68/68/68 6/6/6
f 70/70/70 66/66/66 49/49/49
f 70/70/70 68/68/68 66/66/66
f 45/45/45 70/70/70 49/49/49
f 70/70/70 45/45/45 44/44/44
f 70/70/70 44/44/44 68/68/68
f 68/68/68 71/71/71 6/6/6
f 44/44/44 71/71/71 68/68/68
f 6/6/6 71/71/71 5/5/5
f 5/5/5 71/71/71 44/44/44
f 74/74/74 73/73/73 72/72/72
f 75/75/75 73/73/73 74/74/74
f 76/76/76 75/75/75 74/74/74
f 77/77/77 75/75/75 76/76/76
f 78/78/78 74/74/74 72/72/72
f 78/78/78 79/79/79 74/74/74
f 74/74/74 80/80/80 76/76/76
f 79/79/79 80/80/80 74/74/74
f 81/81/81 78/78/78 72/72/72
f 82/82/82 81/81/81 72/72/72
f 83/83/83 81/81/81 82/82/82
f 84/84/84 83/83/83 82/82/82
f 83/83/83 84/84/84 85/85/85
f 83/83/83 85/85/85 81/81/81
f 84/84/84 86/86/86 85/85/85
f 81/81/81 87/87/87 78/78/78
f 85/85/85 87/87/87 81/81/81
f 85/85/85 86/86/86 88/88/88
f 86/86/86 89/89/89 88/88/88
f 88/88/88 90/90/90 85/85/85
f 88/88/88 89/89/89 90/90/90
f 90/90/90 87/87/87 85/85/85
f 89/89/89 91/91/91 90/90/90
f 90/90/90 91/91/91 92/92/92
f 90/90/90 92/92/92 87/87/87
f 91/91/91 93/93/93 92/92/92
f 87/87/87 94/94/94 78/78/78
f 92/92/92 94/94/94 87/87/87
f 78/78/78 94/94/94 79/79/79
f 95/95/95 92/92/92 93/93/93
f 92/92/92 95/95/95 94/94/94
f 96/96/96 95/95/95 93/93/93
f 95/95/95 97/97/97 94/94/94
f 94/94/94 97/97/97 79/79/79
f 98/98/98 95/95/95 96/96/96
f 97/97/97 95/95/95 98/98/98
f 99/99/99 98/98/98 96/96/96
f 100/100/100 97/97/97 98/98/98
f 79/79/79 97/97/97 100/100/100
f 101/101/101 98/98/98 99/99/99
f 98/98/98 101/101/101 100/100/100
f 102/102/102 101/101/101 99/99/99
f 103/103/103 101/101/101 102/102/102
f 104/104/104 103/103/103 102/102/102
f 101/101/101 105/105/105 100/100/100
f 105/105/105 101/101/101 103/103/103
f 100/100/100 105/105/105 106/106/106
f 107/107/107 79/79/79 100/100/100
f 107/107/107 100/100/100 106/106/106
f 107/107/107 108/108/108 79/79/79
f 107/107/107 106/106/106 108/108/108
f 108/108/108 80/80/80 79/79/79
f 109/109/109 103/103/103 104/104/104
f 110/110/110 109/109/109 104/104/104
f 111/111/111 105/105/105 103/103/103
f 106/106/106 105/105/105 111/111/111
f 103/103/103 109/109/109 111/111/111
f 112/112/112 109/109/109 110/110/110
f 113/113/113 112/112/112 110/110/110
f 114/114/114 80/80/80 108/108/108
f 80/80/80 114/114/114 76/76/76
f 115/115/115 114/114/114 108/108/108
f 76/76/76 114/114/114 115/115/115
f 106/106/106 116/116/116 108/108/108
f 108/108/108 116/116/116 115/115/115
f 109/109/109 117/117/117 111/111/111
f 117/117/117 109/109/109 112/112/112
f 111/111/111 117/117/117 118/118/118
f 119/119/119 106/106/106 111/111/111
f 119/119/119 111/111/111 118/118/118
f 119/119/119 120/120/120 106/106/106
f 120/120/120 116/116/116 106/106/106
f 119/119/119 118/118/118 120/120/120
f 121/121/121 112/112/112 113/113/113
f 122/122/122 121/121/121 113/113/113
f 121/121/121 122/122/122 123/123/123
f 121/121/121 123/123/123 112/112/112
f 122/122/122 124/124/124 123/123/123
f 123/123/123 124/124/124 125/125/125
f 126/126/126 117/117/117 112/112/112
f 123/123/123 126/126/126 112/112/112
f 118/118/118 117/117/117 126/126/126
f 127/127/127 123/123/123 125/125/125
f 123/123/123 127/127/127 126/126/126
f 127/127/127 125/125/125 128/128/128
f 127/127/127 128/128/128 126/126/126
f 128/128/128 118/118/118 126/126/126
f 125/125/125 129/129/129 128/128/128
f 128/128/128 129/129/129 130/130/130
f 128/128/128 130/130/130 118/118/118
f 129/129/129 131/131/131 130/130/130
f 130/130/130 132/132/132 118/118/118
f 118/118/118 132/132/132 120/120/120
f 130/130/130 131/131/131 133/133/133
f 131/131/131 134/134/134 133/133/133
f 133/133/133 134/134/134 135/135/135
f 136/136/136 132/132/132 130/130/130
f 133/133/133 136/136/136 130/130/130
f 132/132/132 136/136/136 137/137/137
f 120/120/120 132/132/132 137/137/137
f 137/137/137 136/136/136 133/133/133
f 138/138/138 133/133/133 135/135/135
f 138/138/138 137/137/137 133/133/133
f 138/138/138 135/135/135 139/139/139
f 138/138/138 139/139/139 137/137/137
f 135/135/135 140/140/140 139/139/139
f 139/139/139 140/140/140 77/77/77
f 137/137/137 141/141/141 120/120/120
f 139/139/139 141/141/141 137/137/137
f 141/141/141 116/116/116 120/120/120
f 116/116/116 141/141/141 115/115/115
f 115/115/115 141/141/141 139/139/139
f 142/142/142 139/139/139 77/77/77
f 142/142/142 115/115/115 139/139/139
f 142/142/142 77/77/77 76/76/76
f 142/142/142 76/76/76 115/115/115
