g pm0680_00_EyeB2Skin
v -0.22932144 0.5319902 0.031343132
v -0.21186447 0.5435044 0.031343132
v -0.21038505 0.5402619 0.03983338
v -0.19143106 0.5477808 0.031343132
v -0.22666162 0.5293304 0.03999263
v -0.20335342 0.53070134 0.04666302
v -0.1914288 0.5443988 0.039676
v -0.23759319 0.5130538 0.039833374
v -0.22803263 0.50602216 0.046662994
v -0.24083568 0.51453316 0.031343132
v -0.24511209 0.4940998 0.031343125
v -0.24173003 0.4940975 0.039675985
v -0.17245798 0.540291 0.039840862
v -0.17945087 0.5307498 0.04668172
v -0.1709877 0.54352444 0.031343132
v -0.15352067 0.5320202 0.031343132
v -0.19141021 0.53544885 0.045273855
v -0.15616693 0.52937394 0.04000386
v -0.21734095 0.5200097 0.047299333
v -0.20540628 0.508075 0.050336406
v -0.23762229 0.4751267 0.03984086
v -0.22808109 0.48211962 0.046681713
v -0.24085571 0.47365642 0.031343125
v -0.22935149 0.45618936 0.031343132
v -0.23278011 0.49407893 0.04527383
v -0.22670524 0.45883566 0.04000386
v -0.1913973 0.5204344 0.0493837
v -0.17740771 0.5081332 0.050351374
v -0.21776569 0.494066 0.049383692
v -0.20546442 0.48007646 0.050351374
v -0.2104141 0.4479185 0.03984086
v -0.2034212 0.45745975 0.046681713
v -0.21188442 0.44468513 0.031343125
v -0.19144103 0.44042873 0.031343125
v -0.21742816 0.4681127 0.047331143
v -0.19144332 0.4438108 0.039675985
v -0.16544397 0.5200969 0.047331143
v -0.154791 0.5060899 0.04668172
v -0.19143608 0.4941048 0.05146194
v -0.1774658 0.4801345 0.050336406
v -0.172487 0.44794756 0.039833374
v -0.17951871 0.45750824 0.046662994
v -0.17100765 0.44470516 0.031343132
v -0.15355065 0.4562194 0.031343132
v -0.1914619 0.45276073 0.04527383
v -0.1914748 0.4677751 0.049383692
v -0.15621048 0.4588792 0.03999263
v -0.1651064 0.49414352 0.0493837
v -0.15483949 0.48218745 0.04666302
v -0.16553113 0.46819982 0.047299333
v -0.14527887 0.4751557 0.03983338
v -0.14203644 0.47367635 0.031343132
v -0.13776001 0.49410975 0.031343132
v -0.14114206 0.49411204 0.039676
v -0.150092 0.4941306 0.045273855
v -0.14524978 0.5130828 0.039840862
v -0.1420164 0.5145531 0.031343132
vt 0.1953125 2.9379745
vt 0.26475024 2.9314654
vt 0.25433135 2.9182305
vt 0.32404637 2.9120147
vt 0.1953125 2.9237766
vt 0.24718857 2.898629
vt 0.30534863 2.9026556
vt 0.13629198 2.9182305
vt 0.14343596 2.898629
vt 0.125875 2.9314654
vt 0.066580296 2.9120147
vt 0.085276365 2.9026556
vt 0.33660078 2.877163
vt 0.2974968 2.8735595
vt 0.36306763 2.8823905
vt 0.3761506 2.8476558
vt 0.28292322 2.8913958
vt 0.34774733 2.8476558
vt 0.1953125 2.901903
vt 0.1953125 2.876743
vt 0.05402589 2.877163
vt 0.09312701 2.8735595
vt 0.027557135 2.8823905
vt 0.014472246 2.8476558
vt 0.10770178 2.8913958
vt 0.042876005 2.8476558
vt 0.2503209 2.8750713
vt 0.25373673 2.8476558
vt 0.14030409 2.8750713
vt 0.13688803 2.8476558
vt 0.05402565 2.8181505
vt 0.093126774 2.821753
vt 0.027557373 2.8129222
vt 0.066580296 2.783299
vt 0.08648014 2.8476558
vt 0.0852766 2.7926579
vt 0.3041432 2.8476558
vt 0.2974968 2.821753
vt 0.1953125 2.8476558
vt 0.1953125 2.8185687
vt 0.13629174 2.7770848
vt 0.14343596 2.7966845
vt 0.125875 2.7638485
vt 0.1953125 2.7573395
vt 0.10770178 2.8039167
vt 0.14030409 2.8202422
vt 0.1953125 2.771537
vt 0.2503209 2.8202422
vt 0.24718857 2.7966845
vt 0.1953125 2.7934096
vt 0.2543311 2.777083
vt 0.26475024 2.7638485
vt 0.32404613 2.783299
vt 0.30534863 2.7926579
vt 0.28292298 2.803917
vt 0.33660078 2.8181505
vt 0.36306763 2.8129222
vn -0.590069 0.590069 0.55103284
vn -0.3185631 0.77373224 0.54759103
vn -0.25827828 0.64652044 0.7178466
vn -0.00045265193 0.8404891 0.5418282
vn -0.48592624 0.48592624 0.726465
vn -0.13761812 0.4146886 0.89949685
vn -0.0005564284 0.7110274 0.70316404
vn -0.6465203 0.25827816 0.7178467
vn -0.4146887 0.13761812 0.8994968
vn -0.7737321 0.3185631 0.54759115
vn -0.84048855 0.0004531667 0.5418291
vn -0.71102697 0.0005568776 0.7031645
vn 0.25771016 0.6473391 0.71731275
vn 0.13669342 0.4151512 0.89942443
vn 0.31814873 0.77447367 0.54678327
vn 0.5905949 0.5905953 0.5499044
vn -0.0006664445 0.5110517 0.85954976
vn 0.4864558 0.4864561 0.72575563
vn -0.2863939 0.28639373 0.91430694
vn -0.11650789 0.116507754 0.9863325
vn -0.6473385 -0.2577092 0.71731365
vn -0.41515076 -0.13669273 0.89942473
vn -0.7744731 -0.31814802 0.54678464
vn -0.59059453 -0.59059435 0.5499058
vn -0.5110516 0.00066682114 0.8595498
vn -0.48645517 -0.4864549 0.7257568
vn -0.00046390164 0.24016285 0.97073245
vn 0.11617926 0.1161795 0.98640996
vn -0.24016291 0.00046396322 0.97073245
vn -0.116179444 -0.1161792 0.98640996
vn -0.25770974 -0.6473384 0.71731347
vn -0.13669309 -0.41515046 0.89942485
vn -0.31814855 -0.77447325 0.546784
vn 0.0004525232 -0.840489 0.54182845
vn -0.2864553 -0.28645495 0.9142685
vn 0.0005563642 -0.7110269 0.70316464
vn 0.2864557 0.2864558 0.9142682
vn 0.415151 0.13669339 0.89942455
vn -1.8174714E-07 0 1
vn 0.11650763 -0.116507754 0.9863325
vn 0.25827795 -0.64652026 0.7178468
vn 0.13761784 -0.41468844 0.899497
vn 0.31856284 -0.77373254 0.5475907
vn 0.59006935 -0.59006923 0.5510322
vn 0.00066657003 -0.51105124 0.85955
vn 0.00046383994 -0.24016263 0.97073257
vn 0.48592642 -0.4859264 0.7264648
vn 0.24016276 -0.0004636551 0.97073257
vn 0.41468892 -0.13761808 0.8994968
vn 0.28639373 -0.2863938 0.91430694
vn 0.646521 -0.25827822 0.7178461
vn 0.77373314 -0.3185631 0.54758984
vn 0.84048957 -0.0004526519 0.5418275
vn 0.7110278 -0.0005564284 0.7031637
vn 0.51105195 -0.0006663817 0.8595496
vn 0.64733905 0.25771016 0.7173129
vn 0.7744736 0.31814906 0.54678315
g pm0680_00_EyeB2Skin_0
f 3/3/3 2/2/2 1/1/1
f 4/4/4 2/2/2 3/3/3
f 5/5/5 3/3/3 1/1/1
f 6/6/6 3/3/3 5/5/5
f 7/7/7 4/4/4 3/3/3
f 7/7/7 3/3/3 6/6/6
f 5/5/5 1/1/1 8/8/8
f 5/5/5 8/8/8 9/9/9
f 1/1/1 10/10/10 8/8/8
f 8/8/8 10/10/10 11/11/11
f 12/12/12 8/8/8 11/11/11
f 9/9/9 8/8/8 12/12/12
f 7/7/7 13/13/13 4/4/4
f 14/14/14 13/13/13 7/7/7
f 13/13/13 15/15/15 4/4/4
f 16/16/16 15/15/15 13/13/13
f 17/17/17 7/7/7 6/6/6
f 17/17/17 14/14/14 7/7/7
f 17/17/17 6/6/6 14/14/14
f 18/18/18 16/16/16 13/13/13
f 18/18/18 13/13/13 14/14/14
f 19/19/19 6/6/6 5/5/5
f 19/19/19 5/5/5 9/9/9
f 19/19/19 20/20/20 6/6/6
f 19/19/19 9/9/9 20/20/20
f 12/12/12 11/11/11 21/21/21
f 12/12/12 21/21/21 22/22/22
f 11/11/11 23/23/23 21/21/21
f 21/21/21 23/23/23 24/24/24
f 25/25/25 9/9/9 12/12/12
f 25/25/25 12/12/12 22/22/22
f 25/25/25 22/22/22 9/9/9
f 26/26/26 21/21/21 24/24/24
f 22/22/22 21/21/21 26/26/26
f 6/6/6 27/27/27 14/14/14
f 20/20/20 27/27/27 6/6/6
f 14/14/14 27/27/27 28/28/28
f 28/28/28 27/27/27 20/20/20
f 22/22/22 29/29/29 9/9/9
f 9/9/9 29/29/29 20/20/20
f 30/30/30 29/29/29 22/22/22
f 20/20/20 29/29/29 30/30/30
f 26/26/26 24/24/24 31/31/31
f 26/26/26 31/31/31 32/32/32
f 24/24/24 33/33/33 31/31/31
f 31/31/31 33/33/33 34/34/34
f 35/35/35 22/22/22 26/26/26
f 35/35/35 30/30/30 22/22/22
f 35/35/35 26/26/26 32/32/32
f 35/35/35 32/32/32 30/30/30
f 36/36/36 31/31/31 34/34/34
f 32/32/32 31/31/31 36/36/36
f 37/37/37 14/14/14 28/28/28
f 37/37/37 28/28/28 38/38/38
f 37/37/37 18/18/18 14/14/14
f 37/37/37 38/38/38 18/18/18
f 39/39/39 28/28/28 20/20/20
f 39/39/39 20/20/20 30/30/30
f 39/39/39 40/40/40 28/28/28
f 39/39/39 30/30/30 40/40/40
f 36/36/36 34/34/34 41/41/41
f 36/36/36 41/41/41 42/42/42
f 34/34/34 43/43/43 41/41/41
f 41/41/41 43/43/43 44/44/44
f 45/45/45 32/32/32 36/36/36
f 45/45/45 36/36/36 42/42/42
f 45/45/45 42/42/42 32/32/32
f 32/32/32 46/46/46 30/30/30
f 30/30/30 46/46/46 40/40/40
f 42/42/42 46/46/46 32/32/32
f 40/40/40 46/46/46 42/42/42
f 47/47/47 41/41/41 44/44/44
f 42/42/42 41/41/41 47/47/47
f 40/40/40 48/48/48 28/28/28
f 49/49/49 48/48/48 40/40/40
f 28/28/28 48/48/48 38/38/38
f 38/38/38 48/48/48 49/49/49
f 50/50/50 40/40/40 42/42/42
f 50/50/50 42/42/42 47/47/47
f 50/50/50 49/49/49 40/40/40
f 50/50/50 47/47/47 49/49/49
f 47/47/47 44/44/44 51/51/51
f 47/47/47 51/51/51 49/49/49
f 44/44/44 52/52/52 51/51/51
f 51/51/51 52/52/52 53/53/53
f 49/49/49 51/51/51 54/54/54
f 54/54/54 51/51/51 53/53/53
f 55/55/55 38/38/38 49/49/49
f 55/55/55 49/49/49 54/54/54
f 55/55/55 54/54/54 38/38/38
f 54/54/54 53/53/53 56/56/56
f 54/54/54 56/56/56 38/38/38
f 53/53/53 57/57/57 56/56/56
f 38/38/38 56/56/56 18/18/18
f 56/56/56 57/57/57 16/16/16
f 18/18/18 56/56/56 16/16/16
