g pm0676_12_Eye123Skin
v -0.068651624 1.0008929 0.5192198
v -0.057050433 0.99532384 0.5406306
v -0.07881331 0.993211 0.5505962
v -0.04657422 0.9803901 0.558044
v -0.08860857 0.99804294 0.5308918
v -0.098577276 0.9943139 0.5144639
v -0.07841413 0.9984897 0.5002219
v -0.09539414 0.9881784 0.53151625
v -0.10700798 0.98564535 0.50200653
v -0.08725327 0.9893723 0.48800242
v -0.09069219 0.98023605 0.47750407
v -0.06994942 0.980305 0.56554884
v -0.05840254 0.96135384 0.5742555
v -0.04150077 0.9605585 0.56833214
v -0.040199075 0.9415084 0.57148147
v -0.07525598 0.9720722 0.56510913
v -0.055352107 0.9430771 0.5766659
v -0.04088923 0.929623 0.57165736
v -0.086289346 0.9827225 0.5495623
v -0.066001944 0.96245885 0.5717259
v -0.06695373 0.9507873 0.5715451
v -0.0672263 0.93554294 0.56935406
v -0.053311437 0.92871255 0.5755411
v -0.03952465 0.91235423 0.58597153
v -0.08040219 0.9596942 0.56177855
v -0.09160131 0.96920234 0.5457262
v -0.09541518 0.9526009 0.53940433
v -0.10046991 0.97629005 0.5274137
v -0.0817405 0.94411117 0.55650014
v -0.10128808 0.9876503 0.5168837
v -0.10606338 0.98224974 0.51065195
v -0.10790696 0.9689585 0.5011619
v -0.08028631 0.9317629 0.5502634
v -0.1033408 0.96134484 0.520834
v -0.10013432 0.9499474 0.5127537
v -0.11030611 0.97558856 0.48444998
v -0.09190086 0.94082314 0.5317741
v -0.11303701 0.9760465 0.46908462
v -0.0971483 0.97959965 0.46382722
v -0.11403775 0.97676647 0.4549113
v -0.10307663 0.97939223 0.44974646
v -0.114298426 0.97525 0.45245934
v -0.10290412 0.97733396 0.44703242
v -0.1121414 0.97092015 0.46362484
v -0.10912555 0.9643781 0.47904995
v -0.11347446 0.97252876 0.45335475
v -0.101965375 0.9731607 0.44710124
v -0.10972353 0.9678204 0.45993432
v -0.098519474 0.9666875 0.45541477
v -0.103292786 0.95912445 0.47436908
v -0.092542455 0.95823056 0.46846095
v -0.097198635 0.95217556 0.48693025
v -0.08735135 0.95055145 0.48123083
v -0.105403885 0.9580212 0.49343735
v -0.08989439 0.9443794 0.50235355
v -0.08140899 0.94215155 0.49605596
v -0.08014434 0.9353443 0.52225995
v -0.07202068 0.93206656 0.51635087
v -0.07112962 0.9268552 0.54196316
v -0.06188564 0.9234263 0.5359092
v -0.06278349 0.9202355 0.55822533
v -0.053089608 0.9175754 0.5519629
v -0.06824286 0.924334 0.5647102
v -0.055946834 0.9139326 0.57366645
v -0.04623737 0.911413 0.5683195
v -0.05773517 0.91775113 0.57661545
v -0.049122967 0.90998137 0.58452505
v -0.039872166 0.908146 0.5853487
v -0.047666993 0.9117291 0.5861865
v -0.039250813 0.9089633 0.58711475
v -0.047538687 0.9140661 0.5860499
v 0.068651624 1.0008929 0.5192198
v 0.07881331 0.993211 0.5505962
v 0.057050433 0.99532384 0.5406306
v 0.04657422 0.9803901 0.558044
v 0.08860857 0.99804294 0.5308918
v 0.098577276 0.9943139 0.5144639
v 0.07841413 0.9984897 0.5002219
v 0.09539414 0.9881784 0.53151625
v 0.10700798 0.98564535 0.50200653
v 0.08725327 0.9893723 0.48800242
v 0.09069219 0.98023605 0.47750407
v 0.06994942 0.980305 0.56554884
v 0.05840254 0.96135384 0.5742555
v 0.04150077 0.9605585 0.56833214
v 0.040199075 0.9415084 0.57148147
v 0.07525598 0.9720722 0.56510913
v 0.055352107 0.9430771 0.5766659
v 0.04088923 0.929623 0.57165736
v 0.086289346 0.9827225 0.5495623
v 0.066001944 0.96245885 0.5717259
v 0.06695373 0.9507873 0.5715451
v 0.0672263 0.93554294 0.56935406
v 0.053311437 0.92871255 0.5755411
v 0.03952465 0.91235423 0.58597153
v 0.08040219 0.9596942 0.56177855
v 0.09160131 0.96920234 0.5457262
v 0.09541518 0.9526009 0.53940433
v 0.10046991 0.97629005 0.5274137
v 0.0817405 0.94411117 0.55650014
v 0.10128808 0.9876503 0.5168837
v 0.10606338 0.98224974 0.51065195
v 0.10790696 0.9689585 0.5011619
v 0.08028631 0.9317629 0.5502634
v 0.1033408 0.96134484 0.520834
v 0.10013432 0.9499474 0.5127537
v 0.11030611 0.97558856 0.48444998
v 0.09190086 0.94082314 0.5317741
v 0.11303701 0.9760465 0.46908462
v 0.0971483 0.97959965 0.46382722
v 0.11403775 0.97676647 0.4549113
v 0.10307663 0.97939223 0.44974646
v 0.114298426 0.97525 0.45245934
v 0.10290412 0.97733396 0.44703242
v 0.1121414 0.97092015 0.46362484
v 0.10912555 0.9643781 0.47904995
v 0.11347446 0.97252876 0.45335475
v 0.101965375 0.9731607 0.44710124
v 0.10972353 0.9678204 0.45993432
v 0.098519474 0.9666875 0.45541477
v 0.103292786 0.95912445 0.47436908
v 0.092542455 0.95823056 0.46846095
v 0.097198635 0.95217556 0.48693025
v 0.08735135 0.95055145 0.48123083
v 0.105403885 0.9580212 0.49343735
v 0.08989439 0.9443794 0.50235355
v 0.08140899 0.94215155 0.49605596
v 0.08014434 0.9353443 0.52225995
v 0.07202068 0.93206656 0.51635087
v 0.07112962 0.9268552 0.54196316
v 0.06188564 0.9234263 0.5359092
v 0.06278349 0.9202355 0.55822533
v 0.053089608 0.9175754 0.5519629
v 0.06824286 0.924334 0.5647102
v 0.055946834 0.9139326 0.57366645
v 0.04623737 0.911413 0.5683195
v 0.05773517 0.91775113 0.57661545
v 0.049122967 0.90998137 0.58452505
v 0.039872166 0.908146 0.5853487
v 0.047666993 0.9117291 0.5861865
v 0.039250813 0.9089633 0.58711475
v 0.047538687 0.9140661 0.5860499
vt 0.43052757 0.9838316
vt 0.4408691 0.98468757
vt 0.44028097 0.9750885
vt 0.45077658 0.97450703
vt 0.4315464 0.9734993
vt 0.42466265 0.96644247
vt 0.42258322 0.9743055
vt 0.43253577 0.9596837
vt 0.42003316 0.952526
vt 0.41733956 0.9589374
vt 0.4136507 0.9479845
vt 0.4482003 0.96594584
vt 0.45335513 0.95098925
vt 0.45751286 0.9561868
vt 0.46116966 0.937547
vt 0.44605035 0.95534253
vt 0.4565766 0.933764
vt 0.46271002 0.9262324
vt 0.4393502 0.9598919
vt 0.4506668 0.9485263
vt 0.4513259 0.93753386
vt 0.45204514 0.92252547
vt 0.45829445 0.9194483
vt 0.468576 0.9102026
vt 0.44498128 0.9408244
vt 0.4384089 0.94452703
vt 0.4375 0.9296875
vt 0.43193293 0.946055
vt 0.4446897 0.9261471
vt 0.42724442 0.95492446
vt 0.4253618 0.9475288
vt 0.4235891 0.9365372
vt 0.44464463 0.9136607
vt 0.43090594 0.93293405
vt 0.42959625 0.920526
vt 0.41681397 0.939873
vt 0.43671882 0.9169316
vt 0.41038114 0.9330446
vt 0.4085331 0.94193476
vt 0.40671408 0.92942286
vt 0.3999526 0.9307777
vt 0.40611732 0.92443866
vt 0.399765 0.9246103
vt 0.41042608 0.9252438
vt 0.41660935 0.9253882
vt 0.4065382 0.9194584
vt 0.40018463 0.91634864
vt 0.4093848 0.91739047
vt 0.40842777 0.91135424
vt 0.41565162 0.9145592
vt 0.41445267 0.9072652
vt 0.42083967 0.91076213
vt 0.4199103 0.9026227
vt 0.42233127 0.923951
vt 0.42745256 0.9063354
vt 0.42628157 0.8975289
vt 0.4358176 0.9022218
vt 0.43520778 0.8922655
vt 0.44415796 0.90118307
vt 0.44413304 0.8900334
vt 0.45127642 0.89881855
vt 0.45137346 0.89012593
vt 0.45177633 0.91083634
vt 0.45780182 0.89819485
vt 0.4584353 0.8913457
vt 0.45794678 0.9076069
vt 0.46194834 0.89706707
vt 0.46804118 0.89361966
vt 0.46255225 0.90377915
vt 0.4685651 0.89877087
vt 0.46250737 0.90945834
vt 0.43052757 0.9838316
vt 0.44028097 0.9750885
vt 0.44086903 0.98468757
vt 0.45077658 0.97450703
vt 0.4315465 0.9734993
vt 0.42466265 0.96644247
vt 0.42258322 0.9743055
vt 0.43253565 0.9596837
vt 0.42003316 0.952526
vt 0.41733956 0.9589374
vt 0.41365063 0.9479845
vt 0.44820035 0.96594584
vt 0.45335513 0.95098925
vt 0.4575128 0.9561868
vt 0.46116972 0.937547
vt 0.44605035 0.95534253
vt 0.45657653 0.933764
vt 0.46271002 0.9262324
vt 0.4393502 0.9598919
vt 0.4506668 0.9485263
vt 0.4513259 0.93753386
vt 0.45204508 0.92252547
vt 0.45829445 0.9194483
vt 0.46857595 0.9102026
vt 0.44498122 0.9408244
vt 0.43840897 0.94452703
vt 0.4375 0.9296875
vt 0.43193293 0.946055
vt 0.4446897 0.9261471
vt 0.42724437 0.95492446
vt 0.42536175 0.9475288
vt 0.42358905 0.9365372
vt 0.44464463 0.9136607
vt 0.43090594 0.93293405
vt 0.42959625 0.920526
vt 0.41681403 0.939873
vt 0.43671876 0.9169316
vt 0.41038114 0.9330446
vt 0.40853316 0.94193476
vt 0.40671402 0.92942286
vt 0.3999526 0.9307777
vt 0.40611732 0.92443866
vt 0.399765 0.9246103
vt 0.41042608 0.9252438
vt 0.41660935 0.9253882
vt 0.4065382 0.9194584
vt 0.40018463 0.91634864
vt 0.40938485 0.91739047
vt 0.40842783 0.91135424
vt 0.41565162 0.9145592
vt 0.41445267 0.9072652
vt 0.42083967 0.91076213
vt 0.41991025 0.9026227
vt 0.4223312 0.923951
vt 0.42745262 0.9063354
vt 0.42628163 0.8975289
vt 0.4358176 0.9022218
vt 0.43520772 0.8922655
vt 0.44415796 0.90118307
vt 0.44413292 0.8900334
vt 0.45127636 0.89881855
vt 0.45137346 0.89012593
vt 0.45177633 0.91083634
vt 0.45780182 0.89819485
vt 0.4584353 0.8913457
vt 0.45794678 0.9076069
vt 0.4619484 0.89706707
vt 0.46804124 0.89361966
vt 0.4625522 0.90377915
vt 0.4685651 0.89877087
vt 0.4625073 0.90945834
vn -0.34330735 0.9039782 0.25487918
vn -0.17583102 0.820695 0.5436389
vn -0.40490517 0.6806484 0.61054873
vn -0.023364455 0.61472946 0.7883919
vn -0.55328083 0.7576195 0.34625548
vn -0.67250365 0.72766703 0.13505384
vn -0.4850181 0.8742164 0.022430563
vn -0.78633493 0.4540435 0.4189532
vn -0.80507094 0.5925605 0.027069801
vn -0.5930524 0.7995954 -0.09453112
vn -0.66329825 0.73944545 -0.115134165
vn -0.24608745 0.49737734 0.83189946
vn -0.14620516 0.29389447 0.94458985
vn 0.060257886 0.3808589 0.9226676
vn 0.045776874 0.22969209 0.9721862
vn -0.5326759 0.26241127 0.8046097
vn -0.18561542 0.13611881 0.9731488
vn -0.042692404 0.16702719 0.98502755
vn -0.68522936 0.37605476 0.6237335
vn -0.39336824 0.17511767 0.9025494
vn -0.48677817 0.021242047 0.8732673
vn -0.6202308 -0.19433567 0.7599654
vn -0.33162472 -0.0009338018 0.94341093
vn -0.13035534 0.06764651 0.98915696
vn -0.69328713 0.010276999 0.7205882
vn -0.83471835 0.06227084 0.547145
vn -0.87964463 -0.2663473 0.39406148
vn -0.914877 0.14646448 0.376229
vn -0.77981967 -0.27252638 0.56356966
vn -0.8270432 0.49666592 0.26329184
vn -0.93058026 0.2985813 0.21182448
vn -0.99134606 -0.04085345 0.124756016
vn -0.7447728 -0.6027744 0.28631547
vn -0.9465861 -0.20124568 0.25194243
vn -0.8203387 -0.56952876 0.051781554
vn -0.94228166 0.33357066 -0.028912643
vn -0.7814683 -0.6049324 0.15285331
vn -0.8914247 0.4349928 -0.12705567
vn -0.6560595 0.73805225 -0.15768613
vn -0.8364794 0.4671546 -0.28647655
vn -0.6991645 0.6230642 -0.3506565
vn -0.8905187 -0.02383283 -0.45432192
vn -0.78091604 0.112625845 -0.6143985
vn -0.94746953 -0.21016556 -0.24110559
vn -0.9252878 -0.36022523 -0.11866043
vn -0.7254153 -0.4524916 -0.51867527
vn -0.63835096 -0.44969183 -0.62472814
vn -0.6910632 -0.62213176 -0.36794505
vn -0.5297869 -0.70996046 -0.46398503
vn -0.649365 -0.7158568 -0.2566596
vn -0.48246253 -0.8058171 -0.34334895
vn -0.6209608 -0.76097816 -0.18793598
vn -0.47559997 -0.83751327 -0.26902843
vn -0.8676273 -0.49640003 -0.028458282
vn -0.6049433 -0.78575796 -0.12895003
vn -0.48308787 -0.8501397 -0.20949608
vn -0.59303665 -0.80273086 -0.06269537
vn -0.48629624 -0.860106 -0.15405732
vn -0.5851238 -0.8107916 0.015724184
vn -0.48126155 -0.8709036 -0.09956995
vn -0.5834937 -0.80227345 0.12606512
vn -0.4754437 -0.87956554 -0.017825728
vn -0.69814175 -0.54585063 0.46329805
vn -0.56455284 -0.7656174 0.30839926
vn -0.46738207 -0.86914015 0.16170755
vn -0.5918428 -0.428059 0.6829991
vn -0.50688916 -0.68659884 0.5211962
vn -0.43324214 -0.7509125 0.4984292
vn -0.45244223 -0.33438262 0.8267311
vn -0.32236144 -0.33522156 0.88527375
vn -0.2714099 0.023307977 0.96218157
vn 0.3433071 0.9039782 0.25487942
vn 0.40490496 0.6806479 0.6105493
vn 0.17583066 0.8206948 0.54363936
vn 0.023364251 0.6147293 0.7883921
vn 0.5532805 0.75761944 0.34625632
vn 0.6725034 0.7276671 0.13505466
vn 0.485018 0.8742165 0.022430832
vn 0.7863345 0.45404315 0.4189543
vn 0.805071 0.59256035 0.027070796
vn 0.5930523 0.7995955 -0.09453059
vn 0.66329837 0.7394455 -0.11513283
vn 0.24608728 0.4973769 0.8318997
vn 0.1462051 0.2938944 0.94458985
vn -0.06025793 0.38085863 0.9226676
vn -0.045776602 0.22969204 0.9721862
vn 0.5326759 0.26241103 0.8046097
vn 0.18561557 0.13611881 0.9731488
vn 0.042692855 0.1670274 0.98502755
vn 0.68522894 0.37605447 0.6237341
vn 0.39336848 0.17511751 0.90254927
vn 0.48677823 0.021241909 0.8732673
vn 0.6202309 -0.19433564 0.7599653
vn 0.33162498 -0.0009335156 0.9434108
vn 0.13035546 0.06764773 0.98915684
vn 0.6932873 0.010276865 0.7205881
vn 0.8347181 0.062270544 0.54714537
vn 0.87964445 -0.2663474 0.3940617
vn 0.9148767 0.14646433 0.37622976
vn 0.77981955 -0.2725264 0.56356966
vn 0.8270429 0.49666566 0.26329318
vn 0.9305801 0.29858103 0.21182546
vn 0.99134594 -0.04085359 0.12475658
vn 0.7447726 -0.6027744 0.28631595
vn 0.94658595 -0.20124583 0.2519427
vn 0.8203386 -0.56952894 0.051781684
vn 0.9422818 0.33357054 -0.028911244
vn 0.78146815 -0.6049325 0.15285382
vn 0.8914252 0.43499288 -0.12705278
vn 0.65605974 0.73805255 -0.15768342
vn 0.8364805 0.46715492 -0.28647265
vn 0.6991657 0.62306505 -0.3506527
vn 0.89052063 -0.02383309 -0.45431823
vn 0.7809186 0.11262646 -0.61439514
vn 0.9474701 -0.21016616 -0.24110289
vn 0.92528784 -0.3602255 -0.11865927
vn 0.7254167 -0.45249227 -0.51867265
vn 0.63835293 -0.44969213 -0.624726
vn 0.6910638 -0.6221322 -0.36794332
vn 0.52978766 -0.70996064 -0.4639837
vn 0.6493651 -0.715857 -0.25665876
vn 0.48246282 -0.80581737 -0.3433483
vn 0.62096083 -0.7609783 -0.18793572
vn 0.4755998 -0.8375134 -0.26902816
vn 0.86762726 -0.49640012 -0.028458003
vn 0.6049431 -0.7857581 -0.12894997
vn 0.48308775 -0.8501398 -0.20949589
vn 0.59303653 -0.8027309 -0.06269505
vn 0.4862963 -0.860106 -0.15405715
vn 0.58512384 -0.8107915 0.015724564
vn 0.4812616 -0.8709036 -0.099569775
vn 0.58349395 -0.8022733 0.12606512
vn 0.47544384 -0.87956554 -0.017825987
vn 0.6981418 -0.5458505 0.46329823
vn 0.56455314 -0.7656172 0.3083993
vn 0.46738252 -0.86913997 0.16170755
vn 0.5918429 -0.42805848 0.68299913
vn 0.5068894 -0.6865978 0.5211971
vn 0.4332424 -0.7509114 0.49843052
vn 0.45244214 -0.3343812 0.82673174
vn 0.32236108 -0.33521932 0.8852747
vn 0.27140987 0.023308817 0.96218157
g pm0676_12_Eye123Skin_0
f 3/3/3 2/2/2 1/1/1
f 4/4/4 2/2/2 3/3/3
f 5/5/5 3/3/3 1/1/1
f 5/5/5 1/1/1 6/6/6
f 1/1/1 7/7/7 6/6/6
f 5/5/5 8/8/8 3/3/3
f 5/5/5 6/6/6 8/8/8
f 6/6/6 7/7/7 9/9/9
f 7/7/7 10/10/10 9/9/9
f 9/9/9 10/10/10 11/11/11
f 12/12/12 4/4/4 3/3/3
f 12/12/12 13/13/13 4/4/4
f 13/13/13 14/14/14 4/4/4
f 15/15/15 14/14/14 13/13/13
f 12/12/12 3/3/3 16/16/16
f 12/12/12 16/16/16 13/13/13
f 17/17/17 15/15/15 13/13/13
f 18/18/18 15/15/15 17/17/17
f 8/8/8 19/19/19 3/3/3
f 3/3/3 19/19/19 16/16/16
f 16/16/16 20/20/20 13/13/13
f 13/13/13 20/20/20 17/17/17
f 21/21/21 20/20/20 16/16/16
f 20/20/20 21/21/21 17/17/17
f 17/17/17 21/21/21 22/22/22
f 23/23/23 18/18/18 17/17/17
f 23/23/23 17/17/17 22/22/22
f 24/24/24 18/18/18 23/23/23
f 25/25/25 21/21/21 16/16/16
f 16/16/16 19/19/19 25/25/25
f 22/22/22 21/21/21 25/25/25
f 26/26/26 19/19/19 8/8/8
f 19/19/19 26/26/26 25/25/25
f 25/25/25 26/26/26 27/27/27
f 28/28/28 26/26/26 8/8/8
f 27/27/27 26/26/26 28/28/28
f 29/29/29 22/22/22 25/25/25
f 29/29/29 25/25/25 27/27/27
f 8/8/8 30/30/30 28/28/28
f 6/6/6 30/30/30 8/8/8
f 31/31/31 30/30/30 6/6/6
f 30/30/30 31/31/31 28/28/28
f 28/28/28 31/31/31 32/32/32
f 9/9/9 31/31/31 6/6/6
f 32/32/32 31/31/31 9/9/9
f 29/29/29 33/33/33 22/22/22
f 29/29/29 27/27/27 33/33/33
f 34/34/34 28/28/28 32/32/32
f 34/34/34 27/27/27 28/28/28
f 34/34/34 35/35/35 27/27/27
f 34/34/34 32/32/32 35/35/35
f 36/36/36 32/32/32 9/9/9
f 36/36/36 9/9/9 11/11/11
f 27/27/27 37/37/37 33/33/33
f 35/35/35 37/37/37 27/27/27
f 38/38/38 36/36/36 11/11/11
f 39/39/39 38/38/38 11/11/11
f 40/40/40 38/38/38 39/39/39
f 41/41/41 40/40/40 39/39/39
f 40/40/40 41/41/41 42/42/42
f 40/40/40 42/42/42 38/38/38
f 41/41/41 43/43/43 42/42/42
f 38/38/38 44/44/44 36/36/36
f 42/42/42 44/44/44 38/38/38
f 36/36/36 45/45/45 32/32/32
f 44/44/44 45/45/45 36/36/36
f 42/42/42 43/43/43 46/46/46
f 43/43/43 47/47/47 46/46/46
f 46/46/46 48/48/48 42/42/42
f 46/46/46 47/47/47 48/48/48
f 48/48/48 44/44/44 42/42/42
f 47/47/47 49/49/49 48/48/48
f 48/48/48 50/50/50 44/44/44
f 48/48/48 49/49/49 50/50/50
f 50/50/50 45/45/45 44/44/44
f 49/49/49 51/51/51 50/50/50
f 52/52/52 50/50/50 51/51/51
f 50/50/50 52/52/52 45/45/45
f 53/53/53 52/52/52 51/51/51
f 45/45/45 54/54/54 32/32/32
f 52/52/52 54/54/54 45/45/45
f 32/32/32 54/54/54 35/35/35
f 55/55/55 52/52/52 53/53/53
f 54/54/54 52/52/52 55/55/55
f 35/35/35 54/54/54 55/55/55
f 56/56/56 55/55/55 53/53/53
f 55/55/55 57/57/57 35/35/35
f 57/57/57 55/55/55 56/56/56
f 57/57/57 37/37/37 35/35/35
f 58/58/58 57/57/57 56/56/56
f 37/37/37 57/57/57 59/59/59
f 59/59/59 57/57/57 58/58/58
f 60/60/60 59/59/59 58/58/58
f 33/33/33 37/37/37 59/59/59
f 61/61/61 59/59/59 60/60/60
f 59/59/59 61/61/61 33/33/33
f 62/62/62 61/61/61 60/60/60
f 61/61/61 63/63/63 33/33/33
f 33/33/33 63/63/63 22/22/22
f 64/64/64 61/61/61 62/62/62
f 63/63/63 61/61/61 64/64/64
f 65/65/65 64/64/64 62/62/62
f 22/22/22 63/63/63 66/66/66
f 66/66/66 63/63/63 64/64/64
f 23/23/23 22/22/22 66/66/66
f 67/67/67 64/64/64 65/65/65
f 68/68/68 67/67/67 65/65/65
f 67/67/67 69/69/69 64/64/64
f 67/67/67 68/68/68 69/69/69
f 69/69/69 66/66/66 64/64/64
f 68/68/68 70/70/70 69/69/69
f 69/69/69 70/70/70 24/24/24
f 71/71/71 23/23/23 66/66/66
f 71/71/71 24/24/24 23/23/23
f 71/71/71 69/69/69 24/24/24
f 69/69/69 71/71/71 66/66/66
f 74/74/74 73/73/73 72/72/72
f 74/74/74 75/75/75 73/73/73
f 73/73/73 76/76/76 72/72/72
f 72/72/72 76/76/76 77/77/77
f 78/78/78 72/72/72 77/77/77
f 79/79/79 76/76/76 73/73/73
f 77/77/77 76/76/76 79/79/79
f 78/78/78 77/77/77 80/80/80
f 81/81/81 78/78/78 80/80/80
f 81/81/81 80/80/80 82/82/82
f 75/75/75 83/83/83 73/73/73
f 84/84/84 83/83/83 75/75/75
f 85/85/85 84/84/84 75/75/75
f 85/85/85 86/86/86 84/84/84
f 73/73/73 83/83/83 87/87/87
f 87/87/87 83/83/83 84/84/84
f 86/86/86 88/88/88 84/84/84
f 86/86/86 89/89/89 88/88/88
f 90/90/90 79/79/79 73/73/73
f 90/90/90 73/73/73 87/87/87
f 91/91/91 87/87/87 84/84/84
f 91/91/91 84/84/84 88/88/88
f 91/91/91 92/92/92 87/87/87
f 92/92/92 91/91/91 88/88/88
f 92/92/92 88/88/88 93/93/93
f 89/89/89 94/94/94 88/88/88
f 88/88/88 94/94/94 93/93/93
f 89/89/89 95/95/95 94/94/94
f 92/92/92 96/96/96 87/87/87
f 90/90/90 87/87/87 96/96/96
f 92/92/92 93/93/93 96/96/96
f 90/90/90 97/97/97 79/79/79
f 97/97/97 90/90/90 96/96/96
f 97/97/97 96/96/96 98/98/98
f 97/97/97 99/99/99 79/79/79
f 97/97/97 98/98/98 99/99/99
f 93/93/93 100/100/100 96/96/96
f 96/96/96 100/100/100 98/98/98
f 101/101/101 79/79/79 99/99/99
f 101/101/101 77/77/77 79/79/79
f 101/101/101 102/102/102 77/77/77
f 102/102/102 101/101/101 99/99/99
f 102/102/102 99/99/99 103/103/103
f 102/102/102 80/80/80 77/77/77
f 102/102/102 103/103/103 80/80/80
f 104/104/104 100/100/100 93/93/93
f 98/98/98 100/100/100 104/104/104
f 99/99/99 105/105/105 103/103/103
f 98/98/98 105/105/105 99/99/99
f 106/106/106 105/105/105 98/98/98
f 103/103/103 105/105/105 106/106/106
f 103/103/103 107/107/107 80/80/80
f 80/80/80 107/107/107 82/82/82
f 108/108/108 98/98/98 104/104/104
f 108/108/108 106/106/106 98/98/98
f 107/107/107 109/109/109 82/82/82
f 109/109/109 110/110/110 82/82/82
f 109/109/109 111/111/111 110/110/110
f 111/111/111 112/112/112 110/110/110
f 112/112/112 111/111/111 113/113/113
f 113/113/113 111/111/111 109/109/109
f 114/114/114 112/112/112 113/113/113
f 115/115/115 109/109/109 107/107/107
f 115/115/115 113/113/113 109/109/109
f 116/116/116 107/107/107 103/103/103
f 116/116/116 115/115/115 107/107/107
f 114/114/114 113/113/113 117/117/117
f 118/118/118 114/114/114 117/117/117
f 119/119/119 117/117/117 113/113/113
f 118/118/118 117/117/117 119/119/119
f 115/115/115 119/119/119 113/113/113
f 120/120/120 118/118/118 119/119/119
f 121/121/121 119/119/119 115/115/115
f 120/120/120 119/119/119 121/121/121
f 116/116/116 121/121/121 115/115/115
f 122/122/122 120/120/120 121/121/121
f 121/121/121 123/123/123 122/122/122
f 123/123/123 121/121/121 116/116/116
f 123/123/123 124/124/124 122/122/122
f 125/125/125 116/116/116 103/103/103
f 125/125/125 123/123/123 116/116/116
f 125/125/125 103/103/103 106/106/106
f 123/123/123 126/126/126 124/124/124
f 123/123/123 125/125/125 126/126/126
f 125/125/125 106/106/106 126/126/126
f 126/126/126 127/127/127 124/124/124
f 128/128/128 126/126/126 106/106/106
f 126/126/126 128/128/128 127/127/127
f 108/108/108 128/128/128 106/106/106
f 128/128/128 129/129/129 127/127/127
f 128/128/128 108/108/108 130/130/130
f 128/128/128 130/130/130 129/129/129
f 130/130/130 131/131/131 129/129/129
f 108/108/108 104/104/104 130/130/130
f 130/130/130 132/132/132 131/131/131
f 132/132/132 130/130/130 104/104/104
f 132/132/132 133/133/133 131/131/131
f 134/134/134 132/132/132 104/104/104
f 134/134/134 104/104/104 93/93/93
f 132/132/132 135/135/135 133/133/133
f 132/132/132 134/134/134 135/135/135
f 135/135/135 136/136/136 133/133/133
f 134/134/134 93/93/93 137/137/137
f 134/134/134 137/137/137 135/135/135
f 93/93/93 94/94/94 137/137/137
f 135/135/135 138/138/138 136/136/136
f 138/138/138 139/139/139 136/136/136
f 140/140/140 138/138/138 135/135/135
f 139/139/139 138/138/138 140/140/140
f 137/137/137 140/140/140 135/135/135
f 141/141/141 139/139/139 140/140/140
f 141/141/141 140/140/140 95/95/95
f 94/94/94 142/142/142 137/137/137
f 95/95/95 142/142/142 94/94/94
f 140/140/140 142/142/142 95/95/95
f 142/142/142 140/140/140 137/137/137
