g pm0631_00_TongueBSkin
v -0.024114992 1.3368982 0.5651367
v -0.03410375 1.3610524 0.5651367
v -0.03700315 1.3610524 0.596268
v -0.02435257 1.3610557 0.5333604
v -0.026165174 1.334848 0.596268
v -2.153192E-31 1.3269094 0.5651367
v -0.0371737 1.3610518 0.62712675
v -0.01721987 1.3437932 0.5333604
v -0.026285777 1.3347273 0.62712675
v -0.03349239 1.361052 0.65367275
v -0.0017995103 1.3592137 0.50328696
v -0.002544894 1.3610524 0.50328696
v -1.5789828E-31 1.3610524 0.5016246
v -1.5884721E-31 1.3584682 0.50328696
v -2.6112467E-31 1.32401 0.596268
v -0.02368269 1.337364 0.65367275
v -0.027697682 1.3610523 0.6784729
v -1.9184101E-31 1.3366606 0.5333604
v 0.0017995103 1.3592137 0.50328696
v 0.002544894 1.3610524 0.50328696
v 0.02435257 1.3610557 0.5333604
v 0.01721987 1.3437932 0.5333604
v 0.024114992 1.3368982 0.5651367
v 0.03410375 1.3610524 0.5651367
v 0.03700315 1.3610524 0.596268
v 0.026165174 1.334848 0.596268
v 0.0371737 1.3610518 0.62712675
v 0.026285777 1.3347273 0.62712675
v 0.03349239 1.361052 0.65367275
v -2.8633425E-31 1.3238395 0.62712675
v 0.02368269 1.337364 0.65367275
v 0.027697682 1.3610523 0.6784729
v -3.1440585E-31 1.3275543 0.65367275
v 0.019585213 1.3414398 0.6784729
v 0.021910558 1.3610525 0.69998574
v -0.019585213 1.3414398 0.6784729
v -0.021910558 1.3610525 0.69998574
v -3.4417932E-31 1.3333273 0.6784729
v 0.015493098 1.3455219 0.69998574
v 0.0168438 1.3610525 0.7181767
v -0.015493098 1.3455219 0.69998574
v -0.0168438 1.3610525 0.7181767
v 0.011910368 1.3491029 0.7181767
v 0.011974479 1.3610524 0.7352708
v -3.6593736E-31 1.3391044 0.69998574
v -0.011910368 1.3491029 0.7181767
v -0.011974479 1.3610524 0.7352708
v 0.008467236 1.3525461 0.7352708
v 0.007974258 1.3610524 0.7507636
v -3.80052E-31 1.3441694 0.7181767
v -0.008467236 1.3525461 0.7352708
v -0.007974258 1.3610524 0.7507636
v -4.1380504E-31 1.3490387 0.7352708
v 0.0056386534 1.3553745 0.7507636
v -0.0056386534 1.3553745 0.7507636
v 0.0031220822 1.3578911 0.7662422
v -4.477785E-31 1.356598 0.7662422
v 0.0044152886 1.3610524 0.7662422
v 0.0010598036 1.3610524 0.78178006
v -4.3240564E-31 1.3530389 0.7507636
v -0.0031220822 1.3578911 0.7662422
v -0.0044152886 1.3610524 0.7662422
v -0.0010598036 1.3610524 0.78178006
v 0.0007493967 1.3602638 0.78178006
v -4.653185E-31 1.3610524 0.7829365
v -0.0007493967 1.3602638 0.78178006
v -4.654069E-31 1.3599534 0.78178006
v -0.002544894 1.3610524 0.50328696
v -0.01721987 1.378233 0.5333604
v -0.02435257 1.3610557 0.5333604
v -0.03410375 1.3610524 0.5651367
v -0.0017995103 1.3628128 0.50328696
v -1.7839348E-31 1.3853656 0.5333604
v -1.5789828E-31 1.3610524 0.5016246
v -0.024114992 1.3851281 0.5651367
v -1.573415E-31 1.363558 0.50328696
v 0.0017995103 1.3628128 0.50328696
v 0.002544894 1.3610524 0.50328696
v 0.01721987 1.378233 0.5333604
v 0.02435257 1.3610557 0.5333604
v 0.03410375 1.3610524 0.5651367
v 0.024114992 1.3851281 0.5651367
v -0.026165174 1.3871784 0.596268
v -0.03700315 1.3610524 0.596268
v -1.9749593E-31 1.3951168 0.5651367
v -2.4434028E-31 1.3980162 0.596268
v 0.026165174 1.3871784 0.596268
v 0.03700315 1.3610524 0.596268
v -0.026285777 1.3872988 0.62712675
v -0.0371737 1.3610518 0.62712675
v -2.7049884E-31 1.3981869 0.62712675
v 0.026285777 1.3872988 0.62712675
v 0.0371737 1.3610518 0.62712675
v -0.02368269 1.3847294 0.65367275
v -0.03349239 1.361052 0.65367275
v -3.008652E-31 1.394539 0.65367275
v 0.02368269 1.3847294 0.65367275
v 0.03349239 1.361052 0.65367275
v -0.019585213 1.3806102 0.6784729
v -0.027697682 1.3610523 0.6784729
v -3.332545E-31 1.3887227 0.6784729
v 0.019585213 1.3806102 0.6784729
v 0.027697682 1.3610523 0.6784729
v -0.015493098 1.3765081 0.69998574
v -0.021910558 1.3610525 0.69998574
v -3.572952E-31 1.3829254 0.69998574
v 0.015493098 1.3765081 0.69998574
v 0.021910558 1.3610525 0.69998574
v -0.011910368 1.3729237 0.7181767
v -0.0168438 1.3610525 0.7181767
v -3.7340829E-31 1.377857 0.7181767
v 0.011910368 1.3729237 0.7181767
v 0.0168438 1.3610525 0.7181767
v -0.008467236 1.3694804 0.7352708
v -0.011974479 1.3610524 0.7352708
v -4.090819E-31 1.3729877 0.7352708
v -4.292604E-31 1.3689874 0.7507636
v 0.008467236 1.3694804 0.7352708
v 0.011974479 1.3610524 0.7352708
v -0.005638653 1.3666518 0.7507636
v -0.007974258 1.3610524 0.7507636
v -0.0044152886 1.3610524 0.7662422
v 0.005638653 1.3666518 0.7507636
v 0.007974258 1.3610524 0.7507636
v 0.0044152886 1.3610524 0.7662422
v -0.0031220817 1.3641353 0.7662422
v 0.0031220817 1.3641353 0.7662422
v -0.00074939645 1.3617626 0.78178006
v -0.0010598036 1.3610524 0.78178006
v -4.653185E-31 1.3610524 0.7829365
v -4.46037E-31 1.3654284 0.7662422
v -4.649889E-31 1.3620731 0.78178006
v 0.00074939645 1.3617626 0.78178006
v 0.0010598036 1.3610524 0.78178006
vt 0.4366119 0.66900265
vt 0.3689568 0.6690026
vt 0.35358295 0.71231604
vt 0.40543807 0.6255165
vt 0.42940885 0.71231586
vt 0.5 0.66900265
vt 0.3513037 0.75647664
vt 0.45298946 0.6255164
vt 0.42853045 0.75647646
vt 0.3626997 0.7952519
vt 0.47234696 0.59639627
vt 0.44761062 0.59639627
vt 0.5 0.5783016
vt 0.5000001 0.59639627
vt 0.5 0.71231604
vt 0.43306744 0.79525197
vt 0.38278455 0.83073497
vt 0.5 0.62551636
vt 0.52765286 0.59639627
vt 0.5523893 0.59639627
vt 0.5945619 0.6255164
vt 0.54701054 0.6255165
vt 0.5633881 0.66900265
vt 0.63104314 0.66900265
vt 0.646417 0.712316
vt 0.5705911 0.7123159
vt 0.6486963 0.75647664
vt 0.5714695 0.75647646
vt 0.6373003 0.79525185
vt 0.5 0.75647646
vt 0.56693256 0.7952519
vt 0.61721545 0.83073497
vt 0.5 0.79525197
vt 0.55825484 0.830735
vt 0.59612286 0.8612954
vt 0.44174513 0.8307351
vt 0.40387714 0.8612954
vt 0.5 0.83073515
vt 0.5482662 0.8612954
vt 0.57638824 0.8882838
vt 0.4517338 0.8612954
vt 0.42361173 0.8882838
vt 0.5384968 0.8882838
vt 0.5555372 0.9139751
vt 0.5 0.8612954
vt 0.46150318 0.8882838
vt 0.44446275 0.913975
vt 0.5281508 0.913975
vt 0.5368663 0.9369427
vt 0.5 0.8882839
vt 0.47184917 0.913975
vt 0.4631337 0.93694276
vt 0.5 0.913975
vt 0.51868 0.93694293
vt 0.48132 0.9369429
vt 0.51366115 0.9519922
vt 0.5 0.9519922
vt 0.5272258 0.9519922
vt 0.51654804 0.96852565
vt 0.5 0.9369428
vt 0.48633876 0.9519922
vt 0.4727742 0.9519922
vt 0.48345184 0.96852565
vt 0.5078746 0.96852565
vt 0.5 0.9835352
vt 0.49212506 0.96852565
vt 0.49999976 0.96852565
vt 0.5523893 0.59639627
vt 0.54719007 0.62551624
vt 0.5945606 0.62551624
vt 0.6310345 0.66900265
vt 0.52765286 0.59639627
vt 0.5 0.62551624
vt 0.5 0.5783016
vt 0.5635617 0.66900265
vt 0.5 0.59639627
vt 0.47234696 0.59639627
vt 0.44761062 0.59639627
vt 0.4528099 0.62551624
vt 0.4054394 0.62551624
vt 0.3689655 0.66900265
vt 0.4364383 0.66900265
vt 0.5707466 0.71231604
vt 0.64640814 0.71231604
vt 0.5 0.66900265
vt 0.5 0.7123159
vt 0.4292534 0.71231604
vt 0.35359186 0.71231604
vt 0.5716512 0.75647664
vt 0.64872587 0.7564765
vt 0.5 0.7564765
vt 0.4283488 0.75647664
vt 0.35127416 0.7564765
vt 0.5670221 0.79525197
vt 0.6373788 0.79525185
vt 0.5 0.79525197
vt 0.43297789 0.79525197
vt 0.36262122 0.79525185
vt 0.5584128 0.8307351
vt 0.6172636 0.83073497
vt 0.5 0.83073497
vt 0.44158724 0.8307351
vt 0.38273638 0.83073497
vt 0.5484382 0.86129534
vt 0.5960957 0.86129534
vt 0.5 0.86129534
vt 0.45156178 0.86129534
vt 0.40390432 0.86129534
vt 0.53866506 0.88828385
vt 0.57634544 0.88828385
vt 0.5 0.88828385
vt 0.46133497 0.88828385
vt 0.4236546 0.88828385
vt 0.5283174 0.913975
vt 0.55550504 0.913975
vt 0.5 0.913975
vt 0.5 0.9369427
vt 0.4716826 0.913975
vt 0.44449496 0.913975
vt 0.51882577 0.9369428
vt 0.5367985 0.9369427
vt 0.5272258 0.95199215
vt 0.4811742 0.9369428
vt 0.46320155 0.9369427
vt 0.4727742 0.95199215
vt 0.51366115 0.9519923
vt 0.48633876 0.9519923
vt 0.5078746 0.96852565
vt 0.51654804 0.96852565
vt 0.5 0.9835352
vt 0.5 0.9519923
vt 0.5 0.96852565
vt 0.49212506 0.96852565
vt 0.48345184 0.96852565
vn -0.6752167 -0.67462546 -0.29826626
vn -0.95453304 0.0006528897 -0.29810432
vn -0.9966679 0.0004323414 -0.08156555
vn -0.8130836 0.0016127403 -0.5821447
vn -0.7049497 -0.70456195 -0.08147722
vn -0 -0.9544674 -0.29831532
vn -0.99668556 0.00035140017 0.08134938
vn -0.5753235 -0.5737708 -0.58291507
vn -0.7049107 -0.7045943 0.08153372
vn -0.978036 0.00030713572 0.20843592
vn -0.35987294 -0.35656184 -0.8621805
vn -0.5085613 0.00337057 -0.8610192
vn -0 0.0040990417 -0.99999166
vn -3.7943346E-07 -0.50580615 -0.8626472
vn -0 -0.9966787 -0.081435464
vn -0.691701 -0.6914303 0.20850359
vn -0.9576697 0.00037142038 0.2878693
vn -0 -0.8123331 -0.58319384
vn 0.35987288 -0.35656273 -0.8621802
vn 0.50856125 0.0033696603 -0.8610193
vn 0.8130836 0.0016122876 -0.5821446
vn 0.57532346 -0.57377124 -0.58291465
vn 0.67521685 -0.6746255 -0.2982659
vn 0.9545331 0.0006528898 -0.29810423
vn 0.9966679 0.00043234136 -0.0815657
vn 0.7049497 -0.70456195 -0.081477135
vn 0.99668556 0.00035140011 0.08134936
vn 0.70491076 -0.7045943 0.08153389
vn 0.97803587 0.0003074399 0.20843604
vn -0 -0.9966641 0.081612214
vn 0.6917012 -0.69143003 0.208504
vn 0.9576697 0.00037202256 0.28786927
vn -0 -0.9780171 0.20852485
vn 0.67735684 -0.67703307 0.28777403
vn 0.9462159 0.0005917179 0.32353547
vn -0.6773567 -0.67703325 0.28777367
vn -0.9462158 0.0005914185 0.32353586
vn -0 -0.9577163 0.2877142
vn 0.6693536 -0.66883236 0.32346398
vn 0.94320035 0.0009186714 0.33222327
vn -0.66935337 -0.6688328 0.32346386
vn -0.94320023 0.00091867166 0.33222362
vn 0.66733664 -0.6665196 0.33228505
vn 0.9466272 0.0014402599 0.32232732
vn 1.4980156E-07 -0.9462585 0.32341126
vn -0.6673367 -0.66651964 0.33228487
vn -0.9466273 0.0014405593 0.322327
vn 0.66996056 -0.66869 0.3225004
vn 0.94952446 0.0025897 0.31368232
vn -0 -0.9431836 0.3322719
vn -0.66996104 -0.6686899 0.32249957
vn -0.94952446 0.0025897012 0.3136826
vn -4.496016E-07 -0.9465643 0.3225151
vn 0.6724295 -0.6701187 0.31429207
vn -0.6724302 -0.67011845 0.31429115
vn 0.6475202 -0.64204675 0.41047972
vn -1.3193262E-06 -0.91148686 0.41132918
vn 0.9129437 0.005779676 0.40804458
vn 0.7055787 0.012100901 0.70852816
vn -9.779047E-07 -0.94926596 0.31447464
vn -0.6475206 -0.6420455 0.410481
vn -0.9129425 0.005779368 0.4080472
vn -0.705575 0.0121008465 0.70853186
vn 0.50122577 -0.4894935 0.7135607
vn -8.0009545E-07 0.016568147 0.9998628
vn -0.50122565 -0.48949128 0.7135623
vn -1.9806375E-06 -0.69855607 0.7155553
vn -0.5085613 0.00337057 -0.8610192
vn -0.5745465 0.57611114 -0.58137095
vn -0.8130836 0.0016127403 -0.5821447
vn -0.95453304 0.0006528897 -0.29810432
vn -0.35934114 0.36266607 -0.8598531
vn -0 0.8138431 -0.5810847
vn -0 0.0040990417 -0.99999166
vn -0.67469496 0.6752918 -0.29793906
vn 1.5151197E-07 0.5113317 -0.85938346
vn 0.35934123 0.36266527 -0.8598533
vn 0.50856125 0.0033696603 -0.8610193
vn 0.5745467 0.5761109 -0.5813712
vn 0.8130836 0.0016122876 -0.5821446
vn 0.9545331 0.0006528898 -0.29810423
vn 0.6746949 0.67529184 -0.29793918
vn -0.7045506 0.7049405 -0.081654005
vn -0.9966679 0.0004323414 -0.08156555
vn 1.5368158E-07 0.9546004 -0.2978893
vn -0 0.9966574 -0.081695646
vn 0.7045507 0.7049404 -0.08165406
vn 0.9966679 0.00043234136 -0.0815657
vn -0.7046147 0.704933 0.081164844
vn -0.99668556 0.00035140017 0.08134938
vn -0 0.99670714 0.081086144
vn 0.7046147 0.70493287 0.08116468
vn 0.99668556 0.00035140011 0.08134936
vn -0.6914499 0.6917224 0.20836796
vn -0.978036 0.00030713572 0.20843592
vn 1.5211013E-07 0.9780552 0.2083463
vn 0.69144994 0.69172245 0.20836765
vn 0.97803587 0.0003074399 0.20843604
vn -0.6769917 0.67731744 0.2879641
vn -0.9576697 0.00037142038 0.2878693
vn -0 0.9576234 0.28802297
vn 0.676992 0.6773174 0.28796366
vn 0.9576697 0.00037202256 0.28786927
vn -0.6687968 0.6693203 0.3236066
vn -0.9462158 0.0005914185 0.32353586
vn -0 0.94617414 0.32365793
vn 0.66879696 0.6693204 0.323606
vn 0.9462159 0.0005917179 0.32353547
vn -0.6665486 0.6673693 0.33216134
vn -0.94320023 0.00091867166 0.33222362
vn -0 0.9432183 0.33217347
vn 0.66654885 0.6673695 0.33216065
vn 0.94320035 0.0009186714 0.33222327
vn -0.66876835 0.6700498 0.32215214
vn -0.9466273 0.0014405593 0.322327
vn -0 0.94669366 0.32213524
vn -2.2525491E-07 0.94979346 0.31287768
vn 0.6687686 0.6700498 0.3221519
vn 0.9466272 0.0014402599 0.32232732
vn -0.6703812 0.67274094 0.31306353
vn -0.94952446 0.0025897012 0.3136826
vn -0.9129425 0.005779368 0.4080472
vn 0.6703812 0.672741 0.3130632
vn 0.94952446 0.0025897 0.31368232
vn 0.9129437 0.005779676 0.40804458
vn -0.64354813 0.6491023 0.40560064
vn 0.64354837 0.6491036 0.40559816
vn -0.49659753 0.5084068 0.7035008
vn -0.705575 0.0121008465 0.70853186
vn -8.0009545E-07 0.016568147 0.9998628
vn -6.9470906E-07 0.9144397 0.40472203
vn -1.515513E-06 0.71265626 0.7015133
vn 0.49659836 0.5084093 0.7034985
vn 0.7055787 0.012100901 0.70852816
g pm0631_00_TongueBSkin_0
f 3/3/3 2/2/2 1/1/1
f 2/2/2 4/4/4 1/1/1
f 5/5/5 3/3/3 1/1/1
f 5/5/5 1/1/1 6/6/6
f 3/3/3 5/5/5 7/7/7
f 4/4/4 8/8/8 1/1/1
f 1/1/1 8/8/8 6/6/6
f 5/5/5 9/9/9 7/7/7
f 10/10/10 7/7/7 9/9/9
f 8/8/8 4/4/4 11/11/11
f 4/4/4 12/12/12 11/11/11
f 13/13/13 11/11/11 12/12/12
f 8/8/8 11/11/11 14/14/14
f 13/13/13 14/14/14 11/11/11
f 15/15/15 5/5/5 6/6/6
f 5/5/5 15/15/15 9/9/9
f 16/16/16 10/10/10 9/9/9
f 17/17/17 10/10/10 16/16/16
f 18/18/18 8/8/8 14/14/14
f 8/8/8 18/18/18 6/6/6
f 14/14/14 13/13/13 19/19/19
f 19/19/19 13/13/13 20/20/20
f 20/20/20 21/21/21 19/19/19
f 22/22/22 18/18/18 14/14/14
f 19/19/19 22/22/22 14/14/14
f 21/21/21 22/22/22 19/19/19
f 18/18/18 22/22/22 6/6/6
f 22/22/22 21/21/21 23/23/23
f 22/22/22 23/23/23 6/6/6
f 21/21/21 24/24/24 23/23/23
f 24/24/24 25/25/25 23/23/23
f 23/23/23 26/26/26 6/6/6
f 25/25/25 26/26/26 23/23/23
f 26/26/26 25/25/25 27/27/27
f 26/26/26 15/15/15 6/6/6
f 28/28/28 26/26/26 27/27/27
f 15/15/15 26/26/26 28/28/28
f 27/27/27 29/29/29 28/28/28
f 30/30/30 15/15/15 28/28/28
f 15/15/15 30/30/30 9/9/9
f 16/16/16 9/9/9 30/30/30
f 29/29/29 31/31/31 28/28/28
f 28/28/28 31/31/31 30/30/30
f 29/29/29 32/32/32 31/31/31
f 33/33/33 16/16/16 30/30/30
f 31/31/31 33/33/33 30/30/30
f 32/32/32 34/34/34 31/31/31
f 31/31/31 34/34/34 33/33/33
f 32/32/32 35/35/35 34/34/34
f 36/36/36 16/16/16 33/33/33
f 36/36/36 17/17/17 16/16/16
f 37/37/37 17/17/17 36/36/36
f 34/34/34 38/38/38 33/33/33
f 38/38/38 36/36/36 33/33/33
f 35/35/35 39/39/39 34/34/34
f 34/34/34 39/39/39 38/38/38
f 35/35/35 40/40/40 39/39/39
f 41/41/41 37/37/37 36/36/36
f 41/41/41 36/36/36 38/38/38
f 42/42/42 37/37/37 41/41/41
f 40/40/40 43/43/43 39/39/39
f 40/40/40 44/44/44 43/43/43
f 39/39/39 45/45/45 38/38/38
f 45/45/45 41/41/41 38/38/38
f 39/39/39 43/43/43 45/45/45
f 46/46/46 42/42/42 41/41/41
f 46/46/46 41/41/41 45/45/45
f 47/47/47 42/42/42 46/46/46
f 44/44/44 48/48/48 43/43/43
f 44/44/44 49/49/49 48/48/48
f 43/43/43 50/50/50 45/45/45
f 50/50/50 46/46/46 45/45/45
f 43/43/43 48/48/48 50/50/50
f 51/51/51 47/47/47 46/46/46
f 51/51/51 46/46/46 50/50/50
f 52/52/52 47/47/47 51/51/51
f 48/48/48 53/53/53 50/50/50
f 53/53/53 51/51/51 50/50/50
f 49/49/49 54/54/54 48/48/48
f 48/48/48 54/54/54 53/53/53
f 55/55/55 52/52/52 51/51/51
f 55/55/55 51/51/51 53/53/53
f 54/54/54 49/49/49 56/56/56
f 54/54/54 56/56/56 57/57/57
f 49/49/49 58/58/58 56/56/56
f 58/58/58 59/59/59 56/56/56
f 54/54/54 60/60/60 53/53/53
f 60/60/60 55/55/55 53/53/53
f 60/60/60 54/54/54 57/57/57
f 55/55/55 60/60/60 57/57/57
f 52/52/52 55/55/55 61/61/61
f 61/61/61 55/55/55 57/57/57
f 62/62/62 52/52/52 61/61/61
f 63/63/63 62/62/62 61/61/61
f 59/59/59 64/64/64 56/56/56
f 56/56/56 64/64/64 57/57/57
f 59/59/59 65/65/65 64/64/64
f 66/66/66 63/63/63 61/61/61
f 66/66/66 61/61/61 57/57/57
f 65/65/65 63/63/63 66/66/66
f 64/64/64 67/67/67 57/57/57
f 67/67/67 66/66/66 57/57/57
f 65/65/65 67/67/67 64/64/64
f 67/67/67 65/65/65 66/66/66
f 70/70/70 69/69/69 68/68/68
f 69/69/69 70/70/70 71/71/71
f 69/69/69 72/72/72 68/68/68
f 69/69/69 73/73/73 72/72/72
f 74/74/74 68/68/68 72/72/72
f 75/75/75 69/69/69 71/71/71
f 73/73/73 69/69/69 75/75/75
f 74/74/74 72/72/72 76/76/76
f 73/73/73 76/76/76 72/72/72
f 77/77/77 74/74/74 76/76/76
f 76/76/76 73/73/73 77/77/77
f 78/78/78 74/74/74 77/77/77
f 77/77/77 79/79/79 78/78/78
f 73/73/73 79/79/79 77/77/77
f 79/79/79 80/80/80 78/78/78
f 80/80/80 79/79/79 81/81/81
f 79/79/79 73/73/73 82/82/82
f 79/79/79 82/82/82 81/81/81
f 83/83/83 75/75/75 71/71/71
f 84/84/84 83/83/83 71/71/71
f 85/85/85 73/73/73 75/75/75
f 73/73/73 85/85/85 82/82/82
f 86/86/86 85/85/85 75/75/75
f 85/85/85 86/86/86 82/82/82
f 83/83/83 86/86/86 75/75/75
f 82/82/82 87/87/87 81/81/81
f 86/86/86 87/87/87 82/82/82
f 87/87/87 88/88/88 81/81/81
f 83/83/83 84/84/84 89/89/89
f 84/84/84 90/90/90 89/89/89
f 86/86/86 83/83/83 91/91/91
f 87/87/87 86/86/86 91/91/91
f 83/83/83 89/89/89 91/91/91
f 88/88/88 87/87/87 92/92/92
f 92/92/92 87/87/87 91/91/91
f 93/93/93 88/88/88 92/92/92
f 94/94/94 89/89/89 90/90/90
f 95/95/95 94/94/94 90/90/90
f 96/96/96 91/91/91 89/89/89
f 91/91/91 96/96/96 92/92/92
f 94/94/94 96/96/96 89/89/89
f 92/92/92 97/97/97 93/93/93
f 96/96/96 97/97/97 92/92/92
f 97/97/97 98/98/98 93/93/93
f 99/99/99 94/94/94 95/95/95
f 100/100/100 99/99/99 95/95/95
f 101/101/101 96/96/96 94/94/94
f 96/96/96 101/101/101 97/97/97
f 99/99/99 101/101/101 94/94/94
f 97/97/97 102/102/102 98/98/98
f 101/101/101 102/102/102 97/97/97
f 102/102/102 103/103/103 98/98/98
f 104/104/104 99/99/99 100/100/100
f 105/105/105 104/104/104 100/100/100
f 106/106/106 101/101/101 99/99/99
f 101/101/101 106/106/106 102/102/102
f 104/104/104 106/106/106 99/99/99
f 102/102/102 107/107/107 103/103/103
f 106/106/106 107/107/107 102/102/102
f 107/107/107 108/108/108 103/103/103
f 109/109/109 104/104/104 105/105/105
f 110/110/110 109/109/109 105/105/105
f 111/111/111 106/106/106 104/104/104
f 106/106/106 111/111/111 107/107/107
f 109/109/109 111/111/111 104/104/104
f 107/107/107 112/112/112 108/108/108
f 111/111/111 112/112/112 107/107/107
f 112/112/112 113/113/113 108/108/108
f 114/114/114 109/109/109 110/110/110
f 115/115/115 114/114/114 110/110/110
f 116/116/116 111/111/111 109/109/109
f 111/111/111 116/116/116 112/112/112
f 114/114/114 116/116/116 109/109/109
f 117/117/117 116/116/116 114/114/114
f 112/112/112 118/118/118 113/113/113
f 116/116/116 118/118/118 112/112/112
f 116/116/116 117/117/117 118/118/118
f 118/118/118 119/119/119 113/113/113
f 120/120/120 114/114/114 115/115/115
f 120/120/120 117/117/117 114/114/114
f 121/121/121 120/120/120 115/115/115
f 120/120/120 121/121/121 122/122/122
f 118/118/118 123/123/123 119/119/119
f 117/117/117 123/123/123 118/118/118
f 123/123/123 124/124/124 119/119/119
f 124/124/124 123/123/123 125/125/125
f 126/126/126 120/120/120 122/122/122
f 117/117/117 120/120/120 126/126/126
f 123/123/123 127/127/127 125/125/125
f 123/123/123 117/117/117 127/127/127
f 128/128/128 126/126/126 122/122/122
f 129/129/129 128/128/128 122/122/122
f 130/130/130 128/128/128 129/129/129
f 131/131/131 117/117/117 126/126/126
f 117/117/117 131/131/131 127/127/127
f 128/128/128 132/132/132 126/126/126
f 132/132/132 131/131/131 126/126/126
f 128/128/128 130/130/130 132/132/132
f 131/131/131 132/132/132 127/127/127
f 127/127/127 133/133/133 125/125/125
f 132/132/132 133/133/133 127/127/127
f 130/130/130 133/133/133 132/132/132
f 133/133/133 134/134/134 125/125/125
f 133/133/133 130/130/130 134/134/134
