g pm0627_00_LCloseWingSkin
v 0.049105372 0.07944158 -0.06868814
v 0.0525621 0.07667027 -0.07595859
v 0.05373617 0.08193566 -0.073337145
v 0.053040832 0.10446151 -0.05552548
v 0.05771588 0.09620983 -0.06609914
v 0.061433304 0.08964335 -0.06764088
v 0.06813064 0.10662458 -0.05772021
v 0.06967994 0.10094811 -0.05697423
v 0.08160627 0.11736687 -0.03637235
v 0.076100655 0.1257616 -0.03802268
v 0.09049739 0.13110115 -0.0107016275
v 0.057910487 0.10736385 -0.056056622
v 0.06278014 0.11026619 -0.056587763
v 0.069326125 0.13166524 -0.03851022
v 0.0647141 0.1301358 -0.036568165
v 0.060102064 0.12860638 -0.034626115
v 0.082120165 0.14246473 -0.013836073
v 0.07297275 0.1488376 -0.015157761
v 0.06782673 0.1482793 -0.014264952
v 0.062680714 0.14772101 -0.013372145
v 0.061446473 0.15923013 0.01294183
v 0.067490764 0.1591618 0.0127960425
v 0.05993502 0.16390255 0.034372285
v 0.08364525 0.15278539 0.014751465
v 0.09143194 0.14262338 0.018279742
v 0.08286242 0.15760024 0.03676022
v 0.08993748 0.14799698 0.040775426
v 0.07353506 0.1590935 0.012650256
v 0.066886045 0.16374955 0.034140795
v 0.07383707 0.16359656 0.03390931
v 0.06463391 0.16154473 0.05857867
v 0.056791052 0.16129555 0.057495814
v 0.072476774 0.16179387 0.05966153
v 0.062226627 0.15354985 0.074279666
v 0.053905766 0.15309753 0.07244295
v 0.060316157 0.13560216 0.08680023
v 0.051774483 0.1351066 0.08458112
v 0.068857834 0.13609773 0.08901933
v 0.07054749 0.15400216 0.076116376
v 0.08144771 0.15642177 0.055604823
v 0.080469914 0.14942198 0.07004557
v 0.087222986 0.14822324 0.052378397
v 0.090275235 0.14223817 0.060140975
v 0.09062252 0.12829338 0.069751754
v 0.07932597 0.13307664 0.081765726
v 0.097586736 0.13596418 0.045715727
v 0.06908831 0.11402597 0.09066052
v 0.07914012 0.1129905 0.08330008
v 0.0607731 0.113728546 0.08876746
v 0.060316157 0.13560216 0.08680023
v 0.051774483 0.1351066 0.08458112
v 0.052457888 0.113431126 0.086874396
v 0.062292073 0.09738701 0.08192055
v 0.05445832 0.09738742 0.080746874
v 0.070125826 0.09738658 0.0830942
v 0.063824415 0.07987222 0.06465707
v 0.0568853 0.08035149 0.06476985
v 0.06422308 0.06963926 0.04536615
v 0.058192015 0.07006985 0.04538013
v 0.06462504 0.06056483 0.017647339
v 0.059547987 0.061895847 0.017852781
v 0.05770832 0.06302672 -0.010766923
v 0.062165536 0.06031457 -0.011165798
v 0.051728837 0.06851763 -0.042448387
v 0.0697021 0.05923382 0.017441897
v 0.070254155 0.069208674 0.04535217
v 0.07076352 0.079392955 0.06454428
v 0.080220595 0.08522361 0.06309229
v 0.07932658 0.09831023 0.07674697
v 0.089152955 0.11149148 0.07132723
v 0.085540615 0.10213235 0.069147184
v 0.09651331 0.10655631 0.056414902
v 0.08799145 0.09468333 0.060172006
v 0.10144351 0.1212098 0.05136744
v 0.10796838 0.11272134 0.028690562
v 0.10374251 0.09876078 0.033830013
v 0.10477182 0.1269599 0.023570605
v 0.09584866 0.13997214 0.018976292
v 0.09143194 0.14262338 0.018279742
v 0.09049739 0.13110115 -0.0107016275
v 0.095373355 0.12847933 -0.010312784
v 0.10316396 0.11593529 -0.0066607445
v 0.08608389 0.1150869 -0.03613895
v 0.08160627 0.11736687 -0.03637235
v 0.06967994 0.10094811 -0.05697423
v 0.092492886 0.10369758 -0.033669878
v 0.07293939 0.09900391 -0.057255194
v 0.061433304 0.08964335 -0.06764088
v 0.10562485 0.10169309 -0.0018569126
v 0.062269866 0.087943085 -0.06905296
v 0.05373617 0.08193566 -0.073337145
v 0.07667428 0.092135094 -0.05627084
v 0.055443425 0.080742106 -0.07458916
v 0.0525621 0.07667027 -0.07595859
v 0.062805064 0.08415098 -0.06986987
v 0.05447562 0.076593734 -0.075977
v 0.102140106 0.08788529 0.0035444072
v 0.094262674 0.09185653 -0.030033734
v 0.06355501 0.078791484 -0.06902531
v 0.05520653 0.07425221 -0.072228014
v 0.053455763 0.074253686 -0.07054229
v 0.09164936 0.080588505 -0.02526233
v 0.0934745 0.07645758 0.008613777
v 0.077465616 0.08369677 -0.05414696
v 0.076083004 0.07593651 -0.050377473
v 0.06244193 0.0742023 -0.06625034
v 0.061682943 0.07186339 -0.06320284
v 0.060771942 0.071524315 -0.061048817
v 0.07189154 0.07029649 -0.046810847
v 0.068521135 0.06920106 -0.04542401
v 0.08446419 0.07071345 -0.019995
v 0.07984483 0.06910977 -0.01881544
v 0.088432044 0.07451855 0.009884258
v 0.09389479 0.08644347 0.038451098
v 0.089301415 0.08425488 0.039515384
v 0.089301415 0.08425488 0.039515384
v 0.08079599 0.07472653 0.043150857
v 0.088432044 0.07451855 0.009884258
v 0.07926936 0.06436285 0.01457897
v 0.073772915 0.061990317 -0.01482141
v 0.07984483 0.06910977 -0.01881544
v 0.06662275 0.057602424 -0.011564672
v 0.066592485 0.06448441 -0.04238877
v 0.068521135 0.06920106 -0.04542401
v 0.060771942 0.071524315 -0.061048817
v 0.056387708 0.06564537 -0.040878605
v 0.056676533 0.067735545 -0.055739615
v 0.053455763 0.074253686 -0.07054229
v 0.049105372 0.07944158 -0.06868814
v 0.0525621 0.07667027 -0.07595859
v 0.061046585 0.0627731 -0.039308827
v 0.049105372 0.07944158 -0.06868814
v 0.053040832 0.10446151 -0.05552548
v 0.049625125 0.08689006 -0.04860045
v 0.051829025 0.09657914 -0.021240143
v 0.060102064 0.12860638 -0.034626115
v 0.05311109 0.105826795 0.0033699023
v 0.062680714 0.14772101 -0.013372145
v 0.053252533 0.11553143 0.029968832
v 0.061446473 0.15923013 0.01294183
v 0.05252105 0.12285775 0.050117344
v 0.05993502 0.16390255 0.034372285
v 0.05155567 0.12991354 0.06976384
v 0.056791052 0.16129555 0.057495814
v 0.051774483 0.1351066 0.08458112
v 0.053905766 0.15309753 0.07244295
v 0.049105372 0.07944158 -0.06868814
v 0.049625125 0.08689006 -0.04860045
v 0.051728837 0.06851763 -0.042448387
v 0.051829025 0.09657914 -0.021240143
v 0.05770832 0.06302672 -0.010766923
v 0.05311109 0.105826795 0.0033699023
v 0.059547987 0.061895847 0.017852781
v 0.053252533 0.11553143 0.029968832
v 0.058192015 0.07006985 0.04538013
v 0.05252105 0.12285775 0.050117344
v 0.0568853 0.08035149 0.06476985
v 0.05155567 0.12991354 0.06976384
v 0.05445832 0.09738742 0.080746874
v 0.051774483 0.1351066 0.08458112
v 0.052457888 0.113431126 0.086874396
vt 0.5043572 0.56519306
vt 0.5175396 0.5726835
vt 0.5091866 0.580264
vt 0.46697003 0.60943174
vt 0.4902132 0.61120576
vt 0.5010747 0.60885596
vt 0.48237035 0.64365184
vt 0.49039775 0.6435994
vt 0.47879675 0.6996123
vt 0.46465957 0.69825864
vt 0.47386903 0.75641555
vt 0.46998045 0.6240041
vt 0.47299087 0.6385765
vt 0.45020813 0.6932292
vt 0.44277447 0.6870334
vt 0.4353408 0.6808377
vt 0.45430008 0.75638056
vt 0.43591684 0.7563087
vt 0.42718524 0.7562194
vt 0.41845363 0.75613016
vt 0.41571972 0.8271631
vt 0.4259505 0.82523894
vt 0.4312821 0.8910925
vt 0.45503533 0.8209237
vt 0.47311756 0.8189742
vt 0.46289104 0.86421025
vt 0.4792628 0.8600814
vt 0.43618128 0.82331485
vt 0.43657112 0.8812439
vt 0.44657716 0.8713953
vt 0.45938066 0.93230116
vt 0.45516765 0.9464584
vt 0.4683107 0.91814387
vt 0.4823168 0.95856625
vt 0.47616622 0.97766954
vt 0.5175396 0.97077644
vt 0.51753956 0.9932395
vt 0.5175396 0.94831336
vt 0.48846734 0.93946296
vt 0.47651234 0.8962086
vt 0.49282154 0.9145008
vt 0.48490614 0.88116324
vt 0.4971532 0.88691056
vt 0.51753956 0.8924192
vt 0.5175394 0.9223702
vt 0.49795964 0.85622364
vt 0.5465695 0.93947476
vt 0.54221857 0.9145105
vt 0.55272007 0.95858157
vt 0.5175396 0.97077644
vt 0.51753956 0.9932395
vt 0.5588706 0.9776884
vt 0.57565975 0.93232954
vt 0.5804623 0.9464906
vt 0.5667297 0.91816854
vt 0.5984781 0.88127404
vt 0.6043581 0.89112926
vt 0.6091099 0.8252988
vt 0.61521477 0.8272166
vt 0.6078718 0.7562226
vt 0.61660385 0.756133
vt 0.59971416 0.680964
vt 0.592278 0.6871656
vt 0.5668346 0.60911274
vt 0.59913963 0.7563122
vt 0.5988775 0.8233809
vt 0.5884706 0.87141883
vt 0.5726659 0.86501783
vt 0.5591235 0.8979062
vt 0.5378861 0.88691586
vt 0.5501344 0.88117313
vt 0.5370831 0.85623324
vt 0.5557841 0.86009693
vt 0.5175395 0.8540044
vt 0.51753974 0.81609064
vt 0.5354395 0.81658864
vt 0.4996013 0.81657046
vt 0.47970247 0.81798637
vt 0.47311756 0.8189742
vt 0.47386903 0.75641555
vt 0.4809396 0.75645715
vt 0.49953264 0.756504
vt 0.48513946 0.70154834
vt 0.47879675 0.6996123
vt 0.49039775 0.6435994
vt 0.501967 0.70308095
vt 0.49550363 0.64684534
vt 0.5010747 0.60885596
vt 0.51753956 0.75651586
vt 0.50431275 0.60738695
vt 0.5091866 0.580264
vt 0.5059537 0.6495222
vt 0.51217854 0.58192855
vt 0.5175396 0.5726835
vt 0.5096469 0.6046174
vt 0.51753956 0.577252
vt 0.53551406 0.75650436
vt 0.51753956 0.7034381
vt 0.51753974 0.6043871
vt 0.52290154 0.5819371
vt 0.52588993 0.58027595
vt 0.5330847 0.70313704
vt 0.55410504 0.7564582
vt 0.51753956 0.64948416
vt 0.529093 0.64965415
vt 0.5253807 0.60559076
vt 0.5305834 0.60962147
vt 0.53370786 0.61182433
vt 0.53939706 0.64770585
vt 0.54439324 0.6447225
vt 0.5499153 0.70165837
vt 0.55622166 0.69973415
vt 0.5611767 0.7564184
vt 0.5553325 0.8180338
vt 0.56192213 0.81903946
vt 0.56192213 0.81903946
vt 0.5795937 0.82102734
vt 0.5611767 0.7564184
vt 0.58075154 0.7563828
vt 0.5703952 0.69835395
vt 0.55622166 0.69973415
vt 0.5848418 0.69336724
vt 0.5524775 0.6443986
vt 0.54439324 0.6447225
vt 0.53370786 0.61182433
vt 0.565449 0.6238558
vt 0.5448585 0.6112207
vt 0.52588993 0.58027595
vt 0.5307316 0.565198
vt 0.5175396 0.5726835
vt 0.5620726 0.63859886
vt 0.12882198 0.603127
vt 0.14616764 0.6364895
vt 0.12882203 0.6364895
vt 0.12882203 0.6818773
vt 0.16598843 0.6818771
vt 0.12882203 0.7210536
vt 0.17723435 0.72105396
vt 0.12882203 0.7656378
vt 0.17883483 0.7656376
vt 0.12882203 0.7994502
vt 0.17562099 0.7994502
vt 0.12882203 0.8319739
vt 0.16458713 0.8319742
vt 0.12882203 0.8578105
vt 0.15104268 0.8496034
vt 0.12882198 0.603127
vt 0.12882203 0.6364895
vt 0.11189874 0.63648915
vt 0.12882203 0.6818773
vt 0.091991074 0.68187743
vt 0.12882203 0.7210536
vt 0.08078753 0.7210532
vt 0.12882203 0.7656378
vt 0.0792315 0.7656377
vt 0.12882203 0.7994502
vt 0.08248272 0.7994502
vt 0.12882203 0.8319739
vt 0.093552366 0.8319742
vt 0.12882203 0.8578105
vt 0.10711473 0.8496033
vn -0.8699958 -0.062323295 -0.48910433
vn -0.8383632 -0.15891965 -0.5214325
vn -0.7172538 0.19475788 -0.66904145
vn -0.7968038 0.2889612 -0.5306649
vn -0.32137796 0.5418724 -0.7765891
vn 0.13613802 0.46814993 -0.87309915
vn 0.39884272 0.4793177 -0.7817794
vn 0.5468977 0.3936028 -0.7389044
vn 0.690478 0.43732786 -0.5761808
vn 0.5261235 0.56175584 -0.6384548
vn 0.7441619 0.5410514 -0.39177352
vn -0.376751 0.61475277 -0.6929198
vn -0.027638944 0.6225641 -0.7820806
vn 0.09787372 0.73218375 -0.67403835
vn -0.36239517 0.7258309 -0.5846702
vn -0.7798014 0.49157542 -0.38763797
vn 0.59118366 0.671923 -0.44611832
vn 0.21036124 0.8427682 -0.49546927
vn -0.26914096 0.8474372 -0.457617
vn -0.74900913 0.5845872 -0.31183818
vn -0.7118177 0.6696241 -0.21194129
vn -0.17738554 0.94284004 -0.28211167
vn -0.69952136 0.71349764 -0.039888356
vn 0.6216016 0.7491903 -0.22874728
vn 0.7516195 0.62679434 -0.20541896
vn 0.62512517 0.78045475 -0.010429609
vn 0.7610289 0.6477138 -0.03608234
vn 0.28842455 0.9176371 -0.27341062
vn -0.15112236 0.9876736 -0.040780194
vn 0.31243777 0.9497841 -0.017108178
vn -0.16757415 0.94375855 0.28502423
vn -0.7426954 0.6441425 0.182986
vn 0.30377337 0.90544915 0.29645163
vn -0.20455083 0.7426626 0.6376608
vn -0.7282251 0.5697399 0.38089973
vn -0.25367916 0.3389331 0.9059642
vn -0.703223 0.2658006 0.6594145
vn 0.25850138 0.32194036 0.9107862
vn 0.286324 0.709743 0.6436486
vn 0.6329761 0.73355263 0.24747077
vn 0.6512089 0.5621469 0.50982153
vn 0.7658852 0.61456364 0.18902712
vn 0.8212964 0.4482916 0.35285524
vn 0.8435188 0.15617502 0.51389235
vn 0.65369517 0.23754723 0.7185082
vn 0.8963773 0.41228718 0.16287135
vn 0.25501475 -0.1476702 0.9555946
vn 0.6254236 -0.14427325 0.7668315
vn -0.23707819 -0.14501035 0.9606071
vn -0.25367916 0.3389331 0.9059642
vn -0.703223 0.2658006 0.6594145
vn -0.6115752 -0.115783535 0.7826685
vn -0.22145668 -0.5274175 0.8202363
vn -0.7143997 -0.3324022 0.6157448
vn 0.25168258 -0.5211928 0.81548387
vn -0.2155399 -0.771138 0.59907323
vn -0.74526954 -0.5252343 0.4107337
vn -0.24451116 -0.8900353 0.38477466
vn -0.75877184 -0.60127264 0.2504726
vn -0.3339997 -0.9238572 0.18690112
vn -0.79264987 -0.59803456 0.118578695
vn -0.81904876 -0.57372403 5.387678E-05
vn -0.4221432 -0.9064817 0.009281419
vn -0.8464416 -0.48949003 -0.20960924
vn 0.14396983 -0.97554296 0.16609815
vn 0.22222938 -0.8952623 0.38615975
vn 0.2501235 -0.7568746 0.6038038
vn 0.5731555 -0.6433239 0.5075698
vn 0.59005004 -0.44246158 0.6753285
vn 0.7987658 -0.16897017 0.5774273
vn 0.7289399 -0.39760676 0.55727506
vn 0.8715376 -0.26822987 0.41045696
vn 0.71668667 -0.5671073 0.40589356
vn 0.94236416 0.083482765 0.32400697
vn 0.9955641 -0.0021178317 0.0940619
vn 0.9039196 -0.3700089 0.21452907
vn 0.93064696 0.36222297 -0.05187127
vn 0.76345515 0.62071806 -0.1784522
vn 0.668735 0.71061414 -0.21867998
vn 0.5763268 0.6987737 -0.4237485
vn 0.71600926 0.5738902 -0.39746776
vn 0.9097268 0.27930522 -0.30722257
vn 0.63275504 0.49266592 -0.5974122
vn 0.47614536 0.6379269 -0.605256
vn 0.34724134 0.581468 -0.7357434
vn 0.8263059 0.18728536 -0.5311711
vn 0.47617483 0.45212853 -0.754213
vn 0.18382794 0.5014536 -0.8454299
vn 0.979556 -0.09938908 -0.17490505
vn 0.34263003 0.35590208 -0.8694472
vn 0.07277457 0.23480077 -0.96931547
vn 0.6970255 0.122735366 -0.70646405
vn 0.24857561 0.08450758 -0.964919
vn 0.10878882 -0.34336963 -0.93287855
vn 0.46094894 0.104168735 -0.8812916
vn 0.38245514 -0.32819825 -0.863721
vn 0.88240564 -0.4691928 -0.03490411
vn 0.89395505 -0.1816799 -0.4096789
vn 0.59065 -0.29483694 -0.75113493
vn 0.21994483 -0.6998939 -0.67953867
vn 0.034776535 -0.80624026 -0.59056526
vn 0.7998599 -0.53724176 -0.26757354
vn 0.6680602 -0.7397445 0.080458455
vn 0.7719714 -0.24202384 -0.5877794
vn 0.6709335 -0.59209955 -0.44639266
vn 0.4397956 -0.6753794 -0.5919818
vn 0.2985393 -0.85205746 -0.429968
vn 0.13130103 -0.9376384 -0.32186076
vn 0.4600954 -0.8419739 -0.28176597
vn 0.29174715 -0.9389036 -0.18260261
vn 0.58554804 -0.80064666 -0.12687942
vn 0.4197695 -0.90659595 -0.043328274
vn 0.52004915 -0.84304583 0.13719559
vn 0.7175102 -0.6380122 0.27949864
vn 0.61628187 -0.72642523 0.30414316
vn 0.70467937 -0.6592011 0.26245192
vn 0.56653905 -0.75932914 0.3200824
vn 0.6983945 -0.7128092 0.06440619
vn 0.53607535 -0.8378426 0.10316482
vn 0.47375605 -0.8729174 -0.11649191
vn 0.64719564 -0.74845135 -0.14477055
vn 0.034690116 -0.9984112 -0.044402543
vn 0.34872472 -0.89371735 -0.28224158
vn 0.5029556 -0.8102347 -0.30092406
vn 0.08519736 -0.926867 -0.365594
vn -0.431793 -0.89017653 -0.14539807
vn -0.37380183 -0.8917542 -0.25504223
vn -0.65263915 -0.65736556 -0.37673944
vn -0.8699958 -0.062323295 -0.48910433
vn -0.8383632 -0.15891965 -0.5214325
vn -0.08601396 -0.97590417 -0.20053075
vn -0.8699958 -0.062323295 -0.48910433
vn -0.7968038 0.2889612 -0.5306649
vn -0.9652112 -0.057189986 -0.2551406
vn -0.9923465 -0.008126916 -0.12321654
vn -0.7798014 0.49157542 -0.38763797
vn -0.9976197 0.012339896 -0.0678422
vn -0.74900913 0.5845872 -0.31183818
vn -0.9993781 0.03447893 -0.007386347
vn -0.7118177 0.6696241 -0.21194129
vn -0.9887621 0.08215525 0.12490002
vn -0.69952136 0.71349764 -0.039888356
vn -0.91769975 0.16535088 0.36122876
vn -0.7426954 0.6441425 0.182986
vn -0.703223 0.2658006 0.6594145
vn -0.7282251 0.5697399 0.38089973
vn -0.8699958 -0.062323295 -0.48910433
vn -0.9652112 -0.057189986 -0.2551406
vn -0.8464416 -0.48949003 -0.20960924
vn -0.9923465 -0.008126916 -0.12321654
vn -0.81904876 -0.57372403 5.387678E-05
vn -0.9976197 0.012339896 -0.0678422
vn -0.79264987 -0.59803456 0.118578695
vn -0.9993781 0.03447893 -0.007386347
vn -0.75877184 -0.60127264 0.2504726
vn -0.9887621 0.08215525 0.12490002
vn -0.74526954 -0.5252343 0.4107337
vn -0.91769975 0.16535088 0.36122876
vn -0.7143997 -0.3324022 0.6157448
vn -0.703223 0.2658006 0.6594145
vn -0.6115752 -0.115783535 0.7826685
g pm0627_00_LCloseWingSkin_0
f 3/3/3 2/2/2 1/1/1
f 4/4/4 3/3/3 1/1/1
f 5/5/5 3/3/3 4/4/4
f 5/5/5 6/6/6 3/3/3
f 7/7/7 6/6/6 5/5/5
f 6/6/6 7/7/7 8/8/8
f 8/8/8 7/7/7 9/9/9
f 7/7/7 10/10/10 9/9/9
f 9/9/9 10/10/10 11/11/11
f 12/12/12 5/5/5 4/4/4
f 13/13/13 7/7/7 5/5/5
f 12/12/12 13/13/13 5/5/5
f 13/13/13 14/14/14 7/7/7
f 14/14/14 10/10/10 7/7/7
f 14/14/14 13/13/13 12/12/12
f 15/15/15 12/12/12 4/4/4
f 15/15/15 14/14/14 12/12/12
f 16/16/16 15/15/15 4/4/4
f 10/10/10 17/17/17 11/11/11
f 10/10/10 14/14/14 17/17/17
f 18/18/18 14/14/14 15/15/15
f 14/14/14 18/18/18 17/17/17
f 19/19/19 15/15/15 16/16/16
f 19/19/19 18/18/18 15/15/15
f 20/20/20 19/19/19 16/16/16
f 19/19/19 20/20/20 21/21/21
f 22/22/22 19/19/19 21/21/21
f 18/18/18 19/19/19 22/22/22
f 22/22/22 21/21/21 23/23/23
f 17/17/17 24/24/24 11/11/11
f 24/24/24 25/25/25 11/11/11
f 25/25/25 24/24/24 26/26/26
f 27/27/27 25/25/25 26/26/26
f 17/17/17 18/18/18 28/28/28
f 24/24/24 17/17/17 28/28/28
f 28/28/28 18/18/18 22/22/22
f 26/26/26 24/24/24 28/28/28
f 29/29/29 22/22/22 23/23/23
f 28/28/28 22/22/22 29/29/29
f 30/30/30 26/26/26 28/28/28
f 30/30/30 28/28/28 29/29/29
f 29/29/29 23/23/23 31/31/31
f 23/23/23 32/32/32 31/31/31
f 30/30/30 29/29/29 33/33/33
f 26/26/26 30/30/30 33/33/33
f 29/29/29 31/31/31 33/33/33
f 31/31/31 32/32/32 34/34/34
f 32/32/32 35/35/35 34/34/34
f 34/34/34 35/35/35 36/36/36
f 35/35/35 37/37/37 36/36/36
f 34/34/34 36/36/36 38/38/38
f 31/31/31 34/34/34 39/39/39
f 33/33/33 31/31/31 39/39/39
f 39/39/39 34/34/34 38/38/38
f 40/40/40 26/26/26 33/33/33
f 33/33/33 39/39/39 41/41/41
f 40/40/40 33/33/33 41/41/41
f 40/40/40 42/42/42 26/26/26
f 42/42/42 27/27/27 26/26/26
f 43/43/43 42/42/42 40/40/40
f 41/41/41 43/43/43 40/40/40
f 44/44/44 43/43/43 41/41/41
f 41/41/41 39/39/39 45/45/45
f 39/39/39 38/38/38 45/45/45
f 45/45/45 44/44/44 41/41/41
f 42/42/42 43/43/43 46/46/46
f 27/27/27 42/42/42 46/46/46
f 43/43/43 44/44/44 46/46/46
f 38/38/38 47/47/47 45/45/45
f 44/44/44 45/45/45 48/48/48
f 47/47/47 48/48/48 45/45/45
f 49/49/49 47/47/47 38/38/38
f 50/50/50 49/49/49 38/38/38
f 50/50/50 51/51/51 49/49/49
f 51/51/51 52/52/52 49/49/49
f 49/49/49 52/52/52 53/53/53
f 49/49/49 53/53/53 47/47/47
f 52/52/52 54/54/54 53/53/53
f 53/53/53 55/55/55 47/47/47
f 47/47/47 55/55/55 48/48/48
f 53/53/53 54/54/54 56/56/56
f 53/53/53 56/56/56 55/55/55
f 54/54/54 57/57/57 56/56/56
f 58/58/58 56/56/56 57/57/57
f 59/59/59 58/58/58 57/57/57
f 60/60/60 58/58/58 59/59/59
f 61/61/61 60/60/60 59/59/59
f 60/60/60 61/61/61 62/62/62
f 63/63/63 60/60/60 62/62/62
f 63/63/63 62/62/62 64/64/64
f 60/60/60 65/65/65 58/58/58
f 65/65/65 60/60/60 63/63/63
f 58/58/58 66/66/66 56/56/56
f 65/65/65 66/66/66 58/58/58
f 56/56/56 67/67/67 55/55/55
f 66/66/66 67/67/67 56/56/56
f 67/67/67 68/68/68 55/55/55
f 68/68/68 67/67/67 66/66/66
f 68/68/68 69/69/69 55/55/55
f 55/55/55 69/69/69 48/48/48
f 70/70/70 48/48/48 69/69/69
f 70/70/70 44/44/44 48/48/48
f 71/71/71 70/70/70 69/69/69
f 71/71/71 69/69/69 68/68/68
f 44/44/44 70/70/70 72/72/72
f 70/70/70 71/71/71 72/72/72
f 73/73/73 71/71/71 68/68/68
f 71/71/71 73/73/73 72/72/72
f 74/74/74 44/44/44 72/72/72
f 74/74/74 72/72/72 75/75/75
f 44/44/44 74/74/74 46/46/46
f 46/46/46 74/74/74 75/75/75
f 72/72/72 73/73/73 76/76/76
f 72/72/72 76/76/76 75/75/75
f 77/77/77 46/46/46 75/75/75
f 27/27/27 46/46/46 77/77/77
f 78/78/78 27/27/27 77/77/77
f 79/79/79 27/27/27 78/78/78
f 80/80/80 79/79/79 78/78/78
f 81/81/81 78/78/78 77/77/77
f 81/81/81 80/80/80 78/78/78
f 82/82/82 77/77/77 75/75/75
f 82/82/82 81/81/81 77/77/77
f 80/80/80 81/81/81 83/83/83
f 84/84/84 80/80/80 83/83/83
f 85/85/85 84/84/84 83/83/83
f 81/81/81 82/82/82 86/86/86
f 83/83/83 81/81/81 86/86/86
f 87/87/87 85/85/85 83/83/83
f 87/87/87 83/83/83 86/86/86
f 88/88/88 85/85/85 87/87/87
f 89/89/89 82/82/82 75/75/75
f 86/86/86 82/82/82 89/89/89
f 90/90/90 88/88/88 87/87/87
f 88/88/88 90/90/90 91/91/91
f 92/92/92 87/87/87 86/86/86
f 90/90/90 87/87/87 92/92/92
f 90/90/90 93/93/93 91/91/91
f 91/91/91 93/93/93 94/94/94
f 93/93/93 90/90/90 95/95/95
f 95/95/95 90/90/90 92/92/92
f 93/93/93 96/96/96 94/94/94
f 93/93/93 95/95/95 96/96/96
f 97/97/97 89/89/89 75/75/75
f 76/76/76 97/97/97 75/75/75
f 98/98/98 86/86/86 89/89/89
f 92/92/92 86/86/86 98/98/98
f 99/99/99 95/95/95 92/92/92
f 95/95/95 99/99/99 96/96/96
f 96/96/96 100/100/100 94/94/94
f 100/100/100 101/101/101 94/94/94
f 97/97/97 102/102/102 89/89/89
f 102/102/102 98/98/98 89/89/89
f 103/103/103 97/97/97 76/76/76
f 97/97/97 103/103/103 102/102/102
f 104/104/104 92/92/92 98/98/98
f 104/104/104 99/99/99 92/92/92
f 105/105/105 104/104/104 98/98/98
f 99/99/99 104/104/104 105/105/105
f 102/102/102 105/105/105 98/98/98
f 99/99/99 106/106/106 96/96/96
f 106/106/106 100/100/100 96/96/96
f 106/106/106 99/99/99 105/105/105
f 100/100/100 107/107/107 101/101/101
f 107/107/107 100/100/100 106/106/106
f 107/107/107 106/106/106 105/105/105
f 107/107/107 108/108/108 101/101/101
f 109/109/109 107/107/107 105/105/105
f 108/108/108 107/107/107 109/109/109
f 109/109/109 105/105/105 102/102/102
f 110/110/110 108/108/108 109/109/109
f 111/111/111 109/109/109 102/102/102
f 110/110/110 109/109/109 111/111/111
f 112/112/112 110/110/110 111/111/111
f 103/103/103 111/111/111 102/102/102
f 113/113/113 112/112/112 111/111/111
f 103/103/103 113/113/113 111/111/111
f 113/113/113 103/103/103 114/114/114
f 114/114/114 103/103/103 76/76/76
f 115/115/115 113/113/113 114/114/114
f 73/73/73 114/114/114 76/76/76
f 73/73/73 115/115/115 114/114/114
f 116/116/116 73/73/73 68/68/68
f 117/117/117 116/116/116 68/68/68
f 117/117/117 68/68/68 66/66/66
f 116/116/116 117/117/117 118/118/118
f 119/119/119 117/117/117 66/66/66
f 117/117/117 119/119/119 118/118/118
f 65/65/65 119/119/119 66/66/66
f 119/119/119 120/120/120 118/118/118
f 120/120/120 121/121/121 118/118/118
f 65/65/65 122/122/122 119/119/119
f 122/122/122 120/120/120 119/119/119
f 122/122/122 65/65/65 63/63/63
f 120/120/120 123/123/123 121/121/121
f 120/120/120 122/122/122 123/123/123
f 123/123/123 124/124/124 121/121/121
f 123/123/123 125/125/125 124/124/124
f 122/122/122 63/63/63 126/126/126
f 126/126/126 63/63/63 64/64/64
f 125/125/125 123/123/123 127/127/127
f 127/127/127 126/126/126 64/64/64
f 125/125/125 127/127/127 128/128/128
f 64/64/64 128/128/128 127/127/127
f 64/64/64 129/129/129 128/128/128
f 130/130/130 128/128/128 129/129/129
f 122/122/122 131/131/131 123/123/123
f 131/131/131 122/122/122 126/126/126
f 123/123/123 131/131/131 127/127/127
f 127/127/127 131/131/131 126/126/126
f 134/134/134 133/133/133 132/132/132
f 134/134/134 135/135/135 133/133/133
f 135/135/135 136/136/136 133/133/133
f 135/135/135 137/137/137 136/136/136
f 137/137/137 138/138/138 136/136/136
f 137/137/137 139/139/139 138/138/138
f 139/139/139 140/140/140 138/138/138
f 139/139/139 141/141/141 140/140/140
f 141/141/141 142/142/142 140/140/140
f 141/141/141 143/143/143 142/142/142
f 143/143/143 144/144/144 142/142/142
f 143/143/143 145/145/145 144/144/144
f 145/145/145 146/146/146 144/144/144
f 149/149/149 148/148/148 147/147/147
f 150/150/150 148/148/148 149/149/149
f 151/151/151 150/150/150 149/149/149
f 152/152/152 150/150/150 151/151/151
f 153/153/153 152/152/152 151/151/151
f 154/154/154 152/152/152 153/153/153
f 155/155/155 154/154/154 153/153/153
f 156/156/156 154/154/154 155/155/155
f 157/157/157 156/156/156 155/155/155
f 158/158/158 156/156/156 157/157/157
f 159/159/159 158/158/158 157/157/157
f 160/160/160 158/158/158 159/159/159
f 161/161/161 160/160/160 159/159/159
