g pm0676_13_Eye5Skin
v 0.087718636 0.9767558 0.483837
v 0.09260184 0.9847737 0.49896738
v 0.08505467 0.9860383 0.49316034
v 0.07724479 0.9930446 0.50640565
v 0.085198134 0.9919799 0.5116438
v 0.06599205 0.9944465 0.5242634
v 0.09935287 0.97677964 0.49050212
v 0.10169207 0.97047055 0.50542486
v 0.09783117 0.97916156 0.5127648
v 0.103578545 0.97727025 0.47254583
v 0.093625754 0.97817314 0.4686036
v 0.10578857 0.97744757 0.4595854
v 0.09957453 0.9786378 0.4556028
v 0.10649089 0.97618717 0.45630682
v 0.100803114 0.97713095 0.45309815
v 0.10661503 0.97202194 0.4695312
v 0.1055889 0.9729893 0.45681742
v 0.10024736 0.97331136 0.45270965
v 0.103586234 0.9685957 0.4643257
v 0.09642858 0.9672228 0.4607311
v 0.09880195 0.96077 0.4789027
v 0.09133826 0.9594965 0.4737309
v 0.10473971 0.9667945 0.48504126
v 0.095008925 0.9545577 0.48967028
v 0.0869416 0.9525987 0.48517853
v 0.10259356 0.96059287 0.4981258
v 0.088962294 0.94673824 0.5037648
v 0.08176065 0.9443923 0.49781498
v 0.0989114 0.9511017 0.5149195
v 0.08110338 0.9353139 0.5214365
v 0.073047295 0.9321662 0.51506674
v 0.07256042 0.92216533 0.5391909
v 0.06337765 0.9190106 0.5326821
v 0.09119883 0.9402088 0.53150624
v 0.09291684 0.95088387 0.5412136
v 0.100072294 0.9604225 0.52409273
v 0.09563314 0.97291636 0.5318629
v 0.065275244 0.910531 0.5536743
v 0.055990867 0.9079242 0.54705614
v 0.08011855 0.9265197 0.5480213
v 0.059444565 0.89999074 0.5671116
v 0.05143582 0.8971172 0.5617303
v 0.09270582 0.98384345 0.51887345
v 0.085978486 0.9846753 0.5348654
v 0.086973175 0.9652639 0.5498905
v 0.07002234 0.91384125 0.5609179
v 0.06618412 0.9238612 0.5669054
v 0.08033252 0.93807936 0.5559063
v 0.075707965 0.9532833 0.56271845
v 0.055439033 0.8928711 0.57747877
v 0.046597365 0.88955563 0.57797277
v 0.05399149 0.89396787 0.57959604
v 0.04589775 0.88986456 0.57994705
v 0.04549908 0.89350545 0.5797753
v 0.062141683 0.9031563 0.5713998
v 0.054449484 0.89676946 0.58027744
v 0.05574758 0.91348076 0.57331777
v 0.04260328 0.9139316 0.5702057
v 0.052866023 0.9282688 0.576427
v 0.03966478 0.9258269 0.5727889
v 0.062369402 0.93961114 0.5718246
v 0.050789833 0.9495047 0.57540876
v 0.03886554 0.9470964 0.5726872
v 0.04342854 0.97184545 0.56332684
v 0.05849941 0.9517978 0.5724209
v 0.06595178 0.96647215 0.566215
v 0.05609329 0.97169906 0.5666205
v 0.064830534 0.9883729 0.5504195
v 0.054003246 0.9898419 0.5461468
v 0.07659196 0.979144 0.5525694
v 0.07547278 0.9935137 0.53000116
v -0.087718636 0.9767558 0.483837
v -0.08505467 0.9860383 0.49316034
v -0.09260184 0.9847737 0.49896738
v -0.07724479 0.9930446 0.50640565
v -0.085198134 0.9919799 0.5116438
v -0.06599205 0.9944465 0.5242634
v -0.09935287 0.97677964 0.49050212
v -0.10169207 0.97047055 0.50542486
v -0.09783117 0.97916156 0.5127648
v -0.103578545 0.97727025 0.47254583
v -0.093625754 0.97817314 0.4686036
v -0.10578857 0.97744757 0.4595854
v -0.09957453 0.9786378 0.4556028
v -0.10649089 0.97618717 0.45630682
v -0.100803114 0.97713095 0.45309815
v -0.10661503 0.97202194 0.4695312
v -0.1055889 0.9729893 0.45681742
v -0.10024736 0.97331136 0.45270965
v -0.103586234 0.9685957 0.4643257
v -0.09642858 0.9672228 0.4607311
v -0.09880195 0.96077 0.4789027
v -0.09133826 0.9594965 0.4737309
v -0.10473971 0.9667945 0.48504126
v -0.095008925 0.9545577 0.48967028
v -0.0869416 0.9525987 0.48517853
v -0.10259356 0.96059287 0.4981258
v -0.088962294 0.94673824 0.5037648
v -0.08176065 0.9443923 0.49781498
v -0.0989114 0.9511017 0.5149195
v -0.08110338 0.9353139 0.5214365
v -0.073047295 0.9321662 0.51506674
v -0.07256042 0.92216533 0.5391909
v -0.06337765 0.9190106 0.5326821
v -0.09119883 0.9402088 0.53150624
v -0.09291684 0.95088387 0.5412136
v -0.100072294 0.9604225 0.52409273
v -0.09563314 0.97291636 0.5318629
v -0.065275244 0.910531 0.5536743
v -0.055990867 0.9079242 0.54705614
v -0.08011855 0.9265197 0.5480213
v -0.059444565 0.89999074 0.5671116
v -0.05143582 0.8971172 0.5617303
v -0.09270582 0.98384345 0.51887345
v -0.085978486 0.9846753 0.5348654
v -0.086973175 0.9652639 0.5498905
v -0.07002234 0.91384125 0.5609179
v -0.06618412 0.9238612 0.5669054
v -0.08033252 0.93807936 0.5559063
v -0.075707965 0.9532833 0.56271845
v -0.055439033 0.8928711 0.57747877
v -0.046597365 0.88955563 0.57797277
v -0.05399149 0.89396787 0.57959604
v -0.04589775 0.88986456 0.57994705
v -0.04549908 0.89350545 0.5797753
v -0.062141683 0.9031563 0.5713998
v -0.054449484 0.89676946 0.58027744
v -0.05574758 0.91348076 0.57331777
v -0.04260328 0.9139316 0.5702057
v -0.052866023 0.9282688 0.576427
v -0.03966478 0.9258269 0.5727889
v -0.062369402 0.93961114 0.5718246
v -0.050789833 0.9495047 0.57540876
v -0.03886554 0.9470964 0.5726872
v -0.04342854 0.97184545 0.56332684
v -0.05849941 0.9517978 0.5724209
v -0.06595178 0.96647215 0.566215
v -0.05609329 0.97169906 0.5666205
v -0.064830534 0.9883729 0.5504195
v -0.054003246 0.9898419 0.5461468
v -0.07659196 0.979144 0.5525694
v -0.07547278 0.9935137 0.53000116
vt 0.037874937 0.9353959
vt 0.043860316 0.94314945
vt 0.04080087 0.9480667
vt 0.04497248 0.96588016
vt 0.047521412 0.95921904
vt 0.05217409 0.97933894
vt 0.041505456 0.92904896
vt 0.048381567 0.9292583
vt 0.049420476 0.94098026
vt 0.035617232 0.9190209
vt 0.03340125 0.92418844
vt 0.032416105 0.9134477
vt 0.028493106 0.9130101
vt 0.032001376 0.90858096
vt 0.028521717 0.9074562
vt 0.036161542 0.91137296
vt 0.032587707 0.904581
vt 0.029219985 0.90058523
vt 0.035562634 0.9043061
vt 0.03500843 0.89787775
vt 0.04198426 0.9035576
vt 0.04127276 0.8957679
vt 0.042232156 0.9146996
vt 0.047329426 0.9024965
vt 0.046937227 0.8940132
vt 0.047950983 0.9162341
vt 0.05411601 0.9015492
vt 0.053528428 0.8922861
vt 0.05531466 0.9166078
vt 0.06260538 0.9018118
vt 0.062643886 0.8917079
vt 0.07087344 0.90508664
vt 0.07156372 0.8941095
vt 0.062548876 0.9167417
vt 0.0625 0.9296875
vt 0.05580765 0.92948383
vt 0.05597675 0.94291514
vt 0.07784599 0.90916985
vt 0.07867724 0.8979294
vt 0.07055265 0.9176068
vt 0.08420211 0.9134672
vt 0.08554357 0.90276664
vt 0.050798357 0.9492221
vt 0.05569631 0.9566278
vt 0.062443137 0.9447485
vt 0.07774645 0.91850334
vt 0.077261925 0.93013644
vt 0.06979698 0.92990917
vt 0.06914282 0.94449264
vt 0.088302135 0.9137708
vt 0.093484044 0.9100621
vt 0.08877939 0.9183967
vt 0.09388679 0.9144632
vt 0.09364784 0.9229237
vt 0.08402121 0.9185058
vt 0.08860016 0.9229196
vt 0.08360422 0.9303291
vt 0.0875119 0.93927455
vt 0.080997705 0.9435221
vt 0.085271955 0.94960755
vt 0.07559323 0.9445239
vt 0.07672644 0.9588009
vt 0.08048195 0.9660534
vt 0.07268369 0.9805992
vt 0.074240565 0.9549945
vt 0.06926429 0.9593193
vt 0.070699215 0.9708539
vt 0.062325835 0.97576517
vt 0.062289 0.98550755
vt 0.06238407 0.960342
vt 0.053838253 0.96970433
vt 0.037874877 0.9353959
vt 0.04080084 0.9480667
vt 0.043860286 0.94314945
vt 0.04497236 0.96588016
vt 0.047521323 0.95921904
vt 0.05217406 0.97933894
vt 0.041505337 0.92904896
vt 0.048381478 0.9292583
vt 0.049420416 0.94098026
vt 0.035617143 0.9190209
vt 0.03340116 0.92418844
vt 0.032415926 0.9134477
vt 0.028492982 0.9130101
vt 0.032001287 0.90858096
vt 0.028521562 0.9074562
vt 0.036161333 0.91137296
vt 0.032587618 0.904581
vt 0.02921995 0.90058523
vt 0.035562575 0.9043061
vt 0.03500837 0.89787775
vt 0.04198414 0.9035576
vt 0.04127276 0.8957679
vt 0.042232066 0.9146996
vt 0.047329307 0.9024965
vt 0.046937138 0.8940132
vt 0.047950894 0.9162341
vt 0.05411598 0.9015492
vt 0.05352837 0.8922861
vt 0.05531454 0.9166078
vt 0.06260529 0.9018118
vt 0.06264368 0.8917079
vt 0.07087338 0.90508664
vt 0.07156357 0.8941095
vt 0.062548816 0.9167417
vt 0.0625 0.9296875
vt 0.05580759 0.92948383
vt 0.0559766 0.94291514
vt 0.07784593 0.90916985
vt 0.07867715 0.8979294
vt 0.07055256 0.9176068
vt 0.08420196 0.9134672
vt 0.08554348 0.90276664
vt 0.050798237 0.9492221
vt 0.05569622 0.9566278
vt 0.062443078 0.9447485
vt 0.07774636 0.91850334
vt 0.077261835 0.93013644
vt 0.06979689 0.92990917
vt 0.06914273 0.94449264
vt 0.08830199 0.9137708
vt 0.093483895 0.9100621
vt 0.08877927 0.9183967
vt 0.09388676 0.9144632
vt 0.09364778 0.9229237
vt 0.08402115 0.9185058
vt 0.08860007 0.9229196
vt 0.08360416 0.9303291
vt 0.08751187 0.93927455
vt 0.080997616 0.9435221
vt 0.085271865 0.94960755
vt 0.075592875 0.9445239
vt 0.07672635 0.9588009
vt 0.08048183 0.9660534
vt 0.0726836 0.9805992
vt 0.074240506 0.9549945
vt 0.0692642 0.9593193
vt 0.070699066 0.9708539
vt 0.062325656 0.97576517
vt 0.06228888 0.98550755
vt 0.06238404 0.960342
vt 0.053838253 0.96970433
vn 0.640508 0.76116985 -0.10183223
vn 0.6880058 0.72493047 0.033524226
vn 0.5505713 0.8344038 -0.025327489
vn 0.449767 0.8869892 0.10468886
vn 0.5585947 0.81553715 0.1512318
vn 0.34450236 0.88000816 0.32696137
vn 0.8570607 0.51007724 -0.07258232
vn 0.97456825 0.21316624 0.06911495
vn 0.8252968 0.5396019 0.16647813
vn 0.8199396 0.5416467 -0.1852504
vn 0.6687642 0.7221516 -0.17678124
vn 0.80193084 0.529752 -0.2761698
vn 0.7379356 0.6063204 -0.2963556
vn 0.9034709 0.17471717 -0.39142582
vn 0.860614 0.22794582 -0.45539463
vn 0.9552153 0.056173805 -0.2905312
vn 0.8648198 -0.21049705 -0.4558264
vn 0.82949686 -0.24527311 -0.501773
vn 0.8449315 -0.38059574 -0.37581608
vn 0.74694794 -0.5161546 -0.41911
vn 0.8092585 -0.515506 -0.2816988
vn 0.68618613 -0.6486809 -0.32918313
vn 0.97817755 -0.09542616 -0.1845606
vn 0.7730394 -0.59893453 -0.20901553
vn 0.65376085 -0.707274 -0.26899862
vn 0.9577801 -0.27625266 -0.079635344
vn 0.7465785 -0.64685065 -0.15557872
vn 0.640745 -0.73179597 -0.23220782
vn 0.91656375 -0.3995682 0.016002316
vn 0.73185056 -0.6732424 -0.10554321
vn 0.63962483 -0.7415221 -0.20254646
vn 0.7265186 -0.6858729 -0.04182259
vn 0.64571476 -0.74653983 -0.1604086
vn 0.87389964 -0.4720725 0.11596128
vn 0.91403246 -0.13059728 0.38404307
vn 0.97505784 0.0024286576 0.22193752
vn 0.8558198 0.3754061 0.35586894
vn 0.7190848 -0.69229275 0.060398247
vn 0.65267885 -0.7538685 -0.07544883
vn 0.8314954 -0.50437605 0.23285238
vn 0.6890863 -0.6907106 0.21926893
vn 0.64835423 -0.7558685 0.09110201
vn 0.68560785 0.6929422 0.22309835
vn 0.6618652 0.63458496 0.39904436
vn 0.79216236 0.22569428 0.56704575
vn 0.7719873 -0.507781 0.3823532
vn 0.665527 -0.20864587 0.7166176
vn 0.8124044 -0.19813955 0.54839754
vn 0.66003996 0.107802436 0.7434554
vn 0.6399452 -0.6663015 0.38276947
vn 0.61334324 -0.7038045 0.35842595
vn 0.5726813 -0.49150628 0.65609264
vn 0.5092863 -0.50426567 0.69738346
vn 0.34484324 -0.24723329 0.9055158
vn 0.6685675 -0.49331838 0.556466
vn 0.42815927 -0.27062845 0.8622295
vn 0.45045188 -0.17598851 0.87528354
vn 0.2496188 -0.07505989 0.9654307
vn 0.29031658 0.07008486 0.95436066
vn 0.14599222 0.10623534 0.98356515
vn 0.49335366 0.050389603 0.868368
vn 0.214613 0.26907498 0.9389036
vn 0.09815067 0.3069347 0.9466559
vn 0.13198139 0.5449743 0.82799995
vn 0.37151027 0.21790534 0.9024951
vn 0.46249643 0.34015855 0.818773
vn 0.25685993 0.48172644 0.8378321
vn 0.3596191 0.6896911 0.62849057
vn 0.22855131 0.76480365 0.6023618
vn 0.5812961 0.5066681 0.6366964
vn 0.46680665 0.8065442 0.36273688
vn -0.64050806 0.7611698 -0.10183262
vn -0.55057144 0.83440375 -0.02532735
vn -0.68800575 0.7249306 0.033524234
vn -0.44976702 0.8869892 0.104689285
vn -0.55859447 0.8155373 0.1512321
vn -0.3445022 0.8800079 0.3269619
vn -0.8570607 0.5100772 -0.07258275
vn -0.97456825 0.2131661 0.0691148
vn -0.8252968 0.5396018 0.16647814
vn -0.81993926 0.541647 -0.18525146
vn -0.66876376 0.7221517 -0.17678212
vn -0.8019301 0.52975225 -0.27617103
vn -0.73793495 0.60632074 -0.2963568
vn -0.9034702 0.1747179 -0.3914271
vn -0.86061317 0.22794667 -0.45539588
vn -0.95521486 0.056174178 -0.29053244
vn -0.8648192 -0.21049626 -0.45582777
vn -0.82949626 -0.24527211 -0.50177425
vn -0.8449311 -0.38059533 -0.37581742
vn -0.7469477 -0.51615393 -0.41911128
vn -0.8092582 -0.5155059 -0.28169993
vn -0.68618584 -0.64868075 -0.32918438
vn -0.9781773 -0.09542609 -0.18456149
vn -0.7730392 -0.5989345 -0.20901625
vn -0.6537607 -0.7072738 -0.26899958
vn -0.95778 -0.27625275 -0.07963584
vn -0.74657845 -0.64685065 -0.15557908
vn -0.6407451 -0.73179585 -0.23220824
vn -0.91656375 -0.39956826 0.016002169
vn -0.73185056 -0.6732424 -0.10554323
vn -0.63962483 -0.7415221 -0.20254664
vn -0.7265186 -0.6858729 -0.04182239
vn -0.6457146 -0.7465399 -0.16040853
vn -0.87389964 -0.47207245 0.11596128
vn -0.91403246 -0.1305972 0.38404307
vn -0.97505784 0.0024286576 0.22193754
vn -0.85581964 0.37540615 0.35586926
vn -0.71908456 -0.69229287 0.06039839
vn -0.65267867 -0.75386876 -0.07544869
vn -0.83149534 -0.5043761 0.2328527
vn -0.6890858 -0.6907111 0.2192692
vn -0.64835364 -0.755869 0.09110215
vn -0.68560773 0.69294226 0.22309867
vn -0.6618649 0.63458496 0.3990447
vn -0.7921622 0.2256944 0.5670458
vn -0.7719872 -0.50778127 0.38235334
vn -0.66552687 -0.2086457 0.71661764
vn -0.8124043 -0.19813949 0.5483977
vn -0.6600399 0.107802436 0.7434554
vn -0.63994443 -0.6663023 0.3827695
vn -0.6133424 -0.7038053 0.35842595
vn -0.57268053 -0.49150714 0.65609276
vn -0.5092855 -0.5042665 0.6973834
vn -0.34484264 -0.24723388 0.9055158
vn -0.66856706 -0.4933188 0.5564662
vn -0.4281587 -0.27062917 0.86222965
vn -0.45045143 -0.17598867 0.8752836
vn -0.24961846 -0.075060114 0.9654308
vn -0.29031655 0.07008487 0.9543608
vn -0.14599209 0.106235206 0.98356515
vn -0.49335366 0.050389603 0.868368
vn -0.21461318 0.26907498 0.9389035
vn -0.09815074 0.3069347 0.9466559
vn -0.13198128 0.5449743 0.82799995
vn -0.3715105 0.21790537 0.902495
vn -0.4624965 0.34015855 0.818773
vn -0.25685978 0.4817263 0.8378322
vn -0.35961884 0.6896911 0.6284908
vn -0.22855112 0.7648035 0.6023621
vn -0.58129585 0.50666815 0.6366966
vn -0.4668065 0.806544 0.3627373
g pm0676_13_Eye5Skin_0
f 3/3/3 2/2/2 1/1/1
f 3/3/3 4/4/4 2/2/2
f 4/4/4 5/5/5 2/2/2
f 4/4/4 6/6/6 5/5/5
f 2/2/2 7/7/7 1/1/1
f 8/8/8 7/7/7 2/2/2
f 9/9/9 2/2/2 5/5/5
f 9/9/9 8/8/8 2/2/2
f 7/7/7 10/10/10 1/1/1
f 10/10/10 11/11/11 1/1/1
f 10/10/10 12/12/12 11/11/11
f 12/12/12 13/13/13 11/11/11
f 13/13/13 12/12/12 14/14/14
f 14/14/14 12/12/12 10/10/10
f 15/15/15 13/13/13 14/14/14
f 16/16/16 10/10/10 7/7/7
f 16/16/16 14/14/14 10/10/10
f 15/15/15 14/14/14 17/17/17
f 18/18/18 15/15/15 17/17/17
f 19/19/19 17/17/17 14/14/14
f 18/18/18 17/17/17 19/19/19
f 16/16/16 19/19/19 14/14/14
f 20/20/20 18/18/18 19/19/19
f 20/20/20 19/19/19 21/21/21
f 21/21/21 19/19/19 16/16/16
f 22/22/22 20/20/20 21/21/21
f 23/23/23 16/16/16 7/7/7
f 23/23/23 21/21/21 16/16/16
f 23/23/23 7/7/7 8/8/8
f 21/21/21 24/24/24 22/22/22
f 24/24/24 21/21/21 23/23/23
f 24/24/24 25/25/25 22/22/22
f 26/26/26 24/24/24 23/23/23
f 26/26/26 23/23/23 8/8/8
f 24/24/24 27/27/27 25/25/25
f 24/24/24 26/26/26 27/27/27
f 27/27/27 28/28/28 25/25/25
f 26/26/26 29/29/29 27/27/27
f 26/26/26 8/8/8 29/29/29
f 27/27/27 30/30/30 28/28/28
f 30/30/30 27/27/27 29/29/29
f 30/30/30 31/31/31 28/28/28
f 30/30/30 32/32/32 31/31/31
f 32/32/32 33/33/33 31/31/31
f 34/34/34 30/30/30 29/29/29
f 30/30/30 34/34/34 32/32/32
f 34/34/34 29/29/29 35/35/35
f 8/8/8 36/36/36 29/29/29
f 29/29/29 36/36/36 35/35/35
f 37/37/37 36/36/36 8/8/8
f 35/35/35 36/36/36 37/37/37
f 9/9/9 37/37/37 8/8/8
f 32/32/32 38/38/38 33/33/33
f 38/38/38 39/39/39 33/33/33
f 34/34/34 40/40/40 32/32/32
f 34/34/34 35/35/35 40/40/40
f 38/38/38 32/32/32 40/40/40
f 38/38/38 41/41/41 39/39/39
f 41/41/41 42/42/42 39/39/39
f 9/9/9 43/43/43 37/37/37
f 43/43/43 9/9/9 5/5/5
f 43/43/43 44/44/44 37/37/37
f 43/43/43 5/5/5 44/44/44
f 45/45/45 35/35/35 37/37/37
f 45/45/45 37/37/37 44/44/44
f 46/46/46 38/38/38 40/40/40
f 38/38/38 46/46/46 41/41/41
f 46/46/46 40/40/40 47/47/47
f 35/35/35 48/48/48 40/40/40
f 40/40/40 48/48/48 47/47/47
f 49/49/49 48/48/48 35/35/35
f 45/45/45 49/49/49 35/35/35
f 47/47/47 48/48/48 49/49/49
f 41/41/41 50/50/50 42/42/42
f 50/50/50 51/51/51 42/42/42
f 51/51/51 50/50/50 52/52/52
f 52/52/52 50/50/50 41/41/41
f 53/53/53 51/51/51 52/52/52
f 53/53/53 52/52/52 54/54/54
f 46/46/46 55/55/55 41/41/41
f 55/55/55 52/52/52 41/41/41
f 46/46/46 47/47/47 55/55/55
f 52/52/52 56/56/56 54/54/54
f 56/56/56 52/52/52 55/55/55
f 54/54/54 56/56/56 57/57/57
f 57/57/57 56/56/56 55/55/55
f 47/47/47 57/57/57 55/55/55
f 58/58/58 54/54/54 57/57/57
f 58/58/58 57/57/57 59/59/59
f 59/59/59 57/57/57 47/47/47
f 60/60/60 58/58/58 59/59/59
f 61/61/61 59/59/59 47/47/47
f 61/61/61 47/47/47 49/49/49
f 60/60/60 59/59/59 62/62/62
f 63/63/63 60/60/60 62/62/62
f 63/63/63 62/62/62 64/64/64
f 61/61/61 65/65/65 59/59/59
f 65/65/65 62/62/62 59/59/59
f 65/65/65 61/61/61 66/66/66
f 61/61/61 49/49/49 66/66/66
f 65/65/65 66/66/66 62/62/62
f 62/62/62 67/67/67 64/64/64
f 66/66/66 67/67/67 62/62/62
f 64/64/64 67/67/67 68/68/68
f 68/68/68 67/67/67 66/66/66
f 69/69/69 64/64/64 68/68/68
f 69/69/69 68/68/68 6/6/6
f 70/70/70 66/66/66 49/49/49
f 70/70/70 68/68/68 66/66/66
f 45/45/45 70/70/70 49/49/49
f 70/70/70 45/45/45 44/44/44
f 70/70/70 44/44/44 68/68/68
f 68/68/68 71/71/71 6/6/6
f 44/44/44 71/71/71 68/68/68
f 6/6/6 71/71/71 5/5/5
f 5/5/5 71/71/71 44/44/44
f 74/74/74 73/73/73 72/72/72
f 75/75/75 73/73/73 74/74/74
f 76/76/76 75/75/75 74/74/74
f 77/77/77 75/75/75 76/76/76
f 78/78/78 74/74/74 72/72/72
f 78/78/78 79/79/79 74/74/74
f 74/74/74 80/80/80 76/76/76
f 79/79/79 80/80/80 74/74/74
f 81/81/81 78/78/78 72/72/72
f 82/82/82 81/81/81 72/72/72
f 83/83/83 81/81/81 82/82/82
f 84/84/84 83/83/83 82/82/82
f 83/83/83 84/84/84 85/85/85
f 83/83/83 85/85/85 81/81/81
f 84/84/84 86/86/86 85/85/85
f 81/81/81 87/87/87 78/78/78
f 85/85/85 87/87/87 81/81/81
f 85/85/85 86/86/86 88/88/88
f 86/86/86 89/89/89 88/88/88
f 88/88/88 90/90/90 85/85/85
f 88/88/88 89/89/89 90/90/90
f 90/90/90 87/87/87 85/85/85
f 89/89/89 91/91/91 90/90/90
f 90/90/90 91/91/91 92/92/92
f 90/90/90 92/92/92 87/87/87
f 91/91/91 93/93/93 92/92/92
f 87/87/87 94/94/94 78/78/78
f 92/92/92 94/94/94 87/87/87
f 78/78/78 94/94/94 79/79/79
f 95/95/95 92/92/92 93/93/93
f 92/92/92 95/95/95 94/94/94
f 96/96/96 95/95/95 93/93/93
f 95/95/95 97/97/97 94/94/94
f 94/94/94 97/97/97 79/79/79
f 98/98/98 95/95/95 96/96/96
f 97/97/97 95/95/95 98/98/98
f 99/99/99 98/98/98 96/96/96
f 100/100/100 97/97/97 98/98/98
f 79/79/79 97/97/97 100/100/100
f 101/101/101 98/98/98 99/99/99
f 98/98/98 101/101/101 100/100/100
f 102/102/102 101/101/101 99/99/99
f 103/103/103 101/101/101 102/102/102
f 104/104/104 103/103/103 102/102/102
f 101/101/101 105/105/105 100/100/100
f 105/105/105 101/101/101 103/103/103
f 100/100/100 105/105/105 106/106/106
f 107/107/107 79/79/79 100/100/100
f 107/107/107 100/100/100 106/106/106
f 107/107/107 108/108/108 79/79/79
f 107/107/107 106/106/106 108/108/108
f 108/108/108 80/80/80 79/79/79
f 109/109/109 103/103/103 104/104/104
f 110/110/110 109/109/109 104/104/104
f 111/111/111 105/105/105 103/103/103
f 106/106/106 105/105/105 111/111/111
f 103/103/103 109/109/109 111/111/111
f 112/112/112 109/109/109 110/110/110
f 113/113/113 112/112/112 110/110/110
f 114/114/114 80/80/80 108/108/108
f 80/80/80 114/114/114 76/76/76
f 115/115/115 114/114/114 108/108/108
f 76/76/76 114/114/114 115/115/115
f 106/106/106 116/116/116 108/108/108
f 108/108/108 116/116/116 115/115/115
f 109/109/109 117/117/117 111/111/111
f 117/117/117 109/109/109 112/112/112
f 111/111/111 117/117/117 118/118/118
f 119/119/119 106/106/106 111/111/111
f 119/119/119 111/111/111 118/118/118
f 119/119/119 120/120/120 106/106/106
f 120/120/120 116/116/116 106/106/106
f 119/119/119 118/118/118 120/120/120
f 121/121/121 112/112/112 113/113/113
f 122/122/122 121/121/121 113/113/113
f 121/121/121 122/122/122 123/123/123
f 121/121/121 123/123/123 112/112/112
f 122/122/122 124/124/124 123/123/123
f 123/123/123 124/124/124 125/125/125
f 126/126/126 117/117/117 112/112/112
f 123/123/123 126/126/126 112/112/112
f 118/118/118 117/117/117 126/126/126
f 127/127/127 123/123/123 125/125/125
f 123/123/123 127/127/127 126/126/126
f 127/127/127 125/125/125 128/128/128
f 127/127/127 128/128/128 126/126/126
f 128/128/128 118/118/118 126/126/126
f 125/125/125 129/129/129 128/128/128
f 128/128/128 129/129/129 130/130/130
f 128/128/128 130/130/130 118/118/118
f 129/129/129 131/131/131 130/130/130
f 130/130/130 132/132/132 118/118/118
f 118/118/118 132/132/132 120/120/120
f 130/130/130 131/131/131 133/133/133
f 131/131/131 134/134/134 133/133/133
f 133/133/133 134/134/134 135/135/135
f 136/136/136 132/132/132 130/130/130
f 133/133/133 136/136/136 130/130/130
f 132/132/132 136/136/136 137/137/137
f 120/120/120 132/132/132 137/137/137
f 137/137/137 136/136/136 133/133/133
f 138/138/138 133/133/133 135/135/135
f 138/138/138 137/137/137 133/133/133
f 138/138/138 135/135/135 139/139/139
f 138/138/138 139/139/139 137/137/137
f 135/135/135 140/140/140 139/139/139
f 139/139/139 140/140/140 77/77/77
f 137/137/137 141/141/141 120/120/120
f 139/139/139 141/141/141 137/137/137
f 141/141/141 116/116/116 120/120/120
f 116/116/116 141/141/141 115/115/115
f 115/115/115 141/141/141 139/139/139
f 142/142/142 139/139/139 77/77/77
f 142/142/142 115/115/115 139/139/139
f 142/142/142 77/77/77 76/76/76
f 142/142/142 76/76/76 115/115/115
