g pm0676_12_Eye5Skin
v -0.06599205 0.9944465 0.5242634
v -0.054003246 0.9898419 0.5461468
v -0.064830534 0.9883729 0.5504195
v -0.04342854 0.97184545 0.56332684
v -0.07547278 0.9935137 0.53000116
v -0.085198134 0.9919799 0.5116438
v -0.07724479 0.9930446 0.50640565
v -0.085978486 0.9846753 0.5348654
v -0.09260184 0.9847737 0.49896738
v -0.08505467 0.9860383 0.49316034
v -0.087718636 0.9767558 0.483837
v -0.05609329 0.97169906 0.5666205
v -0.050789833 0.9495047 0.57540876
v -0.03886554 0.9470964 0.5726872
v -0.03966478 0.9258269 0.5727889
v -0.06595178 0.96647215 0.566215
v -0.052866023 0.9282688 0.576427
v -0.04260328 0.9139316 0.5702057
v -0.07659196 0.979144 0.5525694
v -0.05849941 0.9517978 0.5724209
v -0.062369402 0.93961114 0.5718246
v -0.06618412 0.9238612 0.5669054
v -0.05574758 0.91348076 0.57331777
v -0.04549908 0.89350545 0.5797753
v -0.075707965 0.9532833 0.56271845
v -0.086973175 0.9652639 0.5498905
v -0.09291684 0.95088387 0.5412136
v -0.09563314 0.97291636 0.5318629
v -0.08033252 0.93807936 0.5559063
v -0.09270582 0.98384345 0.51887345
v -0.09783117 0.97916156 0.5127648
v -0.10169207 0.97047055 0.50542486
v -0.08011855 0.9265197 0.5480213
v -0.100072294 0.9604225 0.52409273
v -0.0989114 0.9511017 0.5149195
v -0.09935287 0.97677964 0.49050212
v -0.09119883 0.9402088 0.53150624
v -0.103578545 0.97727025 0.47254583
v -0.093625754 0.97817314 0.4686036
v -0.10578857 0.97744757 0.4595854
v -0.09957453 0.9786378 0.4556028
v -0.10649089 0.97618717 0.45630682
v -0.100803114 0.97713095 0.45309815
v -0.10661503 0.97202194 0.4695312
v -0.10473971 0.9667945 0.48504126
v -0.1055889 0.9729893 0.45681742
v -0.10024736 0.97331136 0.45270965
v -0.103586234 0.9685957 0.4643257
v -0.09642858 0.9672228 0.4607311
v -0.09880195 0.96077 0.4789027
v -0.09133826 0.9594965 0.4737309
v -0.095008925 0.9545577 0.48967028
v -0.0869416 0.9525987 0.48517853
v -0.10259356 0.96059287 0.4981258
v -0.088962294 0.94673824 0.5037648
v -0.08176065 0.9443923 0.49781498
v -0.08110338 0.9353139 0.5214365
v -0.073047295 0.9321662 0.51506674
v -0.07256042 0.92216533 0.5391909
v -0.06337765 0.9190106 0.5326821
v -0.065275244 0.910531 0.5536743
v -0.055990867 0.9079242 0.54705614
v -0.07002234 0.91384125 0.5609179
v -0.059444565 0.89999074 0.5671116
v -0.05143582 0.8971172 0.5617303
v -0.062141683 0.9031563 0.5713998
v -0.055439033 0.8928711 0.57747877
v -0.046597365 0.88955563 0.57797277
v -0.05399149 0.89396787 0.57959604
v -0.04589775 0.88986456 0.57994705
v -0.054449484 0.89676946 0.58027744
v 0.06599205 0.9944465 0.5242634
v 0.064830534 0.9883729 0.5504195
v 0.054003246 0.9898419 0.5461468
v 0.04342854 0.97184545 0.56332684
v 0.07547278 0.9935137 0.53000116
v 0.085198134 0.9919799 0.5116438
v 0.07724479 0.9930446 0.50640565
v 0.085978486 0.9846753 0.5348654
v 0.09260184 0.9847737 0.49896738
v 0.08505467 0.9860383 0.49316034
v 0.087718636 0.9767558 0.483837
v 0.05609329 0.97169906 0.5666205
v 0.050789833 0.9495047 0.57540876
v 0.03886554 0.9470964 0.5726872
v 0.03966478 0.9258269 0.5727889
v 0.06595178 0.96647215 0.566215
v 0.052866023 0.9282688 0.576427
v 0.04260328 0.9139316 0.5702057
v 0.07659196 0.979144 0.5525694
v 0.05849941 0.9517978 0.5724209
v 0.062369402 0.93961114 0.5718246
v 0.06618412 0.9238612 0.5669054
v 0.05574758 0.91348076 0.57331777
v 0.04549908 0.89350545 0.5797753
v 0.075707965 0.9532833 0.56271845
v 0.086973175 0.9652639 0.5498905
v 0.09291684 0.95088387 0.5412136
v 0.09563314 0.97291636 0.5318629
v 0.08033252 0.93807936 0.5559063
v 0.09270582 0.98384345 0.51887345
v 0.09783117 0.97916156 0.5127648
v 0.10169207 0.97047055 0.50542486
v 0.08011855 0.9265197 0.5480213
v 0.100072294 0.9604225 0.52409273
v 0.0989114 0.9511017 0.5149195
v 0.09935287 0.97677964 0.49050212
v 0.09119883 0.9402088 0.53150624
v 0.103578545 0.97727025 0.47254583
v 0.093625754 0.97817314 0.4686036
v 0.10578857 0.97744757 0.4595854
v 0.09957453 0.9786378 0.4556028
v 0.10649089 0.97618717 0.45630682
v 0.100803114 0.97713095 0.45309815
v 0.10661503 0.97202194 0.4695312
v 0.10473971 0.9667945 0.48504126
v 0.1055889 0.9729893 0.45681742
v 0.10024736 0.97331136 0.45270965
v 0.103586234 0.9685957 0.4643257
v 0.09642858 0.9672228 0.4607311
v 0.09880195 0.96077 0.4789027
v 0.09133826 0.9594965 0.4737309
v 0.095008925 0.9545577 0.48967028
v 0.0869416 0.9525987 0.48517853
v 0.10259356 0.96059287 0.4981258
v 0.088962294 0.94673824 0.5037648
v 0.08176065 0.9443923 0.49781498
v 0.08110338 0.9353139 0.5214365
v 0.073047295 0.9321662 0.51506674
v 0.07256042 0.92216533 0.5391909
v 0.06337765 0.9190106 0.5326821
v 0.065275244 0.910531 0.5536743
v 0.055990867 0.9079242 0.54705614
v 0.07002234 0.91384125 0.5609179
v 0.059444565 0.89999074 0.5671116
v 0.05143582 0.8971172 0.5617303
v 0.062141683 0.9031563 0.5713998
v 0.055439033 0.8928711 0.57747877
v 0.046597365 0.88955563 0.57797277
v 0.05399149 0.89396787 0.57959604
v 0.04589775 0.88986456 0.57994705
v 0.054449484 0.89676946 0.58027744
vt 0.05217406 0.97933894
vt 0.06228888 0.98550755
vt 0.062325656 0.97576517
vt 0.0726836 0.9805992
vt 0.053838253 0.96970433
vt 0.047521323 0.95921904
vt 0.04497236 0.96588016
vt 0.05569622 0.9566278
vt 0.043860286 0.94314945
vt 0.04080084 0.9480667
vt 0.037874877 0.9353959
vt 0.070699066 0.9708539
vt 0.07672635 0.9588009
vt 0.08048183 0.9660534
vt 0.085271865 0.94960755
vt 0.0692642 0.9593193
vt 0.080997616 0.9435221
vt 0.08751187 0.93927455
vt 0.06238404 0.960342
vt 0.074240506 0.9549945
vt 0.075592875 0.9445239
vt 0.077261835 0.93013644
vt 0.08360416 0.9303291
vt 0.0938257 0.9257933
vt 0.06914273 0.94449264
vt 0.062443078 0.9447485
vt 0.0625 0.9296875
vt 0.0559766 0.94291514
vt 0.06979689 0.92990917
vt 0.050798237 0.9492221
vt 0.049420416 0.94098026
vt 0.048381478 0.9292583
vt 0.07055256 0.9176068
vt 0.05580759 0.92948383
vt 0.05531454 0.9166078
vt 0.041505337 0.92904896
vt 0.062548816 0.9167417
vt 0.035617143 0.9190209
vt 0.03340116 0.92418844
vt 0.032415926 0.9151916
vt 0.029056672 0.91463536
vt 0.032001287 0.90900517
vt 0.029085252 0.9075755
vt 0.036161333 0.91137296
vt 0.042232066 0.9146996
vt 0.032587618 0.90392053
vt 0.02978364 0.8988413
vt 0.035562575 0.9043061
vt 0.03500837 0.89787775
vt 0.04198414 0.9035576
vt 0.04127276 0.8957679
vt 0.047329307 0.9024965
vt 0.046937138 0.8940132
vt 0.047950894 0.9162341
vt 0.05411598 0.9015492
vt 0.05352837 0.8922861
vt 0.06260529 0.9018118
vt 0.06264368 0.8917079
vt 0.07087338 0.90508664
vt 0.07156357 0.8941095
vt 0.07784593 0.90916985
vt 0.07867715 0.8979294
vt 0.07774636 0.91850334
vt 0.08420196 0.9134672
vt 0.08554348 0.90276664
vt 0.08402115 0.9185058
vt 0.08830199 0.9125561
vt 0.093661815 0.90719247
vt 0.08877927 0.91924626
vt 0.09406468 0.9135575
vt 0.08860007 0.9257874
vt 0.05217409 0.97933894
vt 0.062325835 0.97576517
vt 0.062289 0.98550755
vt 0.07268369 0.9805992
vt 0.053838253 0.96970433
vt 0.047521412 0.95921904
vt 0.04497248 0.96588016
vt 0.05569631 0.9566278
vt 0.043860316 0.94314945
vt 0.04080087 0.9480667
vt 0.037874937 0.9353959
vt 0.070699215 0.9708539
vt 0.07672644 0.9588009
vt 0.08048195 0.9660534
vt 0.085271955 0.94960755
vt 0.06926429 0.9593193
vt 0.080997705 0.9435221
vt 0.0875119 0.93927455
vt 0.06238407 0.960342
vt 0.074240565 0.9549945
vt 0.07559323 0.9445239
vt 0.077261925 0.93013644
vt 0.08360422 0.9303291
vt 0.09382576 0.9257933
vt 0.06914282 0.94449264
vt 0.062443137 0.9447485
vt 0.0625 0.9296875
vt 0.05597675 0.94291514
vt 0.06979698 0.92990917
vt 0.050798357 0.9492221
vt 0.049420476 0.94098026
vt 0.048381567 0.9292583
vt 0.07055265 0.9176068
vt 0.05580765 0.92948383
vt 0.05531466 0.9166078
vt 0.041505456 0.92904896
vt 0.062548876 0.9167417
vt 0.035617232 0.9190209
vt 0.03340125 0.92418844
vt 0.032416105 0.9151916
vt 0.029056847 0.91463536
vt 0.032001376 0.90900517
vt 0.029085457 0.9075755
vt 0.036161542 0.91137296
vt 0.042232156 0.9146996
vt 0.032587707 0.90392053
vt 0.029783726 0.8988413
vt 0.035562634 0.9043061
vt 0.03500843 0.89787775
vt 0.04198426 0.9035576
vt 0.04127276 0.8957679
vt 0.047329426 0.9024965
vt 0.046937227 0.8940132
vt 0.047950983 0.9162341
vt 0.05411601 0.9015492
vt 0.053528428 0.8922861
vt 0.06260538 0.9018118
vt 0.062643886 0.8917079
vt 0.07087344 0.90508664
vt 0.07156372 0.8941095
vt 0.07784599 0.90916985
vt 0.07867724 0.8979294
vt 0.07774645 0.91850334
vt 0.08420211 0.9134672
vt 0.08554357 0.90276664
vt 0.08402121 0.9185058
vt 0.088302135 0.9125561
vt 0.093661964 0.90719247
vt 0.08877939 0.91924626
vt 0.09406471 0.9135575
vt 0.08860016 0.9257874
vn -0.23921207 0.9389817 0.2471656
vn -0.1016496 0.8211281 0.5616191
vn -0.2795347 0.7392881 0.6126283
vn 0.007710786 0.5654168 0.82476926
vn -0.40573326 0.8582407 0.31433007
vn -0.5157984 0.8532219 0.077229664
vn -0.36314338 0.9317253 -0.0038488917
vn -0.6512509 0.6527216 0.3870748
vn -0.6507948 0.75853217 -0.033091106
vn -0.45694524 0.8804184 -0.12674612
vn -0.5095276 0.8508017 -0.12852284
vn -0.16794245 0.4994308 0.84992015
vn -0.12803614 0.24797343 0.9602686
vn 0.045068037 0.28113315 0.95861
vn -0.00032049956 0.085769385 0.99631494
vn -0.43383458 0.3389413 0.83480924
vn -0.21368891 0.055650894 0.97531533
vn -0.102748096 -0.017522065 0.9945531
vn -0.5588028 0.5228663 0.64370054
vn -0.34042886 0.19840884 0.91909844
vn -0.4765283 0.036377132 0.8784062
vn -0.6678121 -0.18358879 0.72133356
vn -0.3997433 -0.11233928 0.90971714
vn -0.20468113 -0.14788185 0.9675932
vn -0.65196705 0.0945492 0.7523293
vn -0.7876404 0.21422714 0.57769316
vn -0.90912765 -0.15003762 0.38855588
vn -0.8594626 0.36653587 0.3563359
vn -0.8108788 -0.20202564 0.5492369
vn -0.6804075 0.7077834 0.18996876
vn -0.8270706 0.5437481 0.14245097
vn -0.97331387 0.21642855 0.07628104
vn -0.82977015 -0.5232563 0.19412446
vn -0.9738511 -0.0154320765 0.22666238
vn -0.8969734 -0.44207314 0.0031902636
vn -0.81937397 0.57022166 -0.058936544
vn -0.8553081 -0.51048887 0.088595144
vn -0.74464625 0.6603065 -0.09745457
vn -0.49480742 0.85997903 -0.12490672
vn -0.7084307 0.6740742 -0.2091649
vn -0.57771116 0.7721905 -0.26452166
vn -0.894946 0.20798324 -0.39473367
vn -0.7899814 0.30375192 -0.53260124
vn -0.97455174 0.03720702 -0.22105296
vn -0.98180735 -0.13479698 -0.1337318
vn -0.81058 -0.31807175 -0.49172202
vn -0.73298836 -0.34544668 -0.5859989
vn -0.7816785 -0.51162726 -0.35667378
vn -0.6222543 -0.6486272 -0.43827188
vn -0.74019134 -0.6190775 -0.26241133
vn -0.5675036 -0.75224376 -0.33476704
vn -0.70795 -0.67144656 -0.21901204
vn -0.5559641 -0.7787934 -0.2904906
vn -0.9465127 -0.31586692 -0.065892406
vn -0.686014 -0.7020542 -0.19106175
vn -0.56218743 -0.7810502 -0.27185634
vn -0.67880636 -0.7159481 -0.1632183
vn -0.57347983 -0.7754753 -0.26411918
vn -0.6874985 -0.71489966 -0.12753204
vn -0.58521813 -0.76955134 -0.2555593
vn -0.7022142 -0.70959175 -0.05809228
vn -0.5964824 -0.77440643 -0.21095851
vn -0.80008507 -0.4967158 0.33635885
vn -0.6920179 -0.71607465 0.091369644
vn -0.60000706 -0.79775405 -0.059832845
vn -0.70690066 -0.4638237 0.5340027
vn -0.6373164 -0.7104688 0.29843232
vn -0.56991 -0.7748416 0.27353823
vn -0.56829715 -0.4597433 0.68240356
vn -0.43848932 -0.49915123 0.74737877
vn -0.351243 -0.15759507 0.9229259
vn 0.23921214 0.9389819 0.24716495
vn 0.27953506 0.7392882 0.612628
vn 0.10164975 0.8211282 0.5616189
vn -0.007710788 0.56541693 0.8247692
vn 0.40573338 0.85824084 0.3143295
vn 0.51579845 0.85322195 0.07722899
vn 0.3631433 0.9317253 -0.0038496042
vn 0.65125114 0.6527216 0.3870744
vn 0.65079474 0.75853217 -0.033091303
vn 0.45694512 0.8804183 -0.12674642
vn 0.5095277 0.8508017 -0.12852235
vn 0.16794255 0.4994309 0.84992003
vn 0.12803584 0.24797346 0.96026874
vn -0.045068163 0.28113303 0.95861
vn 0.00032049962 0.085769266 0.99631494
vn 0.4338346 0.33894128 0.8348091
vn 0.21368864 0.055650778 0.97531545
vn 0.102748364 -0.017521929 0.994553
vn 0.55880314 0.5228663 0.6437003
vn 0.34042853 0.19840898 0.91909856
vn 0.47652784 0.036377132 0.87840647
vn 0.6678119 -0.18358898 0.72133374
vn 0.3997434 -0.11233912 0.909717
vn 0.20468162 -0.14788109 0.9675932
vn 0.65196705 0.09454906 0.7523294
vn 0.78764045 0.21422714 0.57769305
vn 0.90912765 -0.15003772 0.38855585
vn 0.8594628 0.3665359 0.35633576
vn 0.8108787 -0.20202585 0.549237
vn 0.6804075 0.7077835 0.18996847
vn 0.8270705 0.5437481 0.14245094
vn 0.9733138 0.21642888 0.07628134
vn 0.82977015 -0.5232564 0.19412404
vn 0.9738511 -0.015432008 0.22666228
vn 0.8969734 -0.44207314 0.0031902636
vn 0.81937397 0.5702218 -0.05893601
vn 0.8553081 -0.510489 0.08859516
vn 0.7446464 0.6603064 -0.09745349
vn 0.4948077 0.859979 -0.1249057
vn 0.7084313 0.6740739 -0.20916383
vn 0.57771194 0.7721902 -0.26452067
vn 0.8949466 0.2079826 -0.39473265
vn 0.7899826 0.30375084 -0.5326002
vn 0.9745521 0.03720668 -0.22105186
vn 0.9818075 -0.13479668 -0.13373105
vn 0.8105803 -0.31807268 -0.49172068
vn 0.7329889 -0.34544793 -0.58599746
vn 0.78167874 -0.51162785 -0.35667256
vn 0.6222546 -0.64862806 -0.43827036
vn 0.7401917 -0.6190777 -0.2624104
vn 0.567504 -0.7522441 -0.33476567
vn 0.7079503 -0.6714465 -0.21901126
vn 0.55596435 -0.7787936 -0.29048958
vn 0.9465128 -0.3158667 -0.06589188
vn 0.686014 -0.70205426 -0.19106132
vn 0.56218743 -0.78105044 -0.27185586
vn 0.6788062 -0.7159482 -0.16321829
vn 0.57347965 -0.77547544 -0.2641191
vn 0.68749845 -0.7148996 -0.12753235
vn 0.585218 -0.76955134 -0.2555595
vn 0.7022143 -0.7095916 -0.05809275
vn 0.59648246 -0.77440625 -0.21095876
vn 0.8000851 -0.49671584 0.3363584
vn 0.69201833 -0.7160741 0.09136937
vn 0.6000076 -0.7977537 -0.059832796
vn 0.70690125 -0.46382338 0.5340022
vn 0.6373173 -0.7104679 0.2984325
vn 0.5699109 -0.77484065 0.27353868
vn 0.56829804 -0.45974225 0.68240345
vn 0.43849024 -0.49914998 0.7473791
vn 0.35124364 -0.15759446 0.92292565
g pm0676_12_Eye5Skin_0
f 3/3/3 2/2/2 1/1/1
f 4/4/4 2/2/2 3/3/3
f 5/5/5 3/3/3 1/1/1
f 5/5/5 1/1/1 6/6/6
f 1/1/1 7/7/7 6/6/6
f 5/5/5 8/8/8 3/3/3
f 5/5/5 6/6/6 8/8/8
f 6/6/6 7/7/7 9/9/9
f 7/7/7 10/10/10 9/9/9
f 9/9/9 10/10/10 11/11/11
f 12/12/12 4/4/4 3/3/3
f 12/12/12 13/13/13 4/4/4
f 13/13/13 14/14/14 4/4/4
f 15/15/15 14/14/14 13/13/13
f 12/12/12 3/3/3 16/16/16
f 12/12/12 16/16/16 13/13/13
f 17/17/17 15/15/15 13/13/13
f 18/18/18 15/15/15 17/17/17
f 8/8/8 19/19/19 3/3/3
f 3/3/3 19/19/19 16/16/16
f 16/16/16 20/20/20 13/13/13
f 13/13/13 20/20/20 17/17/17
f 21/21/21 20/20/20 16/16/16
f 20/20/20 21/21/21 17/17/17
f 17/17/17 21/21/21 22/22/22
f 23/23/23 18/18/18 17/17/17
f 23/23/23 17/17/17 22/22/22
f 24/24/24 18/18/18 23/23/23
f 25/25/25 21/21/21 16/16/16
f 16/16/16 19/19/19 25/25/25
f 22/22/22 21/21/21 25/25/25
f 26/26/26 19/19/19 8/8/8
f 19/19/19 26/26/26 25/25/25
f 25/25/25 26/26/26 27/27/27
f 28/28/28 26/26/26 8/8/8
f 27/27/27 26/26/26 28/28/28
f 29/29/29 22/22/22 25/25/25
f 29/29/29 25/25/25 27/27/27
f 8/8/8 30/30/30 28/28/28
f 6/6/6 30/30/30 8/8/8
f 31/31/31 30/30/30 6/6/6
f 30/30/30 31/31/31 28/28/28
f 28/28/28 31/31/31 32/32/32
f 9/9/9 31/31/31 6/6/6
f 32/32/32 31/31/31 9/9/9
f 29/29/29 33/33/33 22/22/22
f 29/29/29 27/27/27 33/33/33
f 34/34/34 28/28/28 32/32/32
f 34/34/34 27/27/27 28/28/28
f 34/34/34 35/35/35 27/27/27
f 34/34/34 32/32/32 35/35/35
f 36/36/36 32/32/32 9/9/9
f 36/36/36 9/9/9 11/11/11
f 27/27/27 37/37/37 33/33/33
f 35/35/35 37/37/37 27/27/27
f 38/38/38 36/36/36 11/11/11
f 39/39/39 38/38/38 11/11/11
f 40/40/40 38/38/38 39/39/39
f 41/41/41 40/40/40 39/39/39
f 40/40/40 41/41/41 42/42/42
f 40/40/40 42/42/42 38/38/38
f 41/41/41 43/43/43 42/42/42
f 38/38/38 44/44/44 36/36/36
f 42/42/42 44/44/44 38/38/38
f 36/36/36 45/45/45 32/32/32
f 44/44/44 45/45/45 36/36/36
f 42/42/42 43/43/43 46/46/46
f 43/43/43 47/47/47 46/46/46
f 46/46/46 48/48/48 42/42/42
f 46/46/46 47/47/47 48/48/48
f 48/48/48 44/44/44 42/42/42
f 47/47/47 49/49/49 48/48/48
f 48/48/48 50/50/50 44/44/44
f 48/48/48 49/49/49 50/50/50
f 50/50/50 45/45/45 44/44/44
f 49/49/49 51/51/51 50/50/50
f 52/52/52 50/50/50 51/51/51
f 50/50/50 52/52/52 45/45/45
f 53/53/53 52/52/52 51/51/51
f 45/45/45 54/54/54 32/32/32
f 52/52/52 54/54/54 45/45/45
f 32/32/32 54/54/54 35/35/35
f 55/55/55 52/52/52 53/53/53
f 54/54/54 52/52/52 55/55/55
f 35/35/35 54/54/54 55/55/55
f 56/56/56 55/55/55 53/53/53
f 55/55/55 57/57/57 35/35/35
f 57/57/57 55/55/55 56/56/56
f 57/57/57 37/37/37 35/35/35
f 58/58/58 57/57/57 56/56/56
f 37/37/37 57/57/57 59/59/59
f 59/59/59 57/57/57 58/58/58
f 60/60/60 59/59/59 58/58/58
f 33/33/33 37/37/37 59/59/59
f 61/61/61 59/59/59 60/60/60
f 59/59/59 61/61/61 33/33/33
f 62/62/62 61/61/61 60/60/60
f 61/61/61 63/63/63 33/33/33
f 33/33/33 63/63/63 22/22/22
f 64/64/64 61/61/61 62/62/62
f 63/63/63 61/61/61 64/64/64
f 65/65/65 64/64/64 62/62/62
f 22/22/22 63/63/63 66/66/66
f 66/66/66 63/63/63 64/64/64
f 23/23/23 22/22/22 66/66/66
f 67/67/67 64/64/64 65/65/65
f 68/68/68 67/67/67 65/65/65
f 67/67/67 69/69/69 64/64/64
f 67/67/67 68/68/68 69/69/69
f 69/69/69 66/66/66 64/64/64
f 68/68/68 70/70/70 69/69/69
f 69/69/69 70/70/70 24/24/24
f 71/71/71 23/23/23 66/66/66
f 71/71/71 24/24/24 23/23/23
f 71/71/71 69/69/69 24/24/24
f 69/69/69 71/71/71 66/66/66
f 74/74/74 73/73/73 72/72/72
f 74/74/74 75/75/75 73/73/73
f 73/73/73 76/76/76 72/72/72
f 72/72/72 76/76/76 77/77/77
f 78/78/78 72/72/72 77/77/77
f 79/79/79 76/76/76 73/73/73
f 77/77/77 76/76/76 79/79/79
f 78/78/78 77/77/77 80/80/80
f 81/81/81 78/78/78 80/80/80
f 81/81/81 80/80/80 82/82/82
f 75/75/75 83/83/83 73/73/73
f 84/84/84 83/83/83 75/75/75
f 85/85/85 84/84/84 75/75/75
f 85/85/85 86/86/86 84/84/84
f 73/73/73 83/83/83 87/87/87
f 87/87/87 83/83/83 84/84/84
f 86/86/86 88/88/88 84/84/84
f 86/86/86 89/89/89 88/88/88
f 90/90/90 79/79/79 73/73/73
f 90/90/90 73/73/73 87/87/87
f 91/91/91 87/87/87 84/84/84
f 91/91/91 84/84/84 88/88/88
f 91/91/91 92/92/92 87/87/87
f 92/92/92 91/91/91 88/88/88
f 92/92/92 88/88/88 93/93/93
f 89/89/89 94/94/94 88/88/88
f 88/88/88 94/94/94 93/93/93
f 89/89/89 95/95/95 94/94/94
f 92/92/92 96/96/96 87/87/87
f 90/90/90 87/87/87 96/96/96
f 92/92/92 93/93/93 96/96/96
f 90/90/90 97/97/97 79/79/79
f 97/97/97 90/90/90 96/96/96
f 97/97/97 96/96/96 98/98/98
f 97/97/97 99/99/99 79/79/79
f 97/97/97 98/98/98 99/99/99
f 93/93/93 100/100/100 96/96/96
f 96/96/96 100/100/100 98/98/98
f 101/101/101 79/79/79 99/99/99
f 101/101/101 77/77/77 79/79/79
f 101/101/101 102/102/102 77/77/77
f 102/102/102 101/101/101 99/99/99
f 102/102/102 99/99/99 103/103/103
f 102/102/102 80/80/80 77/77/77
f 102/102/102 103/103/103 80/80/80
f 104/104/104 100/100/100 93/93/93
f 98/98/98 100/100/100 104/104/104
f 99/99/99 105/105/105 103/103/103
f 98/98/98 105/105/105 99/99/99
f 106/106/106 105/105/105 98/98/98
f 103/103/103 105/105/105 106/106/106
f 103/103/103 107/107/107 80/80/80
f 80/80/80 107/107/107 82/82/82
f 108/108/108 98/98/98 104/104/104
f 108/108/108 106/106/106 98/98/98
f 107/107/107 109/109/109 82/82/82
f 109/109/109 110/110/110 82/82/82
f 109/109/109 111/111/111 110/110/110
f 111/111/111 112/112/112 110/110/110
f 112/112/112 111/111/111 113/113/113
f 113/113/113 111/111/111 109/109/109
f 114/114/114 112/112/112 113/113/113
f 115/115/115 109/109/109 107/107/107
f 115/115/115 113/113/113 109/109/109
f 116/116/116 107/107/107 103/103/103
f 116/116/116 115/115/115 107/107/107
f 114/114/114 113/113/113 117/117/117
f 118/118/118 114/114/114 117/117/117
f 119/119/119 117/117/117 113/113/113
f 118/118/118 117/117/117 119/119/119
f 115/115/115 119/119/119 113/113/113
f 120/120/120 118/118/118 119/119/119
f 121/121/121 119/119/119 115/115/115
f 120/120/120 119/119/119 121/121/121
f 116/116/116 121/121/121 115/115/115
f 122/122/122 120/120/120 121/121/121
f 121/121/121 123/123/123 122/122/122
f 123/123/123 121/121/121 116/116/116
f 123/123/123 124/124/124 122/122/122
f 125/125/125 116/116/116 103/103/103
f 125/125/125 123/123/123 116/116/116
f 125/125/125 103/103/103 106/106/106
f 123/123/123 126/126/126 124/124/124
f 123/123/123 125/125/125 126/126/126
f 125/125/125 106/106/106 126/126/126
f 126/126/126 127/127/127 124/124/124
f 128/128/128 126/126/126 106/106/106
f 126/126/126 128/128/128 127/127/127
f 108/108/108 128/128/128 106/106/106
f 128/128/128 129/129/129 127/127/127
f 128/128/128 108/108/108 130/130/130
f 128/128/128 130/130/130 129/129/129
f 130/130/130 131/131/131 129/129/129
f 108/108/108 104/104/104 130/130/130
f 130/130/130 132/132/132 131/131/131
f 132/132/132 130/130/130 104/104/104
f 132/132/132 133/133/133 131/131/131
f 134/134/134 132/132/132 104/104/104
f 134/134/134 104/104/104 93/93/93
f 132/132/132 135/135/135 133/133/133
f 132/132/132 134/134/134 135/135/135
f 135/135/135 136/136/136 133/133/133
f 134/134/134 93/93/93 137/137/137
f 134/134/134 137/137/137 135/135/135
f 93/93/93 94/94/94 137/137/137
f 135/135/135 138/138/138 136/136/136
f 138/138/138 139/139/139 136/136/136
f 140/140/140 138/138/138 135/135/135
f 139/139/139 138/138/138 140/140/140
f 137/137/137 140/140/140 135/135/135
f 141/141/141 139/139/139 140/140/140
f 141/141/141 140/140/140 95/95/95
f 94/94/94 142/142/142 137/137/137
f 95/95/95 142/142/142 94/94/94
f 140/140/140 142/142/142 95/95/95
f 142/142/142 140/140/140 137/137/137
