g pm0676_12_Eye7Skin
v -0.07394163 0.9931484 0.51218355
v -0.06230511 0.9917413 0.5339889
v -0.07155306 0.9899355 0.53831476
v -0.050461292 0.9802656 0.55330676
v -0.083491266 0.99155986 0.51763886
v -0.09126409 0.9866552 0.50009286
v -0.08299752 0.98850965 0.4950206
v -0.09424538 0.9815018 0.5240401
v -0.09916558 0.9748756 0.48881698
v -0.08797002 0.9772253 0.48274168
v -0.09179775 0.9647924 0.47541472
v -0.061339863 0.9790079 0.557161
v -0.05556744 0.9638409 0.56949276
v -0.043257143 0.9634811 0.5663859
v -0.039769266 0.94648147 0.5723422
v -0.07267297 0.97180563 0.5586452
v -0.052319005 0.9467276 0.57590955
v -0.039067212 0.93521804 0.5743489
v -0.08479269 0.9793572 0.5423282
v -0.06350459 0.9629115 0.5671851
v -0.06518664 0.95189184 0.57014745
v -0.06584868 0.9365852 0.5711537
v -0.051709056 0.9329913 0.5788975
v -0.03542153 0.9213565 0.5910833
v -0.08049217 0.95688945 0.55945057
v -0.0934233 0.96295154 0.54359335
v -0.09584335 0.94529885 0.5402334
v -0.1020575 0.9669983 0.52425474
v -0.082412824 0.94065267 0.55812216
v -0.09971562 0.97759 0.5086718
v -0.10354619 0.970573 0.5033387
v -0.105395354 0.95858383 0.49791896
v -0.07971242 0.92805743 0.5545967
v -0.10351634 0.95119876 0.5202304
v -0.0995037 0.93894583 0.51401514
v -0.10411342 0.9630988 0.48248413
v -0.09122897 0.9329461 0.5345389
v -0.10990473 0.9602281 0.46803927
v -0.09731893 0.9623032 0.4623156
v -0.11567255 0.95793617 0.45669487
v -0.10492429 0.9593469 0.44873205
v -0.117616765 0.9558049 0.45438543
v -0.1060319 0.95710516 0.44559732
v -0.113150574 0.9532652 0.4661469
v -0.10831894 0.9498419 0.47985846
v -0.115223765 0.9531802 0.45426267
v -0.104226336 0.95253384 0.44667095
v -0.11046802 0.9492609 0.46327776
v -0.0999292 0.9478847 0.4575494
v -0.104016855 0.943867 0.47519985
v -0.09604118 0.942797 0.47019675
v -0.09866715 0.9393407 0.4855982
v -0.090915985 0.93837345 0.47975245
v -0.10504423 0.9455795 0.49333686
v -0.089238584 0.9329745 0.5044846
v -0.079944745 0.9311279 0.49816793
v -0.07900663 0.92727965 0.5257641
v -0.070429355 0.9239369 0.5201479
v -0.07031121 0.9229768 0.5471343
v -0.06044582 0.9195198 0.5412899
v -0.061238162 0.9203732 0.56404585
v -0.050972722 0.9176723 0.55785775
v -0.06697829 0.9248222 0.5698297
v -0.052940182 0.91803974 0.5796583
v -0.042759866 0.9156955 0.57441777
v -0.055100564 0.922042 0.5819801
v -0.044905365 0.9172432 0.590377
v -0.0352985 0.916863 0.59115374
v -0.043583095 0.9194867 0.5916701
v -0.034749307 0.91813785 0.5927431
v -0.04373653 0.92173785 0.59117264
v 0.07394163 0.9931484 0.51218355
v 0.07155306 0.9899355 0.53831476
v 0.06230511 0.9917413 0.5339889
v 0.050461292 0.9802656 0.55330676
v 0.083491266 0.99155986 0.51763886
v 0.09126409 0.9866552 0.50009286
v 0.08299752 0.98850965 0.4950206
v 0.09424538 0.9815018 0.5240401
v 0.09916558 0.9748756 0.48881698
v 0.08797002 0.9772253 0.48274168
v 0.09179775 0.9647924 0.47541472
v 0.061339863 0.9790079 0.557161
v 0.05556744 0.9638409 0.56949276
v 0.043257143 0.9634811 0.5663859
v 0.039769266 0.94648147 0.5723422
v 0.07267297 0.97180563 0.5586452
v 0.052319005 0.9467276 0.57590955
v 0.039067212 0.93521804 0.5743489
v 0.08479269 0.9793572 0.5423282
v 0.06350459 0.9629115 0.5671851
v 0.06518664 0.95189184 0.57014745
v 0.06584868 0.9365852 0.5711537
v 0.051709056 0.9329913 0.5788975
v 0.03542153 0.9213565 0.5910833
v 0.08049217 0.95688945 0.55945057
v 0.0934233 0.96295154 0.54359335
v 0.09584335 0.94529885 0.5402334
v 0.1020575 0.9669983 0.52425474
v 0.082412824 0.94065267 0.55812216
v 0.09971562 0.97759 0.5086718
v 0.10354619 0.970573 0.5033387
v 0.105395354 0.95858383 0.49791896
v 0.07971242 0.92805743 0.5545967
v 0.10351634 0.95119876 0.5202304
v 0.0995037 0.93894583 0.51401514
v 0.10411342 0.9630988 0.48248413
v 0.09122897 0.9329461 0.5345389
v 0.10990473 0.9602281 0.46803927
v 0.09731893 0.9623032 0.4623156
v 0.11567255 0.95793617 0.45669487
v 0.10492429 0.9593469 0.44873205
v 0.117616765 0.9558049 0.45438543
v 0.1060319 0.95710516 0.44559732
v 0.113150574 0.9532652 0.4661469
v 0.10831894 0.9498419 0.47985846
v 0.115223765 0.9531802 0.45426267
v 0.104226336 0.95253384 0.44667095
v 0.11046802 0.9492609 0.46327776
v 0.0999292 0.9478847 0.4575494
v 0.104016855 0.943867 0.47519985
v 0.09604118 0.942797 0.47019675
v 0.09866715 0.9393407 0.4855982
v 0.090915985 0.93837345 0.47975245
v 0.10504423 0.9455795 0.49333686
v 0.089238584 0.9329745 0.5044846
v 0.079944745 0.9311279 0.49816793
v 0.07900663 0.92727965 0.5257641
v 0.070429355 0.9239369 0.5201479
v 0.07031121 0.9229768 0.5471343
v 0.06044582 0.9195198 0.5412899
v 0.061238162 0.9203732 0.56404585
v 0.050972722 0.9176723 0.55785775
v 0.06697829 0.9248222 0.5698297
v 0.052940182 0.91803974 0.5796583
v 0.042759866 0.9156955 0.57441777
v 0.055100564 0.922042 0.5819801
v 0.044905365 0.9172432 0.590377
v 0.0352985 0.916863 0.59115374
v 0.043583095 0.9194867 0.5916701
v 0.034749307 0.91813785 0.5927431
v 0.04373653 0.92173785 0.59117264
vt 0.17717415 0.97933906
vt 0.18728888 0.9855075
vt 0.18732569 0.9757651
vt 0.19768399 0.98059946
vt 0.17883867 0.96970433
vt 0.1725215 0.95921916
vt 0.16997275 0.96588
vt 0.18069649 0.95662785
vt 0.16886044 0.9431494
vt 0.16580135 0.9480672
vt 0.16287515 0.93539596
vt 0.19569933 0.9708539
vt 0.20172668 0.95880103
vt 0.20548195 0.9660534
vt 0.21027237 0.9496075
vt 0.1942643 0.9593194
vt 0.20599806 0.9435217
vt 0.21251184 0.93927467
vt 0.18738407 0.960342
vt 0.19924068 0.9549945
vt 0.2005933 0.9445243
vt 0.20226222 0.9301362
vt 0.20860457 0.9303291
vt 0.21888308 0.9256452
vt 0.19414335 0.94449264
vt 0.18744302 0.9447487
vt 0.1875 0.9296875
vt 0.18097669 0.9429152
vt 0.19479683 0.92990935
vt 0.17579836 0.94922215
vt 0.17442071 0.94098026
vt 0.17338175 0.9292583
vt 0.19555259 0.91760725
vt 0.18080792 0.92948395
vt 0.18031499 0.9166078
vt 0.16650572 0.92904913
vt 0.18754894 0.9167417
vt 0.16061747 0.919021
vt 0.15840155 0.92418873
vt 0.1574161 0.9155892
vt 0.15397424 0.9150057
vt 0.15700161 0.90910226
vt 0.15400296 0.9076026
vt 0.16116142 0.91137326
vt 0.16723245 0.9146998
vt 0.15758789 0.90377074
vt 0.15470165 0.89914316
vt 0.16056287 0.9043063
vt 0.16000858 0.89787775
vt 0.16698432 0.9035578
vt 0.16627291 0.895768
vt 0.17232946 0.90249646
vt 0.17193747 0.89401335
vt 0.17295101 0.91623414
vt 0.17911613 0.9015494
vt 0.17852855 0.89228636
vt 0.18760535 0.9018121
vt 0.18764377 0.89170784
vt 0.19587338 0.90508705
vt 0.19656348 0.89410955
vt 0.20284629 0.9091699
vt 0.20367739 0.8979294
vt 0.20274669 0.91850346
vt 0.20920211 0.9134675
vt 0.21054357 0.90276676
vt 0.20902139 0.9185061
vt 0.21330214 0.91261876
vt 0.21871935 0.9073411
vt 0.21377951 0.9192027
vt 0.21912201 0.9167514
vt 0.2136004 0.9256392
vt 0.17717415 0.97933906
vt 0.18732572 0.9757651
vt 0.18728888 0.9855075
vt 0.19768399 0.98059946
vt 0.17883867 0.96970433
vt 0.17252147 0.95921916
vt 0.16997278 0.96588
vt 0.18069649 0.95662785
vt 0.16886044 0.9431494
vt 0.16580135 0.9480672
vt 0.16287518 0.93539596
vt 0.19569933 0.9708539
vt 0.20172668 0.95880103
vt 0.20548195 0.9660534
vt 0.21027237 0.9496075
vt 0.1942643 0.9593194
vt 0.20599806 0.9435217
vt 0.21251184 0.93927467
vt 0.18738407 0.960342
vt 0.19924068 0.9549945
vt 0.2005933 0.9445243
vt 0.20226222 0.9301362
vt 0.20860457 0.9303291
vt 0.2188831 0.9256452
vt 0.19414335 0.94449264
vt 0.18744302 0.9447487
vt 0.1875 0.9296875
vt 0.18097669 0.9429152
vt 0.1947968 0.92990935
vt 0.17579836 0.94922215
vt 0.17442071 0.94098026
vt 0.17338175 0.9292583
vt 0.19555259 0.91760725
vt 0.18080795 0.92948395
vt 0.18031502 0.9166078
vt 0.1665057 0.92904913
vt 0.18754894 0.9167417
vt 0.16061747 0.919021
vt 0.15840155 0.92418873
vt 0.1574161 0.9155892
vt 0.15397424 0.9150057
vt 0.15700161 0.90910226
vt 0.15400296 0.9076026
vt 0.16116142 0.91137326
vt 0.16723245 0.9146998
vt 0.15758789 0.90377074
vt 0.15470165 0.89914316
vt 0.16056287 0.9043063
vt 0.16000855 0.89787775
vt 0.16698432 0.9035578
vt 0.16627288 0.895768
vt 0.17232943 0.90249646
vt 0.17193747 0.89401335
vt 0.17295098 0.91623414
vt 0.17911613 0.9015494
vt 0.17852855 0.89228636
vt 0.18760538 0.9018121
vt 0.18764377 0.89170784
vt 0.19587338 0.90508705
vt 0.19656348 0.89410955
vt 0.20284629 0.9091699
vt 0.20367742 0.8979294
vt 0.20274669 0.91850346
vt 0.20920211 0.9134675
vt 0.21054357 0.90276676
vt 0.20902139 0.9185061
vt 0.21330214 0.91261876
vt 0.2187193 0.9073411
vt 0.21377951 0.9192027
vt 0.219122 0.9167514
vt 0.2136004 0.9256392
vn -0.3539911 0.93101776 0.088860355
vn -0.19561504 0.8988651 0.3921433
vn -0.35850263 0.8141522 0.45676255
vn -0.055602215 0.7532871 0.65533733
vn -0.50977814 0.84430945 0.16512975
vn -0.63106537 0.772325 -0.07259847
vn -0.48728865 0.8575647 -0.16471986
vn -0.73528594 0.62449557 0.26336282
vn -0.7589551 0.6306317 -0.16214406
vn -0.5807772 0.76419026 -0.28055507
vn -0.63107485 0.7342381 -0.25027773
vn -0.21413808 0.6788663 0.70234287
vn -0.13302223 0.50725704 0.8514666
vn 0.022706164 0.5657799 0.8242436
vn 0.012806008 0.42868286 0.90336424
vn -0.4562303 0.4935903 0.7404206
vn -0.175633 0.34936544 0.9203786
vn -0.06513569 0.35093212 0.9341327
vn -0.61488295 0.584107 0.52984715
vn -0.33329546 0.41412202 0.8470048
vn -0.43427965 0.24010624 0.86818784
vn -0.5733553 -0.041981105 0.81823057
vn -0.31035239 0.17232431 0.9348721
vn -0.13028222 0.23121259 0.96414065
vn -0.64108723 0.21017094 0.73812956
vn -0.81267756 0.23735529 0.53218204
vn -0.8801873 -0.18658967 0.43641108
vn -0.9112414 0.30347845 0.27845997
vn -0.74899006 -0.16393305 0.64198124
vn -0.77883804 0.62452686 0.05811755
vn -0.9041027 0.42547858 0.03957807
vn -0.99521375 0.082305826 0.052681662
vn -0.6939528 -0.59272516 0.4087867
vn -0.9669728 -0.10913572 0.23033223
vn -0.8265067 -0.5520393 0.11017865
vn -0.89749324 0.42778155 -0.10727972
vn -0.7555641 -0.6088606 0.24168487
vn -0.8339643 0.54242766 -0.10136969
vn -0.61026126 0.76408464 -0.20917913
vn -0.80552846 0.55645007 -0.20368464
vn -0.68469447 0.65848637 -0.31239277
vn -0.9541169 0.021708135 -0.29864657
vn -0.8623368 0.106629916 -0.49498004
vn -0.9886362 -0.119462445 -0.0912538
vn -0.963365 -0.2665361 -0.029772159
vn -0.7886456 -0.5133038 -0.33846304
vn -0.7047456 -0.5429754 -0.4566303
vn -0.7299677 -0.6565021 -0.19013691
vn -0.5521407 -0.78135103 -0.29091454
vn -0.67534906 -0.72845787 -0.11512129
vn -0.4824592 -0.85342234 -0.19723982
vn -0.6235868 -0.7777225 -0.079292394
vn -0.4496291 -0.8808624 -0.14803746
vn -0.90117496 -0.4327267 0.025122685
vn -0.5717548 -0.819927 -0.028569628
vn -0.42678237 -0.89916676 -0.09672663
vn -0.5303593 -0.8461544 0.0523618
vn -0.40731803 -0.9127765 -0.030511327
vn -0.5019456 -0.85019726 0.15879306
vn -0.38593948 -0.92124444 0.04857247
vn -0.48281112 -0.8251208 0.29337537
vn -0.36456022 -0.91811395 0.15544339
vn -0.629203 -0.4991001 0.5958209
vn -0.449235 -0.7537842 0.4795803
vn -0.34268796 -0.8736452 0.34541145
vn -0.5152754 -0.3397204 0.7868172
vn -0.3897678 -0.6308819 0.67087185
vn -0.31161317 -0.68967074 0.65364474
vn -0.37974045 -0.22218943 0.89801395
vn -0.25525606 -0.20402908 0.9451013
vn -0.254678 0.17596929 0.95088065
vn 0.35399133 0.93101776 0.08885998
vn 0.358503 0.814152 0.45676252
vn 0.19561519 0.898865 0.39214337
vn 0.055602014 0.75328696 0.65533745
vn 0.50977844 0.8443093 0.16512936
vn 0.63106555 0.77232486 -0.07259895
vn 0.48728874 0.85756457 -0.16472043
vn 0.7352861 0.6244954 0.26336256
vn 0.75895506 0.63063174 -0.16214427
vn 0.5807772 0.7641902 -0.2805553
vn 0.63107467 0.73423815 -0.25027782
vn 0.21413827 0.67886615 0.70234287
vn 0.1330221 0.5072573 0.8514665
vn -0.022706738 0.56578016 0.8242434
vn -0.012806775 0.42868322 0.90336406
vn 0.45623055 0.49358997 0.74042046
vn 0.17563276 0.34936583 0.92037857
vn 0.06513496 0.35093263 0.93413264
vn 0.6148833 0.58410674 0.529847
vn 0.33329582 0.41412205 0.8470046
vn 0.4342799 0.24010621 0.8681877
vn 0.5733555 -0.041980963 0.8182305
vn 0.31035212 0.17232476 0.9348721
vn 0.13028167 0.23121375 0.96414053
vn 0.64108723 0.2101709 0.73812956
vn 0.8126776 0.23735498 0.532182
vn 0.88018715 -0.18658958 0.43641144
vn 0.9112414 0.30347827 0.2784599
vn 0.74898994 -0.1639329 0.64198136
vn 0.77883816 0.62452674 0.058117285
vn 0.9041027 0.42547846 0.03957806
vn 0.99521375 0.08230599 0.052681964
vn 0.6939526 -0.5927249 0.4087873
vn 0.9669728 -0.10913579 0.23033252
vn 0.8265067 -0.5520393 0.110178776
vn 0.8974931 0.42778158 -0.107280076
vn 0.75556403 -0.60886055 0.24168542
vn 0.83396417 0.5424274 -0.10137172
vn 0.610261 0.7640845 -0.20918024
vn 0.80552787 0.5564494 -0.20368809
vn 0.6846939 0.6584857 -0.3123953
vn 0.9541157 0.021707777 -0.29865047
vn 0.8623352 0.106629305 -0.49498308
vn 0.9886359 -0.119462594 -0.09125631
vn 0.963365 -0.26653594 -0.029773008
vn 0.7886446 -0.51330394 -0.33846533
vn 0.70474446 -0.54297554 -0.4566319
vn 0.72996753 -0.65650195 -0.19013824
vn 0.55214053 -0.78135085 -0.290915
vn 0.67534924 -0.7284575 -0.11512194
vn 0.4824595 -0.853422 -0.19724008
vn 0.623587 -0.7777222 -0.0792927
vn 0.44962943 -0.8808622 -0.14803784
vn 0.90117514 -0.43272647 0.02512268
vn 0.571755 -0.8199268 -0.028569624
vn 0.42678243 -0.89916664 -0.09672679
vn 0.5303594 -0.84615433 0.05236231
vn 0.40731803 -0.91277665 -0.030511212
vn 0.50194556 -0.85019726 0.15879358
vn 0.38593945 -0.92124444 0.04857296
vn 0.48281097 -0.8251208 0.29337564
vn 0.36456007 -0.91811395 0.15544367
vn 0.6292029 -0.49909994 0.59582126
vn 0.44923458 -0.753784 0.47958103
vn 0.34268758 -0.87364495 0.34541225
vn 0.51527506 -0.33971983 0.78681767
vn 0.38976684 -0.63088083 0.67087334
vn 0.3116124 -0.68966967 0.65364635
vn 0.37973952 -0.22218776 0.8980147
vn 0.25525525 -0.20402691 0.945102
vn 0.25467744 0.17597032 0.9508805
g pm0676_12_Eye7Skin_0
f 3/3/3 2/2/2 1/1/1
f 4/4/4 2/2/2 3/3/3
f 5/5/5 3/3/3 1/1/1
f 5/5/5 1/1/1 6/6/6
f 1/1/1 7/7/7 6/6/6
f 5/5/5 8/8/8 3/3/3
f 5/5/5 6/6/6 8/8/8
f 6/6/6 7/7/7 9/9/9
f 7/7/7 10/10/10 9/9/9
f 9/9/9 10/10/10 11/11/11
f 12/12/12 4/4/4 3/3/3
f 12/12/12 13/13/13 4/4/4
f 13/13/13 14/14/14 4/4/4
f 15/15/15 14/14/14 13/13/13
f 12/12/12 3/3/3 16/16/16
f 12/12/12 16/16/16 13/13/13
f 17/17/17 15/15/15 13/13/13
f 18/18/18 15/15/15 17/17/17
f 8/8/8 19/19/19 3/3/3
f 3/3/3 19/19/19 16/16/16
f 16/16/16 20/20/20 13/13/13
f 13/13/13 20/20/20 17/17/17
f 21/21/21 20/20/20 16/16/16
f 20/20/20 21/21/21 17/17/17
f 17/17/17 21/21/21 22/22/22
f 23/23/23 18/18/18 17/17/17
f 23/23/23 17/17/17 22/22/22
f 24/24/24 18/18/18 23/23/23
f 25/25/25 21/21/21 16/16/16
f 16/16/16 19/19/19 25/25/25
f 22/22/22 21/21/21 25/25/25
f 26/26/26 19/19/19 8/8/8
f 19/19/19 26/26/26 25/25/25
f 25/25/25 26/26/26 27/27/27
f 28/28/28 26/26/26 8/8/8
f 27/27/27 26/26/26 28/28/28
f 29/29/29 22/22/22 25/25/25
f 29/29/29 25/25/25 27/27/27
f 8/8/8 30/30/30 28/28/28
f 6/6/6 30/30/30 8/8/8
f 31/31/31 30/30/30 6/6/6
f 30/30/30 31/31/31 28/28/28
f 28/28/28 31/31/31 32/32/32
f 9/9/9 31/31/31 6/6/6
f 32/32/32 31/31/31 9/9/9
f 29/29/29 33/33/33 22/22/22
f 29/29/29 27/27/27 33/33/33
f 34/34/34 28/28/28 32/32/32
f 34/34/34 27/27/27 28/28/28
f 34/34/34 35/35/35 27/27/27
f 34/34/34 32/32/32 35/35/35
f 36/36/36 32/32/32 9/9/9
f 36/36/36 9/9/9 11/11/11
f 27/27/27 37/37/37 33/33/33
f 35/35/35 37/37/37 27/27/27
f 38/38/38 36/36/36 11/11/11
f 39/39/39 38/38/38 11/11/11
f 40/40/40 38/38/38 39/39/39
f 41/41/41 40/40/40 39/39/39
f 40/40/40 41/41/41 42/42/42
f 40/40/40 42/42/42 38/38/38
f 41/41/41 43/43/43 42/42/42
f 38/38/38 44/44/44 36/36/36
f 42/42/42 44/44/44 38/38/38
f 36/36/36 45/45/45 32/32/32
f 44/44/44 45/45/45 36/36/36
f 42/42/42 43/43/43 46/46/46
f 43/43/43 47/47/47 46/46/46
f 46/46/46 48/48/48 42/42/42
f 46/46/46 47/47/47 48/48/48
f 48/48/48 44/44/44 42/42/42
f 47/47/47 49/49/49 48/48/48
f 48/48/48 50/50/50 44/44/44
f 48/48/48 49/49/49 50/50/50
f 50/50/50 45/45/45 44/44/44
f 49/49/49 51/51/51 50/50/50
f 52/52/52 50/50/50 51/51/51
f 50/50/50 52/52/52 45/45/45
f 53/53/53 52/52/52 51/51/51
f 45/45/45 54/54/54 32/32/32
f 52/52/52 54/54/54 45/45/45
f 32/32/32 54/54/54 35/35/35
f 55/55/55 52/52/52 53/53/53
f 54/54/54 52/52/52 55/55/55
f 35/35/35 54/54/54 55/55/55
f 56/56/56 55/55/55 53/53/53
f 55/55/55 57/57/57 35/35/35
f 57/57/57 55/55/55 56/56/56
f 57/57/57 37/37/37 35/35/35
f 58/58/58 57/57/57 56/56/56
f 37/37/37 57/57/57 59/59/59
f 59/59/59 57/57/57 58/58/58
f 60/60/60 59/59/59 58/58/58
f 33/33/33 37/37/37 59/59/59
f 61/61/61 59/59/59 60/60/60
f 59/59/59 61/61/61 33/33/33
f 62/62/62 61/61/61 60/60/60
f 61/61/61 63/63/63 33/33/33
f 33/33/33 63/63/63 22/22/22
f 64/64/64 61/61/61 62/62/62
f 63/63/63 61/61/61 64/64/64
f 65/65/65 64/64/64 62/62/62
f 22/22/22 63/63/63 66/66/66
f 66/66/66 63/63/63 64/64/64
f 23/23/23 22/22/22 66/66/66
f 67/67/67 64/64/64 65/65/65
f 68/68/68 67/67/67 65/65/65
f 67/67/67 69/69/69 64/64/64
f 67/67/67 68/68/68 69/69/69
f 69/69/69 66/66/66 64/64/64
f 68/68/68 70/70/70 69/69/69
f 69/69/69 70/70/70 24/24/24
f 71/71/71 23/23/23 66/66/66
f 71/71/71 24/24/24 23/23/23
f 71/71/71 69/69/69 24/24/24
f 69/69/69 71/71/71 66/66/66
f 74/74/74 73/73/73 72/72/72
f 74/74/74 75/75/75 73/73/73
f 73/73/73 76/76/76 72/72/72
f 72/72/72 76/76/76 77/77/77
f 78/78/78 72/72/72 77/77/77
f 79/79/79 76/76/76 73/73/73
f 77/77/77 76/76/76 79/79/79
f 78/78/78 77/77/77 80/80/80
f 81/81/81 78/78/78 80/80/80
f 81/81/81 80/80/80 82/82/82
f 75/75/75 83/83/83 73/73/73
f 84/84/84 83/83/83 75/75/75
f 85/85/85 84/84/84 75/75/75
f 85/85/85 86/86/86 84/84/84
f 73/73/73 83/83/83 87/87/87
f 87/87/87 83/83/83 84/84/84
f 86/86/86 88/88/88 84/84/84
f 86/86/86 89/89/89 88/88/88
f 90/90/90 79/79/79 73/73/73
f 90/90/90 73/73/73 87/87/87
f 91/91/91 87/87/87 84/84/84
f 91/91/91 84/84/84 88/88/88
f 91/91/91 92/92/92 87/87/87
f 92/92/92 91/91/91 88/88/88
f 92/92/92 88/88/88 93/93/93
f 89/89/89 94/94/94 88/88/88
f 88/88/88 94/94/94 93/93/93
f 89/89/89 95/95/95 94/94/94
f 92/92/92 96/96/96 87/87/87
f 90/90/90 87/87/87 96/96/96
f 92/92/92 93/93/93 96/96/96
f 90/90/90 97/97/97 79/79/79
f 97/97/97 90/90/90 96/96/96
f 97/97/97 96/96/96 98/98/98
f 97/97/97 99/99/99 79/79/79
f 97/97/97 98/98/98 99/99/99
f 93/93/93 100/100/100 96/96/96
f 96/96/96 100/100/100 98/98/98
f 101/101/101 79/79/79 99/99/99
f 101/101/101 77/77/77 79/79/79
f 101/101/101 102/102/102 77/77/77
f 102/102/102 101/101/101 99/99/99
f 102/102/102 99/99/99 103/103/103
f 102/102/102 80/80/80 77/77/77
f 102/102/102 103/103/103 80/80/80
f 104/104/104 100/100/100 93/93/93
f 98/98/98 100/100/100 104/104/104
f 99/99/99 105/105/105 103/103/103
f 98/98/98 105/105/105 99/99/99
f 106/106/106 105/105/105 98/98/98
f 103/103/103 105/105/105 106/106/106
f 103/103/103 107/107/107 80/80/80
f 80/80/80 107/107/107 82/82/82
f 108/108/108 98/98/98 104/104/104
f 108/108/108 106/106/106 98/98/98
f 107/107/107 109/109/109 82/82/82
f 109/109/109 110/110/110 82/82/82
f 109/109/109 111/111/111 110/110/110
f 111/111/111 112/112/112 110/110/110
f 112/112/112 111/111/111 113/113/113
f 113/113/113 111/111/111 109/109/109
f 114/114/114 112/112/112 113/113/113
f 115/115/115 109/109/109 107/107/107
f 115/115/115 113/113/113 109/109/109
f 116/116/116 107/107/107 103/103/103
f 116/116/116 115/115/115 107/107/107
f 114/114/114 113/113/113 117/117/117
f 118/118/118 114/114/114 117/117/117
f 119/119/119 117/117/117 113/113/113
f 118/118/118 117/117/117 119/119/119
f 115/115/115 119/119/119 113/113/113
f 120/120/120 118/118/118 119/119/119
f 121/121/121 119/119/119 115/115/115
f 120/120/120 119/119/119 121/121/121
f 116/116/116 121/121/121 115/115/115
f 122/122/122 120/120/120 121/121/121
f 121/121/121 123/123/123 122/122/122
f 123/123/123 121/121/121 116/116/116
f 123/123/123 124/124/124 122/122/122
f 125/125/125 116/116/116 103/103/103
f 125/125/125 123/123/123 116/116/116
f 125/125/125 103/103/103 106/106/106
f 123/123/123 126/126/126 124/124/124
f 123/123/123 125/125/125 126/126/126
f 125/125/125 106/106/106 126/126/126
f 126/126/126 127/127/127 124/124/124
f 128/128/128 126/126/126 106/106/106
f 126/126/126 128/128/128 127/127/127
f 108/108/108 128/128/128 106/106/106
f 128/128/128 129/129/129 127/127/127
f 128/128/128 108/108/108 130/130/130
f 128/128/128 130/130/130 129/129/129
f 130/130/130 131/131/131 129/129/129
f 108/108/108 104/104/104 130/130/130
f 130/130/130 132/132/132 131/131/131
f 132/132/132 130/130/130 104/104/104
f 132/132/132 133/133/133 131/131/131
f 134/134/134 132/132/132 104/104/104
f 134/134/134 104/104/104 93/93/93
f 132/132/132 135/135/135 133/133/133
f 132/132/132 134/134/134 135/135/135
f 135/135/135 136/136/136 133/133/133
f 134/134/134 93/93/93 137/137/137
f 134/134/134 137/137/137 135/135/135
f 93/93/93 94/94/94 137/137/137
f 135/135/135 138/138/138 136/136/136
f 138/138/138 139/139/139 136/136/136
f 140/140/140 138/138/138 135/135/135
f 139/139/139 138/138/138 140/140/140
f 137/137/137 140/140/140 135/135/135
f 141/141/141 139/139/139 140/140/140
f 141/141/141 140/140/140 95/95/95
f 94/94/94 142/142/142 137/137/137
f 95/95/95 142/142/142 94/94/94
f 140/140/140 142/142/142 95/95/95
f 142/142/142 140/140/140 137/137/137
