g pm0676_16_Eye7Skin
v -0.07394163 0.9931484 0.51218355
v -0.06230511 0.9917413 0.5339889
v -0.07155306 0.9899355 0.53831476
v -0.050461292 0.9802656 0.55330676
v -0.083491266 0.99155986 0.51763886
v -0.09126409 0.9866552 0.50009286
v -0.08299752 0.98850965 0.4950206
v -0.09424538 0.9815018 0.5240401
v -0.09791785 0.97506607 0.48820853
v -0.09029229 0.97717613 0.48271006
v -0.08996328 0.9649097 0.47514072
v -0.061339863 0.9790079 0.557161
v -0.05556744 0.9638409 0.56949276
v -0.043257143 0.9634811 0.5663859
v -0.039769266 0.94648147 0.5723422
v -0.07267297 0.97180563 0.5586452
v -0.052319005 0.9467276 0.57590955
v -0.039067212 0.93521804 0.5743489
v -0.08479269 0.9793572 0.5423282
v -0.06350459 0.9629115 0.5671851
v -0.06518664 0.95189184 0.57014745
v -0.06584868 0.9365852 0.5711537
v -0.051709056 0.9329913 0.5788975
v -0.03542153 0.9213565 0.5910833
v -0.08049217 0.95688945 0.55945057
v -0.0934233 0.96295154 0.54359335
v -0.09584335 0.94529885 0.5402334
v -0.1020575 0.9669983 0.52425474
v -0.082412824 0.94065267 0.55812216
v -0.09971562 0.97759 0.5086718
v -0.10354619 0.970573 0.5033387
v -0.10526335 0.95858383 0.49791896
v -0.07971242 0.92805743 0.5545967
v -0.10351634 0.95119876 0.5202304
v -0.0995037 0.93894583 0.51401514
v -0.09931127 0.9636437 0.48058042
v -0.09122897 0.9329461 0.5345389
v -0.10216875 0.96148115 0.46277013
v -0.09513598 0.96250457 0.4596509
v -0.10547036 0.9590013 0.4502991
v -0.10126066 0.9598071 0.44669768
v -0.10579506 0.95673 0.44763294
v -0.1022419 0.95765233 0.44459963
v -0.10591228 0.95448714 0.4611343
v -0.10529148 0.95041776 0.4779948
v -0.10519328 0.9535656 0.44862857
v -0.10109578 0.95374084 0.4449669
v -0.1022987 0.94962573 0.45679936
v -0.096232146 0.9490854 0.45379722
v -0.09766879 0.9435888 0.472848
v -0.09067745 0.9427668 0.46833193
v -0.09401714 0.9384921 0.4862385
v -0.08623618 0.93704474 0.48211315
v -0.104429215 0.9455757 0.49330905
v -0.08775445 0.9329745 0.5037765
v -0.079944745 0.9307263 0.49816793
v -0.07900663 0.92727965 0.5257641
v -0.070429355 0.9239369 0.5201479
v -0.07031121 0.9229768 0.5471343
v -0.06044582 0.9195198 0.5412899
v -0.061238162 0.9203732 0.56404585
v -0.050972722 0.9176723 0.55785775
v -0.06697829 0.9248222 0.5698297
v -0.052940182 0.91803974 0.5796583
v -0.042759866 0.9156955 0.57441777
v -0.055100564 0.922042 0.5819801
v -0.044905365 0.9172432 0.590377
v -0.0352985 0.916863 0.59115374
v -0.043583095 0.9194867 0.5916701
v -0.034749307 0.91813785 0.5927431
v -0.04373653 0.92173785 0.59117264
v 0.07393788 0.99314636 0.51218164
v 0.07155063 0.98993415 0.5383135
v 0.06230511 0.9917413 0.5339889
v 0.050462976 0.9802656 0.55330676
v 0.083488576 0.9915584 0.51763743
v 0.09125714 0.98665226 0.5000903
v 0.082988 0.9885061 0.49501735
v 0.094245136 0.98150134 0.52403975
v 0.097912036 0.97506285 0.48820564
v 0.090285376 0.9771722 0.48270655
v 0.089943245 0.9648984 0.47513038
v 0.06133988 0.9790079 0.557161
v 0.05557173 0.9638409 0.56949276
v 0.043264702 0.9634811 0.5663859
v 0.03976978 0.94648147 0.5723422
v 0.07267302 0.97180563 0.5586452
v 0.052319355 0.9467276 0.57590955
v 0.039067365 0.93521804 0.5743489
v 0.08478842 0.97935474 0.5423259
v 0.06350445 0.9629115 0.5671851
v 0.0651863 0.95189184 0.57014745
v 0.06584752 0.9365852 0.5711537
v 0.05170942 0.9329913 0.5788975
v 0.035418116 0.9213565 0.5910833
v 0.08049206 0.9568894 0.5594505
v 0.0934529 0.9629506 0.54359245
v 0.0958434 0.94529885 0.5402334
v 0.1020759 0.96699893 0.52425534
v 0.08239708 0.94065267 0.5581222
v 0.09971627 0.9775887 0.5086706
v 0.10354921 0.9705721 0.50333786
v 0.105266854 0.95858383 0.497919
v 0.07970142 0.92805743 0.5545967
v 0.10353182 0.9512005 0.520232
v 0.09950365 0.93894583 0.51401514
v 0.099305876 0.9636408 0.4805778
v 0.091220215 0.9329461 0.5345389
v 0.10213067 0.9614543 0.4627503
v 0.09509084 0.9624787 0.45962715
v 0.105470255 0.95900124 0.45029902
v 0.10125985 0.9598066 0.44669726
v 0.105794825 0.95672995 0.44763285
v 0.10224177 0.9576523 0.44459957
v 0.10591193 0.95448536 0.46113443
v 0.105291955 0.9504119 0.47799528
v 0.10519317 0.9535655 0.44862854
v 0.10109552 0.9537408 0.44496688
v 0.102298915 0.9496219 0.4567996
v 0.096232176 0.9490839 0.45379728
v 0.0976697 0.9435783 0.47284892
v 0.090678245 0.9427568 0.46833277
v 0.09401854 0.93847674 0.48623988
v 0.08623751 0.9370293 0.48211452
v 0.10442967 0.9455705 0.4933095
v 0.08775471 0.9329574 0.50377804
v 0.07994632 0.9307089 0.4981695
v 0.07899918 0.92727965 0.52576417
v 0.07042433 0.9239369 0.5201479
v 0.07030369 0.9229768 0.5471343
v 0.060441274 0.9195198 0.5412899
v 0.06123817 0.9203732 0.56404585
v 0.050972722 0.9176723 0.55785775
v 0.0669783 0.9248222 0.5698297
v 0.052940182 0.91803974 0.5796583
v 0.042759866 0.9156955 0.57441777
v 0.055100568 0.922042 0.5819801
v 0.044905365 0.9172432 0.590377
v 0.0352985 0.916863 0.59115374
v 0.04358266 0.9194867 0.5916701
v 0.034749307 0.91813785 0.5927431
v 0.04373444 0.9217378 0.59117246
vt 0.16516992 0.22364762
vt 0.17173788 0.22765303
vt 0.17176187 0.22132692
vt 0.17848796 0.22446594
vt 0.16625065 0.2173912
vt 0.16214865 0.21058261
vt 0.16049357 0.21490788
vt 0.16745712 0.20889997
vt 0.15977125 0.20014778
vt 0.1577849 0.20334104
vt 0.15588486 0.1951131
vt 0.17719921 0.21813777
vt 0.18111306 0.21031117
vt 0.18355167 0.21502054
vt 0.18666226 0.20434132
vt 0.17626743 0.21064791
vt 0.1838867 0.20038958
vt 0.18811649 0.1976316
vt 0.17179978 0.21131176
vt 0.1794989 0.20783937
vt 0.18037719 0.20104054
vt 0.18146086 0.19169763
vt 0.18557924 0.19182283
vt 0.19196644 0.18911505
vt 0.1761888 0.20101997
vt 0.17183805 0.20118621
vt 0.171875 0.19140625
vt 0.16763906 0.19999559
vt 0.17661327 0.19155025
vt 0.16427656 0.20409104
vt 0.16338193 0.1987391
vt 0.16270725 0.19112751
vt 0.17710394 0.18356185
vt 0.16752939 0.19127405
vt 0.16720937 0.18291293
vt 0.15824234 0.19099167
vt 0.17190677 0.18299986
vt 0.15441875 0.18447983
vt 0.15297988 0.18783551
vt 0.15164903 0.1819568
vt 0.14757408 0.18159792
vt 0.15077259 0.17796737
vt 0.14763507 0.17704515
vt 0.15477194 0.17951372
vt 0.15871419 0.18167393
vt 0.15201247 0.1746887
vt 0.14911233 0.17141283
vt 0.15438327 0.17492488
vt 0.15402341 0.17075051
vt 0.1585531 0.1744389
vt 0.15809116 0.16938056
vt 0.16202395 0.17374966
vt 0.16176929 0.16824123
vt 0.1624276 0.18267019
vt 0.16643092 0.17313465
vt 0.1660494 0.1671196
vt 0.17194347 0.17330527
vt 0.1719683 0.16674402
vt 0.17731233 0.17543182
vt 0.17776048 0.16830361
vt 0.18184018 0.17808306
vt 0.18237981 0.17078404
vt 0.18177539 0.18414383
vt 0.18596733 0.1808736
vt 0.18683845 0.17392524
vt 0.18585005 0.18414558
vt 0.18932717 0.18018144
vt 0.19182315 0.1765616
vt 0.18974477 0.18469653
vt 0.19217551 0.18085752
vt 0.1895879 0.18911089
vt 0.16517001 0.22364756
vt 0.17176187 0.22132698
vt 0.17173791 0.22765312
vt 0.17848802 0.224466
vt 0.16625065 0.21739122
vt 0.16214865 0.21058255
vt 0.16049355 0.21490791
vt 0.16745716 0.2089
vt 0.15977132 0.20014793
vt 0.15778476 0.203341
vt 0.15588486 0.19511324
vt 0.17719918 0.21813786
vt 0.181113 0.21031117
vt 0.18355173 0.21502057
vt 0.18666226 0.20434129
vt 0.17626745 0.21064791
vt 0.1838867 0.20038968
vt 0.18811661 0.19763166
vt 0.17179972 0.21131179
vt 0.17949885 0.20783937
vt 0.18037713 0.20104048
vt 0.1814608 0.1916976
vt 0.18557924 0.19182283
vt 0.19196653 0.1891152
vt 0.17618877 0.20102009
vt 0.17183799 0.20118627
vt 0.171875 0.19140625
vt 0.1676392 0.19999564
vt 0.17661315 0.19155025
vt 0.16427654 0.20409116
vt 0.16338193 0.19873914
vt 0.16270733 0.19112754
vt 0.17710406 0.18356183
vt 0.1675294 0.1912741
vt 0.16720933 0.18291292
vt 0.15824229 0.1909917
vt 0.17190683 0.18299988
vt 0.1544187 0.18447986
vt 0.15297979 0.18783548
vt 0.151649 0.1819568
vt 0.14757442 0.18159798
vt 0.15077215 0.17796762
vt 0.1476348 0.17704527
vt 0.15477204 0.17951372
vt 0.15871412 0.18167394
vt 0.15201235 0.17468852
vt 0.14911205 0.17141289
vt 0.15438324 0.17492488
vt 0.15402335 0.17075056
vt 0.15855312 0.17443877
vt 0.15809113 0.16938055
vt 0.16202396 0.17374969
vt 0.16176933 0.1682412
vt 0.16242766 0.18267024
vt 0.16643095 0.17313468
vt 0.16604942 0.16711965
vt 0.17194343 0.1733053
vt 0.17196822 0.16674405
vt 0.17731237 0.17543179
vt 0.17776048 0.16830364
vt 0.18184012 0.17808309
vt 0.18237984 0.17078406
vt 0.18177545 0.18414387
vt 0.18596739 0.18087372
vt 0.18683839 0.17392522
vt 0.18585002 0.18414566
vt 0.18932712 0.18018155
vt 0.1918233 0.1765623
vt 0.18974471 0.18469667
vt 0.19217551 0.18085772
vt 0.18958795 0.18911104
vn -0.42290515 0.89614326 0.13445577
vn -0.27073067 0.8663035 0.41978955
vn -0.40576798 0.7843439 0.4692089
vn -0.13513318 0.7350735 0.6643839
vn -0.5500212 0.8136081 0.1884634
vn -0.66146666 0.7489035 -0.040069237
vn -0.54963976 0.8291297 -0.10217623
vn -0.74323004 0.61665154 0.25951868
vn -0.77930737 0.607277 -0.15457895
vn -0.64509714 0.7281823 -0.23151709
vn -0.7094289 0.649242 -0.2742179
vn -0.2637157 0.66195625 0.7016181
vn -0.18424551 0.5100573 0.8401757
vn -0.0620226 0.56837183 0.8204308
vn -0.07285645 0.42247576 0.9034413
vn -0.46943876 0.49096614 0.7338798
vn -0.22174227 0.34642825 0.91149205
vn -0.13869584 0.28741726 0.94771034
vn -0.6271141 0.5748179 0.5256543
vn -0.34988758 0.42165118 0.8365339
vn -0.4439419 0.24660784 0.8614524
vn -0.56932366 -0.05802761 0.82006305
vn -0.33063272 0.11568408 0.9366425
vn -0.19249813 0.13159579 0.9724336
vn -0.6434386 0.2177846 0.7338642
vn -0.8156591 0.24599582 0.52362806
vn -0.8864995 -0.17533925 0.4282228
vn -0.91295177 0.31477827 0.2596799
vn -0.7492557 -0.16065736 0.6424991
vn -0.7835601 0.6185572 0.058485366
vn -0.90322477 0.42881012 0.017515553
vn -0.9963199 0.08248839 -0.023287145
vn -0.7012657 -0.57225627 0.42514616
vn -0.97565746 -0.09798563 0.1961922
vn -0.84455776 -0.530217 0.07478057
vn -0.90189767 0.37914926 -0.20694551
vn -0.77416587 -0.5840488 0.24403748
vn -0.8576461 0.43443534 -0.27515286
vn -0.71919316 0.6260933 -0.30127767
vn -0.83941776 0.42259088 -0.3417526
vn -0.7780896 0.49924645 -0.38122115
vn -0.91293 0.0339944 -0.40669793
vn -0.87025714 0.07865417 -0.48627767
vn -0.94938904 -0.076714985 -0.30459037
vn -0.95014405 -0.23092328 -0.20952502
vn -0.8263076 -0.3707185 -0.42400885
vn -0.77874625 -0.41203487 -0.47305554
vn -0.7814719 -0.5283535 -0.33187973
vn -0.6533653 -0.6653827 -0.3610812
vn -0.7217152 -0.65108573 -0.23497784
vn -0.56804305 -0.7813008 -0.2586429
vn -0.6658498 -0.732571 -0.14136392
vn -0.51954216 -0.836278 -0.17525695
vn -0.9082169 -0.41121492 -0.07774605
vn -0.61707443 -0.78587174 -0.04030776
vn -0.48794705 -0.86785364 -0.09347624
vn -0.57416046 -0.8155263 0.072502844
vn -0.4605039 -0.88764215 -0.0052382573
vn -0.53769654 -0.8192372 0.1993307
vn -0.43451503 -0.8956301 0.09509684
vn -0.50332934 -0.78899014 0.35235512
vn -0.41122797 -0.882695 0.2274669
vn -0.6145508 -0.49232277 0.61639726
vn -0.4551203 -0.70770067 0.54039365
vn -0.38676947 -0.81819195 0.42540717
vn -0.4890882 -0.35453928 0.7969283
vn -0.4001236 -0.5874713 0.70340496
vn -0.35393885 -0.6327084 0.68877244
vn -0.37712505 -0.25938338 0.889099
vn -0.29571065 -0.2368461 0.9254508
vn -0.28062376 0.07501194 0.9568822
vn 0.4228069 0.89621 0.13432075
vn 0.40569612 0.7844218 0.46914086
vn 0.270691 0.8663489 0.41972125
vn 0.13512588 0.7350991 0.6643571
vn 0.54989123 0.81373113 0.1883116
vn 0.66127247 0.74906266 -0.04029853
vn 0.54946005 0.8292239 -0.10237819
vn 0.7431145 0.61685413 0.2593685
vn 0.779062 0.6075231 -0.15484878
vn 0.6448182 0.72835684 -0.23174495
vn 0.7090325 0.64962137 -0.2743447
vn 0.26368895 0.6619892 0.70159703
vn 0.18424603 0.51006657 0.84016997
vn 0.062027805 0.56838536 0.8204209
vn 0.072865196 0.4224832 0.903437
vn 0.46939355 0.49099427 0.7338899
vn 0.22175403 0.34642148 0.9114919
vn 0.13870472 0.28742686 0.9477061
vn 0.62703454 0.5749325 0.5256237
vn 0.3498765 0.42164844 0.8365399
vn 0.44394174 0.24656825 0.8614638
vn 0.56933004 -0.058090284 0.8200542
vn 0.33065063 0.115677625 0.936637
vn 0.1925018 0.13161287 0.9724305
vn 0.6434071 0.21773477 0.73390657
vn 0.81563616 0.2460114 0.5236565
vn 0.8864571 -0.17546351 0.4282598
vn 0.9129348 0.31492594 0.25956059
vn 0.74921155 -0.16077645 0.6425208
vn 0.7833958 0.6187882 0.058242086
vn 0.90311205 0.42905828 0.017250093
vn 0.99629503 0.08272557 -0.023511278
vn 0.70121366 -0.57230204 0.4251703
vn 0.97567165 -0.097989164 0.19612014
vn 0.8445504 -0.5302269 0.07479347
vn 0.9016434 0.37964597 -0.20714274
vn 0.7740922 -0.5841165 0.244109
vn 0.85724753 0.43528423 -0.27505305
vn 0.7186807 0.62674916 -0.30113715
vn 0.8390349 0.42358494 -0.3414619
vn 0.7776708 0.5001259 -0.38092288
vn 0.9129328 0.034887712 -0.40661606
vn 0.87023365 0.079462074 -0.48618832
vn 0.9494333 -0.075909734 -0.30465412
vn 0.9502211 -0.23042518 -0.20972373
vn 0.82647705 -0.37021238 -0.42412087
vn 0.77888197 -0.41163513 -0.47318006
vn 0.7816592 -0.52796125 -0.33206305
vn 0.653502 -0.6651463 -0.36126933
vn 0.72188014 -0.6508374 -0.23515896
vn 0.56817377 -0.7811536 -0.25880024
vn 0.665958 -0.73246175 -0.14142057
vn 0.5196406 -0.83620995 -0.17529021
vn 0.90828866 -0.4110317 -0.07787676
vn 0.6171029 -0.7858538 -0.040222313
vn 0.48798996 -0.86784 -0.09337914
vn 0.5741391 -0.81553006 0.07262978
vn 0.46050975 -0.8876399 -0.0051025334
vn 0.53768843 -0.8192261 0.19939837
vn 0.43452492 -0.89561635 0.09518088
vn 0.50335157 -0.78897226 0.35236326
vn 0.4112521 -0.88267726 0.22749184
vn 0.61455846 -0.49233797 0.61637753
vn 0.45514613 -0.7076865 0.54039043
vn 0.3867924 -0.81817913 0.42541113
vn 0.48911276 -0.3545327 0.7969161
vn 0.4001386 -0.5874566 0.7034089
vn 0.3539519 -0.63269496 0.688778
vn 0.37713623 -0.25936535 0.8890995
vn 0.29571602 -0.23682635 0.9254541
vn 0.28063163 0.07502571 0.9568788
g pm0676_16_Eye7Skin_0
f 3/3/3 2/2/2 1/1/1
f 4/4/4 2/2/2 3/3/3
f 5/5/5 3/3/3 1/1/1
f 5/5/5 1/1/1 6/6/6
f 1/1/1 7/7/7 6/6/6
f 5/5/5 8/8/8 3/3/3
f 5/5/5 6/6/6 8/8/8
f 6/6/6 7/7/7 9/9/9
f 7/7/7 10/10/10 9/9/9
f 9/9/9 10/10/10 11/11/11
f 12/12/12 4/4/4 3/3/3
f 12/12/12 13/13/13 4/4/4
f 13/13/13 14/14/14 4/4/4
f 15/15/15 14/14/14 13/13/13
f 12/12/12 3/3/3 16/16/16
f 12/12/12 16/16/16 13/13/13
f 17/17/17 15/15/15 13/13/13
f 18/18/18 15/15/15 17/17/17
f 8/8/8 19/19/19 3/3/3
f 3/3/3 19/19/19 16/16/16
f 16/16/16 20/20/20 13/13/13
f 13/13/13 20/20/20 17/17/17
f 21/21/21 20/20/20 16/16/16
f 20/20/20 21/21/21 17/17/17
f 17/17/17 21/21/21 22/22/22
f 23/23/23 18/18/18 17/17/17
f 23/23/23 17/17/17 22/22/22
f 24/24/24 18/18/18 23/23/23
f 25/25/25 21/21/21 16/16/16
f 16/16/16 19/19/19 25/25/25
f 22/22/22 21/21/21 25/25/25
f 26/26/26 19/19/19 8/8/8
f 19/19/19 26/26/26 25/25/25
f 25/25/25 26/26/26 27/27/27
f 28/28/28 26/26/26 8/8/8
f 27/27/27 26/26/26 28/28/28
f 29/29/29 22/22/22 25/25/25
f 29/29/29 25/25/25 27/27/27
f 8/8/8 30/30/30 28/28/28
f 6/6/6 30/30/30 8/8/8
f 31/31/31 30/30/30 6/6/6
f 30/30/30 31/31/31 28/28/28
f 28/28/28 31/31/31 32/32/32
f 9/9/9 31/31/31 6/6/6
f 32/32/32 31/31/31 9/9/9
f 29/29/29 33/33/33 22/22/22
f 29/29/29 27/27/27 33/33/33
f 34/34/34 28/28/28 32/32/32
f 34/34/34 27/27/27 28/28/28
f 34/34/34 35/35/35 27/27/27
f 34/34/34 32/32/32 35/35/35
f 36/36/36 32/32/32 9/9/9
f 36/36/36 9/9/9 11/11/11
f 27/27/27 37/37/37 33/33/33
f 35/35/35 37/37/37 27/27/27
f 38/38/38 36/36/36 11/11/11
f 39/39/39 38/38/38 11/11/11
f 40/40/40 38/38/38 39/39/39
f 41/41/41 40/40/40 39/39/39
f 40/40/40 41/41/41 42/42/42
f 40/40/40 42/42/42 38/38/38
f 41/41/41 43/43/43 42/42/42
f 38/38/38 44/44/44 36/36/36
f 42/42/42 44/44/44 38/38/38
f 36/36/36 45/45/45 32/32/32
f 44/44/44 45/45/45 36/36/36
f 42/42/42 43/43/43 46/46/46
f 43/43/43 47/47/47 46/46/46
f 46/46/46 48/48/48 42/42/42
f 46/46/46 47/47/47 48/48/48
f 48/48/48 44/44/44 42/42/42
f 47/47/47 49/49/49 48/48/48
f 48/48/48 50/50/50 44/44/44
f 48/48/48 49/49/49 50/50/50
f 50/50/50 45/45/45 44/44/44
f 49/49/49 51/51/51 50/50/50
f 52/52/52 50/50/50 51/51/51
f 50/50/50 52/52/52 45/45/45
f 53/53/53 52/52/52 51/51/51
f 45/45/45 54/54/54 32/32/32
f 52/52/52 54/54/54 45/45/45
f 32/32/32 54/54/54 35/35/35
f 55/55/55 52/52/52 53/53/53
f 54/54/54 52/52/52 55/55/55
f 35/35/35 54/54/54 55/55/55
f 56/56/56 55/55/55 53/53/53
f 55/55/55 57/57/57 35/35/35
f 57/57/57 55/55/55 56/56/56
f 57/57/57 37/37/37 35/35/35
f 58/58/58 57/57/57 56/56/56
f 37/37/37 57/57/57 59/59/59
f 59/59/59 57/57/57 58/58/58
f 60/60/60 59/59/59 58/58/58
f 33/33/33 37/37/37 59/59/59
f 61/61/61 59/59/59 60/60/60
f 59/59/59 61/61/61 33/33/33
f 62/62/62 61/61/61 60/60/60
f 61/61/61 63/63/63 33/33/33
f 33/33/33 63/63/63 22/22/22
f 64/64/64 61/61/61 62/62/62
f 63/63/63 61/61/61 64/64/64
f 65/65/65 64/64/64 62/62/62
f 22/22/22 63/63/63 66/66/66
f 66/66/66 63/63/63 64/64/64
f 23/23/23 22/22/22 66/66/66
f 67/67/67 64/64/64 65/65/65
f 68/68/68 67/67/67 65/65/65
f 67/67/67 69/69/69 64/64/64
f 67/67/67 68/68/68 69/69/69
f 69/69/69 66/66/66 64/64/64
f 68/68/68 70/70/70 69/69/69
f 69/69/69 70/70/70 24/24/24
f 71/71/71 23/23/23 66/66/66
f 71/71/71 24/24/24 23/23/23
f 71/71/71 69/69/69 24/24/24
f 69/69/69 71/71/71 66/66/66
f 74/74/74 73/73/73 72/72/72
f 74/74/74 75/75/75 73/73/73
f 73/73/73 76/76/76 72/72/72
f 72/72/72 76/76/76 77/77/77
f 78/78/78 72/72/72 77/77/77
f 79/79/79 76/76/76 73/73/73
f 77/77/77 76/76/76 79/79/79
f 78/78/78 77/77/77 80/80/80
f 81/81/81 78/78/78 80/80/80
f 81/81/81 80/80/80 82/82/82
f 75/75/75 83/83/83 73/73/73
f 84/84/84 83/83/83 75/75/75
f 85/85/85 84/84/84 75/75/75
f 85/85/85 86/86/86 84/84/84
f 73/73/73 83/83/83 87/87/87
f 87/87/87 83/83/83 84/84/84
f 86/86/86 88/88/88 84/84/84
f 86/86/86 89/89/89 88/88/88
f 90/90/90 79/79/79 73/73/73
f 90/90/90 73/73/73 87/87/87
f 91/91/91 87/87/87 84/84/84
f 91/91/91 84/84/84 88/88/88
f 91/91/91 92/92/92 87/87/87
f 92/92/92 91/91/91 88/88/88
f 92/92/92 88/88/88 93/93/93
f 89/89/89 94/94/94 88/88/88
f 88/88/88 94/94/94 93/93/93
f 89/89/89 95/95/95 94/94/94
f 92/92/92 96/96/96 87/87/87
f 90/90/90 87/87/87 96/96/96
f 92/92/92 93/93/93 96/96/96
f 90/90/90 97/97/97 79/79/79
f 97/97/97 90/90/90 96/96/96
f 97/97/97 96/96/96 98/98/98
f 97/97/97 99/99/99 79/79/79
f 97/97/97 98/98/98 99/99/99
f 93/93/93 100/100/100 96/96/96
f 96/96/96 100/100/100 98/98/98
f 101/101/101 79/79/79 99/99/99
f 101/101/101 77/77/77 79/79/79
f 101/101/101 102/102/102 77/77/77
f 102/102/102 101/101/101 99/99/99
f 102/102/102 99/99/99 103/103/103
f 102/102/102 80/80/80 77/77/77
f 102/102/102 103/103/103 80/80/80
f 104/104/104 100/100/100 93/93/93
f 98/98/98 100/100/100 104/104/104
f 99/99/99 105/105/105 103/103/103
f 98/98/98 105/105/105 99/99/99
f 106/106/106 105/105/105 98/98/98
f 103/103/103 105/105/105 106/106/106
f 103/103/103 107/107/107 80/80/80
f 80/80/80 107/107/107 82/82/82
f 108/108/108 98/98/98 104/104/104
f 108/108/108 106/106/106 98/98/98
f 107/107/107 109/109/109 82/82/82
f 109/109/109 110/110/110 82/82/82
f 109/109/109 111/111/111 110/110/110
f 111/111/111 112/112/112 110/110/110
f 112/112/112 111/111/111 113/113/113
f 113/113/113 111/111/111 109/109/109
f 114/114/114 112/112/112 113/113/113
f 115/115/115 109/109/109 107/107/107
f 115/115/115 113/113/113 109/109/109
f 116/116/116 107/107/107 103/103/103
f 116/116/116 115/115/115 107/107/107
f 114/114/114 113/113/113 117/117/117
f 118/118/118 114/114/114 117/117/117
f 119/119/119 117/117/117 113/113/113
f 118/118/118 117/117/117 119/119/119
f 115/115/115 119/119/119 113/113/113
f 120/120/120 118/118/118 119/119/119
f 121/121/121 119/119/119 115/115/115
f 120/120/120 119/119/119 121/121/121
f 116/116/116 121/121/121 115/115/115
f 122/122/122 120/120/120 121/121/121
f 121/121/121 123/123/123 122/122/122
f 123/123/123 121/121/121 116/116/116
f 123/123/123 124/124/124 122/122/122
f 125/125/125 116/116/116 103/103/103
f 125/125/125 123/123/123 116/116/116
f 125/125/125 103/103/103 106/106/106
f 123/123/123 126/126/126 124/124/124
f 123/123/123 125/125/125 126/126/126
f 125/125/125 106/106/106 126/126/126
f 126/126/126 127/127/127 124/124/124
f 128/128/128 126/126/126 106/106/106
f 126/126/126 128/128/128 127/127/127
f 108/108/108 128/128/128 106/106/106
f 128/128/128 129/129/129 127/127/127
f 128/128/128 108/108/108 130/130/130
f 128/128/128 130/130/130 129/129/129
f 130/130/130 131/131/131 129/129/129
f 108/108/108 104/104/104 130/130/130
f 130/130/130 132/132/132 131/131/131
f 132/132/132 130/130/130 104/104/104
f 132/132/132 133/133/133 131/131/131
f 134/134/134 132/132/132 104/104/104
f 134/134/134 104/104/104 93/93/93
f 132/132/132 135/135/135 133/133/133
f 132/132/132 134/134/134 135/135/135
f 135/135/135 136/136/136 133/133/133
f 134/134/134 93/93/93 137/137/137
f 134/134/134 137/137/137 135/135/135
f 93/93/93 94/94/94 137/137/137
f 135/135/135 138/138/138 136/136/136
f 138/138/138 139/139/139 136/136/136
f 140/140/140 138/138/138 135/135/135
f 139/139/139 138/138/138 140/140/140
f 137/137/137 140/140/140 135/135/135
f 141/141/141 139/139/139 140/140/140
f 141/141/141 140/140/140 95/95/95
f 94/94/94 142/142/142 137/137/137
f 95/95/95 142/142/142 94/94/94
f 140/140/140 142/142/142 95/95/95
f 142/142/142 140/140/140 137/137/137
