g pm0661_00_BeakASkin
v -0.0028565167 0.08574002 0.13892612
v -3.549874E-32 0.084575936 0.14036454
v -3.549874E-32 0.08458327 0.13780761
v -0.00248786 0.085644834 0.13685799
v -0.0049528955 0.088164054 0.1338596
v -0.0023047328 0.08708177 0.13267738
v -0.005581072 0.08851998 0.13549095
v -3.549874E-32 0.086169645 0.13314328
v -0.009785371 0.09578167 0.12654
v -3.549874E-32 0.09157971 0.12189564
v -0.008418356 0.09440991 0.12487153
v -0.010529506 0.10067923 0.11635747
v -0.0064330045 0.09326268 0.123288065
v -0.01241544 0.102431506 0.11830706
v -0.015071067 0.111317985 0.107313715
v -0.004198985 0.08851089 0.13157895
v -0.0034622215 0.092289545 0.12251491
v -0.0040627234 0.097854584 0.11321473
v -3.549874E-32 0.096964195 0.11222409
v -3.549874E-32 0.10452689 0.09975786
v -0.012802284 0.10911682 0.10486464
v -0.017178593 0.12086461 0.09552339
v -0.007632109 0.09911757 0.11461995
v -0.009248044 0.107213505 0.10274695
v -0.01086655 0.11602788 0.09014179
v -0.004982004 0.10561939 0.100973316
v -3.549874E-32 0.1130836 0.08686615
v -0.014891097 0.11827847 0.09264589
v -0.015854232 0.12548083 0.08337286
v -0.018232673 0.12823431 0.086436376
v -0.011602354 0.12306994 0.080690496
v -0.0062667714 0.121113606 0.078513846
v -3.549874E-32 0.11996848 0.077239715
v -0.0058737355 0.1141906 0.08809765
v -3.549874E-32 0.08667975 0.14014016
v -3.549874E-32 0.084575936 0.14036454
v -0.0028565167 0.08574002 0.13892612
v -0.00248786 0.08746311 0.138881
v -0.0023047328 0.090909086 0.1369357
v -0.0049528955 0.0899069 0.13579872
v -3.549874E-32 0.09051028 0.1379727
v -0.005581072 0.08851998 0.13549095
v -3.549874E-32 0.09975612 0.13099279
v -0.009785371 0.09578167 0.12654
v -0.0034608517 0.09927522 0.13028723
v -0.0064330036 0.098629616 0.12925938
v -0.0040602037 0.10687474 0.12325064
v -3.549874E-32 0.107660994 0.12412544
v -0.004198985 0.09180627 0.13524541
v -0.008417851 0.09725654 0.1280387
v -0.0105285775 0.104171716 0.12024326
v -0.01241544 0.102431506 0.11830706
v -0.015071067 0.111317985 0.107313715
v -0.007632109 0.10569266 0.12193546
v -0.0049796742 0.11686828 0.11348893
v -3.549874E-32 0.11784275 0.11457321
v -3.549874E-32 0.12836719 0.103870764
v -0.009248044 0.11536513 0.11181652
v -0.01086655 0.12563382 0.10082947
v -0.012802284 0.11350718 0.109749384
v -0.017178593 0.12086461 0.09552339
v -0.0058729243 0.12737499 0.10276669
v -0.0062667714 0.13518119 0.094165534
v -3.549874E-32 0.13620609 0.09530582
v -0.011602354 0.13332637 0.092101865
v -0.015854232 0.13097006 0.08948021
v -0.018232673 0.12823431 0.086436376
v -0.014891097 0.123434216 0.098382235
v 0.0028565167 0.08574002 0.13892612
v -3.549874E-32 0.08458327 0.13780761
v -3.549874E-32 0.084575936 0.14036454
v 0.00248786 0.085644834 0.13685799
v 0.0049528955 0.088164054 0.1338596
v 0.0023047328 0.08708177 0.13267738
v 0.005581072 0.08851998 0.13549095
v -3.549874E-32 0.086169645 0.13314328
v 0.009785371 0.09578167 0.12654
v -3.549874E-32 0.09157971 0.12189564
v 0.008418356 0.09440991 0.12487153
v 0.010529506 0.10067923 0.11635747
v 0.0064330045 0.09326268 0.123288065
v 0.01241544 0.102431506 0.11830706
v 0.015071067 0.111317985 0.107313715
v 0.004198985 0.08851089 0.13157895
v 0.0034622215 0.092289545 0.12251491
v 0.0040627234 0.097854584 0.11321473
v -3.549874E-32 0.096964195 0.11222409
v -3.549874E-32 0.10452689 0.09975786
v 0.012802284 0.10911682 0.10486464
v 0.017178593 0.12086461 0.09552339
v 0.007632109 0.09911757 0.11461995
v 0.009248044 0.107213505 0.10274695
v 0.01086655 0.11602788 0.09014179
v 0.004982004 0.10561939 0.100973316
v -3.549874E-32 0.1130836 0.08686615
v 0.014891097 0.11827847 0.09264589
v 0.015854232 0.12548083 0.08337286
v 0.018232673 0.12823431 0.086436376
v 0.011602354 0.12306994 0.080690496
v 0.0062667714 0.121113606 0.078513846
v -3.549874E-32 0.11996848 0.077239715
v 0.0058737355 0.1141906 0.08809765
v -3.549874E-32 0.08667975 0.14014016
v 0.0028565167 0.08574002 0.13892612
v -3.549874E-32 0.084575936 0.14036454
v 0.00248786 0.08746311 0.138881
v 0.0023047328 0.090909086 0.1369357
v 0.0049528955 0.0899069 0.13579872
v -3.549874E-32 0.09051028 0.1379727
v 0.005581072 0.08851998 0.13549095
v -3.549874E-32 0.09975612 0.13099279
v 0.009785371 0.09578167 0.12654
v 0.0034608517 0.09927522 0.13028723
v 0.0064330036 0.098629616 0.12925938
v 0.0040602037 0.10687474 0.12325064
v -3.549874E-32 0.107660994 0.12412544
v 0.004198985 0.09180627 0.13524541
v 0.008417851 0.09725654 0.1280387
v 0.0105285775 0.104171716 0.12024326
v 0.01241544 0.102431506 0.11830706
v 0.015071067 0.111317985 0.107313715
v 0.007632109 0.10569266 0.12193546
v 0.0049796742 0.11686828 0.11348893
v -3.549874E-32 0.11784275 0.11457321
v -3.549874E-32 0.12836719 0.103870764
v 0.009248044 0.11536513 0.11181652
v 0.01086655 0.12563382 0.10082947
v 0.012802284 0.11350718 0.109749384
v 0.017178593 0.12086461 0.09552339
v 0.0058729243 0.12737499 0.10276669
v 0.0062667714 0.13518119 0.094165534
v -3.549874E-32 0.13620609 0.09530582
v 0.011602354 0.13332637 0.092101865
v 0.015854232 0.13097006 0.08948021
v 0.018232673 0.12823431 0.086436376
v 0.014891097 0.123434216 0.098382235
vt 0.18390846 0.34268886
vt 0.1875 0.3359375
vt 0.18205738 0.33593738
vt 0.17959046 0.3412823
vt 0.17182446 0.347192
vt 0.17041612 0.34086746
vt 0.17495346 0.34955817
vt 0.17205429 0.33593738
vt 0.1512196 0.36050403
vt 0.14631367 0.33593708
vt 0.14912081 0.35546118
vt 0.1270895 0.36074907
vt 0.1472559 0.34995592
vt 0.12888646 0.36732644
vt 0.099323034 0.3744104
vt 0.16712499 0.34515625
vt 0.14677405 0.34331363
vt 0.12435389 0.34476388
vt 0.12350559 0.33593738
vt 0.09330869 0.33593953
vt 0.09726834 0.36624545
vt 0.06759882 0.38034445
vt 0.12557077 0.35309303
vt 0.095594645 0.35685956
vt 0.06351638 0.36037582
vt 0.09422517 0.34677285
vt 0.06122017 0.33593494
vt 0.06535721 0.3711788
vt 0.040776253 0.37402815
vt 0.043057203 0.38377374
vt 0.03882885 0.36242974
vt 0.037282705 0.34967148
vt 0.03642392 0.33593696
vt 0.062060118 0.3485952
vt 0.020375969 0.0078125
vt 0.015625 0.0078125
vt 0.019216776 0.014317274
vt 0.022804976 0.013135731
vt 0.03085339 0.012810528
vt 0.030366898 0.019101143
vt 0.028988361 0.0078125
vt 0.02817154 0.021439373
vt 0.052749872 0.0078125
vt 0.051905394 0.032760143
vt 0.052895546 0.015274644
vt 0.05321312 0.021967351
vt 0.07433677 0.016700447
vt 0.074332 0.007812679
vt 0.034350157 0.017167747
vt 0.0525434 0.027577817
vt 0.07434678 0.03276187
vt 0.07423854 0.039464474
vt 0.10380197 0.046523035
vt 0.07434118 0.025056899
vt 0.10342598 0.018682301
vt 0.10329747 0.0078125
vt 0.13445318 0.0078124404
vt 0.10360241 0.028761864
vt 0.13497496 0.03206384
vt 0.10379577 0.038186193
vt 0.13552618 0.052305996
vt 0.13466334 0.020292401
vt 0.15903139 0.021546483
vt 0.1588254 0.0078125
vt 0.15932989 0.034247875
vt 0.15968919 0.045875907
vt 0.1600678 0.055807054
vt 0.13532233 0.042939484
vt 0.18390846 0.34268886
vt 0.18205738 0.33593738
vt 0.1875 0.3359375
vt 0.17959046 0.3412823
vt 0.17182446 0.347192
vt 0.17041612 0.34086746
vt 0.17495346 0.34955817
vt 0.17205429 0.33593738
vt 0.1512196 0.36050403
vt 0.14631367 0.33593708
vt 0.14912081 0.35546118
vt 0.1270895 0.36074907
vt 0.1472559 0.34995592
vt 0.12888646 0.36732644
vt 0.099323034 0.3744104
vt 0.16712499 0.34515625
vt 0.14677405 0.34331363
vt 0.12435389 0.34476388
vt 0.12350559 0.33593738
vt 0.09330869 0.33593953
vt 0.09726834 0.36624545
vt 0.06759882 0.38034445
vt 0.12557077 0.35309303
vt 0.095594645 0.35685956
vt 0.06351638 0.36037582
vt 0.09422517 0.34677285
vt 0.06122017 0.33593494
vt 0.06535721 0.3711788
vt 0.040776253 0.37402815
vt 0.043057203 0.38377374
vt 0.03882885 0.36242974
vt 0.037282705 0.34967148
vt 0.03642392 0.33593696
vt 0.062060118 0.3485952
vt 0.020375967 0.0078125
vt 0.019216776 0.014317274
vt 0.015625 0.0078125
vt 0.022804976 0.013135731
vt 0.03085339 0.012810528
vt 0.030366898 0.019101143
vt 0.028988361 0.0078125
vt 0.02817154 0.021439373
vt 0.052749872 0.0078125
vt 0.051905394 0.032760143
vt 0.052895546 0.015274644
vt 0.05321312 0.021967351
vt 0.07433677 0.016700447
vt 0.074332 0.007812679
vt 0.034350157 0.017167747
vt 0.0525434 0.027577817
vt 0.07434678 0.03276187
vt 0.07423854 0.039464474
vt 0.10380197 0.046523035
vt 0.07434118 0.025056899
vt 0.10342598 0.018682301
vt 0.10329747 0.0078125
vt 0.13445318 0.0078124404
vt 0.10360241 0.028761864
vt 0.13497496 0.03206384
vt 0.10379577 0.038186193
vt 0.13552618 0.052305996
vt 0.13466334 0.020292401
vt 0.15903139 0.021546483
vt 0.1588254 0.0078125
vt 0.15932989 0.034247875
vt 0.15968919 0.045875907
vt 0.1600678 0.055807054
vt 0.13532233 0.042939484
vn -0.6400691 -0.5183567 0.5671137
vn -0 -0.67186123 0.740677
vn 3.2106E-07 -0.99995816 -0.009154304
vn -0.46934348 -0.8822173 -0.03754237
vn -0.6893779 -0.7192401 -0.08632241
vn -0.33332017 -0.8910579 -0.3080804
vn -0.8675257 -0.33881435 0.3641486
vn 2.6477827E-07 -0.9475071 -0.31973502
vn -0.9422572 -0.2298737 0.2435352
vn 2.526734E-07 -0.8992383 -0.43745935
vn -0.7657622 -0.6254345 -0.14979918
vn -0.79563034 -0.57130474 -0.20145288
vn -0.53423 -0.77439725 -0.3389796
vn -0.9711382 -0.16407977 0.17311397
vn -0.98360795 -0.123933375 0.13098088
vn -0.51619667 -0.80815613 -0.28359252
vn -0.3076152 -0.85783255 -0.41169918
vn -0.31148094 -0.8292635 -0.4640061
vn -0 -0.86937696 -0.49414948
vn -1.2598177E-07 -0.84969664 -0.52727187
vn -0.8102077 -0.5372136 -0.23444587
vn -0.9903808 -0.094880186 0.10071527
vn -0.55085886 -0.7414332 -0.38318574
vn -0.5624462 -0.71718097 -0.41146797
vn -0.5715877 -0.69730127 -0.4325026
vn -0.31813684 -0.80879277 -0.49461406
vn -0 -0.83369243 -0.5522291
vn -0.8222518 -0.5083135 -0.25596747
vn -0.83380985 -0.48614147 -0.26158676
vn -0.99322236 -0.079277515 0.084996134
vn -0.5790993 -0.68480843 -0.44235885
vn -0.31872395 -0.78476006 -0.5315701
vn -0 -0.82479393 -0.56543344
vn -0.3208267 -0.79277265 -0.51824874
vn -0 0.15830024 0.98739094
vn -0 -0.67186123 0.740677
vn -0.6400691 -0.5183567 0.5671137
vn -0.48959747 0.16770591 0.8556688
vn -0.34318402 0.463886 0.81672186
vn -0.7120944 0.19121201 0.67554396
vn -0 0.48722094 0.87327874
vn -0.8675257 -0.33881435 0.3641486
vn -0 0.6062221 0.7952954
vn -0.9422572 -0.2298737 0.2435352
vn -0.310082 0.57171834 0.7595969
vn -0.5460936 0.47726598 0.6884759
vn -0.30965877 0.6234005 0.7179717
vn -0 0.66118467 0.7502232
vn -0.5327149 0.42095363 0.73417497
vn -0.7846137 0.24582228 0.5691685
vn -0.8097933 0.29527918 0.5069962
vn -0.9711382 -0.16407977 0.17311397
vn -0.98360795 -0.123933375 0.13098088
vn -0.5577819 0.5211131 0.64600354
vn -0.31427225 0.65143764 0.69055194
vn -0 0.69124717 0.7226184
vn -0 0.71274984 0.7014183
vn -0.5659754 0.54751915 0.6163559
vn -0.5723766 0.5660999 0.593225
vn -0.82059205 0.32674178 0.46890134
vn -0.9903808 -0.094880186 0.10071527
vn -0.31561944 0.6720801 0.66984534
vn -0.31328103 0.68363655 0.6591631
vn -0 0.7239069 0.6898977
vn -0.57836777 0.5742058 0.5794639
vn -0.8389777 0.34938738 0.41718695
vn -0.99322236 -0.079277515 0.084996134
vn -0.82948595 0.34600228 0.43844673
vn 0.64006937 -0.51835644 0.5671135
vn 3.2106E-07 -0.99995816 -0.009154304
vn -0 -0.67186123 0.740677
vn 0.4693438 -0.8822171 -0.037542216
vn 0.68937814 -0.71923995 -0.0863222
vn 0.3333204 -0.8910578 -0.30808038
vn 0.8675257 -0.33881417 0.36414847
vn 2.6477827E-07 -0.9475071 -0.31973502
vn 0.9422572 -0.22987361 0.2435352
vn 2.526734E-07 -0.8992383 -0.43745935
vn 0.7657623 -0.6254344 -0.14979903
vn 0.79563046 -0.57130456 -0.20145273
vn 0.5342302 -0.7743972 -0.3389795
vn 0.9711382 -0.16407968 0.17311394
vn 0.98360795 -0.12393327 0.13098085
vn 0.516197 -0.80815595 -0.28359237
vn 0.30761546 -0.85783255 -0.41169912
vn 0.31148106 -0.8292635 -0.46400613
vn -0 -0.86937696 -0.49414948
vn -1.2598177E-07 -0.84969664 -0.52727187
vn 0.8102079 -0.53721356 -0.2344457
vn 0.9903808 -0.09488011 0.100715265
vn 0.550859 -0.74143314 -0.3831858
vn 0.5624462 -0.7171809 -0.41146806
vn 0.5715878 -0.6973012 -0.4325026
vn 0.31813678 -0.8087929 -0.4946141
vn -0 -0.83369243 -0.5522291
vn 0.822252 -0.5083133 -0.25596747
vn 0.8338099 -0.4861413 -0.2615867
vn 0.99322236 -0.079277374 0.08499628
vn 0.5790993 -0.6848085 -0.44235882
vn 0.3187239 -0.78476006 -0.5315701
vn -0 -0.82479393 -0.56543344
vn 0.3208267 -0.79277265 -0.51824874
vn -0 0.15830024 0.98739094
vn 0.64006937 -0.51835644 0.5671135
vn -0 -0.67186123 0.740677
vn 0.4895979 0.16770592 0.85566854
vn 0.34318444 0.463886 0.8167217
vn 0.7120946 0.19121215 0.6755436
vn -0 0.48722094 0.87327874
vn 0.8675257 -0.33881417 0.36414847
vn -0 0.6062221 0.7952954
vn 0.9422572 -0.22987361 0.2435352
vn 0.3100823 0.57171845 0.7595966
vn 0.54609376 0.47726592 0.6884757
vn 0.30965897 0.6234007 0.71797144
vn -0 0.66118467 0.7502232
vn 0.5327152 0.4209536 0.7341748
vn 0.78461385 0.24582222 0.56916827
vn 0.80979335 0.2952793 0.5069959
vn 0.9711382 -0.16407968 0.17311394
vn 0.98360795 -0.12393327 0.13098085
vn 0.55778205 0.5211132 0.6460033
vn 0.31427228 0.6514379 0.69055164
vn -0 0.69124717 0.7226184
vn -0 0.71274984 0.7014183
vn 0.5659756 0.54751927 0.6163557
vn 0.5723769 0.5660999 0.59322476
vn 0.8205922 0.3267418 0.46890122
vn 0.9903808 -0.09488011 0.100715265
vn 0.31561965 0.67208004 0.6698452
vn 0.31328127 0.6836366 0.65916294
vn -0 0.7239069 0.6898977
vn 0.5783679 0.57420594 0.57946366
vn 0.8389777 0.3493874 0.41718683
vn 0.99322236 -0.079277374 0.08499628
vn 0.829486 0.34600243 0.4384464
g pm0661_00_BeakASkin_0
f 3/3/3 2/2/2 1/1/1
f 4/4/4 3/3/3 1/1/1
f 4/4/4 1/1/1 5/5/5
f 4/4/4 6/6/6 3/3/3
f 4/4/4 5/5/5 6/6/6
f 1/1/1 7/7/7 5/5/5
f 6/6/6 8/8/8 3/3/3
f 5/5/5 7/7/7 9/9/9
f 10/10/10 8/8/8 6/6/6
f 11/11/11 5/5/5 9/9/9
f 11/11/11 9/9/9 12/12/12
f 11/11/11 13/13/13 5/5/5
f 11/11/11 12/12/12 13/13/13
f 9/9/9 14/14/14 12/12/12
f 12/12/12 14/14/14 15/15/15
f 5/5/5 16/16/16 6/6/6
f 13/13/13 16/16/16 5/5/5
f 6/6/6 16/16/16 13/13/13
f 17/17/17 10/10/10 6/6/6
f 17/17/17 6/6/6 13/13/13
f 17/17/17 18/18/18 10/10/10
f 17/17/17 13/13/13 18/18/18
f 18/18/18 19/19/19 10/10/10
f 20/20/20 19/19/19 18/18/18
f 21/21/21 12/12/12 15/15/15
f 21/21/21 15/15/15 22/22/22
f 12/12/12 23/23/23 13/13/13
f 13/13/13 23/23/23 18/18/18
f 24/24/24 23/23/23 12/12/12
f 18/18/18 23/23/23 24/24/24
f 21/21/21 24/24/24 12/12/12
f 25/25/25 24/24/24 21/21/21
f 26/26/26 20/20/20 18/18/18
f 26/26/26 18/18/18 24/24/24
f 26/26/26 24/24/24 25/25/25
f 27/27/27 20/20/20 26/26/26
f 28/28/28 21/21/21 22/22/22
f 28/28/28 25/25/25 21/21/21
f 28/28/28 22/22/22 29/29/29
f 28/28/28 29/29/29 25/25/25
f 22/22/22 30/30/30 29/29/29
f 29/29/29 31/31/31 25/25/25
f 25/25/25 31/31/31 32/32/32
f 32/32/32 33/33/33 27/27/27
f 34/34/34 27/27/27 26/26/26
f 34/34/34 26/26/26 25/25/25
f 34/34/34 25/25/25 32/32/32
f 34/34/34 32/32/32 27/27/27
f 37/37/37 36/36/36 35/35/35
f 38/38/38 37/37/37 35/35/35
f 38/38/38 35/35/35 39/39/39
f 38/38/38 40/40/40 37/37/37
f 38/38/38 39/39/39 40/40/40
f 35/35/35 41/41/41 39/39/39
f 40/40/40 42/42/42 37/37/37
f 39/39/39 41/41/41 43/43/43
f 44/44/44 42/42/42 40/40/40
f 45/45/45 39/39/39 43/43/43
f 45/45/45 46/46/46 39/39/39
f 45/45/45 43/43/43 47/47/47
f 45/45/45 47/47/47 46/46/46
f 43/43/43 48/48/48 47/47/47
f 39/39/39 49/49/49 40/40/40
f 46/46/46 49/49/49 39/39/39
f 40/40/40 49/49/49 46/46/46
f 50/50/50 44/44/44 40/40/40
f 50/50/50 40/40/40 46/46/46
f 50/50/50 51/51/51 44/44/44
f 50/50/50 46/46/46 51/51/51
f 51/51/51 52/52/52 44/44/44
f 53/53/53 52/52/52 51/51/51
f 47/47/47 54/54/54 46/46/46
f 46/46/46 54/54/54 51/51/51
f 47/47/47 48/48/48 55/55/55
f 48/48/48 56/56/56 55/55/55
f 55/55/55 56/56/56 57/57/57
f 58/58/58 54/54/54 47/47/47
f 51/51/51 54/54/54 58/58/58
f 55/55/55 58/58/58 47/47/47
f 59/59/59 58/58/58 55/55/55
f 60/60/60 53/53/53 51/51/51
f 60/60/60 51/51/51 58/58/58
f 60/60/60 58/58/58 59/59/59
f 61/61/61 53/53/53 60/60/60
f 62/62/62 55/55/55 57/57/57
f 62/62/62 59/59/59 55/55/55
f 62/62/62 57/57/57 63/63/63
f 62/62/62 63/63/63 59/59/59
f 57/57/57 64/64/64 63/63/63
f 63/63/63 65/65/65 59/59/59
f 59/59/59 65/65/65 66/66/66
f 66/66/66 67/67/67 61/61/61
f 68/68/68 61/61/61 60/60/60
f 68/68/68 60/60/60 59/59/59
f 68/68/68 59/59/59 66/66/66
f 68/68/68 66/66/66 61/61/61
f 71/71/71 70/70/70 69/69/69
f 70/70/70 72/72/72 69/69/69
f 69/69/69 72/72/72 73/73/73
f 74/74/74 72/72/72 70/70/70
f 73/73/73 72/72/72 74/74/74
f 75/75/75 69/69/69 73/73/73
f 76/76/76 74/74/74 70/70/70
f 75/75/75 73/73/73 77/77/77
f 76/76/76 78/78/78 74/74/74
f 73/73/73 79/79/79 77/77/77
f 77/77/77 79/79/79 80/80/80
f 81/81/81 79/79/79 73/73/73
f 80/80/80 79/79/79 81/81/81
f 82/82/82 77/77/77 80/80/80
f 82/82/82 80/80/80 83/83/83
f 84/84/84 73/73/73 74/74/74
f 84/84/84 81/81/81 73/73/73
f 84/84/84 74/74/74 81/81/81
f 78/78/78 85/85/85 74/74/74
f 74/74/74 85/85/85 81/81/81
f 86/86/86 85/85/85 78/78/78
f 81/81/81 85/85/85 86/86/86
f 87/87/87 86/86/86 78/78/78
f 87/87/87 88/88/88 86/86/86
f 80/80/80 89/89/89 83/83/83
f 83/83/83 89/89/89 90/90/90
f 91/91/91 80/80/80 81/81/81
f 91/91/91 81/81/81 86/86/86
f 91/91/91 92/92/92 80/80/80
f 91/91/91 86/86/86 92/92/92
f 92/92/92 89/89/89 80/80/80
f 92/92/92 93/93/93 89/89/89
f 88/88/88 94/94/94 86/86/86
f 86/86/86 94/94/94 92/92/92
f 92/92/92 94/94/94 93/93/93
f 88/88/88 95/95/95 94/94/94
f 89/89/89 96/96/96 90/90/90
f 93/93/93 96/96/96 89/89/89
f 90/90/90 96/96/96 97/97/97
f 97/97/97 96/96/96 93/93/93
f 98/98/98 90/90/90 97/97/97
f 99/99/99 97/97/97 93/93/93
f 99/99/99 93/93/93 100/100/100
f 101/101/101 100/100/100 95/95/95
f 95/95/95 102/102/102 94/94/94
f 94/94/94 102/102/102 93/93/93
f 93/93/93 102/102/102 100/100/100
f 100/100/100 102/102/102 95/95/95
f 105/105/105 104/104/104 103/103/103
f 104/104/104 106/106/106 103/103/103
f 103/103/103 106/106/106 107/107/107
f 108/108/108 106/106/106 104/104/104
f 107/107/107 106/106/106 108/108/108
f 109/109/109 103/103/103 107/107/107
f 110/110/110 108/108/108 104/104/104
f 109/109/109 107/107/107 111/111/111
f 110/110/110 112/112/112 108/108/108
f 107/107/107 113/113/113 111/111/111
f 114/114/114 113/113/113 107/107/107
f 111/111/111 113/113/113 115/115/115
f 115/115/115 113/113/113 114/114/114
f 116/116/116 111/111/111 115/115/115
f 117/117/117 107/107/107 108/108/108
f 117/117/117 114/114/114 107/107/107
f 117/117/117 108/108/108 114/114/114
f 112/112/112 118/118/118 108/108/108
f 108/108/108 118/118/118 114/114/114
f 119/119/119 118/118/118 112/112/112
f 114/114/114 118/118/118 119/119/119
f 120/120/120 119/119/119 112/112/112
f 120/120/120 121/121/121 119/119/119
f 122/122/122 115/115/115 114/114/114
f 122/122/122 114/114/114 119/119/119
f 116/116/116 115/115/115 123/123/123
f 124/124/124 116/116/116 123/123/123
f 124/124/124 123/123/123 125/125/125
f 122/122/122 126/126/126 115/115/115
f 122/122/122 119/119/119 126/126/126
f 126/126/126 123/123/123 115/115/115
f 126/126/126 127/127/127 123/123/123
f 121/121/121 128/128/128 119/119/119
f 119/119/119 128/128/128 126/126/126
f 126/126/126 128/128/128 127/127/127
f 121/121/121 129/129/129 128/128/128
f 123/123/123 130/130/130 125/125/125
f 127/127/127 130/130/130 123/123/123
f 125/125/125 130/130/130 131/131/131
f 131/131/131 130/130/130 127/127/127
f 132/132/132 125/125/125 131/131/131
f 133/133/133 131/131/131 127/127/127
f 133/133/133 127/127/127 134/134/134
f 135/135/135 134/134/134 129/129/129
f 129/129/129 136/136/136 128/128/128
f 128/128/128 136/136/136 127/127/127
f 127/127/127 136/136/136 134/134/134
f 134/134/134 136/136/136 129/129/129
