g pm0676_12_Eye5Skin
v 0.087718636 0.9767558 0.483837
v 0.09260184 0.9847737 0.49896738
v 0.08505467 0.9860383 0.49316034
v 0.07724479 0.9930446 0.50640565
v 0.085198134 0.9919799 0.5116438
v 0.06599205 0.9944465 0.5242634
v 0.09935287 0.97677964 0.49050212
v 0.10169207 0.97047055 0.50542486
v 0.09783117 0.97916156 0.5127648
v 0.103578545 0.97727025 0.47254583
v 0.093625754 0.97817314 0.4686036
v 0.10578857 0.97744757 0.4595854
v 0.09957453 0.9786378 0.4556028
v 0.10649089 0.97618717 0.45630682
v 0.100803114 0.97713095 0.45309815
v 0.10661503 0.97202194 0.4695312
v 0.1055889 0.9729893 0.45681742
v 0.10024736 0.97331136 0.45270965
v 0.103586234 0.9685957 0.4643257
v 0.09642858 0.9672228 0.4607311
v 0.09880195 0.96077 0.4789027
v 0.09133826 0.9594965 0.4737309
v 0.10473971 0.9667945 0.48504126
v 0.095008925 0.9545577 0.48967028
v 0.0869416 0.9525987 0.48517853
v 0.10259356 0.96059287 0.4981258
v 0.088962294 0.94673824 0.5037648
v 0.08176065 0.9443923 0.49781498
v 0.0989114 0.9511017 0.5149195
v 0.08110338 0.9353139 0.5214365
v 0.073047295 0.9321662 0.51506674
v 0.07256042 0.92216533 0.5391909
v 0.06337765 0.9190106 0.5326821
v 0.09119883 0.9402088 0.53150624
v 0.09291684 0.95088387 0.5412136
v 0.100072294 0.9604225 0.52409273
v 0.09563314 0.97291636 0.5318629
v 0.065275244 0.910531 0.5536743
v 0.055990867 0.9079242 0.54705614
v 0.08011855 0.9265197 0.5480213
v 0.059444565 0.89999074 0.5671116
v 0.05143582 0.8971172 0.5617303
v 0.09270582 0.98384345 0.51887345
v 0.085978486 0.9846753 0.5348654
v 0.086973175 0.9652639 0.5498905
v 0.07002234 0.91384125 0.5609179
v 0.06618412 0.9238612 0.5669054
v 0.08033252 0.93807936 0.5559063
v 0.075707965 0.9532833 0.56271845
v 0.055439033 0.8928711 0.57747877
v 0.046597365 0.88955563 0.57797277
v 0.05399149 0.89396787 0.57959604
v 0.04589775 0.88986456 0.57994705
v 0.04549908 0.89350545 0.5797753
v 0.062141683 0.9031563 0.5713998
v 0.054449484 0.89676946 0.58027744
v 0.05574758 0.91348076 0.57331777
v 0.04260328 0.9139316 0.5702057
v 0.052866023 0.9282688 0.576427
v 0.03966478 0.9258269 0.5727889
v 0.062369402 0.93961114 0.5718246
v 0.050789833 0.9495047 0.57540876
v 0.03886554 0.9470964 0.5726872
v 0.04342854 0.97184545 0.56332684
v 0.05849941 0.9517978 0.5724209
v 0.06595178 0.96647215 0.566215
v 0.05609329 0.97169906 0.5666205
v 0.064830534 0.9883729 0.5504195
v 0.054003246 0.9898419 0.5461468
v 0.07659196 0.979144 0.5525694
v 0.07547278 0.9935137 0.53000116
v -0.087718636 0.9767558 0.483837
v -0.08505467 0.9860383 0.49316034
v -0.09260184 0.9847737 0.49896738
v -0.07724479 0.9930446 0.50640565
v -0.085198134 0.9919799 0.5116438
v -0.06599205 0.9944465 0.5242634
v -0.09935287 0.97677964 0.49050212
v -0.10169207 0.97047055 0.50542486
v -0.09783117 0.97916156 0.5127648
v -0.103578545 0.97727025 0.47254583
v -0.093625754 0.97817314 0.4686036
v -0.10578857 0.97744757 0.4595854
v -0.09957453 0.9786378 0.4556028
v -0.10649089 0.97618717 0.45630682
v -0.100803114 0.97713095 0.45309815
v -0.10661503 0.97202194 0.4695312
v -0.1055889 0.9729893 0.45681742
v -0.10024736 0.97331136 0.45270965
v -0.103586234 0.9685957 0.4643257
v -0.09642858 0.9672228 0.4607311
v -0.09880195 0.96077 0.4789027
v -0.09133826 0.9594965 0.4737309
v -0.10473971 0.9667945 0.48504126
v -0.095008925 0.9545577 0.48967028
v -0.0869416 0.9525987 0.48517853
v -0.10259356 0.96059287 0.4981258
v -0.088962294 0.94673824 0.5037648
v -0.08176065 0.9443923 0.49781498
v -0.0989114 0.9511017 0.5149195
v -0.08110338 0.9353139 0.5214365
v -0.073047295 0.9321662 0.51506674
v -0.07256042 0.92216533 0.5391909
v -0.06337765 0.9190106 0.5326821
v -0.09119883 0.9402088 0.53150624
v -0.09291684 0.95088387 0.5412136
v -0.100072294 0.9604225 0.52409273
v -0.09563314 0.97291636 0.5318629
v -0.065275244 0.910531 0.5536743
v -0.055990867 0.9079242 0.54705614
v -0.08011855 0.9265197 0.5480213
v -0.059444565 0.89999074 0.5671116
v -0.05143582 0.8971172 0.5617303
v -0.09270582 0.98384345 0.51887345
v -0.085978486 0.9846753 0.5348654
v -0.086973175 0.9652639 0.5498905
v -0.07002234 0.91384125 0.5609179
v -0.06618412 0.9238612 0.5669054
v -0.08033252 0.93807936 0.5559063
v -0.075707965 0.9532833 0.56271845
v -0.055439033 0.8928711 0.57747877
v -0.046597365 0.88955563 0.57797277
v -0.05399149 0.89396787 0.57959604
v -0.04589775 0.88986456 0.57994705
v -0.04549908 0.89350545 0.5797753
v -0.062141683 0.9031563 0.5713998
v -0.054449484 0.89676946 0.58027744
v -0.05574758 0.91348076 0.57331777
v -0.04260328 0.9139316 0.5702057
v -0.052866023 0.9282688 0.576427
v -0.03966478 0.9258269 0.5727889
v -0.062369402 0.93961114 0.5718246
v -0.050789833 0.9495047 0.57540876
v -0.03886554 0.9470964 0.5726872
v -0.04342854 0.97184545 0.56332684
v -0.05849941 0.9517978 0.5724209
v -0.06595178 0.96647215 0.566215
v -0.05609329 0.97169906 0.5666205
v -0.064830534 0.9883729 0.5504195
v -0.054003246 0.9898419 0.5461468
v -0.07659196 0.979144 0.5525694
v -0.07547278 0.9935137 0.53000116
vt 0.037874937 0.9353959
vt 0.043860316 0.94314945
vt 0.04080087 0.9480667
vt 0.04497248 0.96588016
vt 0.047521412 0.95921904
vt 0.05217409 0.97933894
vt 0.041505456 0.92904896
vt 0.048381567 0.9292583
vt 0.049420476 0.94098026
vt 0.035617232 0.9190209
vt 0.03340125 0.92418844
vt 0.032416105 0.9151916
vt 0.029056847 0.91463536
vt 0.032001376 0.90900517
vt 0.029085457 0.9075755
vt 0.036161542 0.91137296
vt 0.032587707 0.90392053
vt 0.029783726 0.8988413
vt 0.035562634 0.9043061
vt 0.03500843 0.89787775
vt 0.04198426 0.9035576
vt 0.04127276 0.8957679
vt 0.042232156 0.9146996
vt 0.047329426 0.9024965
vt 0.046937227 0.8940132
vt 0.047950983 0.9162341
vt 0.05411601 0.9015492
vt 0.053528428 0.8922861
vt 0.05531466 0.9166078
vt 0.06260538 0.9018118
vt 0.062643886 0.8917079
vt 0.07087344 0.90508664
vt 0.07156372 0.8941095
vt 0.062548876 0.9167417
vt 0.0625 0.9296875
vt 0.05580765 0.92948383
vt 0.05597675 0.94291514
vt 0.07784599 0.90916985
vt 0.07867724 0.8979294
vt 0.07055265 0.9176068
vt 0.08420211 0.9134672
vt 0.08554357 0.90276664
vt 0.050798357 0.9492221
vt 0.05569631 0.9566278
vt 0.062443137 0.9447485
vt 0.07774645 0.91850334
vt 0.077261925 0.93013644
vt 0.06979698 0.92990917
vt 0.06914282 0.94449264
vt 0.088302135 0.9125561
vt 0.093661964 0.90719247
vt 0.08877939 0.91924626
vt 0.09406471 0.9135575
vt 0.09382576 0.9257933
vt 0.08402121 0.9185058
vt 0.08860016 0.9257874
vt 0.08360422 0.9303291
vt 0.0875119 0.93927455
vt 0.080997705 0.9435221
vt 0.085271955 0.94960755
vt 0.07559323 0.9445239
vt 0.07672644 0.9588009
vt 0.08048195 0.9660534
vt 0.07268369 0.9805992
vt 0.074240565 0.9549945
vt 0.06926429 0.9593193
vt 0.070699215 0.9708539
vt 0.062325835 0.97576517
vt 0.062289 0.98550755
vt 0.06238407 0.960342
vt 0.053838253 0.96970433
vt 0.037874877 0.9353959
vt 0.04080084 0.9480667
vt 0.043860286 0.94314945
vt 0.04497236 0.96588016
vt 0.047521323 0.95921904
vt 0.05217406 0.97933894
vt 0.041505337 0.92904896
vt 0.048381478 0.9292583
vt 0.049420416 0.94098026
vt 0.035617143 0.9190209
vt 0.03340116 0.92418844
vt 0.032415926 0.9151916
vt 0.029056672 0.91463536
vt 0.032001287 0.90900517
vt 0.029085252 0.9075755
vt 0.036161333 0.91137296
vt 0.032587618 0.90392053
vt 0.02978364 0.8988413
vt 0.035562575 0.9043061
vt 0.03500837 0.89787775
vt 0.04198414 0.9035576
vt 0.04127276 0.8957679
vt 0.042232066 0.9146996
vt 0.047329307 0.9024965
vt 0.046937138 0.8940132
vt 0.047950894 0.9162341
vt 0.05411598 0.9015492
vt 0.05352837 0.8922861
vt 0.05531454 0.9166078
vt 0.06260529 0.9018118
vt 0.06264368 0.8917079
vt 0.07087338 0.90508664
vt 0.07156357 0.8941095
vt 0.062548816 0.9167417
vt 0.0625 0.9296875
vt 0.05580759 0.92948383
vt 0.0559766 0.94291514
vt 0.07784593 0.90916985
vt 0.07867715 0.8979294
vt 0.07055256 0.9176068
vt 0.08420196 0.9134672
vt 0.08554348 0.90276664
vt 0.050798237 0.9492221
vt 0.05569622 0.9566278
vt 0.062443078 0.9447485
vt 0.07774636 0.91850334
vt 0.077261835 0.93013644
vt 0.06979689 0.92990917
vt 0.06914273 0.94449264
vt 0.08830199 0.9125561
vt 0.093661815 0.90719247
vt 0.08877927 0.91924626
vt 0.09406468 0.9135575
vt 0.0938257 0.9257933
vt 0.08402115 0.9185058
vt 0.08860007 0.9257874
vt 0.08360416 0.9303291
vt 0.08751187 0.93927455
vt 0.080997616 0.9435221
vt 0.085271865 0.94960755
vt 0.075592875 0.9445239
vt 0.07672635 0.9588009
vt 0.08048183 0.9660534
vt 0.0726836 0.9805992
vt 0.074240506 0.9549945
vt 0.0692642 0.9593193
vt 0.070699066 0.9708539
vt 0.062325656 0.97576517
vt 0.06228888 0.98550755
vt 0.06238404 0.960342
vt 0.053838253 0.96970433
vn 0.5095277 0.8508017 -0.12852235
vn 0.65079474 0.75853217 -0.033091303
vn 0.45694512 0.8804183 -0.12674642
vn 0.3631433 0.9317253 -0.0038496042
vn 0.51579845 0.85322195 0.07722899
vn 0.23921214 0.9389819 0.24716495
vn 0.81937397 0.5702218 -0.05893601
vn 0.9733138 0.21642888 0.07628134
vn 0.8270705 0.5437481 0.14245094
vn 0.7446464 0.6603064 -0.09745349
vn 0.4948077 0.859979 -0.1249057
vn 0.7084313 0.6740739 -0.20916383
vn 0.57771194 0.7721902 -0.26452067
vn 0.8949466 0.2079826 -0.39473265
vn 0.7899826 0.30375084 -0.5326002
vn 0.9745521 0.03720668 -0.22105186
vn 0.8105803 -0.31807268 -0.49172068
vn 0.7329889 -0.34544793 -0.58599746
vn 0.78167874 -0.51162785 -0.35667256
vn 0.6222546 -0.64862806 -0.43827036
vn 0.7401917 -0.6190777 -0.2624104
vn 0.567504 -0.7522441 -0.33476567
vn 0.9818075 -0.13479668 -0.13373105
vn 0.7079503 -0.6714465 -0.21901126
vn 0.55596435 -0.7787936 -0.29048958
vn 0.9465128 -0.3158667 -0.06589188
vn 0.686014 -0.70205426 -0.19106132
vn 0.56218743 -0.78105044 -0.27185586
vn 0.8969734 -0.44207314 0.0031902636
vn 0.6788062 -0.7159482 -0.16321829
vn 0.57347965 -0.77547544 -0.2641191
vn 0.68749845 -0.7148996 -0.12753235
vn 0.585218 -0.76955134 -0.2555595
vn 0.8553081 -0.510489 0.08859516
vn 0.90912765 -0.15003772 0.38855585
vn 0.9738511 -0.015432008 0.22666228
vn 0.8594628 0.3665359 0.35633576
vn 0.7022143 -0.7095916 -0.05809275
vn 0.59648246 -0.77440625 -0.21095876
vn 0.82977015 -0.5232564 0.19412404
vn 0.69201833 -0.7160741 0.09136937
vn 0.6000076 -0.7977537 -0.059832796
vn 0.6804075 0.7077835 0.18996847
vn 0.65125114 0.6527216 0.3870744
vn 0.78764045 0.21422714 0.57769305
vn 0.8000851 -0.49671584 0.3363584
vn 0.6678119 -0.18358898 0.72133374
vn 0.8108787 -0.20202585 0.549237
vn 0.65196705 0.09454906 0.7523294
vn 0.6373173 -0.7104679 0.2984325
vn 0.5699109 -0.77484065 0.27353868
vn 0.56829804 -0.45974225 0.68240345
vn 0.43849024 -0.49914998 0.7473791
vn 0.20468162 -0.14788109 0.9675932
vn 0.70690125 -0.46382338 0.5340022
vn 0.35124364 -0.15759446 0.92292565
vn 0.3997434 -0.11233912 0.909717
vn 0.102748364 -0.017521929 0.994553
vn 0.21368864 0.055650778 0.97531545
vn 0.00032049962 0.085769266 0.99631494
vn 0.47652784 0.036377132 0.87840647
vn 0.12803584 0.24797346 0.96026874
vn -0.045068163 0.28113303 0.95861
vn -0.007710788 0.56541693 0.8247692
vn 0.34042853 0.19840898 0.91909856
vn 0.4338346 0.33894128 0.8348091
vn 0.16794255 0.4994309 0.84992003
vn 0.27953506 0.7392882 0.612628
vn 0.10164975 0.8211282 0.5616189
vn 0.55880314 0.5228663 0.6437003
vn 0.40573338 0.85824084 0.3143295
vn -0.5095276 0.8508017 -0.12852284
vn -0.45694524 0.8804184 -0.12674612
vn -0.6507948 0.75853217 -0.033091106
vn -0.36314338 0.9317253 -0.0038488917
vn -0.5157984 0.8532219 0.077229664
vn -0.23921207 0.9389817 0.2471656
vn -0.81937397 0.57022166 -0.058936544
vn -0.97331387 0.21642855 0.07628104
vn -0.8270706 0.5437481 0.14245097
vn -0.74464625 0.6603065 -0.09745457
vn -0.49480742 0.85997903 -0.12490672
vn -0.7084307 0.6740742 -0.2091649
vn -0.57771116 0.7721905 -0.26452166
vn -0.894946 0.20798324 -0.39473367
vn -0.7899814 0.30375192 -0.53260124
vn -0.97455174 0.03720702 -0.22105296
vn -0.81058 -0.31807175 -0.49172202
vn -0.73298836 -0.34544668 -0.5859989
vn -0.7816785 -0.51162726 -0.35667378
vn -0.6222543 -0.6486272 -0.43827188
vn -0.74019134 -0.6190775 -0.26241133
vn -0.5675036 -0.75224376 -0.33476704
vn -0.98180735 -0.13479698 -0.1337318
vn -0.70795 -0.67144656 -0.21901204
vn -0.5559641 -0.7787934 -0.2904906
vn -0.9465127 -0.31586692 -0.065892406
vn -0.686014 -0.7020542 -0.19106175
vn -0.56218743 -0.7810502 -0.27185634
vn -0.8969734 -0.44207314 0.0031902636
vn -0.67880636 -0.7159481 -0.1632183
vn -0.57347983 -0.7754753 -0.26411918
vn -0.6874985 -0.71489966 -0.12753204
vn -0.58521813 -0.76955134 -0.2555593
vn -0.8553081 -0.51048887 0.088595144
vn -0.90912765 -0.15003762 0.38855588
vn -0.9738511 -0.0154320765 0.22666238
vn -0.8594626 0.36653587 0.3563359
vn -0.7022142 -0.70959175 -0.05809228
vn -0.5964824 -0.77440643 -0.21095851
vn -0.82977015 -0.5232563 0.19412446
vn -0.6920179 -0.71607465 0.091369644
vn -0.60000706 -0.79775405 -0.059832845
vn -0.6804075 0.7077834 0.18996876
vn -0.6512509 0.6527216 0.3870748
vn -0.7876404 0.21422714 0.57769316
vn -0.80008507 -0.4967158 0.33635885
vn -0.6678121 -0.18358879 0.72133356
vn -0.8108788 -0.20202564 0.5492369
vn -0.65196705 0.0945492 0.7523293
vn -0.6373164 -0.7104688 0.29843232
vn -0.56991 -0.7748416 0.27353823
vn -0.56829715 -0.4597433 0.68240356
vn -0.43848932 -0.49915123 0.74737877
vn -0.20468113 -0.14788185 0.9675932
vn -0.70690066 -0.4638237 0.5340027
vn -0.351243 -0.15759507 0.9229259
vn -0.3997433 -0.11233928 0.90971714
vn -0.102748096 -0.017522065 0.9945531
vn -0.21368891 0.055650894 0.97531533
vn -0.00032049956 0.085769385 0.99631494
vn -0.4765283 0.036377132 0.8784062
vn -0.12803614 0.24797343 0.9602686
vn 0.045068037 0.28113315 0.95861
vn 0.007710786 0.5654168 0.82476926
vn -0.34042886 0.19840884 0.91909844
vn -0.43383458 0.3389413 0.83480924
vn -0.16794245 0.4994308 0.84992015
vn -0.2795347 0.7392881 0.6126283
vn -0.1016496 0.8211281 0.5616191
vn -0.5588028 0.5228663 0.64370054
vn -0.40573326 0.8582407 0.31433007
g pm0676_12_Eye5Skin_0
f 3/3/3 2/2/2 1/1/1
f 3/3/3 4/4/4 2/2/2
f 4/4/4 5/5/5 2/2/2
f 4/4/4 6/6/6 5/5/5
f 2/2/2 7/7/7 1/1/1
f 8/8/8 7/7/7 2/2/2
f 9/9/9 2/2/2 5/5/5
f 9/9/9 8/8/8 2/2/2
f 7/7/7 10/10/10 1/1/1
f 10/10/10 11/11/11 1/1/1
f 10/10/10 12/12/12 11/11/11
f 12/12/12 13/13/13 11/11/11
f 13/13/13 12/12/12 14/14/14
f 14/14/14 12/12/12 10/10/10
f 15/15/15 13/13/13 14/14/14
f 16/16/16 10/10/10 7/7/7
f 16/16/16 14/14/14 10/10/10
f 15/15/15 14/14/14 17/17/17
f 18/18/18 15/15/15 17/17/17
f 19/19/19 17/17/17 14/14/14
f 18/18/18 17/17/17 19/19/19
f 16/16/16 19/19/19 14/14/14
f 20/20/20 18/18/18 19/19/19
f 20/20/20 19/19/19 21/21/21
f 21/21/21 19/19/19 16/16/16
f 22/22/22 20/20/20 21/21/21
f 23/23/23 16/16/16 7/7/7
f 23/23/23 21/21/21 16/16/16
f 23/23/23 7/7/7 8/8/8
f 21/21/21 24/24/24 22/22/22
f 24/24/24 21/21/21 23/23/23
f 24/24/24 25/25/25 22/22/22
f 26/26/26 24/24/24 23/23/23
f 26/26/26 23/23/23 8/8/8
f 24/24/24 27/27/27 25/25/25
f 24/24/24 26/26/26 27/27/27
f 27/27/27 28/28/28 25/25/25
f 26/26/26 29/29/29 27/27/27
f 26/26/26 8/8/8 29/29/29
f 27/27/27 30/30/30 28/28/28
f 30/30/30 27/27/27 29/29/29
f 30/30/30 31/31/31 28/28/28
f 30/30/30 32/32/32 31/31/31
f 32/32/32 33/33/33 31/31/31
f 34/34/34 30/30/30 29/29/29
f 30/30/30 34/34/34 32/32/32
f 34/34/34 29/29/29 35/35/35
f 8/8/8 36/36/36 29/29/29
f 29/29/29 36/36/36 35/35/35
f 37/37/37 36/36/36 8/8/8
f 35/35/35 36/36/36 37/37/37
f 9/9/9 37/37/37 8/8/8
f 32/32/32 38/38/38 33/33/33
f 38/38/38 39/39/39 33/33/33
f 34/34/34 40/40/40 32/32/32
f 34/34/34 35/35/35 40/40/40
f 38/38/38 32/32/32 40/40/40
f 38/38/38 41/41/41 39/39/39
f 41/41/41 42/42/42 39/39/39
f 9/9/9 43/43/43 37/37/37
f 43/43/43 9/9/9 5/5/5
f 43/43/43 44/44/44 37/37/37
f 43/43/43 5/5/5 44/44/44
f 45/45/45 35/35/35 37/37/37
f 45/45/45 37/37/37 44/44/44
f 46/46/46 38/38/38 40/40/40
f 38/38/38 46/46/46 41/41/41
f 46/46/46 40/40/40 47/47/47
f 35/35/35 48/48/48 40/40/40
f 40/40/40 48/48/48 47/47/47
f 49/49/49 48/48/48 35/35/35
f 45/45/45 49/49/49 35/35/35
f 47/47/47 48/48/48 49/49/49
f 41/41/41 50/50/50 42/42/42
f 50/50/50 51/51/51 42/42/42
f 51/51/51 50/50/50 52/52/52
f 52/52/52 50/50/50 41/41/41
f 53/53/53 51/51/51 52/52/52
f 53/53/53 52/52/52 54/54/54
f 46/46/46 55/55/55 41/41/41
f 55/55/55 52/52/52 41/41/41
f 46/46/46 47/47/47 55/55/55
f 52/52/52 56/56/56 54/54/54
f 56/56/56 52/52/52 55/55/55
f 54/54/54 56/56/56 57/57/57
f 57/57/57 56/56/56 55/55/55
f 47/47/47 57/57/57 55/55/55
f 58/58/58 54/54/54 57/57/57
f 58/58/58 57/57/57 59/59/59
f 59/59/59 57/57/57 47/47/47
f 60/60/60 58/58/58 59/59/59
f 61/61/61 59/59/59 47/47/47
f 61/61/61 47/47/47 49/49/49
f 60/60/60 59/59/59 62/62/62
f 63/63/63 60/60/60 62/62/62
f 63/63/63 62/62/62 64/64/64
f 61/61/61 65/65/65 59/59/59
f 65/65/65 62/62/62 59/59/59
f 65/65/65 61/61/61 66/66/66
f 61/61/61 49/49/49 66/66/66
f 65/65/65 66/66/66 62/62/62
f 62/62/62 67/67/67 64/64/64
f 66/66/66 67/67/67 62/62/62
f 64/64/64 67/67/67 68/68/68
f 68/68/68 67/67/67 66/66/66
f 69/69/69 64/64/64 68/68/68
f 69/69/69 68/68/68 6/6/6
f 70/70/70 66/66/66 49/49/49
f 70/70/70 68/68/68 66/66/66
f 45/45/45 70/70/70 49/49/49
f 70/70/70 45/45/45 44/44/44
f 70/70/70 44/44/44 68/68/68
f 68/68/68 71/71/71 6/6/6
f 44/44/44 71/71/71 68/68/68
f 6/6/6 71/71/71 5/5/5
f 5/5/5 71/71/71 44/44/44
f 74/74/74 73/73/73 72/72/72
f 75/75/75 73/73/73 74/74/74
f 76/76/76 75/75/75 74/74/74
f 77/77/77 75/75/75 76/76/76
f 78/78/78 74/74/74 72/72/72
f 78/78/78 79/79/79 74/74/74
f 74/74/74 80/80/80 76/76/76
f 79/79/79 80/80/80 74/74/74
f 81/81/81 78/78/78 72/72/72
f 82/82/82 81/81/81 72/72/72
f 83/83/83 81/81/81 82/82/82
f 84/84/84 83/83/83 82/82/82
f 83/83/83 84/84/84 85/85/85
f 83/83/83 85/85/85 81/81/81
f 84/84/84 86/86/86 85/85/85
f 81/81/81 87/87/87 78/78/78
f 85/85/85 87/87/87 81/81/81
f 85/85/85 86/86/86 88/88/88
f 86/86/86 89/89/89 88/88/88
f 88/88/88 90/90/90 85/85/85
f 88/88/88 89/89/89 90/90/90
f 90/90/90 87/87/87 85/85/85
f 89/89/89 91/91/91 90/90/90
f 90/90/90 91/91/91 92/92/92
f 90/90/90 92/92/92 87/87/87
f 91/91/91 93/93/93 92/92/92
f 87/87/87 94/94/94 78/78/78
f 92/92/92 94/94/94 87/87/87
f 78/78/78 94/94/94 79/79/79
f 95/95/95 92/92/92 93/93/93
f 92/92/92 95/95/95 94/94/94
f 96/96/96 95/95/95 93/93/93
f 95/95/95 97/97/97 94/94/94
f 94/94/94 97/97/97 79/79/79
f 98/98/98 95/95/95 96/96/96
f 97/97/97 95/95/95 98/98/98
f 99/99/99 98/98/98 96/96/96
f 100/100/100 97/97/97 98/98/98
f 79/79/79 97/97/97 100/100/100
f 101/101/101 98/98/98 99/99/99
f 98/98/98 101/101/101 100/100/100
f 102/102/102 101/101/101 99/99/99
f 103/103/103 101/101/101 102/102/102
f 104/104/104 103/103/103 102/102/102
f 101/101/101 105/105/105 100/100/100
f 105/105/105 101/101/101 103/103/103
f 100/100/100 105/105/105 106/106/106
f 107/107/107 79/79/79 100/100/100
f 107/107/107 100/100/100 106/106/106
f 107/107/107 108/108/108 79/79/79
f 107/107/107 106/106/106 108/108/108
f 108/108/108 80/80/80 79/79/79
f 109/109/109 103/103/103 104/104/104
f 110/110/110 109/109/109 104/104/104
f 111/111/111 105/105/105 103/103/103
f 106/106/106 105/105/105 111/111/111
f 103/103/103 109/109/109 111/111/111
f 112/112/112 109/109/109 110/110/110
f 113/113/113 112/112/112 110/110/110
f 114/114/114 80/80/80 108/108/108
f 80/80/80 114/114/114 76/76/76
f 115/115/115 114/114/114 108/108/108
f 76/76/76 114/114/114 115/115/115
f 106/106/106 116/116/116 108/108/108
f 108/108/108 116/116/116 115/115/115
f 109/109/109 117/117/117 111/111/111
f 117/117/117 109/109/109 112/112/112
f 111/111/111 117/117/117 118/118/118
f 119/119/119 106/106/106 111/111/111
f 119/119/119 111/111/111 118/118/118
f 119/119/119 120/120/120 106/106/106
f 120/120/120 116/116/116 106/106/106
f 119/119/119 118/118/118 120/120/120
f 121/121/121 112/112/112 113/113/113
f 122/122/122 121/121/121 113/113/113
f 121/121/121 122/122/122 123/123/123
f 121/121/121 123/123/123 112/112/112
f 122/122/122 124/124/124 123/123/123
f 123/123/123 124/124/124 125/125/125
f 126/126/126 117/117/117 112/112/112
f 123/123/123 126/126/126 112/112/112
f 118/118/118 117/117/117 126/126/126
f 127/127/127 123/123/123 125/125/125
f 123/123/123 127/127/127 126/126/126
f 127/127/127 125/125/125 128/128/128
f 127/127/127 128/128/128 126/126/126
f 128/128/128 118/118/118 126/126/126
f 125/125/125 129/129/129 128/128/128
f 128/128/128 129/129/129 130/130/130
f 128/128/128 130/130/130 118/118/118
f 129/129/129 131/131/131 130/130/130
f 130/130/130 132/132/132 118/118/118
f 118/118/118 132/132/132 120/120/120
f 130/130/130 131/131/131 133/133/133
f 131/131/131 134/134/134 133/133/133
f 133/133/133 134/134/134 135/135/135
f 136/136/136 132/132/132 130/130/130
f 133/133/133 136/136/136 130/130/130
f 132/132/132 136/136/136 137/137/137
f 120/120/120 132/132/132 137/137/137
f 137/137/137 136/136/136 133/133/133
f 138/138/138 133/133/133 135/135/135
f 138/138/138 137/137/137 133/133/133
f 138/138/138 135/135/135 139/139/139
f 138/138/138 139/139/139 137/137/137
f 135/135/135 140/140/140 139/139/139
f 139/139/139 140/140/140 77/77/77
f 137/137/137 141/141/141 120/120/120
f 139/139/139 141/141/141 137/137/137
f 141/141/141 116/116/116 120/120/120
f 116/116/116 141/141/141 115/115/115
f 115/115/115 141/141/141 139/139/139
f 142/142/142 139/139/139 77/77/77
f 142/142/142 115/115/115 139/139/139
f 142/142/142 77/77/77 76/76/76
f 142/142/142 76/76/76 115/115/115
