g pm0623_00_EyeLightSkin_tz
v -0.085319094 2.4530149 0.16420366
v -0.085319094 2.5701346 0.13138348
v -0.0690369 2.5454423 0.13364801
v -0.07102804 2.4765582 0.1511597
v -0.061123796 2.5460026 0.135357
v -0.06375546 2.5701346 0.13877885
v -0.085319094 2.5701346 0.13138348
v -0.051313825 2.5466971 0.13747568
v -0.037022766 2.5701346 0.14368989
v -0.06714903 2.4768329 0.15199745
v -0.071766384 2.4530149 0.16893297
v -0.085319094 2.4530149 0.16420366
v -0.037022766 2.4530149 0.17584391
v -0.053304967 2.477813 0.1549874
v -0.037022766 2.5701346 0.14368989
v -0.037022766 2.4530149 0.17584391
v 0.0266229 2.5701346 0.14552228
v 0.044119988 2.4639604 0.16338325
v 0.0266229 2.4530149 0.17791255
v 0.04420894 2.545949 0.14826171
v 0.058790814 2.4777155 0.1512752
v 0.056686 2.545457 0.14152463
v 0.0266229 2.5701346 0.14552228
v 0.071751304 2.5701346 0.13603662
v 0.06253431 2.4634683 0.15664616
v 0.09578983 2.4652648 0.15033089
v 0.09463044 2.479585 0.14495991
v 0.114054225 2.496518 0.13583155
v 0.114054225 2.4530149 0.14500345
v 0.071758814 2.4530149 0.16893448
v 0.0266229 2.4530149 0.17791255
v 0.114054225 2.4530149 0.14500345
v 0.071751304 2.496518 0.15671717
v 0.114054225 2.496518 0.13583155
v 0.09463044 2.479585 0.14495991
v 0.058790814 2.4777155 0.1512752
v 0.071751304 2.5701346 0.13603662
v 0.056686 2.545457 0.14152463
vt 0.015500933 0.29611778
vt 0.015500933 0.5007572
vt 0.043621123 0.46023214
vt 0.043621123 0.3423562
vt 0.06313947 0.46023214
vt 0.060241967 0.5007572
vt 0.015500933 0.5007572
vt 0.0822241 0.46023214
vt 0.11731157 0.5007572
vt 0.05133295 0.3423562
vt 0.046360373 0.29611778
vt 0.015500933 0.29611778
vt 0.11731157 0.29611778
vt 0.0822241 0.3423562
vt 0.11731157 0.5007572
vt 0.11731157 0.29611778
vt 0.016521573 0.23331308
vt 0.054251194 0.045954227
vt 0.016521573 0.016686916
vt 0.054251194 0.19102299
vt 0.08306849 0.072132945
vt 0.08306849 0.19121122
vt 0.016521573 0.23331308
vt 0.11734003 0.23331308
vt 0.08936477 0.045954227
vt 0.1600169 0.045954227
vt 0.16021782 0.072132945
vt 0.20222843 0.10514009
vt 0.20222843 0.016686916
vt 0.10263401 0.016686916
vt 0.016521573 0.016686916
vt 0.20222843 0.016686916
vt 0.11734003 0.10514003
vt 0.20222843 0.10514009
vt 0.16021782 0.072132945
vt 0.08306849 0.072132945
vt 0.11734003 0.23331308
vt 0.08306849 0.19121122
vn -0.13359314 0.30391294 0.9432867
vn -0.13731302 0.19417325 0.9713094
vn -0.13888294 0.20639661 0.96856177
vn -0.13594595 0.2920941 0.9466783
vn -0.22373882 0.18723246 0.95649624
vn -0.2239695 0.13960463 0.9645456
vn -0.13731302 0.19417325 0.9713094
vn -0.3046317 0.19446559 0.93240696
vn -0.30637288 0.18199906 0.9343511
vn -0.2200142 0.30028838 0.92812747
vn -0.21722564 0.345872 0.91278994
vn -0.13359314 0.30391294 0.9432867
vn -0.30293587 0.29175583 0.90725315
vn -0.30201644 0.28012213 0.9112177
vn -0.30637288 0.18199906 0.9343511
vn -0.30293587 0.29175583 0.90725315
vn 0.24650693 0.2856073 0.9261009
vn 0.26772133 0.3390114 0.901885
vn 0.27675208 0.37596586 0.8843404
vn 0.25434098 0.27729654 0.92650807
vn 0.23907939 0.27142295 0.9322932
vn 0.22293726 0.22881089 0.94759935
vn 0.24650693 0.2856073 0.9261009
vn 0.20589791 0.20646285 0.9565455
vn 0.26960152 0.36556306 0.89088655
vn 0.2672984 0.34145144 0.9010896
vn 0.25039187 0.26711237 0.93056697
vn 0.23581524 0.24597572 0.94015276
vn 0.26857635 0.34889382 0.89785296
vn 0.27675155 0.4087747 0.86966187
vn 0.27675208 0.37596586 0.8843404
vn 0.26857635 0.34889382 0.89785296
vn 0.20707574 0.20237254 0.95716506
vn 0.23581524 0.24597572 0.94015276
vn 0.25039187 0.26711237 0.93056697
vn 0.23907939 0.27142295 0.9322932
vn 0.20589791 0.20646285 0.9565455
vn 0.22293726 0.22881089 0.94759935
g pm0623_00_EyeLightSkin_tz_0
f 3/3/3 2/2/2 1/1/1
f 4/4/4 3/3/3 1/1/1
f 5/5/5 3/3/3 4/4/4
f 3/3/3 5/5/5 6/6/6
f 7/7/7 3/3/3 6/6/6
f 5/5/5 8/8/8 6/6/6
f 8/8/8 9/9/9 6/6/6
f 10/10/10 5/5/5 4/4/4
f 8/8/8 5/5/5 10/10/10
f 10/10/10 4/4/4 11/11/11
f 4/4/4 12/12/12 11/11/11
f 10/10/10 11/11/11 13/13/13
f 14/14/14 10/10/10 13/13/13
f 14/14/14 8/8/8 10/10/10
f 8/8/8 14/14/14 15/15/15
f 14/14/14 16/16/16 15/15/15
f 19/19/19 18/18/18 17/17/17
f 18/18/18 20/20/20 17/17/17
f 18/18/18 21/21/21 20/20/20
f 21/21/21 22/22/22 20/20/20
f 20/20/20 22/22/22 23/23/23
f 22/22/22 24/24/24 23/23/23
f 18/18/18 25/25/25 21/21/21
f 25/25/25 26/26/26 21/21/21
f 26/26/26 27/27/27 21/21/21
f 27/27/27 26/26/26 28/28/28
f 26/26/26 29/29/29 28/28/28
f 25/25/25 18/18/18 30/30/30
f 26/26/26 25/25/25 30/30/30
f 18/18/18 31/31/31 30/30/30
f 32/32/32 26/26/26 30/30/30
f 35/35/35 34/34/34 33/33/33
f 36/36/36 35/35/35 33/33/33
f 36/36/36 33/33/33 37/37/37
f 38/38/38 36/36/36 37/37/37
