g pm0676_19_Eye7Skin
v -0.07394163 0.9931484 0.51218355
v -0.06230511 0.9917413 0.5339889
v -0.07155306 0.9899355 0.53831476
v -0.050461292 0.9802656 0.55330676
v -0.083491266 0.99155986 0.51763886
v -0.09126409 0.9866552 0.50009286
v -0.08299752 0.98850965 0.4950206
v -0.09424538 0.9815018 0.5240401
v -0.09916558 0.9748756 0.48881698
v -0.08797002 0.9772253 0.48274168
v -0.09179775 0.9647924 0.47541472
v -0.061339863 0.9790079 0.557161
v -0.05556744 0.9638409 0.56949276
v -0.043257143 0.9634811 0.5663859
v -0.039769266 0.94648147 0.5723422
v -0.07267297 0.97180563 0.5586452
v -0.052319005 0.9467276 0.57590955
v -0.039067212 0.93521804 0.5743489
v -0.08479269 0.9793572 0.5423282
v -0.06350459 0.9629115 0.5671851
v -0.06518664 0.95189184 0.57014745
v -0.06584868 0.9365852 0.5711537
v -0.051709056 0.9329913 0.5788975
v -0.03542153 0.9213565 0.5910833
v -0.08049217 0.95688945 0.55945057
v -0.0934233 0.96295154 0.54359335
v -0.09584335 0.94529885 0.5402334
v -0.1020575 0.9669983 0.52425474
v -0.082412824 0.94065267 0.55812216
v -0.09971562 0.97759 0.5086718
v -0.10354619 0.970573 0.5033387
v -0.105395354 0.95858383 0.49791896
v -0.07971242 0.92805743 0.5545967
v -0.10351634 0.95119876 0.5202304
v -0.0995037 0.93894583 0.51401514
v -0.10324737 0.9630988 0.48248413
v -0.09122897 0.9329461 0.5345389
v -0.11086462 0.9602287 0.46846825
v -0.10154773 0.9620027 0.4638239
v -0.11896147 0.95805174 0.4590265
v -0.112808466 0.9590754 0.45311874
v -0.12267612 0.95546234 0.45784897
v -0.11518213 0.95671856 0.45074967
v -0.11733886 0.9533502 0.46727657
v -0.10817056 0.95037603 0.47985846
v -0.12219051 0.95284915 0.45848396
v -0.11475798 0.9514877 0.45200202
v -0.11802134 0.9493625 0.46499282
v -0.109832644 0.9473258 0.46015093
v -0.109389216 0.9443074 0.47613895
v -0.10158958 0.94270295 0.47118282
v -0.10094013 0.93984604 0.4862137
v -0.09129442 0.93829465 0.48074824
v -0.10504423 0.9455795 0.49333686
v -0.08775445 0.9329745 0.5037765
v -0.079944745 0.9307263 0.49816793
v -0.07900663 0.92727965 0.5257641
v -0.070429355 0.9239369 0.5201479
v -0.07031121 0.9229768 0.5471343
v -0.06044582 0.9195198 0.5412899
v -0.061238162 0.9203732 0.56404585
v -0.050972722 0.9176723 0.55785775
v -0.06697829 0.9248222 0.5698297
v -0.052940182 0.91803974 0.5796583
v -0.042759866 0.9156955 0.57441777
v -0.055100564 0.922042 0.5819801
v -0.044905365 0.9172432 0.590377
v -0.0352985 0.916863 0.59115374
v -0.043583095 0.9194867 0.5916701
v -0.034749307 0.91813785 0.5927431
v -0.04373653 0.92173785 0.59117264
v 0.07394163 0.9931484 0.51218355
v 0.07155306 0.9899355 0.53831476
v 0.06230511 0.9917413 0.5339889
v 0.050461292 0.9802656 0.55330676
v 0.083491266 0.99155986 0.51763886
v 0.09126409 0.9866552 0.50009286
v 0.08299752 0.98850965 0.4950206
v 0.09424538 0.9815018 0.5240401
v 0.09916558 0.9748756 0.48881698
v 0.08797002 0.9772253 0.48274168
v 0.09179775 0.9647924 0.47541472
v 0.061339863 0.9790079 0.557161
v 0.05556744 0.9638409 0.56949276
v 0.043257143 0.9634811 0.5663859
v 0.039769266 0.94648147 0.5723422
v 0.07267297 0.97180563 0.5586452
v 0.052319005 0.9467276 0.57590955
v 0.039067212 0.93521804 0.5743489
v 0.08479269 0.9793572 0.5423282
v 0.06350459 0.9629115 0.5671851
v 0.06518664 0.95189184 0.57014745
v 0.06584868 0.9365852 0.5711537
v 0.051709056 0.9329913 0.5788975
v 0.03542153 0.9213565 0.5910833
v 0.08049217 0.95688945 0.55945057
v 0.0934233 0.96295154 0.54359335
v 0.09584335 0.94529885 0.5402334
v 0.1020575 0.9669983 0.52425474
v 0.082412824 0.94065267 0.55812216
v 0.09971562 0.97759 0.5086718
v 0.10354619 0.970573 0.5033387
v 0.105395354 0.95858383 0.49791896
v 0.07971242 0.92805743 0.5545967
v 0.10351634 0.95119876 0.5202304
v 0.0995037 0.93894583 0.51401514
v 0.10324737 0.9630988 0.48248413
v 0.09122897 0.9329461 0.5345389
v 0.11086462 0.9602287 0.46846825
v 0.10154773 0.9620027 0.4638239
v 0.11896147 0.95805174 0.4590265
v 0.112808466 0.9590754 0.45311874
v 0.12267612 0.95546234 0.45784897
v 0.11518213 0.95671856 0.45074967
v 0.11733886 0.9533502 0.46727657
v 0.10817056 0.95037603 0.47985846
v 0.12219051 0.95284915 0.45848396
v 0.11475798 0.9514877 0.45200202
v 0.11802134 0.9493625 0.46499282
v 0.109832644 0.9473258 0.4601509
v 0.109389216 0.9443074 0.47613895
v 0.10158958 0.94270295 0.47118282
v 0.10094013 0.93984604 0.4862137
v 0.09129442 0.93829465 0.48074824
v 0.10504423 0.9455795 0.49333686
v 0.08775445 0.9329745 0.5037765
v 0.079944745 0.9307263 0.49816793
v 0.07900663 0.92727965 0.5257641
v 0.070429355 0.9239369 0.5201479
v 0.07031121 0.9229768 0.5471343
v 0.06044582 0.9195198 0.5412899
v 0.061238162 0.9203732 0.56404585
v 0.050972722 0.9176723 0.55785775
v 0.06697829 0.9248222 0.5698297
v 0.052940182 0.91803974 0.5796583
v 0.042759866 0.9156955 0.57441777
v 0.055100564 0.922042 0.5819801
v 0.044905365 0.9172432 0.590377
v 0.0352985 0.916863 0.59115374
v 0.043583095 0.9194867 0.5916701
v 0.034749307 0.91813785 0.5927431
v 0.04373653 0.92173785 0.59117264
vt 0.17717415 0.97933906
vt 0.18728888 0.9855075
vt 0.18732569 0.9757651
vt 0.19768399 0.98059946
vt 0.17883867 0.96970433
vt 0.1725215 0.95921916
vt 0.16997275 0.96588
vt 0.18069649 0.95662785
vt 0.16886044 0.9431494
vt 0.16580135 0.9480672
vt 0.16287515 0.93539596
vt 0.19569933 0.9708539
vt 0.20172668 0.95880103
vt 0.20548195 0.9660534
vt 0.21027237 0.9496075
vt 0.1942643 0.9593194
vt 0.20599806 0.9435217
vt 0.21251184 0.93927467
vt 0.18738407 0.960342
vt 0.19924068 0.9549945
vt 0.2005933 0.9445243
vt 0.20226222 0.9301362
vt 0.20860457 0.9303291
vt 0.21847956 0.92489845
vt 0.19414335 0.94449264
vt 0.18744302 0.9447487
vt 0.1875 0.9296875
vt 0.18097669 0.9429152
vt 0.19479683 0.92990935
vt 0.17579836 0.94922215
vt 0.17442071 0.94098026
vt 0.17338175 0.9292583
vt 0.19555259 0.91760725
vt 0.18080792 0.92948395
vt 0.18031499 0.9166078
vt 0.16650572 0.92904913
vt 0.18754894 0.9167417
vt 0.16061747 0.919021
vt 0.15840155 0.92418873
vt 0.15810439 0.91451615
vt 0.1531312 0.9140057
vt 0.1573648 0.90884125
vt 0.15318246 0.90752923
vt 0.16116142 0.91137326
vt 0.16723245 0.9146998
vt 0.15841089 0.904177
vt 0.15442914 0.899517
vt 0.16056287 0.9043063
vt 0.16000858 0.89787775
vt 0.16698432 0.9035578
vt 0.16627291 0.895768
vt 0.17232946 0.90249646
vt 0.17193747 0.89401335
vt 0.17295101 0.91623414
vt 0.17911613 0.9015494
vt 0.17852855 0.89228636
vt 0.18760535 0.9018121
vt 0.18764377 0.89170784
vt 0.19587338 0.90508705
vt 0.19656348 0.89410955
vt 0.20284629 0.9091699
vt 0.20367739 0.8979294
vt 0.20274669 0.91850346
vt 0.20920211 0.9134675
vt 0.21054357 0.90276676
vt 0.20902139 0.9185061
vt 0.21299298 0.9129349
vt 0.21818179 0.90808785
vt 0.21386111 0.9189816
vt 0.21891405 0.9138404
vt 0.21353538 0.92489296
vt 0.17717415 0.97933906
vt 0.1873256 0.9757651
vt 0.18728888 0.9855075
vt 0.19768393 0.98059946
vt 0.17883861 0.96970433
vt 0.17252147 0.95921916
vt 0.16997278 0.96588
vt 0.18069643 0.95662785
vt 0.16886038 0.9431494
vt 0.16580129 0.9480672
vt 0.16287512 0.93539596
vt 0.19569933 0.9708539
vt 0.20172668 0.95880103
vt 0.20548195 0.9660534
vt 0.21027237 0.9496075
vt 0.1942643 0.9593194
vt 0.20599806 0.9435217
vt 0.21251184 0.93927467
vt 0.18738401 0.960342
vt 0.19924062 0.9549945
vt 0.2005933 0.9445243
vt 0.20226216 0.9301362
vt 0.20860457 0.9303291
vt 0.2184794 0.92489845
vt 0.19414335 0.94449264
vt 0.18744308 0.9447487
vt 0.1875 0.9296875
vt 0.18097669 0.9429152
vt 0.19479668 0.92990935
vt 0.17579836 0.94922215
vt 0.17442071 0.94098026
vt 0.17338169 0.9292583
vt 0.19555253 0.91760725
vt 0.18080783 0.92948395
vt 0.1803149 0.9166078
vt 0.16650563 0.92904913
vt 0.18754888 0.9167417
vt 0.16061747 0.919021
vt 0.15840149 0.92418873
vt 0.1581043 0.91451615
vt 0.15313107 0.9140057
vt 0.15736479 0.90884125
vt 0.15318215 0.90752923
vt 0.16116142 0.91137326
vt 0.1672324 0.9146998
vt 0.1584109 0.904177
vt 0.15442902 0.899517
vt 0.16056287 0.9043063
vt 0.16000849 0.89787775
vt 0.16698426 0.9035578
vt 0.16627294 0.895768
vt 0.17232943 0.90249646
vt 0.17193735 0.89401335
vt 0.17295098 0.91623414
vt 0.17911613 0.9015494
vt 0.17852855 0.89228636
vt 0.18760538 0.9018121
vt 0.18764377 0.89170784
vt 0.19587332 0.90508705
vt 0.19656342 0.89410955
vt 0.20284629 0.9091699
vt 0.20367742 0.8979294
vt 0.20274663 0.91850346
vt 0.20920205 0.9134675
vt 0.21054351 0.90276676
vt 0.20902139 0.9185061
vt 0.21299303 0.9129349
vt 0.21818179 0.90808785
vt 0.21386105 0.9189816
vt 0.21891397 0.9138404
vt 0.21353525 0.92489296
vn -0.3963549 0.9100265 0.121468574
vn -0.24512102 0.87809753 0.4109264
vn -0.38941857 0.79452777 0.46591717
vn -0.10923681 0.74170256 0.66177374
vn -0.53343153 0.8254795 0.18448406
vn -0.643916 0.7643326 -0.03417552
vn -0.5206806 0.846767 -0.10898324
vn -0.7368146 0.6208782 0.26760876
vn -0.7607125 0.6408447 -0.10312369
vn -0.6118412 0.7642803 -0.20377876
vn -0.66422045 0.72802496 -0.16967854
vn -0.24729152 0.667616 0.7022363
vn -0.16740716 0.5100383 0.84370357
vn -0.035116304 0.5689819 0.82159996
vn -0.046411548 0.42636147 0.90336144
vn -0.4642297 0.49195415 0.73652685
vn -0.2069065 0.34872985 0.9140991
vn -0.11613493 0.30730987 0.9444963
vn -0.6215049 0.57801044 0.528806
vn -0.34345216 0.41983178 0.8401083
vn -0.44011024 0.24527442 0.86379594
vn -0.5700024 -0.053390626 0.81990653
vn -0.3235266 0.13266778 0.93687236
vn -0.1735006 0.16141888 0.97151506
vn -0.6416404 0.21561177 0.7360769
vn -0.81130767 0.24421434 0.5311677
vn -0.8796047 -0.17357664 0.44290712
vn -0.90516603 0.3161276 0.28414416
vn -0.7477165 -0.1608754 0.64423543
vn -0.77603215 0.62628704 0.07442217
vn -0.8944106 0.44250327 0.06496625
vn -0.98792946 0.12195577 0.09551057
vn -0.69837546 -0.57623637 0.42452726
vn -0.9646489 -0.08505844 0.24943466
vn -0.84469247 -0.5131412 0.15225211
vn -0.88290507 0.46848407 -0.03164469
vn -0.76823604 -0.58279306 0.26488805
vn -0.808656 0.5880857 -0.015187055
vn -0.6496718 0.749542 -0.12693839
vn -0.7905649 0.6072452 -0.07912252
vn -0.724136 0.6672861 -0.17423068
vn -0.96796227 0.22789356 -0.10542036
vn -0.9293288 0.2611277 -0.2610753
vn -0.9946203 0.09033727 0.050689913
vn -0.9884305 -0.12507115 0.085804045
vn -0.95290405 -0.26568785 -0.14623196
vn -0.9053098 -0.33823267 -0.25692964
vn -0.88833636 -0.45852137 -0.024834843
vn -0.74905443 -0.648821 -0.13397324
vn -0.7900097 -0.612573 0.025278796
vn -0.6213046 -0.7809293 -0.06426414
vn -0.6958926 -0.7179047 0.018606316
vn -0.5379002 -0.84147173 -0.05087953
vn -0.9269406 -0.36142808 0.10075133
vn -0.6193054 -0.78460044 0.029380048
vn -0.48387903 -0.874353 -0.036987893
vn -0.56480664 -0.8204122 0.088978864
vn -0.4475772 -0.89421207 0.0077077127
vn -0.52745783 -0.82758176 0.19208506
vn -0.41975442 -0.9035933 0.08558805
vn -0.497038 -0.8004329 0.33505273
vn -0.3968657 -0.89446926 0.20596726
vn -0.61831516 -0.49483892 0.6105906
vn -0.4527958 -0.7223961 0.52260876
vn -0.3736958 -0.83606434 0.40168124
vn -0.49540594 -0.3511952 0.794503
vn -0.3968214 -0.60066044 0.69407487
vn -0.34198284 -0.6499102 0.67872256
vn -0.37688252 -0.24876703 0.8922301
vn -0.2837475 -0.22692636 0.93166083
vn -0.27194494 0.10466904 0.95660347
vn 0.3963553 0.9100263 0.12146844
vn 0.389419 0.7945276 0.4659172
vn 0.24512137 0.87809736 0.41092643
vn 0.109236695 0.74170256 0.6617738
vn 0.5334319 0.82547927 0.18448395
vn 0.64391625 0.7643323 -0.03417565
vn 0.5206808 0.846767 -0.10898313
vn 0.736815 0.6208779 0.26760855
vn 0.76071256 0.64084476 -0.103123024
vn 0.6118413 0.7642806 -0.2037777
vn 0.6642207 0.7280254 -0.16967608
vn 0.24729161 0.6676158 0.7022364
vn 0.16740716 0.5100385 0.8437035
vn 0.035115913 0.5689822 0.8215997
vn 0.046410903 0.42636168 0.9033613
vn 0.46423 0.491954 0.73652685
vn 0.20690621 0.34873012 0.9140991
vn 0.116134316 0.30731025 0.9444963
vn 0.6215051 0.5780102 0.52880585
vn 0.3434524 0.41983178 0.8401082
vn 0.4401103 0.2452746 0.86379594
vn 0.5700024 -0.053390477 0.8199066
vn 0.3235263 0.13266823 0.93687236
vn 0.17349981 0.16142014 0.97151494
vn 0.6416404 0.21561162 0.7360769
vn 0.8113078 0.24421413 0.53116757
vn 0.87960464 -0.17357668 0.44290733
vn 0.90516603 0.31612754 0.28414425
vn 0.7477164 -0.16087528 0.64423543
vn 0.77603227 0.6262868 0.07442216
vn 0.8944108 0.44250295 0.06496654
vn 0.98792934 0.12195574 0.095511146
vn 0.69837534 -0.5762362 0.42452756
vn 0.9646489 -0.085058406 0.24943458
vn 0.8446925 -0.51314104 0.15225194
vn 0.88290507 0.46848413 -0.03164298
vn 0.76823604 -0.582793 0.26488835
vn 0.80865586 0.58808607 -0.015183771
vn 0.6496721 0.7495424 -0.12693445
vn 0.79056525 0.6072453 -0.079118244
vn 0.7241369 0.6672863 -0.17422596
vn 0.96796274 0.22789364 -0.10541714
vn 0.9293299 0.2611281 -0.26107135
vn 0.9946203 0.090337396 0.050691806
vn 0.9884305 -0.12507094 0.08580468
vn 0.9529044 -0.26568756 -0.14623016
vn 0.9053105 -0.33823228 -0.25692767
vn 0.88833654 -0.45852104 -0.024834093
vn 0.74905473 -0.6488206 -0.13397267
vn 0.79000974 -0.61257285 0.025278792
vn 0.62130487 -0.7809292 -0.06426442
vn 0.69589275 -0.7179046 0.018605893
vn 0.53790027 -0.84147173 -0.050879925
vn 0.9269406 -0.36142805 0.100751154
vn 0.61930543 -0.7846004 0.029379917
vn 0.483879 -0.8743529 -0.036988206
vn 0.56480664 -0.8204122 0.088979
vn 0.44757724 -0.89421207 0.007707712
vn 0.52745783 -0.8275817 0.19208534
vn 0.41975442 -0.9035933 0.08558831
vn 0.4970379 -0.8004329 0.3350531
vn 0.39686543 -0.89446914 0.20596783
vn 0.618315 -0.49483868 0.61059093
vn 0.45279527 -0.7223957 0.5226096
vn 0.37369546 -0.8360641 0.40168214
vn 0.4954054 -0.35119453 0.79450357
vn 0.39682063 -0.6006593 0.69407624
vn 0.34198213 -0.649909 0.6787241
vn 0.37688175 -0.24876556 0.8922308
vn 0.28374648 -0.22692443 0.93166155
vn 0.27194422 0.104670174 0.9566036
g pm0676_19_Eye7Skin_0
f 3/3/3 2/2/2 1/1/1
f 4/4/4 2/2/2 3/3/3
f 5/5/5 3/3/3 1/1/1
f 5/5/5 1/1/1 6/6/6
f 1/1/1 7/7/7 6/6/6
f 5/5/5 8/8/8 3/3/3
f 5/5/5 6/6/6 8/8/8
f 6/6/6 7/7/7 9/9/9
f 7/7/7 10/10/10 9/9/9
f 9/9/9 10/10/10 11/11/11
f 12/12/12 4/4/4 3/3/3
f 12/12/12 13/13/13 4/4/4
f 13/13/13 14/14/14 4/4/4
f 15/15/15 14/14/14 13/13/13
f 12/12/12 3/3/3 16/16/16
f 12/12/12 16/16/16 13/13/13
f 17/17/17 15/15/15 13/13/13
f 18/18/18 15/15/15 17/17/17
f 8/8/8 19/19/19 3/3/3
f 3/3/3 19/19/19 16/16/16
f 16/16/16 20/20/20 13/13/13
f 13/13/13 20/20/20 17/17/17
f 21/21/21 20/20/20 16/16/16
f 20/20/20 21/21/21 17/17/17
f 17/17/17 21/21/21 22/22/22
f 23/23/23 18/18/18 17/17/17
f 23/23/23 17/17/17 22/22/22
f 24/24/24 18/18/18 23/23/23
f 25/25/25 21/21/21 16/16/16
f 16/16/16 19/19/19 25/25/25
f 22/22/22 21/21/21 25/25/25
f 26/26/26 19/19/19 8/8/8
f 19/19/19 26/26/26 25/25/25
f 25/25/25 26/26/26 27/27/27
f 28/28/28 26/26/26 8/8/8
f 27/27/27 26/26/26 28/28/28
f 29/29/29 22/22/22 25/25/25
f 29/29/29 25/25/25 27/27/27
f 8/8/8 30/30/30 28/28/28
f 6/6/6 30/30/30 8/8/8
f 31/31/31 30/30/30 6/6/6
f 30/30/30 31/31/31 28/28/28
f 28/28/28 31/31/31 32/32/32
f 9/9/9 31/31/31 6/6/6
f 32/32/32 31/31/31 9/9/9
f 29/29/29 33/33/33 22/22/22
f 29/29/29 27/27/27 33/33/33
f 34/34/34 28/28/28 32/32/32
f 34/34/34 27/27/27 28/28/28
f 34/34/34 35/35/35 27/27/27
f 34/34/34 32/32/32 35/35/35
f 36/36/36 32/32/32 9/9/9
f 36/36/36 9/9/9 11/11/11
f 27/27/27 37/37/37 33/33/33
f 35/35/35 37/37/37 27/27/27
f 38/38/38 36/36/36 11/11/11
f 39/39/39 38/38/38 11/11/11
f 40/40/40 38/38/38 39/39/39
f 41/41/41 40/40/40 39/39/39
f 40/40/40 41/41/41 42/42/42
f 40/40/40 42/42/42 38/38/38
f 41/41/41 43/43/43 42/42/42
f 38/38/38 44/44/44 36/36/36
f 42/42/42 44/44/44 38/38/38
f 36/36/36 45/45/45 32/32/32
f 44/44/44 45/45/45 36/36/36
f 42/42/42 43/43/43 46/46/46
f 43/43/43 47/47/47 46/46/46
f 46/46/46 48/48/48 42/42/42
f 46/46/46 47/47/47 48/48/48
f 48/48/48 44/44/44 42/42/42
f 47/47/47 49/49/49 48/48/48
f 48/48/48 50/50/50 44/44/44
f 48/48/48 49/49/49 50/50/50
f 50/50/50 45/45/45 44/44/44
f 49/49/49 51/51/51 50/50/50
f 52/52/52 50/50/50 51/51/51
f 50/50/50 52/52/52 45/45/45
f 53/53/53 52/52/52 51/51/51
f 45/45/45 54/54/54 32/32/32
f 52/52/52 54/54/54 45/45/45
f 32/32/32 54/54/54 35/35/35
f 55/55/55 52/52/52 53/53/53
f 54/54/54 52/52/52 55/55/55
f 35/35/35 54/54/54 55/55/55
f 56/56/56 55/55/55 53/53/53
f 55/55/55 57/57/57 35/35/35
f 57/57/57 55/55/55 56/56/56
f 57/57/57 37/37/37 35/35/35
f 58/58/58 57/57/57 56/56/56
f 37/37/37 57/57/57 59/59/59
f 59/59/59 57/57/57 58/58/58
f 60/60/60 59/59/59 58/58/58
f 33/33/33 37/37/37 59/59/59
f 61/61/61 59/59/59 60/60/60
f 59/59/59 61/61/61 33/33/33
f 62/62/62 61/61/61 60/60/60
f 61/61/61 63/63/63 33/33/33
f 33/33/33 63/63/63 22/22/22
f 64/64/64 61/61/61 62/62/62
f 63/63/63 61/61/61 64/64/64
f 65/65/65 64/64/64 62/62/62
f 22/22/22 63/63/63 66/66/66
f 66/66/66 63/63/63 64/64/64
f 23/23/23 22/22/22 66/66/66
f 67/67/67 64/64/64 65/65/65
f 68/68/68 67/67/67 65/65/65
f 67/67/67 69/69/69 64/64/64
f 67/67/67 68/68/68 69/69/69
f 69/69/69 66/66/66 64/64/64
f 68/68/68 70/70/70 69/69/69
f 69/69/69 70/70/70 24/24/24
f 71/71/71 23/23/23 66/66/66
f 71/71/71 24/24/24 23/23/23
f 71/71/71 69/69/69 24/24/24
f 69/69/69 71/71/71 66/66/66
f 74/74/74 73/73/73 72/72/72
f 74/74/74 75/75/75 73/73/73
f 73/73/73 76/76/76 72/72/72
f 72/72/72 76/76/76 77/77/77
f 78/78/78 72/72/72 77/77/77
f 79/79/79 76/76/76 73/73/73
f 77/77/77 76/76/76 79/79/79
f 78/78/78 77/77/77 80/80/80
f 81/81/81 78/78/78 80/80/80
f 81/81/81 80/80/80 82/82/82
f 75/75/75 83/83/83 73/73/73
f 84/84/84 83/83/83 75/75/75
f 85/85/85 84/84/84 75/75/75
f 85/85/85 86/86/86 84/84/84
f 73/73/73 83/83/83 87/87/87
f 87/87/87 83/83/83 84/84/84
f 86/86/86 88/88/88 84/84/84
f 86/86/86 89/89/89 88/88/88
f 90/90/90 79/79/79 73/73/73
f 90/90/90 73/73/73 87/87/87
f 91/91/91 87/87/87 84/84/84
f 91/91/91 84/84/84 88/88/88
f 91/91/91 92/92/92 87/87/87
f 92/92/92 91/91/91 88/88/88
f 92/92/92 88/88/88 93/93/93
f 89/89/89 94/94/94 88/88/88
f 88/88/88 94/94/94 93/93/93
f 89/89/89 95/95/95 94/94/94
f 92/92/92 96/96/96 87/87/87
f 90/90/90 87/87/87 96/96/96
f 92/92/92 93/93/93 96/96/96
f 90/90/90 97/97/97 79/79/79
f 97/97/97 90/90/90 96/96/96
f 97/97/97 96/96/96 98/98/98
f 97/97/97 99/99/99 79/79/79
f 97/97/97 98/98/98 99/99/99
f 93/93/93 100/100/100 96/96/96
f 96/96/96 100/100/100 98/98/98
f 101/101/101 79/79/79 99/99/99
f 101/101/101 77/77/77 79/79/79
f 101/101/101 102/102/102 77/77/77
f 102/102/102 101/101/101 99/99/99
f 102/102/102 99/99/99 103/103/103
f 102/102/102 80/80/80 77/77/77
f 102/102/102 103/103/103 80/80/80
f 104/104/104 100/100/100 93/93/93
f 98/98/98 100/100/100 104/104/104
f 99/99/99 105/105/105 103/103/103
f 98/98/98 105/105/105 99/99/99
f 106/106/106 105/105/105 98/98/98
f 103/103/103 105/105/105 106/106/106
f 103/103/103 107/107/107 80/80/80
f 80/80/80 107/107/107 82/82/82
f 108/108/108 98/98/98 104/104/104
f 108/108/108 106/106/106 98/98/98
f 107/107/107 109/109/109 82/82/82
f 109/109/109 110/110/110 82/82/82
f 109/109/109 111/111/111 110/110/110
f 111/111/111 112/112/112 110/110/110
f 112/112/112 111/111/111 113/113/113
f 113/113/113 111/111/111 109/109/109
f 114/114/114 112/112/112 113/113/113
f 115/115/115 109/109/109 107/107/107
f 115/115/115 113/113/113 109/109/109
f 116/116/116 107/107/107 103/103/103
f 116/116/116 115/115/115 107/107/107
f 114/114/114 113/113/113 117/117/117
f 118/118/118 114/114/114 117/117/117
f 119/119/119 117/117/117 113/113/113
f 118/118/118 117/117/117 119/119/119
f 115/115/115 119/119/119 113/113/113
f 120/120/120 118/118/118 119/119/119
f 121/121/121 119/119/119 115/115/115
f 120/120/120 119/119/119 121/121/121
f 116/116/116 121/121/121 115/115/115
f 122/122/122 120/120/120 121/121/121
f 121/121/121 123/123/123 122/122/122
f 123/123/123 121/121/121 116/116/116
f 123/123/123 124/124/124 122/122/122
f 125/125/125 116/116/116 103/103/103
f 125/125/125 123/123/123 116/116/116
f 125/125/125 103/103/103 106/106/106
f 123/123/123 126/126/126 124/124/124
f 123/123/123 125/125/125 126/126/126
f 125/125/125 106/106/106 126/126/126
f 126/126/126 127/127/127 124/124/124
f 128/128/128 126/126/126 106/106/106
f 126/126/126 128/128/128 127/127/127
f 108/108/108 128/128/128 106/106/106
f 128/128/128 129/129/129 127/127/127
f 128/128/128 108/108/108 130/130/130
f 128/128/128 130/130/130 129/129/129
f 130/130/130 131/131/131 129/129/129
f 108/108/108 104/104/104 130/130/130
f 130/130/130 132/132/132 131/131/131
f 132/132/132 130/130/130 104/104/104
f 132/132/132 133/133/133 131/131/131
f 134/134/134 132/132/132 104/104/104
f 134/134/134 104/104/104 93/93/93
f 132/132/132 135/135/135 133/133/133
f 132/132/132 134/134/134 135/135/135
f 135/135/135 136/136/136 133/133/133
f 134/134/134 93/93/93 137/137/137
f 134/134/134 137/137/137 135/135/135
f 93/93/93 94/94/94 137/137/137
f 135/135/135 138/138/138 136/136/136
f 138/138/138 139/139/139 136/136/136
f 140/140/140 138/138/138 135/135/135
f 139/139/139 138/138/138 140/140/140
f 137/137/137 140/140/140 135/135/135
f 141/141/141 139/139/139 140/140/140
f 141/141/141 140/140/140 95/95/95
f 94/94/94 142/142/142 137/137/137
f 95/95/95 142/142/142 94/94/94
f 140/140/140 142/142/142 95/95/95
f 142/142/142 140/140/140 137/137/137
