g pm0646_13_LightningB4Skin
v -0.083744496 1.697236 -1.5034248
v -0.0039910004 1.7036788 -1.5034856
v -0.0042756465 1.7064385 -1.5847496
v -0.084029 1.6999956 -1.5846891
v -0.16319774 1.6760097 -1.5038675
v -0.0045602927 1.7091981 -1.666014
v -0.16348238 1.6787694 -1.5851316
v -0.0843135 1.7027552 -1.6659533
v -0.16376702 1.6815287 -1.666396
v -0.08460811 1.4491582 -1.5848876
v 0.019794183 1.2133027 -1.6395324
v -0.055755656 1.2022917 -1.6385051
v -0.018069373 1.4670842 -1.5855203
v -0.14254826 1.6844302 -1.5851681
v -0.08536329 1.6997075 -1.5848495
v -0.02796238 1.7043446 -1.584893
v 0.04640694 1.4831003 -1.5865366
v 0.09534417 1.2243137 -1.6405602
v 0.348653 1.5643852 -1.7132329
v 0.39954096 1.5026399 -1.7132934
v 0.40164217 1.5044513 -1.7945575
v 0.35075408 1.5661967 -1.794497
v 0.28580767 1.6174313 -1.7136751
v 0.4037436 1.5062628 -1.8758216
v 0.2879089 1.6192428 -1.7949395
v 0.35285532 1.5680081 -1.8757614
v 0.2900103 1.6210542 -1.8762038
v -0.20569639 0.80940145 -2.046427
v -0.2720898 0.8534576 -2.0530617
v -0.2523078 0.87171483 -2.129788
v -0.18591438 0.8276586 -2.1231532
v -0.12965308 0.7808171 -2.0336227
v -0.23252597 0.889972 -2.2065141
v -0.1098711 0.79907423 -2.1103492
v -0.16613239 0.8459157 -2.1998794
v -0.0900891 0.81733143 -2.1870751
v -0.3102401 1.4082756 -2.336644
v -0.26930493 1.4592549 -2.334466
v -0.2513651 1.4475404 -2.3974462
v -0.29229996 1.3965609 -2.399624
v -0.3396477 1.3478248 -2.3337767
v -0.23342511 1.4358256 -2.4604263
v -0.32170787 1.3361102 -2.396757
v -0.2743603 1.3848463 -2.4626043
v -0.3037682 1.3243955 -2.4597368
v 0.14168182 1.5832276 -2.2504184
v 0.19921033 1.5523468 -2.2463942
v 0.19264726 1.531915 -2.3093626
v 0.1351189 1.5627954 -2.3133867
v 0.07681899 1.601094 -2.2494552
v 0.18608434 1.5114827 -2.3723311
v 0.07025592 1.5806619 -2.312424
v 0.12855598 1.5423634 -2.3763554
v 0.06369301 1.5602299 -2.3753924
v 0.24751045 1.0088422 -2.4601047
v 0.29694307 1.0815895 -2.453314
v 0.315451 1.0610464 -2.3679724
v 0.26601824 0.988299 -2.3747628
v 0.18104221 0.94707954 -2.460557
v 0.3339585 1.0405033 -2.2826288
v 0.1995497 0.9265363 -2.3752148
v 0.28452572 0.9677558 -2.28942
v 0.2180575 0.90599304 -2.289873
v 0.15799809 1.0986037 -2.848462
v 0.18616673 1.1394354 -2.8452978
v 0.19541788 1.1292831 -2.796651
v 0.16724923 1.0884514 -2.7998154
v 0.12021589 1.0641593 -2.8484654
v 0.20466873 1.119131 -2.7480042
v 0.12946688 1.054007 -2.799819
v 0.17650022 1.0782992 -2.7511685
v 0.13871802 1.0438547 -2.7511716
v 0.13807482 1.3827835 -2.7661524
v 0.09495185 1.4113227 -2.762984
v 0.105060495 1.4209574 -2.7121823
v 0.14818347 1.3924184 -2.71535
v 0.17471205 1.3440875 -2.7661037
v 0.115168996 1.4305918 -2.66138
v 0.18482068 1.3537217 -2.7153015
v 0.15829211 1.4020528 -2.664548
v 0.19492935 1.3633566 -2.664499
v -0.37792054 0.913046 -1.658229
v -0.3017108 0.8380885 -1.6555034
v -0.3002574 0.8435146 -1.5469068
v -0.3764668 0.91847247 -1.5496316
v -0.4360762 1.0063175 -1.6621116
v -0.3195018 0.87401867 -1.4557549
v -0.43462235 1.0117443 -1.5535139
v -0.37190905 0.9346608 -1.4432969
v -0.43316844 1.0171708 -1.4449165
v -0.13351753 1.2884374 -2.9408934
v -0.15013808 1.2486287 -2.9401834
v -0.16275054 1.254637 -2.8985913
v -0.14613014 1.2944455 -2.8993013
v -0.10778905 1.3245018 -2.938301
v -0.1727823 1.2591909 -2.8559983
v -0.12040136 1.3305098 -2.8967092
v -0.1561616 1.2989993 -2.8567085
v -0.13043296 1.3350637 -2.8541164
v 0.18371215 1.0529374 -2.2469785
v -0.023471547 1.2108843 -2.211558
v -0.028147683 1.1893834 -2.100238
v 0.1669912 1.0812643 -2.3063214
v 0.27905127 0.9743411 -2.3163295
v 0.26650053 0.98827285 -2.3742056
v 0.2539492 1.0022045 -2.4320807
v 0.15394315 1.1095484 -2.3724048
v -0.009549477 1.2352779 -2.3143413
v 0.13951321 1.4197549 -1.7298769
v -0.018193997 1.199662 -1.6855676
v -0.070426375 1.2553468 -1.6845403
v 0.19226581 1.3754169 -1.7305094
v 0.3045409 1.6050587 -1.7945474
v 0.35075408 1.5661967 -1.794497
v 0.38639832 1.5229956 -1.7942724
v 0.24227278 1.3316783 -1.7315259
v 0.034038525 1.143977 -1.6865953
v 0.06988026 1.1176567 -2.8030386
v -0.029185733 1.210133 -2.7462037
v -0.04313784 1.1781148 -2.743468
v 0.08868979 1.1386842 -2.8047252
v 0.15318201 1.0757 -2.799682
v 0.16724923 1.0884514 -2.7998154
v 0.17901386 1.1051844 -2.7984412
v 0.107442215 1.1590507 -2.803887
v -0.022868942 1.2323937 -2.7466996
v -0.03629385 1.2526 -3.179696
v -0.016839476 1.2118319 -3.1133876
v -0.01665596 1.2098091 -3.1447186
v -0.042339228 1.2642026 -3.1660707
v -0.05425673 1.3119026 -3.218533
v -0.04763492 1.2763995 -3.153159
v -0.017040245 1.2138925 -3.0819697
v -0.05425673 1.3119026 -3.218533
v 0.042705797 1.3123546 -2.708323
v -0.023368336 1.2006246 -2.7009618
v -0.051941045 1.2264543 -2.6957836
v 0.06447363 1.2995763 -2.7057755
v 0.13059579 1.4039869 -2.7139633
v 0.14825633 1.3923923 -2.7152786
v 0.16175531 1.3777206 -2.715182
v 0.08366878 1.2875859 -2.7034688
v 0.007978999 1.1781363 -2.704129
v -0.06235947 0.9646699 -1.9011711
v -0.026455866 1.199259 -1.7147137
v -0.0064824703 1.1985242 -1.814609
v -0.03800202 0.98986924 -1.9563366
v -0.2002191 0.8146321 -2.0666485
v -0.18595974 0.82779235 -2.1219547
v -0.17170037 0.8409525 -2.177261
v -0.0100224 1.0116862 -2.008868
v 0.0135179935 1.1996365 -1.8950882
v -0.10837053 1.250098 -2.9146764
v -0.017096164 1.205465 -2.9096081
v -0.033223122 1.1699502 -2.9063406
v -0.08749591 1.2670367 -2.9124892
v -0.15352215 1.2768497 -2.8992803
v -0.14613014 1.2944455 -2.8993013
v -0.13272054 1.3129681 -2.8983843
v -0.064019606 1.2905505 -2.9095843
v -0.00156229 1.2429011 -2.9102461
v -0.10665091 1.0016714 -1.5275154
v 0.0031675315 1.2198026 -1.527534
v 0.07413537 1.1406958 -1.5275383
v -0.1479735 1.0468472 -1.5275134
v -0.34030813 0.8833363 -1.5487787
v -0.37626934 0.91870695 -1.5500643
v -0.40371132 0.9627194 -1.5518963
v -0.1869468 1.0911763 -1.5275102
v -0.06780031 1.2989094 -1.5275296
v -0.1778613 1.3225611 -2.3400218
v 0.0064714467 1.2040845 -2.277234
v 0.0130041735 1.2229737 -2.2134457
v -0.168236 1.2974185 -2.374126
v -0.30313718 1.4041392 -2.3582966
v -0.29140216 1.3964764 -2.3994937
v -0.2796673 1.3888136 -2.4406908
v -0.16387321 1.2705941 -2.4090831
v 0.001697307 1.1846305 -2.3434916
v 0.07608834 1.4318799 -2.0974932
v 0.00084069243 1.1974685 -1.9902722
v 0.011175837 1.1946504 -1.8958871
v 0.06004332 1.3986263 -2.1404293
v 0.1394393 1.5757397 -2.2728808
v 0.1351189 1.5627954 -2.3133867
v 0.13061528 1.5482684 -2.3575432
v 0.039724156 1.3689407 -2.1822715
v -0.009377412 1.2020953 -2.1068513
vt 0.25458068 3.8735127
vt 0.25458068 3.9969091
vt 0.37500274 3.9969091
vt 0.37500274 3.8735127
vt 0.25458068 3.7530909
vt 0.49542475 3.9969091
vt 0.3750027 3.7530909
vt 0.49542472 3.8735127
vt 0.49542475 3.7530909
vt 0.12539756 3.0344687
vt 0.24759614 3.125
vt 0.24759611 3.0344687
vt 0.12539753 3.125
vt 0.002404213 3.0344687
vt 0.0024038553 3.125
vt 0.00240428 3.2155309
vt 0.12539755 3.2155313
vt 0.24759614 3.2155309
vt 0.25458068 3.8735127
vt 0.25458068 3.9969091
vt 0.37500274 3.9969091
vt 0.37500274 3.8735127
vt 0.25458068 3.7530909
vt 0.49542475 3.9969091
vt 0.3750027 3.7530909
vt 0.49542472 3.8735127
vt 0.49542475 3.7530909
vt 0.25458068 3.8735127
vt 0.25458068 3.9969091
vt 0.37500274 3.9969091
vt 0.37500274 3.8735127
vt 0.25458068 3.7530909
vt 0.49542475 3.9969091
vt 0.3750027 3.7530909
vt 0.49542472 3.8735127
vt 0.49542475 3.7530909
vt 0.25458068 3.8747156
vt 0.25458068 3.7542937
vt 0.37500274 3.7542937
vt 0.37500274 3.8747156
vt 0.25458068 3.9927318
vt 0.49542475 3.7542937
vt 0.3750027 3.9927318
vt 0.49542472 3.8747156
vt 0.49542475 3.9927318
vt 0.25458068 3.8758018
vt 0.25458068 3.99462
vt 0.37500274 3.99462
vt 0.37500274 3.8758018
vt 0.25458068 3.75538
vt 0.49542475 3.99462
vt 0.3750027 3.75538
vt 0.49542472 3.8758018
vt 0.49542475 3.75538
vt 0.25458068 3.8750002
vt 0.25458068 3.7545784
vt 0.37500274 3.7545784
vt 0.37500274 3.8750002
vt 0.25458068 3.9954216
vt 0.49542475 3.7545784
vt 0.3750027 3.9954216
vt 0.49542472 3.8750002
vt 0.49542475 3.9954216
vt 0.25458068 3.8735127
vt 0.25458068 3.7530909
vt 0.37500274 3.7530909
vt 0.37500274 3.8735127
vt 0.25458068 3.9969091
vt 0.49542475 3.7530909
vt 0.3750027 3.9969091
vt 0.49542472 3.8735127
vt 0.49542475 3.9969091
vt 0.25458068 3.8735127
vt 0.25458068 3.7530909
vt 0.37500274 3.7530909
vt 0.37500274 3.8735127
vt 0.25458068 3.9969091
vt 0.49542475 3.7530909
vt 0.3750027 3.9969091
vt 0.49542472 3.8735127
vt 0.49542475 3.9969091
vt 0.25458068 3.8735127
vt 0.25458068 3.7530909
vt 0.37500274 3.7530909
vt 0.37500274 3.8735127
vt 0.25458068 3.9969091
vt 0.49542475 3.7530909
vt 0.3750027 3.9969091
vt 0.49542472 3.8735127
vt 0.49542475 3.9969091
vt 0.25458068 3.8735127
vt 0.25458068 3.7530909
vt 0.37500274 3.7530909
vt 0.37500274 3.8735127
vt 0.25458068 3.9969091
vt 0.49542475 3.7530909
vt 0.3750027 3.9969091
vt 0.49542472 3.8735127
vt 0.49542475 3.9969091
vt 0.1253975 3.7844687
vt 0.24759604 3.875
vt 0.24759609 3.7844687
vt 0.1253975 3.875
vt 0.002404213 3.7844687
vt 0.0024038553 3.875
vt 0.002404213 3.9655309
vt 0.12539756 3.9655316
vt 0.24759603 3.9655309
vt 0.1253975 3.7844687
vt 0.24759604 3.875
vt 0.24759609 3.7844687
vt 0.1253975 3.875
vt 0.002404213 3.7844687
vt 0.0024038553 3.875
vt 0.002404213 3.9655309
vt 0.12539756 3.9655316
vt 0.24759603 3.9655309
vt 0.12539756 3.5344687
vt 0.24759614 3.625
vt 0.24759614 3.5344691
vt 0.12539756 3.625
vt 0.002404213 3.5344691
vt 0.0024037957 3.625
vt 0.002404213 3.7155309
vt 0.12539756 3.7155313
vt 0.24759614 3.7155309
vt 0.1253975 3.7844687
vt 0.24759604 3.875
vt 0.24759609 3.7844687
vt 0.1253975 3.875
vt 0.0024037957 3.810052
vt 0.12539756 3.9655316
vt 0.24759603 3.9655309
vt 0.0024038553 3.9404268
vt 0.12539756 3.0344687
vt 0.24759614 3.125
vt 0.24759611 3.0344687
vt 0.12539753 3.125
vt 0.002404213 3.0344687
vt 0.0024038553 3.125
vt 0.00240428 3.2155309
vt 0.12539755 3.2155313
vt 0.24759614 3.2155309
vt 0.12539753 3.2844687
vt 0.24759611 3.2844687
vt 0.24759614 3.375
vt 0.12539753 3.375
vt 0.0024042428 3.2844687
vt 0.0024038553 3.375
vt 0.0024042428 3.4655309
vt 0.12539753 3.4655313
vt 0.24759614 3.4655309
vt 0.12539756 3.0344687
vt 0.24759614 3.125
vt 0.24759611 3.0344687
vt 0.12539753 3.125
vt 0.002404213 3.0344687
vt 0.0024038553 3.125
vt 0.00240428 3.2155309
vt 0.12539755 3.2155313
vt 0.24759614 3.2155309
vt 0.12539753 3.2844687
vt 0.24759614 3.375
vt 0.24759611 3.2844687
vt 0.12539753 3.375
vt 0.0024042428 3.2844687
vt 0.0024038553 3.375
vt 0.002404213 3.4655309
vt 0.12539753 3.4655313
vt 0.24759614 3.4655309
vt 0.1253975 3.7844687
vt 0.24759604 3.875
vt 0.24759609 3.7844687
vt 0.1253975 3.875
vt 0.002404213 3.7844687
vt 0.0024038553 3.875
vt 0.002404213 3.9655309
vt 0.12539756 3.9655316
vt 0.24759603 3.9655309
vt 0.12539756 3.0344687
vt 0.24759614 3.125
vt 0.24759611 3.0344687
vt 0.12539753 3.125
vt 0.002404213 3.0344687
vt 0.0024038553 3.125
vt 0.00240428 3.2155309
vt 0.12539755 3.2155313
vt 0.24759614 3.2155309
vn 0.1699831 -0.9848588 -0.034039576
vn 0.12780493 -0.99121267 -0.034107868
vn 0.12345816 -0.99176335 -0.0341113
vn 0.16998321 -0.9848588 -0.0340396
vn 0.21185224 -0.97671324 -0.033909284
vn 0.12780517 -0.99121267 -0.03410763
vn 0.2161324 -0.9757757 -0.033892483
vn 0.16998337 -0.9848588 -0.03403952
vn 0.21185261 -0.97671324 -0.033909522
vn 0.028573101 -0.10177385 0.99439716
vn 0.04152872 -0.15309185 0.987339
vn 0.039872155 -0.14894022 0.988042
vn 0.02936936 -0.10129242 0.9944231
vn 0.017353658 -0.05427351 0.9983753
vn 0.017125191 -0.04920109 0.998642
vn 0.019181777 -0.053843744 0.9983651
vn 0.030165397 -0.10081092 0.9944482
vn 0.040930662 -0.14763191 0.98819506
vn -0.71077955 -0.7025908 -0.03403917
vn -0.7401101 -0.67162013 -0.03410739
vn -0.7430475 -0.66836876 -0.034110885
vn -0.7107796 -0.7025907 -0.034039192
vn -0.6801557 -0.73228306 -0.03390905
vn -0.7401103 -0.6716201 -0.03410739
vn -0.67693913 -0.7352582 -0.033892304
vn -0.7107797 -0.7025905 -0.034039345
vn -0.6801558 -0.7322829 -0.033909347
vn 0.39994118 0.86306715 0.30848342
vn 0.44864 0.8364686 0.31471014
vn 0.45355776 0.83359194 0.31529325
vn 0.39994118 0.86306727 0.30848345
vn 0.3499955 0.8869748 0.3012951
vn 0.44864002 0.83646876 0.31470984
vn 0.34480894 0.88927156 0.3005044
vn 0.39994127 0.86306727 0.30848324
vn 0.34999523 0.88697505 0.30129492
vn 0.80056477 -0.50535786 0.3220398
vn 0.76944816 -0.5517196 0.32179937
vn 0.76611984 -0.5563798 0.3217171
vn 0.80056477 -0.5053584 0.3220388
vn 0.82918537 -0.4574206 0.3212758
vn 0.76944834 -0.55172044 0.32179788
vn 0.83197576 -0.45242167 0.32113993
vn 0.8005648 -0.5053589 0.32203785
vn 0.82918537 -0.45742157 0.321274
vn -0.3588308 -0.8762085 0.32171264
vn -0.41007757 -0.85411376 0.3198846
vn -0.41526353 -0.8516962 0.31964022
vn -0.3588308 -0.8762086 0.32171237
vn -0.30646536 -0.8955714 0.32253793
vn -0.41007748 -0.85411394 0.31988412
vn -0.3010382 -0.8974005 0.32256526
vn -0.35883072 -0.8762088 0.3217121
vn -0.3064654 -0.8955718 0.3225371
vn -0.7305062 0.61078864 0.30544707
vn -0.76570266 0.5675316 0.30266717
vn -0.7691794 0.56299305 0.30232742
vn -0.73050666 0.61078864 0.3054461
vn -0.6930323 0.6521416 0.30727446
vn -0.7657035 0.5675315 0.30266508
vn -0.6890654 0.6562695 0.30740717
vn -0.7305072 0.6107884 0.30544516
vn -0.69303316 0.6521413 0.30727315
vn -0.73095226 0.6268232 0.26981738
vn -0.7665079 0.58382607 0.2676059
vn -0.77002126 0.57931113 0.26733097
vn -0.7309525 0.6268234 0.26981637
vn -0.69311774 0.6678662 0.27118748
vn -0.7665084 0.58382607 0.26760423
vn -0.6891135 0.6719598 0.27127945
vn -0.7309528 0.6268234 0.2698156
vn -0.69311804 0.66786635 0.271186
vn -0.61444783 -0.743721 0.2633114
vn -0.57077533 -0.7784509 0.2612081
vn -0.5661944 -0.7818771 0.2609446
vn -0.6144486 -0.7437208 0.26331002
vn -0.65620464 -0.7066723 0.26459345
vn -0.570777 -0.7784508 0.26120505
vn -0.6603741 -0.70274585 0.26467746
vn -0.61444944 -0.74372065 0.26330888
vn -0.6562061 -0.7066716 0.2645918
vn 0.77918 0.624438 -0.054366957
vn 0.74678177 0.6624132 -0.05937796
vn 0.7432337 0.6650401 -0.07297521
vn 0.7776695 0.62496316 -0.06820067
vn 0.8093626 0.5850201 -0.051804315
vn 0.7461459 0.660246 -0.085682295
vn 0.8099131 0.583132 -0.063227095
vn 0.77601016 0.6253678 -0.08199504
vn 0.80453235 0.5890802 -0.075579435
vn 0.83017635 -0.46893528 0.30150774
vn 0.8564595 -0.41968068 0.30057493
vn 0.8633953 -0.41662446 0.28455675
vn 0.83509725 -0.47124442 0.2837979
vn 0.80224514 -0.5171716 0.29822183
vn 0.86509854 -0.42374685 0.26840845
vn 0.8036385 -0.5240811 0.28196484
vn 0.83973145 -0.47339198 0.26599085
vn 0.81091577 -0.5211794 0.26605955
vn -0.66252 -0.73600274 -0.13916615
vn -0.6471559 -0.74136025 -0.1776917
vn -0.6428224 -0.74750173 -0.1673931
vn -0.6704475 -0.72757006 -0.14540213
vn -0.68281686 -0.72196746 -0.11191081
vn -0.692551 -0.71248573 -0.112858824
vn -0.6981751 -0.7058204 -0.1198717
vn -0.67827004 -0.71899956 -0.15162237
vn -0.6558317 -0.7326459 -0.18197492
vn 0.14585221 0.14782402 0.9782
vn 0.13445467 0.12565708 0.9829202
vn 0.13396534 0.1298634 0.98244023
vn 0.14848678 0.14491172 0.97823936
vn 0.1581608 0.16517101 0.9735007
vn 0.16243203 0.16408186 0.9729815
vn 0.16410652 0.1594208 0.97347516
vn 0.15111946 0.14199732 0.97826356
vn 0.13756743 0.12504819 0.98256713
vn -0.17282045 0.05951241 -0.98315376
vn -0.2586571 0.1279395 -0.95745915
vn -0.26338476 0.11101238 -0.95828223
vn -0.15733172 0.07371373 -0.98479086
vn -0.077343106 0.009893778 -0.9969555
vn -0.053794432 0.018442513 -0.99838173
vn -0.049426448 0.037203938 -0.99808466
vn -0.1417862 0.087861724 -0.9859904
vn -0.23543566 0.1349711 -0.96247226
vn -0.9209065 -0.3878365 -0.038910434
vn -0.91501474 -0.40320796 -0.0130925365
vn -0.91470784 -0.4036243 -0.019927789
vn -0.9218488 -0.3858747 -0.03599513
vn -0.92427295 -0.37909055 -0.044831473
vn -0.9226509 -0.3842537 -0.03262539
vn -0.91695803 -0.39881673 -0.011544871
vn -0.92427295 -0.37909055 -0.044831473
vn 0.035384543 0.048970472 0.99817324
vn 0.037358727 0.03174284 0.99879766
vn 0.04394888 0.03331149 0.99847823
vn 0.028776538 0.050860774 0.9982911
vn 0.025576442 0.06496647 0.99755967
vn 0.020182025 0.069954015 0.99734604
vn 0.016390992 0.07138113 0.9973144
vn 0.02216525 0.052748524 0.99836177
vn 0.029165586 0.033741202 0.999005
vn 0.84901315 -0.5116353 0.13193242
vn 0.8911303 -0.41534293 0.18269357
vn 0.891017 -0.40780795 0.19945258
vn 0.8448073 -0.5152908 0.1441387
vn 0.79459774 -0.60162795 0.08159835
vn 0.7844557 -0.6141332 0.08642658
vn 0.7864256 -0.6092048 0.10200204
vn 0.84044176 -0.5188574 0.15634792
vn 0.8834895 -0.42059666 0.20626412
vn 0.060205515 -0.08286624 0.9947404
vn 0.008888734 -0.03607608 0.99930954
vn 0.017352637 -0.032749 0.9993129
vn 0.0537555 -0.08991602 0.9944976
vn 0.101592675 -0.13394074 0.98576814
vn 0.098360196 -0.14330122 0.9847792
vn 0.08687583 -0.14278634 0.98593336
vn 0.04732209 -0.09693211 0.99416536
vn 0.008771044 -0.04942078 0.99873954
vn -0.03565174 -0.023690041 0.9990835
vn -0.017873414 -0.010788204 0.999782
vn -0.01848129 -0.012676715 0.9997489
vn -0.037404355 -0.02254852 0.9990458
vn -0.0531345 -0.03448079 0.9979919
vn -0.05691607 -0.034297325 0.99778974
vn -0.057058934 -0.03192287 0.99786025
vn -0.03915696 -0.021406898 0.9990038
vn -0.020910507 -0.011094429 0.9997198
vn 0.60239387 0.75843304 -0.24879894
vn 0.5922934 0.7500352 -0.2943395
vn 0.5896109 0.7554763 -0.28568244
vn 0.6108192 0.75010943 -0.2534477
vn 0.6158326 0.7587072 -0.21239893
vn 0.628132 0.748666 -0.21201254
vn 0.63717216 0.73884994 -0.21934547
vn 0.6191641 0.7416497 -0.25805336
vn 0.5984766 0.7446805 -0.29542622
vn 0.9218042 -0.38363278 -0.055703744
vn 0.9254654 -0.36831397 -0.08864834
vn 0.92726547 -0.36561483 -0.08065069
vn 0.9186251 -0.39024642 -0.0619335
vn 0.91486037 -0.40251133 -0.031861503
vn 0.91064185 -0.41169986 -0.03513689
vn 0.9079195 -0.41689035 -0.043411754
vn 0.9153586 -0.3968287 -0.068159044
vn 0.92243314 -0.37511784 -0.091671705
g pm0646_13_LightningB4Skin_0
f 3/3/3 2/2/2 1/1/1
f 4/4/4 3/3/3 1/1/1
f 4/4/4 1/1/1 5/5/5
f 6/6/6 3/3/3 4/4/4
f 7/7/7 4/4/4 5/5/5
f 8/8/8 6/6/6 4/4/4
f 8/8/8 4/4/4 7/7/7
f 9/9/9 8/8/8 7/7/7
f 12/12/12 11/11/11 10/10/10
f 11/11/11 13/13/13 10/10/10
f 10/10/10 13/13/13 14/14/14
f 13/13/13 15/15/15 14/14/14
f 16/16/16 15/15/15 13/13/13
f 17/17/17 16/16/16 13/13/13
f 17/17/17 13/13/13 11/11/11
f 18/18/18 17/17/17 11/11/11
f 21/21/21 20/20/20 19/19/19
f 22/22/22 21/21/21 19/19/19
f 22/22/22 19/19/19 23/23/23
f 24/24/24 21/21/21 22/22/22
f 25/25/25 22/22/22 23/23/23
f 26/26/26 24/24/24 22/22/22
f 26/26/26 22/22/22 25/25/25
f 27/27/27 26/26/26 25/25/25
f 30/30/30 29/29/29 28/28/28
f 31/31/31 30/30/30 28/28/28
f 31/31/31 28/28/28 32/32/32
f 33/33/33 30/30/30 31/31/31
f 34/34/34 31/31/31 32/32/32
f 35/35/35 33/33/33 31/31/31
f 35/35/35 31/31/31 34/34/34
f 36/36/36 35/35/35 34/34/34
f 39/39/39 38/38/38 37/37/37
f 40/40/40 39/39/39 37/37/37
f 40/40/40 37/37/37 41/41/41
f 42/42/42 39/39/39 40/40/40
f 43/43/43 40/40/40 41/41/41
f 44/44/44 42/42/42 40/40/40
f 44/44/44 40/40/40 43/43/43
f 45/45/45 44/44/44 43/43/43
f 48/48/48 47/47/47 46/46/46
f 49/49/49 48/48/48 46/46/46
f 49/49/49 46/46/46 50/50/50
f 51/51/51 48/48/48 49/49/49
f 52/52/52 49/49/49 50/50/50
f 53/53/53 51/51/51 49/49/49
f 53/53/53 49/49/49 52/52/52
f 54/54/54 53/53/53 52/52/52
f 57/57/57 56/56/56 55/55/55
f 58/58/58 57/57/57 55/55/55
f 58/58/58 55/55/55 59/59/59
f 60/60/60 57/57/57 58/58/58
f 61/61/61 58/58/58 59/59/59
f 62/62/62 60/60/60 58/58/58
f 62/62/62 58/58/58 61/61/61
f 63/63/63 62/62/62 61/61/61
f 66/66/66 65/65/65 64/64/64
f 67/67/67 66/66/66 64/64/64
f 67/67/67 64/64/64 68/68/68
f 69/69/69 66/66/66 67/67/67
f 70/70/70 67/67/67 68/68/68
f 71/71/71 69/69/69 67/67/67
f 71/71/71 67/67/67 70/70/70
f 72/72/72 71/71/71 70/70/70
f 75/75/75 74/74/74 73/73/73
f 76/76/76 75/75/75 73/73/73
f 76/76/76 73/73/73 77/77/77
f 78/78/78 75/75/75 76/76/76
f 79/79/79 76/76/76 77/77/77
f 80/80/80 78/78/78 76/76/76
f 80/80/80 76/76/76 79/79/79
f 81/81/81 80/80/80 79/79/79
f 84/84/84 83/83/83 82/82/82
f 85/85/85 84/84/84 82/82/82
f 85/85/85 82/82/82 86/86/86
f 87/87/87 84/84/84 85/85/85
f 88/88/88 85/85/85 86/86/86
f 89/89/89 87/87/87 85/85/85
f 89/89/89 85/85/85 88/88/88
f 90/90/90 89/89/89 88/88/88
f 93/93/93 92/92/92 91/91/91
f 94/94/94 93/93/93 91/91/91
f 94/94/94 91/91/91 95/95/95
f 96/96/96 93/93/93 94/94/94
f 97/97/97 94/94/94 95/95/95
f 98/98/98 96/96/96 94/94/94
f 98/98/98 94/94/94 97/97/97
f 99/99/99 98/98/98 97/97/97
f 102/102/102 101/101/101 100/100/100
f 101/101/101 103/103/103 100/100/100
f 100/100/100 103/103/103 104/104/104
f 103/103/103 105/105/105 104/104/104
f 106/106/106 105/105/105 103/103/103
f 107/107/107 106/106/106 103/103/103
f 107/107/107 103/103/103 101/101/101
f 108/108/108 107/107/107 101/101/101
f 111/111/111 110/110/110 109/109/109
f 110/110/110 112/112/112 109/109/109
f 109/109/109 112/112/112 113/113/113
f 112/112/112 114/114/114 113/113/113
f 115/115/115 114/114/114 112/112/112
f 116/116/116 115/115/115 112/112/112
f 116/116/116 112/112/112 110/110/110
f 117/117/117 116/116/116 110/110/110
f 120/120/120 119/119/119 118/118/118
f 119/119/119 121/121/121 118/118/118
f 118/118/118 121/121/121 122/122/122
f 121/121/121 123/123/123 122/122/122
f 124/124/124 123/123/123 121/121/121
f 125/125/125 124/124/124 121/121/121
f 125/125/125 121/121/121 119/119/119
f 126/126/126 125/125/125 119/119/119
f 129/129/129 128/128/128 127/127/127
f 128/128/128 130/130/130 127/127/127
f 127/127/127 130/130/130 131/131/131
f 132/132/132 130/130/130 128/128/128
f 133/133/133 132/132/132 128/128/128
f 132/132/132 134/134/134 130/130/130
f 137/137/137 136/136/136 135/135/135
f 136/136/136 138/138/138 135/135/135
f 135/135/135 138/138/138 139/139/139
f 138/138/138 140/140/140 139/139/139
f 141/141/141 140/140/140 138/138/138
f 142/142/142 141/141/141 138/138/138
f 142/142/142 138/138/138 136/136/136
f 143/143/143 142/142/142 136/136/136
f 146/146/146 145/145/145 144/144/144
f 147/147/147 146/146/146 144/144/144
f 147/147/147 144/144/144 148/148/148
f 149/149/149 147/147/147 148/148/148
f 149/149/149 150/150/150 147/147/147
f 150/150/150 151/151/151 147/147/147
f 147/147/147 151/151/151 146/146/146
f 151/151/151 152/152/152 146/146/146
f 155/155/155 154/154/154 153/153/153
f 154/154/154 156/156/156 153/153/153
f 153/153/153 156/156/156 157/157/157
f 156/156/156 158/158/158 157/157/157
f 159/159/159 158/158/158 156/156/156
f 160/160/160 159/159/159 156/156/156
f 160/160/160 156/156/156 154/154/154
f 161/161/161 160/160/160 154/154/154
f 164/164/164 163/163/163 162/162/162
f 163/163/163 165/165/165 162/162/162
f 162/162/162 165/165/165 166/166/166
f 165/165/165 167/167/167 166/166/166
f 168/168/168 167/167/167 165/165/165
f 169/169/169 168/168/168 165/165/165
f 169/169/169 165/165/165 163/163/163
f 170/170/170 169/169/169 163/163/163
f 173/173/173 172/172/172 171/171/171
f 172/172/172 174/174/174 171/171/171
f 171/171/171 174/174/174 175/175/175
f 174/174/174 176/176/176 175/175/175
f 177/177/177 176/176/176 174/174/174
f 178/178/178 177/177/177 174/174/174
f 178/178/178 174/174/174 172/172/172
f 179/179/179 178/178/178 172/172/172
f 182/182/182 181/181/181 180/180/180
f 181/181/181 183/183/183 180/180/180
f 180/180/180 183/183/183 184/184/184
f 183/183/183 185/185/185 184/184/184
f 186/186/186 185/185/185 183/183/183
f 187/187/187 186/186/186 183/183/183
f 187/187/187 183/183/183 181/181/181
f 188/188/188 187/187/187 181/181/181
