g pm0680_00_EyeA2Skin
v 0.13776001 0.49410975 0.105940655
v 0.1420164 0.5145531 0.105940655
v 0.14524978 0.5130828 0.114438385
v 0.15352067 0.5320202 0.10594066
v 0.14114206 0.49411204 0.11427352
v 0.15479103 0.5060899 0.12127925
v 0.15616693 0.52937394 0.11460139
v 0.14527887 0.4751557 0.114430904
v 0.15483949 0.48218745 0.121260524
v 0.14203644 0.47367635 0.10594066
v 0.15355065 0.4562194 0.10594066
v 0.15009202 0.4941306 0.11987136
v 0.15621048 0.4588792 0.11459017
v 0.172458 0.540291 0.114438385
v 0.17945091 0.5307498 0.12127925
v 0.1709877 0.54352444 0.105940655
v 0.19143106 0.5477808 0.105940655
v 0.1914288 0.5443987 0.11427352
v 0.16544399 0.5200969 0.12192867
v 0.17740776 0.5081332 0.12494891
v 0.172487 0.44794756 0.11443092
v 0.17951873 0.45750818 0.12126055
v 0.17100765 0.44470516 0.10594066
v 0.19144103 0.44042873 0.10594066
v 0.19144332 0.44381076 0.114273526
v 0.21038505 0.5402619 0.114430904
v 0.20335342 0.53070134 0.121260524
v 0.21186447 0.5435044 0.10594066
v 0.22932144 0.5319902 0.10594066
v 0.19141021 0.53544885 0.11987136
v 0.22666162 0.5293304 0.11459017
v 0.16553113 0.46819982 0.12189686
v 0.1774658 0.4801345 0.12493394
v 0.1913973 0.5204344 0.12398122
v 0.20540628 0.508075 0.12493394
v 0.23759319 0.5130538 0.11443092
v 0.22803263 0.50602216 0.12126055
v 0.24083568 0.51453316 0.10594066
v 0.24511209 0.4940998 0.10594066
v 0.21734095 0.5200097 0.12189686
v 0.24173005 0.4940975 0.114273526
v 0.1651064 0.49414352 0.12398122
v 0.19143608 0.4941048 0.12605947
v 0.20546444 0.48007643 0.12494891
v 0.23762229 0.4751267 0.1144384
v 0.22808109 0.4821196 0.121279255
v 0.24085571 0.47365642 0.10594066
v 0.22935149 0.45618936 0.10594066
v 0.23278011 0.49407893 0.119871385
v 0.2177657 0.494066 0.12398124
v 0.22670524 0.45883563 0.11460139
v 0.19147481 0.4677751 0.12398124
v 0.2034212 0.45745972 0.121279255
v 0.21742818 0.4681127 0.12192867
v 0.2104141 0.4479185 0.1144384
v 0.21188442 0.44468513 0.10594066
v 0.1914619 0.45276073 0.119871385
vt 0.3240447 1.7832971
vt 0.36306763 1.812921
vt 0.33659863 1.81815
vt 0.37615275 1.8476562
vt 0.3053484 1.7926555
vt 0.29749775 1.8217521
vt 0.34774876 1.8476562
vt 0.25433278 1.7770815
vt 0.24718904 1.7966819
vt 0.26474977 1.7638459
vt 0.1953125 1.757338
vt 0.28292274 1.803915
vt 0.19531226 1.771534
vt 0.33659887 1.877161
vt 0.29749823 1.87356
vt 0.36306763 1.8823886
vt 0.3240447 1.9120128
vt 0.3053484 1.9026537
vt 0.30414462 1.8476562
vt 0.25373697 1.8476562
vt 0.13629341 1.7770815
vt 0.14343596 1.7966819
vt 0.125875 1.7638459
vt 0.066578865 1.7832971
vt 0.08527613 1.7926555
vt 0.25433302 1.9182289
vt 0.24718904 1.8986278
vt 0.26475 1.9314632
vt 0.1953125 1.9379716
vt 0.2829225 1.8913953
vt 0.19531226 1.923775
vt 0.1953125 1.7934089
vt 0.1953125 1.8185673
vt 0.25032043 1.8750706
vt 0.1953125 1.8767436
vt 0.13629341 1.9182289
vt 0.14343643 1.8986292
vt 0.125875 1.9314632
vt 0.06657839 1.9120128
vt 0.1953125 1.9019008
vt 0.08527613 1.9026539
vt 0.2503209 1.8202391
vt 0.1953125 1.8476562
vt 0.1368885 1.8476562
vt 0.054024458 1.877161
vt 0.09312868 1.87356
vt 0.027557373 1.8823886
vt 0.014474392 1.8476562
vt 0.10770178 1.8913953
vt 0.14030385 1.8750706
vt 0.042877436 1.8476562
vt 0.14030385 1.8202391
vt 0.093128204 1.8217521
vt 0.08648157 1.8476562
vt 0.054024458 1.81815
vt 0.027557373 1.812921
vt 0.10770178 1.803915
vn -0.8404897 -0.00045278078 0.5418275
vn -0.77447355 0.3181492 0.54678327
vn -0.64733887 0.2577102 0.71731305
vn -0.5905947 0.5905958 0.5499041
vn -0.7110276 -0.00055649277 0.70316386
vn -0.41515082 0.13669331 0.89942473
vn -0.4864554 0.48645627 0.72575575
vn -0.64652133 -0.25827837 0.7178458
vn -0.4146889 -0.13761796 0.8994968
vn -0.77373344 -0.31856352 0.5475891
vn -0.5900703 -0.5900701 0.5510302
vn -0.5110516 -0.00066657003 0.85954976
vn -0.48592722 -0.48592678 0.726464
vn -0.2577099 0.6473396 0.7173124
vn -0.13669297 0.41515133 0.89942443
vn -0.31814873 0.77447414 0.5467826
vn 0.0004525232 0.84048927 0.541828
vn 0.0005564926 0.7110276 0.70316386
vn -0.2864553 0.28645578 0.91426826
vn -0.11617933 0.11617975 0.98640996
vn -0.25827852 -0.64652133 0.7178457
vn -0.13761812 -0.4146886 0.89949685
vn -0.31856358 -0.7737337 0.54758865
vn -0.00045265208 -0.84049016 0.5418266
vn -0.00055630034 -0.711028 0.70316356
vn 0.25827798 0.64652044 0.7178466
vn 0.13761811 0.41468897 0.8994967
vn 0.31856275 0.7737325 0.5475909
vn 0.59006894 0.5900692 0.55103266
vn 0.00066669565 0.511052 0.8595496
vn 0.48592618 0.48592648 0.72646487
vn -0.28639415 -0.28639373 0.9143068
vn -0.11650775 -0.11650738 0.9863326
vn 0.0004639633 0.2401632 0.9707324
vn 0.11650776 0.11650812 0.9863325
vn 0.64652085 0.25827834 0.71784616
vn 0.41468894 0.13761812 0.8994967
vn 0.77373254 0.31856316 0.5475906
vn 0.84048927 0.00045303808 0.5418281
vn 0.28639382 0.2863941 0.9143068
vn 0.7110277 0.0005566209 0.70316374
vn -0.24016279 -0.000463655 0.97073245
vn 1.2116477E-07 2.4232955E-07 1
vn 0.11617962 -0.1161792 0.98640996
vn 0.6473391 -0.25770983 0.7173129
vn 0.4151512 -0.13669325 0.89942443
vn 0.77447355 -0.31814846 0.54678357
vn 0.590595 -0.590595 0.54990464
vn 0.51105225 0.00066657 0.8595494
vn 0.2401632 0.0004639633 0.9707324
vn 0.48645586 -0.48645565 0.7257559
vn -0.00046377841 -0.2401625 0.97073257
vn 0.13669345 -0.41515088 0.8994246
vn 0.28645593 -0.28645542 0.9142682
vn 0.25771022 -0.64733917 0.71731263
vn 0.31814906 -0.77447414 0.5467825
vn -0.0006663191 -0.5110516 0.8595498
g pm0680_00_EyeA2Skin_0
f 3/3/3 2/2/2 1/1/1
f 4/4/4 2/2/2 3/3/3
f 5/5/5 3/3/3 1/1/1
f 6/6/6 3/3/3 5/5/5
f 7/7/7 4/4/4 3/3/3
f 7/7/7 3/3/3 6/6/6
f 5/5/5 1/1/1 8/8/8
f 5/5/5 8/8/8 9/9/9
f 1/1/1 10/10/10 8/8/8
f 8/8/8 10/10/10 11/11/11
f 12/12/12 6/6/6 5/5/5
f 12/12/12 5/5/5 9/9/9
f 12/12/12 9/9/9 6/6/6
f 13/13/13 8/8/8 11/11/11
f 9/9/9 8/8/8 13/13/13
f 7/7/7 14/14/14 4/4/4
f 15/15/15 14/14/14 7/7/7
f 14/14/14 16/16/16 4/4/4
f 17/17/17 16/16/16 14/14/14
f 18/18/18 17/17/17 14/14/14
f 18/18/18 14/14/14 15/15/15
f 19/19/19 7/7/7 6/6/6
f 19/19/19 15/15/15 7/7/7
f 19/19/19 6/6/6 20/20/20
f 19/19/19 20/20/20 15/15/15
f 13/13/13 11/11/11 21/21/21
f 13/13/13 21/21/21 22/22/22
f 11/11/11 23/23/23 21/21/21
f 21/21/21 23/23/23 24/24/24
f 25/25/25 21/21/21 24/24/24
f 22/22/22 21/21/21 25/25/25
f 18/18/18 26/26/26 17/17/17
f 27/27/27 26/26/26 18/18/18
f 26/26/26 28/28/28 17/17/17
f 29/29/29 28/28/28 26/26/26
f 30/30/30 18/18/18 15/15/15
f 30/30/30 27/27/27 18/18/18
f 30/30/30 15/15/15 27/27/27
f 31/31/31 29/29/29 26/26/26
f 31/31/31 26/26/26 27/27/27
f 32/32/32 13/13/13 22/22/22
f 32/32/32 22/22/22 33/33/33
f 32/32/32 9/9/9 13/13/13
f 32/32/32 33/33/33 9/9/9
f 15/15/15 34/34/34 27/27/27
f 27/27/27 34/34/34 35/35/35
f 20/20/20 34/34/34 15/15/15
f 35/35/35 34/34/34 20/20/20
f 31/31/31 36/36/36 29/29/29
f 37/37/37 36/36/36 31/31/31
f 36/36/36 38/38/38 29/29/29
f 39/39/39 38/38/38 36/36/36
f 40/40/40 31/31/31 27/27/27
f 40/40/40 27/27/27 35/35/35
f 40/40/40 37/37/37 31/31/31
f 40/40/40 35/35/35 37/37/37
f 41/41/41 39/39/39 36/36/36
f 41/41/41 36/36/36 37/37/37
f 33/33/33 42/42/42 9/9/9
f 20/20/20 42/42/42 33/33/33
f 9/9/9 42/42/42 6/6/6
f 6/6/6 42/42/42 20/20/20
f 43/43/43 35/35/35 20/20/20
f 43/43/43 20/20/20 33/33/33
f 43/43/43 44/44/44 35/35/35
f 43/43/43 33/33/33 44/44/44
f 41/41/41 45/45/45 39/39/39
f 46/46/46 45/45/45 41/41/41
f 45/45/45 47/47/47 39/39/39
f 48/48/48 47/47/47 45/45/45
f 49/49/49 41/41/41 37/37/37
f 49/49/49 46/46/46 41/41/41
f 49/49/49 37/37/37 46/46/46
f 35/35/35 50/50/50 37/37/37
f 44/44/44 50/50/50 35/35/35
f 37/37/37 50/50/50 46/46/46
f 46/46/46 50/50/50 44/44/44
f 51/51/51 48/48/48 45/45/45
f 51/51/51 45/45/45 46/46/46
f 33/33/33 52/52/52 44/44/44
f 44/44/44 52/52/52 53/53/53
f 22/22/22 52/52/52 33/33/33
f 53/53/53 52/52/52 22/22/22
f 54/54/54 46/46/46 44/44/44
f 54/54/54 51/51/51 46/46/46
f 54/54/54 44/44/44 53/53/53
f 54/54/54 53/53/53 51/51/51
f 51/51/51 55/55/55 48/48/48
f 53/53/53 55/55/55 51/51/51
f 55/55/55 56/56/56 48/48/48
f 24/24/24 56/56/56 55/55/55
f 25/25/25 24/24/24 55/55/55
f 25/25/25 55/55/55 53/53/53
f 57/57/57 53/53/53 22/22/22
f 57/57/57 22/22/22 25/25/25
f 57/57/57 25/25/25 53/53/53
