g pm0676_15_Eye5Skin
v -0.06599205 0.9944465 0.5242634
v -0.054003246 0.9898419 0.5461468
v -0.064830534 0.9883729 0.5504195
v -0.04342854 0.97184545 0.56332684
v -0.07547278 0.9935137 0.53000116
v -0.085198134 0.9919799 0.5116438
v -0.07724479 0.9930446 0.50640565
v -0.085978486 0.9846753 0.5348654
v -0.09260184 0.9847737 0.49896738
v -0.08505467 0.9860383 0.49316034
v -0.087718636 0.9767558 0.483837
v -0.05609329 0.97169906 0.5666205
v -0.050789833 0.9495047 0.57540876
v -0.03886554 0.9470964 0.5726872
v -0.03966478 0.9258269 0.5727889
v -0.06595178 0.96647215 0.566215
v -0.052866023 0.9282688 0.576427
v -0.04260328 0.9139316 0.5702057
v -0.07659196 0.979144 0.5525694
v -0.05849941 0.9517978 0.5724209
v -0.062369402 0.93961114 0.5718246
v -0.06618412 0.9238612 0.5669054
v -0.05574758 0.91348076 0.57331777
v -0.04549908 0.89350545 0.5797753
v -0.075707965 0.9532833 0.56271845
v -0.086973175 0.9652639 0.5498905
v -0.09291684 0.95088387 0.5412136
v -0.09563314 0.97291636 0.5318629
v -0.08033252 0.93807936 0.5559063
v -0.09270582 0.98384345 0.51887345
v -0.09783117 0.97916156 0.5127648
v -0.10169207 0.97047055 0.50542486
v -0.08011855 0.9265197 0.5480213
v -0.100072294 0.9604225 0.52409273
v -0.0989114 0.9511017 0.5149195
v -0.096882045 0.97687656 0.49003154
v -0.09119883 0.9402088 0.53150624
v -0.10080269 0.9781777 0.47207525
v -0.093625754 0.97817314 0.4686036
v -0.10402472 0.97803414 0.45911482
v -0.09957453 0.9786378 0.4556028
v -0.10457293 0.97637075 0.45598543
v -0.100803114 0.97713095 0.45309815
v -0.10469707 0.9725299 0.46920982
v -0.10371707 0.96710235 0.48504126
v -0.104470156 0.9731729 0.45634684
v -0.10024736 0.97331136 0.45270965
v -0.102467485 0.96815753 0.46385512
v -0.09642858 0.9672228 0.4607311
v -0.0981758 0.96077 0.47843212
v -0.09133826 0.9594965 0.4737309
v -0.09443569 0.9545577 0.48967028
v -0.0869416 0.9525987 0.48517853
v -0.10259356 0.96059287 0.4981258
v -0.088962294 0.94673824 0.5037648
v -0.08176065 0.9443923 0.49781498
v -0.08110338 0.9353139 0.5214365
v -0.073047295 0.9321662 0.51506674
v -0.07256042 0.92216533 0.5391909
v -0.06337765 0.9190106 0.5326821
v -0.065275244 0.910531 0.5536743
v -0.055990867 0.9079242 0.54705614
v -0.07002234 0.91384125 0.5609179
v -0.059444565 0.89999074 0.5671116
v -0.05143582 0.8971172 0.5617303
v -0.062141683 0.9031563 0.5713998
v -0.055439033 0.8928711 0.57747877
v -0.046597365 0.88955563 0.57797277
v -0.05399149 0.89396787 0.57959604
v -0.04589775 0.88986456 0.57994705
v -0.054449484 0.89676946 0.58027744
v 0.066026494 0.9944669 0.52422196
v 0.06490492 0.9883993 0.55031395
v 0.054001432 0.9898559 0.546152
v 0.04342866 0.97184616 0.56332725
v 0.075488076 0.99358696 0.5299997
v 0.08518342 0.9921694 0.51171196
v 0.077241205 0.9931043 0.50644004
v 0.085977025 0.9847271 0.5348763
v 0.092601605 0.984766 0.49897084
v 0.08503707 0.9860325 0.49320433
v 0.08771662 0.97675246 0.48383746
v 0.056093287 0.9716992 0.5666208
v 0.05078977 0.9495058 0.5754092
v 0.03886559 0.9470966 0.57268727
v 0.039668553 0.92581457 0.57278234
v 0.06595567 0.9664775 0.56620884
v 0.052867252 0.9282675 0.5764266
v 0.04260326 0.9139318 0.57020575
v 0.07659296 0.9791438 0.5525669
v 0.05849988 0.9517945 0.57242006
v 0.062372074 0.9396121 0.5718249
v 0.06618596 0.9238637 0.566906
v 0.055747554 0.91348 0.5733175
v 0.045480922 0.893562 0.57980645
v 0.07572044 0.95328784 0.5627199
v 0.08702162 0.96525496 0.54989195
v 0.09294009 0.95088553 0.54121566
v 0.09563245 0.9729192 0.5318652
v 0.08035439 0.9380863 0.5559045
v 0.09270525 0.98402005 0.518906
v 0.09783388 0.9793388 0.5127824
v 0.10168885 0.9704651 0.5054292
v 0.08012732 0.92651886 0.5480214
v 0.100070275 0.96041805 0.5240955
v 0.09890864 0.95110005 0.5149228
v 0.096898 0.9769173 0.49000308
v 0.09121043 0.94020957 0.53150773
v 0.100801535 0.97818154 0.472077
v 0.093625166 0.9781737 0.46860412
v 0.1040217 0.97804236 0.45911834
v 0.09957368 0.97866255 0.45561057
v 0.104571834 0.9763742 0.45598677
v 0.10080319 0.97713125 0.45309824
v 0.10469478 0.97253704 0.46921274
v 0.103713654 0.96710753 0.4850453
v 0.1044682 0.97317886 0.45634905
v 0.10024366 0.9733199 0.45271286
v 0.10246379 0.9681687 0.46385914
v 0.09641988 0.96724826 0.46074027
v 0.09817064 0.9607846 0.47843826
v 0.09132208 0.9595408 0.473749
v 0.09443063 0.9545711 0.48967633
v 0.08692156 0.95265365 0.48520187
v 0.10258969 0.9605929 0.4981303
v 0.08895903 0.94674504 0.50376874
v 0.08174052 0.9444437 0.49783805
v 0.08110456 0.9353169 0.5214386
v 0.07303123 0.9321922 0.5150846
v 0.07256327 0.922166 0.53919137
v 0.06336531 0.9190274 0.5326941
v 0.065277115 0.91053134 0.55367464
v 0.05601657 0.90791357 0.5470588
v 0.070024885 0.91384125 0.56091785
v 0.05944459 0.8999901 0.56711143
v 0.051436465 0.89711523 0.56172925
v 0.062141664 0.9031563 0.5713998
v 0.055439156 0.89287084 0.57747865
v 0.04659769 0.88955456 0.5779722
v 0.053991497 0.8939678 0.579596
v 0.045898028 0.88986367 0.5799466
v 0.05444869 0.8967719 0.5802788
vt 0.11047323 0.22364764
vt 0.11704136 0.2276532
vt 0.11706533 0.221327
vt 0.12379128 0.22446607
vt 0.111554 0.21739128
vt 0.10745201 0.2105827
vt 0.1057969 0.21490811
vt 0.11276044 0.20890003
vt 0.10507473 0.200148
vt 0.1030881 0.20334093
vt 0.10118814 0.19511315
vt 0.12250258 0.21813796
vt 0.1264164 0.21031132
vt 0.128855 0.21502061
vt 0.13196552 0.20434135
vt 0.1215708 0.21064787
vt 0.12918997 0.20038973
vt 0.13341999 0.19763169
vt 0.11710318 0.21131192
vt 0.1248022 0.20783946
vt 0.12568039 0.20104036
vt 0.12676412 0.19169776
vt 0.1308825 0.19182295
vt 0.13888499 0.187257
vt 0.121492 0.20102003
vt 0.11714151 0.20118622
vt 0.11717847 0.19140625
vt 0.11294243 0.19999559
vt 0.12191676 0.19155027
vt 0.10957997 0.20409119
vt 0.10868526 0.19873935
vt 0.10801063 0.19112754
vt 0.12240747 0.18356186
vt 0.11283275 0.1912741
vt 0.11251262 0.18291296
vt 0.10354556 0.19099167
vt 0.11721019 0.18299998
vt 0.09972199 0.18447989
vt 0.0982831 0.1878355
vt 0.0975151 0.18291129
vt 0.094587944 0.1825078
vt 0.096885175 0.17842433
vt 0.094631314 0.1773873
vt 0.10007538 0.17951371
vt 0.10401744 0.181674
vt 0.09777611 0.1747367
vt 0.09569238 0.17105278
vt 0.09968656 0.17492492
vt 0.09932671 0.17075059
vt 0.10385643 0.17443882
vt 0.10339457 0.16938058
vt 0.10732731 0.17374977
vt 0.1070727 0.16824122
vt 0.10773094 0.18267031
vt 0.1117343 0.17313467
vt 0.11135285 0.16711965
vt 0.11724685 0.17330521
vt 0.11727171 0.1667442
vt 0.12261572 0.17543182
vt 0.12306394 0.16830373
vt 0.12714337 0.17808314
vt 0.12768319 0.17078404
vt 0.12707877 0.1841439
vt 0.13127065 0.18087365
vt 0.13214186 0.17392518
vt 0.13115335 0.18414545
vt 0.13462062 0.18139073
vt 0.13865334 0.17901391
vt 0.13529532 0.18435562
vt 0.13922276 0.18183468
vt 0.135042 0.18725447
vt 0.11047339 0.2236478
vt 0.11706531 0.22132707
vt 0.11704135 0.22765326
vt 0.12379146 0.22446615
vt 0.11155397 0.21739128
vt 0.10745203 0.21058276
vt 0.10579693 0.214908
vt 0.11276054 0.20890021
vt 0.10507476 0.20014796
vt 0.10308826 0.20334116
vt 0.1011883 0.1951133
vt 0.12250257 0.21813795
vt 0.12641644 0.21031138
vt 0.12885505 0.21502072
vt 0.1319657 0.20434132
vt 0.12157083 0.21064794
vt 0.12919009 0.20038977
vt 0.13341993 0.19763172
vt 0.11710316 0.21131194
vt 0.12480211 0.20783955
vt 0.12568045 0.20104057
vt 0.12676418 0.19169772
vt 0.13088262 0.19182292
vt 0.13888526 0.18725733
vt 0.12149221 0.20102009
vt 0.11714143 0.20118642
vt 0.11717844 0.19140625
vt 0.11294258 0.19999579
vt 0.12191671 0.19155031
vt 0.10957992 0.20409122
vt 0.10868537 0.19873929
vt 0.10801065 0.19112763
vt 0.12240744 0.18356192
vt 0.11283278 0.1912742
vt 0.11251271 0.18291286
vt 0.10354567 0.19099173
vt 0.11721021 0.18300003
vt 0.09972209 0.18447995
vt 0.09828317 0.18783563
vt 0.09751487 0.18291138
vt 0.09458798 0.18250798
vt 0.09688544 0.17842469
vt 0.09463149 0.17738754
vt 0.10007536 0.17951375
vt 0.1040175 0.18167406
vt 0.097776115 0.1747368
vt 0.095692635 0.17105302
vt 0.0996865 0.17492497
vt 0.09932673 0.17075065
vt 0.1038565 0.17443886
vt 0.10339451 0.16938066
vt 0.10732734 0.1737498
vt 0.10707265 0.16824135
vt 0.10773098 0.18267035
vt 0.11173427 0.17313474
vt 0.1113528 0.16711971
vt 0.11724693 0.17330524
vt 0.11727172 0.16674417
vt 0.12261569 0.1754319
vt 0.12306392 0.16830379
vt 0.12714338 0.17808318
vt 0.12768316 0.17078406
vt 0.12707877 0.18414393
vt 0.13127077 0.18087375
vt 0.13214183 0.17392525
vt 0.1311534 0.18414557
vt 0.13462079 0.18139085
vt 0.1386534 0.17901409
vt 0.13529533 0.1843558
vt 0.1392228 0.18183494
vt 0.13504207 0.18725461
vn -0.24045317 0.93888867 0.24631347
vn -0.10193448 0.8211191 0.56158054
vn -0.27975333 0.73932993 0.612478
vn 0.007676347 0.56540823 0.82477546
vn -0.40678573 0.858294 0.31282064
vn -0.51749873 0.8527117 0.0712596
vn -0.3652161 0.9308898 -0.007835936
vn -0.65252525 0.6530523 0.3843612
vn -0.6476624 0.76052594 -0.046191532
vn -0.4544334 0.8803696 -0.13579275
vn -0.4936691 0.8582507 -0.14034441
vn -0.16796236 0.49943024 0.8499166
vn -0.12803704 0.24797297 0.9602686
vn 0.045065586 0.2811321 0.9586104
vn -0.00032062893 0.085769266 0.99631494
vn -0.43388182 0.3389507 0.83478075
vn -0.21368937 0.055650696 0.97531533
vn -0.10274811 -0.017522067 0.9945531
vn -0.5591808 0.5229934 0.64326864
vn -0.3404324 0.19840877 0.91909724
vn -0.47654116 0.03637781 0.8783992
vn -0.6678377 -0.18357691 0.72131306
vn -0.39974403 -0.11233879 0.90971684
vn -0.20468113 -0.14788185 0.9675932
vn -0.65211934 0.09458608 0.7521927
vn -0.78849584 0.21465145 0.5763671
vn -0.91032577 -0.14869675 0.38625947
vn -0.8612802 0.36836687 0.35000333
vn -0.81112707 -0.20186655 0.54892874
vn -0.68225163 0.7078763 0.18287618
vn -0.8272258 0.54697716 0.12850519
vn -0.9706407 0.23365307 0.057122003
vn -0.8300474 -0.52298284 0.19367555
vn -0.9760484 -0.008895215 0.21737178
vn -0.9014062 -0.43294683 -0.0048688715
vn -0.8023744 0.5921271 -0.074704885
vn -0.8567321 -0.50851285 0.08616745
vn -0.7185535 0.68827456 -0.099795446
vn -0.47321314 0.8710117 -0.13193947
vn -0.6926719 0.6934437 -0.19834706
vn -0.5700501 0.78019106 -0.25757495
vn -0.8973712 0.2582349 -0.35782635
vn -0.8035708 0.3336687 -0.49288863
vn -0.97299147 0.10399388 -0.20608953
vn -0.9865747 -0.08166897 -0.14142343
vn -0.85159695 -0.25445494 -0.458296
vn -0.77801013 -0.29560497 -0.55436265
vn -0.82066745 -0.45741117 -0.34246188
vn -0.66275424 -0.6151722 -0.42698947
vn -0.7667288 -0.58540124 -0.2635002
vn -0.5917891 -0.73424137 -0.3326787
vn -0.72176075 -0.6545831 -0.22490524
vn -0.56859416 -0.7693739 -0.29114336
vn -0.95407695 -0.28857207 -0.08039565
vn -0.6915446 -0.6956075 -0.1946699
vn -0.5679889 -0.7766504 -0.272402
vn -0.6804143 -0.7141515 -0.16438973
vn -0.57559586 -0.7738575 -0.26426116
vn -0.6878217 -0.71454585 -0.1277719
vn -0.585779 -0.76912034 -0.25557163
vn -0.7022583 -0.70954543 -0.05812521
vn -0.59658575 -0.77432716 -0.21095705
vn -0.8001201 -0.4966945 0.3363071
vn -0.6920219 -0.716071 0.091366805
vn -0.6000198 -0.7977444 -0.059832532
vn -0.70690346 -0.46382335 0.53399944
vn -0.6373167 -0.7104686 0.29843205
vn -0.569911 -0.7748409 0.27353817
vn -0.5682972 -0.45974332 0.68240345
vn -0.4384894 -0.49915123 0.7473787
vn -0.35124305 -0.15759508 0.9229259
vn 0.23776336 0.93978256 0.24551445
vn 0.27881566 0.73945796 0.61275095
vn 0.100652546 0.82133526 0.56149584
vn -0.007760231 0.5654436 0.8247505
vn 0.40506977 0.8590991 0.31283727
vn 0.5158513 0.8538258 0.06984921
vn 0.36221203 0.93204135 -0.010070338
vn 0.65207595 0.6531027 0.38503745
vn 0.64661545 0.76129013 -0.048226647
vn 0.45194224 0.8812488 -0.13837917
vn 0.49206012 0.8588961 -0.14203641
vn 0.16783138 0.49946082 0.8499243
vn 0.12810199 0.24802668 0.9602461
vn -0.044847623 0.28117213 0.95860887
vn 0.00070200517 0.085785545 0.9963134
vn 0.4336235 0.3389848 0.8349011
vn 0.21384464 0.05566236 0.9752805
vn 0.103637725 -0.017703934 0.9944575
vn 0.5586908 0.52289 0.6437785
vn 0.3403062 0.19848351 0.9191279
vn 0.47643828 0.036380287 0.878455
vn 0.6678457 -0.1836957 0.72127527
vn 0.40024734 -0.11249712 0.909476
vn 0.20609143 -0.1484977 0.96719944
vn 0.65195256 0.094518855 0.7523456
vn 0.78839403 0.21434872 0.576619
vn 0.9103398 -0.14912 0.38606325
vn 0.8614216 0.36783347 0.35021618
vn 0.81108457 -0.20211075 0.5489017
vn 0.68196326 0.7082166 0.18263462
vn 0.82743084 0.54683053 0.12780704
vn 0.9708273 0.23307358 0.056311168
vn 0.8299065 -0.52334344 0.19330488
vn 0.9761229 -0.009580893 0.21700735
vn 0.9010207 -0.433738 -0.0057454477
vn 0.80202323 0.59242225 -0.07612234
vn 0.85647297 -0.509066 0.08547437
vn 0.7185232 0.68819934 -0.100528985
vn 0.4726866 0.8711747 -0.13274834
vn 0.6931246 0.6928518 -0.19883381
vn 0.570447 0.7797159 -0.25813413
vn 0.89751154 0.25705448 -0.3583238
vn 0.8037743 0.33233598 -0.49345687
vn 0.97293675 0.10307751 -0.20680693
vn 0.98634326 -0.08259634 -0.14249453
vn 0.85092455 -0.25584713 -0.45876974
vn 0.77706873 -0.2971139 -0.55487615
vn 0.8195726 -0.4588149 -0.34320474
vn 0.6609474 -0.6165788 -0.42776066
vn 0.7652215 -0.5868474 -0.26466238
vn 0.5893945 -0.73560244 -0.3339209
vn 0.72012645 -0.6558833 -0.22635171
vn 0.56604147 -0.77061445 -0.29283172
vn 0.9536902 -0.28957242 -0.08138166
vn 0.6901184 -0.6965973 -0.1961858
vn 0.5657629 -0.77762437 -0.27424935
vn 0.67942464 -0.71479934 -0.16566223
vn 0.5740426 -0.7744707 -0.2658386
vn 0.68733174 -0.71487826 -0.12854654
vn 0.58500385 -0.76938057 -0.2565616
vn 0.70215446 -0.709626 -0.05839565
vn 0.5964174 -0.774355 -0.21133061
vn 0.80008477 -0.49685493 0.3361539
vn 0.6920848 -0.7160209 0.09128351
vn 0.6001276 -0.7976583 -0.059900798
vn 0.7070701 -0.46392587 0.53368956
vn 0.63749605 -0.7104456 0.29810375
vn 0.5702078 -0.77475417 0.27316484
vn 0.56888646 -0.4600933 0.6816762
vn 0.43947783 -0.49961886 0.7464852
vn 0.3523453 -0.1581345 0.9224133
g pm0676_15_Eye5Skin_0
f 3/3/3 2/2/2 1/1/1
f 4/4/4 2/2/2 3/3/3
f 5/5/5 3/3/3 1/1/1
f 5/5/5 1/1/1 6/6/6
f 1/1/1 7/7/7 6/6/6
f 5/5/5 8/8/8 3/3/3
f 5/5/5 6/6/6 8/8/8
f 6/6/6 7/7/7 9/9/9
f 7/7/7 10/10/10 9/9/9
f 9/9/9 10/10/10 11/11/11
f 12/12/12 4/4/4 3/3/3
f 12/12/12 13/13/13 4/4/4
f 13/13/13 14/14/14 4/4/4
f 15/15/15 14/14/14 13/13/13
f 12/12/12 3/3/3 16/16/16
f 12/12/12 16/16/16 13/13/13
f 17/17/17 15/15/15 13/13/13
f 18/18/18 15/15/15 17/17/17
f 8/8/8 19/19/19 3/3/3
f 3/3/3 19/19/19 16/16/16
f 16/16/16 20/20/20 13/13/13
f 13/13/13 20/20/20 17/17/17
f 21/21/21 20/20/20 16/16/16
f 20/20/20 21/21/21 17/17/17
f 17/17/17 21/21/21 22/22/22
f 23/23/23 18/18/18 17/17/17
f 23/23/23 17/17/17 22/22/22
f 24/24/24 18/18/18 23/23/23
f 25/25/25 21/21/21 16/16/16
f 16/16/16 19/19/19 25/25/25
f 22/22/22 21/21/21 25/25/25
f 26/26/26 19/19/19 8/8/8
f 19/19/19 26/26/26 25/25/25
f 25/25/25 26/26/26 27/27/27
f 28/28/28 26/26/26 8/8/8
f 27/27/27 26/26/26 28/28/28
f 29/29/29 22/22/22 25/25/25
f 29/29/29 25/25/25 27/27/27
f 8/8/8 30/30/30 28/28/28
f 6/6/6 30/30/30 8/8/8
f 31/31/31 30/30/30 6/6/6
f 30/30/30 31/31/31 28/28/28
f 28/28/28 31/31/31 32/32/32
f 9/9/9 31/31/31 6/6/6
f 32/32/32 31/31/31 9/9/9
f 29/29/29 33/33/33 22/22/22
f 29/29/29 27/27/27 33/33/33
f 34/34/34 28/28/28 32/32/32
f 34/34/34 27/27/27 28/28/28
f 34/34/34 35/35/35 27/27/27
f 34/34/34 32/32/32 35/35/35
f 36/36/36 32/32/32 9/9/9
f 36/36/36 9/9/9 11/11/11
f 27/27/27 37/37/37 33/33/33
f 35/35/35 37/37/37 27/27/27
f 38/38/38 36/36/36 11/11/11
f 39/39/39 38/38/38 11/11/11
f 40/40/40 38/38/38 39/39/39
f 41/41/41 40/40/40 39/39/39
f 40/40/40 41/41/41 42/42/42
f 40/40/40 42/42/42 38/38/38
f 41/41/41 43/43/43 42/42/42
f 38/38/38 44/44/44 36/36/36
f 42/42/42 44/44/44 38/38/38
f 36/36/36 45/45/45 32/32/32
f 44/44/44 45/45/45 36/36/36
f 42/42/42 43/43/43 46/46/46
f 43/43/43 47/47/47 46/46/46
f 46/46/46 48/48/48 42/42/42
f 46/46/46 47/47/47 48/48/48
f 48/48/48 44/44/44 42/42/42
f 47/47/47 49/49/49 48/48/48
f 48/48/48 50/50/50 44/44/44
f 48/48/48 49/49/49 50/50/50
f 50/50/50 45/45/45 44/44/44
f 49/49/49 51/51/51 50/50/50
f 52/52/52 50/50/50 51/51/51
f 50/50/50 52/52/52 45/45/45
f 53/53/53 52/52/52 51/51/51
f 45/45/45 54/54/54 32/32/32
f 52/52/52 54/54/54 45/45/45
f 32/32/32 54/54/54 35/35/35
f 55/55/55 52/52/52 53/53/53
f 54/54/54 52/52/52 55/55/55
f 35/35/35 54/54/54 55/55/55
f 56/56/56 55/55/55 53/53/53
f 55/55/55 57/57/57 35/35/35
f 57/57/57 55/55/55 56/56/56
f 57/57/57 37/37/37 35/35/35
f 58/58/58 57/57/57 56/56/56
f 37/37/37 57/57/57 59/59/59
f 59/59/59 57/57/57 58/58/58
f 60/60/60 59/59/59 58/58/58
f 33/33/33 37/37/37 59/59/59
f 61/61/61 59/59/59 60/60/60
f 59/59/59 61/61/61 33/33/33
f 62/62/62 61/61/61 60/60/60
f 61/61/61 63/63/63 33/33/33
f 33/33/33 63/63/63 22/22/22
f 64/64/64 61/61/61 62/62/62
f 63/63/63 61/61/61 64/64/64
f 65/65/65 64/64/64 62/62/62
f 22/22/22 63/63/63 66/66/66
f 66/66/66 63/63/63 64/64/64
f 23/23/23 22/22/22 66/66/66
f 67/67/67 64/64/64 65/65/65
f 68/68/68 67/67/67 65/65/65
f 67/67/67 69/69/69 64/64/64
f 67/67/67 68/68/68 69/69/69
f 69/69/69 66/66/66 64/64/64
f 68/68/68 70/70/70 69/69/69
f 69/69/69 70/70/70 24/24/24
f 71/71/71 23/23/23 66/66/66
f 71/71/71 24/24/24 23/23/23
f 71/71/71 69/69/69 24/24/24
f 69/69/69 71/71/71 66/66/66
f 74/74/74 73/73/73 72/72/72
f 74/74/74 75/75/75 73/73/73
f 73/73/73 76/76/76 72/72/72
f 72/72/72 76/76/76 77/77/77
f 78/78/78 72/72/72 77/77/77
f 79/79/79 76/76/76 73/73/73
f 77/77/77 76/76/76 79/79/79
f 78/78/78 77/77/77 80/80/80
f 81/81/81 78/78/78 80/80/80
f 81/81/81 80/80/80 82/82/82
f 75/75/75 83/83/83 73/73/73
f 84/84/84 83/83/83 75/75/75
f 85/85/85 84/84/84 75/75/75
f 85/85/85 86/86/86 84/84/84
f 73/73/73 83/83/83 87/87/87
f 87/87/87 83/83/83 84/84/84
f 86/86/86 88/88/88 84/84/84
f 86/86/86 89/89/89 88/88/88
f 90/90/90 79/79/79 73/73/73
f 90/90/90 73/73/73 87/87/87
f 91/91/91 87/87/87 84/84/84
f 91/91/91 84/84/84 88/88/88
f 91/91/91 92/92/92 87/87/87
f 92/92/92 91/91/91 88/88/88
f 92/92/92 88/88/88 93/93/93
f 89/89/89 94/94/94 88/88/88
f 88/88/88 94/94/94 93/93/93
f 89/89/89 95/95/95 94/94/94
f 92/92/92 96/96/96 87/87/87
f 90/90/90 87/87/87 96/96/96
f 92/92/92 93/93/93 96/96/96
f 90/90/90 97/97/97 79/79/79
f 97/97/97 90/90/90 96/96/96
f 97/97/97 96/96/96 98/98/98
f 97/97/97 99/99/99 79/79/79
f 97/97/97 98/98/98 99/99/99
f 93/93/93 100/100/100 96/96/96
f 96/96/96 100/100/100 98/98/98
f 101/101/101 79/79/79 99/99/99
f 101/101/101 77/77/77 79/79/79
f 101/101/101 102/102/102 77/77/77
f 102/102/102 101/101/101 99/99/99
f 102/102/102 99/99/99 103/103/103
f 102/102/102 80/80/80 77/77/77
f 102/102/102 103/103/103 80/80/80
f 104/104/104 100/100/100 93/93/93
f 98/98/98 100/100/100 104/104/104
f 99/99/99 105/105/105 103/103/103
f 98/98/98 105/105/105 99/99/99
f 106/106/106 105/105/105 98/98/98
f 103/103/103 105/105/105 106/106/106
f 103/103/103 107/107/107 80/80/80
f 80/80/80 107/107/107 82/82/82
f 108/108/108 98/98/98 104/104/104
f 108/108/108 106/106/106 98/98/98
f 107/107/107 109/109/109 82/82/82
f 109/109/109 110/110/110 82/82/82
f 109/109/109 111/111/111 110/110/110
f 111/111/111 112/112/112 110/110/110
f 112/112/112 111/111/111 113/113/113
f 113/113/113 111/111/111 109/109/109
f 114/114/114 112/112/112 113/113/113
f 115/115/115 109/109/109 107/107/107
f 115/115/115 113/113/113 109/109/109
f 116/116/116 107/107/107 103/103/103
f 116/116/116 115/115/115 107/107/107
f 114/114/114 113/113/113 117/117/117
f 118/118/118 114/114/114 117/117/117
f 119/119/119 117/117/117 113/113/113
f 118/118/118 117/117/117 119/119/119
f 115/115/115 119/119/119 113/113/113
f 120/120/120 118/118/118 119/119/119
f 121/121/121 119/119/119 115/115/115
f 120/120/120 119/119/119 121/121/121
f 116/116/116 121/121/121 115/115/115
f 122/122/122 120/120/120 121/121/121
f 121/121/121 123/123/123 122/122/122
f 123/123/123 121/121/121 116/116/116
f 123/123/123 124/124/124 122/122/122
f 125/125/125 116/116/116 103/103/103
f 125/125/125 123/123/123 116/116/116
f 125/125/125 103/103/103 106/106/106
f 123/123/123 126/126/126 124/124/124
f 123/123/123 125/125/125 126/126/126
f 125/125/125 106/106/106 126/126/126
f 126/126/126 127/127/127 124/124/124
f 128/128/128 126/126/126 106/106/106
f 126/126/126 128/128/128 127/127/127
f 108/108/108 128/128/128 106/106/106
f 128/128/128 129/129/129 127/127/127
f 128/128/128 108/108/108 130/130/130
f 128/128/128 130/130/130 129/129/129
f 130/130/130 131/131/131 129/129/129
f 108/108/108 104/104/104 130/130/130
f 130/130/130 132/132/132 131/131/131
f 132/132/132 130/130/130 104/104/104
f 132/132/132 133/133/133 131/131/131
f 134/134/134 132/132/132 104/104/104
f 134/134/134 104/104/104 93/93/93
f 132/132/132 135/135/135 133/133/133
f 132/132/132 134/134/134 135/135/135
f 135/135/135 136/136/136 133/133/133
f 134/134/134 93/93/93 137/137/137
f 134/134/134 137/137/137 135/135/135
f 93/93/93 94/94/94 137/137/137
f 135/135/135 138/138/138 136/136/136
f 138/138/138 139/139/139 136/136/136
f 140/140/140 138/138/138 135/135/135
f 139/139/139 138/138/138 140/140/140
f 137/137/137 140/140/140 135/135/135
f 141/141/141 139/139/139 140/140/140
f 141/141/141 140/140/140 95/95/95
f 94/94/94 142/142/142 137/137/137
f 95/95/95 142/142/142 94/94/94
f 140/140/140 142/142/142 95/95/95
f 142/142/142 140/140/140 137/137/137
