g pm0676_16_Eye5Skin
v 0.08771662 0.97675246 0.48383746
v 0.092601605 0.984766 0.49897084
v 0.08503707 0.9860325 0.49320433
v 0.077241205 0.9931043 0.50644004
v 0.08518342 0.9921694 0.51171196
v 0.066026494 0.9944669 0.52422196
v 0.096898 0.9769173 0.49000308
v 0.10168885 0.9704651 0.5054292
v 0.09783388 0.9793388 0.5127824
v 0.100801535 0.97818154 0.472077
v 0.093625166 0.9781737 0.46860412
v 0.1040217 0.97804236 0.45911834
v 0.09957368 0.97866255 0.45561057
v 0.104571834 0.9763742 0.45598677
v 0.10080319 0.97713125 0.45309824
v 0.10469478 0.97253704 0.46921274
v 0.1044682 0.97317886 0.45634905
v 0.10024366 0.9733199 0.45271286
v 0.10246379 0.9681687 0.46385914
v 0.09641988 0.96724826 0.46074027
v 0.09817064 0.9607846 0.47843826
v 0.09132208 0.9595408 0.473749
v 0.103713654 0.96710753 0.4850453
v 0.09443063 0.9545711 0.48967633
v 0.08692156 0.95265365 0.48520187
v 0.10258969 0.9605929 0.4981303
v 0.08895903 0.94674504 0.50376874
v 0.08174052 0.9444437 0.49783805
v 0.09890864 0.95110005 0.5149228
v 0.08110456 0.9353169 0.5214386
v 0.07303123 0.9321922 0.5150846
v 0.07256327 0.922166 0.53919137
v 0.06336531 0.9190274 0.5326941
v 0.09121043 0.94020957 0.53150773
v 0.09294009 0.95088553 0.54121566
v 0.100070275 0.96041805 0.5240955
v 0.09563245 0.9729192 0.5318652
v 0.065277115 0.91053134 0.55367464
v 0.05601657 0.90791357 0.5470588
v 0.08012732 0.92651886 0.5480214
v 0.05944459 0.8999901 0.56711143
v 0.051436465 0.89711523 0.56172925
v 0.09270525 0.98402005 0.518906
v 0.085977025 0.9847271 0.5348763
v 0.08702162 0.96525496 0.54989195
v 0.070024885 0.91384125 0.56091785
v 0.06618596 0.9238637 0.566906
v 0.08035439 0.9380863 0.5559045
v 0.07572044 0.95328784 0.5627199
v 0.055439156 0.89287084 0.57747865
v 0.04659769 0.88955456 0.5779722
v 0.053991497 0.8939678 0.579596
v 0.045898028 0.88986367 0.5799466
v 0.045480922 0.893562 0.57980645
v 0.062141664 0.9031563 0.5713998
v 0.05444869 0.8967719 0.5802788
v 0.055747554 0.91348 0.5733175
v 0.04260326 0.9139318 0.57020575
v 0.052867252 0.9282675 0.5764266
v 0.039668553 0.92581457 0.57278234
v 0.062372074 0.9396121 0.5718249
v 0.05078977 0.9495058 0.5754092
v 0.03886559 0.9470966 0.57268727
v 0.04342866 0.97184616 0.56332725
v 0.05849988 0.9517945 0.57242006
v 0.06595567 0.9664775 0.56620884
v 0.056093287 0.9716992 0.5666208
v 0.06490492 0.9883993 0.55031395
v 0.054001432 0.9898559 0.546152
v 0.07659296 0.9791438 0.5525669
v 0.075488076 0.99358696 0.5299997
v -0.087718636 0.9767558 0.483837
v -0.08505467 0.9860383 0.49316034
v -0.09260184 0.9847737 0.49896738
v -0.07724479 0.9930446 0.50640565
v -0.085198134 0.9919799 0.5116438
v -0.06599205 0.9944465 0.5242634
v -0.096882045 0.97687656 0.49003154
v -0.10169207 0.97047055 0.50542486
v -0.09783117 0.97916156 0.5127648
v -0.10080269 0.9781777 0.47207525
v -0.093625754 0.97817314 0.4686036
v -0.10402472 0.97803414 0.45911482
v -0.09957453 0.9786378 0.4556028
v -0.10457293 0.97637075 0.45598543
v -0.100803114 0.97713095 0.45309815
v -0.10469707 0.9725299 0.46920982
v -0.104470156 0.9731729 0.45634684
v -0.10024736 0.97331136 0.45270965
v -0.102467485 0.96815753 0.46385512
v -0.09642858 0.9672228 0.4607311
v -0.0981758 0.96077 0.47843212
v -0.09133826 0.9594965 0.4737309
v -0.10371707 0.96710235 0.48504126
v -0.09443569 0.9545577 0.48967028
v -0.0869416 0.9525987 0.48517853
v -0.10259356 0.96059287 0.4981258
v -0.088962294 0.94673824 0.5037648
v -0.08176065 0.9443923 0.49781498
v -0.0989114 0.9511017 0.5149195
v -0.08110338 0.9353139 0.5214365
v -0.073047295 0.9321662 0.51506674
v -0.07256042 0.92216533 0.5391909
v -0.06337765 0.9190106 0.5326821
v -0.09119883 0.9402088 0.53150624
v -0.09291684 0.95088387 0.5412136
v -0.100072294 0.9604225 0.52409273
v -0.09563314 0.97291636 0.5318629
v -0.065275244 0.910531 0.5536743
v -0.055990867 0.9079242 0.54705614
v -0.08011855 0.9265197 0.5480213
v -0.059444565 0.89999074 0.5671116
v -0.05143582 0.8971172 0.5617303
v -0.09270582 0.98384345 0.51887345
v -0.085978486 0.9846753 0.5348654
v -0.086973175 0.9652639 0.5498905
v -0.07002234 0.91384125 0.5609179
v -0.06618412 0.9238612 0.5669054
v -0.08033252 0.93807936 0.5559063
v -0.075707965 0.9532833 0.56271845
v -0.055439033 0.8928711 0.57747877
v -0.046597365 0.88955563 0.57797277
v -0.05399149 0.89396787 0.57959604
v -0.04589775 0.88986456 0.57994705
v -0.04549908 0.89350545 0.5797753
v -0.062141683 0.9031563 0.5713998
v -0.054449484 0.89676946 0.58027744
v -0.05574758 0.91348076 0.57331777
v -0.04260328 0.9139316 0.5702057
v -0.052866023 0.9282688 0.576427
v -0.03966478 0.9258269 0.5727889
v -0.062369402 0.93961114 0.5718246
v -0.050789833 0.9495047 0.57540876
v -0.03886554 0.9470964 0.5726872
v -0.04342854 0.97184545 0.56332684
v -0.05849941 0.9517978 0.5724209
v -0.06595178 0.96647215 0.566215
v -0.05609329 0.97169906 0.5666205
v -0.064830534 0.9883729 0.5504195
v -0.054003246 0.9898419 0.5461468
v -0.07659196 0.979144 0.5525694
v -0.07547278 0.9935137 0.53000116
vt 0.1011883 0.1951133
vt 0.10507476 0.20014796
vt 0.10308826 0.20334116
vt 0.10579693 0.214908
vt 0.10745203 0.21058276
vt 0.11047339 0.2236478
vt 0.10354567 0.19099173
vt 0.10801065 0.19112763
vt 0.10868537 0.19873929
vt 0.09972209 0.18447995
vt 0.09828317 0.18783563
vt 0.09643561 0.183522
vt 0.09349537 0.18305682
vt 0.09580326 0.17834838
vt 0.09353906 0.17715244
vt 0.10007536 0.17951375
vt 0.096697986 0.1740959
vt 0.09460497 0.16984814
vt 0.0996865 0.17492497
vt 0.09932673 0.17075065
vt 0.1038565 0.17443886
vt 0.10339451 0.16938066
vt 0.1040175 0.18167406
vt 0.10732734 0.1737498
vt 0.10707265 0.16824135
vt 0.10773098 0.18267035
vt 0.11173427 0.17313474
vt 0.1113528 0.16711971
vt 0.11251271 0.18291286
vt 0.11724693 0.17330524
vt 0.11727172 0.16674417
vt 0.12261569 0.1754319
vt 0.12306392 0.16830379
vt 0.11721021 0.18300003
vt 0.11717844 0.19140625
vt 0.11283278 0.1912742
vt 0.11294258 0.19999579
vt 0.12714338 0.17808318
vt 0.12768316 0.17078406
vt 0.12240744 0.18356192
vt 0.13127077 0.18087375
vt 0.13214183 0.17392525
vt 0.10957992 0.20409122
vt 0.11276054 0.20890021
vt 0.11714143 0.20118642
vt 0.12707877 0.18414393
vt 0.12676418 0.19169772
vt 0.12191671 0.19155031
vt 0.12149221 0.20102009
vt 0.13492781 0.17984131
vt 0.13956791 0.17575848
vt 0.13570392 0.18493448
vt 0.14022309 0.18060417
vt 0.13983464 0.18991879
vt 0.1311534 0.18414557
vt 0.13541251 0.1899141
vt 0.13088262 0.19182292
vt 0.13341993 0.19763172
vt 0.12919009 0.20038977
vt 0.1319657 0.20434132
vt 0.12568045 0.20104057
vt 0.12641644 0.21031138
vt 0.12885505 0.21502072
vt 0.12379146 0.22446615
vt 0.12480211 0.20783955
vt 0.12157083 0.21064794
vt 0.12250257 0.21813795
vt 0.11706531 0.22132707
vt 0.11704135 0.22765326
vt 0.11710316 0.21131194
vt 0.11155397 0.21739128
vt 0.10118814 0.19511315
vt 0.1030881 0.20334093
vt 0.10507473 0.200148
vt 0.1057969 0.21490811
vt 0.10745201 0.2105827
vt 0.11047323 0.22364764
vt 0.10354556 0.19099167
vt 0.10801063 0.19112754
vt 0.10868526 0.19873935
vt 0.09972199 0.18447989
vt 0.0982831 0.1878355
vt 0.09643575 0.18352187
vt 0.09349529 0.18305661
vt 0.09580297 0.17834798
vt 0.09353886 0.17715216
vt 0.10007538 0.17951371
vt 0.09669795 0.17409576
vt 0.09460475 0.16984788
vt 0.09968656 0.17492492
vt 0.09932671 0.17075059
vt 0.10385643 0.17443882
vt 0.10339457 0.16938058
vt 0.10401744 0.181674
vt 0.10732731 0.17374977
vt 0.1070727 0.16824122
vt 0.10773094 0.18267031
vt 0.1117343 0.17313467
vt 0.11135285 0.16711965
vt 0.11251262 0.18291296
vt 0.11724685 0.17330521
vt 0.11727171 0.1667442
vt 0.12261572 0.17543182
vt 0.12306394 0.16830373
vt 0.11721019 0.18299998
vt 0.11717847 0.19140625
vt 0.11283275 0.1912741
vt 0.11294243 0.19999559
vt 0.12714337 0.17808314
vt 0.12768319 0.17078404
vt 0.12240747 0.18356186
vt 0.13127065 0.18087365
vt 0.13214186 0.17392518
vt 0.10957997 0.20409119
vt 0.11276044 0.20890003
vt 0.11714151 0.20118622
vt 0.12707877 0.1841439
vt 0.12676412 0.19169776
vt 0.12191676 0.19155027
vt 0.121492 0.20102003
vt 0.1349276 0.17984109
vt 0.13956785 0.17575815
vt 0.13570394 0.1849342
vt 0.14022304 0.18060373
vt 0.13983439 0.18991823
vt 0.13115335 0.18414545
vt 0.13541247 0.18991388
vt 0.1308825 0.19182295
vt 0.13341999 0.19763169
vt 0.12918997 0.20038973
vt 0.13196552 0.20434135
vt 0.12568039 0.20104036
vt 0.1264164 0.21031132
vt 0.128855 0.21502061
vt 0.12379128 0.22446607
vt 0.1248022 0.20783946
vt 0.1215708 0.21064787
vt 0.12250258 0.21813796
vt 0.11706533 0.221327
vt 0.11704136 0.2276532
vt 0.11710318 0.21131192
vt 0.111554 0.21739128
vn 0.5792722 0.8059587 -0.12196045
vn 0.66701245 0.74504244 -0.00247728
vn 0.5082998 0.85830694 -0.070289016
vn 0.41473353 0.90803266 0.058930185
vn 0.5404537 0.8333549 0.115884945
vn 0.30449766 0.9054908 0.29558
vn 0.828578 0.5538433 -0.08195246
vn 0.9714849 0.23060353 0.055128712
vn 0.82374805 0.5483405 0.14408976
vn 0.7736514 0.613225 -0.15943195
vn 0.5923934 0.78854907 -0.16510718
vn 0.7557686 0.6080571 -0.24306457
vn 0.67542434 0.68393165 -0.27575248
vn 0.9007188 0.23576444 -0.36485717
vn 0.84583575 0.29084092 -0.44718403
vn 0.959568 0.10727323 -0.2602337
vn 0.87706214 -0.18963274 -0.44136328
vn 0.833207 -0.2310928 -0.5023567
vn 0.8538331 -0.3762996 -0.35967702
vn 0.7403574 -0.5280884 -0.41592503
vn 0.80681485 -0.52165717 -0.27735096
vn 0.6674337 -0.6672503 -0.33061963
vn 0.98220575 -0.06576952 -0.17591567
vn 0.76143473 -0.61020154 -0.21879457
vn 0.6293657 -0.72497785 -0.2798317
vn 0.95944333 -0.2679842 -0.087481715
vn 0.7296342 -0.6613734 -0.17383692
vn 0.6151688 -0.7473425 -0.25109094
vn 0.91378754 -0.4061816 0.0029501908
vn 0.7142109 -0.6876974 -0.13028814
vn 0.61498094 -0.75431615 -0.22979479
vn 0.7130868 -0.6969879 -0.07559834
vn 0.62304467 -0.7563728 -0.19928743
vn 0.8693655 -0.48355454 0.101874955
vn 0.91435724 -0.13603623 0.38137233
vn 0.9769295 0.0028627827 0.21354304
vn 0.8585683 0.37637168 0.34814498
vn 0.7134739 -0.7004868 0.016533773
vn 0.63316816 -0.7635353 -0.12693265
vn 0.83155245 -0.51153487 0.21645437
vn 0.69000965 -0.7023567 0.1748762
vn 0.6333293 -0.7729942 0.037069883
vn 0.68266815 0.7025299 0.20103715
vn 0.65788543 0.6443976 0.38979295
vn 0.7917561 0.22293605 0.56870204
vn 0.7810503 -0.5068226 0.3648168
vn 0.6652796 -0.20151347 0.7188849
vn 0.8127184 -0.20005651 0.54723495
vn 0.6565309 0.103572085 0.7471546
vn 0.6394376 -0.6824785 0.35403764
vn 0.6011195 -0.72843564 0.3286895
vn 0.5695672 -0.48334756 0.6648071
vn 0.48706126 -0.5033359 0.71373975
vn 0.29826546 -0.21591607 0.92974085
vn 0.67884207 -0.48742923 0.54916865
vn 0.4011327 -0.23634651 0.8850044
vn 0.4305206 -0.15601473 0.8889947
vn 0.19838816 -0.05476115 0.9785926
vn 0.25999528 0.06778441 0.96322775
vn 0.09295506 0.10346197 0.99028033
vn 0.4843875 0.046446193 0.8736198
vn 0.18042006 0.2633639 0.9476751
vn 0.04470651 0.3009634 0.95258725
vn 0.079465516 0.5540552 0.8286785
vn 0.35654467 0.21173167 0.90997005
vn 0.44988567 0.34033084 0.8256983
vn 0.22250636 0.48888054 0.84349674
vn 0.32889995 0.7093487 0.62341744
vn 0.18056339 0.78786534 0.58878267
vn 0.57228464 0.5140993 0.6388992
vn 0.44346535 0.8285112 0.34191766
vn -0.58046544 0.8053494 -0.12030052
vn -0.510199 0.8573464 -0.068220705
vn -0.6679188 0.7442337 -0.0008519696
vn -0.41703513 0.9068675 0.060605742
vn -0.5418438 0.83229506 0.11700506
vn -0.3066259 0.90455455 0.29624584
vn -0.8288713 0.55361557 -0.08051151
vn -0.97132236 0.23107125 0.056026183
vn -0.8237064 0.54822356 0.14477126
vn -0.77372473 0.6133789 -0.15848175
vn -0.5928271 0.78843737 -0.16408105
vn -0.7555239 0.6086267 -0.24239847
vn -0.6752508 0.6843972 -0.2750216
vn -0.9006968 0.23688689 -0.36418405
vn -0.8458005 0.2920407 -0.44646817
vn -0.9597163 0.10823682 -0.25928634
vn -0.8777022 -0.18820661 -0.44070074
vn -0.83405083 -0.22957392 -0.5016523
vn -0.8548501 -0.37485853 -0.3587652
vn -0.74191636 -0.52661484 -0.41501436
vn -0.8081818 -0.5202054 -0.2760953
vn -0.66944987 -0.665852 -0.32935992
vn -0.9825001 -0.06478158 -0.17463376
vn -0.7628921 -0.6088919 -0.21736203
vn -0.6314813 -0.7237344 -0.27828032
vn -0.9598465 -0.26691008 -0.08633498
vn -0.73090565 -0.66034067 -0.17241526
vn -0.6170198 -0.7463599 -0.24946643
vn -0.91418695 -0.405274 0.003889505
vn -0.71511 -0.68698615 -0.12910342
vn -0.61630934 -0.75365496 -0.2284007
vn -0.71356505 -0.69658095 -0.07483182
vn -0.6237724 -0.7560182 -0.19835433
vn -0.8696455 -0.48290256 0.102576
vn -0.9143528 -0.13556372 0.3815514
vn -0.97683674 0.0035155055 0.21395697
vn -0.8584686 0.37666395 0.34807476
vn -0.7136165 -0.7003328 0.016894719
vn -0.6334056 -0.7634139 -0.12647751
vn -0.8316951 -0.511129 0.21686491
vn -0.6899491 -0.70236087 0.17509834
vn -0.633277 -0.77302635 0.03728994
vn -0.6830885 0.7020118 0.2014191
vn -0.6583252 0.64414454 0.38946852
vn -0.79184914 0.2232085 0.56846553
vn -0.78106743 -0.5066303 0.36504716
vn -0.6652292 -0.20136705 0.7189725
vn -0.8127478 -0.19978726 0.54728967
vn -0.6566722 0.103684165 0.7470148
vn -0.6392072 -0.68248653 0.35443792
vn -0.6008244 -0.7284844 0.32912087
vn -0.5690177 -0.4831035 0.6654545
vn -0.4862594 -0.5030292 0.7145022
vn -0.29715574 -0.21543512 0.93020755
vn -0.6786361 -0.48731184 0.5495274
vn -0.40023986 -0.23592646 0.8855206
vn -0.4300419 -0.15581639 0.88926107
vn -0.19760127 -0.054522417 0.9787651
vn -0.25978893 0.06781326 0.9632814
vn -0.092553996 0.10350018 0.9903138
vn -0.48443267 0.046476815 0.87359303
vn -0.18040162 0.26332688 0.94768894
vn -0.044589166 0.30092707 0.9526041
vn -0.07982703 0.5539781 0.82869536
vn -0.3566569 0.21169974 0.9099335
vn -0.45016086 0.34034175 0.8255439
vn -0.22281963 0.48883936 0.8434379
vn -0.32984576 0.70910513 0.62319475
vn -0.18185307 0.78751415 0.58885556
vn -0.5727461 0.5141119 0.6384753
vn -0.4448764 0.8277003 0.3420484
g pm0676_16_Eye5Skin_0
f 3/3/3 2/2/2 1/1/1
f 3/3/3 4/4/4 2/2/2
f 4/4/4 5/5/5 2/2/2
f 4/4/4 6/6/6 5/5/5
f 2/2/2 7/7/7 1/1/1
f 8/8/8 7/7/7 2/2/2
f 9/9/9 2/2/2 5/5/5
f 9/9/9 8/8/8 2/2/2
f 7/7/7 10/10/10 1/1/1
f 10/10/10 11/11/11 1/1/1
f 10/10/10 12/12/12 11/11/11
f 12/12/12 13/13/13 11/11/11
f 13/13/13 12/12/12 14/14/14
f 14/14/14 12/12/12 10/10/10
f 15/15/15 13/13/13 14/14/14
f 16/16/16 10/10/10 7/7/7
f 16/16/16 14/14/14 10/10/10
f 15/15/15 14/14/14 17/17/17
f 18/18/18 15/15/15 17/17/17
f 19/19/19 17/17/17 14/14/14
f 18/18/18 17/17/17 19/19/19
f 16/16/16 19/19/19 14/14/14
f 20/20/20 18/18/18 19/19/19
f 20/20/20 19/19/19 21/21/21
f 21/21/21 19/19/19 16/16/16
f 22/22/22 20/20/20 21/21/21
f 23/23/23 16/16/16 7/7/7
f 23/23/23 21/21/21 16/16/16
f 23/23/23 7/7/7 8/8/8
f 21/21/21 24/24/24 22/22/22
f 24/24/24 21/21/21 23/23/23
f 24/24/24 25/25/25 22/22/22
f 26/26/26 24/24/24 23/23/23
f 26/26/26 23/23/23 8/8/8
f 24/24/24 27/27/27 25/25/25
f 24/24/24 26/26/26 27/27/27
f 27/27/27 28/28/28 25/25/25
f 26/26/26 29/29/29 27/27/27
f 26/26/26 8/8/8 29/29/29
f 27/27/27 30/30/30 28/28/28
f 30/30/30 27/27/27 29/29/29
f 30/30/30 31/31/31 28/28/28
f 30/30/30 32/32/32 31/31/31
f 32/32/32 33/33/33 31/31/31
f 34/34/34 30/30/30 29/29/29
f 30/30/30 34/34/34 32/32/32
f 34/34/34 29/29/29 35/35/35
f 8/8/8 36/36/36 29/29/29
f 29/29/29 36/36/36 35/35/35
f 37/37/37 36/36/36 8/8/8
f 35/35/35 36/36/36 37/37/37
f 9/9/9 37/37/37 8/8/8
f 32/32/32 38/38/38 33/33/33
f 38/38/38 39/39/39 33/33/33
f 34/34/34 40/40/40 32/32/32
f 34/34/34 35/35/35 40/40/40
f 38/38/38 32/32/32 40/40/40
f 38/38/38 41/41/41 39/39/39
f 41/41/41 42/42/42 39/39/39
f 9/9/9 43/43/43 37/37/37
f 43/43/43 9/9/9 5/5/5
f 43/43/43 44/44/44 37/37/37
f 43/43/43 5/5/5 44/44/44
f 45/45/45 35/35/35 37/37/37
f 45/45/45 37/37/37 44/44/44
f 46/46/46 38/38/38 40/40/40
f 38/38/38 46/46/46 41/41/41
f 46/46/46 40/40/40 47/47/47
f 35/35/35 48/48/48 40/40/40
f 40/40/40 48/48/48 47/47/47
f 49/49/49 48/48/48 35/35/35
f 45/45/45 49/49/49 35/35/35
f 47/47/47 48/48/48 49/49/49
f 41/41/41 50/50/50 42/42/42
f 50/50/50 51/51/51 42/42/42
f 51/51/51 50/50/50 52/52/52
f 52/52/52 50/50/50 41/41/41
f 53/53/53 51/51/51 52/52/52
f 53/53/53 52/52/52 54/54/54
f 46/46/46 55/55/55 41/41/41
f 55/55/55 52/52/52 41/41/41
f 46/46/46 47/47/47 55/55/55
f 52/52/52 56/56/56 54/54/54
f 56/56/56 52/52/52 55/55/55
f 54/54/54 56/56/56 57/57/57
f 57/57/57 56/56/56 55/55/55
f 47/47/47 57/57/57 55/55/55
f 58/58/58 54/54/54 57/57/57
f 58/58/58 57/57/57 59/59/59
f 59/59/59 57/57/57 47/47/47
f 60/60/60 58/58/58 59/59/59
f 61/61/61 59/59/59 47/47/47
f 61/61/61 47/47/47 49/49/49
f 60/60/60 59/59/59 62/62/62
f 63/63/63 60/60/60 62/62/62
f 63/63/63 62/62/62 64/64/64
f 61/61/61 65/65/65 59/59/59
f 65/65/65 62/62/62 59/59/59
f 65/65/65 61/61/61 66/66/66
f 61/61/61 49/49/49 66/66/66
f 65/65/65 66/66/66 62/62/62
f 62/62/62 67/67/67 64/64/64
f 66/66/66 67/67/67 62/62/62
f 64/64/64 67/67/67 68/68/68
f 68/68/68 67/67/67 66/66/66
f 69/69/69 64/64/64 68/68/68
f 69/69/69 68/68/68 6/6/6
f 70/70/70 66/66/66 49/49/49
f 70/70/70 68/68/68 66/66/66
f 45/45/45 70/70/70 49/49/49
f 70/70/70 45/45/45 44/44/44
f 70/70/70 44/44/44 68/68/68
f 68/68/68 71/71/71 6/6/6
f 44/44/44 71/71/71 68/68/68
f 6/6/6 71/71/71 5/5/5
f 5/5/5 71/71/71 44/44/44
f 74/74/74 73/73/73 72/72/72
f 75/75/75 73/73/73 74/74/74
f 76/76/76 75/75/75 74/74/74
f 77/77/77 75/75/75 76/76/76
f 78/78/78 74/74/74 72/72/72
f 78/78/78 79/79/79 74/74/74
f 74/74/74 80/80/80 76/76/76
f 79/79/79 80/80/80 74/74/74
f 81/81/81 78/78/78 72/72/72
f 82/82/82 81/81/81 72/72/72
f 83/83/83 81/81/81 82/82/82
f 84/84/84 83/83/83 82/82/82
f 83/83/83 84/84/84 85/85/85
f 83/83/83 85/85/85 81/81/81
f 84/84/84 86/86/86 85/85/85
f 81/81/81 87/87/87 78/78/78
f 85/85/85 87/87/87 81/81/81
f 85/85/85 86/86/86 88/88/88
f 86/86/86 89/89/89 88/88/88
f 88/88/88 90/90/90 85/85/85
f 88/88/88 89/89/89 90/90/90
f 90/90/90 87/87/87 85/85/85
f 89/89/89 91/91/91 90/90/90
f 90/90/90 91/91/91 92/92/92
f 90/90/90 92/92/92 87/87/87
f 91/91/91 93/93/93 92/92/92
f 87/87/87 94/94/94 78/78/78
f 92/92/92 94/94/94 87/87/87
f 78/78/78 94/94/94 79/79/79
f 95/95/95 92/92/92 93/93/93
f 92/92/92 95/95/95 94/94/94
f 96/96/96 95/95/95 93/93/93
f 95/95/95 97/97/97 94/94/94
f 94/94/94 97/97/97 79/79/79
f 98/98/98 95/95/95 96/96/96
f 97/97/97 95/95/95 98/98/98
f 99/99/99 98/98/98 96/96/96
f 100/100/100 97/97/97 98/98/98
f 79/79/79 97/97/97 100/100/100
f 101/101/101 98/98/98 99/99/99
f 98/98/98 101/101/101 100/100/100
f 102/102/102 101/101/101 99/99/99
f 103/103/103 101/101/101 102/102/102
f 104/104/104 103/103/103 102/102/102
f 101/101/101 105/105/105 100/100/100
f 105/105/105 101/101/101 103/103/103
f 100/100/100 105/105/105 106/106/106
f 107/107/107 79/79/79 100/100/100
f 107/107/107 100/100/100 106/106/106
f 107/107/107 108/108/108 79/79/79
f 107/107/107 106/106/106 108/108/108
f 108/108/108 80/80/80 79/79/79
f 109/109/109 103/103/103 104/104/104
f 110/110/110 109/109/109 104/104/104
f 111/111/111 105/105/105 103/103/103
f 106/106/106 105/105/105 111/111/111
f 103/103/103 109/109/109 111/111/111
f 112/112/112 109/109/109 110/110/110
f 113/113/113 112/112/112 110/110/110
f 114/114/114 80/80/80 108/108/108
f 80/80/80 114/114/114 76/76/76
f 115/115/115 114/114/114 108/108/108
f 76/76/76 114/114/114 115/115/115
f 106/106/106 116/116/116 108/108/108
f 108/108/108 116/116/116 115/115/115
f 109/109/109 117/117/117 111/111/111
f 117/117/117 109/109/109 112/112/112
f 111/111/111 117/117/117 118/118/118
f 119/119/119 106/106/106 111/111/111
f 119/119/119 111/111/111 118/118/118
f 119/119/119 120/120/120 106/106/106
f 120/120/120 116/116/116 106/106/106
f 119/119/119 118/118/118 120/120/120
f 121/121/121 112/112/112 113/113/113
f 122/122/122 121/121/121 113/113/113
f 121/121/121 122/122/122 123/123/123
f 121/121/121 123/123/123 112/112/112
f 122/122/122 124/124/124 123/123/123
f 123/123/123 124/124/124 125/125/125
f 126/126/126 117/117/117 112/112/112
f 123/123/123 126/126/126 112/112/112
f 118/118/118 117/117/117 126/126/126
f 127/127/127 123/123/123 125/125/125
f 123/123/123 127/127/127 126/126/126
f 127/127/127 125/125/125 128/128/128
f 127/127/127 128/128/128 126/126/126
f 128/128/128 118/118/118 126/126/126
f 125/125/125 129/129/129 128/128/128
f 128/128/128 129/129/129 130/130/130
f 128/128/128 130/130/130 118/118/118
f 129/129/129 131/131/131 130/130/130
f 130/130/130 132/132/132 118/118/118
f 118/118/118 132/132/132 120/120/120
f 130/130/130 131/131/131 133/133/133
f 131/131/131 134/134/134 133/133/133
f 133/133/133 134/134/134 135/135/135
f 136/136/136 132/132/132 130/130/130
f 133/133/133 136/136/136 130/130/130
f 132/132/132 136/136/136 137/137/137
f 120/120/120 132/132/132 137/137/137
f 137/137/137 136/136/136 133/133/133
f 138/138/138 133/133/133 135/135/135
f 138/138/138 137/137/137 133/133/133
f 138/138/138 135/135/135 139/139/139
f 138/138/138 139/139/139 137/137/137
f 135/135/135 140/140/140 139/139/139
f 139/139/139 140/140/140 77/77/77
f 137/137/137 141/141/141 120/120/120
f 139/139/139 141/141/141 137/137/137
f 141/141/141 116/116/116 120/120/120
f 116/116/116 141/141/141 115/115/115
f 115/115/115 141/141/141 139/139/139
f 142/142/142 139/139/139 77/77/77
f 142/142/142 115/115/115 139/139/139
f 142/142/142 77/77/77 76/76/76
f 142/142/142 76/76/76 115/115/115
