g pm0662_00_CloseBeakSkin
v 1.1583815E-31 0.3503257 0.2684249
v 1.1585344E-31 0.35131893 0.26937136
v 0.0024506983 0.35185426 0.2680286
v 0.002169284 0.35092682 0.2679352
v 0.0072741294 0.3536538 0.2507046
v 1.1585323E-31 0.3513046 0.25085777
v 1.158481E-31 0.3509718 0.23558122
v 0.009123748 0.35606384 0.25062338
v 0.009768505 0.3571839 0.2505846
v 0.015329289 0.36060715 0.23555024
v 0.011480766 0.35470614 0.23554462
v 1.1583124E-31 0.34987748 0.21852691
v 0.014701616 0.35846412 0.23563433
v 0.015224621 0.35469225 0.21850885
v 1.1581323E-31 0.34870842 0.20063315
v 0.020948226 0.36002198 0.21849906
v 0.021749368 0.36299604 0.21848927
v 0.018730717 0.35383403 0.20074116
v 1.157857E-31 0.34692153 0.18234651
v 0.027517695 0.3607793 0.2008232
v 0.028471796 0.3647405 0.20085111
v 0.03507872 0.3656469 0.18287113
v 0.03405126 0.36100885 0.18281224
v 0.041460637 0.36603844 0.1623368
v 0.04168117 0.35939232 0.16136926
v 0.035524856 0.3558489 0.16384144
v 0.021348631 0.35221392 0.18258834
v 1.1577125E-31 0.34598458 0.17598578
v 0.022877097 0.35047525 0.17125916
v 0.040737636 0.37373152 0.16347736
v 0.041460637 0.36603844 0.1623368
v 0.03507872 0.3656469 0.18287113
v 0.033976097 0.36941957 0.18287762
v 0.035722714 0.37500966 0.16652845
v 0.028471796 0.3647405 0.20085111
v 0.022225473 0.3779707 0.18333083
v 0.023289442 0.3797278 0.17398554
v 0.02741801 0.36774653 0.20078436
v 1.1636147E-31 0.3842914 0.1835919
v 1.1638132E-31 0.38557974 0.1779546
v 1.1630663E-31 0.38073197 0.20076728
v 0.018958421 0.37490788 0.20073383
v 1.1623629E-31 0.37616763 0.21834798
v 0.015090224 0.3709584 0.21836439
v 1.1614655E-31 0.37034282 0.23533392
v 0.020945871 0.365319 0.21837306
v 0.021749368 0.36299604 0.21848927
v 0.011131487 0.366305 0.23540851
v 1.1604753E-31 0.3639148 0.25033543
v 0.014713049 0.36178488 0.23558764
v 0.015329289 0.36060715 0.23555024
v 0.009768505 0.3571839 0.2505846
v 0.00728559 0.36054775 0.25045604
v 1.1587869E-31 0.35295707 0.26872128
v 0.009461985 0.3579925 0.25063378
v 0.0021739544 0.35275424 0.26811916
v 1.1585344E-31 0.35131893 0.26937136
v 0.0024506983 0.35185426 0.2680286
v 1.1583815E-31 0.3503257 0.2684249
v -0.0024506983 0.35185426 0.2680286
v 1.1585344E-31 0.35131893 0.26937136
v -0.002169284 0.35092682 0.2679352
v -0.0072741294 0.3536538 0.2507046
v 1.1585323E-31 0.3513046 0.25085777
v 1.158481E-31 0.3509718 0.23558122
v -0.009123748 0.35606384 0.25062338
v -0.009768505 0.3571839 0.2505846
v -0.015329289 0.36060715 0.23555024
v -0.011480766 0.35470614 0.23554462
v 1.1583124E-31 0.34987748 0.21852691
v -0.014701616 0.35846412 0.23563433
v -0.015224621 0.35469225 0.21850885
v 1.1581323E-31 0.34870842 0.20063315
v -0.020948226 0.36002198 0.21849906
v -0.021749368 0.36299604 0.21848927
v -0.018730717 0.35383403 0.20074116
v 1.157857E-31 0.34692153 0.18234651
v -0.027517695 0.3607793 0.2008232
v -0.028471796 0.3647405 0.20085111
v -0.03507872 0.3656469 0.18287113
v -0.03405126 0.36100885 0.18281224
v -0.041460637 0.36603844 0.1623368
v -0.04168117 0.35939232 0.16136926
v -0.035524856 0.3558489 0.16384144
v -0.021348631 0.35221392 0.18258834
v 1.1577125E-31 0.34598458 0.17598578
v -0.022877097 0.35047525 0.17125916
v -0.040737636 0.37373152 0.16347736
v -0.03507872 0.3656469 0.18287113
v -0.041460637 0.36603844 0.1623368
v -0.033976097 0.36941957 0.18287762
v -0.035722714 0.37500966 0.16652845
v -0.028471796 0.3647405 0.20085111
v -0.022225473 0.3779707 0.18333083
v -0.023289442 0.3797278 0.17398554
v -0.02741801 0.36774653 0.20078436
v 1.1636147E-31 0.3842914 0.1835919
v 1.1638132E-31 0.38557974 0.1779546
v 1.1630663E-31 0.38073197 0.20076728
v -0.018958421 0.37490788 0.20073383
v 1.1623629E-31 0.37616763 0.21834798
v -0.015090224 0.3709584 0.21836439
v 1.1614655E-31 0.37034282 0.23533392
v -0.020945871 0.365319 0.21837306
v -0.021749368 0.36299604 0.21848927
v -0.011131487 0.366305 0.23540851
v 1.1604753E-31 0.3639148 0.25033543
v -0.014713049 0.36178488 0.23558764
v -0.015329289 0.36060715 0.23555024
v -0.009768505 0.3571839 0.2505846
v -0.00728559 0.36054775 0.25045604
v 1.1587869E-31 0.35295707 0.26872128
v -0.009461985 0.3579925 0.25063378
v -0.0021739544 0.35275424 0.26811916
v 1.1585344E-31 0.35131893 0.26937136
v -0.0024506983 0.35185426 0.2680286
vt 0.84298927 0.5
vt 0.8527393 0.500541
vt 0.8484955 0.509737
vt 0.8428787 0.5032172
vt 0.8252603 0.51197433
vt 0.8251515 0.5
vt 0.80919707 0.5
vt 0.8254849 0.51669824
vt 0.8255779 0.5186976
vt 0.8107069 0.530011
vt 0.8095474 0.5189587
vt 0.7914063 0.5
vt 0.81023663 0.5266094
vt 0.7919449 0.52529716
vt 0.77265304 0.5
vt 0.7928336 0.53762
vt 0.7936944 0.5423302
vt 0.773436 0.53097355
vt 0.7532205 0.5
vt 0.77444 0.5489132
vt 0.77551955 0.55528224
vt 0.75592065 0.56635815
vt 0.755291 0.5590898
vt 0.73525697 0.5772059
vt 0.7321335 0.5680261
vt 0.7346134 0.55709827
vt 0.7544247 0.53469443
vt 0.7463676 0.5
vt 0.74237716 0.5363182
vt 0.6736072 0.33391953
vt 0.67556 0.32214022
vt 0.69622374 0.3360399
vt 0.6949394 0.34202802
vt 0.67672896 0.34198588
vt 0.7158227 0.34896886
vt 0.6930516 0.36525178
vt 0.6835108 0.36313593
vt 0.714157 0.3537591
vt 0.6910572 0.4023435
vt 0.6846918 0.40234345
vt 0.70993114 0.4023438
vt 0.71152115 0.37119132
vt 0.7287499 0.40234375
vt 0.7301743 0.3779956
vt 0.74670017 0.40234375
vt 0.7325474 0.36575645
vt 0.73399746 0.36233133
vt 0.7479557 0.38483202
vt 0.76251125 0.4023437
vt 0.75034404 0.3767262
vt 0.7510102 0.3748616
vt 0.765881 0.38499445
vt 0.7641439 0.39072853
vt 0.78365076 0.40234375
vt 0.76551473 0.38615376
vt 0.78313375 0.3991289
vt 0.79266936 0.40223962
vt 0.7919421 0.39788842
vt 0.84298927 0.5
vt 0.8484955 0.509737
vt 0.8527392 0.500541
vt 0.8428787 0.5032172
vt 0.8252603 0.51197433
vt 0.8251515 0.5
vt 0.80919707 0.5
vt 0.8254849 0.51669824
vt 0.8255779 0.5186976
vt 0.8107069 0.530011
vt 0.8095474 0.5189587
vt 0.7914063 0.5
vt 0.81023663 0.5266094
vt 0.7919449 0.52529716
vt 0.77265304 0.5
vt 0.7928336 0.53762
vt 0.7936944 0.5423302
vt 0.773436 0.53097355
vt 0.7532205 0.5
vt 0.77444 0.5489132
vt 0.77551955 0.55528224
vt 0.75592065 0.56635815
vt 0.755291 0.5590898
vt 0.73525697 0.5772059
vt 0.7321335 0.5680261
vt 0.7346134 0.55709827
vt 0.7544247 0.53469443
vt 0.7463676 0.5
vt 0.74237716 0.5363182
vt 0.6736072 0.33391953
vt 0.69622374 0.3360399
vt 0.67556 0.32214022
vt 0.6949394 0.34202802
vt 0.67672896 0.34198588
vt 0.7158227 0.34896886
vt 0.6930516 0.36525178
vt 0.6835108 0.36313593
vt 0.714157 0.3537591
vt 0.6910572 0.4023435
vt 0.6846918 0.40234345
vt 0.70993114 0.4023438
vt 0.71152115 0.37119132
vt 0.7287499 0.40234375
vt 0.7301743 0.3779956
vt 0.74670017 0.40234375
vt 0.7325474 0.36575645
vt 0.73399746 0.36233133
vt 0.7479557 0.38483202
vt 0.76251125 0.4023437
vt 0.75034404 0.3767262
vt 0.7510102 0.3748616
vt 0.765881 0.38499445
vt 0.7641439 0.39072853
vt 0.78365076 0.40234375
vt 0.76551473 0.38615376
vt 0.78313375 0.3991289
vt 0.79266936 0.40223962
vt 0.7919421 0.39788842
vn -0.0069161155 -0.40237653 0.9154481
vn -0.0060184984 -0.108250365 0.99410534
vn 0.27926072 -0.10306347 0.9546683
vn 0.26955462 -0.3864805 0.88202786
vn 0.2840407 -0.5583768 0.7794461
vn -0.0074735573 -0.6213386 0.78350663
vn -0.0067487643 -0.7904111 0.6125395
vn 0.44472834 -0.38684294 0.8078176
vn 0.5016788 -0.08415156 0.8609512
vn 0.68464565 -0.05611092 0.7267131
vn 0.3484064 -0.69702107 0.6267174
vn -0.0045772106 -0.90139896 0.4329653
vn 0.5968547 -0.43311164 0.6754101
vn 0.40132883 -0.79323876 0.45793808
vn -0.0020248357 -0.95680934 0.29070905
vn 0.7056449 -0.47739074 0.52360606
vn 0.81477743 -0.026346225 0.5791749
vn 0.42100564 -0.8482087 0.32139733
vn -0.0005747689 -0.97279626 0.2316616
vn 0.7596375 -0.51478463 0.39742652
vn 0.8892199 -0.0016161682 0.4574771
vn 0.9161164 0.011788607 0.40073884
vn 0.76193625 -0.5546153 0.33444735
vn 0.92275417 0.016796894 0.3850229
vn 0.8253114 -0.45192146 0.33856767
vn 0.6670668 -0.6831656 0.2971643
vn 0.40573522 -0.87581503 0.2613942
vn -0.00014065098 -0.9745987 0.22395837
vn 0.3672585 -0.89695036 0.24617295
vn 0.79722536 0.47319883 0.3748526
vn 0.92275417 0.016796894 0.3850229
vn 0.9161164 0.011788607 0.40073884
vn 0.7355119 0.5591995 0.38251546
vn 0.6367719 0.6878574 0.3483874
vn 0.8892199 -0.0016161682 0.4574771
vn 0.39472055 0.8530111 0.3414204
vn 0.35379148 0.88162583 0.3123579
vn 0.7397563 0.4928154 0.45814148
vn -0.00012682923 0.9467178 0.3220642
vn -2.8145665E-05 0.95520145 0.29595628
vn -0.0005002214 0.9110538 0.41228706
vn 0.41244474 0.8042714 0.42782786
vn -0.0012944811 0.8176268 0.57574713
vn 0.3938533 0.71043473 0.58323413
vn -0.0022780926 0.65804553 0.7529746
vn 0.69114363 0.41105685 0.5944348
vn 0.81477743 -0.026346225 0.5791749
vn 0.3417581 0.5655038 0.75060445
vn -0.003256448 0.4440253 0.8960083
vn 0.5862728 0.31294918 0.7472261
vn 0.68464565 -0.05611092 0.7267131
vn 0.5016788 -0.08415156 0.8609512
vn 0.27828637 0.38302034 0.8808247
vn -0.004553163 0.1958086 0.9806316
vn 0.4368701 0.21714781 0.8729212
vn 0.26455775 0.18807058 0.94585335
vn -0.0060184984 -0.108250365 0.99410534
vn 0.27926072 -0.10306347 0.9546683
vn -0.0069161155 -0.40237653 0.9154481
vn -0.2877228 -0.097088814 0.9527798
vn -0.0060184984 -0.108250365 0.99410534
vn -0.2798436 -0.3760424 0.8833344
vn -0.29524422 -0.5470484 0.7833064
vn -0.0074735573 -0.6213386 0.78350663
vn -0.0067487643 -0.7904111 0.6125395
vn -0.45124796 -0.37392676 0.8102802
vn -0.50524837 -0.07659598 0.85956806
vn -0.68511546 -0.04995282 0.72671974
vn -0.358041 -0.68716466 0.63214815
vn -0.0045772106 -0.90139896 0.4329653
vn -0.60046536 -0.4219465 0.6792662
vn -0.4076519 -0.78663915 0.46370113
vn -0.0020248357 -0.95680934 0.29070905
vn -0.70725256 -0.46992347 0.528172
vn -0.81409466 -0.022488367 0.5802966
vn -0.42383122 -0.84546006 0.32490692
vn -0.0005747689 -0.97279626 0.2316616
vn -0.76031286 -0.51157326 0.40027136
vn -0.8887706 3.9309843E-06 0.45835233
vn -0.915995 0.012199415 0.40100402
vn -0.76211053 -0.5539013 0.33523235
vn -0.9227284 0.016885234 0.3850807
vn -0.8253287 -0.4517538 0.33874908
vn -0.6671302 -0.6830028 0.29739612
vn -0.4065229 -0.87509215 0.2625886
vn -0.00014065098 -0.9745987 0.22395837
vn -0.36744434 -0.8967831 0.24650484
vn -0.7972181 0.4732108 0.37485301
vn -0.915995 0.012199415 0.40100402
vn -0.9227284 0.016885234 0.3850807
vn -0.73549265 0.55922496 0.3825153
vn -0.63677466 0.6878569 0.3483831
vn -0.8887706 3.9309843E-06 0.45835233
vn -0.39488438 0.85294646 0.3413925
vn -0.3538292 0.881613 0.31235138
vn -0.73967034 0.4929743 0.45810938
vn -0.00012682923 0.9467178 0.3220642
vn -2.8145665E-05 0.95520145 0.29595628
vn -0.0005002214 0.9110538 0.41228706
vn -0.4130839 0.8040085 0.42770573
vn -0.0012944811 0.8176268 0.57574713
vn -0.39556676 0.7098172 0.5828264
vn -0.0022780926 0.65804553 0.7529746
vn -0.69119805 0.41156048 0.59402305
vn -0.81409466 -0.022488367 0.5802966
vn -0.3450307 0.56469387 0.7497163
vn -0.003256448 0.4440253 0.8960083
vn -0.58741254 0.31401965 0.7458808
vn -0.68511546 -0.04995282 0.72671974
vn -0.50524837 -0.07659598 0.85956806
vn -0.28329962 0.38265947 0.8793822
vn -0.004553163 0.1958086 0.9806316
vn -0.44036388 0.21882072 0.8707451
vn -0.27119577 0.18937916 0.9437099
vn -0.0060184984 -0.108250365 0.99410534
vn -0.2877228 -0.097088814 0.9527798
g pm0662_00_CloseBeakSkin_0
f 3/3/3 2/2/2 1/1/1
f 4/4/4 3/3/3 1/1/1
f 5/5/5 4/4/4 1/1/1
f 6/6/6 5/5/5 1/1/1
f 6/6/6 7/7/7 5/5/5
f 3/3/3 4/4/4 8/8/8
f 8/8/8 4/4/4 5/5/5
f 9/9/9 3/3/3 8/8/8
f 10/10/10 9/9/9 8/8/8
f 7/7/7 11/11/11 5/5/5
f 7/7/7 12/12/12 11/11/11
f 13/13/13 8/8/8 5/5/5
f 13/13/13 10/10/10 8/8/8
f 11/11/11 13/13/13 5/5/5
f 12/12/12 14/14/14 11/11/11
f 13/13/13 11/11/11 14/14/14
f 12/12/12 15/15/15 14/14/14
f 10/10/10 13/13/13 16/16/16
f 16/16/16 13/13/13 14/14/14
f 17/17/17 10/10/10 16/16/16
f 15/15/15 18/18/18 14/14/14
f 16/16/16 14/14/14 18/18/18
f 15/15/15 19/19/19 18/18/18
f 17/17/17 16/16/16 20/20/20
f 20/20/20 16/16/16 18/18/18
f 21/21/21 17/17/17 20/20/20
f 22/22/22 21/21/21 20/20/20
f 23/23/23 22/22/22 20/20/20
f 23/23/23 20/20/20 18/18/18
f 22/22/22 23/23/23 24/24/24
f 23/23/23 25/25/25 24/24/24
f 23/23/23 26/26/26 25/25/25
f 19/19/19 27/27/27 18/18/18
f 27/27/27 23/23/23 18/18/18
f 23/23/23 27/27/27 26/26/26
f 19/19/19 28/28/28 27/27/27
f 27/27/27 29/29/29 26/26/26
f 28/28/28 29/29/29 27/27/27
f 32/32/32 31/31/31 30/30/30
f 33/33/33 32/32/32 30/30/30
f 33/33/33 30/30/30 34/34/34
f 32/32/32 33/33/33 35/35/35
f 33/33/33 34/34/34 36/36/36
f 34/34/34 37/37/37 36/36/36
f 33/33/33 38/38/38 35/35/35
f 33/33/33 36/36/36 38/38/38
f 36/36/36 37/37/37 39/39/39
f 37/37/37 40/40/40 39/39/39
f 36/36/36 39/39/39 41/41/41
f 42/42/42 36/36/36 41/41/41
f 36/36/36 42/42/42 38/38/38
f 42/42/42 41/41/41 43/43/43
f 44/44/44 42/42/42 43/43/43
f 42/42/42 44/44/44 38/38/38
f 44/44/44 43/43/43 45/45/45
f 38/38/38 46/46/46 35/35/35
f 44/44/44 46/46/46 38/38/38
f 46/46/46 47/47/47 35/35/35
f 48/48/48 44/44/44 45/45/45
f 44/44/44 48/48/48 46/46/46
f 48/48/48 45/45/45 49/49/49
f 46/46/46 50/50/50 47/47/47
f 48/48/48 50/50/50 46/46/46
f 50/50/50 51/51/51 47/47/47
f 51/51/51 50/50/50 52/52/52
f 53/53/53 48/48/48 49/49/49
f 53/53/53 49/49/49 54/54/54
f 50/50/50 48/48/48 55/55/55
f 50/50/50 55/55/55 52/52/52
f 48/48/48 53/53/53 55/55/55
f 56/56/56 53/53/53 54/54/54
f 53/53/53 56/56/56 55/55/55
f 55/55/55 56/56/56 52/52/52
f 56/56/56 54/54/54 57/57/57
f 56/56/56 58/58/58 52/52/52
f 58/58/58 56/56/56 57/57/57
f 61/61/61 60/60/60 59/59/59
f 60/60/60 62/62/62 59/59/59
f 62/62/62 63/63/63 59/59/59
f 63/63/63 64/64/64 59/59/59
f 65/65/65 64/64/64 63/63/63
f 62/62/62 60/60/60 66/66/66
f 62/62/62 66/66/66 63/63/63
f 60/60/60 67/67/67 66/66/66
f 67/67/67 68/68/68 66/66/66
f 69/69/69 65/65/65 63/63/63
f 70/70/70 65/65/65 69/69/69
f 66/66/66 71/71/71 63/63/63
f 68/68/68 71/71/71 66/66/66
f 71/71/71 69/69/69 63/63/63
f 72/72/72 70/70/70 69/69/69
f 69/69/69 71/71/71 72/72/72
f 73/73/73 70/70/70 72/72/72
f 71/71/71 68/68/68 74/74/74
f 71/71/71 74/74/74 72/72/72
f 68/68/68 75/75/75 74/74/74
f 76/76/76 73/73/73 72/72/72
f 72/72/72 74/74/74 76/76/76
f 77/77/77 73/73/73 76/76/76
f 74/74/74 75/75/75 78/78/78
f 74/74/74 78/78/78 76/76/76
f 75/75/75 79/79/79 78/78/78
f 79/79/79 80/80/80 78/78/78
f 80/80/80 81/81/81 78/78/78
f 78/78/78 81/81/81 76/76/76
f 81/81/81 80/80/80 82/82/82
f 83/83/83 81/81/81 82/82/82
f 84/84/84 81/81/81 83/83/83
f 85/85/85 77/77/77 76/76/76
f 81/81/81 85/85/85 76/76/76
f 85/85/85 81/81/81 84/84/84
f 86/86/86 77/77/77 85/85/85
f 87/87/87 85/85/85 84/84/84
f 87/87/87 86/86/86 85/85/85
f 90/90/90 89/89/89 88/88/88
f 89/89/89 91/91/91 88/88/88
f 88/88/88 91/91/91 92/92/92
f 91/91/91 89/89/89 93/93/93
f 92/92/92 91/91/91 94/94/94
f 95/95/95 92/92/92 94/94/94
f 96/96/96 91/91/91 93/93/93
f 94/94/94 91/91/91 96/96/96
f 95/95/95 94/94/94 97/97/97
f 98/98/98 95/95/95 97/97/97
f 97/97/97 94/94/94 99/99/99
f 94/94/94 100/100/100 99/99/99
f 100/100/100 94/94/94 96/96/96
f 99/99/99 100/100/100 101/101/101
f 100/100/100 102/102/102 101/101/101
f 102/102/102 100/100/100 96/96/96
f 101/101/101 102/102/102 103/103/103
f 104/104/104 96/96/96 93/93/93
f 104/104/104 102/102/102 96/96/96
f 105/105/105 104/104/104 93/93/93
f 102/102/102 106/106/106 103/103/103
f 106/106/106 102/102/102 104/104/104
f 103/103/103 106/106/106 107/107/107
f 108/108/108 104/104/104 105/105/105
f 108/108/108 106/106/106 104/104/104
f 109/109/109 108/108/108 105/105/105
f 108/108/108 109/109/109 110/110/110
f 106/106/106 111/111/111 107/107/107
f 107/107/107 111/111/111 112/112/112
f 106/106/106 108/108/108 113/113/113
f 113/113/113 108/108/108 110/110/110
f 111/111/111 106/106/106 113/113/113
f 111/111/111 114/114/114 112/112/112
f 114/114/114 111/111/111 113/113/113
f 114/114/114 113/113/113 110/110/110
f 112/112/112 114/114/114 115/115/115
f 116/116/116 114/114/114 110/110/110
f 114/114/114 116/116/116 115/115/115
