g pm0676_11_Eye7Skin
v 0.09179775 0.9647924 0.47541472
v 0.09916558 0.9748756 0.48881698
v 0.08797002 0.9772253 0.48274168
v 0.08299752 0.98850965 0.4950206
v 0.09126409 0.9866552 0.50009286
v 0.07394163 0.9931484 0.51218355
v 0.10324737 0.9630988 0.48248413
v 0.105395354 0.95858383 0.49791896
v 0.10354619 0.970573 0.5033387
v 0.11086462 0.9602287 0.46846825
v 0.10154773 0.9620027 0.4638239
v 0.11896147 0.95805174 0.4590265
v 0.112808466 0.9590754 0.45311874
v 0.12267612 0.95546234 0.45784897
v 0.11518213 0.95671856 0.45074967
v 0.11733886 0.9533502 0.46727657
v 0.12219051 0.95284915 0.45848396
v 0.11475798 0.9514877 0.45200202
v 0.11802134 0.9493625 0.46499282
v 0.109832644 0.9473258 0.4601509
v 0.109389216 0.9443074 0.47613895
v 0.10158958 0.94270295 0.47118282
v 0.10817056 0.95037603 0.47985846
v 0.10094013 0.93984604 0.4862137
v 0.09129442 0.93829465 0.48074824
v 0.10504423 0.9455795 0.49333686
v 0.08775445 0.9329745 0.5037765
v 0.079944745 0.9307263 0.49816793
v 0.0995037 0.93894583 0.51401514
v 0.07900663 0.92727965 0.5257641
v 0.070429355 0.9239369 0.5201479
v 0.07031121 0.9229768 0.5471343
v 0.06044582 0.9195198 0.5412899
v 0.09122897 0.9329461 0.5345389
v 0.09584335 0.94529885 0.5402334
v 0.10351634 0.95119876 0.5202304
v 0.1020575 0.9669983 0.52425474
v 0.061238162 0.9203732 0.56404585
v 0.050972722 0.9176723 0.55785775
v 0.07971242 0.92805743 0.5545967
v 0.052940182 0.91803974 0.5796583
v 0.042759866 0.9156955 0.57441777
v 0.09971562 0.97759 0.5086718
v 0.09424538 0.9815018 0.5240401
v 0.0934233 0.96295154 0.54359335
v 0.06697829 0.9248222 0.5698297
v 0.06584868 0.9365852 0.5711537
v 0.082412824 0.94065267 0.55812216
v 0.08049217 0.95688945 0.55945057
v 0.044905365 0.9172432 0.590377
v 0.0352985 0.916863 0.59115374
v 0.043583095 0.9194867 0.5916701
v 0.034749307 0.91813785 0.5927431
v 0.03542153 0.9213565 0.5910833
v 0.055100564 0.922042 0.5819801
v 0.04373653 0.92173785 0.59117264
v 0.051709056 0.9329913 0.5788975
v 0.039067212 0.93521804 0.5743489
v 0.052319005 0.9467276 0.57590955
v 0.039769266 0.94648147 0.5723422
v 0.06518664 0.95189184 0.57014745
v 0.05556744 0.9638409 0.56949276
v 0.043257143 0.9634811 0.5663859
v 0.050461292 0.9802656 0.55330676
v 0.06350459 0.9629115 0.5671851
v 0.07267297 0.97180563 0.5586452
v 0.061339863 0.9790079 0.557161
v 0.07155306 0.9899355 0.53831476
v 0.06230511 0.9917413 0.5339889
v 0.08479269 0.9793572 0.5423282
v 0.083491266 0.99155986 0.51763886
v -0.09179775 0.9647924 0.47541472
v -0.08797002 0.9772253 0.48274168
v -0.09916558 0.9748756 0.48881698
v -0.08299752 0.98850965 0.4950206
v -0.09126409 0.9866552 0.50009286
v -0.07394163 0.9931484 0.51218355
v -0.10324737 0.9630988 0.48248413
v -0.105395354 0.95858383 0.49791896
v -0.10354619 0.970573 0.5033387
v -0.11086462 0.9602287 0.46846825
v -0.10154773 0.9620027 0.4638239
v -0.11896147 0.95805174 0.4590265
v -0.112808466 0.9590754 0.45311874
v -0.12267612 0.95546234 0.45784897
v -0.11518213 0.95671856 0.45074967
v -0.11733886 0.9533502 0.46727657
v -0.12219051 0.95284915 0.45848396
v -0.11475798 0.9514877 0.45200202
v -0.11802134 0.9493625 0.46499282
v -0.109832644 0.9473258 0.46015093
v -0.109389216 0.9443074 0.47613895
v -0.10158958 0.94270295 0.47118282
v -0.10817056 0.95037603 0.47985846
v -0.10094013 0.93984604 0.4862137
v -0.09129442 0.93829465 0.48074824
v -0.10504423 0.9455795 0.49333686
v -0.08775445 0.9329745 0.5037765
v -0.079944745 0.9307263 0.49816793
v -0.0995037 0.93894583 0.51401514
v -0.07900663 0.92727965 0.5257641
v -0.070429355 0.9239369 0.5201479
v -0.07031121 0.9229768 0.5471343
v -0.06044582 0.9195198 0.5412899
v -0.09122897 0.9329461 0.5345389
v -0.09584335 0.94529885 0.5402334
v -0.10351634 0.95119876 0.5202304
v -0.1020575 0.9669983 0.52425474
v -0.061238162 0.9203732 0.56404585
v -0.050972722 0.9176723 0.55785775
v -0.07971242 0.92805743 0.5545967
v -0.052940182 0.91803974 0.5796583
v -0.042759866 0.9156955 0.57441777
v -0.09971562 0.97759 0.5086718
v -0.09424538 0.9815018 0.5240401
v -0.0934233 0.96295154 0.54359335
v -0.06697829 0.9248222 0.5698297
v -0.06584868 0.9365852 0.5711537
v -0.082412824 0.94065267 0.55812216
v -0.08049217 0.95688945 0.55945057
v -0.044905365 0.9172432 0.590377
v -0.0352985 0.916863 0.59115374
v -0.043583095 0.9194867 0.5916701
v -0.034749307 0.91813785 0.5927431
v -0.03542153 0.9213565 0.5910833
v -0.055100564 0.922042 0.5819801
v -0.04373653 0.92173785 0.59117264
v -0.051709056 0.9329913 0.5788975
v -0.039067212 0.93521804 0.5743489
v -0.052319005 0.9467276 0.57590955
v -0.039769266 0.94648147 0.5723422
v -0.06518664 0.95189184 0.57014745
v -0.05556744 0.9638409 0.56949276
v -0.043257143 0.9634811 0.5663859
v -0.050461292 0.9802656 0.55330676
v -0.06350459 0.9629115 0.5671851
v -0.07267297 0.97180563 0.5586452
v -0.061339863 0.9790079 0.557161
v -0.07155306 0.9899355 0.53831476
v -0.06230511 0.9917413 0.5339889
v -0.08479269 0.9793572 0.5423282
v -0.083491266 0.99155986 0.51763886
vt 0.16287512 0.93539596
vt 0.16886038 0.9431494
vt 0.16580129 0.9480672
vt 0.16997278 0.96588
vt 0.17252147 0.95921916
vt 0.17717415 0.97933906
vt 0.16650563 0.92904913
vt 0.17338169 0.9292583
vt 0.17442071 0.94098026
vt 0.16061747 0.919021
vt 0.15840149 0.92418873
vt 0.15741605 0.9109194
vt 0.15349102 0.91065377
vt 0.15700161 0.90796614
vt 0.15351963 0.90728337
vt 0.16116142 0.91137326
vt 0.15758789 0.90553886
vt 0.15421844 0.9031137
vt 0.16056287 0.9043063
vt 0.16000849 0.89787775
vt 0.16698426 0.9035578
vt 0.16627294 0.895768
vt 0.1672324 0.9146998
vt 0.17232943 0.90249646
vt 0.17193735 0.89401335
vt 0.17295098 0.91623414
vt 0.17911613 0.9015494
vt 0.17852855 0.89228636
vt 0.1803149 0.9166078
vt 0.18760538 0.9018121
vt 0.18764377 0.89170784
vt 0.19587332 0.90508705
vt 0.19656342 0.89410955
vt 0.18754888 0.9167417
vt 0.1875 0.9296875
vt 0.18080783 0.92948395
vt 0.18097669 0.9429152
vt 0.20284629 0.9091699
vt 0.20367742 0.8979294
vt 0.19555253 0.91760725
vt 0.20920205 0.9134675
vt 0.21054351 0.90276676
vt 0.17579836 0.94922215
vt 0.18069643 0.95662785
vt 0.18744308 0.9447487
vt 0.20274663 0.91850346
vt 0.20226216 0.9301362
vt 0.19479668 0.92990935
vt 0.19414335 0.94449264
vt 0.21330214 0.9152586
vt 0.2184866 0.91357696
vt 0.21377945 0.91735643
vt 0.21888924 0.91557276
vt 0.21865028 0.9194092
vt 0.20902139 0.9185061
vt 0.21360034 0.9194073
vt 0.20860457 0.9303291
vt 0.21251184 0.93927467
vt 0.20599806 0.9435217
vt 0.21027237 0.9496075
vt 0.2005933 0.9445243
vt 0.20172668 0.95880103
vt 0.20548195 0.9660534
vt 0.19768393 0.98059946
vt 0.19924062 0.9549945
vt 0.1942643 0.9593194
vt 0.19569933 0.9708539
vt 0.1873256 0.9757651
vt 0.18728888 0.9855075
vt 0.18738401 0.960342
vt 0.17883861 0.96970433
vt 0.16287515 0.93539596
vt 0.16580135 0.9480672
vt 0.16886044 0.9431494
vt 0.16997275 0.96588
vt 0.1725215 0.95921916
vt 0.17717415 0.97933906
vt 0.16650572 0.92904913
vt 0.17338175 0.9292583
vt 0.17442071 0.94098026
vt 0.16061747 0.919021
vt 0.15840155 0.92418873
vt 0.1574161 0.9109194
vt 0.15349108 0.91065377
vt 0.15700161 0.90796614
vt 0.15351981 0.90728337
vt 0.16116142 0.91137326
vt 0.15758789 0.90553886
vt 0.1542185 0.9031137
vt 0.16056287 0.9043063
vt 0.16000858 0.89787775
vt 0.16698432 0.9035578
vt 0.16627291 0.895768
vt 0.16723245 0.9146998
vt 0.17232946 0.90249646
vt 0.17193747 0.89401335
vt 0.17295101 0.91623414
vt 0.17911613 0.9015494
vt 0.17852855 0.89228636
vt 0.18031499 0.9166078
vt 0.18760535 0.9018121
vt 0.18764377 0.89170784
vt 0.19587338 0.90508705
vt 0.19656348 0.89410955
vt 0.18754894 0.9167417
vt 0.1875 0.9296875
vt 0.18080792 0.92948395
vt 0.18097669 0.9429152
vt 0.20284629 0.9091699
vt 0.20367739 0.8979294
vt 0.19555259 0.91760725
vt 0.20920211 0.9134675
vt 0.21054357 0.90276676
vt 0.17579836 0.94922215
vt 0.18069649 0.95662785
vt 0.18744302 0.9447487
vt 0.20274669 0.91850346
vt 0.20226222 0.9301362
vt 0.19479683 0.92990935
vt 0.19414335 0.94449264
vt 0.21330214 0.9152586
vt 0.21848667 0.91357696
vt 0.21377951 0.91735643
vt 0.21888933 0.91557276
vt 0.2186504 0.9194092
vt 0.20902139 0.9185061
vt 0.2136004 0.9194073
vt 0.20860457 0.9303291
vt 0.21251184 0.93927467
vt 0.20599806 0.9435217
vt 0.21027237 0.9496075
vt 0.2005933 0.9445243
vt 0.20172668 0.95880103
vt 0.20548195 0.9660534
vt 0.19768399 0.98059946
vt 0.19924068 0.9549945
vt 0.1942643 0.9593194
vt 0.19569933 0.9708539
vt 0.18732569 0.9757651
vt 0.18728888 0.9855075
vt 0.18738407 0.960342
vt 0.17883867 0.96970433
vn 0.6163529 0.7601129 -0.20576078
vn 0.75217795 0.64259875 -0.145929
vn 0.579121 0.770065 -0.2676165
vn 0.48829523 0.8574084 -0.16253786
vn 0.6304586 0.772988 -0.070791945
vn 0.3546035 0.930768 0.08903541
vn 0.8695691 0.4926878 -0.03329052
vn 0.98927236 0.11684779 0.08767422
vn 0.9006879 0.43205595 0.045706727
vn 0.76331985 0.645568 0.024181608
vn 0.5758678 0.80754167 -0.12748653
vn 0.7383244 0.6718837 -0.05873143
vn 0.65439445 0.73197657 -0.18967931
vn 0.9619486 0.2556377 -0.09645912
vn 0.9032281 0.28624168 -0.3197572
vn 0.9868047 0.1102443 0.11858525
vn 0.936411 -0.31428257 -0.15607947
vn 0.86231554 -0.397506 -0.31368932
vn 0.8619134 -0.5070174 0.0062231324
vn 0.6861233 -0.7117098 -0.15067863
vn 0.7614057 -0.6464636 0.0484364
vn 0.56122077 -0.8243459 -0.07406238
vn 0.98419094 -0.11947109 0.13074717
vn 0.6674834 -0.7444972 0.013781001
vn 0.48826012 -0.8698793 -0.07008629
vn 0.92254674 -0.37060815 0.10750368
vn 0.58937037 -0.8078211 0.00822168
vn 0.44507515 -0.89338505 -0.06141124
vn 0.8347768 -0.5327466 0.13902749
vn 0.53706706 -0.8412264 0.062427137
vn 0.4167581 -0.90882754 -0.01857853
vn 0.5042798 -0.8484659 0.16064696
vn 0.39011696 -0.9193098 0.051752023
vn 0.7574644 -0.6040257 0.24779135
vn 0.8799243 -0.18478106 0.43770888
vn 0.9656525 -0.098609455 0.24039863
vn 0.9104782 0.30515578 0.2791226
vn 0.4834019 -0.82469845 0.29359025
vn 0.36584637 -0.91748565 0.15612945
vn 0.6943906 -0.5918869 0.40925747
vn 0.44933048 -0.75372 0.4795919
vn 0.34294686 -0.8735004 0.3455206
vn 0.7785683 0.6248852 0.057877507
vn 0.7355042 0.62446994 0.2628133
vn 0.81275415 0.23750837 0.53199655
vn 0.62931734 -0.49904993 0.59574217
vn 0.57339025 -0.042011913 0.81820446
vn 0.74905556 -0.1638676 0.64192146
vn 0.6411504 0.21015139 0.7380804
vn 0.38977835 -0.6308742 0.670873
vn 0.31164497 -0.6896475 0.6536541
vn 0.37974116 -0.22218949 0.89801365
vn 0.2552574 -0.20402585 0.9451017
vn 0.13028167 0.23121375 0.96414053
vn 0.51529586 -0.33972964 0.78679985
vn 0.2546775 0.17596999 0.95088065
vn 0.31035462 0.17232189 0.93487173
vn 0.0651349 0.35093257 0.93413264
vn 0.17563282 0.3493655 0.9203786
vn -0.012806778 0.42868322 0.9033642
vn 0.4342882 0.24010116 0.868185
vn 0.13302232 0.5072571 0.8514665
vn -0.02270579 0.5657796 0.82424384
vn 0.05561776 0.75328165 0.6553421
vn 0.33329734 0.41412187 0.84700406
vn 0.45624954 0.49359038 0.74040866
vn 0.21414502 0.67886496 0.702342
vn 0.3585727 0.81413984 0.45672962
vn 0.19575365 0.8988253 0.3921653
vn 0.6150023 0.58410823 0.5297071
vn 0.50999844 0.8441944 0.16503759
vn -0.6163527 0.76011235 -0.20576341
vn -0.5791208 0.7700649 -0.26761743
vn -0.7521779 0.6425987 -0.14592962
vn -0.48829502 0.8574086 -0.1625378
vn -0.63045853 0.7729881 -0.07079176
vn -0.35460326 0.930768 0.08903551
vn -0.8695691 0.49268767 -0.03329232
vn -0.9892725 0.11684785 0.08767369
vn -0.9006878 0.43205598 0.045706462
vn -0.76332 0.64556795 0.02417818
vn -0.57586735 0.8075412 -0.12749073
vn -0.738324 0.67188376 -0.058735915
vn -0.6543936 0.731976 -0.18968439
vn -0.9619482 0.2556375 -0.0964624
vn -0.90322673 0.2862413 -0.31976134
vn -0.98680496 0.11024419 0.11858365
vn -0.9364107 -0.31428292 -0.15608087
vn -0.8623147 -0.3975063 -0.31369108
vn -0.86191326 -0.5070176 0.006222821
vn -0.68612283 -0.7117101 -0.15067886
vn -0.7614056 -0.64646375 0.048436705
vn -0.56122047 -0.82434595 -0.07406211
vn -0.98419094 -0.11947119 0.1307467
vn -0.6674834 -0.7444972 0.013781676
vn -0.48826012 -0.8698793 -0.070085794
vn -0.9225467 -0.37060824 0.107503995
vn -0.58937037 -0.8078211 0.008222068
vn -0.4450752 -0.893385 -0.061410867
vn -0.8347768 -0.5327466 0.13902763
vn -0.53706706 -0.8412264 0.06242686
vn -0.41675803 -0.9088276 -0.018578527
vn -0.5042799 -0.8484659 0.16064647
vn -0.39011705 -0.9193098 0.051751778
vn -0.7574644 -0.60402584 0.2477912
vn -0.8799244 -0.18478113 0.4377088
vn -0.9656525 -0.09860953 0.24039848
vn -0.9104782 0.30515596 0.2791225
vn -0.48340204 -0.82469845 0.29358992
vn -0.36584648 -0.91748565 0.15612918
vn -0.6943907 -0.5918871 0.40925688
vn -0.44933105 -0.75372005 0.4795911
vn -0.34294727 -0.8735006 0.34551978
vn -0.77856815 0.6248854 0.05787764
vn -0.73550385 0.6244703 0.2628136
vn -0.8127541 0.2375086 0.5319967
vn -0.6293175 -0.49905002 0.595742
vn -0.57339025 -0.04201205 0.81820446
vn -0.7490557 -0.16386771 0.6419213
vn -0.6411502 0.21015157 0.7380805
vn -0.38977924 -0.63087523 0.6708714
vn -0.3116458 -0.68964887 0.6536523
vn -0.37974218 -0.22219123 0.8980128
vn -0.2552583 -0.20402803 0.9451009
vn -0.1302823 0.2312126 0.96414065
vn -0.51529634 -0.3397301 0.7867993
vn -0.25467822 0.17596896 0.95088065
vn -0.31035486 0.17232145 0.93487173
vn -0.06513562 0.35093212 0.9341327
vn -0.17563304 0.34936532 0.9203786
vn 0.012806009 0.42868274 0.90336424
vn -0.43428808 0.24010096 0.86818504
vn -0.13302252 0.5072569 0.85146666
vn 0.02270528 0.56577945 0.82424396
vn -0.055617962 0.7532819 0.655342
vn -0.333297 0.4141219 0.84700423
vn -0.4562492 0.49359068 0.74040866
vn -0.21414489 0.6788652 0.7023419
vn -0.3585724 0.8141401 0.45672956
vn -0.19575346 0.8988254 0.39216515
vn -0.615002 0.58410865 0.52970713
vn -0.50999826 0.84419453 0.165038
g pm0676_11_Eye7Skin_0
f 3/3/3 2/2/2 1/1/1
f 3/3/3 4/4/4 2/2/2
f 4/4/4 5/5/5 2/2/2
f 4/4/4 6/6/6 5/5/5
f 2/2/2 7/7/7 1/1/1
f 8/8/8 7/7/7 2/2/2
f 9/9/9 2/2/2 5/5/5
f 9/9/9 8/8/8 2/2/2
f 7/7/7 10/10/10 1/1/1
f 10/10/10 11/11/11 1/1/1
f 10/10/10 12/12/12 11/11/11
f 12/12/12 13/13/13 11/11/11
f 13/13/13 12/12/12 14/14/14
f 14/14/14 12/12/12 10/10/10
f 15/15/15 13/13/13 14/14/14
f 16/16/16 10/10/10 7/7/7
f 16/16/16 14/14/14 10/10/10
f 15/15/15 14/14/14 17/17/17
f 18/18/18 15/15/15 17/17/17
f 19/19/19 17/17/17 14/14/14
f 18/18/18 17/17/17 19/19/19
f 16/16/16 19/19/19 14/14/14
f 20/20/20 18/18/18 19/19/19
f 20/20/20 19/19/19 21/21/21
f 21/21/21 19/19/19 16/16/16
f 22/22/22 20/20/20 21/21/21
f 23/23/23 16/16/16 7/7/7
f 23/23/23 21/21/21 16/16/16
f 23/23/23 7/7/7 8/8/8
f 21/21/21 24/24/24 22/22/22
f 24/24/24 21/21/21 23/23/23
f 24/24/24 25/25/25 22/22/22
f 26/26/26 24/24/24 23/23/23
f 26/26/26 23/23/23 8/8/8
f 24/24/24 27/27/27 25/25/25
f 24/24/24 26/26/26 27/27/27
f 27/27/27 28/28/28 25/25/25
f 26/26/26 29/29/29 27/27/27
f 26/26/26 8/8/8 29/29/29
f 27/27/27 30/30/30 28/28/28
f 30/30/30 27/27/27 29/29/29
f 30/30/30 31/31/31 28/28/28
f 30/30/30 32/32/32 31/31/31
f 32/32/32 33/33/33 31/31/31
f 34/34/34 30/30/30 29/29/29
f 30/30/30 34/34/34 32/32/32
f 34/34/34 29/29/29 35/35/35
f 8/8/8 36/36/36 29/29/29
f 29/29/29 36/36/36 35/35/35
f 37/37/37 36/36/36 8/8/8
f 35/35/35 36/36/36 37/37/37
f 9/9/9 37/37/37 8/8/8
f 32/32/32 38/38/38 33/33/33
f 38/38/38 39/39/39 33/33/33
f 34/34/34 40/40/40 32/32/32
f 34/34/34 35/35/35 40/40/40
f 38/38/38 32/32/32 40/40/40
f 38/38/38 41/41/41 39/39/39
f 41/41/41 42/42/42 39/39/39
f 9/9/9 43/43/43 37/37/37
f 43/43/43 9/9/9 5/5/5
f 43/43/43 44/44/44 37/37/37
f 43/43/43 5/5/5 44/44/44
f 45/45/45 35/35/35 37/37/37
f 45/45/45 37/37/37 44/44/44
f 46/46/46 38/38/38 40/40/40
f 38/38/38 46/46/46 41/41/41
f 46/46/46 40/40/40 47/47/47
f 35/35/35 48/48/48 40/40/40
f 40/40/40 48/48/48 47/47/47
f 49/49/49 48/48/48 35/35/35
f 45/45/45 49/49/49 35/35/35
f 47/47/47 48/48/48 49/49/49
f 41/41/41 50/50/50 42/42/42
f 50/50/50 51/51/51 42/42/42
f 51/51/51 50/50/50 52/52/52
f 52/52/52 50/50/50 41/41/41
f 53/53/53 51/51/51 52/52/52
f 53/53/53 52/52/52 54/54/54
f 46/46/46 55/55/55 41/41/41
f 55/55/55 52/52/52 41/41/41
f 46/46/46 47/47/47 55/55/55
f 52/52/52 56/56/56 54/54/54
f 56/56/56 52/52/52 55/55/55
f 54/54/54 56/56/56 57/57/57
f 57/57/57 56/56/56 55/55/55
f 47/47/47 57/57/57 55/55/55
f 58/58/58 54/54/54 57/57/57
f 58/58/58 57/57/57 59/59/59
f 59/59/59 57/57/57 47/47/47
f 60/60/60 58/58/58 59/59/59
f 61/61/61 59/59/59 47/47/47
f 61/61/61 47/47/47 49/49/49
f 60/60/60 59/59/59 62/62/62
f 63/63/63 60/60/60 62/62/62
f 63/63/63 62/62/62 64/64/64
f 61/61/61 65/65/65 59/59/59
f 65/65/65 62/62/62 59/59/59
f 65/65/65 61/61/61 66/66/66
f 61/61/61 49/49/49 66/66/66
f 65/65/65 66/66/66 62/62/62
f 62/62/62 67/67/67 64/64/64
f 66/66/66 67/67/67 62/62/62
f 64/64/64 67/67/67 68/68/68
f 68/68/68 67/67/67 66/66/66
f 69/69/69 64/64/64 68/68/68
f 69/69/69 68/68/68 6/6/6
f 70/70/70 66/66/66 49/49/49
f 70/70/70 68/68/68 66/66/66
f 45/45/45 70/70/70 49/49/49
f 70/70/70 45/45/45 44/44/44
f 70/70/70 44/44/44 68/68/68
f 68/68/68 71/71/71 6/6/6
f 44/44/44 71/71/71 68/68/68
f 6/6/6 71/71/71 5/5/5
f 5/5/5 71/71/71 44/44/44
f 74/74/74 73/73/73 72/72/72
f 75/75/75 73/73/73 74/74/74
f 76/76/76 75/75/75 74/74/74
f 77/77/77 75/75/75 76/76/76
f 78/78/78 74/74/74 72/72/72
f 78/78/78 79/79/79 74/74/74
f 74/74/74 80/80/80 76/76/76
f 79/79/79 80/80/80 74/74/74
f 81/81/81 78/78/78 72/72/72
f 82/82/82 81/81/81 72/72/72
f 83/83/83 81/81/81 82/82/82
f 84/84/84 83/83/83 82/82/82
f 83/83/83 84/84/84 85/85/85
f 83/83/83 85/85/85 81/81/81
f 84/84/84 86/86/86 85/85/85
f 81/81/81 87/87/87 78/78/78
f 85/85/85 87/87/87 81/81/81
f 85/85/85 86/86/86 88/88/88
f 86/86/86 89/89/89 88/88/88
f 88/88/88 90/90/90 85/85/85
f 88/88/88 89/89/89 90/90/90
f 90/90/90 87/87/87 85/85/85
f 89/89/89 91/91/91 90/90/90
f 90/90/90 91/91/91 92/92/92
f 90/90/90 92/92/92 87/87/87
f 91/91/91 93/93/93 92/92/92
f 87/87/87 94/94/94 78/78/78
f 92/92/92 94/94/94 87/87/87
f 78/78/78 94/94/94 79/79/79
f 95/95/95 92/92/92 93/93/93
f 92/92/92 95/95/95 94/94/94
f 96/96/96 95/95/95 93/93/93
f 95/95/95 97/97/97 94/94/94
f 94/94/94 97/97/97 79/79/79
f 98/98/98 95/95/95 96/96/96
f 97/97/97 95/95/95 98/98/98
f 99/99/99 98/98/98 96/96/96
f 100/100/100 97/97/97 98/98/98
f 79/79/79 97/97/97 100/100/100
f 101/101/101 98/98/98 99/99/99
f 98/98/98 101/101/101 100/100/100
f 102/102/102 101/101/101 99/99/99
f 103/103/103 101/101/101 102/102/102
f 104/104/104 103/103/103 102/102/102
f 101/101/101 105/105/105 100/100/100
f 105/105/105 101/101/101 103/103/103
f 100/100/100 105/105/105 106/106/106
f 107/107/107 79/79/79 100/100/100
f 107/107/107 100/100/100 106/106/106
f 107/107/107 108/108/108 79/79/79
f 107/107/107 106/106/106 108/108/108
f 108/108/108 80/80/80 79/79/79
f 109/109/109 103/103/103 104/104/104
f 110/110/110 109/109/109 104/104/104
f 111/111/111 105/105/105 103/103/103
f 106/106/106 105/105/105 111/111/111
f 103/103/103 109/109/109 111/111/111
f 112/112/112 109/109/109 110/110/110
f 113/113/113 112/112/112 110/110/110
f 114/114/114 80/80/80 108/108/108
f 80/80/80 114/114/114 76/76/76
f 115/115/115 114/114/114 108/108/108
f 76/76/76 114/114/114 115/115/115
f 106/106/106 116/116/116 108/108/108
f 108/108/108 116/116/116 115/115/115
f 109/109/109 117/117/117 111/111/111
f 117/117/117 109/109/109 112/112/112
f 111/111/111 117/117/117 118/118/118
f 119/119/119 106/106/106 111/111/111
f 119/119/119 111/111/111 118/118/118
f 119/119/119 120/120/120 106/106/106
f 120/120/120 116/116/116 106/106/106
f 119/119/119 118/118/118 120/120/120
f 121/121/121 112/112/112 113/113/113
f 122/122/122 121/121/121 113/113/113
f 121/121/121 122/122/122 123/123/123
f 121/121/121 123/123/123 112/112/112
f 122/122/122 124/124/124 123/123/123
f 123/123/123 124/124/124 125/125/125
f 126/126/126 117/117/117 112/112/112
f 123/123/123 126/126/126 112/112/112
f 118/118/118 117/117/117 126/126/126
f 127/127/127 123/123/123 125/125/125
f 123/123/123 127/127/127 126/126/126
f 127/127/127 125/125/125 128/128/128
f 127/127/127 128/128/128 126/126/126
f 128/128/128 118/118/118 126/126/126
f 125/125/125 129/129/129 128/128/128
f 128/128/128 129/129/129 130/130/130
f 128/128/128 130/130/130 118/118/118
f 129/129/129 131/131/131 130/130/130
f 130/130/130 132/132/132 118/118/118
f 118/118/118 132/132/132 120/120/120
f 130/130/130 131/131/131 133/133/133
f 131/131/131 134/134/134 133/133/133
f 133/133/133 134/134/134 135/135/135
f 136/136/136 132/132/132 130/130/130
f 133/133/133 136/136/136 130/130/130
f 132/132/132 136/136/136 137/137/137
f 120/120/120 132/132/132 137/137/137
f 137/137/137 136/136/136 133/133/133
f 138/138/138 133/133/133 135/135/135
f 138/138/138 137/137/137 133/133/133
f 138/138/138 135/135/135 139/139/139
f 138/138/138 139/139/139 137/137/137
f 135/135/135 140/140/140 139/139/139
f 139/139/139 140/140/140 77/77/77
f 137/137/137 141/141/141 120/120/120
f 139/139/139 141/141/141 137/137/137
f 141/141/141 116/116/116 120/120/120
f 116/116/116 141/141/141 115/115/115
f 115/115/115 141/141/141 139/139/139
f 142/142/142 139/139/139 77/77/77
f 142/142/142 115/115/115 139/139/139
f 142/142/142 77/77/77 76/76/76
f 142/142/142 76/76/76 115/115/115
