g pm0676_17_Eye46Skin
v -0.06874101 0.9978453 0.5194516
v -0.057083197 0.99489594 0.54065025
v -0.066518135 0.99345887 0.5445693
v -0.04657422 0.9803901 0.558044
v -0.07848753 0.9967374 0.52457
v -0.086971045 0.9941337 0.50666726
v -0.07846585 0.99556106 0.50195736
v -0.08804081 0.9906541 0.5296205
v -0.0951954 0.9861677 0.49307325
v -0.08726123 0.9880602 0.48797527
v -0.089546554 0.97807217 0.4784674
v -0.057979207 0.97970426 0.56155866
v -0.05367838 0.96182036 0.571359
v -0.04150077 0.9605585 0.56833214
v -0.040199075 0.9415084 0.57148147
v -0.067015044 0.97766584 0.56326306
v -0.052501142 0.94305015 0.57495266
v -0.04088923 0.929623 0.57165736
v -0.078491054 0.9877164 0.5472178
v -0.06122689 0.9634498 0.5702432
v -0.062374327 0.9530664 0.57148117
v -0.0642834 0.9365154 0.57141876
v -0.053311437 0.92871255 0.5755411
v -0.03952465 0.91235423 0.58597153
v -0.075491495 0.96651936 0.56222093
v -0.087934 0.977617 0.5473142
v -0.09078094 0.96857727 0.54370916
v -0.09720565 0.9810916 0.5284667
v -0.078845955 0.9558231 0.55954045
v -0.094306946 0.9879302 0.5137957
v -0.099072464 0.9829462 0.50651574
v -0.10385903 0.97341657 0.49750528
v -0.077227235 0.94738716 0.55428
v -0.10042071 0.97152334 0.52262175
v -0.10098707 0.9641313 0.5136204
v -0.09910207 0.9772537 0.4836904
v -0.08882034 0.9606412 0.5377394
v -0.102974765 0.978323 0.46566
v -0.09568338 0.9789829 0.46271262
v -0.106184416 0.97816014 0.45289576
v -0.10173358 0.9790022 0.44943622
v -0.10666498 0.9763723 0.449893
v -0.10290412 0.97733396 0.44703242
v -0.10748087 0.9721937 0.46298248
v -0.10634331 0.9658217 0.47902265
v -0.10645369 0.9730699 0.45040774
v -0.102230124 0.9733496 0.44682539
v -0.10428546 0.96770513 0.45796627
v -0.098210506 0.9669817 0.4549516
v -0.09959732 0.95922565 0.47301966
v -0.09267134 0.9583057 0.46846816
v -0.09744666 0.9562371 0.47883514
v -0.090983845 0.95587075 0.47511232
v -0.10533855 0.9634841 0.48844984
v -0.0901076 0.95803386 0.5023744
v -0.08246374 0.9555172 0.4964637
v -0.07866733 0.95460254 0.5291723
v -0.07059836 0.951331 0.5231888
v -0.069537155 0.9425976 0.5473349
v -0.05977447 0.93888897 0.54087204
v -0.060942534 0.91945684 0.5635632
v -0.051083826 0.92107624 0.55681634
v -0.06533006 0.92637205 0.56927586
v -0.055946834 0.9139326 0.57366645
v -0.04623737 0.911413 0.5683195
v -0.057510752 0.91831464 0.57709706
v -0.049122967 0.90998137 0.58452505
v -0.039872166 0.908146 0.5853487
v -0.047666993 0.9117291 0.5861865
v -0.039250813 0.9089633 0.58711475
v -0.047538687 0.9140661 0.5860499
v 0.06874101 0.9978453 0.5194516
v 0.066518135 0.99345887 0.5445693
v 0.057083197 0.99489594 0.54065025
v 0.04657422 0.9803901 0.558044
v 0.07848753 0.9967374 0.52457
v 0.086971045 0.9941337 0.50666726
v 0.07846585 0.99556106 0.50195736
v 0.08804081 0.9906541 0.5296205
v 0.0951954 0.9861677 0.49307325
v 0.08726063 0.9880602 0.48797527
v 0.08954439 0.97807217 0.4784674
v 0.057979207 0.97970426 0.56155866
v 0.05367838 0.96182036 0.571359
v 0.04150077 0.9605585 0.56833214
v 0.040199075 0.9415084 0.57148147
v 0.067015044 0.97766584 0.56326306
v 0.052501142 0.94305015 0.57495266
v 0.04088923 0.929623 0.57165736
v 0.078491054 0.9877164 0.5472178
v 0.06122689 0.9634498 0.5702432
v 0.062375277 0.95305914 0.5714791
v 0.0642834 0.9365154 0.57141876
v 0.053311437 0.92871255 0.5755411
v 0.03952465 0.91235423 0.58597153
v 0.075491495 0.96651936 0.56222093
v 0.087934 0.977617 0.5473142
v 0.09078094 0.9685778 0.54370904
v 0.09720565 0.9810916 0.5284667
v 0.078845955 0.9558231 0.55954045
v 0.094306804 0.98793113 0.5137959
v 0.09907112 0.9829549 0.5065185
v 0.10385905 0.9734084 0.49750668
v 0.077227235 0.94738716 0.55428
v 0.10042071 0.97152334 0.52262175
v 0.10098708 0.9641282 0.5136209
v 0.09909585 0.97720295 0.48369893
v 0.08882034 0.9606412 0.5377394
v 0.1029745 0.978323 0.46566
v 0.09568338 0.9789829 0.46271262
v 0.106184416 0.97816014 0.45289576
v 0.10173358 0.9790022 0.44943622
v 0.10666498 0.9763723 0.449893
v 0.10290412 0.97733396 0.44703242
v 0.10748087 0.9721937 0.46298248
v 0.10634331 0.9658217 0.47902265
v 0.10645369 0.9730699 0.45040774
v 0.102230124 0.9733496 0.44682539
v 0.10428546 0.96770513 0.45796627
v 0.098210506 0.9669817 0.4549516
v 0.09959732 0.95922565 0.47301966
v 0.09267134 0.9583057 0.46846816
v 0.09744666 0.9562371 0.47883514
v 0.090983845 0.95587075 0.47511232
v 0.10533857 0.96347827 0.48845086
v 0.0901076 0.95803386 0.5023744
v 0.08246374 0.9555172 0.4964637
v 0.07866733 0.95460254 0.5291723
v 0.07059836 0.951331 0.5231888
v 0.069537155 0.9425976 0.5473349
v 0.05977447 0.93888897 0.54087204
v 0.060942534 0.91945684 0.5635632
v 0.051083826 0.92107624 0.55681634
v 0.06533006 0.92637205 0.56927586
v 0.055946834 0.9139326 0.57366645
v 0.04623737 0.911413 0.5683195
v 0.057510752 0.91831464 0.57709706
v 0.049122967 0.90998137 0.58452505
v 0.039872166 0.908146 0.5853487
v 0.047666993 0.9117291 0.5861865
v 0.039250813 0.9089633 0.58711475
v 0.047538687 0.9140661 0.5860499
vt 0.1920275 0.23827893
vt 0.18531232 0.23772311
vt 0.18569411 0.24395621
vt 0.17887878 0.24433392
vt 0.19136597 0.24498826
vt 0.19583592 0.24957055
vt 0.1971862 0.24446476
vt 0.19072351 0.2539593
vt 0.19884208 0.25860727
vt 0.20059118 0.25444394
vt 0.2029866 0.26155627
vt 0.18055177 0.2498931
vt 0.17720447 0.25960505
vt 0.17450462 0.25623012
vt 0.17212991 0.268334
vt 0.18194783 0.2567784
vt 0.17511256 0.27079043
vt 0.17112984 0.2756812
vt 0.1862986 0.25382417
vt 0.17895007 0.26120442
vt 0.17852211 0.26834232
vt 0.17805508 0.27808812
vt 0.17399697 0.2800864
vt 0.16520499 0.2881594
vt 0.182642 0.26620564
vt 0.18690977 0.26380134
vt 0.1875 0.2734375
vt 0.19111499 0.26280916
vt 0.18283132 0.27573645
vt 0.19415942 0.25704986
vt 0.19538197 0.26185215
vt 0.19653302 0.2689897
vt 0.18286054 0.2838446
vt 0.1917819 0.2713292
vt 0.19263229 0.27938643
vt 0.20093244 0.26682353
vt 0.18800725 0.28172043
vt 0.20510963 0.27125752
vt 0.20630962 0.26721668
vt 0.20766377 0.2727106
vt 0.21058959 0.27159128
vt 0.20857723 0.27682838
vt 0.21087658 0.27668637
vt 0.20508051 0.276323
vt 0.2010653 0.2762293
vt 0.20793298 0.2809428
vt 0.21023452 0.28351188
vt 0.2057566 0.28063542
vt 0.20637804 0.284555
vt 0.2016873 0.28326112
vt 0.20246574 0.28799742
vt 0.19831842 0.28572664
vt 0.19892189 0.291012
vt 0.19734985 0.2771625
vt 0.19402425 0.28860125
vt 0.19478467 0.29431972
vt 0.18859245 0.29127243
vt 0.18898843 0.29773757
vt 0.18317658 0.29194683
vt 0.18319283 0.29918692
vt 0.17855424 0.2916716
vt 0.17849118 0.2991268
vt 0.1782296 0.28567863
vt 0.17431702 0.2910531
vt 0.17390557 0.29833484
vt 0.17422281 0.2877755
vt 0.17018104 0.29204968
vt 0.16602808 0.2968567
vt 0.16925143 0.28925273
vt 0.16522159 0.29415518
vt 0.16932058 0.28600672
vt 0.19202775 0.2382788
vt 0.18569416 0.24395603
vt 0.18531233 0.237723
vt 0.17887878 0.24433374
vt 0.19136584 0.24498826
vt 0.19583589 0.24957043
vt 0.19718629 0.24446464
vt 0.1907236 0.25395918
vt 0.19884223 0.25860712
vt 0.20059109 0.25444382
vt 0.20298666 0.26155612
vt 0.18055171 0.24989295
vt 0.17720449 0.2596049
vt 0.17450464 0.25622997
vt 0.17213011 0.2683337
vt 0.18194789 0.25677842
vt 0.17511266 0.27079028
vt 0.17112988 0.27568105
vt 0.18629867 0.25382406
vt 0.17895025 0.2612044
vt 0.17852217 0.2683423
vt 0.17805511 0.27808812
vt 0.17399716 0.28008625
vt 0.16520512 0.28815904
vt 0.1826421 0.26620552
vt 0.1869098 0.26380134
vt 0.1875 0.2734375
vt 0.19111508 0.2628092
vt 0.18283129 0.27573633
vt 0.19415939 0.25704986
vt 0.19538206 0.261852
vt 0.19653308 0.26898968
vt 0.18286067 0.28384444
vt 0.19178188 0.27132908
vt 0.19263232 0.27938634
vt 0.20093244 0.2668234
vt 0.18800735 0.2817203
vt 0.20510972 0.27125725
vt 0.20630968 0.26721653
vt 0.20766443 0.27270997
vt 0.21058977 0.271591
vt 0.20857745 0.27682772
vt 0.21087688 0.27668598
vt 0.20508051 0.276323
vt 0.20106548 0.27622917
vt 0.20793313 0.28094253
vt 0.2102347 0.2835115
vt 0.20575684 0.28063515
vt 0.20637828 0.28455475
vt 0.2016874 0.28326097
vt 0.20246577 0.28799728
vt 0.19831854 0.28572652
vt 0.19892186 0.29101208
vt 0.19734997 0.27716234
vt 0.19402426 0.28860116
vt 0.19478476 0.2943196
vt 0.1885925 0.29127243
vt 0.18898845 0.29773757
vt 0.1831767 0.29194674
vt 0.18319273 0.29918692
vt 0.17855448 0.29167148
vt 0.17849135 0.2991267
vt 0.17822969 0.28567845
vt 0.17431706 0.29105285
vt 0.17390573 0.2983347
vt 0.17422277 0.28777537
vt 0.17018127 0.29204932
vt 0.16602844 0.29685643
vt 0.16925186 0.28925246
vt 0.16522199 0.2941549
vt 0.16932076 0.28600645
vn -0.27219197 0.94015634 0.20498163
vn -0.12849298 0.86154246 0.49115598
vn -0.261515 0.8043799 0.5334633
vn -0.004114214 0.6672199 0.7448495
vn -0.39862317 0.88243186 0.24982738
vn -0.51188225 0.858237 0.037494082
vn -0.39626446 0.91802275 -0.014450273
vn -0.6130252 0.7242284 0.3157424
vn -0.6499101 0.75797534 -0.05558956
vn -0.4982409 0.8583751 -0.12226302
vn -0.5741859 0.8059228 -0.1442186
vn -0.13039821 0.61571085 0.7771078
vn -0.07030967 0.40844733 0.91006994
vn 0.050383683 0.4458688 0.89367914
vn 0.013539195 0.28527078 0.9583513
vn -0.3598011 0.478215 0.8011576
vn -0.1460595 0.23710893 0.9604406
vn -0.086479686 0.17087066 0.98149097
vn -0.50805867 0.6323546 0.58481115
vn -0.24681686 0.35434535 0.9019538
vn -0.38884643 0.18938097 0.9016282
vn -0.606745 -0.07367994 0.7914745
vn -0.3263764 0.04275505 0.9442724
vn -0.17691171 0.029813556 0.9837751
vn -0.5962769 0.22315525 0.7711392
vn -0.7570379 0.31815198 0.5706777
vn -0.89198256 -0.107989706 0.43898222
vn -0.835148 0.4439882 0.32465726
vn -0.7852271 -0.1295277 0.60550886
vn -0.6487746 0.750675 0.12481391
vn -0.8026993 0.5880009 0.09964253
vn -0.96802855 0.23729354 0.0813179
vn -0.8149136 -0.5070122 0.2808104
vn -0.9629858 0.009433721 0.2693868
vn -0.8647007 -0.48390573 0.1346404
vn -0.82529145 0.5577949 -0.088084966
vn -0.8259299 -0.52641857 0.20180048
vn -0.7761228 0.61055654 -0.15765178
vn -0.5905307 0.7889806 -0.16965602
vn -0.75956255 0.6010936 -0.24849804
vn -0.67526996 0.6797076 -0.28637052
vn -0.899864 0.20350285 -0.38578668
vn -0.83729047 0.26171893 -0.48004997
vn -0.96403885 0.068635605 -0.25674558
vn -0.98378146 -0.121226184 -0.13220516
vn -0.8476668 -0.24878013 -0.46858236
vn -0.79277307 -0.29086244 -0.53563964
vn -0.81567866 -0.4536237 -0.35901788
vn -0.6741107 -0.6110078 -0.4150231
vn -0.7467041 -0.62939394 -0.21516602
vn -0.5693083 -0.77861476 -0.2639075
vn -0.66721725 -0.7406082 -0.079501905
vn -0.4983322 -0.8560545 -0.1372429
vn -0.9376319 -0.3471968 0.017347187
vn -0.62222683 -0.7827999 -0.0076228552
vn -0.48066714 -0.8728564 -0.08414845
vn -0.63596106 -0.77154064 -0.016692912
vn -0.5152482 -0.84873766 -0.11901183
vn -0.6739877 -0.73802865 -0.03247063
vn -0.558526 -0.8124794 -0.16711076
vn -0.68767345 -0.72380733 0.056640483
vn -0.5766839 -0.8091544 -0.11271606
vn -0.7671008 -0.45574045 0.45150524
vn -0.64077467 -0.7115196 0.2883534
vn -0.5614183 -0.8192822 0.11656006
vn -0.6204153 -0.37677246 0.68784255
vn -0.5526355 -0.6454122 0.52729225
vn -0.5004445 -0.70998967 0.49544942
vn -0.46762657 -0.32535377 0.82187
vn -0.36404777 -0.33289066 0.869858
vn -0.28666908 -0.00453022 0.958019
vn 0.2723185 0.9401194 0.20498349
vn 0.26153138 0.8043739 0.53346413
vn 0.12852703 0.8615346 0.49116078
vn 0.0041306997 0.66721386 0.74485475
vn 0.39868954 0.8824061 0.2498121
vn 0.51207936 0.85812074 0.037463613
vn 0.3965959 0.91787976 -0.014433411
vn 0.61305374 0.72421867 0.3157094
vn 0.6502356 0.75769794 -0.055565342
vn 0.49880683 0.8580638 -0.12213962
vn 0.5748208 0.8055281 -0.14389378
vn 0.13041586 0.6157005 0.777113
vn 0.070338115 0.4084328 0.9100742
vn -0.0503628 0.44586104 0.8936842
vn -0.0135194445 0.28526536 0.95835316
vn 0.3598179 0.47819868 0.8011598
vn 0.14608528 0.23709804 0.96043926
vn 0.08649113 0.17087057 0.98148996
vn 0.5080668 0.6323507 0.5848083
vn 0.2468467 0.35432357 0.90195423
vn 0.3888685 0.18936433 0.90162206
vn 0.60675156 -0.073682725 0.79146916
vn 0.3263883 0.042754233 0.94426835
vn 0.17691645 0.029816026 0.98377407
vn 0.5962865 0.22314154 0.77113575
vn 0.7570508 0.31814376 0.5706652
vn 0.8919893 -0.10799425 0.43896738
vn 0.8351864 0.44395962 0.32459757
vn 0.7852275 -0.12953095 0.6055076
vn 0.64886045 0.750612 0.12474643
vn 0.80280644 0.58786875 0.09955905
vn 0.96805453 0.2372041 0.08126861
vn 0.8149109 -0.50701517 0.28081286
vn 0.96300316 0.009423578 0.26932532
vn 0.86471283 -0.48389444 0.13460258
vn 0.82552654 0.55747825 -0.08788584
vn 0.8259281 -0.52642447 0.20179188
vn 0.7763812 0.6103245 -0.15727763
vn 0.59104925 0.78868496 -0.16922382
vn 0.7597584 0.600979 -0.24817644
vn 0.6755714 0.67955714 -0.28601623
vn 0.8999474 0.20350324 -0.38559166
vn 0.837412 0.26169276 -0.47985205
vn 0.9641013 0.06864968 -0.25650716
vn 0.98380417 -0.12117408 -0.1320839
vn 0.8477135 -0.24875458 -0.46851155
vn 0.79281753 -0.2908498 -0.53558075
vn 0.8157317 -0.45358133 -0.35895076
vn 0.67413676 -0.6109913 -0.4150052
vn 0.74675286 -0.6293424 -0.21514723
vn 0.5693245 -0.7786004 -0.26391485
vn 0.667237 -0.7405873 -0.07953164
vn 0.4983289 -0.856053 -0.13726464
vn 0.93765527 -0.3471354 0.017313417
vn 0.622218 -0.7828067 -0.0076457523
vn 0.48065 -0.87286437 -0.08416263
vn 0.6359479 -0.7715513 -0.01669923
vn 0.51523346 -0.8487459 -0.1190161
vn 0.6739816 -0.7380342 -0.032470133
vn 0.55851966 -0.81248367 -0.167111
vn 0.68767273 -0.723808 0.056641284
vn 0.57668257 -0.8091552 -0.11271576
vn 0.7671012 -0.4557387 0.45150632
vn 0.640776 -0.7115183 0.28835362
vn 0.56141907 -0.81928164 0.11656029
vn 0.6204187 -0.37676936 0.6878411
vn 0.5526371 -0.64541054 0.52729255
vn 0.5004458 -0.7099881 0.49545032
vn 0.46762916 -0.32535085 0.8218696
vn 0.36404976 -0.3328877 0.8698584
vn 0.28667474 -0.0045278408 0.9580173
g pm0676_17_Eye46Skin_0
f 3/3/3 2/2/2 1/1/1
f 4/4/4 2/2/2 3/3/3
f 5/5/5 3/3/3 1/1/1
f 5/5/5 1/1/1 6/6/6
f 1/1/1 7/7/7 6/6/6
f 5/5/5 8/8/8 3/3/3
f 5/5/5 6/6/6 8/8/8
f 6/6/6 7/7/7 9/9/9
f 7/7/7 10/10/10 9/9/9
f 9/9/9 10/10/10 11/11/11
f 12/12/12 4/4/4 3/3/3
f 12/12/12 13/13/13 4/4/4
f 13/13/13 14/14/14 4/4/4
f 15/15/15 14/14/14 13/13/13
f 12/12/12 3/3/3 16/16/16
f 12/12/12 16/16/16 13/13/13
f 17/17/17 15/15/15 13/13/13
f 18/18/18 15/15/15 17/17/17
f 8/8/8 19/19/19 3/3/3
f 3/3/3 19/19/19 16/16/16
f 16/16/16 20/20/20 13/13/13
f 13/13/13 20/20/20 17/17/17
f 21/21/21 20/20/20 16/16/16
f 20/20/20 21/21/21 17/17/17
f 17/17/17 21/21/21 22/22/22
f 23/23/23 18/18/18 17/17/17
f 23/23/23 17/17/17 22/22/22
f 24/24/24 18/18/18 23/23/23
f 25/25/25 21/21/21 16/16/16
f 16/16/16 19/19/19 25/25/25
f 22/22/22 21/21/21 25/25/25
f 26/26/26 19/19/19 8/8/8
f 19/19/19 26/26/26 25/25/25
f 25/25/25 26/26/26 27/27/27
f 28/28/28 26/26/26 8/8/8
f 27/27/27 26/26/26 28/28/28
f 29/29/29 22/22/22 25/25/25
f 29/29/29 25/25/25 27/27/27
f 8/8/8 30/30/30 28/28/28
f 6/6/6 30/30/30 8/8/8
f 31/31/31 30/30/30 6/6/6
f 30/30/30 31/31/31 28/28/28
f 28/28/28 31/31/31 32/32/32
f 9/9/9 31/31/31 6/6/6
f 32/32/32 31/31/31 9/9/9
f 29/29/29 33/33/33 22/22/22
f 29/29/29 27/27/27 33/33/33
f 34/34/34 28/28/28 32/32/32
f 34/34/34 27/27/27 28/28/28
f 34/34/34 35/35/35 27/27/27
f 34/34/34 32/32/32 35/35/35
f 36/36/36 32/32/32 9/9/9
f 36/36/36 9/9/9 11/11/11
f 27/27/27 37/37/37 33/33/33
f 35/35/35 37/37/37 27/27/27
f 38/38/38 36/36/36 11/11/11
f 39/39/39 38/38/38 11/11/11
f 40/40/40 38/38/38 39/39/39
f 41/41/41 40/40/40 39/39/39
f 40/40/40 41/41/41 42/42/42
f 40/40/40 42/42/42 38/38/38
f 41/41/41 43/43/43 42/42/42
f 38/38/38 44/44/44 36/36/36
f 42/42/42 44/44/44 38/38/38
f 36/36/36 45/45/45 32/32/32
f 44/44/44 45/45/45 36/36/36
f 42/42/42 43/43/43 46/46/46
f 43/43/43 47/47/47 46/46/46
f 46/46/46 48/48/48 42/42/42
f 46/46/46 47/47/47 48/48/48
f 48/48/48 44/44/44 42/42/42
f 47/47/47 49/49/49 48/48/48
f 48/48/48 50/50/50 44/44/44
f 48/48/48 49/49/49 50/50/50
f 50/50/50 45/45/45 44/44/44
f 49/49/49 51/51/51 50/50/50
f 52/52/52 50/50/50 51/51/51
f 50/50/50 52/52/52 45/45/45
f 53/53/53 52/52/52 51/51/51
f 45/45/45 54/54/54 32/32/32
f 52/52/52 54/54/54 45/45/45
f 32/32/32 54/54/54 35/35/35
f 55/55/55 52/52/52 53/53/53
f 54/54/54 52/52/52 55/55/55
f 35/35/35 54/54/54 55/55/55
f 56/56/56 55/55/55 53/53/53
f 55/55/55 57/57/57 35/35/35
f 57/57/57 55/55/55 56/56/56
f 57/57/57 37/37/37 35/35/35
f 58/58/58 57/57/57 56/56/56
f 37/37/37 57/57/57 59/59/59
f 59/59/59 57/57/57 58/58/58
f 60/60/60 59/59/59 58/58/58
f 33/33/33 37/37/37 59/59/59
f 61/61/61 59/59/59 60/60/60
f 59/59/59 61/61/61 33/33/33
f 62/62/62 61/61/61 60/60/60
f 61/61/61 63/63/63 33/33/33
f 33/33/33 63/63/63 22/22/22
f 64/64/64 61/61/61 62/62/62
f 63/63/63 61/61/61 64/64/64
f 65/65/65 64/64/64 62/62/62
f 22/22/22 63/63/63 66/66/66
f 66/66/66 63/63/63 64/64/64
f 23/23/23 22/22/22 66/66/66
f 67/67/67 64/64/64 65/65/65
f 68/68/68 67/67/67 65/65/65
f 67/67/67 69/69/69 64/64/64
f 67/67/67 68/68/68 69/69/69
f 69/69/69 66/66/66 64/64/64
f 68/68/68 70/70/70 69/69/69
f 69/69/69 70/70/70 24/24/24
f 71/71/71 23/23/23 66/66/66
f 71/71/71 24/24/24 23/23/23
f 71/71/71 69/69/69 24/24/24
f 69/69/69 71/71/71 66/66/66
f 74/74/74 73/73/73 72/72/72
f 74/74/74 75/75/75 73/73/73
f 73/73/73 76/76/76 72/72/72
f 72/72/72 76/76/76 77/77/77
f 78/78/78 72/72/72 77/77/77
f 79/79/79 76/76/76 73/73/73
f 77/77/77 76/76/76 79/79/79
f 78/78/78 77/77/77 80/80/80
f 81/81/81 78/78/78 80/80/80
f 81/81/81 80/80/80 82/82/82
f 75/75/75 83/83/83 73/73/73
f 84/84/84 83/83/83 75/75/75
f 85/85/85 84/84/84 75/75/75
f 85/85/85 86/86/86 84/84/84
f 73/73/73 83/83/83 87/87/87
f 87/87/87 83/83/83 84/84/84
f 86/86/86 88/88/88 84/84/84
f 86/86/86 89/89/89 88/88/88
f 90/90/90 79/79/79 73/73/73
f 90/90/90 73/73/73 87/87/87
f 91/91/91 87/87/87 84/84/84
f 91/91/91 84/84/84 88/88/88
f 91/91/91 92/92/92 87/87/87
f 92/92/92 91/91/91 88/88/88
f 92/92/92 88/88/88 93/93/93
f 89/89/89 94/94/94 88/88/88
f 88/88/88 94/94/94 93/93/93
f 89/89/89 95/95/95 94/94/94
f 92/92/92 96/96/96 87/87/87
f 90/90/90 87/87/87 96/96/96
f 92/92/92 93/93/93 96/96/96
f 90/90/90 97/97/97 79/79/79
f 97/97/97 90/90/90 96/96/96
f 97/97/97 96/96/96 98/98/98
f 97/97/97 99/99/99 79/79/79
f 97/97/97 98/98/98 99/99/99
f 93/93/93 100/100/100 96/96/96
f 96/96/96 100/100/100 98/98/98
f 101/101/101 79/79/79 99/99/99
f 101/101/101 77/77/77 79/79/79
f 101/101/101 102/102/102 77/77/77
f 102/102/102 101/101/101 99/99/99
f 102/102/102 99/99/99 103/103/103
f 102/102/102 80/80/80 77/77/77
f 102/102/102 103/103/103 80/80/80
f 104/104/104 100/100/100 93/93/93
f 98/98/98 100/100/100 104/104/104
f 99/99/99 105/105/105 103/103/103
f 98/98/98 105/105/105 99/99/99
f 106/106/106 105/105/105 98/98/98
f 103/103/103 105/105/105 106/106/106
f 103/103/103 107/107/107 80/80/80
f 80/80/80 107/107/107 82/82/82
f 108/108/108 98/98/98 104/104/104
f 108/108/108 106/106/106 98/98/98
f 107/107/107 109/109/109 82/82/82
f 109/109/109 110/110/110 82/82/82
f 109/109/109 111/111/111 110/110/110
f 111/111/111 112/112/112 110/110/110
f 112/112/112 111/111/111 113/113/113
f 113/113/113 111/111/111 109/109/109
f 114/114/114 112/112/112 113/113/113
f 115/115/115 109/109/109 107/107/107
f 115/115/115 113/113/113 109/109/109
f 116/116/116 107/107/107 103/103/103
f 116/116/116 115/115/115 107/107/107
f 114/114/114 113/113/113 117/117/117
f 118/118/118 114/114/114 117/117/117
f 119/119/119 117/117/117 113/113/113
f 118/118/118 117/117/117 119/119/119
f 115/115/115 119/119/119 113/113/113
f 120/120/120 118/118/118 119/119/119
f 121/121/121 119/119/119 115/115/115
f 120/120/120 119/119/119 121/121/121
f 116/116/116 121/121/121 115/115/115
f 122/122/122 120/120/120 121/121/121
f 121/121/121 123/123/123 122/122/122
f 123/123/123 121/121/121 116/116/116
f 123/123/123 124/124/124 122/122/122
f 125/125/125 116/116/116 103/103/103
f 125/125/125 123/123/123 116/116/116
f 125/125/125 103/103/103 106/106/106
f 123/123/123 126/126/126 124/124/124
f 123/123/123 125/125/125 126/126/126
f 125/125/125 106/106/106 126/126/126
f 126/126/126 127/127/127 124/124/124
f 128/128/128 126/126/126 106/106/106
f 126/126/126 128/128/128 127/127/127
f 108/108/108 128/128/128 106/106/106
f 128/128/128 129/129/129 127/127/127
f 128/128/128 108/108/108 130/130/130
f 128/128/128 130/130/130 129/129/129
f 130/130/130 131/131/131 129/129/129
f 108/108/108 104/104/104 130/130/130
f 130/130/130 132/132/132 131/131/131
f 132/132/132 130/130/130 104/104/104
f 132/132/132 133/133/133 131/131/131
f 134/134/134 132/132/132 104/104/104
f 134/134/134 104/104/104 93/93/93
f 132/132/132 135/135/135 133/133/133
f 132/132/132 134/134/134 135/135/135
f 135/135/135 136/136/136 133/133/133
f 134/134/134 93/93/93 137/137/137
f 134/134/134 137/137/137 135/135/135
f 93/93/93 94/94/94 137/137/137
f 135/135/135 138/138/138 136/136/136
f 138/138/138 139/139/139 136/136/136
f 140/140/140 138/138/138 135/135/135
f 139/139/139 138/138/138 140/140/140
f 137/137/137 140/140/140 135/135/135
f 141/141/141 139/139/139 140/140/140
f 141/141/141 140/140/140 95/95/95
f 94/94/94 142/142/142 137/137/137
f 95/95/95 142/142/142 94/94/94
f 140/140/140 142/142/142 95/95/95
f 142/142/142 140/140/140 137/137/137
