g pm0679_00_EyeBSkin
v -5.2043455E-32 0.61543274 0.031343132
v 0.020485742 0.61123055 0.031343132
v 0.019239068 0.6078917 0.03983338
v 0.037958216 0.59980583 0.031343132
v -5.2382773E-32 0.61167115 0.03999263
v 0.017450854 0.5961592 0.04666302
v 0.035568368 0.59741277 0.039676
v -0.019239068 0.6078917 0.039833374
v -0.017450852 0.5961592 0.046662994
v -0.020485742 0.61123055 0.031343132
v -0.037958216 0.59980583 0.031343125
v -0.035568364 0.59741277 0.039675985
v 0.046078127 0.5810938 0.039840862
v 0.034386758 0.5792919 0.04668172
v 0.04940415 0.5823405 0.031343132
v 0.053620495 0.5618547 0.031343132
v 0.029252924 0.59107107 0.045273855
v 0.049878124 0.5618547 0.04000386
v 9.215237E-10 0.59848976 0.047299333
v 3.6860948E-09 0.5816116 0.050336406
v -0.04607812 0.5810938 0.03984086
v -0.03438673 0.5792919 0.046681713
v -0.04940415 0.5823405 0.031343125
v -0.053620495 0.5618547 0.031343132
v -0.029252917 0.59107107 0.04527383
v -0.049878113 0.5618547 0.04000386
v 0.018645281 0.5804452 0.0493837
v 0.019839082 0.5618547 0.050351374
v -0.018645268 0.5804452 0.049383692
v -0.019839063 0.5618547 0.050351374
v -0.046078123 0.5426156 0.03984086
v -0.03438673 0.5444175 0.046681713
v -0.04940416 0.5413689 0.031343125
v -0.037958216 0.52390355 0.031343125
v -0.036758352 0.5618547 0.047331143
v -0.035568364 0.5262966 0.039675985
v 0.036758386 0.5618547 0.047331143
v 0.034386758 0.5444175 0.04668172
v 5.529142E-09 0.5618547 0.05146194
v 3.6860948E-09 0.54209775 0.050336406
v -0.019239068 0.51581764 0.039833374
v -0.017450852 0.52755016 0.046662994
v -0.020485742 0.5124788 0.031343132
v -5.1728816E-32 0.50827664 0.031343132
v -0.029252917 0.5326383 0.04527383
v -0.018645268 0.5432642 0.049383692
v -5.178884E-32 0.51203823 0.03999263
v 0.018645281 0.5432642 0.0493837
v 0.017450854 0.52755016 0.04666302
v 9.215237E-10 0.5252196 0.047299333
v 0.019239068 0.51581764 0.03983338
v 0.020485742 0.5124788 0.031343132
v 0.037958216 0.52390355 0.031343132
v 0.035568368 0.5262966 0.039676
v 0.029252924 0.5326383 0.045273855
v 0.046078134 0.5426156 0.039840862
v 0.04940416 0.5413689 0.031343132
vt 0.3046875 1.9379716
vt 0.374125 1.9314632
vt 0.36370668 1.9182289
vt 0.43342158 1.9120128
vt 0.30468774 1.9237747
vt 0.35656348 1.8986292
vt 0.41472387 1.9026539
vt 0.24566714 1.9182289
vt 0.25281087 1.8986278
vt 0.23525004 1.9314632
vt 0.17595547 1.9120128
vt 0.19465168 1.9026537
vt 0.4459756 1.877161
vt 0.40687144 1.87356
vt 0.47244275 1.8823886
vt 0.48552546 1.8476562
vt 0.39229807 1.8913951
vt 0.45712253 1.8476562
vt 0.3046875 1.9019008
vt 0.3046875 1.8767436
vt 0.16340107 1.877161
vt 0.20250188 1.87356
vt 0.13693237 1.8823886
vt 0.12384725 1.8476562
vt 0.21707751 1.8913951
vt 0.15225112 1.8476562
vt 0.3596962 1.8750706
vt 0.3631115 1.8476562
vt 0.2496794 1.8750706
vt 0.24626315 1.8476562
vt 0.16340137 1.81815
vt 0.20250213 1.8217523
vt 0.13693227 1.812921
vt 0.17595541 1.7832971
vt 0.19585533 1.8476562
vt 0.19465145 1.7926555
vt 0.4135183 1.8476562
vt 0.40687194 1.8217521
vt 0.30468747 1.8476562
vt 0.3046875 1.8185673
vt 0.2456672 1.7770815
vt 0.25281107 1.7966819
vt 0.2352502 1.7638462
vt 0.3046875 1.757338
vt 0.2170772 1.803915
vt 0.24967925 1.8202388
vt 0.30468774 1.7715335
vt 0.3596962 1.8202388
vt 0.35656393 1.7966819
vt 0.3046875 1.7934089
vt 0.3637067 1.7770815
vt 0.374125 1.7638459
vt 0.43342116 1.7832971
vt 0.41472387 1.7926555
vt 0.3922982 1.803915
vt 0.44597554 1.8181503
vt 0.47244275 1.812921
vn -1.2916594E-07 0.8344828 0.55103403
vn 0.32185343 0.77236885 0.5475916
vn 0.27452886 0.63978904 0.7178467
vn 0.59399545 0.59463567 0.5418283
vn -1.9478641E-07 0.68720293 0.7264654
vn 0.19591859 0.3905401 0.8994968
vn 0.5023789 0.5031658 0.7031639
vn -0.2745289 0.63978887 0.7178468
vn -0.19591878 0.39054006 0.8994967
vn -0.32185355 0.7723686 0.547592
vn -0.59399545 0.59463537 0.5418286
vn -0.5023789 0.5031658 0.70316404
vn 0.63996613 0.27550974 0.7173129
vn 0.39021283 0.1968995 0.89942455
vn 0.7726005 0.32267058 0.5467834
vn 0.8352274 2.5842215E-07 0.54990476
vn 0.36089694 0.36183977 0.8595496
vn 0.68795216 2.5984687E-07 0.72575605
vn -1.8995904E-07 0.40502217 0.9143068
vn -1.8365746E-07 0.16476707 0.9863325
vn -0.63996613 0.27550974 0.7173129
vn -0.3902129 0.19689988 0.89942443
vn -0.7726004 0.32267067 0.54678345
vn -0.8352271 2.5842215E-07 0.5499051
vn -0.36089703 0.36183986 0.85954946
vn -0.6879518 3.8977035E-07 0.72575647
vn 0.1694927 0.17014891 0.97073245
vn 0.1643025 1.2245935E-07 0.98640996
vn -0.1694929 0.17014901 0.97073245
vn -0.16430253 2.4491868E-07 0.98640996
vn -0.639966 -0.27550924 0.7173132
vn -0.3902126 -0.19689928 0.89942473
vn -0.7726006 -0.32267046 0.5467835
vn -0.5939958 -0.59463614 0.5418273
vn -0.40510893 3.8011152E-07 0.9142684
vn -0.502379 -0.503166 0.7031636
vn 0.4051092 1.2670388E-07 0.91426826
vn 0.39021292 -0.19689927 0.89942455
vn -0 1.2116477E-07 1
vn -0 -0.1647666 0.9863326
vn -0.27452922 -0.6397899 0.71784586
vn -0.19591872 -0.39053977 0.8994968
vn -0.32185388 -0.7723705 0.5475892
vn -1.2916603E-07 -0.8344848 0.5510308
vn -0.3608969 -0.36183944 0.85954976
vn -0.16949275 -0.17014863 0.97073257
vn -1.9478661E-07 -0.6872042 0.7264643
vn 0.16949275 -0.17014855 0.97073257
vn 0.19591877 -0.39053985 0.8994968
vn -1.8995908E-07 -0.40502185 0.91430694
vn 0.2745291 -0.6397899 0.71784586
vn 0.32185373 -0.77237046 0.54758936
vn 0.5939958 -0.5946361 0.5418274
vn 0.5023791 -0.50316596 0.70316374
vn 0.360897 -0.36183944 0.85954964
vn 0.63996637 -0.27550915 0.7173129
vn 0.7726007 -0.3226703 0.5467834
g pm0679_00_EyeBSkin_0
f 3/3/3 2/2/2 1/1/1
f 4/4/4 2/2/2 3/3/3
f 5/5/5 3/3/3 1/1/1
f 6/6/6 3/3/3 5/5/5
f 7/7/7 4/4/4 3/3/3
f 7/7/7 3/3/3 6/6/6
f 5/5/5 1/1/1 8/8/8
f 5/5/5 8/8/8 9/9/9
f 1/1/1 10/10/10 8/8/8
f 8/8/8 10/10/10 11/11/11
f 12/12/12 8/8/8 11/11/11
f 9/9/9 8/8/8 12/12/12
f 7/7/7 13/13/13 4/4/4
f 14/14/14 13/13/13 7/7/7
f 13/13/13 15/15/15 4/4/4
f 16/16/16 15/15/15 13/13/13
f 17/17/17 7/7/7 6/6/6
f 17/17/17 14/14/14 7/7/7
f 17/17/17 6/6/6 14/14/14
f 18/18/18 16/16/16 13/13/13
f 18/18/18 13/13/13 14/14/14
f 19/19/19 6/6/6 5/5/5
f 19/19/19 5/5/5 9/9/9
f 19/19/19 20/20/20 6/6/6
f 19/19/19 9/9/9 20/20/20
f 12/12/12 11/11/11 21/21/21
f 12/12/12 21/21/21 22/22/22
f 11/11/11 23/23/23 21/21/21
f 21/21/21 23/23/23 24/24/24
f 25/25/25 9/9/9 12/12/12
f 25/25/25 12/12/12 22/22/22
f 25/25/25 22/22/22 9/9/9
f 26/26/26 21/21/21 24/24/24
f 22/22/22 21/21/21 26/26/26
f 6/6/6 27/27/27 14/14/14
f 20/20/20 27/27/27 6/6/6
f 14/14/14 27/27/27 28/28/28
f 28/28/28 27/27/27 20/20/20
f 22/22/22 29/29/29 9/9/9
f 9/9/9 29/29/29 20/20/20
f 30/30/30 29/29/29 22/22/22
f 20/20/20 29/29/29 30/30/30
f 26/26/26 24/24/24 31/31/31
f 26/26/26 31/31/31 32/32/32
f 24/24/24 33/33/33 31/31/31
f 31/31/31 33/33/33 34/34/34
f 35/35/35 22/22/22 26/26/26
f 35/35/35 30/30/30 22/22/22
f 35/35/35 26/26/26 32/32/32
f 35/35/35 32/32/32 30/30/30
f 36/36/36 31/31/31 34/34/34
f 32/32/32 31/31/31 36/36/36
f 37/37/37 14/14/14 28/28/28
f 37/37/37 28/28/28 38/38/38
f 37/37/37 18/18/18 14/14/14
f 37/37/37 38/38/38 18/18/18
f 39/39/39 28/28/28 20/20/20
f 39/39/39 20/20/20 30/30/30
f 39/39/39 40/40/40 28/28/28
f 39/39/39 30/30/30 40/40/40
f 36/36/36 34/34/34 41/41/41
f 36/36/36 41/41/41 42/42/42
f 34/34/34 43/43/43 41/41/41
f 41/41/41 43/43/43 44/44/44
f 45/45/45 32/32/32 36/36/36
f 45/45/45 36/36/36 42/42/42
f 45/45/45 42/42/42 32/32/32
f 32/32/32 46/46/46 30/30/30
f 30/30/30 46/46/46 40/40/40
f 42/42/42 46/46/46 32/32/32
f 40/40/40 46/46/46 42/42/42
f 47/47/47 41/41/41 44/44/44
f 42/42/42 41/41/41 47/47/47
f 40/40/40 48/48/48 28/28/28
f 49/49/49 48/48/48 40/40/40
f 28/28/28 48/48/48 38/38/38
f 38/38/38 48/48/48 49/49/49
f 50/50/50 40/40/40 42/42/42
f 50/50/50 42/42/42 47/47/47
f 50/50/50 49/49/49 40/40/40
f 50/50/50 47/47/47 49/49/49
f 47/47/47 44/44/44 51/51/51
f 47/47/47 51/51/51 49/49/49
f 44/44/44 52/52/52 51/51/51
f 51/51/51 52/52/52 53/53/53
f 49/49/49 51/51/51 54/54/54
f 54/54/54 51/51/51 53/53/53
f 55/55/55 38/38/38 49/49/49
f 55/55/55 49/49/49 54/54/54
f 55/55/55 54/54/54 38/38/38
f 54/54/54 53/53/53 56/56/56
f 54/54/54 56/56/56 38/38/38
f 53/53/53 57/57/57 56/56/56
f 38/38/38 56/56/56 18/18/18
f 56/56/56 57/57/57 16/16/16
f 18/18/18 56/56/56 16/16/16
