g pm0694_00_FaceSkin
v 2.5424217E-18 -0.03360175 0.3711995
v -0.022205578 -0.023671925 0.38573945
v 2.0371248E-18 -0.024763646 0.3857406
v -0.024187721 -0.032038406 0.37119445
v 2.2517192E-18 -0.04132759 0.35240012
v -0.043561578 -0.017911792 0.38572523
v -0.02599628 -0.039723992 0.35219878
v 2.8900432E-19 -0.045164037 0.3316069
v -0.047130078 -0.026278742 0.37123978
v -0.06323623 -0.008398228 0.38571128
v -0.02764262 -0.043248266 0.3314299
v -4.538505E-19 -0.04626235 0.30931774
v -0.050471958 -0.032835975 0.35200062
v -0.068575256 -0.016003221 0.3711029
v -0.08067373 0.004855502 0.38587227
v -0.02815505 -0.044475026 0.30924863
v 7.425102E-19 -0.045083027 0.28921655
v -0.052613504 -0.036385953 0.33119097
v -0.073650084 -0.022946652 0.35183173
v -0.08767855 -0.0021871612 0.3710904
v -0.09463965 0.022389317 0.38571113
v -0.10309115 0.0167076 0.37108713
v -0.09397211 -0.008395041 0.35212365
v -0.11112841 0.011248006 0.3521591
v -0.07633433 -0.026089907 0.3313052
v -0.09756214 -0.0118367635 0.33106253
v -0.11534904 0.008375139 0.3310885
v -0.053670242 -0.03772535 0.30916616
v -0.07753585 -0.027938396 0.3092372
v -0.09896207 -0.013291101 0.30899346
v -0.11680766 0.0069834827 0.30906603
v -0.09744369 -0.011707746 0.28757936
v -0.11447686 0.00771334 0.28707048
v -0.10684727 0.012253571 0.26472145
v -0.027758097 -0.042835336 0.28876153
v -0.053100534 -0.036225818 0.28866026
v -0.026764248 -0.03847506 0.2703355
v -4.687401E-19 -0.040839374 0.2702103
v -0.051777966 -0.031761862 0.26904663
v -0.0764642 -0.026159119 0.28800935
v -0.09096408 -0.004698923 0.26181832
v -0.0965563 0.017197853 0.24920855
v -0.08459108 -0.00014676555 0.25051588
v -0.07128995 -0.01845232 0.26013488
v -0.069104366 -0.0151030505 0.25300965
v 2.5424217E-18 -0.03360175 0.3711995
v 2.0371248E-18 -0.024763646 0.3857406
v 0.022205578 -0.023671925 0.38573945
v 0.024187721 -0.032038406 0.37119445
v 2.2517192E-18 -0.04132759 0.35240012
v 0.043561578 -0.017911792 0.38572523
v 0.02599628 -0.039723992 0.35219878
v 2.8900432E-19 -0.045164037 0.3316069
v 0.047130078 -0.026278742 0.37123978
v 0.06323623 -0.008398228 0.38571128
v 0.02764262 -0.043248266 0.3314299
v -4.538505E-19 -0.04626235 0.30931774
v 0.050471958 -0.032835975 0.35200062
v 0.068575256 -0.016003221 0.3711029
v 0.08067373 0.004855502 0.38587227
v 0.02815505 -0.044475026 0.30924863
v 7.425102E-19 -0.045083027 0.28921655
v 0.052613504 -0.036385953 0.33119097
v 0.073650084 -0.022946652 0.35183173
v 0.08767855 -0.0021871612 0.3710904
v 0.09463965 0.022389317 0.38571113
v 0.10309115 0.0167076 0.37108713
v 0.09397211 -0.008395041 0.35212365
v 0.11112841 0.011248006 0.3521591
v 0.07633433 -0.026089907 0.3313052
v 0.09756214 -0.0118367635 0.33106253
v 0.11534904 0.008375139 0.3310885
v 0.053670242 -0.03772535 0.30916616
v 0.07753585 -0.027938396 0.3092372
v 0.09896207 -0.013291101 0.30899346
v 0.11680766 0.0069834827 0.30906603
v 0.09744369 -0.011707746 0.28757936
v 0.11447686 0.00771334 0.28707048
v 0.10684727 0.012253571 0.26472145
v 0.027758097 -0.042835336 0.28876153
v 0.053100534 -0.036225818 0.28866026
v 0.026764248 -0.03847506 0.2703355
v -4.687401E-19 -0.040839374 0.2702103
v 0.051777966 -0.031761862 0.26904663
v 0.0764642 -0.026159119 0.28800935
v 0.09096408 -0.004698923 0.26181832
v 0.0965563 0.017197853 0.24920855
v 0.08459108 -0.00014676555 0.25051588
v 0.07128995 -0.01845232 0.26013488
v 0.069104366 -0.0151030505 0.25300965
v -0.06483992 0.010549384 0.22965956
v -0.04696199 0.020902527 0.21874243
v -0.06734038 0.024556119 0.22559032
v -0.046627212 0.005696561 0.22490326
v -0.06187682 -0.0013621156 0.23452556
v -0.023980396 0.0020360136 0.22140612
v -0.023732308 -0.009506617 0.22859289
v -0.023650812 0.016983218 0.21467988
v -3.9108156E-18 0.015455397 0.2136283
v -3.3922282E-18 0.0008255572 0.22021087
v -2.6616823E-18 -0.01094075 0.22747122
v -9.838878E-19 -0.025176577 0.24176776
v -0.04644023 -0.0062517473 0.23141204
v -0.0472169 -0.01743028 0.24159338
v -0.06466246 -0.007702091 0.2418309
v -0.069104366 -0.0151030505 0.25300965
v -0.024618179 -0.023149416 0.24185035
v -0.04951775 -0.025834715 0.25437653
v -0.051777966 -0.031761862 0.26904663
v -0.025662603 -0.032413036 0.25580147
v -3.8353082E-19 -0.034632824 0.2557233
v -0.026764248 -0.03847506 0.2703355
v -4.687401E-19 -0.040839374 0.2702103
v 0.06483992 0.010549384 0.22965956
v 0.06734038 0.024556119 0.22559032
v 0.04696199 0.020902527 0.21874243
v 0.046627212 0.005696561 0.22490326
v 0.06187682 -0.0013621156 0.23452556
v 0.023980396 0.0020360136 0.22140612
v 0.023732308 -0.009506617 0.22859289
v 0.023650812 0.016983218 0.21467988
v -3.9108156E-18 0.015455397 0.2136283
v -3.3922282E-18 0.0008255572 0.22021087
v -2.6616823E-18 -0.01094075 0.22747122
v -9.838878E-19 -0.025176577 0.24176776
v 0.04644023 -0.0062517473 0.23141204
v 0.0472169 -0.01743028 0.24159338
v 0.06466246 -0.007702091 0.2418309
v 0.069104366 -0.0151030505 0.25300965
v 0.024618179 -0.023149416 0.24185035
v 0.04951775 -0.025834715 0.25437653
v 0.051777966 -0.031761862 0.26904663
v 0.025662603 -0.032413036 0.25580147
v -3.8353082E-19 -0.034632824 0.2557233
v 0.026764248 -0.03847506 0.2703355
v -4.687401E-19 -0.040839374 0.2702103
vt 0 1.9620929
vt 0.08121276 1.9923968
vt 0 1.9923968
vt 0.08317304 1.9620929
vt 0 1.9279854
vt 0.16323769 1.9923968
vt 0.084447265 1.9279854
vt 0 1.8945312
vt 0.16454744 1.9620929
vt 0.24482274 1.9923968
vt 0.08732176 1.8945312
vt 0 1.8597054
vt 0.16681218 1.9279854
vt 0.24647498 1.9620929
vt 0.32706165 1.9923968
vt 0.08803046 1.8597054
vt 0 1.8282754
vt 0.1685481 1.8945312
vt 0.24808192 1.9279854
vt 0.32762074 1.9620929
vt 0.40991437 1.9923968
vt 0.41155386 1.9620929
vt 0.32822108 1.9279854
vt 0.411821 1.9279854
vt 0.2491504 1.8945312
vt 0.32826304 1.8945312
vt 0.41214168 1.8945312
vt 0.16960526 1.8597054
vt 0.24835908 1.8597054
vt 0.32691693 1.8597054
vt 0.40981853 1.8597054
vt 0.32438028 1.8269455
vt 0.40324926 1.8242865
vt 0.39262617 1.7869825
vt 0.087830424 1.8278246
vt 0.16934931 1.8281102
vt 0.08772111 1.7977242
vt 0 1.7971356
vt 0.17069578 1.7965512
vt 0.24721003 1.8276055
vt 0.3198235 1.7847347
vt 0.38102162 1.7572258
vt 0.3134334 1.7632577
vt 0.24472976 1.7821684
vt 0.24460626 1.7690184
vt 0 1.9620929
vt 0 1.9923968
vt 0.08121276 1.9923968
vt 0.08317304 1.9620929
vt 0 1.9279854
vt 0.16323757 1.9923968
vt 0.084447384 1.9279854
vt 0 1.8945312
vt 0.16454744 1.9620929
vt 0.24482274 1.9923968
vt 0.08732176 1.8945312
vt 0 1.8597054
vt 0.16681218 1.9279854
vt 0.24647498 1.9620929
vt 0.32706165 1.9923968
vt 0.08803034 1.8597054
vt 0 1.8282754
vt 0.1685481 1.8945312
vt 0.24808192 1.9279854
vt 0.32762074 1.9620929
vt 0.40991426 1.9923968
vt 0.41155386 1.9620929
vt 0.32822108 1.9279854
vt 0.4118209 1.9279854
vt 0.24915028 1.8945312
vt 0.32826304 1.8945312
vt 0.4121418 1.8945312
vt 0.16960526 1.8597054
vt 0.24835896 1.8597054
vt 0.32691693 1.8597054
vt 0.4098184 1.8597054
vt 0.3243804 1.8269455
vt 0.40324926 1.8242865
vt 0.3926263 1.7869825
vt 0.08783054 1.8278246
vt 0.1693492 1.8281102
vt 0.08772111 1.7977245
vt 0 1.7971356
vt 0.17069578 1.7965512
vt 0.24721003 1.8276055
vt 0.3198235 1.7847347
vt 0.3810215 1.7572258
vt 0.3134334 1.7632575
vt 0.24472952 1.7821684
vt 0.24460602 1.7690182
vt 0.3831876 2.8019922
vt 0.2817285 2.756853
vt 0.4079129 2.7608504
vt 0.27193654 2.804169
vt 0.35983926 2.838765
vt 0.13841498 2.8050532
vt 0.13475978 2.8436472
vt 0.14051104 2.7574203
vt 0 2.758414
vt 0 2.805085
vt 0 2.8442729
vt 0 2.9008927
vt 0.2659762 2.842899
vt 0.26888394 2.8857
vt 0.37634546 2.867212
vt 0.40409684 2.9060884
vt 0.13885069 2.8971891
vt 0.2842207 2.9288058
vt 0.3040583 2.9736376
vt 0.14640856 2.9444299
vt 0 2.9484353
vt 0.15659583 2.9895484
vt 0 2.9937747
vt 0.38318777 2.8019922
vt 0.40791273 2.7608504
vt 0.2817285 2.756853
vt 0.27193642 2.804169
vt 0.35983944 2.838765
vt 0.13841486 2.8050532
vt 0.1347599 2.8436472
vt 0.14051104 2.7574203
vt 0 2.758414
vt 0 2.805085
vt 0 2.8442729
vt 0 2.9008927
vt 0.2659762 2.842899
vt 0.26888394 2.8857
vt 0.37634563 2.867212
vt 0.40409684 2.9060884
vt 0.13885069 2.8971891
vt 0.2842207 2.9288058
vt 0.3040583 2.9736376
vt 0.14640856 2.9444299
vt 0 2.9484353
vt 0.1565957 2.9895484
vt 0 2.9937747
vn -0.0012274946 -0.9590285 0.28330678
vn -0.16544004 -0.9003277 0.4025413
vn 0.0024892075 -0.915302 0.40276065
vn -0.17785129 -0.94274086 0.28215018
vn -0.001946441 -0.9888552 0.14886773
vn -0.32228935 -0.8575726 0.40087238
vn -0.18562609 -0.9714054 0.14803578
vn 0.0007462535 -0.9999701 0.0076997885
vn -0.34020773 -0.8972831 0.2813216
vn -0.4649034 -0.78915024 0.4013809
vn -0.18741006 -0.98225635 0.0070572332
vn 0.0015509056 -0.9906481 -0.13643259
vn -0.3538691 -0.92374027 0.14656247
vn -0.4905763 -0.82493913 0.28073177
vn -0.5932231 -0.6962681 0.40410033
vn -0.18745108 -0.97266644 -0.13704816
vn -8.5279826E-05 -0.96279603 -0.27022895
vn -0.36166456 -0.93228716 0.0062845475
vn -0.5095525 -0.84793395 0.14616536
vn -0.6263856 -0.7266569 0.2821537
vn -0.70417225 -0.57928264 0.41057667
vn -0.7448309 -0.6033921 0.28485936
vn -0.649475 -0.7462312 0.14601797
vn -0.7720473 -0.6181538 0.14774613
vn -0.5179212 -0.85540974 0.005647335
vn -0.65891546 -0.7521961 0.005621428
vn -0.78260165 -0.622497 0.005654087
vn -0.35976124 -0.92297184 -0.13672864
vn -0.5144486 -0.8465393 -0.13679825
vn -0.6531897 -0.74463487 -0.1373394
vn -0.7747949 -0.6167697 -0.1388815
vn -0.63159823 -0.7220241 -0.2824267
vn -0.7478532 -0.6006141 -0.2828043
vn -0.70071447 -0.57335204 -0.42457813
vn -0.18337467 -0.94533867 -0.26964524
vn -0.3502105 -0.896537 -0.27124533
vn -0.1753979 -0.9054748 -0.38645968
vn -0.0013711686 -0.9227658 -0.3853587
vn -0.3528074 -0.8381814 -0.41590723
vn -0.4975783 -0.82003903 -0.28275755
vn -0.59355944 -0.6853137 -0.42193878
vn -0.6416034 -0.55133486 -0.53326815
vn -0.55235493 -0.6550342 -0.5155912
vn -0.47171253 -0.77990264 -0.4113869
vn -0.4278266 -0.7619496 -0.48620686
vn -0.0012274946 -0.9590285 0.28330678
vn 0.0024892075 -0.915302 0.40276065
vn 0.1692098 -0.89974403 0.40227926
vn 0.1744934 -0.9433167 0.28232202
vn -0.001946441 -0.9888552 0.14886773
vn 0.32227784 -0.8575771 0.40087217
vn 0.18283732 -0.9719221 0.14811459
vn 0.0007462535 -0.9999701 0.0076997885
vn 0.34019902 -0.8972864 0.2813214
vn 0.46489155 -0.78915715 0.40138108
vn 0.18978041 -0.9818013 0.0070538432
vn 0.0015509056 -0.9906481 -0.13643259
vn 0.3538658 -0.9237416 0.14656273
vn 0.49056715 -0.8249446 0.28073165
vn 0.5932126 -0.696277 0.40410033
vn 0.18930596 -0.972314 -0.13699873
vn -8.5279826E-05 -0.96279603 -0.27022895
vn 0.3616646 -0.93228716 0.006284668
vn 0.50954896 -0.84793603 0.14616549
vn 0.6263772 -0.7266641 0.2821537
vn 0.7041634 -0.5792934 0.41057664
vn 0.7448244 -0.6034003 0.2848592
vn 0.6494719 -0.74623394 0.14601795
vn 0.772045 -0.6181567 0.14774603
vn 0.51792127 -0.85540974 0.0056473347
vn 0.6589156 -0.7521959 0.0056215483
vn 0.7826018 -0.62249696 0.005654087
vn 0.3597662 -0.92296994 -0.13672863
vn 0.51445377 -0.84653616 -0.13679826
vn 0.65319395 -0.7446312 -0.13733932
vn 0.7747976 -0.61676633 -0.13888137
vn 0.63160807 -0.7220155 -0.2824266
vn 0.7478608 -0.6006048 -0.28280404
vn 0.70072407 -0.5733407 -0.4245778
vn 0.1821464 -0.9455581 -0.26970848
vn 0.3502207 -0.89653295 -0.27124548
vn 0.17461737 -0.9056019 -0.38651496
vn -0.0013711686 -0.9227658 -0.3853587
vn 0.3528218 -0.83817524 -0.41590738
vn 0.49758852 -0.8200328 -0.28275755
vn 0.59356964 -0.6853049 -0.42193875
vn 0.6416161 -0.5513199 -0.5332684
vn 0.5523659 -0.65502524 -0.5155908
vn 0.4717259 -0.77989453 -0.41138682
vn 0.427842 -0.76194113 -0.48620665
vn -0.42973152 -0.61490357 -0.6612295
vn -0.32639557 -0.5520921 -0.7672419
vn -0.46578473 -0.5296101 -0.70891315
vn -0.31311685 -0.63637984 -0.704967
vn -0.39662376 -0.67097074 -0.6264884
vn -0.16085918 -0.6642245 -0.7300207
vn -0.160087 -0.7338156 -0.6602172
vn -0.1652793 -0.5815703 -0.7965292
vn 0.002532677 -0.59461045 -0.8040099
vn 0.0011084481 -0.6739425 -0.73878294
vn 0.0005742956 -0.7445197 -0.6676002
vn -0.0004472978 -0.8167735 -0.57695836
vn -0.30131608 -0.7045961 -0.6424585
vn -0.30653927 -0.76270634 -0.56948465
vn -0.42144445 -0.70505786 -0.5703315
vn -0.4278266 -0.7619496 -0.48620686
vn -0.16040614 -0.802557 -0.57460606
vn -0.31893393 -0.81364316 -0.48607212
vn -0.3528074 -0.8381814 -0.41590723
vn -0.16726412 -0.8595384 -0.482925
vn -0.00035133815 -0.87591755 -0.48246062
vn -0.1753979 -0.9054748 -0.38645968
vn -0.0013711686 -0.9227658 -0.3853587
vn 0.42974457 -0.61489475 -0.6612291
vn 0.46579722 -0.5295992 -0.708913
vn 0.3264207 -0.552079 -0.7672407
vn 0.31313404 -0.6363726 -0.70496595
vn 0.39664078 -0.6709609 -0.62648827
vn 0.16223128 -0.66407 -0.72985756
vn 0.15912895 -0.7339283 -0.66032344
vn 0.16707358 -0.5813868 -0.7962888
vn 0.002532677 -0.59461045 -0.8040099
vn 0.0011084481 -0.6739425 -0.73878294
vn 0.0005742956 -0.7445197 -0.6676002
vn -0.0004472978 -0.8167735 -0.57695836
vn 0.301338 -0.70458686 -0.6424583
vn 0.30655894 -0.7626984 -0.5694846
vn 0.42146605 -0.7050453 -0.57033116
vn 0.427842 -0.76194113 -0.48620665
vn 0.16116188 -0.8024552 -0.57453674
vn 0.31895426 -0.81363505 -0.48607224
vn 0.3528218 -0.83817524 -0.41590738
vn 0.16664279 -0.8596291 -0.48297822
vn -0.00035133815 -0.87591755 -0.48246062
vn 0.17461737 -0.9056019 -0.38651496
vn -0.0013711686 -0.9227658 -0.3853587
g pm0694_00_FaceSkin_0
f 3/3/3 2/2/2 1/1/1
f 2/2/2 4/4/4 1/1/1
f 1/1/1 4/4/4 5/5/5
f 2/2/2 6/6/6 4/4/4
f 4/4/4 7/7/7 5/5/5
f 5/5/5 7/7/7 8/8/8
f 6/6/6 9/9/9 4/4/4
f 4/4/4 9/9/9 7/7/7
f 6/6/6 10/10/10 9/9/9
f 7/7/7 11/11/11 8/8/8
f 8/8/8 11/11/11 12/12/12
f 9/9/9 13/13/13 7/7/7
f 7/7/7 13/13/13 11/11/11
f 10/10/10 14/14/14 9/9/9
f 9/9/9 14/14/14 13/13/13
f 10/10/10 15/15/15 14/14/14
f 11/11/11 16/16/16 12/12/12
f 17/17/17 12/12/12 16/16/16
f 13/13/13 18/18/18 11/11/11
f 11/11/11 18/18/18 16/16/16
f 14/14/14 19/19/19 13/13/13
f 13/13/13 19/19/19 18/18/18
f 15/15/15 20/20/20 14/14/14
f 14/14/14 20/20/20 19/19/19
f 15/15/15 21/21/21 20/20/20
f 21/21/21 22/22/22 20/20/20
f 20/20/20 22/22/22 23/23/23
f 20/20/20 23/23/23 19/19/19
f 22/22/22 24/24/24 23/23/23
f 19/19/19 25/25/25 18/18/18
f 19/19/19 23/23/23 25/25/25
f 23/23/23 24/24/24 26/26/26
f 23/23/23 26/26/26 25/25/25
f 24/24/24 27/27/27 26/26/26
f 18/18/18 28/28/28 16/16/16
f 18/18/18 25/25/25 28/28/28
f 25/25/25 26/26/26 29/29/29
f 25/25/25 29/29/29 28/28/28
f 26/26/26 27/27/27 30/30/30
f 26/26/26 30/30/30 29/29/29
f 27/27/27 31/31/31 30/30/30
f 32/32/32 30/30/30 31/31/31
f 29/29/29 30/30/30 32/32/32
f 33/33/33 32/32/32 31/31/31
f 33/33/33 34/34/34 32/32/32
f 35/35/35 16/16/16 28/28/28
f 35/35/35 17/17/17 16/16/16
f 36/36/36 28/28/28 29/29/29
f 36/36/36 35/35/35 28/28/28
f 35/35/35 37/37/37 17/17/17
f 37/37/37 38/38/38 17/17/17
f 37/37/37 35/35/35 39/39/39
f 35/35/35 36/36/36 39/39/39
f 40/40/40 36/36/36 29/29/29
f 40/40/40 29/29/29 32/32/32
f 36/36/36 40/40/40 39/39/39
f 34/34/34 41/41/41 32/32/32
f 40/40/40 32/32/32 41/41/41
f 34/34/34 42/42/42 41/41/41
f 42/42/42 43/43/43 41/41/41
f 40/40/40 44/44/44 39/39/39
f 44/44/44 40/40/40 41/41/41
f 41/41/41 43/43/43 44/44/44
f 39/39/39 44/44/44 45/45/45
f 43/43/43 45/45/45 44/44/44
f 48/48/48 47/47/47 46/46/46
f 49/49/49 48/48/48 46/46/46
f 49/49/49 46/46/46 50/50/50
f 51/51/51 48/48/48 49/49/49
f 52/52/52 49/49/49 50/50/50
f 52/52/52 50/50/50 53/53/53
f 54/54/54 51/51/51 49/49/49
f 54/54/54 49/49/49 52/52/52
f 55/55/55 51/51/51 54/54/54
f 56/56/56 52/52/52 53/53/53
f 56/56/56 53/53/53 57/57/57
f 58/58/58 54/54/54 52/52/52
f 58/58/58 52/52/52 56/56/56
f 59/59/59 55/55/55 54/54/54
f 59/59/59 54/54/54 58/58/58
f 60/60/60 55/55/55 59/59/59
f 61/61/61 56/56/56 57/57/57
f 57/57/57 62/62/62 61/61/61
f 63/63/63 58/58/58 56/56/56
f 63/63/63 56/56/56 61/61/61
f 64/64/64 59/59/59 58/58/58
f 64/64/64 58/58/58 63/63/63
f 65/65/65 60/60/60 59/59/59
f 65/65/65 59/59/59 64/64/64
f 66/66/66 60/60/60 65/65/65
f 67/67/67 66/66/66 65/65/65
f 67/67/67 65/65/65 68/68/68
f 68/68/68 65/65/65 64/64/64
f 69/69/69 67/67/67 68/68/68
f 70/70/70 64/64/64 63/63/63
f 68/68/68 64/64/64 70/70/70
f 69/69/69 68/68/68 71/71/71
f 71/71/71 68/68/68 70/70/70
f 72/72/72 69/69/69 71/71/71
f 73/73/73 63/63/63 61/61/61
f 70/70/70 63/63/63 73/73/73
f 71/71/71 70/70/70 74/74/74
f 74/74/74 70/70/70 73/73/73
f 72/72/72 71/71/71 75/75/75
f 75/75/75 71/71/71 74/74/74
f 76/76/76 72/72/72 75/75/75
f 75/75/75 77/77/77 76/76/76
f 75/75/75 74/74/74 77/77/77
f 77/77/77 78/78/78 76/76/76
f 79/79/79 78/78/78 77/77/77
f 73/73/73 61/61/61 80/80/80
f 62/62/62 80/80/80 61/61/61
f 73/73/73 81/81/81 74/74/74
f 81/81/81 73/73/73 80/80/80
f 82/82/82 80/80/80 62/62/62
f 83/83/83 82/82/82 62/62/62
f 80/80/80 82/82/82 84/84/84
f 81/81/81 80/80/80 84/84/84
f 81/81/81 85/85/85 74/74/74
f 74/74/74 85/85/85 77/77/77
f 85/85/85 81/81/81 84/84/84
f 86/86/86 79/79/79 77/77/77
f 77/77/77 85/85/85 86/86/86
f 87/87/87 79/79/79 86/86/86
f 88/88/88 87/87/87 86/86/86
f 89/89/89 85/85/85 84/84/84
f 85/85/85 89/89/89 86/86/86
f 88/88/88 86/86/86 89/89/89
f 90/90/90 89/89/89 84/84/84
f 90/90/90 88/88/88 89/89/89
g pm0694_00_FaceSkin_1
f 93/93/93 92/92/92 91/91/91
f 92/92/92 94/94/94 91/91/91
f 91/91/91 94/94/94 95/95/95
f 96/96/96 94/94/94 92/92/92
f 96/96/96 97/97/97 94/94/94
f 98/98/98 96/96/96 92/92/92
f 98/98/98 99/99/99 96/96/96
f 99/99/99 100/100/100 96/96/96
f 96/96/96 100/100/100 97/97/97
f 100/100/100 101/101/101 97/97/97
f 97/97/97 101/101/101 102/102/102
f 94/94/94 103/103/103 95/95/95
f 97/97/97 103/103/103 94/94/94
f 95/95/95 103/103/103 104/104/104
f 104/104/104 103/103/103 97/97/97
f 105/105/105 95/95/95 104/104/104
f 106/106/106 105/105/105 104/104/104
f 107/107/107 97/97/97 102/102/102
f 107/107/107 104/104/104 97/97/97
f 108/108/108 106/106/106 104/104/104
f 104/104/104 107/107/107 108/108/108
f 106/106/106 108/108/108 109/109/109
f 107/107/107 102/102/102 110/110/110
f 107/107/107 110/110/110 108/108/108
f 109/109/109 108/108/108 110/110/110
f 102/102/102 111/111/111 110/110/110
f 112/112/112 109/109/109 110/110/110
f 110/110/110 111/111/111 113/113/113
f 112/112/112 110/110/110 113/113/113
f 116/116/116 115/115/115 114/114/114
f 117/117/117 116/116/116 114/114/114
f 117/117/117 114/114/114 118/118/118
f 117/117/117 119/119/119 116/116/116
f 120/120/120 119/119/119 117/117/117
f 119/119/119 121/121/121 116/116/116
f 122/122/122 121/121/121 119/119/119
f 123/123/123 122/122/122 119/119/119
f 123/123/123 119/119/119 120/120/120
f 124/124/124 123/123/123 120/120/120
f 124/124/124 120/120/120 125/125/125
f 126/126/126 117/117/117 118/118/118
f 126/126/126 120/120/120 117/117/117
f 126/126/126 118/118/118 127/127/127
f 126/126/126 127/127/127 120/120/120
f 118/118/118 128/128/128 127/127/127
f 128/128/128 129/129/129 127/127/127
f 120/120/120 130/130/130 125/125/125
f 127/127/127 130/130/130 120/120/120
f 129/129/129 131/131/131 127/127/127
f 130/130/130 127/127/127 131/131/131
f 132/132/132 131/131/131 129/129/129
f 125/125/125 130/130/130 133/133/133
f 133/133/133 130/130/130 131/131/131
f 131/131/131 132/132/132 133/133/133
f 134/134/134 125/125/125 133/133/133
f 132/132/132 135/135/135 133/133/133
f 134/134/134 133/133/133 136/136/136
f 133/133/133 135/135/135 136/136/136
