g pm0676_15_Eye46Skin
v 0.08954439 0.97807217 0.4784674
v 0.0951954 0.9861677 0.49307325
v 0.08726063 0.9880602 0.48797527
v 0.07846585 0.99556106 0.50195736
v 0.086971045 0.9941337 0.50666726
v 0.06874101 0.9978453 0.5194516
v 0.09909585 0.97720295 0.48369893
v 0.10385905 0.9734084 0.49750668
v 0.09907112 0.9829549 0.5065185
v 0.1029745 0.978323 0.46566
v 0.09568338 0.9789829 0.46271262
v 0.106184416 0.97816014 0.45289576
v 0.10173358 0.9790022 0.44943622
v 0.10666498 0.9763723 0.449893
v 0.10290412 0.97733396 0.44703242
v 0.10748087 0.9721937 0.46298248
v 0.10645369 0.9730699 0.45040774
v 0.102230124 0.9733496 0.44682539
v 0.10428546 0.96770513 0.45796627
v 0.098210506 0.9669817 0.4549516
v 0.09959732 0.95922565 0.47301966
v 0.09267134 0.9583057 0.46846816
v 0.10634331 0.9658217 0.47902265
v 0.09744666 0.9562371 0.47883514
v 0.090983845 0.95587075 0.47511232
v 0.10533857 0.96347827 0.48845086
v 0.0901076 0.95803386 0.5023744
v 0.08246374 0.9555172 0.4964637
v 0.10098708 0.9641282 0.5136209
v 0.07866733 0.95460254 0.5291723
v 0.07059836 0.951331 0.5231888
v 0.069537155 0.9425976 0.5473349
v 0.05977447 0.93888897 0.54087204
v 0.08882034 0.9606412 0.5377394
v 0.09078094 0.9685778 0.54370904
v 0.10042071 0.97152334 0.52262175
v 0.09720565 0.9810916 0.5284667
v 0.060942534 0.91945684 0.5635632
v 0.051083826 0.92107624 0.55681634
v 0.077227235 0.94738716 0.55428
v 0.055946834 0.9139326 0.57366645
v 0.04623737 0.911413 0.5683195
v 0.094306804 0.98793113 0.5137959
v 0.08804081 0.9906541 0.5296205
v 0.087934 0.977617 0.5473142
v 0.06533006 0.92637205 0.56927586
v 0.0642834 0.9365154 0.57141876
v 0.078845955 0.9558231 0.55954045
v 0.075491495 0.96651936 0.56222093
v 0.049122967 0.90998137 0.58452505
v 0.039872166 0.908146 0.5853487
v 0.047666993 0.9117291 0.5861865
v 0.039250813 0.9089633 0.58711475
v 0.03952465 0.91235423 0.58597153
v 0.057510752 0.91831464 0.57709706
v 0.047538687 0.9140661 0.5860499
v 0.053311437 0.92871255 0.5755411
v 0.04088923 0.929623 0.57165736
v 0.052501142 0.94305015 0.57495266
v 0.040199075 0.9415084 0.57148147
v 0.062375277 0.95305914 0.5714791
v 0.05367838 0.96182036 0.571359
v 0.04150077 0.9605585 0.56833214
v 0.04657422 0.9803901 0.558044
v 0.06122689 0.9634498 0.5702432
v 0.067015044 0.97766584 0.56326306
v 0.057979207 0.97970426 0.56155866
v 0.066518135 0.99345887 0.5445693
v 0.057083197 0.99489594 0.54065025
v 0.078491054 0.9877164 0.5472178
v 0.07848753 0.9967374 0.52457
v -0.089546554 0.97807217 0.4784674
v -0.08726123 0.9880602 0.48797527
v -0.0951954 0.9861677 0.49307325
v -0.07846585 0.99556106 0.50195736
v -0.086971045 0.9941337 0.50666726
v -0.06874101 0.9978453 0.5194516
v -0.09910207 0.9772537 0.4836904
v -0.10385903 0.97341657 0.49750528
v -0.099072464 0.9829462 0.50651574
v -0.102974765 0.978323 0.46566
v -0.09568338 0.9789829 0.46271262
v -0.106184416 0.97816014 0.45289576
v -0.10173358 0.9790022 0.44943622
v -0.10666498 0.9763723 0.449893
v -0.10290412 0.97733396 0.44703242
v -0.10748087 0.9721937 0.46298248
v -0.10645369 0.9730699 0.45040774
v -0.102230124 0.9733496 0.44682539
v -0.10428546 0.96770513 0.45796627
v -0.098210506 0.9669817 0.4549516
v -0.09959732 0.95922565 0.47301966
v -0.09267134 0.9583057 0.46846816
v -0.10634331 0.9658217 0.47902265
v -0.09744666 0.9562371 0.47883514
v -0.090983845 0.95587075 0.47511232
v -0.10533855 0.9634841 0.48844984
v -0.0901076 0.95803386 0.5023744
v -0.08246374 0.9555172 0.4964637
v -0.10098707 0.9641313 0.5136204
v -0.07866733 0.95460254 0.5291723
v -0.07059836 0.951331 0.5231888
v -0.069537155 0.9425976 0.5473349
v -0.05977447 0.93888897 0.54087204
v -0.08882034 0.9606412 0.5377394
v -0.09078094 0.96857727 0.54370916
v -0.10042071 0.97152334 0.52262175
v -0.09720565 0.9810916 0.5284667
v -0.060942534 0.91945684 0.5635632
v -0.051083826 0.92107624 0.55681634
v -0.077227235 0.94738716 0.55428
v -0.055946834 0.9139326 0.57366645
v -0.04623737 0.911413 0.5683195
v -0.094306946 0.9879302 0.5137957
v -0.08804081 0.9906541 0.5296205
v -0.087934 0.977617 0.5473142
v -0.06533006 0.92637205 0.56927586
v -0.0642834 0.9365154 0.57141876
v -0.078845955 0.9558231 0.55954045
v -0.075491495 0.96651936 0.56222093
v -0.049122967 0.90998137 0.58452505
v -0.039872166 0.908146 0.5853487
v -0.047666993 0.9117291 0.5861865
v -0.039250813 0.9089633 0.58711475
v -0.03952465 0.91235423 0.58597153
v -0.057510752 0.91831464 0.57709706
v -0.047538687 0.9140661 0.5860499
v -0.053311437 0.92871255 0.5755411
v -0.04088923 0.929623 0.57165736
v -0.052501142 0.94305015 0.57495266
v -0.040199075 0.9415084 0.57148147
v -0.062374327 0.9530664 0.57148117
v -0.05367838 0.96182036 0.571359
v -0.04150077 0.9605585 0.56833214
v -0.04657422 0.9803901 0.558044
v -0.06122689 0.9634498 0.5702432
v -0.067015044 0.97766584 0.56326306
v -0.057979207 0.97970426 0.56155866
v -0.066518135 0.99345887 0.5445693
v -0.057083197 0.99489594 0.54065025
v -0.078491054 0.9877164 0.5472178
v -0.07848753 0.9967374 0.52457
vt 0.1989637 0.2628435
vt 0.19481927 0.2598945
vt 0.19656813 0.2557312
vt 0.19316334 0.24575198
vt 0.19181293 0.25085777
vt 0.18800479 0.23956615
vt 0.19690949 0.26811078
vt 0.19251013 0.27027705
vt 0.1913591 0.26313937
vt 0.20108676 0.27254462
vt 0.20228672 0.2685039
vt 0.20493084 0.27200606
vt 0.20844787 0.2723524
vt 0.20567697 0.27783763
vt 0.20868248 0.27956796
vt 0.20105755 0.27761036
vt 0.20515043 0.28366503
vt 0.20815772 0.28923422
vt 0.20173389 0.28192252
vt 0.20235533 0.28584212
vt 0.19766444 0.28454834
vt 0.19844282 0.28928465
vt 0.19704252 0.27751654
vt 0.19429559 0.2870139
vt 0.1948989 0.29229945
vt 0.19332701 0.2784497
vt 0.19000131 0.28988853
vt 0.1907618 0.29560697
vt 0.18860936 0.2806737
vt 0.18456954 0.2925598
vt 0.18496549 0.29902494
vt 0.17915374 0.2932341
vt 0.17916977 0.3004743
vt 0.1839844 0.28300768
vt 0.18347704 0.27472487
vt 0.18775892 0.27261645
vt 0.18709213 0.26409656
vt 0.17453152 0.29295886
vt 0.1744684 0.3004141
vt 0.17883772 0.2851318
vt 0.1702941 0.29234022
vt 0.16988277 0.29962206
vt 0.19013643 0.25833723
vt 0.18670064 0.25524655
vt 0.18288684 0.2650887
vt 0.17420673 0.28696582
vt 0.17403215 0.2793755
vt 0.17880833 0.2770237
vt 0.17861915 0.2674929
vt 0.16542983 0.29415143
vt 0.16121101 0.29903495
vt 0.1644857 0.29131004
vt 0.16039169 0.2962905
vt 0.16037464 0.29019925
vt 0.17019981 0.28906274
vt 0.16455573 0.2880124
vt 0.16997421 0.28137362
vt 0.16710693 0.27696842
vt 0.17108971 0.27207765
vt 0.16810715 0.26962107
vt 0.17449921 0.26962966
vt 0.17318153 0.26089227
vt 0.17048168 0.25751734
vt 0.17485583 0.24562109
vt 0.1749273 0.26249176
vt 0.17792493 0.2580658
vt 0.17652875 0.25118032
vt 0.1816712 0.24524337
vt 0.18128937 0.23901033
vt 0.18227571 0.25511143
vt 0.18734288 0.2462756
vt 0.19896366 0.26284364
vt 0.19656824 0.2557313
vt 0.19481914 0.25989464
vt 0.19316326 0.2457521
vt 0.19181298 0.2508579
vt 0.18800455 0.23956627
vt 0.1969095 0.2681109
vt 0.19251008 0.27027708
vt 0.19135903 0.26313952
vt 0.20108669 0.2725449
vt 0.20228668 0.26850405
vt 0.20493034 0.27200696
vt 0.20844774 0.2723528
vt 0.20567681 0.27783853
vt 0.20868228 0.2795684
vt 0.20105757 0.27761036
vt 0.20515034 0.28366545
vt 0.20815757 0.28923476
vt 0.20173366 0.2819228
vt 0.2023551 0.28584236
vt 0.19766437 0.2845485
vt 0.1984428 0.2892848
vt 0.19704236 0.27751666
vt 0.19429548 0.287014
vt 0.19489895 0.29229936
vt 0.1933269 0.27844986
vt 0.19000131 0.28988862
vt 0.19076173 0.2956071
vt 0.18860935 0.2806738
vt 0.18456951 0.2925598
vt 0.18496549 0.29902494
vt 0.17915364 0.2932342
vt 0.1791699 0.3004743
vt 0.18398431 0.2830078
vt 0.18347706 0.27472487
vt 0.18775895 0.27261657
vt 0.18709205 0.26409653
vt 0.1745313 0.29295897
vt 0.17446823 0.30041417
vt 0.1788376 0.28513196
vt 0.17029408 0.29234046
vt 0.16988263 0.2996222
vt 0.19013648 0.25833723
vt 0.18670057 0.25524667
vt 0.18288682 0.2650887
vt 0.17420666 0.286966
vt 0.17403214 0.2793755
vt 0.17880838 0.27702382
vt 0.17861906 0.267493
vt 0.16542959 0.29415178
vt 0.1612106 0.29903525
vt 0.16448523 0.29131034
vt 0.16039129 0.29629076
vt 0.16037442 0.2901996
vt 0.17019987 0.28906286
vt 0.16455549 0.28801268
vt 0.16997403 0.28137377
vt 0.1671069 0.27696857
vt 0.17108962 0.2720778
vt 0.16810697 0.26962137
vt 0.17449917 0.2696297
vt 0.17318153 0.26089242
vt 0.17048168 0.2575175
vt 0.17485584 0.24562126
vt 0.17492713 0.2624918
vt 0.17792489 0.25806576
vt 0.17652883 0.25118047
vt 0.18167117 0.24524355
vt 0.18128937 0.23901045
vt 0.18227565 0.25511155
vt 0.18734303 0.2462756
vn 0.5205534 0.839402 -0.15629594
vn 0.6375083 0.76533556 -0.08857032
vn 0.46550268 0.8693112 -0.16614856
vn 0.3674958 0.9282951 -0.056703046
vn 0.4968894 0.8677944 0.0058144103
vn 0.23634209 0.9559593 0.17402379
vn 0.8080066 0.58275527 -0.08672727
vn 0.96743596 0.24092536 0.077606134
vn 0.8050538 0.58762276 0.0811663
vn 0.74121875 0.66125 -0.115513235
vn 0.5149076 0.8451625 -0.14342442
vn 0.72015053 0.6592768 -0.21618824
vn 0.6088998 0.7453427 -0.27148762
vn 0.897909 0.21730494 -0.3828028
vn 0.80898696 0.28895834 -0.5119016
vn 0.97260714 0.06702334 -0.22258335
vn 0.8254948 -0.2911863 -0.48349643
vn 0.7496246 -0.33052227 -0.57342654
vn 0.7880965 -0.50357306 -0.35400283
vn 0.6155171 -0.66055083 -0.42989674
vn 0.7128743 -0.6689256 -0.21059155
vn 0.5085526 -0.817448 -0.27046797
vn 0.9852445 -0.12932767 -0.11210545
vn 0.6266036 -0.7761371 -0.07056208
vn 0.4385344 -0.8889962 -0.1318078
vn 0.9315859 -0.36241606 0.028324202
vn 0.5793736 -0.81505895 0.0022616882
vn 0.42898843 -0.9002158 -0.074701704
vn 0.8488769 -0.5088392 0.14314584
vn 0.60831815 -0.792973 -0.033807874
vn 0.48257568 -0.86505485 -0.13711564
vn 0.66368836 -0.74296874 -0.08669097
vn 0.53542733 -0.8133704 -0.22747782
vn 0.8142391 -0.5476429 0.19261883
vn 0.8907313 -0.12160234 0.43796203
vn 0.9626261 -0.0009610837 0.2708319
vn 0.8391384 0.44047487 0.31910607
vn 0.6859742 -0.72751576 -0.012659134
vn 0.5480517 -0.81296897 -0.19677597
vn 0.820704 -0.51241064 0.25274584
vn 0.6404382 -0.7317192 0.23329376
vn 0.5269566 -0.84892267 0.04058285
vn 0.6471225 0.75500953 0.10579733
vn 0.6078058 0.73325217 0.30481702
vn 0.7579794 0.31359485 0.5719489
vn 0.78719175 -0.44561842 0.4263254
vn 0.60821277 -0.0638241 0.7912039
vn 0.78880566 -0.13458091 0.59972805
vn 0.594836 0.21554215 0.77441055
vn 0.5434875 -0.67319524 0.50142735
vn 0.4658812 -0.7532429 0.4643058
vn 0.46281564 -0.30026785 0.8340509
vn 0.32763168 -0.31926262 0.88922936
vn 0.12221597 0.09010317 0.9884051
vn 0.6383259 -0.35680208 0.6820794
vn 0.25591603 0.060670383 0.9647932
vn 0.30367404 0.076870486 0.94967
vn 0.029215354 0.20446007 0.9784388
vn 0.11060883 0.22746511 0.96748406
vn -0.07062808 0.2754499 0.95871747
vn 0.3783879 0.17815633 0.9083408
vn 0.031400453 0.39579523 0.91780174
vn -0.10363379 0.43062618 0.8965608
vn -0.04493794 0.67059994 0.7404568
vn 0.22798635 0.34325123 0.91115355
vn 0.3443593 0.48010868 0.8067914
vn 0.092549205 0.6219151 0.7775965
vn 0.2287312 0.82244426 0.5208335
vn 0.085229814 0.8773274 0.47226322
vn 0.49653348 0.64353555 0.5825088
vn 0.3745997 0.8989333 0.22714338
vn -0.51974636 0.83983004 -0.1566818
vn -0.46482372 0.86965096 -0.1662711
vn -0.6371482 0.7656358 -0.08856683
vn -0.36715725 0.92842865 -0.05670868
vn -0.49671412 0.8678945 0.0058590644
vn -0.23624332 0.95598364 0.17402413
vn -0.80773443 0.58310086 -0.08693983
vn -0.9674104 0.24100077 0.07768991
vn -0.8049532 0.5877442 0.08128441
vn -0.7409447 0.6614848 -0.11592608
vn -0.5142875 0.8454554 -0.14392212
vn -0.71997595 0.6593682 -0.21649064
vn -0.6085903 0.7454697 -0.27183223
vn -0.89784586 0.21728681 -0.38296112
vn -0.8088852 0.28897187 -0.51205456
vn -0.97255504 0.066978894 -0.22282423
vn -0.82546204 -0.29120842 -0.48353902
vn -0.749597 -0.33053052 -0.57345784
vn -0.78804827 -0.5036121 -0.3540548
vn -0.61550117 -0.66056126 -0.42990366
vn -0.7128256 -0.6689762 -0.21059553
vn -0.50854343 -0.8174581 -0.27045488
vn -0.9852201 -0.12941849 -0.11221547
vn -0.6265902 -0.7761518 -0.07052015
vn -0.43854463 -0.8889947 -0.13178453
vn -0.93155324 -0.36249524 0.028383981
vn -0.579393 -0.815045 0.002283818
vn -0.42901078 -0.90020615 -0.07469048
vn -0.8488666 -0.5088453 0.143185
vn -0.6083356 -0.79295963 -0.033804566
vn -0.4825907 -0.8650468 -0.13711365
vn -0.6636942 -0.74296325 -0.08669227
vn -0.5354322 -0.8133671 -0.22747807
vn -0.8142443 -0.547634 0.19262241
vn -0.8907275 -0.12159913 0.43797058
vn -0.9626079 -0.00095553446 0.2708971
vn -0.83910626 0.44049224 0.31916645
vn -0.68597454 -0.72751546 -0.012659972
vn -0.5480521 -0.8129687 -0.19677624
vn -0.8207071 -0.512408 0.25274068
vn -0.64043677 -0.7317203 0.23329398
vn -0.5269558 -0.84892315 0.04058283
vn -0.64706755 0.7550459 0.10587425
vn -0.6078001 0.7332462 0.30484244
vn -0.7579719 0.31360075 0.5719556
vn -0.7871912 -0.4456211 0.42632362
vn -0.60820657 -0.063823104 0.79120874
vn -0.7888075 -0.1345799 0.59972584
vn -0.59482807 0.21555701 0.7744125
vn -0.5434861 -0.6731967 0.50142705
vn -0.4658802 -0.7532442 0.46430477
vn -0.4628135 -0.30027074 0.8340511
vn -0.3276306 -0.31926566 0.88922864
vn -0.122212715 0.0901004 0.9884058
vn -0.63832265 -0.35680553 0.6820806
vn -0.25591126 0.060667336 0.9647948
vn -0.30366185 0.07687009 0.9496739
vn -0.029205566 0.20445912 0.9784394
vn -0.110579014 0.22747621 0.96748483
vn 0.070647396 0.27545416 0.9587147
vn -0.37836206 0.17817536 0.9083478
vn -0.031367943 0.39581108 0.917796
vn 0.10365347 0.43063283 0.8965553
vn 0.044948965 0.6706038 0.74045265
vn -0.22794987 0.34327826 0.9111525
vn -0.34434217 0.48012757 0.80678755
vn -0.09253334 0.62192476 0.77759063
vn -0.22872604 0.8224468 0.52083164
vn -0.08521154 0.8773308 0.4722601
vn -0.4965337 0.643537 0.582507
vn -0.3745624 0.8989454 0.22715653
g pm0676_15_Eye46Skin_0
f 3/3/3 2/2/2 1/1/1
f 3/3/3 4/4/4 2/2/2
f 4/4/4 5/5/5 2/2/2
f 4/4/4 6/6/6 5/5/5
f 2/2/2 7/7/7 1/1/1
f 8/8/8 7/7/7 2/2/2
f 9/9/9 2/2/2 5/5/5
f 9/9/9 8/8/8 2/2/2
f 7/7/7 10/10/10 1/1/1
f 10/10/10 11/11/11 1/1/1
f 10/10/10 12/12/12 11/11/11
f 12/12/12 13/13/13 11/11/11
f 13/13/13 12/12/12 14/14/14
f 14/14/14 12/12/12 10/10/10
f 15/15/15 13/13/13 14/14/14
f 16/16/16 10/10/10 7/7/7
f 16/16/16 14/14/14 10/10/10
f 15/15/15 14/14/14 17/17/17
f 18/18/18 15/15/15 17/17/17
f 19/19/19 17/17/17 14/14/14
f 18/18/18 17/17/17 19/19/19
f 16/16/16 19/19/19 14/14/14
f 20/20/20 18/18/18 19/19/19
f 20/20/20 19/19/19 21/21/21
f 21/21/21 19/19/19 16/16/16
f 22/22/22 20/20/20 21/21/21
f 23/23/23 16/16/16 7/7/7
f 23/23/23 21/21/21 16/16/16
f 23/23/23 7/7/7 8/8/8
f 21/21/21 24/24/24 22/22/22
f 24/24/24 21/21/21 23/23/23
f 24/24/24 25/25/25 22/22/22
f 26/26/26 24/24/24 23/23/23
f 26/26/26 23/23/23 8/8/8
f 24/24/24 27/27/27 25/25/25
f 24/24/24 26/26/26 27/27/27
f 27/27/27 28/28/28 25/25/25
f 26/26/26 29/29/29 27/27/27
f 26/26/26 8/8/8 29/29/29
f 27/27/27 30/30/30 28/28/28
f 30/30/30 27/27/27 29/29/29
f 30/30/30 31/31/31 28/28/28
f 30/30/30 32/32/32 31/31/31
f 32/32/32 33/33/33 31/31/31
f 34/34/34 30/30/30 29/29/29
f 30/30/30 34/34/34 32/32/32
f 34/34/34 29/29/29 35/35/35
f 8/8/8 36/36/36 29/29/29
f 29/29/29 36/36/36 35/35/35
f 37/37/37 36/36/36 8/8/8
f 35/35/35 36/36/36 37/37/37
f 9/9/9 37/37/37 8/8/8
f 32/32/32 38/38/38 33/33/33
f 38/38/38 39/39/39 33/33/33
f 34/34/34 40/40/40 32/32/32
f 34/34/34 35/35/35 40/40/40
f 38/38/38 32/32/32 40/40/40
f 38/38/38 41/41/41 39/39/39
f 41/41/41 42/42/42 39/39/39
f 9/9/9 43/43/43 37/37/37
f 43/43/43 9/9/9 5/5/5
f 43/43/43 44/44/44 37/37/37
f 43/43/43 5/5/5 44/44/44
f 45/45/45 35/35/35 37/37/37
f 45/45/45 37/37/37 44/44/44
f 46/46/46 38/38/38 40/40/40
f 38/38/38 46/46/46 41/41/41
f 46/46/46 40/40/40 47/47/47
f 35/35/35 48/48/48 40/40/40
f 40/40/40 48/48/48 47/47/47
f 49/49/49 48/48/48 35/35/35
f 45/45/45 49/49/49 35/35/35
f 47/47/47 48/48/48 49/49/49
f 41/41/41 50/50/50 42/42/42
f 50/50/50 51/51/51 42/42/42
f 51/51/51 50/50/50 52/52/52
f 52/52/52 50/50/50 41/41/41
f 53/53/53 51/51/51 52/52/52
f 53/53/53 52/52/52 54/54/54
f 46/46/46 55/55/55 41/41/41
f 55/55/55 52/52/52 41/41/41
f 46/46/46 47/47/47 55/55/55
f 52/52/52 56/56/56 54/54/54
f 56/56/56 52/52/52 55/55/55
f 54/54/54 56/56/56 57/57/57
f 57/57/57 56/56/56 55/55/55
f 47/47/47 57/57/57 55/55/55
f 58/58/58 54/54/54 57/57/57
f 58/58/58 57/57/57 59/59/59
f 59/59/59 57/57/57 47/47/47
f 60/60/60 58/58/58 59/59/59
f 61/61/61 59/59/59 47/47/47
f 61/61/61 47/47/47 49/49/49
f 60/60/60 59/59/59 62/62/62
f 63/63/63 60/60/60 62/62/62
f 63/63/63 62/62/62 64/64/64
f 61/61/61 65/65/65 59/59/59
f 65/65/65 62/62/62 59/59/59
f 65/65/65 61/61/61 66/66/66
f 61/61/61 49/49/49 66/66/66
f 65/65/65 66/66/66 62/62/62
f 62/62/62 67/67/67 64/64/64
f 66/66/66 67/67/67 62/62/62
f 64/64/64 67/67/67 68/68/68
f 68/68/68 67/67/67 66/66/66
f 69/69/69 64/64/64 68/68/68
f 69/69/69 68/68/68 6/6/6
f 70/70/70 66/66/66 49/49/49
f 70/70/70 68/68/68 66/66/66
f 45/45/45 70/70/70 49/49/49
f 70/70/70 45/45/45 44/44/44
f 70/70/70 44/44/44 68/68/68
f 68/68/68 71/71/71 6/6/6
f 44/44/44 71/71/71 68/68/68
f 6/6/6 71/71/71 5/5/5
f 5/5/5 71/71/71 44/44/44
f 74/74/74 73/73/73 72/72/72
f 75/75/75 73/73/73 74/74/74
f 76/76/76 75/75/75 74/74/74
f 77/77/77 75/75/75 76/76/76
f 78/78/78 74/74/74 72/72/72
f 78/78/78 79/79/79 74/74/74
f 74/74/74 80/80/80 76/76/76
f 79/79/79 80/80/80 74/74/74
f 81/81/81 78/78/78 72/72/72
f 82/82/82 81/81/81 72/72/72
f 83/83/83 81/81/81 82/82/82
f 84/84/84 83/83/83 82/82/82
f 83/83/83 84/84/84 85/85/85
f 83/83/83 85/85/85 81/81/81
f 84/84/84 86/86/86 85/85/85
f 81/81/81 87/87/87 78/78/78
f 85/85/85 87/87/87 81/81/81
f 85/85/85 86/86/86 88/88/88
f 86/86/86 89/89/89 88/88/88
f 88/88/88 90/90/90 85/85/85
f 88/88/88 89/89/89 90/90/90
f 90/90/90 87/87/87 85/85/85
f 89/89/89 91/91/91 90/90/90
f 90/90/90 91/91/91 92/92/92
f 90/90/90 92/92/92 87/87/87
f 91/91/91 93/93/93 92/92/92
f 87/87/87 94/94/94 78/78/78
f 92/92/92 94/94/94 87/87/87
f 78/78/78 94/94/94 79/79/79
f 95/95/95 92/92/92 93/93/93
f 92/92/92 95/95/95 94/94/94
f 96/96/96 95/95/95 93/93/93
f 95/95/95 97/97/97 94/94/94
f 94/94/94 97/97/97 79/79/79
f 98/98/98 95/95/95 96/96/96
f 97/97/97 95/95/95 98/98/98
f 99/99/99 98/98/98 96/96/96
f 100/100/100 97/97/97 98/98/98
f 79/79/79 97/97/97 100/100/100
f 101/101/101 98/98/98 99/99/99
f 98/98/98 101/101/101 100/100/100
f 102/102/102 101/101/101 99/99/99
f 103/103/103 101/101/101 102/102/102
f 104/104/104 103/103/103 102/102/102
f 101/101/101 105/105/105 100/100/100
f 105/105/105 101/101/101 103/103/103
f 100/100/100 105/105/105 106/106/106
f 107/107/107 79/79/79 100/100/100
f 107/107/107 100/100/100 106/106/106
f 107/107/107 108/108/108 79/79/79
f 107/107/107 106/106/106 108/108/108
f 108/108/108 80/80/80 79/79/79
f 109/109/109 103/103/103 104/104/104
f 110/110/110 109/109/109 104/104/104
f 111/111/111 105/105/105 103/103/103
f 106/106/106 105/105/105 111/111/111
f 103/103/103 109/109/109 111/111/111
f 112/112/112 109/109/109 110/110/110
f 113/113/113 112/112/112 110/110/110
f 114/114/114 80/80/80 108/108/108
f 80/80/80 114/114/114 76/76/76
f 115/115/115 114/114/114 108/108/108
f 76/76/76 114/114/114 115/115/115
f 106/106/106 116/116/116 108/108/108
f 108/108/108 116/116/116 115/115/115
f 109/109/109 117/117/117 111/111/111
f 117/117/117 109/109/109 112/112/112
f 111/111/111 117/117/117 118/118/118
f 119/119/119 106/106/106 111/111/111
f 119/119/119 111/111/111 118/118/118
f 119/119/119 120/120/120 106/106/106
f 120/120/120 116/116/116 106/106/106
f 119/119/119 118/118/118 120/120/120
f 121/121/121 112/112/112 113/113/113
f 122/122/122 121/121/121 113/113/113
f 121/121/121 122/122/122 123/123/123
f 121/121/121 123/123/123 112/112/112
f 122/122/122 124/124/124 123/123/123
f 123/123/123 124/124/124 125/125/125
f 126/126/126 117/117/117 112/112/112
f 123/123/123 126/126/126 112/112/112
f 118/118/118 117/117/117 126/126/126
f 127/127/127 123/123/123 125/125/125
f 123/123/123 127/127/127 126/126/126
f 127/127/127 125/125/125 128/128/128
f 127/127/127 128/128/128 126/126/126
f 128/128/128 118/118/118 126/126/126
f 125/125/125 129/129/129 128/128/128
f 128/128/128 129/129/129 130/130/130
f 128/128/128 130/130/130 118/118/118
f 129/129/129 131/131/131 130/130/130
f 130/130/130 132/132/132 118/118/118
f 118/118/118 132/132/132 120/120/120
f 130/130/130 131/131/131 133/133/133
f 131/131/131 134/134/134 133/133/133
f 133/133/133 134/134/134 135/135/135
f 136/136/136 132/132/132 130/130/130
f 133/133/133 136/136/136 130/130/130
f 132/132/132 136/136/136 137/137/137
f 120/120/120 132/132/132 137/137/137
f 137/137/137 136/136/136 133/133/133
f 138/138/138 133/133/133 135/135/135
f 138/138/138 137/137/137 133/133/133
f 138/138/138 135/135/135 139/139/139
f 138/138/138 139/139/139 137/137/137
f 135/135/135 140/140/140 139/139/139
f 139/139/139 140/140/140 77/77/77
f 137/137/137 141/141/141 120/120/120
f 139/139/139 141/141/141 137/137/137
f 141/141/141 116/116/116 120/120/120
f 116/116/116 141/141/141 115/115/115
f 115/115/115 141/141/141 139/139/139
f 142/142/142 139/139/139 77/77/77
f 142/142/142 115/115/115 139/139/139
f 142/142/142 77/77/77 76/76/76
f 142/142/142 76/76/76 115/115/115
