g pm0676_20_Eye5Skin
v -0.06599205 0.9944465 0.5242634
v -0.054003246 0.9898419 0.5461468
v -0.064830534 0.9883729 0.5504195
v -0.04342854 0.97184545 0.56332684
v -0.07547278 0.9935137 0.53000116
v -0.085198134 0.9919799 0.5116438
v -0.07724479 0.9930446 0.50640565
v -0.085978486 0.9846753 0.5348654
v -0.09260184 0.9847737 0.49896738
v -0.08505467 0.9860383 0.49316034
v -0.087718636 0.9767558 0.483837
v -0.05609329 0.97169906 0.5666205
v -0.050789833 0.9495047 0.57540876
v -0.03886554 0.9470964 0.5726872
v -0.03966478 0.9258269 0.5727889
v -0.06595178 0.96647215 0.566215
v -0.052866023 0.9282688 0.576427
v -0.04260328 0.9139316 0.5702057
v -0.07659196 0.979144 0.5525694
v -0.05849941 0.9517978 0.5724209
v -0.062369402 0.93961114 0.5718246
v -0.06618412 0.9238612 0.5669054
v -0.05574758 0.91348076 0.57331777
v -0.04549908 0.89350545 0.5797753
v -0.075707965 0.9532833 0.56271845
v -0.086973175 0.9652639 0.5498905
v -0.09291684 0.95088387 0.5412136
v -0.09563314 0.97291636 0.5318629
v -0.08033252 0.93807936 0.5559063
v -0.09270582 0.98384345 0.51887345
v -0.09783117 0.97916156 0.5127648
v -0.10169207 0.97047055 0.50542486
v -0.08011855 0.9265197 0.5480213
v -0.100072294 0.9604225 0.52409273
v -0.0989114 0.9511017 0.5149195
v -0.096882045 0.97687656 0.49003154
v -0.09119883 0.9402088 0.53150624
v -0.10080269 0.9781777 0.47207525
v -0.093625754 0.97817314 0.4686036
v -0.10402472 0.97803414 0.45911482
v -0.09957453 0.9786378 0.4556028
v -0.10457293 0.97637075 0.45598543
v -0.100803114 0.97713095 0.45309815
v -0.10469707 0.9725299 0.46920982
v -0.10371707 0.96710235 0.48504126
v -0.104470156 0.9731729 0.45634684
v -0.10024736 0.97331136 0.45270965
v -0.102467485 0.96815753 0.46385512
v -0.09642858 0.9672228 0.4607311
v -0.0981758 0.96077 0.47843212
v -0.09133826 0.9594965 0.4737309
v -0.09443569 0.9545577 0.48967028
v -0.0869416 0.9525987 0.48517853
v -0.10259356 0.96059287 0.4981258
v -0.088962294 0.94673824 0.5037648
v -0.08176065 0.9443923 0.49781498
v -0.08110338 0.9353139 0.5214365
v -0.073047295 0.9321662 0.51506674
v -0.07256042 0.92216533 0.5391909
v -0.06337765 0.9190106 0.5326821
v -0.065275244 0.910531 0.5536743
v -0.055990867 0.9079242 0.54705614
v -0.07002234 0.91384125 0.5609179
v -0.059444565 0.89999074 0.5671116
v -0.05143582 0.8971172 0.5617303
v -0.062141683 0.9031563 0.5713998
v -0.055439033 0.8928711 0.57747877
v -0.046597365 0.88955563 0.57797277
v -0.05399149 0.89396787 0.57959604
v -0.04589775 0.88986456 0.57994705
v -0.054449484 0.89676946 0.58027744
v 0.06599205 0.9944465 0.5242634
v 0.064830534 0.9883729 0.5504195
v 0.054003246 0.9898419 0.5461468
v 0.04342854 0.97184545 0.56332684
v 0.07547278 0.9935137 0.53000116
v 0.085198134 0.9919799 0.5116438
v 0.07724479 0.9930446 0.50640565
v 0.085978486 0.9846753 0.5348654
v 0.09260184 0.9847737 0.49896738
v 0.08505467 0.9860383 0.49316034
v 0.087718636 0.9767558 0.483837
v 0.05609329 0.97169906 0.5666205
v 0.050789833 0.9495047 0.57540876
v 0.03886554 0.9470964 0.5726872
v 0.03966478 0.9258269 0.5727889
v 0.06595178 0.96647215 0.566215
v 0.052866023 0.9282688 0.576427
v 0.04260328 0.9139316 0.5702057
v 0.07659196 0.979144 0.5525694
v 0.05849941 0.9517978 0.5724209
v 0.062369402 0.93961114 0.5718246
v 0.06618412 0.9238612 0.5669054
v 0.05574758 0.91348076 0.57331777
v 0.04549908 0.89350545 0.5797753
v 0.075707965 0.9532833 0.56271845
v 0.086973175 0.9652639 0.5498905
v 0.09291684 0.95088387 0.5412136
v 0.09563314 0.97291636 0.5318629
v 0.08033252 0.93807936 0.5559063
v 0.09270582 0.98384345 0.51887345
v 0.09783117 0.97916156 0.5127648
v 0.10169207 0.97047055 0.50542486
v 0.08011855 0.9265197 0.5480213
v 0.100072294 0.9604225 0.52409273
v 0.0989114 0.9511017 0.5149195
v 0.096882045 0.97687656 0.49003154
v 0.09119883 0.9402088 0.53150624
v 0.10080269 0.9781777 0.47207525
v 0.093625754 0.97817314 0.4686036
v 0.10402472 0.97803414 0.45911482
v 0.09957453 0.9786378 0.4556028
v 0.10457293 0.97637075 0.45598543
v 0.100803114 0.97713095 0.45309815
v 0.10469707 0.9725299 0.46920982
v 0.10371707 0.96710235 0.48504126
v 0.104470156 0.9731729 0.45634684
v 0.10024736 0.97331136 0.45270965
v 0.102467485 0.96815753 0.46385512
v 0.09642858 0.9672228 0.4607311
v 0.0981758 0.96077 0.47843212
v 0.09133826 0.9594965 0.4737309
v 0.09443569 0.9545577 0.48967028
v 0.0869416 0.9525987 0.48517853
v 0.10259356 0.96059287 0.4981258
v 0.088962294 0.94673824 0.5037648
v 0.08176065 0.9443923 0.49781498
v 0.08110338 0.9353139 0.5214365
v 0.073047295 0.9321662 0.51506674
v 0.07256042 0.92216533 0.5391909
v 0.06337765 0.9190106 0.5326821
v 0.065275244 0.910531 0.5536743
v 0.055990867 0.9079242 0.54705614
v 0.07002234 0.91384125 0.5609179
v 0.059444565 0.89999074 0.5671116
v 0.05143582 0.8971172 0.5617303
v 0.062141683 0.9031563 0.5713998
v 0.055439033 0.8928711 0.57747877
v 0.046597365 0.88955563 0.57797277
v 0.05399149 0.89396787 0.57959604
v 0.04589775 0.88986456 0.57994705
v 0.054449484 0.89676946 0.58027744
vt 0.05217406 0.97933894
vt 0.06228888 0.98550755
vt 0.062325656 0.97576517
vt 0.0726836 0.9805992
vt 0.053838253 0.96970433
vt 0.047521323 0.95921904
vt 0.04497236 0.96588016
vt 0.05569622 0.9566278
vt 0.043860286 0.94314945
vt 0.04080084 0.9480667
vt 0.037874877 0.9353959
vt 0.070699066 0.9708539
vt 0.07672635 0.9588009
vt 0.08048183 0.9660534
vt 0.085271865 0.94960755
vt 0.0692642 0.9593193
vt 0.080997616 0.9435221
vt 0.08751187 0.93927455
vt 0.06238404 0.960342
vt 0.074240506 0.9549945
vt 0.075592875 0.9445239
vt 0.077261835 0.93013644
vt 0.08360416 0.9303291
vt 0.09303089 0.9262132
vt 0.06914273 0.94449264
vt 0.062443078 0.9447485
vt 0.0625 0.9296875
vt 0.0559766 0.94291514
vt 0.06979689 0.92990917
vt 0.050798237 0.9492221
vt 0.049420416 0.94098026
vt 0.048381478 0.9292583
vt 0.07055256 0.9176068
vt 0.05580759 0.92948383
vt 0.05531454 0.9166078
vt 0.041505337 0.92904896
vt 0.062548816 0.9167417
vt 0.035617143 0.9190209
vt 0.03340116 0.92418844
vt 0.032415926 0.91658217
vt 0.028532641 0.91593134
vt 0.032001287 0.9093434
vt 0.028561221 0.90767056
vt 0.036161333 0.91137296
vt 0.042232066 0.9146996
vt 0.032587618 0.9033939
vt 0.029259609 0.9006299
vt 0.035562575 0.9043061
vt 0.03500837 0.89787775
vt 0.04198414 0.9035576
vt 0.04127276 0.8957679
vt 0.047329307 0.9024965
vt 0.046937138 0.8940132
vt 0.047950894 0.9162341
vt 0.05411598 0.9015492
vt 0.05352837 0.8922861
vt 0.06260529 0.9018118
vt 0.06264368 0.8917079
vt 0.07087338 0.90508664
vt 0.07156357 0.8941095
vt 0.07784593 0.90916985
vt 0.07867715 0.8979294
vt 0.07774636 0.91850334
vt 0.08420196 0.9134672
vt 0.08554348 0.90276664
vt 0.08402115 0.9185058
vt 0.08830199 0.9123784
vt 0.09286701 0.90677255
vt 0.08877927 0.9193706
vt 0.09326988 0.91635966
vt 0.08860007 0.92620707
vt 0.05217409 0.97933894
vt 0.062325835 0.97576517
vt 0.062289 0.98550755
vt 0.07268369 0.9805992
vt 0.053838253 0.96970433
vt 0.047521412 0.95921904
vt 0.04497248 0.96588016
vt 0.05569631 0.9566278
vt 0.043860316 0.94314945
vt 0.04080087 0.9480667
vt 0.037874937 0.9353959
vt 0.070699215 0.9708539
vt 0.07672644 0.9588009
vt 0.08048195 0.9660534
vt 0.085271955 0.94960755
vt 0.06926429 0.9593193
vt 0.080997705 0.9435221
vt 0.0875119 0.93927455
vt 0.06238407 0.960342
vt 0.074240565 0.9549945
vt 0.07559323 0.9445239
vt 0.077261925 0.93013644
vt 0.08360422 0.9303291
vt 0.09303093 0.9262132
vt 0.06914282 0.94449264
vt 0.062443137 0.9447485
vt 0.0625 0.9296875
vt 0.05597675 0.94291514
vt 0.06979698 0.92990917
vt 0.050798357 0.9492221
vt 0.049420476 0.94098026
vt 0.048381567 0.9292583
vt 0.07055265 0.9176068
vt 0.05580765 0.92948383
vt 0.05531466 0.9166078
vt 0.041505456 0.92904896
vt 0.062548876 0.9167417
vt 0.035617232 0.9190209
vt 0.03340125 0.92418844
vt 0.032416105 0.91658217
vt 0.028532803 0.91593134
vt 0.032001376 0.9093434
vt 0.028561413 0.90767056
vt 0.036161542 0.91137296
vt 0.042232156 0.9146996
vt 0.032587707 0.9033939
vt 0.029259682 0.9006299
vt 0.035562634 0.9043061
vt 0.03500843 0.89787775
vt 0.04198426 0.9035576
vt 0.04127276 0.8957679
vt 0.047329426 0.9024965
vt 0.046937227 0.8940132
vt 0.047950983 0.9162341
vt 0.05411601 0.9015492
vt 0.053528428 0.8922861
vt 0.06260538 0.9018118
vt 0.062643886 0.8917079
vt 0.07087344 0.90508664
vt 0.07156372 0.8941095
vt 0.07784599 0.90916985
vt 0.07867724 0.8979294
vt 0.07774645 0.91850334
vt 0.08420211 0.9134672
vt 0.08554357 0.90276664
vt 0.08402121 0.9185058
vt 0.088302135 0.9123784
vt 0.092867136 0.90677255
vt 0.08877939 0.9193706
vt 0.093269885 0.91635966
vt 0.08860016 0.92620707
vn -0.21579432 0.94956183 0.22751924
vn -0.07288827 0.8320821 0.5498424
vn -0.2618929 0.7499306 0.60746694
vn 0.039292995 0.5686036 0.82167274
vn -0.39286253 0.86850405 0.30225772
vn -0.50945336 0.85873294 0.0550913
vn -0.3470492 0.93724185 -0.033682603
vn -0.65116566 0.65486115 0.38358858
vn -0.6418962 0.7640053 -0.06530755
vn -0.43560413 0.8848755 -0.1650589
vn -0.45889506 0.8757973 -0.14964782
vn -0.14853644 0.5031341 0.85134774
vn -0.11042963 0.24092767 0.9642402
vn 0.077578835 0.27086622 0.9594858
vn 0.034429412 0.07353701 0.996698
vn -0.42936498 0.33807227 0.8374681
vn -0.19846335 0.047633786 0.97895014
vn -0.06500089 -0.0033774727 0.9978795
vn -0.5550634 0.52551264 0.64477986
vn -0.33748123 0.1930987 0.9213139
vn -0.4760885 0.03156444 0.87883073
vn -0.66946507 -0.17505942 0.72192156
vn -0.38990524 -0.09299008 0.91614777
vn -0.16645628 -0.117990114 0.9789641
vn -0.650872 0.0908435 0.7537328
vn -0.78695786 0.21121326 0.5797295
vn -0.9083818 -0.1532509 0.38904592
vn -0.8622803 0.3643278 0.35176405
vn -0.81000996 -0.20193267 0.5505517
vn -0.6832131 0.708142 0.1781991
vn -0.829524 0.54475284 0.12302136
vn -0.970176 0.23544295 0.057665825
vn -0.82909054 -0.527392 0.18565162
vn -0.97555614 -0.013134341 0.21935746
vn -0.89631325 -0.44334012 -0.008488599
vn -0.79197687 0.60626173 -0.072245166
vn -0.8512993 -0.5185614 0.07989643
vn -0.6957057 0.71469796 -0.072113805
vn -0.42209548 0.8990423 -0.116440274
vn -0.6677432 0.7225616 -0.17895147
vn -0.5258112 0.8130964 -0.24979354
vn -0.89710814 0.264858 -0.3536201
vn -0.78409225 0.34936532 -0.51297486
vn -0.97877675 0.10047131 -0.17861013
vn -0.9882826 -0.08654428 -0.12572806
vn -0.84032524 -0.2805522 -0.46383622
vn -0.7525978 -0.3201711 -0.5754016
vn -0.80625385 -0.4891806 -0.33265147
vn -0.6292995 -0.6475239 -0.42976156
vn -0.7504591 -0.6085057 -0.25793788
vn -0.5614941 -0.75732887 -0.33343267
vn -0.70588154 -0.6704766 -0.2284566
vn -0.54608387 -0.78374386 -0.29586816
vn -0.9522887 -0.29505605 -0.07802665
vn -0.6761962 -0.7081236 -0.20327237
vn -0.55181193 -0.7856929 -0.2796252
vn -0.6668266 -0.72378653 -0.17741278
vn -0.56259024 -0.77961946 -0.2751104
vn -0.6771663 -0.72098345 -0.14706703
vn -0.5726093 -0.77267814 -0.27402017
vn -0.6968871 -0.711963 -0.08635476
vn -0.58204764 -0.77662504 -0.24098559
vn -0.80812025 -0.4905367 0.32606053
vn -0.6926945 -0.71896064 0.05718238
vn -0.5851223 -0.80503935 -0.09769117
vn -0.7213351 -0.4498399 0.5266115
vn -0.63591623 -0.7211254 0.274934
vn -0.55463415 -0.7933106 0.2510764
vn -0.56989735 -0.44823936 0.6886933
vn -0.4173511 -0.4975855 0.7604123
vn -0.332395 -0.121679105 0.93525815
vn 0.21579444 0.9495621 0.22751851
vn 0.26189324 0.7499309 0.60746646
vn 0.07288836 0.8320824 0.549842
vn -0.039293073 0.56860375 0.8216726
vn 0.39286286 0.86850417 0.3022572
vn 0.5094535 0.85873294 0.055090405
vn 0.34704924 0.93724185 -0.03368383
vn 0.65116584 0.65486115 0.3835882
vn 0.6418962 0.76400524 -0.06530859
vn 0.4356043 0.8848751 -0.16506048
vn 0.4588953 0.87579685 -0.14964934
vn 0.14853658 0.50313425 0.8513477
vn 0.11042931 0.24092768 0.9642403
vn -0.0775791 0.27086607 0.9594858
vn -0.03442948 0.07353689 0.996698
vn 0.42936528 0.33807233 0.837468
vn 0.19846298 0.047633793 0.97895026
vn 0.06500109 -0.0033773414 0.9978795
vn 0.5550639 0.5255124 0.6447795
vn 0.33748084 0.19309871 0.92131406
vn 0.47608796 0.031564314 0.878831
vn 0.66946477 -0.17505959 0.72192174
vn 0.38990545 -0.09299001 0.91614777
vn 0.16645679 -0.11798938 0.9789641
vn 0.6508719 0.09084336 0.75373286
vn 0.7869579 0.21121307 0.5797293
vn 0.9083817 -0.153251 0.389046
vn 0.8622804 0.3643278 0.35176384
vn 0.8100098 -0.2019327 0.55055183
vn 0.68321306 0.7081421 0.17819844
vn 0.829524 0.544753 0.12302082
vn 0.97017586 0.23544317 0.057665385
vn 0.8290905 -0.5273922 0.18565133
vn 0.97555625 -0.013134274 0.21935734
vn 0.89631325 -0.4433403 -0.008488126
vn 0.79197687 0.6062616 -0.07224618
vn 0.8512992 -0.51856154 0.079896435
vn 0.6957059 0.71469766 -0.07211459
vn 0.42209575 0.89904207 -0.116440915
vn 0.6677435 0.72256154 -0.17895088
vn 0.52581173 0.8130964 -0.24979246
vn 0.89710855 0.2648581 -0.35361913
vn 0.7840932 0.34936586 -0.51297307
vn 0.97877675 0.100471444 -0.1786104
vn 0.9882826 -0.08654412 -0.12572856
vn 0.84032565 -0.28055242 -0.46383527
vn 0.7525987 -0.32017127 -0.57540035
vn 0.806254 -0.4891805 -0.33265123
vn 0.6292998 -0.64752406 -0.42976087
vn 0.7504592 -0.60850567 -0.25793803
vn 0.5614943 -0.7573287 -0.33343267
vn 0.70588154 -0.67047673 -0.22845633
vn 0.54608387 -0.7837439 -0.295868
vn 0.9522887 -0.29505596 -0.07802657
vn 0.6761961 -0.7081238 -0.20327187
vn 0.5518118 -0.7856931 -0.27962476
vn 0.66682655 -0.7237866 -0.17741261
vn 0.56259024 -0.7796195 -0.2751102
vn 0.6771663 -0.72098327 -0.14706734
vn 0.5726092 -0.7726782 -0.27402034
vn 0.69688714 -0.7119628 -0.086355485
vn 0.58204764 -0.77662504 -0.24098592
vn 0.8081203 -0.49053684 0.32605997
vn 0.69269496 -0.7189603 0.05718198
vn 0.5851228 -0.8050389 -0.09769105
vn 0.72133565 -0.44983962 0.526611
vn 0.6359171 -0.7211245 0.27493423
vn 0.55463505 -0.79330957 0.25107718
vn 0.56989825 -0.44823828 0.6886932
vn 0.41735196 -0.4975841 0.7604127
vn 0.3323957 -0.12167849 0.9352579
g pm0676_20_Eye5Skin_0
f 3/3/3 2/2/2 1/1/1
f 4/4/4 2/2/2 3/3/3
f 5/5/5 3/3/3 1/1/1
f 5/5/5 1/1/1 6/6/6
f 1/1/1 7/7/7 6/6/6
f 5/5/5 8/8/8 3/3/3
f 5/5/5 6/6/6 8/8/8
f 6/6/6 7/7/7 9/9/9
f 7/7/7 10/10/10 9/9/9
f 9/9/9 10/10/10 11/11/11
f 12/12/12 4/4/4 3/3/3
f 12/12/12 13/13/13 4/4/4
f 13/13/13 14/14/14 4/4/4
f 15/15/15 14/14/14 13/13/13
f 12/12/12 3/3/3 16/16/16
f 12/12/12 16/16/16 13/13/13
f 17/17/17 15/15/15 13/13/13
f 18/18/18 15/15/15 17/17/17
f 8/8/8 19/19/19 3/3/3
f 3/3/3 19/19/19 16/16/16
f 16/16/16 20/20/20 13/13/13
f 13/13/13 20/20/20 17/17/17
f 21/21/21 20/20/20 16/16/16
f 20/20/20 21/21/21 17/17/17
f 17/17/17 21/21/21 22/22/22
f 23/23/23 18/18/18 17/17/17
f 23/23/23 17/17/17 22/22/22
f 24/24/24 18/18/18 23/23/23
f 25/25/25 21/21/21 16/16/16
f 16/16/16 19/19/19 25/25/25
f 22/22/22 21/21/21 25/25/25
f 26/26/26 19/19/19 8/8/8
f 19/19/19 26/26/26 25/25/25
f 25/25/25 26/26/26 27/27/27
f 28/28/28 26/26/26 8/8/8
f 27/27/27 26/26/26 28/28/28
f 29/29/29 22/22/22 25/25/25
f 29/29/29 25/25/25 27/27/27
f 8/8/8 30/30/30 28/28/28
f 6/6/6 30/30/30 8/8/8
f 31/31/31 30/30/30 6/6/6
f 30/30/30 31/31/31 28/28/28
f 28/28/28 31/31/31 32/32/32
f 9/9/9 31/31/31 6/6/6
f 32/32/32 31/31/31 9/9/9
f 29/29/29 33/33/33 22/22/22
f 29/29/29 27/27/27 33/33/33
f 34/34/34 28/28/28 32/32/32
f 34/34/34 27/27/27 28/28/28
f 34/34/34 35/35/35 27/27/27
f 34/34/34 32/32/32 35/35/35
f 36/36/36 32/32/32 9/9/9
f 36/36/36 9/9/9 11/11/11
f 27/27/27 37/37/37 33/33/33
f 35/35/35 37/37/37 27/27/27
f 38/38/38 36/36/36 11/11/11
f 39/39/39 38/38/38 11/11/11
f 40/40/40 38/38/38 39/39/39
f 41/41/41 40/40/40 39/39/39
f 40/40/40 41/41/41 42/42/42
f 40/40/40 42/42/42 38/38/38
f 41/41/41 43/43/43 42/42/42
f 38/38/38 44/44/44 36/36/36
f 42/42/42 44/44/44 38/38/38
f 36/36/36 45/45/45 32/32/32
f 44/44/44 45/45/45 36/36/36
f 42/42/42 43/43/43 46/46/46
f 43/43/43 47/47/47 46/46/46
f 46/46/46 48/48/48 42/42/42
f 46/46/46 47/47/47 48/48/48
f 48/48/48 44/44/44 42/42/42
f 47/47/47 49/49/49 48/48/48
f 48/48/48 50/50/50 44/44/44
f 48/48/48 49/49/49 50/50/50
f 50/50/50 45/45/45 44/44/44
f 49/49/49 51/51/51 50/50/50
f 52/52/52 50/50/50 51/51/51
f 50/50/50 52/52/52 45/45/45
f 53/53/53 52/52/52 51/51/51
f 45/45/45 54/54/54 32/32/32
f 52/52/52 54/54/54 45/45/45
f 32/32/32 54/54/54 35/35/35
f 55/55/55 52/52/52 53/53/53
f 54/54/54 52/52/52 55/55/55
f 35/35/35 54/54/54 55/55/55
f 56/56/56 55/55/55 53/53/53
f 55/55/55 57/57/57 35/35/35
f 57/57/57 55/55/55 56/56/56
f 57/57/57 37/37/37 35/35/35
f 58/58/58 57/57/57 56/56/56
f 37/37/37 57/57/57 59/59/59
f 59/59/59 57/57/57 58/58/58
f 60/60/60 59/59/59 58/58/58
f 33/33/33 37/37/37 59/59/59
f 61/61/61 59/59/59 60/60/60
f 59/59/59 61/61/61 33/33/33
f 62/62/62 61/61/61 60/60/60
f 61/61/61 63/63/63 33/33/33
f 33/33/33 63/63/63 22/22/22
f 64/64/64 61/61/61 62/62/62
f 63/63/63 61/61/61 64/64/64
f 65/65/65 64/64/64 62/62/62
f 22/22/22 63/63/63 66/66/66
f 66/66/66 63/63/63 64/64/64
f 23/23/23 22/22/22 66/66/66
f 67/67/67 64/64/64 65/65/65
f 68/68/68 67/67/67 65/65/65
f 67/67/67 69/69/69 64/64/64
f 67/67/67 68/68/68 69/69/69
f 69/69/69 66/66/66 64/64/64
f 68/68/68 70/70/70 69/69/69
f 69/69/69 70/70/70 24/24/24
f 71/71/71 23/23/23 66/66/66
f 71/71/71 24/24/24 23/23/23
f 71/71/71 69/69/69 24/24/24
f 69/69/69 71/71/71 66/66/66
f 74/74/74 73/73/73 72/72/72
f 74/74/74 75/75/75 73/73/73
f 73/73/73 76/76/76 72/72/72
f 72/72/72 76/76/76 77/77/77
f 78/78/78 72/72/72 77/77/77
f 79/79/79 76/76/76 73/73/73
f 77/77/77 76/76/76 79/79/79
f 78/78/78 77/77/77 80/80/80
f 81/81/81 78/78/78 80/80/80
f 81/81/81 80/80/80 82/82/82
f 75/75/75 83/83/83 73/73/73
f 84/84/84 83/83/83 75/75/75
f 85/85/85 84/84/84 75/75/75
f 85/85/85 86/86/86 84/84/84
f 73/73/73 83/83/83 87/87/87
f 87/87/87 83/83/83 84/84/84
f 86/86/86 88/88/88 84/84/84
f 86/86/86 89/89/89 88/88/88
f 90/90/90 79/79/79 73/73/73
f 90/90/90 73/73/73 87/87/87
f 91/91/91 87/87/87 84/84/84
f 91/91/91 84/84/84 88/88/88
f 91/91/91 92/92/92 87/87/87
f 92/92/92 91/91/91 88/88/88
f 92/92/92 88/88/88 93/93/93
f 89/89/89 94/94/94 88/88/88
f 88/88/88 94/94/94 93/93/93
f 89/89/89 95/95/95 94/94/94
f 92/92/92 96/96/96 87/87/87
f 90/90/90 87/87/87 96/96/96
f 92/92/92 93/93/93 96/96/96
f 90/90/90 97/97/97 79/79/79
f 97/97/97 90/90/90 96/96/96
f 97/97/97 96/96/96 98/98/98
f 97/97/97 99/99/99 79/79/79
f 97/97/97 98/98/98 99/99/99
f 93/93/93 100/100/100 96/96/96
f 96/96/96 100/100/100 98/98/98
f 101/101/101 79/79/79 99/99/99
f 101/101/101 77/77/77 79/79/79
f 101/101/101 102/102/102 77/77/77
f 102/102/102 101/101/101 99/99/99
f 102/102/102 99/99/99 103/103/103
f 102/102/102 80/80/80 77/77/77
f 102/102/102 103/103/103 80/80/80
f 104/104/104 100/100/100 93/93/93
f 98/98/98 100/100/100 104/104/104
f 99/99/99 105/105/105 103/103/103
f 98/98/98 105/105/105 99/99/99
f 106/106/106 105/105/105 98/98/98
f 103/103/103 105/105/105 106/106/106
f 103/103/103 107/107/107 80/80/80
f 80/80/80 107/107/107 82/82/82
f 108/108/108 98/98/98 104/104/104
f 108/108/108 106/106/106 98/98/98
f 107/107/107 109/109/109 82/82/82
f 109/109/109 110/110/110 82/82/82
f 109/109/109 111/111/111 110/110/110
f 111/111/111 112/112/112 110/110/110
f 112/112/112 111/111/111 113/113/113
f 113/113/113 111/111/111 109/109/109
f 114/114/114 112/112/112 113/113/113
f 115/115/115 109/109/109 107/107/107
f 115/115/115 113/113/113 109/109/109
f 116/116/116 107/107/107 103/103/103
f 116/116/116 115/115/115 107/107/107
f 114/114/114 113/113/113 117/117/117
f 118/118/118 114/114/114 117/117/117
f 119/119/119 117/117/117 113/113/113
f 118/118/118 117/117/117 119/119/119
f 115/115/115 119/119/119 113/113/113
f 120/120/120 118/118/118 119/119/119
f 121/121/121 119/119/119 115/115/115
f 120/120/120 119/119/119 121/121/121
f 116/116/116 121/121/121 115/115/115
f 122/122/122 120/120/120 121/121/121
f 121/121/121 123/123/123 122/122/122
f 123/123/123 121/121/121 116/116/116
f 123/123/123 124/124/124 122/122/122
f 125/125/125 116/116/116 103/103/103
f 125/125/125 123/123/123 116/116/116
f 125/125/125 103/103/103 106/106/106
f 123/123/123 126/126/126 124/124/124
f 123/123/123 125/125/125 126/126/126
f 125/125/125 106/106/106 126/126/126
f 126/126/126 127/127/127 124/124/124
f 128/128/128 126/126/126 106/106/106
f 126/126/126 128/128/128 127/127/127
f 108/108/108 128/128/128 106/106/106
f 128/128/128 129/129/129 127/127/127
f 128/128/128 108/108/108 130/130/130
f 128/128/128 130/130/130 129/129/129
f 130/130/130 131/131/131 129/129/129
f 108/108/108 104/104/104 130/130/130
f 130/130/130 132/132/132 131/131/131
f 132/132/132 130/130/130 104/104/104
f 132/132/132 133/133/133 131/131/131
f 134/134/134 132/132/132 104/104/104
f 134/134/134 104/104/104 93/93/93
f 132/132/132 135/135/135 133/133/133
f 132/132/132 134/134/134 135/135/135
f 135/135/135 136/136/136 133/133/133
f 134/134/134 93/93/93 137/137/137
f 134/134/134 137/137/137 135/135/135
f 93/93/93 94/94/94 137/137/137
f 135/135/135 138/138/138 136/136/136
f 138/138/138 139/139/139 136/136/136
f 140/140/140 138/138/138 135/135/135
f 139/139/139 138/138/138 140/140/140
f 137/137/137 140/140/140 135/135/135
f 141/141/141 139/139/139 140/140/140
f 141/141/141 140/140/140 95/95/95
f 94/94/94 142/142/142 137/137/137
f 95/95/95 142/142/142 94/94/94
f 140/140/140 142/142/142 95/95/95
f 142/142/142 140/140/140 137/137/137
