g pm0676_17_Eye123Skin
v -0.068651624 1.0000393 0.5192198
v -0.057050433 0.99532384 0.5406306
v -0.06648277 0.99392074 0.54454803
v -0.04657422 0.9803901 0.558044
v -0.078398116 0.99894404 0.52433604
v -0.08691881 0.99673665 0.50630265
v -0.07841413 0.9981573 0.50159305
v -0.09023706 0.98956037 0.52907425
v -0.09513287 0.98742795 0.49286714
v -0.08725327 0.9892707 0.48777446
v -0.089534245 0.9783004 0.47842884
v -0.05755325 0.97970426 0.56155866
v -0.05367838 0.96182036 0.571359
v -0.04150077 0.9605585 0.56833214
v -0.040199075 0.9415084 0.57148147
v -0.06954072 0.9735991 0.56179076
v -0.052501142 0.94305015 0.57495266
v -0.04088923 0.929623 0.57165736
v -0.080790944 0.98444545 0.54677945
v -0.06153844 0.96229786 0.56887984
v -0.06438483 0.9510351 0.5700024
v -0.06621998 0.9356369 0.5681689
v -0.053311437 0.92871255 0.5755411
v -0.03952465 0.91235423 0.58597153
v -0.0788321 0.95966 0.56017417
v -0.09116076 0.96913564 0.5454441
v -0.09541518 0.9526009 0.53940433
v -0.09966465 0.9761537 0.5270529
v -0.082081564 0.9440107 0.55602634
v -0.09636397 0.9878954 0.5133643
v -0.10105562 0.9819776 0.5070595
v -0.10417083 0.97114843 0.49993762
v -0.08028631 0.9317629 0.5502634
v -0.10283414 0.96143836 0.5206957
v -0.10013432 0.9499474 0.5127537
v -0.09898714 0.97752094 0.48364523
v -0.09190086 0.94082314 0.5317741
v -0.10297123 0.978323 0.46566
v -0.09568338 0.9789829 0.46271262
v -0.106184416 0.97816014 0.45289576
v -0.10173358 0.9790022 0.44943622
v -0.10666498 0.9763723 0.449893
v -0.10290412 0.97733396 0.44703242
v -0.1074725 0.9721937 0.46298248
v -0.106458224 0.9658043 0.47907475
v -0.10645369 0.9730699 0.45040774
v -0.102230124 0.9733496 0.44682539
v -0.10428303 0.96770513 0.45796627
v -0.098210506 0.9669817 0.4549516
v -0.099422865 0.95912445 0.47300994
v -0.092542455 0.95823056 0.46846095
v -0.09505437 0.95217556 0.4854764
v -0.08735135 0.95055145 0.48123083
v -0.10476042 0.9590931 0.49343735
v -0.08902929 0.9443794 0.5018812
v -0.08140899 0.94215155 0.49605596
v -0.08014434 0.9353443 0.52225995
v -0.07202068 0.93206656 0.51635087
v -0.07112962 0.9268552 0.54196316
v -0.06188564 0.9234263 0.5359092
v -0.06278349 0.9202355 0.55822533
v -0.053089608 0.9175754 0.5519629
v -0.06824286 0.924334 0.5647102
v -0.055946834 0.9139326 0.57366645
v -0.04623737 0.911413 0.5683195
v -0.05773517 0.91775113 0.57661545
v -0.049122967 0.90998137 0.58452505
v -0.039872166 0.908146 0.5853487
v -0.047666993 0.9117291 0.5861865
v -0.039250813 0.9089633 0.58711475
v -0.047538687 0.9140661 0.5860499
v 0.068651624 1.0000393 0.5192198
v 0.06648277 0.99392074 0.54454803
v 0.057050433 0.99532384 0.5406306
v 0.04657422 0.9803901 0.558044
v 0.078398116 0.99894404 0.52433604
v 0.08691881 0.99673665 0.50630265
v 0.07841413 0.9981573 0.50159305
v 0.09023706 0.98956037 0.52907425
v 0.09513287 0.98742795 0.49286714
v 0.08725327 0.9892707 0.48777446
v 0.089534245 0.9783004 0.47842884
v 0.05755325 0.97970426 0.56155866
v 0.05367838 0.96182036 0.571359
v 0.04150077 0.9605585 0.56833214
v 0.040199075 0.9415084 0.57148147
v 0.06954072 0.9735991 0.56179076
v 0.052501142 0.94305015 0.57495266
v 0.04088923 0.929623 0.57165736
v 0.080790944 0.98444545 0.54677945
v 0.06153844 0.96229786 0.56887984
v 0.06438483 0.9510351 0.5700024
v 0.06621998 0.9356369 0.5681689
v 0.053311437 0.92871255 0.5755411
v 0.03952465 0.91235423 0.58597153
v 0.0788321 0.95966 0.56017417
v 0.09116076 0.96913564 0.5454441
v 0.09541518 0.9526009 0.53940433
v 0.09966465 0.9761537 0.5270529
v 0.082081564 0.9440107 0.55602634
v 0.09636397 0.9878954 0.5133643
v 0.10105562 0.9819776 0.5070595
v 0.10417083 0.97114843 0.49993762
v 0.08028631 0.9317629 0.5502634
v 0.10283414 0.96143836 0.5206957
v 0.10013432 0.9499474 0.5127537
v 0.09898714 0.97752094 0.48364523
v 0.09190086 0.94082314 0.5317741
v 0.10297123 0.978323 0.46566
v 0.09568338 0.9789829 0.46271262
v 0.106184416 0.97816014 0.45289576
v 0.10173358 0.9790022 0.44943622
v 0.10666498 0.9763723 0.449893
v 0.10290412 0.97733396 0.44703242
v 0.1074725 0.9721937 0.46298248
v 0.106458224 0.9658043 0.47907475
v 0.10645369 0.9730699 0.45040774
v 0.102230124 0.9733496 0.44682539
v 0.10428303 0.96770513 0.45796627
v 0.098210506 0.9669817 0.4549516
v 0.099422865 0.95912445 0.47300994
v 0.092542455 0.95823056 0.46846095
v 0.09505437 0.95217556 0.4854764
v 0.08735135 0.95055145 0.48123083
v 0.10476042 0.9590931 0.49343735
v 0.08902929 0.9443794 0.5018812
v 0.08140899 0.94215155 0.49605596
v 0.08014434 0.9353443 0.52225995
v 0.07202068 0.93206656 0.51635087
v 0.07112962 0.9268552 0.54196316
v 0.06188564 0.9234263 0.5359092
v 0.06278349 0.9202355 0.55822533
v 0.053089608 0.9175754 0.5519629
v 0.06824286 0.924334 0.5647102
v 0.055946834 0.9139326 0.57366645
v 0.04623737 0.911413 0.5683195
v 0.05773517 0.91775113 0.57661545
v 0.049122967 0.90998137 0.58452505
v 0.039872166 0.908146 0.5853487
v 0.047666993 0.9117291 0.5861865
v 0.039250813 0.9089633 0.58711475
v 0.047538687 0.9140661 0.5860499
vt 0.14124626 0.23827884
vt 0.13453105 0.23772304
vt 0.13491285 0.2439561
vt 0.12809753 0.24433377
vt 0.14058468 0.24498817
vt 0.14505467 0.24957046
vt 0.14640489 0.24446468
vt 0.13994226 0.2539593
vt 0.14806086 0.25860715
vt 0.14980994 0.25444385
vt 0.15220541 0.26155618
vt 0.12977047 0.24989296
vt 0.12642325 0.25960496
vt 0.1237234 0.25623006
vt 0.12134865 0.26833388
vt 0.13116659 0.25677833
vt 0.12433138 0.27079037
vt 0.12034859 0.27568108
vt 0.13551731 0.25382414
vt 0.12816885 0.26120436
vt 0.12774092 0.26834223
vt 0.1272738 0.2780881
vt 0.12321575 0.28008634
vt 0.11395548 0.28185117
vt 0.13186078 0.26620558
vt 0.13612852 0.2638013
vt 0.13671875 0.2734375
vt 0.14033373 0.26280916
vt 0.13205007 0.2757364
vt 0.14337814 0.2570498
vt 0.14460072 0.2618521
vt 0.14575177 0.26898968
vt 0.1320793 0.28384453
vt 0.14100063 0.27132916
vt 0.14185101 0.27938643
vt 0.1501512 0.26682347
vt 0.13722605 0.28172034
vt 0.15432836 0.27125752
vt 0.15552841 0.26721662
vt 0.1576039 0.27183318
vt 0.1606953 0.27001852
vt 0.15941101 0.27630875
vt 0.16197951 0.27571496
vt 0.15429927 0.27632296
vt 0.15028411 0.27622923
vt 0.15945932 0.28107405
vt 0.16254123 0.28353983
vt 0.15497532 0.28063536
vt 0.15559682 0.28455493
vt 0.15090604 0.28326103
vt 0.15168455 0.28799734
vt 0.14753711 0.28572658
vt 0.14814067 0.291012
vt 0.14656858 0.27716243
vt 0.14324299 0.28860125
vt 0.14400339 0.2943197
vt 0.13781115 0.2912724
vt 0.13820714 0.2977375
vt 0.13239533 0.29194683
vt 0.13241157 0.29918686
vt 0.12777296 0.29167157
vt 0.12770995 0.29912674
vt 0.12744832 0.28567857
vt 0.1251995 0.29015842
vt 0.12312435 0.29833478
vt 0.12503996 0.28460488
vt 0.1182294 0.287664
vt 0.11218003 0.291671
vt 0.11806932 0.28430113
vt 0.11212558 0.28845096
vt 0.1191457 0.2807521
vt 0.14124644 0.23827879
vt 0.13491285 0.24395604
vt 0.13453102 0.23772298
vt 0.12809753 0.24433373
vt 0.14058459 0.24498825
vt 0.14505458 0.2495704
vt 0.14640498 0.2444646
vt 0.13994229 0.2539592
vt 0.14806092 0.25860712
vt 0.14980984 0.25444382
vt 0.15220535 0.26155612
vt 0.1297704 0.24989292
vt 0.12642324 0.2596049
vt 0.12372339 0.25623
vt 0.12134886 0.2683337
vt 0.13116658 0.25677842
vt 0.12433136 0.27079028
vt 0.12034857 0.27568102
vt 0.13551736 0.25382406
vt 0.12816894 0.2612044
vt 0.12774086 0.2683423
vt 0.1272738 0.2780881
vt 0.12321591 0.28008622
vt 0.11395568 0.2818511
vt 0.13186085 0.26620552
vt 0.13612854 0.26380137
vt 0.13671875 0.2734375
vt 0.14033377 0.2628092
vt 0.13205004 0.27573633
vt 0.14337814 0.25704986
vt 0.14460075 0.261852
vt 0.14575183 0.26898968
vt 0.13207936 0.28384447
vt 0.14100063 0.27132905
vt 0.14185107 0.27938634
vt 0.15015113 0.2668234
vt 0.1372261 0.28172034
vt 0.15432847 0.27125722
vt 0.15552843 0.26721653
vt 0.15760446 0.27183262
vt 0.16069531 0.2700184
vt 0.15941095 0.2763082
vt 0.16197956 0.27571487
vt 0.15429926 0.27632302
vt 0.15028417 0.2762292
vt 0.1594593 0.28107402
vt 0.16254103 0.28353974
vt 0.15497553 0.28063518
vt 0.15559697 0.28455478
vt 0.15090609 0.283261
vt 0.15168452 0.2879973
vt 0.14753723 0.28572655
vt 0.14814055 0.2910121
vt 0.14656866 0.27716237
vt 0.14324296 0.28860116
vt 0.14400351 0.29431963
vt 0.13781118 0.2912724
vt 0.1382072 0.2977376
vt 0.13239539 0.29194677
vt 0.13241148 0.29918694
vt 0.12777317 0.2916715
vt 0.1277101 0.29912674
vt 0.12744844 0.28567845
vt 0.1251995 0.29015815
vt 0.12312448 0.29833472
vt 0.1250397 0.28460482
vt 0.11822963 0.2876637
vt 0.11218053 0.29167095
vt 0.11806953 0.28430107
vt 0.11212623 0.28845105
vt 0.11914599 0.28075215
vn -0.30505472 0.92276484 0.23547125
vn -0.16404 0.8342565 0.5264096
vn -0.3166311 0.75733316 0.5711316
vn -0.047150142 0.6414691 0.76569855
vn -0.44975483 0.8456802 0.28730747
vn -0.5617217 0.8257108 0.05167649
vn -0.43096524 0.90233 -0.008335407
vn -0.67399967 0.65261376 0.3461498
vn -0.6935314 0.7173602 -0.06639671
vn -0.53108835 0.83623886 -0.13656448
vn -0.59778416 0.78438586 -0.16550839
vn -0.19357865 0.57445306 0.79531807
vn -0.13406739 0.38105762 0.9147791
vn 0.0059571 0.42988607 0.9028635
vn -0.022954628 0.27267653 0.96183187
vn -0.42749703 0.4137655 0.8037688
vn -0.19464915 0.21072815 0.95796937
vn -0.109593496 0.15593491 0.9816688
vn -0.5694291 0.55389845 0.6074101
vn -0.31885976 0.30948257 0.895851
vn -0.4352788 0.1399664 0.88934904
vn -0.5978004 -0.13383423 0.7903943
vn -0.3423837 0.007128928 0.9395332
vn -0.19001931 0.016094588 0.98164845
vn -0.63042146 0.15345523 0.7609338
vn -0.7906505 0.23613833 0.56489867
vn -0.89610267 -0.16443832 0.41226214
vn -0.87646776 0.36096352 0.31860575
vn -0.7697239 -0.19477186 0.60793835
vn -0.7085038 0.690761 0.1444706
vn -0.85026014 0.51831055 0.09171572
vn -0.9826905 0.18360893 0.024636095
vn -0.7576949 -0.56820065 0.32100832
vn -0.97692 -0.04119545 0.20959537
vn -0.8799266 -0.4742661 0.028297145
vn -0.84641683 0.5187472 -0.12033235
vn -0.81620675 -0.5533383 0.16620249
vn -0.78557354 0.5939885 -0.17335458
vn -0.60212743 0.7771736 -0.18287635
vn -0.7628425 0.59426385 -0.2547973
vn -0.6787574 0.67370194 -0.2922567
vn -0.89801186 0.2004632 -0.39164928
vn -0.8361121 0.25997883 -0.48304006
vn -0.9581499 0.0635858 -0.27911586
vn -0.97350657 -0.11972772 -0.19480784
vn -0.8453791 -0.24247156 -0.47596407
vn -0.79176044 -0.28106213 -0.54232776
vn -0.81531626 -0.4320827 -0.38543996
vn -0.68382764 -0.57864213 -0.44446936
vn -0.76213473 -0.57823896 -0.29118806
vn -0.60620105 -0.71747386 -0.3431495
vn -0.7100267 -0.672126 -0.21002084
vn -0.5644013 -0.78147006 -0.26599953
vn -0.9397676 -0.3292743 -0.091734484
vn -0.66620857 -0.7343657 -0.12989643
vn -0.5412215 -0.8169731 -0.19908354
vn -0.63260716 -0.77320987 -0.044212587
vn -0.5248789 -0.8404735 -0.13456021
vn -0.61184204 -0.7892941 0.051612996
vn -0.5129979 -0.8559182 -0.06509312
vn -0.59845454 -0.7811308 0.17800803
vn -0.50614893 -0.8616376 0.03733612
vn -0.69088715 -0.52075356 0.50148857
vn -0.56721246 -0.7393986 0.36271173
vn -0.49573126 -0.8385144 0.22615083
vn -0.5746467 -0.4219136 0.70126307
vn -0.5108693 -0.6581506 0.5530373
vn -0.4598387 -0.71139914 0.53146935
vn -0.4531412 -0.3504766 0.81965184
vn -0.35637042 -0.3470392 0.8675045
vn -0.29880545 -0.026446294 0.9539475
vn 0.30505508 0.92276514 0.23546922
vn 0.3166319 0.75733364 0.57113045
vn 0.16404036 0.8342571 0.5264084
vn 0.0471505 0.64146954 0.76569813
vn 0.44975558 0.8456805 0.28730565
vn 0.56172204 0.8257107 0.051674735
vn 0.43096533 0.90233 -0.008337275
vn 0.67400026 0.6526138 0.34614858
vn 0.69353163 0.7173599 -0.06639753
vn 0.5310884 0.8362386 -0.13656525
vn 0.59778404 0.784386 -0.16550773
vn 0.19357936 0.57445335 0.79531777
vn 0.134068 0.38105774 0.9147791
vn -0.00595664 0.4298861 0.90286344
vn 0.022954958 0.27267653 0.96183187
vn 0.42749774 0.41376588 0.80376834
vn 0.19464962 0.21072815 0.95796937
vn 0.10959382 0.15593544 0.98166865
vn 0.5694298 0.5538987 0.6074091
vn 0.31886047 0.30948257 0.8958507
vn 0.43527934 0.13996622 0.88934875
vn 0.5978005 -0.13383411 0.79039425
vn 0.34238392 0.007129074 0.9395331
vn 0.1900193 0.016095752 0.98164845
vn 0.63042194 0.15345524 0.76093346
vn 0.7906508 0.23613831 0.56489825
vn 0.89610267 -0.16443838 0.4122621
vn 0.876468 0.36096346 0.31860492
vn 0.76972395 -0.19477181 0.60793835
vn 0.70850414 0.69076085 0.14446935
vn 0.8502605 0.51831025 0.09171513
vn 0.9826905 0.18360901 0.024636239
vn 0.7576949 -0.56820047 0.3210087
vn 0.97692 -0.041195504 0.20959528
vn 0.8799268 -0.47426578 0.028297426
vn 0.84641683 0.5187474 -0.1203317
vn 0.8162068 -0.55333805 0.16620302
vn 0.7855736 0.59398913 -0.17335233
vn 0.60212743 0.7771742 -0.18287414
vn 0.76284283 0.594265 -0.25479382
vn 0.67875797 0.6737031 -0.292253
vn 0.8980132 0.2004644 -0.3916456
vn 0.8361139 0.2599802 -0.48303604
vn 0.95815057 0.063586496 -0.27911362
vn 0.9735069 -0.119727306 -0.19480659
vn 0.8453808 -0.2424708 -0.4759614
vn 0.79176265 -0.28106147 -0.54232496
vn 0.8153173 -0.43208236 -0.38543805
vn 0.6838289 -0.57864195 -0.4444677
vn 0.76213527 -0.5782388 -0.29118687
vn 0.60620165 -0.71747386 -0.3431484
vn 0.71002716 -0.6721257 -0.21002005
vn 0.5644018 -0.78146994 -0.2659987
vn 0.9397679 -0.32927394 -0.0917337
vn 0.6662089 -0.7343656 -0.12989576
vn 0.5412219 -0.816973 -0.19908297
vn 0.63260734 -0.77320963 -0.044211984
vn 0.5248792 -0.84047335 -0.1345598
vn 0.6118423 -0.78929406 0.051613383
vn 0.51299816 -0.8559181 -0.065092854
vn 0.5984547 -0.7811306 0.17800808
vn 0.50614905 -0.8616375 0.037336126
vn 0.6908873 -0.52075315 0.50148886
vn 0.56721264 -0.7393983 0.362712
vn 0.49573162 -0.8385141 0.2261511
vn 0.5746469 -0.4219131 0.70126337
vn 0.5108694 -0.6581496 0.55303836
vn 0.45983896 -0.7113982 0.5314704
vn 0.45314112 -0.35047516 0.81965256
vn 0.35637015 -0.34703723 0.8675053
vn 0.29880548 -0.026445257 0.9539475
g pm0676_17_Eye123Skin_0
f 3/3/3 2/2/2 1/1/1
f 4/4/4 2/2/2 3/3/3
f 5/5/5 3/3/3 1/1/1
f 5/5/5 1/1/1 6/6/6
f 1/1/1 7/7/7 6/6/6
f 5/5/5 8/8/8 3/3/3
f 5/5/5 6/6/6 8/8/8
f 6/6/6 7/7/7 9/9/9
f 7/7/7 10/10/10 9/9/9
f 9/9/9 10/10/10 11/11/11
f 12/12/12 4/4/4 3/3/3
f 12/12/12 13/13/13 4/4/4
f 13/13/13 14/14/14 4/4/4
f 15/15/15 14/14/14 13/13/13
f 12/12/12 3/3/3 16/16/16
f 12/12/12 16/16/16 13/13/13
f 17/17/17 15/15/15 13/13/13
f 18/18/18 15/15/15 17/17/17
f 8/8/8 19/19/19 3/3/3
f 3/3/3 19/19/19 16/16/16
f 16/16/16 20/20/20 13/13/13
f 13/13/13 20/20/20 17/17/17
f 21/21/21 20/20/20 16/16/16
f 20/20/20 21/21/21 17/17/17
f 17/17/17 21/21/21 22/22/22
f 23/23/23 18/18/18 17/17/17
f 23/23/23 17/17/17 22/22/22
f 24/24/24 18/18/18 23/23/23
f 25/25/25 21/21/21 16/16/16
f 16/16/16 19/19/19 25/25/25
f 22/22/22 21/21/21 25/25/25
f 26/26/26 19/19/19 8/8/8
f 19/19/19 26/26/26 25/25/25
f 25/25/25 26/26/26 27/27/27
f 28/28/28 26/26/26 8/8/8
f 27/27/27 26/26/26 28/28/28
f 29/29/29 22/22/22 25/25/25
f 29/29/29 25/25/25 27/27/27
f 8/8/8 30/30/30 28/28/28
f 6/6/6 30/30/30 8/8/8
f 31/31/31 30/30/30 6/6/6
f 30/30/30 31/31/31 28/28/28
f 28/28/28 31/31/31 32/32/32
f 9/9/9 31/31/31 6/6/6
f 32/32/32 31/31/31 9/9/9
f 29/29/29 33/33/33 22/22/22
f 29/29/29 27/27/27 33/33/33
f 34/34/34 28/28/28 32/32/32
f 34/34/34 27/27/27 28/28/28
f 34/34/34 35/35/35 27/27/27
f 34/34/34 32/32/32 35/35/35
f 36/36/36 32/32/32 9/9/9
f 36/36/36 9/9/9 11/11/11
f 27/27/27 37/37/37 33/33/33
f 35/35/35 37/37/37 27/27/27
f 38/38/38 36/36/36 11/11/11
f 39/39/39 38/38/38 11/11/11
f 40/40/40 38/38/38 39/39/39
f 41/41/41 40/40/40 39/39/39
f 40/40/40 41/41/41 42/42/42
f 40/40/40 42/42/42 38/38/38
f 41/41/41 43/43/43 42/42/42
f 38/38/38 44/44/44 36/36/36
f 42/42/42 44/44/44 38/38/38
f 36/36/36 45/45/45 32/32/32
f 44/44/44 45/45/45 36/36/36
f 42/42/42 43/43/43 46/46/46
f 43/43/43 47/47/47 46/46/46
f 46/46/46 48/48/48 42/42/42
f 46/46/46 47/47/47 48/48/48
f 48/48/48 44/44/44 42/42/42
f 47/47/47 49/49/49 48/48/48
f 48/48/48 50/50/50 44/44/44
f 48/48/48 49/49/49 50/50/50
f 50/50/50 45/45/45 44/44/44
f 49/49/49 51/51/51 50/50/50
f 52/52/52 50/50/50 51/51/51
f 50/50/50 52/52/52 45/45/45
f 53/53/53 52/52/52 51/51/51
f 45/45/45 54/54/54 32/32/32
f 52/52/52 54/54/54 45/45/45
f 32/32/32 54/54/54 35/35/35
f 55/55/55 52/52/52 53/53/53
f 54/54/54 52/52/52 55/55/55
f 35/35/35 54/54/54 55/55/55
f 56/56/56 55/55/55 53/53/53
f 55/55/55 57/57/57 35/35/35
f 57/57/57 55/55/55 56/56/56
f 57/57/57 37/37/37 35/35/35
f 58/58/58 57/57/57 56/56/56
f 37/37/37 57/57/57 59/59/59
f 59/59/59 57/57/57 58/58/58
f 60/60/60 59/59/59 58/58/58
f 33/33/33 37/37/37 59/59/59
f 61/61/61 59/59/59 60/60/60
f 59/59/59 61/61/61 33/33/33
f 62/62/62 61/61/61 60/60/60
f 61/61/61 63/63/63 33/33/33
f 33/33/33 63/63/63 22/22/22
f 64/64/64 61/61/61 62/62/62
f 63/63/63 61/61/61 64/64/64
f 65/65/65 64/64/64 62/62/62
f 22/22/22 63/63/63 66/66/66
f 66/66/66 63/63/63 64/64/64
f 23/23/23 22/22/22 66/66/66
f 67/67/67 64/64/64 65/65/65
f 68/68/68 67/67/67 65/65/65
f 67/67/67 69/69/69 64/64/64
f 67/67/67 68/68/68 69/69/69
f 69/69/69 66/66/66 64/64/64
f 68/68/68 70/70/70 69/69/69
f 69/69/69 70/70/70 24/24/24
f 71/71/71 23/23/23 66/66/66
f 71/71/71 24/24/24 23/23/23
f 71/71/71 69/69/69 24/24/24
f 69/69/69 71/71/71 66/66/66
f 74/74/74 73/73/73 72/72/72
f 74/74/74 75/75/75 73/73/73
f 73/73/73 76/76/76 72/72/72
f 72/72/72 76/76/76 77/77/77
f 78/78/78 72/72/72 77/77/77
f 79/79/79 76/76/76 73/73/73
f 77/77/77 76/76/76 79/79/79
f 78/78/78 77/77/77 80/80/80
f 81/81/81 78/78/78 80/80/80
f 81/81/81 80/80/80 82/82/82
f 75/75/75 83/83/83 73/73/73
f 84/84/84 83/83/83 75/75/75
f 85/85/85 84/84/84 75/75/75
f 85/85/85 86/86/86 84/84/84
f 73/73/73 83/83/83 87/87/87
f 87/87/87 83/83/83 84/84/84
f 86/86/86 88/88/88 84/84/84
f 86/86/86 89/89/89 88/88/88
f 90/90/90 79/79/79 73/73/73
f 90/90/90 73/73/73 87/87/87
f 91/91/91 87/87/87 84/84/84
f 91/91/91 84/84/84 88/88/88
f 91/91/91 92/92/92 87/87/87
f 92/92/92 91/91/91 88/88/88
f 92/92/92 88/88/88 93/93/93
f 89/89/89 94/94/94 88/88/88
f 88/88/88 94/94/94 93/93/93
f 89/89/89 95/95/95 94/94/94
f 92/92/92 96/96/96 87/87/87
f 90/90/90 87/87/87 96/96/96
f 92/92/92 93/93/93 96/96/96
f 90/90/90 97/97/97 79/79/79
f 97/97/97 90/90/90 96/96/96
f 97/97/97 96/96/96 98/98/98
f 97/97/97 99/99/99 79/79/79
f 97/97/97 98/98/98 99/99/99
f 93/93/93 100/100/100 96/96/96
f 96/96/96 100/100/100 98/98/98
f 101/101/101 79/79/79 99/99/99
f 101/101/101 77/77/77 79/79/79
f 101/101/101 102/102/102 77/77/77
f 102/102/102 101/101/101 99/99/99
f 102/102/102 99/99/99 103/103/103
f 102/102/102 80/80/80 77/77/77
f 102/102/102 103/103/103 80/80/80
f 104/104/104 100/100/100 93/93/93
f 98/98/98 100/100/100 104/104/104
f 99/99/99 105/105/105 103/103/103
f 98/98/98 105/105/105 99/99/99
f 106/106/106 105/105/105 98/98/98
f 103/103/103 105/105/105 106/106/106
f 103/103/103 107/107/107 80/80/80
f 80/80/80 107/107/107 82/82/82
f 108/108/108 98/98/98 104/104/104
f 108/108/108 106/106/106 98/98/98
f 107/107/107 109/109/109 82/82/82
f 109/109/109 110/110/110 82/82/82
f 109/109/109 111/111/111 110/110/110
f 111/111/111 112/112/112 110/110/110
f 112/112/112 111/111/111 113/113/113
f 113/113/113 111/111/111 109/109/109
f 114/114/114 112/112/112 113/113/113
f 115/115/115 109/109/109 107/107/107
f 115/115/115 113/113/113 109/109/109
f 116/116/116 107/107/107 103/103/103
f 116/116/116 115/115/115 107/107/107
f 114/114/114 113/113/113 117/117/117
f 118/118/118 114/114/114 117/117/117
f 119/119/119 117/117/117 113/113/113
f 118/118/118 117/117/117 119/119/119
f 115/115/115 119/119/119 113/113/113
f 120/120/120 118/118/118 119/119/119
f 121/121/121 119/119/119 115/115/115
f 120/120/120 119/119/119 121/121/121
f 116/116/116 121/121/121 115/115/115
f 122/122/122 120/120/120 121/121/121
f 121/121/121 123/123/123 122/122/122
f 123/123/123 121/121/121 116/116/116
f 123/123/123 124/124/124 122/122/122
f 125/125/125 116/116/116 103/103/103
f 125/125/125 123/123/123 116/116/116
f 125/125/125 103/103/103 106/106/106
f 123/123/123 126/126/126 124/124/124
f 123/123/123 125/125/125 126/126/126
f 125/125/125 106/106/106 126/126/126
f 126/126/126 127/127/127 124/124/124
f 128/128/128 126/126/126 106/106/106
f 126/126/126 128/128/128 127/127/127
f 108/108/108 128/128/128 106/106/106
f 128/128/128 129/129/129 127/127/127
f 128/128/128 108/108/108 130/130/130
f 128/128/128 130/130/130 129/129/129
f 130/130/130 131/131/131 129/129/129
f 108/108/108 104/104/104 130/130/130
f 130/130/130 132/132/132 131/131/131
f 132/132/132 130/130/130 104/104/104
f 132/132/132 133/133/133 131/131/131
f 134/134/134 132/132/132 104/104/104
f 134/134/134 104/104/104 93/93/93
f 132/132/132 135/135/135 133/133/133
f 132/132/132 134/134/134 135/135/135
f 135/135/135 136/136/136 133/133/133
f 134/134/134 93/93/93 137/137/137
f 134/134/134 137/137/137 135/135/135
f 93/93/93 94/94/94 137/137/137
f 135/135/135 138/138/138 136/136/136
f 138/138/138 139/139/139 136/136/136
f 140/140/140 138/138/138 135/135/135
f 139/139/139 138/138/138 140/140/140
f 137/137/137 140/140/140 135/135/135
f 141/141/141 139/139/139 140/140/140
f 141/141/141 140/140/140 95/95/95
f 94/94/94 142/142/142 137/137/137
f 95/95/95 142/142/142 94/94/94
f 140/140/140 142/142/142 95/95/95
f 142/142/142 140/140/140 137/137/137
