g pm0726_00_SuzuOuterAFSkin_tz1
v -0.039768618 0.2645211 0.273146
v -0.039777298 0.27075228 0.29639935
v -0.04327017 0.25600913 0.28790006
v -0.039777298 0.24126749 0.27937636
v -0.037022118 0.27761906 0.2820946
v -0.028808536 0.2882393 0.2897054
v -0.028819833 0.2830017 0.2701933
v -0.030596815 0.28250754 0.3031863
v -0.017023027 0.29045808 0.30777648
v -0.037022118 0.25022238 0.2662771
v -0.028808536 0.23832111 0.2608851
v -0.028819833 0.2578379 0.255665
v -0.030596815 0.22951221 0.2725894
v -0.017023027 0.22156166 0.26799917
v -0.030596811 0.27130827 0.26139024
v -0.017022423 0.27589417 0.25344723
v -0.015823951 0.2959918 0.29269952
v 2.4732199E-09 0.2989696 0.29303414
v -0.014540713 0.29537323 0.27734905
v 5.324201E-06 0.2934826 0.30952418
v 0.017023034 0.29045808 0.30777648
v -0.024983654 0.29013133 0.2787476
v -0.015821679 0.28821924 0.26373452
v 5.7791087E-09 0.29064083 0.26195124
v 4.445308E-09 0.29780596 0.2766887
v 0.014540711 0.29537323 0.27734908
v 0.015823951 0.2959918 0.29269952
v 0.028808521 0.2882393 0.28970534
v 0.03059688 0.28250754 0.3031863
v 0.039777357 0.27075225 0.29639938
v 0.024983644 0.29013133 0.27874762
v 0.028819833 0.28300163 0.2701933
v 0.037022088 0.27761906 0.2820946
v 0.03976858 0.2645211 0.273146
v 0.04327017 0.25600913 0.28790006
v 0.039777357 0.24126749 0.27937636
v 0.015821679 0.28821924 0.26373452
v 0.01702242 0.27589417 0.25344723
v 0.03059681 0.27130827 0.26139024
v 0.028819833 0.2578379 0.255665
v 0.037022095 0.25022238 0.2662771
v 0.028808521 0.23832111 0.2608851
v 0.03059688 0.22951221 0.2725894
v 0.017023034 0.22156166 0.26799917
v 4.9083326E-17 0.27764016 0.25041214
v 5.7791087E-09 0.26115614 0.24492823
v 0.015821679 0.26082256 0.24791701
v 0.014540711 0.24545501 0.2485288
v 0.024976408 0.24686843 0.25376138
v 0.015823951 0.23185189 0.25566828
v 2.4732199E-09 0.23007318 0.2532568
v 5.3241847E-06 0.2185359 0.26625374
v -0.015821679 0.26082262 0.24791701
v -0.014540713 0.24545501 0.2485288
v 4.445308E-09 0.2448106 0.2460918
v -0.015823951 0.23185189 0.25566828
v -0.024983654 0.24686477 0.2537676
v 0.03976869 0.24749862 0.30262968
v 0.039777357 0.27075225 0.29639938
v 0.04327017 0.25600913 0.28790006
v 0.039777357 0.24126749 0.27937636
v 0.037022185 0.2617974 0.3094986
v 0.028808568 0.27369866 0.3148907
v 0.028819878 0.25418183 0.32011077
v 0.03059688 0.28250754 0.3031863
v 0.017023034 0.29045808 0.30777648
v 0.037022185 0.23440063 0.29368111
v 0.028808564 0.22378036 0.28607035
v 0.028819878 0.22901803 0.30558243
v 0.03059688 0.22951221 0.2725894
v 0.017023034 0.22156166 0.26799917
v 0.030596869 0.24071139 0.3143855
v 0.017022453 0.23612551 0.3223285
v 0.015823957 0.28016785 0.32010737
v 4.4391074E-10 0.28194657 0.3225189
v 0.014540728 0.2665647 0.32724696
v 5.324201E-06 0.2934826 0.30952418
v -0.017023027 0.29045808 0.30777648
v 0.024983687 0.26515496 0.32200813
v 0.015821705 0.25119713 0.32785878
v 1.0372756E-09 0.2508636 0.3308475
v 7.978758E-10 0.2672091 0.32968396
v -0.0145407235 0.2665647 0.32724693
v -0.015823957 0.28016785 0.32010737
v -0.02880854 0.2736986 0.3148906
v -0.030596815 0.28250754 0.3031863
v -0.039777298 0.27075228 0.29639935
v -0.024983665 0.26515496 0.32200807
v -0.028819859 0.25418183 0.32011077
v -0.037022132 0.2617974 0.30949858
v -0.039768633 0.24749862 0.30262968
v -0.04327017 0.25600913 0.28790006
v -0.039777298 0.24126749 0.27937636
v -0.015821695 0.25119713 0.3278587
v -0.017022444 0.23612551 0.3223285
v -0.030596843 0.24071139 0.31438547
v -0.028819859 0.22901808 0.30558243
v -0.037022132 0.23440067 0.2936811
v -0.02880854 0.22378038 0.28607038
v -0.030596815 0.22951221 0.2725894
v -0.017023027 0.22156166 0.26799917
v 5.0303947E-17 0.23437005 0.32535815
v 1.0372756E-09 0.22137882 0.3138245
v -0.015821697 0.22380047 0.31204122
v -0.0145407235 0.21664649 0.29842663
v -0.024976434 0.2218847 0.29703435
v -0.015823957 0.21602795 0.28307623
v 4.4391069E-10 0.21305016 0.28274155
v 5.3241847E-06 0.2185359 0.26625374
v 0.015821705 0.22380048 0.31204122
v 0.014540728 0.21664646 0.29842663
v 7.978758E-10 0.21421377 0.2990871
v 0.015823957 0.21602795 0.28307623
v 0.024983687 0.22188835 0.29702806
vt 0.033037428 0.99115777
vt 0.038765073 0.9961061
vt 0.03303571 0.9976597
vt 0.027310131 0.9961062
vt 0.03695071 0.99052435
vt 0.040333774 0.9880557
vt 0.036169466 0.98657525
vt 0.043332048 0.99202317
vt 0.046420854 0.9859863
vt 0.029124493 0.99052465
vt 0.02574144 0.9880557
vt 0.029905671 0.98657525
vt 0.022743044 0.99202347
vt 0.019654196 0.9859866
vt 0.03303755 0.9868702
vt 0.03303755 0.98261887
vt 0.0421984 0.98358935
vt 0.04267876 0.9784157
vt 0.039211843 0.9825597
vt 0.047596175 0.97841334
vt 0.0464209 0.970845
vt 0.03869936 0.98590106
vt 0.03610078 0.982466
vt 0.036216605 0.9784157
vt 0.039433654 0.97841597
vt 0.03921188 0.9742719
vt 0.0421984 0.9732422
vt 0.04033366 0.9687756
vt 0.04333201 0.9648081
vt 0.038765 0.9607252
vt 0.03869936 0.9709308
vt 0.036169466 0.9702561
vt 0.036950756 0.96630716
vt 0.033037625 0.9656738
vt 0.033039346 0.959172
vt 0.027310092 0.9607252
vt 0.03610065 0.9743656
vt 0.03303746 0.97421277
vt 0.03303755 0.9699611
vt 0.029905627 0.9702561
vt 0.029124415 0.9663072
vt 0.025741352 0.9687756
vt 0.022743084 0.96480846
vt 0.019654196 0.97084534
vt 0.03303647 0.9784187
vt 0.029858569 0.9784157
vt 0.029974354 0.9743656
vt 0.026863249 0.9742719
vt 0.02737631 0.9709337
vt 0.023876576 0.9732422
vt 0.023396377 0.9784157
vt 0.018478876 0.9784132
vt 0.029974354 0.982466
vt 0.026863249 0.98256004
vt 0.026641479 0.9784157
vt 0.023876734 0.98358935
vt 0.027375732 0.9859007
vt 0.06474571 0.99567074
vt 0.07075336 0.99654
vt 0.06474759 0.9981695
vt 0.05873794 0.99654
vt 0.070067555 0.9944495
vt 0.07444244 0.9907963
vt 0.069633774 0.99080133
vt 0.07554381 0.9922576
vt 0.078783765 0.9859253
vt 0.059423804 0.9944495
vt 0.055048894 0.9907964
vt 0.05985757 0.99080133
vt 0.053947408 0.99225724
vt 0.05070749 0.9859253
vt 0.064745724 0.99159175
vt 0.06474572 0.9855546
vt 0.077204965 0.9850215
vt 0.07812893 0.97798395
vt 0.07444246 0.984451
vt 0.0800166 0.9779864
vt 0.07878376 0.9700427
vt 0.07315035 0.9890953
vt 0.070067525 0.9850206
vt 0.07047311 0.97798395
vt 0.075040095 0.97798395
vt 0.07444234 0.97151756
vt 0.07720501 0.9709471
vt 0.07444231 0.9651718
vt 0.0755438 0.96371096
vt 0.070753366 0.95942813
vt 0.07315019 0.966873
vt 0.069633774 0.96516705
vt 0.070067525 0.9615191
vt 0.06474571 0.9602977
vt 0.06474377 0.95779866
vt 0.058737967 0.95942813
vt 0.070067555 0.9709479
vt 0.06474572 0.9704136
vt 0.06474571 0.96437675
vt 0.059857562 0.96516705
vt 0.059423782 0.9615191
vt 0.055048957 0.9651718
vt 0.053947356 0.9637112
vt 0.05070746 0.9700427
vt 0.0647438 0.9779791
vt 0.059018202 0.97798395
vt 0.059423804 0.9709479
vt 0.055048987 0.97151756
vt 0.056340843 0.9668761
vt 0.052286234 0.9709465
vt 0.051362317 0.97798395
vt 0.04947468 0.9779867
vt 0.059423782 0.9850206
vt 0.055048913 0.984451
vt 0.054451108 0.9779842
vt 0.052286208 0.98502135
vt 0.056340877 0.98909557
vn -0.9251606 0.18979423 -0.3287186
vn -0.9251677 0.32870173 0.18978937
vn -1 -4.812536E-06 3.6361384E-05
vn -0.92517656 -0.3286963 -0.1897556
vn -0.85742694 0.49706152 -0.1332249
vn -0.6651801 0.74569035 0.038489066
vn -0.66513497 0.62650204 -0.40631354
vn -0.7071732 0.61231214 0.3535251
vn -0.3796347 0.80119205 0.46256766
vn -0.8574365 -0.13314399 -0.4970668
vn -0.665187 -0.406175 -0.6265366
vn -0.66514134 0.038623847 -0.7457179
vn -0.7071823 -0.61231357 -0.3535046
vn -0.37963635 -0.80119187 -0.4625666
vn -0.7071204 0.35354683 -0.6123604
vn -0.3795984 0.46256962 -0.8012081
vn -0.36396587 0.9244738 0.11347662
vn 6.145275E-06 0.99101055 0.13378371
vn -0.3395206 0.90852034 -0.24354999
vn 1.5507847E-05 0.86602366 0.50000304
vn 0.37965548 0.801185 0.46256286
vn -0.5774162 0.78859913 -0.21142837
vn -0.36393142 0.7438088 -0.5606268
vn -5.343461E-07 0.7912762 -0.61145884
vn 2.9249554E-06 0.96589714 -0.25892627
vn 0.33952266 0.90851843 -0.2435539
vn 0.36398348 0.9244679 0.11346828
vn 0.6651847 0.7456865 0.038483456
vn 0.7071837 0.61230356 0.35351884
vn 0.92516845 0.32870066 0.1897871
vn 0.5774182 0.7885966 -0.2114324
vn 0.6651363 0.6265013 -0.40631258
vn 0.85742664 0.4970608 -0.13322924
vn 0.9251601 0.18979372 -0.32872036
vn 1 -1.8047009E-06 3.128148E-05
vn 0.92517734 -0.3286905 -0.18976155
vn 0.3639318 0.7438082 -0.5606273
vn 0.37959895 0.46257067 -0.8012072
vn 0.7071169 0.3535485 -0.6123636
vn 0.66513735 0.038626213 -0.7457214
vn 0.8574307 -0.13313667 -0.49707857
vn 0.6651861 -0.40616283 -0.6265455
vn 0.7071925 -0.61229706 -0.3535125
vn 0.37965718 -0.80118203 -0.46256652
vn -1.8047062E-06 0.49998826 -0.86603224
vn -3.940806E-06 0.13387787 -0.9909979
vn 0.36392713 0.11359994 -0.92447394
vn 0.33951437 -0.24334128 -0.9085786
vn 0.577409 -0.21118838 -0.7886686
vn 0.36397728 -0.5604982 -0.74388325
vn 3.8741828E-06 -0.6113674 -0.7913469
vn 1.564153E-05 -0.8660271 -0.49999702
vn -0.36393768 0.113594376 -0.9244705
vn -0.33952346 -0.24334826 -0.90857327
vn -4.2544475E-06 -0.2587245 -0.9659512
vn -0.36396813 -0.56051224 -0.74387723
vn -0.5774223 -0.2112008 -0.7886555
vn 0.92514336 -0.18980294 0.3287621
vn 0.92516845 0.32870066 0.1897871
vn 1 -1.8047009E-06 3.128148E-05
vn 0.92517734 -0.3286905 -0.18976155
vn 0.8574093 0.13314171 0.49711433
vn 0.6651781 0.40617526 0.62654585
vn 0.6651235 -0.038627695 0.7457336
vn 0.7071837 0.61230356 0.35351884
vn 0.37965548 0.801185 0.46256286
vn 0.8574184 -0.49706808 0.13325536
vn 0.6651849 -0.74568623 -0.038485
vn 0.6651292 -0.626508 0.40631384
vn 0.7071925 -0.61229706 -0.3535125
vn 0.37965718 -0.80118203 -0.46256652
vn 0.70709926 -0.35355747 0.6123787
vn 0.3795944 -0.4625829 0.80120236
vn 0.36398014 0.560498 0.743882
vn 5.3437147E-06 0.6113621 0.791351
vn 0.33952186 0.2433357 0.9085773
vn 1.5507847E-05 0.86602366 0.50000304
vn -0.3796347 0.80119205 0.46256766
vn 0.5774099 0.21119483 0.7886663
vn 0.36392906 -0.11361245 0.9244717
vn -1.8034174E-06 -0.13390046 0.99099475
vn 1.8613321E-06 0.2587101 0.96595496
vn -0.339521 0.24333961 0.9085765
vn -0.3639632 0.5605072 0.7438835
vn -0.6651733 0.4061809 0.62654734
vn -0.7071732 0.61231214 0.3535251
vn -0.9251677 0.32870173 0.18978937
vn -0.57740796 0.21119949 0.7886664
vn -0.6651246 -0.03862643 0.7457327
vn -0.85740834 0.13314219 0.4971157
vn -0.9251432 -0.18980405 0.328762
vn -1 -4.812536E-06 3.6361384E-05
vn -0.92517656 -0.3286963 -0.1897556
vn -0.36392745 -0.113609865 0.92447263
vn -0.37959504 -0.46258113 0.80120295
vn -0.707096 -0.35355866 0.6123819
vn -0.6651258 -0.62650937 0.40631717
vn -0.8574126 -0.49707606 0.13326375
vn -0.665175 -0.74569535 -0.038479608
vn -0.7071823 -0.61231357 -0.3535046
vn -0.37963635 -0.80119187 -0.4625666
vn 1.4705016E-06 -0.5000119 0.86601853
vn 2.0037983E-06 -0.7912904 0.61144054
vn -0.36392325 -0.7438212 0.56061566
vn -0.3395132 -0.908524 0.24354652
vn -0.5773993 -0.788609 0.21143724
vn -0.3639575 -0.9244784 -0.11346654
vn 7.881957E-06 -0.9910109 -0.13378166
vn 1.564153E-05 -0.8660271 -0.49999702
vn 0.3639354 -0.74381876 0.560611
vn 0.33952522 -0.9085198 0.24354549
vn 9.439542E-06 -0.9658998 0.25891626
vn 0.36398306 -0.92446834 -0.11346649
vn 0.5774159 -0.7885995 0.21142763
g pm0726_00_SuzuOuterAFSkin_tz1_0
f 3/3/3 2/2/2 1/1/1
f 3/3/3 1/1/1 4/4/4
f 2/2/2 5/5/5 1/1/1
f 6/6/6 5/5/5 2/2/2
f 1/1/1 5/5/5 7/7/7
f 7/7/7 5/5/5 6/6/6
f 8/8/8 6/6/6 2/2/2
f 8/8/8 9/9/9 6/6/6
f 1/1/1 10/10/10 4/4/4
f 4/4/4 10/10/10 11/11/11
f 12/12/12 10/10/10 1/1/1
f 11/11/11 10/10/10 12/12/12
f 13/13/13 4/4/4 11/11/11
f 13/13/13 11/11/11 14/14/14
f 15/15/15 1/1/1 7/7/7
f 15/15/15 12/12/12 1/1/1
f 15/15/15 7/7/7 16/16/16
f 15/15/15 16/16/16 12/12/12
f 9/9/9 17/17/17 6/6/6
f 18/18/18 17/17/17 9/9/9
f 6/6/6 17/17/17 19/19/19
f 19/19/19 17/17/17 18/18/18
f 20/20/20 18/18/18 9/9/9
f 20/20/20 21/21/21 18/18/18
f 22/22/22 7/7/7 6/6/6
f 22/22/22 6/6/6 19/19/19
f 22/22/22 19/19/19 7/7/7
f 7/7/7 23/23/23 16/16/16
f 19/19/19 23/23/23 7/7/7
f 24/24/24 23/23/23 19/19/19
f 16/16/16 23/23/23 24/24/24
f 25/25/25 19/19/19 18/18/18
f 25/25/25 24/24/24 19/19/19
f 25/25/25 18/18/18 26/26/26
f 25/25/25 26/26/26 24/24/24
f 21/21/21 27/27/27 18/18/18
f 18/18/18 27/27/27 26/26/26
f 28/28/28 27/27/27 21/21/21
f 26/26/26 27/27/27 28/28/28
f 29/29/29 28/28/28 21/21/21
f 29/29/29 30/30/30 28/28/28
f 31/31/31 26/26/26 28/28/28
f 31/31/31 28/28/28 32/32/32
f 31/31/31 32/32/32 26/26/26
f 30/30/30 33/33/33 28/28/28
f 28/28/28 33/33/33 32/32/32
f 34/34/34 33/33/33 30/30/30
f 32/32/32 33/33/33 34/34/34
f 35/35/35 34/34/34 30/30/30
f 35/35/35 36/36/36 34/34/34
f 26/26/26 37/37/37 24/24/24
f 32/32/32 37/37/37 26/26/26
f 24/24/24 37/37/37 38/38/38
f 38/38/38 37/37/37 32/32/32
f 39/39/39 32/32/32 34/34/34
f 39/39/39 38/38/38 32/32/32
f 39/39/39 34/34/34 40/40/40
f 39/39/39 40/40/40 38/38/38
f 36/36/36 41/41/41 34/34/34
f 34/34/34 41/41/41 40/40/40
f 42/42/42 41/41/41 36/36/36
f 40/40/40 41/41/41 42/42/42
f 43/43/43 42/42/42 36/36/36
f 43/43/43 44/44/44 42/42/42
f 45/45/45 24/24/24 38/38/38
f 45/45/45 38/38/38 46/46/46
f 45/45/45 16/16/16 24/24/24
f 45/45/45 46/46/46 16/16/16
f 40/40/40 47/47/47 38/38/38
f 38/38/38 47/47/47 46/46/46
f 48/48/48 47/47/47 40/40/40
f 46/46/46 47/47/47 48/48/48
f 49/49/49 40/40/40 42/42/42
f 49/49/49 48/48/48 40/40/40
f 49/49/49 42/42/42 48/48/48
f 44/44/44 50/50/50 42/42/42
f 42/42/42 50/50/50 48/48/48
f 51/51/51 50/50/50 44/44/44
f 48/48/48 50/50/50 51/51/51
f 52/52/52 51/51/51 44/44/44
f 52/52/52 14/14/14 51/51/51
f 46/46/46 53/53/53 16/16/16
f 54/54/54 53/53/53 46/46/46
f 16/16/16 53/53/53 12/12/12
f 12/12/12 53/53/53 54/54/54
f 55/55/55 46/46/46 48/48/48
f 55/55/55 48/48/48 51/51/51
f 55/55/55 54/54/54 46/46/46
f 55/55/55 51/51/51 54/54/54
f 14/14/14 56/56/56 51/51/51
f 51/51/51 56/56/56 54/54/54
f 11/11/11 56/56/56 14/14/14
f 54/54/54 56/56/56 11/11/11
f 57/57/57 12/12/12 54/54/54
f 57/57/57 54/54/54 11/11/11
f 57/57/57 11/11/11 12/12/12
f 60/60/60 59/59/59 58/58/58
f 60/60/60 58/58/58 61/61/61
f 59/59/59 62/62/62 58/58/58
f 63/63/63 62/62/62 59/59/59
f 58/58/58 62/62/62 64/64/64
f 64/64/64 62/62/62 63/63/63
f 65/65/65 63/63/63 59/59/59
f 65/65/65 66/66/66 63/63/63
f 58/58/58 67/67/67 61/61/61
f 61/61/61 67/67/67 68/68/68
f 69/69/69 67/67/67 58/58/58
f 68/68/68 67/67/67 69/69/69
f 70/70/70 61/61/61 68/68/68
f 70/70/70 68/68/68 71/71/71
f 72/72/72 58/58/58 64/64/64
f 72/72/72 69/69/69 58/58/58
f 72/72/72 64/64/64 73/73/73
f 72/72/72 73/73/73 69/69/69
f 66/66/66 74/74/74 63/63/63
f 75/75/75 74/74/74 66/66/66
f 63/63/63 74/74/74 76/76/76
f 76/76/76 74/74/74 75/75/75
f 77/77/77 75/75/75 66/66/66
f 77/77/77 78/78/78 75/75/75
f 79/79/79 64/64/64 63/63/63
f 79/79/79 63/63/63 76/76/76
f 79/79/79 76/76/76 64/64/64
f 64/64/64 80/80/80 73/73/73
f 76/76/76 80/80/80 64/64/64
f 81/81/81 80/80/80 76/76/76
f 73/73/73 80/80/80 81/81/81
f 82/82/82 76/76/76 75/75/75
f 82/82/82 81/81/81 76/76/76
f 82/82/82 75/75/75 83/83/83
f 82/82/82 83/83/83 81/81/81
f 78/78/78 84/84/84 75/75/75
f 75/75/75 84/84/84 83/83/83
f 85/85/85 84/84/84 78/78/78
f 83/83/83 84/84/84 85/85/85
f 86/86/86 85/85/85 78/78/78
f 86/86/86 87/87/87 85/85/85
f 88/88/88 83/83/83 85/85/85
f 88/88/88 85/85/85 89/89/89
f 88/88/88 89/89/89 83/83/83
f 87/87/87 90/90/90 85/85/85
f 85/85/85 90/90/90 89/89/89
f 91/91/91 90/90/90 87/87/87
f 89/89/89 90/90/90 91/91/91
f 92/92/92 91/91/91 87/87/87
f 92/92/92 93/93/93 91/91/91
f 83/83/83 94/94/94 81/81/81
f 89/89/89 94/94/94 83/83/83
f 81/81/81 94/94/94 95/95/95
f 95/95/95 94/94/94 89/89/89
f 96/96/96 89/89/89 91/91/91
f 96/96/96 95/95/95 89/89/89
f 96/96/96 91/91/91 97/97/97
f 96/96/96 97/97/97 95/95/95
f 93/93/93 98/98/98 91/91/91
f 91/91/91 98/98/98 97/97/97
f 99/99/99 98/98/98 93/93/93
f 97/97/97 98/98/98 99/99/99
f 100/100/100 99/99/99 93/93/93
f 100/100/100 101/101/101 99/99/99
f 102/102/102 81/81/81 95/95/95
f 102/102/102 95/95/95 103/103/103
f 102/102/102 73/73/73 81/81/81
f 102/102/102 103/103/103 73/73/73
f 97/97/97 104/104/104 95/95/95
f 95/95/95 104/104/104 103/103/103
f 105/105/105 104/104/104 97/97/97
f 103/103/103 104/104/104 105/105/105
f 106/106/106 97/97/97 99/99/99
f 106/106/106 105/105/105 97/97/97
f 106/106/106 99/99/99 105/105/105
f 101/101/101 107/107/107 99/99/99
f 99/99/99 107/107/107 105/105/105
f 108/108/108 107/107/107 101/101/101
f 105/105/105 107/107/107 108/108/108
f 109/109/109 108/108/108 101/101/101
f 109/109/109 71/71/71 108/108/108
f 103/103/103 110/110/110 73/73/73
f 111/111/111 110/110/110 103/103/103
f 73/73/73 110/110/110 69/69/69
f 69/69/69 110/110/110 111/111/111
f 112/112/112 103/103/103 105/105/105
f 112/112/112 105/105/105 108/108/108
f 112/112/112 111/111/111 103/103/103
f 112/112/112 108/108/108 111/111/111
f 71/71/71 113/113/113 108/108/108
f 108/108/108 113/113/113 111/111/111
f 68/68/68 113/113/113 71/71/71
f 111/111/111 113/113/113 68/68/68
f 114/114/114 69/69/69 111/111/111
f 114/114/114 111/111/111 68/68/68
f 114/114/114 68/68/68 69/69/69
