g pm0716_00_BackIncSkin
v -0.1097466 1.9417597 -0.36184496
v -0.16504581 1.8912239 -0.31142914
v -0.1706656 1.9147756 -0.36651805
v -0.110716954 1.928328 -0.307477
v -0.0588735 1.9469438 -0.30302253
v -0.06111948 1.9572626 -0.359653
v -0.053234797 1.9241642 -0.18605347
v -0.10538867 1.8976682 -0.19168983
v -0.1584837 1.8532573 -0.19803984
v -0.11008248 1.9244157 -0.29270485
v -0.14199385 1.8670498 -0.19606835
v -0.14786424 1.898605 -0.29763973
v -0.10538865 1.8976673 -0.19169052
v -0.03500411 1.9529659 -0.28725377
v -0.032094453 1.9349039 -0.1837695
v -0.03146496 1.9297819 -0.10199532
v -0.10371359 1.8861675 -0.10908597
v -0.14182983 1.8496846 -0.111947514
v -0.103005715 1.8813064 -0.07416649
v -0.17678992 1.81179 -0.097788505
v -0.10329952 1.8833258 -0.08867562
v -0.17539832 1.808539 -0.08032492
v -0.19690643 1.7698792 -0.102222785
v -0.11117397 1.8813155 0.04963692
v -0.19598357 1.7658888 -0.083544545
v -0.18686324 1.8009497 0.039262727
v -0.124329984 1.8898128 0.12600002
v -0.20494926 1.7594736 0.034490418
v -0.20258346 1.8029351 0.115744404
v -0.21942985 1.7656417 0.11557556
v -0.13399035 1.8570898 0.046509594
v -0.12933932 1.893049 0.15507606
v -0.15200199 1.8678445 0.15356942
v -0.11117385 1.8813162 0.04963691
v -0.12827022 1.8581886 -0.035700366
v -0.040727038 1.9537014 0.16579616
v -0.10570603 1.8813096 -0.03323543
v -0.033015277 1.9354227 0.053251445
v -0.03182389 1.9303417 -0.027901122
v -0.18202125 1.8393568 0.16944525
v -0.14559224 1.909253 0.2568012
v -0.19496413 1.8513818 0.25466037
v -0.13309103 1.8954729 0.17685382
v -0.11264379 1.8822664 0.058170613
v -0.165732 1.8256876 0.05111821
v -0.062165447 1.9178712 0.06401097
v -0.07930771 1.9317641 0.18192022
v -0.0941665 1.9450049 0.26345545
v -0.12181205 1.8881878 0.11138447
v -0.19578928 1.8235672 0.16735859
v -0.18762647 1.8162472 0.10406576
v -0.13309099 1.895472 0.17685175
v -0.07815371 1.9182059 0.11527481
v -0.08783575 1.9260099 0.18111482
v -0.14802377 1.9119331 0.27234936
v -0.20924672 1.8369035 0.2616558
v -0.22135416 1.8507789 0.33159754
v -0.104112506 1.9404682 0.27065212
v -0.1588173 1.920866 0.33425155
v -0.11871404 1.9542538 0.33810794
v -0.051804457 1.9744607 0.2686331
v -0.093177184 1.9973524 0.42000273
v -0.14285989 1.9643931 0.41328225
v -0.14802392 1.9119322 0.2723521
v -0.046985302 1.96576 0.22743212
v -0.17286117 1.9316472 0.41226116
v -0.19041717 1.9058383 0.3912708
v -0.17509468 1.8938855 0.30558848
v -0.14024216 1.9033549 0.22258633
v -0.16767634 1.8878475 0.26891947
v -0.15932852 1.8813767 0.2214552
v 0.1097466 1.9417597 -0.36184496
v 0.1706656 1.9147756 -0.36651805
v 0.16504581 1.8912239 -0.31142914
v 0.110716954 1.928328 -0.307477
v 0.0588735 1.9469438 -0.30302253
v 0.06111948 1.9572626 -0.359653
v 0.053234797 1.9241642 -0.18605347
v 0.10538867 1.8976682 -0.19168983
v 0.1584837 1.8532573 -0.19803984
v 0.11008248 1.9244157 -0.29270485
v 0.14786424 1.898605 -0.29763973
v 0.14199385 1.8670498 -0.19606835
v 0.10538865 1.8976673 -0.19169052
v 0.03500411 1.9529659 -0.28725377
v 0.032094453 1.9349039 -0.1837695
v 0.03146496 1.9297819 -0.10199532
v 0.10371359 1.8861675 -0.10908597
v 0.14182983 1.8496846 -0.111947514
v 0.103005715 1.8813064 -0.07416649
v 0.10329952 1.8833258 -0.08867562
v 0.17678992 1.81179 -0.097788505
v 0.17539832 1.808539 -0.08032492
v 0.19690643 1.7698792 -0.102222785
v 0.11117397 1.8813155 0.04963692
v 0.19598357 1.7658888 -0.083544545
v 0.18686324 1.8009497 0.039262727
v 0.124329984 1.8898128 0.12600002
v 0.20494926 1.7594736 0.034490418
v 0.20258346 1.8029351 0.115744404
v 0.21942985 1.7656417 0.11557556
v 0.13399035 1.8570898 0.046509594
v 0.15200199 1.8678445 0.15356942
v 0.12933932 1.893049 0.15507606
v 0.11117385 1.8813162 0.04963691
v 0.12827022 1.8581886 -0.035700366
v 0.040727038 1.9537014 0.16579616
v 0.10570603 1.8813096 -0.03323543
v 0.033015277 1.9354227 0.053251445
v 0.03182389 1.9303417 -0.027901122
v 0.18202125 1.8393568 0.16944525
v 0.19496413 1.8513818 0.25466037
v 0.14559224 1.909253 0.2568012
v 0.13309103 1.8954729 0.17685382
v 0.11264379 1.8822664 0.058170613
v 0.165732 1.8256876 0.05111821
v 0.062165447 1.9178712 0.06401097
v 0.07930771 1.9317641 0.18192022
v 0.0941665 1.9450049 0.26345545
v 0.12181205 1.8881878 0.11138447
v 0.18762647 1.8162472 0.10406576
v 0.19578928 1.8235672 0.16735859
v 0.13309099 1.895472 0.17685175
v 0.07815371 1.9182059 0.11527481
v 0.08783575 1.9260099 0.18111482
v 0.14802377 1.9119331 0.27234936
v 0.20924672 1.8369035 0.2616558
v 0.22135416 1.8507789 0.33159754
v 0.104112506 1.9404682 0.27065212
v 0.1588173 1.920866 0.33425155
v 0.11871404 1.9542538 0.33810794
v 0.051804457 1.9744607 0.2686331
v 0.14285989 1.9643931 0.41328225
v 0.093177184 1.9973524 0.42000273
v 0.14802392 1.9119322 0.2723521
v 0.046985302 1.96576 0.22743212
v 0.17286117 1.9316472 0.41226116
v 0.19041717 1.9058383 0.3912708
v 0.17509468 1.8938855 0.30558848
v 0.14024216 1.9033549 0.22258633
v 0.16767634 1.8878475 0.26891947
v 0.15932852 1.8813767 0.2214552
v -0.10300538 1.8813064 -0.074166484
v -0.06566512 1.9054587 -0.07170152
v -0.07293078 1.9066919 0.032981835
v -0.10980334 1.8813139 0.028865458
v -0.06760693 1.915483 -0.17472823
v -0.1753788 1.8124297 0.02329262
v -0.10506972 1.8954791 -0.17596397
v -0.16902664 1.8149428 -0.079782896
v -0.17652209 1.8335823 -0.1816151
v 0.10300538 1.8813064 -0.074166484
v 0.07293078 1.9066919 0.032981835
v 0.06566512 1.9054587 -0.07170152
v 0.10980334 1.8813139 0.028865458
v 0.06760693 1.915483 -0.17472823
v 0.1753788 1.8124297 0.02329262
v 0.10506972 1.8954791 -0.17596397
v 0.16902664 1.8149428 -0.079782896
v 0.17652209 1.8335823 -0.1816151
vt 1.0895187 0.8790887
vt 1.199528 0.8159022
vt 1.0886334 0.8177007
vt 1.1930506 0.87690955
vt 1.1969523 0.92713016
vt 1.0906785 0.92501825
vt 1.4173439 0.9315669
vt 1.4154712 0.8772114
vt 1.4216771 0.8133635
vt 1.0681182 0.6181046
vt 1.2628675 0.5715107
vt 1.0661997 0.5754101
vt 1.2619257 0.6157204
vt 1.0723914 0.6909597
vt 1.2673726 0.6918417
vt 1.4179685 0.6959425
vt 1.4164492 0.61742127
vt 1.4222107 0.5691581
vt 1.0717407 0.19405723
vt 1.0436398 0.09901604
vt 1.0449551 0.19425556
vt 1.0757054 0.098837495
vt 1.0402448 0.05724919
vt 1.3018761 0.19787788
vt 1.0746593 0.05635622
vt 1.2988594 0.0950571
vt 1.4451404 0.20120898
vt 1.2944498 0.05480534
vt 1.4429822 0.09229776
vt 1.4467387 0.056042314
vt 1.7299519 0.8199301
vt 1.9295683 0.8503386
vt 1.931037 0.8198943
vt 1.7314472 0.8501222
vt 1.5770657 0.81845844
vt 1.9327435 0.95046496
vt 1.577385 0.84784126
vt 1.7234614 0.9382887
vt 1.5733771 0.93025804
vt 1.7759323 0.57001185
vt 1.9375181 0.64062
vt 1.9373626 0.5729289
vt 1.7854042 0.6368933
vt 1.5605383 0.6364981
vt 1.5529866 0.5661961
vt 1.5621893 0.6940479
vt 1.7847083 0.6972842
vt 1.9403641 0.69904196
vt 1.5346956 0.39543343
vt 1.6449966 0.30811608
vt 1.5262077 0.30586106
vt 1.6585538 0.3955412
vt 1.5336354 0.44462806
vt 1.657707 0.44621778
vt 1.8402851 0.40015215
vt 1.8231403 0.3119297
vt 1.9571869 0.31550062
vt 1.8286808 0.44832772
vt 1.9580157 0.4013344
vt 1.9591789 0.4498785
vt 1.6352683 0.19284484
vt 1.9293358 0.18650919
vt 1.927868 0.13083255
vt 1.6625859 0.087200314
vt 1.5571698 0.18835449
vt 1.9282029 0.090898424
vt 1.8900007 0.062274665
vt 1.7273248 0.060157716
vt 1.5680449 0.08427349
vt 1.6570385 0.059439808
vt 1.5670307 0.0582366
vt 1.0895187 0.8790887
vt 1.0886334 0.8177007
vt 1.199528 0.8159022
vt 1.1930506 0.87690955
vt 1.1969523 0.92713016
vt 1.0906785 0.92501825
vt 1.4173439 0.9315669
vt 1.4154712 0.8772114
vt 1.4216771 0.8133635
vt 1.0681182 0.6181046
vt 1.0661997 0.5754101
vt 1.2628675 0.5715107
vt 1.2619257 0.6157204
vt 1.0723914 0.6909597
vt 1.2673726 0.6918417
vt 1.4179685 0.6959425
vt 1.4164492 0.61742127
vt 1.4222107 0.5691581
vt 1.0717407 0.19405723
vt 1.0449551 0.19425556
vt 1.0436398 0.09901604
vt 1.0757054 0.098837495
vt 1.0402448 0.05724919
vt 1.3018761 0.19787788
vt 1.0746593 0.05635622
vt 1.2988594 0.0950571
vt 1.4451404 0.20120898
vt 1.2944498 0.05480534
vt 1.4429822 0.09229776
vt 1.4467387 0.056042314
vt 1.7299519 0.8199301
vt 1.931037 0.8198943
vt 1.9295683 0.8503386
vt 1.7314472 0.8501222
vt 1.5770657 0.81845844
vt 1.9327435 0.95046496
vt 1.577385 0.84784126
vt 1.7234614 0.9382887
vt 1.5733771 0.93025804
vt 1.7759323 0.57001185
vt 1.9373626 0.5729289
vt 1.9375181 0.64062
vt 1.7854042 0.6368933
vt 1.5605383 0.6364981
vt 1.5529866 0.5661961
vt 1.5621893 0.6940479
vt 1.7847083 0.6972842
vt 1.9403641 0.69904196
vt 1.5346956 0.39543343
vt 1.5262077 0.30586106
vt 1.6449966 0.30811608
vt 1.6585538 0.3955412
vt 1.5336354 0.44462806
vt 1.657707 0.44621778
vt 1.8402851 0.40015215
vt 1.8231403 0.3119297
vt 1.9571869 0.31550062
vt 1.8286808 0.44832772
vt 1.9580157 0.4013344
vt 1.9591789 0.4498785
vt 1.6352683 0.19284484
vt 1.927868 0.13083255
vt 1.9293358 0.18650919
vt 1.6625859 0.087200314
vt 1.5571698 0.18835449
vt 1.9282029 0.090898424
vt 1.8900007 0.062274665
vt 1.7273248 0.060157716
vt 1.5680449 0.08427349
vt 1.6570385 0.059439808
vt 1.5670307 0.0582366
vt 1.2413155 0.4017138
vt 1.2393333 0.44287997
vt 1.4328833 0.4464615
vt 1.4320035 0.4048131
vt 1.0474212 0.4390834
vt 1.4378543 0.3174153
vt 1.0509498 0.40027565
vt 1.2466688 0.31541604
vt 1.0557823 0.31253964
vt 1.2413155 0.4017138
vt 1.4328833 0.4464615
vt 1.2393333 0.44287997
vt 1.4320035 0.4048131
vt 1.0474212 0.4390834
vt 1.4378543 0.3174153
vt 1.0509498 0.40027565
vt 1.2466688 0.31541604
vt 1.0557823 0.31253964
vn -0.43056795 0.86738473 0.24950948
vn -0.5017616 0.82366574 0.26421586
vn -0.4729746 0.839737 0.26671508
vn -0.45688888 0.85450405 0.24713445
vn -0.4105771 0.882533 0.22926399
vn -0.39200872 0.8904203 0.23125914
vn -0.4376246 0.8691105 0.23050268
vn -0.48284954 0.84086424 0.24454781
vn -0.5218989 0.8129271 0.25840083
vn -0.5302112 0.8230737 0.2035335
vn -0.59681046 0.7811424 0.18339519
vn -0.57581383 0.790184 0.20987527
vn -0.5492854 0.8174495 0.17338355
vn -0.48662025 0.85247844 0.19100064
vn -0.49973214 0.85075545 0.16273576
vn -0.5216811 0.8421811 0.13630767
vn -0.5676357 0.8107625 0.14301643
vn -0.60851943 0.7782664 0.15493743
vn -0.7672466 0.6407788 0.027114509
vn -0.8174902 0.5673967 0.09884722
vn -0.76972854 0.63134265 0.09446939
vn -0.82261634 0.567985 0.026368726
vn -0.86139375 0.5001418 0.08865089
vn -0.76819205 0.6355274 -0.077368736
vn -0.87133086 0.49027708 0.020272078
vn -0.82239604 0.5626771 -0.08402005
vn -0.7720179 0.6199556 -0.14015506
vn -0.87009186 0.4856258 -0.084307075
vn -0.81760305 0.5558592 -0.1501527
vn -0.8594299 0.48991385 -0.1461669
vn -0.68143064 0.72231984 -0.117924966
vn -0.6371992 0.7553552 -0.15302208
vn -0.6754614 0.72170645 -0.15129946
vn -0.6397422 0.75968474 -0.11665868
vn -0.67904425 0.7292513 -0.084210455
vn -0.5978192 0.78792447 -0.14760506
vn -0.6414275 0.7629853 -0.080151066
vn -0.5960656 0.7946531 -0.11503095
vn -0.6019443 0.79424715 -0.08267105
vn -0.6830194 0.70179427 -0.2024087
vn -0.6367842 0.7409582 -0.21327639
vn -0.6800103 0.702265 -0.21073592
vn -0.6361881 0.74418414 -0.20360449
vn -0.63552547 0.7473293 -0.19392309
vn -0.6774898 0.7093894 -0.19435611
vn -0.5916779 0.782318 -0.1946687
vn -0.5868146 0.78360474 -0.20399089
vn -0.5912834 0.7777465 -0.21329406
vn -0.63756657 0.7457172 -0.19342919
vn -0.68821144 0.69587874 -0.20522662
vn -0.68036675 0.70681524 -0.19368331
vn -0.6402831 0.7398045 -0.2067048
vn -0.5932917 0.78098106 -0.19512443
vn -0.5900308 0.78006095 -0.20825118
vn -0.645571 0.72933954 -0.22649938
vn -0.69177866 0.6868161 -0.2229932
vn -0.6887725 0.6861916 -0.2339515
vn -0.5965967 0.7694614 -0.2280384
vn -0.6495332 0.7220532 -0.23821384
vn -0.6076688 0.7572417 -0.23942351
vn -0.5883305 0.7699364 -0.24711345
vn -0.5705431 0.7815974 -0.252163
vn -0.6096529 0.75334156 -0.24657631
vn -0.654661 0.71721035 -0.23880583
vn -0.5943791 0.7677681 -0.2392607
vn -0.6640464 0.70901453 -0.23736212
vn -0.6999381 0.67575306 -0.23118034
vn -0.700563 0.67441714 -0.23318005
vn -0.64606065 0.7263491 -0.23456925
vn -0.6973853 0.6774532 -0.2339035
vn -0.68958515 0.6864241 -0.23085587
vn 0.4305679 0.86738455 0.24951018
vn 0.47297454 0.8397367 0.26671565
vn 0.50176156 0.8236657 0.26421633
vn 0.45688888 0.85450375 0.24713504
vn 0.41057715 0.88253284 0.2292645
vn 0.39200887 0.89042014 0.23125988
vn 0.43762466 0.86911047 0.23050301
vn 0.48284954 0.8408642 0.2445481
vn 0.52189887 0.81292707 0.25840104
vn 0.5302112 0.8230737 0.20353341
vn 0.5758138 0.79018396 0.2098754
vn 0.5968104 0.7811424 0.18339542
vn 0.5492855 0.81744945 0.17338365
vn 0.48662028 0.85247856 0.1910004
vn 0.49973238 0.8507554 0.16273555
vn 0.5216813 0.842181 0.13630767
vn 0.56763583 0.8107625 0.14301643
vn 0.60851926 0.77826643 0.15493764
vn 0.76724654 0.6407788 0.027114747
vn 0.7697284 0.63134277 0.094469376
vn 0.81749016 0.5673968 0.098847084
vn 0.82261634 0.56798506 0.026368845
vn 0.86139363 0.500142 0.08865062
vn 0.768192 0.63552755 -0.07736837
vn 0.87133074 0.49027732 0.02027208
vn 0.8223959 0.5626771 -0.084019855
vn 0.77201796 0.6199557 -0.14015457
vn 0.8700918 0.48562592 -0.08430702
vn 0.81760305 0.55585927 -0.15015237
vn 0.8594299 0.48991385 -0.14616664
vn 0.6814305 0.7223199 -0.11792531
vn 0.6754614 0.7217065 -0.15129952
vn 0.6371992 0.7553552 -0.15302218
vn 0.63974214 0.75968456 -0.11665896
vn 0.67904407 0.7292514 -0.08421079
vn 0.5978192 0.78792447 -0.14760512
vn 0.6414274 0.7629854 -0.080151476
vn 0.5960656 0.7946531 -0.11503121
vn 0.60194427 0.79424715 -0.082671456
vn 0.6830193 0.7017943 -0.20240882
vn 0.68001026 0.702265 -0.21073607
vn 0.636784 0.7409582 -0.21327668
vn 0.63618803 0.744184 -0.20360461
vn 0.6355256 0.7473293 -0.19392313
vn 0.67748994 0.70938927 -0.19435605
vn 0.5916779 0.7823178 -0.1946689
vn 0.5868145 0.7836047 -0.20399117
vn 0.59128344 0.7777463 -0.21329445
vn 0.6375667 0.74571717 -0.19342875
vn 0.6803669 0.70681524 -0.19368304
vn 0.68821144 0.69587874 -0.20522617
vn 0.64028317 0.7398045 -0.20670435
vn 0.59329194 0.78098094 -0.19512387
vn 0.59003097 0.7800609 -0.2082507
vn 0.645571 0.72933966 -0.226499
vn 0.6917788 0.6868161 -0.22299267
vn 0.68877274 0.6861916 -0.2339509
vn 0.5965968 0.76946145 -0.22803807
vn 0.64953333 0.7220532 -0.23821339
vn 0.60766894 0.7572417 -0.23942313
vn 0.5883306 0.7699363 -0.24711367
vn 0.60965276 0.75334156 -0.24657667
vn 0.5705429 0.7815974 -0.25216314
vn 0.654661 0.7172101 -0.23880662
vn 0.5943791 0.767768 -0.2392608
vn 0.66404635 0.7090143 -0.2373631
vn 0.69993794 0.6757527 -0.23118189
vn 0.7005627 0.67441696 -0.23318137
vn 0.6460606 0.72634906 -0.23456956
vn 0.6973852 0.677453 -0.23390447
vn 0.68958503 0.6864239 -0.2308565
vn -0.6203203 0.7830475 0.045158792
vn -0.57532114 0.81696963 0.03957581
vn -0.5884289 0.80854857 0.00081039965
vn -0.6295788 0.7769361 0.00081228703
vn -0.56976444 0.81797194 0.07931165
vn -0.6674756 0.7445768 0.009034299
vn -0.60977054 0.7875166 0.08942813
vn -0.66335964 0.7465876 0.05060536
vn -0.6502323 0.75425357 0.091102175
vn 0.6203205 0.7830474 0.045158785
vn 0.588429 0.80854845 0.00081051915
vn 0.57532114 0.81696963 0.039575692
vn 0.62957895 0.7769361 0.00081240694
vn 0.5697646 0.81797194 0.079311416
vn 0.6674756 0.7445768 0.009034538
vn 0.60977054 0.78751665 0.089427866
vn 0.66335964 0.7465876 0.0506056
vn 0.6502324 0.75425345 0.09110216
g pm0716_00_BackIncSkin_0
f 3/3/3 2/2/2 1/1/1
f 2/2/2 4/4/4 1/1/1
f 1/1/1 4/4/4 5/5/5
f 6/6/6 1/1/1 5/5/5
f 7/7/7 5/5/5 4/4/4
f 8/8/8 7/7/7 4/4/4
f 8/8/8 4/4/4 2/2/2
f 9/9/9 8/8/8 2/2/2
f 12/12/12 11/11/11 10/10/10
f 11/11/11 13/13/13 10/10/10
f 10/10/10 13/13/13 14/14/14
f 13/13/13 15/15/15 14/14/14
f 16/16/16 15/15/15 13/13/13
f 17/17/17 16/16/16 13/13/13
f 17/17/17 13/13/13 11/11/11
f 18/18/18 17/17/17 11/11/11
f 21/21/21 20/20/20 19/19/19
f 20/20/20 22/22/22 19/19/19
f 22/22/22 20/20/20 23/23/23
f 19/19/19 22/22/22 24/24/24
f 25/25/25 22/22/22 23/23/23
f 22/22/22 26/26/26 24/24/24
f 26/26/26 22/22/22 25/25/25
f 27/27/27 24/24/24 26/26/26
f 28/28/28 26/26/26 25/25/25
f 29/29/29 27/27/27 26/26/26
f 29/29/29 26/26/26 28/28/28
f 30/30/30 29/29/29 28/28/28
f 33/33/33 32/32/32 31/31/31
f 32/32/32 34/34/34 31/31/31
f 35/35/35 31/31/31 34/34/34
f 32/32/32 36/36/36 34/34/34
f 37/37/37 35/35/35 34/34/34
f 36/36/36 38/38/38 34/34/34
f 37/37/37 34/34/34 39/39/39
f 34/34/34 38/38/38 39/39/39
f 42/42/42 41/41/41 40/40/40
f 41/41/41 43/43/43 40/40/40
f 40/40/40 43/43/43 44/44/44
f 45/45/45 40/40/40 44/44/44
f 44/44/44 43/43/43 46/46/46
f 43/43/43 47/47/47 46/46/46
f 47/47/47 43/43/43 41/41/41
f 48/48/48 47/47/47 41/41/41
f 51/51/51 50/50/50 49/49/49
f 50/50/50 52/52/52 49/49/49
f 49/49/49 52/52/52 53/53/53
f 52/52/52 54/54/54 53/53/53
f 55/55/55 52/52/52 50/50/50
f 54/54/54 52/52/52 55/55/55
f 56/56/56 55/55/55 50/50/50
f 56/56/56 57/57/57 55/55/55
f 58/58/58 54/54/54 55/55/55
f 57/57/57 59/59/59 55/55/55
f 58/58/58 55/55/55 59/59/59
f 60/60/60 58/58/58 59/59/59
f 63/63/63 62/62/62 61/61/61
f 64/64/64 63/63/63 61/61/61
f 61/61/61 65/65/65 64/64/64
f 63/63/63 64/64/64 66/66/66
f 67/67/67 66/66/66 64/64/64
f 68/68/68 67/67/67 64/64/64
f 65/65/65 69/69/69 64/64/64
f 68/68/68 64/64/64 70/70/70
f 70/70/70 64/64/64 69/69/69
f 71/71/71 70/70/70 69/69/69
f 74/74/74 73/73/73 72/72/72
f 75/75/75 74/74/74 72/72/72
f 75/75/75 72/72/72 76/76/76
f 72/72/72 77/77/77 76/76/76
f 76/76/76 78/78/78 75/75/75
f 78/78/78 79/79/79 75/75/75
f 75/75/75 79/79/79 74/74/74
f 79/79/79 80/80/80 74/74/74
f 83/83/83 82/82/82 81/81/81
f 84/84/84 83/83/83 81/81/81
f 84/84/84 81/81/81 85/85/85
f 86/86/86 84/84/84 85/85/85
f 86/86/86 87/87/87 84/84/84
f 87/87/87 88/88/88 84/84/84
f 84/84/84 88/88/88 83/83/83
f 88/88/88 89/89/89 83/83/83
f 92/92/92 91/91/91 90/90/90
f 93/93/93 92/92/92 90/90/90
f 92/92/92 93/93/93 94/94/94
f 93/93/93 90/90/90 95/95/95
f 93/93/93 96/96/96 94/94/94
f 97/97/97 93/93/93 95/95/95
f 93/93/93 97/97/97 96/96/96
f 95/95/95 98/98/98 97/97/97
f 97/97/97 99/99/99 96/96/96
f 98/98/98 100/100/100 97/97/97
f 97/97/97 100/100/100 99/99/99
f 100/100/100 101/101/101 99/99/99
f 104/104/104 103/103/103 102/102/102
f 105/105/105 104/104/104 102/102/102
f 102/102/102 106/106/106 105/105/105
f 107/107/107 104/104/104 105/105/105
f 106/106/106 108/108/108 105/105/105
f 109/109/109 107/107/107 105/105/105
f 105/105/105 108/108/108 110/110/110
f 109/109/109 105/105/105 110/110/110
f 113/113/113 112/112/112 111/111/111
f 114/114/114 113/113/113 111/111/111
f 114/114/114 111/111/111 115/115/115
f 111/111/111 116/116/116 115/115/115
f 114/114/114 115/115/115 117/117/117
f 118/118/118 114/114/114 117/117/117
f 114/114/114 118/118/118 113/113/113
f 118/118/118 119/119/119 113/113/113
f 122/122/122 121/121/121 120/120/120
f 123/123/123 122/122/122 120/120/120
f 123/123/123 120/120/120 124/124/124
f 125/125/125 123/123/123 124/124/124
f 123/123/123 126/126/126 122/122/122
f 123/123/123 125/125/125 126/126/126
f 126/126/126 127/127/127 122/122/122
f 128/128/128 127/127/127 126/126/126
f 125/125/125 129/129/129 126/126/126
f 130/130/130 128/128/128 126/126/126
f 126/126/126 129/129/129 130/130/130
f 129/129/129 131/131/131 130/130/130
f 134/134/134 133/133/133 132/132/132
f 133/133/133 135/135/135 132/132/132
f 136/136/136 132/132/132 135/135/135
f 135/135/135 133/133/133 137/137/137
f 137/137/137 138/138/138 135/135/135
f 138/138/138 139/139/139 135/135/135
f 140/140/140 136/136/136 135/135/135
f 135/135/135 139/139/139 141/141/141
f 135/135/135 141/141/141 140/140/140
f 141/141/141 142/142/142 140/140/140
f 145/145/145 144/144/144 143/143/143
f 146/146/146 145/145/145 143/143/143
f 143/143/143 144/144/144 147/147/147
f 146/146/146 143/143/143 148/148/148
f 149/149/149 143/143/143 147/147/147
f 143/143/143 150/150/150 148/148/148
f 149/149/149 151/151/151 143/143/143
f 151/151/151 150/150/150 143/143/143
f 154/154/154 153/153/153 152/152/152
f 153/153/153 155/155/155 152/152/152
f 154/154/154 152/152/152 156/156/156
f 152/152/152 155/155/155 157/157/157
f 152/152/152 158/158/158 156/156/156
f 159/159/159 152/152/152 157/157/157
f 160/160/160 158/158/158 152/152/152
f 159/159/159 160/160/160 152/152/152
