g pm0706_00SphereSkinC
v 0.099999994 -0.015057054 0.03518282
v 0.11296994 -0.025716254 0.025716254
v 0.099999994 -0.027617022 0.027617022
v 0.1140135 -0.014013495 0.03279754
v 0.11505706 -3.7005987E-32 0.03518282
v 0.12571625 -0.012969937 0.025716254
v 0.099999994 -2.9582282E-32 0.03771717
v 0.12186502 -0.021865027 0.021865027
v 0.099999994 0.015057054 0.03518282
v 0.12571625 -0.025716254 0.012969937
v 0.1140135 0.014013495 0.03279754
v 0.11296994 0.025716254 0.025716254
v 0.12571625 0.012969937 0.025716254
v 0.099999994 0.027617022 0.027617022
v 0.099999994 0.03518282 0.015057054
v 0.12761702 -4.319853E-32 0.027617022
v 0.13518281 -4.692875E-32 0.015057054
v 0.13279754 -0.014013495 0.014013495
v 0.13518281 -0.015057054 -7.1056985E-17
v 0.12761702 -0.027617022 -7.1056985E-17
v 0.12571625 -0.025716254 -0.012969937
v 0.1140135 0.03279754 0.014013495
v 0.11505706 0.03518282 -7.1056985E-17
v 0.099999994 0.03771717 -7.1056985E-17
v 0.099999994 0.03518282 -0.015057054
v 0.12571625 0.025716254 0.012969937
v 0.12186502 0.021865027 0.021865027
v 0.12761702 0.027617022 -7.1056985E-17
v 0.12571625 0.025716254 -0.012969937
v 0.12571625 0.025716254 0.012969937
v 0.1140135 0.03279754 -0.014013495
v 0.11296994 0.025716254 -0.025716254
v 0.099999994 0.027617022 -0.027617022
v 0.12186502 0.021865027 -0.021865027
v 0.099999994 0.015057054 -0.03518282
v 0.12571625 0.012969937 -0.025716254
v 0.13279754 0.014013495 0.014013495
v 0.13518281 0.015057054 -7.1056985E-17
v 0.12761702 0.027617022 -7.1056985E-17
v 0.12571625 0.025716254 -0.012969937
v 0.1140135 0.014013495 -0.03279754
v 0.11505706 -3.7005987E-32 -0.03518282
v 0.099999994 -2.9582282E-32 -0.03771717
v 0.12761702 -4.319853E-32 -0.027617022
v 0.099999994 -0.015057054 -0.03518282
v 0.12571625 -0.012969937 -0.025716254
v 0.1140135 -0.014013495 -0.03279754
v 0.11296994 -0.025716254 -0.025716254
v 0.099999994 -0.027617022 -0.027617022
v 0.12186502 -0.021865027 -0.021865027
v 0.099999994 -0.03518282 -0.015057054
v 0.12571625 -0.025716254 -0.012969937
v 0.1140135 -0.03279754 -0.014013495
v 0.11505706 -0.03518282 -7.1056985E-17
v 0.099999994 -0.03771717 -7.1056985E-17
v 0.12761702 -0.027617022 -7.1056985E-17
v 0.099999994 -0.03518282 0.015057054
v 0.12571625 -0.025716254 0.012969937
v 0.1140135 -0.03279754 0.014013495
v 0.11296994 -0.025716254 0.025716254
v 0.099999994 -0.027617022 0.027617022
v 0.12186502 -0.021865027 0.021865027
v 0.08703007 -0.025716254 0.025716254
v 0.099999994 -0.015057054 0.03518282
v 0.099999994 -0.027617022 0.027617022
v 0.08598651 -0.014013495 0.03279754
v 0.07428375 -0.012969937 0.025716254
v 0.08494294 -2.2158581E-32 0.03518282
v 0.07813498 -0.021865027 0.021865027
v 0.099999994 -2.9582282E-32 0.03771717
v 0.07428375 -0.025716254 0.012969937
v 0.099999994 0.015057054 0.03518282
v 0.06720246 -0.014013495 0.014013495
v 0.06481718 -0.015057054 -7.1056985E-17
v 0.06481718 -1.2235815E-32 0.015057054
v 0.07238298 -0.027617022 -7.1056985E-17
v 0.07428375 -0.025716254 -0.012969937
v 0.07238298 -1.5966042E-32 0.027617022
v 0.07428375 0.012969937 0.025716254
v 0.08598651 0.014013495 0.03279754
v 0.08703007 0.025716254 0.025716254
v 0.099999994 0.027617022 0.027617022
v 0.099999994 0.03518282 0.015057054
v 0.06720246 -0.014013495 -0.014013495
v 0.06481718 -1.2235815E-32 -0.015057054
v 0.07428375 -0.012969937 -0.025716254
v 0.07813498 -0.021865027 -0.021865027
v 0.07238298 -1.5966042E-32 -0.027617022
v 0.07428375 0.012969937 -0.025716254
v 0.062282827 -1.09862826E-32 -7.1056985E-17
v 0.06481718 0.015057054 -7.1056985E-17
v 0.06720246 0.014013495 -0.014013495
v 0.07428375 0.025716254 -0.012969937
v 0.07813498 0.021865027 -0.021865027
v 0.07238298 0.027617022 -7.1056985E-17
v 0.07428375 0.025716254 0.012969937
v 0.06720246 0.014013495 0.014013495
v 0.07813498 0.021865027 0.021865027
v 0.07428375 0.025716254 0.012969937
v 0.08598651 0.03279754 0.014013495
v 0.08494294 0.03518282 -7.1056985E-17
v 0.07238298 0.027617022 -7.1056985E-17
v 0.099999994 0.03771717 -7.1056985E-17
v 0.07428375 0.025716254 -0.012969937
v 0.099999994 0.03518282 -0.015057054
v 0.08598651 0.03279754 -0.014013495
v 0.08703007 0.025716254 -0.025716254
v 0.07813498 0.021865027 -0.021865027
v 0.099999994 0.027617022 -0.027617022
v 0.07428375 0.012969937 -0.025716254
v 0.099999994 0.015057054 -0.03518282
v 0.08598651 0.014013495 -0.03279754
v 0.08494294 -2.2158581E-32 -0.03518282
v 0.07238298 -1.5966042E-32 -0.027617022
v 0.099999994 -2.9582282E-32 -0.03771717
v 0.07428375 -0.012969937 -0.025716254
v 0.099999994 -0.015057054 -0.03518282
v 0.08598651 -0.014013495 -0.03279754
v 0.08703007 -0.025716254 -0.025716254
v 0.07813498 -0.021865027 -0.021865027
v 0.099999994 -0.027617022 -0.027617022
v 0.07428375 -0.025716254 -0.012969937
v 0.099999994 -0.03518282 -0.015057054
v 0.08598651 -0.03279754 -0.014013495
v 0.08494294 -0.03518282 -7.1056985E-17
v 0.07238298 -0.027617022 -7.1056985E-17
v 0.099999994 -0.03771717 -7.1056985E-17
v 0.07428375 -0.025716254 0.012969937
v 0.099999994 -0.03518282 0.015057054
v 0.08598651 -0.03279754 0.014013495
v 0.08703007 -0.025716254 0.025716254
v 0.07813498 -0.021865027 0.021865027
v 0.099999994 -0.027617022 0.027617022
v 0.12571625 -0.012969937 -0.025716254
v 0.12186502 -0.021865027 -0.021865027
v 0.13279754 -0.014013495 -0.014013495
v 0.13518281 -4.692875E-32 -0.015057054
v 0.12761702 -4.319853E-32 -0.027617022
v 0.12571625 0.012969937 -0.025716254
v 0.13771717 -4.8178282E-32 -7.1056985E-17
v 0.13279754 0.014013495 -0.014013495
v 0.12186502 0.021865027 -0.021865027
vt 0.98957676 0.012370706
vt 0.97983706 0.00508371
vt 0.98957676 0.0048879385
vt 0.98077667 0.012778789
vt 0.98056996 0.019853473
vt 0.9698384 0.013222128
vt 0.98957676 0.019853473
vt 0.97007346 0.0071367323
vt 0.98957676 0.027803898
vt 0.9567523 0.0050300956
vt 0.9812802 0.027289033
vt 0.9814168 0.034795314
vt 0.9703336 0.02709654
vt 0.98957676 0.035520554
vt 0.98957676 0.042769432
vt 0.9693415 0.019853473
vt 0.95460963 0.019853473
vt 0.9552896 0.012761623
vt 0.9407611 0.012349188
vt 0.94083345 0.004395038
vt 0.9258847 0.0054817796
vt 0.9803935 0.042370945
vt 0.9797207 0.050039083
vt 0.98957676 0.049901485
vt 0.98957676 0.05726719
vt 0.9671502 0.04160285
vt 0.9714079 0.034035444
vt 0.96619487 0.050320566
vt 0.96905684 0.058595836
vt 0.9563763 0.035803854
vt 0.98112226 0.057576805
vt 0.98234534 0.06487346
vt 0.98957676 0.064749956
vt 0.974015 0.06497353
vt 0.98957676 0.07223266
vt 0.9693341 0.07148531
vt 0.955281 0.027462423
vt 0.940366 0.027658224
vt 0.93971944 0.03589809
vt 0.9247341 0.034364343
vt 0.98133445 0.07220787
vt 0.9803238 0.07979593
vt 0.98957676 0.07971549
vt 0.9672785 0.079857886
vt 0.98957676 0.08719826
vt 0.96944046 0.08827603
vt 0.9814421 0.08739537
vt 0.98264205 0.0947448
vt 0.98957676 0.094681025
vt 0.97444534 0.09487218
vt 0.98957676 0.10216373
vt 0.9704721 0.1013909
vt 0.9818493 0.10200208
vt 0.98105943 0.10928237
vt 0.98957676 0.10952955
vt 0.9692112 0.10926604
vt 0.98957676 0.11666155
vt 0.9713218 0.11671355
vt 0.9819391 0.11637378
vt 0.98214066 0.12337577
vt 0.98957676 0.12367666
vt 0.9747801 0.12227774
vt 0.979837 0.005083699
vt 0.98957676 0.012370699
vt 0.98957676 0.004887932
vt 0.9807767 0.012778782
vt 0.96983844 0.013222138
vt 0.98057 0.019853465
vt 0.97007346 0.007136734
vt 0.98957676 0.019853465
vt 0.95675224 0.005030093
vt 0.98957676 0.02780389
vt 0.9552896 0.012761636
vt 0.940761 0.012349201
vt 0.9546097 0.019853465
vt 0.94083345 0.00439503
vt 0.92588466 0.0054817833
vt 0.96934146 0.019853465
vt 0.9703336 0.02709653
vt 0.98128027 0.02728903
vt 0.9814169 0.03479531
vt 0.98957676 0.035520546
vt 0.98957676 0.042769425
vt 0.9266002 0.012796969
vt 0.92608184 0.019853465
vt 0.9125992 0.012913958
vt 0.9147532 0.0072363815
vt 0.91205174 0.019853465
vt 0.9121924 0.026665421
vt 0.940229 0.019853465
vt 0.9403661 0.027658226
vt 0.92612225 0.0269841
vt 0.9247342 0.034364358
vt 0.91381645 0.032347385
vt 0.9397194 0.03589809
vt 0.9563764 0.035803862
vt 0.955281 0.027462414
vt 0.97140795 0.034035433
vt 0.9671502 0.041602865
vt 0.9803936 0.042370953
vt 0.9797208 0.050039083
vt 0.96619487 0.05032056
vt 0.98957676 0.049901478
vt 0.96905684 0.058595832
vt 0.98957676 0.05726718
vt 0.98112226 0.057576817
vt 0.98234534 0.06487344
vt 0.97401506 0.06497352
vt 0.98957676 0.06474995
vt 0.9693341 0.07148532
vt 0.98957676 0.072232656
vt 0.98133445 0.07220785
vt 0.9803238 0.079795934
vt 0.9672785 0.07985788
vt 0.98957676 0.07971548
vt 0.9694404 0.088276014
vt 0.98957676 0.08719825
vt 0.98144215 0.08739536
vt 0.9826421 0.09474479
vt 0.97444534 0.09487216
vt 0.98957676 0.09468102
vt 0.97047216 0.10139091
vt 0.98957676 0.10216372
vt 0.98184925 0.10200209
vt 0.9810595 0.10928239
vt 0.9692112 0.10926604
vt 0.98957676 0.10952955
vt 0.9713219 0.11671355
vt 0.98957676 0.11666154
vt 0.9819391 0.11637377
vt 0.9821407 0.12337576
vt 0.9747801 0.12227774
vt 0.98957676 0.12367665
vt 0.9125992 0.012913972
vt 0.9147532 0.0072363913
vt 0.9266002 0.012796968
vt 0.9260819 0.019853473
vt 0.9120517 0.019853473
vt 0.91219234 0.02666542
vt 0.94022894 0.019853473
vt 0.9261222 0.026984096
vt 0.91381645 0.03234738
vn -0 -0.3745642 0.927201
vn 0.34361088 -0.6640526 0.66405255
vn -0 -0.7071068 0.70710665
vn 0.36381915 -0.3638192 0.8574796
vn 0.3745642 0 0.927201
vn 0.6640524 -0.34361082 0.66405267
vn -0 0 1
vn 0.5773502 -0.5773503 0.5773503
vn -0 0.3745642 0.927201
vn 0.6640526 -0.6640524 0.3436108
vn 0.36381924 0.36381936 0.8574795
vn 0.34361085 0.6640525 0.6640525
vn 0.66405255 0.3436108 0.66405255
vn -0 0.70710677 0.70710677
vn -0 0.927201 0.37456408
vn 0.70710677 0 0.70710677
vn 0.927201 0 0.37456408
vn 0.8574795 -0.36381918 0.36381918
vn 0.9272011 -0.37456408 0
vn 0.70710677 -0.70710677 0
vn 0.66405267 -0.6640524 -0.34361088
vn 0.36381924 0.8574795 0.36381924
vn 0.37456408 0.927201 0
vn -0 1 0
vn -0 0.9272011 -0.37456408
vn 0.66405267 0.6640524 0.34361082
vn 0.5773505 0.57735 0.57735026
vn 0.70710665 0.7071068 0
vn 0.66405255 0.66405255 -0.34361085
vn 0.66405267 0.6640524 0.34361082
vn 0.36381915 0.8574796 -0.36381912
vn 0.34361082 0.66405267 -0.6640524
vn -0 0.7071068 -0.70710665
vn 0.5773502 0.57735044 -0.5773502
vn -0 0.37456423 -0.927201
vn 0.66405255 0.3436109 -0.6640526
vn 0.8574795 0.36381918 0.36381918
vn 0.927201 0.3745642 0
vn 0.70710665 0.7071068 0
vn 0.66405255 0.66405255 -0.34361085
vn 0.3638192 0.36381933 -0.8574795
vn 0.37456423 0 -0.927201
vn -0 0 -1
vn 0.70710677 0 -0.70710677
vn -0 -0.37456417 -0.927201
vn 0.6640526 -0.3436108 -0.66405255
vn 0.36381918 -0.36381918 -0.8574795
vn 0.34361085 -0.6640525 -0.6640525
vn -0 -0.7071068 -0.70710665
vn 0.5773505 -0.57735 -0.57735026
vn -0 -0.9272011 -0.37456408
vn 0.66405267 -0.6640524 -0.34361088
vn 0.3638192 -0.8574796 -0.36381915
vn 0.37456408 -0.927201 0
vn -0 -1 0
vn 0.70710677 -0.70710677 0
vn -0 -0.927201 0.37456408
vn 0.6640526 -0.6640524 0.3436108
vn 0.36381918 -0.8574795 0.36381918
vn 0.34361088 -0.6640526 0.66405255
vn -0 -0.7071068 0.70710665
vn 0.5773502 -0.5773503 0.5773503
vn -0.34361082 -0.66405267 0.6640524
vn -0 -0.3745642 0.927201
vn -0 -0.7071068 0.70710665
vn -0.3638192 -0.36381933 0.8574795
vn -0.6640524 -0.34361082 0.66405267
vn -0.37456408 0 0.9272011
vn -0.5773501 -0.5773505 0.57735026
vn -0 0 1
vn -0.6640523 -0.6640527 0.34361085
vn -0 0.3745642 0.927201
vn -0.8574795 -0.3638193 0.3638192
vn -0.927201 -0.3745642 0
vn -0.927201 0 0.37456423
vn -0.70710665 -0.7071069 0
vn -0.66405237 -0.6640528 -0.34361082
vn -0.70710677 0 0.70710677
vn -0.6640525 0.34361088 0.6640525
vn -0.363819 0.36381915 0.8574796
vn -0.34361082 0.6640527 0.6640523
vn -0 0.70710677 0.70710677
vn -0 0.927201 0.37456408
vn -0.8574795 -0.3638193 -0.3638192
vn -0.927201 0 -0.37456408
vn -0.66405255 -0.3436109 -0.6640526
vn -0.5773501 -0.5773505 -0.57735026
vn -0.70710677 0 -0.70710677
vn -0.66405255 0.3436109 -0.6640526
vn -1 0 0
vn -0.927201 0.37456423 0
vn -0.8574795 0.3638193 -0.36381912
vn -0.66405237 0.6640528 -0.34361082
vn -0.5773501 0.5773505 -0.5773502
vn -0.70710653 0.707107 0
vn -0.6640523 0.6640527 0.34361085
vn -0.8574795 0.36381933 0.3638192
vn -0.57735 0.5773505 0.57735026
vn -0.6640523 0.6640527 0.34361085
vn -0.36381912 0.8574796 0.36381915
vn -0.37456408 0.9272011 0
vn -0.70710653 0.707107 0
vn -0 1 0
vn -0.66405237 0.6640528 -0.34361082
vn -0 0.9272011 -0.37456408
vn -0.3638191 0.8574796 -0.3638191
vn -0.34361076 0.66405267 -0.6640525
vn -0.5773501 0.5773505 -0.5773502
vn -0 0.7071068 -0.70710665
vn -0.66405255 0.3436109 -0.6640526
vn -0 0.37456423 -0.927201
vn -0.36381912 0.3638193 -0.8574795
vn -0.37456408 0 -0.927201
vn -0.70710677 0 -0.70710677
vn -0 0 -1
vn -0.66405255 -0.3436109 -0.6640526
vn -0 -0.37456417 -0.927201
vn -0.3638191 -0.3638193 -0.8574796
vn -0.3436108 -0.6640526 -0.6640524
vn -0.5773501 -0.5773505 -0.57735026
vn -0 -0.7071068 -0.70710665
vn -0.66405237 -0.6640528 -0.34361082
vn -0 -0.9272011 -0.37456408
vn -0.3638191 -0.8574796 -0.3638191
vn -0.37456408 -0.9272011 0
vn -0.70710665 -0.7071069 0
vn -0 -1 0
vn -0.6640523 -0.6640527 0.34361085
vn -0 -0.927201 0.37456408
vn -0.36381912 -0.8574796 0.36381915
vn -0.34361082 -0.66405267 0.6640524
vn -0.5773501 -0.5773505 0.57735026
vn -0 -0.7071068 0.70710665
vn 0.6640526 -0.3436108 -0.66405255
vn 0.5773505 -0.57735 -0.57735026
vn 0.8574796 -0.3638191 -0.3638191
vn 0.9272011 0 -0.37456408
vn 0.70710677 0 -0.70710677
vn 0.66405255 0.3436109 -0.6640526
vn 1 0 0
vn 0.8574796 0.36381915 -0.36381912
vn 0.5773502 0.57735044 -0.5773502
g pm0706_00SphereSkinC_0
f 3/3/3 2/2/2 1/1/1
f 2/2/2 4/4/4 1/1/1
f 1/1/1 4/4/4 5/5/5
f 6/6/6 4/4/4 2/2/2
f 5/5/5 4/4/4 6/6/6
f 7/7/7 1/1/1 5/5/5
f 8/8/8 6/6/6 2/2/2
f 7/7/7 5/5/5 9/9/9
f 8/8/8 10/10/10 6/6/6
f 5/5/5 11/11/11 9/9/9
f 9/9/9 11/11/11 12/12/12
f 13/13/13 11/11/11 5/5/5
f 12/12/12 11/11/11 13/13/13
f 14/14/14 9/9/9 12/12/12
f 14/14/14 12/12/12 15/15/15
f 16/16/16 5/5/5 6/6/6
f 16/16/16 13/13/13 5/5/5
f 16/16/16 6/6/6 17/17/17
f 16/16/16 17/17/17 13/13/13
f 10/10/10 18/18/18 6/6/6
f 6/6/6 18/18/18 17/17/17
f 19/19/19 18/18/18 10/10/10
f 17/17/17 18/18/18 19/19/19
f 20/20/20 19/19/19 10/10/10
f 20/20/20 21/21/21 19/19/19
f 12/12/12 22/22/22 15/15/15
f 15/15/15 22/22/22 23/23/23
f 24/24/24 15/15/15 23/23/23
f 24/24/24 23/23/23 25/25/25
f 26/26/26 22/22/22 12/12/12
f 23/23/23 22/22/22 26/26/26
f 27/27/27 26/26/26 12/12/12
f 28/28/28 23/23/23 26/26/26
f 27/27/27 12/12/12 13/13/13
f 28/28/28 29/29/29 23/23/23
f 27/27/27 13/13/13 30/30/30
f 23/23/23 31/31/31 25/25/25
f 29/29/29 31/31/31 23/23/23
f 25/25/25 31/31/31 32/32/32
f 32/32/32 31/31/31 29/29/29
f 33/33/33 25/25/25 32/32/32
f 34/34/34 32/32/32 29/29/29
f 33/33/33 32/32/32 35/35/35
f 34/34/34 36/36/36 32/32/32
f 13/13/13 37/37/37 30/30/30
f 30/30/30 37/37/37 38/38/38
f 17/17/17 37/37/37 13/13/13
f 38/38/38 37/37/37 17/17/17
f 39/39/39 30/30/30 38/38/38
f 39/39/39 38/38/38 40/40/40
f 32/32/32 41/41/41 35/35/35
f 36/36/36 41/41/41 32/32/32
f 35/35/35 41/41/41 42/42/42
f 42/42/42 41/41/41 36/36/36
f 43/43/43 35/35/35 42/42/42
f 44/44/44 42/42/42 36/36/36
f 43/43/43 42/42/42 45/45/45
f 44/44/44 46/46/46 42/42/42
f 42/42/42 47/47/47 45/45/45
f 46/46/46 47/47/47 42/42/42
f 45/45/45 47/47/47 48/48/48
f 48/48/48 47/47/47 46/46/46
f 49/49/49 45/45/45 48/48/48
f 50/50/50 48/48/48 46/46/46
f 49/49/49 48/48/48 51/51/51
f 50/50/50 52/52/52 48/48/48
f 48/48/48 53/53/53 51/51/51
f 52/52/52 53/53/53 48/48/48
f 51/51/51 53/53/53 54/54/54
f 54/54/54 53/53/53 52/52/52
f 55/55/55 51/51/51 54/54/54
f 56/56/56 54/54/54 52/52/52
f 55/55/55 54/54/54 57/57/57
f 56/56/56 58/58/58 54/54/54
f 54/54/54 59/59/59 57/57/57
f 58/58/58 59/59/59 54/54/54
f 57/57/57 59/59/59 60/60/60
f 60/60/60 59/59/59 58/58/58
f 61/61/61 57/57/57 60/60/60
f 62/62/62 60/60/60 58/58/58
f 65/65/65 64/64/64 63/63/63
f 64/64/64 66/66/66 63/63/63
f 63/63/63 66/66/66 67/67/67
f 68/68/68 66/66/66 64/64/64
f 67/67/67 66/66/66 68/68/68
f 69/69/69 63/63/63 67/67/67
f 70/70/70 68/68/68 64/64/64
f 69/69/69 67/67/67 71/71/71
f 70/70/70 72/72/72 68/68/68
f 67/67/67 73/73/73 71/71/71
f 71/71/71 73/73/73 74/74/74
f 75/75/75 73/73/73 67/67/67
f 74/74/74 73/73/73 75/75/75
f 76/76/76 71/71/71 74/74/74
f 76/76/76 74/74/74 77/77/77
f 78/78/78 67/67/67 68/68/68
f 78/78/78 75/75/75 67/67/67
f 78/78/78 68/68/68 79/79/79
f 78/78/78 79/79/79 75/75/75
f 72/72/72 80/80/80 68/68/68
f 68/68/68 80/80/80 79/79/79
f 81/81/81 80/80/80 72/72/72
f 79/79/79 80/80/80 81/81/81
f 82/82/82 81/81/81 72/72/72
f 82/82/82 83/83/83 81/81/81
f 74/74/74 84/84/84 77/77/77
f 85/85/85 84/84/84 74/74/74
f 77/77/77 84/84/84 86/86/86
f 86/86/86 84/84/84 85/85/85
f 87/87/87 77/77/77 86/86/86
f 88/88/88 86/86/86 85/85/85
f 88/88/88 85/85/85 89/89/89
f 90/90/90 85/85/85 74/74/74
f 90/90/90 91/91/91 85/85/85
f 90/90/90 74/74/74 75/75/75
f 90/90/90 75/75/75 91/91/91
f 85/85/85 92/92/92 89/89/89
f 91/91/91 92/92/92 85/85/85
f 89/89/89 92/92/92 93/93/93
f 93/93/93 92/92/92 91/91/91
f 94/94/94 89/89/89 93/93/93
f 95/95/95 93/93/93 91/91/91
f 95/95/95 91/91/91 96/96/96
f 75/75/75 97/97/97 91/91/91
f 91/91/91 97/97/97 96/96/96
f 79/79/79 97/97/97 75/75/75
f 96/96/96 97/97/97 79/79/79
f 98/98/98 96/96/96 79/79/79
f 98/98/98 79/79/79 81/81/81
f 98/98/98 81/81/81 99/99/99
f 81/81/81 100/100/100 99/99/99
f 99/99/99 100/100/100 101/101/101
f 83/83/83 100/100/100 81/81/81
f 101/101/101 100/100/100 83/83/83
f 102/102/102 99/99/99 101/101/101
f 103/103/103 101/101/101 83/83/83
f 102/102/102 101/101/101 104/104/104
f 103/103/103 105/105/105 101/101/101
f 101/101/101 106/106/106 104/104/104
f 105/105/105 106/106/106 101/101/101
f 104/104/104 106/106/106 107/107/107
f 107/107/107 106/106/106 105/105/105
f 108/108/108 104/104/104 107/107/107
f 109/109/109 107/107/107 105/105/105
f 108/108/108 107/107/107 110/110/110
f 109/109/109 111/111/111 107/107/107
f 107/107/107 112/112/112 110/110/110
f 111/111/111 112/112/112 107/107/107
f 110/110/110 112/112/112 113/113/113
f 113/113/113 112/112/112 111/111/111
f 114/114/114 110/110/110 113/113/113
f 115/115/115 113/113/113 111/111/111
f 114/114/114 113/113/113 116/116/116
f 115/115/115 117/117/117 113/113/113
f 113/113/113 118/118/118 116/116/116
f 117/117/117 118/118/118 113/113/113
f 116/116/116 118/118/118 119/119/119
f 119/119/119 118/118/118 117/117/117
f 120/120/120 116/116/116 119/119/119
f 121/121/121 119/119/119 117/117/117
f 120/120/120 119/119/119 122/122/122
f 121/121/121 123/123/123 119/119/119
f 119/119/119 124/124/124 122/122/122
f 123/123/123 124/124/124 119/119/119
f 122/122/122 124/124/124 125/125/125
f 125/125/125 124/124/124 123/123/123
f 126/126/126 122/122/122 125/125/125
f 127/127/127 125/125/125 123/123/123
f 126/126/126 125/125/125 128/128/128
f 127/127/127 129/129/129 125/125/125
f 125/125/125 130/130/130 128/128/128
f 129/129/129 130/130/130 125/125/125
f 128/128/128 130/130/130 131/131/131
f 131/131/131 130/130/130 129/129/129
f 132/132/132 128/128/128 131/131/131
f 133/133/133 131/131/131 129/129/129
f 135/135/135 134/134/134 21/21/21
f 134/134/134 136/136/136 21/21/21
f 137/137/137 136/136/136 134/134/134
f 21/21/21 136/136/136 19/19/19
f 19/19/19 136/136/136 137/137/137
f 138/138/138 137/137/137 134/134/134
f 138/138/138 139/139/139 137/137/137
f 140/140/140 19/19/19 137/137/137
f 140/140/140 17/17/17 19/19/19
f 140/140/140 38/38/38 17/17/17
f 140/140/140 137/137/137 38/38/38
f 137/137/137 141/141/141 38/38/38
f 139/139/139 141/141/141 137/137/137
f 38/38/38 141/141/141 40/40/40
f 40/40/40 141/141/141 139/139/139
f 142/142/142 40/40/40 139/139/139
