g pm0745_12_CloseTeethSkin_tx
v -0.02953659 0.7671215 0.44168553
v -0.0430769 0.7893809 0.4201776
v -0.031006647 0.7715517 0.44406128
v -0.042646293 0.7875255 0.41567996
v -0.027119974 0.76234597 0.43900573
v -0.0517145 0.80450654 0.4105551
v -0.03882935 0.77655953 0.40322295
v -0.02420979 0.7584117 0.4368977
v -0.035181966 0.7732319 0.39968035
v -0.05305259 0.79341155 0.3762044
v -0.053675007 0.78968227 0.3728555
v -0.052937414 0.80171174 0.4061081
v -0.06304831 0.82197094 0.40671164
v -0.06467642 0.8204046 0.4011829
v -0.07463878 0.8435904 0.40985477
v -0.0685775 0.8085734 0.3661832
v -0.07857565 0.8243502 0.36433846
v -0.06889876 0.8060573 0.36088604
v -0.07857948 0.8217017 0.35787424
v -0.07630427 0.84180427 0.40502235
v -0.08229291 0.86141366 0.41249248
v -0.084286295 0.859974 0.40824234
v -0.087359466 0.8748117 0.41316745
v -0.089044414 0.8732489 0.40848666
v -0.0924733 0.8571105 0.37503627
v -0.09265788 0.8529077 0.36685774
v 0.02953659 0.7671215 0.44168553
v 0.031006647 0.7715517 0.44406128
v 0.0430769 0.7893809 0.4201776
v 0.042646293 0.7875255 0.41567996
v 0.027119974 0.76234597 0.43900573
v 0.0517145 0.80450654 0.4105551
v 0.03882935 0.77655953 0.40322295
v 0.02420979 0.7584117 0.4368977
v 0.035181966 0.7732319 0.39968035
v 0.05305259 0.79341155 0.3762044
v 0.053675007 0.78968227 0.3728555
v 0.052937414 0.80171174 0.4061081
v 0.06304831 0.82197094 0.40671164
v 0.06467642 0.8204046 0.4011829
v 0.07463878 0.8435904 0.40985477
v 0.0685775 0.8085734 0.3661832
v 0.07857565 0.8243502 0.36433846
v 0.06889876 0.8060573 0.36088604
v 0.07857948 0.8217017 0.35787424
v 0.07630428 0.84180427 0.40502235
v 0.08229291 0.86141366 0.41249248
v 0.084286295 0.859974 0.40824234
v 0.087359466 0.8748117 0.41316745
v 0.089044414 0.8732489 0.40848666
v 0.0924733 0.8571105 0.37503627
v 0.09265788 0.8529077 0.36685774
vt 0.3173242 0.58123976
vt 0.23798846 0.5865882
vt 0.31415978 0.5872434
vt 0.23297366 0.58136153
vt 0.32127377 0.57441753
vt 0.19350381 0.59458643
vt 0.22946356 0.5610878
vt 0.32561305 0.5684777
vt 0.23139192 0.5539085
vt 0.14624925 0.55775326
vt 0.14398931 0.551799
vt 0.18763898 0.58881444
vt 0.15233575 0.6098282
vt 0.14255501 0.60436785
vt 0.11739881 0.6343414
vt 0.091639556 0.56701976
vt 0.057292916 0.58202773
vt 0.085103996 0.56062824
vt 0.04929439 0.57453746
vt 0.10907874 0.62924546
vt 0.09096349 0.65414494
vt 0.08291609 0.6497831
vt 0.06953407 0.66776663
vt 0.061412428 0.6629731
vt 0.019259965 0.6229698
vt 0.009995169 0.61280066
vt 0.31732416 0.58123976
vt 0.31415975 0.5872434
vt 0.23798847 0.5865882
vt 0.23297381 0.58136153
vt 0.3212738 0.57441753
vt 0.19350386 0.59458643
vt 0.22946358 0.5610878
vt 0.32561302 0.5684777
vt 0.2313919 0.5539085
vt 0.1462493 0.55775326
vt 0.14398932 0.551799
vt 0.187639 0.58881444
vt 0.15233576 0.6098282
vt 0.142555 0.60436785
vt 0.11739886 0.6343414
vt 0.09163964 0.56701976
vt 0.05729294 0.58202773
vt 0.08510387 0.56062824
vt 0.049294353 0.57453746
vt 0.10907876 0.62924546
vt 0.0909636 0.65414494
vt 0.08291614 0.6497831
vt 0.06953406 0.66776663
vt 0.061412454 0.6629731
vt 0.01925993 0.6229698
vt 0.009995222 0.61280066
vn -0.8654519 -0.4832442 0.13216661
vn -0.86856973 -0.45319062 0.20051168
vn -0.87804055 -0.4523987 0.15614165
vn -0.8551905 -0.48578686 0.18072161
vn -0.8425415 -0.52921677 0.10026699
vn -0.85006225 -0.45747292 0.26098403
vn -0.8396092 -0.52287257 0.14717545
vn -0.82520276 -0.55753356 0.09053497
vn -0.8246346 -0.5494702 0.13438855
vn -0.83851224 -0.49950802 0.21769036
vn -0.8264471 -0.52433753 0.20507355
vn -0.8450596 -0.47908714 0.23738116
vn -0.8329855 -0.45549715 0.31409782
vn -0.8360045 -0.47537562 0.27407032
vn -0.829422 -0.43754432 0.3472957
vn -0.83366525 -0.4870128 0.2604245
vn -0.84245783 -0.45918086 0.28181133
vn -0.8310209 -0.49676192 0.25026363
vn -0.84390694 -0.46845195 0.26148394
vn -0.8363869 -0.4516025 0.31066394
vn -0.8370892 -0.4124046 0.35944986
vn -0.8440119 -0.4304565 0.31992367
vn -0.84598255 -0.39751208 0.35538396
vn -0.85380703 -0.4120769 0.318129
vn -0.85636103 -0.43660355 0.2757227
vn -0.85595226 -0.44884014 0.25668684
vn 0.865452 -0.48324418 0.13216676
vn 0.87804073 -0.45239827 0.15614198
vn 0.8685699 -0.4531901 0.20051189
vn 0.8551907 -0.48578668 0.18072161
vn 0.8425412 -0.5292172 0.100266986
vn 0.8500626 -0.45747223 0.26098427
vn 0.83960915 -0.5228726 0.1471753
vn 0.82520247 -0.5575342 0.09053473
vn 0.8246342 -0.5494708 0.1343882
vn 0.83851224 -0.4995079 0.21769021
vn 0.8264471 -0.5243377 0.20507309
vn 0.84505975 -0.47908676 0.23738141
vn 0.83298576 -0.45549658 0.31409797
vn 0.83600473 -0.47537518 0.27407032
vn 0.8294221 -0.43754372 0.3472958
vn 0.8336655 -0.48701245 0.26042423
vn 0.84245837 -0.45918036 0.28181094
vn 0.8310212 -0.49676165 0.2502631
vn 0.84390754 -0.46845117 0.26148334
vn 0.83638716 -0.45160207 0.31066394
vn 0.83708924 -0.41240427 0.3594501
vn 0.84401214 -0.43045604 0.31992367
vn 0.8459824 -0.3975118 0.35538447
vn 0.8538071 -0.41207653 0.3181293
vn 0.8563615 -0.436603 0.2757225
vn 0.855953 -0.44883928 0.25668612
g pm0745_12_CloseTeethSkin_tx_0
f 3/3/3 2/2/2 1/1/1
f 2/2/2 4/4/4 1/1/1
f 1/1/1 4/4/4 5/5/5
f 2/2/2 6/6/6 4/4/4
f 4/4/4 7/7/7 5/5/5
f 8/8/8 5/5/5 7/7/7
f 9/9/9 8/8/8 7/7/7
f 9/9/9 7/7/7 10/10/10
f 10/10/10 7/7/7 4/4/4
f 11/11/11 9/9/9 10/10/10
f 6/6/6 12/12/12 4/4/4
f 12/12/12 10/10/10 4/4/4
f 6/6/6 13/13/13 12/12/12
f 13/13/13 14/14/14 12/12/12
f 14/14/14 10/10/10 12/12/12
f 13/13/13 15/15/15 14/14/14
f 11/11/11 10/10/10 16/16/16
f 16/16/16 10/10/10 14/14/14
f 14/14/14 17/17/17 16/16/16
f 18/18/18 11/11/11 16/16/16
f 18/18/18 16/16/16 17/17/17
f 19/19/19 18/18/18 17/17/17
f 15/15/15 20/20/20 14/14/14
f 20/20/20 17/17/17 14/14/14
f 15/15/15 21/21/21 20/20/20
f 21/21/21 22/22/22 20/20/20
f 20/20/20 22/22/22 17/17/17
f 21/21/21 23/23/23 22/22/22
f 23/23/23 24/24/24 22/22/22
f 22/22/22 24/24/24 17/17/17
f 24/24/24 25/25/25 17/17/17
f 19/19/19 17/17/17 25/25/25
f 26/26/26 19/19/19 25/25/25
f 29/29/29 28/28/28 27/27/27
f 30/30/30 29/29/29 27/27/27
f 30/30/30 27/27/27 31/31/31
f 32/32/32 29/29/29 30/30/30
f 33/33/33 30/30/30 31/31/31
f 31/31/31 34/34/34 33/33/33
f 34/34/34 35/35/35 33/33/33
f 33/33/33 35/35/35 36/36/36
f 33/33/33 36/36/36 30/30/30
f 35/35/35 37/37/37 36/36/36
f 38/38/38 32/32/32 30/30/30
f 36/36/36 38/38/38 30/30/30
f 39/39/39 32/32/32 38/38/38
f 40/40/40 39/39/39 38/38/38
f 36/36/36 40/40/40 38/38/38
f 41/41/41 39/39/39 40/40/40
f 36/36/36 37/37/37 42/42/42
f 36/36/36 42/42/42 40/40/40
f 43/43/43 40/40/40 42/42/42
f 37/37/37 44/44/44 42/42/42
f 42/42/42 44/44/44 43/43/43
f 44/44/44 45/45/45 43/43/43
f 46/46/46 41/41/41 40/40/40
f 43/43/43 46/46/46 40/40/40
f 47/47/47 41/41/41 46/46/46
f 48/48/48 47/47/47 46/46/46
f 48/48/48 46/46/46 43/43/43
f 49/49/49 47/47/47 48/48/48
f 50/50/50 49/49/49 48/48/48
f 50/50/50 48/48/48 43/43/43
f 51/51/51 50/50/50 43/43/43
f 43/43/43 45/45/45 51/51/51
f 45/45/45 52/52/52 51/51/51
