g pm0743_00_OffsetEyeASkin_tx
v -0.016828656 0.14262001 0.0405891
v -0.014401335 0.13788494 0.04357969
v -0.017707048 0.13640662 0.04245901
v -0.012820469 0.13382968 0.045191683
v -0.020980429 0.13852286 0.040092926
v -0.02311887 0.1430876 0.036430076
v -0.02492779 0.13812132 0.037404645
v -0.028168999 0.14190635 0.031551804
v -0.027346382 0.1359353 0.035734784
v -0.031273838 0.13576896 0.029982578
v -0.024834359 0.13342227 0.03895294
v -0.02872244 0.13322785 0.03483723
v -0.03222614 0.13009316 0.029423492
v -0.026851006 0.13247022 0.03727949
v -0.02937732 0.1297012 0.034121066
v -0.032095823 0.12478861 0.029425945
v -0.015888466 0.13318688 0.043879665
v -0.019432796 0.13264196 0.04264443
v -0.014783485 0.12951751 0.044675503
v -0.01172024 0.12949872 0.046031084
v -0.021795657 0.13343538 0.041110743
v -0.017619882 0.13149515 0.043658875
v -0.013819959 0.12473638 0.044974037
v -0.011043766 0.12465669 0.04619882
v -0.017179146 0.12912133 0.043975495
v -0.01944678 0.12897752 0.04299782
v -0.022062207 0.12897028 0.041517053
v -0.024706136 0.12905996 0.039604425
v -0.013525398 0.119679496 0.04417057
v -0.010983584 0.11952051 0.04522271
v -0.016647266 0.12465699 0.043997448
v -0.022015676 0.12466043 0.04131977
v -0.026662694 0.12925929 0.03773563
v -0.014169713 0.11519311 0.042115107
v -0.011653596 0.11493381 0.043037046
v -0.013570638 0.11111025 0.040088706
v -0.016171638 0.11253129 0.039588414
v -0.016004184 0.10709621 0.03479976
v -0.016561273 0.11713364 0.04219074
v -0.016488364 0.12009026 0.043258335
v -0.018188411 0.11641607 0.04106893
v -0.01935844 0.11154683 0.037122726
v -0.021843143 0.10878412 0.032297865
v -0.01887052 0.12030589 0.042231288
v -0.020716514 0.11599835 0.03931363
v -0.022217114 0.112186074 0.03563307
v -0.025582412 0.111354396 0.030571088
v -0.019203233 0.124630556 0.042907104
v -0.021610908 0.12040607 0.040635005
v -0.023137676 0.11633785 0.037840698
v -0.02468776 0.113827944 0.034657884
v -0.028627448 0.11490694 0.029702974
v -0.023873277 0.12042955 0.03902442
v -0.025162632 0.117106654 0.036609944
v -0.026307559 0.115858905 0.034196723
v -0.030949377 0.11975934 0.029548604
v -0.024402723 0.12469579 0.039579537
v -0.025761157 0.12041995 0.037377123
v -0.026470741 0.11789539 0.03565757
v -0.027183313 0.120321035 0.03575829
v -0.028375976 0.12024236 0.033791855
v -0.029310295 0.12492659 0.033867452
v -0.026315408 0.12477866 0.037785724
v -0.027882772 0.12488389 0.03594658
v -0.028066102 0.12943266 0.036084317
v -0.028002998 0.13154764 0.03613072
v 0.016828654 0.14262001 0.0405891
v 0.017707048 0.13640662 0.04245901
v 0.014401335 0.13788494 0.04357969
v 0.012820469 0.13382968 0.045191683
v 0.020980429 0.13852286 0.040092926
v 0.02311887 0.1430876 0.036430076
v 0.024927787 0.13812132 0.037404645
v 0.028168969 0.14190634 0.03155186
v 0.027346373 0.13593532 0.035734788
v 0.031273797 0.13576895 0.029982654
v 0.024834355 0.13342227 0.03895294
v 0.028722748 0.13322791 0.034837466
v 0.03222609 0.13009314 0.029423589
v 0.026850985 0.13247024 0.03727951
v 0.029377332 0.1297012 0.03412105
v 0.032095794 0.12478857 0.029425992
v 0.015888466 0.13318688 0.043879665
v 0.019432798 0.13264196 0.04264443
v 0.014783483 0.12951751 0.044675503
v 0.01172024 0.12949872 0.046031084
v 0.021795657 0.13343538 0.041110743
v 0.01761989 0.13149515 0.043658894
v 0.01381996 0.12473638 0.044974037
v 0.011043766 0.1246567 0.04619882
v 0.017179146 0.12912133 0.043975495
v 0.01944678 0.12897752 0.04299782
v 0.022062209 0.12897028 0.041517053
v 0.024706135 0.12905996 0.03960443
v 0.0135254 0.119679496 0.04417057
v 0.010983584 0.11952051 0.04522271
v 0.016647266 0.12465699 0.043997448
v 0.022015644 0.12466049 0.0413198
v 0.026662746 0.12925929 0.037735704
v 0.014169685 0.11519311 0.04211512
v 0.011653594 0.11493381 0.043037046
v 0.013570634 0.11111025 0.040088706
v 0.016171684 0.11253117 0.039588537
v 0.016004182 0.10709621 0.034799755
v 0.016561223 0.11713366 0.04219077
v 0.016488347 0.12009028 0.043258347
v 0.018188717 0.11641574 0.041069567
v 0.019358404 0.111546755 0.03712268
v 0.021843145 0.10878412 0.032297865
v 0.018870477 0.12030591 0.042231314
v 0.02071644 0.11599829 0.039313644
v 0.022217108 0.11218596 0.035632964
v 0.025582412 0.111354396 0.030571088
v 0.019203212 0.12463056 0.04290711
v 0.02161143 0.120405816 0.04063598
v 0.023138551 0.11633707 0.037841786
v 0.024687784 0.11382782 0.034657735
v 0.028627448 0.11490694 0.029702974
v 0.023874464 0.12042914 0.039025936
v 0.0251646 0.117105365 0.036611684
v 0.026307715 0.11585879 0.034196395
v 0.030949375 0.119759336 0.029548602
v 0.024402741 0.12469588 0.039579537
v 0.025761265 0.12041998 0.037377574
v 0.026471414 0.11789476 0.035657704
v 0.027188357 0.12031947 0.03576186
v 0.028376145 0.12024233 0.033791568
v 0.02931039 0.12492666 0.033867314
v 0.026315317 0.12477879 0.037785836
v 0.027882798 0.12488404 0.035946574
v 0.0280664 0.12943266 0.036084548
v 0.028002981 0.13154767 0.03613074
vt 0.30589414 -0.026281357
vt 0.35014153 -0.051720858
vt 0.31440878 -0.061237216
vt 0.37758017 -0.073518515
vt 0.26872945 -0.051155806
vt 0.22271872 -0.027129292
vt 0.2172085 -0.054950595
vt 0.14558578 -0.035109878
vt 0.18671441 -0.067593455
vt 0.11168861 -0.07003713
vt 0.23093867 -0.08017719
vt 0.17081761 -0.08294487
vt 0.10308969 -0.10244656
vt 0.20354152 -0.08611596
vt 0.16251516 -0.10286176
vt 0.10868526 -0.13265908
vt 0.3417728 -0.078282714
vt 0.30196524 -0.08264911
vt 0.35907447 -0.098174095
vt 0.3958243 -0.09735227
vt 0.27116132 -0.07904613
vt 0.32482266 -0.08833063
vt 0.37257218 -0.12448227
vt 0.40549612 -0.12444973
vt 0.33225727 -0.10093558
vt 0.30626774 -0.1022253
vt 0.27425623 -0.10294843
vt 0.23942804 -0.10333765
vt 0.372836 -0.15287912
vt 0.4024905 -0.15375149
vt 0.34023786 -0.12509465
vt 0.27637577 -0.12593102
vt 0.21060884 -0.10314262
vt 0.356444 -0.17930627
vt 0.38497996 -0.18109822
vt 0.3508662 -0.20439267
vt 0.32414603 -0.19555545
vt 0.29670238 -0.23259556
vt 0.33397198 -0.16694939
vt 0.3395729 -0.15024698
vt 0.31322372 -0.171108
vt 0.28103518 -0.20151198
vt 0.22885919 -0.22171903
vt 0.31217146 -0.14908516
vt 0.2805605 -0.17400193
vt 0.24640703 -0.19807482
vt 0.18398929 -0.20790172
vt 0.3107623 -0.12551415
vt 0.27845764 -0.1489979
vt 0.25033116 -0.17256773
vt 0.21871781 -0.1892339
vt 0.14937615 -0.18823552
vt 0.24897802 -0.14956093
vt 0.22512174 -0.16885209
vt 0.20063508 -0.1781969
vt 0.1240139 -0.16089189
vt 0.24496377 -0.12653029
vt 0.22262955 -0.15055501
vt 0.20786095 -0.16520524
vt 0.20044184 -0.15218806
vt 0.17637777 -0.15430796
vt 0.16474652 -0.12888026
vt 0.2171489 -0.12707508
vt 0.19159949 -0.12765598
vt 0.18772733 -0.10303044
vt 0.18700123 -0.09162855
vt 0.69441557 -0.026328206
vt 0.6856499 -0.061264515
vt 0.6498995 -0.051705718
vt 0.6224797 -0.07356405
vt 0.73128414 -0.051140785
vt 0.7775123 -0.027180314
vt 0.7829051 -0.05492997
vt 0.8544493 -0.035241008
vt 0.8133743 -0.06756294
vt 0.8883195 -0.07016134
vt 0.7690613 -0.08017719
vt 0.82926035 -0.08297181
vt 0.896718 -0.10278153
vt 0.7964585 -0.08611596
vt 0.83748627 -0.1028862
vt 0.89133024 -0.13257778
vt 0.65828705 -0.07832718
vt 0.69803476 -0.08264911
vt 0.64095354 -0.0982455
vt 0.60434914 -0.09739125
vt 0.7288387 -0.07904613
vt 0.67517734 -0.08833063
vt 0.62743354 -0.12449718
vt 0.59449196 -0.12441134
vt 0.6677427 -0.10093558
vt 0.69373226 -0.1022253
vt 0.7257438 -0.10294843
vt 0.76057196 -0.10333765
vt 0.6271639 -0.15282059
vt 0.59752846 -0.15366983
vt 0.65976214 -0.12509465
vt 0.7236242 -0.12593102
vt 0.78939104 -0.10314262
vt 0.64354706 -0.17924762
vt 0.61519384 -0.18108416
vt 0.64928436 -0.20447683
vt 0.675823 -0.19547987
vt 0.7034159 -0.23240197
vt 0.666028 -0.16694939
vt 0.6604271 -0.15024698
vt 0.68677616 -0.171108
vt 0.7189164 -0.2015233
vt 0.7711923 -0.2216841
vt 0.68782854 -0.14908516
vt 0.7194395 -0.17400193
vt 0.75348234 -0.19804978
vt 0.8158288 -0.20787454
vt 0.6892376 -0.12551415
vt 0.72154236 -0.1489979
vt 0.74966884 -0.17256773
vt 0.7812183 -0.1891911
vt 0.8506973 -0.18809342
vt 0.75102186 -0.14956093
vt 0.77487826 -0.16885209
vt 0.7992897 -0.1780994
vt 0.8758805 -0.16064107
vt 0.75503635 -0.12653029
vt 0.77737045 -0.15055501
vt 0.79213905 -0.16520524
vt 0.79955816 -0.15218806
vt 0.8236289 -0.1541977
vt 0.8352678 -0.12886953
vt 0.7828512 -0.12707508
vt 0.80840063 -0.12765598
vt 0.81227255 -0.10303044
vt 0.8129988 -0.09162855
vn -0.52739936 0.28328136 0.8010003
vn -0.45222753 0.2254326 0.8629429
vn -0.45136136 0.20146137 0.8693021
vn -0.4093164 0.13270459 0.90269023
vn -0.52997625 0.24760069 0.8110605
vn -0.6274079 0.29083684 0.7223387
vn -0.62917054 0.25105155 0.73560697
vn -0.72750366 0.24236867 0.6418691
vn -0.7254746 0.207045 0.65636814
vn -0.8000726 0.14741701 0.58150846
vn -0.63233715 0.15470265 0.7590895
vn -0.7925466 0.126087 0.5966339
vn -0.8340592 0.023499673 0.5511743
vn -0.71899575 0.12646182 0.68341243
vn -0.8201617 0.0137677165 0.5719662
vn -0.83509684 -0.11313358 0.53834385
vn -0.4042695 0.1238548 0.90621537
vn -0.45721012 0.13370582 0.87925065
vn -0.3869647 0.01549015 0.92196447
vn -0.39066562 0.015962971 0.9203943
vn -0.53845745 0.15699647 0.82789844
vn -0.40894148 0.101504214 0.9068979
vn -0.38019383 -0.113385014 0.9179306
vn -0.38324404 -0.11535271 0.9164157
vn -0.40324694 0.011949775 0.91501313
vn -0.46097338 0.020913849 0.8871674
vn -0.5443411 0.027753495 0.8384048
vn -0.63352257 0.025272168 0.7733114
vn -0.37877065 -0.25206995 0.8905018
vn -0.38080612 -0.25665116 0.88832253
vn -0.40014544 -0.11312961 0.90944237
vn -0.54062474 -0.114335686 0.833458
vn -0.7175571 0.012991539 0.6963786
vn -0.3871687 -0.37903816 0.8404942
vn -0.3892181 -0.39348865 0.8328721
vn -0.418633 -0.49808866 0.75937736
vn -0.4215244 -0.4669703 0.777339
vn -0.47530234 -0.5534206 0.68396884
vn -0.39569217 -0.34898844 0.8494909
vn -0.39669746 -0.2460172 0.8843679
vn -0.435756 -0.38546225 0.81334835
vn -0.4815149 -0.5116128 0.7116149
vn -0.56012124 -0.55114734 0.6184665
vn -0.45050704 -0.25712585 0.8549443
vn -0.5021636 -0.40721613 0.7628937
vn -0.5661598 -0.50691724 0.6499985
vn -0.6608993 -0.49211133 0.56660265
vn -0.4596226 -0.11462191 0.88068664
vn -0.5254849 -0.2633042 0.8090343
vn -0.5839875 -0.4002887 0.7062065
vn -0.66259605 -0.45570314 0.59439135
vn -0.7492925 -0.38814053 0.53657037
vn -0.60859406 -0.25702485 0.7507006
vn -0.6713373 -0.3680193 0.6433258
vn -0.7451255 -0.3669228 0.55691624
vn -0.8080066 -0.25392026 0.53164816
vn -0.62640023 -0.112820216 0.771294
vn -0.69252044 -0.24349286 0.6790631
vn -0.73287225 -0.3304905 0.5947053
vn -0.76025116 -0.23304635 0.606389
vn -0.79543644 -0.24562256 0.5540312
vn -0.8201114 -0.11288649 0.560958
vn -0.71022373 -0.11192794 0.69502115
vn -0.7785251 -0.11280494 0.61739266
vn -0.78245693 0.002419051 0.6227
vn -0.7740514 0.090832196 0.62657326
vn 0.5273992 0.2832832 0.80099976
vn 0.4513611 0.2014621 0.8693021
vn 0.45222768 0.22543296 0.8629427
vn 0.4093163 0.13270469 0.90269023
vn 0.5299746 0.24760294 0.8110609
vn 0.62740654 0.29084188 0.7223379
vn 0.6291664 0.2510575 0.7356084
vn 0.72750217 0.24237613 0.6418678
vn 0.72546875 0.20705464 0.65637153
vn 0.8000786 0.1474238 0.58149856
vn 0.632323 0.15471901 0.75909793
vn 0.7925488 0.12610166 0.59662795
vn 0.83407927 0.023514556 0.55114317
vn 0.7189796 0.12648728 0.6834248
vn 0.8201805 0.013796585 0.57193846
vn 0.8351379 -0.11311399 0.5382842
vn 0.4042695 0.123854905 0.90621525
vn 0.457206 0.13370998 0.87925214
vn 0.3869622 0.015491344 0.92196536
vn 0.39066505 0.01596297 0.9203945
vn 0.538451 0.15700506 0.82790095
vn 0.40893978 0.10150549 0.9068985
vn 0.38018492 -0.11338094 0.9179347
vn 0.3832398 -0.11535198 0.9164176
vn 0.40323937 0.011955903 0.9150164
vn 0.46095857 0.020929398 0.88717484
vn 0.5443176 0.027785517 0.83841896
vn 0.6334922 0.025325306 0.77333456
vn 0.37875032 -0.25206673 0.89051133
vn 0.38079503 -0.25665134 0.88832724
vn 0.40012428 -0.11311659 0.9094532
vn 0.5405751 -0.11428053 0.83349776
vn 0.7175326 0.013055874 0.69640255
vn 0.38713938 -0.37904334 0.84050536
vn 0.3892005 -0.3934945 0.8328776
vn 0.41861048 -0.49810553 0.75937885
vn 0.42148462 -0.46699023 0.77734864
vn 0.47527313 -0.55345166 0.6839639
vn 0.39564702 -0.3489893 0.8495116
vn 0.3966604 -0.246006 0.8843877
vn 0.43569905 -0.38547125 0.8133747
vn 0.48146972 -0.5116521 0.71161723
vn 0.56010044 -0.5511922 0.61844546
vn 0.45044982 -0.25710696 0.8549801
vn 0.50209385 -0.40724158 0.7629259
vn 0.5661212 -0.5069859 0.64997846
vn 0.66090244 -0.49217713 0.5665419
vn 0.4595864 -0.114591874 0.88070935
vn 0.5254178 -0.2632724 0.80908823
vn 0.58393884 -0.40033224 0.706222
vn 0.66260237 -0.45579085 0.5943171
vn 0.749333 -0.3881928 0.5364759
vn 0.6085357 -0.25698775 0.7507607
vn 0.67133594 -0.36810172 0.64328
vn 0.74517655 -0.36701453 0.55678755
vn 0.8080616 -0.25393552 0.5315574
vn 0.6263515 -0.11273505 0.771346
vn 0.69251686 -0.24346468 0.67907673
vn 0.7329261 -0.3305787 0.5945898
vn 0.7603044 -0.23305313 0.6063196
vn 0.7955049 -0.24563617 0.5539267
vn 0.82015926 -0.11285154 0.560895
vn 0.7102033 -0.11183653 0.69505674
vn 0.77855295 -0.11273697 0.61737
vn 0.7824596 0.0024732943 0.62269646
vn 0.77404404 0.090856865 0.6265787
g pm0743_00_OffsetEyeASkin_tx_0
f 3/3/3 2/2/2 1/1/1
f 2/2/2 3/3/3 4/4/4
f 5/5/5 3/3/3 1/1/1
f 1/1/1 6/6/6 5/5/5
f 6/6/6 7/7/7 5/5/5
f 7/7/7 6/6/6 8/8/8
f 9/9/9 7/7/7 8/8/8
f 9/9/9 8/8/8 10/10/10
f 7/7/7 11/11/11 5/5/5
f 7/7/7 9/9/9 11/11/11
f 12/12/12 9/9/9 10/10/10
f 12/12/12 10/10/10 13/13/13
f 9/9/9 14/14/14 11/11/11
f 9/9/9 12/12/12 14/14/14
f 15/15/15 12/12/12 13/13/13
f 15/15/15 13/13/13 16/16/16
f 3/3/3 17/17/17 4/4/4
f 3/3/3 5/5/5 18/18/18
f 3/3/3 18/18/18 17/17/17
f 4/4/4 17/17/17 19/19/19
f 20/20/20 4/4/4 19/19/19
f 11/11/11 21/21/21 5/5/5
f 5/5/5 21/21/21 18/18/18
f 18/18/18 22/22/22 17/17/17
f 19/19/19 17/17/17 22/22/22
f 20/20/20 19/19/19 23/23/23
f 24/24/24 20/20/20 23/23/23
f 25/25/25 19/19/19 22/22/22
f 23/23/23 19/19/19 25/25/25
f 22/22/22 18/18/18 26/26/26
f 25/25/25 22/22/22 26/26/26
f 18/18/18 21/21/21 27/27/27
f 26/26/26 18/18/18 27/27/27
f 11/11/11 28/28/28 21/21/21
f 28/28/28 27/27/27 21/21/21
f 24/24/24 23/23/23 29/29/29
f 30/30/30 24/24/24 29/29/29
f 31/31/31 23/23/23 25/25/25
f 25/25/25 26/26/26 31/31/31
f 29/29/29 23/23/23 31/31/31
f 27/27/27 32/32/32 26/26/26
f 32/32/32 27/27/27 28/28/28
f 33/33/33 28/28/28 11/11/11
f 14/14/14 33/33/33 11/11/11
f 29/29/29 34/34/34 30/30/30
f 34/34/34 35/35/35 30/30/30
f 35/35/35 34/34/34 36/36/36
f 34/34/34 37/37/37 36/36/36
f 36/36/36 37/37/37 38/38/38
f 34/34/34 29/29/29 39/39/39
f 34/34/34 39/39/39 37/37/37
f 29/29/29 40/40/40 39/39/39
f 40/40/40 29/29/29 31/31/31
f 41/41/41 39/39/39 40/40/40
f 39/39/39 41/41/41 37/37/37
f 37/37/37 42/42/42 38/38/38
f 43/43/43 38/38/38 42/42/42
f 44/44/44 40/40/40 31/31/31
f 44/44/44 41/41/41 40/40/40
f 41/41/41 45/45/45 37/37/37
f 45/45/45 42/42/42 37/37/37
f 45/45/45 41/41/41 44/44/44
f 46/46/46 43/43/43 42/42/42
f 47/47/47 43/43/43 46/46/46
f 48/48/48 44/44/44 31/31/31
f 26/26/26 48/48/48 31/31/31
f 32/32/32 48/48/48 26/26/26
f 49/49/49 44/44/44 48/48/48
f 49/49/49 45/45/45 44/44/44
f 32/32/32 49/49/49 48/48/48
f 42/42/42 45/45/45 50/50/50
f 50/50/50 45/45/45 49/49/49
f 46/46/46 42/42/42 50/50/50
f 51/51/51 47/47/47 46/46/46
f 52/52/52 47/47/47 51/51/51
f 53/53/53 49/49/49 32/32/32
f 53/53/53 50/50/50 49/49/49
f 46/46/46 50/50/50 54/54/54
f 51/51/51 46/46/46 54/54/54
f 54/54/54 50/50/50 53/53/53
f 55/55/55 52/52/52 51/51/51
f 56/56/56 52/52/52 55/55/55
f 57/57/57 53/53/53 32/32/32
f 57/57/57 32/32/32 28/28/28
f 57/57/57 28/28/28 33/33/33
f 58/58/58 53/53/53 57/57/57
f 58/58/58 54/54/54 53/53/53
f 51/51/51 54/54/54 59/59/59
f 55/55/55 51/51/51 59/59/59
f 60/60/60 59/59/59 54/54/54
f 59/59/59 60/60/60 55/55/55
f 58/58/58 60/60/60 54/54/54
f 61/61/61 56/56/56 55/55/55
f 60/60/60 61/61/61 55/55/55
f 16/16/16 56/56/56 61/61/61
f 62/62/62 16/16/16 61/61/61
f 62/62/62 61/61/61 60/60/60
f 62/62/62 15/15/15 16/16/16
f 63/63/63 58/58/58 57/57/57
f 63/63/63 57/57/57 33/33/33
f 64/64/64 60/60/60 58/58/58
f 64/64/64 62/62/62 60/60/60
f 63/63/63 64/64/64 58/58/58
f 65/65/65 15/15/15 62/62/62
f 64/64/64 65/65/65 62/62/62
f 65/65/65 64/64/64 63/63/63
f 33/33/33 65/65/65 63/63/63
f 12/12/12 15/15/15 65/65/65
f 66/66/66 65/65/65 33/33/33
f 66/66/66 12/12/12 65/65/65
f 14/14/14 66/66/66 33/33/33
f 12/12/12 66/66/66 14/14/14
f 69/69/69 68/68/68 67/67/67
f 68/68/68 69/69/69 70/70/70
f 68/68/68 71/71/71 67/67/67
f 72/72/72 67/67/67 71/71/71
f 73/73/73 72/72/72 71/71/71
f 72/72/72 73/73/73 74/74/74
f 73/73/73 75/75/75 74/74/74
f 74/74/74 75/75/75 76/76/76
f 77/77/77 73/73/73 71/71/71
f 75/75/75 73/73/73 77/77/77
f 75/75/75 78/78/78 76/76/76
f 76/76/76 78/78/78 79/79/79
f 80/80/80 75/75/75 77/77/77
f 78/78/78 75/75/75 80/80/80
f 78/78/78 81/81/81 79/79/79
f 79/79/79 81/81/81 82/82/82
f 83/83/83 68/68/68 70/70/70
f 71/71/71 68/68/68 84/84/84
f 84/84/84 68/68/68 83/83/83
f 83/83/83 70/70/70 85/85/85
f 70/70/70 86/86/86 85/85/85
f 87/87/87 77/77/77 71/71/71
f 87/87/87 71/71/71 84/84/84
f 88/88/88 84/84/84 83/83/83
f 83/83/83 85/85/85 88/88/88
f 85/85/85 86/86/86 89/89/89
f 86/86/86 90/90/90 89/89/89
f 85/85/85 91/91/91 88/88/88
f 85/85/85 89/89/89 91/91/91
f 84/84/84 88/88/88 92/92/92
f 88/88/88 91/91/91 92/92/92
f 87/87/87 84/84/84 93/93/93
f 84/84/84 92/92/92 93/93/93
f 94/94/94 77/77/77 87/87/87
f 93/93/93 94/94/94 87/87/87
f 89/89/89 90/90/90 95/95/95
f 90/90/90 96/96/96 95/95/95
f 89/89/89 97/97/97 91/91/91
f 92/92/92 91/91/91 97/97/97
f 89/89/89 95/95/95 97/97/97
f 98/98/98 93/93/93 92/92/92
f 93/93/93 98/98/98 94/94/94
f 94/94/94 99/99/99 77/77/77
f 99/99/99 80/80/80 77/77/77
f 100/100/100 95/95/95 96/96/96
f 101/101/101 100/100/100 96/96/96
f 100/100/100 101/101/101 102/102/102
f 103/103/103 100/100/100 102/102/102
f 103/103/103 102/102/102 104/104/104
f 95/95/95 100/100/100 105/105/105
f 105/105/105 100/100/100 103/103/103
f 106/106/106 95/95/95 105/105/105
f 95/95/95 106/106/106 97/97/97
f 105/105/105 107/107/107 106/106/106
f 107/107/107 105/105/105 103/103/103
f 108/108/108 103/103/103 104/104/104
f 104/104/104 109/109/109 108/108/108
f 106/106/106 110/110/110 97/97/97
f 107/107/107 110/110/110 106/106/106
f 111/111/111 107/107/107 103/103/103
f 108/108/108 111/111/111 103/103/103
f 107/107/107 111/111/111 110/110/110
f 109/109/109 112/112/112 108/108/108
f 109/109/109 113/113/113 112/112/112
f 110/110/110 114/114/114 97/97/97
f 114/114/114 92/92/92 97/97/97
f 114/114/114 98/98/98 92/92/92
f 110/110/110 115/115/115 114/114/114
f 111/111/111 115/115/115 110/110/110
f 115/115/115 98/98/98 114/114/114
f 111/111/111 108/108/108 116/116/116
f 111/111/111 116/116/116 115/115/115
f 108/108/108 112/112/112 116/116/116
f 113/113/113 117/117/117 112/112/112
f 113/113/113 118/118/118 117/117/117
f 115/115/115 119/119/119 98/98/98
f 116/116/116 119/119/119 115/115/115
f 116/116/116 112/112/112 120/120/120
f 112/112/112 117/117/117 120/120/120
f 116/116/116 120/120/120 119/119/119
f 118/118/118 121/121/121 117/117/117
f 118/118/118 122/122/122 121/121/121
f 119/119/119 123/123/123 98/98/98
f 98/98/98 123/123/123 94/94/94
f 94/94/94 123/123/123 99/99/99
f 119/119/119 124/124/124 123/123/123
f 120/120/120 124/124/124 119/119/119
f 120/120/120 117/117/117 125/125/125
f 117/117/117 121/121/121 125/125/125
f 125/125/125 126/126/126 120/120/120
f 126/126/126 125/125/125 121/121/121
f 126/126/126 124/124/124 120/120/120
f 122/122/122 127/127/127 121/121/121
f 127/127/127 126/126/126 121/121/121
f 122/122/122 82/82/82 127/127/127
f 82/82/82 128/128/128 127/127/127
f 127/127/127 128/128/128 126/126/126
f 81/81/81 128/128/128 82/82/82
f 124/124/124 129/129/129 123/123/123
f 123/123/123 129/129/129 99/99/99
f 126/126/126 130/130/130 124/124/124
f 128/128/128 130/130/130 126/126/126
f 130/130/130 129/129/129 124/124/124
f 81/81/81 131/131/131 128/128/128
f 131/131/131 130/130/130 128/128/128
f 130/130/130 131/131/131 129/129/129
f 131/131/131 99/99/99 129/129/129
f 81/81/81 78/78/78 131/131/131
f 131/131/131 132/132/132 99/99/99
f 78/78/78 132/132/132 131/131/131
f 132/132/132 80/80/80 99/99/99
f 132/132/132 78/78/78 80/80/80
