g pm0720_12_RingBlackSkin
v -4.3808055E-31 0.6337805 0.00014999999
v -6.310702E-32 2.8421058E-16 0.00014999999
v -0.31689024 0.54887 0.00014999999
v -0.54887 0.31689024 0.00014999999
v -0.6337805 2.8421058E-16 0.00014999999
v -0.54887 -0.31689024 0.00014999999
v -0.31689024 -0.54887 0.00014999999
v 3.1186646E-31 -0.6337805 0.00014999999
v -4.380842E-31 0.6337805 -0.00014999999
v -0.31689024 0.54887 -0.00014999999
v -6.311072E-32 2.8421058E-16 -0.00014999999
v -0.54887 0.31689024 -0.00014999999
v -0.6337805 2.8421058E-16 -0.00014999999
v -0.54887 -0.31689024 -0.00014999999
v -0.31689024 -0.54887 -0.00014999999
v 3.118628E-31 -0.6337805 -0.00014999999
v -4.3808055E-31 0.6337805 0.00014999999
v 0.31689024 0.54887 0.00014999999
v -6.310702E-32 2.8421058E-16 0.00014999999
v 0.54887 0.31689024 0.00014999999
v 0.6337805 2.8421058E-16 0.00014999999
v 0.54887 -0.31689024 0.00014999999
v 0.31689024 -0.54887 0.00014999999
v 3.1186646E-31 -0.6337805 0.00014999999
v -4.380842E-31 0.6337805 -0.00014999999
v -6.311072E-32 2.8421058E-16 -0.00014999999
v 0.31689024 0.54887 -0.00014999999
v 0.54887 0.31689024 -0.00014999999
v 0.6337805 2.8421058E-16 -0.00014999999
v 0.54887 -0.31689024 -0.00014999999
v 0.31689024 -0.54887 -0.00014999999
v 3.118628E-31 -0.6337805 -0.00014999999
vt 0.625 0.2608447
vt 0.62499994 0.23828124
vt 0.60243654 0.2578218
vt 0.5859189 0.249563
vt 0.5798732 0.23828125
vt 0.5859189 0.22699952
vt 0.60243654 0.2187407
vt 0.625 0.21571779
vt 0.640625 0.2608447
vt 0.66318846 0.2578218
vt 0.64062494 0.23828124
vt 0.6797062 0.249563
vt 0.6857518 0.23828125
vt 0.6797062 0.22699952
vt 0.66318846 0.2187407
vt 0.640625 0.21571779
vt 0.625 0.2608447
vt 0.60243654 0.2578218
vt 0.625 0.23828124
vt 0.5859189 0.249563
vt 0.5798733 0.23828125
vt 0.5859189 0.22699952
vt 0.60243654 0.2187407
vt 0.625 0.21571779
vt 0.640625 0.2608447
vt 0.640625 0.23828124
vt 0.66318846 0.2578218
vt 0.67970634 0.249563
vt 0.6857519 0.23828125
vt 0.67970634 0.22699952
vt 0.66318846 0.2187407
vt 0.640625 0.21571779
vn -0 0 1
vn -0 0 1
vn -0 0 1
vn -0 0 1
vn -0 0 1
vn -0 0 1
vn -0 0 1
vn -0 0 1
vn -0 0 -1
vn -0 0 -1
vn -0 0 -1
vn -0 0 -1
vn -0 0 -1
vn -0 0 -1
vn -0 0 -1
vn -0 0 -1
vn -0 0 1
vn -0 0 1
vn -0 0 1
vn -0 0 1
vn -0 0 1
vn -0 0 1
vn -0 0 1
vn -0 0 1
vn -0 0 -1
vn -0 0 -1
vn -0 0 -1
vn -0 0 -1
vn -0 0 -1
vn -0 0 -1
vn -0 0 -1
vn -0 0 -1
g pm0720_12_RingBlackSkin_0
f 3/3/3 2/2/2 1/1/1
f 4/4/4 2/2/2 3/3/3
f 5/5/5 2/2/2 4/4/4
f 6/6/6 2/2/2 5/5/5
f 7/7/7 2/2/2 6/6/6
f 8/8/8 2/2/2 7/7/7
f 11/11/11 10/10/10 9/9/9
f 11/11/11 12/12/12 10/10/10
f 11/11/11 13/13/13 12/12/12
f 11/11/11 14/14/14 13/13/13
f 11/11/11 15/15/15 14/14/14
f 11/11/11 16/16/16 15/15/15
f 19/19/19 18/18/18 17/17/17
f 19/19/19 20/20/20 18/18/18
f 19/19/19 21/21/21 20/20/20
f 19/19/19 22/22/22 21/21/21
f 19/19/19 23/23/23 22/22/22
f 19/19/19 24/24/24 23/23/23
f 27/27/27 26/26/26 25/25/25
f 28/28/28 26/26/26 27/27/27
f 29/29/29 26/26/26 28/28/28
f 30/30/30 26/26/26 29/29/29
f 31/31/31 26/26/26 30/30/30
f 32/32/32 26/26/26 31/31/31
