g pm0720_12_RArmA2Skin
v -0.634895 -0.13489513 1.4784884
v -0.5 -0.19750017 1.4784884
v -0.5 -0.11143478 1.2584096
v -0.57611114 -0.07611135 1.2584096
v -0.6975003 1.4555432E-08 1.4784884
v -0.5 -0.031796973 1.123861
v -0.61143494 1.6980179E-08 1.2584096
v -0.634895 0.13489516 1.4784884
v -0.531797 1.8476769E-08 1.123861
v -0.5 1.90627E-08 1.0984883
v -0.57611114 0.07611138 1.2584096
v -0.5 0.11143482 1.2584096
v -0.5 0.1975002 1.4784884
v -0.36510482 0.13489516 1.4784884
v -0.5 0.031797014 1.123861
v -0.5 1.90627E-08 1.0984883
v -0.46820295 1.828947E-08 1.123861
v -0.42388853 0.07611138 1.2584096
v -0.30249968 1.4555432E-08 1.4784884
v -0.38856506 1.6326744E-08 1.2584096
v -0.36510482 -0.13489513 1.4784884
v -0.42388853 -0.07611135 1.2584096
v -0.5 -0.19750017 1.4784884
v -0.5 -0.11143478 1.2584096
v -0.5 -0.031796973 1.123861
v -0.5 1.90627E-08 1.0984883
v -0.6286633 -0.22285154 1.5572784
v -0.5 -0.25732678 1.5572784
v -0.5 -0.29727066 1.5124938
v -0.64863527 -0.2574439 1.5124938
v -0.7228516 -0.12866339 1.5572784
v -0.5 -0.2824264 1.4573131
v -0.75744385 -0.14863533 1.5124938
v -0.75732696 1.649911E-08 1.5572784
v -0.64121306 -0.24458842 1.4573131
v -0.5 -0.24 1.4392529
v -0.7972708 -2.8423768E-16 1.5124938
v -0.7228516 0.12866342 1.5572784
v -0.7445883 -0.1412132 1.4573132
v -0.663923 -0.16392303 1.4392532
v -0.5 -0.19750017 1.4784884
v -0.634895 -0.13489513 1.4784884
v -0.75744385 0.14863533 1.5124938
v -0.6286633 0.22285154 1.5572778
v -0.7824264 -1.7881396E-09 1.4573131
v -0.74 -2.6822093E-09 1.4392529
v -0.6975003 1.4555432E-08 1.4784884
v -0.64863527 0.2574439 1.5124938
v -0.5 0.25732684 1.5572784
v -0.7445883 0.1412132 1.4573131
v -0.663923 0.16392303 1.4392529
v -0.634895 0.13489516 1.4784884
v -0.5 0.29727066 1.5124938
v -0.37133652 0.22285154 1.5572778
v -0.64121306 0.24458842 1.4573135
v -0.5 0.24 1.4392529
v -0.5 0.1975002 1.4784884
v -0.5 0.2824264 1.4573132
v -0.35136458 0.2574439 1.5124938
v -0.27714843 0.12866342 1.5572784
v -0.33607695 0.16392303 1.4392529
v -0.36510482 0.13489516 1.4784884
v -0.35878676 0.24458842 1.4573135
v -0.24255614 0.14863533 1.5124938
v -0.24267319 1.649911E-08 1.5572784
v -0.25541154 0.1412132 1.4573131
v -0.20272933 -2.8423768E-16 1.5124938
v -0.27714843 -0.12866339 1.5572784
v -0.26 -2.6822093E-09 1.4392529
v -0.30249968 1.4555432E-08 1.4784884
v -0.2175737 -1.7881396E-09 1.4573131
v -0.24255614 -0.14863533 1.5124938
v -0.37133652 -0.22285154 1.5572784
v -0.33607695 -0.16392303 1.4392532
v -0.36510482 -0.13489513 1.4784884
v -0.25541154 -0.1412132 1.4573132
v -0.35136458 -0.2574439 1.5124938
v -0.5 -0.25732678 1.5572784
v -0.5 -0.29727066 1.5124938
v -0.35878676 -0.24458842 1.4573131
v -0.5 -0.2824264 1.4573131
v -0.5 -0.24 1.4392529
v -0.5 -0.19750017 1.4784884
vt 0.32803988 0.7222011
vt 0.30728292 0.7734375
vt 0.4513421 0.7734375
vt 0.46312046 0.7499378
vt 0.38340044 0.6771476
vt 0.5472631 0.77343726
vt 0.48971367 0.7295747
vt 0.47247124 0.6472647
vt 0.55518866 0.7614267
vt 0.57812494 0.7734375
vt 0.53058386 0.7163396
vt 0.578125 0.7110753
vt 0.578125 0.63433933
vt 0.68377924 0.6472647
vt 0.57812494 0.7564328
vt 0.57812494 0.7734375
vt 0.60106134 0.7614267
vt 0.62566614 0.7163396
vt 0.77284956 0.6771476
vt 0.66653633 0.7295749
vt 0.8282101 0.7222011
vt 0.69312906 0.7499378
vt 0.848967 0.7734375
vt 0.7049079 0.7734375
vt 0.6089868 0.77343726
vt 0.57812494 0.7734375
vt 0.8993149 0.98731613
vt 0.9798417 0.98731613
vt 0.9798417 0.9702184
vt 0.8990074 0.9702184
vt 0.82045794 0.98731613
vt 0.9798417 0.9530723
vt 0.82076454 0.9702184
vt 0.73993397 0.98731613
vt 0.89860535 0.9530723
vt 0.9798417 0.93622255
vt 0.7399311 0.9702184
vt 0.65939283 0.98731613
vt 0.8211632 0.9530723
vt 0.85987854 0.93622255
vt 0.9798417 0.91861725
vt 0.85987735 0.91861725
vt 0.65909576 0.9702184
vt 0.5805235 0.98731613
vt 0.7399316 0.9530723
vt 0.739933 0.93622255
vt 0.7399359 0.91861725
vt 0.580843 0.9702184
vt 0.50002575 0.98731613
vt 0.6587 0.9530723
vt 0.61998653 0.93622255
vt 0.61998916 0.91861725
vt 0.50002575 0.9702184
vt 0.41952324 0.98731613
vt 0.58125114 0.9530723
vt 0.5000248 0.93622255
vt 0.5000248 0.91861725
vt 0.5000248 0.9530723
vt 0.41920376 0.9702184
vt 0.3406458 0.98731613
vt 0.3800559 0.93622255
vt 0.38005185 0.91861725
vt 0.4187951 0.9530723
vt 0.34094334 0.9702184
vt 0.26009226 0.98731613
vt 0.34133768 0.9530723
vt 0.26009512 0.9702184
vt 0.17955875 0.98731613
vt 0.2600937 0.93622255
vt 0.26009083 0.91861725
vt 0.2600956 0.9530723
vt 0.17925167 0.9702184
vt 0.1006918 0.98731613
vt 0.1401329 0.93622255
vt 0.14013505 0.91861725
vt 0.17885256 0.9530723
vt 0.10099983 0.9702184
vt 0.02015829 0.98731613
vt 0.02015829 0.9702184
vt 0.10140228 0.9530723
vt 0.02015829 0.9530723
vt 0.02015829 0.93622255
vt 0.02015829 0.91861725
vn -0.66148627 -0.66148716 -0.35337043
vn -1.7881393E-07 -0.93131787 -0.3642074
vn -1.5258683E-05 -0.89867383 -0.43861753
vn -0.6315915 -0.63159245 -0.44964778
vn -0.93131787 0 -0.36420754
vn -1.5258911E-05 -0.7553124 -0.65536505
vn -0.89867383 1.5258683E-05 -0.43861753
vn -0.66148627 0.6614871 -0.35337043
vn -0.7553124 1.5258911E-05 -0.65536505
vn -1.5258789E-05 1.5258789E-05 -1
vn -0.6315937 0.6315937 -0.44964296
vn -1.5258683E-05 0.89867383 -0.43861753
vn -4.1723254E-07 0.9313179 -0.3642073
vn 0.66148627 0.66148716 -0.35337043
vn -1.5258911E-05 0.7553124 -0.65536493
vn -1.5258789E-05 1.5258789E-05 -1
vn 0.7553124 -1.5258911E-05 -0.65536493
vn 0.6315918 0.6315918 -0.44964835
vn 0.9313179 1.19209275E-07 -0.36420706
vn 0.89867383 -1.5258683E-05 -0.43861753
vn 0.6614864 -0.661487 -0.35337046
vn 0.6315937 -0.6315937 -0.44964296
vn -1.7881393E-07 -0.93131787 -0.3642074
vn -1.5258683E-05 -0.89867383 -0.43861753
vn -1.5258911E-05 -0.7553124 -0.65536505
vn -1.5258789E-05 1.5258789E-05 -1
vn -0.37314427 -0.6463046 0.6656227
vn -4.7683716E-07 -0.74628806 0.665623
vn -3.5762787E-07 -0.9722276 0.23403741
vn -0.48611405 -0.8419737 0.23403706
vn -0.64630413 -0.373145 0.66562283
vn 1.1920928E-07 -0.7169976 -0.69707566
vn -0.8419736 -0.4861146 0.2340366
vn -0.7462879 0 0.6656233
vn -0.38084665 -0.6301268 -0.67668027
vn 5.960464E-07 0.20671223 -0.9784017
vn -0.9722277 -1.7881395E-07 0.23403694
vn -0.64630306 0.37314487 0.66562384
vn -0.63012904 -0.38084453 -0.6766792
vn 0.05959344 0.059595585 -0.99644214
vn -1.7881393E-07 -0.93131787 -0.3642074
vn -0.66148627 -0.66148716 -0.35337043
vn -0.8419733 0.4861145 0.23403752
vn -0.37314308 0.646303 0.665625
vn -0.71699834 -4.7683713E-07 -0.69707495
vn 0.2067107 -7.1525574E-07 -0.9784021
vn -0.93131787 0 -0.36420754
vn -0.48611376 0.84197366 0.23403814
vn -1.19209275E-07 0.74628586 0.66562563
vn -0.6301277 0.38084695 -0.67667913
vn 0.05959451 -0.05959296 -0.99644226
vn -0.66148627 0.6614871 -0.35337043
vn -0 0.97222733 0.23403837
vn 0.3731432 0.64630294 0.6656249
vn -0.38084525 0.63013 -0.676678
vn 2.3841858E-07 -0.20671 -0.9784023
vn -4.1723254E-07 0.9313179 -0.3642073
vn 2.384186E-07 0.7169997 -0.6970734
vn 0.486114 0.8419735 0.23403823
vn 0.6463034 0.37314406 0.665624
vn -0.059595052 -0.059592847 -0.99644226
vn 0.66148627 0.66148716 -0.35337043
vn 0.38084555 0.6301297 -0.676678
vn 0.8419737 0.48611355 0.23403788
vn 0.746288 0 0.6656231
vn 0.63012815 0.3808464 -0.676679
vn 0.9722276 -1.7881393E-07 0.23403741
vn 0.64630455 -0.37314424 0.6656229
vn -0.20671175 -5.9604645E-07 -0.97840184
vn 0.9313179 1.19209275E-07 -0.36420706
vn 0.7169988 -5.364418E-07 -0.6970744
vn 0.8419739 -0.4861136 0.23403713
vn 0.373144 -0.64630455 0.6656229
vn -0.05959332 0.05959594 -0.99644214
vn 0.6614864 -0.661487 -0.35337046
vn 0.6301294 -0.38084403 -0.6766792
vn 0.48611388 -0.84197384 0.23403731
vn -4.7683716E-07 -0.74628806 0.665623
vn -3.5762787E-07 -0.9722276 0.23403741
vn 0.38084674 -0.6301265 -0.67668027
vn 1.1920928E-07 -0.7169976 -0.69707566
vn 5.960464E-07 0.20671223 -0.9784017
vn -1.7881393E-07 -0.93131787 -0.3642074
g pm0720_12_RArmA2Skin_0
f 3/3/3 2/2/2 1/1/1
f 4/4/4 3/3/3 1/1/1
f 4/4/4 1/1/1 5/5/5
f 3/3/3 4/4/4 6/6/6
f 7/7/7 4/4/4 5/5/5
f 7/7/7 5/5/5 8/8/8
f 4/4/4 9/9/9 6/6/6
f 4/4/4 7/7/7 9/9/9
f 6/6/6 9/9/9 10/10/10
f 11/11/11 7/7/7 8/8/8
f 9/9/9 7/7/7 11/11/11
f 11/11/11 8/8/8 12/12/12
f 8/8/8 13/13/13 12/12/12
f 12/12/12 13/13/13 14/14/14
f 9/9/9 11/11/11 15/15/15
f 11/11/11 12/12/12 15/15/15
f 9/9/9 15/15/15 16/16/16
f 15/15/15 17/17/17 16/16/16
f 18/18/18 12/12/12 14/14/14
f 12/12/12 18/18/18 15/15/15
f 18/18/18 17/17/17 15/15/15
f 18/18/18 14/14/14 19/19/19
f 20/20/20 18/18/18 19/19/19
f 18/18/18 20/20/20 17/17/17
f 20/20/20 19/19/19 21/21/21
f 22/22/22 20/20/20 21/21/21
f 20/20/20 22/22/22 17/17/17
f 22/22/22 21/21/21 23/23/23
f 24/24/24 22/22/22 23/23/23
f 22/22/22 24/24/24 25/25/25
f 22/22/22 25/25/25 17/17/17
f 17/17/17 25/25/25 26/26/26
g pm0720_12_RArmA2Skin_1
f 29/29/29 28/28/28 27/27/27
f 30/30/30 29/29/29 27/27/27
f 30/30/30 27/27/27 31/31/31
f 32/32/32 29/29/29 30/30/30
f 33/33/33 30/30/30 31/31/31
f 33/33/33 31/31/31 34/34/34
f 35/35/35 32/32/32 30/30/30
f 35/35/35 30/30/30 33/33/33
f 36/36/36 32/32/32 35/35/35
f 37/37/37 33/33/33 34/34/34
f 37/37/37 34/34/34 38/38/38
f 39/39/39 35/35/35 33/33/33
f 39/39/39 33/33/33 37/37/37
f 40/40/40 36/36/36 35/35/35
f 40/40/40 35/35/35 39/39/39
f 41/41/41 36/36/36 40/40/40
f 42/42/42 41/41/41 40/40/40
f 43/43/43 37/37/37 38/38/38
f 43/43/43 38/38/38 44/44/44
f 45/45/45 39/39/39 37/37/37
f 40/40/40 39/39/39 45/45/45
f 45/45/45 37/37/37 43/43/43
f 42/42/42 40/40/40 46/46/46
f 46/46/46 40/40/40 45/45/45
f 47/47/47 42/42/42 46/46/46
f 48/48/48 43/43/43 44/44/44
f 48/48/48 44/44/44 49/49/49
f 50/50/50 45/45/45 43/43/43
f 46/46/46 45/45/45 50/50/50
f 50/50/50 43/43/43 48/48/48
f 47/47/47 46/46/46 51/51/51
f 51/51/51 46/46/46 50/50/50
f 52/52/52 47/47/47 51/51/51
f 53/53/53 48/48/48 49/49/49
f 53/53/53 49/49/49 54/54/54
f 55/55/55 50/50/50 48/48/48
f 51/51/51 50/50/50 55/55/55
f 55/55/55 48/48/48 53/53/53
f 52/52/52 51/51/51 56/56/56
f 57/57/57 52/52/52 56/56/56
f 51/51/51 55/55/55 58/58/58
f 58/58/58 55/55/55 53/53/53
f 56/56/56 51/51/51 58/58/58
f 59/59/59 53/53/53 54/54/54
f 58/58/58 53/53/53 59/59/59
f 59/59/59 54/54/54 60/60/60
f 57/57/57 56/56/56 61/61/61
f 62/62/62 57/57/57 61/61/61
f 56/56/56 58/58/58 63/63/63
f 63/63/63 58/58/58 59/59/59
f 61/61/61 56/56/56 63/63/63
f 64/64/64 59/59/59 60/60/60
f 63/63/63 59/59/59 64/64/64
f 64/64/64 60/60/60 65/65/65
f 66/66/66 63/63/63 64/64/64
f 61/61/61 63/63/63 66/66/66
f 67/67/67 64/64/64 65/65/65
f 66/66/66 64/64/64 67/67/67
f 67/67/67 65/65/65 68/68/68
f 62/62/62 61/61/61 69/69/69
f 70/70/70 62/62/62 69/69/69
f 61/61/61 66/66/66 71/71/71
f 71/71/71 66/66/66 67/67/67
f 69/69/69 61/61/61 71/71/71
f 72/72/72 67/67/67 68/68/68
f 71/71/71 67/67/67 72/72/72
f 72/72/72 68/68/68 73/73/73
f 70/70/70 69/69/69 74/74/74
f 75/75/75 70/70/70 74/74/74
f 69/69/69 71/71/71 76/76/76
f 76/76/76 71/71/71 72/72/72
f 74/74/74 69/69/69 76/76/76
f 77/77/77 72/72/72 73/73/73
f 76/76/76 72/72/72 77/77/77
f 77/77/77 73/73/73 78/78/78
f 79/79/79 77/77/77 78/78/78
f 80/80/80 76/76/76 77/77/77
f 80/80/80 77/77/77 79/79/79
f 74/74/74 76/76/76 80/80/80
f 81/81/81 80/80/80 79/79/79
f 74/74/74 80/80/80 81/81/81
f 82/82/82 74/74/74 81/81/81
f 75/75/75 74/74/74 82/82/82
f 83/83/83 75/75/75 82/82/82
