g pm0743_00_OffsetEyeASkin_tx
v 0.010983584 0.11952051 0.04522271
v 0.014169685 0.11519311 0.04211512
v 0.011653594 0.11493381 0.043037046
v 0.013570634 0.11111025 0.040088706
v 0.0135254 0.119679496 0.04417057
v 0.011043766 0.1246567 0.04619882
v 0.016171684 0.11253117 0.039588537
v 0.016004182 0.10709621 0.034799755
v 0.016561223 0.11713366 0.04219077
v 0.01381996 0.12473638 0.044974037
v 0.01172024 0.12949872 0.046031084
v 0.019358404 0.111546755 0.03712268
v 0.021843145 0.10878412 0.032297865
v 0.014783483 0.12951751 0.044675503
v 0.012820469 0.13382968 0.045191683
v 0.022217108 0.11218596 0.035632964
v 0.025582412 0.111354396 0.030571088
v 0.024687784 0.11382782 0.034657735
v 0.028627448 0.11490694 0.029702974
v 0.026307715 0.11585879 0.034196395
v 0.030949375 0.119759336 0.029548602
v 0.028376145 0.12024233 0.033791568
v 0.032095794 0.12478857 0.029425992
v 0.02071644 0.11599829 0.039313644
v 0.023138551 0.11633707 0.037841786
v 0.0251646 0.117105365 0.036611684
v 0.026471414 0.11789476 0.035657704
v 0.027188357 0.12031947 0.03576186
v 0.02931039 0.12492666 0.033867314
v 0.018188717 0.11641574 0.041069567
v 0.016488347 0.12009028 0.043258347
v 0.018870477 0.12030591 0.042231314
v 0.016647266 0.12465699 0.043997448
v 0.02161143 0.120405816 0.04063598
v 0.029377332 0.1297012 0.03412105
v 0.03222609 0.13009314 0.029423589
v 0.028722748 0.13322791 0.034837466
v 0.031273797 0.13576895 0.029982654
v 0.0280664 0.12943266 0.036084548
v 0.017179146 0.12912133 0.043975495
v 0.019203212 0.12463056 0.04290711
v 0.023874464 0.12042914 0.039025936
v 0.01944678 0.12897752 0.04299782
v 0.022015644 0.12466049 0.0413198
v 0.01761989 0.13149515 0.043658894
v 0.025761265 0.12041998 0.037377574
v 0.015888466 0.13318688 0.043879665
v 0.019432798 0.13264196 0.04264443
v 0.017707048 0.13640662 0.04245901
v 0.014401335 0.13788494 0.04357969
v 0.016828654 0.14262001 0.0405891
v 0.020980429 0.13852286 0.040092926
v 0.02311887 0.1430876 0.036430076
v 0.022062209 0.12897028 0.041517053
v 0.021795657 0.13343538 0.041110743
v 0.024927787 0.13812132 0.037404645
v 0.028168969 0.14190634 0.03155186
v 0.024706135 0.12905996 0.03960443
v 0.024834355 0.13342227 0.03895294
v 0.027346373 0.13593532 0.035734788
v 0.024402741 0.12469588 0.039579537
v 0.026662746 0.12925929 0.037735704
v 0.026850985 0.13247024 0.03727951
v 0.028002981 0.13154767 0.03613074
v 0.026315317 0.12477879 0.037785836
v 0.027882798 0.12488404 0.035946574
v -0.010983584 0.11952051 0.04522271
v -0.011653596 0.11493381 0.043037046
v -0.014169713 0.11519311 0.042115107
v -0.013570638 0.11111025 0.040088706
v -0.013525398 0.119679496 0.04417057
v -0.011043766 0.12465669 0.04619882
v -0.016171638 0.11253129 0.039588414
v -0.016004184 0.10709621 0.03479976
v -0.016561273 0.11713364 0.04219074
v -0.013819959 0.12473638 0.044974037
v -0.01172024 0.12949872 0.046031084
v -0.01935844 0.11154683 0.037122726
v -0.021843143 0.10878412 0.032297865
v -0.014783485 0.12951751 0.044675503
v -0.012820469 0.13382968 0.045191683
v -0.022217114 0.112186074 0.03563307
v -0.025582412 0.111354396 0.030571088
v -0.02468776 0.113827944 0.034657884
v -0.028627448 0.11490694 0.029702974
v -0.026307559 0.115858905 0.034196723
v -0.030949377 0.11975934 0.029548604
v -0.028375976 0.12024236 0.033791855
v -0.032095823 0.12478861 0.029425945
v -0.020716514 0.11599835 0.03931363
v -0.023137676 0.11633785 0.037840698
v -0.025162632 0.117106654 0.036609944
v -0.026470741 0.11789539 0.03565757
v -0.027183313 0.120321035 0.03575829
v -0.029310295 0.12492659 0.033867452
v -0.018188411 0.11641607 0.04106893
v -0.016488364 0.12009026 0.043258335
v -0.01887052 0.12030589 0.042231288
v -0.016647266 0.12465699 0.043997448
v -0.021610908 0.12040607 0.040635005
v -0.02937732 0.1297012 0.034121066
v -0.03222614 0.13009316 0.029423492
v -0.02872244 0.13322785 0.03483723
v -0.031273838 0.13576896 0.029982578
v -0.028066102 0.12943266 0.036084317
v -0.017179146 0.12912133 0.043975495
v -0.019203233 0.124630556 0.042907104
v -0.023873277 0.12042955 0.03902442
v -0.01944678 0.12897752 0.04299782
v -0.022015676 0.12466043 0.04131977
v -0.017619882 0.13149515 0.043658875
v -0.025761157 0.12041995 0.037377123
v -0.015888466 0.13318688 0.043879665
v -0.019432796 0.13264196 0.04264443
v -0.017707048 0.13640662 0.04245901
v -0.014401335 0.13788494 0.04357969
v -0.016828656 0.14262001 0.0405891
v -0.020980429 0.13852286 0.040092926
v -0.02311887 0.1430876 0.036430076
v -0.022062207 0.12897028 0.041517053
v -0.021795657 0.13343538 0.041110743
v -0.02492779 0.13812132 0.037404645
v -0.028168999 0.14190635 0.031551804
v -0.024706136 0.12905996 0.039604425
v -0.024834359 0.13342227 0.03895294
v -0.027346382 0.1359353 0.035734784
v -0.024402723 0.12469579 0.039579537
v -0.026662694 0.12925929 0.03773563
v -0.026851006 0.13247022 0.03727949
v -0.028002998 0.13154764 0.03613072
v -0.026315408 0.12477866 0.037785724
v -0.027882772 0.12488389 0.03594658
vt 0.59752846 -0.15366983
vt 0.64354706 -0.17924762
vt 0.61519384 -0.18108416
vt 0.64928436 -0.20447683
vt 0.6271639 -0.15282059
vt 0.59449196 -0.12441134
vt 0.675823 -0.19547987
vt 0.7034159 -0.23240197
vt 0.666028 -0.16694939
vt 0.62743354 -0.12449718
vt 0.60434914 -0.09739125
vt 0.7189164 -0.2015233
vt 0.7711923 -0.2216841
vt 0.64095354 -0.0982455
vt 0.6224797 -0.07356405
vt 0.75348234 -0.19804978
vt 0.8158288 -0.20787454
vt 0.7812183 -0.1891911
vt 0.8506973 -0.18809342
vt 0.7992897 -0.1780994
vt 0.8758805 -0.16064107
vt 0.8236289 -0.1541977
vt 0.89133024 -0.13257778
vt 0.7194395 -0.17400193
vt 0.74966884 -0.17256773
vt 0.77487826 -0.16885209
vt 0.79213905 -0.16520524
vt 0.79955816 -0.15218806
vt 0.8352678 -0.12886953
vt 0.68677616 -0.171108
vt 0.6604271 -0.15024698
vt 0.68782854 -0.14908516
vt 0.65976214 -0.12509465
vt 0.72154236 -0.1489979
vt 0.83748627 -0.1028862
vt 0.896718 -0.10278153
vt 0.82926035 -0.08297181
vt 0.8883195 -0.07016134
vt 0.81227255 -0.10303044
vt 0.6677427 -0.10093558
vt 0.6892376 -0.12551415
vt 0.75102186 -0.14956093
vt 0.69373226 -0.1022253
vt 0.7236242 -0.12593102
vt 0.67517734 -0.08833063
vt 0.77737045 -0.15055501
vt 0.65828705 -0.07832718
vt 0.69803476 -0.08264911
vt 0.6856499 -0.061264515
vt 0.6498995 -0.051705718
vt 0.69441557 -0.026328206
vt 0.73128414 -0.051140785
vt 0.7775123 -0.027180314
vt 0.7257438 -0.10294843
vt 0.7288387 -0.07904613
vt 0.7829051 -0.05492997
vt 0.8544493 -0.035241008
vt 0.76057196 -0.10333765
vt 0.7690613 -0.08017719
vt 0.8133743 -0.06756294
vt 0.75503635 -0.12653029
vt 0.78939104 -0.10314262
vt 0.7964585 -0.08611596
vt 0.8129988 -0.09162855
vt 0.7828512 -0.12707508
vt 0.80840063 -0.12765598
vt 0.4024905 -0.15375149
vt 0.38497996 -0.18109822
vt 0.356444 -0.17930627
vt 0.3508662 -0.20439267
vt 0.372836 -0.15287912
vt 0.40549612 -0.12444973
vt 0.32414603 -0.19555545
vt 0.29670238 -0.23259556
vt 0.33397198 -0.16694939
vt 0.37257218 -0.12448227
vt 0.3958243 -0.09735227
vt 0.28103518 -0.20151198
vt 0.22885919 -0.22171903
vt 0.35907447 -0.098174095
vt 0.37758017 -0.073518515
vt 0.24640703 -0.19807482
vt 0.18398929 -0.20790172
vt 0.21871781 -0.1892339
vt 0.14937615 -0.18823552
vt 0.20063508 -0.1781969
vt 0.1240139 -0.16089189
vt 0.17637777 -0.15430796
vt 0.10868526 -0.13265908
vt 0.2805605 -0.17400193
vt 0.25033116 -0.17256773
vt 0.22512174 -0.16885209
vt 0.20786095 -0.16520524
vt 0.20044184 -0.15218806
vt 0.16474652 -0.12888026
vt 0.31322372 -0.171108
vt 0.3395729 -0.15024698
vt 0.31217146 -0.14908516
vt 0.34023786 -0.12509465
vt 0.27845764 -0.1489979
vt 0.16251516 -0.10286176
vt 0.10308969 -0.10244656
vt 0.17081761 -0.08294487
vt 0.11168861 -0.07003713
vt 0.18772733 -0.10303044
vt 0.33225727 -0.10093558
vt 0.3107623 -0.12551415
vt 0.24897802 -0.14956093
vt 0.30626774 -0.1022253
vt 0.27637577 -0.12593102
vt 0.32482266 -0.08833063
vt 0.22262955 -0.15055501
vt 0.3417728 -0.078282714
vt 0.30196524 -0.08264911
vt 0.31440878 -0.061237216
vt 0.35014153 -0.051720858
vt 0.30589414 -0.026281357
vt 0.26872945 -0.051155806
vt 0.22271872 -0.027129292
vt 0.27425623 -0.10294843
vt 0.27116132 -0.07904613
vt 0.2172085 -0.054950595
vt 0.14558578 -0.035109878
vt 0.23942804 -0.10333765
vt 0.23093867 -0.08017719
vt 0.18671441 -0.067593455
vt 0.24496377 -0.12653029
vt 0.21060884 -0.10314262
vt 0.20354152 -0.08611596
vt 0.18700123 -0.09162855
vt 0.2171489 -0.12707508
vt 0.19159949 -0.12765598
vn 0.38079503 -0.25665134 0.88832724
vn 0.38713938 -0.37904334 0.84050536
vn 0.3892005 -0.3934945 0.8328776
vn 0.41861048 -0.49810553 0.75937885
vn 0.37875032 -0.25206673 0.89051133
vn 0.3832398 -0.11535198 0.9164176
vn 0.42148462 -0.46699023 0.77734864
vn 0.47527313 -0.55345166 0.6839639
vn 0.39564702 -0.3489893 0.8495116
vn 0.38018492 -0.11338094 0.9179347
vn 0.39066505 0.01596297 0.9203945
vn 0.48146972 -0.5116521 0.71161723
vn 0.56010044 -0.5511922 0.61844546
vn 0.3869622 0.015491344 0.92196536
vn 0.4093163 0.13270469 0.90269023
vn 0.5661212 -0.5069859 0.64997846
vn 0.66090244 -0.49217713 0.5665419
vn 0.66260237 -0.45579085 0.5943171
vn 0.749333 -0.3881928 0.5364759
vn 0.74517655 -0.36701453 0.55678755
vn 0.8080616 -0.25393552 0.5315574
vn 0.7955049 -0.24563617 0.5539267
vn 0.8351379 -0.11311399 0.5382842
vn 0.50209385 -0.40724158 0.7629259
vn 0.58393884 -0.40033224 0.706222
vn 0.67133594 -0.36810172 0.64328
vn 0.7329261 -0.3305787 0.5945898
vn 0.7603044 -0.23305313 0.6063196
vn 0.82015926 -0.11285154 0.560895
vn 0.43569905 -0.38547125 0.8133747
vn 0.3966604 -0.246006 0.8843877
vn 0.45044982 -0.25710696 0.8549801
vn 0.40012428 -0.11311659 0.9094532
vn 0.5254178 -0.2632724 0.80908823
vn 0.8201805 0.013796585 0.57193846
vn 0.83407927 0.023514556 0.55114317
vn 0.7925488 0.12610166 0.59662795
vn 0.8000786 0.1474238 0.58149856
vn 0.7824596 0.0024732943 0.62269646
vn 0.40323937 0.011955903 0.9150164
vn 0.4595864 -0.114591874 0.88070935
vn 0.6085357 -0.25698775 0.7507607
vn 0.46095857 0.020929398 0.88717484
vn 0.5405751 -0.11428053 0.83349776
vn 0.40893978 0.10150549 0.9068985
vn 0.69251686 -0.24346468 0.67907673
vn 0.4042695 0.123854905 0.90621525
vn 0.457206 0.13370998 0.87925214
vn 0.4513611 0.2014621 0.8693021
vn 0.45222768 0.22543296 0.8629427
vn 0.5273992 0.2832832 0.80099976
vn 0.5299746 0.24760294 0.8110609
vn 0.62740654 0.29084188 0.7223379
vn 0.5443176 0.027785517 0.83841896
vn 0.538451 0.15700506 0.82790095
vn 0.6291664 0.2510575 0.7356084
vn 0.72750217 0.24237613 0.6418678
vn 0.6334922 0.025325306 0.77333456
vn 0.632323 0.15471901 0.75909793
vn 0.72546875 0.20705464 0.65637153
vn 0.6263515 -0.11273505 0.771346
vn 0.7175326 0.013055874 0.69640255
vn 0.7189796 0.12648728 0.6834248
vn 0.77404404 0.090856865 0.6265787
vn 0.7102033 -0.11183653 0.69505674
vn 0.77855295 -0.11273697 0.61737
vn -0.38080612 -0.25665116 0.88832253
vn -0.3892181 -0.39348865 0.8328721
vn -0.3871687 -0.37903816 0.8404942
vn -0.418633 -0.49808866 0.75937736
vn -0.37877065 -0.25206995 0.8905018
vn -0.38324404 -0.11535271 0.9164157
vn -0.4215244 -0.4669703 0.777339
vn -0.47530234 -0.5534206 0.68396884
vn -0.39569217 -0.34898844 0.8494909
vn -0.38019383 -0.113385014 0.9179306
vn -0.39066562 0.015962971 0.9203943
vn -0.4815149 -0.5116128 0.7116149
vn -0.56012124 -0.55114734 0.6184665
vn -0.3869647 0.01549015 0.92196447
vn -0.4093164 0.13270459 0.90269023
vn -0.5661598 -0.50691724 0.6499985
vn -0.6608993 -0.49211133 0.56660265
vn -0.66259605 -0.45570314 0.59439135
vn -0.7492925 -0.38814053 0.53657037
vn -0.7451255 -0.3669228 0.55691624
vn -0.8080066 -0.25392026 0.53164816
vn -0.79543644 -0.24562256 0.5540312
vn -0.83509684 -0.11313358 0.53834385
vn -0.5021636 -0.40721613 0.7628937
vn -0.5839875 -0.4002887 0.7062065
vn -0.6713373 -0.3680193 0.6433258
vn -0.73287225 -0.3304905 0.5947053
vn -0.76025116 -0.23304635 0.606389
vn -0.8201114 -0.11288649 0.560958
vn -0.435756 -0.38546225 0.81334835
vn -0.39669746 -0.2460172 0.8843679
vn -0.45050704 -0.25712585 0.8549443
vn -0.40014544 -0.11312961 0.90944237
vn -0.5254849 -0.2633042 0.8090343
vn -0.8201617 0.0137677165 0.5719662
vn -0.8340592 0.023499673 0.5511743
vn -0.7925466 0.126087 0.5966339
vn -0.8000726 0.14741701 0.58150846
vn -0.78245693 0.002419051 0.6227
vn -0.40324694 0.011949775 0.91501313
vn -0.4596226 -0.11462191 0.88068664
vn -0.60859406 -0.25702485 0.7507006
vn -0.46097338 0.020913849 0.8871674
vn -0.54062474 -0.114335686 0.833458
vn -0.40894148 0.101504214 0.9068979
vn -0.69252044 -0.24349286 0.6790631
vn -0.4042695 0.1238548 0.90621537
vn -0.45721012 0.13370582 0.87925065
vn -0.45136136 0.20146137 0.8693021
vn -0.45222753 0.2254326 0.8629429
vn -0.52739936 0.28328136 0.8010003
vn -0.52997625 0.24760069 0.8110605
vn -0.6274079 0.29083684 0.7223387
vn -0.5443411 0.027753495 0.8384048
vn -0.53845745 0.15699647 0.82789844
vn -0.62917054 0.25105155 0.73560697
vn -0.72750366 0.24236867 0.6418691
vn -0.63352257 0.025272168 0.7733114
vn -0.63233715 0.15470265 0.7590895
vn -0.7254746 0.207045 0.65636814
vn -0.62640023 -0.112820216 0.771294
vn -0.7175571 0.012991539 0.6963786
vn -0.71899575 0.12646182 0.68341243
vn -0.7740514 0.090832196 0.62657326
vn -0.71022373 -0.11192794 0.69502115
vn -0.7785251 -0.11280494 0.61739266
g pm0743_00_OffsetEyeASkin_tx_0
f 3/3/3 2/2/2 1/1/1
f 2/2/2 3/3/3 4/4/4
f 2/2/2 5/5/5 1/1/1
f 6/6/6 1/1/1 5/5/5
f 7/7/7 2/2/2 4/4/4
f 7/7/7 4/4/4 8/8/8
f 5/5/5 2/2/2 9/9/9
f 9/9/9 2/2/2 7/7/7
f 10/10/10 6/6/6 5/5/5
f 11/11/11 6/6/6 10/10/10
f 12/12/12 7/7/7 8/8/8
f 8/8/8 13/13/13 12/12/12
f 14/14/14 11/11/11 10/10/10
f 15/15/15 11/11/11 14/14/14
f 13/13/13 16/16/16 12/12/12
f 13/13/13 17/17/17 16/16/16
f 17/17/17 18/18/18 16/16/16
f 17/17/17 19/19/19 18/18/18
f 19/19/19 20/20/20 18/18/18
f 19/19/19 21/21/21 20/20/20
f 21/21/21 22/22/22 20/20/20
f 21/21/21 23/23/23 22/22/22
f 12/12/12 24/24/24 7/7/7
f 12/12/12 16/16/16 25/25/25
f 24/24/24 12/12/12 25/25/25
f 16/16/16 18/18/18 26/26/26
f 25/25/25 16/16/16 26/26/26
f 18/18/18 20/20/20 27/27/27
f 26/26/26 18/18/18 27/27/27
f 28/28/28 27/27/27 20/20/20
f 22/22/22 28/28/28 20/20/20
f 27/27/27 28/28/28 26/26/26
f 23/23/23 29/29/29 22/22/22
f 22/22/22 29/29/29 28/28/28
f 24/24/24 30/30/30 7/7/7
f 30/30/30 9/9/9 7/7/7
f 9/9/9 30/30/30 31/31/31
f 31/31/31 5/5/5 9/9/9
f 30/30/30 24/24/24 32/32/32
f 30/30/30 32/32/32 31/31/31
f 5/5/5 31/31/31 33/33/33
f 31/31/31 32/32/32 33/33/33
f 10/10/10 5/5/5 33/33/33
f 24/24/24 34/34/34 32/32/32
f 24/24/24 25/25/25 34/34/34
f 35/35/35 29/29/29 23/23/23
f 36/36/36 35/35/35 23/23/23
f 37/37/37 35/35/35 36/36/36
f 38/38/38 37/37/37 36/36/36
f 35/35/35 39/39/39 29/29/29
f 35/35/35 37/37/37 39/39/39
f 10/10/10 33/33/33 40/40/40
f 14/14/14 10/10/10 40/40/40
f 32/32/32 41/41/41 33/33/33
f 32/32/32 34/34/34 41/41/41
f 25/25/25 42/42/42 34/34/34
f 25/25/25 26/26/26 42/42/42
f 43/43/43 40/40/40 33/33/33
f 41/41/41 43/43/43 33/33/33
f 34/34/34 44/44/44 41/41/41
f 34/34/34 42/42/42 44/44/44
f 41/41/41 44/44/44 43/43/43
f 14/14/14 40/40/40 45/45/45
f 45/45/45 40/40/40 43/43/43
f 26/26/26 46/46/46 42/42/42
f 28/28/28 46/46/46 26/26/26
f 47/47/47 14/14/14 45/45/45
f 47/47/47 15/15/15 14/14/14
f 48/48/48 45/45/45 43/43/43
f 45/45/45 48/48/48 47/47/47
f 47/47/47 49/49/49 15/15/15
f 48/48/48 49/49/49 47/47/47
f 49/49/49 50/50/50 15/15/15
f 50/50/50 49/49/49 51/51/51
f 49/49/49 52/52/52 51/51/51
f 52/52/52 49/49/49 48/48/48
f 53/53/53 51/51/51 52/52/52
f 48/48/48 43/43/43 54/54/54
f 44/44/44 54/54/54 43/43/43
f 55/55/55 48/48/48 54/54/54
f 55/55/55 52/52/52 48/48/48
f 56/56/56 53/53/53 52/52/52
f 53/53/53 56/56/56 57/57/57
f 54/54/54 44/44/44 58/58/58
f 54/54/54 58/58/58 55/55/55
f 55/55/55 59/59/59 52/52/52
f 59/59/59 56/56/56 52/52/52
f 58/58/58 59/59/59 55/55/55
f 56/56/56 60/60/60 57/57/57
f 60/60/60 56/56/56 59/59/59
f 57/57/57 60/60/60 38/38/38
f 60/60/60 37/37/37 38/38/38
f 44/44/44 61/61/61 58/58/58
f 42/42/42 61/61/61 44/44/44
f 42/42/42 46/46/46 61/61/61
f 58/58/58 62/62/62 59/59/59
f 58/58/58 61/61/61 62/62/62
f 63/63/63 60/60/60 59/59/59
f 37/37/37 60/60/60 63/63/63
f 62/62/62 63/63/63 59/59/59
f 64/64/64 37/37/37 63/63/63
f 64/64/64 63/63/63 62/62/62
f 37/37/37 64/64/64 39/39/39
f 39/39/39 64/64/64 62/62/62
f 61/61/61 65/65/65 62/62/62
f 46/46/46 65/65/65 61/61/61
f 39/39/39 62/62/62 65/65/65
f 66/66/66 65/65/65 46/46/46
f 66/66/66 39/39/39 65/65/65
f 28/28/28 66/66/66 46/46/46
f 39/39/39 66/66/66 29/29/29
f 29/29/29 66/66/66 28/28/28
f 69/69/69 68/68/68 67/67/67
f 68/68/68 69/69/69 70/70/70
f 71/71/71 69/69/69 67/67/67
f 67/67/67 72/72/72 71/71/71
f 69/69/69 73/73/73 70/70/70
f 70/70/70 73/73/73 74/74/74
f 69/69/69 71/71/71 75/75/75
f 69/69/69 75/75/75 73/73/73
f 72/72/72 76/76/76 71/71/71
f 72/72/72 77/77/77 76/76/76
f 73/73/73 78/78/78 74/74/74
f 79/79/79 74/74/74 78/78/78
f 77/77/77 80/80/80 76/76/76
f 77/77/77 81/81/81 80/80/80
f 82/82/82 79/79/79 78/78/78
f 83/83/83 79/79/79 82/82/82
f 84/84/84 83/83/83 82/82/82
f 85/85/85 83/83/83 84/84/84
f 86/86/86 85/85/85 84/84/84
f 87/87/87 85/85/85 86/86/86
f 88/88/88 87/87/87 86/86/86
f 89/89/89 87/87/87 88/88/88
f 90/90/90 78/78/78 73/73/73
f 82/82/82 78/78/78 91/91/91
f 78/78/78 90/90/90 91/91/91
f 84/84/84 82/82/82 92/92/92
f 82/82/82 91/91/91 92/92/92
f 86/86/86 84/84/84 93/93/93
f 84/84/84 92/92/92 93/93/93
f 93/93/93 94/94/94 86/86/86
f 94/94/94 88/88/88 86/86/86
f 94/94/94 93/93/93 92/92/92
f 95/95/95 89/89/89 88/88/88
f 95/95/95 88/88/88 94/94/94
f 96/96/96 90/90/90 73/73/73
f 75/75/75 96/96/96 73/73/73
f 96/96/96 75/75/75 97/97/97
f 71/71/71 97/97/97 75/75/75
f 90/90/90 96/96/96 98/98/98
f 98/98/98 96/96/96 97/97/97
f 97/97/97 71/71/71 99/99/99
f 98/98/98 97/97/97 99/99/99
f 71/71/71 76/76/76 99/99/99
f 100/100/100 90/90/90 98/98/98
f 91/91/91 90/90/90 100/100/100
f 95/95/95 101/101/101 89/89/89
f 101/101/101 102/102/102 89/89/89
f 101/101/101 103/103/103 102/102/102
f 103/103/103 104/104/104 102/102/102
f 105/105/105 101/101/101 95/95/95
f 103/103/103 101/101/101 105/105/105
f 99/99/99 76/76/76 106/106/106
f 76/76/76 80/80/80 106/106/106
f 107/107/107 98/98/98 99/99/99
f 100/100/100 98/98/98 107/107/107
f 108/108/108 91/91/91 100/100/100
f 92/92/92 91/91/91 108/108/108
f 106/106/106 109/109/109 99/99/99
f 109/109/109 107/107/107 99/99/99
f 110/110/110 100/100/100 107/107/107
f 108/108/108 100/100/100 110/110/110
f 110/110/110 107/107/107 109/109/109
f 106/106/106 80/80/80 111/111/111
f 106/106/106 111/111/111 109/109/109
f 112/112/112 92/92/92 108/108/108
f 112/112/112 94/94/94 92/92/92
f 80/80/80 113/113/113 111/111/111
f 81/81/81 113/113/113 80/80/80
f 111/111/111 114/114/114 109/109/109
f 114/114/114 111/111/111 113/113/113
f 115/115/115 113/113/113 81/81/81
f 115/115/115 114/114/114 113/113/113
f 116/116/116 115/115/115 81/81/81
f 115/115/115 116/116/116 117/117/117
f 118/118/118 115/115/115 117/117/117
f 115/115/115 118/118/118 114/114/114
f 117/117/117 119/119/119 118/118/118
f 109/109/109 114/114/114 120/120/120
f 120/120/120 110/110/110 109/109/109
f 114/114/114 121/121/121 120/120/120
f 118/118/118 121/121/121 114/114/114
f 119/119/119 122/122/122 118/118/118
f 122/122/122 119/119/119 123/123/123
f 110/110/110 120/120/120 124/124/124
f 124/124/124 120/120/120 121/121/121
f 125/125/125 121/121/121 118/118/118
f 122/122/122 125/125/125 118/118/118
f 125/125/125 124/124/124 121/121/121
f 126/126/126 122/122/122 123/123/123
f 122/122/122 126/126/126 125/125/125
f 126/126/126 123/123/123 104/104/104
f 103/103/103 126/126/126 104/104/104
f 127/127/127 110/110/110 124/124/124
f 127/127/127 108/108/108 110/110/110
f 112/112/112 108/108/108 127/127/127
f 128/128/128 124/124/124 125/125/125
f 127/127/127 124/124/124 128/128/128
f 126/126/126 129/129/129 125/125/125
f 126/126/126 103/103/103 129/129/129
f 129/129/129 128/128/128 125/125/125
f 103/103/103 130/130/130 129/129/129
f 129/129/129 130/130/130 128/128/128
f 130/130/130 103/103/103 105/105/105
f 130/130/130 105/105/105 128/128/128
f 131/131/131 127/127/127 128/128/128
f 131/131/131 112/112/112 127/127/127
f 128/128/128 105/105/105 131/131/131
f 131/131/131 132/132/132 112/112/112
f 105/105/105 132/132/132 131/131/131
f 132/132/132 94/94/94 112/112/112
f 132/132/132 105/105/105 95/95/95
f 132/132/132 95/95/95 94/94/94
