g pm0747_00_BodyCSkin_tx
v -1.0255193E-31 0.32744953 0
v 0.01552667 0.32744953 -0.026892979
v 5.507673E-19 0.32744953 -0.03105334
v 0.026892979 0.32744953 -0.01552667
v 0.03105334 0.32744953 -8.735665E-25
v 0.026892979 0.32744953 0.01552667
v 0.01552667 0.32744953 0.026892979
v 9.3628565E-18 0.32744953 0.03105334
v -1.0255193E-31 0.32744953 0
v 5.507673E-19 0.32744953 -0.03105334
v -0.01552667 0.32744953 -0.026892979
v -0.026892979 0.32744953 -0.01552667
v -0.03105334 0.32744953 -1.01336554E-25
v -0.026892979 0.32744953 0.01552667
v -0.01552667 0.32744953 0.026892979
v 9.3628565E-18 0.32744953 0.03105334
v 0.01552667 0.32744953 -0.026892979
v 6.14443E-19 0.33048886 -0.03076626
v 5.507673E-19 0.32744953 -0.03105334
v 0.01538313 0.33048886 -0.02664436
v 0.026892979 0.32744953 -0.01552667
v -6.1218144E-18 0.34344825 -0.02688462
v 0.02664436 0.33048886 -0.01538313
v 0.03105334 0.32744953 -8.735665E-25
v 0.01344231 0.34344825 -0.02328277
v 1.1904499E-18 0.35944697 -0.020391459
v 0.03076626 0.33048886 -5.559649E-22
v 0.026892979 0.32744953 0.01552667
v 0.010195729 0.35944697 -0.017659519
v 1.344452E-19 0.3752837 -0.01204973
v 0.02328277 0.34344825 -0.01344231
v 0.02664436 0.33048886 0.01538313
v 0.01552667 0.32744953 0.026892979
v 0.00602486 0.3752837 -0.01043537
v 5.801358E-21 0.38492578 -0.00566344
v 0.017659519 0.35944697 -0.010195729
v 0.02688462 0.34344825 -3.9197212E-19
v 0.01538313 0.33048886 0.02664436
v 9.3628565E-18 0.32744953 0.03105334
v 9.683016E-18 0.33048886 0.03076626
v 0.00283172 0.38492578 -0.00490468
v 2.8847363E-22 0.38824835 -0.00269486
v 0.02328277 0.34344825 0.01344231
v 0.01344231 0.34344825 0.02328277
v 1.1034848E-17 0.34344825 0.02688462
v 0.01043536 0.3752837 -0.00602487
v 0.020391459 0.35944697 -1.9467272E-18
v 0.00134743 0.38824835 -0.00233381
v -1.0255191E-31 0.3894907 0
v 0.010195729 0.35944697 0.017659519
v 4.724918E-18 0.35944697 0.020391459
v 0.017659519 0.35944697 0.010195729
v 0.01204973 0.3752837 -2.0488747E-19
v 0.00490468 0.38492578 -0.00283172
v 0.00602486 0.3752837 0.01043537
v 2.6529094E-19 0.3752837 0.01204973
v 0.01043536 0.3752837 0.00602487
v 0.0023338199 0.38824835 -0.00134743
v 0.00566344 0.38492578 -6.1885417E-21
v 0.00283172 0.38492578 0.00490468
v 7.657822E-21 0.38492578 0.00566344
v 0.00490468 0.38492578 0.00283172
v 0.00269486 0.38824835 -2.6060895E-22
v 0.0023338199 0.38824835 0.00134743
v 0.00134743 0.38824835 0.00233381
v 3.2758006E-22 0.38824835 0.00269486
v -0.01552667 0.32744953 0.026892979
v 9.683016E-18 0.33048886 0.03076626
v 9.3628565E-18 0.32744953 0.03105334
v -0.01538313 0.33048886 0.02664436
v -0.026892979 0.32744953 0.01552667
v 1.1034848E-17 0.34344825 0.02688462
v -0.02664436 0.33048886 0.01538313
v -0.03105334 0.32744953 -1.01336554E-25
v -0.01344231 0.34344825 0.02328277
v 4.724918E-18 0.35944697 0.020391459
v -0.03076626 0.33048886 -5.689133E-23
v -0.026892979 0.32744953 -0.01552667
v -0.010195729 0.35944697 0.017659519
v 2.6529094E-19 0.3752837 0.01204973
v -0.02328277 0.34344825 0.01344231
v -0.02664436 0.33048886 -0.01538313
v -0.01552667 0.32744953 -0.026892979
v -0.00602487 0.3752837 0.01043537
v 7.657822E-21 0.38492578 0.00566344
v -0.017659519 0.35944697 0.010195729
v -0.02688462 0.34344825 -5.326691E-20
v -0.01538313 0.33048886 -0.02664436
v 5.507673E-19 0.32744953 -0.03105334
v 6.14443E-19 0.33048886 -0.03076626
v -0.00283172 0.38492578 0.00490468
v 3.2758006E-22 0.38824835 0.00269486
v -0.02328277 0.34344825 -0.01344231
v -0.01344231 0.34344825 -0.02328277
v -6.1218144E-18 0.34344825 -0.02688462
v -0.01043537 0.3752837 0.00602487
v -0.020391459 0.35944697 -6.220313E-19
v -0.00134743 0.38824835 0.00233381
v -1.0255191E-31 0.3894907 0
v -0.010195729 0.35944697 -0.017659519
v 1.1904499E-18 0.35944697 -0.020391459
v -0.017659519 0.35944697 -0.010195729
v -0.01204973 0.3752837 -8.4880434E-20
v -0.00490468 0.38492578 0.00283172
v -0.00602487 0.3752837 -0.01043537
v 1.344452E-19 0.3752837 -0.01204973
v -0.01043537 0.3752837 -0.00602487
v -0.0023338199 0.38824835 0.00134743
v -0.00566344 0.38492578 -4.1449087E-21
v -0.00283172 0.38492578 -0.00490468
v 5.801358E-21 0.38492578 -0.00566344
v -0.00490468 0.38492578 -0.00283172
v -0.00269486 0.38824835 -2.1613433E-22
v -0.0023338199 0.38824835 -0.00134743
v -0.00134743 0.38824835 -0.00233381
v 2.8847363E-22 0.38824835 -0.00269486
vt 0.49862242 0.60546875
vt 0.4771245 0.568233
vt 0.49862242 0.5624727
vt 0.4613868 0.5839708
vt 0.45562655 0.60546875
vt 0.4613868 0.6269667
vt 0.4771245 0.6427045
vt 0.49862242 0.6484648
vt 0.49862242 0.60546875
vt 0.49862242 0.5624727
vt 0.4771245 0.568233
vt 0.4613868 0.5839708
vt 0.45562655 0.60546875
vt 0.4613868 0.6269667
vt 0.4771245 0.6427045
vt 0.49862242 0.6484648
vt 0.39141977 0.74576926
vt 0.3930723 0.7734375
vt 0.38888115 0.7734375
vt 0.3962152 0.74621964
vt 0.3994971 0.7169192
vt 0.41402787 0.7734375
vt 0.40379846 0.7191025
vt 0.4171192 0.6926192
vt 0.41601282 0.7506035
vt 0.43917462 0.7734375
vt 0.42050457 0.69604874
vt 0.4414151 0.67506003
vt 0.44023022 0.75741774
vt 0.46432135 0.7734375
vt 0.42286164 0.7293934
vt 0.44354215 0.6794038
vt 0.47015533 0.66707194
vt 0.46529725 0.7645278
vt 0.479239 0.776847
vt 0.4454932 0.7426386
vt 0.43590075 0.7114592
vt 0.47062346 0.67181975
vt 0.49785027 0.6644684
vt 0.49785027 0.6686595
vt 0.47970295 0.77182996
vt 0.4853621 0.78052676
vt 0.4538804 0.6984054
vt 0.4751601 0.6914956
vt 0.49785027 0.68961513
vt 0.46872523 0.75648206
vt 0.45462623 0.7302418
vt 0.4865746 0.7750879
vt 0.49756613 0.7809668
vt 0.4818028 0.7158118
vt 0.49785027 0.71476185
vt 0.46702084 0.7210765
vt 0.47400066 0.7496633
vt 0.48323056 0.7652235
vt 0.48882982 0.7409252
vt 0.49785027 0.7399086
vt 0.48078397 0.74438155
vt 0.48882258 0.77178144
vt 0.48618457 0.7617427
vt 0.49381176 0.7572522
vt 0.49785027 0.75667316
vt 0.48967776 0.75883913
vt 0.49071774 0.76946217
vt 0.49310583 0.7676225
vt 0.49557364 0.7665043
vt 0.49868873 0.76435876
vt 0.47015533 0.66707194
vt 0.49785027 0.6686595
vt 0.49785027 0.6644684
vt 0.47062343 0.67181975
vt 0.4414151 0.67506003
vt 0.49785027 0.68961513
vt 0.44354215 0.6794038
vt 0.41711923 0.6926192
vt 0.4751601 0.6914956
vt 0.49785027 0.71476185
vt 0.42050454 0.69604874
vt 0.39949712 0.7169192
vt 0.48180273 0.7158118
vt 0.49785027 0.7399086
vt 0.4538804 0.6984054
vt 0.4037984 0.7191025
vt 0.3914198 0.74576926
vt 0.48882973 0.7409252
vt 0.49785027 0.75667316
vt 0.4670208 0.7210765
vt 0.43590075 0.7114592
vt 0.3962152 0.74621964
vt 0.38888118 0.7734375
vt 0.39307234 0.7734375
vt 0.49381167 0.7572522
vt 0.49868873 0.76435876
vt 0.42286158 0.7293934
vt 0.41601285 0.7506035
vt 0.4140279 0.7734375
vt 0.48078388 0.74438155
vt 0.4546262 0.7302418
vt 0.4955736 0.7665043
vt 0.49756613 0.7809668
vt 0.44023022 0.75741774
vt 0.43917462 0.7734375
vt 0.44549313 0.7426386
vt 0.47400054 0.7496633
vt 0.48967776 0.75883913
vt 0.46529722 0.7645278
vt 0.46432135 0.7734375
vt 0.4687252 0.75648206
vt 0.49310577 0.7676225
vt 0.48618454 0.7617427
vt 0.47970286 0.77182996
vt 0.47923896 0.776847
vt 0.48323053 0.7652235
vt 0.4907177 0.76946217
vt 0.48882246 0.77178144
vt 0.48657447 0.7750879
vt 0.48536208 0.78052676
vn 2.453324E-07 -1 -1.226662E-07
vn 0.36131376 -0.691238 -0.6258133
vn 4.036263E-07 -0.6912379 -0.7226272
vn 0.62581354 -0.691238 -0.3613134
vn 0.722627 -0.69123816 4.0362653E-07
vn 0.6258131 -0.691238 0.36131397
vn 0.36131316 -0.691238 0.62581366
vn -1.0090658E-07 -0.69123787 0.7226273
vn 2.453324E-07 -1 -1.226662E-07
vn 4.036263E-07 -0.6912379 -0.7226272
vn -0.36131305 -0.69123805 -0.6258137
vn -0.62581307 -0.69123816 -0.361314
vn -0.722627 -0.6912383 -1.0090663E-07
vn -0.62581336 -0.69123816 0.36131346
vn -0.36131346 -0.69123816 0.6258134
vn -1.0090658E-07 -0.69123787 0.7226273
vn 0.36131376 -0.691238 -0.6258133
vn 3.4522E-07 -0.07638139 -0.9970788
vn 4.036263E-07 -0.6912379 -0.7226272
vn 0.49853942 -0.076381385 -0.86349535
vn 0.62581354 -0.691238 -0.3613134
vn -0 0.30911395 -0.95102495
vn 0.8634955 -0.0763814 -0.49853915
vn 0.722627 -0.69123816 4.0362653E-07
vn 0.47551265 0.30911398 -0.82361174
vn -0 0.4770267 -0.8788887
vn 0.9970788 -0.07638141 3.4522006E-07
vn 0.6258131 -0.691238 0.36131397
vn 0.43944463 0.47702667 -0.76113987
vn -0 0.5946247 -0.8040034
vn 0.823612 0.30911404 -0.47551236
vn 0.8634952 -0.07638131 0.49853978
vn 0.36131316 -0.691238 0.62581366
vn 0.40200225 0.5946246 -0.6962871
vn -0 0.7364219 -0.6765226
vn 0.7611403 0.47702667 -0.43944404
vn 0.95102507 0.30911398 2.9387215E-07
vn 0.49853897 -0.07638129 0.86349565
vn -1.0090658E-07 -0.69123787 0.7226273
vn -0 -0.07638139 0.9970788
vn 0.33826154 0.73642147 -0.585886
vn -0 0.9050877 -0.4252249
vn 0.82361174 0.3091141 0.47551253
vn 0.47551242 0.30911395 0.82361186
vn -0 0.309114 0.95102495
vn 0.69628793 0.5946242 -0.40200147
vn 0.8788887 0.4770267 2.756982E-07
vn 0.21261266 0.9050877 -0.36825565
vn -0 1 1.5372197E-07
vn 0.43944448 0.4770266 0.76114005
vn 1.3784911E-07 0.4770267 0.8788887
vn 0.7611401 0.47702655 0.43944445
vn 0.80400383 0.5946241 4.068124E-07
vn 0.58588636 0.7364214 -0.33826125
vn 0.4020022 0.59462446 0.6962872
vn 2.7120834E-07 0.59462464 0.8040035
vn 0.69628763 0.5946243 0.4020018
vn 0.36825567 0.9050877 -0.21261258
vn 0.6765231 0.7364214 1.3656565E-07
vn 0.33826193 0.7364214 0.5858859
vn 2.731314E-07 0.73642164 0.6765228
vn 0.58588636 0.73642135 0.33826134
vn 0.42522508 0.9050877 0
vn 0.36825567 0.9050877 0.21261236
vn 0.21261278 0.90508777 0.36825535
vn 2.8648188E-07 0.9050877 0.42522508
vn -0.36131346 -0.69123816 0.6258134
vn -0 -0.07638139 0.9970788
vn -1.0090658E-07 -0.69123787 0.7226273
vn -0.49853942 -0.07638139 0.86349535
vn -0.62581336 -0.69123816 0.36131346
vn -0 0.309114 0.95102495
vn -0.86349547 -0.0763814 0.49853933
vn -0.722627 -0.6912383 -1.0090663E-07
vn -0.47551253 0.30911398 0.8236118
vn 1.3784911E-07 0.4770267 0.8788887
vn -0.9970788 -0.07638142 -2.589151E-07
vn -0.62581307 -0.69123816 -0.361314
vn -0.43944448 0.47702646 0.7611401
vn 2.7120834E-07 0.59462464 0.8040035
vn -0.8236118 0.30911398 0.47551247
vn -0.8634952 -0.07638131 -0.4985399
vn -0.36131305 -0.69123805 -0.6258137
vn -0.40200186 0.5946244 0.6962875
vn 2.731314E-07 0.73642164 0.6765228
vn -0.7611403 0.47702637 0.43944436
vn -0.95102507 0.30911386 -2.2040413E-07
vn -0.49853894 -0.07638131 -0.8634957
vn 4.036263E-07 -0.6912379 -0.7226272
vn 3.4522E-07 -0.07638139 -0.9970788
vn -0.3382613 0.7364214 0.5858863
vn 2.8648188E-07 0.9050877 0.42522508
vn -0.82361174 0.30911398 -0.47551265
vn -0.47551242 0.30911398 -0.82361186
vn -0 0.30911395 -0.95102495
vn -0.6962875 0.5946243 0.40200195
vn -0.8788889 0.4770265 0
vn -0.21261238 0.9050877 0.3682558
vn -0 1 1.5372197E-07
vn -0.4394445 0.47702664 -0.76114
vn -0 0.4770267 -0.8788887
vn -0.76114017 0.47702664 -0.43944433
vn -0.8040037 0.5946243 1.3560417E-07
vn -0.585886 0.73642147 0.33826166
vn -0.40200204 0.59462476 -0.69628716
vn -0 0.5946247 -0.8040034
vn -0.69628775 0.5946244 -0.4020015
vn -0.36825538 0.9050877 0.21261293
vn -0.6765229 0.7364216 4.0969707E-07
vn -0.33826172 0.7364218 -0.5858856
vn -0 0.7364219 -0.6765226
vn -0.58588624 0.73642176 -0.33826083
vn -0.42522484 0.90508777 4.2972277E-07
vn -0.36825556 0.90508777 -0.21261199
vn -0.2126127 0.90508777 -0.36825514
vn -0 0.9050877 -0.4252249
g pm0747_00_BodyCSkin_tx_0
f 3/3/3 2/2/2 1/1/1
f 2/2/2 4/4/4 1/1/1
f 4/4/4 5/5/5 1/1/1
f 5/5/5 6/6/6 1/1/1
f 6/6/6 7/7/7 1/1/1
f 7/7/7 8/8/8 1/1/1
f 11/11/11 10/10/10 9/9/9
f 12/12/12 11/11/11 9/9/9
f 13/13/13 12/12/12 9/9/9
f 14/14/14 13/13/13 9/9/9
f 15/15/15 14/14/14 9/9/9
f 16/16/16 15/15/15 9/9/9
f 19/19/19 18/18/18 17/17/17
f 18/18/18 20/20/20 17/17/17
f 17/17/17 20/20/20 21/21/21
f 18/18/18 22/22/22 20/20/20
f 20/20/20 23/23/23 21/21/21
f 21/21/21 23/23/23 24/24/24
f 22/22/22 25/25/25 20/20/20
f 20/20/20 25/25/25 23/23/23
f 22/22/22 26/26/26 25/25/25
f 23/23/23 27/27/27 24/24/24
f 24/24/24 27/27/27 28/28/28
f 26/26/26 29/29/29 25/25/25
f 26/26/26 30/30/30 29/29/29
f 25/25/25 31/31/31 23/23/23
f 23/23/23 31/31/31 27/27/27
f 25/25/25 29/29/29 31/31/31
f 27/27/27 32/32/32 28/28/28
f 28/28/28 32/32/32 33/33/33
f 30/30/30 34/34/34 29/29/29
f 30/30/30 35/35/35 34/34/34
f 29/29/29 36/36/36 31/31/31
f 29/29/29 34/34/34 36/36/36
f 31/31/31 37/37/37 27/27/27
f 27/27/27 37/37/37 32/32/32
f 31/31/31 36/36/36 37/37/37
f 32/32/32 38/38/38 33/33/33
f 33/33/33 38/38/38 39/39/39
f 38/38/38 40/40/40 39/39/39
f 35/35/35 41/41/41 34/34/34
f 35/35/35 42/42/42 41/41/41
f 37/37/37 43/43/43 32/32/32
f 32/32/32 43/43/43 38/38/38
f 38/38/38 44/44/44 40/40/40
f 43/43/43 44/44/44 38/38/38
f 44/44/44 45/45/45 40/40/40
f 34/34/34 46/46/46 36/36/36
f 34/34/34 41/41/41 46/46/46
f 36/36/36 47/47/47 37/37/37
f 37/37/37 47/47/47 43/43/43
f 36/36/36 46/46/46 47/47/47
f 42/42/42 48/48/48 41/41/41
f 42/42/42 49/49/49 48/48/48
f 44/44/44 50/50/50 45/45/45
f 50/50/50 51/51/51 45/45/45
f 43/43/43 52/52/52 44/44/44
f 47/47/47 52/52/52 43/43/43
f 52/52/52 50/50/50 44/44/44
f 46/46/46 53/53/53 47/47/47
f 47/47/47 53/53/53 52/52/52
f 41/41/41 54/54/54 46/46/46
f 41/41/41 48/48/48 54/54/54
f 46/46/46 54/54/54 53/53/53
f 50/50/50 55/55/55 51/51/51
f 55/55/55 56/56/56 51/51/51
f 52/52/52 57/57/57 50/50/50
f 53/53/53 57/57/57 52/52/52
f 57/57/57 55/55/55 50/50/50
f 48/48/48 58/58/58 54/54/54
f 48/48/48 49/49/49 58/58/58
f 54/54/54 59/59/59 53/53/53
f 53/53/53 59/59/59 57/57/57
f 54/54/54 58/58/58 59/59/59
f 55/55/55 60/60/60 56/56/56
f 60/60/60 61/61/61 56/56/56
f 57/57/57 62/62/62 55/55/55
f 59/59/59 62/62/62 57/57/57
f 62/62/62 60/60/60 55/55/55
f 58/58/58 63/63/63 59/59/59
f 59/59/59 63/63/63 62/62/62
f 58/58/58 49/49/49 63/63/63
f 63/63/63 64/64/64 62/62/62
f 62/62/62 64/64/64 60/60/60
f 63/63/63 49/49/49 64/64/64
f 60/60/60 65/65/65 61/61/61
f 64/64/64 65/65/65 60/60/60
f 64/64/64 49/49/49 65/65/65
f 65/65/65 66/66/66 61/61/61
f 65/65/65 49/49/49 66/66/66
f 69/69/69 68/68/68 67/67/67
f 68/68/68 70/70/70 67/67/67
f 67/67/67 70/70/70 71/71/71
f 68/68/68 72/72/72 70/70/70
f 70/70/70 73/73/73 71/71/71
f 71/71/71 73/73/73 74/74/74
f 72/72/72 75/75/75 70/70/70
f 70/70/70 75/75/75 73/73/73
f 72/72/72 76/76/76 75/75/75
f 73/73/73 77/77/77 74/74/74
f 74/74/74 77/77/77 78/78/78
f 76/76/76 79/79/79 75/75/75
f 76/76/76 80/80/80 79/79/79
f 75/75/75 81/81/81 73/73/73
f 73/73/73 81/81/81 77/77/77
f 75/75/75 79/79/79 81/81/81
f 77/77/77 82/82/82 78/78/78
f 78/78/78 82/82/82 83/83/83
f 80/80/80 84/84/84 79/79/79
f 80/80/80 85/85/85 84/84/84
f 79/79/79 86/86/86 81/81/81
f 79/79/79 84/84/84 86/86/86
f 81/81/81 87/87/87 77/77/77
f 77/77/77 87/87/87 82/82/82
f 81/81/81 86/86/86 87/87/87
f 82/82/82 88/88/88 83/83/83
f 83/83/83 88/88/88 89/89/89
f 88/88/88 90/90/90 89/89/89
f 85/85/85 91/91/91 84/84/84
f 85/85/85 92/92/92 91/91/91
f 87/87/87 93/93/93 82/82/82
f 82/82/82 93/93/93 88/88/88
f 88/88/88 94/94/94 90/90/90
f 93/93/93 94/94/94 88/88/88
f 94/94/94 95/95/95 90/90/90
f 84/84/84 96/96/96 86/86/86
f 84/84/84 91/91/91 96/96/96
f 86/86/86 97/97/97 87/87/87
f 87/87/87 97/97/97 93/93/93
f 86/86/86 96/96/96 97/97/97
f 92/92/92 98/98/98 91/91/91
f 92/92/92 99/99/99 98/98/98
f 94/94/94 100/100/100 95/95/95
f 100/100/100 101/101/101 95/95/95
f 93/93/93 102/102/102 94/94/94
f 97/97/97 102/102/102 93/93/93
f 102/102/102 100/100/100 94/94/94
f 96/96/96 103/103/103 97/97/97
f 97/97/97 103/103/103 102/102/102
f 91/91/91 104/104/104 96/96/96
f 91/91/91 98/98/98 104/104/104
f 96/96/96 104/104/104 103/103/103
f 100/100/100 105/105/105 101/101/101
f 105/105/105 106/106/106 101/101/101
f 102/102/102 107/107/107 100/100/100
f 103/103/103 107/107/107 102/102/102
f 107/107/107 105/105/105 100/100/100
f 98/98/98 108/108/108 104/104/104
f 98/98/98 99/99/99 108/108/108
f 104/104/104 109/109/109 103/103/103
f 103/103/103 109/109/109 107/107/107
f 104/104/104 108/108/108 109/109/109
f 105/105/105 110/110/110 106/106/106
f 110/110/110 111/111/111 106/106/106
f 107/107/107 112/112/112 105/105/105
f 109/109/109 112/112/112 107/107/107
f 112/112/112 110/110/110 105/105/105
f 108/108/108 113/113/113 109/109/109
f 109/109/109 113/113/113 112/112/112
f 108/108/108 99/99/99 113/113/113
f 113/113/113 114/114/114 112/112/112
f 112/112/112 114/114/114 110/110/110
f 113/113/113 99/99/99 114/114/114
f 110/110/110 115/115/115 111/111/111
f 114/114/114 115/115/115 110/110/110
f 114/114/114 99/99/99 115/115/115
f 115/115/115 116/116/116 111/111/111
f 115/115/115 99/99/99 116/116/116
