g pm0730_00_EyelashFSkin
v 0.08407529 1.7174971 0.038661122
v 0.08187137 1.7129205 0.041367546
v 0.08628189 1.7096304 0.034084167
v 0.07773242 1.7162282 0.049793534
v 0.083171606 1.7201501 0.04025946
v 0.07237468 1.7191211 0.05874688
v 0.07906325 1.72752 0.04735
v 0.09255209 1.7273251 0.029146561
v 0.07504759 1.7310535 0.0554828
v 0.07646826 1.7373958 0.05374792
v 0.08717957 1.7421708 0.03661287
v 0.07073002 1.7345834 0.06330613
v 0.06776725 1.7203468 0.06729594
v 0.062961765 1.7188725 0.07647683
v 0.061400216 1.734251 0.08159064
v 0.072897635 1.7474471 0.063651815
v 0.056132257 1.7271278 0.08995815
v 0.057975873 1.7153865 0.08464591
v 0.053700943 1.7108455 0.09251214
v 0.051841848 1.7202652 0.09745298
v 0.047709644 1.7132195 0.10500517
v 0.050145883 1.7054048 0.0999014
v 0.04356925 1.7032225 0.112077035
v 0.045425043 1.6981733 0.10831388
v 0.043396592 1.6918238 0.11417972
v 0.042046204 1.6932642 0.11660641
v 0.041941497 1.6896168 0.1173637
v 0.042418435 1.6890627 0.116347425
v 0.042082008 1.688632 0.11707858
v 0.061400216 1.734251 0.08159064
v 0.072897635 1.7474471 0.063651815
v 0.07431743 1.7445477 0.066379175
v 0.06447322 1.732585 0.08210738
v 0.07206368 1.7313789 0.06651199
v 0.056132257 1.7271278 0.08995815
v 0.07073002 1.7345834 0.06330613
v 0.072897635 1.7474471 0.063651815
v 0.05942062 1.7257037 0.09044685
v 0.06509513 1.7206668 0.0780851
v 0.054849777 1.719059 0.098083936
v 0.051841848 1.7202652 0.09745298
v 0.05997015 1.7171229 0.086501665
v 0.050567 1.7119511 0.10552175
v 0.047709644 1.7132195 0.10500517
v 0.046359796 1.702353 0.11253258
v 0.04356925 1.7032225 0.112077035
v 0.052044563 1.7068553 0.102174774
v 0.05569319 1.7124343 0.09456359
v 0.044127773 1.692737 0.117072545
v 0.042046204 1.6932642 0.11660641
v 0.057975873 1.7153865 0.08464591
v 0.053700943 1.7108455 0.09251214
v 0.050145883 1.7054048 0.0999014
v 0.062961765 1.7188725 0.07647683
v 0.045425043 1.6981733 0.10831388
v 0.047256436 1.6995292 0.11075031
v 0.043396592 1.6918238 0.11417972
v 0.043506913 1.6895016 0.11786478
v 0.041941497 1.6896168 0.1173637
v 0.042082008 1.688632 0.11707858
v 0.042418435 1.6890627 0.116347425
v 0.042082008 1.688632 0.11707858
v 0.070203036 1.7221535 0.068469666
v 0.06776725 1.7203468 0.06729594
v 0.07501281 1.7215356 0.059624813
v 0.07237468 1.7191211 0.05874688
v 0.08054038 1.7187945 0.050461095
v 0.07773242 1.7162282 0.049793534
v 0.07919656 1.7257777 0.051662635
v 0.07598702 1.7278963 0.05761464
v 0.08187137 1.7129205 0.041367546
v 0.07917526 1.7356696 0.05491126
v 0.07646826 1.7373958 0.05374792
v 0.07073002 1.7345834 0.06330613
v 0.08717957 1.7421708 0.03661287
v 0.08737877 1.7398006 0.04080399
v 0.07906325 1.72752 0.04735
v 0.08717957 1.7421708 0.03661287
v 0.08483976 1.7145888 0.04194869
v 0.08628189 1.7096304 0.034084167
v 0.08823126 1.7107902 0.036650945
v 0.08593108 1.716704 0.040674657
v 0.08407529 1.7174971 0.038661122
v 0.08628189 1.7096304 0.034084167
v 0.083171606 1.7201501 0.04025946
v 0.0841086 1.7204025 0.043638606
v 0.091965 1.7262237 0.034621406
v 0.09255209 1.7273251 0.029146561
v 0.07906325 1.72752 0.04735
v 0.09255209 1.7273251 0.029146561
v 0.083171606 1.7201501 0.04025946
v -0.08407529 1.7174971 0.038661122
v -0.08628189 1.7096304 0.034084167
v -0.08187137 1.7129205 0.041367546
v -0.07773242 1.7162282 0.049793534
v -0.083171606 1.7201501 0.04025946
v -0.07237468 1.7191211 0.05874688
v -0.07906325 1.72752 0.04735
v -0.09255209 1.7273251 0.029146561
v -0.07504759 1.7310535 0.0554828
v -0.07646826 1.7373958 0.05374792
v -0.08717957 1.7421708 0.03661287
v -0.07073002 1.7345834 0.06330613
v -0.06776725 1.7203468 0.06729594
v -0.062961765 1.7188725 0.07647683
v -0.061400216 1.734251 0.08159064
v -0.072897635 1.7474471 0.063651815
v -0.056132257 1.7271278 0.08995815
v -0.057975873 1.7153865 0.08464591
v -0.053700943 1.7108455 0.09251214
v -0.051841848 1.7202652 0.09745298
v -0.047709644 1.7132195 0.10500517
v -0.050145883 1.7054048 0.0999014
v -0.04356925 1.7032225 0.112077035
v -0.045425043 1.6981733 0.10831388
v -0.043396592 1.6918238 0.11417972
v -0.042046204 1.6932642 0.11660641
v -0.041941497 1.6896168 0.1173637
v -0.042418435 1.6890627 0.116347425
v -0.042082008 1.688632 0.11707858
v -0.061400216 1.734251 0.08159064
v -0.07431743 1.7445477 0.066379175
v -0.072897635 1.7474471 0.063651815
v -0.06447322 1.732585 0.08210738
v -0.07206368 1.7313789 0.06651199
v -0.056132257 1.7271278 0.08995815
v -0.07073002 1.7345834 0.06330613
v -0.072897635 1.7474471 0.063651815
v -0.05942062 1.7257037 0.09044685
v -0.06509513 1.7206668 0.0780851
v -0.054849777 1.719059 0.098083936
v -0.051841848 1.7202652 0.09745298
v -0.05997015 1.7171229 0.086501665
v -0.050567 1.7119511 0.10552175
v -0.047709644 1.7132195 0.10500517
v -0.046359796 1.702353 0.11253258
v -0.04356925 1.7032225 0.112077035
v -0.052044563 1.7068553 0.102174774
v -0.05569319 1.7124343 0.09456359
v -0.044127773 1.692737 0.117072545
v -0.042046204 1.6932642 0.11660641
v -0.057975873 1.7153865 0.08464591
v -0.053700943 1.7108455 0.09251214
v -0.050145883 1.7054048 0.0999014
v -0.062961765 1.7188725 0.07647683
v -0.045425043 1.6981733 0.10831388
v -0.047256436 1.6995292 0.11075031
v -0.043396592 1.6918238 0.11417972
v -0.043506913 1.6895016 0.11786478
v -0.041941497 1.6896168 0.1173637
v -0.042082008 1.688632 0.11707858
v -0.042418435 1.6890627 0.116347425
v -0.042082008 1.688632 0.11707858
v -0.070203036 1.7221535 0.068469666
v -0.06776725 1.7203468 0.06729594
v -0.07501281 1.7215356 0.059624813
v -0.07237468 1.7191211 0.05874688
v -0.08054038 1.7187945 0.050461095
v -0.07773242 1.7162282 0.049793534
v -0.07919656 1.7257777 0.051662635
v -0.07598702 1.7278963 0.05761464
v -0.08187137 1.7129205 0.041367546
v -0.07917526 1.7356696 0.05491126
v -0.07646826 1.7373958 0.05374792
v -0.07073002 1.7345834 0.06330613
v -0.08717957 1.7421708 0.03661287
v -0.08737877 1.7398006 0.04080399
v -0.07906325 1.72752 0.04735
v -0.08717957 1.7421708 0.03661287
v -0.08483976 1.7145888 0.04194869
v -0.08628189 1.7096304 0.034084167
v -0.08823126 1.7107902 0.036650945
v -0.08593108 1.716704 0.040674657
v -0.08407529 1.7174971 0.038661122
v -0.08628189 1.7096304 0.034084167
v -0.083171606 1.7201501 0.04025946
v -0.0841086 1.7204025 0.043638606
v -0.091965 1.7262237 0.034621406
v -0.09255209 1.7273251 0.029146561
v -0.07906325 1.72752 0.04735
v -0.09255209 1.7273251 0.029146561
v -0.083171606 1.7201501 0.04025946
vt 0.24386859 0.6391436
vt 0.24058378 0.6369051
vt 0.24885225 0.63537824
vt 0.23150039 0.6384747
vt 0.24206376 0.6404113
vt 0.22139621 0.63983303
vt 0.2341013 0.6439297
vt 0.25595856 0.644014
vt 0.2253406 0.6456137
vt 0.22742999 0.64868796
vt 0.24688232 0.65109336
vt 0.21670437 0.6472868
vt 0.21199977 0.6404027
vt 0.20197868 0.6396922
vt 0.19692099 0.6471313
vt 0.21738148 0.65357363
vt 0.18740582 0.6436883
vt 0.19272792 0.6379998
vt 0.18404329 0.63582814
vt 0.17905533 0.64039993
vt 0.17069411 0.63704693
vt 0.17605138 0.63324285
vt 0.16266024 0.63228965
vt 0.16661227 0.62981737
vt 0.1615457 0.6265168
vt 0.15682036 0.6278279
vt 0.15413743 0.6223522
vt 0.15799767 0.6213378
vt 0.1541 0.61698097
vt 0.07924318 0.66014165
vt 0.05883181 0.6667678
vt 0.059471846 0.6647382
vt 0.07725322 0.658741
vt 0.06041503 0.65825576
vt 0.0888567 0.65670973
vt 0.056844354 0.6609196
vt 0.056090593 0.665904
vt 0.08664 0.6553435
vt 0.07341802 0.65292627
vt 0.09532547 0.65215427
vt 0.097289324 0.65342385
vt 0.083043694 0.65111977
vt 0.10383129 0.64885545
vt 0.10576665 0.6500556
vt 0.11219013 0.64444107
vt 0.11549705 0.6483855
vt 0.10050535 0.64630675
vt 0.09206021 0.6488727
vt 0.11808038 0.64012456
vt 0.12462324 0.64379334
vt 0.08190954 0.64965576
vt 0.0905422 0.6474715
vt 0.09870958 0.64498514
vt 0.07273257 0.65140086
vt 0.10582429 0.63954055
vt 0.10849816 0.6420091
vt 0.11275232 0.6360818
vt 0.12340015 0.6358121
vt 0.12693775 0.6367778
vt 0.13139462 0.6283824
vt 0.1197843 0.6343183
vt 0.12770092 0.6272655
vt 0.0627476 0.65375036
vt 0.062779665 0.65216666
vt 0.052835464 0.6535767
vt 0.053407073 0.6518095
vt 0.04225278 0.65247077
vt 0.04448062 0.64832175
vt 0.044213176 0.65583134
vt 0.05088103 0.6567015
vt 0.037099898 0.6453398
vt 0.047427177 0.6606269
vt 0.048386216 0.6622153
vt 0.056844354 0.6609196
vt 0.028874278 0.66486007
vt 0.031817794 0.6630378
vt 0.037402987 0.6574449
vt 0.027282 0.66362196
vt 0.033773005 0.64915204
vt 0.028808594 0.641967
vt 0.024173617 0.64597195
vt 0.03129816 0.65169066
vt 0.024040222 0.65252876
vt 0.019193888 0.64937496
vt 0.023305595 0.654678
vt 0.034859657 0.6533862
vt 0.023526788 0.65648776
vt 0.019087434 0.6580749
vt 0.037402987 0.6574449
vt 0.018111944 0.6561387
vt 0.023305595 0.654678
vt 0.24386851 0.6391436
vt 0.2488522 0.63537824
vt 0.24058378 0.6369051
vt 0.23150039 0.6384747
vt 0.24206363 0.6404113
vt 0.22139627 0.63983303
vt 0.23410128 0.6439297
vt 0.25595856 0.644014
vt 0.22534055 0.6456137
vt 0.22742999 0.64868796
vt 0.24688232 0.65109336
vt 0.2167043 0.6472868
vt 0.21199977 0.6404027
vt 0.20197868 0.6396922
vt 0.19692092 0.6471313
vt 0.21738142 0.65357363
vt 0.18740588 0.6436883
vt 0.19272792 0.6379998
vt 0.18404329 0.63582814
vt 0.17905533 0.64039993
vt 0.17069417 0.63704693
vt 0.17605138 0.63324285
vt 0.16266021 0.63228965
vt 0.16661224 0.62981737
vt 0.16154562 0.6265168
vt 0.15682043 0.6278279
vt 0.15413754 0.6223522
vt 0.15799756 0.6213378
vt 0.15410005 0.61698097
vt 0.079243064 0.66014165
vt 0.059471875 0.6647382
vt 0.05883184 0.6667678
vt 0.077253155 0.658741
vt 0.060414884 0.65825576
vt 0.08885682 0.65670973
vt 0.056844383 0.6609196
vt 0.056090653 0.665904
vt 0.08664015 0.6553435
vt 0.07341811 0.65292627
vt 0.0953255 0.65215427
vt 0.097289324 0.65342385
vt 0.083043665 0.65111977
vt 0.1038312 0.64885545
vt 0.10576662 0.6500556
vt 0.11219016 0.64444107
vt 0.11549699 0.6483855
vt 0.1005052 0.64630675
vt 0.09206011 0.6488727
vt 0.11808032 0.64012456
vt 0.12462327 0.64379334
vt 0.08190957 0.64965576
vt 0.09054217 0.6474715
vt 0.09870955 0.64498514
vt 0.07273251 0.65140086
vt 0.10582431 0.63954055
vt 0.10849816 0.6420091
vt 0.11275236 0.6360818
vt 0.1234002 0.6358121
vt 0.12693784 0.6367778
vt 0.13139468 0.6283824
vt 0.1197844 0.6343183
vt 0.12770087 0.6272655
vt 0.06274751 0.65375036
vt 0.062779695 0.65216666
vt 0.0528356 0.6535767
vt 0.053407207 0.6518095
vt 0.04225285 0.65247077
vt 0.044480663 0.64832175
vt 0.044213187 0.65583134
vt 0.050880983 0.6567015
vt 0.03709983 0.6453398
vt 0.047427185 0.6606269
vt 0.04838629 0.6622153
vt 0.056844383 0.6609196
vt 0.028874291 0.66486007
vt 0.03181781 0.6630378
vt 0.037402943 0.6574449
vt 0.027282014 0.66362196
vt 0.033773154 0.64915204
vt 0.02880858 0.641967
vt 0.024173483 0.64597195
vt 0.031298116 0.65169066
vt 0.0240402 0.65252876
vt 0.019193891 0.64937496
vt 0.023305621 0.654678
vt 0.03485973 0.6533862
vt 0.023526622 0.65648776
vt 0.019087449 0.6580749
vt 0.037402943 0.6574449
vt 0.01811196 0.6561387
vt 0.023305621 0.654678
vn -0.85246027 0.06950728 -0.5181507
vn -0.8538006 0.06805109 -0.5161332
vn -0.852823 0.0697683 -0.5175182
vn -0.85691434 0.065682024 -0.51125693
vn -0.8534079 0.06944342 -0.5165971
vn -0.8644779 0.06833843 -0.49800384
vn -0.8594589 0.07182869 -0.5061334
vn -0.85291636 0.07107993 -0.517186
vn -0.86596704 0.073106304 -0.49472868
vn -0.86496687 0.07556329 -0.49610737
vn -0.86113083 0.0750352 -0.5028154
vn -0.87368184 0.07828103 -0.48015848
vn -0.87423 0.07150386 -0.48021755
vn -0.88056314 0.07158943 -0.46849066
vn -0.88014424 0.07780631 -0.46828657
vn -0.87824535 0.08350988 -0.47086218
vn -0.88481146 0.064887606 -0.46140912
vn -0.8848875 0.06201705 -0.46165776
vn -0.8889356 0.045205183 -0.45579588
vn -0.88888276 0.046315007 -0.45578763
vn -0.893081 0.022626124 -0.44932655
vn -0.8930636 0.022227835 -0.44938108
vn -0.8967788 -0.0032673015 -0.44246712
vn -0.8968507 -0.003546277 -0.4423192
vn -0.8993744 -0.02472553 -0.4364795
vn -0.8993799 -0.024719741 -0.4364685
vn -0.9005312 -0.03626559 -0.43327627
vn -0.90056306 -0.03637234 -0.43320122
vn -0.9007973 -0.039130572 -0.43247312
vn 0.75482196 0.34109175 0.56026804
vn 0.8272967 0.3214968 0.46067336
vn 0.8529358 0.2321081 0.46757498
vn 0.84324026 0.14328864 0.5180871
vn 0.8809088 0.12983675 0.45512858
vn 0.66033244 0.35813913 0.66007376
vn 0.86978805 0.26073268 0.418912
vn 0.8272967 0.3214968 0.46067336
vn 0.79576534 0.13041651 0.5913959
vn 0.8656305 -0.26079392 0.42739952
vn 0.76166886 0.13391553 0.6339773
vn 0.58794105 0.35830197 0.7252207
vn 0.874756 -0.25363013 0.4128848
vn 0.7379103 0.11545385 0.66495025
vn 0.5407734 0.32538107 0.77568763
vn 0.72925717 0.03946297 0.6831007
vn 0.5317542 0.22641173 0.8160731
vn 0.88763136 -0.22401665 0.4024016
vn 0.88658196 -0.24402216 0.3929704
vn 0.77428144 -0.16219443 0.6117035
vn 0.5832971 0.020141765 0.8120091
vn 0.8414375 -0.4693773 0.26770857
vn 0.86729676 -0.4487302 0.21549352
vn 0.8859969 -0.41990575 0.19669406
vn 0.8120817 -0.47864196 0.33380422
vn 0.8887017 -0.38586715 0.24762031
vn 0.86365736 -0.20757072 0.45935863
vn 0.85329443 -0.3698517 0.3675573
vn 0.7163197 -0.307814 0.62620807
vn 0.62438 -0.20675057 0.7532621
vn 0.69731736 -0.34591588 0.62776643
vn 0.7753578 -0.3945448 0.49310735
vn 0.69731736 -0.34591588 0.62776643
vn 0.8528801 -0.27275404 0.44519728
vn 0.77707326 -0.48648328 0.3993634
vn 0.836065 -0.299745 0.4595088
vn 0.75017345 -0.4881792 0.4460055
vn 0.87848043 -0.25687423 0.40284967
vn 0.7705435 -0.4639202 0.4370823
vn 0.92906964 0.03443272 0.36829865
vn 0.89798194 0.0037160418 0.44001654
vn 0.8362558 -0.4168374 0.35626236
vn 0.90097576 0.1369287 0.4116955
vn 0.8806159 0.25143594 0.40161625
vn 0.8576078 0.26904535 0.438319
vn 0.9192576 0.18590909 0.34699184
vn 0.9202673 0.13501817 0.36725774
vn 0.93913096 0.10600496 0.3267965
vn 0.9192576 0.18590909 0.34699184
vn 0.89156985 -0.3127832 0.32752067
vn 0.93191564 -0.27777508 0.23318294
vn 0.9296764 -0.26733276 0.2534462
vn 0.9572282 -0.17229077 0.23244382
vn 0.984623 -0.10166491 0.1420627
vn 0.93191564 -0.27777508 0.23318294
vn 0.9903134 0.0040309047 0.13879181
vn 0.95676094 -0.045314692 0.287324
vn 0.9468352 0.041172363 0.3190735
vn 0.9449679 0.07586618 0.318245
vn 0.93456817 0.09389692 0.3431703
vn 0.9449679 0.07586618 0.318245
vn 0.9572009 0.026766049 0.28818402
vn 0.8524633 0.06950751 -0.51814574
vn 0.85282636 0.069768645 -0.51751274
vn 0.85380363 0.068051316 -0.5161281
vn 0.85691637 0.06568202 -0.5112536
vn 0.8534098 0.069443524 -0.51659393
vn 0.86447865 0.06833842 -0.4980025
vn 0.85945976 0.071828686 -0.506132
vn 0.85291785 0.071079925 -0.51718354
vn 0.8659674 0.073106304 -0.49472812
vn 0.86496717 0.07556328 -0.49610686
vn 0.8611313 0.07503518 -0.50281465
vn 0.8736819 0.07828116 -0.48015833
vn 0.8742302 0.07150398 -0.48021728
vn 0.8805632 0.07158953 -0.46849042
vn 0.8801441 0.07780643 -0.46828657
vn 0.8782453 0.083509974 -0.47086224
vn 0.88481146 0.06488771 -0.46140906
vn 0.88488764 0.062017042 -0.46165767
vn 0.8889355 0.045205306 -0.45579615
vn 0.8888827 0.046315003 -0.45578778
vn 0.893081 0.022626005 -0.44932655
vn 0.8930636 0.022227718 -0.44938114
vn 0.89677966 -0.003267659 -0.44246534
vn 0.8968515 -0.003546516 -0.44231755
vn 0.8993768 -0.024726188 -0.4364745
vn 0.8993823 -0.024720455 -0.4364635
vn 0.9005351 -0.03626684 -0.43326822
vn 0.9005668 -0.03637353 -0.43319318
vn 0.90080166 -0.039131872 -0.4324641
vn -0.75482076 0.3410916 0.5602697
vn -0.8529341 0.23210791 0.467578
vn -0.8272951 0.32149646 0.46067643
vn -0.84323925 0.14328893 0.51808876
vn -0.880907 0.12983637 0.45513216
vn -0.6603318 0.35813928 0.6600745
vn -0.8697862 0.26073238 0.41891596
vn -0.8272951 0.32149646 0.46067643
vn -0.79576474 0.13041681 0.5913967
vn -0.86563015 -0.26079372 0.42740023
vn -0.76166767 0.13391547 0.6339787
vn -0.58794004 0.3583016 0.72522163
vn -0.87475586 -0.2536301 0.4128849
vn -0.7379082 0.11545326 0.6649527
vn -0.54077184 0.32538053 0.775689
vn -0.7292548 0.039461978 0.68310344
vn -0.53175265 0.22641076 0.8160743
vn -0.8876294 -0.22401719 0.40240574
vn -0.8865812 -0.24402232 0.3929719
vn -0.77427995 -0.1621973 0.6117045
vn -0.5832971 0.020138826 0.8120091
vn -0.84143764 -0.46937752 0.26770774
vn -0.8672962 -0.44873056 0.21549495
vn -0.8859957 -0.4199063 0.19669849
vn -0.81208175 -0.47864205 0.3338038
vn -0.8886999 -0.3858682 0.24762528
vn -0.8636547 -0.2075716 0.45936325
vn -0.8532927 -0.36985484 0.36755815
vn -0.7163209 -0.3078216 0.62620306
vn -0.62438226 -0.20675817 0.75325805
vn -0.6973189 -0.345925 0.6277596
vn -0.7753576 -0.39455184 0.4931018
vn -0.6973189 -0.345925 0.6277596
vn -0.852879 -0.27275363 0.4451999
vn -0.77707255 -0.48648313 0.39936498
vn -0.836063 -0.2997443 0.45951274
vn -0.750172 -0.4881784 0.44600874
vn -0.8784786 -0.2568737 0.40285388
vn -0.7705419 -0.46391937 0.43708563
vn -0.9290677 0.03443226 0.36830387
vn -0.8979797 0.0037158995 0.44002137
vn -0.83625484 -0.41683713 0.35626483
vn -0.9009737 0.13692819 0.41170022
vn -0.880614 0.25143516 0.40162113
vn -0.85760576 0.26904476 0.43832338
vn -0.9192558 0.185908 0.3469973
vn -0.92026526 0.13501734 0.36726314
vn -0.939129 0.106004015 0.32680234
vn -0.9192558 0.185908 0.3469973
vn -0.8915689 -0.31278312 0.32752344
vn -0.9319149 -0.27777508 0.23318566
vn -0.9296758 -0.26733297 0.25344813
vn -0.9572273 -0.17229061 0.23244736
vn -0.9846224 -0.10166477 0.14206712
vn -0.9319149 -0.27777508 0.23318566
vn -0.99031246 0.0040313527 0.1387981
vn -0.9567595 -0.045314796 0.287329
vn -0.94683355 0.0411716 0.31907874
vn -0.9449664 0.075865075 0.31825003
vn -0.93456626 0.093895674 0.34317562
vn -0.9449664 0.075865075 0.31825003
vn -0.95719934 0.026765421 0.28818944
g pm0730_00_EyelashFSkin_0
f 3/3/3 2/2/2 1/1/1
f 2/2/2 4/4/4 1/1/1
f 4/4/4 5/5/5 1/1/1
f 4/4/4 6/6/6 5/5/5
f 6/6/6 7/7/7 5/5/5
f 5/5/5 7/7/7 8/8/8
f 6/6/6 9/9/9 7/7/7
f 9/9/9 10/10/10 7/7/7
f 7/7/7 10/10/10 11/11/11
f 10/10/10 9/9/9 12/12/12
f 9/9/9 6/6/6 12/12/12
f 6/6/6 13/13/13 12/12/12
f 12/12/12 13/13/13 14/14/14
f 15/15/15 12/12/12 14/14/14
f 12/12/12 15/15/15 16/16/16
f 17/17/17 15/15/15 14/14/14
f 18/18/18 17/17/17 14/14/14
f 18/18/18 19/19/19 17/17/17
f 19/19/19 20/20/20 17/17/17
f 21/21/21 20/20/20 19/19/19
f 22/22/22 21/21/21 19/19/19
f 21/21/21 22/22/22 23/23/23
f 22/22/22 24/24/24 23/23/23
f 23/23/23 24/24/24 25/25/25
f 26/26/26 23/23/23 25/25/25
f 27/27/27 26/26/26 25/25/25
f 28/28/28 27/27/27 25/25/25
f 27/27/27 28/28/28 29/29/29
f 32/32/32 31/31/31 30/30/30
f 33/33/33 32/32/32 30/30/30
f 32/32/32 33/33/33 34/34/34
f 33/33/33 30/30/30 35/35/35
f 32/32/32 34/34/34 36/36/36
f 37/37/37 32/32/32 36/36/36
f 38/38/38 33/33/33 35/35/35
f 34/34/34 33/33/33 39/39/39
f 33/33/33 38/38/38 39/39/39
f 38/38/38 35/35/35 40/40/40
f 35/35/35 41/41/41 40/40/40
f 38/38/38 42/42/42 39/39/39
f 38/38/38 40/40/40 42/42/42
f 43/43/43 40/40/40 41/41/41
f 44/44/44 43/43/43 41/41/41
f 45/45/45 43/43/43 44/44/44
f 46/46/46 45/45/45 44/44/44
f 40/40/40 43/43/43 47/47/47
f 43/43/43 45/45/45 47/47/47
f 40/40/40 48/48/48 42/42/42
f 48/48/48 40/40/40 47/47/47
f 49/49/49 45/45/45 46/46/46
f 50/50/50 49/49/49 46/46/46
f 42/42/42 51/51/51 39/39/39
f 42/42/42 48/48/48 51/51/51
f 48/48/48 52/52/52 51/51/51
f 52/52/52 48/48/48 53/53/53
f 48/48/48 47/47/47 53/53/53
f 51/51/51 54/54/54 39/39/39
f 53/53/53 47/47/47 55/55/55
f 45/45/45 56/56/56 47/47/47
f 47/47/47 56/56/56 55/55/55
f 56/56/56 45/45/45 49/49/49
f 55/55/55 56/56/56 57/57/57
f 56/56/56 49/49/49 57/57/57
f 58/58/58 49/49/49 50/50/50
f 57/57/57 49/49/49 58/58/58
f 59/59/59 58/58/58 50/50/50
f 59/59/59 60/60/60 58/58/58
f 61/61/61 57/57/57 58/58/58
f 61/61/61 58/58/58 62/62/62
f 63/63/63 39/39/39 54/54/54
f 64/64/64 63/63/63 54/54/54
f 63/63/63 34/34/34 39/39/39
f 63/63/63 64/64/64 65/65/65
f 64/64/64 66/66/66 65/65/65
f 65/65/65 66/66/66 67/67/67
f 66/66/66 68/68/68 67/67/67
f 65/65/65 67/67/67 69/69/69
f 70/70/70 65/65/65 69/69/69
f 63/63/63 65/65/65 70/70/70
f 34/34/34 63/63/63 70/70/70
f 68/68/68 71/71/71 67/67/67
f 70/70/70 72/72/72 34/34/34
f 70/70/70 69/69/69 72/72/72
f 34/34/34 72/72/72 73/73/73
f 74/74/74 34/34/34 73/73/73
f 73/73/73 72/72/72 75/75/75
f 72/72/72 76/76/76 75/75/75
f 72/72/72 69/69/69 76/76/76
f 76/76/76 69/69/69 77/77/77
f 78/78/78 76/76/76 77/77/77
f 71/71/71 79/79/79 67/67/67
f 71/71/71 80/80/80 79/79/79
f 80/80/80 81/81/81 79/79/79
f 79/79/79 82/82/82 67/67/67
f 79/79/79 81/81/81 82/82/82
f 82/82/82 81/81/81 83/83/83
f 81/81/81 84/84/84 83/83/83
f 82/82/82 83/83/83 85/85/85
f 86/86/86 82/82/82 85/85/85
f 82/82/82 86/86/86 67/67/67
f 67/67/67 86/86/86 69/69/69
f 69/69/69 86/86/86 87/87/87
f 69/69/69 87/87/87 88/88/88
f 89/89/89 69/69/69 88/88/88
f 90/90/90 87/87/87 86/86/86
f 91/91/91 90/90/90 86/86/86
f 94/94/94 93/93/93 92/92/92
f 95/95/95 94/94/94 92/92/92
f 96/96/96 95/95/95 92/92/92
f 97/97/97 95/95/95 96/96/96
f 98/98/98 97/97/97 96/96/96
f 98/98/98 96/96/96 99/99/99
f 100/100/100 97/97/97 98/98/98
f 101/101/101 100/100/100 98/98/98
f 101/101/101 98/98/98 102/102/102
f 100/100/100 101/101/101 103/103/103
f 97/97/97 100/100/100 103/103/103
f 104/104/104 97/97/97 103/103/103
f 104/104/104 103/103/103 105/105/105
f 103/103/103 106/106/106 105/105/105
f 106/106/106 103/103/103 107/107/107
f 106/106/106 108/108/108 105/105/105
f 108/108/108 109/109/109 105/105/105
f 110/110/110 109/109/109 108/108/108
f 111/111/111 110/110/110 108/108/108
f 111/111/111 112/112/112 110/110/110
f 112/112/112 113/113/113 110/110/110
f 113/113/113 112/112/112 114/114/114
f 115/115/115 113/113/113 114/114/114
f 115/115/115 114/114/114 116/116/116
f 114/114/114 117/117/117 116/116/116
f 117/117/117 118/118/118 116/116/116
f 118/118/118 119/119/119 116/116/116
f 119/119/119 118/118/118 120/120/120
f 123/123/123 122/122/122 121/121/121
f 122/122/122 124/124/124 121/121/121
f 124/124/124 122/122/122 125/125/125
f 121/121/121 124/124/124 126/126/126
f 125/125/125 122/122/122 127/127/127
f 122/122/122 128/128/128 127/127/127
f 124/124/124 129/129/129 126/126/126
f 124/124/124 125/125/125 130/130/130
f 129/129/129 124/124/124 130/130/130
f 126/126/126 129/129/129 131/131/131
f 132/132/132 126/126/126 131/131/131
f 133/133/133 129/129/129 130/130/130
f 131/131/131 129/129/129 133/133/133
f 131/131/131 134/134/134 132/132/132
f 134/134/134 135/135/135 132/132/132
f 134/134/134 136/136/136 135/135/135
f 136/136/136 137/137/137 135/135/135
f 134/134/134 131/131/131 138/138/138
f 136/136/136 134/134/134 138/138/138
f 139/139/139 131/131/131 133/133/133
f 131/131/131 139/139/139 138/138/138
f 136/136/136 140/140/140 137/137/137
f 140/140/140 141/141/141 137/137/137
f 142/142/142 133/133/133 130/130/130
f 139/139/139 133/133/133 142/142/142
f 143/143/143 139/139/139 142/142/142
f 139/139/139 143/143/143 144/144/144
f 138/138/138 139/139/139 144/144/144
f 145/145/145 142/142/142 130/130/130
f 138/138/138 144/144/144 146/146/146
f 147/147/147 136/136/136 138/138/138
f 147/147/147 138/138/138 146/146/146
f 136/136/136 147/147/147 140/140/140
f 147/147/147 146/146/146 148/148/148
f 140/140/140 147/147/147 148/148/148
f 140/140/140 149/149/149 141/141/141
f 140/140/140 148/148/148 149/149/149
f 149/149/149 150/150/150 141/141/141
f 151/151/151 150/150/150 149/149/149
f 148/148/148 152/152/152 149/149/149
f 149/149/149 152/152/152 153/153/153
f 130/130/130 154/154/154 145/145/145
f 154/154/154 155/155/155 145/145/145
f 125/125/125 154/154/154 130/130/130
f 155/155/155 154/154/154 156/156/156
f 157/157/157 155/155/155 156/156/156
f 157/157/157 156/156/156 158/158/158
f 159/159/159 157/157/157 158/158/158
f 158/158/158 156/156/156 160/160/160
f 156/156/156 161/161/161 160/160/160
f 156/156/156 154/154/154 161/161/161
f 154/154/154 125/125/125 161/161/161
f 162/162/162 159/159/159 158/158/158
f 163/163/163 161/161/161 125/125/125
f 160/160/160 161/161/161 163/163/163
f 163/163/163 125/125/125 164/164/164
f 125/125/125 165/165/165 164/164/164
f 163/163/163 164/164/164 166/166/166
f 167/167/167 163/163/163 166/166/166
f 160/160/160 163/163/163 167/167/167
f 160/160/160 167/167/167 168/168/168
f 167/167/167 169/169/169 168/168/168
f 170/170/170 162/162/162 158/158/158
f 171/171/171 162/162/162 170/170/170
f 172/172/172 171/171/171 170/170/170
f 173/173/173 170/170/170 158/158/158
f 172/172/172 170/170/170 173/173/173
f 172/172/172 173/173/173 174/174/174
f 175/175/175 172/172/172 174/174/174
f 174/174/174 173/173/173 176/176/176
f 173/173/173 177/177/177 176/176/176
f 177/177/177 173/173/173 158/158/158
f 177/177/177 158/158/158 160/160/160
f 177/177/177 160/160/160 178/178/178
f 178/178/178 160/160/160 179/179/179
f 160/160/160 180/180/180 179/179/179
f 178/178/178 181/181/181 177/177/177
f 181/181/181 182/182/182 177/177/177
