g pm0738_00_RearwingSkin_tx
v -1.0000002E-05 0.42043537 -0.68033665
v -0.09612873 0.42043537 -0.67496467
v -0.0015568653 0.42043537 -0.062124837
v -1.0000002E-05 0.42043537 -0.06220878
v -0.19055805 0.4204353 -0.6589402
v -1.0000002E-05 0.42043537 -0.052397225
v -0.0030323234 0.42043537 -0.061874468
v -0.2817277 0.4204353 -0.6325377
v -0.0044568493 0.42043537 -0.06146191
v -0.36807802 0.4204353 -0.5962088
v -0.0058060726 0.42043537 -0.06089429
v -0.007056905 0.42043537 -0.060181268
v -0.44813132 0.4204354 -0.5505752
v -0.5205177 0.42043537 -0.49641752
v -0.008187943 0.42043537 -0.059335034
v -0.5839993 0.42043537 -0.4346626
v -0.009179843 0.42043537 -0.058370136
v -0.6374889 0.42043522 -0.36636698
v -0.010015619 0.42043537 -0.057303004
v -0.68007207 0.42043537 -0.2926993
v -0.01068098 0.42043537 -0.056151945
v -0.7110201 0.4204353 -0.21492
v -0.011164543 0.42043537 -0.05493664
v -0.72980314 0.4204354 -0.13435985
v -0.011458028 0.42043537 -0.053677898
v -0.011556421 0.42043537 -0.052397225
v -0.7361003 0.42043537 -0.05239733
v 0.011556421 0.42043537 -0.05239722
v 0.011458028 0.42043537 -0.05367789
v 1.0000002E-05 0.42043537 -0.05239722
v 0.7361003 0.42043537 -0.052397326
v 0.72980314 0.4204354 -0.13435984
v 0.011164543 0.42043537 -0.054936636
v 0.7110201 0.4204353 -0.21492
v 0.01068098 0.42043537 -0.05615194
v 0.68007207 0.42043537 -0.2926993
v 0.010015619 0.42043537 -0.057302997
v 0.009179843 0.42043537 -0.058370132
v 0.6374889 0.42043522 -0.36636698
v 0.5839993 0.42043537 -0.4346626
v 0.008187943 0.42043537 -0.05933503
v 0.5205177 0.42043537 -0.49641752
v 0.007056905 0.42043537 -0.060181264
v 0.44813132 0.4204354 -0.5505752
v 0.0058060726 0.42043537 -0.060894288
v 0.36807802 0.4204353 -0.5962088
v 0.0044568493 0.42043537 -0.061461907
v 0.2817277 0.4204353 -0.6325377
v 0.0030323234 0.42043537 -0.061874464
v 0.19055805 0.4204353 -0.6589402
v 0.0015568653 0.42043537 -0.062124833
v 1.0000002E-05 0.42043537 -0.062208775
v 0.09612873 0.42043537 -0.67496467
v 1.0000002E-05 0.42043537 -0.68033665
v -0.0115564065 0.42043537 -0.052397225
v -0.011458014 0.42043537 -0.053677898
v -1.0000002E-05 0.42043537 -0.052397225
v -0.7361003 0.42043537 -0.05239733
v -0.72980314 0.4204354 -0.13435985
v -0.011164529 0.42043537 -0.05493664
v -0.7110201 0.4204353 -0.21492
v -0.010680966 0.42043537 -0.056151945
v -0.68007207 0.42043537 -0.2926993
v -0.010015604 0.42043537 -0.057303004
v -0.009179828 0.42043537 -0.058370136
v -0.6374889 0.42043522 -0.36636698
v -0.5839993 0.42043537 -0.4346626
v -0.008187929 0.42043537 -0.059335034
v -0.5205177 0.42043537 -0.49641752
v -0.0070568905 0.42043537 -0.060181268
v -0.44813132 0.4204354 -0.5505752
v -0.0058060586 0.42043537 -0.06089429
v -0.36807802 0.4204353 -0.5962088
v -0.004456835 0.42043537 -0.06146191
v -0.2817277 0.4204353 -0.6325377
v -0.003032309 0.42043537 -0.061874468
v -0.19055803 0.4204353 -0.6589402
v -0.001556851 0.42043537 -0.062124837
v -1.0000002E-05 0.42043537 -0.06220878
v -0.09612872 0.42043537 -0.67496467
v -1.0000002E-05 0.42043537 -0.68033665
v 0.0115564065 0.4204353 -0.05239722
v 1.0000002E-05 0.4204353 -0.05239722
v 0.011458014 0.4204353 -0.05367789
v 0.7361003 0.4204353 -0.052397326
v 0.72980314 0.42043537 -0.13435984
v 0.011164529 0.4204353 -0.054936636
v 0.7110201 0.42043528 -0.21492
v 0.010680966 0.4204353 -0.05615194
v 0.68007207 0.4204353 -0.2926993
v 0.010015604 0.4204353 -0.057302997
v 0.009179828 0.4204353 -0.058370132
v 0.6374889 0.42043516 -0.36636698
v 0.5839993 0.4204353 -0.4346626
v 0.008187929 0.4204353 -0.05933503
v 0.5205177 0.4204353 -0.49641752
v 0.0070568905 0.4204353 -0.060181264
v 0.44813132 0.42043537 -0.5505752
v 0.0058060586 0.4204353 -0.060894288
v 0.36807802 0.42043528 -0.5962088
v 0.004456835 0.4204353 -0.061461907
v 0.2817277 0.42043528 -0.6325377
v 0.003032309 0.4204353 -0.061874464
v 0.19055803 0.42043528 -0.6589402
v 0.001556851 0.4204353 -0.062124833
v 1.0000002E-05 0.4204353 -0.062208775
v 0.09612872 0.4204353 -0.67496467
v 1.0000002E-05 0.4204353 -0.68033665
vt 0.6425778 0.00390625
vt 0.6455687 0.033269927
vt 0.9753259 0.005334762
vt 0.97518027 0.00390625
vt 0.65449065 0.06213123
vt 0.99218756 0.00390625
vt 0.97575974 0.006738754
vt 0.6691902 0.08999624
vt 0.9764749 0.008094231
vt 0.68941665 0.11638833
vt 0.97745866 0.009378142
vt 0.97869456 0.010568434
vt 0.7148235 0.1408558
vt 0.744976 0.16297995
vt 0.98016155 0.011644721
vt 0.7793586 0.18238233
vt 0.98183405 0.012588511
vt 0.81738275 0.19873087
vt 0.9836838 0.013383794
vt 0.85839766 0.21174604
vt 0.9857278 0.01399916
vt 0.90170187 0.22120497
vt 0.9878304 0.014455403
vt 0.9465543 0.22694571
vt 0.99000716 0.01473209
vt 0.99218756 0.014849966
vt 0.9921875 0.22887032
vt 0.9921875 0.014849966
vt 0.99000716 0.01473209
vt 0.9921875 0.00390625
vt 0.9921875 0.22887032
vt 0.9465543 0.22694571
vt 0.9878304 0.014455403
vt 0.9017019 0.22120497
vt 0.9857278 0.01399916
vt 0.8583977 0.21174604
vt 0.9836838 0.013383794
vt 0.98183405 0.012588511
vt 0.8173828 0.19873087
vt 0.7793586 0.18238233
vt 0.98016155 0.011644721
vt 0.74497604 0.16297995
vt 0.97869456 0.010568434
vt 0.7148235 0.1408558
vt 0.97745866 0.009378142
vt 0.68941665 0.11638833
vt 0.9764748 0.008094231
vt 0.66919017 0.08999624
vt 0.97575974 0.006738754
vt 0.6544907 0.06213123
vt 0.97532594 0.005334762
vt 0.9751802 0.00390625
vt 0.6455687 0.033269927
vt 0.6425779 0.00390625
vt 0.2734375 0.015153231
vt 0.2756626 0.014960861
vt 0.2734375 0.00390625
vt 0.2734374 0.22887027
vt 0.3190707 0.22694558
vt 0.27788562 0.014678635
vt 0.3639232 0.22120482
vt 0.2800327 0.014212837
vt 0.40722734 0.21174583
vt 0.28217673 0.013646444
vt 0.28407794 0.01282909
vt 0.44824234 0.19873075
vt 0.4862664 0.18238221
vt 0.28579688 0.011859113
vt 0.52064896 0.16297978
vt 0.28730437 0.010752968
vt 0.5508015 0.14085567
vt 0.28857446 0.009529746
vt 0.57620823 0.11638825
vt 0.28958562 0.0082103005
vt 0.5964347 0.08999619
vt 0.29032063 0.006817177
vt 0.6111343 0.062131163
vt 0.29076666 0.0053742975
vt 0.2909162 0.0039062232
vt 0.62005615 0.033269867
vt 0.6230471 0.003906101
vt 0.2734375 0.015153231
vt 0.27343738 0.00390625
vt 0.27566266 0.014960861
vt 0.27343738 0.22887027
vt 0.3190707 0.22694558
vt 0.27788562 0.014678635
vt 0.3639232 0.22120482
vt 0.2800327 0.014212837
vt 0.40722728 0.21174583
vt 0.28217673 0.013646444
vt 0.28407788 0.01282909
vt 0.4482423 0.19873075
vt 0.48626637 0.18238221
vt 0.28579676 0.011859113
vt 0.52064896 0.16297978
vt 0.28730434 0.010752968
vt 0.5508015 0.14085567
vt 0.28857446 0.009529746
vt 0.57620823 0.11638825
vt 0.2895856 0.0082103005
vt 0.5964347 0.08999619
vt 0.29032058 0.006817177
vt 0.6111343 0.062131163
vt 0.29076672 0.0053742975
vt 0.2909162 0.003906224
vt 0.62005615 0.033269867
vt 0.6230471 0.003906101
vn 2.3841858E-07 -1 0
vn 2.3841858E-07 -1 0
vn 2.3841858E-07 -1 0
vn -0 -1 0
vn 2.3841858E-07 -1 1.1920929E-07
vn 1.1920929E-07 -1 0
vn 2.3841858E-07 -1 0
vn -0 -1 1.1920929E-07
vn -0 -1 1.1920929E-07
vn -1.1920929E-07 -1 2.3841858E-07
vn -0 -1 2.3841858E-07
vn -0 -1 2.3841858E-07
vn -0 -1 2.3841858E-07
vn 1.1920929E-07 -1 2.3841858E-07
vn 2.3841858E-07 -1 2.3841858E-07
vn 2.3841858E-07 -1 -1.1920929E-07
vn 2.3841858E-07 -1 0
vn -0 -1 -2.3841858E-07
vn 2.3841858E-07 -1 -1.7881393E-07
vn -0 -1 0
vn -0 -1 0
vn -0 -1 3.5762787E-07
vn -0 -1 3.5762787E-07
vn -0 -1 4.7683716E-07
vn -0 -1 3.5762787E-07
vn -0 -1 2.3841858E-07
vn -0 -1 3.5762787E-07
vn -0 -1 2.3841858E-07
vn -0 -1 2.3841858E-07
vn -0 -1 -2.3841858E-07
vn -0 -1 4.7683716E-07
vn -0 -1 4.7683716E-07
vn -0 -1 0
vn -0 -1 4.7683716E-07
vn -0 -1 0
vn -0 -1 0
vn -0 -1 -3.5762787E-07
vn -0 -1 -4.7683716E-07
vn -1.1920929E-07 -1 -2.9802322E-07
vn -2.3841858E-07 -1 -3.5762787E-07
vn -1.7881393E-07 -1 -2.9802322E-07
vn -1.1920929E-07 -1 -1.1920929E-07
vn -0 -1 0
vn 1.1920929E-07 -1 0
vn 1.1920929E-07 -1 0
vn 1.1920929E-07 -1 1.1920929E-07
vn -0 -1 -1.7881393E-07
vn -0 -1 0
vn -0 -1 -1.7881393E-07
vn -0 -1 -1.1920929E-07
vn -0 -1 -1.7881393E-07
vn -0 -1 -2.3841858E-07
vn -1.1920929E-07 -1 -1.1920929E-07
vn -0 -1 -1.1920929E-07
vn -0 1 3.5762787E-07
vn -0 1 2.3841858E-07
vn -0 1 8.34465E-07
vn -0 1 1.1920929E-07
vn -0 1 -3.5762787E-07
vn -0 1 0
vn -0 1 -4.7683716E-07
vn -0 1 2.3841858E-07
vn -0 1 -1.1920929E-07
vn -0 1 5.9604645E-07
vn -0 1 8.34465E-07
vn -1.1920929E-07 1 2.3841858E-07
vn -2.3841858E-07 1 5.9604645E-07
vn -1.7881393E-07 1 8.34465E-07
vn -1.1920929E-07 1 4.7683716E-07
vn -0 1 4.7683716E-07
vn 1.1920929E-07 1 2.3841858E-07
vn 1.1920929E-07 1 3.5762787E-07
vn 1.1920929E-07 1 0
vn -0 1 4.7683716E-07
vn -0 1 0
vn -0 1 4.7683716E-07
vn -0 1 2.3841858E-07
vn -0 1 5.9604645E-07
vn -0 1 4.7683716E-07
vn -1.1920929E-07 1 2.3841858E-07
vn -0 1 3.5762787E-07
vn -0 1 2.3841858E-07
vn 1.1920929E-07 1 0
vn -0 1 1.1920929E-07
vn -0 1 3.5762787E-07
vn -0 1 1.1920929E-07
vn -0 1 0
vn -0 1 -1.7881393E-07
vn -0 1 0
vn -0 1 -1.1920929E-07
vn 2.3841858E-07 1 2.3841858E-07
vn 2.3841858E-07 1 2.3841858E-07
vn -0 1 1.1920929E-07
vn 2.3841858E-07 1 2.3841858E-07
vn 2.3841858E-07 1 1.1920929E-07
vn 1.1920929E-07 1 1.1920929E-07
vn -0 1 1.1920929E-07
vn -0 1 1.1920929E-07
vn -0 1 0
vn -1.1920929E-07 1 0
vn -0 1 0
vn -0 1 -1.1920929E-07
vn 2.3841858E-07 1 0
vn 2.3841858E-07 1 -1.1920929E-07
vn 2.3841858E-07 1 0
vn -0 1 0
vn 2.3841858E-07 1 -1.1920929E-07
vn 2.3841858E-07 1 -1.1920929E-07
g pm0738_00_RearwingSkin_tx_0
f 3/3/3 2/2/2 1/1/1
f 4/4/4 3/3/3 1/1/1
f 5/5/5 2/2/2 3/3/3
f 4/4/4 6/6/6 3/3/3
f 7/7/7 5/5/5 3/3/3
f 3/3/3 6/6/6 7/7/7
f 8/8/8 5/5/5 7/7/7
f 7/7/7 6/6/6 9/9/9
f 9/9/9 8/8/8 7/7/7
f 10/10/10 8/8/8 9/9/9
f 9/9/9 6/6/6 11/11/11
f 11/11/11 10/10/10 9/9/9
f 11/11/11 6/6/6 12/12/12
f 13/13/13 10/10/10 11/11/11
f 12/12/12 13/13/13 11/11/11
f 14/14/14 13/13/13 12/12/12
f 15/15/15 14/14/14 12/12/12
f 12/12/12 6/6/6 15/15/15
f 16/16/16 14/14/14 15/15/15
f 17/17/17 16/16/16 15/15/15
f 15/15/15 6/6/6 17/17/17
f 18/18/18 16/16/16 17/17/17
f 19/19/19 18/18/18 17/17/17
f 17/17/17 6/6/6 19/19/19
f 20/20/20 18/18/18 19/19/19
f 21/21/21 20/20/20 19/19/19
f 19/19/19 6/6/6 21/21/21
f 22/22/22 20/20/20 21/21/21
f 23/23/23 22/22/22 21/21/21
f 21/21/21 6/6/6 23/23/23
f 24/24/24 22/22/22 23/23/23
f 23/23/23 6/6/6 25/25/25
f 25/25/25 24/24/24 23/23/23
f 25/25/25 6/6/6 26/26/26
f 27/27/27 24/24/24 25/25/25
f 26/26/26 27/27/27 25/25/25
f 30/30/30 29/29/29 28/28/28
f 31/31/31 28/28/28 29/29/29
f 32/32/32 31/31/31 29/29/29
f 32/32/32 29/29/29 33/33/33
f 30/30/30 33/33/33 29/29/29
f 34/34/34 32/32/32 33/33/33
f 30/30/30 35/35/35 33/33/33
f 34/34/34 33/33/33 35/35/35
f 36/36/36 34/34/34 35/35/35
f 30/30/30 37/37/37 35/35/35
f 36/36/36 35/35/35 37/37/37
f 30/30/30 38/38/38 37/37/37
f 39/39/39 36/36/36 37/37/37
f 39/39/39 37/37/37 38/38/38
f 40/40/40 39/39/39 38/38/38
f 40/40/40 38/38/38 41/41/41
f 30/30/30 41/41/41 38/38/38
f 42/42/42 40/40/40 41/41/41
f 42/42/42 41/41/41 43/43/43
f 30/30/30 43/43/43 41/41/41
f 44/44/44 42/42/42 43/43/43
f 44/44/44 43/43/43 45/45/45
f 30/30/30 45/45/45 43/43/43
f 46/46/46 44/44/44 45/45/45
f 46/46/46 45/45/45 47/47/47
f 30/30/30 47/47/47 45/45/45
f 48/48/48 46/46/46 47/47/47
f 48/48/48 47/47/47 49/49/49
f 30/30/30 49/49/49 47/47/47
f 50/50/50 48/48/48 49/49/49
f 30/30/30 51/51/51 49/49/49
f 50/50/50 49/49/49 51/51/51
f 30/30/30 52/52/52 51/51/51
f 53/53/53 50/50/50 51/51/51
f 51/51/51 52/52/52 54/54/54
f 53/53/53 51/51/51 54/54/54
f 57/57/57 56/56/56 55/55/55
f 58/58/58 55/55/55 56/56/56
f 59/59/59 58/58/58 56/56/56
f 59/59/59 56/56/56 60/60/60
f 57/57/57 60/60/60 56/56/56
f 61/61/61 59/59/59 60/60/60
f 57/57/57 62/62/62 60/60/60
f 61/61/61 60/60/60 62/62/62
f 63/63/63 61/61/61 62/62/62
f 57/57/57 64/64/64 62/62/62
f 63/63/63 62/62/62 64/64/64
f 57/57/57 65/65/65 64/64/64
f 66/66/66 63/63/63 64/64/64
f 66/66/66 64/64/64 65/65/65
f 67/67/67 66/66/66 65/65/65
f 67/67/67 65/65/65 68/68/68
f 57/57/57 68/68/68 65/65/65
f 69/69/69 67/67/67 68/68/68
f 69/69/69 68/68/68 70/70/70
f 57/57/57 70/70/70 68/68/68
f 71/71/71 69/69/69 70/70/70
f 71/71/71 70/70/70 72/72/72
f 57/57/57 72/72/72 70/70/70
f 73/73/73 71/71/71 72/72/72
f 73/73/73 72/72/72 74/74/74
f 57/57/57 74/74/74 72/72/72
f 75/75/75 73/73/73 74/74/74
f 75/75/75 74/74/74 76/76/76
f 57/57/57 76/76/76 74/74/74
f 77/77/77 75/75/75 76/76/76
f 57/57/57 78/78/78 76/76/76
f 77/77/77 76/76/76 78/78/78
f 57/57/57 79/79/79 78/78/78
f 80/80/80 77/77/77 78/78/78
f 78/78/78 79/79/79 81/81/81
f 80/80/80 78/78/78 81/81/81
f 84/84/84 83/83/83 82/82/82
f 82/82/82 85/85/85 84/84/84
f 85/85/85 86/86/86 84/84/84
f 84/84/84 86/86/86 87/87/87
f 87/87/87 83/83/83 84/84/84
f 86/86/86 88/88/88 87/87/87
f 89/89/89 83/83/83 87/87/87
f 87/87/87 88/88/88 89/89/89
f 88/88/88 90/90/90 89/89/89
f 91/91/91 83/83/83 89/89/89
f 89/89/89 90/90/90 91/91/91
f 92/92/92 83/83/83 91/91/91
f 90/90/90 93/93/93 91/91/91
f 91/91/91 93/93/93 92/92/92
f 93/93/93 94/94/94 92/92/92
f 92/92/92 94/94/94 95/95/95
f 95/95/95 83/83/83 92/92/92
f 94/94/94 96/96/96 95/95/95
f 95/95/95 96/96/96 97/97/97
f 97/97/97 83/83/83 95/95/95
f 96/96/96 98/98/98 97/97/97
f 97/97/97 98/98/98 99/99/99
f 99/99/99 83/83/83 97/97/97
f 98/98/98 100/100/100 99/99/99
f 99/99/99 100/100/100 101/101/101
f 101/101/101 83/83/83 99/99/99
f 100/100/100 102/102/102 101/101/101
f 101/101/101 102/102/102 103/103/103
f 103/103/103 83/83/83 101/101/101
f 102/102/102 104/104/104 103/103/103
f 105/105/105 83/83/83 103/103/103
f 103/103/103 104/104/104 105/105/105
f 106/106/106 83/83/83 105/105/105
f 104/104/104 107/107/107 105/105/105
f 106/106/106 105/105/105 108/108/108
f 105/105/105 107/107/107 108/108/108
