g pm0717_00_BodyCSkin
v 2.598112 1.4366142 0.21523437
v 2.734897 1.4235471 0.22783084
v 2.7328289 1.5364426 0.37811336
v 2.5980623 1.5496671 0.36164382
v 2.7347083 1.6353506 0.5534293
v 2.597812 1.6546983 0.5457586
v 2.3818128 1.4466915 0.2060728
v 2.3817577 1.5614351 0.3541076
v 2.3814273 1.6713469 0.5474744
v 2.0632284 1.6775169 0.5468227
v 2.0638463 1.5680374 0.35655135
v 2.0637462 1.4529454 0.20606159
v 1.814494 1.5622091 0.36920783
v -2.598112 1.4366142 0.21523437
v -2.7328289 1.5364426 0.37811336
v -2.734897 1.4235471 0.22783084
v -2.5980623 1.5496671 0.36164382
v -2.7347083 1.6353506 0.5534293
v -2.597812 1.6546983 0.5457586
v -2.3818128 1.4466915 0.2060728
v -2.3817577 1.5614351 0.3541076
v -2.3814273 1.6713469 0.5474744
v -2.0632284 1.6775169 0.5468227
v -2.0638463 1.5680374 0.35655135
v -2.0637462 1.4529454 0.20606159
v -1.814494 1.5622091 0.36920783
v 3.3297736E-24 0.8054059 -0.7758116
v 2.3841857E-09 0.6983683 -0.97720397
v 0.115819156 0.7977832 -0.77090615
v 2.1868151E-24 0.923434 -0.6007025
v -0.115819156 0.7977832 -0.77090615
v 1.2606473E-24 0.27293652 -1.8527298
v 0.19753715 0.26416656 -1.8471917
v 6.1407087E-25 0.3704645 -1.6690975
v 7.992992E-25 0.14433673 -2.0991678
v -0.19753715 0.26416656 -1.8471917
v 0.21245681 0.13465238 -2.093082
v -0.21245681 0.13465238 -2.093082
v 0.21873157 0.00621539 -2.2814791
v -0.21873157 0.00621539 -2.2814791
v -1.2952436E-23 0.01656787 -2.2877817
v -4.7309762E-23 -0.110041045 -2.4579163
v 1.7037302 1.542926 0.38196716
v 1.5944704 1.5223734 0.3956574
v 1.6131506 1.3903767 0.20563027
v 1.3992914 1.3718605 0.23464046
v 1.5951802 1.6122471 0.5479908
v 1.3990083 1.4961424 0.4109871
v 1.179448 1.3688323 0.23436677
v 1.3997444 1.5653169 0.5439416
v 1.3987266 1.5845271 0.6722177
v 1.1793448 1.5579863 0.5324472
v 1.1785425 1.4890825 0.40844294
v 0.94455564 1.493786 0.40550947
v 0.80211043 1.6037428 0.599141
v 0.7999661 1.4995221 0.40430582
v 0.9428853 1.493786 0.40550947
v 0.8012333 1.3755809 0.21594688
v 0.61280864 1.3804426 0.19807167
v 0.60862726 1.5079149 0.38897628
v 0.60502243 1.6265894 0.6252398
v 0.4102423 1.5244666 0.31550774
v -1.5258789E-07 0.48283255 -1.4955671
v 0.18466604 0.47582683 -1.4911065
v 0.17166631 0.594591 -1.3293784
v -1.5258789E-07 0.3704645 -1.6678588
v -0.18466635 0.47582683 -1.4911065
v -0.17166662 0.594591 -1.3293784
v -1.5258789E-07 0.6016005 -1.3339154
v 0.15277307 0.62391484 -1.184433
v -0.15277337 0.62391484 -1.184433
v -1.5258789E-07 0.6321191 -1.189766
v 0.14178176 0.6535651 -1.078601
v -0.14178206 0.6535651 -1.078601
v -1.5258789E-07 0.66056967 -1.083099
v -1.5020369E-07 0.6983683 -0.97808737
v -1.7037302 1.542926 0.38196716
v -1.6131506 1.3903767 0.20563027
v -1.5944704 1.5223734 0.3956574
v -1.3992914 1.3718605 0.23464046
v -1.5951802 1.6122471 0.5479908
v -1.3990083 1.4961424 0.4109871
v -1.179448 1.3688323 0.23436677
v -1.3997444 1.5653169 0.5439416
v -1.3987266 1.5845271 0.6722177
v -1.1793448 1.5579863 0.5324472
v -1.1785425 1.4890825 0.40844294
v -0.94455564 1.493786 0.40550947
v -0.80211043 1.6037428 0.599141
v -0.9422888 1.493786 0.40550947
v -0.7999661 1.4995221 0.40430582
v -0.8012333 1.3755809 0.21594688
v -0.61280864 1.3804426 0.19807167
v -0.60862726 1.5079149 0.38897628
v -0.60502243 1.6265894 0.6252398
v -0.4102423 1.5244666 0.31550774
vt 0.678006 0.92619
vt 0.679747 0.97963
vt 0.752606 0.978823
vt 0.749582 0.926171
vt 0.831248 0.979557
vt 0.832395 0.926073
vt 0.676851 0.841684
vt 0.749306 0.841663
vt 0.836203 0.841534
vt 0.837178 0.717218
vt 0.751414 0.717459
vt 0.678059 0.71742
vt 0.754578 0.62004
vt 0.321994 0.92619
vt 0.24739403 0.978823
vt 0.320253 0.97963
vt 0.250418 0.926171
vt 0.16875201 0.979557
vt 0.16760498 0.926073
vt 0.32314903 0.841684
vt 0.25069398 0.841663
vt 0.16379702 0.841534
vt 0.16282201 0.717218
vt 0.248586 0.717459
vt 0.32194102 0.71742
vt 0.245422 0.62004
vt 0.5 0.132566
vt 0.5 0.221929
vt 0.545602 0.132379
vt 0.5 0.05029
vt 0.45439798 0.132379
vt 0.5 0.711716
vt 0.577529 0.711537
vt 0.5 0.630101
vt 0.5 0.820239
vt 0.422471 0.711537
vt 0.583358 0.820051
vt 0.416642 0.820051
vt 0.585809 0.908852
vt 0.414191 0.908852
vt 0.5 0.908984
vt 0.5 0.991236
vt 0.75517 0.569071
vt 0.755831 0.526385
vt 0.665787 0.533683
vt 0.67204 0.450131
vt 0.824925 0.526662
vt 0.755948 0.45002
vt 0.67136 0.36424
vt 0.814457 0.450308
vt 0.861695 0.44991
vt 0.809137 0.3642
vt 0.753717 0.363887
vt 0.753633 0.272471
vt 0.840629 0.177043
vt 0.754337 0.176206
vt 0.753633 0.232695
vt 0.666419 0.176701
vt 0.661298 0.103085
vt 0.750763 0.101452
vt 0.85391 0.100044
vt 0.729047 0.023945
vt 0.5 0.497835
vt 0.5725 0.49768
vt 0.567421 0.4198
vt 0.5 0.578059
vt 0.4275 0.49768
vt 0.43257898 0.4198
vt 0.5 0.419981
vt 0.56004 0.364947
vt 0.43996 0.364947
vt 0.5 0.365166
vt 0.555746 0.323299
vt 0.44425398 0.323299
vt 0.5 0.323467
vt 0.5 0.280519
vt 0.24483001 0.569071
vt 0.33421302 0.533683
vt 0.244169 0.526385
vt 0.32796 0.450131
vt 0.175075 0.526662
vt 0.244052 0.45002
vt 0.32863998 0.36424
vt 0.185543 0.450308
vt 0.13830501 0.44991
vt 0.19086301 0.3642
vt 0.246283 0.363887
vt 0.24636698 0.272471
vt 0.15937102 0.177043
vt 0.24636698 0.232695
vt 0.24566299 0.176206
vt 0.33358097 0.176701
vt 0.33870202 0.103085
vt 0.249237 0.101452
vt 0.14608997 0.100044
vt 0.270953 0.023945
vn 0.09198209 0.75812906 -0.64558476
vn 0.12305838 0.76575816 -0.63124573
vn 0.12965834 0.8260595 -0.54846555
vn 0.09703496 0.82717234 -0.55350715
vn 0.12974304 0.8773142 -0.46204618
vn 0.09889738 0.88436335 -0.4562026
vn 0.04177116 0.76348716 -0.64447075
vn 0.044213574 0.82772183 -0.55939406
vn 0.047127426 0.88144016 -0.46993852
vn -0.00050272373 0.862754 -0.5056238
vn -0.0034216468 0.8273674 -0.56165063
vn -0.0032069634 0.78730375 -0.616557
vn -0.016733037 0.82688576 -0.5621209
vn -0.09198198 0.75812906 -0.64558476
vn -0.12965836 0.8260595 -0.54846543
vn -0.12305822 0.76575816 -0.63124573
vn -0.09703485 0.82717246 -0.55350703
vn -0.12974286 0.8773142 -0.46204606
vn -0.09889738 0.8843634 -0.45620245
vn -0.041771162 0.76348716 -0.64447075
vn -0.044213515 0.8277219 -0.559394
vn -0.04712749 0.8814403 -0.46993843
vn 0.0005027844 0.862754 -0.5056237
vn 0.003421646 0.8273675 -0.56165045
vn 0.003206903 0.7873037 -0.61655706
vn 0.016733095 0.8268858 -0.56212085
vn -0 0.8673783 -0.49764946
vn -0 0.8710112 -0.4912631
vn 0.023102969 0.8672678 -0.49730548
vn -0 0.8639074 -0.50365067
vn -0.02310303 0.8672678 -0.49730557
vn -0 0.8718322 -0.48980474
vn 0.060380213 0.86963683 -0.48998585
vn -0 0.8751833 -0.48379147
vn 1.2134367E-07 0.8542702 -0.51982915
vn -0.060380276 0.8696367 -0.4899859
vn 0.08357823 0.8511527 -0.5182218
vn -0.08357812 0.85115266 -0.518222
vn 0.059392232 0.8299972 -0.5545965
vn -0.059392184 0.8299972 -0.55459654
vn -0 0.8305231 -0.55698425
vn -0 0.82381237 -0.56686246
vn -0.16643667 0.8466367 -0.505475
vn -0.15152141 0.8487724 -0.50658333
vn -0.14077494 0.8148984 -0.56224823
vn -0.080611706 0.81379426 -0.5755351
vn -0.1536206 0.8995308 -0.40895614
vn -0.09332666 0.86033326 -0.5011156
vn -0.028799243 0.83384836 -0.5512417
vn -0.11129419 0.918743 -0.37884656
vn -0.11701888 0.9336476 -0.33853915
vn -0.0628282 0.9136091 -0.40171015
vn -0.03660777 0.8672758 -0.49648008
vn -0.022841437 0.8698876 -0.49272075
vn 0.08325985 0.88729644 -0.45362186
vn 0.08554218 0.86774856 -0.4895865
vn 0.074512795 0.86819917 -0.4905895
vn 0.08990859 0.84835017 -0.52174556
vn 0.12624858 0.84644437 -0.5172942
vn 0.12341459 0.86623 -0.48416352
vn 0.11813384 0.8862795 -0.44783148
vn 0.13652308 0.86562335 -0.48172364
vn -0 0.87517184 -0.4838122
vn 0.07284881 0.87538874 -0.47789913
vn 0.113896534 0.913411 -0.39077857
vn -0 0.8640565 -0.50339484
vn -0.07284881 0.87538874 -0.47789913
vn -0.11389651 0.913411 -0.39077845
vn -0 0.9188123 -0.39469486
vn 0.11566874 0.94343513 -0.31072664
vn -0.115668684 0.94343513 -0.3107267
vn -0 0.95066124 -0.31023103
vn 0.07625193 0.95255834 -0.29464942
vn -0.07625182 0.9525582 -0.2946495
vn -0 0.95545125 -0.2951487
vn -0 0.9544739 -0.29829445
vn 0.16643672 0.8466367 -0.5054751
vn 0.14077494 0.81489825 -0.5622483
vn 0.15152149 0.8487724 -0.5065834
vn 0.080611765 0.81379426 -0.5755351
vn 0.1536208 0.8995308 -0.40895605
vn 0.09332677 0.86033326 -0.5011156
vn 0.028799303 0.83384836 -0.5512417
vn 0.11129438 0.91874313 -0.37884653
vn 0.117018946 0.9336476 -0.33853906
vn 0.06282827 0.9136091 -0.40171024
vn 0.036607888 0.8672758 -0.49648008
vn 0.02284162 0.8698876 -0.49272075
vn -0.08327443 0.8872988 -0.45361456
vn -0.07453166 0.8682027 -0.49058053
vn -0.085556656 0.8677511 -0.4895796
vn -0.0899231 0.8483529 -0.5217386
vn -0.1262543 0.8464452 -0.5172913
vn -0.12341986 0.8662307 -0.48416093
vn -0.11813972 0.88628024 -0.44782853
vn -0.13652617 0.8656237 -0.48172203
g pm0717_00_BodyCSkin_0
f 3/3/3 2/2/2 1/1/1
f 4/4/4 3/3/3 1/1/1
f 5/5/5 3/3/3 4/4/4
f 6/6/6 5/5/5 4/4/4
f 4/4/4 1/1/1 7/7/7
f 6/6/6 4/4/4 8/8/8
f 8/8/8 4/4/4 7/7/7
f 9/9/9 6/6/6 8/8/8
f 10/10/10 9/9/9 8/8/8
f 11/11/11 8/8/8 7/7/7
f 11/11/11 10/10/10 8/8/8
f 12/12/12 11/11/11 7/7/7
f 13/13/13 10/10/10 11/11/11
f 12/12/12 13/13/13 11/11/11
f 16/16/16 15/15/15 14/14/14
f 15/15/15 17/17/17 14/14/14
f 15/15/15 18/18/18 17/17/17
f 18/18/18 19/19/19 17/17/17
f 14/14/14 17/17/17 20/20/20
f 17/17/17 19/19/19 21/21/21
f 17/17/17 21/21/21 20/20/20
f 19/19/19 22/22/22 21/21/21
f 22/22/22 23/23/23 21/21/21
f 21/21/21 24/24/24 20/20/20
f 23/23/23 24/24/24 21/21/21
f 24/24/24 25/25/25 20/20/20
f 23/23/23 26/26/26 24/24/24
f 26/26/26 25/25/25 24/24/24
f 29/29/29 28/28/28 27/27/27
f 29/29/29 27/27/27 30/30/30
f 28/28/28 31/31/31 27/27/27
f 27/27/27 31/31/31 30/30/30
f 34/34/34 33/33/33 32/32/32
f 32/32/32 33/33/33 35/35/35
f 36/36/36 34/34/34 32/32/32
f 36/36/36 32/32/32 35/35/35
f 33/33/33 37/37/37 35/35/35
f 38/38/38 36/36/36 35/35/35
f 35/35/35 37/37/37 39/39/39
f 38/38/38 35/35/35 40/40/40
f 41/41/41 35/35/35 39/39/39
f 35/35/35 41/41/41 40/40/40
f 39/39/39 42/42/42 41/41/41
f 42/42/42 40/40/40 41/41/41
f 45/45/45 44/44/44 43/43/43
f 45/45/45 46/46/46 44/44/44
f 43/43/43 44/44/44 47/47/47
f 46/46/46 48/48/48 44/44/44
f 44/44/44 48/48/48 47/47/47
f 46/46/46 49/49/49 48/48/48
f 48/48/48 50/50/50 47/47/47
f 47/47/47 50/50/50 51/51/51
f 51/51/51 50/50/50 52/52/52
f 49/49/49 53/53/53 48/48/48
f 48/48/48 53/53/53 50/50/50
f 53/53/53 52/52/52 50/50/50
f 49/49/49 54/54/54 53/53/53
f 54/54/54 52/52/52 53/53/53
f 57/57/57 56/56/56 55/55/55
f 57/57/57 58/58/58 56/56/56
f 58/58/58 59/59/59 56/56/56
f 56/56/56 60/60/60 55/55/55
f 59/59/59 60/60/60 56/56/56
f 60/60/60 61/61/61 55/55/55
f 62/62/62 60/60/60 59/59/59
f 61/61/61 60/60/60 62/62/62
f 65/65/65 64/64/64 63/63/63
f 64/64/64 66/66/66 63/63/63
f 66/66/66 67/67/67 63/63/63
f 67/67/67 68/68/68 63/63/63
f 69/69/69 65/65/65 63/63/63
f 68/68/68 69/69/69 63/63/63
f 70/70/70 65/65/65 69/69/69
f 68/68/68 71/71/71 69/69/69
f 72/72/72 70/70/70 69/69/69
f 71/71/71 72/72/72 69/69/69
f 73/73/73 70/70/70 72/72/72
f 71/71/71 74/74/74 72/72/72
f 75/75/75 73/73/73 72/72/72
f 74/74/74 75/75/75 72/72/72
f 73/73/73 75/75/75 76/76/76
f 75/75/75 74/74/74 76/76/76
f 79/79/79 78/78/78 77/77/77
f 80/80/80 78/78/78 79/79/79
f 79/79/79 77/77/77 81/81/81
f 82/82/82 80/80/80 79/79/79
f 82/82/82 79/79/79 81/81/81
f 83/83/83 80/80/80 82/82/82
f 84/84/84 82/82/82 81/81/81
f 84/84/84 81/81/81 85/85/85
f 84/84/84 85/85/85 86/86/86
f 87/87/87 83/83/83 82/82/82
f 87/87/87 82/82/82 84/84/84
f 86/86/86 87/87/87 84/84/84
f 88/88/88 83/83/83 87/87/87
f 86/86/86 88/88/88 87/87/87
f 91/91/91 90/90/90 89/89/89
f 92/92/92 90/90/90 91/91/91
f 93/93/93 92/92/92 91/91/91
f 94/94/94 91/91/91 89/89/89
f 94/94/94 93/93/93 91/91/91
f 95/95/95 94/94/94 89/89/89
f 94/94/94 96/96/96 93/93/93
f 94/94/94 95/95/95 96/96/96
