g pm0726_00_CoreSkin
v 0.0097499415 0.23399483 0.2807695
v 0.004917081 0.2315784 0.28495488
v 0.00845125 0.23335738 0.2844824
v 0.005355066 0.2313679 0.27975863
v 0.0057631056 0.23323604 0.27465227
v 4.908125E-17 0.23035386 0.27964428
v 0.010361459 0.23592578 0.2762066
v 4.908125E-17 0.23074505 0.28517988
v 0.009749946 0.2389119 0.2722529
v -0.004917081 0.23157838 0.28495488
v 0.0053550666 0.23672298 0.27048334
v 0.004917082 0.24132833 0.26806748
v 4.90849E-17 0.23611696 0.2696623
v 0.008451253 0.24180862 0.26984438
v 0.009744166 0.2455149 0.2704913
v 4.908125E-17 0.23220928 0.27406043
v -0.0057631056 0.23323601 0.27465227
v -0.005355066 0.2313679 0.27975863
v -0.009749944 0.2339948 0.2807695
v -0.008451252 0.23335738 0.2844824
v -0.010361461 0.23592578 0.27620658
v -0.009749944 0.2389119 0.2722529
v -0.005355066 0.23672298 0.27048334
v -0.004917081 0.24132833 0.2680675
v -0.008451253 0.24180862 0.26984438
v -0.0097441645 0.2455149 0.2704913
v 4.9048548E-17 0.24110651 0.2672333
v 4.9057313E-17 0.24664207 0.26684222
v -0.005353462 0.24652751 0.2678565
v -0.005759664 0.25163195 0.2697284
v -0.010347264 0.2500727 0.27242634
v -0.009744166 0.25402743 0.27540594
v 0.0053534624 0.24652751 0.2678565
v 0.005759665 0.25162953 0.26972702
v 0.010347266 0.2500727 0.27242634
v 0.009744167 0.25402743 0.27540594
v 4.9081943E-17 0.25223145 0.26870155
v 4.9116466E-17 0.25662398 0.27260527
v -0.005353462 0.25580284 0.27321166
v -0.004917082 0.25821978 0.27781975
v -0.008451253 0.25644076 0.27829224
v -0.009749944 0.25580335 0.28200516
v 0.0053534624 0.25580284 0.27321166
v 0.0049170824 0.25821978 0.27781975
v 0.008451255 0.25644076 0.27829224
v 0.009749946 0.25580332 0.28200516
v 5.0127522E-17 0.25905308 0.27759475
v 6.172064E-17 0.25944427 0.28313035
v -0.005355066 0.2584302 0.28301603
v -0.005763106 0.25656214 0.28812236
v -0.010361461 0.25387236 0.28656805
v -0.009749944 0.25088626 0.29052177
v 0.0053550666 0.2584302 0.28301603
v 0.005763105 0.2565633 0.28812027
v 0.010361459 0.25387236 0.28656805
v 0.0097499415 0.25088623 0.29052177
v 7.133445E-17 0.25758925 0.28871357
v 7.364323E-17 0.25368118 0.2931123
v -0.005355066 0.25307515 0.29229125
v -0.004917081 0.24846983 0.29470715
v -0.008451252 0.24798952 0.29293025
v -0.009744164 0.24428324 0.29228336
v -0.009749944 0.25088626 0.29052177
v 0.005355066 0.25307518 0.29229125
v 0.004917081 0.2484698 0.29470715
v 0.00845125 0.24798952 0.29293025
v 0.009744162 0.24428324 0.29228336
v 0.0097499415 0.25088623 0.29052177
v 6.3678686E-17 0.24869163 0.29554132
v 5.354032E-17 0.24315606 0.29593238
v -0.0053534596 0.24327064 0.2949181
v -0.0057596625 0.2381662 0.2930462
v 0.0053534596 0.24327062 0.2949181
v 0.0057596625 0.2381662 0.2930462
v 4.938739E-17 0.23757908 0.29408026
v 4.90929E-17 0.23317416 0.2901693
v 0.012532223 0.24686 0.28870112
v 0.013467913 0.2498886 0.28427133
v 0.013463348 0.24201804 0.28637463
v 0.010361459 0.25387236 0.28656805
v 0.009749946 0.25580332 0.28200516
v 0.010347257 0.23972543 0.2903483
v 0.009744163 0.23577073 0.28736866
v 0.0053534596 0.23399527 0.28956297
v 0.004917081 0.2315784 0.28495488
v 4.908125E-17 0.23074505 0.28517988
v 0.00845125 0.23335738 0.2844824
v -0.004917081 0.23157838 0.28495488
v 0.0097499415 0.23399483 0.2807695
v -0.0053534596 0.23399527 0.28956297
v -0.009744164 0.23577073 0.28736866
v -0.008451252 0.23335738 0.2844824
v -0.009749944 0.2339948 0.2807695
v 0.012532223 0.23758467 0.283346
v 0.013467913 0.23990953 0.27850333
v 0.010361459 0.23592578 0.2762066
v 0.009749946 0.2389119 0.2722529
v -0.01034726 0.23972543 0.2903483
v -0.013463353 0.24202044 0.28637606
v -0.012532227 0.23758464 0.283346
v -0.013467912 0.23990953 0.27850333
v -0.010361461 0.23592578 0.27620658
v -0.009749944 0.2389119 0.2722529
v 0.014652378 0.24491239 0.28137854
v 0.013463358 0.24778011 0.27639997
v -0.012532227 0.24686 0.28870112
v -0.013467914 0.2498886 0.28427133
v -0.010361461 0.25387236 0.28656805
v -0.009749944 0.25580335 0.28200516
v -0.014652378 0.24491239 0.28137854
v -0.013463354 0.24777769 0.2763986
v -0.012532228 0.25221348 0.27942863
v -0.009744166 0.25402743 0.27540594
v -0.008451253 0.25644076 0.27829224
v -0.010347264 0.2500727 0.27242634
v -0.0097441645 0.2455149 0.2704913
v -0.012532228 0.24293813 0.2740735
v -0.008451253 0.24180862 0.26984438
v 0.009744166 0.2455149 0.2704913
v 0.008451253 0.24180862 0.26984438
v 0.012532231 0.24293813 0.2740735
v 0.010347266 0.2500727 0.27242634
v 0.009744167 0.25402743 0.27540594
v 0.012532231 0.25221348 0.27942863
v 0.008451255 0.25644076 0.27829224
vt 0.8808387 0.9345195
vt 0.8778656 0.94337976
vt 0.8808387 0.94337976
vt 0.8778656 0.9345195
vt 0.8778656 0.9256594
vt 0.8748925 0.9345195
vt 0.8808387 0.9256594
vt 0.8748925 0.94337976
vt 0.8808387 0.9167993
vt 0.8719194 0.94337976
vt 0.8778656 0.9167993
vt 0.8778656 0.9079391
vt 0.8748925 0.9167993
vt 0.8808387 0.9079391
vt 0.8808387 0.89907897
vt 0.8748925 0.9256594
vt 0.8719194 0.9256594
vt 0.8719194 0.9345195
vt 0.8689463 0.9345195
vt 0.8689463 0.94337976
vt 0.8689463 0.9256594
vt 0.8689463 0.9167993
vt 0.8719194 0.9167993
vt 0.8719194 0.9079391
vt 0.8689463 0.9079391
vt 0.8689463 0.89907897
vt 0.8748925 0.9079391
vt 0.8748925 0.89907897
vt 0.8719194 0.89907897
vt 0.8719194 0.89021873
vt 0.8689463 0.89021873
vt 0.8689463 0.8813586
vt 0.8778656 0.89907897
vt 0.8778656 0.89021873
vt 0.8808387 0.89021873
vt 0.8808387 0.8813586
vt 0.8748925 0.89021873
vt 0.8748925 0.8813586
vt 0.8719194 0.8813586
vt 0.8719194 0.8724985
vt 0.8689463 0.8724985
vt 0.8689463 0.86363834
vt 0.8778656 0.8813586
vt 0.8778656 0.8724985
vt 0.8808387 0.8724985
vt 0.8808387 0.86363834
vt 0.8748925 0.8724985
vt 0.8748925 0.86363834
vt 0.8719194 0.86363834
vt 0.8719194 0.8547782
vt 0.8689463 0.8547782
vt 0.8689463 0.84591806
vt 0.8778656 0.86363834
vt 0.8778656 0.8547782
vt 0.8808387 0.8547782
vt 0.8808387 0.84591806
vt 0.8748925 0.8547782
vt 0.8748925 0.84591806
vt 0.8719194 0.84591806
vt 0.8719194 0.8370578
vt 0.8689463 0.8370578
vt 0.8689463 0.8281977
vt 0.8659732 0.8370578
vt 0.8778656 0.84591806
vt 0.8778656 0.8370578
vt 0.8808387 0.8370578
vt 0.8808387 0.8281977
vt 0.8838118 0.8370578
vt 0.8748925 0.8370578
vt 0.8748925 0.8281977
vt 0.8719194 0.8281977
vt 0.8719194 0.8193376
vt 0.8778656 0.8281977
vt 0.8778656 0.8193376
vt 0.8748925 0.8193376
vt 0.8748925 0.8104774
vt 0.8838118 0.8281977
vt 0.88678485 0.8281977
vt 0.8838118 0.8193376
vt 0.88678485 0.8370578
vt 0.88975793 0.8370578
vt 0.8808387 0.8193376
vt 0.8808387 0.8104774
vt 0.8778656 0.8104774
vt 0.8778656 0.80161726
vt 0.8748925 0.80161726
vt 0.8808387 0.80161726
vt 0.8719194 0.80161726
vt 0.8838118 0.80161726
vt 0.8719194 0.8104774
vt 0.8689463 0.8104774
vt 0.8689463 0.80161726
vt 0.8659732 0.80161726
vt 0.8838118 0.8104774
vt 0.88678485 0.8104774
vt 0.88678485 0.80161726
vt 0.88975793 0.80161726
vt 0.8689463 0.8193376
vt 0.8659732 0.8193376
vt 0.8659732 0.8104774
vt 0.8630001 0.8104774
vt 0.8630001 0.80161726
vt 0.86002696 0.80161726
vt 0.88678485 0.8193376
vt 0.88975793 0.8193376
vt 0.8659732 0.8281977
vt 0.8630001 0.8281977
vt 0.8630001 0.8370578
vt 0.86002696 0.8370578
vt 0.8630001 0.8193376
vt 0.86002696 0.8193376
vt 0.86002696 0.8281977
vt 0.8570539 0.8281977
vt 0.8570539 0.8370578
vt 0.8570539 0.8193376
vt 0.8570539 0.8104774
vt 0.86002696 0.8104774
vt 0.8570539 0.80161726
vt 0.8927311 0.8104774
vt 0.8927311 0.80161726
vt 0.88975793 0.8104774
vt 0.8927311 0.8193376
vt 0.8927311 0.8281977
vt 0.88975793 0.8281977
vt 0.8927311 0.8370578
vn 0.6652081 -0.7456914 -0.037979994
vn 0.33998567 -0.90831435 0.24366955
vn 0.57761174 -0.78836626 0.21176217
vn 0.36428753 -0.9243952 -0.113084435
vn 0.3799117 -0.8010876 -0.46252105
vn 9.352486E-07 -0.9910467 -0.13351502
vn 0.7072553 -0.612224 -0.35351342
vn 3.9890372E-07 -0.965874 0.2590123
vn 0.6651743 -0.40571332 -0.62684923
vn -0.33998805 -0.9083133 0.24367008
vn 0.36427042 -0.56011224 -0.74403054
vn 0.3399806 -0.24311906 -0.9084638
vn -1.6032734E-06 -0.61112523 -0.79153395
vn 0.5775751 -0.2107805 -0.7886563
vn 0.66515803 0.038836338 -0.745692
vn 4.0114992E-07 -0.86602104 -0.5000075
vn -0.3799112 -0.8010887 -0.46251962
vn -0.36428759 -0.92439526 -0.113083445
vn -0.665213 -0.74568737 -0.037972726
vn -0.57761705 -0.7883616 0.21176526
vn -0.70725507 -0.61222684 -0.353509
vn -0.6651684 -0.40571886 -0.62685186
vn -0.36427057 -0.5601116 -0.74403095
vn -0.3399825 -0.24311055 -0.9084653
vn -0.57756954 -0.21077737 -0.7886611
vn -0.66515225 0.038839094 -0.7456971
vn -3.789577E-06 -0.25861138 -0.9659814
vn -3.9418223E-06 0.13382328 -0.9910053
vn -0.36448857 0.11359828 -0.92425287
vn -0.38019428 0.46247914 -0.80097777
vn -0.70706624 0.3535969 -0.6123941
vn -0.66516554 0.6263813 -0.40644968
vn 0.36448568 0.11358413 -0.92425585
vn 0.3801934 0.4624653 -0.8009862
vn 0.70706534 0.3535974 -0.6123947
vn 0.6651592 0.62638247 -0.4064583
vn -2.0059109E-07 0.5000534 -0.8659946
vn 2.538802E-06 0.7913786 -0.61132634
vn -0.36449692 0.74368405 -0.560425
vn -0.33999705 0.9083166 -0.24364509
vn -0.57757807 0.78839266 -0.21175621
vn -0.665164 0.74573106 0.0379727
vn 0.364498 0.7436738 -0.56043774
vn 0.33999503 0.90831286 -0.24366198
vn 0.57757294 0.7883931 -0.21176831
vn 0.6651589 0.7457361 0.03796348
vn 7.9778926E-07 0.965886 -0.25896743
vn -2.6721154E-06 0.99104804 0.13350572
vn -0.36427596 0.9244008 0.113076106
vn -0.37990338 0.8010868 0.46252933
vn -0.70721364 0.61228377 0.35349318
vn -0.66517115 0.40572214 0.6268467
vn 0.3642723 0.92440397 0.11306216
vn 0.3799042 0.80109435 0.4625155
vn 0.7072142 0.61228526 0.35348964
vn 0.6651771 0.4057236 0.6268395
vn 1.3371664E-07 0.86602813 0.49999526
vn 4.141762E-06 0.6111437 0.7915197
vn -0.36427647 0.5601217 0.7440203
vn -0.33998492 0.24313948 0.9084567
vn -0.5775922 0.2107901 0.7886411
vn -0.66519296 -0.038822725 0.7456616
vn -0.66517115 0.40572214 0.6268467
vn 0.3642823 0.5601305 0.7440109
vn 0.33999202 0.24314581 0.9084522
vn 0.5775977 0.21079181 0.7886366
vn 0.6651991 -0.038831398 0.7456556
vn 0.6651771 0.4057236 0.6268395
vn 2.5263396E-06 0.2586694 0.96596587
vn 2.137942E-06 -0.13374735 0.9910155
vn -0.36450467 -0.11352497 0.92425567
vn -0.3802075 -0.46244508 0.80099106
vn 0.3645084 -0.113524795 0.9242541
vn 0.38020763 -0.462449 0.80098885
vn -0 -0.49995404 0.866052
vn -1.0689685E-06 -0.79133296 0.6113855
vn 0.8572198 0.13283335 0.49752337
vn 0.9251134 0.32883376 0.18982506
vn 0.92493874 -0.19005929 0.3291895
vn 0.7072142 0.61228526 0.35348964
vn 0.6651589 0.7457361 0.03796348
vn 0.70714796 -0.35352868 0.61233914
vn 0.6652081 -0.62635046 0.40642747
vn 0.3644996 -0.74363273 0.5604912
vn 0.33998567 -0.90831435 0.24366955
vn 3.9890372E-07 -0.965874 0.2590123
vn 0.57761174 -0.78836626 0.21176217
vn -0.33998805 -0.9083133 0.24367008
vn 0.6652081 -0.7456914 -0.037979994
vn -0.3645026 -0.74363077 0.5604919
vn -0.66521436 -0.6263393 0.4064344
vn -0.57761705 -0.7883616 0.21176526
vn -0.665213 -0.74568737 -0.037972726
vn 0.8572598 -0.4972204 0.1337067
vn 0.92514724 -0.32871333 -0.18986884
vn 0.7072553 -0.612224 -0.35351342
vn 0.6651743 -0.40571332 -0.62684923
vn -0.7071478 -0.35351872 0.612345
vn -0.92493844 -0.19004287 0.3291998
vn -0.8572639 -0.4972101 0.13371846
vn -0.92514735 -0.32871684 -0.1898622
vn -0.70725507 -0.61222684 -0.353509
vn -0.6651684 -0.40571886 -0.62685186
vn 1 0.00011714512 -7.5221615E-05
vn 0.9248694 0.19017476 -0.32931754
vn -0.8572161 0.1328462 0.49752638
vn -0.92511284 0.32883698 0.18982194
vn -0.70721364 0.61228377 0.35349318
vn -0.665164 0.74573106 0.0379727
vn -1 0.00011661024 -7.702695E-05
vn -0.9248699 0.19016126 -0.32932413
vn -0.8571577 0.49737254 -0.1337954
vn -0.66516554 0.6263813 -0.40644968
vn -0.57757807 0.78839266 -0.21175621
vn -0.70706624 0.3535969 -0.6123941
vn -0.66515225 0.038839094 -0.7456971
vn -0.8571792 -0.13274129 -0.49761784
vn -0.57756954 -0.21077737 -0.7886611
vn 0.66515803 0.038836338 -0.745692
vn 0.5775751 -0.2107805 -0.7886563
vn 0.85718423 -0.13272879 -0.4976125
vn 0.70706534 0.3535974 -0.6123947
vn 0.6651592 0.62638247 -0.4064583
vn 0.8571534 0.49738142 -0.13378991
vn 0.57757294 0.7883931 -0.21176831
g pm0726_00_CoreSkin_0
f 3/3/3 2/2/2 1/1/1
f 2/2/2 4/4/4 1/1/1
f 1/1/1 4/4/4 5/5/5
f 6/6/6 4/4/4 2/2/2
f 5/5/5 4/4/4 6/6/6
f 7/7/7 1/1/1 5/5/5
f 8/8/8 6/6/6 2/2/2
f 7/7/7 5/5/5 9/9/9
f 8/8/8 10/10/10 6/6/6
f 5/5/5 11/11/11 9/9/9
f 9/9/9 11/11/11 12/12/12
f 13/13/13 11/11/11 5/5/5
f 12/12/12 11/11/11 13/13/13
f 14/14/14 9/9/9 12/12/12
f 14/14/14 12/12/12 15/15/15
f 16/16/16 5/5/5 6/6/6
f 16/16/16 13/13/13 5/5/5
f 16/16/16 6/6/6 17/17/17
f 16/16/16 17/17/17 13/13/13
f 10/10/10 18/18/18 6/6/6
f 6/6/6 18/18/18 17/17/17
f 19/19/19 18/18/18 10/10/10
f 17/17/17 18/18/18 19/19/19
f 20/20/20 19/19/19 10/10/10
f 21/21/21 17/17/17 19/19/19
f 21/21/21 22/22/22 17/17/17
f 22/22/22 23/23/23 17/17/17
f 17/17/17 23/23/23 13/13/13
f 24/24/24 23/23/23 22/22/22
f 13/13/13 23/23/23 24/24/24
f 25/25/25 24/24/24 22/22/22
f 25/25/25 26/26/26 24/24/24
f 27/27/27 13/13/13 24/24/24
f 27/27/27 24/24/24 28/28/28
f 27/27/27 12/12/12 13/13/13
f 27/27/27 28/28/28 12/12/12
f 26/26/26 29/29/29 24/24/24
f 24/24/24 29/29/29 28/28/28
f 30/30/30 29/29/29 26/26/26
f 28/28/28 29/29/29 30/30/30
f 31/31/31 30/30/30 26/26/26
f 31/31/31 32/32/32 30/30/30
f 28/28/28 33/33/33 12/12/12
f 34/34/34 33/33/33 28/28/28
f 12/12/12 33/33/33 15/15/15
f 15/15/15 33/33/33 34/34/34
f 35/35/35 15/15/15 34/34/34
f 35/35/35 34/34/34 36/36/36
f 37/37/37 28/28/28 30/30/30
f 37/37/37 34/34/34 28/28/28
f 37/37/37 30/30/30 38/38/38
f 37/37/37 38/38/38 34/34/34
f 32/32/32 39/39/39 30/30/30
f 30/30/30 39/39/39 38/38/38
f 40/40/40 39/39/39 32/32/32
f 38/38/38 39/39/39 40/40/40
f 41/41/41 40/40/40 32/32/32
f 41/41/41 42/42/42 40/40/40
f 34/34/34 43/43/43 36/36/36
f 38/38/38 43/43/43 34/34/34
f 36/36/36 43/43/43 44/44/44
f 44/44/44 43/43/43 38/38/38
f 45/45/45 36/36/36 44/44/44
f 45/45/45 44/44/44 46/46/46
f 47/47/47 38/38/38 40/40/40
f 47/47/47 44/44/44 38/38/38
f 47/47/47 40/40/40 48/48/48
f 47/47/47 48/48/48 44/44/44
f 42/42/42 49/49/49 40/40/40
f 40/40/40 49/49/49 48/48/48
f 50/50/50 49/49/49 42/42/42
f 48/48/48 49/49/49 50/50/50
f 51/51/51 50/50/50 42/42/42
f 51/51/51 52/52/52 50/50/50
f 44/44/44 53/53/53 46/46/46
f 48/48/48 53/53/53 44/44/44
f 46/46/46 53/53/53 54/54/54
f 54/54/54 53/53/53 48/48/48
f 55/55/55 46/46/46 54/54/54
f 55/55/55 54/54/54 56/56/56
f 57/57/57 48/48/48 50/50/50
f 57/57/57 54/54/54 48/48/48
f 57/57/57 50/50/50 58/58/58
f 57/57/57 58/58/58 54/54/54
f 52/52/52 59/59/59 50/50/50
f 50/50/50 59/59/59 58/58/58
f 60/60/60 59/59/59 52/52/52
f 58/58/58 59/59/59 60/60/60
f 61/61/61 60/60/60 52/52/52
f 61/61/61 62/62/62 60/60/60
f 61/61/61 63/63/63 62/62/62
f 54/54/54 64/64/64 56/56/56
f 58/58/58 64/64/64 54/54/54
f 56/56/56 64/64/64 65/65/65
f 65/65/65 64/64/64 58/58/58
f 66/66/66 56/56/56 65/65/65
f 66/66/66 65/65/65 67/67/67
f 66/66/66 67/67/67 68/68/68
f 69/69/69 58/58/58 60/60/60
f 69/69/69 65/65/65 58/58/58
f 69/69/69 60/60/60 70/70/70
f 69/69/69 70/70/70 65/65/65
f 62/62/62 71/71/71 60/60/60
f 60/60/60 71/71/71 70/70/70
f 72/72/72 71/71/71 62/62/62
f 70/70/70 71/71/71 72/72/72
f 65/65/65 73/73/73 67/67/67
f 70/70/70 73/73/73 65/65/65
f 74/74/74 73/73/73 70/70/70
f 67/67/67 73/73/73 74/74/74
f 75/75/75 70/70/70 72/72/72
f 75/75/75 74/74/74 70/70/70
f 75/75/75 72/72/72 76/76/76
f 75/75/75 76/76/76 74/74/74
f 67/67/67 77/77/77 68/68/68
f 68/68/68 77/77/77 78/78/78
f 79/79/79 77/77/77 67/67/67
f 78/78/78 77/77/77 79/79/79
f 80/80/80 68/68/68 78/78/78
f 80/80/80 78/78/78 81/81/81
f 82/82/82 67/67/67 74/74/74
f 82/82/82 79/79/79 67/67/67
f 82/82/82 74/74/74 83/83/83
f 82/82/82 83/83/83 79/79/79
f 76/76/76 84/84/84 74/74/74
f 74/74/74 84/84/84 83/83/83
f 85/85/85 84/84/84 76/76/76
f 83/83/83 84/84/84 85/85/85
f 86/86/86 85/85/85 76/76/76
f 87/87/87 83/83/83 85/85/85
f 86/86/86 76/76/76 88/88/88
f 87/87/87 89/89/89 83/83/83
f 76/76/76 90/90/90 88/88/88
f 88/88/88 90/90/90 91/91/91
f 72/72/72 90/90/90 76/76/76
f 91/91/91 90/90/90 72/72/72
f 92/92/92 88/88/88 91/91/91
f 92/92/92 91/91/91 93/93/93
f 89/89/89 94/94/94 83/83/83
f 95/95/95 94/94/94 89/89/89
f 83/83/83 94/94/94 79/79/79
f 79/79/79 94/94/94 95/95/95
f 96/96/96 95/95/95 89/89/89
f 96/96/96 97/97/97 95/95/95
f 98/98/98 91/91/91 72/72/72
f 98/98/98 99/99/99 91/91/91
f 98/98/98 72/72/72 62/62/62
f 98/98/98 62/62/62 99/99/99
f 91/91/91 100/100/100 93/93/93
f 99/99/99 100/100/100 91/91/91
f 93/93/93 100/100/100 101/101/101
f 101/101/101 100/100/100 99/99/99
f 102/102/102 93/93/93 101/101/101
f 102/102/102 101/101/101 103/103/103
f 104/104/104 79/79/79 95/95/95
f 104/104/104 95/95/95 105/105/105
f 104/104/104 78/78/78 79/79/79
f 104/104/104 105/105/105 78/78/78
f 62/62/62 106/106/106 99/99/99
f 99/99/99 106/106/106 107/107/107
f 63/63/63 106/106/106 62/62/62
f 107/107/107 106/106/106 63/63/63
f 108/108/108 107/107/107 63/63/63
f 108/108/108 109/109/109 107/107/107
f 110/110/110 101/101/101 99/99/99
f 110/110/110 99/99/99 107/107/107
f 110/110/110 111/111/111 101/101/101
f 110/110/110 107/107/107 111/111/111
f 109/109/109 112/112/112 107/107/107
f 107/107/107 112/112/112 111/111/111
f 113/113/113 112/112/112 109/109/109
f 111/111/111 112/112/112 113/113/113
f 114/114/114 113/113/113 109/109/109
f 115/115/115 111/111/111 113/113/113
f 115/115/115 116/116/116 111/111/111
f 111/111/111 117/117/117 101/101/101
f 116/116/116 117/117/117 111/111/111
f 101/101/101 117/117/117 103/103/103
f 103/103/103 117/117/117 116/116/116
f 118/118/118 103/103/103 116/116/116
f 120/120/120 119/119/119 97/97/97
f 119/119/119 121/121/121 97/97/97
f 97/97/97 121/121/121 95/95/95
f 95/95/95 121/121/121 105/105/105
f 105/105/105 121/121/121 119/119/119
f 122/122/122 105/105/105 119/119/119
f 122/122/122 123/123/123 105/105/105
f 123/123/123 124/124/124 105/105/105
f 105/105/105 124/124/124 78/78/78
f 78/78/78 124/124/124 81/81/81
f 81/81/81 124/124/124 123/123/123
f 125/125/125 81/81/81 123/123/123
