g pm0722_00_OffsetBSkin
v -0.09162017 0.18696801 -0.08431661
v -0.093301095 0.17353159 -0.08554802
v -0.06917513 0.17355305 -0.10263504
v -0.06864375 0.18698218 -0.1003452
v -0.046142735 0.17355771 -0.11282257
v -0.08960755 0.19863892 -0.0827557
v -0.04555692 0.18698709 -0.11037439
v -0.022387067 0.1735635 -0.11828797
v -0.022240335 0.18698403 -0.115999565
v -0.021851923 0.1986385 -0.11344728
v -0.06780897 0.1986458 -0.097581595
v -0.044852227 0.1986437 -0.107683554
v -0.06602285 0.21161753 -0.094301224
v -0.086561665 0.21162061 -0.08046311
v -0.04377285 0.21158491 -0.10429343
v -0.021157648 0.2115887 -0.110086486
v -0.042261027 0.2240414 -0.100778
v -0.020251827 0.22407354 -0.1062834
v -0.019214075 0.23624513 -0.10125615
v -0.040216368 0.23625608 -0.09640878
v -0.06383122 0.22412704 -0.09069328
v -0.083218865 0.22414504 -0.07731473
v -0.06092474 0.23635049 -0.08629962
v -0.07938533 0.23635782 -0.07341246
v 0.09162017 0.18696801 -0.08431661
v 0.06917513 0.17355305 -0.10263504
v 0.093301095 0.17353159 -0.08554802
v 0.06864375 0.18698218 -0.1003452
v 0.046142735 0.17355771 -0.11282257
v 0.08960755 0.19863892 -0.0827557
v 0.04555692 0.18698709 -0.11037439
v 0.022387067 0.1735635 -0.11828797
v 0.022240335 0.18698403 -0.115999565
v 0.021851923 0.1986385 -0.11344728
v 0.06780896 0.1986458 -0.097581595
v 0.044852227 0.1986437 -0.107683554
v 0.06602285 0.21161753 -0.094301224
v 0.086561665 0.21162061 -0.08046311
v 0.04377285 0.21158491 -0.10429343
v 0.021157648 0.2115887 -0.110086486
v 0.042261027 0.2240414 -0.100778
v 0.020251827 0.22407354 -0.1062834
v 0.019214073 0.23624513 -0.10125615
v 0.040216368 0.23625608 -0.09640878
v 0.06383122 0.22412704 -0.09069328
v 0.083218865 0.22414504 -0.07731473
v 0.06092474 0.23635049 -0.08629962
v 0.07938533 0.23635782 -0.07341246
vt 0.44226813 1.8308
vt 0.44427204 1.7990599
vt 0.2972722 1.7990599
vt 0.30117178 1.8308
vt 0.17207575 1.7990599
vt 0.440948 1.858484
vt 0.17332387 1.8308
vt 0.049691916 1.7990599
vt 0.050879955 1.8308
vt 0.051076174 1.858484
vt 0.30512 1.858664
vt 0.17490005 1.858484
vt 0.30649996 1.8902001
vt 0.43805194 1.8902001
vt 0.17591214 1.8902001
vt 0.05059576 1.8902001
vt 0.17525983 1.921984
vt 0.049355984 1.921984
vt 0.048388004 1.954216
vt 0.17210793 1.954216
vt 0.3071959 1.921984
vt 0.43754005 1.921984
vt 0.30716372 1.954216
vt 0.43797612 1.954216
vt 0.4422679 1.8308
vt 0.29727197 1.7990599
vt 0.44427204 1.7990599
vt 0.30117202 1.8308
vt 0.17207599 1.7990599
vt 0.440948 1.858484
vt 0.17332411 1.8308
vt 0.049692154 1.7990599
vt 0.050879955 1.8308
vt 0.051075935 1.858484
vt 0.30512 1.858664
vt 0.17490005 1.858484
vt 0.30649996 1.8902001
vt 0.43805218 1.8902001
vt 0.1759119 1.8902001
vt 0.050596 1.8902001
vt 0.17526007 1.921984
vt 0.049355984 1.921984
vt 0.048388004 1.954216
vt 0.17210817 1.954216
vt 0.30719614 1.921984
vt 0.43754005 1.921984
vt 0.30716395 1.954216
vt 0.43797588 1.954216
vn -0.5202532 0.20028801 -0.8301936
vn -0.51623255 0.17719851 -0.8379169
vn -0.45387056 0.17986475 -0.8727257
vn -0.45468655 0.20340918 -0.867113
vn -0.3488729 0.18549725 -0.9186285
vn -0.51389706 0.24585941 -0.8218655
vn -0.3449934 0.20717596 -0.9154549
vn -0.2815155 0.1893455 -0.9406897
vn -0.27377942 0.20844887 -0.9389323
vn -0.27345031 0.24441285 -0.9303157
vn -0.45018533 0.2469155 -0.85811764
vn -0.3433159 0.24627073 -0.906358
vn -0.4443826 0.29723045 -0.8450906
vn -0.5054279 0.29875273 -0.8094995
vn -0.34124768 0.29204524 -0.8934538
vn -0.2728016 0.28725797 -0.9181842
vn -0.3380862 0.33747554 -0.878526
vn -0.27105215 0.3300477 -0.904212
vn -0.2761604 0.35622162 -0.8926598
vn -0.33788997 0.36547783 -0.86732715
vn -0.4383083 0.34521356 -0.8298876
vn -0.49721763 0.34715965 -0.7951445
vn -0.43149474 0.3732744 -0.8212664
vn -0.4864775 0.3738219 -0.7896815
vn 0.5202532 0.20028798 -0.8301936
vn 0.45387045 0.17986473 -0.8727258
vn 0.5162323 0.1771984 -0.83791703
vn 0.4546865 0.20340915 -0.867113
vn 0.34887272 0.18549725 -0.91862875
vn 0.51389706 0.24585925 -0.8218656
vn 0.34499338 0.20717585 -0.915455
vn 0.28151548 0.18934539 -0.9406898
vn 0.2737792 0.20844884 -0.9389323
vn 0.27345023 0.24441266 -0.9303158
vn 0.45018527 0.2469155 -0.85811764
vn 0.3433159 0.24627073 -0.906358
vn 0.44438246 0.29723042 -0.84509075
vn 0.50542766 0.29875246 -0.8094997
vn 0.3412475 0.29204515 -0.8934539
vn 0.27280158 0.2872579 -0.9181842
vn 0.33808607 0.3374754 -0.8785261
vn 0.27105218 0.33004746 -0.9042121
vn 0.27616027 0.35622138 -0.89265996
vn 0.33788967 0.36547753 -0.86732733
vn 0.43830806 0.34521356 -0.82988775
vn 0.4972173 0.34715945 -0.7951448
vn 0.43149433 0.3732742 -0.82126665
vn 0.4864771 0.37382174 -0.7896818
g pm0722_00_OffsetBSkin_0
f 3/3/3 2/2/2 1/1/1
f 4/4/4 3/3/3 1/1/1
f 5/5/5 3/3/3 4/4/4
f 4/4/4 1/1/1 6/6/6
f 7/7/7 5/5/5 4/4/4
f 5/5/5 7/7/7 8/8/8
f 7/7/7 9/9/9 8/8/8
f 10/10/10 9/9/9 7/7/7
f 11/11/11 4/4/4 6/6/6
f 7/7/7 4/4/4 11/11/11
f 12/12/12 10/10/10 7/7/7
f 12/12/12 7/7/7 11/11/11
f 11/11/11 6/6/6 13/13/13
f 11/11/11 13/13/13 12/12/12
f 6/6/6 14/14/14 13/13/13
f 12/12/12 15/15/15 10/10/10
f 13/13/13 15/15/15 12/12/12
f 15/15/15 16/16/16 10/10/10
f 15/15/15 17/17/17 16/16/16
f 15/15/15 13/13/13 17/17/17
f 17/17/17 18/18/18 16/16/16
f 19/19/19 18/18/18 17/17/17
f 20/20/20 19/19/19 17/17/17
f 21/21/21 13/13/13 14/14/14
f 13/13/13 21/21/21 17/17/17
f 17/17/17 21/21/21 20/20/20
f 22/22/22 21/21/21 14/14/14
f 21/21/21 23/23/23 20/20/20
f 23/23/23 21/21/21 22/22/22
f 24/24/24 23/23/23 22/22/22
f 27/27/27 26/26/26 25/25/25
f 26/26/26 28/28/28 25/25/25
f 26/26/26 29/29/29 28/28/28
f 25/25/25 28/28/28 30/30/30
f 29/29/29 31/31/31 28/28/28
f 31/31/31 29/29/29 32/32/32
f 33/33/33 31/31/31 32/32/32
f 33/33/33 34/34/34 31/31/31
f 28/28/28 35/35/35 30/30/30
f 28/28/28 31/31/31 35/35/35
f 34/34/34 36/36/36 31/31/31
f 31/31/31 36/36/36 35/35/35
f 30/30/30 35/35/35 37/37/37
f 37/37/37 35/35/35 36/36/36
f 38/38/38 30/30/30 37/37/37
f 39/39/39 36/36/36 34/34/34
f 39/39/39 37/37/37 36/36/36
f 40/40/40 39/39/39 34/34/34
f 41/41/41 39/39/39 40/40/40
f 37/37/37 39/39/39 41/41/41
f 42/42/42 41/41/41 40/40/40
f 42/42/42 43/43/43 41/41/41
f 43/43/43 44/44/44 41/41/41
f 37/37/37 45/45/45 38/38/38
f 45/45/45 37/37/37 41/41/41
f 45/45/45 41/41/41 44/44/44
f 45/45/45 46/46/46 38/38/38
f 47/47/47 45/45/45 44/44/44
f 45/45/45 47/47/47 46/46/46
f 47/47/47 48/48/48 46/46/46
