g pm0720_12_LArmC2Skin
v 2.6348948 -0.13489513 1.4784884
v 2.5 -0.11143478 1.2584096
v 2.5 -0.19750017 1.4784884
v 2.576111 -0.07611134 1.2584095
v 2.6975002 1.4555432E-08 1.4784884
v 2.5 -0.031796973 1.123861
v 2.611435 1.6980179E-08 1.2584096
v 2.6348948 0.13489516 1.4784884
v 2.531797 1.8476769E-08 1.123861
v 2.4999998 1.9062698E-08 1.0984883
v 2.576111 0.07611137 1.2584095
v 2.5 0.11143482 1.2584096
v 2.5 0.1975002 1.4784884
v 2.365105 0.13489518 1.4784884
v 2.5 0.031797014 1.123861
v 2.4999998 1.9062698E-08 1.0984883
v 2.4682028 1.828947E-08 1.123861
v 2.4238884 0.07611137 1.2584095
v 2.3024995 1.4555432E-08 1.4784884
v 2.388565 1.6326744E-08 1.2584096
v 2.3651047 -0.13489513 1.4784884
v 2.4238884 -0.07611134 1.2584095
v 2.5 -0.19750017 1.4784884
v 2.5 -0.11143478 1.2584096
v 2.5 -0.031796973 1.123861
v 2.4999998 1.9062698E-08 1.0984883
v 2.6286635 -0.22285156 1.5572785
v 2.5 -0.29727066 1.5124938
v 2.5 -0.25732678 1.5572784
v 2.6486351 -0.2574439 1.5124938
v 2.7228515 -0.12866339 1.5572784
v 2.5 -0.2824264 1.4573131
v 2.757444 -0.14863534 1.5124938
v 2.7573268 1.649911E-08 1.5572784
v 2.641213 -0.24458842 1.4573131
v 2.5 -0.24 1.4392529
v 2.7972708 -2.8423607E-16 1.5124938
v 2.7228515 0.12866342 1.5572784
v 2.7445886 -0.14121321 1.4573133
v 2.663923 -0.16392303 1.4392532
v 2.5 -0.19750017 1.4784884
v 2.6348948 -0.13489513 1.4784884
v 2.757444 0.14863533 1.5124938
v 2.6286633 0.22285154 1.5572778
v 2.7824264 -1.7881396E-09 1.4573131
v 2.74 -2.6822093E-09 1.4392529
v 2.6975002 1.4555432E-08 1.4784884
v 2.6486351 0.2574439 1.5124938
v 2.5 0.2573268 1.5572784
v 2.744588 0.14121318 1.457313
v 2.663923 0.16392303 1.4392529
v 2.6348948 0.13489516 1.4784884
v 2.5 0.29727066 1.5124938
v 2.3713365 0.22285154 1.5572778
v 2.641213 0.24458842 1.4573135
v 2.5 0.24 1.4392529
v 2.5 0.1975002 1.4784884
v 2.5 0.2824264 1.4573132
v 2.3513646 0.2574439 1.5124938
v 2.2771485 0.12866342 1.5572784
v 2.336077 0.16392303 1.4392529
v 2.365105 0.13489518 1.4784884
v 2.3587868 0.24458845 1.4573135
v 2.242556 0.14863533 1.5124938
v 2.2426732 1.649911E-08 1.5572784
v 2.2554114 0.1412132 1.4573131
v 2.2027292 -2.8423607E-16 1.5124937
v 2.2771485 -0.12866339 1.5572784
v 2.26 -2.6822093E-09 1.4392529
v 2.3024995 1.4555432E-08 1.4784884
v 2.2175736 -1.7881396E-09 1.4573131
v 2.242556 -0.14863533 1.5124938
v 2.3713365 -0.22285154 1.5572784
v 2.336077 -0.16392303 1.4392532
v 2.3651047 -0.13489513 1.4784884
v 2.2554114 -0.1412132 1.4573132
v 2.3513646 -0.2574439 1.5124938
v 2.5 -0.25732678 1.5572784
v 2.5 -0.29727066 1.5124938
v 2.3587868 -0.24458842 1.4573131
v 2.5 -0.2824264 1.4573131
v 2.5 -0.24 1.4392529
v 2.5 -0.19750017 1.4784884
vt 0.32804012 0.7222011
vt 0.4513421 0.7734375
vt 0.30728292 0.7734375
vt 0.46312046 0.7499378
vt 0.38340044 0.6771476
vt 0.54726315 0.77343726
vt 0.48971367 0.7295747
vt 0.47247124 0.6472647
vt 0.55518866 0.7614267
vt 0.578125 0.7734375
vt 0.53058386 0.7163396
vt 0.578125 0.7110753
vt 0.578125 0.63433933
vt 0.68377876 0.6472647
vt 0.578125 0.7564328
vt 0.578125 0.7734375
vt 0.60106134 0.7614267
vt 0.6256666 0.7163396
vt 0.77284956 0.6771476
vt 0.66653633 0.7295749
vt 0.8282099 0.7222011
vt 0.69312906 0.7499378
vt 0.8489671 0.7734375
vt 0.7049079 0.7734375
vt 0.60898685 0.77343726
vt 0.578125 0.7734375
vt 0.8993144 0.98731613
vt 0.9798417 0.9702184
vt 0.9798417 0.98731613
vt 0.8990073 0.9702184
vt 0.82045794 0.98731613
vt 0.9798417 0.9530723
vt 0.82076454 0.9702184
vt 0.73993397 0.98731613
vt 0.89860535 0.9530723
vt 0.9798417 0.93622255
vt 0.7399311 0.9702184
vt 0.65939283 0.98731613
vt 0.8211632 0.95307255
vt 0.859879 0.9362223
vt 0.9798417 0.91861725
vt 0.8598776 0.91861725
vt 0.65909576 0.9702184
vt 0.5805235 0.98731613
vt 0.7399316 0.9530723
vt 0.739933 0.93622255
vt 0.7399359 0.91861725
vt 0.580843 0.9702184
vt 0.50002575 0.98731613
vt 0.6587 0.9530723
vt 0.619987 0.9362223
vt 0.6199894 0.91861725
vt 0.50002575 0.9702184
vt 0.41952324 0.98731613
vt 0.58125114 0.9530723
vt 0.5000248 0.93622255
vt 0.5000248 0.91861725
vt 0.5000248 0.9530723
vt 0.41920376 0.9702184
vt 0.3406458 0.98731613
vt 0.38005638 0.9362223
vt 0.3800516 0.91861725
vt 0.4187956 0.9530723
vt 0.34094334 0.9702184
vt 0.26009226 0.98731613
vt 0.34133768 0.9530723
vt 0.26009512 0.9702184
vt 0.17955875 0.98731613
vt 0.2600937 0.93622255
vt 0.26009083 0.91861725
vt 0.2600956 0.9530723
vt 0.17925167 0.9702184
vt 0.1006918 0.98731613
vt 0.14013338 0.9362223
vt 0.14013481 0.91861725
vt 0.17885256 0.9530723
vt 0.10099983 0.9702184
vt 0.02015829 0.98731613
vt 0.02015829 0.9702184
vt 0.10140228 0.9530723
vt 0.02015829 0.9530723
vt 0.02015829 0.93622255
vt 0.02015829 0.91861725
vn 0.6350522 -0.6142747 -0.4683751
vn -0.0026792285 -0.8950587 -0.44594032
vn 0.0037778697 -0.8785024 -0.4777229
vn 0.63365364 -0.62750375 -0.45246223
vn 0.8803014 0.003951853 -0.47439834
vn -0.0064248443 -0.7165245 -0.6975323
vn 0.89505845 -0.0026786919 -0.4459406
vn 0.62905926 0.62037945 -0.46841645
vn 0.7165239 -0.006422759 -0.69753295
vn -0.0065721874 -0.0062997937 -0.99995863
vn 0.6274999 0.6336572 -0.45246267
vn -0.0026778574 0.89505845 -0.44594064
vn -0.0037781992 0.8785024 -0.4777229
vn -0.629058 0.62037975 -0.46841747
vn -0.00642228 0.7165245 -0.6975323
vn -0.0065721874 -0.0062997937 -0.99995863
vn -0.71652615 -0.0064184675 -0.6975308
vn -0.62750167 0.6336549 -0.45246342
vn -0.8803018 -0.003951296 -0.47439754
vn -0.8950583 -0.0026776788 -0.4459411
vn -0.62905675 -0.62038034 -0.46841833
vn -0.63365346 -0.62750334 -0.452463
vn 0.0037778697 -0.8785024 -0.4777229
vn -0.0026792285 -0.8950587 -0.44594032
vn -0.0064248443 -0.7165245 -0.6975323
vn -0.0065721874 -0.0062997937 -0.99995863
vn 0.16899085 -0.33448195 0.9271267
vn -0.0013079047 -0.949116 0.31492403
vn -7.57575E-05 -0.39439377 0.9189415
vn 0.4420965 -0.8433492 0.3054717
vn 0.20516303 -0.14809948 0.96745783
vn -4.8458583E-05 -0.67240554 -0.74018294
vn 0.7544385 -0.5288817 0.3887242
vn 0.15542212 -0.00010031464 0.98784816
vn 0.30800685 -0.5976868 -0.74020416
vn -7.355213E-05 -0.21282096 -0.97709125
vn 0.85049695 -0.0069448343 0.52593416
vn 0.20515881 0.14809787 0.9674589
vn 0.48346153 -0.34119952 -0.8061315
vn 0.026188856 -0.02872265 -0.99924433
vn -6.5565115E-07 0.3692012 -0.92934954
vn -0.4312319 0.5588349 -0.7083379
vn 0.754432 0.5288806 0.3887385
vn 0.16899073 0.33448207 0.9271267
vn 0.48341802 0.0013846159 -0.87538856
vn -0.020679174 -6.5565104E-07 -0.9997862
vn -0.7044665 0 -0.70973724
vn 0.44210014 0.84335184 0.30545905
vn -7.492303E-05 0.3943933 0.9189417
vn 0.48345715 0.34119648 -0.80613524
vn 0.026189087 0.028726218 -0.9992442
vn -0.43122885 -0.55883414 -0.70834035
vn -0.0013078451 0.9491164 0.31492254
vn -0.16900504 0.33450735 0.927115
vn 0.3080093 0.5976892 -0.74020123
vn -7.4267395E-05 0.21281876 -0.9770917
vn -8.940697E-07 -0.3692017 -0.9293493
vn -4.762411E-05 0.6724048 -0.74018365
vn -0.44208318 0.8433618 0.30545592
vn -0.20515217 0.14809918 0.96746016
vn -0.026188672 0.028724909 -0.9992442
vn 0.43121803 -0.5587848 -0.7083858
vn -0.30800244 0.5976884 -0.7402048
vn -0.7543848 0.5288643 0.38885233
vn -0.15543038 -0.00010067226 0.98784685
vn -0.4834237 0.3411858 -0.8061599
vn -0.8504442 0.00694573 0.5260195
vn -0.20515402 -0.14809954 0.9674597
vn 0.020670053 1.1920926E-07 -0.9997863
vn 0.7044551 -1.4305114E-06 -0.7097485
vn -0.48342052 -0.0013845564 -0.87538713
vn -0.75438535 -0.52886444 0.38885123
vn -0.16900492 -0.33450827 0.9271146
vn -0.026187122 -0.02872497 -0.99924433
vn 0.43122023 0.5587853 -0.70838416
vn -0.48341846 -0.34118292 -0.8061642
vn -0.44208288 -0.84336257 0.30545434
vn -7.57575E-05 -0.39439377 0.9189415
vn -0.0013079047 -0.949116 0.31492403
vn -0.3080002 -0.59768516 -0.7402083
vn -4.8458583E-05 -0.67240554 -0.74018294
vn -7.355213E-05 -0.21282096 -0.97709125
vn -6.5565115E-07 0.3692012 -0.92934954
g pm0720_12_LArmC2Skin_0
f 3/3/3 2/2/2 1/1/1
f 2/2/2 4/4/4 1/1/1
f 1/1/1 4/4/4 5/5/5
f 4/4/4 2/2/2 6/6/6
f 4/4/4 7/7/7 5/5/5
f 5/5/5 7/7/7 8/8/8
f 9/9/9 4/4/4 6/6/6
f 9/9/9 7/7/7 4/4/4
f 9/9/9 6/6/6 10/10/10
f 7/7/7 11/11/11 8/8/8
f 11/11/11 7/7/7 9/9/9
f 8/8/8 11/11/11 12/12/12
f 13/13/13 8/8/8 12/12/12
f 13/13/13 12/12/12 14/14/14
f 11/11/11 9/9/9 15/15/15
f 12/12/12 11/11/11 15/15/15
f 15/15/15 9/9/9 16/16/16
f 17/17/17 15/15/15 16/16/16
f 12/12/12 18/18/18 14/14/14
f 18/18/18 12/12/12 15/15/15
f 17/17/17 18/18/18 15/15/15
f 14/14/14 18/18/18 19/19/19
f 18/18/18 20/20/20 19/19/19
f 17/17/17 20/20/20 18/18/18
f 19/19/19 20/20/20 21/21/21
f 20/20/20 22/22/22 21/21/21
f 22/22/22 20/20/20 17/17/17
f 21/21/21 22/22/22 23/23/23
f 22/22/22 24/24/24 23/23/23
f 25/25/25 24/24/24 22/22/22
f 25/25/25 22/22/22 17/17/17
f 25/25/25 17/17/17 26/26/26
g pm0720_12_LArmC2Skin_1
f 29/29/29 28/28/28 27/27/27
f 28/28/28 30/30/30 27/27/27
f 27/27/27 30/30/30 31/31/31
f 28/28/28 32/32/32 30/30/30
f 30/30/30 33/33/33 31/31/31
f 31/31/31 33/33/33 34/34/34
f 32/32/32 35/35/35 30/30/30
f 30/30/30 35/35/35 33/33/33
f 32/32/32 36/36/36 35/35/35
f 33/33/33 37/37/37 34/34/34
f 34/34/34 37/37/37 38/38/38
f 35/35/35 39/39/39 33/33/33
f 33/33/33 39/39/39 37/37/37
f 36/36/36 40/40/40 35/35/35
f 35/35/35 40/40/40 39/39/39
f 36/36/36 41/41/41 40/40/40
f 41/41/41 42/42/42 40/40/40
f 37/37/37 43/43/43 38/38/38
f 38/38/38 43/43/43 44/44/44
f 39/39/39 45/45/45 37/37/37
f 39/39/39 40/40/40 45/45/45
f 37/37/37 45/45/45 43/43/43
f 40/40/40 42/42/42 46/46/46
f 40/40/40 46/46/46 45/45/45
f 42/42/42 47/47/47 46/46/46
f 43/43/43 48/48/48 44/44/44
f 44/44/44 48/48/48 49/49/49
f 45/45/45 50/50/50 43/43/43
f 45/45/45 46/46/46 50/50/50
f 43/43/43 50/50/50 48/48/48
f 46/46/46 47/47/47 51/51/51
f 46/46/46 51/51/51 50/50/50
f 47/47/47 52/52/52 51/51/51
f 48/48/48 53/53/53 49/49/49
f 49/49/49 53/53/53 54/54/54
f 50/50/50 55/55/55 48/48/48
f 50/50/50 51/51/51 55/55/55
f 48/48/48 55/55/55 53/53/53
f 51/51/51 52/52/52 56/56/56
f 52/52/52 57/57/57 56/56/56
f 55/55/55 51/51/51 58/58/58
f 55/55/55 58/58/58 53/53/53
f 51/51/51 56/56/56 58/58/58
f 53/53/53 59/59/59 54/54/54
f 53/53/53 58/58/58 59/59/59
f 54/54/54 59/59/59 60/60/60
f 56/56/56 57/57/57 61/61/61
f 57/57/57 62/62/62 61/61/61
f 58/58/58 56/56/56 63/63/63
f 58/58/58 63/63/63 59/59/59
f 56/56/56 61/61/61 63/63/63
f 59/59/59 64/64/64 60/60/60
f 59/59/59 63/63/63 64/64/64
f 60/60/60 64/64/64 65/65/65
f 63/63/63 66/66/66 64/64/64
f 63/63/63 61/61/61 66/66/66
f 64/64/64 67/67/67 65/65/65
f 64/64/64 66/66/66 67/67/67
f 65/65/65 67/67/67 68/68/68
f 61/61/61 62/62/62 69/69/69
f 62/62/62 70/70/70 69/69/69
f 66/66/66 61/61/61 71/71/71
f 66/66/66 71/71/71 67/67/67
f 61/61/61 69/69/69 71/71/71
f 67/67/67 72/72/72 68/68/68
f 67/67/67 71/71/71 72/72/72
f 68/68/68 72/72/72 73/73/73
f 69/69/69 70/70/70 74/74/74
f 70/70/70 75/75/75 74/74/74
f 71/71/71 69/69/69 76/76/76
f 71/71/71 76/76/76 72/72/72
f 69/69/69 74/74/74 76/76/76
f 72/72/72 77/77/77 73/73/73
f 72/72/72 76/76/76 77/77/77
f 73/73/73 77/77/77 78/78/78
f 77/77/77 79/79/79 78/78/78
f 76/76/76 80/80/80 77/77/77
f 77/77/77 80/80/80 79/79/79
f 76/76/76 74/74/74 80/80/80
f 80/80/80 81/81/81 79/79/79
f 80/80/80 74/74/74 81/81/81
f 74/74/74 82/82/82 81/81/81
f 74/74/74 75/75/75 82/82/82
f 75/75/75 83/83/83 82/82/82
