g pm0720_12_RArmB2Skin
v -1.5 -0.19750017 1.4784884
v -1.4238886 -0.07611135 1.2584096
v -1.5 -0.11143478 1.2584096
v -1.3651048 -0.13489513 1.4784884
v -1.3885651 1.6326744E-08 1.2584096
v -1.3024997 1.4555432E-08 1.4784884
v -1.4238886 0.07611138 1.2584096
v -1.3651048 0.13489516 1.4784884
v -1.468203 1.828947E-08 1.123861
v -1.5 0.11143482 1.2584096
v -1.5000001 0.19750023 1.4784886
v -1.634895 0.13489516 1.4784884
v -1.5 -0.031796973 1.123861
v -1.5 -0.11143478 1.2584096
v -1.5 1.90627E-08 1.0984883
v -1.5 0.031797014 1.123861
v -1.5761111 0.07611138 1.2584096
v -1.531797 1.8476769E-08 1.123861
v -1.5 -0.031796973 1.123861
v -1.6114349 1.6980179E-08 1.2584096
v -1.6975002 1.4555432E-08 1.4784884
v -1.5761111 -0.07611135 1.2584096
v -1.5 -0.11143478 1.2584096
v -1.634895 -0.13489513 1.4784884
v -1.5 -0.19750017 1.4784884
v -1.6286633 -0.22285154 1.5572784
v -1.5 -0.25732678 1.5572784
v -1.5 -0.29727066 1.5124938
v -1.6486353 -0.2574439 1.5124938
v -1.7228515 -0.12866339 1.5572784
v -1.5 -0.2824264 1.4573131
v -1.7574438 -0.14863533 1.5124938
v -1.757327 1.649911E-08 1.5572784
v -1.641213 -0.24458842 1.4573131
v -1.5 -0.24 1.4392529
v -1.7972708 -2.842366E-16 1.5124938
v -1.7228515 0.12866342 1.5572784
v -1.7445883 -0.1412132 1.4573132
v -1.663923 -0.16392303 1.4392532
v -1.5 -0.19750017 1.4784884
v -1.634895 -0.13489513 1.4784884
v -1.7574438 0.14863533 1.5124938
v -1.6286633 0.22285154 1.5572778
v -1.7824264 -1.7881396E-09 1.4573131
v -1.74 -2.6822093E-09 1.4392529
v -1.6975002 1.4555432E-08 1.4784884
v -1.6486353 0.2574439 1.5124938
v -1.5 0.2573268 1.5572784
v -1.7445883 0.1412132 1.4573131
v -1.663923 0.16392303 1.4392529
v -1.634895 0.13489516 1.4784884
v -1.5 0.2972707 1.5124938
v -1.3713365 0.22285154 1.5572778
v -1.641213 0.24458842 1.4573135
v -1.5 0.24 1.4392529
v -1.5000001 0.19750023 1.4784886
v -1.5 0.2824264 1.4573132
v -1.3513646 0.2574439 1.5124938
v -1.2771484 0.12866342 1.5572784
v -1.336077 0.16392303 1.4392529
v -1.3651048 0.13489516 1.4784884
v -1.3587867 0.24458842 1.4573135
v -1.2425561 0.14863533 1.5124938
v -1.2426732 1.649911E-08 1.5572784
v -1.2554115 0.1412132 1.4573131
v -1.2027293 -2.842366E-16 1.5124938
v -1.2771484 -0.12866339 1.5572784
v -1.26 -2.6822093E-09 1.4392529
v -1.3024997 1.4555432E-08 1.4784884
v -1.2175736 -1.7881396E-09 1.4573131
v -1.2425561 -0.14863533 1.5124938
v -1.3713365 -0.22285154 1.5572784
v -1.336077 -0.16392303 1.4392532
v -1.3651048 -0.13489513 1.4784884
v -1.2554115 -0.1412132 1.4573132
v -1.3513646 -0.2574439 1.5124938
v -1.5 -0.25732678 1.5572784
v -1.5 -0.29727066 1.5124938
v -1.3587867 -0.24458842 1.4573131
v -1.5 -0.2824264 1.4573131
v -1.5 -0.24 1.4392529
v -1.5 -0.19750017 1.4784884
vt 0.8489671 0.7734375
vt 0.6931288 0.7499378
vt 0.7049079 0.7734375
vt 0.8282101 0.7222011
vt 0.66653633 0.7295749
vt 0.77284956 0.6771476
vt 0.6256659 0.7163396
vt 0.68377924 0.6472647
vt 0.60106134 0.7614267
vt 0.578125 0.7110753
vt 0.57812476 0.63433933
vt 0.47247124 0.6472647
vt 0.60898685 0.77343726
vt 0.7049079 0.7734375
vt 0.578125 0.7734375
vt 0.578125 0.7564328
vt 0.5305836 0.7163396
vt 0.5551884 0.7614267
vt 0.5472629 0.77343726
vt 0.48971367 0.7295747
vt 0.38340044 0.6771476
vt 0.46312022 0.7499378
vt 0.4513421 0.7734375
vt 0.32803988 0.7222011
vt 0.30728292 0.7734375
vt 0.8993149 0.98731613
vt 0.9798417 0.98731613
vt 0.9798417 0.9702184
vt 0.8990073 0.9702184
vt 0.82045794 0.98731613
vt 0.9798417 0.9530723
vt 0.82076454 0.9702184
vt 0.73993397 0.98731613
vt 0.89860535 0.9530723
vt 0.9798417 0.93622255
vt 0.7399311 0.9702184
vt 0.65939283 0.98731613
vt 0.8211632 0.9530723
vt 0.8598783 0.9362223
vt 0.9798417 0.91861725
vt 0.85987735 0.91861725
vt 0.65909576 0.9702184
vt 0.5805235 0.98731613
vt 0.7399316 0.9530723
vt 0.739933 0.93622255
vt 0.7399359 0.91861725
vt 0.580843 0.9702184
vt 0.50002575 0.98731613
vt 0.6587 0.9530723
vt 0.6199863 0.9362223
vt 0.61998916 0.91861725
vt 0.50002575 0.9702184
vt 0.41952324 0.98731613
vt 0.58125114 0.9530723
vt 0.5000248 0.93622255
vt 0.50002503 0.91861725
vt 0.5000248 0.9530723
vt 0.41920376 0.9702184
vt 0.3406458 0.98731613
vt 0.3800559 0.9362223
vt 0.38005185 0.91861725
vt 0.4187951 0.9530723
vt 0.34094334 0.9702184
vt 0.26009226 0.98731613
vt 0.34133768 0.9530723
vt 0.26009512 0.9702184
vt 0.17955875 0.98731613
vt 0.2600937 0.93622255
vt 0.26009083 0.91861725
vt 0.2600956 0.9530723
vt 0.17925167 0.9702184
vt 0.1006918 0.98731613
vt 0.1401329 0.9362223
vt 0.14013505 0.91861725
vt 0.17885256 0.9530723
vt 0.10099983 0.9702184
vt 0.02015829 0.98731613
vt 0.02015829 0.9702184
vt 0.10140228 0.9530723
vt 0.02015829 0.9530723
vt 0.02015829 0.93622255
vt 0.02015829 0.91861725
vn -1.7881393E-07 -0.93131787 -0.3642074
vn 0.6315917 -0.6315919 -0.44964844
vn -6.556511E-07 -0.89866525 -0.4386351
vn 0.6614864 -0.661487 -0.35337046
vn 0.89866537 0 -0.43863502
vn 0.9313179 1.19209275E-07 -0.36420703
vn 0.6315918 0.6315918 -0.44964835
vn 0.66148627 0.66148716 -0.35337043
vn 0.755317 0 -0.6553596
vn -7.1525585E-07 0.89866525 -0.43863514
vn -4.1723254E-07 0.9313179 -0.3642073
vn -0.66148627 0.6614871 -0.35337043
vn -1.1920928E-07 -0.75531673 -0.6553599
vn -6.556511E-07 -0.89866525 -0.4386351
vn -5.364418E-07 2.3841858E-07 -1
vn -0 0.75531673 -0.6553599
vn -0.63159144 0.6315925 -0.44964778
vn -0.7553174 1.1920929E-07 -0.65535915
vn -1.1920928E-07 -0.75531673 -0.6553599
vn -0.8986652 0 -0.43863523
vn -0.93131787 0 -0.3642075
vn -0.6315915 -0.63159245 -0.44964778
vn -6.556511E-07 -0.89866525 -0.4386351
vn -0.66148627 -0.66148716 -0.35337043
vn -1.7881393E-07 -0.93131787 -0.3642074
vn -0.37314427 -0.6463046 0.6656227
vn -4.7683716E-07 -0.74628806 0.665623
vn -3.5762787E-07 -0.9722276 0.23403741
vn -0.486114 -0.8419737 0.23403703
vn -0.64630413 -0.373145 0.66562283
vn 1.1920929E-07 -0.7169976 -0.69707566
vn -0.8419736 -0.4861146 0.2340366
vn -0.7462879 0 0.6656233
vn -0.38084668 -0.6301267 -0.6766802
vn 5.960464E-07 0.20671223 -0.9784017
vn -0.9722277 -1.7881395E-07 0.23403694
vn -0.64630306 0.37314487 0.66562384
vn -0.63012904 -0.38084453 -0.6766792
vn 0.05959344 0.059595585 -0.99644214
vn 7.1525574E-07 0.678325 -0.7347621
vn 0.48856395 0.48856384 -0.72291815
vn -0.8419733 0.4861145 0.23403752
vn -0.37314308 0.646303 0.665625
vn -0.71699834 -4.7683713E-07 -0.69707495
vn 0.2067107 -7.1525574E-07 -0.9784021
vn 0.6783255 -7.152558E-07 -0.73476154
vn -0.48611376 0.84197366 0.23403814
vn -1.19209275E-07 0.74628586 0.66562563
vn -0.6301277 0.38084695 -0.67667913
vn 0.05959451 -0.05959296 -0.99644226
vn 0.48856488 -0.48856574 -0.7229163
vn -0 0.97222733 0.23403837
vn 0.37314326 0.646303 0.6656249
vn -0.38084525 0.63013 -0.676678
vn 2.3841858E-07 -0.20671 -0.9784023
vn 1.192093E-07 -0.67832726 -0.7347599
vn 2.384186E-07 0.7169997 -0.6970734
vn 0.486114 0.8419735 0.23403823
vn 0.6463034 0.37314406 0.665624
vn -0.059595052 -0.059592847 -0.99644226
vn -0.4885661 -0.488565 -0.722916
vn 0.38084555 0.6301297 -0.676678
vn 0.8419737 0.48611355 0.23403788
vn 0.746288 0 0.6656231
vn 0.63012815 0.3808464 -0.676679
vn 0.9722276 -1.7881393E-07 0.23403741
vn 0.64630455 -0.37314424 0.6656229
vn -0.20671175 -5.9604645E-07 -0.97840184
vn -0.67832696 -4.172325E-07 -0.7347602
vn 0.7169988 -5.364418E-07 -0.6970744
vn 0.8419739 -0.4861136 0.23403713
vn 0.373144 -0.64630455 0.6656229
vn -0.059593316 0.05959594 -0.99644214
vn -0.48856393 0.48856404 -0.722918
vn 0.6301294 -0.3808441 -0.6766792
vn 0.48611382 -0.84197384 0.23403728
vn -4.7683716E-07 -0.74628806 0.665623
vn -3.5762787E-07 -0.9722276 0.23403741
vn 0.3808467 -0.6301265 -0.67668027
vn 1.1920929E-07 -0.7169976 -0.69707566
vn 5.960464E-07 0.20671223 -0.9784017
vn 7.1525574E-07 0.678325 -0.7347621
g pm0720_12_RArmB2Skin_0
f 3/3/3 2/2/2 1/1/1
f 2/2/2 4/4/4 1/1/1
f 2/2/2 5/5/5 4/4/4
f 5/5/5 6/6/6 4/4/4
f 5/5/5 7/7/7 6/6/6
f 7/7/7 8/8/8 6/6/6
f 5/5/5 2/2/2 9/9/9
f 7/7/7 5/5/5 9/9/9
f 7/7/7 10/10/10 8/8/8
f 10/10/10 11/11/11 8/8/8
f 12/12/12 11/11/11 10/10/10
f 2/2/2 13/13/13 9/9/9
f 2/2/2 14/14/14 13/13/13
f 9/9/9 13/13/13 15/15/15
f 7/7/7 9/9/9 16/16/16
f 10/10/10 7/7/7 16/16/16
f 16/16/16 9/9/9 15/15/15
f 17/17/17 12/12/12 10/10/10
f 17/17/17 10/10/10 16/16/16
f 18/18/18 16/16/16 15/15/15
f 18/18/18 17/17/17 16/16/16
f 19/19/19 18/18/18 15/15/15
f 17/17/17 20/20/20 12/12/12
f 18/18/18 20/20/20 17/17/17
f 20/20/20 21/21/21 12/12/12
f 22/22/22 18/18/18 19/19/19
f 22/22/22 20/20/20 18/18/18
f 20/20/20 22/22/22 21/21/21
f 23/23/23 22/22/22 19/19/19
f 22/22/22 24/24/24 21/21/21
f 22/22/22 23/23/23 24/24/24
f 23/23/23 25/25/25 24/24/24
g pm0720_12_RArmB2Skin_1
f 28/28/28 27/27/27 26/26/26
f 29/29/29 28/28/28 26/26/26
f 29/29/29 26/26/26 30/30/30
f 31/31/31 28/28/28 29/29/29
f 32/32/32 29/29/29 30/30/30
f 32/32/32 30/30/30 33/33/33
f 34/34/34 31/31/31 29/29/29
f 34/34/34 29/29/29 32/32/32
f 35/35/35 31/31/31 34/34/34
f 36/36/36 32/32/32 33/33/33
f 36/36/36 33/33/33 37/37/37
f 38/38/38 34/34/34 32/32/32
f 38/38/38 32/32/32 36/36/36
f 39/39/39 35/35/35 34/34/34
f 39/39/39 34/34/34 38/38/38
f 40/40/40 35/35/35 39/39/39
f 41/41/41 40/40/40 39/39/39
f 42/42/42 36/36/36 37/37/37
f 42/42/42 37/37/37 43/43/43
f 44/44/44 38/38/38 36/36/36
f 39/39/39 38/38/38 44/44/44
f 44/44/44 36/36/36 42/42/42
f 41/41/41 39/39/39 45/45/45
f 45/45/45 39/39/39 44/44/44
f 46/46/46 41/41/41 45/45/45
f 47/47/47 42/42/42 43/43/43
f 47/47/47 43/43/43 48/48/48
f 49/49/49 44/44/44 42/42/42
f 45/45/45 44/44/44 49/49/49
f 49/49/49 42/42/42 47/47/47
f 46/46/46 45/45/45 50/50/50
f 50/50/50 45/45/45 49/49/49
f 51/51/51 46/46/46 50/50/50
f 52/52/52 47/47/47 48/48/48
f 52/52/52 48/48/48 53/53/53
f 54/54/54 49/49/49 47/47/47
f 50/50/50 49/49/49 54/54/54
f 54/54/54 47/47/47 52/52/52
f 51/51/51 50/50/50 55/55/55
f 56/56/56 51/51/51 55/55/55
f 50/50/50 54/54/54 57/57/57
f 57/57/57 54/54/54 52/52/52
f 55/55/55 50/50/50 57/57/57
f 58/58/58 52/52/52 53/53/53
f 57/57/57 52/52/52 58/58/58
f 58/58/58 53/53/53 59/59/59
f 56/56/56 55/55/55 60/60/60
f 61/61/61 56/56/56 60/60/60
f 55/55/55 57/57/57 62/62/62
f 62/62/62 57/57/57 58/58/58
f 60/60/60 55/55/55 62/62/62
f 63/63/63 58/58/58 59/59/59
f 62/62/62 58/58/58 63/63/63
f 63/63/63 59/59/59 64/64/64
f 65/65/65 62/62/62 63/63/63
f 60/60/60 62/62/62 65/65/65
f 66/66/66 63/63/63 64/64/64
f 65/65/65 63/63/63 66/66/66
f 66/66/66 64/64/64 67/67/67
f 61/61/61 60/60/60 68/68/68
f 69/69/69 61/61/61 68/68/68
f 60/60/60 65/65/65 70/70/70
f 70/70/70 65/65/65 66/66/66
f 68/68/68 60/60/60 70/70/70
f 71/71/71 66/66/66 67/67/67
f 70/70/70 66/66/66 71/71/71
f 71/71/71 67/67/67 72/72/72
f 69/69/69 68/68/68 73/73/73
f 74/74/74 69/69/69 73/73/73
f 68/68/68 70/70/70 75/75/75
f 75/75/75 70/70/70 71/71/71
f 73/73/73 68/68/68 75/75/75
f 76/76/76 71/71/71 72/72/72
f 75/75/75 71/71/71 76/76/76
f 76/76/76 72/72/72 77/77/77
f 78/78/78 76/76/76 77/77/77
f 79/79/79 75/75/75 76/76/76
f 79/79/79 76/76/76 78/78/78
f 73/73/73 75/75/75 79/79/79
f 80/80/80 79/79/79 78/78/78
f 73/73/73 79/79/79 80/80/80
f 81/81/81 73/73/73 80/80/80
f 74/74/74 73/73/73 81/81/81
f 82/82/82 74/74/74 81/81/81
