g pm0720_12_LArmCRingBlackSkin
v 2.362192 -0.14222863 2.2830377
v 2.5 -0.1993106 2.2830377
v 2.5 -0.0044205966 2.2830377
v 2.30511 -0.0044205966 2.2830377
v 2.637808 -0.14222865 2.2830377
v 2.362192 0.13338743 2.2830377
v 2.69489 -0.0044205966 2.2830377
v 2.5 0.1904694 2.2830377
v 2.6378078 0.13338743 2.2830377
v 2.637808 -0.14222863 2.2830377
v 2.5 -0.004420587 2.2830377
v 2.69489 -0.004420587 2.2830377
v 2.5 -0.1993106 2.2830377
v 2.6378078 0.13338745 2.2830377
v 2.362192 -0.14222862 2.2830377
v 2.5 0.1904694 2.2830377
v 2.30511 -0.004420587 2.2830377
v 2.362192 0.13338745 2.2830377
vt 0.044599533 0.1916337
vt 0.08208895 0.18386984
vt 0.08208847 0.21037865
vt 0.029070854 0.21037865
vt 0.11957836 0.1916337
vt 0.044599533 0.22912312
vt 0.13510704 0.21037865
vt 0.08208847 0.23688745
vt 0.11957836 0.22912312
vt 0.11957788 0.1916337
vt 0.08208799 0.21037865
vt 0.13510656 0.21037865
vt 0.08208799 0.18386984
vt 0.11957788 0.22912312
vt 0.044599056 0.1916337
vt 0.08208799 0.23688745
vt 0.029070377 0.21037865
vt 0.044599056 0.22912312
vn -1.3709068E-06 0 -1
vn 4.7683716E-07 0 -1
vn 1.1920929E-07 0 -1
vn -0 0 -1
vn 1.7881393E-06 0 -1
vn -0 0 -1
vn -0 0 -1
vn -0 0 -1
vn -0 0 -1
vn -1.847744E-06 0 1
vn -2.3841858E-07 0 1
vn -0 0 1
vn -1.847744E-06 0 1
vn -8.940697E-07 0 1
vn -0 0 1
vn 9.536743E-07 0 1
vn -0 0 1
vn 1.7881393E-06 0 1
g pm0720_12_LArmCRingBlackSkin_0
f 3/3/3 2/2/2 1/1/1
f 3/3/3 1/1/1 4/4/4
f 3/3/3 5/5/5 2/2/2
f 3/3/3 4/4/4 6/6/6
f 3/3/3 7/7/7 5/5/5
f 3/3/3 6/6/6 8/8/8
f 3/3/3 9/9/9 7/7/7
f 3/3/3 8/8/8 9/9/9
f 12/12/12 11/11/11 10/10/10
f 10/10/10 11/11/11 13/13/13
f 14/14/14 11/11/11 12/12/12
f 13/13/13 11/11/11 15/15/15
f 16/16/16 11/11/11 14/14/14
f 15/15/15 11/11/11 17/17/17
f 18/18/18 11/11/11 16/16/16
f 17/17/17 11/11/11 18/18/18
