g pm0757_00_FireMaskSkin_tx
v 7.534658E-20 0.12105441 -0.028783016
v 7.534658E-20 0.12255905 -0.028783016
v 4.2293936E-19 0.11943365 -0.03624293
v 2.6910227E-19 0.14481626 -0.03624293
v 1.153046E-18 0.1586471 -0.052771986
v 1.5801571E-18 0.11728539 -0.052771986
v 1.3170523E-18 0.1656985 -0.06952868
v 1.11394E-18 0.11439361 -0.06952868
v -2.5970023E-19 0.16904838 -0.08518274
v -1.4456513E-18 0.11237898 -0.08518274
v -7E-08 0.16973524 -0.09902998
v -7E-08 0.110365935 -0.09902998
v -7E-08 0.16866568 -0.11289526
v -7E-08 0.10857818 -0.11289526
v -1.0088841E-17 0.16636279 -0.1300756
v -1.1471324E-17 0.10677477 -0.1300756
v -1.4023969E-17 0.16343763 -0.1465098
v -1.4944942E-17 0.10524637 -0.1465098
v -1.7463434E-17 0.1599583 -0.1641724
v -1.8343749E-17 0.103747785 -0.1641724
v -2.120274E-17 0.15587834 -0.18324158
v -2.2248943E-17 0.10198808 -0.18324158
v -2.4182046E-17 0.1522659 -0.20183605
v -2.4605445E-17 0.100523144 -0.20183605
v -2.4626057E-17 0.14918436 -0.2187962
v -2.4527144E-17 0.09927778 -0.2187962
v -2E-08 0.14612466 -0.23545185
v -2E-08 0.09798127 -0.23545185
v -2.0830722E-17 0.14294 -0.25320804
v -2.0809795E-17 0.09669632 -0.25320804
v -2E-08 0.1396458 -0.27079433
v -2E-08 0.09543029 -0.27079433
v -2.897199E-17 0.1361384 -0.28908035
v -2.9857928E-17 0.09426648 -0.28908035
v -3.7280514E-17 0.13225779 -0.30711702
v -3.8340027E-17 0.09304444 -0.30711702
v -1E-08 0.12842561 -0.3228977
v -1E-08 0.09185047 -0.3228977
v -4.752245E-17 0.124161355 -0.33989158
v -4.7875612E-17 0.090684325 -0.33989158
v -4.8581955E-17 0.12039308 -0.35366866
v -4.8581955E-17 0.08960344 -0.35366866
v -4.8935125E-17 0.11636098 -0.367389
v -4.8935125E-17 0.088328674 -0.367389
v -4.8935125E-17 0.11221747 -0.37816077
v -4.8935125E-17 0.08690631 -0.37816077
v -4.8935125E-17 0.107007235 -0.38838416
v -4.8935125E-17 0.085215166 -0.38838416
v -4.8935125E-17 0.10413734 -0.39096877
v -4.8935125E-17 0.0847015 -0.39096877
v -4.8935125E-17 0.09973833 -0.39352274
v -4.8935125E-17 0.08425029 -0.39352274
v -4.8935125E-17 0.08864179 -0.3950978
v -4.8935125E-17 0.08547115 -0.3950978
v 0.008193155 0.1338812 -0.08541918
v 0.01160322 0.1098561 -0.08541918
v -1.4456513E-18 0.11237898 -0.08518274
v -6.6906496E-18 0.13889977 -0.08541918
v -0.008290891 0.1335036 -0.08541918
v -6.6906496E-18 0.13889977 -0.08541918
v -1.4456513E-18 0.11237898 -0.08518274
v -0.012069896 0.10985631 -0.08541918
v 0.008193155 0.12674859 -0.14674623
v 0.01160322 0.102715306 -0.14674623
v -1.4944942E-17 0.10524637 -0.1465098
v -2.0128287E-17 0.13176717 -0.14674623
v -0.008290891 0.126371 -0.14674623
v -2.0128287E-17 0.13176717 -0.14674623
v -1.4944942E-17 0.10524637 -0.1465098
v -0.012069896 0.10271552 -0.14674623
v 0.0073736575 0.1186293 -0.21900898
v 0.010442641 0.09683626 -0.21900898
v -2.4527144E-17 0.09927778 -0.2187962
v -2.9672322E-17 0.1231459 -0.21900898
v -0.007461618 0.11828947 -0.21900898
v -2.9672322E-17 0.1231459 -0.21900898
v -2.4527144E-17 0.09927778 -0.2187962
v -0.010862638 0.09683645 -0.21900898
v 0.0059213364 0.109806515 -0.28925124
v 0.008385851 0.09256473 -0.28925124
v -2.9857928E-17 0.09426648 -0.28908035
v -3.343046E-17 0.11343352 -0.28925124
v -0.005991972 0.109533615 -0.28925124
v -3.343046E-17 0.11343352 -0.28925124
v -2.9857928E-17 0.09426648 -0.28908035
v -0.008723125 0.09256489 -0.28925124
v 0.004710048 0.10196455 -0.3538046
v 0.006670413 0.088374294 -0.3538046
v -4.8581955E-17 0.08960344 -0.35366866
v -5.1847466E-17 0.104849614 -0.3538046
v -0.004766234 0.10174748 -0.3538046
v -5.1847466E-17 0.104849614 -0.3538046
v -4.8581955E-17 0.08960344 -0.35366866
v -0.006938694 0.08837442 -0.3538046
v 7.534658E-20 0.12105441 -0.028783016
v -0.00011121496 0.12079211 -0.03624293
v 0.0028660982 0.12080388 -0.029620303
v 0.013142292 0.118951805 -0.03626171
v 0.02006357 0.11472426 -0.05262285
v -0.0004457347 0.11898741 -0.052771986
v 0.023907937 0.10935088 -0.06953607
v -0.0004457347 0.11696718 -0.06952868
v 0.026025834 0.10444263 -0.08502744
v -0.0004457347 0.11495255 -0.08518274
v -0.0004458047 0.11293951 -0.09902998
v 0.026863256 0.1007524 -0.09899202
v 0.026901934 0.09909134 -0.11301315
v -0.0004458047 0.11115176 -0.11289526
v 0.026504897 0.09816065 -0.13003309
v -0.0004457347 0.10934834 -0.1300756
v 0.025796387 0.09709614 -0.14653979
v -0.0004457347 0.107819945 -0.1465098
v 0.024882216 0.09589687 -0.16423197
v -0.0004457347 0.106321365 -0.1641724
v 0.023747982 0.09479556 -0.18305473
v -0.0004457347 0.10456165 -0.18324158
v 0.022808546 0.09365022 -0.20177223
v -0.0004457347 0.10309672 -0.20183605
v 0.022048796 0.0925639 -0.2188161
v -0.0004457347 0.10185136 -0.2187962
v 0.021287452 0.09150363 -0.23553978
v -0.00044575467 0.100554846 -0.23545185
v 0.020510932 0.090358175 -0.25302213
v -0.0004457347 0.0992699 -0.25320804
v 0.019678136 0.08925107 -0.27090144
v -0.00044575467 0.09800387 -0.27079433
v 0.018774802 0.08811591 -0.28883043
v -0.0004457347 0.096840054 -0.28908035
v 0.017692175 0.08707844 -0.3067711
v -0.0004457347 0.09561802 -0.30711702
v 0.016546093 0.08625604 -0.32280242
v -0.0004457447 0.09442405 -0.3228977
v 0.015249325 0.08551793 -0.33997864
v -0.0004457347 0.093257904 -0.33989158
v 0.01405639 0.08488246 -0.3536934
v -0.0004457347 0.09217702 -0.35366866
v 0.012741226 0.08430414 -0.36719856
v -0.0004457347 0.09090225 -0.367389
v 0.011263615 0.08404102 -0.3781139
v -0.0004457347 0.089479886 -0.37816077
v 0.009279719 0.084040746 -0.3881966
v -0.0004457347 0.08741567 -0.38838416
v 0.008071491 0.083998 -0.39104542
v -0.0004457347 0.08690201 -0.39096877
v 0.0061658197 0.08406515 -0.39351618
v -0.0004457347 0.08619074 -0.39352274
v 0.001372589 0.08536619 -0.39477792
v -4.8935125E-17 0.08547115 -0.3950978
v 7.534658E-20 0.12105441 -0.028783016
v -0.0028660982 0.12080388 -0.029620303
v 0.00011121496 0.12079211 -0.03624293
v -0.013142292 0.118951805 -0.03626171
v -0.02006357 0.11472426 -0.05262285
v 0.0004457347 0.11898741 -0.052771986
v -0.023907937 0.10935088 -0.06953607
v 0.0004457347 0.11696718 -0.06952868
v -0.026025834 0.10444263 -0.08502744
v 0.0004457347 0.11495255 -0.08518274
v -0.026863256 0.1007524 -0.09899202
v 0.0004458047 0.11293951 -0.09902998
v -0.026901934 0.09909134 -0.11301315
v 0.0004458047 0.11115176 -0.11289526
v -0.026504897 0.09816065 -0.13003309
v 0.0004457347 0.10934834 -0.1300756
v -0.025796387 0.09709614 -0.14653979
v 0.0004457347 0.107819945 -0.1465098
v -0.024882216 0.09589687 -0.16423197
v 0.0004457347 0.106321365 -0.1641724
v -0.023747982 0.09479556 -0.18305473
v 0.0004457347 0.10456165 -0.18324158
v -0.022808546 0.09365022 -0.20177223
v 0.0004457347 0.10309672 -0.20183605
v -0.022048796 0.0925639 -0.2188161
v 0.0004457347 0.10185136 -0.2187962
v -0.021287452 0.09150363 -0.23553978
v 0.00044575467 0.100554846 -0.23545185
v -0.020510932 0.090358175 -0.25302213
v 0.0004457347 0.0992699 -0.25320804
v -0.019678136 0.08925107 -0.27090144
v 0.00044575467 0.09800387 -0.27079433
v -0.018774802 0.08811591 -0.28883043
v 0.0004457347 0.096840054 -0.28908035
v -0.017692175 0.08707844 -0.3067711
v 0.0004457347 0.09561802 -0.30711702
v -0.016546093 0.08625604 -0.32280242
v 0.0004457447 0.09442405 -0.3228977
v -0.015249325 0.08551793 -0.33997864
v 0.0004457347 0.093257904 -0.33989158
v -0.01405639 0.08488246 -0.3536934
v 0.0004457347 0.09217702 -0.35366866
v -0.012741226 0.08430414 -0.36719856
v 0.0004457347 0.09090225 -0.367389
v -0.011263615 0.08404102 -0.3781139
v 0.0004457347 0.089479886 -0.37816077
v -0.009279719 0.084040746 -0.3881966
v 0.0004457347 0.08741567 -0.38838416
v -0.008071491 0.083998 -0.39104542
v 0.0004457347 0.08690201 -0.39096877
v -0.00616615 0.08401038 -0.39207694
v 0.0004457347 0.08619074 -0.39352274
v -0.001372589 0.08536619 -0.39477792
v -4.8935125E-17 0.08547115 -0.3950978
vt 0.5615658 0.06681199
vt 0.5615658 0.9676432
vt 0.57533294 0.06681199
vt 0.57533294 0.9676432
vt 0.58777875 0.9676432
vt 0.58777875 0.06681199
vt 0.5994607 0.9676432
vt 0.5994607 0.06681199
vt 0.61076105 0.9676432
vt 0.61076105 0.06681199
vt 0.62194276 0.9676432
vt 0.62194276 0.06681199
vt 0.6347868 0.9676432
vt 0.6347868 0.06681199
vt 0.6532238 0.9676432
vt 0.6532238 0.06681199
vt 0.6730874 0.9676432
vt 0.6730874 0.06681199
vt 0.6957339 0.9676432
vt 0.6957339 0.06681199
vt 0.7100562 0.9676432
vt 0.7100562 0.06681199
vt 0.72439224 0.9676432
vt 0.72439224 0.06681199
vt 0.7398646 0.9676432
vt 0.7398646 0.06681199
vt 0.75769943 0.9676432
vt 0.75769943 0.06681199
vt 0.7791693 0.9676432
vt 0.7791693 0.06681199
vt 0.8017424 0.9676432
vt 0.8017424 0.06681199
vt 0.82346326 0.9676432
vt 0.82346326 0.06681199
vt 0.8361508 0.9676432
vt 0.8361508 0.06681199
vt 0.8473703 0.9676432
vt 0.8473703 0.06681199
vt 0.86092114 0.9676432
vt 0.86092114 0.06681199
vt 0.87368894 0.9676432
vt 0.87368894 0.06681199
vt 0.88819754 0.9676432
vt 0.88819754 0.06681199
vt 0.90074265 0.9676432
vt 0.90074265 0.06681199
vt 0.9133771 0.9676432
vt 0.9133771 0.06681199
vt 0.9166521 0.9676432
vt 0.9166521 0.06681199
vt 0.91991156 0.9676432
vt 0.91991156 0.06681199
vt 0.92314845 0.9676432
vt 0.92314845 0.06681199
vt 0.63142645 0.9026119
vt 0.69938534 0.6853934
vt 0.6768491 0.04875867
vt 0.5983292 0.6470427
vt 0.63142645 0.90261215
vt 0.5983292 0.6470427
vt 0.6768491 0.04875867
vt 0.6993854 0.6853934
vt 0.7098448 0.9026119
vt 0.7778037 0.6853934
vt 0.7552675 0.04875867
vt 0.67674756 0.6470427
vt 0.7098448 0.90261215
vt 0.67674756 0.6470427
vt 0.7552675 0.04875867
vt 0.7778038 0.6853934
vt 0.803623 0.9026119
vt 0.871582 0.6853934
vt 0.8490457 0.04875867
vt 0.77052575 0.6470427
vt 0.803623 0.90261215
vt 0.77052575 0.6470427
vt 0.8490457 0.04875867
vt 0.871582 0.6853934
vt 0.9144904 0.9026119
vt 0.9824493 0.6853934
vt 0.9599131 0.04875867
vt 0.88139313 0.6470427
vt 0.9144904 0.90261215
vt 0.88139313 0.6470427
vt 0.9599131 0.04875867
vt 0.98244935 0.6853934
vt 1.0204731 0.9026119
vt 1.0884321 0.6853934
vt 1.0658958 0.04875867
vt 0.9873758 0.6470427
vt 1.0204731 0.90261215
vt 0.9873758 0.6470427
vt 1.0658958 0.04875867
vt 1.0884321 0.6853934
vt 1.1655326 0.06681199
vt 1.1792996 0.06681199
vt 1.1655326 0.9676432
vt 1.1792996 0.9676432
vt 1.1917455 0.9676432
vt 1.1917455 0.06681199
vt 1.2034274 0.9676432
vt 1.2034274 0.06681199
vt 1.2147278 0.9676432
vt 1.2147278 0.06681199
vt 1.2259096 0.06681199
vt 1.2259096 0.9676432
vt 1.2387537 0.9676432
vt 1.2387537 0.06681199
vt 1.2571906 0.9676432
vt 1.2571906 0.06681199
vt 1.2770542 0.9676432
vt 1.2770542 0.06681199
vt 1.2997006 0.9676432
vt 1.2997006 0.06681199
vt 1.3140229 0.9676432
vt 1.3140229 0.06681199
vt 1.328359 0.9676432
vt 1.328359 0.06681199
vt 1.3438314 0.9676432
vt 1.3438314 0.06681199
vt 1.3616663 0.9676432
vt 1.3616663 0.06681199
vt 1.3831362 0.9676432
vt 1.3831362 0.06681199
vt 1.4057091 0.9676432
vt 1.4057091 0.06681199
vt 1.42743 0.9676432
vt 1.42743 0.06681199
vt 1.4401177 0.9676432
vt 1.4401177 0.06681199
vt 1.4513372 0.9676432
vt 1.4513372 0.06681199
vt 1.464888 0.9676432
vt 1.464888 0.06681199
vt 1.4776558 0.9676432
vt 1.4776558 0.06681199
vt 1.4921643 0.9676432
vt 1.4921643 0.06681199
vt 1.5047094 0.9676432
vt 1.5047094 0.06681199
vt 1.5173439 0.9676432
vt 1.5173439 0.06681199
vt 1.5206188 0.9676432
vt 1.5206188 0.06681199
vt 1.5238785 0.9676432
vt 1.5238785 0.06681199
vt 1.5271152 0.9676432
vt 1.5271152 0.06681199
vt 1.7079548 0.06681199
vt 1.7079548 0.9676432
vt 1.721722 0.06681199
vt 1.721722 0.9676432
vt 1.7341677 0.9676432
vt 1.7341677 0.06681199
vt 1.7458497 0.9676432
vt 1.7458497 0.06681199
vt 1.75715 0.9676432
vt 1.75715 0.06681199
vt 1.7683316 0.9676432
vt 1.7683316 0.06681199
vt 1.7811757 0.9676432
vt 1.7811757 0.06681199
vt 1.7996129 0.9676432
vt 1.7996129 0.06681199
vt 1.8194765 0.9676432
vt 1.8194765 0.06681199
vt 1.8421229 0.9676432
vt 1.8421229 0.06681199
vt 1.8564452 0.9676432
vt 1.8564452 0.06681199
vt 1.8707813 0.9676432
vt 1.8707813 0.06681199
vt 1.8862535 0.9676432
vt 1.8862535 0.06681199
vt 1.9040884 0.9676432
vt 1.9040884 0.06681199
vt 1.9255582 0.9676432
vt 1.9255582 0.06681199
vt 1.9481314 0.9676432
vt 1.9481314 0.06681199
vt 1.9698523 0.9676432
vt 1.9698523 0.06681199
vt 1.9825398 0.9676432
vt 1.9825398 0.06681199
vt 1.9937593 0.9676432
vt 1.9937593 0.06681199
vt 2.00731 0.9676432
vt 2.00731 0.06681199
vt 2.0200777 0.9676432
vt 2.0200777 0.06681199
vt 2.0345864 0.9676432
vt 2.0345864 0.06681199
vt 2.0471315 0.9676432
vt 2.0471315 0.06681199
vt 2.059766 0.9676432
vt 2.059766 0.06681199
vt 2.063041 0.9676432
vt 2.063041 0.06681199
vt 2.0663004 0.9676432
vt 2.0663004 0.06681199
vt 2.0695374 0.9676432
vt 2.0695374 0.06681199
vn 1 0 0
vn 1 0 0
vn 1 0 0
vn 1 0 0
vn 1 0 0
vn 1 0 0
vn 1 0 0
vn 1 0 0
vn 1 0 -2.503395E-06
vn 1 0 -2.503395E-06
vn 1 0 -2.503395E-06
vn 1 0 -2.503395E-06
vn 1 0 2.026558E-06
vn 1 0 2.026558E-06
vn 1 0 2.026558E-06
vn 1 0 2.026558E-06
vn 1 0 0
vn 1 0 0
vn 1 0 0
vn 1 0 0
vn 1 0 0
vn 1 0 0
vn 1 0 0
vn 1 0 0
vn 1 0 -5.9604645E-07
vn 1 0 -5.9604645E-07
vn 1 0 0
vn 1 0 0
vn 1 0 0
vn 1 0 0
vn 1 0 0
vn 1 0 0
vn 1 0 5.9604645E-07
vn 1 0 5.9604645E-07
vn 1 0 -2.9802322E-07
vn 1 0 -2.9802322E-07
vn 1 0 0
vn 1 0 0
vn 1 0 2.3841858E-07
vn 1 0 2.3841858E-07
vn 1 0 0
vn 1 0 0
vn 1 0 0
vn 1 0 0
vn 1 0 0
vn 1 0 0
vn 1 0 0
vn 1 0 0
vn 1 0 0
vn 1 0 0
vn 1 0 0
vn 1 0 0
vn 1 0 0
vn 1 0 0
vn 0.014085529 0.0056273933 0.99988496
vn 0.014085529 0.0056273933 0.99988496
vn 0.000118255615 0.005692005 0.9999838
vn 0.000118255615 0.005692005 0.9999838
vn -0.013848962 0.005755544 0.9998876
vn 0.000118255615 0.005692005 0.9999838
vn 0.000118255615 0.005692005 0.9999838
vn -0.013848962 0.005755544 0.9998876
vn 0.014087439 0.0056265593 0.99988496
vn 0.014087439 0.0056265593 0.99988496
vn 0.000118255615 0.00569129 0.9999838
vn 0.000118255615 0.00569129 0.9999838
vn -0.013851103 0.0057548275 0.99988747
vn 0.000118255615 0.00569129 0.9999838
vn 0.000118255615 0.00569129 0.9999838
vn -0.013851103 0.0057548275 0.99988747
vn 0.014132977 0.005609393 0.99988437
vn 0.014132977 0.005609393 0.99988437
vn 0.00011885166 0.0056738853 0.9999839
vn 0.00011885166 0.0056738853 0.9999839
vn -0.013895333 0.005737304 0.999887
vn 0.00011885166 0.0056738853 0.9999839
vn 0.00011885166 0.0056738853 0.9999839
vn -0.013895333 0.005737304 0.999887
vn 0.0140469065 0.005644082 0.99988544
vn 0.0140469065 0.005644082 0.99988544
vn 0.00011789797 0.005708932 0.99998367
vn 0.00011789797 0.005708932 0.99998367
vn -0.013811169 0.00577259 0.99988794
vn 0.00011789797 0.005708932 0.99998367
vn 0.00011789797 0.005708932 0.99998367
vn -0.013811169 0.00577259 0.99988794
vn 0.013984203 0.0056638713 0.99988616
vn 0.013984203 0.0056638713 0.99988616
vn 0.00011861324 0.005728841 0.99998367
vn 0.00011861324 0.005728841 0.99998367
vn -0.013746857 0.005792736 0.9998888
vn 0.00011861324 0.005728841 0.99998367
vn 0.00011861324 0.005728841 0.99998367
vn -0.013746857 0.005792736 0.9998888
vn 0.07652975 0.9964109 -0.036173232
vn 0.1303481 0.98814595 -0.08109946
vn 0.10690963 0.9930195 -0.049825132
vn 0.15704095 0.9821607 -0.10343372
vn 0.2146628 0.96320033 -0.16175622
vn 0.2146628 0.96320033 -0.16175622
vn 0.2917581 0.93905926 -0.18178236
vn 0.2917581 0.93905926 -0.18178236
vn 0.35718787 0.91673213 -0.1789384
vn 0.35718787 0.91673213 -0.1789384
vn 0.39332783 0.9081788 -0.14319348
vn 0.39332783 0.9081788 -0.14319348
vn 0.39764154 0.91262805 -0.094822116
vn 0.39764154 0.91262805 -0.094822116
vn 0.38599035 0.9190907 -0.07926916
vn 0.38599035 0.9190907 -0.07926916
vn 0.37886775 0.92194897 -0.08043175
vn 0.37886775 0.92194897 -0.08043175
vn 0.3772812 0.9225889 -0.080552466
vn 0.3772812 0.9225889 -0.080552466
vn 0.3755527 0.9235533 -0.07752018
vn 0.3755527 0.9235533 -0.07752018
vn 0.37633044 0.923612 -0.072913654
vn 0.37633044 0.923612 -0.072913654
vn 0.37993157 0.92214954 -0.072747946
vn 0.37993157 0.92214954 -0.072747946
vn 0.38440248 0.9202872 -0.0728439
vn 0.38440248 0.9202872 -0.0728439
vn 0.39056918 0.9178121 -0.071251035
vn 0.39056918 0.9178121 -0.071251035
vn 0.39969587 0.9140262 -0.069278054
vn 0.39969587 0.9140262 -0.069278054
vn 0.41231626 0.90844476 -0.06872682
vn 0.41231626 0.90844476 -0.06872682
vn 0.42425346 0.902756 -0.07099766
vn 0.42425346 0.902756 -0.07099766
vn 0.43288302 0.8987632 -0.06954855
vn 0.43288302 0.8987632 -0.06954855
vn 0.44043928 0.8949869 -0.07079195
vn 0.44043928 0.8949869 -0.07079195
vn 0.4457765 0.8916851 -0.07861985
vn 0.4457765 0.8916851 -0.07861985
vn 0.4406426 0.89308906 -0.090698004
vn 0.4406426 0.89308906 -0.090698004
vn 0.40631798 0.90650254 -0.11471212
vn 0.40631798 0.90650254 -0.11471212
vn 0.35024095 0.92478836 -0.14865373
vn 0.35024095 0.92478836 -0.14865373
vn 0.31394613 0.9279767 -0.20074141
vn 0.31394613 0.9279767 -0.20074141
vn 0.30363166 0.93011844 -0.20660926
vn 0.25613394 0.929991 -0.26365188
vn 0.23082468 0.9323973 -0.27812794
vn 0.1569346 0.91433126 -0.3733228
vn -0.07652975 0.9964109 -0.036173232
vn -0.106909566 0.9930195 -0.049824834
vn -0.13034816 0.98814595 -0.08109933
vn -0.15704095 0.9821607 -0.10343355
vn -0.21466267 0.96320033 -0.16175629
vn -0.21466267 0.96320033 -0.16175629
vn -0.291758 0.93905926 -0.18178236
vn -0.291758 0.93905926 -0.18178236
vn -0.35718787 0.91673213 -0.1789384
vn -0.35718787 0.91673213 -0.1789384
vn -0.39332777 0.9081789 -0.14319356
vn -0.39332777 0.9081789 -0.14319356
vn -0.39764133 0.91262805 -0.09482221
vn -0.39764133 0.91262805 -0.09482221
vn -0.38599035 0.9190907 -0.07926928
vn -0.38599035 0.9190907 -0.07926928
vn -0.37886798 0.92194897 -0.08043177
vn -0.37886798 0.92194897 -0.08043177
vn -0.3772812 0.9225889 -0.080552466
vn -0.3772812 0.9225889 -0.080552466
vn -0.37555277 0.9235533 -0.07752018
vn -0.37555277 0.9235533 -0.07752018
vn -0.37633067 0.92361176 -0.07291365
vn -0.37633067 0.92361176 -0.07291365
vn -0.3799317 0.9221494 -0.072748065
vn -0.3799317 0.9221494 -0.072748065
vn -0.38440236 0.9202872 -0.07284408
vn -0.38440236 0.9202872 -0.07284408
vn -0.39056906 0.9178121 -0.071251094
vn -0.39056906 0.9178121 -0.071251094
vn -0.39969587 0.9140262 -0.069278054
vn -0.39969587 0.9140262 -0.069278054
vn -0.41231626 0.90844476 -0.06872688
vn -0.41231626 0.90844476 -0.06872688
vn -0.42425346 0.902756 -0.070997834
vn -0.42425346 0.902756 -0.070997834
vn -0.43288302 0.8987632 -0.06954866
vn -0.43288302 0.8987632 -0.06954866
vn -0.44043937 0.8949869 -0.07079197
vn -0.44043937 0.8949869 -0.07079197
vn -0.44577643 0.8916851 -0.07861982
vn -0.44577643 0.8916851 -0.07861982
vn -0.44064224 0.8930892 -0.09069801
vn -0.44064224 0.8930892 -0.09069801
vn -0.4063175 0.9065028 -0.11471212
vn -0.4063175 0.9065028 -0.11471212
vn -0.35023963 0.92478853 -0.14865468
vn -0.35023963 0.92478853 -0.14865468
vn -0.32574922 0.90979785 -0.25720707
vn -0.32574922 0.90979785 -0.25720707
vn -0.3333516 0.91236705 -0.23761983
vn -0.2758199 0.9181037 -0.28462076
vn -0.24916412 0.93479395 -0.2531356
vn -0.15692769 0.9143323 -0.3733233
g pm0757_00_FireMaskSkin_tx_0
f 3/3/3 2/2/2 1/1/1
f 3/3/3 4/4/4 2/2/2
f 5/5/5 4/4/4 3/3/3
f 6/6/6 5/5/5 3/3/3
f 7/7/7 5/5/5 6/6/6
f 8/8/8 7/7/7 6/6/6
f 9/9/9 7/7/7 8/8/8
f 10/10/10 9/9/9 8/8/8
f 11/11/11 9/9/9 10/10/10
f 12/12/12 11/11/11 10/10/10
f 13/13/13 11/11/11 12/12/12
f 14/14/14 13/13/13 12/12/12
f 15/15/15 13/13/13 14/14/14
f 16/16/16 15/15/15 14/14/14
f 17/17/17 15/15/15 16/16/16
f 18/18/18 17/17/17 16/16/16
f 19/19/19 17/17/17 18/18/18
f 20/20/20 19/19/19 18/18/18
f 21/21/21 19/19/19 20/20/20
f 22/22/22 21/21/21 20/20/20
f 23/23/23 21/21/21 22/22/22
f 24/24/24 23/23/23 22/22/22
f 25/25/25 23/23/23 24/24/24
f 26/26/26 25/25/25 24/24/24
f 27/27/27 25/25/25 26/26/26
f 28/28/28 27/27/27 26/26/26
f 29/29/29 27/27/27 28/28/28
f 30/30/30 29/29/29 28/28/28
f 31/31/31 29/29/29 30/30/30
f 32/32/32 31/31/31 30/30/30
f 33/33/33 31/31/31 32/32/32
f 34/34/34 33/33/33 32/32/32
f 35/35/35 33/33/33 34/34/34
f 36/36/36 35/35/35 34/34/34
f 37/37/37 35/35/35 36/36/36
f 38/38/38 37/37/37 36/36/36
f 39/39/39 37/37/37 38/38/38
f 40/40/40 39/39/39 38/38/38
f 41/41/41 39/39/39 40/40/40
f 42/42/42 41/41/41 40/40/40
f 43/43/43 41/41/41 42/42/42
f 44/44/44 43/43/43 42/42/42
f 45/45/45 43/43/43 44/44/44
f 46/46/46 45/45/45 44/44/44
f 47/47/47 45/45/45 46/46/46
f 48/48/48 47/47/47 46/46/46
f 49/49/49 47/47/47 48/48/48
f 50/50/50 49/49/49 48/48/48
f 51/51/51 49/49/49 50/50/50
f 52/52/52 51/51/51 50/50/50
f 52/52/52 53/53/53 51/51/51
f 52/52/52 54/54/54 53/53/53
f 57/57/57 56/56/56 55/55/55
f 58/58/58 57/57/57 55/55/55
f 61/61/61 60/60/60 59/59/59
f 62/62/62 61/61/61 59/59/59
f 65/65/65 64/64/64 63/63/63
f 66/66/66 65/65/65 63/63/63
f 69/69/69 68/68/68 67/67/67
f 70/70/70 69/69/69 67/67/67
f 73/73/73 72/72/72 71/71/71
f 74/74/74 73/73/73 71/71/71
f 77/77/77 76/76/76 75/75/75
f 78/78/78 77/77/77 75/75/75
f 81/81/81 80/80/80 79/79/79
f 82/82/82 81/81/81 79/79/79
f 85/85/85 84/84/84 83/83/83
f 86/86/86 85/85/85 83/83/83
f 89/89/89 88/88/88 87/87/87
f 90/90/90 89/89/89 87/87/87
f 93/93/93 92/92/92 91/91/91
f 94/94/94 93/93/93 91/91/91
f 97/97/97 96/96/96 95/95/95
f 98/98/98 96/96/96 97/97/97
f 98/98/98 99/99/99 96/96/96
f 99/99/99 100/100/100 96/96/96
f 99/99/99 101/101/101 100/100/100
f 101/101/101 102/102/102 100/100/100
f 101/101/101 103/103/103 102/102/102
f 103/103/103 104/104/104 102/102/102
f 104/104/104 103/103/103 105/105/105
f 103/103/103 106/106/106 105/105/105
f 106/106/106 107/107/107 105/105/105
f 107/107/107 108/108/108 105/105/105
f 107/107/107 109/109/109 108/108/108
f 109/109/109 110/110/110 108/108/108
f 109/109/109 111/111/111 110/110/110
f 111/111/111 112/112/112 110/110/110
f 111/111/111 113/113/113 112/112/112
f 113/113/113 114/114/114 112/112/112
f 113/113/113 115/115/115 114/114/114
f 115/115/115 116/116/116 114/114/114
f 115/115/115 117/117/117 116/116/116
f 117/117/117 118/118/118 116/116/116
f 117/117/117 119/119/119 118/118/118
f 119/119/119 120/120/120 118/118/118
f 119/119/119 121/121/121 120/120/120
f 121/121/121 122/122/122 120/120/120
f 121/121/121 123/123/123 122/122/122
f 123/123/123 124/124/124 122/122/122
f 123/123/123 125/125/125 124/124/124
f 125/125/125 126/126/126 124/124/124
f 125/125/125 127/127/127 126/126/126
f 127/127/127 128/128/128 126/126/126
f 127/127/127 129/129/129 128/128/128
f 129/129/129 130/130/130 128/128/128
f 129/129/129 131/131/131 130/130/130
f 131/131/131 132/132/132 130/130/130
f 131/131/131 133/133/133 132/132/132
f 133/133/133 134/134/134 132/132/132
f 133/133/133 135/135/135 134/134/134
f 135/135/135 136/136/136 134/134/134
f 135/135/135 137/137/137 136/136/136
f 137/137/137 138/138/138 136/136/136
f 137/137/137 139/139/139 138/138/138
f 139/139/139 140/140/140 138/138/138
f 139/139/139 141/141/141 140/140/140
f 141/141/141 142/142/142 140/140/140
f 141/141/141 143/143/143 142/142/142
f 143/143/143 144/144/144 142/142/142
f 143/143/143 145/145/145 144/144/144
f 145/145/145 146/146/146 144/144/144
f 147/147/147 146/146/146 145/145/145
f 148/148/148 146/146/146 147/147/147
f 151/151/151 150/150/150 149/149/149
f 151/151/151 152/152/152 150/150/150
f 153/153/153 152/152/152 151/151/151
f 154/154/154 153/153/153 151/151/151
f 155/155/155 153/153/153 154/154/154
f 156/156/156 155/155/155 154/154/154
f 157/157/157 155/155/155 156/156/156
f 158/158/158 157/157/157 156/156/156
f 159/159/159 157/157/157 158/158/158
f 160/160/160 159/159/159 158/158/158
f 161/161/161 159/159/159 160/160/160
f 162/162/162 161/161/161 160/160/160
f 163/163/163 161/161/161 162/162/162
f 164/164/164 163/163/163 162/162/162
f 165/165/165 163/163/163 164/164/164
f 166/166/166 165/165/165 164/164/164
f 167/167/167 165/165/165 166/166/166
f 168/168/168 167/167/167 166/166/166
f 169/169/169 167/167/167 168/168/168
f 170/170/170 169/169/169 168/168/168
f 171/171/171 169/169/169 170/170/170
f 172/172/172 171/171/171 170/170/170
f 173/173/173 171/171/171 172/172/172
f 174/174/174 173/173/173 172/172/172
f 175/175/175 173/173/173 174/174/174
f 176/176/176 175/175/175 174/174/174
f 177/177/177 175/175/175 176/176/176
f 178/178/178 177/177/177 176/176/176
f 179/179/179 177/177/177 178/178/178
f 180/180/180 179/179/179 178/178/178
f 181/181/181 179/179/179 180/180/180
f 182/182/182 181/181/181 180/180/180
f 183/183/183 181/181/181 182/182/182
f 184/184/184 183/183/183 182/182/182
f 185/185/185 183/183/183 184/184/184
f 186/186/186 185/185/185 184/184/184
f 187/187/187 185/185/185 186/186/186
f 188/188/188 187/187/187 186/186/186
f 189/189/189 187/187/187 188/188/188
f 190/190/190 189/189/189 188/188/188
f 191/191/191 189/189/189 190/190/190
f 192/192/192 191/191/191 190/190/190
f 193/193/193 191/191/191 192/192/192
f 194/194/194 193/193/193 192/192/192
f 195/195/195 193/193/193 194/194/194
f 196/196/196 195/195/195 194/194/194
f 197/197/197 195/195/195 196/196/196
f 198/198/198 197/197/197 196/196/196
f 199/199/199 197/197/197 198/198/198
f 200/200/200 199/199/199 198/198/198
f 200/200/200 201/201/201 199/199/199
f 200/200/200 202/202/202 201/201/201
