g pm0867_31_ShellASkin
v 0.36279732 1.11753 0.1227991
v 0.37128532 1.0946354 0.1251256
v 0.26659122 1.0591278 0.03243533
v 0.31668094 1.1896166 0.12250667
v 0.3598923 1.0711583 0.12706688
v 0.23998012 1.149889 0.04788793
v 0.2666836 1.2677819 0.12276377
v 0.23014233 1.1771008 0.05683937
v 0.22586295 1.3332576 0.12292961
v 0.18874976 1.2715111 0.058432095
v 0.21113661 1.3476493 0.12191166
v 0.18833148 1.3518755 0.1222807
v 0.09550142 1.3306631 0.12424835
v 0.17381613 1.112861 -0.020132035
v 0.22801448 0.98671055 0.04700179
v 0.30676243 0.9792783 0.12473799
v 0.17660351 0.8880822 0.055383842
v 0.24691133 0.8744259 0.12499925
v 0.2359377 0.85791403 0.12516679
v 0.2156962 0.8493637 0.12703477
v 0.1958117 1.0463302 -0.008378999
v 0.1375388 1.1946049 -0.004308567
v 0.092125796 0.8419803 0.06259734
v 0.10739419 0.8148147 0.12925874
v 0.17022218 0.9904124 0.008337378
v 0.12334484 1.0819119 -0.053131483
v 0.059730127 0.8334273 0.05339018
v 0.027496733 0.78905714 0.12947057
v 0.13260221 0.9082444 0.0006635511
v 0.13665815 1.0277759 -0.04870658
v -0.040522255 0.80468357 0.057338666
v -0.056819085 0.76142484 0.12746477
v -0.12867025 0.80635655 0.057238996
v -0.1403503 0.73419785 0.12534001
v -0.15919796 0.7315819 0.12409395
v -0.17644888 0.7399131 0.12439843
v 0.057377663 0.8687745 -0.0054762326
v 0.12617308 0.9933851 -0.043116663
v 0.11088639 0.9506891 -0.03979114
v 0.060363803 1.0183601 -0.08502477
v -0.016104965 0.86971843 -0.016280089
v 0.059411407 0.9154346 -0.053394478
v -0.22466579 0.86658275 0.05051832
v -0.28093508 0.83261204 0.12532346
v 0.049179275 0.97055876 -0.0816178
v -0.27851745 0.95235866 0.027146975
v -0.3777773 0.91697323 0.12497629
v -0.39342543 0.93463874 0.12347018
v -0.39303175 0.9557727 0.12329477
v -0.27158546 1.0585213 0.02671201
v -0.35936916 1.0535678 0.1253481
v -0.2068036 0.9538591 -0.009997083
v -0.14538659 0.90888995 0.0022136734
v -0.25730294 1.1187763 0.040357813
v -0.33229753 1.1345764 0.1257164
v -0.23309739 1.1887621 0.04736723
v -0.30302396 1.220555 0.12514116
v -0.29164693 1.2342632 0.12511532
v -0.2766789 1.24216 0.12621555
v -0.19567285 1.2620234 0.12725401
v -0.20052113 1.0250988 -0.025204353
v -0.18676883 1.0847995 -0.022834081
v -0.1264768 1.0042418 -0.074413724
v -0.06514607 0.8752853 -0.005581778
v -0.09404463 0.9607021 -0.056796927
v -0.002324594 0.91831344 -0.065283686
v -0.04135933 0.92934924 -0.045301575
v 0.003911277 0.97143555 -0.08549483
v 0.0007225263 1.0232023 -0.09142174
v -0.032522697 0.9670424 -0.085237645
v 0.04960008 1.064597 -0.08460045
v -0.047188777 0.9917434 -0.0825725
v -0.0558123 1.0110109 -0.08599423
v -0.10818547 1.0461048 -0.07560113
v -0.05405305 1.0332347 -0.0856257
v -0.091341816 1.0811074 -0.07563432
v 0.104886815 1.1243495 -0.04907368
v 0.06481175 1.1329864 -0.06094141
v -0.045688637 1.0555643 -0.08619061
v 0.020754525 1.0806464 -0.086144075
v 0.085170574 1.2071519 -0.010076161
v -0.019233745 1.0763153 -0.08497037
v 0.019663008 1.1296118 -0.07778709
v -0.03639501 1.1178259 -0.07159731
v 0.10050853 1.2798235 0.06538883
v 0.036823213 1.2092645 -0.011630388
v 0.020406118 1.2794176 0.073805936
v 0.009734135 1.3101964 0.12620798
v -0.03964608 1.2655021 0.07248389
v -0.05711183 1.294544 0.12728117
v -0.09675763 1.2517002 0.07069775
v -0.12140646 1.279406 0.12755768
v -0.0077251922 1.2048738 -0.013404099
v -0.060068965 1.1620463 -0.04079761
v -0.15716293 1.2257485 0.06067316
v -0.107665405 1.2148755 0.023808515
v -0.17214274 1.1220317 -0.02536348
v 0.37128532 1.0946354 0.1251256
v 0.36279732 1.11753 0.1227991
v 0.34429958 1.0975544 0.15412797
v 0.3598923 1.0711583 0.12706688
v 0.31668094 1.1896166 0.12250667
v 0.28133193 0.9914745 0.15481085
v 0.30676243 0.9792783 0.12473799
v 0.24691133 0.8744259 0.12499925
v 0.2931282 1.1786249 0.1544753
v 0.2666836 1.2677819 0.12276377
v 0.21484233 0.87838715 0.15454732
v 0.2359377 0.85791403 0.12516679
v 0.2156962 0.8493637 0.12703477
v 0.21501577 1.0777749 0.15412797
v 0.24395718 1.255893 0.15448435
v 0.22586295 1.3332576 0.12292961
v 0.1976076 1.328857 0.15360704
v 0.21113661 1.3476493 0.12191166
v 0.18833148 1.3518755 0.1222807
v 0.14278558 1.2290206 0.15412797
v 0.09093687 1.3020681 0.15462083
v 0.09550142 1.3306631 0.12424835
v 0.009734135 1.3101964 0.12620798
v 0.21648383 1.0123957 0.15412797
v 0.1848167 1.1532943 0.15412797
v 0.12058357 1.0489498 0.15412797
v 0.15188342 0.9681547 0.15412797
v 0.023834987 1.0206966 0.15412797
v 0.08739225 1.1277384 0.15412797
v 0.05285371 1.2058669 0.15412797
v 0.008414568 1.2814337 0.1547541
v -0.052719958 1.2661144 0.15485774
v -0.05711183 1.294544 0.12728117
v 0.09687912 0.8415116 0.15489803
v 0.10739419 0.8148147 0.12925874
v -0.0030270203 1.104136 0.15412797
v -0.02867195 1.1854436 0.15412797
v -0.11274475 1.2510985 0.15494755
v -0.12140646 1.279406 0.12755768
v -0.19567285 1.2620234 0.12725401
v -0.09977617 1.0820342 0.15412797
v -0.10980559 1.1663579 0.15412797
v -0.1821989 1.2338463 0.15501301
v -0.2766789 1.24216 0.12621555
v -0.20092641 1.1471179 0.15412797
v -0.27371457 1.2118194 0.15458779
v -0.29164693 1.2342632 0.12511532
v -0.30302396 1.220555 0.12514116
v -0.30383703 1.1266537 0.15491809
v -0.33229753 1.1345764 0.1257164
v -0.35936916 1.0535678 0.1253481
v -0.2070271 1.0617254 0.15412797
v -0.33296522 1.0465474 0.15469469
v -0.39303175 0.9557727 0.12329477
v -0.075169615 0.9955762 0.15412797
v -0.36848062 0.9462662 0.15419723
v -0.39342543 0.93463874 0.12347018
v -0.3777773 0.91697323 0.12497629
v -0.28093508 0.83261204 0.12532346
v -0.19876541 0.9716307 0.15412797
v -0.26327404 0.85584235 0.15490791
v -0.17644888 0.7399131 0.12439843
v -0.13835137 0.8812371 0.15412797
v -0.1539223 0.76198965 0.15466997
v -0.15919796 0.7315819 0.12409395
v -0.1403503 0.73419785 0.12534001
v -0.056819085 0.76142484 0.12746477
v -0.061767533 0.791392 0.15499444
v 0.027496733 0.78905714 0.12947057
v -0.0346261 0.9072127 0.15412797
v 0.018955763 0.8168799 0.15494204
v 0.06057254 0.93454236 0.15412797
vt 0.9880631 0.45468915
vt 0.98990166 0.4497304
vt 0.96722496 0.4420395
vt 0.97807455 0.47030282
vt 0.98743415 0.4446454
vt 0.9614613 0.46169806
vt 0.9672452 0.48723364
vt 0.95933056 0.46759224
vt 0.95840347 0.5014155
vt 0.95036495 0.4880414
vt 0.9552139 0.5045328
vt 0.95027435 0.50544834
vt 0.93016756 0.50085354
vt 0.9471303 0.45367813
vt 0.9588696 0.4263543
vt 0.97592616 0.42474437
vt 0.9477339 0.4049915
vt 0.9629625 0.40203333
vt 0.9605857 0.3984568
vt 0.9562013 0.39660478
vt 0.9518944 0.43926764
vt 0.93927264 0.4713832
vt 0.9294363 0.39500558
vt 0.93274355 0.38912177
vt 0.9463519 0.4271561
vt 0.9361981 0.44697452
vt 0.9224193 0.3931532
vt 0.9154378 0.38354266
vt 0.93820333 0.40935838
vt 0.9390818 0.4352486
vt 0.9007051 0.3869275
vt 0.8971751 0.37755752
vt 0.8816123 0.38728988
vt 0.87908244 0.37166035
vt 0.875 0.37109375
vt 0.8712634 0.3728981
vt 0.9219099 0.4008093
vt 0.936811 0.4277997
vt 0.9334998 0.41855192
vt 0.9225569 0.43320966
vt 0.9059936 0.40101373
vt 0.9223505 0.41091597
vt 0.8608198 0.4003346
vt 0.848632 0.39297664
vt 0.9201343 0.42285585
vt 0.84915555 0.41891348
vt 0.82765603 0.41124928
vt 0.8242668 0.41507566
vt 0.824352 0.41965294
vt 0.8506571 0.44190824
vt 0.83164334 0.44083536
vt 0.8646889 0.41923833
vt 0.87799144 0.40949857
vt 0.8537507 0.45495927
vt 0.8375069 0.45838153
vt 0.85899353 0.47011805
vt 0.84384775 0.47700453
vt 0.8463119 0.47997332
vt 0.8495538 0.48168397
vt 0.86709976 0.485986
vt 0.8660495 0.43466902
vt 0.86902833 0.44760025
vt 0.8820876 0.43015134
vt 0.89537156 0.4022194
vt 0.88911223 0.42072034
vt 0.9089786 0.41153944
vt 0.90052366 0.41392994
vt 0.9103292 0.42304552
vt 0.9096385 0.4342581
vt 0.9024377 0.42209387
vt 0.92022526 0.44322407
vt 0.899261 0.42744434
vt 0.8973931 0.43161762
vt 0.8860494 0.43921888
vt 0.8977742 0.43643105
vt 0.88969755 0.4468001
vt 0.93220043 0.4561664
vt 0.9235201 0.45803714
vt 0.8995861 0.44126785
vt 0.9139774 0.44670045
vt 0.9279299 0.47410107
vt 0.905316 0.44576216
vt 0.913741 0.45730603
vt 0.90159905 0.4547534
vt 0.931252 0.48984122
vt 0.91745806 0.47455883
vt 0.9139019 0.48975396
vt 0.9115906 0.4964199
vt 0.90089476 0.4867394
vt 0.89711165 0.4930303
vt 0.88852453 0.48375034
vt 0.8831856 0.48975134
vt 0.9078089 0.47360778
vt 0.89647126 0.4643314
vt 0.87544096 0.47812915
vt 0.8861618 0.4757743
vt 0.8721963 0.4556644
vt 0.7444732 0.23488665
vt 0.7463119 0.2398454
vt 0.7503183 0.23551893
vt 0.746941 0.22980165
vt 0.75630045 0.2554593
vt 0.7639568 0.2125423
vt 0.75844896 0.20990062
vt 0.7714124 0.18718958
vt 0.7614019 0.25307858
vt 0.76712966 0.27239013
vt 0.7783587 0.18804753
vt 0.77378905 0.18361306
vt 0.77817345 0.18176103
vt 0.77832127 0.23123491
vt 0.77205205 0.26981473
vt 0.77597165 0.28657198
vt 0.78209174 0.28561878
vt 0.7791611 0.28968906
vt 0.78410065 0.2906046
vt 0.7939662 0.26399422
vt 0.80519605 0.27981615
vt 0.80420756 0.28601003
vt 0.8227843 0.2815764
vt 0.7780031 0.21707356
vt 0.78486216 0.24759221
vt 0.79877496 0.22499132
vt 0.7919954 0.2074914
vt 0.8197305 0.2188716
vt 0.8059641 0.24205685
vt 0.8134451 0.25897932
vt 0.8230703 0.27534676
vt 0.8363121 0.27202868
vt 0.8372633 0.27818656
vt 0.8039094 0.18006039
vt 0.8016317 0.17427802
vt 0.82554865 0.23694456
vt 0.8311033 0.25455558
vt 0.8493134 0.26877642
vt 0.85118926 0.27490783
vt 0.8672754 0.27114248
vt 0.8465045 0.23215759
vt 0.8486767 0.25042176
vt 0.8643571 0.26503968
vt 0.8848213 0.26684022
vt 0.8684133 0.2462542
vt 0.8841791 0.26026845
vt 0.8880631 0.2651298
vt 0.8905275 0.26216078
vt 0.8907037 0.24182177
vt 0.896868 0.24353802
vt 0.90273166 0.2259916
vt 0.8697347 0.22775853
vt 0.8970128 0.22447121
vt 0.910023 0.20480919
vt 0.84117454 0.2134304
vt 0.9047053 0.20274997
vt 0.9101083 0.20023191
vt 0.90671897 0.19640553
vt 0.88574314 0.17813289
vt 0.86794543 0.20824409
vt 0.88191783 0.18316448
vt 0.8631114 0.15805435
vt 0.85485995 0.18866491
vt 0.8582323 0.16283631
vt 0.85937506 0.15625
vt 0.85529286 0.1568166
vt 0.8372002 0.16271377
vt 0.83827174 0.16920471
vt 0.81893706 0.1686989
vt 0.83239305 0.19429123
vt 0.8207873 0.17472541
vt 0.8117733 0.20021081
vn -0.9500961 -0.118348904 0.2886364
vn -0.96281815 0.061984386 0.2629435
vn -0.7976053 0.067466415 0.5993946
vn -0.88211864 -0.4104046 0.23115958
vn -0.95033556 0.22762765 0.21224521
vn -0.6692335 -0.26163557 0.6954663
vn -0.7956885 -0.5705158 0.20344946
vn -0.5949393 -0.4181529 0.6864367
vn -0.5834498 -0.76526433 0.27194992
vn -0.384973 -0.7033579 0.59756464
vn -0.43053502 -0.8609367 0.27097526
vn -0.25041842 -0.9394914 0.23376566
vn 0.053981204 -0.9970293 0.054940205
vn -0.52590734 -0.23741227 0.8167355
vn -0.7072823 0.40960655 0.57617205
vn -0.8609567 0.4991674 0.097904935
vn -0.59279054 0.6903061 0.41482157
vn -0.71961033 0.6892074 0.08458175
vn -0.64393544 0.76303107 0.055952214
vn -0.5542609 0.8323344 -0.0037962333
vn -0.60321295 0.068736754 0.7946127
vn -0.3497748 -0.46185422 0.8150757
vn -0.3718164 0.8272842 0.42113343
vn -0.3793671 0.91649187 -0.12697726
vn -0.5843083 0.3184999 0.74641925
vn -0.42429626 -0.16004059 0.89126855
vn -0.2565448 0.8584896 0.44404998
vn -0.28480464 0.94937605 -0.1325574
vn -0.4914574 0.545386 0.67898715
vn -0.49936977 0.07641774 0.8630123
vn -0.07814129 0.8615693 0.50158983
vn -0.1559858 0.98658806 -0.048089214
vn 0.21373229 0.82686883 0.52019846
vn 0.0796393 0.98833185 0.12983756
vn 0.22579864 0.95663357 0.18403028
vn 0.36225793 0.9123526 0.19074044
vn -0.2886105 0.7082277 0.6442961
vn -0.50500935 0.24385226 0.82795024
vn -0.42120093 0.40814522 0.80994266
vn -0.34170306 0.11028674 0.93331444
vn -0.030343782 0.6980746 0.7153818
vn -0.26233596 0.5223135 0.81139916
vn 0.46616548 0.6032481 0.64713323
vn 0.63632154 0.75637937 0.15160877
vn -0.24144049 0.3083933 0.9201087
vn 0.71798307 0.2846333 0.6352041
vn 0.8334855 0.49466616 0.2461856
vn 0.89969283 0.32854196 0.287425
vn 0.9452043 0.14187598 0.2940408
vn 0.7132741 -0.072729625 0.6971014
vn 0.960224 -0.18743326 0.2069749
vn 0.47482374 0.25969937 0.84089154
vn 0.34253472 0.47849107 0.80852723
vn 0.6801886 -0.3252849 0.65691185
vn 0.9020381 -0.40286052 0.15501842
vn 0.5623617 -0.64660263 0.5154167
vn 0.7540596 -0.62810457 0.19203845
vn 0.6514546 -0.73973083 0.16853873
vn 0.54094493 -0.83165854 0.12538959
vn 0.33378255 -0.94225216 -0.027387394
vn 0.5198863 0.029398186 0.8537294
vn 0.49806538 -0.22142208 0.8383932
vn 0.37109038 0.16736732 0.9133893
vn 0.18456368 0.6359271 0.7493551
vn 0.27799702 0.40791357 0.869669
vn -0.012531554 0.55051154 0.83473355
vn 0.17859565 0.50747937 0.84295213
vn -0.021873796 0.3381876 0.94082457
vn -0.009622568 0.0789159 0.9968348
vn 0.11096706 0.33702594 0.9349331
vn -0.25330842 -0.1561071 0.95470697
vn 0.16234893 0.27836257 0.94665575
vn 0.18047513 0.14866504 0.97227955
vn 0.35067317 -0.09696605 0.9314644
vn 0.17014423 -0.006447617 0.98539805
vn 0.26835242 -0.29429865 0.9172651
vn -0.32649168 -0.30488068 0.8946793
vn -0.19570859 -0.41501716 0.88851494
vn 0.13057357 -0.1211017 0.9840147
vn -0.059805963 -0.20661181 0.9765935
vn -0.13721615 -0.5986534 0.7891678
vn 0.05521228 -0.1787261 0.9823485
vn 0.005717434 -0.50057536 0.865674
vn 0.15322126 -0.41309288 0.8977068
vn -0.061500825 -0.79799044 0.59952384
vn 0.04584815 -0.70729226 0.7054329
vn 0.09345102 -0.8449634 0.5265964
vn 0.17760909 -0.9828628 -0.04935451
vn 0.14822727 -0.85718924 0.4932091
vn 0.20652902 -0.973943 -0.09370643
vn 0.21491969 -0.80955803 0.54628307
vn 0.24377407 -0.9665841 -0.0793065
vn 0.12195904 -0.66681725 0.735174
vn 0.23098573 -0.5680371 0.78992367
vn 0.3274221 -0.78449315 0.5266549
vn 0.2779668 -0.66658455 0.6916643
vn 0.3796927 -0.48717764 0.7864422
vn -0.96281815 0.061984386 0.2629435
vn -0.9500961 -0.118348904 0.2886364
vn -0.8178255 0.042975537 -0.5738594
vn -0.95033556 0.22762765 0.21224521
vn -0.88211864 -0.4104046 0.23115958
vn -0.56006086 0.3138505 -0.7667005
vn -0.8609567 0.4991674 0.097904935
vn -0.71961033 0.6892074 0.08458175
vn -0.5262605 -0.22629504 -0.81965876
vn -0.7956885 -0.5705158 0.20344946
vn -0.50761765 0.59424275 -0.62385887
vn -0.64393544 0.76303107 0.055952214
vn -0.5542609 0.8323344 -0.0037962333
vn -0.13533056 0.006822354 -0.990777
vn -0.44844747 -0.40825033 -0.79512686
vn -0.5834498 -0.76526433 0.27194992
vn -0.39942223 -0.8506164 -0.34192654
vn -0.43053502 -0.8609367 0.27097526
vn -0.25041842 -0.9394914 0.23376566
vn -0.060505122 -0.15236804 -0.98647004
vn -0.004235669 -0.594867 -0.80381304
vn 0.053981204 -0.9970293 0.054940205
vn 0.17760909 -0.9828628 -0.04935451
vn -0.11667295 0.062024027 -0.99123174
vn -0.08486517 -0.05189074 -0.99504036
vn -0.016290925 0.006824768 -0.99984396
vn -0.09344657 0.10724811 -0.98983115
vn -0.0021920293 0.0064671724 -0.99997675
vn -0.0056827595 -0.013517638 -0.9998925
vn 0.013173997 -0.1023379 -0.99466246
vn 0.0936077 -0.4856187 -0.8691445
vn 0.107721664 -0.47021118 -0.8759552
vn 0.20652902 -0.973943 -0.09370643
vn -0.22353171 0.4813126 -0.8475681
vn -0.3793671 0.91649187 -0.12697726
vn 0.0016351109 -0.007486741 -0.9999707
vn 0.021449747 -0.09282361 -0.9954515
vn 0.12274231 -0.46787593 -0.87522936
vn 0.24377407 -0.9665841 -0.0793065
vn 0.33378255 -0.94225216 -0.027387394
vn 0.008322168 -0.009856465 -0.9999168
vn 0.030610451 -0.09453282 -0.9950511
vn 0.23506252 -0.53428346 -0.8119648
vn 0.54094493 -0.83165854 0.12538959
vn 0.10884022 -0.12129686 -0.9866311
vn 0.6087174 -0.69054025 -0.39066246
vn 0.6514546 -0.73973083 0.16853873
vn 0.7540596 -0.62810457 0.19203845
vn 0.52656657 -0.2847904 -0.8010132
vn 0.9020381 -0.40286052 0.15501842
vn 0.960224 -0.18743326 0.2069749
vn 0.0884328 -0.024663273 -0.9957767
vn 0.5476715 -0.08323957 -0.83254254
vn 0.9452043 0.14187598 0.2940408
vn 0.0061455304 0.008386586 -0.999946
vn 0.7664466 0.2677406 -0.58384466
vn 0.89969283 0.32854196 0.287425
vn 0.8334855 0.49466616 0.2461856
vn 0.63632154 0.75637937 0.15160877
vn 0.11258522 0.046034332 -0.99257517
vn 0.40472662 0.5093507 -0.7594459
vn 0.36225793 0.9123526 0.19074044
vn 0.045546636 0.14152472 -0.98888636
vn 0.21874492 0.8930775 -0.39314538
vn 0.22579864 0.95663357 0.18403028
vn 0.0796393 0.98833185 0.12983756
vn -0.1559858 0.98658806 -0.048089214
vn -0.055124685 0.5611531 -0.8258743
vn -0.28480464 0.94937605 -0.1325574
vn -0.020151317 0.08755176 -0.9959561
vn -0.13316435 0.44512424 -0.88551205
vn -0.036474142 0.0826633 -0.9959098
g pm0867_31_ShellASkin_0
f 3/3/3 2/2/2 1/1/1
f 3/3/3 1/1/1 4/4/4
f 3/3/3 5/5/5 2/2/2
f 6/6/6 3/3/3 4/4/4
f 6/6/6 4/4/4 7/7/7
f 8/8/8 6/6/6 7/7/7
f 8/8/8 7/7/7 9/9/9
f 10/10/10 8/8/8 9/9/9
f 10/10/10 9/9/9 11/11/11
f 10/10/10 11/11/11 12/12/12
f 10/10/10 12/12/12 13/13/13
f 6/6/6 8/8/8 14/14/14
f 3/3/3 6/6/6 14/14/14
f 3/3/3 15/15/15 5/5/5
f 15/15/15 16/16/16 5/5/5
f 15/15/15 17/17/17 16/16/16
f 17/17/17 18/18/18 16/16/16
f 17/17/17 19/19/19 18/18/18
f 17/17/17 20/20/20 19/19/19
f 15/15/15 3/3/3 21/21/21
f 21/21/21 3/3/3 14/14/14
f 14/14/14 8/8/8 22/22/22
f 8/8/8 10/10/10 22/22/22
f 17/17/17 23/23/23 20/20/20
f 23/23/23 24/24/24 20/20/20
f 17/17/17 15/15/15 25/25/25
f 25/25/25 15/15/15 21/21/21
f 21/21/21 14/14/14 26/26/26
f 14/14/14 22/22/22 26/26/26
f 23/23/23 27/27/27 24/24/24
f 27/27/27 28/28/28 24/24/24
f 23/23/23 17/17/17 29/29/29
f 29/29/29 17/17/17 25/25/25
f 25/25/25 21/21/21 30/30/30
f 30/30/30 21/21/21 26/26/26
f 27/27/27 31/31/31 28/28/28
f 31/31/31 32/32/32 28/28/28
f 31/31/31 33/33/33 32/32/32
f 33/33/33 34/34/34 32/32/32
f 33/33/33 35/35/35 34/34/34
f 33/33/33 36/36/36 35/35/35
f 23/23/23 37/37/37 27/27/27
f 31/31/31 27/27/27 37/37/37
f 37/37/37 23/23/23 29/29/29
f 29/29/29 25/25/25 38/38/38
f 38/38/38 25/25/25 30/30/30
f 39/39/39 29/29/29 38/38/38
f 37/37/37 29/29/29 39/39/39
f 30/30/30 40/40/40 38/38/38
f 39/39/39 38/38/38 40/40/40
f 40/40/40 30/30/30 26/26/26
f 41/41/41 31/31/31 37/37/37
f 33/33/33 31/31/31 41/41/41
f 42/42/42 37/37/37 39/39/39
f 41/41/41 37/37/37 42/42/42
f 33/33/33 43/43/43 36/36/36
f 43/43/43 44/44/44 36/36/36
f 45/45/45 39/39/39 40/40/40
f 39/39/39 45/45/45 42/42/42
f 43/43/43 46/46/46 44/44/44
f 46/46/46 47/47/47 44/44/44
f 46/46/46 48/48/48 47/47/47
f 49/49/49 48/48/48 46/46/46
f 46/46/46 50/50/50 49/49/49
f 50/50/50 51/51/51 49/49/49
f 46/46/46 43/43/43 52/52/52
f 50/50/50 46/46/46 52/52/52
f 53/53/53 43/43/43 33/33/33
f 43/43/43 53/53/53 52/52/52
f 50/50/50 54/54/54 51/51/51
f 54/54/54 55/55/55 51/51/51
f 54/54/54 56/56/56 55/55/55
f 56/56/56 57/57/57 55/55/55
f 56/56/56 58/58/58 57/57/57
f 56/56/56 59/59/59 58/58/58
f 60/60/60 59/59/59 56/56/56
f 54/54/54 50/50/50 61/61/61
f 61/61/61 50/50/50 52/52/52
f 62/62/62 54/54/54 61/61/61
f 56/56/56 54/54/54 62/62/62
f 52/52/52 63/63/63 61/61/61
f 61/61/61 63/63/63 62/62/62
f 64/64/64 53/53/53 33/33/33
f 64/64/64 33/33/33 41/41/41
f 53/53/53 65/65/65 52/52/52
f 65/65/65 63/63/63 52/52/52
f 64/64/64 41/41/41 66/66/66
f 66/66/66 41/41/41 42/42/42
f 64/64/64 67/67/67 53/53/53
f 67/67/67 64/64/64 66/66/66
f 67/67/67 65/65/65 53/53/53
f 66/66/66 42/42/42 68/68/68
f 66/66/66 68/68/68 67/67/67
f 42/42/42 45/45/45 68/68/68
f 45/45/45 69/69/69 68/68/68
f 45/45/45 40/40/40 69/69/69
f 68/68/68 69/69/69 70/70/70
f 68/68/68 70/70/70 67/67/67
f 71/71/71 69/69/69 40/40/40
f 71/71/71 40/40/40 26/26/26
f 70/70/70 72/72/72 67/67/67
f 72/72/72 65/65/65 67/67/67
f 70/70/70 69/69/69 72/72/72
f 72/72/72 73/73/73 65/65/65
f 73/73/73 72/72/72 69/69/69
f 73/73/73 63/63/63 65/65/65
f 74/74/74 63/63/63 73/73/73
f 63/63/63 74/74/74 62/62/62
f 75/75/75 74/74/74 73/73/73
f 73/73/73 69/69/69 75/75/75
f 62/62/62 74/74/74 76/76/76
f 74/74/74 75/75/75 76/76/76
f 77/77/77 71/71/71 26/26/26
f 22/22/22 77/77/77 26/26/26
f 77/77/77 78/78/78 71/71/71
f 78/78/78 77/77/77 22/22/22
f 79/79/79 75/75/75 69/69/69
f 75/75/75 79/79/79 76/76/76
f 69/69/69 71/71/71 80/80/80
f 71/71/71 78/78/78 80/80/80
f 81/81/81 78/78/78 22/22/22
f 81/81/81 22/22/22 10/10/10
f 82/82/82 79/79/79 69/69/69
f 80/80/80 82/82/82 69/69/69
f 78/78/78 83/83/83 80/80/80
f 80/80/80 83/83/83 82/82/82
f 83/83/83 78/78/78 81/81/81
f 82/82/82 84/84/84 79/79/79
f 84/84/84 76/76/76 79/79/79
f 83/83/83 84/84/84 82/82/82
f 85/85/85 81/81/81 10/10/10
f 85/85/85 10/10/10 13/13/13
f 86/86/86 83/83/83 81/81/81
f 86/86/86 81/81/81 85/85/85
f 87/87/87 85/85/85 13/13/13
f 87/87/87 86/86/86 85/85/85
f 88/88/88 87/87/87 13/13/13
f 87/87/87 88/88/88 89/89/89
f 87/87/87 89/89/89 86/86/86
f 88/88/88 90/90/90 89/89/89
f 89/89/89 90/90/90 91/91/91
f 90/90/90 92/92/92 91/91/91
f 91/91/91 92/92/92 60/60/60
f 86/86/86 93/93/93 83/83/83
f 93/93/93 86/86/86 89/89/89
f 83/83/83 93/93/93 84/84/84
f 91/91/91 93/93/93 89/89/89
f 93/93/93 94/94/94 84/84/84
f 93/93/93 91/91/91 94/94/94
f 76/76/76 84/84/84 94/94/94
f 95/95/95 91/91/91 60/60/60
f 95/95/95 60/60/60 56/56/56
f 91/91/91 95/95/95 96/96/96
f 91/91/91 96/96/96 94/94/94
f 96/96/96 95/95/95 56/56/56
f 97/97/97 76/76/76 94/94/94
f 94/94/94 96/96/96 97/97/97
f 97/97/97 96/96/96 56/56/56
f 97/97/97 62/62/62 76/76/76
f 97/97/97 56/56/56 62/62/62
f 100/100/100 99/99/99 98/98/98
f 98/98/98 101/101/101 100/100/100
f 102/102/102 99/99/99 100/100/100
f 100/100/100 101/101/101 103/103/103
f 101/101/101 104/104/104 103/103/103
f 103/103/103 104/104/104 105/105/105
f 106/106/106 102/102/102 100/100/100
f 107/107/107 102/102/102 106/106/106
f 108/108/108 103/103/103 105/105/105
f 108/108/108 105/105/105 109/109/109
f 109/109/109 110/110/110 108/108/108
f 111/111/111 100/100/100 103/103/103
f 100/100/100 111/111/111 106/106/106
f 112/112/112 107/107/107 106/106/106
f 113/113/113 107/107/107 112/112/112
f 114/114/114 113/113/113 112/112/112
f 115/115/115 113/113/113 114/114/114
f 115/115/115 114/114/114 116/116/116
f 117/117/117 112/112/112 106/106/106
f 112/112/112 117/117/117 114/114/114
f 114/114/114 118/118/118 116/116/116
f 117/117/117 118/118/118 114/114/114
f 118/118/118 119/119/119 116/116/116
f 120/120/120 119/119/119 118/118/118
f 121/121/121 111/111/111 103/103/103
f 121/121/121 103/103/103 108/108/108
f 111/111/111 122/122/122 106/106/106
f 122/122/122 117/117/117 106/106/106
f 123/123/123 111/111/111 121/121/121
f 122/122/122 111/111/111 123/123/123
f 124/124/124 121/121/121 108/108/108
f 124/124/124 123/123/123 121/121/121
f 123/123/123 124/124/124 125/125/125
f 126/126/126 122/122/122 123/123/123
f 122/122/122 126/126/126 117/117/117
f 126/126/126 123/123/123 125/125/125
f 117/117/117 127/127/127 118/118/118
f 126/126/126 127/127/127 117/117/117
f 128/128/128 120/120/120 118/118/118
f 127/127/127 128/128/128 118/118/118
f 120/120/120 128/128/128 129/129/129
f 128/128/128 127/127/127 129/129/129
f 130/130/130 120/120/120 129/129/129
f 124/124/124 108/108/108 131/131/131
f 108/108/108 110/110/110 131/131/131
f 110/110/110 132/132/132 131/131/131
f 126/126/126 133/133/133 127/127/127
f 133/133/133 126/126/126 125/125/125
f 133/133/133 134/134/134 127/127/127
f 127/127/127 134/134/134 129/129/129
f 129/129/129 135/135/135 130/130/130
f 135/135/135 136/136/136 130/130/130
f 137/137/137 136/136/136 135/135/135
f 133/133/133 138/138/138 134/134/134
f 133/133/133 125/125/125 138/138/138
f 134/134/134 139/139/139 129/129/129
f 139/139/139 135/135/135 129/129/129
f 138/138/138 139/139/139 134/134/134
f 140/140/140 137/137/137 135/135/135
f 135/135/135 139/139/139 140/140/140
f 141/141/141 137/137/137 140/140/140
f 139/139/139 142/142/142 140/140/140
f 142/142/142 139/139/139 138/138/138
f 143/143/143 141/141/141 140/140/140
f 143/143/143 140/140/140 142/142/142
f 144/144/144 141/141/141 143/143/143
f 143/143/143 145/145/145 144/144/144
f 143/143/143 146/146/146 145/145/145
f 146/146/146 143/143/143 142/142/142
f 146/146/146 147/147/147 145/145/145
f 147/147/147 146/146/146 148/148/148
f 149/149/149 142/142/142 138/138/138
f 142/142/142 149/149/149 146/146/146
f 146/146/146 150/150/150 148/148/148
f 149/149/149 150/150/150 146/146/146
f 148/148/148 150/150/150 151/151/151
f 149/149/149 138/138/138 152/152/152
f 125/125/125 152/152/152 138/138/138
f 150/150/150 153/153/153 151/151/151
f 151/151/151 153/153/153 154/154/154
f 153/153/153 155/155/155 154/154/154
f 156/156/156 155/155/155 153/153/153
f 149/149/149 157/157/157 150/150/150
f 157/157/157 153/153/153 150/150/150
f 157/157/157 149/149/149 152/152/152
f 158/158/158 156/156/156 153/153/153
f 153/153/153 157/157/157 158/158/158
f 159/159/159 156/156/156 158/158/158
f 157/157/157 152/152/152 160/160/160
f 157/157/157 160/160/160 158/158/158
f 161/161/161 159/159/159 158/158/158
f 158/158/158 160/160/160 161/161/161
f 162/162/162 159/159/159 161/161/161
f 161/161/161 163/163/163 162/162/162
f 164/164/164 163/163/163 161/161/161
f 165/165/165 164/164/164 161/161/161
f 160/160/160 165/165/165 161/161/161
f 166/166/166 164/164/164 165/165/165
f 152/152/152 167/167/167 160/160/160
f 160/160/160 167/167/167 165/165/165
f 167/167/167 152/152/152 125/125/125
f 168/168/168 166/166/166 165/165/165
f 167/167/167 168/168/168 165/165/165
f 132/132/132 166/166/166 168/168/168
f 131/131/131 132/132/132 168/168/168
f 168/168/168 167/167/167 131/131/131
f 169/169/169 167/167/167 125/125/125
f 167/167/167 169/169/169 131/131/131
f 124/124/124 169/169/169 125/125/125
f 169/169/169 124/124/124 131/131/131
