g pm0863_31_RClawBSkin
v -0.47457367 0.38117898 -0.056390006
v -0.44538382 0.3813834 -0.054509982
v -0.44538382 0.38804737 -0.048702784
v -0.47457367 0.38771957 -0.050429754
v -0.44538382 0.40074718 -0.025958804
v -0.50711066 0.38030723 -0.056420512
v -0.47457367 0.40019438 -0.02694764
v -0.44538382 0.4028567 -0.0022639735
v -0.50711066 0.38632193 -0.05069522
v -0.50711066 0.3978377 -0.027542083
v -0.47457367 0.4022547 -0.0022639735
v -0.5458995 0.38442034 -0.0488244
v -0.5458995 0.37902057 -0.053998947
v -0.5458995 0.39482275 -0.027038516
v -0.58833045 0.38145 -0.044869393
v -0.58833045 0.3768463 -0.04919156
v -0.47457367 0.40019438 0.022419691
v -0.44538382 0.40074718 0.021430861
v -0.50711066 0.39968848 -0.0022639735
v -0.50711066 0.3978377 0.023014136
v -0.47457367 0.38771957 0.045901813
v -0.44538382 0.38804737 0.044174843
v -0.47457367 0.38117898 0.051862057
v -0.44538382 0.3813834 0.049982037
v -0.50711066 0.38030723 0.051892564
v -0.50711066 0.38632193 0.046167277
v -0.5458995 0.39482275 0.022510573
v -0.5458995 0.38442034 0.044296455
v -0.5458995 0.37902057 0.049471006
v -0.58833045 0.38145 0.04034145
v -0.58833045 0.3768463 0.044663616
v -0.5458995 0.39656112 -0.0022639735
v -0.58833164 0.3903686 0.020899972
v -0.58833045 0.39215925 -0.0022639735
v -0.6246499 0.3779229 0.03361818
v -0.6246455 0.37385696 0.037108485
v -0.58833164 0.3903686 -0.025427917
v -0.62465954 0.38718045 -0.0022639735
v -0.6246688 0.38522407 0.017560558
v -0.6579901 0.38134485 -0.0022639735
v -0.6246688 0.38522407 -0.022088505
v -0.6578271 0.37388203 0.02439488
v -0.65775776 0.36976472 0.027433962
v -0.6873761 0.3653716 0.01630084
v -0.65796477 0.37931064 0.012729976
v -0.6246499 0.3779229 -0.038144816
v -0.6246455 0.37385696 -0.041636437
v -0.6882001 0.3690544 0.013569522
v -0.69827926 0.3633337 0.011305354
v -0.6892954 0.3721492 0.0067727123
v -0.6993948 0.36628735 0.008203104
v -0.70818734 0.36081523 0.0057107024
v -0.65796477 0.37931064 -0.017257923
v -0.6578271 0.37388203 -0.02892283
v -0.65775776 0.36976472 -0.03195651
v -0.6873761 0.3653716 -0.020828791
v -0.6892954 0.3721492 -0.01130063
v -0.6882001 0.3690544 -0.018097468
v -0.69827926 0.3633337 -0.015833301
v -0.6993948 0.36628735 -0.012731051
v -0.70818734 0.36081523 -0.010238648
v -0.69014084 0.37368712 -0.0022639735
v -0.70046294 0.36843807 -0.008250205
v -0.70046294 0.36843807 0.0037222584
v -0.7014206 0.3695744 -0.0022639735
v -0.7112034 0.36495697 -0.0022639735
v -0.70918286 0.36471954 -0.006068622
v -0.7045289 0.36518845 -0.009736119
v -0.71355635 0.35961348 -0.005697293
v -0.7152492 0.35893118 -0.0022639735
v -0.71355635 0.35961348 0.0011693469
v -0.70918286 0.36471954 0.0015406762
v -0.7045289 0.36518845 0.005208173
v -0.69827926 0.3633337 0.011305354
v -0.7040624 0.3595674 0.005093526
v -0.70818734 0.36081523 0.0057107024
v -0.71355635 0.35961348 0.0011693469
v -0.69608295 0.3610844 0.00977662
v -0.6868469 0.3626657 0.014049834
v -0.6873761 0.3653716 0.01630084
v -0.6577135 0.36640808 0.023600122
v -0.65775776 0.36976472 0.027433962
v -0.62464267 0.36935753 0.031300563
v -0.6246455 0.37385696 0.037108485
v -0.58833045 0.3712796 0.037041042
v -0.58833045 0.3768463 0.044663616
v -0.5458995 0.37245083 0.040293913
v -0.5458995 0.37902057 0.049471006
v -0.58833045 0.37124434 0.018387524
v -0.62464565 0.36935985 0.01538722
v -0.58833045 0.37121952 -0.0022639735
v -0.65775937 0.3664903 0.011432716
v -0.68739307 0.363016 0.006198914
v -0.68789333 0.36292356 -0.0022639735
v -0.6970456 0.36101344 0.00417416
v -0.6578012 0.36654648 -0.0022639735
v -0.7086418 0.3586598 0.001291828
v -0.6975136 0.36083952 -0.0022639735
v -0.7100702 0.3583535 -0.0022639735
v -0.7152492 0.35893118 -0.0022639735
v -0.71355635 0.35961348 -0.005697293
v -0.7086418 0.3586598 -0.0058197747
v -0.6970456 0.36101344 -0.008702107
v -0.7040624 0.3595674 -0.009621472
v -0.70818734 0.36081523 -0.010238648
v -0.69827926 0.3633337 -0.015833301
v -0.69608295 0.3610844 -0.014304602
v -0.68739307 0.363016 -0.010726861
v -0.6868469 0.3626657 -0.018578066
v -0.6873761 0.3653716 -0.020828791
v -0.65775937 0.3664903 -0.015960664
v -0.6577135 0.36640808 -0.028128335
v -0.65775776 0.36976472 -0.03195651
v -0.62464565 0.36935985 -0.019915167
v -0.62464267 0.36935753 -0.03582851
v -0.6246455 0.37385696 -0.041636437
v -0.58833045 0.3712796 -0.041568983
v -0.58833045 0.3768463 -0.04919156
v -0.58833045 0.37124434 -0.02291547
v -0.5458995 0.37245083 -0.044821862
v -0.5458995 0.37902057 -0.053998947
v -0.6246483 0.3693614 -0.0022639735
v -0.5458995 0.37240607 -0.024556903
v -0.50711066 0.37298927 -0.04626669
v -0.50711066 0.38030723 -0.056420512
v -0.47457367 0.38117898 -0.056390006
v -0.50711066 0.3729394 -0.025243947
v -0.50711066 0.37290424 -0.0022639735
v -0.47457367 0.37322113 -0.04581948
v -0.44538382 0.3813834 -0.054509982
v -0.44538382 0.37327552 -0.044210903
v -0.47457367 0.3731669 -0.02494504
v -0.44538382 0.37322024 -0.02409244
v -0.47457367 0.37312865 -0.0022639735
v -0.44538382 0.37318128 -0.0022639735
v -0.44538382 0.37322024 0.019564494
v -0.47457367 0.3731669 0.020417096
v -0.44538382 0.37327552 0.03968296
v -0.47457367 0.37322113 0.04129153
v -0.44538382 0.3813834 0.049982037
v -0.47457367 0.38117898 0.051862057
v -0.50711066 0.3729394 0.020716004
v -0.50711066 0.37298927 0.041738737
v -0.50711066 0.38030723 0.051892564
v -0.5458995 0.37240607 0.020028953
v -0.5458995 0.37237456 -0.0022639735
vt 0.28715837 0.49410784
vt 0.2578125 0.49410784
vt 0.2578125 0.49870136
vt 0.28715837 0.49839064
vt 0.2578125 0.51173854
vt 0.32001233 0.49410784
vt 0.28715834 0.51136196
vt 0.2578125 0.5234375
vt 0.32001233 0.49821398
vt 0.32001233 0.5109651
vt 0.28715834 0.5234375
vt 0.35922936 0.49902973
vt 0.35922936 0.49525586
vt 0.35922933 0.511095
vt 0.40215042 0.5011753
vt 0.40215042 0.49800786
vt 0.28715834 0.5355129
vt 0.2578125 0.53513646
vt 0.32001233 0.5234374
vt 0.32001233 0.53591
vt 0.28715837 0.5484842
vt 0.2578125 0.54817355
vt 0.28715837 0.5527669
vt 0.2578125 0.5527669
vt 0.32001233 0.5527669
vt 0.32001233 0.5486609
vt 0.35922933 0.53577995
vt 0.35922936 0.54784524
vt 0.35922936 0.5516192
vt 0.40215042 0.54569983
vt 0.40215042 0.5488672
vt 0.35922933 0.5234375
vt 0.40215042 0.53500867
vt 0.40215042 0.5234375
vt 0.4389707 0.5422189
vt 0.4389707 0.54488695
vt 0.40215042 0.51186633
vt 0.4389707 0.5234374
vt 0.4389707 0.533394
vt 0.47277245 0.5234375
vt 0.4389707 0.5134808
vt 0.47277242 0.53760743
vt 0.47277245 0.5401783
vt 0.5047029 0.5342536
vt 0.47277242 0.5310702
vt 0.4389707 0.50465596
vt 0.4389707 0.5019876
vt 0.5047029 0.53185093
vt 0.5159954 0.5311042
vt 0.5047029 0.5280167
vt 0.5159953 0.52888596
vt 0.52588654 0.52768993
vt 0.47277242 0.5158048
vt 0.47277242 0.5092675
vt 0.47277245 0.5066985
vt 0.5047029 0.51262116
vt 0.5047029 0.5188581
vt 0.5047029 0.51502395
vt 0.5159954 0.5157707
vt 0.5159953 0.51798886
vt 0.52588654 0.5191848
vt 0.5047029 0.5234375
vt 0.5159954 0.5204915
vt 0.5159954 0.5263834
vt 0.5159954 0.5234375
vt 0.52609 0.5234375
vt 0.5245777 0.521665
vt 0.52067107 0.51969606
vt 0.5310718 0.52171767
vt 0.5334282 0.5234374
vt 0.5310718 0.52515733
vt 0.5245777 0.52521014
vt 0.52067107 0.52717876
vt 0.28709286 0.60816866
vt 0.2805523 0.6033732
vt 0.27420345 0.60417885
vt 0.26519075 0.60029423
vt 0.28709283 0.6051976
vt 0.30261636 0.6096505
vt 0.30261636 0.6123047
vt 0.32410228 0.6129453
vt 0.3241023 0.6159957
vt 0.3579044 0.6152929
vt 0.3579044 0.6191056
vt 0.39472446 0.6181712
vt 0.39472422 0.623086
vt 0.43764523 0.61991227
vt 0.43764523 0.6258379
vt 0.39472422 0.6084584
vt 0.3579044 0.60694385
vt 0.39472446 0.59765625
vt 0.32410228 0.60572016
vt 0.30261636 0.6038144
vt 0.3026166 0.59765613
vt 0.28709286 0.60159767
vt 0.32410228 0.59765613
vt 0.27322447 0.6003564
vt 0.28709286 0.59765625
vt 0.27068394 0.5976561
vt 0.2610936 0.59765613
vt 0.26519075 0.59501874
vt 0.27322447 0.5949562
vt 0.28709286 0.5937147
vt 0.2805523 0.5919392
vt 0.27420345 0.5911334
vt 0.28709286 0.5871437
vt 0.28709283 0.5901148
vt 0.3026166 0.59149814
vt 0.3026166 0.5856615
vt 0.3026166 0.5830077
vt 0.32410228 0.58959174
vt 0.32410228 0.5823664
vt 0.3241023 0.57931834
vt 0.3579044 0.5883683
vt 0.3579044 0.580019
vt 0.3579044 0.5762063
vt 0.39472422 0.57714117
vt 0.39472422 0.5722265
vt 0.39472422 0.586854
vt 0.43764523 0.57540035
vt 0.43764523 0.56947446
vt 0.35790437 0.5976561
vt 0.43764523 0.5859978
vt 0.47686267 0.5748017
vt 0.47686267 0.5683266
vt 0.50971663 0.5683266
vt 0.47686267 0.5857091
vt 0.47686267 0.59765625
vt 0.50971663 0.5750773
vt 0.5390625 0.5683266
vt 0.5390625 0.5755352
vt 0.50971663 0.58588123
vt 0.5390625 0.5862553
vt 0.5097166 0.5976562
vt 0.5390625 0.59765625
vt 0.5390625 0.60905707
vt 0.50971663 0.60943115
vt 0.5390625 0.6197772
vt 0.50971663 0.6202352
vt 0.5390625 0.62698567
vt 0.50971663 0.62698567
vt 0.47686246 0.6096033
vt 0.47686246 0.6205107
vt 0.47686267 0.62698567
vt 0.43764523 0.6093147
vt 0.4376452 0.5976562
vn 0.029289722 -0.29742178 -0.9542968
vn 0.057364352 -0.2960697 -0.9534423
vn 0.016609073 0.8361361 -0.5482706
vn -0.012969731 0.84069294 -0.5413568
vn -0.004493296 0.95655257 -0.29152554
vn -0.02364665 -0.30924284 -0.95068914
vn -0.034115735 0.95762235 -0.28599918
vn -0.01831764 0.99983215 0
vn -0.055873577 0.8511937 -0.5218692
vn -0.06879163 0.96075726 -0.26872534
vn -0.048485994 0.9988238 0
vn -0.089862585 0.8581284 -0.5055099
vn -0.06873638 -0.30985025 -0.94829744
vn -0.091778465 0.96292084 -0.25369322
vn -0.13677895 0.85718346 -0.4965159
vn -0.120706506 -0.29907405 -0.9465646
vn -0.034115788 0.95762235 0.28599927
vn -0.0044932957 0.95655245 0.2915256
vn -0.07725691 0.9970112 0
vn -0.06879163 0.96075726 0.26872528
vn -0.012969731 0.84069294 0.5413568
vn 0.016609073 0.83613616 0.54827046
vn 0.029289844 -0.29742235 0.95429665
vn 0.057364352 -0.29607064 0.9534419
vn -0.023646591 -0.30924314 0.950689
vn -0.055873577 0.8511937 0.5218692
vn -0.09177846 0.96292084 0.25369307
vn -0.08986259 0.85812855 0.50550973
vn -0.06873632 -0.30985034 0.94829744
vn -0.13677575 0.85718447 0.49651504
vn -0.1207 -0.29909885 0.94655764
vn -0.09254951 0.995708 0
vn -0.12743932 0.96054584 0.24720612
vn -0.12106329 0.9926448 2.3841858E-07
vn -0.2020787 0.8427287 0.49897143
vn -0.20015927 -0.24508317 0.94861495
vn -0.127441 0.9605452 -0.24720815
vn -0.15869632 0.9873274 0
vn -0.17391093 0.95293534 0.24833299
vn -0.20489314 0.9787844 -4.768372E-07
vn -0.17391215 0.9529337 -0.24833797
vn -0.26917374 0.80959594 0.52163196
vn -0.28215802 -0.14030123 0.9490534
vn -0.358889 -0.021479309 0.93313307
vn -0.22362854 0.93936896 0.2599542
vn -0.20208934 0.8427125 -0.49899462
vn -0.20019269 -0.24502586 -0.9486228
vn -0.33236945 0.77712333 0.53442484
vn -0.45513555 -0.0110437265 0.8903537
vn -0.2792802 0.9214002 0.27023017
vn -0.45028186 0.68412864 0.57377195
vn -0.56575 -0.10038633 0.8184434
vn -0.22362721 0.9393683 -0.2599579
vn -0.26917875 0.80955094 -0.52169925
vn -0.28217506 -0.14023799 -0.9490577
vn -0.35883087 -0.021454932 -0.933156
vn -0.27927977 0.9214003 -0.27022994
vn -0.3323699 0.77708936 -0.534474
vn -0.45513952 -0.011037051 -0.8903517
vn -0.45028222 0.6841288 -0.5737716
vn -0.56575245 -0.1003881 -0.81844145
vn -0.26303872 0.9647852 1.19209275E-07
vn -0.38849407 0.86796165 -0.30937842
vn -0.38849458 0.86796117 0.3093791
vn -0.38531494 0.92278516 0
vn -0.6163865 0.7874438 -2.9802325E-07
vn -0.5445176 0.7319152 -0.4096348
vn -0.5057116 0.6256888 -0.5939439
vn -0.7871628 -0.06310105 -0.6135087
vn -0.995165 -0.09821785 -4.1723254E-07
vn -0.7871625 -0.063100815 0.6135092
vn -0.54451644 0.7319166 0.40963385
vn -0.5057099 0.6256888 0.59394526
vn -0.45513555 -0.0110437265 0.8903537
vn 0.008381484 -0.9523492 0.30489442
vn -0.56575 -0.10038633 0.8184434
vn -0.7871625 -0.063100815 0.6135092
vn 0.03586829 -0.95643705 0.28972688
vn 0.05465842 -0.979481 0.19398311
vn -0.358889 -0.021479309 0.93313307
vn 0.03839242 -0.9780636 0.20473766
vn -0.28215802 -0.14030123 0.9490534
vn 0.02378786 -0.9783155 0.20574977
vn -0.20015927 -0.24508317 0.94861495
vn 0.011834265 -0.9766014 0.21473122
vn -0.1207 -0.29909885 0.94655764
vn 0.0072155013 -0.97478414 0.22303332
vn -0.06873632 -0.30985034 0.94829744
vn 0.037898425 -0.99928075 0.0012762547
vn 0.066727646 -0.997771 -0.00065702206
vn 0.037736893 -0.9992878 0
vn 0.10085667 -0.9948773 -0.0068683624
vn 0.1362958 -0.99058783 -0.012621225
vn 0.135206 -0.99081755 -3.576279E-07
vn 0.20166257 -0.97941816 -0.0085029015
vn 0.09828973 -0.9951578 0
vn 0.071260564 -0.98785025 0.13810813
vn 0.20145118 -0.97949857 2.3841858E-07
vn 0.08289326 -0.9965585 7.1525574E-07
vn -0.995165 -0.09821785 -4.1723254E-07
vn -0.7871628 -0.06310105 -0.6135087
vn 0.0712608 -0.9878505 -0.13810562
vn 0.20166339 -0.979418 0.0085020065
vn 0.00838089 -0.95234966 -0.30489343
vn -0.56575245 -0.1003881 -0.81844145
vn -0.45513952 -0.011037051 -0.8903517
vn 0.035867214 -0.95643693 -0.28972718
vn 0.13629568 -0.99058783 0.01262057
vn 0.05465937 -0.9794756 -0.1940102
vn -0.35883087 -0.021454932 -0.933156
vn 0.10085667 -0.9948773 0.0068682437
vn 0.038378954 -0.97805697 -0.20477223
vn -0.28217506 -0.14023799 -0.9490577
vn 0.066727765 -0.997771 0.0006569624
vn 0.023774749 -0.9783131 -0.20576301
vn -0.20019269 -0.24502586 -0.9486228
vn 0.011834264 -0.97660154 -0.21473098
vn -0.120706506 -0.29907405 -0.9465646
vn 0.03789854 -0.99928075 -0.001276195
vn 0.0072155 -0.97478414 -0.22303331
vn -0.06873638 -0.30985025 -0.94829744
vn 0.066062815 -0.9978155 0
vn 0.02062607 -0.9997857 -0.0017653706
vn 0.008201359 -0.97176707 -0.23579952
vn -0.02364665 -0.30924284 -0.95068914
vn 0.029289722 -0.29742178 -0.9542968
vn 0.01064205 -0.99994147 -0.0019420978
vn 0.010600924 -0.99994385 0
vn 0.01482642 -0.9684429 -0.2487943
vn 0.057364352 -0.2960697 -0.9534423
vn 0.017117975 -0.9697688 -0.24342427
vn 0.004627586 -0.9999871 -0.002102733
vn 0.0018963814 -0.9999958 -0.0021745563
vn 0.004567385 -0.9999896 0
vn 0.0018411876 -0.99999833 0
vn 0.0018963814 -0.9999958 0.0021744967
vn 0.004627586 -0.9999871 0.002102733
vn 0.017117977 -0.9697688 0.24342453
vn 0.014826418 -0.9684429 0.24879435
vn 0.057364352 -0.29607064 0.9534419
vn 0.029289844 -0.29742235 0.95429665
vn 0.010641931 -0.99994147 0.0019421575
vn 0.008201361 -0.9717672 0.23579943
vn -0.023646591 -0.30924314 0.950689
vn 0.02062607 -0.9997857 0.0017653706
vn 0.02060354 -0.99978775 0
g pm0863_31_RClawBSkin_0
f 3/3/3 2/2/2 1/1/1
f 4/4/4 3/3/3 1/1/1
f 5/5/5 3/3/3 4/4/4
f 1/1/1 6/6/6 4/4/4
f 7/7/7 5/5/5 4/4/4
f 8/8/8 5/5/5 7/7/7
f 6/6/6 9/9/9 4/4/4
f 7/7/7 4/4/4 10/10/10
f 4/4/4 9/9/9 10/10/10
f 11/11/11 8/8/8 7/7/7
f 7/7/7 10/10/10 11/11/11
f 12/12/12 9/9/9 6/6/6
f 13/13/13 12/12/12 6/6/6
f 10/10/10 9/9/9 14/14/14
f 9/9/9 12/12/12 14/14/14
f 12/12/12 13/13/13 15/15/15
f 13/13/13 16/16/16 15/15/15
f 8/8/8 11/11/11 17/17/17
f 18/18/18 8/8/8 17/17/17
f 10/10/10 19/19/19 11/11/11
f 10/10/10 14/14/14 19/19/19
f 20/20/20 17/17/17 11/11/11
f 19/19/19 20/20/20 11/11/11
f 18/18/18 17/17/17 21/21/21
f 21/21/21 17/17/17 20/20/20
f 22/22/22 18/18/18 21/21/21
f 22/22/22 21/21/21 23/23/23
f 24/24/24 22/22/22 23/23/23
f 25/25/25 23/23/23 21/21/21
f 26/26/26 21/21/21 20/20/20
f 26/26/26 25/25/25 21/21/21
f 27/27/27 20/20/20 19/19/19
f 26/26/26 20/20/20 27/27/27
f 26/26/26 28/28/28 25/25/25
f 28/28/28 26/26/26 27/27/27
f 28/28/28 29/29/29 25/25/25
f 29/29/29 28/28/28 30/30/30
f 31/31/31 29/29/29 30/30/30
f 32/32/32 27/27/27 19/19/19
f 14/14/14 32/32/32 19/19/19
f 28/28/28 27/27/27 33/33/33
f 30/30/30 28/28/28 33/33/33
f 27/27/27 32/32/32 34/34/34
f 32/32/32 14/14/14 34/34/34
f 33/33/33 27/27/27 34/34/34
f 31/31/31 30/30/30 35/35/35
f 36/36/36 31/31/31 35/35/35
f 14/14/14 37/37/37 34/34/34
f 14/14/14 12/12/12 37/37/37
f 12/12/12 15/15/15 37/37/37
f 33/33/33 34/34/34 38/38/38
f 34/34/34 37/37/37 38/38/38
f 30/30/30 33/33/33 39/39/39
f 35/35/35 30/30/30 39/39/39
f 39/39/39 33/33/33 38/38/38
f 38/38/38 40/40/40 39/39/39
f 37/37/37 41/41/41 38/38/38
f 37/37/37 15/15/15 41/41/41
f 40/40/40 38/38/38 41/41/41
f 35/35/35 42/42/42 36/36/36
f 42/42/42 43/43/43 36/36/36
f 43/43/43 42/42/42 44/44/44
f 35/35/35 39/39/39 45/45/45
f 40/40/40 45/45/45 39/39/39
f 42/42/42 35/35/35 45/45/45
f 15/15/15 46/46/46 41/41/41
f 15/15/15 16/16/16 46/46/46
f 16/16/16 47/47/47 46/46/46
f 42/42/42 48/48/48 44/44/44
f 44/44/44 48/48/48 49/49/49
f 42/42/42 45/45/45 50/50/50
f 48/48/48 42/42/42 50/50/50
f 50/50/50 45/45/45 40/40/40
f 48/48/48 51/51/51 49/49/49
f 51/51/51 48/48/48 50/50/50
f 49/49/49 51/51/51 52/52/52
f 41/41/41 46/46/46 53/53/53
f 53/53/53 40/40/40 41/41/41
f 54/54/54 46/46/46 47/47/47
f 46/46/46 54/54/54 53/53/53
f 55/55/55 54/54/54 47/47/47
f 54/54/54 55/55/55 56/56/56
f 53/53/53 57/57/57 40/40/40
f 53/53/53 54/54/54 57/57/57
f 58/58/58 54/54/54 56/56/56
f 54/54/54 58/58/58 57/57/57
f 58/58/58 56/56/56 59/59/59
f 60/60/60 58/58/58 59/59/59
f 58/58/58 60/60/60 57/57/57
f 60/60/60 59/59/59 61/61/61
f 57/57/57 62/62/62 40/40/40
f 62/62/62 50/50/50 40/40/40
f 60/60/60 63/63/63 57/57/57
f 57/57/57 63/63/63 62/62/62
f 64/64/64 50/50/50 62/62/62
f 64/64/64 51/51/51 50/50/50
f 63/63/63 65/65/65 62/62/62
f 65/65/65 64/64/64 62/62/62
f 66/66/66 65/65/65 63/63/63
f 65/65/65 66/66/66 64/64/64
f 67/67/67 63/63/63 60/60/60
f 67/67/67 66/66/66 63/63/63
f 68/68/68 60/60/60 61/61/61
f 68/68/68 67/67/67 60/60/60
f 68/68/68 61/61/61 67/67/67
f 61/61/61 69/69/69 67/67/67
f 67/67/67 69/69/69 66/66/66
f 69/69/69 70/70/70 66/66/66
f 70/70/70 71/71/71 66/66/66
f 66/66/66 72/72/72 64/64/64
f 71/71/71 72/72/72 66/66/66
f 64/64/64 72/72/72 51/51/51
f 71/71/71 52/52/52 72/72/72
f 51/51/51 73/73/73 52/52/52
f 52/52/52 73/73/73 72/72/72
f 72/72/72 73/73/73 51/51/51
f 76/76/76 75/75/75 74/74/74
f 75/75/75 76/76/76 77/77/77
f 75/75/75 78/78/78 74/74/74
f 78/78/78 79/79/79 74/74/74
f 79/79/79 80/80/80 74/74/74
f 79/79/79 81/81/81 80/80/80
f 81/81/81 82/82/82 80/80/80
f 82/82/82 81/81/81 83/83/83
f 84/84/84 82/82/82 83/83/83
f 83/83/83 85/85/85 84/84/84
f 85/85/85 86/86/86 84/84/84
f 85/85/85 87/87/87 86/86/86
f 87/87/87 88/88/88 86/86/86
f 85/85/85 83/83/83 89/89/89
f 85/85/85 89/89/89 87/87/87
f 90/90/90 83/83/83 81/81/81
f 83/83/83 90/90/90 89/89/89
f 89/89/89 90/90/90 91/91/91
f 92/92/92 81/81/81 79/79/79
f 92/92/92 90/90/90 81/81/81
f 93/93/93 79/79/79 78/78/78
f 93/93/93 92/92/92 79/79/79
f 93/93/93 94/94/94 92/92/92
f 95/95/95 93/93/93 78/78/78
f 93/93/93 95/95/95 94/94/94
f 95/95/95 78/78/78 75/75/75
f 92/92/92 96/96/96 90/90/90
f 94/94/94 96/96/96 92/92/92
f 97/97/97 95/95/95 75/75/75
f 97/97/97 75/75/75 77/77/77
f 95/95/95 97/97/97 98/98/98
f 95/95/95 98/98/98 94/94/94
f 97/97/97 77/77/77 99/99/99
f 97/97/97 99/99/99 98/98/98
f 77/77/77 100/100/100 99/99/99
f 100/100/100 101/101/101 99/99/99
f 99/99/99 102/102/102 98/98/98
f 101/101/101 102/102/102 99/99/99
f 102/102/102 103/103/103 98/98/98
f 98/98/98 103/103/103 94/94/94
f 104/104/104 102/102/102 101/101/101
f 103/103/103 102/102/102 104/104/104
f 105/105/105 104/104/104 101/101/101
f 104/104/104 105/105/105 106/106/106
f 107/107/107 103/103/103 104/104/104
f 107/107/107 104/104/104 106/106/106
f 103/103/103 108/108/108 94/94/94
f 108/108/108 103/103/103 107/107/107
f 109/109/109 107/107/107 106/106/106
f 109/109/109 108/108/108 107/107/107
f 110/110/110 109/109/109 106/106/106
f 94/94/94 108/108/108 111/111/111
f 111/111/111 108/108/108 109/109/109
f 96/96/96 94/94/94 111/111/111
f 112/112/112 109/109/109 110/110/110
f 112/112/112 111/111/111 109/109/109
f 113/113/113 112/112/112 110/110/110
f 96/96/96 111/111/111 114/114/114
f 114/114/114 111/111/111 112/112/112
f 112/112/112 113/113/113 115/115/115
f 115/115/115 114/114/114 112/112/112
f 113/113/113 116/116/116 115/115/115
f 117/117/117 115/115/115 116/116/116
f 118/118/118 117/117/117 116/116/116
f 115/115/115 117/117/117 119/119/119
f 114/114/114 115/115/115 119/119/119
f 120/120/120 117/117/117 118/118/118
f 119/119/119 117/117/117 120/120/120
f 121/121/121 120/120/120 118/118/118
f 122/122/122 96/96/96 114/114/114
f 96/96/96 122/122/122 90/90/90
f 90/90/90 122/122/122 91/91/91
f 122/122/122 114/114/114 91/91/91
f 114/114/114 119/119/119 91/91/91
f 123/123/123 119/119/119 120/120/120
f 91/91/91 119/119/119 123/123/123
f 120/120/120 121/121/121 124/124/124
f 121/121/121 125/125/125 124/124/124
f 124/124/124 125/125/125 126/126/126
f 120/120/120 124/124/124 127/127/127
f 123/123/123 120/120/120 127/127/127
f 123/123/123 127/127/127 128/128/128
f 129/129/129 124/124/124 126/126/126
f 127/127/127 124/124/124 129/129/129
f 126/126/126 130/130/130 129/129/129
f 130/130/130 131/131/131 129/129/129
f 132/132/132 127/127/127 129/129/129
f 129/129/129 131/131/131 132/132/132
f 128/128/128 127/127/127 132/132/132
f 131/131/131 133/133/133 132/132/132
f 132/132/132 133/133/133 134/134/134
f 134/134/134 128/128/128 132/132/132
f 133/133/133 135/135/135 134/134/134
f 135/135/135 136/136/136 134/134/134
f 136/136/136 137/137/137 134/134/134
f 128/128/128 134/134/134 137/137/137
f 136/136/136 138/138/138 137/137/137
f 138/138/138 139/139/139 137/137/137
f 138/138/138 140/140/140 139/139/139
f 140/140/140 141/141/141 139/139/139
f 142/142/142 137/137/137 139/139/139
f 142/142/142 128/128/128 137/137/137
f 143/143/143 139/139/139 141/141/141
f 143/143/143 142/142/142 139/139/139
f 144/144/144 143/143/143 141/141/141
f 144/144/144 88/88/88 143/143/143
f 88/88/88 87/87/87 143/143/143
f 143/143/143 87/87/87 142/142/142
f 87/87/87 145/145/145 142/142/142
f 142/142/142 145/145/145 128/128/128
f 89/89/89 145/145/145 87/87/87
f 89/89/89 91/91/91 145/145/145
f 145/145/145 146/146/146 128/128/128
f 91/91/91 146/146/146 145/145/145
f 146/146/146 123/123/123 128/128/128
f 146/146/146 91/91/91 123/123/123
