g pm0894_00_effectHairRArmESkin_tz3
v -1.1192513 1.0318322 -0.1645376
v -1.271273 1.0576099 -0.11424204
v -1.3109579 1.1280531 -0.21947768
v -1.1642922 1.112845 -0.27581212
v -0.6733405 0.88881063 -0.14092836
v -0.8335858 0.87032723 -0.1572901
v -0.7995442 0.822494 -0.27741942
v -0.62602615 0.84637153 -0.24090041
v -1.1992127 0.7708871 0.05709828
v -1.3717059 0.82355213 -2.0726754E-09
v -1.4145892 0.72816885 -0.04785679
v -1.241599 0.6809406 0.007842564
v -0.5871838 0.9085912 0.1097607
v -0.7417248 0.84993947 0.1572951
v -0.710558 0.77039343 0.26681906
v -0.5468256 0.8257656 0.21038802
v -1.1540922 1.0358771 0.17587039
v -1.3313247 0.9942968 0.13130145
v -1.3756621 1.0619048 0.23490214
v -1.2049273 1.1062537 0.291373
v -0.61523217 1.0764878 0.017351668
v -0.8595136 1.128255 0.04945659
v -0.8122682 1.2622685 0.013997629
v -0.58190805 1.2074723 -0.018100299
vt 0.125 -1
vt 0 -1
vt 0 0
vt 0.125 0
vt 0 -1
vt 0.125 -1
vt 0.125 0
vt 0 0
vt 0 -1
vt 0.125 -1
vt 0.125 0
vt 0 0
vt 0 -1
vt 0.125 -1
vt 0.125 0
vt 0 0
vt 0.125 -1
vt 0 -1
vt 0 0
vt 0.125 0
vt 0 -1
vt 0.125 -1
vt 0.125 0
vt 0 0
vn 0.28328753 0.83438045 0.4728187
vn 0.2832876 0.83438027 0.47281882
vn 0.2832876 0.83438027 0.47281882
vn 0.28328753 0.83438045 0.4728187
vn -0.053640366 0.9167576 -0.39582595
vn -0.053640366 0.9167576 -0.39582595
vn -0.053640366 0.9167576 -0.39582604
vn -0.053640366 0.9167576 -0.39582595
vn 0.37190288 0.29081476 -0.88154125
vn 0.37190294 0.2908148 -0.88154125
vn 0.37190294 0.2908148 -0.88154125
vn 0.37190294 0.2908148 -0.88154125
vn 0.07401228 -0.77680224 -0.6253803
vn 0.07401229 -0.7768023 -0.6253803
vn 0.07401228 -0.77680224 -0.6253803
vn 0.07401228 -0.77680224 -0.6253803
vn 0.04755748 -0.8357773 0.5470052
vn 0.047557477 -0.8357772 0.5470053
vn 0.04755747 -0.8357772 0.54700524
vn 0.047557477 -0.8357772 0.5470053
vn 0.17609072 0.20414414 0.9629731
vn 0.1760906 0.20414414 0.9629731
vn 0.1760906 0.20414414 0.9629731
vn 0.17609072 0.20414414 0.9629731
g pm0894_00_effectHairRArmESkin_tz3_0
f 3/3/3 2/2/2 1/1/1
f 4/4/4 3/3/3 1/1/1
f 7/7/7 6/6/6 5/5/5
f 8/8/8 7/7/7 5/5/5
f 11/11/11 10/10/10 9/9/9
f 12/12/12 11/11/11 9/9/9
f 15/15/15 14/14/14 13/13/13
f 16/16/16 15/15/15 13/13/13
f 19/19/19 18/18/18 17/17/17
f 20/20/20 19/19/19 17/17/17
f 23/23/23 22/22/22 21/21/21
f 24/24/24 23/23/23 21/21/21
