g pm0891_00_TubuCSkin
v 0.0014454441 -0.10322027 5.166379E-08
v 0.0024875621 -0.1025044 5.166379E-08
v 0.0023366814 -0.10232344 -0.0012652974
v 0.003218544 -0.10144798 5.166379E-08
v 0.0013680916 -0.10295242 -0.0013667847
v 1.7166137E-08 -0.1035301 5.166379E-08
v 0.0029590875 -0.10136588 -0.0013538537
v 0.0035291272 -0.09999998 5.166379E-08
v 1.7166137E-08 -0.10321963 -0.0014467783
v -0.0014472408 -0.103219405 5.166379E-08
v 0.0020377426 -0.10203788 -0.002036373
v 0.0032219677 -0.09999998 -0.0014387083
v 0.003216732 -0.098547965 5.166379E-08
v 0.0012933521 -0.1023231 -0.002321628
v 0.0023283463 -0.10127028 -0.0023270817
v -0.0013661308 -0.10295235 -0.0013688582
v -0.0024874038 -0.10250437 5.166379E-08
v 1.7166137E-08 -0.10250409 -0.0024876962
v 0.0013561992 -0.10136585 -0.0029580405
v 0.002495449 -0.09999998 -0.002494432
v 0.0029576474 -0.09862965 -0.0013525513
v 0.002336462 -0.09767522 -0.0012632975
v 0.002487028 -0.09749515 5.166379E-08
v 0.0013683204 -0.09704703 -0.00136549
v 0.0014462929 -0.09678009 5.166379E-08
v 1.7166137E-08 -0.0967801 -0.0014462707
v 1.7166137E-08 -0.09646981 5.166379E-08
v -0.0013657399 -0.09704734 -0.001368708
v -0.0014461441 -0.09678004 5.166379E-08
v -0.0023207015 -0.09767617 -0.0012937802
v -0.0024870224 -0.0974952 5.166379E-08
v -0.0029560393 -0.09863116 -0.0013577744
v -0.0032174033 -0.09854986 5.166379E-08
v -0.0035290734 -0.09999998 5.166379E-08
v -0.0032204264 -0.09999998 -0.0014422494
v -0.0032174985 -0.10144988 5.166379E-08
v -0.0023255558 -0.098726 -0.0023278801
v -0.002035267 -0.09796088 -0.002037631
v -0.0012634106 -0.09767536 -0.002336491
v 1.7166137E-08 -0.09749499 -0.0024868024
v -0.002956993 -0.101366326 -0.0013581581
v -0.0013524647 -0.098629855 -0.0029577324
v -0.0024938125 -0.09999998 -0.0024960046
v 0.0012930946 -0.097675644 -0.0023205935
v -0.002321045 -0.10232336 -0.0012939026
v -0.002326538 -0.10127029 -0.0023288513
v 1.7166137E-08 -0.09854799 -0.0032166727
v -0.0014383049 -0.09999998 -0.0032220946
v 0.0020373706 -0.0979605 -0.0020351822
v -0.001263773 -0.10232378 -0.002337086
v -0.0020356865 -0.10203826 -0.0020380183
v -0.0013531228 -0.10136611 -0.002959247
v 1.7166137E-08 -0.101448 -0.0032184576
v 1.7166137E-08 -0.09999998 -0.0035290974
v 0.001355627 -0.098630086 -0.002956482
v 0.0014382151 -0.09999998 -0.0032221605
v 0.002327526 -0.098725796 -0.0023258354
v -0.0023370953 -0.10232422 0.0012630713
v -0.0014472408 -0.103219405 5.166379E-08
v -0.0024874038 -0.10250437 5.166379E-08
v -0.0032174985 -0.10144988 5.166379E-08
v -0.0013690395 -0.10295267 0.0013653854
v 1.7166137E-08 -0.1035301 5.166379E-08
v -0.0029594535 -0.101367824 0.0013509943
v -0.0035290734 -0.09999998 5.166379E-08
v 1.7166137E-08 -0.10322003 0.0014459235
v 0.0014454441 -0.10322027 5.166379E-08
v -0.003223869 -0.09999998 0.0014344953
v -0.0032174033 -0.09854986 5.166379E-08
v 0.0013655834 -0.102953166 0.0013678055
v 0.0024875621 -0.1025044 5.166379E-08
v -0.0012932606 -0.10232357 0.0023213038
v -0.002037756 -0.1020386 0.0020357117
v -0.002328474 -0.101271 0.0023266515
v 1.7166137E-08 -0.102504395 0.0024874827
v -0.0013563366 -0.10136584 0.002958083
v -0.002495739 -0.09999998 0.0024942078
v -0.002958843 -0.09863054 0.0013507613
v 0.0012639789 -0.10232415 0.0023367382
v 1.7166137E-08 -0.1014479 0.0032185316
v -0.0014385338 -0.09999998 0.0032220804
v -0.0023363896 -0.097674996 0.001263086
v -0.0024870224 -0.0974952 5.166379E-08
v -0.0023274058 -0.09872573 0.0023259872
v -0.002036764 -0.09796026 0.0020356318
v -0.0013664456 -0.09704627 0.001365798
v -0.0014461441 -0.09678004 5.166379E-08
v -0.0013545913 -0.09862974 0.0029568635
v -0.0012647362 -0.09767509 0.002335669
v 1.7166137E-08 -0.09999998 0.0035293098
v 1.7166137E-08 -0.096780024 0.0014461601
v 1.7166137E-08 -0.09646981 5.166379E-08
v 1.7166137E-08 -0.09854782 0.003216694
v 1.7166137E-08 -0.09749515 0.0024870753
v 0.0013531283 -0.10136684 0.0029590258
v 0.0013677482 -0.097048014 0.001368272
v 0.0014462929 -0.09678009 5.166379E-08
v 0.0012663059 -0.097676195 0.0023359468
v 0.0014381962 -0.09999998 0.0032222825
v 0.0013536243 -0.098630525 0.0029576446
v 0.0020361498 -0.1020387 0.0020372514
v 0.0023212507 -0.097676225 0.0012931027
v 0.002487028 -0.09749515 5.166379E-08
v 0.0020362644 -0.09796134 0.0020372206
v 0.0023265628 -0.09872675 0.0023274126
v 0.0029569035 -0.09863074 0.0013555246
v 0.003216732 -0.098547965 5.166379E-08
v 0.0035291272 -0.09999998 5.166379E-08
v 0.0032224255 -0.09999998 0.0014378212
v 0.003218544 -0.10144798 5.166379E-08
v 0.0024948576 -0.09999998 0.002495208
v 0.0029581338 -0.101366535 0.0013554716
v 0.0023270014 -0.10127167 0.002327785
v 0.0023357847 -0.10232391 0.0012662846
vt 0.4420601 0.60876775
vt 0.43408263 0.6115079
vt 0.43993747 0.6145344
vt 0.42848742 0.6155515
vt 0.44555795 0.6129353
vt 0.45312512 0.6075821
vt 0.4367348 0.61730576
vt 0.42610967 0.6210935
vt 0.45312655 0.61234
vt 0.46420395 0.6087713
vt 0.44321108 0.6161325
vt 0.43558276 0.621094
vt 0.42850113 0.62665105
vt 0.4471327 0.61571693
vt 0.44236553 0.61815023
vt 0.46067464 0.61293817
vt 0.47216618 0.6115079
vt 0.45312536 0.615458
vt 0.44745672 0.61823606
vt 0.4419129 0.62109375
vt 0.4367385 0.6248944
vt 0.43993306 0.6276593
vt 0.43408716 0.6306808
vt 0.44555843 0.629256
vt 0.4420538 0.63341784
vt 0.45312536 0.62984896
vt 0.45312512 0.6346054
vt 0.4606732 0.6292503
vt 0.46419525 0.63341784
vt 0.46614492 0.62761545
vt 0.47216332 0.63068056
vt 0.46948612 0.6248865
vt 0.47775507 0.6266439
vt 0.48014033 0.6210935
vt 0.4706477 0.621094
vt 0.47775555 0.6155441
vt 0.4638716 0.62404513
vt 0.4630257 0.62605715
vt 0.45896554 0.6264603
vt 0.45312583 0.62673235
vt 0.46948993 0.61730814
vt 0.45877945 0.62396073
vt 0.4643283 0.62109375
vt 0.44713318 0.62647414
vt 0.46614587 0.61457324
vt 0.46387422 0.6181512
vt 0.45312607 0.6240139
vt 0.45889986 0.62109375
vt 0.4432106 0.6260598
vt 0.4589666 0.6157298
vt 0.46302736 0.61613274
vt 0.4587803 0.61823606
vt 0.45312583 0.61818266
vt 0.45312607 0.62109375
vt 0.44745815 0.62396026
vt 0.4473523 0.62109375
vt 0.44236672 0.62404656
vt 0.33836758 0.6145283
vt 0.34048343 0.60877097
vt 0.3325206 0.6115078
vt 0.3269323 0.61554396
vt 0.3439889 0.6129316
vt 0.3515625 0.60758173
vt 0.33516145 0.61729777
vt 0.32454693 0.62109363
vt 0.35156345 0.6123365
vt 0.3626269 0.6087676
vt 0.33399606 0.62109363
vt 0.32693255 0.626644
vt 0.359115 0.61293423
vt 0.37060463 0.6115078
vt 0.3455721 0.6157154
vt 0.34164882 0.61612904
vt 0.3408047 0.61814797
vt 0.3515638 0.6154567
vt 0.34589744 0.6182362
vt 0.34035242 0.62109363
vt 0.33516443 0.624894
vt 0.3574053 0.615728
vt 0.35156524 0.6181823
vt 0.34579098 0.62109387
vt 0.338372 0.6276611
vt 0.33252382 0.6306807
vt 0.34080923 0.6240474
vt 0.34165466 0.6260613
vt 0.3440038 0.62925804
vt 0.34049153 0.6334182
vt 0.34590518 0.6239613
vt 0.3457197 0.62646234
vt 0.35156524 0.62109435
vt 0.35156524 0.62985075
vt 0.3515625 0.63460577
vt 0.35156572 0.62401545
vt 0.35156524 0.6267327
vt 0.3572172 0.618235
vt 0.35912526 0.62925017
vt 0.3626336 0.63341796
vt 0.35741842 0.62645996
vt 0.35733855 0.62109435
vt 0.35722172 0.62396014
vt 0.3614682 0.6161305
vt 0.3645879 0.6276175
vt 0.37060058 0.6306814
vt 0.36147082 0.6260582
vt 0.36231506 0.624045
vt 0.3679372 0.62488997
vt 0.3761865 0.6266514
vt 0.37857807 0.62109363
vt 0.36911213 0.62109387
vt 0.3762008 0.61555135
vt 0.36277115 0.6210946
vt 0.36794293 0.6173049
vt 0.36231506 0.61814725
vt 0.364743 0.61453354
vn 0.36763275 -0.9299711 -3.3199787E-05
vn 0.7051381 -0.7090701 0.0002024174
vn 0.6771519 -0.67411333 -0.29501963
vn 0.9296344 -0.3684833 0.00013184549
vn 0.3391659 -0.8770578 -0.34020004
vn -0.00019687419 -1 -0.00016546251
vn 0.8776824 -0.33899632 -0.33875522
vn 0.9999999 0.00054728996 7.843973E-05
vn 0.0005472899 -0.92975307 -0.36818317
vn -0.36818773 -0.92975116 -0.0008093716
vn 0.5798099 -0.57570016 -0.57653254
vn 0.9295736 0.00058281416 -0.36863598
vn 0.9291207 0.369774 0.0013685229
vn 0.29869068 -0.67468184 -0.67497283
vn 0.6762607 -0.2944405 -0.6752602
vn -0.340088 -0.87711716 -0.3391249
vn -0.7054976 -0.70870763 -0.002577603
vn 0.0022244453 -0.70856 -0.705647
vn 0.3381382 -0.3405437 -0.87732124
vn 0.7072122 0.00059819216 -0.7070012
vn 0.87765527 0.33911368 -0.3387081
vn 0.6767614 0.6746094 -0.2947817
vn 0.7051603 0.70904434 0.0022249222
vn 0.33901298 0.8772049 -0.3399732
vn 0.36798668 0.9298308 0.0007330179
vn 0.000641942 0.92981315 -0.36803138
vn 0.00013971329 1 -1.7821789E-05
vn -0.34008226 0.8771575 -0.33902612
vn -0.36814594 0.9297677 -0.00079727184
vn -0.67459327 0.67512 -0.29855812
vn -0.70522636 0.70897806 -0.00243181
vn -0.8772617 0.34065306 -0.33818233
vn -0.9291498 0.3696976 -0.0021045208
vn -0.9999994 0.00015890595 -0.0010677576
vn -0.929502 0.00029313564 -0.36881703
vn -0.9291173 -0.36977923 -0.0021169188
vn -0.6747573 0.29474518 -0.6766298
vn -0.5759518 0.5763593 -0.5797323
vn -0.29476103 0.6745679 -0.67681164
vn 0.0022945402 0.7090989 -0.7051053
vn -0.8773408 -0.34050512 -0.33812636
vn -0.33862913 0.3391323 -0.8776785
vn -0.7065532 0.00048768523 -0.7076598
vn 0.29864413 0.67529565 -0.6743794
vn -0.67482096 -0.67479104 -0.29878736
vn -0.67484075 -0.29458758 -0.6766152
vn 0.0014755725 0.36979648 -0.92911166
vn -0.36853564 0.0005609989 -0.9296135
vn 0.5795899 0.5764282 -0.5760262
vn -0.29486966 -0.67405236 -0.67727774
vn -0.5761859 -0.57581127 -0.58004415
vn -0.33867303 -0.33898884 -0.87771696
vn 0.0014516116 -0.3696566 -0.92916733
vn 0.00021588802 0.0005794764 -0.9999999
vn 0.33815026 0.3407464 -0.87723786
vn 0.36858147 0.00058078766 -0.92959523
vn 0.67629075 0.2946819 -0.67512476
vn -0.6770883 -0.67420393 0.2949582
vn -0.36818773 -0.92975116 -0.0008093716
vn -0.7054976 -0.70870763 -0.002577603
vn -0.9291173 -0.36977923 -0.0021169188
vn -0.33909586 -0.87713474 0.3400716
vn -0.00019687419 -1 -0.00016546251
vn -0.87767076 -0.3390947 0.33868694
vn -0.9999994 0.00015890595 -0.0010677576
vn -0.0008189083 -0.92976546 0.3681517
vn 0.36763275 -0.9299711 -3.3199787E-05
vn -0.9296579 0.00022685529 0.36842397
vn -0.9291498 0.3696976 -0.0021045208
vn 0.33986983 -0.8768762 0.3399658
vn 0.7051381 -0.7090701 0.0002024174
vn -0.2986846 -0.6748599 0.67479753
vn -0.57992953 -0.575893 0.5762196
vn -0.67669755 -0.2944742 0.6748076
vn -0.002307415 -0.7086915 0.7055148
vn -0.33821702 -0.34058768 0.8772738
vn -0.7076283 0.00048196313 0.7065847
vn -0.8775836 0.33922884 0.33877826
vn 0.29610896 -0.6745548 0.6762361
vn -0.0014689567 -0.3697015 0.9291494
vn -0.36872578 0.0005553961 0.9295381
vn -0.67583203 0.6749759 0.29607213
vn -0.70522636 0.70897806 -0.00243181
vn -0.6759744 0.29538763 0.67513317
vn -0.57735157 0.578041 0.57665735
vn -0.33976305 0.8769966 0.339762
vn -0.36814594 0.9297677 -0.00079727184
vn -0.33913374 0.33916888 0.87746954
vn -0.2963025 0.67509073 0.67561626
vn -0.00019323824 0.0005456209 0.9999999
vn 0.00023472312 0.92998606 0.36759487
vn 0.00013971329 1 -1.7821789E-05
vn -9.22084E-05 0.3686328 0.929575
vn 5.1259998E-05 0.7094708 0.70473486
vn 0.3388412 -0.33907744 0.87761784
vn 0.34015465 0.8770921 0.33912277
vn 0.36798668 0.9298308 0.0007330179
vn 0.29503646 0.6745241 0.6767353
vn 0.3686547 0.000418067 0.9295663
vn 0.3387665 0.3391414 0.877622
vn 0.57698995 -0.5775348 0.5775259
vn 0.6746407 0.675084 0.29853195
vn 0.7051603 0.70904434 0.0022249222
vn 0.57647926 0.5760397 0.57952577
vn 0.6752933 0.29445028 0.6762233
vn 0.87731564 0.34064922 0.33804625
vn 0.9291207 0.369774 0.0013685229
vn 0.9999999 0.00054728996 7.843973E-05
vn 0.92961824 0.00041830548 0.368524
vn 0.9296344 -0.3684833 0.00013184549
vn 0.7070227 0.0002444983 0.7071908
vn 0.87749755 -0.3391168 0.33911338
vn 0.67539394 -0.2953173 0.67574465
vn 0.6759901 -0.6746933 0.29635513
g pm0891_00_TubuCSkin_0
f 3/3/3 2/2/2 1/1/1
f 2/2/2 3/3/3 4/4/4
f 5/5/5 3/3/3 1/1/1
f 5/5/5 1/1/1 6/6/6
f 3/3/3 7/7/7 4/4/4
f 4/4/4 7/7/7 8/8/8
f 9/9/9 5/5/5 6/6/6
f 9/9/9 6/6/6 10/10/10
f 11/11/11 3/3/3 5/5/5
f 3/3/3 11/11/11 7/7/7
f 7/7/7 12/12/12 8/8/8
f 8/8/8 12/12/12 13/13/13
f 14/14/14 11/11/11 5/5/5
f 14/14/14 5/5/5 9/9/9
f 11/11/11 15/15/15 7/7/7
f 7/7/7 15/15/15 12/12/12
f 15/15/15 11/11/11 14/14/14
f 16/16/16 9/9/9 10/10/10
f 16/16/16 10/10/10 17/17/17
f 18/18/18 14/14/14 9/9/9
f 18/18/18 9/9/9 16/16/16
f 19/19/19 15/15/15 14/14/14
f 19/19/19 14/14/14 18/18/18
f 15/15/15 20/20/20 12/12/12
f 20/20/20 15/15/15 19/19/19
f 12/12/12 21/21/21 13/13/13
f 12/12/12 20/20/20 21/21/21
f 13/13/13 21/21/21 22/22/22
f 23/23/23 13/13/13 22/22/22
f 23/23/23 22/22/22 24/24/24
f 25/25/25 23/23/23 24/24/24
f 25/25/25 24/24/24 26/26/26
f 27/27/27 25/25/25 26/26/26
f 27/27/27 26/26/26 28/28/28
f 29/29/29 27/27/27 28/28/28
f 29/29/29 28/28/28 30/30/30
f 31/31/31 29/29/29 30/30/30
f 30/30/30 32/32/32 31/31/31
f 32/32/32 33/33/33 31/31/31
f 34/34/34 33/33/33 32/32/32
f 35/35/35 34/34/34 32/32/32
f 36/36/36 34/34/34 35/35/35
f 37/37/37 32/32/32 30/30/30
f 35/35/35 32/32/32 37/37/37
f 30/30/30 28/28/28 38/38/38
f 38/38/38 37/37/37 30/30/30
f 28/28/28 39/39/39 38/38/38
f 28/28/28 26/26/26 39/39/39
f 38/38/38 39/39/39 37/37/37
f 26/26/26 24/24/24 40/40/40
f 26/26/26 40/40/40 39/39/39
f 41/41/41 36/36/36 35/35/35
f 17/17/17 36/36/36 41/41/41
f 39/39/39 42/42/42 37/37/37
f 39/39/39 40/40/40 42/42/42
f 43/43/43 35/35/35 37/37/37
f 41/41/41 35/35/35 43/43/43
f 37/37/37 42/42/42 43/43/43
f 24/24/24 44/44/44 40/40/40
f 24/24/24 22/22/22 44/44/44
f 45/45/45 17/17/17 41/41/41
f 45/45/45 16/16/16 17/17/17
f 46/46/46 41/41/41 43/43/43
f 45/45/45 41/41/41 46/46/46
f 40/40/40 47/47/47 42/42/42
f 40/40/40 44/44/44 47/47/47
f 42/42/42 48/48/48 43/43/43
f 43/43/43 48/48/48 46/46/46
f 42/42/42 47/47/47 48/48/48
f 22/22/22 49/49/49 44/44/44
f 22/22/22 21/21/21 49/49/49
f 50/50/50 16/16/16 45/45/45
f 50/50/50 18/18/18 16/16/16
f 51/51/51 45/45/45 46/46/46
f 51/51/51 50/50/50 45/45/45
f 46/46/46 52/52/52 51/51/51
f 48/48/48 52/52/52 46/46/46
f 52/52/52 50/50/50 51/51/51
f 53/53/53 18/18/18 50/50/50
f 52/52/52 53/53/53 50/50/50
f 53/53/53 19/19/19 18/18/18
f 48/48/48 54/54/54 52/52/52
f 54/54/54 53/53/53 52/52/52
f 47/47/47 54/54/54 48/48/48
f 44/44/44 55/55/55 47/47/47
f 47/47/47 55/55/55 54/54/54
f 44/44/44 49/49/49 55/55/55
f 56/56/56 19/19/19 53/53/53
f 54/54/54 56/56/56 53/53/53
f 55/55/55 56/56/56 54/54/54
f 56/56/56 20/20/20 19/19/19
f 49/49/49 57/57/57 55/55/55
f 55/55/55 57/57/57 56/56/56
f 57/57/57 20/20/20 56/56/56
f 21/21/21 57/57/57 49/49/49
f 20/20/20 57/57/57 21/21/21
f 60/60/60 59/59/59 58/58/58
f 60/60/60 58/58/58 61/61/61
f 59/59/59 62/62/62 58/58/58
f 59/59/59 63/63/63 62/62/62
f 58/58/58 64/64/64 61/61/61
f 61/61/61 64/64/64 65/65/65
f 63/63/63 66/66/66 62/62/62
f 63/63/63 67/67/67 66/66/66
f 64/64/64 68/68/68 65/65/65
f 65/65/65 68/68/68 69/69/69
f 67/67/67 70/70/70 66/66/66
f 67/67/67 71/71/71 70/70/70
f 58/58/58 62/62/62 72/72/72
f 58/58/58 73/73/73 64/64/64
f 73/73/73 58/58/58 72/72/72
f 73/73/73 74/74/74 64/64/64
f 64/64/64 74/74/74 68/68/68
f 73/73/73 72/72/72 74/74/74
f 62/62/62 66/66/66 75/75/75
f 72/72/72 62/62/62 75/75/75
f 72/72/72 76/76/76 74/74/74
f 72/72/72 75/75/75 76/76/76
f 74/74/74 77/77/77 68/68/68
f 74/74/74 76/76/76 77/77/77
f 68/68/68 78/78/78 69/69/69
f 68/68/68 77/77/77 78/78/78
f 75/75/75 66/66/66 79/79/79
f 66/66/66 70/70/70 79/79/79
f 75/75/75 80/80/80 76/76/76
f 75/75/75 79/79/79 80/80/80
f 76/76/76 81/81/81 77/77/77
f 76/76/76 80/80/80 81/81/81
f 69/69/69 78/78/78 82/82/82
f 83/83/83 69/69/69 82/82/82
f 77/77/77 84/84/84 78/78/78
f 77/77/77 81/81/81 84/84/84
f 78/78/78 84/84/84 85/85/85
f 82/82/82 78/78/78 85/85/85
f 82/82/82 86/86/86 83/83/83
f 86/86/86 87/87/87 83/83/83
f 81/81/81 88/88/88 84/84/84
f 84/84/84 88/88/88 85/85/85
f 85/85/85 89/89/89 82/82/82
f 89/89/89 86/86/86 82/82/82
f 88/88/88 89/89/89 85/85/85
f 80/80/80 90/90/90 81/81/81
f 81/81/81 90/90/90 88/88/88
f 86/86/86 91/91/91 87/87/87
f 91/91/91 92/92/92 87/87/87
f 88/88/88 93/93/93 89/89/89
f 90/90/90 93/93/93 88/88/88
f 89/89/89 94/94/94 86/86/86
f 94/94/94 91/91/91 86/86/86
f 93/93/93 94/94/94 89/89/89
f 80/80/80 95/95/95 90/90/90
f 79/79/79 95/95/95 80/80/80
f 91/91/91 96/96/96 92/92/92
f 96/96/96 97/97/97 92/92/92
f 94/94/94 98/98/98 91/91/91
f 98/98/98 96/96/96 91/91/91
f 90/90/90 99/99/99 93/93/93
f 95/95/95 99/99/99 90/90/90
f 93/93/93 100/100/100 94/94/94
f 100/100/100 98/98/98 94/94/94
f 99/99/99 100/100/100 93/93/93
f 79/79/79 101/101/101 95/95/95
f 79/79/79 70/70/70 101/101/101
f 96/96/96 102/102/102 97/97/97
f 102/102/102 103/103/103 97/97/97
f 98/98/98 104/104/104 96/96/96
f 104/104/104 102/102/102 96/96/96
f 105/105/105 104/104/104 98/98/98
f 100/100/100 105/105/105 98/98/98
f 104/104/104 105/105/105 102/102/102
f 102/102/102 106/106/106 103/103/103
f 105/105/105 106/106/106 102/102/102
f 106/106/106 107/107/107 103/103/103
f 108/108/108 107/107/107 106/106/106
f 109/109/109 108/108/108 106/106/106
f 109/109/109 106/106/106 105/105/105
f 110/110/110 108/108/108 109/109/109
f 111/111/111 105/105/105 100/100/100
f 111/111/111 109/109/109 105/105/105
f 99/99/99 111/111/111 100/100/100
f 112/112/112 110/110/110 109/109/109
f 112/112/112 109/109/109 111/111/111
f 71/71/71 110/110/110 112/112/112
f 113/113/113 111/111/111 99/99/99
f 113/113/113 112/112/112 111/111/111
f 95/95/95 113/113/113 99/99/99
f 101/101/101 113/113/113 95/95/95
f 114/114/114 71/71/71 112/112/112
f 114/114/114 112/112/112 113/113/113
f 101/101/101 114/114/114 113/113/113
f 71/71/71 114/114/114 70/70/70
f 70/70/70 114/114/114 101/101/101
