g pm0891_00_TubuASkin
v 0.007799045 -0.036388498 0.0035752922
v 0.008484365 -0.03617015 1.3626689E-07
v 0.00930833 -0.039999936 1.3626689E-07
v 0.0065597263 -0.033393297 1.3626689E-07
v 0.008499366 -0.039999936 0.003792355
v 0.008489134 -0.043819163 1.3626689E-07
v 0.0061224666 -0.0338709 0.0034106497
v 0.0038147084 -0.031507257 1.3626689E-07
v 0.0078022783 -0.043604333 0.0035751518
v 0.0065611093 -0.046605542 1.3626689E-07
v 0.0061364667 -0.03664171 0.006138715
v 0.0036075227 -0.032213934 0.0036089139
v 3.051758E-08 -0.030688891 1.3626689E-07
v 0.0065803546 -0.039999936 0.0065812874
v 0.005370809 -0.034622896 0.005373313
v 3.051758E-08 -0.031507086 0.0038143496
v -0.0038143045 -0.03150714 1.3626689E-07
v 0.0033399884 -0.033870824 0.006161224
v -0.003604105 -0.032209337 0.0036023883
v -0.006559704 -0.03339343 1.3626689E-07
v 0.0035702817 -0.036387905 0.0078009972
v 3.051758E-08 -0.033393297 0.0065598367
v -0.0061623934 -0.033867653 0.0033314787
v -0.008486126 -0.036175154 1.3626689E-07
v -0.0033358363 -0.033867903 0.006160492
v 3.051758E-08 -0.036169786 0.008484258
v 0.0037933271 -0.039999936 0.008498997
v 0.006137649 -0.043354105 0.0061396975
v 0.0061607948 -0.046129473 0.0033399146
v 0.0036018007 -0.047789183 0.0036076836
v 0.0038124484 -0.0484937 1.3626689E-07
v 0.0053704944 -0.045377202 0.0053733946
v 0.0035689753 -0.04360515 0.007804639
v 3.051758E-08 -0.039999936 0.009308804
v -0.0035728149 -0.036385838 0.0077989367
v 3.051758E-08 -0.048493065 0.0038137247
v 3.051758E-08 -0.04931089 1.3626689E-07
v 0.0033338373 -0.04613013 0.006163312
v 3.051758E-08 -0.043818954 0.008489104
v -0.003610924 -0.047787875 0.0036013
v -0.0038172035 -0.048491407 1.3626689E-07
v 3.051758E-08 -0.04660552 0.006560911
v -0.0037942296 -0.039999936 0.008498465
v -0.005372093 -0.034620058 0.0053691226
v -0.006164244 -0.04613029 0.0033314398
v -0.006560705 -0.04660547 1.3626689E-07
v -0.008486384 -0.043824155 1.3626689E-07
v -0.0035774212 -0.043602515 0.0078021535
v -0.0034110718 -0.04612859 0.0061226026
v -0.006138714 -0.036639016 0.006134955
v -0.0078041535 -0.03638796 0.0035627282
v -0.006582687 -0.039999936 0.006578649
v -0.008503187 -0.039999936 0.0037835825
v -0.009308174 -0.039999936 1.3626689E-07
v -0.0061414987 -0.04335237 0.0061367075
v -0.0078057842 -0.043607738 0.0035633428
v -0.0053747348 -0.045376953 0.005369333
v -0.007796772 -0.03638959 -0.0035812254
v -0.008486126 -0.036175154 1.3626689E-07
v -0.009308174 -0.039999936 1.3626689E-07
v -0.006559704 -0.03339343 1.3626689E-07
v -0.008494108 -0.039999936 -0.0038040346
v -0.008486384 -0.043824155 1.3626689E-07
v -0.006121023 -0.033870745 -0.0034124365
v -0.0038143045 -0.03150714 1.3626689E-07
v -0.0077992706 -0.04360378 -0.003582238
v -0.006560705 -0.04660547 1.3626689E-07
v -0.0061338213 -0.036639713 -0.006139948
v -0.0036022358 -0.032212153 -0.003610064
v 3.051758E-08 -0.030688891 1.3626689E-07
v -0.0065776045 -0.039999936 -0.0065833884
v -0.0053681545 -0.034621682 -0.005374396
v 3.051758E-08 -0.031507295 -0.0038146414
v 0.0038147084 -0.031507257 1.3626689E-07
v -0.003332346 -0.033868592 -0.00616266
v 0.0036090296 -0.03221135 -0.0036015762
v 0.0065597263 -0.033393297 1.3626689E-07
v -0.0035672074 -0.036386155 -0.0078012273
v 3.051758E-08 -0.03339286 -0.006559117
v 0.0061625973 -0.033868235 -0.0033320363
v 0.008484365 -0.03617015 1.3626689E-07
v 0.0034106271 -0.03386936 -0.006120729
v 3.051758E-08 -0.03617022 -0.0084842015
v -0.0037936287 -0.039999936 -0.008498502
v -0.0061364155 -0.04335048 -0.0061425096
v -0.0061219386 -0.046128035 -0.0034127596
v -0.0036032659 -0.047787044 -0.0036104599
v -0.0038172035 -0.048491407 1.3626689E-07
v 3.051758E-08 -0.048492003 -0.0038159795
v 3.051758E-08 -0.04931089 1.3626689E-07
v 0.0036084382 -0.047787223 -0.0036049907
v 0.0038124484 -0.0484937 1.3626689E-07
v 0.00616316 -0.046128247 -0.003337311
v 0.0065611093 -0.046605542 1.3626689E-07
v 0.008489134 -0.043819163 1.3626689E-07
v 0.007804796 -0.0436026 -0.003570885
v 0.00930833 -0.039999936 1.3626689E-07
v 0.005374681 -0.04537504 -0.0053710775
v 0.0034113138 -0.046127353 -0.0061234576
v 3.051758E-08 -0.046604723 -0.006561475
v -0.0033332806 -0.04612914 -0.0061642295
v 0.0084981555 -0.039999936 -0.0037946948
v 0.0061411685 -0.04335046 -0.006137842
v 0.0035770815 -0.043602534 -0.0078020403
v 0.0078010196 -0.036385626 -0.0035674497
v 0.0065819183 -0.039999936 -0.0065792403
v 3.051758E-08 -0.04381921 -0.008488908
v -0.00536928 -0.04537605 -0.005375417
v -0.0035689622 -0.043603204 -0.007805222
v 3.051758E-08 -0.039999936 -0.009308243
v 0.0037934035 -0.039999936 -0.008498676
v 0.0035755555 -0.03638676 -0.00779793
v 0.006139013 -0.036639187 -0.006134555
v 0.0053737084 -0.03462068 -0.005367937
vt 0.29963917 0.9628308
vt 0.32046324 0.9672595
vt 0.3265434 0.95311946
vt 0.30625552 0.9775125
vt 0.30260962 0.9531223
vt 0.32049006 0.9390196
vt 0.29113406 0.96980226
vt 0.2859885 0.9844771
vt 0.29963082 0.94342846
vt 0.30625075 0.9287337
vt 0.28531355 0.9607193
vt 0.27717012 0.9739548
vt 0.25782257 0.9875005
vt 0.28646106 0.95312613
vt 0.28320092 0.96583855
vt 0.25783092 0.9754776
vt 0.229657 0.98448163
vt 0.27290493 0.9668449
vt 0.23849612 0.9739696
vt 0.20938309 0.97751915
vt 0.2723891 0.9604997
vt 0.25784093 0.96753514
vt 0.22410043 0.96991336
vt 0.1951552 0.96725047
vt 0.24279886 0.96684563
vt 0.25784522 0.9606251
vt 0.27264887 0.95312923
vt 0.2852996 0.9455468
vt 0.2915159 0.936356
vt 0.27712697 0.9322947
vt 0.28595287 0.9217643
vt 0.28317887 0.9404196
vt 0.2723667 0.94577426
vt 0.25784034 0.9531278
vt 0.24328536 0.9604997
vt 0.2578078 0.93077743
vt 0.2578017 0.9187495
vt 0.272852 0.9394149
vt 0.25783557 0.94565576
vt 0.23844153 0.93229043
vt 0.2296173 0.92177695
vt 0.25782257 0.9387254
vt 0.24302286 0.95312494
vt 0.23246592 0.9658421
vt 0.22407015 0.936346
vt 0.20936078 0.9287411
vt 0.19514531 0.9390108
vt 0.2432502 0.9457759
vt 0.24240214 0.93937963
vt 0.23035423 0.96072215
vt 0.21596652 0.96284986
vt 0.22918957 0.95312375
vt 0.21299513 0.95312566
vt 0.18908161 0.95312995
vt 0.2303285 0.9455473
vt 0.21594805 0.9434139
vt 0.23243219 0.9404165
vt 0.47131228 0.96277416
vt 0.49234748 0.96724534
vt 0.49841714 0.95312506
vt 0.4781232 0.9775152
vt 0.47426605 0.953126
vt 0.49234962 0.93900615
vt 0.462811 0.9697168
vt 0.4578519 0.9844791
vt 0.47132158 0.94349414
vt 0.47813082 0.9287379
vt 0.45702815 0.9606345
vt 0.44889045 0.9738765
vt 0.42968786 0.98750013
vt 0.4581895 0.95312554
vt 0.45487666 0.96575236
vt 0.4296881 0.975399
vt 0.40152144 0.98447865
vt 0.44454646 0.9667783
vt 0.4104365 0.9738908
vt 0.38125288 0.9775157
vt 0.444072 0.96041876
vt 0.4296893 0.96747065
vt 0.39612556 0.9698281
vt 0.36704183 0.96726394
vt 0.4144435 0.9668133
vt 0.42969012 0.96055394
vt 0.44437957 0.9531253
vt 0.4570346 0.9456392
vt 0.46281457 0.93653685
vt 0.44889498 0.9323764
vt 0.45787334 0.9217754
vt 0.42969096 0.9308548
vt 0.42968786 0.91874987
vt 0.41043472 0.9323695
vt 0.40153813 0.9217668
vt 0.39613652 0.9364372
vt 0.38124275 0.9287379
vt 0.36700642 0.93902475
vt 0.38798904 0.94348794
vt 0.36095786 0.95312506
vt 0.4044659 0.94050294
vt 0.41444325 0.9394465
vt 0.4296887 0.9387873
vt 0.44454813 0.9394787
vt 0.38505816 0.95312554
vt 0.40231395 0.9456366
vt 0.41526735 0.9458552
vt 0.38799834 0.96279466
vt 0.40116286 0.95312506
vt 0.4296893 0.9457188
vt 0.45487952 0.9405044
vt 0.44407535 0.9458552
vt 0.42969012 0.9531253
vt 0.41500056 0.95312506
vt 0.41527045 0.9604185
vt 0.402318 0.9606376
vt 0.40446448 0.9657595
vn 0.877315 0.34064797 0.3380492
vn 0.9291209 0.36977354 0.0013711452
vn 0.9999999 0.0005453826 7.963182E-05
vn 0.70516 0.7090447 0.0022276642
vn 0.9296176 0.00041794783 0.36852553
vn 0.9296341 -0.36848405 0.00013232231
vn 0.6746408 0.67508394 0.29853228
vn 0.36798587 0.9298311 0.0007314683
vn 0.8774978 -0.33911628 0.3391132
vn 0.70513743 -0.70907074 0.00020134448
vn 0.6752921 0.29444867 0.67622524
vn 0.34015325 0.8770937 0.33912018
vn 0.00013911724 1 -2.1338463E-05
vn 0.70702225 0.00024545199 0.70719135
vn 0.57648087 0.57604 0.57952356
vn 0.00023424621 0.9299861 0.36759436
vn -0.36814615 0.9297676 -0.0007971525
vn 0.2950356 0.6745241 0.67673564
vn -0.33976397 0.8769951 0.3397647
vn -0.70522594 0.7089784 -0.0024291873
vn 0.3387653 0.33914164 0.8776224
vn 5.1498413E-05 0.709469 0.70473653
vn -0.67583084 0.67497504 0.29607654
vn -0.9291497 0.36969775 -0.0021039243
vn -0.29630277 0.6750898 0.6756169
vn -9.1552734E-05 0.36863348 0.9295747
vn 0.36865377 0.00041842464 0.9295666
vn 0.6753961 -0.29531527 0.67574334
vn 0.67598987 -0.67469424 0.29635346
vn 0.3398695 -0.8768758 0.3399669
vn 0.36763236 -0.9299712 -3.4809113E-05
vn 0.5769923 -0.5775369 0.57752156
vn 0.3388407 -0.33907604 0.8776186
vn -0.0001927614 0.0005452633 0.9999999
vn -0.33913347 0.33917022 0.87746906
vn -0.00081902737 -0.9297652 0.36815214
vn -0.00019717221 -1 -0.00016474725
vn 0.29610905 -0.67455685 0.67623395
vn -0.0014688971 -0.3697003 0.9291499
vn -0.33909595 -0.87713486 0.3400712
vn -0.36818796 -0.92975104 -0.000809908
vn -0.0023074152 -0.7086921 0.7055142
vn -0.3687277 0.0005546809 0.92953736
vn -0.5773506 0.57804203 0.5766573
vn -0.67708707 -0.6742053 0.29495797
vn -0.7054973 -0.7087078 -0.0025798678
vn -0.92911774 -0.36977813 -0.0021180513
vn -0.33821833 -0.34058782 0.87727314
vn -0.29868606 -0.6748597 0.674797
vn -0.67597383 0.29538846 0.67513335
vn -0.8775831 0.33922976 0.33877888
vn -0.70762813 0.00048100948 0.70658493
vn -0.9296583 0.00022721292 0.36842299
vn -0.9999994 0.00015938279 -0.0010685325
vn -0.67669845 -0.2944744 0.67480665
vn -0.87767106 -0.33909488 0.338686
vn -0.5799314 -0.5758921 0.57621855
vn -0.8772618 0.3406529 -0.33818245
vn -0.9291497 0.36969775 -0.0021039243
vn -0.9999994 0.00015938279 -0.0010685325
vn -0.70522594 0.7089784 -0.0024291873
vn -0.929502 0.00029242036 -0.36881667
vn -0.92911774 -0.36977813 -0.0021180513
vn -0.67459255 0.67512065 -0.29855826
vn -0.36814615 0.9297676 -0.0007971525
vn -0.87734145 -0.3405032 -0.33812642
vn -0.7054973 -0.7087078 -0.0025798678
vn -0.6747557 0.2947452 -0.67663145
vn -0.34008244 0.87715787 -0.33902523
vn 0.00013911724 1 -2.1338463E-05
vn -0.7065532 0.00048828122 -0.7076597
vn -0.5759498 0.57635856 -0.579735
vn 0.00064218044 0.9298134 -0.3680308
vn 0.36798587 0.9298311 0.0007314683
vn -0.29476166 0.67456734 -0.676812
vn 0.33901155 0.87720567 -0.33997253
vn 0.70516 0.7090447 0.0022276642
vn -0.33862925 0.33913136 -0.8776789
vn 0.0022952557 0.70909953 -0.70510465
vn 0.6767603 0.67461056 -0.29478124
vn 0.9291209 0.36977354 0.0013711452
vn 0.29864442 0.6752966 -0.6743782
vn 0.0014755726 0.3697977 -0.9291111
vn -0.36853683 0.0005617142 -0.92961293
vn -0.67484134 -0.2945861 -0.6766153
vn -0.6748214 -0.67479014 -0.29878804
vn -0.34008738 -0.87711734 -0.33912504
vn -0.36818796 -0.92975104 -0.000809908
vn 0.00054705155 -0.9297527 -0.36818436
vn -0.00019717221 -1 -0.00016474725
vn 0.33916512 -0.8770569 -0.3402032
vn 0.36763236 -0.9299712 -3.4809113E-05
vn 0.6771519 -0.67411196 -0.2950225
vn 0.70513743 -0.70907074 0.00020134448
vn 0.9296341 -0.36848405 0.00013232231
vn 0.87768215 -0.3389958 -0.33875638
vn 0.9999999 0.0005453826 7.963182E-05
vn 0.57981086 -0.5756976 -0.5765341
vn 0.29869038 -0.67468214 -0.67497253
vn 0.002224326 -0.70856005 -0.70564693
vn -0.2948698 -0.6740519 -0.67727834
vn 0.929573 0.0005807876 -0.36863753
vn 0.6762626 -0.29443973 -0.67525846
vn 0.33813795 -0.34054288 -0.8773216
vn 0.8776554 0.33911183 -0.33870986
vn 0.70721334 0.0005973578 -0.707
vn 0.001451373 -0.3696554 -0.92916775
vn -0.57618606 -0.575811 -0.5800444
vn -0.33867383 -0.3389873 -0.8777174
vn 0.00021553038 0.0005794763 -0.9999999
vn 0.3685814 0.00058066845 -0.92959523
vn 0.33814955 0.340747 -0.8772379
vn 0.67628944 0.29468185 -0.67512596
vn 0.57958794 0.5764301 -0.5760262
g pm0891_00_TubuASkin_0
f 3/3/3 2/2/2 1/1/1
f 1/1/1 2/2/2 4/4/4
f 5/5/5 3/3/3 1/1/1
f 6/6/6 3/3/3 5/5/5
f 7/7/7 1/1/1 4/4/4
f 7/7/7 4/4/4 8/8/8
f 9/9/9 6/6/6 5/5/5
f 10/10/10 6/6/6 9/9/9
f 5/5/5 1/1/1 11/11/11
f 11/11/11 1/1/1 7/7/7
f 12/12/12 7/7/7 8/8/8
f 12/12/12 8/8/8 13/13/13
f 9/9/9 5/5/5 14/14/14
f 14/14/14 5/5/5 11/11/11
f 15/15/15 7/7/7 12/12/12
f 15/15/15 11/11/11 7/7/7
f 16/16/16 12/12/12 13/13/13
f 16/16/16 13/13/13 17/17/17
f 18/18/18 15/15/15 12/12/12
f 11/11/11 15/15/15 18/18/18
f 18/18/18 12/12/12 16/16/16
f 19/19/19 16/16/16 17/17/17
f 19/19/19 17/17/17 20/20/20
f 21/21/21 11/11/11 18/18/18
f 14/14/14 11/11/11 21/21/21
f 22/22/22 18/18/18 16/16/16
f 22/22/22 16/16/16 19/19/19
f 21/21/21 18/18/18 22/22/22
f 23/23/23 19/19/19 20/20/20
f 20/20/20 24/24/24 23/23/23
f 25/25/25 22/22/22 19/19/19
f 25/25/25 19/19/19 23/23/23
f 26/26/26 21/21/21 22/22/22
f 26/26/26 22/22/22 25/25/25
f 27/27/27 14/14/14 21/21/21
f 27/27/27 21/21/21 26/26/26
f 28/28/28 14/14/14 27/27/27
f 28/28/28 9/9/9 14/14/14
f 29/29/29 9/9/9 28/28/28
f 29/29/29 10/10/10 9/9/9
f 10/10/10 29/29/29 30/30/30
f 31/31/31 10/10/10 30/30/30
f 32/32/32 29/29/29 28/28/28
f 30/30/30 29/29/29 32/32/32
f 33/33/33 28/28/28 27/27/27
f 32/32/32 28/28/28 33/33/33
f 34/34/34 27/27/27 26/26/26
f 33/33/33 27/27/27 34/34/34
f 35/35/35 26/26/26 25/25/25
f 34/34/34 26/26/26 35/35/35
f 31/31/31 30/30/30 36/36/36
f 37/37/37 31/31/31 36/36/36
f 38/38/38 30/30/30 32/32/32
f 38/38/38 32/32/32 33/33/33
f 36/36/36 30/30/30 38/38/38
f 39/39/39 33/33/33 34/34/34
f 38/38/38 33/33/33 39/39/39
f 37/37/37 36/36/36 40/40/40
f 41/41/41 37/37/37 40/40/40
f 42/42/42 36/36/36 38/38/38
f 42/42/42 38/38/38 39/39/39
f 40/40/40 36/36/36 42/42/42
f 39/39/39 34/34/34 43/43/43
f 43/43/43 34/34/34 35/35/35
f 35/35/35 25/25/25 44/44/44
f 44/44/44 25/25/25 23/23/23
f 41/41/41 40/40/40 45/45/45
f 46/46/46 41/41/41 45/45/45
f 46/46/46 45/45/45 47/47/47
f 42/42/42 39/39/39 48/48/48
f 48/48/48 39/39/39 43/43/43
f 49/49/49 40/40/40 42/42/42
f 45/45/45 40/40/40 49/49/49
f 49/49/49 42/42/42 48/48/48
f 43/43/43 35/35/35 50/50/50
f 50/50/50 35/35/35 44/44/44
f 23/23/23 51/51/51 44/44/44
f 51/51/51 50/50/50 44/44/44
f 24/24/24 51/51/51 23/23/23
f 52/52/52 43/43/43 50/50/50
f 48/48/48 43/43/43 52/52/52
f 52/52/52 50/50/50 51/51/51
f 53/53/53 51/51/51 24/24/24
f 53/53/53 52/52/52 51/51/51
f 54/54/54 53/53/53 24/24/24
f 55/55/55 48/48/48 52/52/52
f 49/49/49 48/48/48 55/55/55
f 55/55/55 52/52/52 53/53/53
f 56/56/56 53/53/53 54/54/54
f 56/56/56 55/55/55 53/53/53
f 47/47/47 56/56/56 54/54/54
f 45/45/45 56/56/56 47/47/47
f 57/57/57 49/49/49 55/55/55
f 57/57/57 55/55/55 56/56/56
f 57/57/57 45/45/45 49/49/49
f 45/45/45 57/57/57 56/56/56
f 60/60/60 59/59/59 58/58/58
f 58/58/58 59/59/59 61/61/61
f 62/62/62 60/60/60 58/58/58
f 63/63/63 60/60/60 62/62/62
f 64/64/64 58/58/58 61/61/61
f 61/61/61 65/65/65 64/64/64
f 66/66/66 63/63/63 62/62/62
f 67/67/67 63/63/63 66/66/66
f 62/62/62 58/58/58 68/68/68
f 68/68/68 58/58/58 64/64/64
f 65/65/65 69/69/69 64/64/64
f 65/65/65 70/70/70 69/69/69
f 66/66/66 62/62/62 71/71/71
f 71/71/71 62/62/62 68/68/68
f 64/64/64 69/69/69 72/72/72
f 72/72/72 68/68/68 64/64/64
f 70/70/70 73/73/73 69/69/69
f 70/70/70 74/74/74 73/73/73
f 69/69/69 75/75/75 72/72/72
f 72/72/72 75/75/75 68/68/68
f 69/69/69 73/73/73 75/75/75
f 74/74/74 76/76/76 73/73/73
f 74/74/74 77/77/77 76/76/76
f 75/75/75 78/78/78 68/68/68
f 68/68/68 78/78/78 71/71/71
f 73/73/73 79/79/79 75/75/75
f 73/73/73 76/76/76 79/79/79
f 75/75/75 79/79/79 78/78/78
f 77/77/77 80/80/80 76/76/76
f 77/77/77 81/81/81 80/80/80
f 76/76/76 82/82/82 79/79/79
f 76/76/76 80/80/80 82/82/82
f 79/79/79 83/83/83 78/78/78
f 79/79/79 82/82/82 83/83/83
f 78/78/78 84/84/84 71/71/71
f 78/78/78 83/83/83 84/84/84
f 71/71/71 84/84/84 85/85/85
f 85/85/85 66/66/66 71/71/71
f 86/86/86 66/66/66 85/85/85
f 86/86/86 67/67/67 66/66/66
f 86/86/86 87/87/87 67/67/67
f 87/87/87 88/88/88 67/67/67
f 87/87/87 89/89/89 88/88/88
f 89/89/89 90/90/90 88/88/88
f 89/89/89 91/91/91 90/90/90
f 91/91/91 92/92/92 90/90/90
f 91/91/91 93/93/93 92/92/92
f 93/93/93 94/94/94 92/92/92
f 94/94/94 93/93/93 95/95/95
f 93/93/93 96/96/96 95/95/95
f 95/95/95 96/96/96 97/97/97
f 98/98/98 93/93/93 91/91/91
f 93/93/93 98/98/98 96/96/96
f 99/99/99 91/91/91 89/89/89
f 99/99/99 98/98/98 91/91/91
f 100/100/100 89/89/89 87/87/87
f 100/100/100 99/99/99 89/89/89
f 101/101/101 87/87/87 86/86/86
f 101/101/101 100/100/100 87/87/87
f 96/96/96 102/102/102 97/97/97
f 97/97/97 102/102/102 81/81/81
f 98/98/98 103/103/103 96/96/96
f 103/103/103 98/98/98 99/99/99
f 96/96/96 103/103/103 102/102/102
f 104/104/104 99/99/99 100/100/100
f 104/104/104 103/103/103 99/99/99
f 102/102/102 105/105/105 81/81/81
f 81/81/81 105/105/105 80/80/80
f 103/103/103 106/106/106 102/102/102
f 106/106/106 103/103/103 104/104/104
f 102/102/102 106/106/106 105/105/105
f 107/107/107 104/104/104 100/100/100
f 107/107/107 100/100/100 101/101/101
f 108/108/108 101/101/101 86/86/86
f 108/108/108 86/86/86 85/85/85
f 109/109/109 101/101/101 108/108/108
f 85/85/85 109/109/109 108/108/108
f 109/109/109 107/107/107 101/101/101
f 84/84/84 109/109/109 85/85/85
f 84/84/84 110/110/110 109/109/109
f 110/110/110 107/107/107 109/109/109
f 83/83/83 110/110/110 84/84/84
f 111/111/111 104/104/104 107/107/107
f 111/111/111 106/106/106 104/104/104
f 110/110/110 111/111/111 107/107/107
f 83/83/83 112/112/112 110/110/110
f 112/112/112 111/111/111 110/110/110
f 82/82/82 112/112/112 83/83/83
f 113/113/113 106/106/106 111/111/111
f 112/112/112 113/113/113 111/111/111
f 106/106/106 113/113/113 105/105/105
f 82/82/82 114/114/114 112/112/112
f 114/114/114 113/113/113 112/112/112
f 105/105/105 113/113/113 114/114/114
f 80/80/80 114/114/114 82/82/82
f 80/80/80 105/105/105 114/114/114
