g pm0893_11_LBackIvyBSkin_ty
v 0.11758352 1.6434442 -0.08614165
v 0.14507297 1.6479576 -0.12852389
v 0.14200671 1.6172693 -0.10493122
v 0.10968587 1.6553985 -0.1431466
v 0.08390966 1.6323895 -0.113758735
v 0.17603186 1.687524 -0.18432754
v 0.059562206 1.6090649 -0.13085966
v 0.141005 1.6953485 -0.19833343
v 0.2133916 1.7382045 -0.2522633
v 0.088862054 1.6306127 -0.17437214
v 0.08261999 1.5743624 -0.14738555
v 0.10873658 1.602646 -0.18335663
v 0.122187376 1.6701461 -0.2280412
v 0.14102629 1.6445342 -0.23640437
v 0.17953844 1.7458612 -0.26583222
v 0.251719 1.7884974 -0.32014796
v 0.16242641 1.7205626 -0.29455218
v 0.17981264 1.6952368 -0.3036165
v 0.21832925 1.7960205 -0.3335532
v 0.20140281 1.7710954 -0.3618873
v 0.2185216 1.7461714 -0.3708032
v 0.8840654 2.6201632 -1.5212255
v 0.88416916 2.6553333 -1.4948077
v 0.90702826 2.6502483 -1.4855813
v 0.9492433 2.7053823 -1.5703102
v 0.8742492 2.637484 -1.5138425
v 0.9329712 2.7088294 -1.5770069
v 0.9650898 2.7264965 -1.6256976
v 0.9261053 2.6962698 -1.5903062
v 0.9326013 2.684282 -1.5956149
v 0.11142818 1.5570818 -0.15190959
v 0.10873658 1.602646 -0.18335663
v 0.08261999 1.5743624 -0.14738555
v 0.14400367 1.594507 -0.1691926
v 0.13928805 1.5695254 -0.1377828
v 0.14102629 1.6445342 -0.23640437
v 0.15263925 1.5916553 -0.11888524
v 0.17470391 1.6364822 -0.2232314
v 0.17981264 1.6952368 -0.3036165
v 0.16500638 1.6177179 -0.1397199
v 0.14200671 1.6172693 -0.10493122
v 0.14507297 1.6479576 -0.12852389
v 0.1932788 1.662424 -0.19292547
v 0.17603186 1.687524 -0.18432754
v 0.2131502 1.6871469 -0.2906658
v 0.2185216 1.7461714 -0.3708032
v 0.23078492 1.7129449 -0.2612739
v 0.2133916 1.7382045 -0.2522633
v 0.25140992 1.7382342 -0.35799423
v 0.26884523 1.7636395 -0.32901028
v 0.251719 1.7884974 -0.32014796
v 0.90702826 2.6502483 -1.4855813
v 0.9066519 2.614951 -1.5122492
v 0.8840654 2.6201632 -1.5212255
v 0.9326013 2.684282 -1.5956149
v 0.91685677 2.6329117 -1.4929686
v 0.9486041 2.680729 -1.5891505
v 0.9650898 2.7264965 -1.6256976
v 0.95575225 2.693378 -1.5756227
v 0.9492433 2.7053823 -1.5703102
vt 1.6484375 0.984375
vt 1.6484373 0.97323513
vt 1.658901 0.97986305
vt 1.6296831 0.97323525
vt 1.6271574 0.98437387
vt 1.6484375 0.9544628
vt 1.6109562 0.98774385
vt 1.6289229 0.9544628
vt 1.6484375 0.93053555
vt 1.6069009 0.97323525
vt 1.5892661 0.98635685
vt 1.5889802 0.97323525
vt 1.6067605 0.9544628
vt 1.589859 0.9544628
vt 1.6292179 0.93053555
vt 1.6484375 0.9066963
vt 1.6075718 0.93053555
vt 1.5910313 0.93053555
vt 1.6295786 0.9066963
vt 1.6083608 0.9066963
vt 1.5921917 0.9066963
vt 1.6103413 0.49884892
vt 1.635529 0.49884903
vt 1.6484375 0.49884903
vt 1.6428168 0.47047746
vt 1.6212234 0.49884892
vt 1.6337242 0.4710902
vt 1.6294081 0.45562327
vt 1.6238776 0.47100937
vt 1.616478 0.470492
vt 1.6967552 0.98513377
vt 1.7081225 0.97323525
vt 1.7146904 0.98514247
vt 1.6884625 0.97323525
vt 1.6832631 0.98239493
vt 1.7060657 0.9544628
vt 1.6703887 0.9804847
vt 1.6872444 0.9544628
vt 1.7053325 0.93053555
vt 1.6671753 0.97323513
vt 1.658901 0.97986305
vt 1.6484373 0.97323513
vt 1.6647422 0.9544628
vt 1.6484375 0.9544628
vt 1.6866381 0.93053555
vt 1.7047751 0.9066963
vt 1.6647503 0.93053555
vt 1.6484375 0.93053555
vt 1.6862338 0.9066963
vt 1.6645572 0.9066963
vt 1.6484375 0.9066963
vt 1.6484375 0.49884903
vt 1.6738205 0.49884903
vt 1.6865609 0.49884892
vt 1.6806214 0.4704839
vt 1.6593409 0.49884892
vt 1.6717187 0.47108158
vt 1.667685 0.45562518
vt 1.6617095 0.4709922
vt 1.6542649 0.47047412
vn 0.2024059 0.975367 -0.08769904
vn 0.5046772 0.85922134 0.083902545
vn 0.75129503 0.65284157 -0.09671413
vn -0.18470594 0.971779 -0.14672855
vn -0.20435536 0.91436225 -0.34954333
vn 0.4511183 0.7496474 0.4842738
vn -0.40317544 0.5402427 -0.7386389
vn -0.42217997 0.89628255 0.13579978
vn 0.399258 0.6519944 0.64458996
vn -0.5798635 0.47080758 -0.6649049
vn -0.14572869 0.08119809 -0.98598677
vn -0.2271092 -0.13726449 -0.9641472
vn -0.81607723 0.31638175 -0.48365337
vn -0.34173828 -0.4644827 -0.81698877
vn -0.49876705 0.82458997 0.26698872
vn 0.39922506 0.64954823 0.6470753
vn -0.89057034 0.24415329 -0.38376257
vn -0.37167612 -0.5910239 -0.7159242
vn -0.5003442 0.82321537 0.26827618
vn -0.88846654 0.24762838 -0.38640302
vn -0.36452788 -0.5919318 -0.7188435
vn -0.29846844 -0.49763265 -0.81441903
vn -0.43701163 0.88542324 0.15826099
vn 0.45896056 0.71598816 0.52603817
vn 0.5569895 0.81992793 0.132215
vn -0.81299865 0.32473227 -0.48330337
vn -0.20092627 0.96728766 -0.15486461
vn 0.4169446 0.5451386 -0.7273109
vn -0.5142975 0.49285018 -0.7018524
vn -0.07348935 -0.18471463 -0.9800408
vn 0.34908256 -0.1306251 -0.92794317
vn -0.2271092 -0.13726449 -0.9641472
vn -0.14572869 0.08119809 -0.98598677
vn 0.5370744 -0.26426983 -0.8010696
vn 0.64052564 -0.09171496 -0.7624403
vn -0.34173828 -0.4644827 -0.81698877
vn 0.89341617 0.2496608 -0.37346628
vn 0.54948294 -0.65626127 -0.51709735
vn -0.37167612 -0.5910239 -0.7159242
vn 0.9398852 0.2884258 -0.1828285
vn 0.75129503 0.65284157 -0.09671413
vn 0.5046772 0.85922134 0.083902545
vn 0.98569334 -0.06287667 0.15638152
vn 0.4511183 0.7496474 0.4842738
vn 0.5246392 -0.7749614 -0.35240373
vn -0.36452788 -0.5919318 -0.7188435
vn 0.9302188 -0.19542529 0.31064764
vn 0.399258 0.6519944 0.64458996
vn 0.5332771 -0.7745251 -0.34018594
vn 0.9280648 -0.1991864 0.3146753
vn 0.39922506 0.64954823 0.6470753
vn 0.45896056 0.71598816 0.52603817
vn 0.5888074 -0.6829908 -0.43223763
vn -0.29846844 -0.49763265 -0.81441903
vn -0.07348935 -0.18471463 -0.9800408
vn 0.97222745 -0.11684484 0.2027834
vn 0.66410834 -0.35979834 -0.6553665
vn 0.4169446 0.5451386 -0.7273109
vn 0.984639 0.12408281 -0.122839116
vn 0.5569895 0.81992793 0.132215
g pm0893_11_LBackIvyBSkin_ty_0
f 3/3/3 2/2/2 1/1/1
f 2/2/2 4/4/4 1/1/1
f 1/1/1 4/4/4 5/5/5
f 2/2/2 6/6/6 4/4/4
f 5/5/5 4/4/4 7/7/7
f 6/6/6 8/8/8 4/4/4
f 6/6/6 9/9/9 8/8/8
f 4/4/4 10/10/10 7/7/7
f 4/4/4 8/8/8 10/10/10
f 7/7/7 10/10/10 11/11/11
f 10/10/10 12/12/12 11/11/11
f 10/10/10 13/13/13 12/12/12
f 8/8/8 13/13/13 10/10/10
f 13/13/13 14/14/14 12/12/12
f 9/9/9 15/15/15 8/8/8
f 8/8/8 15/15/15 13/13/13
f 9/9/9 16/16/16 15/15/15
f 13/13/13 17/17/17 14/14/14
f 15/15/15 17/17/17 13/13/13
f 17/17/17 18/18/18 14/14/14
f 16/16/16 19/19/19 15/15/15
f 15/15/15 19/19/19 17/17/17
f 17/17/17 20/20/20 18/18/18
f 19/19/19 20/20/20 17/17/17
f 20/20/20 21/21/21 18/18/18
f 22/22/22 21/21/21 20/20/20
f 23/23/23 19/19/19 16/16/16
f 24/24/24 23/23/23 16/16/16
f 24/24/24 25/25/25 23/23/23
f 26/26/26 20/20/20 19/19/19
f 26/26/26 22/22/22 20/20/20
f 23/23/23 26/26/26 19/19/19
f 25/25/25 27/27/27 23/23/23
f 23/23/23 27/27/27 26/26/26
f 27/27/27 25/25/25 28/28/28
f 26/26/26 29/29/29 22/22/22
f 27/27/27 29/29/29 26/26/26
f 27/27/27 28/28/28 29/29/29
f 29/29/29 30/30/30 22/22/22
f 30/30/30 29/29/29 28/28/28
f 33/33/33 32/32/32 31/31/31
f 32/32/32 34/34/34 31/31/31
f 31/31/31 34/34/34 35/35/35
f 32/32/32 36/36/36 34/34/34
f 35/35/35 34/34/34 37/37/37
f 36/36/36 38/38/38 34/34/34
f 36/36/36 39/39/39 38/38/38
f 34/34/34 40/40/40 37/37/37
f 34/34/34 38/38/38 40/40/40
f 37/37/37 40/40/40 41/41/41
f 40/40/40 42/42/42 41/41/41
f 40/40/40 43/43/43 42/42/42
f 38/38/38 43/43/43 40/40/40
f 43/43/43 44/44/44 42/42/42
f 39/39/39 45/45/45 38/38/38
f 38/38/38 45/45/45 43/43/43
f 39/39/39 46/46/46 45/45/45
f 43/43/43 47/47/47 44/44/44
f 45/45/45 47/47/47 43/43/43
f 47/47/47 48/48/48 44/44/44
f 46/46/46 49/49/49 45/45/45
f 45/45/45 49/49/49 47/47/47
f 47/47/47 50/50/50 48/48/48
f 49/49/49 50/50/50 47/47/47
f 50/50/50 51/51/51 48/48/48
f 52/52/52 51/51/51 50/50/50
f 53/53/53 49/49/49 46/46/46
f 54/54/54 53/53/53 46/46/46
f 54/54/54 55/55/55 53/53/53
f 56/56/56 50/50/50 49/49/49
f 56/56/56 52/52/52 50/50/50
f 53/53/53 56/56/56 49/49/49
f 55/55/55 57/57/57 53/53/53
f 53/53/53 57/57/57 56/56/56
f 55/55/55 58/58/58 57/57/57
f 56/56/56 59/59/59 52/52/52
f 57/57/57 59/59/59 56/56/56
f 57/57/57 58/58/58 59/59/59
f 59/59/59 60/60/60 52/52/52
f 60/60/60 59/59/59 58/58/58
