g jirachiForeGroundWorldGeo
v 0.61091304 0.041181564 -0.9083686
v -0.72314954 0.04579711 -0.9083686
v -0.72314954 0.026308775 -1.4514813
v 0.61091304 0.023359776 -1.6555974
v -0.72314954 0.04579711 -0.9083686
v -4.515067 0.04579711 -0.9083686
v -4.515067 0.04579711 -1.5831568
v -0.72314954 0.026308775 -1.4514813
v 0.61091304 0.023359776 -1.6555974
v 3.8874118 0.024000883 -1.6555974
v 3.8874118 0.041181564 -0.9083686
v 0.61091304 0.041181564 -0.9083686
v 0.61091304 0.023359776 -1.6555974
v 0.61091304 -0.035490274 -2.6175842
v 3.8874118 0.22824502 -3.0678704
v 3.8874118 0.024000883 -1.6555974
vt 0.990041 0.9824522
vt 0.990041 0.019619465
vt 0.59826773 0.019619465
vt 0.45028552 0.9824522
vt 0.990041 0.019619465
vt 0.990041 0.024362482
vt 0.6011135 0.024362482
vt 0.59826773 0.019619465
vt 0.45028552 0.9824522
vt 0.45028552 0.97676057
vt 0.990041 0.97676057
vt 0.990041 0.9824522
vt 0.45028552 0.9824522
vt 0.47400063 0.9824522
vt 0.48538387 0.97676057
vt 0.45028552 0.97676057
vn -0.0010799863 0.9998675 -0.016242234
vn -0.0010799863 0.9998675 -0.016242234
vn -0.0010799863 0.9998675 -0.016242234
vn -0.0010799863 0.9998675 -0.016242234
vn 0.002852248 0.9998675 -0.016027976
vn 0.002852248 0.9998675 -0.016027976
vn 0.002852248 0.9998675 -0.016027976
vn 0.002852248 0.9998675 -0.016027976
vn -0.0010799863 0.9998675 -0.016242234
vn -0.0010799863 0.9998675 -0.016242234
vn -0.0010799863 0.9998675 -0.016242234
vn -0.0010799863 0.9998675 -0.016242234
vn -0.036470093 0.99593526 0.0823583
vn -0.036470093 0.99593526 0.0823583
vn -0.036470093 0.99593526 0.0823583
vn -0.036470093 0.99593526 0.0823583
g jirachiForeGroundWorldGeo_0
f 3/3/3 2/2/2 1/1/1
f 4/4/4 3/3/3 1/1/1
f 7/7/7 6/6/6 5/5/5
f 8/8/8 7/7/7 5/5/5
f 11/11/11 10/10/10 9/9/9
f 12/12/12 11/11/11 9/9/9
f 15/15/15 14/14/14 13/13/13
f 16/16/16 15/15/15 13/13/13
