g jirachiTreeBlackLeavesGeo
v 0.9613457 2.4652047 -4.3479166
v 1.3258176 2.217915 -4.2510686
v 1.1605558 1.8780866 -4.4971514
v 0.7960839 2.1253762 -4.5939994
v 2.035977 3.855884 -3.281212
v 2.00806 3.4962373 -3.746495
v 1.4755697 3.7092338 -3.8793592
v 1.503314 4.069052 -3.4140763
v 1.5837908 1.8939404 -4.2843275
v 1.2406878 2.2306676 -4.3289604
v 1.497283 2.529138 -4.049446
v 1.8403859 2.1925836 -4.004813
v -1.4112525 3.75042 -6.8706117
v -1.2160058 3.3721623 -7.019502
v -1.6140819 3.1610618 -7.0048547
v -1.8093286 3.5393195 -6.8559637
v -1.2713227 1.7100682 -6.908179
v -1.3936753 2.1212401 -6.769456
v -0.9633746 2.2549663 -6.786516
v -0.84102297 1.8437934 -6.9254117
v -1.5766864 3.4815898 -6.5438795
v -1.5699658 3.0333667 -6.5931654
v -1.9690757 3.0045886 -6.3851666
v -1.9757962 3.4526381 -6.3358808
v -1.67767 3.160027 -6.7360244
v -1.2392707 3.1395202 -6.839248
v -1.2842479 2.7031884 -6.9436784
v -1.7226472 2.7236953 -6.8404546
v -2.2572064 2.1084876 -6.3641424
v -2.124514 1.8281121 -6.6912193
v -2.3357873 1.4874215 -6.4847717
v -2.468307 1.767797 -6.157522
v -1.8396573 1.6078782 -7.159949
v -2.158463 1.8630939 -6.9690104
v -1.8873925 2.2223964 -6.996238
v -1.5685868 1.9671798 -7.187349
v -2.565844 1.5017247 -6.0615363
v -2.5989308 1.8980765 -5.8494015
v -2.3518138 2.0919442 -6.173032
v -2.3185544 1.6954198 -6.3851666
v -2.1107278 2.3724933 -7.1308255
v -2.4147134 2.704739 -7.107389
v -2.0926337 3.0059667 -7.2007904
v -1.7886491 2.6737208 -7.224399
v -0.8844485 2.394034 -5.6436434
v -0.5160136 2.5515409 -5.8502636
v -0.46345425 2.1553607 -6.0589514
v -0.8320613 1.9978538 -5.852504
v -2.3304448 2.8239894 -6.901286
v -2.223947 2.4412513 -7.1144543
v -2.5117335 2.214641 -6.8514833
v -2.6182313 2.5973792 -6.6383147
v -2.1167598 2.2354932 -6.9405766
v -1.891356 1.9223742 -7.1739073
v -2.2046466 1.6164947 -7.066203
v -2.430222 1.9297843 -6.832872
v -1.3138881 2.35819 -5.7911553
v -0.86807775 2.3357873 -5.726705
v -0.8815198 1.8894601 -5.789432
v -1.3271575 1.9118629 -5.8540545
v -2.2049909 3.3066773 -6.2688456
v -1.8076053 3.36906 -6.472536
v -1.7710719 2.9244561 -6.537331
v -2.1684575 2.8620744 -6.3336406
vt 0 0
vt 0 1
vt 1 1
vt 1 0
vt 0 0
vt 0 1
vt 1 1
vt 1 0
vt 0 0
vt 0 1
vt 1 1
vt 1 0
vt 0 0
vt 0 1
vt 1 1
vt 1 0
vt 0 0
vt 0 1
vt 1 1
vt 1 0
vt 0 0
vt 0 1
vt 1 1
vt 1 0
vt 0 0
vt 0 1
vt 1 1
vt 1 0
vt 0 0
vt 0 1
vt 1 1
vt 1 0
vt 0 0
vt 0 1
vt 1 1
vt 1 0
vt 0 0
vt 0 1
vt 1 1
vt 1 0
vt 0 0
vt 0 1
vt 1 1
vt 1 0
vt 0 0
vt 0 1
vt 1 1
vt 1 0
vt 0 0
vt 0 1
vt 1 1
vt 1 0
vt 0 0
vt 0 1
vt 1 1
vt 1 0
vt 0 0
vt 0 1
vt 1 1
vt 1 0
vt 0 0
vt 0 1
vt 1 1
vt 1 0
vn -0.46107787 -0.3611395 0.8105464
vn -0.46107787 -0.3611395 0.8105464
vn -0.46107787 -0.3611395 0.8105464
vn -0.46107787 -0.3611395 0.8105464
vn -0.42555004 -0.7062678 0.5657676
vn -0.42555004 -0.7062678 0.5657676
vn -0.42555004 -0.7062678 0.5657676
vn -0.42555004 -0.7062678 0.5657676
vn -0.46107787 -0.3611395 0.8105464
vn -0.46107787 -0.3611395 0.8105464
vn -0.46107787 -0.3611395 0.8105464
vn -0.46107787 -0.3611395 0.8105464
vn 0.18349993 -0.2748574 0.943812
vn 0.18349993 -0.2748574 0.943812
vn 0.18349993 -0.2748574 0.943812
vn 0.18349993 -0.2748574 0.943812
vn 0.12767035 -0.28500825 0.9499845
vn 0.12767035 -0.28500825 0.9499845
vn 0.12767035 -0.28500825 0.9499845
vn 0.12767035 -0.28500825 0.9499845
vn 0.46772322 -0.09214246 0.879059
vn 0.46772322 -0.09214246 0.879059
vn 0.46772322 -0.09214246 0.879059
vn 0.46772322 -0.09214246 0.879059
vn 0.20887703 -0.24948037 0.9455845
vn 0.20887703 -0.24948037 0.9455845
vn 0.20887703 -0.24948037 0.9455845
vn 0.20887703 -0.24948037 0.9455845
vn 0.8331532 -0.20380157 0.51412123
vn 0.8331532 -0.20380157 0.51412123
vn 0.8331532 -0.20380157 0.51412123
vn 0.8331532 -0.20380157 0.51412123
vn 0.37129033 -0.21395242 0.9035308
vn 0.37129033 -0.21395242 0.9035308
vn 0.37129033 -0.21395242 0.9035308
vn 0.37129033 -0.21395242 0.9035308
vn 0.8331532 -0.20380157 0.51412123
vn 0.8331532 -0.20380157 0.51412123
vn 0.8331532 -0.20380157 0.51412123
vn 0.8331532 -0.20380157 0.51412123
vn 0.18857533 0.100723386 0.9768798
vn 0.18857533 0.100723386 0.9768798
vn 0.18857533 0.100723386 0.9768798
vn 0.18857533 0.100723386 0.9768798
vn 0.5641562 -0.3256116 0.75875217
vn 0.5641562 -0.3256116 0.75875217
vn 0.5641562 -0.3256116 0.75875217
vn 0.5641562 -0.3256116 0.75875217
vn 0.73164487 -0.16319829 0.6618626
vn 0.73164487 -0.16319829 0.6618626
vn 0.73164487 -0.16319829 0.6618626
vn 0.73164487 -0.16319829 0.6618626
vn 0.5184774 -0.23932952 0.8209157
vn 0.5184774 -0.23932952 0.8209157
vn 0.5184774 -0.23932952 0.8209157
vn 0.5184774 -0.23932952 0.8209157
vn -0.14640212 -0.1327458 0.980278
vn -0.14640212 -0.1327458 0.980278
vn -0.14640212 -0.1327458 0.980278
vn -0.14640212 -0.1327458 0.980278
vn 0.46772322 -0.09214246 0.879059
vn 0.46772322 -0.09214246 0.879059
vn 0.46772322 -0.09214246 0.879059
vn 0.46772322 -0.09214246 0.879059
g jirachiTreeBlackLeavesGeo_0
f 3/3/3 2/2/2 1/1/1
f 4/4/4 3/3/3 1/1/1
f 7/7/7 6/6/6 5/5/5
f 8/8/8 7/7/7 5/5/5
f 11/11/11 10/10/10 9/9/9
f 12/12/12 11/11/11 9/9/9
f 15/15/15 14/14/14 13/13/13
f 16/16/16 15/15/15 13/13/13
f 19/19/19 18/18/18 17/17/17
f 20/20/20 19/19/19 17/17/17
f 23/23/23 22/22/22 21/21/21
f 24/24/24 23/23/23 21/21/21
f 27/27/27 26/26/26 25/25/25
f 28/28/28 27/27/27 25/25/25
f 31/31/31 30/30/30 29/29/29
f 32/32/32 31/31/31 29/29/29
f 35/35/35 34/34/34 33/33/33
f 36/36/36 35/35/35 33/33/33
f 39/39/39 38/38/38 37/37/37
f 40/40/40 39/39/39 37/37/37
f 43/43/43 42/42/42 41/41/41
f 44/44/44 43/43/43 41/41/41
f 47/47/47 46/46/46 45/45/45
f 48/48/48 47/47/47 45/45/45
f 51/51/51 50/50/50 49/49/49
f 52/52/52 51/51/51 49/49/49
f 55/55/55 54/54/54 53/53/53
f 56/56/56 55/55/55 53/53/53
f 59/59/59 58/58/58 57/57/57
f 60/60/60 59/59/59 57/57/57
f 63/63/63 62/62/62 61/61/61
f 64/64/64 63/63/63 61/61/61
