g jirachiSkyDomeGeo
v -19.80217 -2.458458 -73.46903
v 20.299862 3.3895721 -74.93537
v 20.299862 -2.458458 -74.93537
v -19.80217 2.0040588 -73.46903
v 14.879028 22.108475 -74.736206
v 20.299862 22.120018 -74.93537
v -14.71328 22.128677 -73.65088
v -19.80217 22.120018 -73.46903
v -19.80217 -2.458458 -73.46903
v -68.64161 -2.458458 -27.20435
v -19.80217 2.0040588 -73.46903
v -19.80217 22.120018 -73.46903
v -68.64161 22.120018 -27.20435
v 20.299862 3.3895721 -74.93537
v 69.44815 -2.458458 -31.8083
v 20.299862 -2.458458 -74.93537
v 20.299862 22.120018 -74.93537
v 69.44815 22.120018 -31.8083
v -2.6275406 114.23084 29.671082
v 50.68596 103.57969 32.851997
v 64.20051 84.55195 2.8959885
v -62.452965 84.55195 5.4043503
v -53.579887 103.57969 34.595436
v -2.6275406 114.23084 29.671082
v -62.452965 84.55195 5.4043503
v -2.6275406 114.23084 29.671082
v -25.707932 94.10912 -23.174805
v 26.208508 96.81376 -23.812721
v -2.6275406 114.23084 29.671082
v 64.20051 84.55195 2.8959885
v -62.452965 84.55195 5.4043503
v -25.707932 94.10912 -23.174805
v -22.469284 54.63923 -50.74946
v -47.526917 53.874306 -27.64021
v -65.4174 54.63923 -10.22023
v -19.80217 22.120018 -73.46903
v -68.64161 22.120018 -27.20435
v -25.707932 94.10912 -23.174805
v -2.6275406 114.23084 29.671082
v -13.154579 94.76435 -23.32779
v -0.56658936 95.41958 -23.483662
v 12.139748 96.08059 -23.63953
v 26.208508 96.81376 -23.812721
v 20.299862 22.120018 -74.93537
v 66.714645 54.63923 -13.730206
v 69.44815 22.120018 -31.8083
v 46.67662 54.878807 -31.164616
v 22.871723 54.63923 -52.677635
v 64.20051 84.55195 2.8959885
v 26.208508 96.81376 -23.812721
v 22.871723 54.63923 -52.677635
v 20.299862 22.120018 -74.93537
v 14.879028 22.108475 -74.736206
v 15.79982 54.673866 -52.342804
v -14.71328 22.128677 -73.65088
v 14.391212 69.57105 -42.006275
v 26.208508 96.81376 -23.812721
v 8.358444 79.15998 -35.110447
v 12.139748 96.08059 -23.63953
v -1.3228455 80.202 -33.947193
v -0.56658936 95.41958 -23.483662
v -13.154579 94.76435 -23.32779
v -15.888084 54.619026 -51.032333
v -19.80217 22.120018 -73.46903
v -22.469284 54.63923 -50.74946
v -10.45282 78.447014 -34.74098
v -25.707932 94.10912 -23.174805
v -15.737984 68.75129 -41.22115
vt 0.021448838 0.69919634
vt 0.025288766 0.7500754
vt 0.025288766 0.69919634
vt 0.021448838 0.7500754
vt 0.024328785 0.878713
vt 0.025288766 0.878713
vt 0.02240882 0.8719931
vt 0.021448838 0.878713
vt 0.021448838 0.69919634
vt 0.019528873 0.69919634
vt 0.021448838 0.7500754
vt 0.021448838 0.878713
vt 0.019528873 0.878713
vt 0.025288766 0.7500754
vt 0.028168714 0.7001563
vt 0.025288766 0.69919634
vt 0.025288766 0.878713
vt 0.028168714 0.878713
vt 0.48608026 0.0147289615
vt 0.96319145 0.0147289615
vt 0.0089690685 0.99103093
vt 0.99103093 0.99103093
vt 0.028168714 0.0147289615
vt 0.48608026 0.0147289615
vt 0.99103093 0.99103093
vt 0.48608026 0.0147289615
vt 0.0089690685 0.99103093
vt 0.8575934 0.99103093
vt 0.48608026 0.0147289615
vt 0.0089690685 0.99103093
vt 0.8575934 0.99103093
vt 0.0089690685 0.99103093
vt 0.0089690685 0.45248088
vt 0.54559916 0.5081599
vt 0.8575934 0.5206396
vt 0.0089690685 0.0089690685
vt 0.8575934 0.0089690685
vt 0.0089690685 0.99103093
vt 0.48608026 0.0147289615
vt 0.21440527 0.99103093
vt 0.41984147 0.99103093
vt 0.6281576 0.99103093
vt 0.8575934 0.99103093
vt 0.99103093 0.0089690685
vt 0.0089690685 0.5206396
vt 0.0089690685 0.0089690685
vt 0.40928167 0.52447957
vt 0.99103093 0.4361612
vt 0.0089690685 0.99103093
vt 0.99103093 0.99103093
vt 0.99103093 0.4361612
vt 0.99103093 0.0089690685
vt 0.8623933 0.0089690685
vt 0.84319365 0.4400011
vt 0.13376677 0.0089690685
vt 0.80095446 0.6387174
vt 0.99103093 0.99103093
vt 0.67519677 0.770235
vt 0.72511584 0.99103093
vt 0.48032036 0.7894347
vt 0.48416027 0.99103093
vt 0.24608469 0.99103093
vt 0.15680633 0.4505609
vt 0.0089690685 0.0089690685
vt 0.0089690685 0.45248088
vt 0.29696375 0.770235
vt 0.0089690685 0.99103093
vt 0.18176587 0.6425574
vn 0.03702277 0.000631392 0.99931425
vn 0.03702277 0.000631392 0.99931425
vn 0.03702277 0.000631392 0.99931425
vn 0.03702277 0.000631392 0.99931425
vn 0.03702277 0.000631392 0.99931425
vn 0.03702277 0.000631392 0.99931425
vn 0.03702277 0.000631392 0.99931425
vn 0.03702277 0.000631392 0.99931425
vn 0.689695 0.000631392 0.72409976
vn 0.689695 0.000631392 0.72409976
vn 0.689695 0.000631392 0.72409976
vn 0.689695 0.000631392 0.72409976
vn 0.689695 0.000631392 0.72409976
vn -0.6595793 0.000631392 0.7516347
vn -0.6595793 0.000631392 0.7516347
vn -0.6595793 0.000631392 0.7516347
vn -0.6595793 0.000631392 0.7516347
vn -0.6595793 0.000631392 0.7516347
vn -0.32069182 -0.92189574 0.21740514
vn -0.20145357 -0.8654145 0.45877466
vn -0.4964112 -0.7210735 0.48335177
vn 0.5014242 -0.70852214 0.49655834
vn 0.22529364 -0.8465874 0.48221624
vn 0.33198047 -0.90306866 0.27249956
vn 0.5014242 -0.70852214 0.49655834
vn 0.33198047 -0.90306866 0.27249956
vn 0.56418115 -0.65204084 0.5065001
vn -0.5466168 -0.6959707 0.4656553
vn -0.32069182 -0.92189574 0.21740514
vn -0.4964112 -0.7210735 0.48335177
vn 0.5014242 -0.70852214 0.49655834
vn 0.56418115 -0.65204084 0.5065001
vn 0.6269381 -0.41356444 0.66023713
vn 0.6269381 -0.4072888 0.6641269
vn 0.6269381 -0.4072888 0.6641269
vn 0.6269381 -0.4072888 0.6641269
vn 0.6269381 -0.4072888 0.6641269
vn 0.049574196 -0.8465874 0.52993596
vn 0.05584985 -0.9407228 0.33454642
vn 0.049574196 -0.87796587 0.47614947
vn 0.049574196 -0.87796587 0.47614947
vn 0.049574196 -0.87796587 0.47614947
vn 0.049574196 -0.8403117 0.539832
vn -0.5968224 -0.42611587 0.67987376
vn -0.5968224 -0.42611587 0.67987376
vn -0.5968224 -0.42611587 0.67987376
vn -0.60309803 -0.41984016 0.67823815
vn -0.6093738 -0.41356444 0.6764821
vn -0.4964112 -0.7210735 0.48335177
vn -0.5466168 -0.6959707 0.4656553
vn 0.03702277 -0.56418115 0.8248206
vn 0.03702277 -0.56418115 0.8248206
vn 0.030747116 -0.57045686 0.82075185
vn 0.03702277 -0.57045686 0.82049274
vn 0.030747116 -0.57045686 0.82075185
vn 0.03702277 -0.56418115 0.8248206
vn 0.049574196 -0.8403117 0.539832
vn 0.03702277 -0.56418115 0.8248206
vn 0.049574196 -0.87796587 0.47614947
vn 0.03702277 -0.57045686 0.82049274
vn 0.049574196 -0.87796587 0.47614947
vn 0.049574196 -0.87796587 0.47614947
vn 0.030747116 -0.57045686 0.82075185
vn 0.030747116 -0.57045686 0.82075185
vn 0.030747116 -0.57045686 0.82075185
vn 0.03702277 -0.57045686 0.82049274
vn 0.049574196 -0.8465874 0.52993596
vn 0.03702277 -0.57045686 0.82049274
g jirachiSkyDomeGeo_0
f 3/3/3 2/2/2 1/1/1
f 2/2/2 4/4/4 1/1/1
f 2/2/2 5/5/5 4/4/4
f 2/2/2 6/6/6 5/5/5
f 5/5/5 7/7/7 4/4/4
f 7/7/7 8/8/8 4/4/4
f 11/11/11 10/10/10 9/9/9
f 11/11/11 12/12/12 10/10/10
f 12/12/12 13/13/13 10/10/10
f 16/16/16 15/15/15 14/14/14
f 14/14/14 15/15/15 17/17/17
f 15/15/15 18/18/18 17/17/17
g jirachiSkyDomeGeo_1
f 21/21/21 20/20/20 19/19/19
f 24/24/24 23/23/23 22/22/22
f 27/27/27 26/26/26 25/25/25
f 30/30/30 29/29/29 28/28/28
f 33/33/33 32/32/32 31/31/31
f 34/34/34 33/33/33 31/31/31
f 34/34/34 31/31/31 35/35/35
f 34/34/34 36/36/36 33/33/33
f 34/34/34 35/35/35 37/37/37
f 36/36/36 34/34/34 37/37/37
f 40/40/40 39/39/39 38/38/38
f 40/40/40 41/41/41 39/39/39
f 41/41/41 42/42/42 39/39/39
f 42/42/42 43/43/43 39/39/39
f 46/46/46 45/45/45 44/44/44
f 45/45/45 47/47/47 44/44/44
f 47/47/47 48/48/48 44/44/44
f 45/45/45 49/49/49 47/47/47
f 47/47/47 49/49/49 48/48/48
f 49/49/49 50/50/50 48/48/48
f 53/53/53 52/52/52 51/51/51
f 54/54/54 53/53/53 51/51/51
f 55/55/55 53/53/53 54/54/54
f 54/54/54 51/51/51 56/56/56
f 51/51/51 57/57/57 56/56/56
f 58/58/58 56/56/56 57/57/57
f 54/54/54 56/56/56 58/58/58
f 58/58/58 57/57/57 59/59/59
f 60/60/60 58/58/58 59/59/59
f 54/54/54 58/58/58 60/60/60
f 60/60/60 59/59/59 61/61/61
f 60/60/60 61/61/61 62/62/62
f 63/63/63 55/55/55 54/54/54
f 63/63/63 54/54/54 60/60/60
f 55/55/55 63/63/63 64/64/64
f 63/63/63 65/65/65 64/64/64
f 66/66/66 60/60/60 62/62/62
f 63/63/63 60/60/60 66/66/66
f 66/66/66 62/62/62 67/67/67
f 68/68/68 67/67/67 65/65/65
f 63/63/63 68/68/68 65/65/65
f 68/68/68 66/66/66 67/67/67
f 63/63/63 66/66/66 68/68/68
