g m_glasses_frillishglasses_b
v 0.8695527 92.9151 4.4630394
v 0.89374167 93.4025 4.490298
v 1.3795085 93.32184 4.474446
v 1.0295857 93.871925 4.498159
v 1.2600225 92.62263 4.4341373
v 0.9581708 92.44546 4.4184847
v 1.1513946 92.02729 4.3601356
v 1.7863065 92.53624 4.389562
v 1.4942135 94.022896 4.4855285
v 1.2665266 94.289185 4.486157
v 1.5858296 94.624886 4.4554596
v 2.0204992 93.936516 4.440951
v 1.6787354 91.9405 4.3220277
v 1.4331456 91.68881 4.2924204
v 1.7821991 91.45073 4.220109
v 1.9070851 93.23495 4.4377747
v 2.273475 91.84427 4.2337193
v 2.1751802 91.32596 4.147886
v 2.5882201 91.321075 4.0800815
v 2.3823388 92.43951 4.309163
v 2.8634403 91.74992 4.116193
v 2.996534 91.43732 4.0207963
v 3.3737714 91.66979 3.9740148
v 2.9710102 92.34565 4.1837273
v 3.4823973 92.26511 4.048013
v 3.601881 92.964294 4.088327
v 3.6930752 92.00548 3.9433062
v 3.9300175 92.42274 3.9313016
v 4.06586 92.892166 3.939168
v 4.0900507 93.37958 3.966431
v 3.091787 93.04435 4.231942
v 3.7165887 93.665375 4.0994077
v 4.0014315 93.8492 4.0109863
v 3.8082054 94.267365 4.069339
v 3.205203 93.74593 4.2351184
v 2.502552 93.13843 4.3539166
v 2.6165338 93.839775 4.3605523
v 2.7079172 94.441864 4.329045
v 3.297877 94.347496 4.211519
v 3.5264542 94.60583 4.1370645
v 3.177406 94.84392 4.2093534
v 2.7844183 94.96869 4.2815585
v 2.3713875 94.9736 4.3493977
v 2.1131737 94.538086 4.417353
v 1.9630673 94.85732 4.408693
v -0.8853395 92.91737 4.460605
v -1.3904026 93.32008 4.4725533
v -0.90929127 93.4 4.4875965
v -1.0438035 93.86482 4.4953804
v -1.2720647 92.62773 4.4324965
v -0.97308874 92.45234 4.4164877
v -1.1644181 92.03827 4.35871
v -1.793262 92.54217 4.388805
v -1.5039594 94.01428 4.483384
v -1.2784214 94.27799 4.483496
v -1.5945942 94.6104 4.4530993
v -2.025159 93.92872 4.43969
v -1.6866724 91.952286 4.321486
v -1.443407 91.70311 4.291659
v -1.7890384 91.46738 4.220056
v -1.9128923 93.234 4.4367657
v -2.2756047 91.857 4.2341866
v -2.1781664 91.34381 4.148541
v -2.5871572 91.33899 4.081402
v -2.3834867 92.446365 4.309415
v -2.8597624 91.76358 4.117669
v -2.991468 91.45408 4.0226974
v -3.365007 91.68427 3.976375
v -2.9663508 92.35345 4.184988
v -3.4726512 92.27371 4.0501575
v -3.5909874 92.96605 4.0902195
v -3.6811802 92.01667 3.9459672
v -3.9157999 92.42984 3.93408
v -4.05031 92.89466 3.9418695
v -4.0742636 93.377304 3.9688652
v -3.0859795 93.04529 4.232951
v -3.7045467 93.66027 4.101049
v -3.9865139 93.842316 4.012984
v -3.795182 94.256386 4.070764
v -3.1982477 93.740005 4.235875
v -2.502552 93.13843 4.3539166
v -2.615386 93.83292 4.3603005
v -2.7057874 94.42913 4.3285775
v -3.2899404 94.3357 4.2120605
v -3.516193 94.59154 4.1378264
v -3.1705668 94.82729 4.209406
v -2.7814317 94.95083 4.2809033
v -2.3724504 94.95569 4.3480773
v -2.1168516 94.52443 4.415877
v -1.9681333 94.84057 4.4067917
vt 0.21913305 0.8123431
vt 0.21479073 0.84895176
vt 0.251815 0.8489567
vt 0.21912268 0.8855602
vt 0.25183144 0.7954896
vt 0.23178926 0.77840346
vt 0.25169346 0.7496013
vt 0.29205856 0.7955795
vt 0.25181583 0.9024226
vt 0.23176816 0.91950333
vt 0.25166336 0.9483105
vt 0.29204264 0.9023438
vt 0.2920135 0.7497998
vt 0.2772421 0.7277698
vt 0.3066081 0.7142368
vt 0.29208925 0.8489628
vt 0.33782926 0.74983174
vt 0.33783475 0.7096661
vt 0.36906072 0.7142465
vt 0.33782235 0.79563993
vt 0.38364467 0.749814
vt 0.3984228 0.72778857
vt 0.42396525 0.74962777
vt 0.3835865 0.79559356
vt 0.4238129 0.795515
vt 0.4238139 0.8489801
vt 0.44386122 0.77843446
vt 0.45650622 0.81237704
vt 0.46083817 0.848975
vt 0.4564955 0.88559496
vt 0.38353947 0.84897506
vt 0.42379704 0.90244764
vt 0.44383946 0.9195331
vt 0.42393526 0.94833547
vt 0.38357028 0.90235776
vt 0.3378146 0.84896964
vt 0.3378069 0.90229774
vt 0.3378 0.9481054
vt 0.38361552 0.948137
vt 0.39838627 0.9701663
vt 0.3690209 0.98370093
vt 0.3377944 0.98826975
vt 0.3065683 0.9836921
vt 0.29198417 0.94812435
vt 0.2772058 0.97014755
vt 0.253424 0.62240803
vt 0.22074199 0.65902174
vt 0.25776625 0.6590166
vt 0.25343418 0.6956244
vt 0.22072512 0.6055543
vt 0.2407676 0.58846784
vt 0.22086358 0.55966574
vt 0.18049812 0.6056441
vt 0.2207411 0.71248704
vt 0.24078882 0.72956777
vt 0.22089332 0.758375
vt 0.18051434 0.7124085
vt 0.18054307 0.5598641
vt 0.19531476 0.5378342
vt 0.16594887 0.52430093
vt 0.18046755 0.6590275
vt 0.13472754 0.5598963
vt 0.13472176 0.51973087
vt 0.10349601 0.52431065
vt 0.13473451 0.6057044
vt 0.08891207 0.55987865
vt 0.07413423 0.5378533
vt 0.048591837 0.5596924
vt 0.088970244 0.60565835
vt 0.048743844 0.6055793
vt 0.04874283 0.65904474
vt 0.02869606 0.5884986
vt 0.01605016 0.6224414
vt 0.01171875 0.65904987
vt 0.016061425 0.6956592
vt 0.08901715 0.65904015
vt 0.04875976 0.7125119
vt 0.028716981 0.72959775
vt 0.04862143 0.7583999
vt 0.08898634 0.71242255
vt 0.13474238 0.65903425
vt 0.13475007 0.7123624
vt 0.1347568 0.7581697
vt 0.088941574 0.7582018
vt 0.07417035 0.78023034
vt 0.10353566 0.7937651
vt 0.1347627 0.7983343
vt 0.16598886 0.79375666
vt 0.18057269 0.7581886
vt 0.195351 0.7802121
vn 0.022275815 -0.06582374 0.99758255
vn 0.0257902 -0.040974546 0.9988273
vn 0.058292113 -0.046348102 0.99722314
vn 0.030563729 -0.016307635 0.9993998
vn 0.051475197 -0.09581241 0.99406755
vn 0.015096562 -0.11348975 0.9934244
vn 0.052951552 -0.13081788 0.9899913
vn 0.09228856 -0.1054619 0.9901316
vn 0.067963906 0.0027445077 0.997684
vn 0.039338578 0.03127923 0.9987362
vn 0.08078283 0.035575412 0.9960967
vn 0.10973726 -0.0011365074 0.99396
vn 0.08887393 -0.1436116 0.9856354
vn 0.059253678 -0.17346579 0.98305583
vn 0.11056413 -0.1823047 0.9770059
vn 0.09999426 -0.053187314 0.9935654
vn 0.14493562 -0.15454803 0.97729665
vn 0.13879481 -0.18735413 0.97243744
vn 0.167106 -0.19138405 0.9671855
vn 0.15183428 -0.11625881 0.98154485
vn 0.20112425 -0.16166458 0.9661333
vn 0.21766356 -0.19892809 0.9555366
vn 0.23856002 -0.16067587 0.9577434
vn 0.21117109 -0.1245897 0.9694762
vn 0.2518874 -0.12805848 0.9592464
vn 0.2618991 -0.07910592 0.9618477
vn 0.2788075 -0.15591663 0.94760567
vn 0.28828213 -0.10862919 0.95136374
vn 0.2931117 -0.08398962 0.95238185
vn 0.29654393 -0.05909383 0.9531892
vn 0.22133945 -0.072709724 0.9724824
vn 0.26836148 -0.029491529 0.9628668
vn 0.30299446 -0.011128193 0.95292735
vn 0.26638573 0.0057201507 0.96384954
vn 0.2286178 -0.020259866 0.9733054
vn 0.16098031 -0.06307064 0.98494035
vn 0.16965584 -0.0096935015 0.9854557
vn 0.1756274 0.028964207 0.9840306
vn 0.23120807 0.018217474 0.9727338
vn 0.2590925 0.048759013 0.96462107
vn 0.20868562 0.057232108 0.97630674
vn 0.180565 0.06225657 0.98159075
vn 0.15215367 0.06632262 0.9861291
vn 0.118955426 0.036272496 0.9922368
vn 0.1006588 0.07424545 0.9921469
vn -0.020912314 -0.06584408 0.9976108
vn -0.057278752 -0.04618053 0.99728954
vn -0.024462406 -0.04075518 0.9988696
vn -0.029281968 -0.015846519 0.9994456
vn -0.050395068 -0.096128516 0.9940924
vn -0.013669056 -0.113971144 0.9933901
vn -0.051884674 -0.13147259 0.989961
vn -0.09160849 -0.10587619 0.9901506
vn -0.06704518 0.0033923974 0.9977442
vn -0.038144853 0.0321988 0.9987533
vn -0.07998785 0.036542185 0.99612576
vn -0.10922776 -0.0005259775 0.9940165
vn -0.08815733 -0.14439411 0.9855854
vn -0.058249936 -0.17452534 0.9829282
vn -0.110058025 -0.18346223 0.9768464
vn -0.09939131 -0.05308921 0.9936312
vn -0.14477067 -0.15544207 0.9771792
vn -0.13857007 -0.18856514 0.9722353
vn -0.16715184 -0.1926319 0.9669298
vn -0.15174279 -0.116782315 0.9814968
vn -0.20150673 -0.16262443 0.9658925
vn -0.21819769 -0.20024149 0.95514035
vn -0.2393028 -0.16162142 0.95739895
vn -0.21165936 -0.12519132 0.9692923
vn -0.25276482 -0.12868956 0.95893115
vn -0.26288006 -0.07925979 0.9615674
vn -0.27994293 -0.1568132 0.9471228
vn -0.2895031 -0.109065466 0.95094305
vn -0.2943797 -0.08418609 0.95197344
vn -0.29784766 -0.05904867 0.95278543
vn -0.22193177 -0.07280347 0.97234046
vn -0.26939902 -0.029158464 0.9625871
vn -0.3043435 -0.010619024 0.9525032
vn -0.26739684 0.00639567 0.96356523
vn -0.22927652 -0.01983728 0.9731592
vn -0.16098127 -0.06307116 0.9849401
vn -0.16973847 -0.009166328 0.98544645
vn -0.17576323 0.029869705 0.9839792
vn -0.23188451 0.01901579 0.97255737
vn -0.26002976 0.04984894 0.96431303
vn -0.20913799 0.058409084 0.9761402
vn -0.1807438 0.06348296 0.9814792
vn -0.15205312 0.067588255 0.98605865
vn -0.11853368 0.03724815 0.9922511
vn -0.100061715 0.07558381 0.9921062
g m_glasses_frillishglasses_b_0
f 3/3/3 2/2/2 1/1/1
f 4/4/4 2/2/2 3/3/3
f 1/1/1 5/5/5 3/3/3
f 6/6/6 5/5/5 1/1/1
f 5/5/5 6/6/6 7/7/7
f 5/5/5 7/7/7 8/8/8
f 5/5/5 8/8/8 3/3/3
f 3/3/3 9/9/9 4/4/4
f 9/9/9 10/10/10 4/4/4
f 9/9/9 11/11/11 10/10/10
f 9/9/9 3/3/3 12/12/12
f 9/9/9 12/12/12 11/11/11
f 7/7/7 13/13/13 8/8/8
f 7/7/7 14/14/14 13/13/13
f 13/13/13 14/14/14 15/15/15
f 8/8/8 16/16/16 3/3/3
f 3/3/3 16/16/16 12/12/12
f 17/17/17 13/13/13 15/15/15
f 15/15/15 18/18/18 17/17/17
f 17/17/17 18/18/18 19/19/19
f 8/8/8 13/13/13 20/20/20
f 8/8/8 20/20/20 16/16/16
f 13/13/13 17/17/17 20/20/20
f 19/19/19 21/21/21 17/17/17
f 21/21/21 19/19/19 22/22/22
f 21/21/21 22/22/22 23/23/23
f 21/21/21 24/24/24 17/17/17
f 24/24/24 21/21/21 23/23/23
f 24/24/24 20/20/20 17/17/17
f 25/25/25 24/24/24 23/23/23
f 25/25/25 26/26/26 24/24/24
f 25/25/25 23/23/23 27/27/27
f 25/25/25 27/27/27 28/28/28
f 26/26/26 25/25/25 28/28/28
f 28/28/28 29/29/29 26/26/26
f 26/26/26 29/29/29 30/30/30
f 24/24/24 31/31/31 20/20/20
f 26/26/26 31/31/31 24/24/24
f 30/30/30 32/32/32 26/26/26
f 32/32/32 30/30/30 33/33/33
f 32/32/32 33/33/33 34/34/34
f 32/32/32 35/35/35 26/26/26
f 35/35/35 32/32/32 34/34/34
f 35/35/35 31/31/31 26/26/26
f 31/31/31 36/36/36 20/20/20
f 20/20/20 36/36/36 16/16/16
f 37/37/37 36/36/36 31/31/31
f 16/16/16 36/36/36 37/37/37
f 35/35/35 37/37/37 31/31/31
f 38/38/38 37/37/37 35/35/35
f 12/12/12 16/16/16 37/37/37
f 12/12/12 37/37/37 38/38/38
f 39/39/39 35/35/35 34/34/34
f 39/39/39 38/38/38 35/35/35
f 39/39/39 34/34/34 40/40/40
f 39/39/39 40/40/40 41/41/41
f 38/38/38 39/39/39 41/41/41
f 41/41/41 42/42/42 38/38/38
f 38/38/38 42/42/42 43/43/43
f 44/44/44 12/12/12 38/38/38
f 43/43/43 44/44/44 38/38/38
f 12/12/12 44/44/44 11/11/11
f 44/44/44 43/43/43 45/45/45
f 44/44/44 45/45/45 11/11/11
f 48/48/48 47/47/47 46/46/46
f 48/48/48 49/49/49 47/47/47
f 50/50/50 46/46/46 47/47/47
f 50/50/50 51/51/51 46/46/46
f 51/51/51 50/50/50 52/52/52
f 52/52/52 50/50/50 53/53/53
f 53/53/53 50/50/50 47/47/47
f 54/54/54 47/47/47 49/49/49
f 55/55/55 54/54/54 49/49/49
f 56/56/56 54/54/54 55/55/55
f 47/47/47 54/54/54 57/57/57
f 57/57/57 54/54/54 56/56/56
f 58/58/58 52/52/52 53/53/53
f 59/59/59 52/52/52 58/58/58
f 59/59/59 58/58/58 60/60/60
f 61/61/61 53/53/53 47/47/47
f 61/61/61 47/47/47 57/57/57
f 58/58/58 62/62/62 60/60/60
f 63/63/63 60/60/60 62/62/62
f 63/63/63 62/62/62 64/64/64
f 58/58/58 53/53/53 65/65/65
f 65/65/65 53/53/53 61/61/61
f 62/62/62 58/58/58 65/65/65
f 66/66/66 64/64/64 62/62/62
f 64/64/64 66/66/66 67/67/67
f 67/67/67 66/66/66 68/68/68
f 69/69/69 66/66/66 62/62/62
f 66/66/66 69/69/69 68/68/68
f 65/65/65 69/69/69 62/62/62
f 69/69/69 70/70/70 68/68/68
f 71/71/71 70/70/70 69/69/69
f 68/68/68 70/70/70 72/72/72
f 72/72/72 70/70/70 73/73/73
f 70/70/70 71/71/71 73/73/73
f 74/74/74 73/73/73 71/71/71
f 74/74/74 71/71/71 75/75/75
f 76/76/76 69/69/69 65/65/65
f 76/76/76 71/71/71 69/69/69
f 77/77/77 75/75/75 71/71/71
f 75/75/75 77/77/77 78/78/78
f 78/78/78 77/77/77 79/79/79
f 80/80/80 77/77/77 71/71/71
f 77/77/77 80/80/80 79/79/79
f 76/76/76 80/80/80 71/71/71
f 81/81/81 76/76/76 65/65/65
f 81/81/81 65/65/65 61/61/61
f 81/81/81 82/82/82 76/76/76
f 81/81/81 61/61/61 82/82/82
f 82/82/82 80/80/80 76/76/76
f 82/82/82 83/83/83 80/80/80
f 61/61/61 57/57/57 82/82/82
f 82/82/82 57/57/57 83/83/83
f 80/80/80 84/84/84 79/79/79
f 83/83/83 84/84/84 80/80/80
f 79/79/79 84/84/84 85/85/85
f 85/85/85 84/84/84 86/86/86
f 84/84/84 83/83/83 86/86/86
f 87/87/87 86/86/86 83/83/83
f 87/87/87 83/83/83 88/88/88
f 57/57/57 89/89/89 83/83/83
f 89/89/89 88/88/88 83/83/83
f 89/89/89 57/57/57 56/56/56
f 88/88/88 89/89/89 90/90/90
f 90/90/90 89/89/89 56/56/56
