g mesh_sphere
v -0 0 -0.06971576
v -0 0.02667903 -0.06440898
v -0.026679067 0.024648208 -0.059506137
v -0.026679061 -5.923943E-18 -0.064408965
v -0.049296487 0.018864922 -0.04554403
v -0.026679067 -0.024648244 -0.05950612
v -0 -0.026679067 -0.064408965
v -0.026679067 -0.045544017 -0.04554401
v -0.049296487 -0.034857884 -0.034857877
v -0 -0.04929649 -0.049296483
v -0 -0.064408965 -0.026679058
v -0.026679069 -0.059506126 -0.024648234
v -0 -0.06971576 1.0388457E-08
v -0.04929649 -0.01886495 -0.045544013
v -0.049296487 -1.0946019E-17 -0.049296487
v -0.06440896 -1.4301663E-17 -0.026679067
v -0.064408965 0.010209622 -0.02464825
v -0.06971576 -1.5480009E-17 0
v -0.06440896 -0.010209638 -0.024648244
v -0.06971576 -1.5480009E-17 0
v -0.064408965 -0.01886495 -0.018864946
v -0.06971576 -1.5480009E-17 0
v -0.06440896 -0.024648244 -0.010209637
v -0.06971576 -1.5480009E-17 0
v -0.049296487 -0.045544017 -0.018864943
v -0.026679067 -0.064408965 9.536743E-09
v -0.064408965 -0.026679067 4.7683715E-09
v -0.06971576 -1.5480009E-17 0
v -0.049296487 -0.049296487 9.536743E-09
v -0.026679067 -0.05950612 0.024648257
v -0 -0.06440896 0.026679078
v -0.049296487 -0.045544013 0.018864956
v -0.026679067 -0.045544002 0.04554403
v -0 -0.049296472 0.0492965
v -0 -0.026679046 0.064408965
v -0.064408965 -0.024648242 0.010209641
v -0.06971576 -1.5480009E-17 0
v -0.049296487 -0.03485787 0.034857888
v -0.026679067 -0.024648225 0.05950613
v -0 2.4932298E-08 0.06971576
v -0.064408965 -0.018864943 0.01886495
v -0.06971576 -1.5480009E-17 0
v -0.049296487 -0.018864933 0.045544017
v -0.026679067 2.303444E-08 0.06440896
v -0.064408965 -0.010209629 0.024648242
v -0.06971576 -1.5480009E-17 0
v -0.064408965 9.541178E-09 0.026679061
v -0.06971576 -1.5480009E-17 0
v -0.049296487 1.7629798E-08 0.049296487
v -0.026679067 0.024648266 0.05950612
v -0 0.026679091 0.06440895
v -0.064408965 0.010209646 0.024648242
v -0.06971576 -1.5480009E-17 0
v -0.049296487 0.018864967 0.04554401
v -0.026679067 0.045544032 0.045543995
v -0 0.049296506 0.049296465
v -0 0.06440897 0.026679035
v -0.049296487 0.034857895 0.03485787
v -0.026679067 0.059506133 0.024648217
v -0 0.06971575 -3.5320756E-08
v -0.064408965 0.018864956 0.01886494
v -0.06971576 -1.5480009E-17 0
v -0.049296487 0.04554402 0.018864926
v -0.026679067 0.06440896 -3.33786E-08
v -0.064408965 0.02464825 0.010209622
v -0.06971576 -1.5480009E-17 0
v -0.049296487 0.049296483 -2.3841856E-08
v -0.026679069 0.059506103 -0.024648273
v -0 0.06440894 -0.0266791
v -0.064408965 0.026679065 -1.4305114E-08
v -0.06971576 -1.5480009E-17 0
v -0.049296483 0.045544002 -0.018864973
v -0.049296487 0.034857858 -0.034857895
v -0.026679067 0.045543987 -0.045544036
v -0 0.049296457 -0.049296513
v -0 0.02667903 -0.06440898
v -0.026679067 0.024648208 -0.059506137
v -0.049296487 0.018864922 -0.04554403
v -0.064408965 0.010209622 -0.02464825
v -0.064408965 0.024648236 -0.010209651
v -0.06971576 -1.5480009E-17 0
v -0.064408965 0.018864937 -0.01886496
v -0.06971576 -1.5480009E-17 0
v -0.06971576 -1.5480009E-17 0
v -0 0 -0.06971576
v 0.026679067 0.024648208 -0.059506137
v -0 0.02667903 -0.06440898
v 0.026679067 5.923943E-18 -0.06440896
v 0.049296487 0.018864922 -0.04554403
v 0.026679067 -0.024648244 -0.05950612
v -0 -0.026679067 -0.064408965
v 0.049296487 1.0946019E-17 -0.049296487
v 0.064408965 0.010209622 -0.024648251
v 0.026679067 -0.045544017 -0.04554401
v -0 -0.04929649 -0.049296483
v -0 -0.064408965 -0.026679058
v 0.049296487 -0.01886495 -0.045544017
v 0.064408965 1.4301663E-17 -0.026679061
v 0.06971576 1.5480009E-17 0
v 0.064408965 -0.010209638 -0.024648242
v 0.06971576 1.5480009E-17 0
v 0.026679067 -0.059506126 -0.024648236
v -0 -0.06971576 1.0388457E-08
v 0.049296487 -0.034857884 -0.034857877
v 0.064408965 -0.01886495 -0.01886495
v 0.06971576 1.5480009E-17 0
v 0.049296487 -0.045544017 -0.01886494
v 0.026679067 -0.064408965 9.536743E-09
v 0.064408965 -0.024648244 -0.010209632
v 0.06971576 1.5480009E-17 0
v 0.064408965 -0.026679067 4.7683715E-09
v 0.06971576 1.5480009E-17 0
v 0.026679069 -0.05950612 0.024648253
v -0 -0.06440896 0.026679078
v 0.049296487 -0.049296487 9.536743E-09
v 0.04929649 -0.045544013 0.018864958
v 0.026679067 -0.045544002 0.04554403
v -0 -0.049296472 0.0492965
v -0 -0.026679046 0.064408965
v 0.064408965 -0.024648242 0.010209641
v 0.06971576 1.5480009E-17 0
v 0.049296483 -0.03485787 0.03485789
v 0.026679067 -0.024648225 0.05950613
v -0 2.4932298E-08 0.06971576
v 0.06440896 -0.018864943 0.018864956
v 0.06971576 1.5480009E-17 0
v 0.049296483 -0.018864933 0.04554402
v 0.026679061 2.303444E-08 0.064408965
v 0.064408965 -0.010209629 0.024648245
v 0.06971576 1.5480009E-17 0
v 0.06440896 9.541178E-09 0.026679067
v 0.06971576 1.5480009E-17 0
v 0.026679061 0.024648266 0.059506115
v -0 0.026679091 0.06440895
v 0.049296487 1.7629798E-08 0.049296487
v 0.049296487 0.018864967 0.04554401
v 0.026679067 0.045544032 0.045543995
v -0 0.049296506 0.049296465
v -0 0.06440897 0.026679035
v 0.04929649 0.034857895 0.034857865
v 0.026679069 0.059506133 0.024648216
v -0 0.06971575 -3.5320756E-08
v 0.064408965 0.010209646 0.02464824
v 0.06971576 1.5480009E-17 0
v 0.064408965 0.018864956 0.01886494
v 0.06971576 1.5480009E-17 0
v 0.06440896 0.02464825 0.0102096265
v 0.06971576 1.5480009E-17 0
v 0.049296487 0.04554402 0.018864926
v 0.026679067 0.06440896 -3.33786E-08
v 0.049296487 0.049296483 -2.3841856E-08
v 0.026679067 0.059506103 -0.024648275
v -0 0.06440894 -0.0266791
v 0.064408965 0.026679065 -1.4305114E-08
v 0.06971576 1.5480009E-17 0
v 0.049296487 0.045544002 -0.01886497
v 0.049296487 0.034857858 -0.034857895
v 0.026679067 0.045543987 -0.045544036
v -0 0.049296457 -0.049296513
v -0 0.02667903 -0.06440898
v 0.026679067 0.024648208 -0.059506137
v 0.049296487 0.018864922 -0.04554403
v 0.064408965 0.010209622 -0.024648251
v 0.064408965 0.024648236 -0.010209651
v 0.06971576 1.5480009E-17 0
v 0.06440896 0.018864937 -0.01886496
v 0.06971576 1.5480009E-17 0
v 0.06971576 1.5480009E-17 0
vt 0.062500715 0.122614324
vt 7.748604E-07 0.122614145
vt 7.748604E-07 0.6206208
vt 0.062500656 0.62062085
vt 7.748604E-07 0.6521479
vt 0.12500077 0.62062085
vt 0.12500066 0.122614264
vt 0.18750066 0.62062085
vt 0.18750066 0.6521479
vt 0.18750066 0.122614324
vt 0.25000066 0.122614324
vt 0.25000066 0.6206208
vt 0.31250077 0.122614145
vt 0.12500077 0.6521478
vt 0.062500656 0.6521478
vt 0.062500656 0.67980945
vt 7.748604E-07 0.67980945
vt 0.031250894 0.78945625
vt 0.12500066 0.67980963
vt 0.093750775 0.7894558
vt 0.18750066 0.67980975
vt 0.15625083 0.7894559
vt 0.25000066 0.67980945
vt 0.21875077 0.78945625
vt 0.25000077 0.6521478
vt 0.31250066 0.62062085
vt 0.31250066 0.67980975
vt 0.28125083 0.7894559
vt 0.31250066 0.6521479
vt 0.37500066 0.62062085
vt 0.37500077 0.122614264
vt 0.37500077 0.6521478
vt 0.43750077 0.62062085
vt 0.43750066 0.12261438
vt 0.50000066 0.122614324
vt 0.37500066 0.67980963
vt 0.34375072 0.7894559
vt 0.43750066 0.6521479
vt 0.5000008 0.62062085
vt 0.56250066 0.122614324
vt 0.43750066 0.67980963
vt 0.40625072 0.78945625
vt 0.50000066 0.6521478
vt 0.56250066 0.62062085
vt 0.50000066 0.67980945
vt 0.46875066 0.7894558
vt 0.5625007 0.67980963
vt 0.5312506 0.7894559
vt 0.5625007 0.6521478
vt 0.62500066 0.62062085
vt 0.62500066 0.122614145
vt 0.62500066 0.67980975
vt 0.59375066 0.78945625
vt 0.62500066 0.6521478
vt 0.6875007 0.62062085
vt 0.6875007 0.122614324
vt 0.75000066 0.122614324
vt 0.6875007 0.6521478
vt 0.75000066 0.6206208
vt 0.8125008 0.122614324
vt 0.6875007 0.67980963
vt 0.6562507 0.78945625
vt 0.75000066 0.6521479
vt 0.8125008 0.62062085
vt 0.75000066 0.67980963
vt 0.7187507 0.7894558
vt 0.81250066 0.6521479
vt 0.87500066 0.62062085
vt 0.8750008 0.122614324
vt 0.81250066 0.67980945
vt 0.7812508 0.78945625
vt 0.87500066 0.6521478
vt 0.9375008 0.6521478
vt 0.93750066 0.6206208
vt 0.9375008 0.122614324
vt 1.0000006 0.122614324
vt 1.0000006 0.62062085
vt 1.0000006 0.6521479
vt 1.0000006 0.67980975
vt 0.87500066 0.67980945
vt 0.84375066 0.7894558
vt 0.93750066 0.67980963
vt 0.9687508 0.7894559
vt 0.90625066 0.78945625
vt 0.9375 0.122612596
vt 1 0.62062055
vt 1 0.122612596
vt 0.9375 0.62062055
vt 1 0.65214753
vt 0.875 0.62062055
vt 0.875 0.122612596
vt 0.9375 0.65214753
vt 1 0.67980814
vt 0.8125 0.62062055
vt 0.8125 0.122612596
vt 0.75 0.122612596
vt 0.875 0.65214753
vt 0.9375 0.67980814
vt 0.96875 0.78945446
vt 0.875 0.67980814
vt 0.90625 0.78945446
vt 0.75 0.62062055
vt 0.6875 0.122612596
vt 0.8125 0.65214753
vt 0.8125 0.67980814
vt 0.84375 0.78945446
vt 0.75 0.65214753
vt 0.6875 0.62062055
vt 0.75 0.67980814
vt 0.78125 0.78945446
vt 0.6875 0.67980814
vt 0.71875 0.78945446
vt 0.625 0.62062055
vt 0.625 0.122612596
vt 0.6875 0.65214753
vt 0.625 0.65214753
vt 0.5625 0.62062055
vt 0.5625 0.122612596
vt 0.5 0.122612596
vt 0.625 0.67980814
vt 0.65625 0.78945446
vt 0.5625 0.65214753
vt 0.5 0.62062055
vt 0.4375 0.122612596
vt 0.5625 0.67980814
vt 0.59375 0.78945446
vt 0.5 0.65214753
vt 0.4375 0.62062055
vt 0.5 0.67980814
vt 0.53125 0.78945446
vt 0.4375 0.67980814
vt 0.46875 0.78945446
vt 0.375 0.62062055
vt 0.375 0.122612596
vt 0.4375 0.65214753
vt 0.375 0.65214753
vt 0.3125 0.62062055
vt 0.3125 0.122612596
vt 0.25 0.122612596
vt 0.3125 0.65214753
vt 0.25 0.62062055
vt 0.1875 0.122612596
vt 0.375 0.67980814
vt 0.40625 0.78945446
vt 0.3125 0.67980814
vt 0.34375 0.78945446
vt 0.25 0.67980814
vt 0.28125 0.78945446
vt 0.25 0.65214753
vt 0.1875 0.62062055
vt 0.1875 0.65214753
vt 0.125 0.62062055
vt 0.125 0.122612596
vt 0.1875 0.67980814
vt 0.21875 0.78945446
vt 0.125 0.65214753
vt 0.0625 0.65214753
vt 0.0625 0.62062055
vt 0.0625 0.122612596
vt 0 0.122612596
vt 0 0.62062055
vt 0 0.65214753
vt 0 0.67980814
vt 0.125 0.67980814
vt 0.15625 0.78945446
vt 0.0625 0.67980814
vt 0.03125 0.78945446
vt 0.09375 0.78945446
vn -0 -1.6253495E-07 -1
vn -0 0.3826831 -0.92387974
vn -0.38315964 0.35347754 -0.8533712
vn -0.38315958 -1.8141287E-07 -0.92368215
vn -0.70762867 0.2703978 -0.6527992
vn -0.3831597 -0.35347795 -0.853371
vn -0 -0.38268346 -0.9238795
vn -0.38315973 -0.653142 -0.6531418
vn -0.7076286 -0.4996308 -0.49963066
vn -0 -0.70710677 -0.70710677
vn -0 -0.9238795 -0.3826834
vn -0.3831597 -0.853371 -0.3534778
vn -0 -1 1.93494E-07
vn -0.70762867 -0.2703982 -0.65279895
vn -0.70762867 -1.841078E-07 -0.7065846
vn -0.92408174 -4.211416E-07 -0.38219488
vn -0.92408174 0.1462592 -0.3531021
vn -1 0 0
vn -0.92408174 -0.14625925 -0.35310212
vn -1 0 0
vn -0.92408186 -0.2702524 -0.27025247
vn -1 0 0
vn -0.92408174 -0.35310224 -0.14625947
vn -1 0 0
vn -0.70762867 -0.652799 -0.2703981
vn -0.38315973 -0.92368215 1.08075774E-07
vn -0.92408174 -0.38219473 0
vn -1 0 0
vn -0.7076287 -0.7065845 0
vn -0.38315967 -0.8533709 0.35347798
vn -0 -0.92387944 0.3826836
vn -0.70762867 -0.65279895 0.27039826
vn -0.38315967 -0.6531417 0.6531421
vn -0 -0.7071066 0.70710695
vn -0 -0.38268313 0.9238796
vn -0.92408174 -0.3531021 0.14625958
vn -1 0 0
vn -0.70762867 -0.49963054 0.49963087
vn -0.3831596 -0.35347754 0.8533712
vn -0 2.554121E-07 1
vn -0.92408174 -0.27025232 0.2702526
vn -1 0 0
vn -0.70762867 -0.270398 0.65279907
vn -0.38315973 2.2001137E-07 0.92368215
vn -0.92408174 -0.14625897 0.35310212
vn -1 0 0
vn -0.92408174 1.2862922E-07 0.38219476
vn -1 0 0
vn -0.70762867 2.4164154E-07 0.7065845
vn -0.3831598 0.35347816 0.85337085
vn -0 0.38268378 0.92387944
vn -0.92408174 0.14625949 0.35310188
vn -1 0 0
vn -0.70762867 0.2703984 0.6527989
vn -0.3831597 0.6531423 0.65314156
vn -0 0.7071072 0.70710635
vn -0 0.92387974 0.382683
vn -0.70762867 0.4996309 0.49963054
vn -0.38315967 0.8533712 0.3534774
vn -0 1 -5.7661214E-07
vn -0.92408186 0.2702524 0.27025256
vn -1 0 0
vn -0.70762867 0.6527992 0.27039784
vn -0.3831597 0.92368215 -5.944168E-07
vn -0.92408186 0.35310194 0.14625944
vn -1 0 0
vn -0.7076286 0.70658463 -5.139676E-07
vn -0.38315973 0.85337085 -0.35347828
vn -0 0.9238793 -0.38268396
vn -0.92408174 0.3821949 -3.849349E-07
vn -1 0 0
vn -0.70762855 0.652799 -0.2703985
vn -0.70762867 0.49963057 -0.49963087
vn -0.3831597 0.65314156 -0.65314215
vn -0 0.7071065 -0.70710707
vn -0 0.3826831 -0.92387974
vn -0.38315964 0.35347754 -0.8533712
vn -0.70762867 0.2703978 -0.6527992
vn -0.92408174 0.1462592 -0.3531021
vn -0.92408174 0.35310215 -0.14625973
vn -1 0 0
vn -0.92408174 0.27025265 -0.2702526
vn -1 0 0
vn -1 0 0
vn -0 -1.6253495E-07 -1
vn 0.3831596 0.35347748 -0.8533712
vn -0 0.3826831 -0.92387974
vn 0.38315955 -1.5439394E-07 -0.92368215
vn 0.70762867 0.270398 -0.652799
vn 0.38315973 -0.3534779 -0.853371
vn -0 -0.38268346 -0.9238795
vn 0.70762867 -1.5534097E-07 -0.7065846
vn 0.92408186 0.14625931 -0.35310194
vn 0.38315964 -0.65314186 -0.65314186
vn -0 -0.70710677 -0.70710677
vn -0 -0.9238795 -0.3826834
vn 0.7076287 -0.27039814 -0.65279895
vn 0.92408174 0 -0.38219482
vn 1 1.2258653E-07 0
vn 0.92408186 -0.14625931 -0.353102
vn 1 1.2258653E-07 0
vn 0.3831597 -0.853371 -0.3534778
vn -0 -1 1.93494E-07
vn 0.70762867 -0.49963078 -0.49963075
vn 0.92408174 -0.27025247 -0.2702526
vn 1 1.2258653E-07 0
vn 0.70762867 -0.65279907 -0.27039814
vn 0.3831597 -0.92368215 1.3123487E-07
vn 0.92408174 -0.35310188 -0.14625952
vn 1 1.2258653E-07 0
vn 0.92408174 -0.3821947 1.3529888E-07
vn 1 1.2258653E-07 0
vn 0.3831597 -0.853371 0.35347795
vn -0 -0.92387944 0.3826836
vn 0.70762867 -0.7065846 0
vn 0.7076287 -0.65279883 0.2703983
vn 0.38315964 -0.6531416 0.6531421
vn -0 -0.7071066 0.70710695
vn -0 -0.38268313 0.9238796
vn 0.92408186 -0.35310167 0.14625983
vn 1 1.2258653E-07 0
vn 0.70762867 -0.49963054 0.49963087
vn 0.38315964 -0.35347763 0.8533712
vn -0 2.554121E-07 1
vn 0.92408174 -0.27025267 0.27025265
vn 1 1.2258653E-07 0
vn 0.70762867 -0.27039805 0.65279907
vn 0.38315973 2.933485E-07 0.92368215
vn 0.92408174 -0.14625971 0.353102
vn 1 1.2258653E-07 0
vn 0.92408174 0 0.38219497
vn 1 1.2258653E-07 0
vn 0.38315973 0.35347816 0.8533709
vn -0 0.38268378 0.92387944
vn 0.70762867 1.4958762E-07 0.7065845
vn 0.7076286 0.27039835 0.65279895
vn 0.38315964 0.65314215 0.65314156
vn -0 0.7071072 0.70710635
vn -0 0.92387974 0.382683
vn 0.70762867 0.49963105 0.49963048
vn 0.38315964 0.8533712 0.35347736
vn -0 1 -5.7661214E-07
vn 0.92408174 0.14625974 0.35310188
vn 1 1.2258653E-07 0
vn 0.92408174 0.27025315 0.27025217
vn 1 1.2258653E-07 0
vn 0.92408174 0.3531021 0.14625943
vn 1 1.2258653E-07 0
vn 0.70762867 0.6527992 0.2703977
vn 0.38315967 0.92368215 -6.330153E-07
vn 0.70762867 0.7065845 -4.660229E-07
vn 0.38315973 0.85337085 -0.3534783
vn -0 0.9238793 -0.38268396
vn 0.92408174 0.38219476 0
vn 1 1.2258653E-07 0
vn 0.7076287 0.6527987 -0.27039856
vn 0.7076287 0.49963045 -0.4996309
vn 0.3831597 0.6531416 -0.65314215
vn -0 0.7071065 -0.70710707
vn -0 0.3826831 -0.92387974
vn 0.3831596 0.35347748 -0.8533712
vn 0.70762867 0.270398 -0.652799
vn 0.92408186 0.14625931 -0.35310194
vn 0.92408174 0.35310182 -0.14625996
vn 1 1.2258653E-07 0
vn 0.92408174 0.27025247 -0.27025276
vn 1 1.2258653E-07 0
vn 1 1.2258653E-07 0
g mesh_sphere_0
f 3/3/3 2/2/2 1/1/1
f 1/1/1 4/4/4 3/3/3
f 5/5/5 3/3/3 4/4/4
f 4/4/4 1/1/1 6/6/6
f 6/6/6 1/1/1 7/7/7
f 6/6/6 7/7/7 8/8/8
f 9/9/9 6/6/6 8/8/8
f 8/8/8 7/7/7 10/10/10
f 8/8/8 10/10/10 11/11/11
f 11/11/11 12/12/12 8/8/8
f 9/9/9 8/8/8 12/12/12
f 12/12/12 11/11/11 13/13/13
f 14/14/14 4/4/4 6/6/6
f 6/6/6 9/9/9 14/14/14
f 4/4/4 15/15/15 5/5/5
f 15/15/15 4/4/4 14/14/14
f 5/5/5 15/15/15 16/16/16
f 16/16/16 15/15/15 14/14/14
f 5/5/5 16/16/16 17/17/17
f 16/16/16 18/18/18 17/17/17
f 14/14/14 19/19/19 16/16/16
f 19/19/19 14/14/14 9/9/9
f 19/19/19 20/20/20 16/16/16
f 9/9/9 21/21/21 19/19/19
f 21/21/21 22/22/22 19/19/19
f 23/23/23 21/21/21 9/9/9
f 23/23/23 24/24/24 21/21/21
f 12/12/12 25/25/25 9/9/9
f 25/25/25 23/23/23 9/9/9
f 25/25/25 12/12/12 26/26/26
f 13/13/13 26/26/26 12/12/12
f 23/23/23 25/25/25 27/27/27
f 27/27/27 28/28/28 23/23/23
f 26/26/26 29/29/29 25/25/25
f 27/27/27 25/25/25 29/29/29
f 26/26/26 13/13/13 30/30/30
f 30/30/30 13/13/13 31/31/31
f 29/29/29 26/26/26 32/32/32
f 27/27/27 29/29/29 32/32/32
f 32/32/32 26/26/26 30/30/30
f 30/30/30 31/31/31 33/33/33
f 33/33/33 31/31/31 34/34/34
f 33/33/33 34/34/34 35/35/35
f 32/32/32 36/36/36 27/27/27
f 36/36/36 37/37/37 27/27/27
f 30/30/30 38/38/38 32/32/32
f 38/38/38 30/30/30 33/33/33
f 36/36/36 32/32/32 38/38/38
f 35/35/35 39/39/39 33/33/33
f 38/38/38 33/33/33 39/39/39
f 39/39/39 35/35/35 40/40/40
f 38/38/38 41/41/41 36/36/36
f 41/41/41 42/42/42 36/36/36
f 39/39/39 43/43/43 38/38/38
f 41/41/41 38/38/38 43/43/43
f 40/40/40 44/44/44 39/39/39
f 43/43/43 39/39/39 44/44/44
f 43/43/43 45/45/45 41/41/41
f 45/45/45 46/46/46 41/41/41
f 47/47/47 45/45/45 43/43/43
f 47/47/47 48/48/48 45/45/45
f 49/49/49 47/47/47 43/43/43
f 44/44/44 49/49/49 43/43/43
f 44/44/44 40/40/40 50/50/50
f 50/50/50 40/40/40 51/51/51
f 52/52/52 47/47/47 49/49/49
f 52/52/52 53/53/53 47/47/47
f 49/49/49 44/44/44 54/54/54
f 54/54/54 44/44/44 50/50/50
f 52/52/52 49/49/49 54/54/54
f 50/50/50 51/51/51 55/55/55
f 55/55/55 51/51/51 56/56/56
f 55/55/55 56/56/56 57/57/57
f 50/50/50 58/58/58 54/54/54
f 52/52/52 54/54/54 58/58/58
f 58/58/58 50/50/50 55/55/55
f 57/57/57 59/59/59 55/55/55
f 58/58/58 55/55/55 59/59/59
f 59/59/59 57/57/57 60/60/60
f 58/58/58 61/61/61 52/52/52
f 61/61/61 62/62/62 52/52/52
f 59/59/59 63/63/63 58/58/58
f 61/61/61 58/58/58 63/63/63
f 60/60/60 64/64/64 59/59/59
f 63/63/63 59/59/59 64/64/64
f 63/63/63 65/65/65 61/61/61
f 65/65/65 66/66/66 61/61/61
f 65/65/65 63/63/63 67/67/67
f 64/64/64 67/67/67 63/63/63
f 68/68/68 64/64/64 60/60/60
f 60/60/60 69/69/69 68/68/68
f 67/67/67 70/70/70 65/65/65
f 70/70/70 71/71/71 65/65/65
f 72/72/72 67/67/67 64/64/64
f 64/64/64 68/68/68 72/72/72
f 73/73/73 72/72/72 68/68/68
f 74/74/74 68/68/68 69/69/69
f 74/74/74 73/73/73 68/68/68
f 69/69/69 75/75/75 74/74/74
f 74/74/74 75/75/75 76/76/76
f 76/76/76 77/77/77 74/74/74
f 73/73/73 74/74/74 77/77/77
f 77/77/77 78/78/78 73/73/73
f 79/79/79 73/73/73 78/78/78
f 80/80/80 70/70/70 67/67/67
f 67/67/67 72/72/72 80/80/80
f 80/80/80 72/72/72 73/73/73
f 80/80/80 81/81/81 70/70/70
f 82/82/82 73/73/73 79/79/79
f 73/73/73 82/82/82 80/80/80
f 79/79/79 83/83/83 82/82/82
f 82/82/82 84/84/84 80/80/80
f 87/87/87 86/86/86 85/85/85
f 85/85/85 86/86/86 88/88/88
f 86/86/86 89/89/89 88/88/88
f 85/85/85 88/88/88 90/90/90
f 90/90/90 91/91/91 85/85/85
f 88/88/88 89/89/89 92/92/92
f 89/89/89 93/93/93 92/92/92
f 91/91/91 90/90/90 94/94/94
f 94/94/94 95/95/95 91/91/91
f 95/95/95 94/94/94 96/96/96
f 97/97/97 90/90/90 88/88/88
f 88/88/88 92/92/92 97/97/97
f 92/92/92 93/93/93 98/98/98
f 93/93/93 99/99/99 98/98/98
f 92/92/92 98/98/98 100/100/100
f 100/100/100 97/97/97 92/92/92
f 98/98/98 101/101/101 100/100/100
f 96/96/96 94/94/94 102/102/102
f 96/96/96 102/102/102 103/103/103
f 104/104/104 94/94/94 90/90/90
f 90/90/90 97/97/97 104/104/104
f 104/104/104 102/102/102 94/94/94
f 97/97/97 100/100/100 105/105/105
f 105/105/105 104/104/104 97/97/97
f 100/100/100 106/106/106 105/105/105
f 102/102/102 104/104/104 107/107/107
f 107/107/107 104/104/104 105/105/105
f 103/103/103 102/102/102 108/108/108
f 102/102/102 107/107/107 108/108/108
f 105/105/105 109/109/109 107/107/107
f 105/105/105 110/110/110 109/109/109
f 107/107/107 109/109/109 111/111/111
f 109/109/109 112/112/112 111/111/111
f 103/103/103 108/108/108 113/113/113
f 113/113/113 114/114/114 103/103/103
f 108/108/108 107/107/107 115/115/115
f 111/111/111 115/115/115 107/107/107
f 108/108/108 115/115/115 116/116/116
f 115/115/115 111/111/111 116/116/116
f 116/116/116 113/113/113 108/108/108
f 114/114/114 113/113/113 117/117/117
f 117/117/117 118/118/118 114/114/114
f 118/118/118 117/117/117 119/119/119
f 116/116/116 111/111/111 120/120/120
f 111/111/111 121/121/121 120/120/120
f 113/113/113 116/116/116 122/122/122
f 122/122/122 117/117/117 113/113/113
f 116/116/116 120/120/120 122/122/122
f 119/119/119 117/117/117 123/123/123
f 122/122/122 123/123/123 117/117/117
f 119/119/119 123/123/123 124/124/124
f 120/120/120 125/125/125 122/122/122
f 120/120/120 126/126/126 125/125/125
f 123/123/123 122/122/122 127/127/127
f 127/127/127 122/122/122 125/125/125
f 124/124/124 123/123/123 128/128/128
f 123/123/123 127/127/127 128/128/128
f 125/125/125 129/129/129 127/127/127
f 125/125/125 130/130/130 129/129/129
f 127/127/127 129/129/129 131/131/131
f 129/129/129 132/132/132 131/131/131
f 124/124/124 128/128/128 133/133/133
f 133/133/133 134/134/134 124/124/124
f 128/128/128 127/127/127 135/135/135
f 131/131/131 135/135/135 127/127/127
f 128/128/128 135/135/135 136/136/136
f 131/131/131 136/136/136 135/135/135
f 136/136/136 133/133/133 128/128/128
f 134/134/134 133/133/133 137/137/137
f 137/137/137 138/138/138 134/134/134
f 139/139/139 138/138/138 137/137/137
f 140/140/140 137/137/137 133/133/133
f 133/133/133 136/136/136 140/140/140
f 137/137/137 141/141/141 139/139/139
f 141/141/141 137/137/137 140/140/140
f 142/142/142 139/139/139 141/141/141
f 131/131/131 143/143/143 136/136/136
f 131/131/131 144/144/144 143/143/143
f 136/136/136 143/143/143 145/145/145
f 145/145/145 140/140/140 136/136/136
f 143/143/143 146/146/146 145/145/145
f 140/140/140 145/145/145 147/147/147
f 145/145/145 148/148/148 147/147/147
f 140/140/140 149/149/149 141/141/141
f 147/147/147 149/149/149 140/140/140
f 141/141/141 150/150/150 142/142/142
f 150/150/150 141/141/141 149/149/149
f 151/151/151 149/149/149 147/147/147
f 149/149/149 151/151/151 150/150/150
f 142/142/142 150/150/150 152/152/152
f 152/152/152 153/153/153 142/142/142
f 147/147/147 154/154/154 151/151/151
f 147/147/147 155/155/155 154/154/154
f 150/150/150 151/151/151 156/156/156
f 156/156/156 151/151/151 154/154/154
f 156/156/156 152/152/152 150/150/150
f 152/152/152 156/156/156 157/157/157
f 153/153/153 152/152/152 158/158/158
f 157/157/157 158/158/158 152/152/152
f 158/158/158 159/159/159 153/153/153
f 159/159/159 158/158/158 160/160/160
f 160/160/160 158/158/158 161/161/161
f 157/157/157 161/161/161 158/158/158
f 161/161/161 157/157/157 162/162/162
f 163/163/163 162/162/162 157/157/157
f 154/154/154 164/164/164 156/156/156
f 164/164/164 157/157/157 156/156/156
f 154/154/154 165/165/165 164/164/164
f 157/157/157 166/166/166 163/163/163
f 164/164/164 166/166/166 157/157/157
f 166/166/166 167/167/167 163/163/163
f 164/164/164 168/168/168 166/166/166
