g outer_top
v -0.32098114 1.7508879 -0.98782647
v -0.2822889 -6.198883E-06 -0.86885554
v 6.198883E-06 -6.198883E-06 -0.9124002
v 6.198883E-06 1.7508879 -1.0373303
v 0.28230137 -6.198883E-06 -0.86885554
v 0.32095093 1.7508879 -0.98782647
v 0.5362904 -6.198883E-06 -0.7381791
v 0.60971606 1.7508879 -0.8392299
v 0.739073 -6.198883E-06 -0.53697145
v 0.840294 1.7508879 -0.6104823
v 0.98659205 1.7508879 -0.32056785
v 0.86774886 -6.198883E-06 -0.28196084
v 0.9135494 -6.198883E-06 -6.198883E-06
v 1.0386498 1.7508879 -6.198883E-06
v 0.86774886 -6.198883E-06 0.28194845
v 0.98659205 1.7508879 0.32055545
v 0.739073 -6.198883E-06 0.53695905
v 0.840294 1.7508879 0.6105124
v 0.60971606 1.7508879 0.8392174
v 0.5362904 -6.198883E-06 0.7381667
v 0.28230137 -6.198883E-06 0.8688432
v 0.32095093 1.7508879 0.98781395
v 6.198883E-06 -6.198883E-06 0.9124303
v 6.198883E-06 1.7508879 1.0373604
v -0.2822889 -6.198883E-06 0.8688432
v -0.32098114 1.7508879 0.98781395
v -0.53632057 -6.198883E-06 0.7381667
v -0.6097462 1.7508879 0.8392174
v -0.7391032 -6.198883E-06 0.53695905
v -0.8402816 1.7508879 0.6105124
v -0.867779 -6.198883E-06 0.28194845
v -0.98657966 1.7508879 0.32055545
v -0.9135796 -6.198883E-06 -6.198883E-06
v -1.0386374 1.7508879 -6.198883E-06
v -0.867779 -6.198883E-06 -0.28196084
v -0.98657966 1.7508879 -0.32056785
v -0.7391032 -6.198883E-06 -0.53697145
v -0.8402816 1.7508879 -0.6104823
v -0.53632057 -6.198883E-06 -0.7381791
v -0.6097462 1.7508879 -0.8392299
v -0.2822889 -6.198883E-06 -0.86885554
v -0.32098114 1.7508879 -0.98782647
vt 1 1
vt 1 0
vt 0.9501466 0
vt 0.9501466 1
vt 0.90029323 0
vt 0.90029323 1
vt 0.8504399 0
vt 0.8504399 1
vt 0.799609 0
vt 0.799609 1
vt 0.7497556 1
vt 0.7497556 0
vt 0.69990224 0
vt 0.69990224 1
vt 0.65004885 0
vt 0.65004885 1
vt 0.6001955 0
vt 0.6001955 1
vt 0.55034214 1
vt 0.55034214 0
vt 0.50048876 0
vt 0.50048876 1
vt 0.44965786 0
vt 0.44965786 1
vt 0.3998045 0
vt 0.3998045 1
vt 0.34995112 0
vt 0.34995112 1
vt 0.30009776 0
vt 0.30009776 1
vt 0.25024438 0
vt 0.25024438 1
vt 0.20039101 0
vt 0.20039101 1
vt 0.14956012 0
vt 0.14956012 1
vt 0.09970675 0
vt 0.09970675 1
vt 0.049853373 0
vt 0.049853373 1
vt 0 0
vt 0 1
vn -0.3089475 -0.074303806 -0.94817215
vn -0.3089475 -0.074303806 -0.94817215
vn -0.0039107203 -0.074303806 -0.99722797
vn -0.0039107203 -0.074303806 -0.99722797
vn 0.3089475 -0.074303806 -0.94817215
vn 0.3089475 -0.074303806 -0.94817215
vn 0.58269846 -0.074303806 -0.8092845
vn 0.58269846 -0.074303806 -0.8092845
vn 0.80952066 -0.074303806 -0.5823704
vn 0.80952066 -0.074303806 -0.5823704
vn 0.9503069 -0.074303806 -0.3023173
vn 0.9503069 -0.074303806 -0.3023173
vn 0.9972356 -0.074303806 -0.0003499556
vn 0.9972356 -0.074303806 -0.0003499556
vn 0.9503069 -0.074303806 0.3023173
vn 0.9503069 -0.074303806 0.3023173
vn 0.80952066 -0.074303806 0.5823704
vn 0.80952066 -0.074303806 0.5823704
vn 0.58269846 -0.074303806 0.8092845
vn 0.58269846 -0.074303806 0.8092845
vn 0.3089475 -0.074303806 0.94817215
vn 0.3089475 -0.074303806 0.94817215
vn 0.0039107203 -0.074303806 0.99722797
vn 0.0039107203 -0.074303806 0.99722797
vn -0.3089475 -0.074303806 0.94817215
vn -0.3089475 -0.074303806 0.94817215
vn -0.5826984 -0.074303806 0.80928457
vn -0.5826984 -0.074303806 0.80928457
vn -0.80952066 -0.074303806 0.5823704
vn -0.80952066 -0.074303806 0.5823704
vn -0.95030683 -0.074303806 0.30231747
vn -0.95030683 -0.074303806 0.30231747
vn -0.9972356 -0.074303806 -0.0003499556
vn -0.9972356 -0.074303806 -0.0003499556
vn -0.95030683 -0.074303806 -0.30231747
vn -0.95030683 -0.074303806 -0.30231747
vn -0.80952066 -0.074303806 -0.5823704
vn -0.80952066 -0.074303806 -0.5823704
vn -0.5826984 -0.074303806 -0.80928457
vn -0.5826984 -0.074303806 -0.80928457
vn -0.3089475 -0.074303806 -0.94817215
vn -0.3089475 -0.074303806 -0.94817215
g outer_top_0
f 3/3/3 2/2/2 1/1/1
f 4/4/4 3/3/3 1/1/1
f 5/5/5 3/3/3 4/4/4
f 6/6/6 5/5/5 4/4/4
f 7/7/7 5/5/5 6/6/6
f 8/8/8 7/7/7 6/6/6
f 9/9/9 7/7/7 8/8/8
f 10/10/10 9/9/9 8/8/8
f 10/10/10 11/11/11 9/9/9
f 11/11/11 12/12/12 9/9/9
f 13/13/13 12/12/12 11/11/11
f 14/14/14 13/13/13 11/11/11
f 15/15/15 13/13/13 14/14/14
f 16/16/16 15/15/15 14/14/14
f 17/17/17 15/15/15 16/16/16
f 18/18/18 17/17/17 16/16/16
f 17/17/17 18/18/18 19/19/19
f 20/20/20 17/17/17 19/19/19
f 21/21/21 20/20/20 19/19/19
f 22/22/22 21/21/21 19/19/19
f 23/23/23 21/21/21 22/22/22
f 24/24/24 23/23/23 22/22/22
f 25/25/25 23/23/23 24/24/24
f 26/26/26 25/25/25 24/24/24
f 27/27/27 25/25/25 26/26/26
f 28/28/28 27/27/27 26/26/26
f 29/29/29 27/27/27 28/28/28
f 30/30/30 29/29/29 28/28/28
f 31/31/31 29/29/29 30/30/30
f 32/32/32 31/31/31 30/30/30
f 33/33/33 31/31/31 32/32/32
f 34/34/34 33/33/33 32/32/32
f 35/35/35 33/33/33 34/34/34
f 36/36/36 35/35/35 34/34/34
f 37/37/37 35/35/35 36/36/36
f 38/38/38 37/37/37 36/36/36
f 39/39/39 37/37/37 38/38/38
f 40/40/40 39/39/39 38/38/38
f 41/41/41 39/39/39 40/40/40
f 42/42/42 41/41/41 40/40/40
