g outer_bottom
v -0.7209134 0.8584676 -2.2187726
v -0.32989502 -3.552437E-05 -1.015245
v 3.552437E-05 -3.552437E-05 -1.0661514
v 3.552437E-05 0.8584676 -2.3300548
v 0.32989502 -3.552437E-05 -1.015245
v 0.7209133 0.8584676 -2.2187726
v 0.62664735 -3.552437E-05 -0.8625257
v 1.3695965 0.8584676 -1.8850685
v 0.8635937 -3.552437E-05 -0.62743056
v 1.887418 0.8584676 -1.3713052
v 2.215996 0.8584676 -0.71998775
v 1.0139635 -3.552437E-05 -0.32946777
v 1.0675042 -3.552437E-05 -3.552437E-05
v 2.332974 0.8584676 3.5762787E-05
v 1.0139635 -3.552437E-05 0.329468
v 2.215996 0.8584676 0.71998787
v 0.8635937 -3.552437E-05 0.6274307
v 1.887418 0.8584676 1.3713055
v 1.3695965 0.8584676 1.8850689
v 0.62664735 -3.552437E-05 0.86252594
v 0.32989502 -3.552437E-05 1.0152452
v 0.7209133 0.8584676 2.218773
v 3.552437E-05 -3.552437E-05 1.0661516
v 3.552437E-05 0.8584676 2.3300552
v -0.32989502 -3.552437E-05 1.0152452
v -0.7209134 0.8584676 2.218773
v -0.6266475 -3.552437E-05 0.86252594
v -1.3695967 0.8584676 1.8850689
v -0.8635938 -3.552437E-05 0.6274307
v -1.8874183 0.8584676 1.3713055
v -1.0139637 -3.552437E-05 0.329468
v -2.2159963 0.8584676 0.71998787
v -1.0675044 -3.552437E-05 -3.552437E-05
v -2.332974 0.8584676 3.5762787E-05
v -1.0139637 -3.552437E-05 -0.32946777
v -2.2159963 0.8584676 -0.71998775
v -0.8635938 -3.552437E-05 -0.62743056
v -1.8874183 0.8584676 -1.3713052
v -0.6266475 -3.552437E-05 -0.8625257
v -1.3695967 0.8584676 -1.8850685
v -0.32989502 -3.552437E-05 -1.015245
v -0.7209134 0.8584676 -2.2187726
vt 1 1
vt 1 0.39980453
vt 0.9501467 0.39980453
vt 0.9501467 1
vt 0.90029323 0.39980453
vt 0.90029323 1
vt 0.8504399 0.39980453
vt 0.8504399 1
vt 0.79960907 0.39980453
vt 0.79960907 1
vt 0.7497556 1
vt 0.7497556 0.39980453
vt 0.6999023 0.39980453
vt 0.6999023 1
vt 0.65004885 0.39980453
vt 0.65004885 1
vt 0.6001955 0.39980453
vt 0.6001955 1
vt 0.5503422 1
vt 0.5503422 0.39980453
vt 0.49951127 0.39980453
vt 0.49951127 1
vt 0.4496579 0.39980453
vt 0.4496579 1
vt 0.39980453 0.39980453
vt 0.39980453 1
vt 0.34995115 0.39980453
vt 0.34995115 1
vt 0.3000978 0.39980453
vt 0.3000978 1
vt 0.2502444 0.39980453
vt 0.2502444 1
vt 0.20039104 0.39980453
vt 0.20039104 1
vt 0.14956015 0.39980453
vt 0.14956015 1
vt 0.09970678 0.39980453
vt 0.09970678 1
vt 0.049853403 0.39980453
vt 0.049853403 1
vt 2.9802322E-08 0.39980453
vt 2.9802322E-08 1
vn -0.1746639 -0.8275523 -0.5335257
vn -0.1746639 -0.8275523 -0.5335257
vn -0.00036543608 -0.8275523 -0.5613885
vn -0.00036543608 -0.8275523 -0.5613885
vn 0.17393303 -0.8275523 -0.5337644
vn 0.17393303 -0.8275523 -0.5337644
vn 0.331891 -0.8275523 -0.45277536
vn 0.331891 -0.8275523 -0.45277536
vn 0.45172122 -0.8275523 -0.33332428
vn 0.45172122 -0.8275523 -0.33332428
vn 0.53342366 -0.8275523 -0.17497544
vn 0.53342366 -0.8275523 -0.17497544
vn 0.56065774 -0.8275523 0.028636353
vn 0.56065774 -0.8275523 0.028636353
vn 0.53342366 -0.8275523 0.17497544
vn 0.53342366 -0.8275523 0.17497544
vn 0.45172122 -0.8275523 0.33332428
vn 0.45172122 -0.8275523 0.33332428
vn 0.331891 -0.8275523 0.45277536
vn 0.331891 -0.8275523 0.45277536
vn 0.17393303 -0.8275523 0.5337644
vn 0.17393303 -0.8275523 0.5337644
vn -0.00036543608 -0.8275523 0.5613885
vn -0.00036543608 -0.8275523 0.5613885
vn -0.1746639 -0.8275523 0.5335257
vn -0.1746639 -0.8275523 0.5335257
vn -0.33262193 -0.8275523 0.45223865
vn -0.33262193 -0.8275523 0.45223865
vn -0.45245218 -0.8275523 0.33233145
vn -0.45245218 -0.8275523 0.33233145
vn -0.53415453 -0.8275523 0.17273134
vn -0.53415453 -0.8275523 0.17273134
vn -0.56138873 -0.8275523 -0
vn -0.56138873 -0.8275523 -0
vn -0.53415453 -0.8275523 -0.17273134
vn -0.53415453 -0.8275523 -0.17273134
vn -0.45245218 -0.8275523 -0.33233145
vn -0.45245218 -0.8275523 -0.33233145
vn -0.33262193 -0.8275523 -0.45223865
vn -0.33262193 -0.8275523 -0.45223865
vn -0.1746639 -0.8275523 -0.5335257
vn -0.1746639 -0.8275523 -0.5335257
g outer_bottom_0
f 3/3/3 2/2/2 1/1/1
f 4/4/4 3/3/3 1/1/1
f 5/5/5 3/3/3 4/4/4
f 6/6/6 5/5/5 4/4/4
f 7/7/7 5/5/5 6/6/6
f 8/8/8 7/7/7 6/6/6
f 9/9/9 7/7/7 8/8/8
f 10/10/10 9/9/9 8/8/8
f 10/10/10 11/11/11 9/9/9
f 11/11/11 12/12/12 9/9/9
f 13/13/13 12/12/12 11/11/11
f 14/14/14 13/13/13 11/11/11
f 15/15/15 13/13/13 14/14/14
f 16/16/16 15/15/15 14/14/14
f 17/17/17 15/15/15 16/16/16
f 18/18/18 17/17/17 16/16/16
f 17/17/17 18/18/18 19/19/19
f 20/20/20 17/17/17 19/19/19
f 21/21/21 20/20/20 19/19/19
f 22/22/22 21/21/21 19/19/19
f 23/23/23 21/21/21 22/22/22
f 24/24/24 23/23/23 22/22/22
f 25/25/25 23/23/23 24/24/24
f 26/26/26 25/25/25 24/24/24
f 27/27/27 25/25/25 26/26/26
f 28/28/28 27/27/27 26/26/26
f 29/29/29 27/27/27 28/28/28
f 30/30/30 29/29/29 28/28/28
f 31/31/31 29/29/29 30/30/30
f 32/32/32 31/31/31 30/30/30
f 33/33/33 31/31/31 32/32/32
f 34/34/34 33/33/33 32/32/32
f 35/35/35 33/33/33 34/34/34
f 36/36/36 35/35/35 34/34/34
f 37/37/37 35/35/35 36/36/36
f 38/38/38 37/37/37 36/36/36
f 39/39/39 37/37/37 38/38/38
f 40/40/40 39/39/39 38/38/38
f 41/41/41 39/39/39 40/40/40
f 42/42/42 41/41/41 40/40/40
