g pm1000_00_CoinASkin_tx
v 5.4422063E-19 -0.13566087 -0.06704567
v 1.9104915E-18 -0.10813911 -0.06704567
v -0.033522833 -0.10813911 -0.058063254
v -0.033522833 -0.13566087 -0.058063254
v -0.058063254 -0.10813911 -0.033522833
v -0.058063254 -0.13566087 -0.033522833
v -0.06704567 -0.10813911 -1.5777218E-32
v -0.06704567 -0.13566087 -1.5777218E-32
v -0.058063254 -0.10813911 0.033522833
v -0.058063254 -0.13566087 0.033522833
v -0.033522833 -0.10813911 0.058063254
v -0.033522833 -0.13566087 0.058063254
v 1.3188038E-18 -0.10813911 0.06704567
v 5.4422063E-19 -0.13566087 0.06704567
v 5.4422063E-19 -0.13566087 -0.06704567
v 0.033522833 -0.10813911 -0.058063254
v 1.9104915E-18 -0.10813911 -0.06704567
v 0.033522833 -0.13566087 -0.058063254
v 0.058063254 -0.10813911 -0.033522833
v 0.058063254 -0.13566087 -0.033522833
v 0.06704567 -0.10813911 -1.5777218E-32
v 0.06704567 -0.13566087 -1.5777218E-32
v 0.058063254 -0.10813911 0.033522833
v 0.058063254 -0.13566087 0.033522833
v 0.033522833 -0.10813911 0.058063254
v 0.033522833 -0.13566087 0.058063254
v 1.3188038E-18 -0.10813911 0.06704567
v 5.4422063E-19 -0.13566087 0.06704567
v 0.033522833 -0.13566087 -0.058063254
v 5.4422063E-19 -0.13566087 -0.06704567
v -1.4802974E-18 -0.13566087 1.02155933E-19
v 0.058063254 -0.13566087 -0.033522833
v -0.033522833 -0.13566087 -0.058063254
v 0.06704567 -0.13566087 -1.5777218E-32
v -0.058063254 -0.13566087 -0.033522833
v 0.058063254 -0.13566087 0.033522833
v -0.06704567 -0.13566087 -1.5777218E-32
v 0.033522833 -0.13566087 0.058063254
v -0.058063254 -0.13566087 0.033522833
v 5.4422063E-19 -0.13566087 0.06704567
v -0.033522833 -0.13566087 0.058063254
v 9.805728E-19 -0.10813913 2.420568E-18
v 0.058063254 -0.10813911 0.033522833
v 0.033522833 -0.10813911 0.058063254
v 0.06704567 -0.10813911 -1.5777218E-32
v 1.3188038E-18 -0.10813911 0.06704567
v 0.058063254 -0.10813911 -0.033522833
v -0.033522833 -0.10813911 0.058063254
v 0.033522833 -0.10813911 -0.058063254
v -0.058063254 -0.10813911 0.033522833
v 1.9104915E-18 -0.10813911 -0.06704567
v -0.06704567 -0.10813911 -1.5777218E-32
v -0.033522833 -0.10813911 -0.058063254
v -0.058063254 -0.10813911 -0.033522833
vt 0.3704219 0.95786583
vt 0.3704219 0.9718751
vt 0.38201904 0.9718751
vt 0.38201904 0.95786583
vt 0.3934613 0.9718751
vt 0.3934613 0.95786583
vt 0.4051292 0.9718751
vt 0.4051292 0.95786583
vt 0.41677052 0.9718751
vt 0.41677052 0.95786583
vt 0.42906827 0.9718751
vt 0.42906827 0.95786583
vt 0.44066405 0.9718751
vt 0.44066405 0.95786583
vt 0.9635781 0.95786583
vt 0.95198095 0.9718751
vt 0.9635781 0.9718751
vt 0.95198095 0.95786583
vt 0.9405387 0.9718751
vt 0.9405387 0.95786583
vt 0.9288708 0.9718751
vt 0.9288708 0.95786583
vt 0.9172295 0.9718751
vt 0.9172295 0.95786583
vt 0.9049317 0.9718751
vt 0.9049317 0.95786583
vt 0.89333594 0.9718751
vt 0.89333594 0.95786583
vt 0.6785959 0.8014324
vt 0.667 0.796571
vt 0.667 0.83124995
vt 0.68721396 0.8141458
vt 0.6554041 0.8014324
vt 0.69060135 0.8312447
vt 0.64678603 0.8141458
vt 0.68721485 0.8483298
vt 0.64339864 0.8312447
vt 0.67859715 0.86105037
vt 0.64678514 0.8483298
vt 0.667 0.8659179
vt 0.65540284 0.86105037
vt 0.667 0.9367188
vt 0.68721396 0.9196147
vt 0.6785959 0.90690124
vt 0.69060135 0.9367136
vt 0.667 0.9020568
vt 0.68721485 0.9537991
vt 0.6554041 0.90690124
vt 0.67859715 0.96651924
vt 0.64678603 0.9196147
vt 0.667 0.97138774
vt 0.64339864 0.9367136
vt 0.65540284 0.96651924
vt 0.64678514 0.9537991
vn -0 0 -1
vn -0 0 -1
vn -0.5 0 -0.86602545
vn -0.5 0 -0.86602545
vn -0.86602545 0 -0.49999997
vn -0.86602545 0 -0.49999997
vn -1 0 0
vn -1 0 0
vn -0.86602545 0 0.5
vn -0.86602545 0 0.5
vn -0.49999997 0 0.86602545
vn -0.49999997 0 0.86602545
vn -0 0 1
vn -0 0 1
vn -0 0 -1
vn 0.5 0 -0.86602545
vn -0 0 -1
vn 0.5 0 -0.86602545
vn 0.86602545 0 -0.4999999
vn 0.86602545 0 -0.4999999
vn 1 0 0
vn 1 0 0
vn 0.86602545 0 0.49999997
vn 0.86602545 0 0.49999997
vn 0.49999997 0 0.86602545
vn 0.49999997 0 0.86602545
vn -0 0 1
vn -0 0 1
vn -0 -1 0
vn -0 -1 0
vn -0 -1 0
vn -0 -1 0
vn -0 -1 0
vn -0 -1 0
vn -0 -1 0
vn -0 -1 0
vn -0 -1 0
vn -0 -1 0
vn -0 -1 0
vn -0 -1 0
vn -0 -1 0
vn -0 1 0
vn -2.3841858E-07 1 -1.7881393E-07
vn -1.1920929E-07 1 -3.5762787E-07
vn -2.9802322E-07 1 0
vn -0 1 -2.3841858E-07
vn -2.3841858E-07 1 1.1920929E-07
vn 1.1920929E-07 1 -1.7881393E-07
vn -1.1920929E-07 1 1.1920929E-07
vn 2.3841858E-07 1 0
vn -0 1 2.3841858E-07
vn 2.3841858E-07 1 0
vn 1.1920929E-07 1 3.5762787E-07
vn 2.3841858E-07 1 1.1920929E-07
g pm1000_00_CoinASkin_tx_0
f 3/3/3 2/2/2 1/1/1
f 4/4/4 3/3/3 1/1/1
f 5/5/5 3/3/3 4/4/4
f 6/6/6 5/5/5 4/4/4
f 7/7/7 5/5/5 6/6/6
f 8/8/8 7/7/7 6/6/6
f 9/9/9 7/7/7 8/8/8
f 10/10/10 9/9/9 8/8/8
f 11/11/11 9/9/9 10/10/10
f 12/12/12 11/11/11 10/10/10
f 13/13/13 11/11/11 12/12/12
f 14/14/14 13/13/13 12/12/12
f 17/17/17 16/16/16 15/15/15
f 16/16/16 18/18/18 15/15/15
f 16/16/16 19/19/19 18/18/18
f 19/19/19 20/20/20 18/18/18
f 19/19/19 21/21/21 20/20/20
f 21/21/21 22/22/22 20/20/20
f 21/21/21 23/23/23 22/22/22
f 23/23/23 24/24/24 22/22/22
f 23/23/23 25/25/25 24/24/24
f 25/25/25 26/26/26 24/24/24
f 25/25/25 27/27/27 26/26/26
f 27/27/27 28/28/28 26/26/26
f 31/31/31 30/30/30 29/29/29
f 32/32/32 31/31/31 29/29/29
f 30/30/30 31/31/31 33/33/33
f 31/31/31 32/32/32 34/34/34
f 31/31/31 35/35/35 33/33/33
f 36/36/36 31/31/31 34/34/34
f 35/35/35 31/31/31 37/37/37
f 31/31/31 36/36/36 38/38/38
f 31/31/31 39/39/39 37/37/37
f 40/40/40 31/31/31 38/38/38
f 39/39/39 31/31/31 41/41/41
f 31/31/31 40/40/40 41/41/41
f 44/44/44 43/43/43 42/42/42
f 43/43/43 45/45/45 42/42/42
f 46/46/46 44/44/44 42/42/42
f 45/45/45 47/47/47 42/42/42
f 48/48/48 46/46/46 42/42/42
f 47/47/47 49/49/49 42/42/42
f 50/50/50 48/48/48 42/42/42
f 49/49/49 51/51/51 42/42/42
f 52/52/52 50/50/50 42/42/42
f 51/51/51 53/53/53 42/42/42
f 54/54/54 52/52/52 42/42/42
f 53/53/53 54/54/54 42/42/42
