g pm1000_00_CoinBSkin_ty
v 2.528121E-18 -0.18866089 -0.06704567
v 2.0406686E-18 -0.1611391 -0.06704567
v -0.033522833 -0.1611391 -0.058063254
v -0.033522833 -0.18866089 -0.058063254
v -0.058063254 -0.1611391 -0.033522833
v -0.058063254 -0.18866089 -0.033522833
v -0.06704567 -0.1611391 0
v -0.06704567 -0.18866089 0
v -0.058063254 -0.1611391 0.033522833
v -0.058063254 -0.18866089 0.033522833
v -0.033522833 -0.1611391 0.058063254
v -0.033522833 -0.18866089 0.058063254
v 3.301974E-19 -0.1611391 0.06704567
v 2.7136392E-18 -0.18866089 0.06704567
v 7.401485E-19 -0.1611391 -2.1579138E-18
v -0.033522833 -0.1611391 -0.058063254
v 2.0406686E-18 -0.1611391 -0.06704567
v -0.058063254 -0.1611391 -0.033522833
v -0.06704567 -0.1611391 0
v -0.058063254 -0.1611391 0.033522833
v -0.033522833 -0.1611391 0.058063254
v 3.301974E-19 -0.1611391 0.06704567
v -0.033522833 -0.18866089 0.058063254
v 2.7136392E-18 -0.18866089 0.06704567
v 3.0468903E-19 -0.1886609 4.940794E-18
v -0.058063254 -0.18866089 0.033522833
v -0.06704567 -0.18866089 0
v -0.058063254 -0.18866089 -0.033522833
v -0.033522833 -0.18866089 -0.058063254
v 2.528121E-18 -0.18866089 -0.06704567
v 2.528121E-18 -0.18866089 -0.06704567
v 0.033522833 -0.1611391 -0.058063254
v 2.0406686E-18 -0.1611391 -0.06704567
v 0.033522833 -0.18866089 -0.058063254
v 0.058063254 -0.1611391 -0.033522833
v 0.058063254 -0.18866089 -0.033522833
v 0.06704567 -0.1611391 5.2694713E-21
v 0.06704567 -0.18866089 1.3258225E-19
v 0.058063254 -0.1611391 0.033522833
v 0.058063254 -0.18866089 0.033522833
v 0.033522833 -0.1611391 0.058063254
v 0.033522833 -0.18866089 0.058063254
v 3.301974E-19 -0.1611391 0.06704567
v 2.7136392E-18 -0.18866089 0.06704567
v 7.401485E-19 -0.1611391 -2.1579138E-18
v 2.0406686E-18 -0.1611391 -0.06704567
v 0.033522833 -0.1611391 -0.058063254
v 0.058063254 -0.1611391 -0.033522833
v 0.06704567 -0.1611391 5.2694713E-21
v 0.058063254 -0.1611391 0.033522833
v 0.033522833 -0.1611391 0.058063254
v 3.301974E-19 -0.1611391 0.06704567
v 0.033522833 -0.18866089 0.058063254
v 3.0468903E-19 -0.1886609 4.940794E-18
v 2.7136392E-18 -0.18866089 0.06704567
v 0.058063254 -0.18866089 0.033522833
v 0.06704567 -0.18866089 1.3258225E-19
v 0.058063254 -0.18866089 -0.033522833
v 0.033522833 -0.18866089 -0.058063254
v 2.528121E-18 -0.18866089 -0.06704567
vt 0.3704219 0.91880333
vt 0.3704219 0.9328126
vt 0.38201904 0.9328126
vt 0.38201904 0.91880333
vt 0.3934613 0.9328126
vt 0.3934613 0.91880333
vt 0.4051292 0.9328126
vt 0.4051292 0.91880333
vt 0.41677052 0.9328126
vt 0.41677052 0.91880333
vt 0.42906815 0.9328126
vt 0.42906815 0.91880333
vt 0.44066405 0.9328126
vt 0.44066405 0.91880333
vt 0.62537503 0.9367188
vt 0.6137779 0.9665297
vt 0.62537503 0.97138774
vt 0.6051601 0.9538096
vt 0.6017736 0.9367136
vt 0.6051611 0.91962516
vt 0.61377907 0.90691173
vt 0.62537503 0.90205634
vt 0.6137779 0.86105037
vt 0.62537503 0.8659179
vt 0.62537503 0.83124995
vt 0.6051601 0.8483298
vt 0.6017736 0.8312447
vt 0.6051611 0.8141458
vt 0.61377907 0.8014324
vt 0.62537503 0.796571
vt 0.9635781 0.91880333
vt 0.95198095 0.9328126
vt 0.9635781 0.9328126
vt 0.95198095 0.91880333
vt 0.9405387 0.9328126
vt 0.9405387 0.91880333
vt 0.9288708 0.9328126
vt 0.9288708 0.91880333
vt 0.9172295 0.9328126
vt 0.9172295 0.91880333
vt 0.90493184 0.9328126
vt 0.90493184 0.91880333
vt 0.89333594 0.9328126
vt 0.89333594 0.91880333
vt 0.70862496 0.9367188
vt 0.70862496 0.97138774
vt 0.7202221 0.9665297
vt 0.7288399 0.9538096
vt 0.7322264 0.9367136
vt 0.7288389 0.91962516
vt 0.7202209 0.90691173
vt 0.70862496 0.90205634
vt 0.7202221 0.86105037
vt 0.70862496 0.83124995
vt 0.70862496 0.8659179
vt 0.7288399 0.8483298
vt 0.7322264 0.8312447
vt 0.7288389 0.8141458
vt 0.7202209 0.8014324
vt 0.70862496 0.796571
vn -0 0 -1
vn -0 0 -1
vn -0.5 0 -0.86602545
vn -0.5 0 -0.86602545
vn -0.86602545 0 -0.49999997
vn -0.86602545 0 -0.49999997
vn -1 0 0
vn -1 0 0
vn -0.86602545 0 0.49999997
vn -0.86602545 0 0.49999997
vn -0.49999997 0 0.86602545
vn -0.49999997 0 0.86602545
vn -0 0 1
vn -0 0 1
vn -0 1 0
vn -0 1 0
vn -0 1 0
vn -0 1 0
vn -0 1 0
vn -0 1 1.1920929E-07
vn -0 1 1.1920929E-07
vn -0 1 1.1920929E-07
vn -1.1920929E-07 -1 -1.7881393E-07
vn -0 -1 -1.7881393E-07
vn -0 -1 0
vn -2.384186E-07 -1 0
vn -2.9802322E-07 -1 1.1920929E-07
vn -2.384186E-07 -1 1.192093E-07
vn -1.1920929E-07 -1 1.1920929E-07
vn -0 -1 1.1920929E-07
vn -0 0 -1
vn 0.5 0 -0.86602545
vn -0 0 -1
vn 0.5 0 -0.86602545
vn 0.86602545 0 -0.49999997
vn 0.86602545 0 -0.49999997
vn 1 0 0
vn 1 0 0
vn 0.86602545 0 0.49999997
vn 0.86602545 0 0.49999997
vn 0.49999997 0 0.86602545
vn 0.49999997 0 0.86602545
vn -0 0 1
vn -0 0 1
vn -0 1 0
vn -0 1 0
vn -0 1 -1.7881393E-07
vn -0 1 0
vn -0 1 0
vn -0 1 0
vn -0 1 0
vn -0 1 1.1920929E-07
vn 1.1920929E-07 -1 -1.7881393E-07
vn -0 -1 0
vn -0 -1 -1.7881393E-07
vn 2.384186E-07 -1 -1.192093E-07
vn 2.3841858E-07 -1 0
vn 2.384186E-07 -1 0
vn 1.1920929E-07 -1 1.1920929E-07
vn -0 -1 1.1920929E-07
g pm1000_00_CoinBSkin_ty_0
f 3/3/3 2/2/2 1/1/1
f 4/4/4 3/3/3 1/1/1
f 5/5/5 3/3/3 4/4/4
f 6/6/6 5/5/5 4/4/4
f 7/7/7 5/5/5 6/6/6
f 8/8/8 7/7/7 6/6/6
f 9/9/9 7/7/7 8/8/8
f 10/10/10 9/9/9 8/8/8
f 11/11/11 9/9/9 10/10/10
f 12/12/12 11/11/11 10/10/10
f 13/13/13 11/11/11 12/12/12
f 14/14/14 13/13/13 12/12/12
f 17/17/17 16/16/16 15/15/15
f 16/16/16 18/18/18 15/15/15
f 18/18/18 19/19/19 15/15/15
f 19/19/19 20/20/20 15/15/15
f 20/20/20 21/21/21 15/15/15
f 21/21/21 22/22/22 15/15/15
f 25/25/25 24/24/24 23/23/23
f 26/26/26 25/25/25 23/23/23
f 25/25/25 26/26/26 27/27/27
f 28/28/28 25/25/25 27/27/27
f 25/25/25 28/28/28 29/29/29
f 30/30/30 25/25/25 29/29/29
f 33/33/33 32/32/32 31/31/31
f 32/32/32 34/34/34 31/31/31
f 32/32/32 35/35/35 34/34/34
f 35/35/35 36/36/36 34/34/34
f 35/35/35 37/37/37 36/36/36
f 37/37/37 38/38/38 36/36/36
f 37/37/37 39/39/39 38/38/38
f 39/39/39 40/40/40 38/38/38
f 39/39/39 41/41/41 40/40/40
f 41/41/41 42/42/42 40/40/40
f 41/41/41 43/43/43 42/42/42
f 43/43/43 44/44/44 42/42/42
f 47/47/47 46/46/46 45/45/45
f 48/48/48 47/47/47 45/45/45
f 49/49/49 48/48/48 45/45/45
f 50/50/50 49/49/49 45/45/45
f 51/51/51 50/50/50 45/45/45
f 52/52/52 51/51/51 45/45/45
f 55/55/55 54/54/54 53/53/53
f 54/54/54 56/56/56 53/53/53
f 56/56/56 54/54/54 57/57/57
f 54/54/54 58/58/58 57/57/57
f 58/58/58 54/54/54 59/59/59
f 54/54/54 60/60/60 59/59/59
