g pm1000_00_CoinESkin_ry
v -5.386041E-19 -0.34766087 -0.06704567
v -1.7320328E-18 -0.3201391 -0.06704567
v -0.033522833 -0.3201391 -0.058063254
v -0.033522833 -0.34766087 -0.058063254
v -0.058063254 -0.3201391 -0.033522833
v -0.058063254 -0.34766087 -0.033522833
v -0.06704567 -0.3201391 -3.1554436E-32
v -0.06704567 -0.34766087 -3.1554436E-32
v -0.058063254 -0.3201391 0.033522833
v -0.058063254 -0.34766087 0.033522833
v -0.033522833 -0.3201391 0.058063254
v -0.033522833 -0.34766087 0.058063254
v 9.27215E-19 -0.3201391 0.06704567
v -1.1217699E-18 -0.34766087 0.06704567
v 8.381082E-19 -0.3201392 -2.3235677E-18
v -0.033522833 -0.3201391 -0.058063254
v -1.7320328E-18 -0.3201391 -0.06704567
v -0.058063254 -0.3201391 -0.033522833
v -0.06704567 -0.3201391 -3.1554436E-32
v -0.058063254 -0.3201391 0.033522833
v -0.033522833 -0.3201391 0.058063254
v 9.27215E-19 -0.3201391 0.06704567
v -0.033522833 -0.34766087 0.058063254
v -1.1217699E-18 -0.34766087 0.06704567
v 1.4669414E-18 -0.3476608 -8.9782016E-20
v -0.058063254 -0.34766087 0.033522833
v -0.06704567 -0.34766087 -3.1554436E-32
v -0.058063254 -0.34766087 -0.033522833
v -0.033522833 -0.34766087 -0.058063254
v -5.386041E-19 -0.34766087 -0.06704567
v -5.386041E-19 -0.34766087 -0.06704567
v 0.033522833 -0.3201391 -0.058063254
v -1.7320328E-18 -0.3201391 -0.06704567
v 0.033522833 -0.34766087 -0.058063254
v 0.058063254 -0.3201391 -0.033522833
v 0.058063254 -0.34766087 -0.033522833
v 0.06704567 -0.3201391 -3.1554436E-32
v 0.06704567 -0.34766087 4.017562E-24
v 0.058063254 -0.3201391 0.033522833
v 0.058063254 -0.34766087 0.033522833
v 0.033522833 -0.3201391 0.058063254
v 0.033522833 -0.34766087 0.058063254
v 9.27215E-19 -0.3201391 0.06704567
v -1.1217699E-18 -0.34766087 0.06704567
v 8.381082E-19 -0.3201392 -2.3235677E-18
v -1.7320328E-18 -0.3201391 -0.06704567
v 0.033522833 -0.3201391 -0.058063254
v 0.058063254 -0.3201391 -0.033522833
v 0.06704567 -0.3201391 -3.1554436E-32
v 0.058063254 -0.3201391 0.033522833
v 0.033522833 -0.3201391 0.058063254
v 9.27215E-19 -0.3201391 0.06704567
v 0.033522833 -0.34766087 0.058063254
v 1.4669414E-18 -0.3476608 -8.9782016E-20
v -1.1217699E-18 -0.34766087 0.06704567
v 0.058063254 -0.34766087 0.033522833
v 0.06704567 -0.34766087 4.017562E-24
v 0.058063254 -0.34766087 -0.033522833
v 0.033522833 -0.34766087 -0.058063254
v -5.386041E-19 -0.34766087 -0.06704567
vt 0.3704219 0.8016157
vt 0.3704219 0.81562495
vt 0.38201904 0.81562495
vt 0.38201904 0.8016157
vt 0.3934613 0.81562495
vt 0.3934613 0.8016157
vt 0.40512925 0.81562495
vt 0.40512925 0.8016157
vt 0.41677052 0.81562495
vt 0.41677052 0.8016157
vt 0.42906815 0.81562495
vt 0.42906815 0.8016157
vt 0.44066405 0.81562495
vt 0.44066405 0.8016157
vt 0.50049996 0.9367188
vt 0.48890287 0.9665297
vt 0.50049996 0.97140515
vt 0.4802851 0.9538096
vt 0.4768986 0.9367136
vt 0.480286 0.91962516
vt 0.48890406 0.90691173
vt 0.50049996 0.9020394
vt 0.48890287 0.8610506
vt 0.50049996 0.8659179
vt 0.50049996 0.83124995
vt 0.4802851 0.84833026
vt 0.4768986 0.8312447
vt 0.480286 0.8141458
vt 0.48890406 0.8014324
vt 0.50049996 0.7965715
vt 0.9635781 0.8016157
vt 0.95198095 0.81562495
vt 0.9635781 0.81562495
vt 0.95198095 0.8016157
vt 0.9405387 0.81562495
vt 0.9405387 0.8016157
vt 0.92887074 0.81562495
vt 0.92887074 0.8016157
vt 0.9172295 0.81562495
vt 0.9172295 0.8016157
vt 0.90493184 0.81562495
vt 0.90493184 0.8016157
vt 0.89333594 0.81562495
vt 0.89333594 0.8016157
vt 0.8335 0.9367188
vt 0.8335 0.97140515
vt 0.8450972 0.9665297
vt 0.8537149 0.9538096
vt 0.8571014 0.9367136
vt 0.853714 0.91962516
vt 0.84509593 0.90691173
vt 0.8335 0.9020394
vt 0.8450972 0.8610506
vt 0.8335 0.83124995
vt 0.8335 0.8659179
vt 0.8537149 0.84833026
vt 0.8571014 0.8312447
vt 0.853714 0.8141458
vt 0.84509593 0.8014324
vt 0.8335 0.7965715
vn -0 0 -1
vn -0 0 -1
vn -0.50000006 0 -0.86602545
vn -0.50000006 0 -0.86602545
vn -0.86602545 0 -0.49999997
vn -0.86602545 0 -0.49999997
vn -1 0 0
vn -1 0 0
vn -0.86602545 0 0.5
vn -0.86602545 0 0.5
vn -0.50000006 0 0.86602545
vn -0.50000006 0 0.86602545
vn -0 0 1
vn -0 0 1
vn -0 1 0
vn 5.9604645E-07 1 7.1525574E-07
vn -0 1 7.1525574E-07
vn 8.34465E-07 1 3.5762787E-07
vn 1.1920929E-06 1 0
vn 8.34465E-07 1 -3.5762787E-07
vn 5.9604645E-07 1 -6.556511E-07
vn -0 1 -6.556511E-07
vn 2.3841858E-07 -1 -1.013279E-06
vn -0 -1 -1.013279E-06
vn -0 -1 0
vn 4.768372E-07 -1 -3.5762795E-07
vn 5.9604645E-07 -1 2.3841858E-07
vn 4.768372E-07 -1 5.960465E-07
vn 2.3841858E-07 -1 1.0728836E-06
vn -0 -1 1.0728836E-06
vn -0 0 -1
vn 0.49999997 0 -0.86602545
vn -0 0 -1
vn 0.49999997 0 -0.86602545
vn 0.86602545 0 -0.4999999
vn 0.86602545 0 -0.4999999
vn 1 0 0
vn 1 0 0
vn 0.86602545 0 0.49999997
vn 0.86602545 0 0.49999997
vn 0.49999997 0 0.86602545
vn 0.49999997 0 0.86602545
vn -0 0 1
vn -0 0 1
vn -0 1 0
vn -0 1 7.1525574E-07
vn -5.9604645E-07 1 7.1525574E-07
vn -8.34465E-07 1 3.5762787E-07
vn -1.1324883E-06 1 0
vn -8.34465E-07 1 -3.5762787E-07
vn -5.9604645E-07 1 -6.556511E-07
vn -0 1 -6.556511E-07
vn -2.9802322E-07 -1 -1.013279E-06
vn -0 -1 0
vn -0 -1 -1.013279E-06
vn -4.172326E-07 -1 -6.5565115E-07
vn -5.9604645E-07 -1 -2.3841858E-07
vn -4.172326E-07 -1 3.5762795E-07
vn -2.9802322E-07 -1 1.0728836E-06
vn -0 -1 1.0728836E-06
g pm1000_00_CoinESkin_ry_0
f 3/3/3 2/2/2 1/1/1
f 4/4/4 3/3/3 1/1/1
f 5/5/5 3/3/3 4/4/4
f 6/6/6 5/5/5 4/4/4
f 7/7/7 5/5/5 6/6/6
f 8/8/8 7/7/7 6/6/6
f 9/9/9 7/7/7 8/8/8
f 10/10/10 9/9/9 8/8/8
f 11/11/11 9/9/9 10/10/10
f 12/12/12 11/11/11 10/10/10
f 13/13/13 11/11/11 12/12/12
f 14/14/14 13/13/13 12/12/12
f 17/17/17 16/16/16 15/15/15
f 16/16/16 18/18/18 15/15/15
f 18/18/18 19/19/19 15/15/15
f 19/19/19 20/20/20 15/15/15
f 20/20/20 21/21/21 15/15/15
f 21/21/21 22/22/22 15/15/15
f 25/25/25 24/24/24 23/23/23
f 26/26/26 25/25/25 23/23/23
f 25/25/25 26/26/26 27/27/27
f 28/28/28 25/25/25 27/27/27
f 25/25/25 28/28/28 29/29/29
f 30/30/30 25/25/25 29/29/29
f 33/33/33 32/32/32 31/31/31
f 32/32/32 34/34/34 31/31/31
f 32/32/32 35/35/35 34/34/34
f 35/35/35 36/36/36 34/34/34
f 35/35/35 37/37/37 36/36/36
f 37/37/37 38/38/38 36/36/36
f 37/37/37 39/39/39 38/38/38
f 39/39/39 40/40/40 38/38/38
f 39/39/39 41/41/41 40/40/40
f 41/41/41 42/42/42 40/40/40
f 41/41/41 43/43/43 42/42/42
f 43/43/43 44/44/44 42/42/42
f 47/47/47 46/46/46 45/45/45
f 48/48/48 47/47/47 45/45/45
f 49/49/49 48/48/48 45/45/45
f 50/50/50 49/49/49 45/45/45
f 51/51/51 50/50/50 45/45/45
f 52/52/52 51/51/51 45/45/45
f 55/55/55 54/54/54 53/53/53
f 54/54/54 56/56/56 53/53/53
f 56/56/56 54/54/54 57/57/57
f 54/54/54 58/58/58 57/57/57
f 58/58/58 54/54/54 59/59/59
f 54/54/54 60/60/60 59/59/59
