g battlefield_pinnacle
v -0.18097533 -0.053841017 -0.06173069
v -0.18097533 0.053841017 -0.06173069
v -0.18211173 0.053841017 -0.055285774
v -0.18211173 -0.053841017 -0.055285774
v -0.18097533 0.053841017 -0.06173069
v -0.17566682 0.053841017 -0.054149363
v -0.18211173 0.053841017 -0.055285774
v -0.17566682 -0.053841017 -0.054149363
v -0.18097533 -0.053841017 -0.06173069
v -0.18211173 -0.053841017 -0.055285774
v -0.18211173 -0.053841017 -0.055285774
v -0.18211173 0.053841017 -0.055285774
v -0.17566682 0.053841017 -0.054149363
v -0.17566682 -0.053841017 -0.054149363
v -0.17566682 -0.053841017 -0.054149363
v -0.17566682 0.053841017 -0.054149363
v -0.18097533 0.053841017 -0.06173069
v -0.18097533 -0.053841017 -0.06173069
v 0.06067631 0.024999617 -0.044083916
v 0.023176285 0.024999617 -0.07132927
v 0.023176285 -0.02500038 -0.07132927
v 0.06067631 -0.02500038 -0.044083916
v -0.023176285 -0.02500038 -0.071329266
v -0.023176285 0.024999617 -0.071329266
v -0.06067629 -0.02500038 -0.0440839
v -0.06067629 0.024999617 -0.0440839
v -0.07500001 -0.02500038 0
v -0.07500001 0.024999617 0
v 0.074999996 0.024999617 0
v 0.074999996 -0.02500038 0
v -0.07500001 0.024999617 0
v -0.060676284 -0.02500038 0.0440839
v -0.060676284 0.024999617 0.0440839
v -0.060676284 0.024999617 0.0440839
v -0.023176279 -0.02500038 0.07132924
v -0.023176279 0.024999617 0.07132924
v 0.023176271 -0.02500038 0.07132924
v 0.023176271 0.024999617 0.07132924
v 0.060676273 -0.02500038 0.044083897
v 0.060676273 0.024999617 0.044083897
v 0.060676273 0.024999617 0.044083897
v 0.074999996 0.024999617 0
v 0.023176285 -0.02500038 -0.07132927
v -0.023176285 -0.02500038 -0.071329266
v 0.06067631 -0.02500038 -0.044083916
v 0.074999996 -0.02500038 0
v 0.060676273 -0.02500038 0.044083897
v 0.023176271 -0.02500038 0.07132924
v -0.023176279 -0.02500038 0.07132924
v -0.060676284 -0.02500038 0.0440839
v -0.07500001 -0.02500038 0
v -0.06067629 -0.02500038 -0.0440839
v 0.055419687 -0.053841017 0.18220207
v 0.055419687 0.053841017 0.18220207
v 0.06182101 0.053841017 0.18084142
v 0.06182101 -0.053841017 0.18084142
v 0.055419687 0.053841017 0.18220207
v 0.054059044 0.053841017 0.17580076
v 0.06182101 0.053841017 0.18084142
v 0.054059044 -0.053841017 0.17580076
v 0.06182101 -0.053841017 0.18084142
v 0.06182101 0.053841017 0.18084142
v 0.054059044 0.053841017 0.17580076
v 0.054059044 -0.053841017 0.17580076
v 0.055419687 -0.053841017 0.18220207
v 0.06182101 -0.053841017 0.18084142
v 0.054059044 -0.053841017 0.17580076
v 0.054059044 0.053841017 0.17580076
v 0.055419687 0.053841017 0.18220207
v 0.055419687 -0.053841017 0.18220207
v -0.17832111 0.052013014 -0.05794004
v -0.18749791 0.052013014 0
v -0.18749791 -0.052013393 0
v -0.17832111 -0.052013393 -0.05794004
v -0.17832111 -0.052013393 0.05794004
v -0.17832111 0.052013014 0.05794004
v -0.151689 0.052013014 0.110208504
v -0.151689 -0.052013393 0.110208504
v -0.110208504 0.052013014 0.15168898
v -0.110208504 -0.052013393 0.15168898
v -0.05794004 0.052013014 0.1783211
v -0.05794004 -0.052013393 0.1783211
v -5.587872E-09 0.052013014 0.18749788
v -5.587872E-09 -0.052013393 0.18749788
v 0.057940025 0.052013014 0.1783211
v 0.057940025 -0.052013393 0.1783211
v 0.17832111 0.052013014 0.05794004
v 0.18749791 0.052013014 -2.2961874E-17
v 0.18749791 -0.052013393 -2.2961874E-17
v 0.17832111 -0.052013393 0.05794004
v 0.17832111 -0.052013393 -0.05794004
v 0.17832111 0.052013014 -0.05794004
v 0.151689 0.052013014 -0.110208504
v 0.151689 -0.052013393 -0.110208504
v 0.110208504 0.052013014 -0.15168898
v 0.110208504 -0.052013393 -0.15168898
v 0.05794004 0.052013014 -0.1783211
v 0.05794004 -0.052013393 -0.1783211
v 5.587872E-09 0.052013014 -0.18749788
v 5.587872E-09 -0.052013393 -0.18749788
v -0.057940025 0.052013014 -0.1783211
v -0.057940025 -0.052013393 -0.1783211
v -0.055419687 -0.053841017 -0.18220207
v -0.055419687 0.053841017 -0.18220207
v -0.06182101 0.053841017 -0.18084142
v -0.06182101 -0.053841017 -0.18084142
v -0.055419687 0.053841017 -0.18220207
v -0.054059044 0.053841017 -0.17580076
v -0.06182101 0.053841017 -0.18084142
v -0.054059044 -0.053841017 -0.17580076
v -0.06182101 -0.053841017 -0.18084142
v -0.06182101 0.053841017 -0.18084142
v -0.054059044 0.053841017 -0.17580076
v -0.054059044 -0.053841017 -0.17580076
v -0.055419687 -0.053841017 -0.18220207
v -0.06182101 -0.053841017 -0.18084142
v -0.054059044 -0.053841017 -0.17580076
v -0.054059044 0.053841017 -0.17580076
v -0.055419687 0.053841017 -0.18220207
v -0.055419687 -0.053841017 -0.18220207
v 0.18097533 -0.053841017 0.06173069
v 0.18097533 0.053841017 0.06173069
v 0.18211173 0.053841017 0.055285774
v 0.18211173 -0.053841017 0.055285774
v 0.18097533 0.053841017 0.06173069
v 0.17566682 0.053841017 0.054149363
v 0.18211173 0.053841017 0.055285774
v 0.17566682 -0.053841017 0.054149363
v 0.18097533 -0.053841017 0.06173069
v 0.18211173 -0.053841017 0.055285774
v 0.18211173 -0.053841017 0.055285774
v 0.18211173 0.053841017 0.055285774
v 0.17566682 0.053841017 0.054149363
v 0.17566682 -0.053841017 0.054149363
v 0.17566682 -0.053841017 0.054149363
v 0.17566682 0.053841017 0.054149363
v 0.18097533 0.053841017 0.06173069
v 0.18097533 -0.053841017 0.06173069
v 0.058435384 0.024999617 -0.04245579
v 0.022320326 0.024999617 -0.068694904
v 0.023176285 0.024999617 -0.07132927
v 0.06067631 0.024999617 -0.044083916
v -0.023176285 0.024999617 -0.071329266
v -0.022320326 0.024999617 -0.06869487
v -0.06067629 0.024999617 -0.0440839
v -0.058435366 0.024999617 -0.042455774
v -0.07500001 0.024999617 0
v -0.07223008 0.024999617 -4.4026957E-10
v -0.060676284 0.024999617 0.0440839
v -0.058435358 0.024999617 0.042455774
v -0.023176279 0.024999617 0.07132924
v -0.02232032 0.024999617 0.068694875
v 0.023176271 0.024999617 0.07132924
v 0.022320313 0.024999617 0.068694875
v 0.060676273 0.024999617 0.044083897
v 0.058435347 0.024999617 0.04245577
v 0.074999996 0.024999617 0
v 0.07223006 0.024999617 -4.4026957E-10
v -0.022320326 0.024999617 -0.06869487
v 0.022320326 0.024999617 -0.068694904
v 0.058435384 0.024999617 -0.04245579
v 0.07223006 0.024999617 -4.4026957E-10
v 0.07223006 0.024999617 -4.4026957E-10
v 0.058435347 0.024999617 0.04245577
v -0.022320326 0.024999617 -0.06869487
v -0.07223008 0.024999617 -4.4026957E-10
v -0.058435366 0.024999617 -0.042455774
v -0.022320326 0.024999617 -0.06869487
v -0.058435358 0.024999617 0.042455774
v -0.07223008 0.024999617 -4.4026957E-10
v -0.022320326 0.024999617 -0.06869487
v -0.02232032 0.024999617 0.068694875
v -0.058435358 0.024999617 0.042455774
v -0.022320326 0.024999617 -0.06869487
v 0.022320313 0.024999617 0.068694875
v -0.02232032 0.024999617 0.068694875
v -0.022320326 0.024999617 -0.06869487
v 0.058435347 0.024999617 0.04245577
v 0.022320313 0.024999617 0.068694875
v -0.059098836 -0.022856902 0.1818875
v -0.059098836 0.022491835 0.1818875
v -5.699629E-09 0.022491835 0.19124785
v -5.699629E-09 -0.022856902 0.19124785
v -0.112412676 -0.022856902 0.15472275
v -0.112412676 0.022491835 0.15472275
v -0.15472278 -0.022856902 0.112412676
v -0.15472278 0.022491835 0.112412676
v -0.18188754 -0.022856902 0.059098836
v -0.18188754 0.022491835 0.059098836
v -0.19124785 -0.022856902 0
v -0.19124787 0.022491835 0
v 0.059098836 -0.022856902 -0.1818875
v 0.059098836 0.022491835 -0.1818875
v 5.699629E-09 0.022491835 -0.19124785
v 5.699629E-09 -0.022856902 -0.19124785
v 0.112412676 -0.022856902 -0.15472275
v 0.112412676 0.022491835 -0.15472275
v 0.15472278 -0.022856902 -0.112412676
v 0.15472278 0.022491835 -0.112412676
v 0.18188754 -0.022856902 -0.059098836
v 0.18188754 0.022491835 -0.059098836
v 0.19124785 -0.022856902 -2.3421108E-17
v 0.19124787 0.022491835 -2.3421111E-17
vt 0.5303244 0.02657985
vt 0.5303244 0.02657985
vt 0.5303231 0.02657269
vt 0.5303231 0.02657269
vt 0.5303244 0.02657985
vt 0.53033024 0.026571423
vt 0.5303231 0.02657269
vt 0.53033024 0.026571423
vt 0.5303244 0.02657985
vt 0.5303231 0.02657269
vt 0.5303231 0.02657269
vt 0.5303231 0.02657269
vt 0.53033024 0.026571423
vt 0.53033024 0.026571423
vt 0.53033024 0.026571423
vt 0.53033024 0.026571423
vt 0.5303244 0.02657985
vt 0.5303244 0.02657985
vt 0.5304102 0.08004655
vt 0.5302639 0.08036054
vt 0.5302639 0.08036054
vt 0.5304102 0.08004656
vt 0.5300831 0.08036054
vt 0.5300831 0.08036054
vt 0.5299369 0.08004656
vt 0.5299369 0.08004655
vt 0.529881 0.07953854
vt 0.529881 0.07953853
vt 0.530466 0.07953853
vt 0.530466 0.07953854
vt 0.529881 0.07953853
vt 0.5299369 0.07903049
vt 0.5299369 0.079030514
vt 0.5299369 0.079030514
vt 0.5300831 0.078716524
vt 0.5300831 0.07871654
vt 0.5302639 0.078716524
vt 0.5302639 0.07871654
vt 0.5304102 0.07903049
vt 0.5304102 0.079030514
vt 0.5304102 0.079030514
vt 0.530466 0.07953853
vt 0.718432 0.07871227
vt 0.7183802 0.07866025
vt 0.71848804 0.07867253
vt 0.7185094 0.07860824
vt 0.71848804 0.07854393
vt 0.718432 0.07850419
vt 0.7183629 0.07850419
vt 0.71830696 0.07854393
vt 0.71828556 0.07860824
vt 0.71830696 0.07867253
vt 0.530587 0.026308738
vt 0.530587 0.026308738
vt 0.53059417 0.02631025
vt 0.53059417 0.02631025
vt 0.530587 0.026308738
vt 0.5305856 0.026315853
vt 0.53059417 0.02631025
vt 0.5305856 0.026315853
vt 0.53059417 0.02631025
vt 0.53059417 0.02631025
vt 0.5305856 0.026315853
vt 0.5305856 0.026315853
vt 0.530587 0.026308738
vt 0.53059417 0.02631025
vt 0.5305856 0.026315853
vt 0.5305856 0.026315853
vt 0.530587 0.026308738
vt 0.530587 0.026308738
vt 0.83943737 0.028305814
vt 0.8392898 0.02737403
vt 0.8392898 0.02737403
vt 0.83943737 0.028305814
vt 0.83943737 0.026442274
vt 0.83943737 0.026442274
vt 0.8398657 0.025601715
vt 0.8398657 0.025601715
vt 0.84053266 0.024934635
vt 0.84053266 0.024934635
vt 0.84137326 0.02450636
vt 0.84137326 0.02450636
vt 0.84230506 0.02435878
vt 0.84230506 0.02435878
vt 0.8432368 0.02450636
vt 0.8432368 0.02450636
vt 0.8451727 0.026442274
vt 0.8453203 0.02737403
vt 0.8453203 0.02737403
vt 0.8451727 0.026442274
vt 0.8451727 0.028305814
vt 0.8451727 0.028305814
vt 0.8447444 0.029146373
vt 0.8447444 0.029146373
vt 0.8440774 0.029813424
vt 0.8440774 0.029813424
vt 0.8432368 0.030241728
vt 0.8432368 0.030241728
vt 0.84230506 0.030389309
vt 0.84230506 0.030389309
vt 0.84137326 0.030241728
vt 0.84137326 0.030241728
vt 0.5304639 0.026713744
vt 0.5304639 0.026713744
vt 0.53045684 0.026712224
vt 0.53045684 0.026712224
vt 0.5304639 0.026713744
vt 0.5304654 0.026706629
vt 0.53045684 0.026712224
vt 0.5304654 0.026706629
vt 0.53045684 0.026712224
vt 0.53045684 0.026712224
vt 0.5304654 0.026706629
vt 0.5304654 0.026706629
vt 0.5304639 0.026713744
vt 0.53045684 0.026712224
vt 0.5304654 0.026706629
vt 0.5304654 0.026706629
vt 0.5304639 0.026713744
vt 0.5304639 0.026713744
vt 0.53072673 0.026442632
vt 0.53072673 0.026442632
vt 0.5307279 0.026449792
vt 0.5307279 0.026449792
vt 0.53072673 0.026442632
vt 0.5307208 0.026451059
vt 0.5307279 0.026449792
vt 0.5307208 0.026451059
vt 0.53072673 0.026442632
vt 0.5307279 0.026449792
vt 0.5307279 0.026449792
vt 0.5307279 0.026449792
vt 0.5307208 0.026451059
vt 0.5307208 0.026451059
vt 0.5307208 0.026451059
vt 0.5307208 0.026451059
vt 0.53072673 0.026442632
vt 0.53072673 0.026442632
vt 0.78167456 0.026738375
vt 0.781581 0.026777297
vt 0.78158325 0.026781201
vt 0.7816804 0.02674079
vt 0.7814632 0.026781201
vt 0.7814655 0.026777297
vt 0.78136605 0.02674079
vt 0.7813719 0.026738375
vt 0.781329 0.026675403
vt 0.7813361 0.026675403
vt 0.78136605 0.026609987
vt 0.7813719 0.026612401
vt 0.7814632 0.026569575
vt 0.7814655 0.02657348
vt 0.78158325 0.026569575
vt 0.781581 0.02657348
vt 0.7816804 0.026609987
vt 0.78167456 0.026612401
vt 0.78171766 0.026675403
vt 0.7817105 0.026675403
vt 0.7183808 0.078658335
vt 0.71843076 0.07870843
vt 0.71848464 0.07867015
vt 0.7185053 0.07860824
vt 0.7185053 0.07860824
vt 0.71848464 0.078546315
vt 0.7183808 0.078658335
vt 0.7182897 0.07860824
vt 0.71831036 0.07867015
vt 0.7183808 0.078658335
vt 0.71831036 0.078546315
vt 0.7182897 0.07860824
vt 0.7183808 0.078658335
vt 0.7183641 0.078508034
vt 0.71831036 0.078546315
vt 0.7183808 0.078658335
vt 0.71843076 0.078508034
vt 0.7183641 0.078508034
vt 0.7183808 0.078658335
vt 0.71848464 0.078546315
vt 0.71843076 0.078508034
vt 0.7813731 0.026410848
vt 0.7813731 0.026410848
vt 0.7815233 0.026397228
vt 0.7815233 0.026397228
vt 0.78123766 0.026450336
vt 0.78123766 0.026450336
vt 0.78113014 0.026511908
vt 0.78113014 0.026511908
vt 0.78106123 0.026589453
vt 0.78106123 0.026589453
vt 0.7810374 0.026675403
vt 0.7810374 0.026675403
vt 0.7816734 0.026939929
vt 0.7816734 0.026939929
vt 0.7815233 0.026953578
vt 0.7815233 0.026953578
vt 0.7818088 0.02690041
vt 0.7818088 0.02690041
vt 0.7819162 0.026838899
vt 0.7819162 0.026838899
vt 0.78198534 0.026761323
vt 0.78198534 0.026761323
vt 0.78200907 0.026675403
vt 0.78200907 0.026675403
vn -0.9848081 0 -0.17364621
vn -0.9848081 0 -0.17364621
vn -0.9848081 0 -0.17364621
vn -0.9848081 0 -0.17364621
vn -0 1 0
vn -0 1 0
vn -0 1 0
vn -0 -1 0
vn -0 -1 0
vn -0 -1 0
vn -0.17364852 0 0.98480767
vn -0.17364852 0 0.98480767
vn -0.17364852 0 0.98480767
vn -0.17364852 0 0.98480767
vn 0.8191524 0 -0.573576
vn 0.8191524 0 -0.573576
vn 0.8191524 0 -0.573576
vn 0.8191524 0 -0.573576
vn 0.8090173 0 -0.5877848
vn 0.30901757 0 -0.9510563
vn 0.30901757 0 -0.9510563
vn 0.8090173 0 -0.5877848
vn -0.3090178 0 -0.95105624
vn -0.3090178 0 -0.95105624
vn -0.8090172 0 -0.5877849
vn -0.8090172 0 -0.5877849
vn -1 0 0
vn -1 0 0
vn 1 0 0
vn 1 0 0
vn -1 0 0
vn -0.8090171 0 0.587785
vn -0.8090171 0 0.587785
vn -0.8090171 0 0.587785
vn -0.30901757 0 0.9510563
vn -0.30901757 0 0.9510563
vn 0.30901757 0 0.9510563
vn 0.30901757 0 0.9510563
vn 0.80901706 0 0.5877851
vn 0.80901706 0 0.5877851
vn 0.80901706 0 0.5877851
vn 1 0 0
vn -0 -1 -3.0206027E-05
vn -0 -1 0
vn -0 -1 -1.5629554E-06
vn -0 -1 0
vn -0 -1 0
vn -0 -1 0
vn -0 -1 0
vn -0 -1 -2.6800917E-06
vn -0 -1 -3.9073907E-06
vn -0 -1 3.0206045E-05
vn 0.20791328 0 0.97814727
vn 0.20791328 0 0.97814727
vn 0.20791328 0 0.97814727
vn 0.20791328 0 0.97814727
vn -0 1 0
vn -0 1 0
vn -0 1 0
vn 0.54463845 0 -0.8386709
vn 0.54463845 0 -0.8386709
vn 0.54463845 0 -0.8386709
vn 0.54463845 0 -0.8386709
vn -0 -1 5.5668446E-05
vn -0 -1 5.566844E-05
vn -0 -1 5.566844E-05
vn -0.9781477 0 0.20791134
vn -0.9781477 0 0.20791134
vn -0.9781477 0 0.20791134
vn -0.9781477 0 0.20791134
vn -0.9876883 0 -0.15643458
vn -1 0 0
vn -1 0 0
vn -0.9876883 0 -0.15643458
vn -0.95105654 0 0.30901703
vn -0.95105654 0 0.30901703
vn -0.8090168 0 0.58778554
vn -0.8090168 0 0.58778554
vn -0.58778507 0 0.8090171
vn -0.58778507 0 0.8090171
vn -0.30901703 0 0.95105654
vn -0.30901703 0 0.95105654
vn -0 0 1
vn -0 0 1
vn 0.1564345 0 0.9876883
vn 0.1564345 0 0.9876883
vn 0.9876883 0 0.15643458
vn 1 0 0
vn 1 0 0
vn 0.9876883 0 0.15643458
vn 0.95105654 0 -0.30901703
vn 0.95105654 0 -0.30901703
vn 0.8090168 0 -0.58778554
vn 0.8090168 0 -0.58778554
vn 0.58778507 0 -0.8090171
vn 0.58778507 0 -0.8090171
vn 0.30901703 0 -0.95105654
vn 0.30901703 0 -0.95105654
vn -0 0 -1
vn -0 0 -1
vn -0.1564345 0 -0.9876883
vn -0.1564345 0 -0.9876883
vn -0.20791328 0 -0.97814727
vn -0.20791328 0 -0.97814727
vn -0.20791328 0 -0.97814727
vn -0.20791328 0 -0.97814727
vn -0 1 0
vn -0 1 0
vn -0 1 0
vn -0.54463845 0 0.8386709
vn -0.54463845 0 0.8386709
vn -0.54463845 0 0.8386709
vn -0.54463845 0 0.8386709
vn -0 -1 -5.5668446E-05
vn -0 -1 -5.566844E-05
vn -0 -1 -5.566844E-05
vn 0.9781477 0 -0.20791134
vn 0.9781477 0 -0.20791134
vn 0.9781477 0 -0.20791134
vn 0.9781477 0 -0.20791134
vn 0.9848081 0 0.17364621
vn 0.9848081 0 0.17364621
vn 0.9848081 0 0.17364621
vn 0.9848081 0 0.17364621
vn -0 1 0
vn -0 1 0
vn -0 1 0
vn -0 -1 0
vn -0 -1 0
vn -0 -1 0
vn 0.17364852 0 -0.98480767
vn 0.17364852 0 -0.98480767
vn 0.17364852 0 -0.98480767
vn 0.17364852 0 -0.98480767
vn -0.8191524 0 0.573576
vn -0.8191524 0 0.573576
vn -0.8191524 0 0.573576
vn -0.8191524 0 0.573576
vn -0 1 0
vn -0 1 0
vn -0 1 0
vn -0 1 0
vn -0 1 0
vn -0 1 0
vn -0 1 -7.956889E-05
vn -0 1 -7.956888E-05
vn -0 1 0
vn -0 1 0
vn -0 1 3.978457E-05
vn -0 1 3.9784572E-05
vn -0 1 0
vn -0 1 0
vn -0 1 0
vn -0 1 0
vn -0 1 7.956909E-05
vn -0 1 7.956909E-05
vn -0 1 0
vn -0 1 0
vn -0 1 3.256716E-05
vn -0 1 3.2567164E-05
vn -0 1 3.256716E-05
vn -0 1 -2.48791E-05
vn -0 1 1.5376152E-05
vn -0 1 1.5376152E-05
vn -0 1 0
vn -0 1 0
vn -0 1 0
vn -0 1 -1.24395665E-05
vn -0 1 -1.24395665E-05
vn -0 1 -1.24395665E-05
vn -0 1 3.6647639E-06
vn -0 1 3.6647634E-06
vn -0 1 3.6647634E-06
vn -0 1 0
vn -0 1 0
vn -0 1 0
vn -0 1 -1.2439569E-05
vn -0 1 -1.2439569E-05
vn -0 1 -1.2439568E-05
vn -0.30901715 0 0.9510565
vn -0.30901715 0 0.9510565
vn -0.15643483 0 0.98768824
vn -0.15643483 0 0.98768824
vn -0.58778447 0 0.8090176
vn -0.58778447 0 0.8090176
vn -0.8090161 0 0.5877864
vn -0.8090161 0 0.5877864
vn -0.9510564 0 0.30901727
vn -0.9510564 0 0.30901727
vn -0.98768836 0 0.15643421
vn -0.98768836 0 0.15643421
vn 0.30901715 0 -0.9510565
vn 0.30901715 0 -0.9510565
vn 0.15643483 0 -0.98768824
vn 0.15643483 0 -0.98768824
vn 0.58778447 0 -0.8090176
vn 0.58778447 0 -0.8090176
vn 0.8090161 0 -0.5877864
vn 0.8090161 0 -0.5877864
vn 0.9510564 0 -0.30901727
vn 0.9510564 0 -0.30901727
vn 0.98768836 0 -0.15643421
vn 0.98768836 0 -0.15643421
g battlefield_pinnacle_0
f 3/3/3 2/2/2 1/1/1
f 4/4/4 3/3/3 1/1/1
f 7/7/7 6/6/6 5/5/5
f 10/10/10 9/9/9 8/8/8
f 13/13/13 12/12/12 11/11/11
f 14/14/14 13/13/13 11/11/11
f 17/17/17 16/16/16 15/15/15
f 18/18/18 17/17/17 15/15/15
f 21/21/21 20/20/20 19/19/19
f 22/22/22 21/21/21 19/19/19
f 21/21/21 23/23/23 20/20/20
f 23/23/23 24/24/24 20/20/20
f 23/23/23 25/25/25 24/24/24
f 25/25/25 26/26/26 24/24/24
f 25/25/25 27/27/27 26/26/26
f 27/27/27 28/28/28 26/26/26
f 22/22/22 19/19/19 29/29/29
f 30/30/30 22/22/22 29/29/29
f 27/27/27 32/32/32 31/31/31
f 32/32/32 33/33/33 31/31/31
f 32/32/32 35/35/35 34/34/34
f 35/35/35 36/36/36 34/34/34
f 35/35/35 37/37/37 36/36/36
f 37/37/37 38/38/38 36/36/36
f 37/37/37 39/39/39 38/38/38
f 39/39/39 40/40/40 38/38/38
f 39/39/39 30/30/30 41/41/41
f 30/30/30 42/42/42 41/41/41
f 45/45/45 44/44/44 43/43/43
f 46/46/46 44/44/44 45/45/45
f 47/47/47 44/44/44 46/46/46
f 48/48/48 44/44/44 47/47/47
f 49/49/49 44/44/44 48/48/48
f 50/50/50 44/44/44 49/49/49
f 51/51/51 44/44/44 50/50/50
f 52/52/52 44/44/44 51/51/51
f 55/55/55 54/54/54 53/53/53
f 56/56/56 55/55/55 53/53/53
f 59/59/59 58/58/58 57/57/57
f 62/62/62 61/61/61 60/60/60
f 63/63/63 62/62/62 60/60/60
f 66/66/66 65/65/65 64/64/64
f 69/69/69 68/68/68 67/67/67
f 70/70/70 69/69/69 67/67/67
f 73/73/73 72/72/72 71/71/71
f 74/74/74 73/73/73 71/71/71
f 73/73/73 75/75/75 72/72/72
f 75/75/75 76/76/76 72/72/72
f 77/77/77 76/76/76 75/75/75
f 78/78/78 77/77/77 75/75/75
f 79/79/79 77/77/77 78/78/78
f 80/80/80 79/79/79 78/78/78
f 81/81/81 79/79/79 80/80/80
f 82/82/82 81/81/81 80/80/80
f 83/83/83 81/81/81 82/82/82
f 84/84/84 83/83/83 82/82/82
f 85/85/85 83/83/83 84/84/84
f 86/86/86 85/85/85 84/84/84
f 89/89/89 88/88/88 87/87/87
f 90/90/90 89/89/89 87/87/87
f 89/89/89 91/91/91 88/88/88
f 91/91/91 92/92/92 88/88/88
f 93/93/93 92/92/92 91/91/91
f 94/94/94 93/93/93 91/91/91
f 95/95/95 93/93/93 94/94/94
f 96/96/96 95/95/95 94/94/94
f 97/97/97 95/95/95 96/96/96
f 98/98/98 97/97/97 96/96/96
f 99/99/99 97/97/97 98/98/98
f 100/100/100 99/99/99 98/98/98
f 101/101/101 99/99/99 100/100/100
f 102/102/102 101/101/101 100/100/100
f 105/105/105 104/104/104 103/103/103
f 106/106/106 105/105/105 103/103/103
f 109/109/109 108/108/108 107/107/107
f 112/112/112 111/111/111 110/110/110
f 113/113/113 112/112/112 110/110/110
f 116/116/116 115/115/115 114/114/114
f 119/119/119 118/118/118 117/117/117
f 120/120/120 119/119/119 117/117/117
f 123/123/123 122/122/122 121/121/121
f 124/124/124 123/123/123 121/121/121
f 127/127/127 126/126/126 125/125/125
f 130/130/130 129/129/129 128/128/128
f 133/133/133 132/132/132 131/131/131
f 134/134/134 133/133/133 131/131/131
f 137/137/137 136/136/136 135/135/135
f 138/138/138 137/137/137 135/135/135
f 141/141/141 140/140/140 139/139/139
f 142/142/142 141/141/141 139/139/139
f 141/141/141 143/143/143 140/140/140
f 143/143/143 144/144/144 140/140/140
f 143/143/143 145/145/145 144/144/144
f 145/145/145 146/146/146 144/144/144
f 145/145/145 147/147/147 146/146/146
f 147/147/147 148/148/148 146/146/146
f 147/147/147 149/149/149 148/148/148
f 149/149/149 150/150/150 148/148/148
f 149/149/149 151/151/151 150/150/150
f 151/151/151 152/152/152 150/150/150
f 151/151/151 153/153/153 152/152/152
f 153/153/153 154/154/154 152/152/152
f 153/153/153 155/155/155 154/154/154
f 155/155/155 156/156/156 154/154/154
f 155/155/155 157/157/157 156/156/156
f 157/157/157 158/158/158 156/156/156
f 158/158/158 157/157/157 139/139/139
f 157/157/157 142/142/142 139/139/139
f 161/161/161 160/160/160 159/159/159
f 162/162/162 161/161/161 159/159/159
f 164/164/164 163/163/163 159/159/159
f 167/167/167 166/166/166 165/165/165
f 170/170/170 169/169/169 168/168/168
f 173/173/173 172/172/172 171/171/171
f 176/176/176 175/175/175 174/174/174
f 179/179/179 178/178/178 177/177/177
f 182/182/182 181/181/181 180/180/180
f 183/183/183 182/182/182 180/180/180
f 180/180/180 181/181/181 184/184/184
f 181/181/181 185/185/185 184/184/184
f 184/184/184 185/185/185 186/186/186
f 185/185/185 187/187/187 186/186/186
f 186/186/186 187/187/187 188/188/188
f 187/187/187 189/189/189 188/188/188
f 188/188/188 189/189/189 190/190/190
f 189/189/189 191/191/191 190/190/190
f 194/194/194 193/193/193 192/192/192
f 195/195/195 194/194/194 192/192/192
f 192/192/192 193/193/193 196/196/196
f 193/193/193 197/197/197 196/196/196
f 196/196/196 197/197/197 198/198/198
f 197/197/197 199/199/199 198/198/198
f 198/198/198 199/199/199 200/200/200
f 199/199/199 201/201/201 200/200/200
f 200/200/200 201/201/201 202/202/202
f 201/201/201 203/203/203 202/202/202
