g Box_Geo05_mBox_centerHole_lid_blue
v -0.013789787 0.054899998 0.008233281
v -0.013789787 0.059999418 0.008233281
v -0.029999997 0.059999418 0.008183281
v -0.029999997 0.054899998 0.008183281
v -0.013789786 0.059999418 -0.008232992
v -0.013789786 0.054899998 -0.008232992
v -0.029999997 0.054899998 -0.008182993
v -0.029999997 0.059999418 -0.008182993
v -0.013789787 0.059999418 0.008233281
v -0.013789787 0.054899998 0.008233281
v -0.013789786 0.054899998 -0.008232992
v -0.013789786 0.059999418 -0.008232992
vt 0.35781556 0.6738101
vt 0.39680916 0.6738101
vt 0.39680952 0.553241
vt 0.35781556 0.55324113
vt 0.39680952 0.5532408
vt 0.35781556 0.553241
vt 0.35781533 0.67381
vt 0.39680916 0.67381
vt 0.3968094 0.55356777
vt 0.35781556 0.55356777
vt 0.35781568 0.6764065
vt 0.39680952 0.6764065
vn -0 0 -1
vn -0 0 -1
vn -0 0 -1
vn -0 0 -1
vn -0 0 1
vn -0 0 1
vn -0 0 1
vn -0 0 1
vn -1 0 0
vn -1 0 0
vn -1 0 0
vn -1 0 0
g Box_Geo05_mBox_centerHole_lid_blue_0
f 3/3/3 2/2/2 1/1/1
f 4/4/4 3/3/3 1/1/1
f 7/7/7 6/6/6 5/5/5
f 8/8/8 7/7/7 5/5/5
f 11/11/11 10/10/10 9/9/9
f 12/12/12 11/11/11 9/9/9
