g Box_Geo05_mBox_centerHole_lid_red
v 0.029999994 0.059999418 -0.008182992
v 0.029999994 0.054899998 -0.008182992
v 0.013789075 0.054899998 -0.008232993
v 0.013789075 0.059999418 -0.008232993
v 0.013789075 0.059999418 -0.008232993
v 0.013789075 0.054899998 -0.008232993
v 0.0137724085 0.054899998 0.008216613
v 0.013789075 0.059999418 0.008233281
vt 0.19179322 0.70462936
vt 0.1527996 0.7046295
vt 0.15279973 0.8252041
vt 0.19179334 0.8252041
vt 0.19179346 0.70305854
vt 0.15279984 0.70305854
vt 0.15279973 0.8258974
vt 0.19179358 0.8258973
vn -0 0 1
vn -0 0 1
vn -0 0 1
vn -0 0 1
vn 1 0 0
vn 1 0 0
vn 1 0 0
vn 1 0 0
g Box_Geo05_mBox_centerHole_lid_red_0
f 3/3/3 2/2/2 1/1/1
f 4/4/4 3/3/3 1/1/1
f 7/7/7 6/6/6 5/5/5
f 8/8/8 7/7/7 5/5/5
