g dome
v 923.87976 0 -382.6829
v 707.1072 0 -707.1064
v 382.6839 0 -923.8793
v 0.0005066395 0 -999.9999
v -382.68292 0 -923.87964
v -707.10645 0 -707.1071
v -923.87933 0 -382.68375
v -1000 0 -0.00035762787
v -923.8796 0 382.6831
v -707.10693 0 707.1066
v -382.6836 0 923.87933
v -0.00014901161 0 1000
v 382.68326 0 923.8796
v 707.1067 0 707.1069
v 923.8795 0 382.68347
v 1000 0 0
v 906.12756 195.09036 -375.3297
v 693.5202 195.09036 -693.5194
v 375.33072 195.09036 -906.1272
v 0.00049690454 195.09036 -980.78516
v -375.3298 195.09036 -906.1275
v -693.5196 195.09036 -693.5202
v -906.12726 195.09036 -375.33057
v -980.7853 195.09036 -0.0003507561
v -906.1275 195.09036 375.32996
v -693.5201 195.09036 693.51965
v -375.3304 195.09036 906.1273
v -0.00014614838 195.09036 980.7853
v 375.33014 195.09036 906.1274
v 693.51984 195.09036 693.5199
v 906.1274 195.09036 375.3303
v 980.7853 195.09036 0
v 853.5534 382.68344 -353.5529
v 653.2818 382.68344 -653.28107
v 353.55383 382.68344 -853.5531
v 0.00046807385 382.68344 -923.87933
v -353.55295 382.68344 -853.5534
v -653.2811 382.68344 -653.2817
v -853.55316 382.68344 -353.5537
v -923.8795 382.68344 -0.00033040505
v -853.5534 382.68344 353.55307
v -653.2816 382.68344 653.28125
v -353.55356 382.68344 853.5533
v -0.00013766877 382.68344 923.8795
v 353.55328 382.68344 853.55334
v 653.2814 382.68344 653.2815
v 853.5533 382.68344 353.55344
v 923.8795 382.68344 0
v 768.178 555.57025 -318.18918
v 587.9382 555.57025 -587.93744
v 318.19003 555.57025 -768.1775
v 0.00042125536 555.57025 -831.4695
v -318.18927 555.57025 -768.17786
v -587.9376 555.57025 -587.9381
v -768.1776 555.57025 -318.18994
v -831.4696 555.57025 -0.00029735672
v -768.1778 555.57025 318.1894
v -587.9379 555.57025 587.9376
v -318.1898 555.57025 768.17773
v -0.00012389862 555.57025 831.4696
v 318.18954 555.57025 768.17773
v 587.93774 555.57025 587.9379
v 768.17773 555.57025 318.18967
v 831.4696 555.57025 0
v 653.2816 707.1068 -270.59766
v 500.00027 707.1068 -499.99966
v 270.59836 707.1068 -653.28125
v 0.0003582482 707.1068 -707.1067
v -270.59772 707.1068 -653.2816
v -499.99973 707.1068 -500.00015
v -653.2814 707.1068 -270.5983
v -707.1068 707.1068 -0.0002528811
v -653.2815 707.1068 270.5978
v -500.00006 707.1068 499.99988
v -270.59818 707.1068 653.2814
v -0.00010536712 707.1068 707.1068
v 270.59796 707.1068 653.2815
v 499.99994 707.1068 500
v 653.2814 707.1068 270.59805
v 707.1068 707.1068 0
v 513.2801 831.4695 -212.60722
v 392.8477 831.4695 -392.84723
v 212.60779 831.4695 -513.2798
v 0.00028147383 831.4695 -555.57025
v -212.60725 831.4695 -513.28
v -392.84738 831.4695 -392.84766
v -513.27985 831.4695 -212.60774
v -555.57025 831.4695 -0.0001986874
v -513.28 831.4695 212.60736
v -392.84756 831.4695 392.8474
v -212.6076 831.4695 513.27985
v -8.2786406E-05 831.4695 555.57025
v 212.60745 831.4695 513.27997
v 392.84744 831.4695 392.84753
v 513.27997 831.4695 212.60756
v 555.57025 831.4695 0
v 353.5535 923.8795 -146.4464
v 270.5982 923.8795 -270.5979
v 146.4468 923.8795 -353.5533
v 0.00019388253 923.8795 -382.68344
v -146.44646 923.8795 -353.55347
v -270.59793 923.8795 -270.59818
v -353.55334 923.8795 -146.44676
v -382.68347 923.8795 -0.00013685827
v -353.55347 923.8795 146.44649
v -270.59814 923.8795 270.598
v -146.44669 923.8795 353.5534
v -5.702428E-05 923.8795 382.68347
v 146.44656 923.8795 353.55344
v 270.59805 923.8795 270.59808
v 353.55344 923.8795 146.44664
v 382.68347 923.8795 0
v 180.24002 980.7853 -74.65772
v 137.94977 980.7853 -137.9496
v 74.65792 980.7853 -180.2399
v 9.884045E-05 980.7853 -195.0903
v -74.657745 980.7853 -180.23997
v -137.94963 980.7853 -137.94974
v -180.23994 980.7853 -74.6579
v -195.09033 980.7853 -6.976974E-05
v -180.23996 980.7853 74.65777
v -137.9497 980.7853 137.94965
v -74.65786 980.7853 180.23994
v -2.9070721E-05 980.7853 195.09033
v 74.657814 980.7853 180.23996
v 137.94966 980.7853 137.9497
v 180.23994 980.7853 74.657845
v 195.09033 980.7853 0
v -0 -401.7629 0
v -0 1000 0
v 923.87976 0 -382.6829
v 707.1072 0 -707.1064
v 382.6839 0 -923.8793
v 0.0005066395 0 -999.9999
v -382.68292 0 -923.87964
v -707.10645 0 -707.1071
v -923.87933 0 -382.68375
v -1000 0 -0.00035762787
v -923.8796 0 382.6831
v -707.10693 0 707.1066
v -382.6836 0 923.87933
v -0.00014901161 0 1000
v 382.68326 0 923.8796
v 707.1067 0 707.1069
v 923.8795 0 382.68347
v 1000 0 0
v 923.87976 0 -382.6829
v 906.12756 195.09036 -375.3297
v 853.5534 382.68344 -353.5529
v 768.178 555.57025 -318.18918
v 653.2816 707.1068 -270.59766
v 513.2801 831.4695 -212.60722
v 353.5535 923.8795 -146.4464
v 180.24002 980.7853 -74.65772
v -0 1000 0
v -0 1000 0
v -0 1000 0
v -0 1000 0
v -0 1000 0
v -0 1000 0
v -0 1000 0
v -0 1000 0
v -0 1000 0
v -0 1000 0
v -0 1000 0
v -0 1000 0
v -0 1000 0
v -0 1000 0
v -0 1000 0
vt 0.5 0.0004980564
vt 0.5 0.0004980564
vt 0.5 0.0004980564
vt 0.5 0.0004980564
vt 0.5 0.0004980564
vt 0.5 0.0004980564
vt 0.5 0.0004980564
vt 0.5 0.0004980564
vt 0.5 0.0004980564
vt 0.5 0.0004980564
vt 0.5 0.0004980564
vt 0.5 0.0004980564
vt 0.5 0.0004980564
vt 0.5 0.0004980564
vt 0.5 0.0004980564
vt 0.5 0.0004980564
vt 0 0.12488243
vt 0.0625 0.12488243
vt 0.125 0.12488243
vt 0.1875 0.12488243
vt 0.25 0.12488243
vt 0.3125 0.12488243
vt 0.375 0.12488243
vt 0.4375 0.12488243
vt 0.5 0.12488243
vt 0.5625 0.12488243
vt 0.625 0.12488243
vt 0.6875 0.12488243
vt 0.75 0.12488243
vt 0.8125 0.12488243
vt 0.875 0.12488243
vt 0.9375 0.12488243
vt 0 0.24926709
vt 0.0625 0.24926709
vt 0.125 0.24926709
vt 0.1875 0.24926709
vt 0.25 0.24926709
vt 0.3125 0.24926709
vt 0.375 0.24926709
vt 0.4375 0.24926709
vt 0.5 0.24926709
vt 0.5625 0.24926709
vt 0.625 0.24926709
vt 0.6875 0.24926709
vt 0.75 0.24926709
vt 0.8125 0.24926709
vt 0.875 0.24926709
vt 0.9375 0.24926709
vt 0 0.3736514
vt 0.0625 0.3736514
vt 0.125 0.3736514
vt 0.1875 0.3736514
vt 0.25 0.3736514
vt 0.3125 0.3736514
vt 0.375 0.3736514
vt 0.4375 0.3736514
vt 0.5 0.3736514
vt 0.5625 0.3736514
vt 0.625 0.3736514
vt 0.6875 0.3736514
vt 0.75 0.3736514
vt 0.8125 0.3736514
vt 0.875 0.3736514
vt 0.9375 0.3736514
vt 0 0.49803603
vt 0.0625 0.49803603
vt 0.125 0.49803603
vt 0.1875 0.49803603
vt 0.25 0.49803603
vt 0.3125 0.49803603
vt 0.375 0.49803603
vt 0.4375 0.49803603
vt 0.5 0.49803603
vt 0.5625 0.49803603
vt 0.625 0.49803603
vt 0.6875 0.49803603
vt 0.75 0.49803603
vt 0.8125 0.49803603
vt 0.875 0.49803603
vt 0.9375 0.49803603
vt 0 0.62242043
vt 0.0625 0.62242043
vt 0.125 0.62242043
vt 0.1875 0.62242043
vt 0.25 0.62242043
vt 0.3125 0.62242043
vt 0.375 0.62242043
vt 0.4375 0.62242043
vt 0.5 0.62242043
vt 0.5625 0.62242043
vt 0.625 0.62242043
vt 0.6875 0.62242043
vt 0.75 0.62242043
vt 0.8125 0.62242043
vt 0.875 0.62242043
vt 0.9375 0.62242043
vt 0 0.74680483
vt 0.0625 0.74680483
vt 0.125 0.74680483
vt 0.1875 0.74680483
vt 0.25 0.74680483
vt 0.3125 0.74680483
vt 0.375 0.74680483
vt 0.4375 0.74680483
vt 0.5 0.74680483
vt 0.5625 0.74680483
vt 0.625 0.74680483
vt 0.6875 0.74680483
vt 0.75 0.74680483
vt 0.8125 0.74680483
vt 0.875 0.74680483
vt 0.9375 0.74680483
vt 0 0.8711895
vt 0.0625 0.8711895
vt 0.125 0.8711895
vt 0.1875 0.8711895
vt 0.25 0.8711895
vt 0.3125 0.8711895
vt 0.375 0.8711895
vt 0.4375 0.8711895
vt 0.5 0.8711895
vt 0.5625 0.8711895
vt 0.625 0.8711895
vt 0.6875 0.8711895
vt 0.75 0.8711895
vt 0.8125 0.8711895
vt 0.875 0.8711895
vt 0.9375 0.8711895
vt 0.5 0.0004980564
vt 0.03125 0.995574
vt 0 0.0004980564
vt 0.0625 0.0004980564
vt 0.125 0.0004980564
vt 0.1875 0.0004980564
vt 0.25 0.0004980564
vt 0.3125 0.0004980564
vt 0.375 0.0004980564
vt 0.4375 0.0004980564
vt 0.5 0.0004980564
vt 0.5625 0.0004980564
vt 0.625 0.0004980564
vt 0.6875 0.0004980564
vt 0.75 0.0004980564
vt 0.8125 0.0004980564
vt 0.875 0.0004980564
vt 0.9375 0.0004980564
vt 1 0.0004980564
vt 1 0.12488243
vt 1 0.24926709
vt 1 0.3736514
vt 1 0.49803603
vt 1 0.62242043
vt 1 0.74680483
vt 1 0.8711895
vt 0.09375 0.995574
vt 0.15625 0.995574
vt 0.21875 0.995574
vt 0.28125 0.995574
vt 0.34375 0.995574
vt 0.40625 0.995574
vt 0.46875 0.995574
vt 0.53125 0.995574
vt 0.59375 0.995574
vt 0.65625 0.995574
vt 0.71875 0.995574
vt 0.78125 0.995574
vt 0.84375 0.995574
vt 0.90625 0.995574
vt 0.96875 0.995574
vn -0.9238796 0 0.3826832
vn -0.7071072 0 0.70710635
vn -0.38268378 0 0.92387944
vn -4.1836773E-07 0 1
vn 0.38268277 0 0.9238798
vn 0.7071065 0 0.7071071
vn 0.9238794 0 0.38268384
vn 1 0 3.2074854E-07
vn 0.9238797 0 -0.3826832
vn 0.7071069 0 -0.70710665
vn 0.38268372 0 -0.92387944
vn 2.5799335E-07 0 -1
vn -0.3826833 0 -0.9238796
vn -0.70710665 0 -0.7071069
vn -0.9238795 0 -0.38268346
vn -1 0 -2.5799355E-07
vn -0.9068998 -0.1908397 0.37565002
vn -0.69411135 -0.1908397 0.69411063
vn -0.37565044 -0.19083974 0.90689963
vn -4.013938E-07 -0.1908398 0.9816212
vn 0.37564966 -0.19083983 0.9069
vn 0.69411075 -0.19083983 0.69411135
vn 0.90689963 -0.19083965 0.37565053
vn 0.98162127 -0.19083968 2.9127696E-07
vn 0.9068998 -0.1908398 -0.37565
vn 0.6941112 -0.19083974 -0.69411075
vn 0.37565044 -0.19083959 -0.90689963
vn 1.8116006E-07 -0.19083968 -0.98162127
vn -0.37565017 -0.19083978 -0.90689975
vn -0.694111 -0.19083975 -0.69411105
vn -0.90689975 -0.1908397 -0.37565023
vn -0.9816212 -0.19083974 -2.2378605E-07
vn -0.8566032 -0.37461466 0.3548165
vn -0.6556159 -0.37461472 0.6556154
vn -0.3548169 -0.3746149 0.85660297
vn -3.8003648E-07 -0.37461486 0.9271805
vn 0.35481614 -0.37461475 0.8566034
vn 0.65561527 -0.37461478 0.65561604
vn 0.85660297 -0.37461483 0.35481697
vn 0.9271805 -0.37461483 2.5962888E-07
vn 0.8566032 -0.3746148 -0.3548164
vn 0.65561587 -0.37461475 -0.65561545
vn 0.3548168 -0.3746148 -0.8566031
vn -0 -0.37461495 -0.92718047
vn -0.35481656 -0.3746148 -0.85660315
vn -0.65561557 -0.37461478 -0.65561575
vn -0.85660297 -0.37461504 -0.35481673
vn -0.9271804 -0.374615 -2.1447616E-07
vn -0.77492 -0.54449016 0.3209821
vn -0.59309816 -0.5444903 0.5930976
vn -0.32098264 -0.5444903 0.7749197
vn -4.2276693E-07 -0.54449016 0.8387672
vn 0.32098186 -0.54449004 0.7749201
vn 0.5930977 -0.5444903 0.5930983
vn 0.7749196 -0.54449034 0.32098255
vn 0.8387672 -0.5444903 1.9159876E-07
vn 0.77492 -0.54449016 -0.3209821
vn 0.59309804 -0.5444903 -0.5930978
vn 0.32098246 -0.5444903 -0.7749197
vn 1.1246013E-07 -0.5444903 -0.8387671
vn -0.32098222 -0.54449016 -0.77492
vn -0.5930978 -0.5444902 -0.59309804
vn -0.77491975 -0.5444903 -0.32098237
vn -0.8387672 -0.5444903 -2.7073756E-07
vn -0.6650953 -0.69408417 0.27549127
vn -0.50904197 -0.6940842 0.50904155
vn -0.27549183 -0.6940841 0.6650951
vn -4.2611995E-07 -0.69408417 0.7198938
vn 0.27549115 -0.69408417 0.6650953
vn 0.50904155 -0.6940842 0.50904197
vn 0.66509515 -0.69408417 0.27549165
vn 0.71989393 -0.69408417 1.6070805E-07
vn 0.66509527 -0.6940841 -0.2754913
vn 0.50904197 -0.6940842 -0.5090416
vn 0.27549163 -0.69408435 -0.66509503
vn -0 -0.6940843 -0.71989375
vn -0.27549145 -0.6940842 -0.6650952
vn -0.5090417 -0.6940842 -0.5090419
vn -0.66509527 -0.6940841 -0.27549154
vn -0.719894 -0.69408405 -2.897617E-07
vn -0.53185123 -0.81768095 0.22029997
vn -0.40706146 -0.8176809 0.40706122
vn -0.22030032 -0.8176811 0.53185093
vn -3.3340513E-07 -0.81768113 0.57567143
vn 0.22029975 -0.8176811 0.5318512
vn 0.40706122 -0.81768095 0.4070614
vn 0.5318512 -0.8176809 0.22030021
vn 0.5756717 -0.81768095 1.3827861E-07
vn 0.5318513 -0.8176809 -0.22030005
vn 0.4070614 -0.81768084 -0.4070614
vn 0.22030006 -0.81768113 -0.531851
vn -0 -0.8176811 -0.57567143
vn -0.22029993 -0.817681 -0.53185123
vn -0.40706125 -0.81768095 -0.4070614
vn -0.53185123 -0.81768095 -0.22029997
vn -0.5756717 -0.81768095 -1.2137798E-07
vn -0.38222992 -0.91040295 0.15832484
vn -0.29254624 -0.91040295 0.29254603
vn -0.15832499 -0.910403 0.38222975
vn -1.9680716E-07 -0.910403 0.4137226
vn 0.15832455 -0.91040295 0.38223
vn 0.29254586 -0.91040295 0.29254627
vn 0.38222983 -0.91040295 0.15832505
vn 0.41372266 -0.91040295 0
vn 0.38222995 -0.9104029 -0.15832497
vn 0.29254615 -0.91040295 -0.2925462
vn 0.15832494 -0.91040295 -0.38222992
vn -0 -0.91040295 -0.4137227
vn -0.15832478 -0.91040295 -0.38223
vn -0.29254603 -0.91040295 -0.29254612
vn -0.38222986 -0.91040295 -0.15832476
vn -0.41372266 -0.91040295 0
vn -0.23181565 -0.96800905 0.0960212
vn -0.17742407 -0.96800905 0.17742386
vn -0.096021295 -0.96800905 0.23181553
vn -1.3209593E-07 -0.96800905 0.25091523
vn 0.09602104 -0.96800905 0.23181562
vn 0.17742388 -0.968009 0.17742419
vn 0.23181559 -0.968009 0.09602151
vn 0.25091538 -0.96800905 2.0692863E-07
vn 0.23181559 -0.96800905 -0.09602133
vn 0.17742406 -0.968009 -0.17742425
vn 0.09602126 -0.968009 -0.23181573
vn -0 -0.96800905 -0.25091538
vn -0.09602115 -0.96800905 -0.23181531
vn -0.17742394 -0.96800905 -0.17742372
vn -0.23181562 -0.96800905 -0.09602133
vn -0.25091544 -0.96800905 -1.259793E-07
vn -0 1 0
vn -0 -1 0
vn -0.9238796 0 0.3826832
vn -0.7071072 0 0.70710635
vn -0.38268378 0 0.92387944
vn -4.1836773E-07 0 1
vn 0.38268277 0 0.9238798
vn 0.7071065 0 0.7071071
vn 0.9238794 0 0.38268384
vn 1 0 3.2074854E-07
vn 0.9238797 0 -0.3826832
vn 0.7071069 0 -0.70710665
vn 0.38268372 0 -0.92387944
vn 2.5799335E-07 0 -1
vn -0.3826833 0 -0.9238796
vn -0.70710665 0 -0.7071069
vn -0.9238795 0 -0.38268346
vn -1 0 -2.5799355E-07
vn -0.9238796 0 0.3826832
vn -0.9068998 -0.1908397 0.37565002
vn -0.8566032 -0.37461466 0.3548165
vn -0.77492 -0.54449016 0.3209821
vn -0.6650953 -0.69408417 0.27549127
vn -0.53185123 -0.81768095 0.22029997
vn -0.38222992 -0.91040295 0.15832484
vn -0.23181565 -0.96800905 0.0960212
vn -0 -1 0
vn -0 -1 0
vn -0 -1 0
vn -0 -1 0
vn -0 -1 0
vn -0 -1 0
vn -0 -1 0
vn -0 -1 0
vn -0 -1 0
vn -0 -1 0
vn -0 -1 0
vn -0 -1 0
vn -0 -1 0
vn -0 -1 0
vn -0 -1 0
g dome_0
f 2/2/2 129/129/129 1/1/1
f 3/3/3 129/129/129 2/2/2
f 4/4/4 129/129/129 3/3/3
f 5/5/5 129/129/129 4/4/4
f 6/6/6 129/129/129 5/5/5
f 7/7/7 129/129/129 6/6/6
f 8/8/8 129/129/129 7/7/7
f 9/9/9 129/129/129 8/8/8
f 10/10/10 129/129/129 9/9/9
f 11/11/11 129/129/129 10/10/10
f 12/12/12 129/129/129 11/11/11
f 13/13/13 129/129/129 12/12/12
f 14/14/14 129/129/129 13/13/13
f 15/15/15 129/129/129 14/14/14
f 16/16/16 129/129/129 15/15/15
f 1/1/1 129/129/129 16/16/16
f 18/18/18 132/132/132 131/131/131
f 17/17/17 18/18/18 131/131/131
f 18/18/18 19/19/19 132/132/132
f 19/19/19 133/133/133 132/132/132
f 19/19/19 20/20/20 133/133/133
f 20/20/20 134/134/134 133/133/133
f 20/20/20 21/21/21 134/134/134
f 21/21/21 135/135/135 134/134/134
f 21/21/21 22/22/22 135/135/135
f 22/22/22 136/136/136 135/135/135
f 22/22/22 23/23/23 136/136/136
f 23/23/23 137/137/137 136/136/136
f 23/23/23 24/24/24 137/137/137
f 24/24/24 138/138/138 137/137/137
f 24/24/24 25/25/25 138/138/138
f 25/25/25 139/139/139 138/138/138
f 25/25/25 26/26/26 139/139/139
f 26/26/26 140/140/140 139/139/139
f 26/26/26 27/27/27 140/140/140
f 27/27/27 141/141/141 140/140/140
f 27/27/27 28/28/28 141/141/141
f 28/28/28 142/142/142 141/141/141
f 28/28/28 29/29/29 142/142/142
f 29/29/29 143/143/143 142/142/142
f 29/29/29 30/30/30 143/143/143
f 30/30/30 144/144/144 143/143/143
f 30/30/30 31/31/31 144/144/144
f 31/31/31 145/145/145 144/144/144
f 31/31/31 32/32/32 145/145/145
f 32/32/32 146/146/146 145/145/145
f 32/32/32 148/148/148 146/146/146
f 148/148/148 147/147/147 146/146/146
f 43/43/43 27/27/27 26/26/26
f 44/44/44 28/28/28 27/27/27
f 43/43/43 44/44/44 27/27/27
f 45/45/45 29/29/29 28/28/28
f 44/44/44 45/45/45 28/28/28
f 46/46/46 30/30/30 29/29/29
f 45/45/45 46/46/46 29/29/29
f 47/47/47 31/31/31 30/30/30
f 46/46/46 47/47/47 30/30/30
f 48/48/48 32/32/32 31/31/31
f 47/47/47 48/48/48 31/31/31
f 149/149/149 148/148/148 32/32/32
f 48/48/48 149/149/149 32/32/32
f 60/60/60 44/44/44 43/43/43
f 59/59/59 60/60/60 43/43/43
f 59/59/59 43/43/43 42/42/42
f 42/42/42 43/43/43 26/26/26
f 42/42/42 26/26/26 25/25/25
f 41/41/41 42/42/42 25/25/25
f 41/41/41 25/25/25 24/24/24
f 40/40/40 41/41/41 24/24/24
f 40/40/40 24/24/24 23/23/23
f 39/39/39 40/40/40 23/23/23
f 39/39/39 23/23/23 22/22/22
f 38/38/38 39/39/39 22/22/22
f 38/38/38 22/22/22 21/21/21
f 37/37/37 38/38/38 21/21/21
f 37/37/37 21/21/21 20/20/20
f 36/36/36 37/37/37 20/20/20
f 36/36/36 20/20/20 19/19/19
f 35/35/35 36/36/36 19/19/19
f 35/35/35 19/19/19 18/18/18
f 34/34/34 35/35/35 18/18/18
f 34/34/34 18/18/18 17/17/17
f 33/33/33 34/34/34 17/17/17
f 50/50/50 34/34/34 33/33/33
f 49/49/49 50/50/50 33/33/33
f 51/51/51 35/35/35 34/34/34
f 50/50/50 51/51/51 34/34/34
f 52/52/52 36/36/36 35/35/35
f 51/51/51 52/52/52 35/35/35
f 53/53/53 37/37/37 36/36/36
f 52/52/52 53/53/53 36/36/36
f 54/54/54 38/38/38 37/37/37
f 53/53/53 54/54/54 37/37/37
f 66/66/66 50/50/50 49/49/49
f 65/65/65 66/66/66 49/49/49
f 67/67/67 51/51/51 50/50/50
f 66/66/66 67/67/67 50/50/50
f 68/68/68 52/52/52 51/51/51
f 67/67/67 68/68/68 51/51/51
f 69/69/69 53/53/53 52/52/52
f 68/68/68 69/69/69 52/52/52
f 70/70/70 54/54/54 53/53/53
f 69/69/69 70/70/70 53/53/53
f 70/70/70 71/71/71 54/54/54
f 71/71/71 55/55/55 54/54/54
f 54/54/54 55/55/55 38/38/38
f 55/55/55 39/39/39 38/38/38
f 55/55/55 56/56/56 39/39/39
f 56/56/56 40/40/40 39/39/39
f 56/56/56 57/57/57 40/40/40
f 57/57/57 41/41/41 40/40/40
f 57/57/57 58/58/58 41/41/41
f 58/58/58 42/42/42 41/41/41
f 58/58/58 59/59/59 42/42/42
f 72/72/72 56/56/56 55/55/55
f 71/71/71 72/72/72 55/55/55
f 73/73/73 57/57/57 56/56/56
f 72/72/72 73/73/73 56/56/56
f 74/74/74 58/58/58 57/57/57
f 73/73/73 74/74/74 57/57/57
f 75/75/75 59/59/59 58/58/58
f 74/74/74 75/75/75 58/58/58
f 75/75/75 76/76/76 59/59/59
f 76/76/76 60/60/60 59/59/59
f 76/76/76 77/77/77 60/60/60
f 77/77/77 61/61/61 60/60/60
f 60/60/60 61/61/61 44/44/44
f 61/61/61 45/45/45 44/44/44
f 61/61/61 62/62/62 45/45/45
f 62/62/62 46/46/46 45/45/45
f 62/62/62 63/63/63 46/46/46
f 63/63/63 47/47/47 46/46/46
f 63/63/63 64/64/64 47/47/47
f 64/64/64 48/48/48 47/47/47
f 64/64/64 150/150/150 48/48/48
f 150/150/150 149/149/149 48/48/48
f 78/78/78 62/62/62 61/61/61
f 77/77/77 78/78/78 61/61/61
f 79/79/79 63/63/63 62/62/62
f 78/78/78 79/79/79 62/62/62
f 80/80/80 64/64/64 63/63/63
f 79/79/79 80/80/80 63/63/63
f 151/151/151 150/150/150 64/64/64
f 80/80/80 151/151/151 64/64/64
f 94/94/94 78/78/78 77/77/77
f 95/95/95 79/79/79 78/78/78
f 94/94/94 95/95/95 78/78/78
f 96/96/96 80/80/80 79/79/79
f 95/95/95 96/96/96 79/79/79
f 152/152/152 151/151/151 80/80/80
f 96/96/96 152/152/152 80/80/80
f 111/111/111 95/95/95 94/94/94
f 110/110/110 111/111/111 94/94/94
f 110/110/110 94/94/94 93/93/93
f 93/93/93 94/94/94 77/77/77
f 93/93/93 77/77/77 76/76/76
f 92/92/92 93/93/93 76/76/76
f 92/92/92 76/76/76 75/75/75
f 91/91/91 92/92/92 75/75/75
f 91/91/91 75/75/75 74/74/74
f 90/90/90 91/91/91 74/74/74
f 90/90/90 74/74/74 73/73/73
f 89/89/89 90/90/90 73/73/73
f 89/89/89 73/73/73 72/72/72
f 88/88/88 89/89/89 72/72/72
f 88/88/88 72/72/72 71/71/71
f 87/87/87 88/88/88 71/71/71
f 87/87/87 71/71/71 70/70/70
f 86/86/86 87/87/87 70/70/70
f 86/86/86 70/70/70 69/69/69
f 85/85/85 86/86/86 69/69/69
f 85/85/85 69/69/69 68/68/68
f 84/84/84 85/85/85 68/68/68
f 84/84/84 68/68/68 67/67/67
f 83/83/83 84/84/84 67/67/67
f 83/83/83 67/67/67 66/66/66
f 82/82/82 83/83/83 66/66/66
f 82/82/82 66/66/66 65/65/65
f 81/81/81 82/82/82 65/65/65
f 98/98/98 82/82/82 81/81/81
f 97/97/97 98/98/98 81/81/81
f 99/99/99 83/83/83 82/82/82
f 98/98/98 99/99/99 82/82/82
f 100/100/100 84/84/84 83/83/83
f 99/99/99 100/100/100 83/83/83
f 101/101/101 85/85/85 84/84/84
f 100/100/100 101/101/101 84/84/84
f 102/102/102 86/86/86 85/85/85
f 101/101/101 102/102/102 85/85/85
f 114/114/114 98/98/98 97/97/97
f 113/113/113 114/114/114 97/97/97
f 115/115/115 99/99/99 98/98/98
f 114/114/114 115/115/115 98/98/98
f 116/116/116 100/100/100 99/99/99
f 115/115/115 116/116/116 99/99/99
f 117/117/117 101/101/101 100/100/100
f 116/116/116 117/117/117 100/100/100
f 118/118/118 102/102/102 101/101/101
f 117/117/117 118/118/118 101/101/101
f 118/118/118 119/119/119 102/102/102
f 119/119/119 103/103/103 102/102/102
f 102/102/102 103/103/103 86/86/86
f 103/103/103 87/87/87 86/86/86
f 103/103/103 104/104/104 87/87/87
f 104/104/104 88/88/88 87/87/87
f 104/104/104 105/105/105 88/88/88
f 105/105/105 89/89/89 88/88/88
f 105/105/105 106/106/106 89/89/89
f 106/106/106 90/90/90 89/89/89
f 106/106/106 107/107/107 90/90/90
f 107/107/107 91/91/91 90/90/90
f 107/107/107 108/108/108 91/91/91
f 108/108/108 92/92/92 91/91/91
f 108/108/108 109/109/109 92/92/92
f 109/109/109 93/93/93 92/92/92
f 109/109/109 110/110/110 93/93/93
f 120/120/120 104/104/104 103/103/103
f 121/121/121 105/105/105 104/104/104
f 120/120/120 121/121/121 104/104/104
f 122/122/122 106/106/106 105/105/105
f 121/121/121 122/122/122 105/105/105
f 123/123/123 107/107/107 106/106/106
f 122/122/122 123/123/123 106/106/106
f 124/124/124 108/108/108 107/107/107
f 123/123/123 124/124/124 107/107/107
f 125/125/125 109/109/109 108/108/108
f 124/124/124 125/125/125 108/108/108
f 126/126/126 110/110/110 109/109/109
f 125/125/125 126/126/126 109/109/109
f 126/126/126 127/127/127 110/110/110
f 127/127/127 111/111/111 110/110/110
f 127/127/127 128/128/128 111/111/111
f 128/128/128 112/112/112 111/111/111
f 111/111/111 112/112/112 95/95/95
f 112/112/112 96/96/96 95/95/95
f 112/112/112 153/153/153 96/96/96
f 153/153/153 152/152/152 96/96/96
f 154/154/154 153/153/153 112/112/112
f 128/128/128 154/154/154 112/112/112
f 161/161/161 121/121/121 120/120/120
f 162/162/162 122/122/122 121/121/121
f 163/163/163 123/123/123 122/122/122
f 164/164/164 124/124/124 123/123/123
f 165/165/165 125/125/125 124/124/124
f 166/166/166 126/126/126 125/125/125
f 167/167/167 127/127/127 126/126/126
f 168/168/168 128/128/128 127/127/127
f 169/169/169 154/154/154 128/128/128
f 119/119/119 120/120/120 103/103/103
f 160/160/160 120/120/120 119/119/119
f 159/159/159 119/119/119 118/118/118
f 158/158/158 118/118/118 117/117/117
f 157/157/157 117/117/117 116/116/116
f 156/156/156 116/116/116 115/115/115
f 155/155/155 115/115/115 114/114/114
f 130/130/130 114/114/114 113/113/113
