g gym_saucer
v -0.5505635 0.1612316 -0.4000076
v -0.23527446 -0.07598304 -0.170937
v -0.27617824 -0.07598304 -0.084569715
v -0.6472261 0.1612316 -0.21029669
v -0.40000737 0.1612316 -0.5505632
v -0.17093717 -0.07598304 -0.2352748
v -0.21029657 0.1612316 -0.6472258
v -0.08986677 -0.07598304 -0.27658185
v -2.1851754E-08 0.1612316 -0.68053347
v -2.8869287E-08 -0.07598304 -0.29081532
v 0.2102965 0.1612316 -0.6472258
v 0.08986673 -0.07598304 -0.27658197
v 0.4000073 0.1612316 -0.55056304
v 0.17093709 -0.07598304 -0.23527454
v 0.55056304 0.1612316 -0.40000743
v 0.23527445 -0.07598304 -0.17093694
v 0.6472256 0.1612316 -0.21029642
v 0.2761782 -0.07598304 -0.084569715
v 0.6664617 0.16099013 -0.084569715
v -0.6664617 0.16099109 -0.084569715
v -0.6037355 0.09622535 -0.43863934
v -0.7097336 0.09622535 -0.2306063
v -0.31062537 -0.1612316 -0.084569715
v -0.2638418 -0.1612316 -0.19169241
v -0.43863913 0.09622535 -0.60373515
v -0.19169258 -0.1612316 -0.26384202
v -0.23060647 0.09622535 -0.7097333
v -0.10077853 -0.1612316 -0.31016484
v -2.0961611E-08 0.09622535 -0.74625766
v -2.0961606E-08 -0.1612316 -0.32612655
v 0.23060642 0.09622535 -0.7097332
v 0.10077849 -0.1612316 -0.31016484
v 0.43863913 0.09622535 -0.6037351
v 0.1916925 -0.1612316 -0.26384187
v 0.603735 0.09622535 -0.4386392
v 0.26384178 -0.1612316 -0.19169234
v 0.7097331 0.09622535 -0.23060626
v 0.31062537 -0.1612316 -0.084569715
v 0.73092246 0.09611339 -0.084569715
v -0.7309226 0.096114345 -0.084569715
v -0.31062537 -0.1612316 -0.084569715
v -0.27617824 -0.07598304 -0.084569715
v -0.23527446 -0.07598304 -0.170937
v -0.2638418 -0.1612316 -0.19169241
v -0.17093717 -0.07598304 -0.2352748
v -0.19169258 -0.1612316 -0.26384202
v -0.08986677 -0.07598304 -0.27658185
v -0.10077853 -0.1612316 -0.31016484
v -2.8869287E-08 -0.07598304 -0.29081532
v -2.0961606E-08 -0.1612316 -0.32612655
v 0.08986673 -0.07598304 -0.27658197
v 0.10077849 -0.1612316 -0.31016484
v 0.17093709 -0.07598304 -0.23527454
v 0.1916925 -0.1612316 -0.26384187
v 0.23527445 -0.07598304 -0.17093694
v 0.26384178 -0.1612316 -0.19169234
v 0.2761782 -0.07598304 -0.084569715
v 0.31062537 -0.1612316 -0.084569715
v 0.2761782 -0.07598304 -0.084569715
v 0.6664617 0.16099013 -0.084569715
v 0.73092246 0.09611339 -0.084569715
v 0.31062537 -0.1612316 -0.084569715
v -0.6664617 0.16099109 -0.084569715
v -0.27617824 -0.07598304 -0.084569715
v -0.31062537 -0.1612316 -0.084569715
v -0.7309226 0.096114345 -0.084569715
v -0.6472261 0.1612316 -0.21029669
v -0.7097336 0.09622535 -0.2306063
v -0.6037355 0.09622535 -0.43863934
v -0.5505635 0.1612316 -0.4000076
v -0.43863913 0.09622535 -0.60373515
v -0.40000737 0.1612316 -0.5505632
v -0.23060647 0.09622535 -0.7097333
v -0.21029657 0.1612316 -0.6472258
v -2.0961611E-08 0.09622535 -0.74625766
v -2.1851754E-08 0.1612316 -0.68053347
v 0.23060642 0.09622535 -0.7097332
v 0.2102965 0.1612316 -0.6472258
v 0.43863913 0.09622535 -0.6037351
v 0.4000073 0.1612316 -0.55056304
v 0.603735 0.09622535 -0.4386392
v 0.55056304 0.1612316 -0.40000743
v 0.7097331 0.09622535 -0.23060626
v 0.6472256 0.1612316 -0.21029642
v 0.73092246 0.09611339 -0.084569715
v 0.6664617 0.16099013 -0.084569715
v -0.6664617 0.16099109 -0.084569715
v -0.7309226 0.096114345 -0.084569715
v 0.5505635 0.1612316 0.4000076
v 0.23527446 -0.07598304 0.170937
v 0.27617824 -0.07598304 0.084569715
v 0.6472261 0.1612316 0.21029669
v 0.40000737 0.1612316 0.5505632
v 0.17093717 -0.07598304 0.2352748
v 0.21029657 0.1612316 0.6472258
v 0.08986677 -0.07598304 0.27658185
v 2.1851754E-08 0.1612316 0.68053347
v 2.8869287E-08 -0.07598304 0.29081532
v -0.2102965 0.1612316 0.6472258
v -0.08986673 -0.07598304 0.27658197
v -0.4000073 0.1612316 0.55056304
v -0.17093709 -0.07598304 0.23527454
v -0.55056304 0.1612316 0.40000743
v -0.23527445 -0.07598304 0.17093694
v -0.6472256 0.1612316 0.21029642
v -0.2761782 -0.07598304 0.084569715
v -0.6664617 0.16099013 0.084569715
v 0.6664617 0.16099109 0.084569715
v 0.6037355 0.09622535 0.43863934
v 0.7097336 0.09622535 0.2306063
v 0.31062537 -0.1612316 0.084569715
v 0.2638418 -0.1612316 0.19169241
v 0.43863913 0.09622535 0.60373515
v 0.19169258 -0.1612316 0.26384202
v 0.23060647 0.09622535 0.7097333
v 0.10077853 -0.1612316 0.31016484
v 2.0961611E-08 0.09622535 0.74625766
v 2.0961606E-08 -0.1612316 0.32612655
v -0.23060642 0.09622535 0.7097332
v -0.10077849 -0.1612316 0.31016484
v -0.43863913 0.09622535 0.6037351
v -0.1916925 -0.1612316 0.26384187
v -0.603735 0.09622535 0.4386392
v -0.26384178 -0.1612316 0.19169234
v -0.7097331 0.09622535 0.23060626
v -0.31062537 -0.1612316 0.084569715
v -0.73092246 0.09611339 0.084569715
v 0.7309226 0.096114345 0.084569715
v 0.31062537 -0.1612316 0.084569715
v 0.27617824 -0.07598304 0.084569715
v 0.23527446 -0.07598304 0.170937
v 0.2638418 -0.1612316 0.19169241
v 0.17093717 -0.07598304 0.2352748
v 0.19169258 -0.1612316 0.26384202
v 0.08986677 -0.07598304 0.27658185
v 0.10077853 -0.1612316 0.31016484
v 2.8869287E-08 -0.07598304 0.29081532
v 2.0961606E-08 -0.1612316 0.32612655
v -0.08986673 -0.07598304 0.27658197
v -0.10077849 -0.1612316 0.31016484
v -0.17093709 -0.07598304 0.23527454
v -0.1916925 -0.1612316 0.26384187
v -0.23527445 -0.07598304 0.17093694
v -0.26384178 -0.1612316 0.19169234
v -0.2761782 -0.07598304 0.084569715
v -0.31062537 -0.1612316 0.084569715
v -0.2761782 -0.07598304 0.084569715
v -0.6664617 0.16099013 0.084569715
v -0.73092246 0.09611339 0.084569715
v -0.31062537 -0.1612316 0.084569715
v 0.6664617 0.16099109 0.084569715
v 0.27617824 -0.07598304 0.084569715
v 0.31062537 -0.1612316 0.084569715
v 0.7309226 0.096114345 0.084569715
v 0.6472261 0.1612316 0.21029669
v 0.7097336 0.09622535 0.2306063
v 0.6037355 0.09622535 0.43863934
v 0.5505635 0.1612316 0.4000076
v 0.43863913 0.09622535 0.60373515
v 0.40000737 0.1612316 0.5505632
v 0.23060647 0.09622535 0.7097333
v 0.21029657 0.1612316 0.6472258
v 2.0961611E-08 0.09622535 0.74625766
v 2.1851754E-08 0.1612316 0.68053347
v -0.23060642 0.09622535 0.7097332
v -0.2102965 0.1612316 0.6472258
v -0.43863913 0.09622535 0.6037351
v -0.4000073 0.1612316 0.55056304
v -0.603735 0.09622535 0.4386392
v -0.55056304 0.1612316 0.40000743
v -0.7097331 0.09622535 0.23060626
v -0.6472256 0.1612316 0.21029642
v -0.73092246 0.09611339 0.084569715
v -0.6664617 0.16099013 0.084569715
v 0.6664617 0.16099109 0.084569715
v 0.7309226 0.096114345 0.084569715
vt 0.5299137 0.026955813
vt 0.5302641 0.026701227
vt 0.53021854 0.026605234
vt 0.5298063 0.02674497
vt 0.5300811 0.027123138
vt 0.5303355 0.026772723
vt 0.53029186 0.027230576
vt 0.5304256 0.026818633
vt 0.5305255 0.02726759
vt 0.5305255 0.026834458
vt 0.53075916 0.027230576
vt 0.5306254 0.026818633
vt 0.53097016 0.027123138
vt 0.5307155 0.026772723
vt 0.5311374 0.026955813
vt 0.53078705 0.026701227
vt 0.53124493 0.02674497
vt 0.53083247 0.026605234
vt 0.53126615 0.026605234
vt 0.52978486 0.026605234
vt 0.5927331 0.026928673
vt 0.59256595 0.026583627
vt 0.59319556 0.026341416
vt 0.59326935 0.02651909
vt 0.59299374 0.027202494
vt 0.5933832 0.026638756
vt 0.5933218 0.027378306
vt 0.5935266 0.026715586
vt 0.5936855 0.027438894
vt 0.5936855 0.026742058
vt 0.59404933 0.027378306
vt 0.59384453 0.026715586
vt 0.5943774 0.027202494
vt 0.59398794 0.026638752
vt 0.5946379 0.026928673
vt 0.59410167 0.02651909
vt 0.5948051 0.026583627
vt 0.5941756 0.026341416
vt 0.5948385 0.026341416
vt 0.59253246 0.026341416
vt 0.5301804 0.026605234
vt 0.53021854 0.026605234
vt 0.5302641 0.026701227
vt 0.53023225 0.026724294
vt 0.5303355 0.026772723
vt 0.5303125 0.026804477
vt 0.5304256 0.026818633
vt 0.53041345 0.02685596
vt 0.5305255 0.026834458
vt 0.5305255 0.026873708
vt 0.5306254 0.026818633
vt 0.53063744 0.02685596
vt 0.5307155 0.026772723
vt 0.53073853 0.026804477
vt 0.53078705 0.026701227
vt 0.53081876 0.026724294
vt 0.53083247 0.026605234
vt 0.53087074 0.026605234
vt 0.53083247 0.026605234
vt 0.53126615 0.026605234
vt 0.5313378 0.026605234
vt 0.53087074 0.026605234
vt 0.52978486 0.026605234
vt 0.53021854 0.026605234
vt 0.5301804 0.026605234
vt 0.5297132 0.026605234
vt 0.7174316 0.078914955
vt 0.7173384 0.078944586
vt 0.7174965 0.079248
vt 0.7175759 0.07919165
vt 0.7177429 0.0794888
vt 0.7178005 0.07941125
vt 0.71805334 0.0796434
vt 0.7180837 0.07955224
vt 0.71839744 0.07969667
vt 0.71839744 0.07960081
vt 0.71874166 0.0796434
vt 0.7187114 0.07955224
vt 0.7190521 0.0794888
vt 0.7189944 0.07941125
vt 0.7192985 0.079248
vt 0.7192191 0.07919165
vt 0.7194567 0.078944586
vt 0.71936333 0.07891495
vt 0.71948826 0.078731574
vt 0.71939206 0.078731574
vt 0.71740294 0.078731574
vt 0.71730673 0.078731574
vt 0.5311375 0.026066663
vt 0.5307871 0.026321253
vt 0.5308326 0.026417242
vt 0.53124493 0.02627751
vt 0.5309702 0.025899334
vt 0.5307156 0.02624975
vt 0.53075933 0.0257919
vt 0.5306255 0.02620384
vt 0.5305256 0.025754882
vt 0.5305256 0.026188022
vt 0.5302919 0.025791904
vt 0.5304257 0.02620384
vt 0.5300811 0.025899334
vt 0.53033566 0.02624975
vt 0.5299137 0.026066663
vt 0.53026414 0.026321253
vt 0.5298063 0.02627751
vt 0.53021866 0.026417242
vt 0.5297849 0.026417242
vt 0.53126633 0.026417242
vt 0.5311966 0.026023729
vt 0.53131443 0.026254943
vt 0.53087085 0.026417246
vt 0.5308189 0.026298186
vt 0.53101313 0.02584024
vt 0.53073865 0.026217999
vt 0.5307819 0.025722431
vt 0.5306376 0.026166515
vt 0.5305256 0.025681837
vt 0.5305256 0.026148776
vt 0.5302693 0.025722431
vt 0.5304136 0.026166515
vt 0.5300381 0.02584024
vt 0.5303126 0.026217999
vt 0.5298546 0.026023729
vt 0.53023237 0.026298186
vt 0.5297368 0.026254943
vt 0.5301804 0.026417246
vt 0.5297133 0.026417242
vt 0.531338 0.026417242
vt 0.53087085 0.026417246
vt 0.5308326 0.026417242
vt 0.5307871 0.026321253
vt 0.5308189 0.026298186
vt 0.5307156 0.02624975
vt 0.53073865 0.026217999
vt 0.5306255 0.02620384
vt 0.5306376 0.026166515
vt 0.5305256 0.026188022
vt 0.5305256 0.026148776
vt 0.5304257 0.02620384
vt 0.5304136 0.026166515
vt 0.53033566 0.02624975
vt 0.5303126 0.026217999
vt 0.53026414 0.026321253
vt 0.53023237 0.026298186
vt 0.53021866 0.026417242
vt 0.5301804 0.026417246
vt 0.53021866 0.026417242
vt 0.5297849 0.026417242
vt 0.5297133 0.026417242
vt 0.5301804 0.026417246
vt 0.53126633 0.026417242
vt 0.5308326 0.026417242
vt 0.53087085 0.026417246
vt 0.531338 0.026417242
vt 0.7206414 0.08151227
vt 0.72095406 0.0812878
vt 0.7204238 0.07898864
vt 0.72015786 0.07941559
vt 0.7195979 0.07716404
vt 0.7194047 0.07775168
vt 0.7185572 0.07599257
vt 0.7184556 0.07668338
vt 0.7174036 0.07558889
vt 0.7174036 0.07631527
vt 0.71625 0.07599257
vt 0.7163516 0.07668338
vt 0.7152093 0.07716404
vt 0.7154026 0.07775168
vt 0.71438336 0.07898864
vt 0.7146494 0.07941559
vt 0.7138531 0.0812878
vt 0.7141658 0.08151227
vt 0.71374714 0.082901776
vt 0.7140696 0.082901776
vt 0.72073764 0.082901776
vt 0.7210601 0.082901776
vn 0.42160782 0.85477555 0.3026641
vn 0.4219578 0.854778 0.30216917
vn 0.47190478 0.8527887 0.22373508
vn 0.48374742 0.8543449 0.18995576
vn 0.30561233 0.85420346 0.4206394
vn 0.30561236 0.85420346 0.4206394
vn 0.16066979 0.85420346 0.49449125
vn 0.16066964 0.8542035 0.49449128
vn -0 0.8542036 0.5199387
vn -0 0.8542035 0.5199388
vn -0.16067003 0.85420346 0.49449128
vn -0.16066997 0.8542034 0.4944913
vn -0.3056127 0.8542035 0.42063907
vn -0.3056128 0.85420346 0.42063904
vn -0.4216082 0.85477525 0.30266425
vn -0.42195824 0.85477775 0.30216932
vn -0.48374704 0.8543446 0.18995826
vn -0.471905 0.85278815 0.22373658
vn -0.51730657 0.851979 0.08078169
vn 0.5173081 0.85197854 0.08077616
vn -0.42509177 -0.85394007 -0.300139
vn -0.48695338 -0.85345495 -0.18571764
vn -0.47565585 -0.8522093 -0.21792379
vn -0.42581388 -0.85395044 -0.29908395
vn -0.30711702 -0.85263985 -0.42271066
vn -0.30711707 -0.85263985 -0.4227107
vn -0.1614609 -0.85263985 -0.49692616
vn -0.16146079 -0.8526399 -0.49692613
vn -0 -0.85264003 -0.52249885
vn -0 -0.85264 -0.52249885
vn 0.16146111 -0.85263985 -0.49692607
vn 0.16146104 -0.85263985 -0.4969261
vn 0.30711737 -0.85264 -0.42271024
vn 0.30711746 -0.85264 -0.42271018
vn 0.425092 -0.8539398 -0.30013928
vn 0.42581418 -0.8539502 -0.29908416
vn 0.48695296 -0.85345453 -0.18572068
vn 0.47565597 -0.8522089 -0.21792506
vn 0.5206656 -0.8503536 -0.076198526
vn -0.5206671 -0.8503534 -0.0761896
vn 0.8494732 -0.360823 0.38497025
vn 0.8494732 -0.36082298 0.38497028
vn 0.7672807 -0.37453473 0.52058053
vn 0.7662229 -0.37463716 0.52206266
vn 0.5430427 -0.38268417 0.7474339
vn 0.54304284 -0.38268414 0.7474338
vn 0.28549325 -0.3826842 0.87866175
vn 0.28549328 -0.3826842 0.8786617
vn -0 -0.38268444 0.92387915
vn -0 -0.38268447 0.92387915
vn -0.28549474 -0.38268435 0.8786612
vn -0.2854948 -0.38268432 0.8786611
vn -0.54304326 -0.38268414 0.7474335
vn -0.5430432 -0.3826842 0.74743354
vn -0.7672797 -0.37453493 0.5205819
vn -0.76622194 -0.37463737 0.522064
vn -0.84947246 -0.36082315 0.38497165
vn -0.84947246 -0.3608232 0.38497165
vn -0 0 1
vn -0 0 1
vn -0 0 1
vn -0 0 1
vn -0 0 1
vn -0 0 1
vn -0 0 1
vn -0 0 1
vn -0.66219014 0.7098468 -0.24004535
vn -0.66205645 0.7098443 -0.24042118
vn -0.5689107 0.7109792 -0.41333893
vn -0.5689107 0.7109792 -0.413339
vn -0.41333804 0.7109797 -0.5689109
vn -0.41333795 0.71097964 -0.568911
vn -0.21730466 0.7109795 -0.6687951
vn -0.21730468 0.71097946 -0.66879505
vn -0 0.7109789 -0.70321333
vn -0 0.710979 -0.7032133
vn 0.21730466 0.71097946 -0.6687951
vn 0.21730468 0.71097946 -0.66879517
vn 0.41333827 0.7109797 -0.56891066
vn 0.41333824 0.71097976 -0.56891066
vn 0.5689108 0.7109794 -0.41333854
vn 0.56891084 0.71097946 -0.41333848
vn 0.66205645 0.70984447 -0.24042076
vn 0.66219 0.709847 -0.24004507
vn 0.70308 0.7035131 -0.10367116
vn 0.70308 0.70351315 -0.10367116
vn -0.7030797 0.7035134 -0.1036726
vn -0.70307964 0.7035133 -0.103672616
vn -0.42160782 0.85477555 -0.3026641
vn -0.4219578 0.854778 -0.30216917
vn -0.47190478 0.8527887 -0.22373508
vn -0.48374742 0.8543449 -0.18995576
vn -0.30561233 0.85420346 -0.4206394
vn -0.30561236 0.85420346 -0.4206394
vn -0.16066979 0.85420346 -0.49449125
vn -0.16066964 0.8542035 -0.49449128
vn -0 0.8542036 -0.5199387
vn -0 0.8542035 -0.5199388
vn 0.16067003 0.85420346 -0.49449128
vn 0.16066997 0.8542034 -0.4944913
vn 0.3056127 0.8542035 -0.42063907
vn 0.3056128 0.85420346 -0.42063904
vn 0.4216082 0.85477525 -0.30266425
vn 0.42195824 0.85477775 -0.30216932
vn 0.48374704 0.8543446 -0.18995826
vn 0.471905 0.85278815 -0.22373658
vn 0.51730657 0.851979 -0.08078169
vn -0.5173081 0.85197854 -0.08077616
vn 0.42509177 -0.85394007 0.300139
vn 0.48695338 -0.85345495 0.18571764
vn 0.47565585 -0.8522093 0.21792379
vn 0.42581388 -0.85395044 0.29908395
vn 0.30711702 -0.85263985 0.42271066
vn 0.30711707 -0.85263985 0.4227107
vn 0.1614609 -0.85263985 0.49692616
vn 0.16146079 -0.8526399 0.49692613
vn -0 -0.85264003 0.52249885
vn -0 -0.85264 0.52249885
vn -0.16146111 -0.85263985 0.49692607
vn -0.16146104 -0.85263985 0.4969261
vn -0.30711737 -0.85264 0.42271024
vn -0.30711746 -0.85264 0.42271018
vn -0.425092 -0.8539398 0.30013928
vn -0.42581418 -0.8539502 0.29908416
vn -0.48695296 -0.85345453 0.18572068
vn -0.47565597 -0.8522089 0.21792506
vn -0.5206656 -0.8503536 0.076198526
vn 0.5206671 -0.8503534 0.0761896
vn -0.8494732 -0.360823 -0.38497025
vn -0.8494732 -0.36082298 -0.38497028
vn -0.7672807 -0.37453473 -0.52058053
vn -0.7662229 -0.37463716 -0.52206266
vn -0.5430427 -0.38268417 -0.7474339
vn -0.54304284 -0.38268414 -0.7474338
vn -0.28549325 -0.3826842 -0.87866175
vn -0.28549328 -0.3826842 -0.8786617
vn -0 -0.38268444 -0.92387915
vn -0 -0.38268447 -0.92387915
vn 0.28549474 -0.38268435 -0.8786612
vn 0.2854948 -0.38268432 -0.8786611
vn 0.54304326 -0.38268414 -0.7474335
vn 0.5430432 -0.3826842 -0.74743354
vn 0.7672797 -0.37453493 -0.5205819
vn 0.76622194 -0.37463737 -0.522064
vn 0.84947246 -0.36082315 -0.38497165
vn 0.84947246 -0.3608232 -0.38497165
vn -0 0 -1
vn -0 0 -1
vn -0 0 -1
vn -0 0 -1
vn -0 0 -1
vn -0 0 -1
vn -0 0 -1
vn -0 0 -1
vn 0.66219014 0.7098468 0.24004535
vn 0.66205645 0.7098443 0.24042118
vn 0.5689107 0.7109792 0.41333893
vn 0.5689107 0.7109792 0.413339
vn 0.41333804 0.7109797 0.5689109
vn 0.41333795 0.71097964 0.568911
vn 0.21730466 0.7109795 0.6687951
vn 0.21730468 0.71097946 0.66879505
vn -0 0.7109789 0.70321333
vn -0 0.710979 0.7032133
vn -0.21730466 0.71097946 0.6687951
vn -0.21730468 0.71097946 0.66879517
vn -0.41333827 0.7109797 0.56891066
vn -0.41333824 0.71097976 0.56891066
vn -0.5689108 0.7109794 0.41333854
vn -0.56891084 0.71097946 0.41333848
vn -0.66205645 0.70984447 0.24042076
vn -0.66219 0.709847 0.24004507
vn -0.70308 0.7035131 0.10367116
vn -0.70308 0.70351315 0.10367116
vn 0.7030797 0.7035134 0.1036726
vn 0.70307964 0.7035133 0.103672616
g gym_saucer_0
f 3/3/3 2/2/2 1/1/1
f 4/4/4 3/3/3 1/1/1
f 1/1/1 2/2/2 5/5/5
f 2/2/2 6/6/6 5/5/5
f 5/5/5 6/6/6 7/7/7
f 6/6/6 8/8/8 7/7/7
f 7/7/7 8/8/8 9/9/9
f 8/8/8 10/10/10 9/9/9
f 9/9/9 10/10/10 11/11/11
f 10/10/10 12/12/12 11/11/11
f 11/11/11 12/12/12 13/13/13
f 12/12/12 14/14/14 13/13/13
f 13/13/13 14/14/14 15/15/15
f 14/14/14 16/16/16 15/15/15
f 15/15/15 16/16/16 17/17/17
f 16/16/16 18/18/18 17/17/17
f 19/19/19 17/17/17 18/18/18
f 4/4/4 20/20/20 3/3/3
f 23/23/23 22/22/22 21/21/21
f 24/24/24 23/23/23 21/21/21
f 24/24/24 21/21/21 25/25/25
f 26/26/26 24/24/24 25/25/25
f 26/26/26 25/25/25 27/27/27
f 28/28/28 26/26/26 27/27/27
f 28/28/28 27/27/27 29/29/29
f 30/30/30 28/28/28 29/29/29
f 30/30/30 29/29/29 31/31/31
f 32/32/32 30/30/30 31/31/31
f 32/32/32 31/31/31 33/33/33
f 34/34/34 32/32/32 33/33/33
f 34/34/34 33/33/33 35/35/35
f 36/36/36 34/34/34 35/35/35
f 36/36/36 35/35/35 37/37/37
f 38/38/38 36/36/36 37/37/37
f 37/37/37 39/39/39 38/38/38
f 23/23/23 40/40/40 22/22/22
f 43/43/43 42/42/42 41/41/41
f 44/44/44 43/43/43 41/41/41
f 45/45/45 43/43/43 44/44/44
f 46/46/46 45/45/45 44/44/44
f 47/47/47 45/45/45 46/46/46
f 48/48/48 47/47/47 46/46/46
f 49/49/49 47/47/47 48/48/48
f 50/50/50 49/49/49 48/48/48
f 51/51/51 49/49/49 50/50/50
f 52/52/52 51/51/51 50/50/50
f 53/53/53 51/51/51 52/52/52
f 54/54/54 53/53/53 52/52/52
f 55/55/55 53/53/53 54/54/54
f 56/56/56 55/55/55 54/54/54
f 57/57/57 55/55/55 56/56/56
f 58/58/58 57/57/57 56/56/56
f 61/61/61 60/60/60 59/59/59
f 62/62/62 61/61/61 59/59/59
f 65/65/65 64/64/64 63/63/63
f 66/66/66 65/65/65 63/63/63
f 69/69/69 68/68/68 67/67/67
f 70/70/70 69/69/69 67/67/67
f 71/71/71 69/69/69 70/70/70
f 72/72/72 71/71/71 70/70/70
f 73/73/73 71/71/71 72/72/72
f 74/74/74 73/73/73 72/72/72
f 75/75/75 73/73/73 74/74/74
f 76/76/76 75/75/75 74/74/74
f 77/77/77 75/75/75 76/76/76
f 78/78/78 77/77/77 76/76/76
f 79/79/79 77/77/77 78/78/78
f 80/80/80 79/79/79 78/78/78
f 81/81/81 79/79/79 80/80/80
f 82/82/82 81/81/81 80/80/80
f 83/83/83 81/81/81 82/82/82
f 84/84/84 83/83/83 82/82/82
f 85/85/85 83/83/83 84/84/84
f 86/86/86 85/85/85 84/84/84
f 68/68/68 88/88/88 87/87/87
f 67/67/67 68/68/68 87/87/87
f 91/91/91 90/90/90 89/89/89
f 92/92/92 91/91/91 89/89/89
f 89/89/89 90/90/90 93/93/93
f 90/90/90 94/94/94 93/93/93
f 93/93/93 94/94/94 95/95/95
f 94/94/94 96/96/96 95/95/95
f 95/95/95 96/96/96 97/97/97
f 96/96/96 98/98/98 97/97/97
f 97/97/97 98/98/98 99/99/99
f 98/98/98 100/100/100 99/99/99
f 99/99/99 100/100/100 101/101/101
f 100/100/100 102/102/102 101/101/101
f 101/101/101 102/102/102 103/103/103
f 102/102/102 104/104/104 103/103/103
f 103/103/103 104/104/104 105/105/105
f 104/104/104 106/106/106 105/105/105
f 107/107/107 105/105/105 106/106/106
f 92/92/92 108/108/108 91/91/91
f 111/111/111 110/110/110 109/109/109
f 112/112/112 111/111/111 109/109/109
f 112/112/112 109/109/109 113/113/113
f 114/114/114 112/112/112 113/113/113
f 114/114/114 113/113/113 115/115/115
f 116/116/116 114/114/114 115/115/115
f 116/116/116 115/115/115 117/117/117
f 118/118/118 116/116/116 117/117/117
f 118/118/118 117/117/117 119/119/119
f 120/120/120 118/118/118 119/119/119
f 120/120/120 119/119/119 121/121/121
f 122/122/122 120/120/120 121/121/121
f 122/122/122 121/121/121 123/123/123
f 124/124/124 122/122/122 123/123/123
f 124/124/124 123/123/123 125/125/125
f 126/126/126 124/124/124 125/125/125
f 125/125/125 127/127/127 126/126/126
f 111/111/111 128/128/128 110/110/110
f 131/131/131 130/130/130 129/129/129
f 132/132/132 131/131/131 129/129/129
f 133/133/133 131/131/131 132/132/132
f 134/134/134 133/133/133 132/132/132
f 135/135/135 133/133/133 134/134/134
f 136/136/136 135/135/135 134/134/134
f 137/137/137 135/135/135 136/136/136
f 138/138/138 137/137/137 136/136/136
f 139/139/139 137/137/137 138/138/138
f 140/140/140 139/139/139 138/138/138
f 141/141/141 139/139/139 140/140/140
f 142/142/142 141/141/141 140/140/140
f 143/143/143 141/141/141 142/142/142
f 144/144/144 143/143/143 142/142/142
f 145/145/145 143/143/143 144/144/144
f 146/146/146 145/145/145 144/144/144
f 149/149/149 148/148/148 147/147/147
f 150/150/150 149/149/149 147/147/147
f 153/153/153 152/152/152 151/151/151
f 154/154/154 153/153/153 151/151/151
f 157/157/157 156/156/156 155/155/155
f 158/158/158 157/157/157 155/155/155
f 159/159/159 157/157/157 158/158/158
f 160/160/160 159/159/159 158/158/158
f 161/161/161 159/159/159 160/160/160
f 162/162/162 161/161/161 160/160/160
f 163/163/163 161/161/161 162/162/162
f 164/164/164 163/163/163 162/162/162
f 165/165/165 163/163/163 164/164/164
f 166/166/166 165/165/165 164/164/164
f 167/167/167 165/165/165 166/166/166
f 168/168/168 167/167/167 166/166/166
f 169/169/169 167/167/167 168/168/168
f 170/170/170 169/169/169 168/168/168
f 171/171/171 169/169/169 170/170/170
f 172/172/172 171/171/171 170/170/170
f 173/173/173 171/171/171 172/172/172
f 174/174/174 173/173/173 172/172/172
f 156/156/156 176/176/176 175/175/175
f 155/155/155 156/156/156 175/175/175
