g gym_gate
v -1.0006646 -0.16209106 0.093153186
v -0.98352534 -0.16209106 0.093040586
v -0.98733926 -0.16209106 -0.09028064
v -1.0044786 -0.16209106 -0.09016798
v -1.0006647 0.16209106 0.093153186
v -1.0006646 -0.16209106 0.093153186
v -1.0044786 -0.16209106 -0.09016798
v -1.0044786 0.16209106 -0.09016798
v -1.0044786 0.16209106 -0.09016798
v -1.0044786 -0.16209106 -0.09016798
v -0.98733926 -0.16209106 -0.09028064
v -0.98733944 0.16209106 -0.09028058
v -0.98733944 0.16209106 -0.09028058
v -0.98733926 -0.16209106 -0.09028064
v -0.98352534 -0.16209106 0.093040586
v -0.98352534 0.16209106 0.09304052
v -0.98352534 0.16209106 0.09304052
v -0.98352534 -0.16209106 0.093040586
v -1.0006646 -0.16209106 0.093153186
v -1.0006647 0.16209106 0.093153186
v -1.0006647 0.16209106 0.093153186
v -1.0044786 0.16209106 -0.09016798
v -0.98733944 0.16209106 -0.09028058
v -0.98352534 0.16209106 0.09304052
v 0.195092 -0.16209106 1.0006645
v 0.19485602 -0.16209106 0.9835251
v -0.18907593 -0.16209106 0.9873393
v -0.18884018 -0.16209106 1.0044786
v 0.195092 0.16209106 1.0006645
v 0.195092 -0.16209106 1.0006645
v -0.18884018 -0.16209106 1.0044786
v -0.18884018 0.16209106 1.0044786
v -0.18884018 0.16209106 1.0044786
v -0.18884018 -0.16209106 1.0044786
v -0.18907593 -0.16209106 0.9873393
v -0.18907593 0.16209106 0.9873393
v -0.18907593 0.16209106 0.9873393
v -0.18907593 -0.16209106 0.9873393
v 0.19485602 -0.16209106 0.9835251
v 0.19485602 0.16209106 0.9835251
v 0.19485602 0.16209106 0.9835251
v 0.19485602 -0.16209106 0.9835251
v 0.195092 -0.16209106 1.0006645
v 0.195092 0.16209106 1.0006645
v 0.195092 0.16209106 1.0006645
v -0.18884018 0.16209106 1.0044786
v -0.18907593 0.16209106 0.9873393
v 0.19485602 0.16209106 0.9835251
v -0.19509204 -0.16209106 -1.0006646
v -0.19485608 -0.16209106 -0.9835251
v 0.18907592 -0.16209106 -0.98733926
v 0.18884012 -0.16209106 -1.0044786
v -0.19509204 0.16209106 -1.0006646
v -0.19509204 -0.16209106 -1.0006646
v 0.18884012 -0.16209106 -1.0044786
v 0.18884012 0.16209106 -1.0044786
v 0.18884012 0.16209106 -1.0044786
v 0.18884012 -0.16209106 -1.0044786
v 0.18907592 -0.16209106 -0.98733926
v 0.18907592 0.16209106 -0.98733926
v 0.18907592 0.16209106 -0.98733926
v 0.18907592 -0.16209106 -0.98733926
v -0.19485608 -0.16209106 -0.9835251
v -0.19485608 0.16209106 -0.9835251
v -0.19485608 0.16209106 -0.9835251
v -0.19485608 -0.16209106 -0.9835251
v -0.19509204 -0.16209106 -1.0006646
v -0.19509204 0.16209106 -1.0006646
v -0.19509204 0.16209106 -1.0006646
v 0.18884012 0.16209106 -1.0044786
v 0.18907592 0.16209106 -0.98733926
v -0.19485608 0.16209106 -0.9835251
v 1.0006646 -0.16209106 -0.09472499
v 0.9835251 -0.16209106 -0.094612256
v 0.98733926 -0.16209106 0.08870896
v 1.0044786 -0.16209106 0.08859624
v 1.0006646 0.16209106 -0.09472499
v 1.0006646 -0.16209106 -0.09472499
v 1.0044786 -0.16209106 0.08859624
v 1.0044786 0.16209106 0.08859624
v 1.0044786 0.16209106 0.08859624
v 1.0044786 -0.16209106 0.08859624
v 0.98733926 -0.16209106 0.08870896
v 0.98733926 0.16209106 0.08870896
v 0.98733926 0.16209106 0.08870896
v 0.98733926 -0.16209106 0.08870896
v 0.9835251 -0.16209106 -0.094612256
v 0.9835251 0.16209106 -0.094612256
v 0.9835251 0.16209106 -0.094612256
v 0.9835251 -0.16209106 -0.094612256
v 1.0006646 -0.16209106 -0.09472499
v 1.0006646 0.16209106 -0.09472499
v 1.0006646 0.16209106 -0.09472499
v 1.0044786 0.16209106 0.08859624
v 0.98733926 0.16209106 0.08870896
v 0.9835251 0.16209106 -0.094612256
vt 0.5293792 0.026659518
vt 0.5293989 0.026659638
vt 0.52939457 0.026871145
vt 0.52937484 0.026871026
vt 0.5293792 0.026659518
vt 0.5293792 0.026659518
vt 0.52937484 0.026871026
vt 0.52937484 0.026871026
vt 0.52937484 0.026871026
vt 0.52937484 0.026871026
vt 0.52939457 0.026871145
vt 0.52939457 0.026871145
vt 0.52939457 0.026871145
vt 0.52939457 0.026871145
vt 0.5293989 0.026659638
vt 0.5293989 0.026659638
vt 0.5293989 0.026659638
vt 0.5293989 0.026659638
vt 0.5293792 0.026659518
vt 0.5293792 0.026659518
vt 0.5293792 0.026659518
vt 0.52937484 0.026871026
vt 0.52939457 0.026871145
vt 0.5293989 0.026659638
vt 0.53075856 0.025612561
vt 0.5307583 0.025632337
vt 0.5303154 0.025627935
vt 0.53031564 0.025608161
vt 0.53075856 0.025612561
vt 0.53075856 0.025612561
vt 0.53031564 0.025608161
vt 0.53031564 0.025608161
vt 0.53031564 0.025608161
vt 0.53031564 0.025608161
vt 0.5303154 0.025627935
vt 0.5303154 0.025627935
vt 0.5303154 0.025627935
vt 0.5303154 0.025627935
vt 0.5307583 0.025632337
vt 0.5307583 0.025632337
vt 0.5307583 0.025632337
vt 0.5307583 0.025632337
vt 0.53075856 0.025612561
vt 0.53075856 0.025612561
vt 0.53075856 0.025612561
vt 0.53031564 0.025608161
vt 0.5303154 0.025627935
vt 0.5307583 0.025632337
vt 0.5303085 0.027921438
vt 0.53030866 0.02790165
vt 0.53075165 0.02790606
vt 0.5307514 0.027925849
vt 0.5303085 0.027921438
vt 0.5303085 0.027921438
vt 0.5307514 0.027925849
vt 0.5307514 0.027925849
vt 0.5307514 0.027925849
vt 0.5307514 0.027925849
vt 0.53075165 0.02790606
vt 0.53075165 0.02790606
vt 0.53075165 0.02790606
vt 0.53075165 0.02790606
vt 0.53030866 0.02790165
vt 0.53030866 0.02790165
vt 0.53030866 0.02790165
vt 0.53030866 0.02790165
vt 0.5303085 0.027921438
vt 0.5303085 0.027921438
vt 0.5303085 0.027921438
vt 0.5307514 0.027925849
vt 0.53075165 0.02790606
vt 0.53030866 0.02790165
vt 0.5316878 0.02687627
vt 0.5316681 0.026876152
vt 0.5316724 0.026664644
vt 0.5316922 0.026664764
vt 0.5316878 0.02687627
vt 0.5316878 0.02687627
vt 0.5316922 0.026664764
vt 0.5316922 0.026664764
vt 0.5316922 0.026664764
vt 0.5316922 0.026664764
vt 0.5316724 0.026664644
vt 0.5316724 0.026664644
vt 0.5316724 0.026664644
vt 0.5316724 0.026664644
vt 0.5316681 0.026876152
vt 0.5316681 0.026876152
vt 0.5316681 0.026876152
vt 0.5316681 0.026876152
vt 0.5316878 0.02687627
vt 0.5316878 0.02687627
vt 0.5316878 0.02687627
vt 0.5316922 0.026664764
vt 0.5316724 0.026664644
vt 0.5316681 0.026876152
vn -0 -1 0
vn -0 -1 0
vn -0 -1 0
vn -0 -1 0
vn -0.99978364 0 0.02080016
vn -0.99978364 0 0.02080016
vn -0.99978364 0 0.02080016
vn -0.99978364 0 0.02080016
vn -0.006571533 0 -0.9999784
vn -0.006571533 0 -0.9999784
vn -0.006571533 0 -0.9999784
vn -0.006571533 0 -0.9999784
vn 0.99978364 0 -0.020800676
vn 0.99978364 0 -0.020800678
vn 0.99978364 0 -0.020800678
vn 0.99978364 0 -0.020800676
vn 0.0065714996 0 0.9999784
vn 0.0065714996 0 0.9999784
vn 0.0065714996 0 0.9999784
vn 0.0065714996 0 0.9999784
vn -0 1 0
vn -0 1 0
vn -0 1 0
vn -0 1 0
vn -0 -1 1.2011546E-05
vn -0 -1 1.2011546E-05
vn -0 -1 1.2011546E-05
vn -0 -1 1.2011544E-05
vn 0.009934079 0 0.99995065
vn 0.009934079 0 0.99995065
vn 0.009934079 0 0.99995065
vn 0.009934079 0 0.99995065
vn -0.9999054 0 0.013754222
vn -0.9999054 0 0.013754222
vn -0.9999054 0 0.013754222
vn -0.9999054 0 0.013754222
vn -0.009934086 0 -0.99995065
vn -0.009934086 0 -0.99995065
vn -0.009934086 0 -0.99995065
vn -0.009934086 0 -0.99995065
vn 0.9999052 0 -0.013766742
vn 0.9999052 0 -0.013766742
vn 0.9999052 0 -0.013766742
vn 0.9999052 0 -0.013766742
vn -0 1 0
vn -0 1 0
vn -0 1 0
vn -0 1 0
vn -0 -1 5.784981E-06
vn -0 -1 5.784982E-06
vn -0 -1 5.784982E-06
vn -0 -1 5.784981E-06
vn -0.0099337725 0 -0.99995065
vn -0.0099337725 0 -0.99995065
vn -0.0099337725 0 -0.99995065
vn -0.0099337725 0 -0.99995065
vn 0.99990535 0 -0.013756218
vn 0.99990535 0 -0.013756218
vn 0.99990535 0 -0.013756218
vn 0.99990535 0 -0.013756218
vn 0.00993378 0 0.99995065
vn 0.00993378 0 0.99995065
vn 0.00993378 0 0.99995065
vn 0.00993378 0 0.99995065
vn -0.9999052 0 0.013765938
vn -0.9999052 0 0.013765938
vn -0.9999052 0 0.013765938
vn -0.9999052 0 0.013765938
vn -0 1 0
vn -0 1 0
vn -0 1 0
vn -0 1 0
vn -0 -1 0
vn -0 -1 0
vn -0 -1 0
vn -0 -1 0
vn 0.99978364 0 -0.02080066
vn 0.99978364 0 -0.02080066
vn 0.99978364 0 -0.02080066
vn 0.99978364 0 -0.02080066
vn 0.006576649 0 0.99997836
vn 0.006576649 0 0.99997836
vn 0.006576649 0 0.99997836
vn 0.006576649 0 0.99997836
vn -0.99978364 0 0.020801187
vn -0.99978364 0 0.020801187
vn -0.99978364 0 0.020801187
vn -0.99978364 0 0.020801187
vn -0.0065770433 0 -0.99997836
vn -0.0065770433 0 -0.99997836
vn -0.0065770433 0 -0.99997836
vn -0.0065770433 0 -0.99997836
vn -0 1 0
vn -0 1 0
vn -0 1 0
vn -0 1 0
g gym_gate_0
f 3/3/3 2/2/2 1/1/1
f 4/4/4 3/3/3 1/1/1
f 7/7/7 6/6/6 5/5/5
f 8/8/8 7/7/7 5/5/5
f 11/11/11 10/10/10 9/9/9
f 12/12/12 11/11/11 9/9/9
f 15/15/15 14/14/14 13/13/13
f 16/16/16 15/15/15 13/13/13
f 19/19/19 18/18/18 17/17/17
f 20/20/20 19/19/19 17/17/17
f 23/23/23 22/22/22 21/21/21
f 24/24/24 23/23/23 21/21/21
f 27/27/27 26/26/26 25/25/25
f 28/28/28 27/27/27 25/25/25
f 31/31/31 30/30/30 29/29/29
f 32/32/32 31/31/31 29/29/29
f 35/35/35 34/34/34 33/33/33
f 36/36/36 35/35/35 33/33/33
f 39/39/39 38/38/38 37/37/37
f 40/40/40 39/39/39 37/37/37
f 43/43/43 42/42/42 41/41/41
f 44/44/44 43/43/43 41/41/41
f 47/47/47 46/46/46 45/45/45
f 48/48/48 47/47/47 45/45/45
f 51/51/51 50/50/50 49/49/49
f 52/52/52 51/51/51 49/49/49
f 55/55/55 54/54/54 53/53/53
f 56/56/56 55/55/55 53/53/53
f 59/59/59 58/58/58 57/57/57
f 60/60/60 59/59/59 57/57/57
f 63/63/63 62/62/62 61/61/61
f 64/64/64 63/63/63 61/61/61
f 67/67/67 66/66/66 65/65/65
f 68/68/68 67/67/67 65/65/65
f 71/71/71 70/70/70 69/69/69
f 72/72/72 71/71/71 69/69/69
f 75/75/75 74/74/74 73/73/73
f 76/76/76 75/75/75 73/73/73
f 79/79/79 78/78/78 77/77/77
f 80/80/80 79/79/79 77/77/77
f 83/83/83 82/82/82 81/81/81
f 84/84/84 83/83/83 81/81/81
f 87/87/87 86/86/86 85/85/85
f 88/88/88 87/87/87 85/85/85
f 91/91/91 90/90/90 89/89/89
f 92/92/92 91/91/91 89/89/89
f 95/95/95 94/94/94 93/93/93
f 96/96/96 95/95/95 93/93/93
