g mesh_moon
v 0.8974132 0.3717146 1.4603138E-05
v 0.9526687 0.18949592 1.4603138E-05
v 0.7543536 0.22883284 0.26464224
v 0.9713441 1.4603138E-05 1.4603138E-05
v 0.60936713 0.5001006 0.26464224
v 0.8076526 0.5396451 1.4603138E-05
v 0.6868553 0.68685484 1.4603138E-05
v 0.5396456 0.8076521 1.4603138E-05
v 0.37159652 0.6952143 0.26464224
v 0.37171507 0.89741266 1.4603138E-05
v 0.1894964 0.9526682 1.4603138E-05
v 0.7845011 -0.07726604 0.26464224
v 0.9526687 -0.1894964 1.4603138E-05
v 0.31998718 0.17102802 0.44869876
v 0.07726604 0.7845006 0.26464224
v 1.5079975E-05 0.97134364 1.4603138E-05
v 0.69521475 -0.37159652 0.26464224
v 0.8974132 -0.37171507 1.4603138E-05
v 0.8076526 -0.5396456 1.4603138E-05
v 0.50010115 -0.60936713 0.26464224
v 0.6868553 -0.6868553 1.4603138E-05
v 0.5396456 -0.8076526 1.4603138E-05
v 0.37171507 -0.8974132 1.4603138E-05
v 0.34719992 -0.10530883 0.44869876
v -1.4603138E-05 1.4603138E-05 0.48566425
v 0.22883338 -0.7543536 0.26464224
v 0.1894964 -0.9526687 1.4603138E-05
v -1.4603138E-05 -0.9713441 1.4603138E-05
v 0.1710285 -0.31998718 0.44869876
v -0.07726562 -0.7845011 0.26464224
v -0.18949592 -0.9526687 1.4603138E-05
v -0.105308294 -0.34719992 0.44869876
v -0.37159598 -0.69521475 0.26464224
v -0.60936666 -0.50010115 0.26464224
v -0.3717146 -0.8974132 1.4603138E-05
v -0.5396451 -0.8076526 1.4603138E-05
v -0.68685484 -0.6868553 1.4603138E-05
v -0.8076521 -0.5396456 1.4603138E-05
v -0.89741266 -0.37171507 1.4603138E-05
v -0.3199867 -0.1710285 0.44869876
v -0.75435305 -0.22883338 0.26464224
v -0.9526682 -0.1894964 1.4603138E-05
v -0.97134364 1.4603138E-05 1.4603138E-05
v -0.7845006 0.07726562 0.26464224
v -0.9526682 0.18949592 1.4603138E-05
v -0.34719944 0.105308294 0.44869876
v -0.6952143 0.37159598 0.26464224
v -0.5001006 0.60936666 0.26464224
v -0.89741266 0.3717146 1.4603138E-05
v -0.8076521 0.5396451 1.4603138E-05
v -0.68685484 0.68685484 1.4603138E-05
v -0.5396451 0.8076521 1.4603138E-05
v -0.3717146 0.89741266 1.4603138E-05
v -0.17102802 0.3199867 0.44869876
v -0.22883284 0.75435305 0.26464224
v -0.18949592 0.9526682 1.4603138E-05
v 0.10530883 0.34719944 0.44869876
vt 0.05798786 0.3171146
vt 0.030859068 0.40692025
vt 0.20579301 0.41066217
vt 0.021504313 0.49953234
vt 0.26192153 0.30495343
vt 0.10195521 0.23385727
vt 0.16182566 0.16182566
vt 0.23385727 0.10195521
vt 0.3545336 0.22824442
vt 0.3171146 0.05798786
vt 0.40692025 0.030859068
vt 0.19363183 0.530403
vt 0.030859068 0.5930799
vt 0.36950123 0.43030715
vt 0.46959713 0.19363183
vt 0.5004678 0.021504313
vt 0.22824442 0.64546657
vt 0.05798786 0.6828855
vt 0.10195521 0.76614285
vt 0.30495343 0.7380786
vt 0.16182566 0.83817446
vt 0.23385727 0.89804494
vt 0.3171146 0.9420123
vt 0.35827553 0.5425643
vt 0.49953234 0.5004678
vt 0.41066217 0.7942071
vt 0.40692025 0.9691411
vt 0.49953234 0.97849584
vt 0.43030715 0.6304989
vt 0.530403 0.80636835
vt 0.5930799 0.9691411
vt 0.5425643 0.6417246
vt 0.64546657 0.7717557
vt 0.7380786 0.6950468
vt 0.6828855 0.9420123
vt 0.76614285 0.89804494
vt 0.83817446 0.83817446
vt 0.89804494 0.76614285
vt 0.9420123 0.6828855
vt 0.6304989 0.56969297
vt 0.7942071 0.58933794
vt 0.9691411 0.5930799
vt 0.97849584 0.5004678
vt 0.80636835 0.46959713
vt 0.9691411 0.40692025
vt 0.6417246 0.45743594
vt 0.7717557 0.3545336
vt 0.6950468 0.26192153
vt 0.9420123 0.3171146
vt 0.89804494 0.23385727
vt 0.83817446 0.16182566
vt 0.76614285 0.10195521
vt 0.6828855 0.05798786
vt 0.56969297 0.36950123
vt 0.58933794 0.20579301
vt 0.5930799 0.030859068
vt 0.45743594 0.35827553
vn 0.75299543 0.31081116 0.5799951
vn 0.8042632 0.16341627 0.57136315
vn 0.63764286 0.19545865 0.7451225
vn 0.81708014 -0.0032040477 0.5765152
vn 0.5158819 0.41975522 0.746774
vn 0.6760937 0.4517975 0.582045
vn 0.57996666 0.579967 0.57208127
vn 0.4517972 0.6825025 0.5745169
vn 0.31081074 0.5863755 0.74803776
vn 0.31081074 0.7529957 0.5799949
vn 0.1570074 0.8042636 0.57315683
vn 0.6632768 -0.067288816 0.7453429
vn 0.8042632 -0.1570074 0.5731574
vn 0.24031758 0.12496543 0.9626168
vn 0.067288816 0.66327715 0.7453426
vn 0.0032040477 0.8170805 0.5765147
vn 0.5863751 -0.31081074 0.74803805
vn 0.75299543 -0.31081074 0.5799953
vn 0.6825022 -0.4517972 0.57451725
vn 0.4197548 -0.5158819 0.74677426
vn 0.57996666 -0.57996666 0.5720816
vn 0.4517972 -0.6760937 0.5820452
vn 0.31081074 -0.75299543 0.5799953
vn 0.259543 -0.08010572 0.96240354
vn 0.0032040477 0.0032044053 0.99998975
vn 0.19545823 -0.63764286 0.7451226
vn 0.16341591 -0.8042632 0.5713632
vn -0.0032044053 -0.81708014 0.5765152
vn 0.12496507 -0.24031758 0.9626168
vn -0.06728917 -0.6632768 0.7453429
vn -0.15700775 -0.8042632 0.5731573
vn -0.08010608 -0.259543 0.9624035
vn -0.31081116 -0.5863751 0.7480379
vn -0.51588225 -0.4197548 0.746774
vn -0.31081116 -0.75299543 0.5799951
vn -0.4517975 -0.6825022 0.57451695
vn -0.579967 -0.57996666 0.5720812
vn -0.67609406 -0.4517972 0.58204484
vn -0.7529957 -0.31081074 0.5799949
vn -0.24031794 -0.12496507 0.96261674
vn -0.6376432 -0.19545823 0.74512225
vn -0.8042636 -0.16341591 0.5713627
vn -0.8170805 0.0032044053 0.57651466
vn -0.66327715 0.06728917 0.7453426
vn -0.8042636 0.15700775 0.5731567
vn -0.2595433 0.08010608 0.9624034
vn -0.5863755 0.31081116 0.7480376
vn -0.41975522 0.51588225 0.7467738
vn -0.7529957 0.31081116 0.5799947
vn -0.6825025 0.4517975 0.5745166
vn -0.579967 0.579967 0.57208085
vn -0.4517975 0.67609406 0.58204454
vn -0.31081116 0.7529957 0.5799947
vn -0.12496543 0.24031794 0.9626167
vn -0.19545865 0.6376432 0.74512213
vn -0.16341627 0.8042636 0.5713626
vn 0.08010572 0.2595433 0.9624034
g mesh_moon_0
f 3/3/3 2/2/2 1/1/1
f 4/4/4 2/2/2 3/3/3
f 5/5/5 3/3/3 1/1/1
f 1/1/1 6/6/6 5/5/5
f 5/5/5 6/6/6 7/7/7
f 5/5/5 7/7/7 8/8/8
f 5/5/5 8/8/8 9/9/9
f 9/9/9 8/8/8 10/10/10
f 9/9/9 10/10/10 11/11/11
f 3/3/3 12/12/12 4/4/4
f 12/12/12 13/13/13 4/4/4
f 14/14/14 3/3/3 5/5/5
f 14/14/14 5/5/5 9/9/9
f 11/11/11 15/15/15 9/9/9
f 15/15/15 11/11/11 16/16/16
f 13/13/13 12/12/12 17/17/17
f 17/17/17 18/18/18 13/13/13
f 17/17/17 19/19/19 18/18/18
f 20/20/20 19/19/19 17/17/17
f 20/20/20 21/21/21 19/19/19
f 20/20/20 22/22/22 21/21/21
f 23/23/23 22/22/22 20/20/20
f 24/24/24 12/12/12 3/3/3
f 24/24/24 17/17/17 12/12/12
f 3/3/3 14/14/14 24/24/24
f 20/20/20 17/17/17 24/24/24
f 25/25/25 24/24/24 14/14/14
f 20/20/20 26/26/26 23/23/23
f 26/26/26 27/27/27 23/23/23
f 28/28/28 27/27/27 26/26/26
f 24/24/24 29/29/29 20/20/20
f 29/29/29 26/26/26 20/20/20
f 25/25/25 29/29/29 24/24/24
f 26/26/26 30/30/30 28/28/28
f 30/30/30 26/26/26 29/29/29
f 30/30/30 31/31/31 28/28/28
f 29/29/29 32/32/32 30/30/30
f 25/25/25 32/32/32 29/29/29
f 31/31/31 30/30/30 33/33/33
f 32/32/32 33/33/33 30/30/30
f 34/34/34 33/33/33 32/32/32
f 33/33/33 35/35/35 31/31/31
f 33/33/33 36/36/36 35/35/35
f 34/34/34 36/36/36 33/33/33
f 34/34/34 37/37/37 36/36/36
f 34/34/34 38/38/38 37/37/37
f 39/39/39 38/38/38 34/34/34
f 32/32/32 40/40/40 34/34/34
f 25/25/25 40/40/40 32/32/32
f 34/34/34 41/41/41 39/39/39
f 40/40/40 41/41/41 34/34/34
f 41/41/41 42/42/42 39/39/39
f 43/43/43 42/42/42 41/41/41
f 41/41/41 44/44/44 43/43/43
f 44/44/44 41/41/41 40/40/40
f 44/44/44 45/45/45 43/43/43
f 40/40/40 46/46/46 44/44/44
f 25/25/25 46/46/46 40/40/40
f 45/45/45 44/44/44 47/47/47
f 46/46/46 47/47/47 44/44/44
f 48/48/48 47/47/47 46/46/46
f 47/47/47 49/49/49 45/45/45
f 47/47/47 50/50/50 49/49/49
f 48/48/48 50/50/50 47/47/47
f 48/48/48 51/51/51 50/50/50
f 48/48/48 52/52/52 51/51/51
f 53/53/53 52/52/52 48/48/48
f 25/25/25 54/54/54 46/46/46
f 46/46/46 54/54/54 48/48/48
f 48/48/48 55/55/55 53/53/53
f 54/54/54 55/55/55 48/48/48
f 55/55/55 56/56/56 53/53/53
f 16/16/16 56/56/56 55/55/55
f 55/55/55 15/15/15 16/16/16
f 15/15/15 55/55/55 54/54/54
f 25/25/25 57/57/57 54/54/54
f 54/54/54 57/57/57 15/15/15
f 25/25/25 14/14/14 57/57/57
f 57/57/57 9/9/9 15/15/15
f 9/9/9 57/57/57 14/14/14
