g mesh_razorshell
v -0.13032264 0.2408824 3.3974648E-06
v -3.3974648E-06 0.21918452 -0.07088515
v -3.3974648E-06 0.25777996 3.3974648E-06
v 0.13032597 0.2408824 3.3974648E-06
v -0.14196318 0.19488853 -0.06603408
v -3.3974648E-06 0.12977463 -0.09761676
v -0.22090977 0.1958121 3.3974648E-06
v 0.1419665 0.19488853 -0.06603408
v 0.22091311 0.1958121 3.3974648E-06
v -0.1973648 0.16821784 -0.058828503
v -0.14586025 0.12721714 -0.085113585
v -0.13906068 0.031058371 -0.0858849
v -0.24065912 0.12221384 -0.051957846
v -0.27687973 0.12891197 3.3974648E-06
v -0.25734353 0.027942717 -0.04607162
v -0.2946298 0.02220872 3.3974648E-06
v -0.24141014 -0.059173554 -0.038033843
v -0.26910585 -0.073473066 3.3974648E-06
v -0.19802451 -0.1386073 -0.03590262
v -0.22100109 -0.15684448 3.3974648E-06
v -0.13209867 -0.057732433 -0.075695604
v -3.3974648E-06 -0.06536424 -0.08580369
v -0.15867805 -0.18505782 -0.034563005
v -0.16490936 -0.21270283 3.3974648E-06
v -0.12490323 -0.14115462 -0.059670836
v -0.115647644 -0.21913709 -0.030361444
v -0.10191646 -0.25011086 3.3974648E-06
v -0.062042296 -0.24385928 -0.024556398
v -0.11046165 -0.28426117 3.3974648E-06
v -3.3974648E-06 0.032398015 -0.09850985
v 0.13906398 0.031058371 -0.0858849
v -3.3974648E-06 -0.15469295 -0.065790504
v -0.062793314 -0.28565156 -0.026352733
v -0.09989688 -0.32884434 3.3974648E-06
v 0.14586361 0.12721714 -0.085113585
v 0.19735801 0.16821784 -0.058828503
v 0.24066244 0.12221384 -0.051957846
v 0.2768831 0.12891197 3.3974648E-06
v 0.25734687 0.027942717 -0.04607162
v 0.29463315 0.02220872 3.3974648E-06
v 0.2414033 -0.059173554 -0.038033843
v 0.2691092 -0.073473066 3.3974648E-06
v 0.13209184 -0.057732433 -0.075695604
v 0.19802783 -0.1386073 -0.03590262
v 0.2209943 -0.15684448 3.3974648E-06
v 0.12490657 -0.14115462 -0.059670836
v 0.15867124 -0.18505782 -0.034563005
v 0.16490252 -0.21270283 3.3974648E-06
v 0.11565098 -0.21913709 -0.030361444
v 0.10190967 -0.25011086 3.3974648E-06
v 0.0620355 -0.24385928 -0.024556398
v 0.11046499 -0.28426117 3.3974648E-06
v -3.3974648E-06 -0.24211371 -0.032472372
v 0.06279665 -0.28565156 -0.026352733
v 0.099900216 -0.32884434 3.3974648E-06
v -3.3974648E-06 -0.28744787 -0.03325382
v -3.3974648E-06 -0.3323964 -0.027489364
v 0.06315184 -0.32807302 -0.02206999
v 0.06504965 -0.35740274 3.3974648E-06
v -3.3974648E-06 -0.3704641 3.3974648E-06
v -0.06504631 -0.35740274 3.3974648E-06
v -0.0631485 -0.32807302 -0.02206999
v -0.13032264 0.2408824 3.3974648E-06
v -3.3974648E-06 0.25777996 3.3974648E-06
v -3.3974648E-06 0.21918452 0.070881814
v 0.13032597 0.2408824 3.3974648E-06
v -0.14197332 0.19488853 0.06603074
v -3.3974648E-06 0.12977463 0.097613424
v -0.22090977 0.1958121 3.3974648E-06
v 0.1419665 0.19488853 0.06603074
v 0.22091311 0.1958121 3.3974648E-06
v -0.1973648 0.16821784 0.058835328
v -0.14586025 0.12721714 0.08512041
v -0.13906068 0.031058371 0.08588156
v -0.24065912 0.12221384 0.05196467
v -0.27687973 0.12891197 3.3974648E-06
v -0.25734353 0.027942717 0.04606828
v -0.2946298 0.02220872 3.3974648E-06
v -0.24141014 -0.059173554 0.038030505
v -0.26910585 -0.073473066 3.3974648E-06
v -0.19802451 -0.1386073 0.03589928
v -0.22100109 -0.15684448 3.3974648E-06
v -0.13209867 -0.057732433 0.075692266
v -3.3974648E-06 -0.06536424 0.08581051
v -0.15867805 -0.18505782 0.034559667
v -0.16490936 -0.21270283 3.3974648E-06
v -0.12490323 -0.14115462 0.059667498
v -0.115647644 -0.21913709 0.030358106
v -0.10191646 -0.25011086 3.3974648E-06
v -0.062042296 -0.24385928 0.02455306
v -0.11046165 -0.28426117 3.3974648E-06
v -3.3974648E-06 0.032398015 0.09850651
v 0.13906398 0.031058371 0.08588156
v -3.3974648E-06 -0.15469295 0.0657973
v -0.062793314 -0.28565156 0.026349396
v -0.09989688 -0.32884434 3.3974648E-06
v 0.14586361 0.12721714 0.08512041
v 0.19735801 0.16821784 0.058835328
v 0.24066244 0.12221384 0.05196467
v 0.2768831 0.12891197 3.3974648E-06
v 0.25734687 0.027942717 0.04606828
v 0.29463315 0.02220872 3.3974648E-06
v 0.2414033 -0.059173554 0.038030505
v 0.2691092 -0.073473066 3.3974648E-06
v 0.13209184 -0.057732433 0.075692266
v 0.19802783 -0.1386073 0.03589928
v 0.2209943 -0.15684448 3.3974648E-06
v 0.12490657 -0.14115462 0.059667498
v 0.15867124 -0.18505782 0.034559667
v 0.16490252 -0.21270283 3.3974648E-06
v 0.11565098 -0.21913709 0.030358106
v 0.10190967 -0.25011086 3.3974648E-06
v 0.0620355 -0.24385928 0.02455306
v 0.11046499 -0.28426117 3.3974648E-06
v -3.3974648E-06 -0.24211371 0.032469034
v 0.06279665 -0.28565156 0.026349396
v 0.099900216 -0.32884434 3.3974648E-06
v -3.3974648E-06 -0.28744787 0.03325048
v -3.3974648E-06 -0.3323964 0.027486026
v 0.06315184 -0.32807302 0.022066653
v 0.06504965 -0.35740274 3.3974648E-06
v -3.3974648E-06 -0.3704641 3.3974648E-06
v -0.06504631 -0.35740274 3.3974648E-06
v -0.0631485 -0.32807302 0.022066653
vt 0.43514553 0.9642246
vt 0.30547857 0.9121685
vt 0.30453208 0.98315406
vt 0.17486513 0.96233165
vt 0.43609202 0.8913461
vt 0.30547857 0.8260394
vt 0.5279 0.9140615
vt 0.1758116 0.89039963
vt 0.08211067 0.91122204
vt 0.4872016 0.8686307
vt 0.43703848 0.82698584
vt 0.43325257 0.73991024
vt 0.5269535 0.82698584
vt 0.58184904 0.84118295
vt 0.545883 0.73991024
vt 0.5979391 0.73423135
vt 0.5335789 0.65756696
vt 0.5742772 0.63958395
vt 0.49382693 0.5827955
vt 0.5279 0.5581872
vt 0.4285202 0.6566205
vt 0.30737153 0.6462093
vt 0.45786092 0.5392577
vt 0.47395098 0.50329167
vt 0.4218949 0.5809026
vt 0.418109 0.50518465
vt 0.4143231 0.4654327
vt 0.36889234 0.47584394
vt 0.41716254 0.43325257
vt 0.30642503 0.7389637
vt 0.18054397 0.73801726
vt 0.30737153 0.56291956
vt 0.3669994 0.43798494
vt 0.4039119 0.39160773
vt 0.17391866 0.8250929
vt 0.12375553 0.8667378
vt 0.08495009 0.82414645
vt 0.030054588 0.83739704
vt 0.066967085 0.73612434
vt 0.014911 0.7304455
vt 0.08021772 0.6547275
vt 0.03951933 0.63674456
vt 0.18622282 0.6547275
vt 0.12091611 0.5809026
vt 0.087789506 0.55534774
vt 0.19284815 0.5790096
vt 0.1578286 0.5373647
vt 0.14173853 0.5004523
vt 0.19758052 0.50329167
vt 0.20231289 0.46353975
vt 0.24679717 0.47489744
vt 0.19947346 0.43135965
vt 0.308318 0.4796298
vt 0.24963659 0.43703848
vt 0.2127241 0.39066124
vt 0.308318 0.43893144
vt 0.308318 0.3963401
vt 0.25152954 0.39823303
vt 0.24679717 0.36415997
vt 0.30926448 0.35280228
vt 0.3707853 0.36510643
vt 0.36605293 0.39917952
vt 0.8156282 0.03478696
vt 0.6850147 0.016803948
vt 0.6859612 0.08684304
vt 0.55534774 0.03762638
vt 0.81657463 0.106719
vt 0.68690765 0.17297219
vt 0.9093291 0.08400361
vt 0.5562942 0.110504895
vt 0.46353975 0.08968246
vt 0.8686307 0.12943438
vt 0.81846756 0.17202571
vt 0.8146817 0.25910133
vt 0.9083826 0.17107923
vt 0.9632781 0.15593565
vt 0.92731214 0.25815487
vt 0.9803147 0.26288724
vt 0.9169009 0.34049812
vt 0.9575993 0.35753465
vt 0.877149 0.41526958
vt 0.91122204 0.4398779
vt 0.8108958 0.34144458
vt 0.6897471 0.35280228
vt 0.84118295 0.45975387
vt 0.85727304 0.49571988
vt 0.8052169 0.418109
vt 0.8023775 0.49382693
vt 0.79764515 0.5335789
vt 0.75316083 0.5231676
vt 0.80143106 0.56575894
vt 0.68880063 0.26004782
vt 0.5619731 0.26288724
vt 0.69069356 0.43703848
vt 0.7512679 0.5610266
vt 0.7891269 0.60645735
vt 0.55534774 0.1758116
vt 0.50518465 0.13416675
vt 0.46637917 0.17770456
vt 0.41148368 0.16350745
vt 0.44934264 0.2647802
vt 0.39728656 0.2714055
vt 0.4625933 0.34712344
vt 0.42284137 0.36510643
vt 0.5685984 0.3452305
vt 0.5042382 0.42000195
vt 0.47111157 0.44555676
vt 0.5761702 0.42094842
vt 0.5420971 0.46353975
vt 0.52600706 0.4995058
vt 0.5809026 0.49666634
vt 0.5865814 0.53641826
vt 0.63106567 0.5250606
vt 0.58374196 0.5685984
vt 0.69164 0.51938176
vt 0.6339051 0.56291956
vt 0.5979391 0.6092968
vt 0.6925865 0.5610266
vt 0.693533 0.60267144
vt 0.63579804 0.601725
vt 0.6320122 0.63579804
vt 0.693533 0.6462093
vt 0.7550538 0.6339051
vt 0.75032145 0.6007785
vn -0.285553 0.9583629 -0
vn -0.003921509 0.6313677 -0.7754737
vn -0.003921509 0.99999225 -0.00034526698
vn 0.28555307 0.9583629 -0
vn -0.23921382 0.5999954 -0.76340175
vn -0.003921509 0.1450969 -0.9894097
vn -0.6289734 0.7774267 -0
vn 0.23921388 0.5999954 -0.76340175
vn 0.6289735 0.7774267 -0
vn -0.45097685 0.4901923 -0.74587625
vn -0.19999838 0.12941074 -0.9712124
vn -0.20784152 -0.066666186 -0.9758881
vn -0.59215224 0.23921382 -0.76950145
vn -0.9215615 0.38823223 -0.00038602023
vn -0.59215224 -0.05098003 -0.8042119
vn -0.9982743 -0.058722056 -0
vn -0.5529369 -0.23921388 -0.7981463
vn -0.9215615 -0.38038927 -0.07764286
vn -0.4980353 -0.36470312 -0.7867353
vn -0.8014051 -0.5981219 -0
vn -0.19999838 -0.16862619 -0.9651766
vn -0.003921509 -0.16862619 -0.98567224
vn -0.41176152 -0.49019235 -0.76822126
vn -0.6155679 -0.78808385 -0
vn -0.18431222 -0.2705862 -0.94488734
vn -0.27058613 -0.56078005 -0.78250164
vn -0.7568569 -0.6470539 -0.09213487
vn -0.22352767 -0.2313708 -0.9468384
vn -0.9998079 -0.019604107 -0
vn -0.003921509 -0.05882311 -0.99826074
vn 0.20784158 -0.066666186 -0.9758881
vn -0.003921509 -0.29411542 -0.95576185
vn -0.30980146 -0.0274508 -0.95040494
vn -0.8901892 -0.45097697 -0.064676076
vn 0.1999985 0.12941074 -0.9712124
vn 0.45097697 0.4901923 -0.7458762
vn 0.59215236 0.23921382 -0.7695013
vn 0.9215616 0.38823223 -0
vn 0.59215236 -0.05098003 -0.8042118
vn 0.9982743 -0.05872205 -0
vn 0.552937 -0.23921388 -0.79814625
vn 0.9215616 -0.38038927 -0.07764171
vn 0.1999985 -0.16862619 -0.9651765
vn 0.49803543 -0.36470312 -0.78673524
vn 0.80140513 -0.5981219 -0
vn 0.18431234 -0.2705862 -0.9448873
vn 0.41176158 -0.49019235 -0.7682212
vn 0.615568 -0.78808385 -0
vn 0.2705862 -0.56078005 -0.78250164
vn 0.756857 -0.6470539 -0.09213454
vn 0.22352773 -0.2313708 -0.9468383
vn 0.9998079 -0.019604106 -0
vn -0.003921509 -0.16862619 -0.98567224
vn 0.30980158 -0.0274508 -0.9504049
vn 0.8901893 -0.45097697 -0.06467469
vn -0.003921509 -0.043136954 -0.99906147
vn -0.003921509 -0.3725462 -0.92800534
vn 0.28627235 -0.3333308 -0.89829767
vn 0.38823235 -0.9215616 -0
vn -0.003921509 -0.9999924 -0
vn -0.38823223 -0.9215616 -0
vn -0.2862723 -0.3333308 -0.8982977
vn -0.285553 0.9583629 -0
vn -0.003921509 0.99999225 -0.00034526698
vn -0.003921509 0.6313677 0.7754737
vn 0.28555307 0.9583629 -0
vn -0.23921382 0.5999954 0.76340175
vn -0.003921509 0.1450969 0.9894097
vn -0.6289734 0.7774267 -0
vn 0.23921388 0.5999954 0.76340175
vn 0.6289735 0.7774267 -0
vn -0.45097685 0.4901923 0.74587625
vn -0.19999838 0.12941074 0.9712124
vn -0.20784152 -0.066666186 0.9758881
vn -0.59215224 0.23921382 0.76950145
vn -0.9215615 0.38823223 -0.00038602023
vn -0.59215224 -0.05098003 0.8042119
vn -0.9982743 -0.058722056 -0
vn -0.5529369 -0.23921388 0.7981463
vn -0.9215615 -0.38038927 -0.07764286
vn -0.4980353 -0.36470312 0.7867353
vn -0.8014051 -0.5981219 -0
vn -0.19999838 -0.16862619 0.9651766
vn -0.003921509 -0.16862619 0.98567224
vn -0.41176152 -0.49019235 0.76822126
vn -0.6155679 -0.78808385 -0
vn -0.18431222 -0.2705862 0.94488734
vn -0.27058613 -0.56078005 0.78250164
vn -0.7568569 -0.6470539 -0.09213487
vn -0.22352767 -0.2313708 0.9468384
vn -0.9998079 -0.019604107 -0
vn -0.003921509 -0.05882311 0.99826074
vn 0.20784158 -0.066666186 0.9758881
vn -0.003921509 -0.29411542 0.95576185
vn -0.30980146 -0.0274508 0.95040494
vn -0.8901892 -0.45097697 -0.064676076
vn 0.1999985 0.12941074 0.9712124
vn 0.45097697 0.4901923 0.7458762
vn 0.59215236 0.23921382 0.7695013
vn 0.9215616 0.38823223 -0
vn 0.59215236 -0.05098003 0.8042118
vn 0.9982743 -0.05872205 -0
vn 0.552937 -0.23921388 0.79814625
vn 0.9215616 -0.38038927 -0.07764171
vn 0.1999985 -0.16862619 0.9651765
vn 0.49803543 -0.36470312 0.78673524
vn 0.80140513 -0.5981219 -0
vn 0.18431234 -0.2705862 0.9448873
vn 0.41176158 -0.49019235 0.7682212
vn 0.615568 -0.78808385 -0
vn 0.2705862 -0.56078005 0.78250164
vn 0.756857 -0.6470539 -0.09213454
vn 0.22352773 -0.2313708 0.9468383
vn 0.9998079 -0.019604106 -0
vn -0.003921509 -0.16862619 0.98567224
vn 0.30980158 -0.0274508 0.9504049
vn 0.8901893 -0.45097697 -0.06467469
vn -0.003921509 -0.043136954 0.99906147
vn -0.003921509 -0.3725462 0.92800534
vn 0.28627235 -0.3333308 0.89829767
vn 0.38823235 -0.9215616 -0
vn -0.003921509 -0.9999924 -0
vn -0.38823223 -0.9215616 -0
vn -0.2862723 -0.3333308 0.8982977
g mesh_razorshell_0
f 3/3/3 2/2/2 1/1/1
f 2/2/2 3/3/3 4/4/4
f 2/2/2 5/5/5 1/1/1
f 5/5/5 2/2/2 6/6/6
f 7/7/7 1/1/1 5/5/5
f 8/8/8 2/2/2 4/4/4
f 2/2/2 8/8/8 6/6/6
f 4/4/4 9/9/9 8/8/8
f 10/10/10 7/7/7 5/5/5
f 5/5/5 11/11/11 10/10/10
f 11/11/11 5/5/5 6/6/6
f 11/11/11 6/6/6 12/12/12
f 7/7/7 10/10/10 13/13/13
f 10/10/10 11/11/11 13/13/13
f 13/13/13 11/11/11 12/12/12
f 14/14/14 7/7/7 13/13/13
f 14/14/14 13/13/13 15/15/15
f 15/15/15 13/13/13 12/12/12
f 16/16/16 14/14/14 15/15/15
f 16/16/16 15/15/15 17/17/17
f 15/15/15 12/12/12 17/17/17
f 18/18/18 16/16/16 17/17/17
f 18/18/18 17/17/17 19/19/19
f 20/20/20 18/18/18 19/19/19
f 12/12/12 21/21/21 17/17/17
f 17/17/17 21/21/21 19/19/19
f 21/21/21 12/12/12 22/22/22
f 20/20/20 19/19/19 23/23/23
f 24/24/24 20/20/20 23/23/23
f 21/21/21 25/25/25 19/19/19
f 23/23/23 19/19/19 25/25/25
f 21/21/21 22/22/22 25/25/25
f 24/24/24 23/23/23 26/26/26
f 26/26/26 23/23/23 25/25/25
f 27/27/27 24/24/24 26/26/26
f 26/26/26 28/28/28 27/27/27
f 26/26/26 25/25/25 28/28/28
f 29/29/29 27/27/27 28/28/28
f 12/12/12 30/30/30 22/22/22
f 30/30/30 31/31/31 22/22/22
f 6/6/6 30/30/30 12/12/12
f 30/30/30 6/6/6 31/31/31
f 22/22/22 32/32/32 25/25/25
f 25/25/25 32/32/32 28/28/28
f 33/33/33 29/29/29 28/28/28
f 29/29/29 33/33/33 34/34/34
f 6/6/6 35/35/35 31/31/31
f 8/8/8 35/35/35 6/6/6
f 35/35/35 8/8/8 36/36/36
f 9/9/9 36/36/36 8/8/8
f 35/35/35 36/36/36 37/37/37
f 36/36/36 9/9/9 37/37/37
f 35/35/35 37/37/37 31/31/31
f 9/9/9 38/38/38 37/37/37
f 37/37/37 38/38/38 39/39/39
f 37/37/37 39/39/39 31/31/31
f 38/38/38 40/40/40 39/39/39
f 39/39/39 40/40/40 41/41/41
f 31/31/31 39/39/39 41/41/41
f 40/40/40 42/42/42 41/41/41
f 43/43/43 31/31/31 41/41/41
f 31/31/31 43/43/43 22/22/22
f 41/41/41 42/42/42 44/44/44
f 43/43/43 41/41/41 44/44/44
f 42/42/42 45/45/45 44/44/44
f 22/22/22 43/43/43 46/46/46
f 46/46/46 43/43/43 44/44/44
f 32/32/32 22/22/22 46/46/46
f 44/44/44 45/45/45 47/47/47
f 44/44/44 47/47/47 46/46/46
f 45/45/45 48/48/48 47/47/47
f 47/47/47 48/48/48 49/49/49
f 47/47/47 49/49/49 46/46/46
f 48/48/48 50/50/50 49/49/49
f 46/46/46 49/49/49 51/51/51
f 51/51/51 49/49/49 50/50/50
f 46/46/46 51/51/51 32/32/32
f 50/50/50 52/52/52 51/51/51
f 32/32/32 51/51/51 53/53/53
f 28/28/28 32/32/32 53/53/53
f 28/28/28 53/53/53 33/33/33
f 52/52/52 54/54/54 51/51/51
f 53/53/53 51/51/51 54/54/54
f 54/54/54 52/52/52 55/55/55
f 53/53/53 56/56/56 33/33/33
f 56/56/56 53/53/53 54/54/54
f 33/33/33 56/56/56 57/57/57
f 56/56/56 54/54/54 57/57/57
f 58/58/58 54/54/54 55/55/55
f 54/54/54 58/58/58 57/57/57
f 58/58/58 55/55/55 59/59/59
f 58/58/58 59/59/59 57/57/57
f 59/59/59 60/60/60 57/57/57
f 60/60/60 61/61/61 57/57/57
f 62/62/62 33/33/33 57/57/57
f 61/61/61 62/62/62 57/57/57
f 33/33/33 62/62/62 34/34/34
f 34/34/34 62/62/62 61/61/61
f 65/65/65 64/64/64 63/63/63
f 64/64/64 65/65/65 66/66/66
f 67/67/67 65/65/65 63/63/63
f 65/65/65 67/67/67 68/68/68
f 63/63/63 69/69/69 67/67/67
f 65/65/65 70/70/70 66/66/66
f 70/70/70 65/65/65 68/68/68
f 71/71/71 66/66/66 70/70/70
f 69/69/69 72/72/72 67/67/67
f 73/73/73 67/67/67 72/72/72
f 67/67/67 73/73/73 68/68/68
f 68/68/68 73/73/73 74/74/74
f 72/72/72 69/69/69 75/75/75
f 73/73/73 72/72/72 75/75/75
f 73/73/73 75/75/75 74/74/74
f 69/69/69 76/76/76 75/75/75
f 75/75/75 76/76/76 77/77/77
f 75/75/75 77/77/77 74/74/74
f 76/76/76 78/78/78 77/77/77
f 77/77/77 78/78/78 79/79/79
f 74/74/74 77/77/77 79/79/79
f 78/78/78 80/80/80 79/79/79
f 79/79/79 80/80/80 81/81/81
f 80/80/80 82/82/82 81/81/81
f 83/83/83 74/74/74 79/79/79
f 83/83/83 79/79/79 81/81/81
f 74/74/74 83/83/83 84/84/84
f 81/81/81 82/82/82 85/85/85
f 82/82/82 86/86/86 85/85/85
f 87/87/87 83/83/83 81/81/81
f 81/81/81 85/85/85 87/87/87
f 84/84/84 83/83/83 87/87/87
f 85/85/85 86/86/86 88/88/88
f 85/85/85 88/88/88 87/87/87
f 86/86/86 89/89/89 88/88/88
f 90/90/90 88/88/88 89/89/89
f 87/87/87 88/88/88 90/90/90
f 89/89/89 91/91/91 90/90/90
f 92/92/92 74/74/74 84/84/84
f 93/93/93 92/92/92 84/84/84
f 92/92/92 68/68/68 74/74/74
f 68/68/68 92/92/92 93/93/93
f 94/94/94 84/84/84 87/87/87
f 94/94/94 87/87/87 90/90/90
f 91/91/91 95/95/95 90/90/90
f 95/95/95 91/91/91 96/96/96
f 97/97/97 68/68/68 93/93/93
f 97/97/97 70/70/70 68/68/68
f 70/70/70 97/97/97 98/98/98
f 98/98/98 71/71/71 70/70/70
f 98/98/98 97/97/97 99/99/99
f 71/71/71 98/98/98 99/99/99
f 99/99/99 97/97/97 93/93/93
f 100/100/100 71/71/71 99/99/99
f 100/100/100 99/99/99 101/101/101
f 101/101/101 99/99/99 93/93/93
f 102/102/102 100/100/100 101/101/101
f 102/102/102 101/101/101 103/103/103
f 101/101/101 93/93/93 103/103/103
f 104/104/104 102/102/102 103/103/103
f 93/93/93 105/105/105 103/103/103
f 105/105/105 93/93/93 84/84/84
f 104/104/104 103/103/103 106/106/106
f 103/103/103 105/105/105 106/106/106
f 107/107/107 104/104/104 106/106/106
f 105/105/105 84/84/84 108/108/108
f 105/105/105 108/108/108 106/106/106
f 84/84/84 94/94/94 108/108/108
f 107/107/107 106/106/106 109/109/109
f 109/109/109 106/106/106 108/108/108
f 110/110/110 107/107/107 109/109/109
f 110/110/110 109/109/109 111/111/111
f 111/111/111 109/109/109 108/108/108
f 112/112/112 110/110/110 111/111/111
f 111/111/111 108/108/108 113/113/113
f 111/111/111 113/113/113 112/112/112
f 113/113/113 108/108/108 94/94/94
f 114/114/114 112/112/112 113/113/113
f 113/113/113 94/94/94 115/115/115
f 94/94/94 90/90/90 115/115/115
f 115/115/115 90/90/90 95/95/95
f 116/116/116 114/114/114 113/113/113
f 113/113/113 115/115/115 116/116/116
f 114/114/114 116/116/116 117/117/117
f 118/118/118 115/115/115 95/95/95
f 115/115/115 118/118/118 116/116/116
f 118/118/118 95/95/95 119/119/119
f 116/116/116 118/118/118 119/119/119
f 116/116/116 120/120/120 117/117/117
f 120/120/120 116/116/116 119/119/119
f 117/117/117 120/120/120 121/121/121
f 121/121/121 120/120/120 119/119/119
f 122/122/122 121/121/121 119/119/119
f 123/123/123 122/122/122 119/119/119
f 95/95/95 124/124/124 119/119/119
f 124/124/124 123/123/123 119/119/119
f 124/124/124 95/95/95 96/96/96
f 124/124/124 96/96/96 123/123/123
