g platform_t2_3_boarder_piece3
v -0.6719384 0.07199554 0.9248447
v -0.6651951 -0.048697658 0.9155637
v -0.46030337 -0.048697658 1.0338581
v -0.4649693 0.07199554 1.0443377
v -0.23529309 -0.048697658 1.1069686
v -0.23767851 0.07199554 1.1181891
v 9.5367426E-08 -0.048697658 1.1316968
v 1.9073485E-07 0.07199554 1.1431705
v 0.2352929 -0.048697658 1.1069686
v 0.23767832 0.07199554 1.118189
v 0.46030366 -0.048697658 1.0338581
v 0.4649696 0.07199554 1.0443376
v 0.6651953 -0.048697658 0.9155629
v 0.6719385 0.07199554 0.9248441
v -0.6719384 0.07199554 0.9248447
v -0.4649693 0.07199554 1.0443377
v -0.47846243 0.071994774 1.0746444
v -0.6914382 0.071994774 0.951683
v -0.24457568 0.071994774 1.150639
v -0.23767851 0.07199554 1.1181891
v 9.5367426E-08 0.071994774 1.1763449
v 1.9073485E-07 0.07199554 1.1431705
v 0.24457596 0.071994774 1.1506388
v 0.23767832 0.07199554 1.118189
v 0.47846276 0.071994774 1.0746444
v 0.4649696 0.07199554 1.0443376
v 0.69143814 0.071994774 0.9516827
v 0.6719385 0.07199554 0.9248441
v -0.6730053 -0.09814148 0.92631346
v -0.73475915 -0.09814148 1.0113086
v -0.5084394 -0.09814148 1.1419762
v -0.46570784 -0.09814148 1.0459967
v -0.2598994 -0.09814148 1.2227304
v -0.23805569 -0.09814148 1.1199657
v 9.5367426E-08 -0.09814148 1.2500482
v 9.5367426E-08 -0.09814148 1.1449844
v 0.2598996 -0.09814148 1.2227302
v 0.2380556 -0.09814148 1.1199654
v 0.5084397 -0.09814148 1.1419762
v 0.46570814 -0.09814148 1.0459965
v 0.7347592 -0.09814148 1.0113082
v 0.67300546 -0.09814148 0.9263127
v -0.6730053 -0.09814148 0.92631346
v -0.46570784 -0.09814148 1.0459967
v -0.46030337 -0.048697658 1.0338581
v -0.6651951 -0.048697658 0.9155637
v -0.23529309 -0.048697658 1.1069686
v -0.23805569 -0.09814148 1.1199657
v 9.5367426E-08 -0.048697658 1.1316968
v 9.5367426E-08 -0.09814148 1.1449844
v 0.2352929 -0.048697658 1.1069686
v 0.2380556 -0.09814148 1.1199654
v 0.46030366 -0.048697658 1.0338581
v 0.46570814 -0.09814148 1.0459965
v 0.6651953 -0.048697658 0.9155629
v 0.67300546 -0.09814148 0.9263127
v -0.74074185 -0.05395431 1.019543
v -0.74089074 -0.047339626 1.019748
v -0.5126823 -0.047339626 1.1515062
v -0.5125793 -0.05395431 1.1512748
v -0.2620682 -0.047339626 1.2329341
v -0.26201552 -0.05395431 1.2326863
v 9.5367426E-08 -0.047339626 1.2604798
v 9.5367426E-08 -0.05395431 1.2602266
v 0.26206848 -0.047339626 1.2329339
v 0.2620158 -0.05395431 1.2326862
v 0.51268256 -0.047339626 1.1515062
v 0.5125796 -0.05395431 1.1512746
v 0.74089086 -0.047339626 1.0197476
v 0.7407419 -0.05395431 1.0195427
v -0.73475915 -0.09814148 1.0113086
v -0.74074185 -0.05395431 1.019543
v -0.5125793 -0.05395431 1.1512748
v -0.5084394 -0.09814148 1.1419762
v -0.26201552 -0.05395431 1.2326863
v -0.2598994 -0.09814148 1.2227304
v 9.5367426E-08 -0.05395431 1.2602266
v 9.5367426E-08 -0.09814148 1.2500482
v 0.2620158 -0.05395431 1.2326862
v 0.2598996 -0.09814148 1.2227302
v 0.5125796 -0.05395431 1.1512746
v 0.5084397 -0.09814148 1.1419762
v 0.7407419 -0.05395431 1.0195427
v 0.7347592 -0.09814148 1.0113082
v 0.6927057 0.068936154 0.95342726
v 0.74089086 -0.047339626 1.0197476
v 0.51268256 -0.047339626 1.1515062
v 0.47933975 0.068936154 1.0766144
v 0.26206848 -0.047339626 1.2329339
v 0.24502428 0.068936154 1.152748
v 9.5367426E-08 -0.047339626 1.2604798
v 9.5367426E-08 0.068936154 1.1785015
v -0.2620682 -0.047339626 1.2329341
v -0.2450241 0.068936154 1.1527485
v -0.5126823 -0.047339626 1.1515062
v -0.4793395 0.068936154 1.0766144
v -0.74089074 -0.047339626 1.019748
v -0.69270575 0.068936154 0.95342743
v 0.69143814 0.071994774 0.9516827
v 0.6927057 0.068936154 0.95342726
v 0.47933975 0.068936154 1.0766144
v 0.47846276 0.071994774 1.0746444
v 0.24502428 0.068936154 1.152748
v 0.24457596 0.071994774 1.1506388
v 9.5367426E-08 0.068936154 1.1785015
v 9.5367426E-08 0.071994774 1.1763449
v -0.2450241 0.068936154 1.1527485
v -0.24457568 0.071994774 1.150639
v -0.4793395 0.068936154 1.0766144
v -0.47846243 0.071994774 1.0746444
v -0.69270575 0.068936154 0.95342743
v -0.6914382 0.071994774 0.951683
v -0.6719384 0.07199554 0.9248447
v -0.69270575 0.068936154 0.95342743
v -0.74089074 -0.047339626 1.019748
v -0.6651951 -0.048697658 0.9155637
v -0.74074185 -0.05395431 1.019543
v -0.73475915 -0.09814148 1.0113086
v -0.6730053 -0.09814148 0.92631346
v -0.6914382 0.071994774 0.951683
v 0.6927057 0.068936154 0.95342726
v 0.6719385 0.07199554 0.9248441
v 0.6651953 -0.048697658 0.9155629
v 0.74089086 -0.047339626 1.0197476
v 0.69143814 0.071994774 0.9516827
v 0.7407419 -0.05395431 1.0195427
v 0.67300546 -0.09814148 0.9263127
v 0.7347592 -0.09814148 1.0113082
vt 0.5297788 0.025483353
vt 0.5297862 0.025493668
vt 0.530014 0.025362195
vt 0.5300088 0.02535055
vt 0.5302641 0.02528094
vt 0.5302614 0.02526847
vt 0.53052557 0.025253454
vt 0.53052557 0.025240703
vt 0.53078705 0.02528094
vt 0.53078973 0.02526847
vt 0.53103715 0.025362195
vt 0.53104234 0.02535055
vt 0.53126484 0.025493668
vt 0.53127235 0.025483357
vt 0.5297788 0.025483353
vt 0.5300088 0.02535055
vt 0.5299938 0.025316862
vt 0.5297571 0.025453525
vt 0.53025377 0.025232403
vt 0.5302614 0.02526847
vt 0.53052557 0.025203833
vt 0.53052557 0.025240703
vt 0.53079736 0.025232403
vt 0.53078973 0.02526847
vt 0.53105736 0.025316862
vt 0.53104234 0.02535055
vt 0.53129405 0.025453525
vt 0.53127235 0.025483357
vt 0.7173931 0.07725718
vt 0.71730095 0.077133216
vt 0.7176387 0.07694263
vt 0.71770245 0.07708262
vt 0.7180096 0.07682485
vt 0.7180422 0.076974735
vt 0.71839744 0.076785006
vt 0.71839744 0.07693825
vt 0.7187853 0.07682485
vt 0.7187527 0.076974735
vt 0.7191562 0.07694263
vt 0.7190924 0.07708262
vt 0.7194939 0.077133216
vt 0.7194018 0.077257186
vt 0.7173931 0.07725718
vt 0.71770245 0.07708262
vt 0.7177105 0.07710033
vt 0.7174048 0.07727286
vt 0.7180463 0.07699369
vt 0.7180422 0.076974735
vt 0.71839744 0.07695763
vt 0.71839744 0.07693825
vt 0.71874857 0.07699369
vt 0.7187527 0.076974735
vt 0.7190844 0.07710033
vt 0.7190924 0.07708262
vt 0.7193901 0.07727286
vt 0.7194018 0.077257186
vt 0.77932817 0.076334715
vt 0.77932614 0.076333076
vt 0.7799696 0.07611224
vt 0.77997094 0.076114096
vt 0.7806761 0.07597577
vt 0.7806769 0.07597775
vt 0.78141505 0.0759296
vt 0.78141505 0.07593163
vt 0.78215396 0.07597577
vt 0.78215325 0.07597775
vt 0.7828605 0.07611224
vt 0.78285915 0.076114096
vt 0.78350395 0.076333076
vt 0.783502 0.076334715
vt 0.71730095 0.077133216
vt 0.717292 0.077121206
vt 0.71763253 0.07692907
vt 0.7176387 0.07694263
vt 0.71800643 0.07681033
vt 0.7180096 0.07682485
vt 0.71839744 0.076770164
vt 0.71839744 0.076785006
vt 0.71878844 0.07681033
vt 0.7187853 0.07682485
vt 0.71916234 0.07692907
vt 0.7191562 0.07694263
vt 0.71950287 0.077121206
vt 0.7194939 0.077133216
vt 0.5312954 0.025451588
vt 0.53134835 0.025378736
vt 0.5310949 0.02523241
vt 0.5310583 0.025314676
vt 0.5308166 0.025141979
vt 0.5307979 0.02523006
vt 0.53052557 0.025111387
vt 0.53052557 0.025201438
vt 0.5302345 0.025141979
vt 0.53025323 0.02523006
vt 0.5299562 0.02523241
vt 0.5299928 0.025314676
vt 0.5297028 0.025378736
vt 0.5297557 0.025451588
vt 0.7194293 0.07722018
vt 0.71943116 0.07721764
vt 0.71911275 0.07703797
vt 0.71911144 0.077040836
vt 0.7187631 0.07692692
vt 0.7187624 0.076929994
vt 0.71839744 0.07688936
vt 0.71839744 0.0768925
vt 0.71803176 0.07692692
vt 0.7180325 0.076929994
vt 0.7176821 0.07703797
vt 0.71768343 0.077040836
vt 0.7173637 0.07721764
vt 0.7173656 0.07722018
vt 0.5366142 0.026852787
vt 0.53580534 0.026799798
vt 0.53392863 0.024784967
vt 0.5368768 0.024761438
vt 0.53393435 0.024670348
vt 0.5341675 0.023904711
vt 0.5365726 0.023904711
vt 0.5358547 0.026852787
vt 0.53580534 0.026799798
vt 0.5366142 0.026852787
vt 0.5368768 0.024761438
vt 0.53392863 0.024784967
vt 0.5358547 0.026852787
vt 0.53393435 0.024670348
vt 0.5365726 0.023904711
vt 0.5341675 0.023904711
vn 0.49778256 0.094109185 -0.86218095
vn 0.49778256 0.094109185 -0.86218095
vn 0.40491217 0.09462112 -0.90944654
vn 0.40491226 0.094621114 -0.9094465
vn 0.2069772 0.09462356 -0.9737592
vn 0.20697771 0.094623566 -0.97375906
vn -0 0.09462752 -0.9955128
vn -0 0.09462751 -0.9955128
vn -0.20697652 0.09462281 -0.9737593
vn -0.20697707 0.09462283 -0.9737592
vn -0.40491176 0.09462076 -0.9094468
vn -0.40491185 0.094620764 -0.9094467
vn -0.49778345 0.09410938 -0.86218035
vn -0.4977834 0.09410938 -0.8621805
vn -1.1562206E-05 1 1.9075256E-05
vn -9.3539975E-06 1 1.9075154E-05
vn -9.3539775E-06 1 1.9075156E-05
vn -1.1562206E-05 1 1.9075258E-05
vn -4.781472E-06 1 1.9075082E-05
vn -4.7815E-06 1 1.9075083E-05
vn -0 1 2.8612689E-05
vn -0 1 2.8612727E-05
vn 4.7815015E-06 1 3.8150203E-05
vn 4.7814838E-06 1 3.8150203E-05
vn 9.353965E-06 1 3.8150225E-05
vn 9.353987E-06 1 3.815023E-05
vn 1.1562208E-05 1 3.81504E-05
vn 1.1562208E-05 1 3.81504E-05
vn -0 -1 0
vn -0 -1 0
vn -0 -1 1.8229302E-06
vn -0 -1 1.822902E-06
vn -0 -1 3.098946E-06
vn -0 -1 3.098942E-06
vn -0 -1 1.2760318E-06
vn -0 -1 1.2760312E-06
vn -0 -1 2.552082E-06
vn -0 -1 2.5520553E-06
vn -0 -1 0
vn -0 -1 0
vn -0 -1 -3.6458216E-06
vn -0 -1 -3.6458216E-06
vn 0.4830448 -0.25820196 -0.8366597
vn 0.39280036 -0.25952932 -0.8822428
vn 0.3928004 -0.25952932 -0.8822428
vn 0.48304474 -0.2582019 -0.8366598
vn 0.20078437 -0.25953025 -0.94463205
vn 0.20078449 -0.25953022 -0.944632
vn -0 -0.25953043 -0.9657349
vn -0 -0.25953043 -0.9657349
vn -0.20078401 -0.2595283 -0.94463265
vn -0.20078449 -0.2595283 -0.9446326
vn -0.39280173 -0.25952828 -0.8822425
vn -0.39280176 -0.25952825 -0.8822425
vn -0.48305202 -0.2582043 -0.83665484
vn -0.48305196 -0.25820434 -0.83665484
vn -0.48993847 -0.19964017 0.8485895
vn -0.49964112 -0.038056858 0.86539614
vn -0.406437 -0.03826771 0.9128771
vn -0.39846143 -0.20069617 0.89495784
vn -0.20776027 -0.038267665 0.97743094
vn -0.20368126 -0.20069677 0.9582457
vn 1.2679745E-06 -0.038263053 0.99926776
vn -0 -0.20069653 0.9796535
vn 0.20776731 -0.038267814 0.97742945
vn 0.20368135 -0.20069605 0.9582458
vn 0.40644777 -0.038274754 0.912872
vn 0.39846405 -0.20069632 0.8949566
vn 0.49965382 -0.038064208 0.86538845
vn 0.4899419 -0.19964036 0.84858745
vn -0.4873787 -0.22330065 0.84415567
vn -0.48993847 -0.19964017 0.8485895
vn -0.39846143 -0.20069617 0.89495784
vn -0.39635813 -0.22446927 0.89023244
vn -0.20368126 -0.20069677 0.9582457
vn -0.20260596 -0.22446942 0.9531864
vn -0 -0.20069653 0.9796535
vn -0 -0.2244691 0.9744812
vn 0.20368135 -0.20069605 0.9582458
vn 0.20260486 -0.22446837 0.95318687
vn 0.39846405 -0.20069632 0.8949566
vn 0.3963591 -0.22446851 0.8902322
vn 0.4899419 -0.19964036 0.84858745
vn 0.4873808 -0.22329995 0.84415466
vn 0.4093949 0.5741034 0.70908463
vn 0.40939513 0.5741036 0.70908445
vn 0.33242467 0.5762189 0.7466362
vn 0.33242556 0.5762192 0.7466355
vn 0.16992533 0.5762183 0.799436
vn 0.16992545 0.5762192 0.7994353
vn -0 0.57621694 0.81729674
vn -0 0.5762185 0.8172957
vn -0.16992523 0.5762172 0.79943675
vn -0.16992533 0.57621807 0.79943615
vn -0.3324245 0.57621807 0.7466369
vn -0.33242482 0.57621735 0.74663734
vn -0.40939456 0.57410353 0.7090848
vn -0.409394 0.57410264 0.7090858
vn 0.4093859 0.57409793 0.7090943
vn 0.4093949 0.5741034 0.70908463
vn 0.33242556 0.5762192 0.7466355
vn 0.33243525 0.57623106 0.74662215
vn 0.16992545 0.5762192 0.7994353
vn 0.16993521 0.5762569 0.7994061
vn -0 0.5762185 0.8172957
vn 3.2068785E-06 0.5762871 0.81724733
vn -0.16992533 0.57621807 0.79943615
vn -0.1699313 0.5762528 0.79940975
vn -0.33242482 0.57621735 0.74663734
vn -0.33240587 0.57618755 0.74666876
vn -0.409394 0.57410264 0.7090858
vn -0.4093721 0.57406616 0.7091281
vn -0.809011 -3.197851E-06 -0.5877935
vn -0.809011 -3.1978516E-06 -0.5877935
vn -0.8090109 -3.197851E-06 -0.5877935
vn -0.809011 -3.1978511E-06 -0.5877935
vn -0.80901283 0 -0.5877909
vn -0.80901283 0 -0.58779097
vn -0.80901283 0 -0.587791
vn -0.8089576 1.1747943E-05 -0.587867
vn 0.8090134 0 -0.5877902
vn 0.8090134 0 -0.5877902
vn 0.8090135 0 -0.58779013
vn 0.8090134 0 -0.5877902
vn 0.80891687 2.3494365E-05 -0.58792305
vn 0.80901414 0 -0.5877891
vn 0.8090142 0 -0.5877891
vn 0.80901414 0 -0.5877891
g platform_t2_3_boarder_piece3_0
f 3/3/3 2/2/2 1/1/1
f 4/4/4 3/3/3 1/1/1
f 5/5/5 3/3/3 4/4/4
f 6/6/6 5/5/5 4/4/4
f 7/7/7 5/5/5 6/6/6
f 8/8/8 7/7/7 6/6/6
f 9/9/9 7/7/7 8/8/8
f 10/10/10 9/9/9 8/8/8
f 11/11/11 9/9/9 10/10/10
f 12/12/12 11/11/11 10/10/10
f 13/13/13 11/11/11 12/12/12
f 14/14/14 13/13/13 12/12/12
f 17/17/17 16/16/16 15/15/15
f 18/18/18 17/17/17 15/15/15
f 17/17/17 19/19/19 16/16/16
f 19/19/19 20/20/20 16/16/16
f 19/19/19 21/21/21 20/20/20
f 21/21/21 22/22/22 20/20/20
f 21/21/21 23/23/23 22/22/22
f 23/23/23 24/24/24 22/22/22
f 23/23/23 25/25/25 24/24/24
f 25/25/25 26/26/26 24/24/24
f 25/25/25 27/27/27 26/26/26
f 27/27/27 28/28/28 26/26/26
f 31/31/31 30/30/30 29/29/29
f 32/32/32 31/31/31 29/29/29
f 33/33/33 31/31/31 32/32/32
f 34/34/34 33/33/33 32/32/32
f 35/35/35 33/33/33 34/34/34
f 36/36/36 35/35/35 34/34/34
f 37/37/37 35/35/35 36/36/36
f 38/38/38 37/37/37 36/36/36
f 39/39/39 37/37/37 38/38/38
f 40/40/40 39/39/39 38/38/38
f 41/41/41 39/39/39 40/40/40
f 42/42/42 41/41/41 40/40/40
f 45/45/45 44/44/44 43/43/43
f 46/46/46 45/45/45 43/43/43
f 45/45/45 47/47/47 44/44/44
f 47/47/47 48/48/48 44/44/44
f 47/47/47 49/49/49 48/48/48
f 49/49/49 50/50/50 48/48/48
f 49/49/49 51/51/51 50/50/50
f 51/51/51 52/52/52 50/50/50
f 51/51/51 53/53/53 52/52/52
f 53/53/53 54/54/54 52/52/52
f 53/53/53 55/55/55 54/54/54
f 55/55/55 56/56/56 54/54/54
f 59/59/59 58/58/58 57/57/57
f 60/60/60 59/59/59 57/57/57
f 61/61/61 59/59/59 60/60/60
f 62/62/62 61/61/61 60/60/60
f 63/63/63 61/61/61 62/62/62
f 64/64/64 63/63/63 62/62/62
f 65/65/65 63/63/63 64/64/64
f 66/66/66 65/65/65 64/64/64
f 67/67/67 65/65/65 66/66/66
f 68/68/68 67/67/67 66/66/66
f 69/69/69 67/67/67 68/68/68
f 70/70/70 69/69/69 68/68/68
f 73/73/73 72/72/72 71/71/71
f 74/74/74 73/73/73 71/71/71
f 75/75/75 73/73/73 74/74/74
f 76/76/76 75/75/75 74/74/74
f 77/77/77 75/75/75 76/76/76
f 78/78/78 77/77/77 76/76/76
f 79/79/79 77/77/77 78/78/78
f 80/80/80 79/79/79 78/78/78
f 81/81/81 79/79/79 80/80/80
f 82/82/82 81/81/81 80/80/80
f 83/83/83 81/81/81 82/82/82
f 84/84/84 83/83/83 82/82/82
f 87/87/87 86/86/86 85/85/85
f 88/88/88 87/87/87 85/85/85
f 89/89/89 87/87/87 88/88/88
f 90/90/90 89/89/89 88/88/88
f 91/91/91 89/89/89 90/90/90
f 92/92/92 91/91/91 90/90/90
f 93/93/93 91/91/91 92/92/92
f 94/94/94 93/93/93 92/92/92
f 95/95/95 93/93/93 94/94/94
f 96/96/96 95/95/95 94/94/94
f 97/97/97 95/95/95 96/96/96
f 98/98/98 97/97/97 96/96/96
f 101/101/101 100/100/100 99/99/99
f 102/102/102 101/101/101 99/99/99
f 103/103/103 101/101/101 102/102/102
f 104/104/104 103/103/103 102/102/102
f 105/105/105 103/103/103 104/104/104
f 106/106/106 105/105/105 104/104/104
f 107/107/107 105/105/105 106/106/106
f 108/108/108 107/107/107 106/106/106
f 109/109/109 107/107/107 108/108/108
f 110/110/110 109/109/109 108/108/108
f 111/111/111 109/109/109 110/110/110
f 112/112/112 111/111/111 110/110/110
f 115/115/115 114/114/114 113/113/113
f 116/116/116 115/115/115 113/113/113
f 116/116/116 117/117/117 115/115/115
f 118/118/118 117/117/117 116/116/116
f 119/119/119 118/118/118 116/116/116
f 113/113/113 114/114/114 120/120/120
f 123/123/123 122/122/122 121/121/121
f 124/124/124 123/123/123 121/121/121
f 125/125/125 121/121/121 122/122/122
f 124/124/124 126/126/126 123/123/123
f 127/127/127 123/123/123 126/126/126
f 128/128/128 127/127/127 126/126/126
