g raid_won_icon_mesh
v 1.0592669 0.6935968 0.19832037
v 1.0592669 2.1556022 0.19832037
v 1.0592669 2.1556022 -0.19832037
v 1.0592669 0.6935968 -0.19832037
v 1.0390694 0.6346533 0.19832037
v 1.0390694 0.6346533 -0.19832037
v 1.0293173 2.1986415 -0.19832037
v 1.0293173 2.1986415 0.19832037
v 0.069350906 0.09053938 -0.19832037
v 0.069350906 0.09053938 0.19832037
v -0 2.2153738 0.19832039
v -0 2.2153738 -0.19832037
v 0.96173567 2.2153738 -0.19832037
v 0.96173567 2.2153738 0.19832037
v 1.0293173 2.1986415 -0.19832037
v 1.0293173 2.1986415 0.19832037
v -0.96173567 2.2153738 -0.19832037
v -0.96173567 2.2153738 0.19832037
v -1.0293173 2.1986415 -0.19832037
v -1.0293173 2.1986415 0.19832037
v -0 0.6935968 -0.19832037
v 0.96173567 0.6935968 -0.19832037
v 0.96173567 2.1556022 -0.19832037
v -0 2.1556022 -0.19832037
v 1.0592669 2.1556022 -0.19832037
v 1.0592669 0.6935968 -0.19832037
v 0.96173567 2.2153738 -0.19832037
v -0 2.2153738 -0.19832037
v 1.0293173 2.1986415 -0.19832037
v 1.0390694 0.6346533 -0.19832037
v 2.4387667E-09 0.08321058 -0.19832037
v 0.069350906 0.09053938 -0.19832037
v -0.96173567 2.1556022 -0.19832037
v -0.96173567 0.6935968 -0.19832037
v -1.0592669 2.1556022 -0.19832037
v -1.0592669 0.6935968 -0.19832037
v -0.96173567 2.2153738 -0.19832037
v -1.0293173 2.1986415 -0.19832037
v -1.0390694 0.6346533 -0.19832037
v -0.069350906 0.09053938 -0.19832037
v -2.8554348E-07 0.08321058 0.19832039
v 0.069350906 0.09053938 0.19832037
v 0.069350906 0.09053938 -0.19832037
v 2.4387667E-09 0.08321058 -0.19832037
v 0.9617349 0.6935968 0.19832039
v 1.0592669 0.6935968 0.19832037
v 1.0390694 0.6346533 0.19832037
v 0.96173567 2.1556022 0.19832037
v -0 2.1556022 0.19832037
v -3.0398368E-07 0.6935968 0.19832039
v 1.0592669 2.1556022 0.19832037
v 0.96173567 2.2153738 0.19832037
v 1.0293173 2.1986415 0.19832037
v -0 2.2153738 0.19832039
v -2.8554348E-07 0.08321058 0.19832039
v 0.069350906 0.09053938 0.19832037
v -0.96173567 0.6935968 0.19832037
v -0.96173567 2.1556022 0.19832037
v -1.0592669 0.6935968 0.19832037
v -1.0390694 0.6346533 0.19832037
v -1.0592669 2.1556022 0.19832037
v -0.96173567 2.2153738 0.19832037
v -1.0293173 2.1986415 0.19832037
v -0.069350906 0.09053938 0.19832037
v -1.0592669 0.6935968 0.19832037
v -1.0592669 0.6935968 -0.19832037
v -1.0592669 2.1556022 -0.19832037
v -1.0592669 2.1556022 0.19832037
v -1.0390694 0.6346533 0.19832037
v -1.0390694 0.6346533 -0.19832037
v -1.0293173 2.1986415 -0.19832037
v -1.0293173 2.1986415 0.19832037
v -0.069350906 0.09053938 -0.19832037
v -0.069350906 0.09053938 0.19832037
v -2.8554348E-07 0.08321058 0.19832039
v 2.4387667E-09 0.08321058 -0.19832037
v -0.069350906 0.09053938 -0.19832037
v -0.069350906 0.09053938 0.19832037
v 0.88263154 0.33558017 0.11892918
v 0.88263154 0.60869074 0.11892918
v 0.88263154 0.60869074 -0.11892918
v 0.88263154 0.33558017 -0.11892918
v 0.8658014 0.28646544 0.11892918
v 0.8658014 0.28646544 -0.11892918
v 0.057786472 -0.1669167 -0.11892918
v 0.057786472 -0.1669167 0.11892918
v -0 0.33558017 -0.11892916
v 0.8013637 0.33558017 -0.11892916
v 0.8013637 0.60869074 -0.11892918
v 0.88263154 0.60869074 -0.11892918
v 0.88263154 0.33558017 -0.11892918
v 0.8658014 0.28646544 -0.11892918
v 2.032095E-09 -0.17302327 -0.11892918
v 0.057786472 -0.1669167 -0.11892918
v -0.8013637 0.33558017 -0.11892918
v -0.8013637 0.60869074 -0.11892918
v -0.88263154 0.60869074 -0.11892918
v -0.88263154 0.33558017 -0.11892918
v -0.8658014 0.28646544 -0.11892918
v -0.057786472 -0.1669167 -0.11892918
v 5.0802373E-10 -0.17302327 0.11892918
v 0.057786472 -0.1669167 0.11892918
v 0.057786472 -0.1669167 -0.11892918
v 2.032095E-09 -0.17302327 -0.11892918
v 0.8013637 0.33558017 0.11892918
v 0.88263154 0.33558017 0.11892918
v 0.8658014 0.28646544 0.11892918
v 0.8013637 0.60869074 0.11892918
v -1.625676E-08 0.33558017 0.11892918
v 0.88263154 0.60869074 0.11892918
v 5.0802373E-10 -0.17302327 0.11892918
v 0.057786472 -0.1669167 0.11892918
v -0.8013637 0.33558017 0.11892918
v -0.8013637 0.60869074 0.11892918
v -0.88263154 0.33558017 0.11892918
v -0.8658014 0.28646544 0.11892918
v -0.88263154 0.60869074 0.11892918
v -0.057786472 -0.1669167 0.11892918
v -0.88263154 0.33558017 0.11892918
v -0.88263154 0.33558017 -0.11892918
v -0.88263154 0.60869074 -0.11892918
v -0.88263154 0.60869074 0.11892918
v -0.8658014 0.28646544 0.11892918
v -0.8658014 0.28646544 -0.11892918
v -0.057786472 -0.1669167 -0.11892918
v -0.057786472 -0.1669167 0.11892918
v 5.0802373E-10 -0.17302327 0.11892918
v 2.032095E-09 -0.17302327 -0.11892918
v -0.057786472 -0.1669167 -0.11892918
v -0.057786472 -0.1669167 0.11892918
vt 0.90592957 0.28073633
vt 0.90592957 0.6112751
vt 0.9816855 0.6112751
vt 0.9816855 0.28073633
vt 0.90592957 0.26740998
vt 0.9816855 0.26740998
vt 0.9816855 0.6210059
vt 0.90592957 0.6210059
vt 0.98168564 0.1443935
vt 0.90592957 0.14439338
vt 0.9051938 0.8088593
vt 0.9809497 0.8088593
vt 0.9809497 0.64050853
vt 0.9051938 0.64050853
vt 0.9809497 0.6286783
vt 0.9051938 0.6286783
vt 0.9809497 0.9772101
vt 0.9051938 0.9772101
vt 0.9809497 0.9890403
vt 0.9051938 0.9890403
vt 0.4257326 0.39735344
vt 0.8047942 0.39735344
vt 0.8047942 0.9699094
vt 0.4257326 0.9699094
vt 0.84323585 0.9699094
vt 0.84323585 0.39735344
vt 0.8047942 0.9933178
vt 0.4257326 0.9933178
vt 0.83143127 0.98676485
vt 0.83527493 0.37426972
vt 0.4257326 0.1583114
vt 0.4530667 0.16118148
vt 0.046671048 0.9699094
vt 0.046671048 0.39735344
vt 0.008229423 0.9699094
vt 0.008229423 0.39735344
vt 0.046671048 0.9933178
vt 0.020033972 0.98676485
vt 0.016190369 0.37426972
vt 0.39839834 0.16118148
vt 0.9059297 0.13225347
vt 0.90592957 0.14439338
vt 0.98168564 0.1443935
vt 0.98168564 0.13225353
vt 0.8047941 0.39735344
vt 0.84323585 0.39735344
vt 0.83527493 0.37426972
vt 0.8047942 0.9699094
vt 0.4257326 0.9699094
vt 0.4257325 0.39735344
vt 0.84323585 0.9699094
vt 0.8047942 0.9933178
vt 0.83143127 0.98676485
vt 0.4257326 0.9933178
vt 0.4257325 0.1583114
vt 0.4530667 0.16118148
vt 0.046671048 0.39735344
vt 0.046671048 0.9699094
vt 0.008229423 0.39735344
vt 0.016190369 0.37426972
vt 0.008229423 0.9699094
vt 0.046671048 0.9933178
vt 0.020033972 0.98676485
vt 0.39839834 0.16118148
vt 0.9818804 0.28073633
vt 0.9061246 0.28073633
vt 0.9061246 0.6112751
vt 0.9818804 0.6112751
vt 0.9818804 0.26740998
vt 0.9061246 0.26740998
vt 0.9061246 0.6210059
vt 0.9818804 0.6210059
vt 0.9061246 0.1443935
vt 0.9818804 0.14439332
vt 0.9818803 0.13225329
vt 0.9061245 0.1322537
vt 0.9061246 0.1443935
vt 0.9818804 0.14439332
vt 0.8223506 0.2168659
vt 0.8223506 0.3198982
vt 0.8981559 0.3198982
vt 0.8981559 0.2168659
vt 0.8223506 0.19833708
vt 0.8981559 0.19833708
vt 0.89815575 0.027295813
vt 0.8223506 0.027297124
vt 0.42656398 0.13318801
vt 0.57839334 0.13318801
vt 0.57839334 0.20272999
vt 0.5937909 0.20272999
vt 0.5937909 0.13318801
vt 0.59060204 0.12068193
vt 0.42656398 0.0036826762
vt 0.43751246 0.0052376646
vt 0.27473468 0.13318801
vt 0.27473468 0.20272999
vt 0.2593372 0.20272999
vt 0.2593372 0.13318801
vt 0.26252598 0.12068193
vt 0.4156155 0.0052376646
vt 0.82235 0.010418743
vt 0.8223506 0.027297124
vt 0.89815575 0.027295813
vt 0.8981552 0.01041612
vt 0.57839334 0.13318801
vt 0.5937909 0.13318801
vt 0.59060204 0.12068193
vt 0.57839334 0.20272999
vt 0.42656398 0.13318801
vt 0.5937909 0.20272999
vt 0.42656398 0.0036826762
vt 0.43751246 0.0052376646
vt 0.27473468 0.13318801
vt 0.27473468 0.20272999
vt 0.2593372 0.13318801
vt 0.26252598 0.12068193
vt 0.2593372 0.20272999
vt 0.4156155 0.0052376646
vt 0.89807504 0.2168659
vt 0.8222699 0.2168659
vt 0.8222699 0.3198982
vt 0.89807504 0.3198982
vt 0.89807504 0.19833708
vt 0.8222699 0.19833708
vt 0.8222699 0.027295887
vt 0.89807504 0.027297005
vt 0.8980756 0.010418564
vt 0.82227033 0.010416314
vt 0.8222699 0.027295887
vt 0.89807504 0.027297005
vn 0.99991184 -0.0132788345 0
vn 0.99980205 0.019895945 0
vn 0.99980205 0.019895945 0
vn 0.99991184 -0.0132788345 0
vn 0.52026176 -0.8540068 0
vn 0.52026176 -0.8540068 0
vn 0.8208185 0.57118917 0
vn 0.8208185 0.57118917 0
vn 0.48933724 -0.87209463 0
vn 0.48933724 -0.87209463 0
vn -0 1 0
vn -0 1 0
vn 0.016254235 0.99986786 0
vn 0.016254235 0.99986786 0
vn 0.2403376 0.97068936 0
vn 0.2403376 0.97068936 0
vn -0.016254235 0.99986786 0
vn -0.016254235 0.99986786 0
vn -0.2403376 0.97068936 0
vn -0.2403376 0.97068936 0
vn -0 0 -1
vn -0 0 -1
vn -0 0 -1
vn -0 0 -1
vn -0 0 -1
vn -0 0 -1
vn -0 0 -1
vn -0 0 -1
vn -0 0 -1
vn -0 0 -1
vn -0 0 -1
vn -0 0 -1
vn -0 0 -1
vn -0 0 -1
vn -0 0 -1
vn -0 0 -1
vn -0 0 -1
vn -0 0 -1
vn -0 0 -1
vn -0 0 -1
vn 0.105091624 -0.9944625 0
vn 0.10509162 -0.99446255 0
vn 0.10509162 -0.99446255 0
vn 0.10509162 -0.99446255 0
vn -0 0 1
vn -0 0 1
vn -0 0 1
vn -0 0 1
vn -0 0 1
vn -0 0 1
vn -0 0 1
vn -0 0 1
vn -0 0 1
vn -0 0 1
vn -0 0 1
vn -0 0 1
vn -0 0 1
vn -0 0 1
vn -0 0 1
vn -0 0 1
vn -0 0 1
vn -0 0 1
vn -0 0 1
vn -0 0 1
vn -0.99991184 -0.0132788345 0
vn -0.99991184 -0.0132788345 0
vn -0.99980205 0.019895945 0
vn -0.99980205 0.019895945 0
vn -0.52026176 -0.8540068 0
vn -0.52026176 -0.8540068 0
vn -0.8208185 0.57118917 0
vn -0.8208185 0.57118917 0
vn -0.48933724 -0.87209463 0
vn -0.48933724 -0.87209463 0
vn -0.105092034 -0.9944625 0
vn -0.105092034 -0.9944625 0
vn -0.10509205 -0.9944625 0
vn -0.105092034 -0.9944625 0
vn 0.9986388 -0.052159503 0
vn 1 0 0
vn 1 0 0
vn 0.9986388 -0.052159503 0
vn 0.52026165 -0.8540069 0
vn 0.52026165 -0.8540069 0
vn 0.48933735 -0.8720946 0
vn 0.48933735 -0.8720946 0
vn -0 0 -1
vn -0 0 -1
vn -0 0 -1
vn -0 0 -1
vn -0 0 -1
vn -0 0 -1
vn -0 0 -1
vn -0 0 -1
vn -0 0 -1
vn -0 0 -1
vn -0 0 -1
vn -0 0 -1
vn -0 0 -1
vn -0 0 -1
vn 0.10508959 -0.9944627 0
vn 0.105089605 -0.9944627 0
vn 0.10508957 -0.9944627 0
vn 0.10508957 -0.9944627 0
vn -0 0 1
vn -0 0 1
vn -0 0 1
vn -0 0 1
vn -0 0 1
vn -0 0 1
vn -0 0 1
vn -0 0 1
vn -0 0 1
vn -0 0 1
vn -0 0 1
vn -0 0 1
vn -0 0 1
vn -0 0 1
vn -0.9986388 -0.052159503 0
vn -0.9986388 -0.052159503 0
vn -1 0 0
vn -1 0 0
vn -0.52026165 -0.8540069 0
vn -0.52026165 -0.8540069 0
vn -0.48933735 -0.8720946 0
vn -0.48933735 -0.8720946 0
vn -0.10508959 -0.9944627 0
vn -0.10508957 -0.9944627 0
vn -0.10508957 -0.9944627 0
vn -0.10508959 -0.9944627 0
g raid_won_icon_mesh_0
f 3/3/3 2/2/2 1/1/1
f 4/4/4 3/3/3 1/1/1
f 1/1/1 5/5/5 4/4/4
f 5/5/5 6/6/6 4/4/4
f 3/3/3 7/7/7 2/2/2
f 7/7/7 8/8/8 2/2/2
f 6/6/6 5/5/5 9/9/9
f 5/5/5 10/10/10 9/9/9
f 13/13/13 12/12/12 11/11/11
f 14/14/14 13/13/13 11/11/11
f 15/15/15 13/13/13 14/14/14
f 16/16/16 15/15/15 14/14/14
f 12/12/12 17/17/17 11/11/11
f 17/17/17 18/18/18 11/11/11
f 17/17/17 19/19/19 18/18/18
f 19/19/19 20/20/20 18/18/18
f 23/23/23 22/22/22 21/21/21
f 24/24/24 23/23/23 21/21/21
f 23/23/23 25/25/25 22/22/22
f 25/25/25 26/26/26 22/22/22
f 27/27/27 23/23/23 24/24/24
f 23/23/23 27/27/27 25/25/25
f 28/28/28 27/27/27 24/24/24
f 27/27/27 29/29/29 25/25/25
f 26/26/26 30/30/30 22/22/22
f 22/22/22 30/30/30 31/31/31
f 21/21/21 22/22/22 31/31/31
f 30/30/30 32/32/32 31/31/31
f 33/33/33 24/24/24 21/21/21
f 34/34/34 33/33/33 21/21/21
f 34/34/34 21/21/21 31/31/31
f 35/35/35 33/33/33 34/34/34
f 36/36/36 35/35/35 34/34/34
f 37/37/37 28/28/28 24/24/24
f 33/33/33 37/37/37 24/24/24
f 37/37/37 33/33/33 35/35/35
f 38/38/38 37/37/37 35/35/35
f 39/39/39 36/36/36 34/34/34
f 39/39/39 34/34/34 31/31/31
f 40/40/40 39/39/39 31/31/31
f 43/43/43 42/42/42 41/41/41
f 44/44/44 43/43/43 41/41/41
f 47/47/47 46/46/46 45/45/45
f 45/45/45 46/46/46 48/48/48
f 45/45/45 48/48/48 49/49/49
f 50/50/50 45/45/45 49/49/49
f 46/46/46 51/51/51 48/48/48
f 48/48/48 51/51/51 52/52/52
f 51/51/51 53/53/53 52/52/52
f 48/48/48 52/52/52 54/54/54
f 49/49/49 48/48/48 54/54/54
f 50/50/50 55/55/55 45/45/45
f 45/45/45 55/55/55 56/56/56
f 47/47/47 45/45/45 56/56/56
f 57/57/57 50/50/50 49/49/49
f 55/55/55 50/50/50 57/57/57
f 58/58/58 57/57/57 49/49/49
f 58/58/58 49/49/49 54/54/54
f 59/59/59 57/57/57 58/58/58
f 59/59/59 60/60/60 57/57/57
f 61/61/61 59/59/59 58/58/58
f 61/61/61 58/58/58 62/62/62
f 62/62/62 58/58/58 54/54/54
f 63/63/63 61/61/61 62/62/62
f 57/57/57 60/60/60 64/64/64
f 55/55/55 57/57/57 64/64/64
f 67/67/67 66/66/66 65/65/65
f 68/68/68 67/67/67 65/65/65
f 69/69/69 65/65/65 66/66/66
f 70/70/70 69/69/69 66/66/66
f 71/71/71 67/67/67 68/68/68
f 72/72/72 71/71/71 68/68/68
f 69/69/69 70/70/70 73/73/73
f 74/74/74 69/69/69 73/73/73
f 77/77/77 76/76/76 75/75/75
f 78/78/78 77/77/77 75/75/75
f 81/81/81 80/80/80 79/79/79
f 82/82/82 81/81/81 79/79/79
f 79/79/79 83/83/83 82/82/82
f 83/83/83 84/84/84 82/82/82
f 84/84/84 83/83/83 85/85/85
f 83/83/83 86/86/86 85/85/85
f 89/89/89 88/88/88 87/87/87
f 89/89/89 90/90/90 88/88/88
f 90/90/90 91/91/91 88/88/88
f 91/91/91 92/92/92 88/88/88
f 88/88/88 92/92/92 93/93/93
f 87/87/87 88/88/88 93/93/93
f 92/92/92 94/94/94 93/93/93
f 95/95/95 87/87/87 93/93/93
f 95/95/95 96/96/96 87/87/87
f 97/97/97 96/96/96 95/95/95
f 98/98/98 97/97/97 95/95/95
f 99/99/99 98/98/98 95/95/95
f 99/99/99 95/95/95 93/93/93
f 100/100/100 99/99/99 93/93/93
f 103/103/103 102/102/102 101/101/101
f 104/104/104 103/103/103 101/101/101
f 107/107/107 106/106/106 105/105/105
f 105/105/105 106/106/106 108/108/108
f 105/105/105 108/108/108 109/109/109
f 106/106/106 110/110/110 108/108/108
f 109/109/109 111/111/111 105/105/105
f 105/105/105 111/111/111 112/112/112
f 107/107/107 105/105/105 112/112/112
f 111/111/111 109/109/109 113/113/113
f 114/114/114 113/113/113 109/109/109
f 115/115/115 113/113/113 114/114/114
f 115/115/115 116/116/116 113/113/113
f 117/117/117 115/115/115 114/114/114
f 113/113/113 116/116/116 118/118/118
f 111/111/111 113/113/113 118/118/118
f 121/121/121 120/120/120 119/119/119
f 122/122/122 121/121/121 119/119/119
f 123/123/123 119/119/119 120/120/120
f 124/124/124 123/123/123 120/120/120
f 123/123/123 124/124/124 125/125/125
f 126/126/126 123/123/123 125/125/125
f 129/129/129 128/128/128 127/127/127
f 130/130/130 129/129/129 127/127/127
