g ribbon
v 3.3855524 0.48677582 3.316079
v 1.0917141 0.19532661 3.4166296
v 1.5790057 0.4833819 3.9908717
v 2.6077192 0.15874662 2.6266959
v 0.7205769 0.07380066 2.9597251
v 2.015919 0.049119238 2.0191045
v 0.02547968 -0.06901256 1.9074682
v 0.9424484 -0.104321204 0.7367211
v -0.84318537 -0.1364112 0.6607858
v 0.124021694 -0.15476139 -0.42376277
v -1.362136 -0.123621844 -0.6665304
v -0.4223648 -0.13014384 -1.3042139
v -1.6215328 -0.04863352 -1.623856
v -0.77176625 -0.07763787 -1.9689846
v -1.6313187 0.03849549 -1.9193786
v -1.0160426 0.034601834 -2.71441
v -1.6218199 0.12864363 -2.1520054
v -1.2466358 0.19857393 -3.3877897
v -1.3837507 0.39428264 -2.6109588
v -1.2466358 0.19857393 -3.3877897
v -1.6218199 0.12864363 -2.1520054
v -1.1965595 0.3665734 -3.7694423
v -0.81342816 0.558153 -2.8516765
v -1.0523918 0.4756747 -3.8882556
v -0.309843 0.6322829 -3.0032098
v -0.6510146 0.6677973 -4.116334
v -0.011856079 0.6361813 -3.0250876
v -0.011856788 0.73732144 -4.187106
v -3.3804836 0.4838128 3.316079
v -1.5749551 0.47790962 3.9908717
v -1.0879381 0.18995298 3.4166296
v -2.6030889 0.15203571 2.6266959
v -0.7170101 0.07936008 2.9597251
v -2.0116222 0.054678664 2.0191045
v -0.022304546 -0.011427448 1.9074682
v -0.93875647 -0.042263996 0.7367211
v 0.8459167 -0.06808054 0.6607858
v -0.12083688 -0.086063884 -0.42718658
v 1.3645079 -0.11817395 -0.675121
v 0.42533362 -0.11761897 -1.3180743
v 1.6238095 -0.040804785 -1.6637259
v 0.77455986 -0.06989773 -2.0088544
v 1.6336142 0.063347325 -1.9669421
v 1.0187067 0.037464675 -2.7288792
v 1.2491703 0.20000063 -3.394024
v 1.6241338 0.17444037 -2.2175765
v 0.65380853 0.66699314 -4.116334
v -0.011856788 0.73732144 -4.187106
v -0.011856079 0.6361813 -3.0250876
v 0.3129021 0.62876135 -3.004344
v 1.0549659 0.4762336 -3.88995
v 0.81613046 0.55830425 -2.8565214
v 1.199097 0.36741102 -3.772613
v 1.386118 0.35948065 -2.5819228
v 1.2491703 0.20000063 -3.394024
v 1.6241338 0.17444037 -2.2175765
vt 0 0
vt 1 0.125
vt 1 0
vt 0 0.125
vt 1 0.25
vt 0 0.25
vt 1 0.375
vt 0 0.375
vt 1 0.5
vt 0 0.5
vt 1 0.5625
vt 0 0.5625
vt 1 0.625
vt 0 0.625
vt 1 0.6875
vt 0 0.6875
vt 1 0.75
vt 0 0.75
vt 1 0.8125
vt 0 0.75
vt 1 0.75
vt 0 0.8125
vt 1 0.875
vt 0 0.875
vt 1 0.9375
vt 0 0.9375
vt 1.0092375 0.98957545
vt -0.0021280637 1.0024365
vt 0 0
vt 1 0
vt 1 0.125
vt 0 0.125
vt 1 0.25
vt 0 0.25
vt 1 0.375
vt 0 0.375
vt 1 0.5
vt 0 0.5
vt 1 0.5625
vt 0 0.5625
vt 1 0.625
vt 0 0.625
vt 1 0.6875
vt 0 0.6875
vt 0 0.75
vt 1 0.75
vt 0 0.9375
vt 0.0011746375 1.0036206
vt 1.0124111 0.99090725
vt 1 0.9375
vt 0 0.875
vt 1 0.875
vt 0 0.8125
vt 1 0.8125
vt 0 0.75
vt 1 0.75
vn 0.13320865 -0.9368416 0.32339332
vn 0.10344684 -0.9651415 0.24041797
vn 0.13320865 -0.9368416 0.32339332
vn 0.1131215 -0.95693773 0.26734582
vn 0.060027834 -0.99238247 0.1075809
vn 0.060535267 -0.9921348 0.109562956
vn 0.039682113 -0.9969779 0.06678692
vn 0.033015262 -0.9977471 0.0583999
vn 0.0053024665 -0.9997049 0.023704652
vn -0.0017089475 -0.99988616 0.014993284
vn -0.029018091 -0.99933344 -0.022150228
vn -0.03235932 -0.99909914 -0.027456526
vn -0.07709888 -0.9933682 -0.085295744
vn -0.08253498 -0.99242 -0.09105235
vn -0.17409678 -0.9717782 -0.15917785
vn -0.2516754 -0.9521832 -0.17322434
vn -0.3154556 -0.9309063 -0.18412311
vn -0.3154556 -0.9309063 -0.18412313
vn 0.8142779 -0.556117 0.16638905
vn 0.95333636 -0.20645912 0.22028272
vn 0.95333636 -0.20645908 0.22028273
vn 0.454181 -0.88891065 0.059644476
vn 0.31463 -0.94916886 -0.009300378
vn 0.3008379 -0.9534622 -0.020156832
vn 0.16275856 -0.98478335 -0.060921952
vn 0.16808152 -0.983924 -0.0603509
vn -0.001978968 -0.99745685 -0.07124548
vn -0.0022781498 -0.997456 -0.07124812
vn -0.13424915 -0.93619984 0.32481828
vn -0.13424915 -0.93619984 0.3248183
vn -0.09994207 -0.9668192 0.23510052
vn -0.1111029 -0.95803106 0.26425847
vn -0.041121773 -0.99553114 0.085010424
vn -0.04210951 -0.99528015 0.087431654
vn -0.023421997 -0.9985775 0.047900476
vn -0.020451238 -0.998845 0.043480024
vn -0.014226887 -0.9994086 0.031303827
vn -0.014968109 -0.9994216 0.030534046
vn 0.0016916248 -0.99999094 0.003914523
vn 0.008847165 -0.99994504 -0.0056216777
vn 0.07784876 -0.9932767 -0.085679114
vn 0.08466387 -0.9921451 -0.092086904
vn 0.20176919 -0.96503633 -0.16731472
vn 0.2877987 -0.94111586 -0.17740573
vn 0.36304653 -0.9131713 -0.18524429
vn 0.3630465 -0.9131713 -0.18524429
vn -0.1633848 -0.98465216 -0.061365176
vn -0.0022781498 -0.997456 -0.07124812
vn -0.001978968 -0.99745685 -0.07124548
vn -0.15757842 -0.9855559 -0.062037915
vn -0.31030378 -0.95029926 -0.02535723
vn -0.32931295 -0.944081 -0.016248388
vn -0.45986286 -0.88718 0.03791681
vn -0.7663782 -0.6262384 0.14314336
vn -0.9281101 -0.3032035 0.21605377
vn -0.9281101 -0.30320352 0.21605378
g ribbon_0
f 3/3/3 2/2/2 1/1/1
f 2/2/2 4/4/4 1/1/1
f 2/2/2 5/5/5 4/4/4
f 5/5/5 6/6/6 4/4/4
f 5/5/5 7/7/7 6/6/6
f 7/7/7 8/8/8 6/6/6
f 7/7/7 9/9/9 8/8/8
f 9/9/9 10/10/10 8/8/8
f 9/9/9 11/11/11 10/10/10
f 11/11/11 12/12/12 10/10/10
f 11/11/11 13/13/13 12/12/12
f 13/13/13 14/14/14 12/12/12
f 13/13/13 15/15/15 14/14/14
f 15/15/15 16/16/16 14/14/14
f 15/15/15 17/17/17 16/16/16
f 17/17/17 18/18/18 16/16/16
f 21/21/21 20/20/20 19/19/19
f 20/20/20 22/22/22 19/19/19
f 19/19/19 22/22/22 23/23/23
f 22/22/22 24/24/24 23/23/23
f 25/25/25 23/23/23 24/24/24
f 26/26/26 25/25/25 24/24/24
f 27/27/27 25/25/25 26/26/26
f 28/28/28 27/27/27 26/26/26
f 31/31/31 30/30/30 29/29/29
f 32/32/32 31/31/31 29/29/29
f 33/33/33 31/31/31 32/32/32
f 34/34/34 33/33/33 32/32/32
f 35/35/35 33/33/33 34/34/34
f 36/36/36 35/35/35 34/34/34
f 37/37/37 35/35/35 36/36/36
f 38/38/38 37/37/37 36/36/36
f 39/39/39 37/37/37 38/38/38
f 40/40/40 39/39/39 38/38/38
f 41/41/41 39/39/39 40/40/40
f 42/42/42 41/41/41 40/40/40
f 43/43/43 41/41/41 42/42/42
f 44/44/44 43/43/43 42/42/42
f 44/44/44 45/45/45 43/43/43
f 45/45/45 46/46/46 43/43/43
f 49/49/49 48/48/48 47/47/47
f 50/50/50 49/49/49 47/47/47
f 50/50/50 47/47/47 51/51/51
f 52/52/52 50/50/50 51/51/51
f 51/51/51 53/53/53 52/52/52
f 53/53/53 54/54/54 52/52/52
f 53/53/53 55/55/55 54/54/54
f 55/55/55 56/56/56 54/54/54
