g shard70
v -0.08819918 -0.021188766 -0.0860549
v -0.08291703 -0.03902954 -0.09310546
v -0.03231184 0.015297562 -0.17031202
v -0.03865567 0.03180349 -0.16111442
v -0.03865567 0.03180349 -0.16111442
v -0.03231184 0.015297562 -0.17031202
v 0.04174733 0.050087184 -0.16746745
v 0.03317003 0.06581035 -0.15862256
v 0.03317003 0.06581035 -0.15862256
v 0.04174733 0.050087184 -0.16746745
v 0.08757365 0.029090732 -0.07540471
v 0.07849488 0.045343637 -0.0681976
v 0.07849488 0.045343637 -0.0681976
v 0.08757365 0.029090732 -0.07540471
v 0.06510311 -0.008890748 -0.003213577
v 0.056330457 0.008502901 0.0006122738
v 0.056330457 0.008502901 0.0006122738
v 0.06510311 -0.008890748 -0.003213577
v 0.0881992 -0.0037125945 0.0690344
v 0.07924202 0.014089435 0.068840295
v -0.078093655 -0.03546056 -0.023947716
v -0.08291703 -0.03902954 -0.09310546
v -0.08819918 -0.021188766 -0.0860549
v -0.07285155 -0.05436024 -0.027421705
v -0.080574766 -0.046542138 0.08973454
v -0.0756139 -0.06581038 0.08996494
v -0.004547894 -0.017126024 0.16806807
v 0.0023739338 -0.035655946 0.17031202
v -0.0756139 -0.06581038 0.08996494
v -0.080574766 -0.046542138 0.08973454
v 0.07924202 0.014089435 0.068840295
v 0.0881992 -0.0037125945 0.0690344
v 0.064936966 -0.005477965 0.16888157
v 0.055986255 0.012286663 0.1668313
v 0.055986255 0.012286663 0.1668313
v 0.064936966 -0.005477965 0.16888157
v 0.0023739338 -0.035655946 0.17031202
v -0.004547894 -0.017126024 0.16806807
v -0.08819918 -0.021188766 -0.0860549
v -0.03865567 0.03180349 -0.16111442
v -0.013022438 0.004090786 -0.09370137
v 0.03317003 0.06581035 -0.15862256
v 0.07849488 0.045343637 -0.0681976
v -0.078093655 -0.03546056 -0.023947716
v 0.0035948157 -0.011699915 -0.019443363
v 0.056330457 0.008502901 0.0006122738
v -0.0010208488 -0.02614382 0.0827215
v -0.080574766 -0.046542138 0.08973454
v 0.07924202 0.014089435 0.068840295
v -0.004547894 -0.017126024 0.16806807
v 0.055986255 0.012286663 0.1668313
v -0.08291703 -0.03902954 -0.09310546
v -0.005854994 -0.013076156 -0.10104468
v -0.03231184 0.015297562 -0.17031202
v 0.04174733 0.050087184 -0.16746745
v 0.08757365 0.029090732 -0.07540471
v -0.07285155 -0.05436024 -0.027421705
v 0.0108560175 -0.02987042 -0.023579456
v 0.06510311 -0.008890748 -0.003213577
v 0.005924225 -0.04489878 0.08285452
v -0.0756139 -0.06581038 0.08996494
v 0.0881992 -0.0037125945 0.0690344
v 0.0023739338 -0.035655946 0.17031202
v 0.064936966 -0.005477965 0.16888157
vt 0.53125 0.8125
vt 0.53125 0.8125
vt 0.5625 0.78125
vt 0.5625 0.78125
vt 0.5625 0.78125
vt 0.5625 0.78125
vt 0.59375 0.78125
vt 0.59375 0.78125
vt 0.59375 0.78125
vt 0.59375 0.78125
vt 0.59375 0.8125
vt 0.59375 0.8125
vt 0.59375 0.8125
vt 0.59375 0.8125
vt 0.59375 0.84375
vt 0.59375 0.84375
vt 0.59375 0.84375
vt 0.59375 0.84375
vt 0.59375 0.875
vt 0.59375 0.875
vt 0.53125 0.84375
vt 0.53125 0.8125
vt 0.53125 0.8125
vt 0.53125 0.84375
vt 0.53125 0.875
vt 0.53125 0.875
vt 0.5625 0.90625
vt 0.5625 0.90625
vt 0.53125 0.875
vt 0.53125 0.875
vt 0.59375 0.875
vt 0.59375 0.875
vt 0.59375 0.90625
vt 0.59375 0.90625
vt 0.59375 0.90625
vt 0.59375 0.90625
vt 0.5625 0.90625
vt 0.5625 0.90625
vt 0.53125 0.8125
vt 0.5625 0.78125
vt 0.5625 0.8125
vt 0.59375 0.78125
vt 0.59375 0.8125
vt 0.53125 0.84375
vt 0.5625 0.84375
vt 0.59375 0.84375
vt 0.5625 0.875
vt 0.53125 0.875
vt 0.59375 0.875
vt 0.5625 0.90625
vt 0.59375 0.90625
vt 0.53125 0.8125
vt 0.5625 0.8125
vt 0.5625 0.78125
vt 0.59375 0.78125
vt 0.59375 0.8125
vt 0.53125 0.84375
vt 0.5625 0.84375
vt 0.59375 0.84375
vt 0.5625 0.875
vt 0.53125 0.875
vt 0.59375 0.875
vt 0.5625 0.90625
vt 0.59375 0.90625
vn -0.8298139 -0.017017622 -0.55778056
vn -0.8298139 -0.017017622 -0.55778056
vn -0.8298139 -0.017017622 -0.55778056
vn -0.8298139 -0.01701762 -0.55778056
vn -0.16636425 0.42191276 -0.89124215
vn -0.16636425 0.4219127 -0.89124215
vn -0.16636425 0.42191273 -0.89124215
vn -0.16636427 0.42191273 -0.89124215
vn 0.78274685 0.564131 -0.26279938
vn 0.7827469 0.564131 -0.26279938
vn 0.7827469 0.56413096 -0.26279938
vn 0.7827469 0.564131 -0.26279938
vn 0.847678 0.30813465 0.43185073
vn 0.847678 0.3081347 0.43185073
vn 0.847678 0.30813468 0.43185073
vn 0.847678 0.30813468 0.43185073
vn 0.8363106 0.4531383 -0.30862626
vn 0.83631074 0.4531383 -0.30862623
vn 0.83631074 0.4531383 -0.30862623
vn 0.8363106 0.45313823 -0.3086262
vn -0.9628624 -0.2699927 -0.000105252424
vn -0.95169157 -0.2960007 0.081650734
vn -0.95169157 -0.2960007 0.08165074
vn -0.9628492 -0.2700395 3.6483685E-05
vn -0.9660067 -0.25426143 -0.046713993
vn -0.9660067 -0.2542614 -0.046713986
vn -0.675915 -0.16547634 0.7181619
vn -0.675915 -0.16547634 0.7181619
vn -0.67591506 -0.16547634 0.7181619
vn -0.675915 -0.16547634 0.7181619
vn 0.86741513 0.4501279 0.21207501
vn 0.86741513 0.45012784 0.21207502
vn 0.86741513 0.45012784 0.21207502
vn 0.86741513 0.4501279 0.21207502
vn -0.029212384 0.10483763 0.9940602
vn -0.029212382 0.104837626 0.9940602
vn -0.029212382 0.10483764 0.9940602
vn -0.02921238 0.104837626 0.9940602
vn -0.27013275 0.90375865 0.33203697
vn -0.33526477 0.8196878 0.46444532
vn -0.37148336 0.85244167 0.36789042
vn -0.44104573 0.78592646 0.43335694
vn -0.4612669 0.8135019 0.3541856
vn -0.2730625 0.9467903 0.1703677
vn -0.35638905 0.912669 0.20005529
vn -0.4257923 0.8879041 0.17414713
vn -0.34113038 0.94001454 -0.0016590734
vn -0.2460654 0.9688821 0.026820606
vn -0.45013887 0.892833 -0.01497384
vn -0.36790064 0.9230065 -0.112729624
vn -0.449682 0.8874915 -0.10072144
vn 0.27044842 -0.9041741 -0.33064595
vn 0.37074685 -0.8531907 -0.3668956
vn 0.33473423 -0.82024384 -0.46384606
vn 0.4397691 -0.78681505 -0.4330418
vn 0.4605851 -0.81462646 -0.35248402
vn 0.27325878 -0.9466991 -0.17055939
vn 0.35639727 -0.91273296 -0.19974874
vn 0.42644638 -0.8876939 -0.17361757
vn 0.34086004 -0.94011396 0.0004462088
vn 0.24612653 -0.96886235 -0.026970807
vn 0.44918227 -0.893363 0.011740138
vn 0.36668438 -0.9235201 0.11248636
vn 0.44811258 -0.8884 0.09970243
g shard70_0
f 3/3/3 2/2/2 1/1/1
f 4/4/4 3/3/3 1/1/1
f 7/7/7 6/6/6 5/5/5
f 8/8/8 7/7/7 5/5/5
f 11/11/11 10/10/10 9/9/9
f 12/12/12 11/11/11 9/9/9
f 15/15/15 14/14/14 13/13/13
f 16/16/16 15/15/15 13/13/13
f 19/19/19 18/18/18 17/17/17
f 20/20/20 19/19/19 17/17/17
f 23/23/23 22/22/22 21/21/21
f 22/22/22 24/24/24 21/21/21
f 21/21/21 24/24/24 25/25/25
f 24/24/24 26/26/26 25/25/25
f 29/29/29 28/28/28 27/27/27
f 30/30/30 29/29/29 27/27/27
f 33/33/33 32/32/32 31/31/31
f 34/34/34 33/33/33 31/31/31
f 37/37/37 36/36/36 35/35/35
f 38/38/38 37/37/37 35/35/35
f 41/41/41 40/40/40 39/39/39
f 41/41/41 42/42/42 40/40/40
f 43/43/43 42/42/42 41/41/41
f 44/44/44 41/41/41 39/39/39
f 45/45/45 43/43/43 41/41/41
f 45/45/45 41/41/41 44/44/44
f 46/46/46 43/43/43 45/45/45
f 44/44/44 47/47/47 45/45/45
f 47/47/47 46/46/46 45/45/45
f 48/48/48 47/47/47 44/44/44
f 49/49/49 46/46/46 47/47/47
f 48/48/48 50/50/50 47/47/47
f 47/47/47 51/51/51 49/49/49
f 50/50/50 51/51/51 47/47/47
f 54/54/54 53/53/53 52/52/52
f 55/55/55 53/53/53 54/54/54
f 55/55/55 56/56/56 53/53/53
f 53/53/53 57/57/57 52/52/52
f 56/56/56 58/58/58 53/53/53
f 53/53/53 58/58/58 57/57/57
f 56/56/56 59/59/59 58/58/58
f 60/60/60 57/57/57 58/58/58
f 59/59/59 60/60/60 58/58/58
f 60/60/60 61/61/61 57/57/57
f 59/59/59 62/62/62 60/60/60
f 63/63/63 61/61/61 60/60/60
f 64/64/64 60/60/60 62/62/62
f 64/64/64 63/63/63 60/60/60
