g WonderBox_SmokeTop
v -0.06054323 0.004897625 -0.037314795
v -0.03547442 0.0024915964 -0.06352987
v -0.04803511 0.002500269 -0.032755323
v -0.058790583 0.0046372362 -0.06837951
v -0.07302307 0.005820612 -0.03962094
v -0.05861365 0.004377882 -0.09613944
v -0.023969267 0.0024829577 -0.09039994
v -0.0788459 0.0053125056 -0.06994427
v -0.083582714 0.0059552942 -0.041388076
v -0.059940483 0.004126808 -0.124141194
v -0.012740408 0.0024745953 -0.122166574
v -0.08482214 0.00480642 -0.09468595
v -0.09393009 0.0043164906 -0.11828976
v -0.118606485 0.0037282838 -0.10762574
v -0.10705939 0.004453676 -0.08939349
v -0.13734613 0.0029379353 -0.094628915
v -0.09555678 0.00520299 -0.068225384
v -0.09299409 0.0058793933 -0.040702786
v -0.12450787 0.0038960401 -0.08008616
v -0.10940436 0.0048857415 -0.063607894
v -0.10307016 0.00573725 -0.038882107
v -0.13745795 0.0032750426 -0.068444945
v -0.1514424 0.0020856159 -0.07964431
v -0.1616679 0.0012026017 -0.062483296
v -0.12142156 0.004503695 -0.055862006
v -0.11140289 0.005564865 -0.034160376
v -0.14746627 0.002623498 -0.055637095
v -0.16866922 0.00031424157 -0.04322921
v -0.13119361 0.004091253 -0.04674528
v -0.11874916 0.005390982 -0.026263384
v -0.15433317 0.0019678604 -0.039229058
v -0.13850583 0.0036760129 -0.034282196
v -0.12319092 0.005215337 -0.01756688
v -0.15775944 0.0013091444 -0.021531645
v -0.17258897 -0.0005778332 -0.023053318
v -0.17344368 -0.0014779195 -0.0033988594
v -0.14244087 0.0032583517 -0.019959794
v -0.12524812 0.0050304136 -0.006604598
v -0.1585414 0.0006420043 -0.0043103485
v -0.17132187 -0.002383252 0.0145657
v -0.14314766 0.0028318395 -0.0052518975
v -0.12550089 0.00483662 0.0042656497
v -0.1567286 -3.1562748E-05 0.01134342
v -0.14165406 0.0023976814 0.008014874
v -0.123751365 0.0046660574 0.014296703
v -0.152643 -0.0006801877 0.025404943
v -0.16659977 -0.0032628162 0.03077104
v -0.13822594 0.0019876116 0.019861884
v -0.13923512 -0.0017602525 0.049625915
v -0.1511674 -0.0048044086 0.058639
v -0.12195594 -0.0025882178 0.06805138
v -0.13121079 -0.0060878205 0.07976275
v -0.11043908 -0.0072532413 0.092689514
v -0.12690935 0.0013842945 0.04031559
v -0.11453438 0.0045413906 0.030968105
v -0.11239587 0.0010267954 0.0559538
v -0.10279766 0.004656235 0.043807942
v -0.09114395 0.0048322165 0.05129097
v -0.09766202 0.00074963865 0.06527577
v -0.104154184 -0.0033167114 0.07920499
v -0.086076915 -0.0036321848 0.08530999
v -0.089338265 -0.00798214 0.099751934
v -0.06762677 -0.0035535153 0.087693565
v -0.06786867 -0.008284115 0.10238236
v -0.046769567 -0.008466451 0.10050939
v -0.08270802 0.000861225 0.07039177
v -0.07932569 0.0053725666 0.055414006
v -0.06737688 0.0013330916 0.07252036
v -0.067126 0.0062391995 0.057286605
v -0.05533506 0.0070624854 0.05656267
v -0.052441556 0.0018166694 0.07140827
v -0.049559552 -0.0034082953 0.086194865
v -0.034216832 -0.0029521384 0.082064964
v -0.028662803 -0.008243841 0.0955065
v -0.022476831 -0.0018273019 0.0766364
v -0.014537974 -0.007176985 0.088818006
v -0.0033052543 -0.0047477176 0.08135397
v -0.039954025 0.0025140764 0.06818015
v -0.04571411 0.008002105 0.054239925
v -0.030677501 0.0036988049 0.06405306
v -0.038910896 0.009246965 0.051419504
v -0.03418095 0.010915778 0.04874189
v -0.02375086 0.005624506 0.059758548
v -0.013362225 0.00035426675 0.07073142
v -0.005929918 0.0042242943 0.06433074
v 0.0060013467 -0.00015164712 0.073170654
v -0.018254656 0.008744547 0.055199306
v -0.03062858 0.013282839 0.04603143
v -0.02915243 0.014846515 0.04464644
v -0.0027692553 0.0069172573 0.061060604
v 0.009975754 0.0030868442 0.06898985
v 0.013335343 0.0069086296 0.065021336
v -0.015934573 0.010873991 0.052869868
v -0.027912488 0.016742108 0.043309294
v -0.00010008585 0.010111635 0.057949193
v 0.015984135 0.011249704 0.061452013
v -0.013978594 0.013420269 0.05064382
v -0.026933108 0.019018989 0.042073
v 0.002004937 0.013780352 0.055139795
v -0.012435271 0.016394453 0.04861941
v -0.026202185 0.021685064 0.040982097
v 0.0035827204 0.017815696 0.05270047
v 0.017971013 0.015946507 0.058361303
v 0.019381087 0.020810591 0.05580179
v -0.011280077 0.019746527 0.046852954
v -0.0256985 0.024737863 0.040078986
v 0.0046975603 0.0220898 0.050680485
v 0.020306101 0.025651949 0.053799722
v -0.010470205 0.023411194 0.04539029
v -0.025395863 0.02815141 0.039394908
v 0.005419851 0.026466083 0.049107723
v -0.009957323 0.027307069 0.044260986
v -0.025248207 0.031805642 0.038916457
v 0.0058443737 0.030773109 0.047924686
v 0.02086437 0.030274322 0.05227632
v 0.021180853 0.034479905 0.05112648
v -0.009670958 0.03128835 0.043429542
v -0.025204502 0.03555699 0.03861907
v 0.006072006 0.034830738 0.047052506
v 0.021370798 0.038118545 0.050240826
v -0.009535107 0.03519314 0.04284419
v -0.025215466 0.039252575 0.038471203
v 0.00619651 0.038487926 0.046407174
v -0.0094782 0.03886949 0.04244709
v -0.025238791 0.042702306 0.03841335
v 0.006283175 0.041710053 0.045884028
v 0.021510597 0.04123072 0.04949291
v 0.021666935 0.04390456 0.048752002
v -0.009446423 0.04220519 0.042156126
v -0.025233928 0.045706782 0.03837902
v 0.006390174 0.04449159 0.04537327
v 0.021895614 0.04624819 0.047840636
v -0.00939039 0.045097973 0.04188311
v -0.02516829 0.048137788 0.038270205
v 0.0065657464 0.04686368 0.044723313
v -0.009269674 0.047499467 0.041503184
v -0.02504116 0.05015179 0.037862744
v 0.0068184095 0.04900408 0.043615464
v 0.02220892 0.048449658 0.046394452
v 0.02260825 0.050716985 0.04400236
v -0.009079653 0.049576797 0.040744834
v -0.024859788 0.05197643 0.036900956
v 0.007146747 0.051127218 0.04168926
v 0.023075372 0.05313556 0.040102333
v -0.008824653 0.051550977 0.039299875
v -0.024639582 0.053769495 0.034918413
v 0.0075334427 0.05334205 0.038413804
v -0.008521035 0.05355535 0.036669586
v -0.02442855 0.055409364 0.030605718
v 0.007897576 0.055335727 0.03257654
v 0.023513466 0.05530015 0.033528592
v 0.023806063 0.056682877 0.02296441
v 0.008142326 0.056689937 0.022794489
v -0.0082333 0.05537247 0.03159309
v -0.008037978 0.056697235 0.022618962
v -0.02428285 0.05670456 0.022442738
vt 1 0.9791667
vt 0.6666667 1
vt 1 1
vt 0.6666667 0.9791667
vt 1 0.9583333
vt 0.33333334 0.9791667
vt 0.33333334 1
vt 0.6666667 0.9583333
vt 1 0.9375
vt 0 0.9791667
vt 0 1
vt 0.33333334 0.9583333
vt 0 0.9583333
vt 0 0.9375
vt 0.33333334 0.9375
vt 0 0.9166667
vt 0.6666667 0.9375
vt 1 0.9166667
vt 0.33333334 0.9166667
vt 0.6666667 0.9166667
vt 1 0.8958333
vt 0.33333334 0.8958333
vt 0 0.8958333
vt 0 0.875
vt 0.6666667 0.8958333
vt 1 0.875
vt 0.33333334 0.875
vt 0 0.8541667
vt 0.6666667 0.875
vt 1 0.8541667
vt 0.33333334 0.8541667
vt 0.6666667 0.8541667
vt 1 0.8333333
vt 0.33333334 0.8333333
vt 0 0.8333333
vt 0 0.8125
vt 0.6666667 0.8333333
vt 1 0.8125
vt 0.33333334 0.8125
vt 0 0.7916667
vt 0.6666667 0.8125
vt 1 0.7916667
vt 0.33333334 0.7916667
vt 0.6666667 0.7916667
vt 1 0.7708333
vt 0.33333334 0.7708333
vt 0 0.7708333
vt 0.6666667 0.7708333
vt 0.33333334 0.7291667
vt 0 0.7291667
vt 0.33333334 0.6875
vt 0 0.6875
vt 0 0.6458333
vt 0.6666667 0.7291667
vt 1 0.7291667
vt 0.6666667 0.6875
vt 1 0.6875
vt 1 0.6458333
vt 0.6666667 0.6458333
vt 0.33333334 0.6458333
vt 0.33333334 0.6041667
vt 0 0.6041667
vt 0.33333334 0.5625
vt 0 0.5625
vt 0 0.5208333
vt 0.6666667 0.6041667
vt 1 0.6041667
vt 0.6666667 0.5625
vt 1 0.5625
vt 1 0.5208333
vt 0.6666667 0.5208333
vt 0.33333334 0.5208333
vt 0.33333334 0.47916666
vt 0 0.47916666
vt 0.33333334 0.4375
vt 0 0.4375
vt 0 0.39583334
vt 0.6666667 0.47916666
vt 1 0.47916666
vt 0.6666667 0.4375
vt 1 0.4375
vt 1 0.39583334
vt 0.6666667 0.39583334
vt 0.33333334 0.39583334
vt 0.33333334 0.35416666
vt 0 0.35416666
vt 0.6666667 0.35416666
vt 1 0.35416666
vt 1 0.33333334
vt 0.33333334 0.33333334
vt 0 0.33333334
vt 0 0.3125
vt 0.6666667 0.33333334
vt 1 0.3125
vt 0.33333334 0.3125
vt 0 0.29166666
vt 0.6666667 0.3125
vt 1 0.29166666
vt 0.33333334 0.29166666
vt 0.6666667 0.29166666
vt 1 0.27083334
vt 0.33333334 0.27083334
vt 0 0.27083334
vt 0 0.25
vt 0.6666667 0.27083334
vt 1 0.25
vt 0.33333334 0.25
vt 0 0.22916667
vt 0.6666667 0.25
vt 1 0.22916667
vt 0.33333334 0.22916667
vt 0.6666667 0.22916667
vt 1 0.20833333
vt 0.33333334 0.20833333
vt 0 0.20833333
vt 0 0.1875
vt 0.6666667 0.20833333
vt 1 0.1875
vt 0.33333334 0.1875
vt 0 0.16666667
vt 0.6666667 0.1875
vt 1 0.16666667
vt 0.33333334 0.16666667
vt 0.6666667 0.16666667
vt 1 0.14583333
vt 0.33333334 0.14583333
vt 0 0.14583333
vt 0 0.125
vt 0.6666667 0.14583333
vt 1 0.125
vt 0.33333334 0.125
vt 0 0.10416666
vt 0.6666667 0.125
vt 1 0.10416666
vt 0.33333334 0.10416666
vt 0.6666667 0.10416666
vt 1 0.083333336
vt 0.33333334 0.083333336
vt 0 0.083333336
vt 0 0.0625
vt 0.6666667 0.083333336
vt 1 0.0625
vt 0.33333334 0.0625
vt 0 0.041666668
vt 0.6666667 0.0625
vt 1 0.041666668
vt 0.33333334 0.041666668
vt 0.6666667 0.041666668
vt 1 0.020833334
vt 0.33333334 0.020833334
vt 0 0.020833334
vt 0 0
vt 0.33333334 0
vt 0.6666667 0.020833334
vt 0.6666667 0
vt 1 0
vn 0.09264471 0.9956678 0.007897996
vn 0.08654092 0.9961416 0.014578376
vn 0.1197223 0.99253184 0.023392465
vn 0.06545242 0.99785465 0.0013730593
vn 0.034474716 0.99924314 -0.018015258
vn 0.037228193 0.9993012 -0.003340988
vn 0.051352195 0.9986677 0.0050799535
vn 0.016056057 0.9996922 -0.018912466
vn -0.0064579463 0.99972826 -0.02240009
vn 0.029686155 0.9995493 -0.0044529396
vn 0.043036368 0.99906963 0.0027933298
vn -7.077332E-05 0.99984884 -0.017388372
vn -0.006802016 0.99984574 -0.016196327
vn -0.035323184 0.999243 -0.016301306
vn -0.030552428 0.99936837 -0.018151678
vn -0.056309775 0.99830353 -0.014804626
vn -0.018391915 0.99959904 -0.021529252
vn -0.026234426 0.9993795 -0.023502728
vn -0.051238384 0.998546 -0.016745817
vn -0.037275508 0.99907625 -0.02138043
vn -0.040298864 0.9988657 -0.02536396
vn -0.070102334 0.99744403 -0.013826573
vn -0.07631408 0.9970259 -0.010749641
vn -0.09721464 0.99525756 -0.0034133166
vn -0.05324262 0.9983602 -0.021024955
vn -0.058844436 0.9979918 -0.023445781
vn -0.09085584 0.9958335 -0.007790449
vn -0.11553804 0.9932634 0.008879841
vn -0.07285926 0.9971859 -0.017654477
vn -0.078457944 0.99679416 -0.015671639
vn -0.11103935 0.9938081 0.0039481763
vn -0.09386823 0.99555343 -0.0078772465
vn -0.10026892 0.9949602 0.0006896254
vn -0.12744342 0.9916044 0.02188648
vn -0.12887573 0.9913111 0.026331572
vn -0.13752845 0.98927313 0.04924107
vn -0.114709385 0.9933502 0.009848329
vn -0.11913792 0.99267197 0.020212704
vn -0.13769946 0.9894471 0.045091704
vn -0.14191043 0.9868896 0.07687833
vn -0.12986657 0.9910286 0.031577066
vn -0.1369783 0.9895789 0.044390675
vn -0.1427756 0.98708063 0.07271262
vn -0.14121708 0.9882783 0.05799821
vn -0.15203099 0.984353 0.08908305
vn -0.14434396 0.9832373 0.111396976
vn -0.14243215 0.983082 0.11516515
vn -0.14905746 0.9838494 0.09910751
vn -0.13982803 0.9793046 0.14632383
vn -0.13646695 0.97908 0.15092717
vn -0.1191032 0.97352815 0.1950831
vn -0.113738365 0.9732544 0.1995984
vn -0.079415426 0.96619564 0.24527356
vn -0.14857507 0.97964615 0.13497773
vn -0.15479024 0.97980654 0.12656644
vn -0.13278975 0.9739053 0.18405226
vn -0.14290144 0.97404385 0.17554946
vn -0.119206294 0.9666414 0.226703
vn -0.10531133 0.9666923 0.23327108
vn -0.08643924 0.96642685 0.24196595
vn -0.05654844 0.9592257 0.2769268
vn -0.047466874 0.9591318 0.2789501
vn -0.011607407 0.95212007 0.3055041
vn -0.0019496253 0.95210695 0.305759
vn 0.048442304 0.94504696 0.3233261
vn -0.081030406 0.9590236 0.2714918
vn -0.09872731 0.9585148 0.26739928
vn -0.037755813 0.9516857 0.3047437
vn -0.05687813 0.95097363 0.30399665
vn -0.0053589246 0.94316196 0.3322901
vn 0.01353802 0.94412583 0.32930714
vn 0.039012115 0.94493484 0.32492492
vn 0.06662844 0.9379916 0.34019476
vn 0.07618608 0.93851316 0.33673233
vn 0.05541222 0.9274083 0.36992368
vn 0.06494593 0.9288918 0.36461222
vn 0.0051220004 0.90347975 0.4286003
vn 0.039646514 0.9358629 0.35012683
vn 0.018940853 0.933798 0.35729894
vn 0.026341988 0.9220567 0.3861574
vn 0.0030600026 0.91716576 0.39849412
vn -0.05613826 0.87882274 0.4738345
vn -0.032069504 0.8891165 0.45655596
vn -0.0037146274 0.9002845 0.43528613
vn -0.06735969 0.85883754 0.5078
vn -0.0595511 0.8635696 0.50070083
vn -0.09356033 0.8416723 0.5318216
vn -0.11595631 0.826088 0.5514824
vn -0.18177831 0.73804724 0.6498022
vn -0.13690847 0.7873732 0.6010819
vn -0.12892981 0.7954539 0.5921403
vn -0.17768574 0.7242302 0.6662721
vn -0.16138765 0.76126486 0.62803656
vn -0.22829808 0.6465259 0.72793156
vn -0.18567711 0.71282345 0.6763185
vn -0.2188671 0.6356417 0.74030864
vn -0.20928952 0.67729765 0.70531255
vn -0.2638325 0.53685284 0.8013623
vn -0.22654572 0.6200373 0.7511529
vn -0.24781105 0.5743808 0.7801771
vn -0.28308484 0.42261237 0.86096555
vn -0.25320107 0.51970845 0.815961
vn -0.24632344 0.5397777 0.80496264
vn -0.2610217 0.4412588 0.8585793
vn -0.27093104 0.46465173 0.84302735
vn -0.28819898 0.3120344 0.9053044
vn -0.2666644 0.4170797 0.8688697
vn -0.26448303 0.34993908 0.89866096
vn -0.28004968 0.35525796 0.89183176
vn -0.28262776 0.21786197 0.93416154
vn -0.268683 0.3229207 0.9074865
vn -0.27779365 0.2587453 0.92513865
vn -0.27106646 0.14662722 0.95132715
vn -0.26233914 0.2488088 0.9323478
vn -0.25931534 0.27793473 0.9249367
vn -0.2490798 0.22901125 0.94101703
vn -0.26833245 0.18433192 0.94552594
vn -0.25745913 0.09476596 0.961631
vn -0.2514721 0.19695258 0.9476136
vn -0.23577152 0.20478679 0.9499864
vn -0.25579217 0.13058317 0.9578718
vn -0.24342151 0.061783332 0.96795076
vn -0.23811483 0.16863982 0.95648414
vn -0.2420712 0.097638175 0.9653333
vn -0.22904396 0.051542044 0.9720506
vn -0.22258446 0.17099676 0.9598001
vn -0.21967012 0.21247485 0.9521552
vn -0.1983066 0.2723282 0.9415476
vn -0.22741063 0.0907141 0.9695646
vn -0.21264522 0.077602245 0.9740431
vn -0.20261033 0.2238489 0.9533314
vn -0.16449292 0.42118645 0.8919328
vn -0.20994799 0.12608701 0.96954834
vn -0.18806672 0.19038215 0.9635277
vn -0.17074803 0.37000936 0.9132022
vn -0.18284658 0.25386712 0.94979924
vn -0.14595313 0.4211828 0.89515513
vn -0.12326346 0.5855147 0.8012357
vn -0.11691962 0.6235743 0.7729714
vn -0.070577554 0.7884225 0.6110718
vn -0.13806878 0.48515952 0.86345655
vn -0.08999244 0.68398476 0.72392416
vn -0.074253336 0.77052575 0.63306916
vn -0.033024307 0.9122638 0.40826967
vn -0.08408653 0.71917903 0.68971807
vn -0.038433313 0.89001185 0.4543147
vn -0.033997737 0.90839684 0.4167244
vn -0.03694525 0.8966368 0.4412228
vn -0.01049868 0.9751559 0.2212704
vn -0.009906707 0.9778386 0.20912586
vn -0.009781273 0.97844315 0.20628454
vn -0.0034277996 0.9910794 0.13322873
vn -0.0035688053 0.99054563 0.13713774
vn -0.010362755 0.9759755 0.21763399
vn -0.0038862978 0.9892859 0.14593948
vn -0.0040704827 0.9885184 0.15104534
g WonderBox_SmokeTop_0
f 3/3/3 2/2/2 1/1/1
f 2/2/2 4/4/4 1/1/1
f 1/1/1 4/4/4 5/5/5
f 6/6/6 4/4/4 2/2/2
f 7/7/7 6/6/6 2/2/2
f 4/4/4 8/8/8 5/5/5
f 5/5/5 8/8/8 9/9/9
f 10/10/10 6/6/6 7/7/7
f 11/11/11 10/10/10 7/7/7
f 6/6/6 12/12/12 4/4/4
f 12/12/12 6/6/6 10/10/10
f 12/12/12 8/8/8 4/4/4
f 13/13/13 12/12/12 10/10/10
f 13/13/13 14/14/14 12/12/12
f 14/14/14 15/15/15 12/12/12
f 12/12/12 15/15/15 8/8/8
f 14/14/14 16/16/16 15/15/15
f 8/8/8 17/17/17 9/9/9
f 15/15/15 17/17/17 8/8/8
f 9/9/9 17/17/17 18/18/18
f 16/16/16 19/19/19 15/15/15
f 15/15/15 19/19/19 17/17/17
f 17/17/17 20/20/20 18/18/18
f 19/19/19 20/20/20 17/17/17
f 18/18/18 20/20/20 21/21/21
f 22/22/22 19/19/19 16/16/16
f 19/19/19 22/22/22 20/20/20
f 23/23/23 22/22/22 16/16/16
f 23/23/23 24/24/24 22/22/22
f 20/20/20 25/25/25 21/21/21
f 22/22/22 25/25/25 20/20/20
f 21/21/21 25/25/25 26/26/26
f 24/24/24 27/27/27 22/22/22
f 22/22/22 27/27/27 25/25/25
f 24/24/24 28/28/28 27/27/27
f 25/25/25 29/29/29 26/26/26
f 27/27/27 29/29/29 25/25/25
f 26/26/26 29/29/29 30/30/30
f 28/28/28 31/31/31 27/27/27
f 27/27/27 31/31/31 29/29/29
f 29/29/29 32/32/32 30/30/30
f 31/31/31 32/32/32 29/29/29
f 30/30/30 32/32/32 33/33/33
f 34/34/34 31/31/31 28/28/28
f 31/31/31 34/34/34 32/32/32
f 35/35/35 34/34/34 28/28/28
f 35/35/35 36/36/36 34/34/34
f 32/32/32 37/37/37 33/33/33
f 34/34/34 37/37/37 32/32/32
f 33/33/33 37/37/37 38/38/38
f 36/36/36 39/39/39 34/34/34
f 34/34/34 39/39/39 37/37/37
f 36/36/36 40/40/40 39/39/39
f 37/37/37 41/41/41 38/38/38
f 39/39/39 41/41/41 37/37/37
f 38/38/38 41/41/41 42/42/42
f 40/40/40 43/43/43 39/39/39
f 39/39/39 43/43/43 41/41/41
f 41/41/41 44/44/44 42/42/42
f 43/43/43 44/44/44 41/41/41
f 42/42/42 44/44/44 45/45/45
f 46/46/46 43/43/43 40/40/40
f 43/43/43 46/46/46 44/44/44
f 47/47/47 46/46/46 40/40/40
f 44/44/44 48/48/48 45/45/45
f 46/46/46 48/48/48 44/44/44
f 49/49/49 46/46/46 47/47/47
f 48/48/48 46/46/46 49/49/49
f 50/50/50 49/49/49 47/47/47
f 51/51/51 49/49/49 50/50/50
f 52/52/52 51/51/51 50/50/50
f 52/52/52 53/53/53 51/51/51
f 45/45/45 48/48/48 54/54/54
f 54/54/54 48/48/48 49/49/49
f 54/54/54 49/49/49 51/51/51
f 55/55/55 45/45/45 54/54/54
f 55/55/55 54/54/54 56/56/56
f 56/56/56 54/54/54 51/51/51
f 57/57/57 55/55/55 56/56/56
f 57/57/57 56/56/56 58/58/58
f 59/59/59 56/56/56 51/51/51
f 56/56/56 59/59/59 58/58/58
f 53/53/53 60/60/60 51/51/51
f 60/60/60 59/59/59 51/51/51
f 61/61/61 60/60/60 53/53/53
f 59/59/59 60/60/60 61/61/61
f 62/62/62 61/61/61 53/53/53
f 63/63/63 61/61/61 62/62/62
f 64/64/64 63/63/63 62/62/62
f 64/64/64 65/65/65 63/63/63
f 58/58/58 59/59/59 66/66/66
f 66/66/66 59/59/59 61/61/61
f 66/66/66 61/61/61 63/63/63
f 67/67/67 58/58/58 66/66/66
f 67/67/67 66/66/66 68/68/68
f 68/68/68 66/66/66 63/63/63
f 69/69/69 67/67/67 68/68/68
f 69/69/69 68/68/68 70/70/70
f 71/71/71 68/68/68 63/63/63
f 68/68/68 71/71/71 70/70/70
f 65/65/65 72/72/72 63/63/63
f 72/72/72 71/71/71 63/63/63
f 73/73/73 72/72/72 65/65/65
f 71/71/71 72/72/72 73/73/73
f 74/74/74 73/73/73 65/65/65
f 75/75/75 73/73/73 74/74/74
f 76/76/76 75/75/75 74/74/74
f 76/76/76 77/77/77 75/75/75
f 70/70/70 71/71/71 78/78/78
f 78/78/78 71/71/71 73/73/73
f 78/78/78 73/73/73 75/75/75
f 79/79/79 70/70/70 78/78/78
f 79/79/79 78/78/78 80/80/80
f 80/80/80 78/78/78 75/75/75
f 81/81/81 79/79/79 80/80/80
f 81/81/81 80/80/80 82/82/82
f 83/83/83 80/80/80 75/75/75
f 80/80/80 83/83/83 82/82/82
f 77/77/77 84/84/84 75/75/75
f 84/84/84 83/83/83 75/75/75
f 85/85/85 84/84/84 77/77/77
f 83/83/83 84/84/84 85/85/85
f 86/86/86 85/85/85 77/77/77
f 82/82/82 83/83/83 87/87/87
f 87/87/87 83/83/83 85/85/85
f 88/88/88 82/82/82 87/87/87
f 88/88/88 87/87/87 89/89/89
f 90/90/90 85/85/85 86/86/86
f 85/85/85 90/90/90 87/87/87
f 91/91/91 90/90/90 86/86/86
f 91/91/91 92/92/92 90/90/90
f 87/87/87 93/93/93 89/89/89
f 90/90/90 93/93/93 87/87/87
f 89/89/89 93/93/93 94/94/94
f 92/92/92 95/95/95 90/90/90
f 90/90/90 95/95/95 93/93/93
f 92/92/92 96/96/96 95/95/95
f 93/93/93 97/97/97 94/94/94
f 95/95/95 97/97/97 93/93/93
f 94/94/94 97/97/97 98/98/98
f 96/96/96 99/99/99 95/95/95
f 95/95/95 99/99/99 97/97/97
f 97/97/97 100/100/100 98/98/98
f 99/99/99 100/100/100 97/97/97
f 98/98/98 100/100/100 101/101/101
f 102/102/102 99/99/99 96/96/96
f 99/99/99 102/102/102 100/100/100
f 103/103/103 102/102/102 96/96/96
f 103/103/103 104/104/104 102/102/102
f 100/100/100 105/105/105 101/101/101
f 102/102/102 105/105/105 100/100/100
f 101/101/101 105/105/105 106/106/106
f 104/104/104 107/107/107 102/102/102
f 102/102/102 107/107/107 105/105/105
f 104/104/104 108/108/108 107/107/107
f 105/105/105 109/109/109 106/106/106
f 107/107/107 109/109/109 105/105/105
f 106/106/106 109/109/109 110/110/110
f 108/108/108 111/111/111 107/107/107
f 107/107/107 111/111/111 109/109/109
f 109/109/109 112/112/112 110/110/110
f 111/111/111 112/112/112 109/109/109
f 110/110/110 112/112/112 113/113/113
f 114/114/114 111/111/111 108/108/108
f 111/111/111 114/114/114 112/112/112
f 115/115/115 114/114/114 108/108/108
f 115/115/115 116/116/116 114/114/114
f 112/112/112 117/117/117 113/113/113
f 114/114/114 117/117/117 112/112/112
f 113/113/113 117/117/117 118/118/118
f 116/116/116 119/119/119 114/114/114
f 114/114/114 119/119/119 117/117/117
f 116/116/116 120/120/120 119/119/119
f 117/117/117 121/121/121 118/118/118
f 119/119/119 121/121/121 117/117/117
f 118/118/118 121/121/121 122/122/122
f 120/120/120 123/123/123 119/119/119
f 119/119/119 123/123/123 121/121/121
f 121/121/121 124/124/124 122/122/122
f 123/123/123 124/124/124 121/121/121
f 122/122/122 124/124/124 125/125/125
f 126/126/126 123/123/123 120/120/120
f 123/123/123 126/126/126 124/124/124
f 127/127/127 126/126/126 120/120/120
f 127/127/127 128/128/128 126/126/126
f 124/124/124 129/129/129 125/125/125
f 126/126/126 129/129/129 124/124/124
f 125/125/125 129/129/129 130/130/130
f 128/128/128 131/131/131 126/126/126
f 126/126/126 131/131/131 129/129/129
f 128/128/128 132/132/132 131/131/131
f 129/129/129 133/133/133 130/130/130
f 131/131/131 133/133/133 129/129/129
f 130/130/130 133/133/133 134/134/134
f 132/132/132 135/135/135 131/131/131
f 131/131/131 135/135/135 133/133/133
f 133/133/133 136/136/136 134/134/134
f 135/135/135 136/136/136 133/133/133
f 134/134/134 136/136/136 137/137/137
f 138/138/138 135/135/135 132/132/132
f 135/135/135 138/138/138 136/136/136
f 139/139/139 138/138/138 132/132/132
f 139/139/139 140/140/140 138/138/138
f 136/136/136 141/141/141 137/137/137
f 138/138/138 141/141/141 136/136/136
f 137/137/137 141/141/141 142/142/142
f 140/140/140 143/143/143 138/138/138
f 138/138/138 143/143/143 141/141/141
f 140/140/140 144/144/144 143/143/143
f 141/141/141 145/145/145 142/142/142
f 143/143/143 145/145/145 141/141/141
f 142/142/142 145/145/145 146/146/146
f 144/144/144 147/147/147 143/143/143
f 143/143/143 147/147/147 145/145/145
f 145/145/145 148/148/148 146/146/146
f 147/147/147 148/148/148 145/145/145
f 146/146/146 148/148/148 149/149/149
f 150/150/150 147/147/147 144/144/144
f 147/147/147 150/150/150 148/148/148
f 151/151/151 150/150/150 144/144/144
f 150/150/150 151/151/151 152/152/152
f 153/153/153 150/150/150 152/152/152
f 150/150/150 154/154/154 148/148/148
f 154/154/154 150/150/150 153/153/153
f 148/148/148 154/154/154 149/149/149
f 155/155/155 154/154/154 153/153/153
f 149/149/149 154/154/154 155/155/155
f 156/156/156 149/149/149 155/155/155
