g WonderBox_SmokeTop2
v -0.03314661 -0.0022132844 0.04215598
v -0.05169671 -0.0028875985 0.02000761
v -0.024282956 -0.0055185067 0.028711325
v -0.063058086 0.0015043993 0.039354477
v -0.059698485 0.006184405 0.06368285
v -0.07977638 0.008851402 0.07017411
v -0.03207049 0.00411336 0.055551976
v -0.084631726 0.004554633 0.036780324
v -0.07616693 0.00038552503 0.012985642
v -0.040243253 0.011305023 0.08948951
v -0.02118478 0.0085196765 0.068869546
v -0.11856239 0.0075074867 0.034727477
v -0.115900725 0.0035541526 0.0032282087
v -0.11198172 0.011433256 0.080117054
v -0.07758313 0.015575922 0.12764563
v -0.053030193 0.013475114 0.10383301
v -0.028499026 0.013366308 0.14786464
v -0.016449956 0.01007422 0.09674226
v -0.0076860795 0.008713433 0.07609072
v -0.022601707 0.01218639 0.11870786
v 0.017698186 0.010380273 0.14382255
v 0.010878593 0.008943284 0.09764713
v 0.009913827 0.008358108 0.07737832
v 0.01272606 0.009694891 0.11641506
v 0.05593147 0.0074716425 0.12473812
v 0.03705378 0.007738961 0.091409765
v 0.029351963 0.007958028 0.07467986
v 0.04068992 0.008441722 0.06902756
v 0.04368936 0.0075971624 0.10723397
v 0.07474421 0.0066270195 0.105695486
v 0.05112933 0.007883461 0.08192329
v 0.060658846 0.0072510205 0.09233091
v 0.071440995 0.0066177524 0.07728485
v 0.086437754 0.005510963 0.085307635
v 0.0779398 0.0052763266 0.06338903
v 0.09145842 0.0036916828 0.06626214
v 0.091996305 0.001984594 0.049464066
v 0.061109513 0.0077610407 0.07101363
v 0.050437145 0.008831118 0.06359977
v 0.06652722 0.006913229 0.060862154
v 0.054050803 0.008634438 0.057965226
v 0.059024524 0.008251756 0.050426945
v 0.070056476 0.0061346516 0.050120465
v 0.08047983 0.0040259627 0.049786944
v 0.08005201 0.0031632897 0.037180346
v 0.08946971 0.00074271014 0.034847345
v 0.07622185 0.0030231376 0.026504092
v 0.08457607 0.00040548312 0.022293271
v 0.07781344 0.0016359027 0.011942276
v 0.07032373 0.005663696 0.039590284
v 0.060105138 0.00817408 0.042038217
v 0.067592114 0.0057271183 0.030853782
v 0.058927946 0.00844189 0.035220828
v 0.056234367 0.009361005 0.029722188
v 0.06352398 0.0067513958 0.02371597
v 0.07078461 0.0041521583 0.017733628
v 0.06517885 0.007209151 0.011178855
v 0.07086187 0.005099757 0.0042501325
v 0.060122646 0.012412606 0.0067025004
v 0.06463415 0.0109336395 -0.0008920267
v 0.059301753 0.018628357 -0.0040633283
v 0.059308395 0.00938811 0.018336074
v 0.05341452 0.011575764 0.025521854
v 0.055462364 0.013940348 0.014547482
v 0.050783485 0.015474187 0.022423772
v 0.04823065 0.02098792 0.02012361
v 0.05197056 0.020190837 0.011953043
v 0.047437485 0.024190562 0.019408062
v 0.055695623 0.019396925 0.0038149506
v 0.05741249 0.022873593 -0.0048878896
v 0.05416338 0.023302563 0.0030258973
v 0.056259822 0.027206825 -0.005188968
v 0.050807133 0.023745677 0.011200668
v 0.047212694 0.027582858 0.019061191
v 0.05331295 0.027329309 0.002709903
v 0.050268896 0.02745583 0.0108692655
v 0.047400612 0.031085629 0.019003313
v 0.052962255 0.031376626 0.0027593842
v 0.055648938 0.031517204 -0.005087625
v 0.055300586 0.03569908 -0.0047362456
v 0.050186973 0.03123142 0.010865174
v 0.047765486 0.03462005 0.019122059
v 0.05284622 0.035347614 0.0030349896
v 0.054977518 0.039640028 -0.0042732535
v 0.05031091 0.034984555 0.011062507
v 0.048106384 0.03809663 0.019313961
v 0.052739415 0.039137304 0.0034096807
v 0.05042751 0.038618002 0.011345984
v 0.048361648 0.04138323 0.019511145
v 0.05257494 0.04260854 0.0038056725
v 0.054610267 0.04320046 -0.0037812223
v 0.0541714 0.046234004 -0.0033287623
v 0.050472487 0.0419971 0.011642771
v 0.048504453 0.044337038 0.019654633
v 0.05232553 0.04561612 0.0041574934
v 0.05355966 0.048657313 -0.0029888547
v 0.0504188 0.04497785 0.011890633
v 0.0484323 0.046868943 0.019678593
v 0.051889554 0.048074797 0.004394489
v 0.050164368 0.047473073 0.012021323
v 0.04774003 0.04910453 0.019489741
v 0.050867766 0.050139204 0.004425277
v 0.05237869 0.050639026 -0.0028519642
v 0.05015837 0.052410815 -0.0030129263
v 0.04930701 0.049622897 0.01194251
v 0.045946818 0.051223066 0.018987933
v 0.048786562 0.05202394 0.004153293
v 0.046331666 0.05412865 -0.003539046
v 0.047369517 0.0516243 0.011555843
v 0.042511504 0.053329125 0.01810615
v 0.045087345 0.053868227 0.0035113248
v 0.04380199 0.05359921 0.010794206
v 0.036651652 0.055228453 0.016909849
v 0.038871594 0.05550982 0.0025495642
v 0.03994399 0.05564574 -0.0043875063
v 0.029943857 0.05673961 -0.0054879594
v 0.029155811 0.05671111 0.0013475559
v 0.037763834 0.055369418 0.009715408
v 0.02834178 0.056681674 0.008408495
v 0.027524497 0.05665212 0.015497613
vt 1 0.9791667
vt 0.6666667 1
vt 1 1
vt 0.6666667 0.9791667
vt 0.6666667 0.9375
vt 0.33333334 0.9375
vt 1 0.9375
vt 0.33333334 0.9791667
vt 0.33333334 1
vt 0.6666667 0.875
vt 1 0.875
vt 0 0.9791667
vt 0 1
vt 0 0.9375
vt 0 0.875
vt 0.33333334 0.875
vt 0 0.8125
vt 0.6666667 0.8125
vt 1 0.8125
vt 0.33333334 0.8125
vt 0 0.75
vt 0.6666667 0.75
vt 1 0.75
vt 0.33333334 0.75
vt 0 0.6875
vt 0.6666667 0.6875
vt 1 0.6875
vt 1 0.6458333
vt 0.33333334 0.6875
vt 0 0.6458333
vt 0.6666667 0.6458333
vt 0.33333334 0.6458333
vt 0.33333334 0.6041667
vt 0 0.6041667
vt 0.33333334 0.5625
vt 0 0.5625
vt 0 0.5208333
vt 0.6666667 0.6041667
vt 1 0.6041667
vt 0.6666667 0.5625
vt 1 0.5625
vt 1 0.5208333
vt 0.6666667 0.5208333
vt 0.33333334 0.5208333
vt 0.33333334 0.47916666
vt 0 0.47916666
vt 0.33333334 0.4375
vt 0 0.4375
vt 0 0.39583334
vt 0.6666667 0.47916666
vt 1 0.47916666
vt 0.6666667 0.4375
vt 1 0.4375
vt 1 0.39583334
vt 0.6666667 0.39583334
vt 0.33333334 0.39583334
vt 0.33333334 0.35416666
vt 0 0.35416666
vt 0.33333334 0.3125
vt 0 0.3125
vt 0 0.27083334
vt 0.6666667 0.35416666
vt 1 0.35416666
vt 0.6666667 0.3125
vt 1 0.3125
vt 1 0.27083334
vt 0.6666667 0.27083334
vt 1 0.25
vt 0.33333334 0.27083334
vt 0 0.25
vt 0.33333334 0.25
vt 0 0.22916667
vt 0.6666667 0.25
vt 1 0.22916667
vt 0.33333334 0.22916667
vt 0.6666667 0.22916667
vt 1 0.20833333
vt 0.33333334 0.20833333
vt 0 0.20833333
vt 0 0.1875
vt 0.6666667 0.20833333
vt 1 0.1875
vt 0.33333334 0.1875
vt 0 0.16666667
vt 0.6666667 0.1875
vt 1 0.16666667
vt 0.33333334 0.16666667
vt 0.6666667 0.16666667
vt 1 0.14583333
vt 0.33333334 0.14583333
vt 0 0.14583333
vt 0 0.125
vt 0.6666667 0.14583333
vt 1 0.125
vt 0.33333334 0.125
vt 0 0.10416666
vt 0.6666667 0.125
vt 1 0.10416666
vt 0.33333334 0.10416666
vt 0.6666667 0.10416666
vt 1 0.083333336
vt 0.33333334 0.083333336
vt 0 0.083333336
vt 0 0.0625
vt 0.6666667 0.083333336
vt 1 0.0625
vt 0.33333334 0.0625
vt 0 0.041666668
vt 0.6666667 0.0625
vt 1 0.041666668
vt 0.33333334 0.041666668
vt 0.6666667 0.041666668
vt 1 0.020833334
vt 0.33333334 0.020833334
vt 0 0.020833334
vt 0 0
vt 0.33333334 0
vt 0.6666667 0.020833334
vt 0.6666667 0
vt 1 0
vn 0.10648877 0.9715939 -0.21134205
vn 0.147076 0.97988945 -0.1348535
vn 0.13763157 0.9797974 -0.14510192
vn 0.12400141 0.9764846 -0.17635627
vn 0.048398137 0.97724575 -0.20651473
vn 0.04500801 0.99045813 -0.1302569
vn 0.013033253 0.9691195 -0.24624687
vn 0.09857139 0.9871224 -0.12598754
vn 0.12348371 0.9846662 -0.12322377
vn 0.03260924 0.9891812 -0.14302821
vn 0.005091004 0.98852634 -0.15096253
vn 0.08474869 0.9893083 -0.11868733
vn 0.10197132 0.98697054 -0.12446268
vn 0.039441258 0.9925557 -0.11522822
vn 0.029862719 0.9961372 -0.08257692
vn 0.037642557 0.9951332 -0.09106464
vn 0.06025381 0.99772114 -0.030362096
vn 0.057845756 0.99627423 -0.06396626
vn 0.04351395 0.99768984 -0.05216811
vn 0.062211484 0.99721944 -0.041026555
vn 0.061906423 0.9975368 -0.03298325
vn 0.04541815 0.99812096 -0.04112889
vn 0.033448324 0.99900585 -0.02947081
vn 0.05895026 0.9975172 -0.038526617
vn 0.04857306 0.998548 -0.02329019
vn 0.030194297 0.99951744 -0.0072847675
vn 0.01895689 0.99981934 -0.0014476314
vn 0.0060434113 0.9992725 0.037655126
vn 0.046281632 0.9987079 -0.020990118
vn 0.0445756 0.99899596 -0.004493246
vn 0.02606221 0.99926263 0.02819532
vn 0.04347875 0.9990471 0.0038023468
vn 0.0890352 0.9958994 -0.016037604
vn 0.08417254 0.99611276 -0.02596827
vn 0.1377977 0.9890354 -0.053110167
vn 0.12931769 0.98944575 -0.065376125
vn 0.16992652 0.98157203 -0.087414674
vn 0.082338445 0.9964675 0.016518096
vn 0.058192074 0.9977028 0.03468349
vn 0.14724916 0.988995 -0.014371955
vn 0.1346388 0.99087733 0.0058718687
vn 0.1787284 0.98389524 0.0025111567
vn 0.18908462 0.9815497 -0.02841144
vn 0.17879684 0.9812548 -0.07190821
vn 0.21890794 0.9716419 -0.08939408
vn 0.21294302 0.97176063 -0.10166853
vn 0.2598877 0.9625295 -0.07742896
vn 0.25581476 0.96290314 -0.08588491
vn 0.33566242 0.9419779 -0.002920847
vn 0.22863756 0.9720658 -0.053038113
vn 0.22717936 0.9735368 -0.024813896
vn 0.26999947 0.96144414 -0.05220562
vn 0.27538803 0.9608013 -0.03197337
vn 0.36932716 0.9282464 0.04422729
vn 0.3595665 0.9326571 0.029369488
vn 0.3426227 0.9394526 0.006210875
vn 0.5006902 0.85276157 0.14868377
vn 0.48841012 0.8618713 0.1365038
vn 0.67347217 0.68944514 0.2666471
vn 0.66011435 0.7061481 0.25613233
vn 0.7720798 0.55488324 0.3098343
vn 0.52816695 0.8303824 0.17749539
vn 0.5442467 0.81570655 0.19600576
vn 0.69993675 0.652841 0.28963295
vn 0.7154848 0.6288479 0.30435485
vn 0.81289923 0.47311953 0.33963618
vn 0.80237806 0.4965538 0.33109483
vn 0.9033534 0.23635975 0.35789195
vn 0.78235835 0.5363719 0.31657645
vn 0.87661827 0.33894646 0.341549
vn 0.88422906 0.3142178 0.345552
vn 0.922839 0.17694682 0.34213752
vn 0.8972999 0.26427028 0.35357347
vn 0.93521446 0.06328121 0.34838104
vn 0.9271156 0.14951965 0.34365755
vn 0.9332215 0.09395573 0.34679967
vn 0.94515383 -0.04303439 0.3237781
vn 0.94484913 0.041742545 0.32483473
vn 0.9431539 0.068286926 0.32526538
vn 0.9525046 0.026124345 0.30340177
vn 0.9458856 -0.012920933 0.32424307
vn 0.95130503 -0.07870383 0.2980341
vn 0.95330995 0.0016484795 0.3019889
vn 0.9587367 0.029071795 0.2828049
vn 0.95277 -0.05024855 0.2995069
vn 0.9584884 -0.07229778 0.27581328
vn 0.9597044 0.0054080165 0.2809596
vn 0.9596207 -0.045060474 0.27766448
vn 0.96527374 -0.048389725 0.2567196
vn 0.96448976 0.030477814 0.26235586
vn 0.96286976 0.05452137 0.26440346
vn 0.9614027 0.11764643 0.2487248
vn 0.965731 -0.021034919 0.25869113
vn 0.9703727 0.0070484453 0.24150996
vn 0.96459 0.09298549 0.24681953
vn 0.92338824 0.3042703 0.23403798
vn 0.96923053 0.037055254 0.24334961
vn 0.95512503 0.18470506 0.23156059
vn 0.9302771 0.2831705 0.23323601
vn 0.9469454 0.22222109 0.23219004
vn 0.8258232 0.52456224 0.20700367
vn 0.76658165 0.61021304 0.19998173
vn 0.7531538 0.62705433 0.19890268
vn 0.5059717 0.85093194 0.14109358
vn 0.8026821 0.56041414 0.20405266
vn 0.5848397 0.79648584 0.15353492
vn 0.5223144 0.84061337 0.14337616
vn 0.30620882 0.94798595 0.086941816
vn 0.55962247 0.8152197 0.14912961
vn 0.36506948 0.92594695 0.09667794
vn 0.3187005 0.9436875 0.08879137
vn 0.346798 0.9332849 0.09333002
vn 0.19969568 0.97864574 0.04872601
vn 0.1703579 0.98439157 0.044174913
vn 0.16248555 0.9857654 0.04318749
vn 0.112471 0.9932868 0.027051019
vn 0.11944111 0.9924469 0.027982034
vn 0.18875314 0.98090327 0.046914786
vn 0.13373046 0.9905669 0.029890217
vn 0.14141019 0.9894683 0.030915434
g WonderBox_SmokeTop2_0
f 3/3/3 2/2/2 1/1/1
f 2/2/2 4/4/4 1/1/1
f 1/1/1 4/4/4 5/5/5
f 5/5/5 4/4/4 6/6/6
f 7/7/7 1/1/1 5/5/5
f 8/8/8 4/4/4 2/2/2
f 4/4/4 8/8/8 6/6/6
f 9/9/9 8/8/8 2/2/2
f 7/7/7 5/5/5 10/10/10
f 10/10/10 5/5/5 6/6/6
f 11/11/11 7/7/7 10/10/10
f 12/12/12 8/8/8 9/9/9
f 6/6/6 8/8/8 12/12/12
f 13/13/13 12/12/12 9/9/9
f 14/14/14 6/6/6 12/12/12
f 14/14/14 15/15/15 6/6/6
f 15/15/15 16/16/16 6/6/6
f 16/16/16 10/10/10 6/6/6
f 15/15/15 17/17/17 16/16/16
f 11/11/11 10/10/10 18/18/18
f 18/18/18 10/10/10 16/16/16
f 19/19/19 11/11/11 18/18/18
f 17/17/17 20/20/20 16/16/16
f 20/20/20 18/18/18 16/16/16
f 17/17/17 21/21/21 20/20/20
f 19/19/19 18/18/18 22/22/22
f 22/22/22 18/18/18 20/20/20
f 23/23/23 19/19/19 22/22/22
f 21/21/21 24/24/24 20/20/20
f 24/24/24 22/22/22 20/20/20
f 21/21/21 25/25/25 24/24/24
f 23/23/23 22/22/22 26/26/26
f 26/26/26 22/22/22 24/24/24
f 27/27/27 23/23/23 26/26/26
f 27/27/27 26/26/26 28/28/28
f 25/25/25 29/29/29 24/24/24
f 29/29/29 26/26/26 24/24/24
f 25/25/25 30/30/30 29/29/29
f 26/26/26 31/31/31 28/28/28
f 31/31/31 26/26/26 29/29/29
f 30/30/30 32/32/32 29/29/29
f 32/32/32 31/31/31 29/29/29
f 33/33/33 32/32/32 30/30/30
f 31/31/31 32/32/32 33/33/33
f 34/34/34 33/33/33 30/30/30
f 35/35/35 33/33/33 34/34/34
f 36/36/36 35/35/35 34/34/34
f 36/36/36 37/37/37 35/35/35
f 28/28/28 31/31/31 38/38/38
f 38/38/38 31/31/31 33/33/33
f 38/38/38 33/33/33 35/35/35
f 39/39/39 28/28/28 38/38/38
f 39/39/39 38/38/38 40/40/40
f 40/40/40 38/38/38 35/35/35
f 41/41/41 39/39/39 40/40/40
f 41/41/41 40/40/40 42/42/42
f 43/43/43 40/40/40 35/35/35
f 40/40/40 43/43/43 42/42/42
f 37/37/37 44/44/44 35/35/35
f 44/44/44 43/43/43 35/35/35
f 45/45/45 44/44/44 37/37/37
f 43/43/43 44/44/44 45/45/45
f 46/46/46 45/45/45 37/37/37
f 47/47/47 45/45/45 46/46/46
f 48/48/48 47/47/47 46/46/46
f 48/48/48 49/49/49 47/47/47
f 42/42/42 43/43/43 50/50/50
f 50/50/50 43/43/43 45/45/45
f 50/50/50 45/45/45 47/47/47
f 51/51/51 42/42/42 50/50/50
f 51/51/51 50/50/50 52/52/52
f 52/52/52 50/50/50 47/47/47
f 53/53/53 51/51/51 52/52/52
f 53/53/53 52/52/52 54/54/54
f 55/55/55 52/52/52 47/47/47
f 52/52/52 55/55/55 54/54/54
f 49/49/49 56/56/56 47/47/47
f 56/56/56 55/55/55 47/47/47
f 57/57/57 56/56/56 49/49/49
f 55/55/55 56/56/56 57/57/57
f 58/58/58 57/57/57 49/49/49
f 59/59/59 57/57/57 58/58/58
f 60/60/60 59/59/59 58/58/58
f 60/60/60 61/61/61 59/59/59
f 54/54/54 55/55/55 62/62/62
f 62/62/62 55/55/55 57/57/57
f 62/62/62 57/57/57 59/59/59
f 63/63/63 54/54/54 62/62/62
f 63/63/63 62/62/62 64/64/64
f 64/64/64 62/62/62 59/59/59
f 65/65/65 63/63/63 64/64/64
f 65/65/65 64/64/64 66/66/66
f 64/64/64 67/67/67 66/66/66
f 67/67/67 64/64/64 59/59/59
f 66/66/66 67/67/67 68/68/68
f 61/61/61 69/69/69 59/59/59
f 69/69/69 67/67/67 59/59/59
f 61/61/61 70/70/70 69/69/69
f 70/70/70 71/71/71 69/69/69
f 69/69/69 71/71/71 67/67/67
f 70/70/70 72/72/72 71/71/71
f 67/67/67 73/73/73 68/68/68
f 71/71/71 73/73/73 67/67/67
f 68/68/68 73/73/73 74/74/74
f 72/72/72 75/75/75 71/71/71
f 71/71/71 75/75/75 73/73/73
f 73/73/73 76/76/76 74/74/74
f 75/75/75 76/76/76 73/73/73
f 74/74/74 76/76/76 77/77/77
f 78/78/78 75/75/75 72/72/72
f 75/75/75 78/78/78 76/76/76
f 79/79/79 78/78/78 72/72/72
f 79/79/79 80/80/80 78/78/78
f 76/76/76 81/81/81 77/77/77
f 78/78/78 81/81/81 76/76/76
f 77/77/77 81/81/81 82/82/82
f 80/80/80 83/83/83 78/78/78
f 78/78/78 83/83/83 81/81/81
f 80/80/80 84/84/84 83/83/83
f 81/81/81 85/85/85 82/82/82
f 83/83/83 85/85/85 81/81/81
f 82/82/82 85/85/85 86/86/86
f 84/84/84 87/87/87 83/83/83
f 83/83/83 87/87/87 85/85/85
f 85/85/85 88/88/88 86/86/86
f 87/87/87 88/88/88 85/85/85
f 86/86/86 88/88/88 89/89/89
f 90/90/90 87/87/87 84/84/84
f 87/87/87 90/90/90 88/88/88
f 91/91/91 90/90/90 84/84/84
f 91/91/91 92/92/92 90/90/90
f 88/88/88 93/93/93 89/89/89
f 90/90/90 93/93/93 88/88/88
f 89/89/89 93/93/93 94/94/94
f 92/92/92 95/95/95 90/90/90
f 90/90/90 95/95/95 93/93/93
f 92/92/92 96/96/96 95/95/95
f 93/93/93 97/97/97 94/94/94
f 95/95/95 97/97/97 93/93/93
f 94/94/94 97/97/97 98/98/98
f 96/96/96 99/99/99 95/95/95
f 95/95/95 99/99/99 97/97/97
f 97/97/97 100/100/100 98/98/98
f 99/99/99 100/100/100 97/97/97
f 98/98/98 100/100/100 101/101/101
f 102/102/102 99/99/99 96/96/96
f 99/99/99 102/102/102 100/100/100
f 103/103/103 102/102/102 96/96/96
f 103/103/103 104/104/104 102/102/102
f 100/100/100 105/105/105 101/101/101
f 102/102/102 105/105/105 100/100/100
f 101/101/101 105/105/105 106/106/106
f 104/104/104 107/107/107 102/102/102
f 102/102/102 107/107/107 105/105/105
f 104/104/104 108/108/108 107/107/107
f 105/105/105 109/109/109 106/106/106
f 107/107/107 109/109/109 105/105/105
f 106/106/106 109/109/109 110/110/110
f 108/108/108 111/111/111 107/107/107
f 107/107/107 111/111/111 109/109/109
f 109/109/109 112/112/112 110/110/110
f 111/111/111 112/112/112 109/109/109
f 110/110/110 112/112/112 113/113/113
f 114/114/114 111/111/111 108/108/108
f 111/111/111 114/114/114 112/112/112
f 115/115/115 114/114/114 108/108/108
f 114/114/114 115/115/115 116/116/116
f 117/117/117 114/114/114 116/116/116
f 114/114/114 118/118/118 112/112/112
f 118/118/118 114/114/114 117/117/117
f 112/112/112 118/118/118 113/113/113
f 119/119/119 118/118/118 117/117/117
f 113/113/113 118/118/118 119/119/119
f 120/120/120 113/113/113 119/119/119
