g WonderBox_SmokeTrails2
v 0.103277184 -0.0017870081 -0.005218679
v 0.11912592 -0.0027808982 -0.0017898458
v 0.11258568 -0.0016533607 0.01778081
v 0.09782714 -0.00083515275 0.012732298
v 0.08749145 -0.0007970686 -0.008633884
v 0.09078584 0.000724694 0.028355313
v 0.10434459 0.000120307064 0.034816932
v 0.083127245 -2.0197189E-05 0.007703852
v 0.07220968 0.00016126655 -0.0119400555
v 0.06889667 0.00076874055 0.0028359424
v 0.064207256 0.0019094446 0.015688917
v 0.07728097 0.0013266787 0.02191938
v 0.05842598 0.0034672515 0.026786074
v 0.082500204 0.0027559074 0.04182657
v 0.094781406 0.0023930233 0.0494993
v 0.07026784 0.003117349 0.03418433
v 0.07331718 0.005121862 0.053322256
v 0.084274836 0.0050177067 0.06200871
v 0.062403083 0.005225604 0.04467033
v 0.05183742 0.0053260345 0.03629462
v 0.044726107 0.0073696654 0.044381756
v 0.06358366 0.007685934 0.063018575
v 0.073203616 0.007847275 0.072525926
v 0.05400193 0.0075252345 0.053549007
v 0.053646564 0.010311497 0.07109172
v 0.061946496 0.0107346475 0.08123176
v 0.045379624 0.00989003 0.060991988
v 0.037376612 0.009482019 0.051214695
v 0.04375993 0.012889822 0.07769069
v 0.050782043 0.013562255 0.08827982
v 0.03676573 0.012220063 0.06714366
v 0.029994821 0.011571688 0.056933343
v 0.022471964 0.013646145 0.061568454
v 0.03380624 0.015423756 0.08285569
v 0.039588287 0.016330583 0.093715124
v 0.02804717 0.014520532 0.07203941
v 0.023575075 0.017944042 0.08659971
v 0.028143093 0.019069636 0.097555555
v 0.019025214 0.016822921 0.07568741
v 0.014620608 0.015737593 0.06512348
v 0.00625332 0.017878225 0.06760188
v 0.01285603 0.02048142 0.088935755
v 0.016224328 0.021809412 0.09981898
v 0.009501121 0.01915871 0.07809578
v 0.0014386977 0.02306664 0.08987682
v 0.003609864 0.024579916 0.10052326
v -0.0007238386 0.021559378 0.079272695
v -0.0028173348 0.020100238 0.06900712
v -0.01277879 0.022435827 0.069342636
v -0.010887333 0.025730435 0.08943591
v -0.009922427 0.02741114 0.09968626
v -0.011848403 0.024056409 0.0792263
v -0.024197299 0.028467624 0.08760821
v -0.024450488 0.03029668 0.09730972
v -0.02394512 0.02664584 0.07794526
v -0.02370099 0.024882214 0.068590805
v -0.035183914 0.027296707 0.06664959
v -0.038025763 0.031129314 0.0843177
v -0.0394755 0.033084475 0.09333089
v -0.03658179 0.029181924 0.075340346
v -0.051772118 0.03353068 0.07947055
v -0.054354466 0.03558605 0.087670855
v -0.04920003 0.03148348 0.07130284
v -0.046710055 0.029501634 0.06339588
v -0.06483574 0.035486903 0.07297292
v -0.06844438 0.03761294 0.08025075
v -0.061241448 0.03336931 0.06572402
v -0.057761908 0.031319328 0.058706556
v -0.06782196 0.03257212 0.05245848
v -0.076616034 0.036813155 0.06473099
v -0.08110224 0.03897667 0.070991665
v -0.07214767 0.034658242 0.05849519
v -0.08651238 0.03732462 0.054650903
v -0.091685034 0.039488766 0.059814703
v -0.0813603 0.035169072 0.04950762
v -0.0763727 0.03308234 0.044528544
v -0.08299053 0.03275168 0.03488733
v -0.09404044 0.03692008 0.042742185
v -0.09967742 0.039046545 0.046749253
v -0.08842586 0.03480207 0.038751047
v -0.09918084 0.035832778 0.029427743
v -0.105074644 0.03789043 0.032257736
v -0.09331046 0.033783298 0.026609
v -0.08762749 0.031799253 0.023880247
v -0.09032954 0.030523533 0.011946412
v -0.1020305 0.034379542 0.015233819
v -0.107999615 0.036346644 0.016910853
v -0.096085116 0.032420263 0.013563452
v -0.10268634 0.032877233 0.0006866631
v -0.108575225 0.034741398 0.0012793037
v -0.096820846 0.031020474 9.6378055E-05
v -0.09114262 0.029222995 -0.0004750618
v -0.090112664 0.028196117 -0.012945058
v -0.10124524 0.031642683 -0.013687478
v -0.106924385 0.033400908 -0.014066216
v -0.09558866 0.029891444 -0.013310246
v -0.09780412 0.030992737 -0.027362358
v -0.10317001 0.032651383 -0.02855501
v -0.092459574 0.02934068 -0.026174447
v -0.08728565 0.027741367 -0.02502446
v -0.09244929 0.03118856 -0.039897628
v -0.09742193 0.032761548 -0.041713577
v -0.08749642 0.029621823 -0.038088895
v -0.08270167 0.028105106 -0.03633791
v -0.076377526 0.029325191 -0.046765063
v -0.08522459 0.032268602 -0.051196545
v -0.08973781 0.03377015 -0.053457215
v -0.0807293 0.030773021 -0.048944864
v -0.076163255 0.03421563 -0.061248284
v -0.08016227 0.035658434 -0.063798435
v -0.07218014 0.032778557 -0.058708265
v -0.06832418 0.031387366 -0.05624934
v -0.058552574 0.03427738 -0.06473415
v -0.06529855 0.037012413 -0.07004199
v -0.068739936 0.038407657 -0.07274973
v -0.061870847 0.035622712 -0.06734502
v -0.052663706 0.040641718 -0.07756685
v -0.055515397 0.04199907 -0.08032359
v -0.04982335 0.03928976 -0.074821055
v -0.047073673 0.037980966 -0.072162926
v -0.033898436 0.042483877 -0.07847907
v -0.038291965 0.045086317 -0.083812
v -0.040533274 0.04641392 -0.08653253
v -0.036059566 0.043763988 -0.081102274
v -0.022170043 0.050232343 -0.0885847
v -0.023792677 0.05153524 -0.09120205
v -0.02055386 0.048934627 -0.08597774
v -0.018989272 0.04767834 -0.08345403
v -0.0021144056 0.053082556 -0.086171456
v -0.0040985066 0.055579428 -0.09096449
v -0.0051106727 0.056853175 -0.09340959
v -0.0030903635 0.05431074 -0.08852909
v 0.016168607 0.060530555 -0.089848995
v 0.015741171 0.061759647 -0.09204564
v 0.016594345 0.05930635 -0.08766107
v 0.017006489 0.058121227 -0.085543
v 0.028098034 0.06260988 -0.087828875
v 0.027955042 0.06380156 -0.089851186
v 0.028240455 0.061422948 -0.08581458
v 0.02837833 0.06027391 -0.0838646
v 0.039571565 0.064488724 -0.08433422
v 0.039685592 0.06564658 -0.08619902
v 0.039457988 0.06333547 -0.082476825
v 0.039348036 0.062219035 -0.08067873
v 0.051357683 0.06356021 -0.07604305
v 0.052070707 0.065719016 -0.07926838
v 0.052434444 0.06682031 -0.08091375
v 0.05170841 0.064622104 -0.07762956
v 0.06310766 0.06480068 -0.069895186
v 0.064273424 0.06685693 -0.072722666
v 0.06486812 0.067905895 -0.074165076
v 0.06368109 0.065812126 -0.07128599
v 0.07476001 0.066924006 -0.06659603
v 0.07550364 0.06791465 -0.06784592
v 0.074019335 0.06593732 -0.06535112
v 0.073302306 0.06498212 -0.06414595
v 0.08478853 0.06698563 -0.060084395
v 0.085668944 0.067922674 -0.06115744
v 0.08391159 0.0660523 -0.059015606
v 0.08306266 0.06514878 -0.057980947
v 0.09260305 0.067038156 -0.05450709
v 0.0936001 0.06792952 -0.055429384
v 0.09160996 0.06615033 -0.05358846
v 0.090648584 0.06529085 -0.05269916
vt 0.6666667 0
vt 1 0
vt 1 0.027777778
vt 0.6666667 0.027777778
vt 0.33333334 0
vt 0.6666667 0.055555556
vt 1 0.055555556
vt 0.33333334 0.027777778
vt 0 0
vt 0 0.027777778
vt 0 0.055555556
vt 0.33333334 0.055555556
vt 0 0.083333336
vt 0.6666667 0.083333336
vt 1 0.083333336
vt 0.33333334 0.083333336
vt 0.6666667 0.11111111
vt 1 0.11111111
vt 0.33333334 0.11111111
vt 0 0.11111111
vt 0 0.1388889
vt 0.6666667 0.1388889
vt 1 0.1388889
vt 0.33333334 0.1388889
vt 0.6666667 0.16666667
vt 1 0.16666667
vt 0.33333334 0.16666667
vt 0 0.16666667
vt 0.6666667 0.19444445
vt 1 0.19444445
vt 0.33333334 0.19444445
vt 0 0.19444445
vt 0 0.22222222
vt 0.6666667 0.22222222
vt 1 0.22222222
vt 0.33333334 0.22222222
vt 0.6666667 0.25
vt 1 0.25
vt 0.33333334 0.25
vt 0 0.25
vt 0 0.2777778
vt 0.6666667 0.2777778
vt 1 0.2777778
vt 0.33333334 0.2777778
vt 0.6666667 0.30555555
vt 1 0.30555555
vt 0.33333334 0.30555555
vt 0 0.30555555
vt 0 0.33333334
vt 0.6666667 0.33333334
vt 1 0.33333334
vt 0.33333334 0.33333334
vt 0.6666667 0.3611111
vt 1 0.3611111
vt 0.33333334 0.3611111
vt 0 0.3611111
vt 0 0.3888889
vt 0.6666667 0.3888889
vt 1 0.3888889
vt 0.33333334 0.3888889
vt 0.6666667 0.41666666
vt 1 0.41666666
vt 0.33333334 0.41666666
vt 0 0.41666666
vt 0.6666667 0.44444445
vt 1 0.44444445
vt 0.33333334 0.44444445
vt 0 0.44444445
vt 0 0.4722222
vt 0.6666667 0.4722222
vt 1 0.4722222
vt 0.33333334 0.4722222
vt 0.6666667 0.5
vt 1 0.5
vt 0.33333334 0.5
vt 0 0.5
vt 0 0.5277778
vt 0.6666667 0.5277778
vt 1 0.5277778
vt 0.33333334 0.5277778
vt 0.6666667 0.5555556
vt 1 0.5555556
vt 0.33333334 0.5555556
vt 0 0.5555556
vt 0 0.5833333
vt 0.6666667 0.5833333
vt 1 0.5833333
vt 0.33333334 0.5833333
vt 0.6666667 0.6111111
vt 1 0.6111111
vt 0.33333334 0.6111111
vt 0 0.6111111
vt 0 0.6388889
vt 0.6666667 0.6388889
vt 1 0.6388889
vt 0.33333334 0.6388889
vt 0.6666667 0.6666667
vt 1 0.6666667
vt 0.33333334 0.6666667
vt 0 0.6666667
vt 0.6666667 0.6944444
vt 1 0.6944444
vt 0.33333334 0.6944444
vt 0 0.6944444
vt 0 0.7222222
vt 0.6666667 0.7222222
vt 1 0.7222222
vt 0.33333334 0.7222222
vt 0.6666667 0.75
vt 1 0.75
vt 0.33333334 0.75
vt 0 0.75
vt 0 0.7777778
vt 0.6666667 0.7777778
vt 1 0.7777778
vt 0.33333334 0.7777778
vt 0.6666667 0.8055556
vt 1 0.8055556
vt 0.33333334 0.8055556
vt 0 0.8055556
vt 0 0.8333333
vt 0.6666667 0.8333333
vt 1 0.8333333
vt 0.33333334 0.8333333
vt 0.6666667 0.8611111
vt 1 0.8611111
vt 0.33333334 0.8611111
vt 0 0.8611111
vt 0 0.8888889
vt 0.6666667 0.8888889
vt 1 0.8888889
vt 0.33333334 0.8888889
vt 0.6666667 0.9166667
vt 1 0.9166667
vt 0.33333334 0.9166667
vt 0 0.9166667
vt 0.66666675 0.93125904
vt 1 0.93125904
vt 0.33333334 0.93125904
vt 0 0.93125904
vt 0.6666667 0.9444444
vt 1 0.9444444
vt 0.33333334 0.9444444
vt 0 0.9444444
vt 0 0.9588751
vt 0.6666667 0.9588751
vt 1 0.9588752
vt 0.33333334 0.9588752
vt 0 0.9722222
vt 0.6666667 0.9722222
vt 1 0.9722222
vt 0.33333334 0.9722222
vt 0.6666667 0.98250455
vt 1 0.98250455
vt 0.33333334 0.98250455
vt 0 0.98250455
vt 0.6666667 0.9919487
vt 1 0.99194866
vt 0.33333334 0.99194866
vt 0 0.9919487
vt 0.6666667 1
vt 1 1
vt 0.33333334 1
vt 0 1
vn 0.06798632 0.9971629 -0.032311954
vn 0.06829375 0.9971048 -0.03343431
vn 0.07206494 0.99624866 -0.047909275
vn 0.07193225 0.99627256 -0.047609527
vn 0.067234166 0.997299 -0.02956722
vn 0.08233683 0.9934645 -0.079049796
vn 0.0822552 0.9934877 -0.078842595
vn 0.071200594 0.9964323 -0.045312155
vn 0.0667769 0.99737775 -0.027899412
vn 0.07064229 0.9965544 -0.043464325
vn 0.08134489 0.99372524 -0.0767672
vn 0.08178954 0.9936087 -0.077796966
vn 0.09597974 0.98969966 -0.10621885
vn 0.09623519 0.9896199 -0.10672946
vn 0.09586424 0.9897189 -0.10614407
vn 0.09611695 0.9896584 -0.10647939
vn 0.11190124 0.9853001 -0.12908094
vn 0.11127106 0.9854702 -0.12832488
vn 0.11232905 0.98518455 -0.12959032
vn 0.112561524 0.9851216 -0.12986685
vn 0.12870903 0.9807555 -0.14680809
vn 0.12729292 0.9811519 -0.14538777
vn 0.12652984 0.9813576 -0.14466378
vn 0.1281978 0.9808997 -0.14629132
vn 0.1408699 0.9776325 -0.15617403
vn 0.14010428 0.97783595 -0.15558846
vn 0.14202946 0.97731334 -0.15711825
vn 0.14265513 0.97713757 -0.15764424
vn 0.15373366 0.97442865 -0.16387375
vn 0.15291072 0.9746425 -0.16337128
vn 0.15500534 0.9740878 -0.16470106
vn 0.15567046 0.9739052 -0.16515243
vn 0.1699711 0.97040266 -0.17154723
vn 0.1677362 0.97099406 -0.17039675
vn 0.16673416 0.9712493 -0.16992497
vn 0.16916034 0.97061914 -0.1711238
vn 0.18244994 0.9674374 -0.17543356
vn 0.18119694 0.9677503 -0.17500573
vn 0.18408759 0.9670117 -0.17606854
vn 0.18516092 0.9667323 -0.17647673
vn 0.19972719 0.9633165 -0.17924936
vn 0.19651504 0.96413445 -0.17840008
vn 0.19506393 0.96448696 -0.17808697
vn 0.19838743 0.96365577 -0.17891324
vn 0.20860009 0.9614629 -0.17909512
vn 0.20709915 0.9618115 -0.17896552
vn 0.21070291 0.9609404 -0.17943735
vn 0.21221113 0.96057266 -0.17962895
vn 0.22157079 0.95878834 -0.17785203
vn 0.2177433 0.9596876 -0.17772889
vn 0.21634412 0.95999116 -0.17779818
vn 0.22003068 0.95914483 -0.17784156
vn 0.22359286 0.9588518 -0.17495525
vn 0.22240444 0.9590888 -0.17517105
vn 0.2258534 0.9583499 -0.17480187
vn 0.22726622 0.95804274 -0.17465459
vn 0.2296062 0.95812154 -0.17112628
vn 0.22658056 0.9587329 -0.17173392
vn 0.22568734 0.95889443 -0.17200765
vn 0.22846767 0.9583508 -0.17136644
vn 0.22737528 0.95899713 -0.16918892
vn 0.22686777 0.95907927 -0.1694052
vn 0.228527 0.95878947 -0.1688142
vn 0.22922842 0.9586614 -0.16859062
vn 0.22672336 0.959276 -0.1684815
vn 0.22669858 0.9592838 -0.16847047
vn 0.22679372 0.9592553 -0.16850477
vn 0.2268509 0.9592405 -0.16851181
vn 0.2237428 0.95929545 -0.17231211
vn 0.22581346 0.95911527 -0.17060584
vn 0.22633158 0.9590841 -0.170093
vn 0.22454356 0.95922744 -0.17164741
vn 0.22740956 0.95796925 -0.17487086
vn 0.22824878 0.9579991 -0.17360929
vn 0.22488122 0.95807153 -0.17755978
vn 0.22332597 0.95809144 -0.17940566
vn 0.23244801 0.95553553 -0.18143809
vn 0.23670831 0.95573944 -0.17473239
vn 0.2370645 0.9559054 -0.17333601
vn 0.23373908 0.95569116 -0.17894255
vn 0.25487012 0.95338094 -0.16157374
vn 0.25448725 0.9535827 -0.16098528
vn 0.252531 0.9531972 -0.16626242
vn 0.25216684 0.9529641 -0.16814004
vn 0.2749244 0.95184976 -0.13564193
vn 0.27587888 0.95218164 -0.13130474
vn 0.27518097 0.9522821 -0.13203926
vn 0.27465013 0.9519922 -0.13519678
vn 0.29188433 0.95290774 -0.08228234
vn 0.29144686 0.95284975 -0.08447579
vn 0.29155684 0.9528357 -0.08425481
vn 0.29184172 0.95285875 -0.08299884
vn 0.2945827 0.9555776 -0.009610834
vn 0.2949945 0.9554072 -0.013241605
vn 0.29529718 0.9552553 -0.016932962
vn 0.2948519 0.9554604 -0.01255773
vn 0.27784994 0.95763177 0.0757685
vn 0.27933946 0.95760083 0.07050038
vn 0.27702156 0.9576032 0.07909008
vn 0.27575618 0.95758826 0.08356573
vn 0.23774636 0.9553936 0.17521328
vn 0.24077323 0.95579386 0.16877897
vn 0.23581998 0.95497334 0.18004148
vn 0.2333249 0.95455575 0.18542586
vn 0.17356521 0.94419914 0.27993402
vn 0.17998338 0.94603866 0.26947525
vn 0.18465476 0.9471045 0.26247966
vn 0.17725483 0.9451564 0.27433592
vn 0.1125714 0.9297535 0.35055128
vn 0.118541785 0.9315198 0.34382957
vn 0.109621294 0.9285933 0.3545388
vn 0.10508133 0.9271381 0.35968438
vn 0.034696247 0.9056579 0.4225872
vn 0.042292714 0.90860486 0.41551003
vn 0.048826758 0.91083676 0.4098688
vn 0.039556567 0.90740764 0.41838586
vn -0.026172873 0.8855459 0.46381396
vn -0.01988188 0.8878289 0.45974398
vn -0.028575433 0.8844478 0.4657633
vn -0.033233706 0.88269156 0.46877626
vn -0.09669354 0.86104876 0.49924496
vn -0.09035425 0.8635624 0.4960807
vn -0.084816605 0.8655235 0.4936346
vn -0.09256464 0.8625647 0.4974072
vn -0.14976639 0.8448736 0.5135745
vn -0.14481756 0.8464383 0.5124159
vn -0.15194121 0.8439498 0.5144536
vn -0.15566853 0.8427168 0.5153598
vn -0.20963219 0.82918674 0.51817334
vn -0.20402667 0.8309205 0.51763326
vn -0.19950512 0.8320568 0.5175703
vn -0.20613177 0.83012164 0.51808095
vn -0.23022124 0.82681966 0.51319337
vn -0.2293858 0.8268308 0.5135493
vn -0.23173793 0.8263093 0.5133326
vn -0.23246966 0.82626307 0.5130762
vn -0.25703233 0.8252799 0.5028394
vn -0.2531925 0.82606316 0.5035008
vn -0.2583004 0.8249679 0.50270146
vn -0.26153266 0.8242857 0.5021491
vn -0.283065 0.82167894 0.4946898
vn -0.28272307 0.8215482 0.4951022
vn -0.28427294 0.82139385 0.49447042
vn -0.28459314 0.82148564 0.4941336
vn -0.30733442 0.821901 0.47960857
vn -0.3038811 0.8223183 0.48109138
vn -0.30113056 0.8225885 0.4823572
vn -0.30499628 0.8221468 0.4806786
vn -0.31033963 0.82317775 0.47546574
vn -0.3099418 0.82321566 0.47565958
vn -0.310608 0.82308924 0.47544378
vn -0.31069782 0.8231063 0.4753555
vn -0.29841167 0.8268679 0.47669688
vn -0.29826 0.826864 0.47679853
vn -0.2984609 0.8268758 0.4766523
vn -0.29843718 0.8268799 0.47666013
vn -0.3177582 0.82812 0.4617867
vn -0.31795505 0.82817173 0.46155843
vn -0.3181631 0.82814395 0.46146482
vn -0.31786186 0.8280721 0.46180132
vn -0.3279247 0.82969934 0.45173484
vn -0.3276462 0.8296763 0.45197922
vn -0.3285597 0.8297499 0.4511802
vn -0.32893038 0.8297779 0.4508587
g WonderBox_SmokeTrails2_0
f 3/3/3 2/2/2 1/1/1
f 4/4/4 3/3/3 1/1/1
f 4/4/4 1/1/1 5/5/5
f 4/4/4 6/6/6 3/3/3
f 6/6/6 7/7/7 3/3/3
f 8/8/8 4/4/4 5/5/5
f 4/4/4 8/8/8 6/6/6
f 8/8/8 5/5/5 9/9/9
f 10/10/10 8/8/8 9/9/9
f 10/10/10 11/11/11 8/8/8
f 11/11/11 12/12/12 8/8/8
f 8/8/8 12/12/12 6/6/6
f 12/12/12 11/11/11 13/13/13
f 6/6/6 14/14/14 7/7/7
f 6/6/6 12/12/12 14/14/14
f 14/14/14 15/15/15 7/7/7
f 16/16/16 12/12/12 13/13/13
f 12/12/12 16/16/16 14/14/14
f 14/14/14 17/17/17 15/15/15
f 14/14/14 16/16/16 17/17/17
f 17/17/17 18/18/18 15/15/15
f 16/16/16 13/13/13 19/19/19
f 16/16/16 19/19/19 17/17/17
f 13/13/13 20/20/20 19/19/19
f 19/19/19 20/20/20 21/21/21
f 17/17/17 22/22/22 18/18/18
f 17/17/17 19/19/19 22/22/22
f 22/22/22 23/23/23 18/18/18
f 24/24/24 19/19/19 21/21/21
f 19/19/19 24/24/24 22/22/22
f 22/22/22 25/25/25 23/23/23
f 22/22/22 24/24/24 25/25/25
f 25/25/25 26/26/26 23/23/23
f 24/24/24 21/21/21 27/27/27
f 24/24/24 27/27/27 25/25/25
f 21/21/21 28/28/28 27/27/27
f 25/25/25 29/29/29 26/26/26
f 25/25/25 27/27/27 29/29/29
f 29/29/29 30/30/30 26/26/26
f 27/27/27 28/28/28 31/31/31
f 27/27/27 31/31/31 29/29/29
f 28/28/28 32/32/32 31/31/31
f 31/31/31 32/32/32 33/33/33
f 29/29/29 34/34/34 30/30/30
f 29/29/29 31/31/31 34/34/34
f 34/34/34 35/35/35 30/30/30
f 36/36/36 31/31/31 33/33/33
f 31/31/31 36/36/36 34/34/34
f 34/34/34 37/37/37 35/35/35
f 34/34/34 36/36/36 37/37/37
f 37/37/37 38/38/38 35/35/35
f 36/36/36 33/33/33 39/39/39
f 36/36/36 39/39/39 37/37/37
f 33/33/33 40/40/40 39/39/39
f 39/39/39 40/40/40 41/41/41
f 37/37/37 42/42/42 38/38/38
f 37/37/37 39/39/39 42/42/42
f 42/42/42 43/43/43 38/38/38
f 44/44/44 39/39/39 41/41/41
f 39/39/39 44/44/44 42/42/42
f 42/42/42 45/45/45 43/43/43
f 42/42/42 44/44/44 45/45/45
f 45/45/45 46/46/46 43/43/43
f 44/44/44 41/41/41 47/47/47
f 44/44/44 47/47/47 45/45/45
f 41/41/41 48/48/48 47/47/47
f 47/47/47 48/48/48 49/49/49
f 45/45/45 50/50/50 46/46/46
f 45/45/45 47/47/47 50/50/50
f 50/50/50 51/51/51 46/46/46
f 52/52/52 47/47/47 49/49/49
f 47/47/47 52/52/52 50/50/50
f 50/50/50 53/53/53 51/51/51
f 50/50/50 52/52/52 53/53/53
f 53/53/53 54/54/54 51/51/51
f 52/52/52 49/49/49 55/55/55
f 52/52/52 55/55/55 53/53/53
f 49/49/49 56/56/56 55/55/55
f 55/55/55 56/56/56 57/57/57
f 53/53/53 58/58/58 54/54/54
f 53/53/53 55/55/55 58/58/58
f 58/58/58 59/59/59 54/54/54
f 60/60/60 55/55/55 57/57/57
f 55/55/55 60/60/60 58/58/58
f 58/58/58 61/61/61 59/59/59
f 58/58/58 60/60/60 61/61/61
f 61/61/61 62/62/62 59/59/59
f 60/60/60 57/57/57 63/63/63
f 60/60/60 63/63/63 61/61/61
f 57/57/57 64/64/64 63/63/63
f 61/61/61 65/65/65 62/62/62
f 61/61/61 63/63/63 65/65/65
f 65/65/65 66/66/66 62/62/62
f 63/63/63 64/64/64 67/67/67
f 63/63/63 67/67/67 65/65/65
f 64/64/64 68/68/68 67/67/67
f 67/67/67 68/68/68 69/69/69
f 65/65/65 70/70/70 66/66/66
f 65/65/65 67/67/67 70/70/70
f 70/70/70 71/71/71 66/66/66
f 72/72/72 67/67/67 69/69/69
f 67/67/67 72/72/72 70/70/70
f 70/70/70 73/73/73 71/71/71
f 70/70/70 72/72/72 73/73/73
f 73/73/73 74/74/74 71/71/71
f 72/72/72 69/69/69 75/75/75
f 72/72/72 75/75/75 73/73/73
f 69/69/69 76/76/76 75/75/75
f 75/75/75 76/76/76 77/77/77
f 73/73/73 78/78/78 74/74/74
f 73/73/73 75/75/75 78/78/78
f 78/78/78 79/79/79 74/74/74
f 80/80/80 75/75/75 77/77/77
f 75/75/75 80/80/80 78/78/78
f 78/78/78 81/81/81 79/79/79
f 78/78/78 80/80/80 81/81/81
f 81/81/81 82/82/82 79/79/79
f 80/80/80 77/77/77 83/83/83
f 80/80/80 83/83/83 81/81/81
f 77/77/77 84/84/84 83/83/83
f 83/83/83 84/84/84 85/85/85
f 81/81/81 86/86/86 82/82/82
f 81/81/81 83/83/83 86/86/86
f 86/86/86 87/87/87 82/82/82
f 88/88/88 83/83/83 85/85/85
f 83/83/83 88/88/88 86/86/86
f 86/86/86 89/89/89 87/87/87
f 86/86/86 88/88/88 89/89/89
f 89/89/89 90/90/90 87/87/87
f 88/88/88 85/85/85 91/91/91
f 88/88/88 91/91/91 89/89/89
f 85/85/85 92/92/92 91/91/91
f 91/91/91 92/92/92 93/93/93
f 89/89/89 94/94/94 90/90/90
f 89/89/89 91/91/91 94/94/94
f 94/94/94 95/95/95 90/90/90
f 96/96/96 91/91/91 93/93/93
f 91/91/91 96/96/96 94/94/94
f 94/94/94 97/97/97 95/95/95
f 94/94/94 96/96/96 97/97/97
f 97/97/97 98/98/98 95/95/95
f 96/96/96 93/93/93 99/99/99
f 96/96/96 99/99/99 97/97/97
f 93/93/93 100/100/100 99/99/99
f 97/97/97 101/101/101 98/98/98
f 97/97/97 99/99/99 101/101/101
f 101/101/101 102/102/102 98/98/98
f 99/99/99 100/100/100 103/103/103
f 99/99/99 103/103/103 101/101/101
f 100/100/100 104/104/104 103/103/103
f 103/103/103 104/104/104 105/105/105
f 101/101/101 106/106/106 102/102/102
f 101/101/101 103/103/103 106/106/106
f 106/106/106 107/107/107 102/102/102
f 108/108/108 103/103/103 105/105/105
f 103/103/103 108/108/108 106/106/106
f 106/106/106 109/109/109 107/107/107
f 106/106/106 108/108/108 109/109/109
f 109/109/109 110/110/110 107/107/107
f 108/108/108 105/105/105 111/111/111
f 108/108/108 111/111/111 109/109/109
f 105/105/105 112/112/112 111/111/111
f 111/111/111 112/112/112 113/113/113
f 109/109/109 114/114/114 110/110/110
f 109/109/109 111/111/111 114/114/114
f 114/114/114 115/115/115 110/110/110
f 116/116/116 111/111/111 113/113/113
f 111/111/111 116/116/116 114/114/114
f 114/114/114 117/117/117 115/115/115
f 114/114/114 116/116/116 117/117/117
f 117/117/117 118/118/118 115/115/115
f 116/116/116 113/113/113 119/119/119
f 116/116/116 119/119/119 117/117/117
f 113/113/113 120/120/120 119/119/119
f 119/119/119 120/120/120 121/121/121
f 117/117/117 122/122/122 118/118/118
f 117/117/117 119/119/119 122/122/122
f 122/122/122 123/123/123 118/118/118
f 124/124/124 119/119/119 121/121/121
f 119/119/119 124/124/124 122/122/122
f 122/122/122 125/125/125 123/123/123
f 122/122/122 124/124/124 125/125/125
f 125/125/125 126/126/126 123/123/123
f 124/124/124 121/121/121 127/127/127
f 124/124/124 127/127/127 125/125/125
f 121/121/121 128/128/128 127/127/127
f 127/127/127 128/128/128 129/129/129
f 125/125/125 130/130/130 126/126/126
f 125/125/125 127/127/127 130/130/130
f 130/130/130 131/131/131 126/126/126
f 132/132/132 127/127/127 129/129/129
f 127/127/127 132/132/132 130/130/130
f 130/130/130 133/133/133 131/131/131
f 130/130/130 132/132/132 133/133/133
f 133/133/133 134/134/134 131/131/131
f 132/132/132 129/129/129 135/135/135
f 132/132/132 135/135/135 133/133/133
f 129/129/129 136/136/136 135/135/135
f 133/133/133 137/137/137 134/134/134
f 133/133/133 135/135/135 137/137/137
f 137/137/137 138/138/138 134/134/134
f 135/135/135 136/136/136 139/139/139
f 135/135/135 139/139/139 137/137/137
f 136/136/136 140/140/140 139/139/139
f 137/137/137 141/141/141 138/138/138
f 137/137/137 139/139/139 141/141/141
f 141/141/141 142/142/142 138/138/138
f 139/139/139 140/140/140 143/143/143
f 139/139/139 143/143/143 141/141/141
f 140/140/140 144/144/144 143/143/143
f 143/143/143 144/144/144 145/145/145
f 141/141/141 146/146/146 142/142/142
f 141/141/141 143/143/143 146/146/146
f 146/146/146 147/147/147 142/142/142
f 148/148/148 143/143/143 145/145/145
f 143/143/143 148/148/148 146/146/146
f 148/148/148 145/145/145 149/149/149
f 146/146/146 150/150/150 147/147/147
f 146/146/146 148/148/148 150/150/150
f 150/150/150 151/151/151 147/147/147
f 152/152/152 148/148/148 149/149/149
f 148/148/148 152/152/152 150/150/150
f 150/150/150 153/153/153 151/151/151
f 150/150/150 152/152/152 153/153/153
f 153/153/153 154/154/154 151/151/151
f 152/152/152 149/149/149 155/155/155
f 152/152/152 155/155/155 153/153/153
f 149/149/149 156/156/156 155/155/155
f 153/153/153 157/157/157 154/154/154
f 153/153/153 155/155/155 157/157/157
f 157/157/157 158/158/158 154/154/154
f 155/155/155 156/156/156 159/159/159
f 155/155/155 159/159/159 157/157/157
f 156/156/156 160/160/160 159/159/159
f 157/157/157 161/161/161 158/158/158
f 157/157/157 159/159/159 161/161/161
f 161/161/161 162/162/162 158/158/158
f 159/159/159 163/163/163 161/161/161
f 159/159/159 160/160/160 163/163/163
f 160/160/160 164/164/164 163/163/163
